<svg role="img" viewBox="0 0 32 32" xmlns="http://www.w3.org/2000/svg"><path d="M3.2 2.559A1.93 1.93 0 0 0 1.28 4.48v23.04a1.93 1.93 0 0 0 1.92 1.92h25.602a1.93 1.93 0 0 0 1.918-1.921V4.48a1.93 1.93 0 0 0-1.92-1.92Zm0 1.28h25.6a.64.64 0 0 1 .641.641v23.04c0 .355-.285.64-.64.64H3.199a.639.639 0 0 1-.64-.64V4.48c0-.355.285-.64.64-.64m3.722 5.122a.64.64 0 1 0 .117 1.277H24.96a.64.64 0 0 0 .562-.316.654.654 0 0 0 0-.645.64.64 0 0 0-.562-.316H6.98zm0 6.398a.644.644 0 0 0 .117 1.282H24.96a.65.65 0 0 0 .562-.317.661.661 0 0 0 0-.648.649.649 0 0 0-.562-.317H6.98zm0 6.403a.64.64 0 1 0 .117 1.277H24.96a.64.64 0 0 0 .562-.316.654.654 0 0 0 0-.645.64.64 0 0 0-.562-.316H6.98zm0 0"/></svg>