<svg role="img" viewBox="0 0 32 32" xmlns="http://www.w3.org/2000/svg"><path d="M28.8 2.559H3.2A1.922 1.922 0 0 0 1.28 4.48v23.04c0 1.058.86 1.921 1.918 1.921H28.8a1.922 1.922 0 0 0 1.918-1.921V4.48c0-1.058-.86-1.921-1.918-1.921m-3.84 20.48H7.04a.641.641 0 0 1-.642-.64.64.64 0 0 1 .641-.637h17.922a.638.638 0 1 1 0 1.277m0-6.398H7.04A.644.644 0 0 1 6.397 16c0-.352.29-.64.641-.64H24.96a.641.641 0 0 1 0 1.28m0-6.403H7.04a.64.64 0 0 1-.642-.636c0-.356.29-.641.641-.641h17.922a.639.639 0 1 1 0 1.277m0 0"/></svg>