<svg role="img" viewBox="0 0 32 32" height="32" width="32" xmlns="http://www.w3.org/2000/svg"><path d="M28.8 2.559H3.2A1.92 1.92 0 0 0 1.28 4.48v23.04c0 1.058.86 1.921 1.918 1.921H28.8a1.925 1.925 0 0 0 1.918-1.921V4.48c0-1.058-.86-1.921-1.918-1.921m-3.84 20.48H7.039a.641.641 0 0 1-.64-.64.64.64 0 0 1 .64-.637h17.922a.638.638 0 0 1 0 1.277m0-6.398H7.039a.641.641 0 0 1 0-1.282h17.922a.642.642 0 0 1 0 1.282m0-6.403H7.039a.64.64 0 0 1-.64-.636.64.64 0 0 1 .64-.641h17.922a.632.632 0 0 1 .574.312c.121.2.121.45 0 .653a.646.646 0 0 1-.574.312m0 0"/></svg>