<svg role="img" viewBox="0 0 32 32" height="32" width="32" xmlns="http://www.w3.org/2000/svg"><path d="M3.2 2.559A1.93 1.93 0 0 0 1.28 4.48v23.04a1.93 1.93 0 0 0 1.92 1.92h25.602a1.93 1.93 0 0 0 1.918-1.921V4.48a1.93 1.93 0 0 0-1.92-1.92Zm0 1.28h25.6a.642.642 0 0 1 .641.641v23.04c0 .355-.285.64-.64.64H3.199a.635.635 0 0 1-.453-.187.635.635 0 0 1-.187-.453V4.48c0-.355.285-.64.64-.64m3.723 5.12a.646.646 0 0 0-.582.7c.035.352.344.61.7.578h17.92a.64.64 0 0 0 .563-.316.654.654 0 0 0 0-.645.64.64 0 0 0-.562-.316Zm0 6.4a.643.643 0 0 0 .117 1.28h17.922a.645.645 0 0 0 .562-.316.661.661 0 0 0 0-.648.662.662 0 0 0-.562-.317Zm0 6.402a.64.64 0 1 0 .117 1.277h17.922a.64.64 0 0 0 .562-.316.654.654 0 0 0 0-.645.64.64 0 0 0-.562-.316Zm0 0"/></svg>