<svg role="img" viewBox="0 0 32 32" height="32" width="32" xmlns="http://www.w3.org/2000/svg"><path d="M28.094 15.95h-4.07l-1.715-6.876a.749.749 0 0 0-.73-.574.757.757 0 0 0-.716.605l-2.558 12.7-1.106-5.258a.748.748 0 0 0-1.43-.125L15 18.352 13.5 5.91a.751.751 0 0 0-.746-.66.75.75 0 0 0-.754.664l-1.863 16.05-1.317-5a.75.75 0 0 0-.726-.558H3.906a.75.75 0 0 0 0 1.5H7.5l2.18 8.278a.748.748 0 0 0 .726.562h.055a.746.746 0 0 0 .687-.66l1.598-13.727 1.098 9.082c.043.34.308.606.648.653a.754.754 0 0 0 .793-.465l.942-2.348 1.347 6.414a.749.749 0 0 0 1.465-.011l2.602-13 1.05 4.207c.082.336.383.57.73.57h4.65a.75.75 0 0 0 0-1.5Zm0 0"/></svg>