<?xml version="1.0" encoding="UTF-8"?>
<svg xmlns="http://www.w3.org/2000/svg" xmlns:xlink="http://www.w3.org/1999/xlink" width="32" height="32" viewBox="0 0 32 32">
<path fill-rule="nonzero" fill="rgb(0%, 0%, 0%)" fill-opacity="1" d="M 28.800781 2.558594 L 3.199219 2.558594 C 2.140625 2.558594 1.28125 3.417969 1.28125 4.480469 L 1.28125 27.519531 C 1.28125 28.578125 2.140625 29.441406 3.199219 29.441406 L 28.800781 29.441406 C 29.859375 29.4375 30.714844 28.578125 30.71875 27.519531 L 30.71875 4.480469 C 30.71875 3.421875 29.859375 2.558594 28.800781 2.558594 M 24.960938 23.039062 L 7.039062 23.039062 C 6.6875 23.039062 6.398438 22.753906 6.398438 22.398438 C 6.402344 22.046875 6.6875 21.761719 7.039062 21.761719 L 24.960938 21.761719 C 25.3125 21.761719 25.597656 22.046875 25.597656 22.402344 C 25.597656 22.753906 25.3125 23.039062 24.960938 23.039062 M 24.960938 16.640625 L 7.039062 16.640625 C 6.683594 16.640625 6.398438 16.355469 6.398438 16 C 6.398438 15.644531 6.683594 15.359375 7.039062 15.359375 L 24.960938 15.359375 C 25.300781 15.378906 25.566406 15.660156 25.566406 16 C 25.566406 16.339844 25.300781 16.621094 24.960938 16.640625 M 24.960938 10.238281 L 7.039062 10.238281 C 6.6875 10.238281 6.402344 9.953125 6.398438 9.601562 C 6.398438 9.433594 6.464844 9.269531 6.585938 9.148438 C 6.707031 9.027344 6.867188 8.960938 7.039062 8.960938 L 24.960938 8.960938 C 25.195312 8.949219 25.417969 9.070312 25.535156 9.273438 C 25.65625 9.472656 25.65625 9.722656 25.535156 9.925781 C 25.414062 10.125 25.195312 10.246094 24.960938 10.238281 M 24.960938 10.238281 "/>
</svg>
