<svg role="img" viewBox="0 0 22.113 32" xmlns="http://www.w3.org/2000/svg"><path d="m17.91 20.406-5.367-.015-2.668-4.657 2.695-4.64 5.368.02 2.667 4.652Zm0 0" fill="rgb(75.686276%, 15.294118%, 40.000001%)"/><path d="m9.43 25.273-5.367-.015-2.668-4.656L4.09 15.96l5.367.02 2.668 4.652Zm0 0" fill="rgb(24.313726%, 28.235295%, 62.352943%)"/><path d="m17.86 30.164-5.368-.02-2.668-4.652 2.696-4.64 5.367.015 2.668 4.656Zm0 0" fill="rgb(44.313726%, 25.098041%, 60.000002%)"/><path d="m9.477 15.582-5.368-.016-2.668-4.656 2.696-4.637 5.367.016 2.668 4.656Zm0 0" fill="rgb(47.058824%, 57.647061%, 17.254902%)"/><path d="m17.902 10.703-5.367-.015L9.867 6.03l2.695-4.636 5.368.015 2.668 4.656Zm0 0" fill="rgb(81.176472%, 14.117648%, 16.470589%)"/><path d="M14.422 6.055a.813.813 0 0 1 .816-.813.812.812 0 1 1 0 1.625.813.813 0 0 1-.816-.812m-8.43 4.87a.813.813 0 1 1 1.629-.004.813.813 0 0 1-.812.816.82.82 0 0 1-.579-.233.83.83 0 0 1-.238-.578M5.95 20.62a.816.816 0 0 1 1.633-.004.816.816 0 0 1-1.633.004m8.426 4.887a.8.8 0 0 1 .398-.727.81.81 0 0 1 .829 0c.257.153.41.43.398.727a.812.812 0 1 1-1.625 0m.05-9.754c0-.45.364-.813.817-.813a.812.812 0 1 1 0 1.625.813.813 0 0 1-.816-.812m0 0" fill="rgb(100%, 100%, 100%)"/></svg>