<svg role="img" viewBox="0 0 22.113 32" height="32" width="22.113" xmlns="http://www.w3.org/2000/svg"><path d="m17.91 20.406-5.367-.015-2.668-4.657 2.695-4.64 5.368.02 2.667 4.652Zm0 0" fill="rgb(75.686275%, 15.294118%, 40%)"/><path d="m9.43 25.273-5.367-.015-2.668-4.656L4.09 15.96l5.367.02 2.668 4.652Zm0 0" fill="rgb(24.313725%, 28.235294%, 62.352941%)"/><path d="m17.86 30.164-5.368-.02-2.668-4.652 2.696-4.64 5.367.015 2.668 4.656Zm0 0" fill="rgb(44.313725%, 25.098039%, 60%)"/><path d="m9.477 15.582-5.368-.016-2.668-4.656 2.696-4.637 5.367.016 2.668 4.656Zm0 0" fill="rgb(47.058824%, 57.647059%, 17.254902%)"/><path d="m17.902 10.703-5.367-.015L9.867 6.03l2.695-4.636 5.368.015 2.668 4.656Zm0 0" fill="rgb(81.176471%, 14.117647%, 16.470588%)"/><path d="M14.422 6.055a.813.813 0 0 1 .816-.813.812.812 0 1 1 0 1.625.813.813 0 0 1-.816-.812m-8.43 4.87a.815.815 0 0 1 1.63-.003.813.813 0 0 1-.24.574.822.822 0 0 1-1.152.008.822.822 0 0 1-.238-.578M5.95 20.62c0-.453.364-.82.813-.82.453-.004.82.36.824.812a.82.82 0 0 1-.816.82.826.826 0 0 1-.82-.812m8.425 4.887a.802.802 0 0 1 .398-.727.807.807 0 0 1 .829 0c.257.153.41.43.398.727a.812.812 0 1 1-1.625 0m.05-9.754a.813.813 0 1 1 1.223.7.816.816 0 0 1-1.222-.7m0 0" fill="rgb(100%, 100%, 100%)"/></svg>