<svg role="img" viewBox="0 0 32 32" height="32" width="32" xmlns="http://www.w3.org/2000/svg"><path d="M3.84 3.84a1.927 1.927 0 0 0-1.918 1.922v20.476c0 1.059.86 1.922 1.918 1.922h15.898A6.413 6.413 0 0 0 25.602 32 6.407 6.407 0 0 0 32 25.602c0-1.79-.738-3.403-1.922-4.563V5.762c0-1.059-.86-1.922-1.918-1.922H7.04v21.12a.643.643 0 0 1-.306.59.652.652 0 0 1-.664 0 .638.638 0 0 1-.308-.59V3.84Zm14.082 3.2c4.945 0 8.957 4.01 8.957 8.96 0 1.14-.223 2.23-.613 3.234a6.248 6.248 0 0 0-.664-.035c-3.278 0-5.98 2.473-6.356 5.653a8.82 8.82 0 0 1-1.324.109A8.96 8.96 0 0 1 8.96 16a8.96 8.96 0 0 1 8.96-8.96m0 5.12A3.855 3.855 0 0 0 14.079 16c0 2.113 1.73 3.84 3.844 3.84a3.844 3.844 0 0 0 3.84-3.84c0-2.113-1.73-3.84-3.84-3.84m0 1.281A2.543 2.543 0 0 1 20.48 16a2.54 2.54 0 0 1-2.559 2.559 2.549 2.549 0 0 1-1.816-.743A2.552 2.552 0 0 1 15.36 16a2.552 2.552 0 0 1 .746-1.816c.48-.48 1.137-.75 1.817-.743m0 1.278A1.287 1.287 0 0 0 16.64 16c0 .7.578 1.281 1.277 1.281A1.29 1.29 0 0 0 19.199 16c0-.7-.578-1.281-1.277-1.281m7.68 5.761c.214 0 .43.02.64.043.055.008.11.02.164.028.168.027.332.062.5.105l.117.032c.418.12.817.292 1.18.515.02.008.04.02.059.031.562.344 1.05.793 1.445 1.325.004.003.008.011.012.015.133.18.254.363.36.559v-.004c.41.734.64 1.574.64 2.473 0 .894-.23 1.738-.64 2.472v-.008l-.056.094h.004a5.117 5.117 0 0 1-4.43 2.559 5.106 5.106 0 0 1-4.425-2.559h.004a4.982 4.982 0 0 1-.504-1.187l-.02-.075a4.802 4.802 0 0 1-.129-.668 3.755 3.755 0 0 1-.043-.628c0-.247.024-.485.06-.723a5.4 5.4 0 0 1 .183-.828l-.004.004a5.133 5.133 0 0 1 4.468-3.555c.137-.008.274-.02.415-.02m0 1.344c-.387 0-.641.254-.641.64v2.497h-2.496c-.387 0-.64.254-.64.64 0 .383.253.637.64.637h2.496v2.496c0 .387.254.641.64.641.383 0 .637-.254.637-.64v-2.497h2.496c.387 0 .641-.254.641-.636 0-.387-.254-.641-.64-.641h-2.497v-2.496c0-.387-.254-.64-.636-.64m0 0"/></svg>