<svg role="img" viewBox="0 0 32 32" xmlns="http://www.w3.org/2000/svg"><defs><clipPath id="add-firewall_svg__a"><path d="M1.25 5h29.5v22H1.25Zm0 0"/></clipPath><clipPath id="add-firewall_svg__b"><path d="M0 32V0h32v32ZM15.75 8.05c-4.645 0-8.45 3.805-8.45 8.45s3.805 8.45 8.45 8.45 8.45-3.805 8.45-8.45-3.805-8.45-8.45-8.45"/></clipPath></defs><g clip-path="url(#add-firewall_svg__a)"><g clip-path="url(#add-firewall_svg__b)"><path d="M1.281 5.121v6.399h8.957v-6.4Zm10.239 0v6.399h8.96v-6.4Zm10.242 0v6.399h8.957v-6.4Zm-20.48 7.68v6.398h3.84v-6.398Zm5.116 0v6.398h8.961v-6.398Zm10.243 0v6.398h8.96v-6.398Zm10.238 0v6.398h3.84v-6.398ZM1.28 20.48v6.398h8.957V20.48Zm10.239 0v6.398h8.96V20.48Zm10.242 0v6.398h8.957V20.48Zm0 0" fill="rgb(41.568628%, 41.568628%, 41.568628%)"/></g></g><path d="M15.75 9.46c-3.871 0-7.04 3.169-7.04 7.04s3.169 7.04 7.04 7.04 7.04-3.169 7.04-7.04-3.169-7.04-7.04-7.04m3.45 7.743h-2.747v2.746c0 .422-.281.703-.703.703s-.703-.28-.703-.703v-2.746H12.3c-.422 0-.703-.281-.703-.703s.28-.703.703-.703h2.746V12.98c0-.421.281-.703.703-.703s.703.282.703.703v2.817H19.2c.422 0 .703.281.703.703s-.28.703-.703.703" fill="rgb(0%, 0%, 0%)"/></svg>