<svg role="img" viewBox="0 0 32 32" xmlns="http://www.w3.org/2000/svg"><path d="M16 1.281C7.883 1.281 1.281 7.883 1.281 16S7.883 30.719 16 30.719c1.707 0 3.344-.293 4.871-.828A6.38 6.38 0 0 0 25.601 32C29.122 32 32 29.121 32 25.602c0-1.875-.82-3.559-2.11-4.73.551-1.567.829-3.212.829-4.872 0-8.117-6.602-14.719-14.719-14.719m0 3.2a.64.64 0 0 1 .64.64V14.2a1.91 1.91 0 0 1 1.283 1.8A1.92 1.92 0 0 1 16 17.922c-.297 0-.57-.074-.824-.195l-3.844 3.847a.64.64 0 0 1-.453.188.65.65 0 0 1-.594-.395.65.65 0 0 1 .14-.699l3.848-3.844a1.9 1.9 0 0 1-.195-.824c0-.836.54-1.54 1.281-1.8V5.12c0-.355.286-.64.641-.64m9.602 16c2.812 0 5.117 2.304 5.117 5.12 0 2.813-2.305 5.118-5.117 5.118-2.817 0-5.122-2.305-5.122-5.117 0-2.817 2.305-5.122 5.122-5.122m0 1.407c-.387 0-.641.258-.641.578v2.496h-2.496c-.387 0-.64.254-.64.637 0 .382.253.636.64.636h2.496V28.8c0 .383.254.637.64.637.383 0 .637-.254.637-.637v-2.567h2.496c.387 0 .641-.254.641-.632 0-.387-.254-.641-.574-.641h-2.563v-2.438c0-.378-.254-.636-.636-.636m0 0" fill="rgb(0%, 0%, 0%)"/></svg>