<svg role="img" viewBox="0 0 32 32" height="32" width="32" xmlns="http://www.w3.org/2000/svg"><path d="M18.559 1.281c-.825 0-1.63.047-2.2.617L1.82 16.441a1.855 1.855 0 0 0-.539 1.32c0 .493.188.95.54 1.298l11.12 11.12c.348.352.805.54 1.297.54.496 0 .973-.188 1.32-.54l3.044-3.038c1.046 2.109 3.207 3.578 5.718 3.578a6.407 6.407 0 0 0 6.399-6.399c0-2.511-1.469-4.672-3.578-5.718l2.96-2.961c.626-.625.626-1.536.618-2.403V3.52c0-1.235-1-2.239-2.239-2.239Zm6.402 3.84a1.92 1.92 0 1 1-.003 3.84 1.92 1.92 0 0 1 .003-3.84M24.32 19.2c1.359 0 2.66.54 3.624 1.5a5.14 5.14 0 0 1 0 7.246 5.103 5.103 0 0 1-3.625 1.496 5.107 5.107 0 0 1-5.12-5.12 5.104 5.104 0 0 1 1.495-3.622 5.131 5.131 0 0 1 3.625-1.5m-.64 1.922v2.559H21.12v1.28h2.559v2.56h1.277v-2.56h2.563v-1.28h-2.563V21.12Zm0 0"/></svg>