<svg role="img" viewBox="0 0 32 32" height="32" width="32" xmlns="http://www.w3.org/2000/svg"><path d="m29.441 7.04-5.734.003c-.176-.063-.547-.652-.742-.969-.492-.785-1.004-1.594-1.844-1.594H10.88c-.84 0-1.352.81-1.844 1.594-.195.317-.566.906-.715.965H2.56A1.92 1.92 0 0 0 .64 8.961V25.6c0 1.06.859 1.919 1.918 1.919H29.44c1.059 0 1.918-.86 1.918-1.918V8.96a1.92 1.92 0 0 0-1.918-1.922m-8.96 10.883h-3.84v3.84a.667.667 0 0 1-.188.449.622.622 0 0 1-.453.184.648.648 0 0 1-.453-.184.617.617 0 0 1-.188-.45v-3.84h-3.84a.644.644 0 0 1-.617-.64.626.626 0 0 1 .618-.64h3.84V12.8c0-.172.066-.336.187-.453A.613.613 0 0 1 16 12.16c.355 0 .64.285.64.64v3.84h3.84a.643.643 0 0 1 0 1.277m0 .001"/></svg>