<svg role="img" viewBox="0 0 32 32" height="32" width="32" xmlns="http://www.w3.org/2000/svg"><path d="M3.84 1.281V30.72h17.94A6.327 6.327 0 0 0 25.601 32 6.407 6.407 0 0 0 32 25.602c0-2.618-1.586-4.868-3.84-5.864V1.281Zm4.48 7.68h2.559v1.277H8.32Zm4.48 0h10.88v1.277H12.8ZM8.32 12.8h2.559v1.277H8.32Zm4.48 0h10.88v1.277H12.8Zm-4.48 3.84h2.559v1.277H8.32Zm4.48 0h10.88v1.277H12.8Zm-4.48 3.84h2.559v1.277H8.32Zm4.48 0h8.981a6.303 6.303 0 0 0-1.281 1.277h-7.7Zm12.802 0a5.107 5.107 0 0 1 3.625 1.496 5.12 5.12 0 0 1 1.492 3.625 5.098 5.098 0 0 1-1.496 3.62 5.09 5.09 0 0 1-3.621 1.497 5.107 5.107 0 0 1-5.122-5.117 5.107 5.107 0 0 1 5.122-5.122m-.641 1.915v2.566h-2.563v1.273h2.563V28.8h1.277v-2.567h2.563V24.96h-2.563v-2.566Zm0 0"/></svg>