<?xml version="1.0" encoding="UTF-8"?>
<svg xmlns="http://www.w3.org/2000/svg" xmlns:xlink="http://www.w3.org/1999/xlink" width="32" height="32" viewBox="0 0 32 32">
<defs>
<clipPath id="clip-0">
<path clip-rule="nonzero" d="M 1 4 L 31 4 L 31 31 L 1 31 Z M 1 4 "/>
</clipPath>
<clipPath id="clip-1">
<path clip-rule="nonzero" d="M 0 32 L 0 0 L 32 0 L 32 32 Z M 16 8.820312 C 11.777344 8.820312 8.320312 12.277344 8.320312 16.5 C 8.320312 20.722656 11.777344 24.179688 16 24.179688 C 20.222656 24.179688 23.679688 20.722656 23.679688 16.5 C 23.679688 12.277344 20.222656 8.820312 16 8.820312 Z M 16 8.820312 "/>
</clipPath>
</defs>
<g clip-path="url(#clip-0)">
<g clip-path="url(#clip-1)">
<path fill-rule="nonzero" fill="rgb(0%, 0%, 0%)" fill-opacity="1" d="M 16 30.273438 L 15.589844 29.933594 C 14.8125 29.28125 13.761719 28.578125 12.539062 27.761719 C 7.789062 24.578125 1.28125 20.226562 1.28125 12.800781 C 1.28125 8.210938 5.011719 4.480469 9.601562 4.480469 C 12.09375 4.480469 14.425781 5.589844 16 7.488281 C 17.574219 5.589844 19.90625 4.480469 22.398438 4.480469 C 26.988281 4.480469 30.71875 8.210938 30.71875 12.800781 C 30.71875 20.226562 24.210938 24.578125 19.460938 27.761719 C 18.238281 28.578125 17.1875 29.28125 16.410156 29.933594 Z M 16 30.273438 "/>
</g>
</g>
<path fill-rule="nonzero" fill="rgb(0%, 0%, 0%)" fill-opacity="1" d="M 16 10.101562 C 12.480469 10.101562 9.601562 12.980469 9.601562 16.5 C 9.601562 20.019531 12.480469 22.898438 16 22.898438 C 19.519531 22.898438 22.398438 20.019531 22.398438 16.5 C 22.398438 12.980469 19.519531 10.101562 16 10.101562 Z M 19.136719 17.140625 L 16.640625 17.140625 L 16.640625 19.636719 C 16.640625 20.019531 16.382812 20.277344 16 20.277344 C 15.617188 20.277344 15.359375 20.019531 15.359375 19.636719 L 15.359375 17.140625 L 12.863281 17.140625 C 12.480469 17.140625 12.222656 16.882812 12.222656 16.5 C 12.222656 16.117188 12.480469 15.859375 12.863281 15.859375 L 15.359375 15.859375 L 15.359375 13.300781 C 15.359375 12.914062 15.617188 12.660156 16 12.660156 C 16.382812 12.660156 16.640625 12.914062 16.640625 13.300781 L 16.640625 15.859375 L 19.136719 15.859375 C 19.519531 15.859375 19.777344 16.117188 19.777344 16.5 C 19.777344 16.882812 19.519531 17.140625 19.136719 17.140625 Z M 19.136719 17.140625 "/>
</svg>
