<svg role="img" viewBox="0 0 32 32" xmlns="http://www.w3.org/2000/svg"><path d="M18.555 5.762c-3.242 0-5.992 1.707-7.364 4.52-.703-.446-1.55-.68-2.46-.68-2.329 0-4.106 1.77-4.25 4.164C1.624 14.734 0 17 0 20.05a6.2 6.2 0 0 0 6.188 6.187h13.054c.14 1.469.79 2.84 1.832 3.887 2.488 2.488 6.563 2.488 9.051 0 1.918-1.918 2.352-4.77 1.316-7.121.36-.746.559-1.578.559-2.461 0-3.027-2.312-5.707-5.129-6.094q.007-.189.008-.37c0-4.665-3.656-8.317-8.324-8.317m7.047 14.722a5.1 5.1 0 0 1 3.617 1.496c1.992 1.993 1.992 5.25 0 7.239a5.13 5.13 0 0 1-7.239 0 5.13 5.13 0 0 1 0-7.239 5.1 5.1 0 0 1 3.622-1.496m0 1.313a.62.62 0 0 0-.454.183.6.6 0 0 0-.183.454v2.527h-2.531a.625.625 0 0 0-.637.64.6.6 0 0 0 .183.45.62.62 0 0 0 .454.183h2.53v2.532c0 .363.274.636.638.636.18 0 .359-.093.449-.183a.7.7 0 0 0 .183-.453v-2.532h2.532c.183 0 .363-.09.453-.183a.66.66 0 0 0 .183-.45.6.6 0 0 0-.183-.453.62.62 0 0 0-.453-.183h-2.532v-2.531a.62.62 0 0 0-.633-.637m0 0"/></svg>