<svg role="img" viewBox="0 0 32 32" xmlns="http://www.w3.org/2000/svg"><path d="M7.04 1.281a.7.7 0 0 0-.286.067l-.992.496-.996-.496a.64.64 0 0 0-.926.574v28.156a.64.64 0 0 0 .64.64h17.293c2.504 1.868 6.082 1.677 8.352-.593 2.488-2.488 2.488-6.562 0-9.05a6.4 6.4 0 0 0-1.965-1.333V1.922a.64.64 0 0 0-.926-.574l-.996.496-.992-.496a.65.65 0 0 0-.574 0l-.992.496-.992-.496a.65.65 0 0 0-.575 0l-.992.496-.996-.496a.64.64 0 0 0-.57 0l-.996.496-.993-.496a.65.65 0 0 0-.574 0L16 1.844l-.992-.496a.65.65 0 0 0-.574 0l-.993.496-.996-.496a.64.64 0 0 0-.57 0l-.996.496-.992-.496a.65.65 0 0 0-.575 0l-.992.496-.992-.496a.7.7 0 0 0-.289-.067M8.32 7.04h9.602c.351 0 .637.285.637.64a.635.635 0 0 1-.637.64l-9.602.001a.64.64 0 0 1-.453-.187.642.642 0 0 1 .453-1.094m13.442 0h1.918c.261.004.492.16.59.402a.64.64 0 0 1-.137.7.63.63 0 0 1-.453.18h-1.918a.62.62 0 0 1-.453-.184.642.642 0 0 1 .453-1.094M8.32 10.879h7.04a.641.641 0 0 1 0 1.281H8.32a.644.644 0 0 1-.597-.64c0-.336.261-.618.597-.641m13.442 0h1.918a.644.644 0 0 1 .597.64.644.644 0 0 1-.597.641h-1.918a.641.641 0 0 1 0-1.281M8.32 14.719h9.602a.642.642 0 0 1 0 1.281H8.32a.644.644 0 0 1-.597-.64c0-.337.261-.618.597-.641m13.442 0h1.918a.644.644 0 0 1 .597.64.644.644 0 0 1-.597.641h-1.918a.644.644 0 0 1-.598-.64c0-.337.262-.618.598-.641M8.32 18.559h7.04a.643.643 0 0 1 0 1.28H8.32a.641.641 0 0 1 0-1.281m13.442 0h1.918c.172 0 .332.067.453.188a.64.64 0 0 1 .187.453c0 .051-.02.098-.027.145a6.5 6.5 0 0 0-1.461.496h-1.07a.641.641 0 0 1 0-1.281m3.84 1.925a5.1 5.1 0 0 1 3.617 1.496c1.992 1.993 1.992 5.25 0 7.239a5.13 5.13 0 0 1-7.239 0 5.13 5.13 0 0 1 0-7.239 5.1 5.1 0 0 1 3.622-1.496m0 1.313a.62.62 0 0 0-.454.183.62.62 0 0 0-.183.454v2.53h-2.531a.62.62 0 0 0-.454.184.6.6 0 0 0-.183.454.62.62 0 0 0 .637.632h2.53v2.532c0 .363.274.636.638.636.18 0 .359-.093.449-.183a.67.67 0 0 0 .183-.453v-2.532h2.532c.183 0 .363-.09.453-.183a.66.66 0 0 0 .183-.45.62.62 0 0 0-.183-.453.62.62 0 0 0-.453-.183h-2.532v-2.531a.62.62 0 0 0-.633-.637m-17.28.601a.64.64 0 1 1 0 1.278.64.64 0 0 1-.606-.64c0-.337.265-.618.605-.638m1.918 0a.64.64 0 0 1 .586.97.64.64 0 0 1-.586.312.644.644 0 0 1-.601-.64.64.64 0 0 1 .601-.642m1.922 0a.64.64 0 0 1 .586.309.645.645 0 0 1-.586.973.64.64 0 0 1-.601-.64.64.64 0 0 1 .601-.642m1.918 0a.642.642 0 0 1 0 1.282.642.642 0 0 1 0-1.281m1.922 0a.65.65 0 0 1 .586.308.642.642 0 1 1-.586-.309m1.922 0a.64.64 0 0 1 0 1.282.642.642 0 0 1 0-1.282m0 0"/></svg>