<svg role="img" viewBox="0 0 32 32" xmlns="http://www.w3.org/2000/svg"><path d="M3.074 15.926a.795.795 0 0 0 1.028-.324L7.5 8.949C7.8 8.352 8.398 8 9.05 8h7.45c.426 0 .75-.324.75-.75a.74.74 0 0 0-.215-.535.74.74 0 0 0-.535-.215H9.023c-1.222 0-2.34.684-2.898 1.773L2.75 14.898c-.2.375-.05.829.324 1.028M30.25 17.75h-7.5a.7.7 0 0 0-.625.352A7.65 7.65 0 0 1 15.75 21.5a7.61 7.61 0 0 1-6.375-3.426.78.78 0 0 0-.625-.324h-7a.74.74 0 0 0-.535.215A.74.74 0 0 0 1 18.5V26c0 1.8 1.45 3.25 3.25 3.25h23.5c1.8 0 3.25-1.45 3.25-3.25v-7.5a.74.74 0 0 0-.215-.535.74.74 0 0 0-.535-.215m-4.25-3c2.75 0 5-2.25 5-5s-2.25-5-5-5-5 2.25-5 5 2.25 5 5 5M24.227 9h1V8c0-.426.324-.75.75-.75.421 0 .75.324.75.75v1h1c.421 0 .75.324.75.75s-.329.75-.75.75h-1v1c0 .426-.329.75-.75.75a.74.74 0 0 1-.536-.215.74.74 0 0 1-.214-.535v-1h-1a.74.74 0 0 1-.536-.215.74.74 0 0 1-.214-.535.75.75 0 0 1 .75-.75m0 0"/></svg>