<svg role="img" viewBox="0 0 32 32" xmlns="http://www.w3.org/2000/svg"><path d="M1.8 0C.814 0 0 .813 0 1.8v2.68h28.16V1.8c0-.987-.812-1.8-1.8-1.8ZM0 5.762v19.84c0 .351.29.636.64.636h18.598C19.563 29.468 22.29 32 25.602 32A6.407 6.407 0 0 0 32 25.602a6.408 6.408 0 0 0-3.84-5.864V5.762Zm4.48 3.84h2.56v1.277H4.48Zm4.48 0h14.72v1.277H8.96ZM4.48 12.8h2.56v1.277H4.48Zm4.48 0h14.72v1.277H8.96ZM4.48 16h2.56v1.281H4.48Zm4.48 0h14.72v1.281H8.96Zm-4.48 3.2h2.56v1.28H4.48Zm4.48 0H19.2v1.28H8.96Zm16.642 1.28a5.126 5.126 0 0 1 5.117 5.122 5.125 5.125 0 0 1-5.117 5.117 5.126 5.126 0 0 1-5.122-5.117 5.126 5.126 0 0 1 5.122-5.122m-.641 1.918v2.563h-2.563v1.277h2.563v2.563h1.277v-2.563h2.563v-1.277h-2.563v-2.563Zm0 0"/></svg>