<svg role="img" viewBox="0 0 32 32" height="32" width="32" xmlns="http://www.w3.org/2000/svg"><defs><clipPath id="318__316__395__393__124__122__410__408__394__392__114__112__308__306__194__192__282__280__124__122__add-certificate_svg__svg/add-certificate.svg565__svg/add-certificate.svg561__clip-0"><path d="M5 .625h22v30.75H5Zm0 0"/></clipPath><clipPath id="319__317__396__394__125__123__411__409__395__393__115__113__309__307__195__193__283__281__125__123__add-certificate_svg__svg/add-certificate.svg567__svg/add-certificate.svg563__clip-1"><path d="M0 32V0h32v32ZM15.75 3.3c-4.645 0-8.45 3.805-8.45 8.45s3.805 8.45 8.45 8.45 8.45-3.805 8.45-8.45-3.805-8.45-8.45-8.45"/></clipPath></defs><g clip-path="url(#318__316__395__393__124__122__410__408__394__392__114__112__308__306__194__192__282__280__124__122__add-certificate_svg__svg/add-certificate.svg565__svg/add-certificate.svg561__clip-0)"><g clip-path="url(#319__317__396__394__125__123__411__409__395__393__115__113__309__307__195__193__283__281__125__123__add-certificate_svg__svg/add-certificate.svg567__svg/add-certificate.svg563__clip-1)"><path d="M13.762.64a2.62 2.62 0 0 0-2.223 1.27l-.172.281a1.34 1.34 0 0 1-1.129.653l-.328.008A2.625 2.625 0 0 0 7.332 5.43l-.008.328c-.008.465-.254.89-.652 1.133l-.281.168a2.628 2.628 0 0 0-.942 3.523l.156.285c.227.406.227.899 0 1.305l-.156.285a2.633 2.633 0 0 0 .942 3.527l.28.168c.4.239.645.664.653 1.13l.008.327a2.622 2.622 0 0 0 2.578 2.578l.328.008c.465.008.89.254 1.13.653l.171.28a2.625 2.625 0 0 0 3.52.946l.289-.16a1.337 1.337 0 0 1 1.304 0l.29.156a2.624 2.624 0 0 0 3.519-.941l.172-.281a1.34 1.34 0 0 1 1.129-.653l.328-.004a2.63 2.63 0 0 0 2.578-2.582l.008-.328a1.34 1.34 0 0 1 .652-1.129l.281-.168a2.628 2.628 0 0 0 .942-3.523l-.156-.29a1.337 1.337 0 0 1 0-1.304l.156-.285a2.628 2.628 0 0 0-.942-3.523l-.28-.168a1.346 1.346 0 0 1-.653-1.133l-.008-.328a2.627 2.627 0 0 0-2.578-2.578l-.328-.008a1.34 1.34 0 0 1-1.13-.653l-.171-.277A2.625 2.625 0 0 0 16.94.97l-.289.156a1.337 1.337 0 0 1-1.304 0l-.29-.156a2.645 2.645 0 0 0-1.294-.33m9.672 20.57c-.422.16-.868.25-1.317.258l-.328.008c-.023 0-.047.015-.062.035l-.172.281a3.883 3.883 0 0 1-2.93 1.863l-.184.418-1.722 3.942 1.293 2.96c.09.204.281.348.504.376a.637.637 0 0 0 .582-.23l2.37-2.962h4.173a.648.648 0 0 0 .543-.297.635.635 0 0 0 .039-.613Zm-14.832.012L5.82 27.25a.641.641 0 0 0 .578.91h4.176l2.367 2.961c.137.176.36.266.582.234a.643.643 0 0 0 .504-.378l3.243-7.414a4.09 4.09 0 0 1-.946-.368l-.289-.156a.063.063 0 0 0-.035-.012.063.063 0 0 0-.035.012l-.29.156a3.98 3.98 0 0 1-1.886.489 3.882 3.882 0 0 1-3.344-1.891l-.172-.281c-.011-.024-.035-.035-.062-.035l-.328-.008a3.885 3.885 0 0 1-1.281-.246"/></g></g><path d="M15.75 4.71c-3.871 0-7.04 3.169-7.04 7.04s3.169 7.04 7.04 7.04 7.04-3.169 7.04-7.04-3.169-7.04-7.04-7.04m3.45 7.743h-2.747V15.2c0 .422-.281.703-.703.703-.422 0-.703-.28-.703-.703v-2.746H12.3c-.422 0-.703-.281-.703-.703 0-.422.28-.703.703-.703h2.746V8.23c0-.421.281-.703.703-.703.422 0 .703.282.703.703v2.817H19.2c.422 0 .703.281.703.703 0 .422-.28.703-.703.703"/></svg>