<svg role="img" viewBox="0 0 32 32" xmlns="http://www.w3.org/2000/svg"><path d="M24.34 1.281c-.758 0-1.516.125-2.246.399l-1 .39 8.14 8.14.715.65.352-.919a1 1 0 0 0 .058-.132 6.44 6.44 0 0 0-1.515-6.653 6.4 6.4 0 0 0-4.504-1.875M8.035 1.29a6.47 6.47 0 0 0-4.879 1.867 6.42 6.42 0 0 0-1.48 6.75l.394 1 8.14-8.14.65-.711-.915-.356-.136-.058a6.5 6.5 0 0 0-1.774-.352M16 3.84c-7.41 0-13.441 6.032-13.441 13.442S8.589 30.72 16 30.72c7.41 0 13.441-6.028 13.441-13.438S23.411 3.84 16 3.84m0 6.402c.352 0 .64.29.64.64v5.763h5.758a.642.642 0 0 1 0 1.28h-5.757v5.759c0 .347-.29.636-.641.636a.643.643 0 0 1-.64-.636v-5.758H9.601a.64.64 0 0 1-.618-.637.637.637 0 0 1 .618-.644h5.757v-5.762c0-.356.29-.64.641-.64M5.469 27.55l-2.082 2.078a.638.638 0 0 0 .453 1.09.64.64 0 0 0 .453-.188l2.105-2.105q-.481-.42-.93-.875m21.063 0c-.297.304-.61.594-.93.875l2.106 2.105a.65.65 0 0 0 .7.137.638.638 0 0 0 .206-1.04Zm0 0" fill="rgb(0%, 0%, 0%)"/></svg>