<svg role="img" viewBox="0 0 32 32" height="32" width="32" xmlns="http://www.w3.org/2000/svg"><defs><clipPath id="336__334__216__214__467__465__111__109__106__104__471__469__106__104__52__50__28__26__464__462__add-alarm_svg__svg/add-alarm.svg221__svg/add-alarm.svg217__clip-0"><path d="M2 0h28v32H2Zm0 0"/></clipPath><clipPath id="337__335__217__215__468__466__112__110__107__105__472__470__107__105__53__51__29__27__465__463__add-alarm_svg__svg/add-alarm.svg223__svg/add-alarm.svg219__clip-1"><path d="M0 32V0h32v32ZM16.125 9.98c-3.379 0-6.145 2.766-6.145 6.145 0 3.379 2.766 6.145 6.145 6.145 3.379 0 6.145-2.766 6.145-6.145 0-3.379-2.766-6.145-6.145-6.145m0 0"/></clipPath></defs><g clip-path="url(#336__334__216__214__467__465__111__109__106__104__471__469__106__104__52__50__28__26__464__462__add-alarm_svg__svg/add-alarm.svg221__svg/add-alarm.svg217__clip-0)"><g clip-path="url(#337__335__217__215__468__466__112__110__107__105__472__470__107__105__53__51__29__27__465__463__add-alarm_svg__svg/add-alarm.svg223__svg/add-alarm.svg219__clip-1)"><path d="M16 0a2.56 2.56 0 1 0 .004 5.121A2.56 2.56 0 0 0 16 0m-3.602 3.898C9.477 5.152 7.68 7.973 7.68 11.52c0 7.039-2.434 8.808-3.88 9.859-.644.465-1.241.898-1.241 1.66 0 2.695 4.02 3.84 13.441 3.84 9.422 0 13.441-1.145 13.441-3.84 0-.762-.597-1.195-1.242-1.66-1.445-1.05-3.879-2.82-3.879-9.86 0-3.558-1.793-6.37-4.718-7.62-.567 1.5-2 2.496-3.602 2.5-1.64 0-3.05-1.047-3.602-2.5m-.238 24.18v.081A3.844 3.844 0 0 0 16 32a3.844 3.844 0 0 0 3.84-3.84v-.082c-2.559.11-5.121.11-7.68 0m0 0"/></g></g><path d="M16.125 11.004c-2.816 0-5.121 2.305-5.121 5.121 0 2.816 2.305 5.121 5.121 5.121 2.816 0 5.121-2.305 5.121-5.121 0-2.816-2.305-5.121-5.121-5.121m2.508 5.633h-1.996v1.996c0 .308-.203.512-.512.512s-.512-.204-.512-.512v-1.996h-1.996c-.308 0-.512-.203-.512-.512s.204-.512.512-.512h1.996v-2.047c0-.308.203-.511.512-.511s.512.203.512.511v2.047h1.996c.308 0 .512.203.512.512s-.204.512-.512.512m0 0"/></svg>