<svg role="img" viewBox="0 0 32 32" xmlns="http://www.w3.org/2000/svg"><path d="M12.96 1.281c-2.202 0-3.843.633-4.823 1.946-1.2 1.597-1.403 4.097-.668 7.418-.282.347-.485.882-.403 1.582.168 1.386.7 1.957 1.153 2.187.21 1.074.8 2.27 1.375 2.852 0 0 .008 1.613-.074 2.336-.383.882-1.637 1.257-3.114 1.843-2.468.989-5.535 2.207-5.765 6.035l-.04.68h19.137c.992 2.254 3.25 3.84 5.864 3.84C29.122 32 32 29.121 32 25.602c0-3.207-2.387-5.883-5.473-6.332 0 0-.02-.004-.023-.012-1.027-.453-2.477-1.559-2.742-2.059-.082-.558-.075-1.922-.075-1.922.532-.488 1.247-1.484 1.497-2.504.418-.222.89-.753 1.039-2.007.074-.633-.106-1.125-.36-1.453.32-1.422.762-4.141-.328-5.743-.445-.656-1.098-1.066-1.93-1.242-.55-.676-1.582-1.047-2.945-1.047-1.012 0-1.863.172-2.594.524.551.332 1.024.78 1.395 1.324 1.113 1.621 1.34 4 .68 7.258.297.59.41 1.27.328 1.984-.18 1.484-.73 2.332-1.293 2.809-.27.96-.738 1.941-1.254 2.633 0 .464-.004.875.023 1.335.344.372 1.492.82 2.352 1.16.351.133 1.129.454 1.129.454q-.523.448-.934 1-.332-.136-.66-.266c-1.477-.574-2.727-1.02-3.113-1.894-.078-.723-.074-2.266-.074-2.266.578-.586 1.18-1.84 1.398-2.93.453-.23.984-.8 1.152-2.187.082-.707-.129-1.242-.41-1.59.332-1.496.957-4.824-.379-6.777a3.3 3.3 0 0 0-1.511-1.207 7 7 0 0 0-.676-.208c-.598-.746-1.735-1.156-3.258-1.156m12.64 19.2c2.813 0 5.118 2.304 5.118 5.12 0 2.813-2.305 5.118-5.117 5.118-2.817 0-5.122-2.305-5.122-5.117 0-2.817 2.305-5.122 5.122-5.122m0 1.282c-.387 0-.641.254-.641.574v2.625h-2.563a.61.61 0 0 0-.593.375.9.9 0 0 0-.043.266c0 .191.062.351.175.46a.6.6 0 0 0 .2.133 1 1 0 0 0 .261.043h2.563v2.563c0 .383.254.64.64.64.383 0 .637-.257.637-.64v-2.563h2.563c.383 0 .64-.254.64-.636 0-.387-.257-.641-.578-.641h-2.625v-2.563c0-.382-.254-.636-.636-.636m0 0" fill="rgb(0%, 0%, 0%)"/></svg>