<svg role="img" viewBox="0 0 32 32" xmlns="http://www.w3.org/2000/svg"><path d="M21.121.059c-.48 0-.937.183-1.281.52L16.398 3.98l.883.88c.25.25.25.652 0 .902a.6.6 0 0 1-.441.199.67.67 0 0 1-.461-.2L15.5 4.88l-15 14.9c-.336.336-.52.785-.52 1.278 0 .492.184.941.52 1.277l2 1.984c.23.227.586.266.84.059.61-.488 1.32-.758 1.98-.758 1.66 0 3 1.34 3 3 0 .715-.261 1.406-.742 1.938-.226.253-.2.64.043.882l1.98 1.977c.336.336.79.543 1.278.543.492 0 .945-.207 1.281-.543l5.8-5.797c.337 3.57 3.34 6.379 7 6.379 3.88 0 7.04-3.16 7.04-7.043 0-3.66-2.809-6.66-6.379-7l1.48-1.477-.863-.859a.635.635 0 0 1 0-.902c.25-.25.653-.25.903 0l.859.86 3.398-3.38c.356-.281.57-.699.602-1.16a1.75 1.75 0 0 0-.5-1.379l-2-1.98a.62.62 0 0 0-.84-.059c-.574.457-1.21.7-1.898.7-1.66 0-3.024-1.34-3.024-3 0-.692.242-1.348.703-1.923a.633.633 0 0 0-.062-.84l-1.98-1.98a1.8 1.8 0 0 0-1.278-.52m-2.5 6.403c.16 0 .332.07.457.2l.902.898c.25.25.25.652 0 .902a.67.67 0 0 1-.46.18.62.62 0 0 1-.442-.18l-.898-.902a.635.635 0 0 1 0-.903.6.6 0 0 1 .441-.199m2.7 2.7c.163 0 .335.054.46.179l.899.898a.66.66 0 0 1 0 .922.65.65 0 0 1-.461.18.64.64 0 0 1-.457-.18l-.903-.898a.66.66 0 0 1 0-.922.65.65 0 0 1 .461-.18m2.7 2.7a.6.6 0 0 1 .44.18l.9.902c.25.25.25.648 0 .898a.6.6 0 0 1-.438.2.66.66 0 0 1-.461-.2l-.902-.899a.64.64 0 0 1-.188-.453.626.626 0 0 1 .649-.629m.937 7.34a5.75 5.75 0 0 1 4.078 1.684 5.774 5.774 0 0 1 0 8.152 5.75 5.75 0 0 1-4.074 1.684 5.753 5.753 0 0 1-5.766-5.758c0-1.531.606-2.996 1.688-4.078a5.75 5.75 0 0 1 4.078-1.684m-.063 1.903-.078.02a.64.64 0 0 0-.5.64v2.558H21.7a.637.637 0 0 0-.59.668.64.64 0 0 0 .652.614h2.558v2.558a.64.64 0 0 0 .317.563.65.65 0 0 0 .644 0 .65.65 0 0 0 .32-.563v-2.558h2.56c.23 0 .444-.121.562-.32a.64.64 0 0 0-.004-.645.63.63 0 0 0-.559-.317h-2.558v-2.558a.62.62 0 0 0-.204-.488.62.62 0 0 0-.5-.172m0 0"/></svg>