<?xml version="1.0" encoding="UTF-8"?>
<svg xmlns="http://www.w3.org/2000/svg" xmlns:xlink="http://www.w3.org/1999/xlink" width="32" height="32" viewBox="0 0 32 32">
<path fill-rule="nonzero" fill="rgb(0%, 0%, 0%)" fill-opacity="1" d="M 29.441406 7.039062 L 23.707031 7.042969 C 23.53125 6.980469 23.160156 6.390625 22.964844 6.074219 C 22.472656 5.289062 21.960938 4.480469 21.121094 4.480469 L 10.878906 4.480469 C 10.039062 4.480469 9.527344 5.289062 9.035156 6.074219 C 8.839844 6.390625 8.46875 6.980469 8.320312 7.039062 L 2.558594 7.039062 C 2.050781 7.039062 1.5625 7.242188 1.203125 7.601562 C 0.839844 7.960938 0.640625 8.453125 0.640625 8.960938 L 0.640625 25.601562 C 0.640625 26.660156 1.5 27.519531 2.558594 27.519531 L 29.441406 27.519531 C 30.5 27.519531 31.359375 26.660156 31.359375 25.601562 L 31.359375 8.960938 C 31.359375 7.898438 30.5 7.039062 29.441406 7.039062 M 20.480469 17.921875 L 16.640625 17.921875 L 16.640625 21.761719 C 16.636719 21.929688 16.570312 22.089844 16.453125 22.210938 C 16.332031 22.332031 16.167969 22.398438 16 22.394531 C 15.828125 22.394531 15.667969 22.328125 15.546875 22.210938 C 15.425781 22.09375 15.359375 21.929688 15.359375 21.761719 L 15.359375 17.921875 L 11.519531 17.921875 C 11.175781 17.90625 10.902344 17.625 10.902344 17.28125 C 10.898438 16.933594 11.171875 16.652344 11.519531 16.640625 L 15.359375 16.640625 L 15.359375 12.800781 C 15.359375 12.628906 15.425781 12.464844 15.546875 12.347656 C 15.664062 12.226562 15.828125 12.160156 16 12.160156 C 16.355469 12.160156 16.640625 12.445312 16.640625 12.800781 L 16.640625 16.640625 L 20.480469 16.640625 C 20.8125 16.667969 21.070312 16.945312 21.070312 17.28125 C 21.070312 17.613281 20.8125 17.894531 20.480469 17.917969 M 20.480469 17.917969 "/>
</svg>
