<svg role="img" viewBox="0 0 32 32" xmlns="http://www.w3.org/2000/svg"><defs><clipPath id="add-shield_svg__a"><path d="M1.875 0h28.25v31.875H1.875Zm0 0"/></clipPath><clipPath id="add-shield_svg__b"><path d="M0 32V0h32v32ZM16 5.633c-4.645 0-8.45 3.8-8.45 8.445 0 4.649 3.805 8.45 8.45 8.45s8.45-3.801 8.45-8.45c0-4.644-3.805-8.445-8.45-8.445"/></clipPath></defs><g clip-path="url(#add-shield_svg__a)"><g clip-path="url(#add-shield_svg__b)"><path d="m16.012 31.875-.278-.129c-.14-.062-13.812-6.605-13.812-26.098v-.515l.5-.11C7.16 3.984 9.957 2.512 12 1.433 13.586.603 14.734 0 16 0s2.414.602 4 1.434c2.043 1.078 4.84 2.546 9.578 3.59l.5.109v.515c0 18.848-13.652 26.016-13.789 26.086Zm0 0"/></g></g><path d="M16 7.04c-3.871 0-7.04 3.167-7.04 7.038 0 3.875 3.169 7.043 7.04 7.043s7.04-3.168 7.04-7.043c0-3.871-3.169-7.039-7.04-7.039m3.45 7.746h-2.747v2.746c0 .422-.281.703-.703.703s-.703-.28-.703-.703v-2.746H12.55c-.422 0-.703-.281-.703-.707 0-.422.28-.703.703-.703h2.746v-2.816c0-.422.281-.704.703-.704s.703.282.703.704v2.816h2.746c.422 0 .703.281.703.703 0 .426-.28.707-.703.707"/></svg>