<?xml version="1.0" encoding="UTF-8"?>
<svg xmlns="http://www.w3.org/2000/svg" xmlns:xlink="http://www.w3.org/1999/xlink" width="32" height="32" viewBox="0 0 32 32">
<defs>
<clipPath id="clip-0">
<path clip-rule="nonzero" d="M 1 0 L 31 0 L 31 32 L 1 32 Z M 1 0 "/>
</clipPath>
<clipPath id="clip-1">
<path clip-rule="nonzero" d="M 0 32 L 0 0 L 32 0 L 32 32 Z M 16 8.574219 C 12.621094 8.574219 9.855469 11.339844 9.855469 14.71875 C 9.855469 18.097656 12.621094 20.863281 16 20.863281 C 19.378906 20.863281 22.144531 18.097656 22.144531 14.71875 C 22.144531 11.339844 19.378906 8.574219 16 8.574219 M 16 8.574219 "/>
</clipPath>
</defs>
<g clip-path="url(#clip-0)">
<g clip-path="url(#clip-1)">
<path fill-rule="nonzero" fill="rgb(0%, 0%, 0%)" fill-opacity="1" d="M 16.011719 31.875 L 15.734375 31.746094 C 15.59375 31.683594 1.921875 25.140625 1.921875 5.648438 L 1.921875 5.132812 L 2.421875 5.023438 C 7.160156 3.984375 9.957031 2.511719 12 1.433594 C 13.585938 0.601562 14.734375 0 16 0 C 17.265625 0 18.414062 0.601562 20 1.433594 C 22.042969 2.511719 24.839844 3.984375 29.578125 5.023438 L 30.078125 5.132812 L 30.078125 5.648438 C 30.078125 24.496094 16.425781 31.664062 16.289062 31.734375 Z M 16.011719 31.875 "/>
</g>
</g>
<path fill-rule="nonzero" fill="rgb(0%, 0%, 0%)" fill-opacity="1" d="M 16 9.601562 C 13.183594 9.601562 10.878906 11.902344 10.878906 14.71875 C 10.878906 17.535156 13.183594 19.839844 16 19.839844 C 18.816406 19.839844 21.121094 17.535156 21.121094 14.71875 C 21.121094 11.902344 18.816406 9.601562 16 9.601562 M 18.507812 15.230469 L 16.511719 15.230469 L 16.511719 17.230469 C 16.511719 17.535156 16.308594 17.742188 16 17.742188 C 15.691406 17.742188 15.488281 17.535156 15.488281 17.230469 L 15.488281 15.230469 L 13.492188 15.230469 C 13.183594 15.230469 12.980469 15.027344 12.980469 14.71875 C 12.980469 14.414062 13.183594 14.207031 13.492188 14.207031 L 15.488281 14.207031 L 15.488281 12.160156 C 15.488281 11.851562 15.691406 11.648438 16 11.648438 C 16.308594 11.648438 16.511719 11.851562 16.511719 12.160156 L 16.511719 14.207031 L 18.507812 14.207031 C 18.816406 14.207031 19.019531 14.414062 19.019531 14.71875 C 19.019531 15.027344 18.816406 15.230469 18.507812 15.230469 M 18.507812 15.230469 "/>
</svg>
