<svg role="img" viewBox="0 0 32 32" height="32" width="32" xmlns="http://www.w3.org/2000/svg"><defs><clipPath id="314__312__188__186__437__435__79__77__66__64__403__401__74__72__519__517__82__80__428__426__add-network-card_svg__svg/add-network-card.svg149__svg/add-network-card.svg145__clip-0"><path d="M1.25 3.75h28.875v23.875H1.25Zm0 0"/></clipPath><clipPath id="315__313__189__187__438__436__80__78__67__65__404__402__75__73__520__518__83__81__429__427__add-network-card_svg__svg/add-network-card.svg151__svg/add-network-card.svg147__clip-1"><path d="M0 32V0h32v32Zm23.04-21.504c-3.38 0-6.145 2.766-6.145 6.145 0 3.379 2.765 6.144 6.144 6.144s6.145-2.765 6.145-6.144c0-3.38-2.766-6.145-6.145-6.145"/></clipPath></defs><g clip-path="url(#314__312__188__186__437__435__79__77__66__64__403__401__74__72__519__517__82__80__428__426__add-network-card_svg__svg/add-network-card.svg149__svg/add-network-card.svg145__clip-0)"><g clip-path="url(#315__313__189__187__438__436__80__78__67__65__404__402__75__73__520__518__83__81__429__427__add-network-card_svg__svg/add-network-card.svg151__svg/add-network-card.svg147__clip-1)"><path d="M1.281 3.84v1.28H3.84c.363 0 .64.277.64.637V27.52h1.282v-3.2H8.32v-1.922a.643.643 0 0 1 .64-.636h6.4c.35 0 .636.285.64.636v1.922h14.078V9.602H5.762v-3.84A1.93 1.93 0 0 0 3.84 3.84Zm18.559 7.68h1.281v1.921H19.84v1.278h-1.918V13.44h1.918Zm2.558 0h1.282v1.921h-1.282Zm2.563 0h1.277v1.921h1.922v1.278h-1.922V13.44h-1.277ZM13.44 12.8a1.279 1.279 0 1 1-.004 2.56 1.279 1.279 0 1 1 .004-2.559m-7.68.64h2.56v5.118H5.76ZM17.922 16h1.919v1.281h-1.918Zm8.317 0h1.922v1.281h-1.922Zm-8.316 2.559h1.918v1.28h1.281v1.923H19.84V19.84h-1.918Zm8.316 0h1.922v1.28h-1.922v1.923h-1.277V19.84h1.277Zm-3.84 1.28h1.282v1.923h-1.282Zm0 0"/></g></g><path d="M23.04 11.52c-2.817 0-5.118 2.304-5.118 5.12 0 2.817 2.3 5.122 5.117 5.122 2.816 0 5.121-2.305 5.121-5.121 0-2.817-2.305-5.121-5.12-5.121m2.507 5.632H23.55v1.996c0 .309-.203.512-.512.512-.305 0-.512-.203-.512-.512v-1.996H20.53c-.308 0-.511-.207-.511-.511 0-.309.203-.512.511-.512h1.996v-2.05c0-.306.207-.513.512-.513.309 0 .512.207.512.512v2.05h1.996c.308 0 .515.204.515.513 0 .304-.207.511-.515.511"/></svg>