<?xml version="1.0" encoding="UTF-8"?>
<svg xmlns="http://www.w3.org/2000/svg" xmlns:xlink="http://www.w3.org/1999/xlink" width="32" height="32" viewBox="0 0 32 32">
<path fill-rule="nonzero" fill="rgb(0%, 0%, 0%)" fill-opacity="1" d="M 1.800781 0 C 0.8125 0 0 0.8125 0 1.800781 L 0 4.480469 L 28.160156 4.480469 L 28.160156 1.800781 C 28.160156 0.8125 27.347656 0 26.359375 0 Z M 0 5.761719 L 0 25.601562 C 0 25.953125 0.289062 26.238281 0.640625 26.238281 L 19.238281 26.238281 C 19.5625 29.46875 22.289062 32 25.601562 32 C 29.132812 31.996094 31.996094 29.132812 32 25.601562 C 31.996094 23.058594 30.492188 20.757812 28.160156 19.738281 L 28.160156 5.761719 Z M 4.480469 9.601562 L 7.039062 9.601562 L 7.039062 10.878906 L 4.480469 10.878906 Z M 8.960938 9.601562 L 23.679688 9.601562 L 23.679688 10.878906 L 8.960938 10.878906 Z M 4.480469 12.800781 L 7.039062 12.800781 L 7.039062 14.078125 L 4.480469 14.078125 Z M 8.960938 12.800781 L 23.679688 12.800781 L 23.679688 14.078125 L 8.960938 14.078125 Z M 4.480469 16 L 7.039062 16 L 7.039062 17.28125 L 4.480469 17.28125 Z M 8.960938 16 L 23.679688 16 L 23.679688 17.28125 L 8.960938 17.28125 Z M 4.480469 19.199219 L 7.039062 19.199219 L 7.039062 20.480469 L 4.480469 20.480469 Z M 8.960938 19.199219 L 19.199219 19.199219 L 19.199219 20.480469 L 8.960938 20.480469 Z M 25.601562 20.480469 C 28.429688 20.484375 30.71875 22.773438 30.71875 25.601562 C 30.714844 28.425781 28.425781 30.714844 25.601562 30.71875 C 22.773438 30.71875 20.484375 28.429688 20.480469 25.601562 C 20.480469 22.773438 22.773438 20.480469 25.601562 20.480469 M 24.960938 22.398438 L 24.960938 24.960938 L 22.398438 24.960938 L 22.398438 26.238281 L 24.960938 26.238281 L 24.960938 28.800781 L 26.238281 28.800781 L 26.238281 26.238281 L 28.800781 26.238281 L 28.800781 24.960938 L 26.238281 24.960938 L 26.238281 22.398438 Z M 24.960938 22.398438 "/>
</svg>
