<svg role="img" viewBox="0 0 32 32" height="32" width="32" xmlns="http://www.w3.org/2000/svg"><defs><clipPath id="389__387__164__162__130__128__clip-0"><path d="M1 0h30v32H1Zm0 0"/></clipPath><clipPath id="390__388__165__163__131__129__clip-1"><path d="M0 32V0h32v32ZM16 8.574c-3.379 0-6.145 2.766-6.145 6.145 0 3.379 2.766 6.144 6.145 6.144 3.379 0 6.145-2.765 6.145-6.144 0-3.38-2.766-6.145-6.145-6.145m0 0"/></clipPath></defs><g clip-path="url(#389__387__164__162__130__128__clip-0)"><g clip-path="url(#390__388__165__163__131__129__clip-1)"><path d="m16.012 31.875-.278-.129c-.14-.062-13.812-6.605-13.812-26.098v-.515l.5-.11C7.16 3.984 9.957 2.512 12 1.433 13.586.603 14.734 0 16 0s2.414.602 4 1.434c2.043 1.078 4.84 2.55 9.578 3.59l.5.109v.515c0 18.848-13.652 26.016-13.789 26.086Zm0 0"/></g></g><path d="M16 9.602c-2.816 0-5.121 2.3-5.121 5.117 0 2.816 2.305 5.12 5.121 5.12 2.816 0 5.121-2.304 5.121-5.12 0-2.817-2.305-5.117-5.121-5.117m2.508 5.628h-1.996v2c0 .305-.203.512-.512.512s-.512-.207-.512-.512v-2h-1.996c-.308 0-.512-.203-.512-.511 0-.305.204-.512.512-.512h1.996V12.16c0-.308.203-.512.512-.512s.512.204.512.512v2.047h1.996c.308 0 .512.207.512.512 0 .308-.204.511-.512.511m0 0"/></svg>