<svg role="img" viewBox="0 0 32 32" height="32" width="32" xmlns="http://www.w3.org/2000/svg"><path d="M3.2 2.559c-1.06 0-1.923.859-1.919 1.921v3.84H30.72V7.04c.004-.509-.2-.997-.559-1.36a1.918 1.918 0 0 0-1.36-.559l-17.253.004c-.176-.066-.547-.652-.746-.969-.489-.785-.996-1.597-1.84-1.597ZM1.921 9.602a.645.645 0 0 0-.64.636V27.52c0 1.058.859 1.921 1.917 1.921h17.297C21.668 30.988 23.52 32 25.602 32 29.122 32 32 29.121 32 25.602c0-1.43-.48-2.75-1.281-3.817V10.238a.645.645 0 0 0-.64-.636Zm23.68 10.878c2.812 0 5.117 2.305 5.117 5.122 0 2.812-2.305 5.117-5.117 5.117-2.817 0-5.122-2.305-5.122-5.117 0-2.817 2.305-5.122 5.122-5.122m0 1.344c-.387 0-.641.254-.641.64v2.497h-2.496c-.387 0-.64.254-.64.64 0 .383.253.637.64.637h2.496v2.496c0 .387.254.641.64.641.383 0 .637-.254.637-.64v-2.497h2.496c.387 0 .641-.254.641-.636 0-.387-.254-.641-.64-.641h-2.497v-2.496c0-.387-.254-.64-.636-.64m0 0"/></svg>