<svg role="img" viewBox="0 0 32 32" height="32" width="32" xmlns="http://www.w3.org/2000/svg"><path d="M7.04 1.281a.663.663 0 0 0-.286.067l-.992.496-.996-.496a.64.64 0 0 0-.926.574v28.156c0 .352.285.64.64.64h17.293c2.504 1.868 6.082 1.677 8.352-.593 2.488-2.488 2.488-6.562 0-9.05a6.406 6.406 0 0 0-1.965-1.333V1.922a.639.639 0 0 0-.926-.574l-.996.496-.992-.496a.645.645 0 0 0-.574 0l-.992.496-.992-.496a.645.645 0 0 0-.575 0l-.992.496-.996-.496a.637.637 0 0 0-.57 0l-.996.496-.993-.496a.645.645 0 0 0-.574 0L16 1.844l-.992-.496a.645.645 0 0 0-.574 0l-.993.496-.996-.496a.637.637 0 0 0-.57 0l-.996.496-.992-.496a.645.645 0 0 0-.575 0l-.992.496-.992-.496a.667.667 0 0 0-.289-.067M8.32 7.04h9.602c.351 0 .637.285.637.64a.635.635 0 0 1-.637.64l-9.602.001a.635.635 0 0 1-.453-.187.63.63 0 0 1-.137-.695.648.648 0 0 1 .59-.399m13.442 0h1.918c.261.004.492.16.59.402a.637.637 0 0 1-.137.7.603.603 0 0 1-.453.18h-1.918a.622.622 0 0 1-.453-.184.645.645 0 0 1-.137-.696.652.652 0 0 1 .59-.398M8.32 10.879h7.04a.644.644 0 0 1 .617.64.644.644 0 0 1-.618.641H8.32a.644.644 0 0 1-.597-.64c0-.336.261-.618.597-.641m13.442 0h1.918a.644.644 0 0 1 .597.64.644.644 0 0 1-.597.641h-1.918a.647.647 0 0 1-.617-.64c0-.344.273-.625.617-.641M8.32 14.719h9.602a.644.644 0 0 1 .598.64.644.644 0 0 1-.598.641H8.32a.644.644 0 0 1-.597-.64c0-.337.261-.618.597-.641m13.442 0h1.918a.644.644 0 0 1 .597.64.644.644 0 0 1-.597.641h-1.918a.644.644 0 0 1-.598-.64c0-.337.262-.618.598-.641M8.32 18.559h7.04a.641.641 0 0 1 .581.64.64.64 0 0 1-.582.64H8.32a.641.641 0 0 1 0-1.281m13.442 0h1.918c.172 0 .332.067.453.188a.635.635 0 0 1 .187.453c0 .051-.02.098-.027.145a6.447 6.447 0 0 0-1.461.496h-1.07a.644.644 0 0 1-.598-.64c0-.337.262-.618.598-.641m3.84 1.925a5.089 5.089 0 0 1 3.617 1.496c1.992 1.993 1.992 5.25 0 7.239a5.13 5.13 0 0 1-7.239 0 5.13 5.13 0 0 1 0-7.239 5.102 5.102 0 0 1 3.622-1.496m0 1.313a.622.622 0 0 0-.454.183.622.622 0 0 0-.183.454v2.53h-2.531a.622.622 0 0 0-.454.184.582.582 0 0 0-.183.454.616.616 0 0 0 .183.453.634.634 0 0 0 .454.18h2.53v2.53c0 .364.274.637.638.637.18 0 .359-.093.449-.183a.673.673 0 0 0 .183-.453v-2.532h2.532c.183 0 .363-.09.453-.183a.646.646 0 0 0 .183-.45.616.616 0 0 0-.183-.453.616.616 0 0 0-.453-.183h-2.532v-2.531a.622.622 0 0 0-.633-.637m-17.28.601a.64.64 0 1 1 0 1.278.642.642 0 0 1-.606-.64c0-.337.265-.618.605-.638m1.918 0a.64.64 0 0 1 .586.97.631.631 0 0 1-.586.312.644.644 0 0 1-.601-.64.64.64 0 0 1 .601-.642m1.922 0a.628.628 0 0 1 .586.309.628.628 0 0 1-.004.66.64.64 0 0 1-.582.313.639.639 0 0 1-.601-.64.64.64 0 0 1 .601-.642m1.918 0a.642.642 0 0 1 0 1.282.639.639 0 0 1-.64-.64.64.64 0 0 1 .64-.642m1.922 0a.64.64 0 0 1 .617.372.638.638 0 0 1-.879.835.635.635 0 0 1-.328-.703.636.636 0 0 1 .59-.504m1.922 0c.355 0 .64.286.64.641 0 .356-.285.64-.64.64a.643.643 0 0 1 0-1.28m0 0"/></svg>