<?xml version="1.0" encoding="UTF-8"?>
<svg xmlns="http://www.w3.org/2000/svg" xmlns:xlink="http://www.w3.org/1999/xlink" width="32" height="32" viewBox="0 0 32 32">
<path  d="M 14.210938 1.28125 C 13.898438 1.28125 13.628906 1.507812 13.578125 1.816406 L 12.96875 5.5625 C 12.203125 5.785156 11.464844 6.085938 10.769531 6.46875 L 7.675781 4.257812 C 7.421875 4.078125 7.074219 4.105469 6.851562 4.328125 L 4.363281 6.8125 C 4.144531 7.035156 4.113281 7.378906 4.292969 7.632812 L 6.46875 10.746094 C 6.082031 11.445312 5.773438 12.1875 5.546875 12.957031 L 1.816406 13.582031 C 1.507812 13.632812 1.28125 13.898438 1.28125 14.210938 L 1.28125 17.730469 C 1.28125 18.042969 1.503906 18.308594 1.808594 18.359375 L 5.542969 19.023438 C 5.765625 19.792969 6.070312 20.535156 6.460938 21.238281 L 4.257812 24.316406 C 4.078125 24.570312 4.105469 24.921875 4.328125 25.140625 L 6.816406 27.632812 C 7.035156 27.855469 7.382812 27.882812 7.636719 27.703125 L 10.753906 25.523438 C 11.453125 25.90625 12.191406 26.210938 12.957031 26.433594 L 13.582031 30.183594 C 13.632812 30.492188 13.898438 30.71875 14.210938 30.71875 L 17.730469 30.71875 C 18.039062 30.71875 18.308594 30.496094 18.359375 30.191406 L 18.527344 29.246094 C 18.121094 28.949219 17.746094 28.617188 17.40625 28.25 L 17.195312 29.441406 L 14.753906 29.441406 L 14.152344 25.816406 C 14.109375 25.5625 13.921875 25.363281 13.671875 25.300781 C 12.75 25.074219 11.867188 24.707031 11.046875 24.214844 C 10.828125 24.085938 10.558594 24.09375 10.351562 24.238281 L 7.339844 26.347656 L 5.617188 24.621094 L 7.742188 21.648438 C 7.890625 21.441406 7.902344 21.164062 7.769531 20.945312 C 7.273438 20.125 6.90625 19.238281 6.675781 18.308594 C 6.613281 18.066406 6.414062 17.878906 6.164062 17.835938 L 2.5625 17.195312 L 2.5625 14.753906 L 6.164062 14.15625 C 6.414062 14.113281 6.617188 13.925781 6.679688 13.679688 C 6.914062 12.746094 7.28125 11.859375 7.773438 11.046875 C 7.90625 10.828125 7.894531 10.554688 7.75 10.347656 L 5.648438 7.339844 L 7.375 5.613281 L 10.359375 7.746094 C 10.566406 7.894531 10.839844 7.910156 11.058594 7.777344 C 11.875 7.289062 12.757812 6.925781 13.6875 6.699219 C 13.9375 6.636719 14.125 6.433594 14.167969 6.179688 L 14.757812 2.558594 L 17.195312 2.558594 L 17.832031 6.199219 C 17.875 6.449219 18.058594 6.648438 18.304688 6.710938 C 19.226562 6.941406 20.109375 7.308594 20.925781 7.800781 C 21.144531 7.933594 21.421875 7.921875 21.628906 7.769531 L 24.625 5.617188 L 26.347656 7.34375 L 24.214844 10.382812 C 24.070312 10.589844 24.0625 10.863281 24.191406 11.078125 C 24.675781 11.886719 25.039062 12.765625 25.269531 13.683594 C 25.332031 13.933594 25.535156 14.117188 25.789062 14.160156 L 29.441406 14.757812 L 29.441406 17.195312 L 28.246094 17.40625 C 28.617188 17.746094 28.953125 18.121094 29.246094 18.53125 L 30.191406 18.363281 C 30.496094 18.308594 30.71875 18.042969 30.71875 17.734375 L 30.71875 14.214844 C 30.71875 13.898438 30.492188 13.632812 30.183594 13.582031 L 26.402344 12.964844 C 26.179688 12.203125 25.878906 11.476562 25.496094 10.785156 L 27.703125 7.640625 C 27.882812 7.382812 27.851562 7.039062 27.632812 6.820312 L 25.144531 4.328125 C 24.921875 4.109375 24.570312 4.078125 24.316406 4.265625 L 21.21875 6.492188 C 20.523438 6.105469 19.785156 5.800781 19.019531 5.578125 L 18.363281 1.808594 C 18.308594 1.503906 18.042969 1.28125 17.730469 1.28125 Z M 16 10.878906 C 13.175781 10.878906 10.878906 13.175781 10.878906 16 C 10.878906 18.695312 12.972656 20.902344 15.617188 21.101562 C 15.730469 20.664062 15.878906 20.238281 16.066406 19.835938 C 16.042969 19.835938 16.023438 19.839844 16 19.839844 C 13.882812 19.839844 12.160156 18.117188 12.160156 16 C 12.160156 13.882812 13.882812 12.160156 16 12.160156 C 18.117188 12.160156 19.839844 13.882812 19.839844 16 C 19.839844 16.023438 19.835938 16.042969 19.835938 16.066406 C 20.238281 15.878906 20.664062 15.730469 21.101562 15.617188 C 20.902344 12.972656 18.695312 10.878906 16 10.878906 Z M 23.039062 16.640625 C 19.511719 16.640625 16.640625 19.511719 16.640625 23.039062 C 16.640625 26.566406 19.511719 29.441406 23.039062 29.441406 C 24.574219 29.441406 25.980469 28.894531 27.085938 27.992188 L 30.90625 31.8125 L 31.8125 30.90625 L 27.992188 27.085938 C 28.894531 25.980469 29.441406 24.574219 29.441406 23.039062 C 29.441406 19.511719 26.566406 16.640625 23.039062 16.640625 Z M 23.039062 17.921875 C 25.875 17.921875 28.160156 20.203125 28.160156 23.039062 C 28.160156 25.875 25.875 28.160156 23.039062 28.160156 C 20.203125 28.160156 17.921875 25.875 17.921875 23.039062 C 17.921875 20.203125 20.203125 17.921875 23.039062 17.921875 Z M 23.039062 17.921875 "/>
</svg>
