<?xml version="1.0" encoding="UTF-8"?>
<svg xmlns="http://www.w3.org/2000/svg" xmlns:xlink="http://www.w3.org/1999/xlink" width="32" height="32" viewBox="0 0 32 32">
<path fill-rule="nonzero" fill="rgb(0%, 0%, 0%)" fill-opacity="1" d="M 31.554688 16.992188 L 24.363281 14.679688 L 22.050781 7.484375 C 21.964844 7.21875 21.71875 7.039062 21.441406 7.039062 C 21.160156 7.039062 20.914062 7.21875 20.832031 7.484375 L 18.519531 14.679688 L 11.324219 16.992188 C 11.058594 17.074219 10.878906 17.320312 10.878906 17.601562 C 10.878906 17.878906 11.058594 18.125 11.324219 18.210938 L 18.519531 20.523438 L 20.832031 27.714844 C 20.914062 27.980469 21.160156 28.160156 21.441406 28.160156 C 21.71875 28.160156 21.964844 27.980469 22.050781 27.714844 L 24.363281 20.523438 L 31.554688 18.210938 C 31.820312 18.125 32 17.878906 32 17.601562 C 32 17.320312 31.820312 17.074219 31.554688 16.992188 Z M 1.078125 8.925781 L 6.054688 10.585938 L 7.714844 15.5625 C 7.800781 15.824219 8.042969 16 8.320312 16 C 8.597656 16 8.839844 15.824219 8.925781 15.5625 L 10.585938 10.585938 L 15.5625 8.925781 C 15.824219 8.839844 16 8.597656 16 8.320312 C 16 8.042969 15.824219 7.800781 15.5625 7.710938 L 10.585938 6.054688 L 8.925781 1.078125 C 8.839844 0.816406 8.597656 0.640625 8.320312 0.640625 C 8.042969 0.640625 7.800781 0.816406 7.714844 1.078125 L 6.054688 6.054688 L 1.078125 7.710938 C 0.816406 7.800781 0.640625 8.042969 0.640625 8.320312 C 0.640625 8.597656 0.816406 8.839844 1.078125 8.925781 Z M 11.082031 24.992188 L 7.546875 23.8125 L 6.367188 20.277344 C 6.28125 20.015625 6.035156 19.839844 5.761719 19.839844 C 5.484375 19.839844 5.238281 20.015625 5.152344 20.277344 L 3.972656 23.8125 L 0.4375 24.992188 C 0.175781 25.078125 0 25.324219 0 25.597656 C 0 25.875 0.175781 26.121094 0.4375 26.207031 L 3.976562 27.386719 L 5.152344 30.921875 C 5.242188 31.179688 5.484375 31.359375 5.761719 31.359375 C 6.035156 31.359375 6.28125 31.183594 6.367188 30.921875 L 7.546875 27.386719 L 11.082031 26.207031 C 11.34375 26.117188 11.519531 25.875 11.519531 25.597656 C 11.519531 25.324219 11.34375 25.078125 11.082031 24.992188 Z M 11.082031 24.992188 "/>
</svg>
