<?xml version="1.0" encoding="UTF-8"?>
<svg xmlns="http://www.w3.org/2000/svg" xmlns:xlink="http://www.w3.org/1999/xlink" width="32" height="32" viewBox="0 0 32 32">
<path fill-rule="nonzero" fill="rgb(0.392157%, 48.627451%, 93.333333%)" fill-opacity="1" d="M 0.636719 31.75 L 15.839844 16.167969 C 15.933594 16.070312 15.949219 15.917969 15.871094 15.808594 C 14.949219 14.515625 13.242188 14.292969 12.609375 13.425781 C 10.738281 10.855469 10.261719 9.402344 9.457031 9.492188 C 9.402344 9.5 9.351562 9.527344 9.3125 9.570312 L 3.820312 15.199219 C 0.660156 18.4375 0.207031 25.570312 0.125 31.542969 C 0.125 31.664062 0.195312 31.773438 0.308594 31.820312 C 0.421875 31.867188 0.550781 31.835938 0.636719 31.75 "/>
<path fill-rule="nonzero" fill="rgb(0%, 67.843137%, 27.45098%)" fill-opacity="1" d="M 31.746094 31.363281 L 16.164062 16.160156 C 16.070312 16.066406 15.917969 16.050781 15.804688 16.128906 C 14.515625 17.054688 14.289062 18.757812 13.421875 19.390625 C 10.855469 21.261719 9.398438 21.738281 9.492188 22.542969 C 9.5 22.597656 9.527344 22.648438 9.566406 22.6875 L 15.195312 28.179688 C 18.433594 31.339844 25.566406 31.792969 31.539062 31.875 C 31.660156 31.875 31.769531 31.800781 31.816406 31.691406 C 31.859375 31.578125 31.835938 31.449219 31.746094 31.367188 Z M 31.746094 31.363281 "/>
<path fill-rule="nonzero" fill="rgb(1.568627%, 83.921569%, 34.901961%)" fill-opacity="1" d="M 15.199219 28.179688 C 13.429688 26.453125 12.609375 23.039062 16 16 C 10.488281 18.464844 8.558594 21.699219 9.507812 22.628906 Z M 15.199219 28.179688 "/>
<path fill-rule="nonzero" fill="rgb(0%, 78.039216%, 83.137255%)" fill-opacity="1" d="M 31.363281 0.253906 L 16.160156 15.835938 C 16.0625 15.929688 16.050781 16.082031 16.125 16.195312 C 17.050781 17.484375 18.757812 17.710938 19.390625 18.578125 C 21.261719 21.144531 21.738281 22.601562 22.542969 22.507812 C 22.597656 22.5 22.648438 22.472656 22.6875 22.433594 L 28.179688 16.804688 C 31.339844 13.566406 31.792969 6.433594 31.875 0.460938 C 31.875 0.339844 31.800781 0.230469 31.6875 0.183594 C 31.578125 0.136719 31.445312 0.164062 31.363281 0.253906 Z M 31.363281 0.253906 "/>
<path fill-rule="nonzero" fill="rgb(6.666667%, 88.235294%, 93.333333%)" fill-opacity="1" d="M 28.183594 16.804688 C 26.457031 18.570312 23.042969 19.390625 16.003906 16 C 18.464844 21.511719 21.703125 23.445312 22.628906 22.496094 Z M 28.183594 16.804688 "/>
<path fill-rule="nonzero" fill="rgb(89.411765%, 22.352941%, 12.941176%)" fill-opacity="1" d="M 0.25 0.636719 L 15.832031 15.839844 C 15.929688 15.9375 16.082031 15.949219 16.191406 15.871094 C 17.484375 14.949219 17.707031 13.242188 18.574219 12.609375 C 21.144531 10.738281 22.597656 10.261719 22.507812 9.457031 C 22.5 9.402344 22.472656 9.351562 22.429688 9.3125 L 16.800781 3.820312 C 13.566406 0.660156 6.433594 0.207031 0.457031 0.125 C 0.335938 0.125 0.226562 0.199219 0.179688 0.308594 C 0.132812 0.421875 0.164062 0.554688 0.25 0.636719 "/>
<path fill-rule="nonzero" fill="rgb(100%, 45.882353%, 34.117647%)" fill-opacity="1" d="M 16.804688 3.820312 C 18.570312 5.546875 19.390625 8.960938 16 16 C 21.511719 13.539062 23.445312 10.300781 22.496094 9.375 Z M 16.804688 3.820312 "/>
<path fill-rule="nonzero" fill="rgb(4.705882%, 71.372549%, 100%)" fill-opacity="1" d="M 3.820312 15.199219 C 5.546875 13.429688 8.960938 12.609375 16 16 C 13.535156 10.488281 10.300781 8.558594 9.371094 9.507812 Z M 3.820312 15.199219 "/>
<path fill-rule="nonzero" fill="rgb(29.019608%, 28.235294%, 28.235294%)" fill-opacity="1" d="M 16.683594 16 C 16.683594 16.375 16.378906 16.679688 16.003906 16.679688 C 15.628906 16.679688 15.324219 16.375 15.324219 16 C 15.324219 15.625 15.628906 15.320312 16.003906 15.320312 C 16.378906 15.320312 16.683594 15.625 16.683594 16 Z M 16.683594 16 "/>
</svg>
