<?xml version="1.0" encoding="UTF-8"?>
<svg xmlns="http://www.w3.org/2000/svg" xmlns:xlink="http://www.w3.org/1999/xlink" width="32" height="32" viewBox="0 0 32 32">
<path fill-rule="nonzero" fill="rgb(0%, 58.823529%, 83.921569%)" fill-opacity="1" d="M 17.40625 0 C 8.511719 0 1.28125 7.171875 1.28125 16.011719 C 1.28125 24.847656 8.492188 32 17.40625 32 C 18.230469 32 18.265625 31.523438 17.519531 31.292969 C 10.941406 29.285156 6.140625 23.203125 6.140625 16.011719 C 6.140625 8.722656 11.039062 2.582031 17.730469 0.652344 C 18.421875 0.460938 18.230469 0 17.40625 0 Z M 20.503906 2.429688 C 13.484375 2.429688 7.804688 8.109375 7.804688 15.128906 C 7.804688 16.757812 8.109375 18.304688 8.664062 19.722656 C 8.894531 20.332031 9.257812 20.332031 9.199219 19.738281 C 9.164062 19.320312 9.125 18.878906 9.125 18.441406 C 9.125 11.421875 14.804688 5.738281 21.824219 5.738281 C 28.460938 5.738281 30.453125 8.703125 30.699219 8.511719 C 30.96875 8.300781 28.289062 2.429688 20.503906 2.429688 Z M 21.128906 7.855469 C 18.648438 7.9375 16.261719 8.8125 14.324219 10.332031 C 13.980469 10.597656 14.117188 10.769531 14.519531 10.597656 C 17.808594 9.160156 21.960938 9.125 26.035156 10.539062 C 28.769531 11.496094 30.355469 12.855469 30.488281 12.796875 C 30.699219 12.703125 28.902344 9.832031 25.628906 8.609375 C 24.144531 8.050781 22.621094 7.808594 21.128906 7.855469 Z M 21.128906 7.855469 "/>
</svg>
