<svg role="img" viewBox="0 0 32 32" height="32" width="32" xmlns="http://www.w3.org/2000/svg"><path d="M24.34 1.281c-.758 0-1.516.125-2.246.399l-1 .39 8.14 8.14.715.65.352-.919a.984.984 0 0 0 .058-.132 6.437 6.437 0 0 0-1.515-6.653 6.406 6.406 0 0 0-4.504-1.875M8.035 1.29a6.46 6.46 0 0 0-4.879 1.867 6.418 6.418 0 0 0-1.48 6.75l.394 1 8.14-8.14.65-.711-.915-.356a1.307 1.307 0 0 0-.136-.058 6.524 6.524 0 0 0-1.774-.352M16 3.84c-7.41 0-13.441 6.032-13.441 13.442S8.589 30.72 16 30.72c7.41 0 13.441-6.028 13.441-13.438 0-7.41-6.03-13.441-13.441-13.441m5.95 8.509.902.906-8.133 8.133-4.293-4.293.906-.907 3.387 3.387ZM5.468 27.55l-2.082 2.078a.637.637 0 0 0 .453 1.09.639.639 0 0 0 .453-.188l2.105-2.105c-.32-.281-.632-.57-.93-.875m22.344 0c-.297.304-.61.594-.934.875l2.11 2.105a.632.632 0 0 0 .452.188.637.637 0 0 0 .45-1.09Zm0 0"/></svg>