<svg role="img" viewBox="0 0 32 32" height="32" width="32" xmlns="http://www.w3.org/2000/svg"><path d="M24.34 1.281c-.758 0-1.516.125-2.246.399l-1 .39 8.14 8.14.715.65.352-.919a.807.807 0 0 0 .058-.132 6.439 6.439 0 0 0-1.515-6.653 6.406 6.406 0 0 0-4.504-1.875M8.035 1.29a6.468 6.468 0 0 0-4.879 1.867 6.42 6.42 0 0 0-1.48 6.75l.394 1 8.14-8.14.65-.711-.915-.356a4.79 4.79 0 0 0-.136-.058 6.526 6.526 0 0 0-1.774-.352M16 3.84c-7.41 0-13.441 6.032-13.441 13.442S8.589 30.72 16 30.72c7.41 0 13.441-6.028 13.441-13.438 0-7.41-6.03-13.441-13.441-13.441m0 3.84c.352 0 .64.293.64.64v8.961a.64.64 0 0 1-.64.64h-5.121a.642.642 0 0 1 0-1.28h4.48V8.32c0-.352.29-.641.641-.641M5.469 27.55l-2.082 2.08a.646.646 0 0 0-.14.7.638.638 0 0 0 .593.39.635.635 0 0 0 .453-.188l2.105-2.105c-.32-.281-.632-.57-.93-.875m21.063 0c-.297.304-.61.594-.93.875l2.106 2.105a.642.642 0 0 0 1.094-.45.652.652 0 0 0-.188-.452Zm0 0"/></svg>