<?xml version="1.0" encoding="UTF-8"?>
<svg xmlns="http://www.w3.org/2000/svg" xmlns:xlink="http://www.w3.org/1999/xlink" width="32" height="32" viewBox="0 0 32 32">
<path fill-rule="evenodd" fill="rgb(0%, 0%, 0%)" fill-opacity="1" d="M 18.667969 24 C 18.667969 25.472656 17.472656 26.667969 16 26.667969 C 14.527344 26.667969 13.332031 25.472656 13.332031 24 Z M 16 2.667969 C 10.839844 2.667969 6.667969 7.441406 6.667969 13.332031 L 6.667969 16.386719 L 4 24 L 10.667969 24 C 10.667969 26.945312 13.054688 29.332031 16 29.332031 C 18.945312 29.332031 21.332031 26.945312 21.332031 24 L 28 24 L 25.332031 16.386719 L 25.332031 13.71875 C 25.332031 8.667969 22.386719 4.039062 18.066406 3.054688 C 17.394531 2.839844 16.703125 2.710938 16 2.667969 M 7.761719 21.332031 L 9.1875 17.332031 L 9.332031 16.839844 L 9.332031 13.332031 C 9.332031 8.921875 12.320312 5.332031 16 5.332031 C 16.480469 5.332031 16.960938 5.390625 17.425781 5.507812 C 20.414062 6.238281 22.667969 9.746094 22.667969 13.652344 L 22.667969 16.839844 L 22.8125 17.265625 L 24.238281 21.332031 Z M 7.761719 21.332031 "/>
</svg>
