<?xml version="1.0" encoding="UTF-8"?>
<svg xmlns="http://www.w3.org/2000/svg" xmlns:xlink="http://www.w3.org/1999/xlink" width="32" height="32" viewBox="0 0 32 32">
<path fill-rule="nonzero" fill="rgb(0%, 0%, 0%)" fill-opacity="1" d="M 16 3.199219 C 14.820312 3.199219 13.867188 4.15625 13.867188 5.332031 L 13.867188 5.644531 C 10.703125 6.589844 8.535156 9.5 8.535156 12.800781 L 8.535156 15.742188 C 8.535156 18.636719 7.382812 21.417969 5.332031 23.464844 C 4.765625 23.492188 4.320312 23.964844 4.320312 24.53125 C 4.320312 25.101562 4.765625 25.570312 5.332031 25.601562 L 26.667969 25.601562 C 27.253906 25.59375 27.730469 25.121094 27.734375 24.535156 C 27.734375 23.945312 27.253906 23.464844 26.667969 23.464844 C 24.617188 21.417969 23.464844 18.636719 23.464844 15.742188 L 23.464844 12.800781 C 23.46875 9.496094 21.296875 6.585938 18.132812 5.644531 L 18.132812 5.332031 C 18.132812 4.765625 17.910156 4.222656 17.507812 3.824219 C 17.109375 3.421875 16.566406 3.199219 16 3.199219 M 4.21875 8.519531 C 3.828125 8.539062 3.480469 8.769531 3.3125 9.121094 C 3.3125 9.121094 2.132812 11.378906 2.132812 13.867188 C 2.132812 16.355469 3.3125 18.609375 3.3125 18.609375 C 3.574219 19.136719 4.214844 19.351562 4.742188 19.085938 C 5.269531 18.824219 5.484375 18.183594 5.222656 17.65625 C 5.222656 17.65625 4.265625 15.644531 4.265625 13.867188 C 4.265625 12.089844 5.222656 10.078125 5.222656 10.078125 C 5.398438 9.738281 5.378906 9.332031 5.171875 9.007812 C 4.964844 8.6875 4.601562 8.5 4.21875 8.519531 M 27.75 8.519531 C 27.375 8.511719 27.023438 8.703125 26.824219 9.023438 C 26.625 9.34375 26.605469 9.742188 26.777344 10.078125 C 26.777344 10.078125 27.734375 12.089844 27.734375 13.867188 C 27.734375 15.644531 26.777344 17.65625 26.777344 17.65625 C 26.515625 18.183594 26.726562 18.824219 27.253906 19.089844 C 27.78125 19.351562 28.421875 19.136719 28.6875 18.609375 C 28.6875 18.609375 29.867188 16.355469 29.867188 13.867188 C 29.867188 11.378906 28.6875 9.121094 28.6875 9.121094 C 28.511719 8.761719 28.148438 8.53125 27.75 8.519531 M 12.800781 27.734375 C 12.800781 29.5 14.234375 30.933594 16 30.933594 C 17.765625 30.933594 19.199219 29.5 19.199219 27.734375 Z M 12.800781 27.734375 "/>
</svg>
