<?xml version="1.0" encoding="UTF-8"?>
<svg xmlns="http://www.w3.org/2000/svg" xmlns:xlink="http://www.w3.org/1999/xlink" width="32" height="32" viewBox="0 0 32 32">
<path fill-rule="nonzero" fill="rgb(0%, 0%, 0%)" fill-opacity="1" d="M 24.339844 1.28125 C 23.582031 1.28125 22.824219 1.40625 22.09375 1.679688 L 21.09375 2.070312 L 29.234375 10.210938 L 29.949219 10.859375 L 30.300781 9.941406 C 30.324219 9.898438 30.34375 9.855469 30.359375 9.808594 C 31.167969 7.484375 30.578125 4.902344 28.84375 3.15625 C 27.648438 1.960938 26.03125 1.289062 24.339844 1.28125 M 8.035156 1.289062 C 6.21875 1.199219 4.445312 1.875 3.15625 3.15625 C 1.390625 4.925781 0.8125 7.5625 1.675781 9.90625 L 2.070312 10.90625 L 10.210938 2.765625 L 10.859375 2.054688 L 9.945312 1.699219 C 9.902344 1.679688 9.855469 1.660156 9.808594 1.640625 C 9.238281 1.441406 8.640625 1.324219 8.035156 1.289062 M 16 3.839844 C 8.589844 3.839844 2.558594 9.871094 2.558594 17.28125 C 2.558594 24.691406 8.589844 30.71875 16 30.71875 C 23.410156 30.71875 29.441406 24.691406 29.441406 17.28125 C 29.441406 9.871094 23.410156 3.839844 16 3.839844 M 21.949219 12.351562 L 22.851562 13.257812 L 14.71875 21.390625 L 10.425781 17.097656 L 11.332031 16.1875 L 14.71875 19.574219 Z M 5.46875 27.550781 L 3.386719 29.628906 C 3.203125 29.808594 3.144531 30.085938 3.246094 30.324219 C 3.34375 30.566406 3.578125 30.71875 3.839844 30.71875 C 4.007812 30.71875 4.171875 30.652344 4.292969 30.53125 L 6.398438 28.425781 C 6.078125 28.144531 5.765625 27.855469 5.46875 27.550781 M 27.8125 27.550781 C 27.515625 27.855469 27.199219 28.144531 26.878906 28.425781 L 28.988281 30.53125 C 29.105469 30.652344 29.269531 30.71875 29.4375 30.71875 C 29.699219 30.71875 29.929688 30.5625 30.03125 30.324219 C 30.128906 30.085938 30.074219 29.808594 29.890625 29.628906 Z M 27.8125 27.550781 "/>
</svg>
