<?xml version="1.0" encoding="UTF-8"?>
<svg xmlns="http://www.w3.org/2000/svg" xmlns:xlink="http://www.w3.org/1999/xlink" width="32" height="32" viewBox="0 0 32 32">
<path fill-rule="nonzero" fill="rgb(0%, 0%, 0%)" fill-opacity="1" d="M 24.339844 1.28125 C 23.582031 1.28125 22.824219 1.40625 22.09375 1.679688 L 21.09375 2.070312 L 29.234375 10.210938 L 29.949219 10.859375 L 30.300781 9.941406 C 30.324219 9.898438 30.34375 9.855469 30.359375 9.808594 C 31.167969 7.484375 30.578125 4.902344 28.84375 3.15625 C 27.648438 1.960938 26.03125 1.289062 24.339844 1.28125 M 8.035156 1.289062 C 6.21875 1.199219 4.449219 1.875 3.15625 3.15625 C 1.390625 4.925781 0.8125 7.5625 1.675781 9.90625 L 2.070312 10.90625 L 10.210938 2.765625 L 10.859375 2.054688 L 9.945312 1.699219 C 9.898438 1.679688 9.855469 1.660156 9.808594 1.640625 C 9.238281 1.441406 8.640625 1.324219 8.035156 1.289062 M 16 3.839844 C 8.589844 3.839844 2.558594 9.871094 2.558594 17.28125 C 2.558594 24.691406 8.589844 30.71875 16 30.71875 C 23.410156 30.71875 29.441406 24.691406 29.441406 17.28125 C 29.441406 9.871094 23.410156 3.839844 16 3.839844 M 16 7.679688 C 16.351562 7.679688 16.640625 7.972656 16.640625 8.320312 L 16.640625 17.28125 C 16.640625 17.636719 16.351562 17.921875 16 17.921875 L 10.878906 17.921875 C 10.546875 17.894531 10.289062 17.617188 10.289062 17.28125 C 10.289062 16.945312 10.546875 16.667969 10.878906 16.640625 L 15.359375 16.640625 L 15.359375 8.320312 C 15.359375 7.96875 15.648438 7.679688 16 7.679688 M 5.46875 27.550781 L 3.386719 29.628906 C 3.203125 29.8125 3.148438 30.089844 3.246094 30.328125 C 3.347656 30.566406 3.582031 30.722656 3.839844 30.71875 C 4.011719 30.71875 4.171875 30.652344 4.292969 30.53125 L 6.398438 28.425781 C 6.078125 28.144531 5.765625 27.855469 5.46875 27.550781 M 26.53125 27.550781 C 26.234375 27.855469 25.921875 28.144531 25.601562 28.425781 L 27.707031 30.53125 C 27.890625 30.714844 28.164062 30.769531 28.402344 30.667969 C 28.640625 30.570312 28.796875 30.339844 28.800781 30.082031 C 28.800781 29.914062 28.730469 29.75 28.613281 29.628906 Z M 26.53125 27.550781 "/>
</svg>
