<svg role="img" viewBox="0 0 32 32" xmlns="http://www.w3.org/2000/svg"><path d="M16 3.2c-1.18 0-2.133.956-2.133 2.132v.313A7.47 7.47 0 0 0 8.535 12.8v2.941c0 2.895-1.152 5.676-3.203 7.723a1.069 1.069 0 0 0 0 2.137h21.336a1.073 1.073 0 0 0 1.066-1.067c0-.59-.48-1.07-1.066-1.07a10.92 10.92 0 0 1-3.203-7.723V12.8a7.46 7.46 0 0 0-5.332-7.156v-.313A2.13 2.13 0 0 0 16 3.199M4.219 8.52c-.39.02-.739.25-.907.601 0 0-1.18 2.258-1.18 4.746s1.18 4.742 1.18 4.742c.262.528.903.743 1.43.477.528-.262.742-.902.48-1.43 0 0-.956-2.011-.956-3.789 0-1.777.957-3.789.957-3.789A1.07 1.07 0 0 0 4.219 8.52m23.531 0a1.08 1.08 0 0 0-.93.503 1.08 1.08 0 0 0-.043 1.055s.957 2.012.957 3.79c0 1.777-.957 3.788-.957 3.788a1.067 1.067 0 0 0 1.91.953s1.18-2.254 1.18-4.742-1.18-4.746-1.18-4.746a1.08 1.08 0 0 0-.937-.601M12.8 27.734a3.2 3.2 0 0 0 3.2 3.2 3.2 3.2 0 0 0 3.2-3.2Zm0 0" fill="rgb(0%, 0%, 0%)"/></svg>