<svg role="img" viewBox="0 0 32 32" height="32" width="32" xmlns="http://www.w3.org/2000/svg"><path d="M1.922 1.281a.638.638 0 0 0-.453 1.09l28.16 28.16a.626.626 0 0 0 .45.188.637.637 0 0 0 .453-1.09l-4.009-4.012a13.382 13.382 0 0 0 2.918-8.336c0-7.41-6.03-13.441-13.441-13.441a13.3 13.3 0 0 0-8.336 2.922l-.723-.727 3.27-3.27.648-.71-.914-.356a.847.847 0 0 0-.136-.058 6.438 6.438 0 0 0-6.176 1.086L2.37 1.469a.633.633 0 0 0-.45-.188m22.419 0a6.35 6.35 0 0 0-2.246.399l-1 .39 8.136 8.14.715.65.356-.919c.02-.043.039-.086.054-.132a6.438 6.438 0 0 0-1.511-6.653 6.413 6.413 0 0 0-4.504-1.875M2.012 4.727a6.425 6.425 0 0 0-.336 5.18l.394 1 3.06-3.064ZM5.816 8.53a13.373 13.373 0 0 0-3.257 8.75c0 7.41 6.03 13.438 13.441 13.438 3.34 0 6.39-1.23 8.746-3.258Zm-.347 19.02-2.082 2.078a.638.638 0 0 0 .453 1.09.635.635 0 0 0 .453-.188l2.105-2.105c-.32-.281-.632-.57-.93-.875m0 0"/></svg>