<svg role="img" viewBox="0 0 32 32" height="1em" width="1em" xmlns="http://www.w3.org/2000/svg"><defs><linearGradient gradientUnits="userSpaceOnUse" id="3__svg/angular.svg0__SVGL3eT8dEE" x1="49.009" x2="225.83" y1="213.75" y2="129.72"><stop offset="0" stop-color="#e40035"/><stop offset=".24" stop-color="#f60a48"/><stop offset=".352" stop-color="#f20755"/><stop offset=".494" stop-color="#dc087d"/><stop offset=".745" stop-color="#9717e7"/><stop offset="1" stop-color="#6c00f5"/></linearGradient><linearGradient gradientUnits="userSpaceOnUse" id="4__svg/angular.svg1__SVGXdyn1ciA" x1="41.025" x2="156.74" y1="28.344" y2="160.34"><stop offset="0" stop-color="#ff31d9"/><stop offset="1" stop-color="#ff5be1" stop-opacity="0"/></linearGradient><clipPath id="5__svg/angular.svg2__SVGqpIVPcCN"><path d="M0 0h223v236H0z" fill="#fff"/></clipPath></defs><g clip-path="url(#5__svg/angular.svg2__SVGqpIVPcCN)" transform="translate(2.76 1.986)scale(.11923)"><path d="m222.08 39.192l-8.019 125.92L137.39-.008zm-53.105 162.82l-57.933 33.056l-57.934-33.056l11.783-28.556h92.301zm-57.933-139.34l30.357 73.803H80.684zm-103.1 102.44L.005 39.192L84.695 0z" fill="url(#3__svg/angular.svg0__SVGL3eT8dEE)"/><path d="m222.08 39.192l-8.019 125.92L137.39-.008zm-53.105 162.82l-57.933 33.056l-57.934-33.056l11.783-28.556h92.301zm-57.933-139.34l30.357 73.803H80.684zm-103.1 102.44L.005 39.192L84.695 0z" fill="url(#4__svg/angular.svg1__SVGXdyn1ciA)"/></g></svg>