<svg role="img" viewBox="0 0 32 32" height="32" width="32" xmlns="http://www.w3.org/2000/svg"><path d="M27.71 16.309c0 6.293-5.097 11.394-11.39 11.394S4.93 22.602 4.93 16.31c0-6.29 5.097-11.391 11.39-11.391s11.39 5.098 11.39 11.39"/><path d="m16.512 12.043 2.945 7.273-4.45-3.507Zm5.238 8.95-4.535-10.915a.722.722 0 0 0-.703-.476.75.75 0 0 0-.727.476l-4.98 11.969h1.707l1.972-4.938 5.88 4.746c.234.192.406.278.628.278a.807.807 0 0 0 .832-.79v-.019a.892.892 0 0 0-.074-.332" fill="rgb(100%, 100%, 100%)"/></svg>