<?xml version="1.0" encoding="UTF-8"?>
<svg xmlns="http://www.w3.org/2000/svg" xmlns:xlink="http://www.w3.org/1999/xlink" width="32" height="32" viewBox="0 0 32 32">
<path fill-rule="nonzero" fill="rgb(88.627451%, 35.294118%, 10.980392%)" fill-opacity="1" d="M 14.414062 0 C 13.847656 0.015625 13.289062 0.285156 12.820312 0.808594 C 12.5625 1.097656 12.34375 1.421875 12.164062 1.769531 C 11.691406 2.660156 11.597656 3.65625 11.421875 4.625 C 11.09375 6.441406 10.769531 8.257812 10.453125 10.074219 C 10.417969 10.289062 10.328125 10.378906 10.128906 10.441406 C 7.773438 11.179688 5.414062 11.921875 3.066406 12.683594 C 2.550781 12.851562 2.035156 13.070312 1.582031 13.359375 C 0.191406 14.246094 -0.0117188 15.699219 1.027344 16.972656 C 1.488281 17.535156 2.082031 17.925781 2.738281 18.222656 C 4.207031 18.875 5.675781 19.523438 7.140625 20.179688 C 7.164062 20.195312 7.1875 20.199219 7.210938 20.207031 L 7.207031 20.207031 L 8.945312 20.921875 C 8.945312 20.949219 8.949219 20.980469 8.945312 21.015625 C 8.679688 23.722656 8.425781 26.433594 8.171875 29.144531 C 8.121094 29.703125 8.15625 30.253906 8.351562 30.785156 C 8.773438 31.945312 9.773438 32.316406 10.859375 31.71875 C 11.355469 31.445312 11.746094 31.054688 12.109375 30.628906 C 13.9375 28.464844 15.769531 26.300781 17.59375 24.132812 C 17.742188 23.953125 17.867188 23.933594 18.078125 24 C 18.542969 24.15625 19.007812 24.308594 19.46875 24.464844 L 19.472656 24.464844 C 19.5 24.480469 19.53125 24.492188 19.570312 24.503906 L 19.757812 24.558594 C 21.421875 25.113281 23.332031 25.59375 24.996094 26.148438 C 25.53125 26.324219 25.828125 26.367188 26.390625 26.277344 C 26.804688 26.214844 27.179688 26.195312 27.496094 25.960938 C 28.296875 25.523438 28.820312 24.6875 28.8125 23.71875 C 28.804688 23.152344 28.605469 22.636719 28.34375 22.136719 C 27.253906 20.0625 26.164062 17.988281 25.0625 15.917969 C 24.960938 15.71875 24.960938 15.59375 25.113281 15.417969 C 26.953125 13.265625 28.789062 11.101562 30.625 8.945312 C 30.988281 8.515625 31.308594 8.066406 31.496094 7.535156 C 31.90625 6.363281 31.375 5.441406 30.160156 5.210938 C 29.613281 5.117188 29.050781 5.148438 28.515625 5.304688 C 25.882812 6 23.253906 6.691406 20.625 7.398438 C 20.390625 7.460938 20.277344 7.417969 20.152344 7.207031 C 19.085938 5.414062 18.011719 3.625 16.921875 1.847656 C 16.679688 1.4375 16.386719 1.058594 16.054688 0.714844 C 15.558594 0.222656 14.984375 -0.015625 14.417969 0 Z M 14.644531 4.9375 C 14.75 5.007812 14.835938 5.105469 14.898438 5.21875 C 16.058594 7.148438 17.21875 9.070312 18.375 11.003906 C 18.46875 11.160156 18.554688 11.214844 18.746094 11.164062 C 20.777344 10.617188 22.816406 10.078125 24.851562 9.542969 C 25.339844 9.410156 25.832031 9.285156 26.320312 9.15625 C 26.304688 9.253906 26.257812 9.347656 26.1875 9.421875 C 24.507812 11.394531 22.832031 13.371094 21.148438 15.339844 C 21.003906 15.511719 20.988281 15.632812 21.097656 15.832031 C 22.34375 18.238281 23.453125 20.246094 24.425781 22.179688 L 19.5 20.820312 C 18.78125 20.582031 18.0625 20.34375 17.34375 20.101562 C 17.128906 20.03125 17.011719 20.0625 16.867188 20.234375 C 15.203125 22.21875 13.527344 24.195312 11.851562 26.175781 C 11.792969 26.253906 11.707031 26.316406 11.613281 26.351562 C 11.660156 25.847656 11.703125 25.339844 11.753906 24.835938 C 11.949219 22.738281 12.148438 20.644531 12.351562 18.546875 C 12.3125 18.125 12.507812 18.007812 11.925781 17.820312 C 9.933594 17.03125 7.460938 16.058594 5.503906 15.28125 C 5.59375 15.199219 5.703125 15.136719 5.824219 15.101562 C 8.21875 14.34375 10.617188 13.582031 13.015625 12.828125 C 13.183594 12.777344 13.28125 12.707031 13.296875 12.519531 C 13.3125 12.320312 13.363281 12.125 13.398438 11.929688 C 13.71875 10.113281 14.042969 8.296875 14.367188 6.480469 C 14.457031 5.964844 14.550781 5.453125 14.644531 4.9375 Z M 14.644531 4.9375 "/>
</svg>
