<?xml version="1.0" encoding="UTF-8"?>
<svg xmlns="http://www.w3.org/2000/svg" xmlns:xlink="http://www.w3.org/1999/xlink" width="32" height="32" viewBox="0 0 32 32">
<path fill-rule="nonzero" fill="rgb(9.411765%, 56.078431%, 100%)" fill-opacity="1" d="M 32 11.898438 L 24.179688 11.898438 C 22.0625 7.84375 19.828125 4.699219 16.785156 4.699219 C 12.828125 4.699219 10.964844 8.15625 9.164062 11.515625 L 9.007812 11.8125 L 0 11.8125 L 0 13.8125 L 5.246094 13.8125 C 7.097656 13.8125 7.476562 14.433594 7.476562 14.433594 C 6.023438 16.6875 4.277344 18.917969 1.363281 18.917969 L 0 18.917969 L 0 21.015625 L 1.375 21.015625 C 7.019531 21.015625 9.484375 16.4375 11.460938 12.761719 C 13.277344 9.371094 14.542969 7.320312 16.785156 7.320312 C 19.117188 7.320312 21.566406 12.386719 23.722656 16.863281 C 24.039062 17.511719 24.355469 18.179688 24.679688 18.839844 C 16.414062 19.101562 12.476562 21.039062 9.269531 22.617188 C 6.925781 23.773438 5.074219 25.203125 2.023438 25.203125 L 0 25.203125 L 0 27.300781 L 2.007812 27.300781 C 5.679688 27.300781 7.96875 26.167969 10.402344 24.96875 C 13.777344 23.3125 17.601562 21.433594 26.613281 21.433594 L 31.820312 21.433594 L 31.820312 19.332031 L 28.878906 19.332031 C 28.390625 19.371094 27.910156 19.175781 27.585938 18.808594 C 27.0625 17.785156 26.558594 16.753906 26.074219 15.714844 L 25.390625 14.320312 C 25.390625 14.320312 25.878906 13.792969 27.230469 13.792969 L 32 13.792969 Z M 32 11.898438 "/>
</svg>
