<?xml version="1.0" encoding="UTF-8"?>
<svg xmlns="http://www.w3.org/2000/svg" xmlns:xlink="http://www.w3.org/1999/xlink" width="32" height="32" viewBox="0 0 32 32">
<path  d="M 17.234375 14.734375 L 12.515625 10.015625 L 13.464844 9.097656 L 17.234375 12.863281 L 24.800781 5.332031 L 25.71875 6.246094 Z M 8.539062 24.871094 L 18.625 27.816406 L 26.609375 25.347656 C 26.585938 24.945312 26.460938 24.652344 26.242188 24.472656 C 26.023438 24.292969 25.777344 24.207031 25.511719 24.207031 L 19.1875 24.207031 C 18.625 24.207031 18.113281 24.183594 17.65625 24.136719 C 17.195312 24.09375 16.726562 23.988281 16.246094 23.820312 L 13.328125 22.863281 L 13.777344 21.546875 L 16.476562 22.523438 C 16.90625 22.683594 17.394531 22.78125 17.9375 22.816406 C 18.484375 22.847656 19.230469 22.867188 20.179688 22.871094 C 20.179688 22.457031 20.101562 22.121094 19.949219 21.863281 C 19.796875 21.609375 19.578125 21.429688 19.292969 21.328125 L 11.621094 18.511719 C 11.570312 18.496094 11.523438 18.484375 11.480469 18.476562 C 11.4375 18.464844 11.390625 18.460938 11.339844 18.460938 L 8.539062 18.460938 Z M 3.207031 28 L 3.207031 17.128906 L 11.3125 17.128906 C 11.433594 17.128906 11.558594 17.140625 11.6875 17.164062 C 11.820312 17.191406 11.941406 17.226562 12.058594 17.269531 L 19.765625 20.09375 C 20.242188 20.273438 20.652344 20.597656 20.996094 21.070312 C 21.339844 21.539062 21.511719 22.140625 21.511719 22.871094 L 25.511719 22.871094 C 26.316406 22.871094 26.929688 23.125 27.359375 23.625 C 27.785156 24.128906 28 24.765625 28 25.539062 L 28 26.359375 L 18.691406 29.230469 L 8.539062 26.269531 L 8.539062 28 Z M 4.539062 26.667969 L 7.207031 26.667969 L 7.207031 18.460938 L 4.539062 18.460938 Z M 4.539062 26.667969 "/>
</svg>
