<svg role="img" viewBox="0 0 32 32" height="32" width="32" xmlns="http://www.w3.org/2000/svg"><path d="M4.5 4a2.5 2.5 0 0 0-1.77.73A2.5 2.5 0 0 0 2 6.5v1C2 8.883 3.117 10 4.5 10h23c1.379 0 2.5-1.121 2.5-2.5v-1C30 5.117 28.883 4 27.5 4Zm-.383 8 .719 12.234A4.001 4.001 0 0 0 8.828 28h14.34a4 4 0 0 0 3.996-3.766L27.883 12Zm8.176 3.793a1 1 0 0 1 1.414 0L16 18.086l2.293-2.293a.999.999 0 0 1 1.7.434.99.99 0 0 1-.286.98L17.414 19.5l2.293 2.293a.999.999 0 0 1-.434 1.7.99.99 0 0 1-.98-.286L16 20.914l-2.293 2.293a.999.999 0 0 1-1.7-.434.99.99 0 0 1 .286-.98l2.293-2.293-2.293-2.293a1 1 0 0 1 0-1.414"/></svg>