<svg role="img" viewBox="0 0 32 32" height="32" width="32" xmlns="http://www.w3.org/2000/svg"><path d="M16 2.559c-8.11 0-14.719 5.683-14.719 12.796 0 4.13 2.258 7.723 5.735 10.07-.004.141.004.364-.18 1.036-.223.832-.676 2-1.598 3.32l-.652.938h1.14c3.965 0 6.258-2.582 6.61-2.996 1.18.277 2.398.43 3.664.43 8.11 0 14.719-5.684 14.719-12.798C30.719 8.242 24.109 2.56 16 2.56m.64 19.328h-1.726V20.03h1.727Zm2.88-8.063c-.254.383-.766.961-1.598 1.727-.578.578-.961 1.023-1.156 1.41-.192.32-.254.832-.254 1.598h-1.598c0-.832.125-1.536.32-2.047.192-.512.637-1.086 1.34-1.793l.707-.703c.192-.192.383-.383.512-.641.254-.383.383-.766.383-1.215a2.299 2.299 0 0 0-.512-1.473c-.32-.449-.96-.64-1.73-.64-1.02 0-1.727.387-2.11 1.09-.191.383-.32 1.023-.383 1.726H11.84c.066-1.215.387-2.238 1.152-3.008.703-.77 1.727-1.152 3.008-1.152 1.152 0 2.113.32 2.816 1.024.704.64 1.09 1.539 1.09 2.562 0 .637-.133 1.152-.386 1.535m0 0"/></svg>