<svg role="img" viewBox="0 0 32 32" height="32" width="32" xmlns="http://www.w3.org/2000/svg"><path d="M.203.203h32v32h-32Zm0 0" fill="rgb(100%, 100%, 100%)"/><path d="M.203.203h31.594v31.594H.203Zm0 0" fill="rgb(78.823529%, 14.509804%, 81.960784%)"/><path d="M13.34 4.246c4.57 0 7.762 1.395 7.762 2.652 0 1.25-3.192 2.649-7.762 2.649-4.574 0-7.762-1.399-7.762-2.649 0-1.257 3.188-2.652 7.762-2.652m-.09 23.508c-4.52 0-7.672-1.43-7.672-2.707V21.19c1.387 1.16 4.2 1.922 7.61 1.922.789 0 1.578-.047 2.355-.129l-.098-.879c-.746.079-1.504.125-2.258.125-4.218 0-7.242-1.253-7.609-2.464v-4.762c1.387 1.156 4.2 1.918 7.61 1.918.804 0 1.597-.043 2.355-.133l-.102-.875c-.75.082-1.5.125-2.254.125-4.218 0-7.242-1.25-7.609-2.46V8.483c1.281 1.09 3.914 1.946 7.762 1.946 3.851 0 6.484-.856 7.762-1.946v1.504h.886v-3.09c0-1.714-3.031-3.535-8.648-3.535-5.617 0-8.649 1.82-8.649 3.535v18.149c0 2.047 3.68 3.59 8.559 3.59 3.918 0 7.227-1.032 8.23-2.57l-.742-.485c-.703 1.078-3.508 2.172-7.488 2.172m10.602-11.012c.25 0 .468.098.62.278.278.332.231.832.204 1.011.012.934.531 1.117.59 1.137a.436.436 0 0 1 .316.434.43.43 0 0 1-.328.418c-.047.015-.578.203-.578 1.164.012.523-.238 1.097-.809 1.113h-.34v-.883h.23a.875.875 0 0 0 .032-.223c0-.804.273-1.296.559-1.597-.285-.301-.559-.793-.559-1.598a.57.57 0 0 1 .008-.082c.015-.094.015-.219.004-.289h-.274v-.883Zm-2.075 0h.34v.883h-.23a.736.736 0 0 0-.035.223c0 .804-.27 1.3-.559 1.597.289.301.559.797.559 1.598l-.008.082a1.026 1.026 0 0 0-.004.29h.277v.882h-.324a.782.782 0 0 1-.625-.277c-.273-.332-.23-.832-.203-1.008-.012-.938-.531-1.117-.586-1.137a.444.444 0 0 1-.324-.437c.004-.2.14-.368.332-.415.054-.02.578-.203.578-1.171-.012-.52.238-1.094.812-1.11m4.645 7.387h-7.54V13.523h4.88v1.77c0 .242.199.441.441.441h2.219Zm-1.774-10.606h.11l1.336 1.329h-1.446Zm2.528 1.149L25.25 12.77a.434.434 0 0 0-.309-.13h-.457l-1.367-1.609a.442.442 0 0 0-.34-.16h-6.113c-.242 0-.441.2-.441.441v11.493c0 .242.199.441.441.441h.887v-.883h-.442V11.758h5.461l.754.883h-4.887a.444.444 0 0 0-.44.441V24.57c0 .242.198.442.44.442h8.426c.246 0 .446-.2.446-.442v-9.582a.44.44 0 0 0-.133-.316m0 0" fill="rgb(100%, 100%, 100%)"/></svg>