<svg role="img" viewBox="0 0 32 32" height="32" width="32" xmlns="http://www.w3.org/2000/svg"><path d="M20.094 25.152h5.64V17.77h-5.64Zm-13.942 0h5.637V17.77H6.152Zm6.973 0h5.637V17.77h-5.637Zm13.273-8.715H5.484a.671.671 0 0 0-.472.196.668.668 0 0 0-.192.472v8.711c0 .372.297.668.664.668h20.914a.67.67 0 0 0 .668-.668v-8.71c0-.372-.3-.669-.668-.669m-6.304-3.484h5.64v-5.64h-5.64Zm-13.942 0h5.637v-5.64H6.152Zm6.973 0h5.637v-5.64h-5.637ZM26.398 5.98H5.484a.667.667 0 0 0-.664.668v6.97c0 .37.297.667.664.667h20.914a.67.67 0 0 0 .668-.668V6.648a.67.67 0 0 0-.668-.668m2.82 20.274a2.97 2.97 0 0 1-2.964 2.965H5.633a2.97 2.97 0 0 1-2.965-2.965V5.633a2.966 2.966 0 0 1 2.965-2.965h20.62a2.97 2.97 0 0 1 2.966 2.965ZM26.255 1.332H5.633a4.306 4.306 0 0 0-4.301 4.3v20.622a4.305 4.305 0 0 0 4.3 4.297h20.622a4.3 4.3 0 0 0 4.297-4.297V5.633a4.298 4.298 0 0 0-4.297-4.301m0 0" fill="rgb(83.137255%, 35.686275%, 2.745098%)" fill-rule="evenodd"/></svg>