<svg role="img" viewBox="0 0 32 32" xmlns="http://www.w3.org/2000/svg"><path d="M2.754 15.309h3.902v1.332H2.754c-.379 0-.738-.149-1.008-.414a1.43 1.43 0 0 1-.414-1.008V2.754c0-.785.637-1.422 1.422-1.422h12.465c.785 0 1.422.637 1.422 1.422v4.484h-1.332V2.754c0-.047-.043-.086-.09-.086H2.754a.087.087 0 0 0-.086.086v12.465c0 .047.039.09.086.09m6.402 6.984h5.031v1.332h-5.03a1.42 1.42 0 0 1-1.419-1.418V9.738A1.42 1.42 0 0 1 9.156 8.32h12.469a1.42 1.42 0 0 1 1.418 1.418v4.489h-1.332V9.738a.087.087 0 0 0-.086-.086H9.156a.087.087 0 0 0-.086.086v12.469c0 .047.04.086.086.086m20.078 6.988-12.593-.047V16.727c0-.047.039-.086.086-.086H29.19c.051 0 .09.039.09.086Zm-.043-13.972H16.727a1.42 1.42 0 0 0-1.418 1.418v12.507c0 .758.617 1.38 1.379 1.38h12.546c.758 0 1.38-.622 1.38-1.38V16.727c0-.782-.637-1.418-1.423-1.418m0 0" fill="rgb(83.137256%, 35.686275%, 2.745098%)" fill-rule="evenodd"/></svg>