<svg role="img" viewBox="0 0 31 32" xmlns="http://www.w3.org/2000/svg"><path d="M12.16.61a6.32 6.32 0 0 0-5.64 4.109 6.29 6.29 0 0 0 1.601 6.8 11.535 11.535 0 0 0-7.55 10.833v2.187h14.038l-.03-1.41H1.948v-.777c0-4.57 3.063-8.563 7.461-9.774a6.84 6.84 0 0 0 6.031 0 10.33 10.33 0 0 1 4.91 3.012l1.04-.942a11.6 11.6 0 0 0-4.633-3.136 6.31 6.31 0 0 0 1.48-7.043A6.3 6.3 0 0 0 12.16.609m.281 1.57A4.82 4.82 0 0 1 17.13 5.8c.562 2.13-.418 4.372-2.36 5.43a5 5 0 0 1-4.718 0 4.83 4.83 0 0 1-2.36-5.46 4.82 4.82 0 0 1 4.75-3.59m10.88 13.082L15.86 19.57v8.621l7.46 4.309 7.47-4.309v-8.62Zm0 1.59 5.39 3.109-5.39 3.11-5.38-3.11Zm-6.06 4.34 5.36 3.097v6.191l-5.36-3.101Zm12.13 0v6.187l-5.36 3.101v-6.19Zm0 0" fill="rgb(86.666667%, 20.392157%, 29.803923%)"/></svg>