<?xml version="1.0" encoding="UTF-8"?>
<svg xmlns="http://www.w3.org/2000/svg" xmlns:xlink="http://www.w3.org/1999/xlink" width="31" height="32" viewBox="0 0 31 32">
<path fill-rule="nonzero" fill="rgb(86.666667%, 20.392157%, 29.803923%)" fill-opacity="1" d="M 12.160156 0.609375 C 9.625 0.722656 7.402344 2.339844 6.519531 4.71875 C 5.628906 7.101562 6.261719 9.785156 8.121094 11.519531 C 3.582031 13.191406 0.566406 17.515625 0.570312 22.351562 L 0.570312 24.539062 L 14.609375 24.539062 L 14.578125 23.128906 L 1.949219 23.128906 L 1.949219 22.351562 C 1.949219 17.78125 5.011719 13.789062 9.410156 12.578125 C 11.3125 13.511719 13.539062 13.511719 15.441406 12.578125 C 17.328125 13.09375 19.03125 14.140625 20.351562 15.589844 L 21.390625 14.648438 C 20.125 13.242188 18.535156 12.164062 16.757812 11.511719 C 18.675781 9.703125 19.261719 6.894531 18.238281 4.46875 C 17.21875 2.039062 14.792969 0.496094 12.160156 0.609375 Z M 12.441406 2.179688 C 14.648438 2.171875 16.582031 3.664062 17.128906 5.800781 C 17.691406 7.929688 16.710938 10.171875 14.769531 11.230469 C 13.296875 12.019531 11.527344 12.019531 10.050781 11.230469 C 8.105469 10.167969 7.128906 7.914062 7.691406 5.769531 C 8.257812 3.621094 10.21875 2.140625 12.441406 2.179688 Z M 23.320312 15.261719 L 15.859375 19.570312 L 15.859375 28.191406 L 23.320312 32.5 L 30.789062 28.191406 L 30.789062 19.570312 Z M 23.320312 16.851562 L 28.710938 19.960938 L 23.320312 23.070312 L 17.941406 19.960938 Z M 17.261719 21.191406 L 22.621094 24.289062 L 22.621094 30.480469 L 17.261719 27.378906 Z M 29.390625 21.191406 L 29.390625 27.378906 L 24.03125 30.480469 L 24.03125 24.289062 Z M 29.390625 21.191406 "/>
</svg>
