<svg role="img" viewBox="0 0 32 32" xmlns="http://www.w3.org/2000/svg"><path d="M6 26h20V6H6ZM27.332 8.668v2.664h3.336v1.336h-3.336v2.664h3.336v1.336h-3.336v2.664h3.336v1.336h-3.336v2.664h3.336v1.336h-3.336v2a.664.664 0 0 1-.664.664h-2v3.336h-1.336v-3.336h-2.664v3.336h-1.336v-3.336h-2.664v3.336h-1.336v-3.336h-2.664v3.336h-1.336v-3.336H8.668v3.336H7.332v-3.336h-2a.664.664 0 0 1-.664-.664v-2H1.332v-1.336h3.336v-2.664H1.332v-1.336h3.336v-2.664H1.332v-1.336h3.336v-2.664H1.332v-1.336h3.336V8.668H1.332V7.332h3.336v-2c0-.367.297-.664.664-.664h2V1.332h1.336v3.336h2.664V1.332h1.336v3.336h2.664V1.332h1.336v3.336h2.664V1.332h1.336v3.336h2.664V1.332h1.336v3.336h2c.367 0 .664.297.664.664v2h3.336v1.336Zm-7.21 7.977c0 1.043.366 1.566 1.108 1.566q.55 0 1.047-.363v-2.391a1.8 1.8 0 0 0-1.039-.336q-.569 0-.843.375-.275.369-.274 1.149m-.606 1.765Q19 17.764 19 16.68q0-.709.234-1.254c.153-.364.38-.649.672-.856a1.77 1.77 0 0 1 1.035-.308q.814 0 1.41.57l.094-.43h.93v4.426q.001 1.126-.613 1.742-.615.619-1.746.617a3.6 3.6 0 0 1-1.633-.382v-.785q.867.293 1.558.293.698-.001 1.016-.325c.215-.215.32-.562.32-1.05v-.399q-.608.521-1.375.52-.866.001-1.386-.649m-4.922.742h1.156l2.457-5.617v-.851h-4.48v.886h3.367Zm-5.446-.707c-.527-.547-.789-1.36-.789-2.43q.001-1.648.817-2.542c.543-.594 1.328-.891 2.347-.891.559 0 1.079.086 1.551.254v.934c-.62-.133-1.11-.2-1.46-.2q-1.062 0-1.579.551-.521.55-.52 1.7v.226q0 1.138.516 1.683.511.547 1.567.547.591 0 1.57-.234v.934q-.74.288-1.684.289-1.544 0-2.336-.82m0 0" fill="rgb(83.137256%, 35.686275%, 2.745098%)" fill-rule="evenodd"/></svg>