<?xml version="1.0" encoding="UTF-8"?>
<svg xmlns="http://www.w3.org/2000/svg" xmlns:xlink="http://www.w3.org/1999/xlink" width="32" height="32" viewBox="0 0 32 32">
<path fill-rule="evenodd" fill="rgb(83.137255%, 35.686275%, 2.745098%)" fill-opacity="1" d="M 6 26 L 26 26 L 26 6 L 6 6 Z M 30.667969 8.667969 L 30.667969 7.332031 L 27.332031 7.332031 L 27.332031 5.332031 C 27.332031 4.964844 27.035156 4.667969 26.667969 4.667969 L 24.667969 4.667969 L 24.667969 1.332031 L 23.332031 1.332031 L 23.332031 4.667969 L 20.667969 4.667969 L 20.667969 1.332031 L 19.332031 1.332031 L 19.332031 4.667969 L 16.667969 4.667969 L 16.667969 1.332031 L 15.332031 1.332031 L 15.332031 4.667969 L 12.667969 4.667969 L 12.667969 1.332031 L 11.332031 1.332031 L 11.332031 4.667969 L 8.667969 4.667969 L 8.667969 1.332031 L 7.332031 1.332031 L 7.332031 4.667969 L 5.332031 4.667969 C 4.964844 4.667969 4.667969 4.964844 4.667969 5.332031 L 4.667969 7.332031 L 1.332031 7.332031 L 1.332031 8.667969 L 4.667969 8.667969 L 4.667969 11.332031 L 1.332031 11.332031 L 1.332031 12.667969 L 4.667969 12.667969 L 4.667969 15.332031 L 1.332031 15.332031 L 1.332031 16.667969 L 4.667969 16.667969 L 4.667969 19.332031 L 1.332031 19.332031 L 1.332031 20.667969 L 4.667969 20.667969 L 4.667969 23.332031 L 1.332031 23.332031 L 1.332031 24.667969 L 4.667969 24.667969 L 4.667969 26.667969 C 4.667969 27.035156 4.964844 27.332031 5.332031 27.332031 L 7.332031 27.332031 L 7.332031 30.667969 L 8.667969 30.667969 L 8.667969 27.332031 L 11.332031 27.332031 L 11.332031 30.667969 L 12.667969 30.667969 L 12.667969 27.332031 L 15.332031 27.332031 L 15.332031 30.667969 L 16.667969 30.667969 L 16.667969 27.332031 L 19.332031 27.332031 L 19.332031 30.667969 L 20.667969 30.667969 L 20.667969 27.332031 L 23.332031 27.332031 L 23.332031 30.667969 L 24.667969 30.667969 L 24.667969 27.332031 L 26.667969 27.332031 C 27.035156 27.332031 27.332031 27.035156 27.332031 26.667969 L 27.332031 24.667969 L 30.667969 24.667969 L 30.667969 23.332031 L 27.332031 23.332031 L 27.332031 20.667969 L 30.667969 20.667969 L 30.667969 19.332031 L 27.332031 19.332031 L 27.332031 16.667969 L 30.667969 16.667969 L 30.667969 15.332031 L 27.332031 15.332031 L 27.332031 12.667969 L 30.667969 12.667969 L 30.667969 11.332031 L 27.332031 11.332031 L 27.332031 8.667969 Z M 21.558594 15.636719 C 21.710938 15.429688 21.953125 15.324219 22.28125 15.324219 C 22.585938 15.324219 22.859375 15.414062 23.109375 15.589844 L 23.109375 17.605469 C 22.863281 17.78125 22.570312 17.878906 22.265625 17.882812 C 21.640625 17.882812 21.328125 17.453125 21.328125 16.59375 C 21.328125 16.164062 21.40625 15.84375 21.558594 15.636719 M 21.996094 18.566406 C 22.429688 18.566406 22.8125 18.421875 23.148438 18.125 L 23.234375 18.484375 L 23.976562 18.484375 L 23.976562 13.058594 L 23.109375 13.058594 L 23.109375 15.023438 C 22.804688 14.777344 22.429688 14.644531 22.039062 14.644531 C 21.710938 14.644531 21.429688 14.726562 21.1875 14.898438 C 20.941406 15.074219 20.75 15.316406 20.636719 15.597656 C 20.503906 15.925781 20.441406 16.277344 20.449219 16.628906 C 20.449219 17.222656 20.589844 17.691406 20.871094 18.042969 C 21.152344 18.390625 21.527344 18.566406 21.996094 18.566406 M 17.402344 15.613281 C 17.542969 15.414062 17.765625 15.3125 18.066406 15.316406 C 18.351562 15.316406 18.625 15.40625 18.878906 15.582031 L 18.878906 17.460938 C 18.644531 17.640625 18.355469 17.742188 18.058594 17.746094 C 17.476562 17.746094 17.183594 17.335938 17.183594 16.511719 C 17.183594 16.109375 17.257812 15.808594 17.402344 15.613281 M 17.800781 18.414062 C 18.203125 18.414062 18.5625 18.277344 18.878906 18.003906 L 18.878906 18.316406 C 18.878906 18.699219 18.796875 18.972656 18.628906 19.140625 C 18.460938 19.3125 18.195312 19.394531 17.828125 19.394531 C 17.46875 19.394531 17.058594 19.316406 16.605469 19.167969 L 16.605469 19.785156 C 17.007812 19.984375 17.433594 20.085938 17.886719 20.085938 C 18.480469 20.082031 18.9375 19.921875 19.261719 19.601562 C 19.582031 19.277344 19.742188 18.820312 19.742188 18.230469 L 19.742188 14.753906 L 19.011719 14.753906 L 18.9375 15.089844 C 18.640625 14.800781 18.242188 14.640625 17.828125 14.644531 C 17.539062 14.636719 17.253906 14.722656 17.015625 14.886719 C 16.785156 15.046875 16.609375 15.269531 16.488281 15.554688 C 16.367188 15.84375 16.304688 16.171875 16.304688 16.542969 C 16.304688 17.109375 16.441406 17.5625 16.710938 17.902344 C 16.984375 18.242188 17.347656 18.414062 17.800781 18.414062 M 13.695312 18.597656 C 13.203125 18.597656 12.734375 18.496094 12.285156 18.300781 L 12.285156 17.613281 C 12.820312 17.792969 13.28125 17.882812 13.671875 17.882812 C 14.394531 17.882812 14.757812 17.570312 14.757812 16.945312 C 14.757812 16.644531 14.664062 16.421875 14.484375 16.28125 C 14.300781 16.144531 14.011719 16.074219 13.613281 16.074219 C 13.316406 16.074219 12.945312 16.097656 12.5 16.148438 L 12.5 15.589844 L 12.636719 13.402344 L 15.394531 13.402344 L 15.394531 14.101562 L 13.453125 14.101562 L 13.371094 15.457031 C 13.570312 15.417969 13.785156 15.398438 14.007812 15.398438 C 14.515625 15.398438 14.914062 15.535156 15.207031 15.808594 C 15.5 16.082031 15.644531 16.457031 15.644531 16.929688 C 15.644531 17.4375 15.46875 17.84375 15.117188 18.144531 C 14.765625 18.445312 14.289062 18.597656 13.695312 18.597656 M 8.898438 14.09375 L 9.808594 14.09375 C 10.367188 14.09375 10.644531 14.375 10.644531 14.9375 C 10.644531 15.5 10.359375 15.78125 9.789062 15.78125 L 8.898438 15.78125 Z M 8.898438 16.46875 L 9.792969 16.46875 L 10.980469 18.484375 L 11.875 18.484375 L 10.5625 16.316406 C 10.886719 16.1875 11.128906 16.003906 11.300781 15.765625 C 11.46875 15.523438 11.550781 15.238281 11.550781 14.90625 C 11.550781 14.445312 11.402344 14.082031 11.101562 13.8125 C 10.800781 13.539062 10.402344 13.402344 9.902344 13.402344 L 8.003906 13.402344 L 8.003906 18.484375 L 8.898438 18.484375 Z M 8.898438 16.46875 "/>
</svg>
