<svg role="img" viewBox="0 0 32 32" height="32" width="32" xmlns="http://www.w3.org/2000/svg"><path d="M6 26h20V6H6ZM30.668 8.668V7.332h-3.336v-2a.664.664 0 0 0-.664-.664h-2V1.332h-1.336v3.336h-2.664V1.332h-1.336v3.336h-2.664V1.332h-1.336v3.336h-2.664V1.332h-1.336v3.336H8.668V1.332H7.332v3.336h-2a.664.664 0 0 0-.664.664v2H1.332v1.336h3.336v2.664H1.332v1.336h3.336v2.664H1.332v1.336h3.336v2.664H1.332v1.336h3.336v2.664H1.332v1.336h3.336v2c0 .367.297.664.664.664h2v3.336h1.336v-3.336h2.664v3.336h1.336v-3.336h2.664v3.336h1.336v-3.336h2.664v3.336h1.336v-3.336h2.664v3.336h1.336v-3.336h2a.664.664 0 0 0 .664-.664v-2h3.336v-1.336h-3.336v-2.664h3.336v-1.336h-3.336v-2.664h3.336v-1.336h-3.336v-2.664h3.336v-1.336h-3.336V8.668ZM17.316 16.93l1.95-2.844v2.844Zm1.95 2.222h1.109V17.81h.867v-.88h-.867v-4.245h-1.156l-3.016 4.293v.832h3.063Zm-6.88-5.59h1.141c.352 0 .618.098.793.29.18.191.27.476.27.847 0 .375-.09.656-.27.852-.175.191-.441.289-.793.289h-1.14Zm0 3.153h1.278c.64 0 1.149-.18 1.524-.54.37-.359.558-.85.558-1.476 0-.62-.187-1.113-.562-1.472-.38-.36-.891-.543-1.536-.543h-2.402v6.468h1.14Zm0 0" fill="rgb(83.137255%, 35.686275%, 2.745098%)" fill-rule="evenodd"/></svg>