<svg role="img" viewBox="0 0 32 32" xmlns="http://www.w3.org/2000/svg"><path d="M2.84 29.656h6.363a.725.725 0 0 0 .727-.723v-14a.73.73 0 0 0-.211-.515.73.73 0 0 0-.516-.211H2.84a.73.73 0 0 0-.516.211.73.73 0 0 0-.21.516v14c0 .398.324.722.726.722m.726-1.445V15.656H8.48v12.555Zm9.457 1.445h6.368a.723.723 0 0 0 .718-.722v-10.82a.723.723 0 0 0-.718-.723h-6.368a.724.724 0 0 0-.722.722v10.82c0 .399.324.723.722.723m.723-1.445V18.84h4.918v9.37ZM.293 32.207h31.824v-1.45H.293Zm26.094-21.644a5.19 5.19 0 0 0 5.183-5.18c0-2.856-2.328-5.176-5.183-5.176a5.178 5.178 0 0 0 0 10.355m0-8.91a3.74 3.74 0 0 1 3.734 3.73 3.74 3.74 0 0 1-3.734 3.735 3.735 3.735 0 0 1-3.727-3.734 3.734 3.734 0 0 1 3.727-3.73m2.87 9.75a6.72 6.72 0 0 1-5.741 0 .72.72 0 0 0-1.035.652v16.879c0 .398.324.722.722.722h6.367a.724.724 0 0 0 .723-.722v-16.88a.72.72 0 0 0-1.035-.652m-.414 16.809H23.93V13.12a8.2 8.2 0 0 0 4.914 0Zm0 0" fill="rgb(90.588236%, 8.235294%, 48.235294%)"/></svg>