<svg role="img" viewBox="0 0 32 32" xmlns="http://www.w3.org/2000/svg"><path d="M6 26h20V6H6ZM27.332 8.668v2.664h3.336v1.336h-3.336v2.664h3.336v1.336h-3.336v2.664h3.336v1.336h-3.336v2.664h3.336v1.336h-3.336v2a.664.664 0 0 1-.664.664h-2v3.336h-1.336v-3.336h-2.664v3.336h-1.336v-3.336h-2.664v3.336h-1.336v-3.336h-2.664v3.336h-1.336v-3.336H8.668v3.336H7.332v-3.336h-2a.664.664 0 0 1-.664-.664v-2H1.332v-1.336h3.336v-2.664H1.332v-1.336h3.336v-2.664H1.332v-1.336h3.336v-2.664H1.332v-1.336h3.336V8.668H1.332V7.332h3.336v-2c0-.367.297-.664.664-.664h2V1.332h1.336v3.336h2.664V1.332h1.336v3.336h2.664V1.332h1.336v3.336h2.664V1.332h1.336v3.336h2.664V1.332h1.336v3.336h2c.367 0 .664.297.664.664v2h3.336v1.336Zm-5.531 7.312a1.4 1.4 0 0 1 .3-.128q.154-.043.29-.043.194 0 .277.093.082.093.082.309v1.61h.55v-1.84a1.16 1.16 0 0 1 .595-.172q.19 0 .277.093.082.093.082.309v1.61h.55v-1.747q0-.341-.183-.52-.182-.18-.512-.179c-.285 0-.586.105-.894.32q-.165-.321-.598-.32-.211-.001-.418.074a2 2 0 0 0-.441.235l-.051-.239h-.457v2.375h.55Zm-2.516 1.91q.433-.002.871-.331l.055.261h.46v-2.375h-.55v1.82c-.2.126-.39.192-.586.192q-.204-.002-.297-.11-.093-.106-.093-.335v-1.567h-.551v1.73q-.002.346.18.532.178.183.511.184m-1.816-.07h.55v-2.375h-.55Zm.273-2.77a.35.35 0 0 0 .246-.081.3.3 0 0 0 .086-.235.32.32 0 0 0-.086-.234.35.35 0 0 0-.246-.082.35.35 0 0 0-.242.082.32.32 0 0 0-.086.234.3.3 0 0 0 .086.235.35.35 0 0 0 .242.082m-2.43.962a1.17 1.17 0 0 1 .63-.203q.206 0 .3.105.094.104.094.332v1.574h.55v-1.746q-.002-.341-.179-.52-.175-.18-.516-.179-.48 0-.918.332l-.054-.262h-.457v2.375h.55Zm-1.699 1.808h.551v-2.375h-.55Zm.278-2.77a.34.34 0 0 0 .242-.081.3.3 0 0 0 .086-.235.32.32 0 0 0-.086-.234.34.34 0 0 0-.242-.082.34.34 0 0 0-.243.082.32.32 0 0 0-.09.234c0 .102.032.176.09.235q.09.082.243.082m-1.38 1.774q-.239-.048-.425-.05-.473-.002-.473.378.002.166.09.254c.063.063.145.09.25.09q.133 0 .277-.058.147-.06.282-.165Zm0-.324v-.277c0-.157-.03-.27-.1-.332q-.101-.094-.36-.094c-.242 0-.52.055-.836.156v-.387q.177-.087.43-.14.255-.052.511-.051.465 0 .688.188.217.181.219.582v1.675h-.481l-.039-.23a1.3 1.3 0 0 1-.363.219 1 1 0 0 1-.395.082.73.73 0 0 1-.531-.2.68.68 0 0 1-.203-.507c0-.23.086-.414.25-.551q.25-.204.672-.203.245 0 .539.07m-2.468-.402q.269-.176.613-.176.136.001.266.02v-.505a2 2 0 0 0-.192-.011.8.8 0 0 0-.355.082c-.11.058-.223.152-.352.289l-.07-.352h-.46v2.375h.55ZM7.855 15.05H6.844v-.465h2.593v.465h-1.01v2.77h-.57Zm0 0" fill="rgb(83.137256%, 35.686275%, 2.745098%)" fill-rule="evenodd"/></svg>