<svg role="img" viewBox="0 0 32 32" height="32" width="32" xmlns="http://www.w3.org/2000/svg"><path d="M6 26h20V6H6ZM27.332 8.668v2.664h3.336v1.336h-3.336v2.664h3.336v1.336h-3.336v2.664h3.336v1.336h-3.336v2.664h3.336v1.336h-3.336v2a.664.664 0 0 1-.664.664h-2v3.336h-1.336v-3.336h-2.664v3.336h-1.336v-3.336h-2.664v3.336h-1.336v-3.336h-2.664v3.336h-1.336v-3.336H8.668v3.336H7.332v-3.336h-2a.664.664 0 0 1-.664-.664v-2H1.332v-1.336h3.336v-2.664H1.332v-1.336h3.336v-2.664H1.332v-1.336h3.336v-2.664H1.332v-1.336h3.336V8.668H1.332V7.332h3.336v-2c0-.367.297-.664.664-.664h2V1.332h1.336v3.336h2.664V1.332h1.336v3.336h2.664V1.332h1.336v3.336h2.664V1.332h1.336v3.336h2.664V1.332h1.336v3.336h2c.367 0 .664.297.664.664v2h3.336v1.336Zm-3.148 8.398a2.89 2.89 0 0 0-.61-.074c-.449 0-.676.18-.676.54 0 .155.043.277.13.363.097.093.226.14.359.132.136-.004.27-.03.394-.086.14-.054.274-.132.403-.234Zm0-.468v-.391c0-.227-.047-.387-.145-.473-.098-.09-.27-.136-.516-.136-.343 0-.742.074-1.191.222v-.554a2.31 2.31 0 0 1 .613-.2c.242-.05.485-.074.73-.074.446 0 .77.09.981.266.211.18.317.457.317.836v2.39h-.688l-.058-.324a1.755 1.755 0 0 1-.52.313 1.48 1.48 0 0 1-.562.113c-.31 0-.563-.094-.758-.281-.192-.184-.29-.426-.29-.727 0-.328.122-.59.36-.785.234-.195.555-.293.953-.293.238 0 .496.031.774.098m-5-.067c.03.95.34 1.422.925 1.422.239 0 .426-.074.563-.219.133-.148.2-.351.2-.613 0-.27-.071-.473-.208-.613-.14-.137-.34-.207-.605-.207a1.9 1.9 0 0 0-.875.23M18.8 18.02c-.281-.38-.422-.938-.422-1.672 0-.82.168-1.453.504-1.91.336-.454.808-.68 1.414-.68.191 0 .387.023.578.066.195.043.36.098.496.168v.582a2.704 2.704 0 0 0-.96-.18c-.403 0-.7.133-.895.399-.203.266-.313.676-.332 1.234a1.985 1.985 0 0 1 1.125-.34c.41 0 .742.126.992.376.254.25.379.585.379 1.003 0 .293-.067.555-.2.782-.128.23-.32.41-.566.543a1.81 1.81 0 0 1-.863.195c-.551 0-.965-.188-1.25-.566m-1.774.539c.325.007.645-.063.938-.207V17.8c-.254.082-.52.125-.785.133-.332 0-.578-.09-.739-.27-.156-.18-.234-.453-.234-.824v-.086c0-.379.078-.656.234-.84.16-.18.407-.27.739-.27.207 0 .457.043.758.13v-.555a1.95 1.95 0 0 0-.887-.2c-.52 0-.922.157-1.211.473-.29.317-.434.758-.434 1.328-.004.555.137.985.418 1.285.278.301.68.454 1.203.454m-4.535-.88c.246.173.512.259.793.259.285 0 .496-.098.633-.29.14-.191.207-.488.207-.882 0-.391-.066-.68-.203-.871-.137-.188-.344-.282-.629-.282-.293 0-.559.086-.8.254Zm0 2.18h-.785v-4.765h.652l.075.34a1.59 1.59 0 0 1 1.105-.442c.422 0 .758.156 1.008.473.254.312.379.738.379 1.273 0 .356-.059.672-.172.946a1.519 1.519 0 0 1-.5.64 1.324 1.324 0 0 1-.77.235c-.187 0-.367-.036-.539-.098a1.438 1.438 0 0 1-.453-.27ZM7.88 18.484h-.813v-4.617h.813v1.938H10v-1.938h.813v4.617H10v-2.023H7.879Zm0 0" fill="rgb(83.137255%, 35.686275%, 2.745098%)" fill-rule="evenodd"/></svg>