<svg role="img" viewBox="0 0 32 32" height="32" width="32" xmlns="http://www.w3.org/2000/svg"><path d="M29.078 16.04v-.177l.082.086ZM7.285 20.565a4.621 4.621 0 0 1-4.617-4.617 4.624 4.624 0 0 1 4.617-4.617 4.624 4.624 0 0 1 4.617 4.617 4.629 4.629 0 0 1-4.617 4.617m23.274-5.07-4.293-4.621-.977.906 3.254 3.504H13.195C12.863 12.316 10.34 10 7.285 10a5.958 5.958 0 0 0-5.953 5.95 5.962 5.962 0 0 0 5.953 5.952c3.055 0 5.578-2.316 5.91-5.285h15.348l-3.254 3.504.977.906 4.293-4.62a.669.669 0 0 0 0-.91m0 0" fill="rgb(83.137255%, 35.686275%, 2.745098%)" fill-rule="evenodd"/></svg>