<?xml version="1.0" encoding="UTF-8"?>
<svg xmlns="http://www.w3.org/2000/svg" xmlns:xlink="http://www.w3.org/1999/xlink" width="32" height="32" viewBox="0 0 32 32">
<path fill-rule="evenodd" fill="rgb(83.137255%, 35.686275%, 2.745098%)" fill-opacity="1" d="M 6 26 L 26 26 L 26 6 L 6 6 Z M 27.332031 8.667969 L 27.332031 11.332031 L 30.667969 11.332031 L 30.667969 12.667969 L 27.332031 12.667969 L 27.332031 15.332031 L 30.667969 15.332031 L 30.667969 16.667969 L 27.332031 16.667969 L 27.332031 19.332031 L 30.667969 19.332031 L 30.667969 20.667969 L 27.332031 20.667969 L 27.332031 23.332031 L 30.667969 23.332031 L 30.667969 24.667969 L 27.332031 24.667969 L 27.332031 26.667969 C 27.332031 27.035156 27.035156 27.332031 26.667969 27.332031 L 24.667969 27.332031 L 24.667969 30.667969 L 23.332031 30.667969 L 23.332031 27.332031 L 20.667969 27.332031 L 20.667969 30.667969 L 19.332031 30.667969 L 19.332031 27.332031 L 16.667969 27.332031 L 16.667969 30.667969 L 15.332031 30.667969 L 15.332031 27.332031 L 12.667969 27.332031 L 12.667969 30.667969 L 11.332031 30.667969 L 11.332031 27.332031 L 8.667969 27.332031 L 8.667969 30.667969 L 7.332031 30.667969 L 7.332031 27.332031 L 5.332031 27.332031 C 4.964844 27.332031 4.667969 27.035156 4.667969 26.667969 L 4.667969 24.667969 L 1.332031 24.667969 L 1.332031 23.332031 L 4.667969 23.332031 L 4.667969 20.667969 L 1.332031 20.667969 L 1.332031 19.332031 L 4.667969 19.332031 L 4.667969 16.667969 L 1.332031 16.667969 L 1.332031 15.332031 L 4.667969 15.332031 L 4.667969 12.667969 L 1.332031 12.667969 L 1.332031 11.332031 L 4.667969 11.332031 L 4.667969 8.667969 L 1.332031 8.667969 L 1.332031 7.332031 L 4.667969 7.332031 L 4.667969 5.332031 C 4.667969 4.964844 4.964844 4.667969 5.332031 4.667969 L 7.332031 4.667969 L 7.332031 1.332031 L 8.667969 1.332031 L 8.667969 4.667969 L 11.332031 4.667969 L 11.332031 1.332031 L 12.667969 1.332031 L 12.667969 4.667969 L 15.332031 4.667969 L 15.332031 1.332031 L 16.667969 1.332031 L 16.667969 4.667969 L 19.332031 4.667969 L 19.332031 1.332031 L 20.667969 1.332031 L 20.667969 4.667969 L 23.332031 4.667969 L 23.332031 1.332031 L 24.667969 1.332031 L 24.667969 4.667969 L 26.667969 4.667969 C 27.035156 4.667969 27.332031 4.964844 27.332031 5.332031 L 27.332031 7.332031 L 30.667969 7.332031 L 30.667969 8.667969 Z M 22.386719 15.367188 C 22.679688 15.183594 22.964844 15.089844 23.242188 15.089844 C 23.429688 15.089844 23.5625 15.136719 23.648438 15.230469 C 23.730469 15.328125 23.773438 15.476562 23.773438 15.683594 L 23.773438 17.820312 L 24.519531 17.820312 L 24.519531 15.449219 C 24.519531 15.144531 24.441406 14.90625 24.28125 14.746094 C 24.121094 14.582031 23.886719 14.5 23.578125 14.5 C 23.148438 14.5 22.734375 14.652344 22.335938 14.949219 L 22.261719 14.597656 L 21.640625 14.597656 L 21.640625 17.820312 L 22.386719 17.820312 Z M 18.71875 16.117188 C 18.71875 16.824219 18.972656 17.179688 19.472656 17.179688 C 19.722656 17.179688 19.957031 17.097656 20.183594 16.933594 L 20.183594 15.3125 C 19.980469 15.164062 19.734375 15.082031 19.480469 15.082031 C 19.222656 15.082031 19.03125 15.167969 18.90625 15.335938 C 18.78125 15.503906 18.71875 15.765625 18.71875 16.117188 M 18.3125 17.316406 C 18.078125 17.019531 17.960938 16.628906 17.960938 16.140625 C 17.960938 15.820312 18.011719 15.535156 18.117188 15.289062 C 18.222656 15.042969 18.375 14.851562 18.574219 14.710938 C 18.773438 14.570312 19.007812 14.5 19.277344 14.5 C 19.644531 14.5 19.964844 14.628906 20.234375 14.886719 L 20.296875 14.597656 L 20.929688 14.597656 L 20.929688 17.597656 C 20.929688 18.109375 20.792969 18.503906 20.511719 18.78125 C 20.234375 19.0625 19.839844 19.199219 19.328125 19.199219 C 18.9375 19.199219 18.566406 19.113281 18.21875 18.941406 L 18.21875 18.40625 C 18.613281 18.539062 18.964844 18.605469 19.277344 18.605469 C 19.59375 18.605469 19.824219 18.53125 19.96875 18.386719 C 20.113281 18.242188 20.183594 18.003906 20.183594 17.675781 L 20.183594 17.402344 C 19.929688 17.628906 19.597656 17.757812 19.253906 17.757812 C 18.859375 17.757812 18.546875 17.609375 18.3125 17.316406 M 16.394531 16.3125 L 16.394531 14.378906 L 15.070312 16.3125 Z M 16.394531 16.90625 L 14.316406 16.90625 L 14.316406 16.34375 L 16.363281 13.429688 L 17.148438 13.429688 L 17.148438 16.3125 L 17.738281 16.3125 L 17.738281 16.90625 L 17.148438 16.90625 L 17.148438 17.820312 L 16.394531 17.820312 Z M 9.820312 15.324219 C 9.953125 15.246094 10.089844 15.191406 10.230469 15.148438 C 10.371094 15.109375 10.503906 15.089844 10.625 15.089844 C 10.796875 15.089844 10.921875 15.132812 11 15.214844 C 11.074219 15.300781 11.113281 15.441406 11.113281 15.632812 L 11.113281 17.820312 L 11.859375 17.820312 L 11.859375 15.324219 C 11.96875 15.257812 12.097656 15.199219 12.246094 15.15625 C 12.382812 15.113281 12.523438 15.09375 12.664062 15.089844 C 12.839844 15.089844 12.960938 15.132812 13.039062 15.214844 C 13.113281 15.300781 13.152344 15.441406 13.152344 15.632812 L 13.152344 17.820312 L 13.898438 17.820312 L 13.898438 15.449219 C 13.898438 15.144531 13.816406 14.90625 13.652344 14.746094 C 13.488281 14.582031 13.257812 14.5 12.957031 14.5 C 12.566406 14.5 12.164062 14.648438 11.742188 14.9375 C 11.59375 14.648438 11.324219 14.5 10.929688 14.5 C 10.738281 14.5 10.550781 14.535156 10.363281 14.601562 C 10.152344 14.679688 9.949219 14.789062 9.765625 14.917969 L 9.695312 14.597656 L 9.074219 14.597656 L 9.074219 17.820312 L 9.820312 17.820312 Z M 7.492188 17.820312 L 8.265625 17.820312 L 8.265625 13.429688 L 7.492188 13.429688 Z M 7.492188 17.820312 "/>
</svg>
