<svg role="img" viewBox="0 0 32 32" xmlns="http://www.w3.org/2000/svg"><path d="M22.375 18.133a2.3 2.3 0 0 1-.566.332 1.5 1.5 0 0 1-.555.117q-.317 0-.5-.184c-.121-.117-.18-.289-.18-.507q-.002-.757.946-.758c.25 0 .535.039.855.105Zm-1.082-1.688q-.843 0-1.34.41-.499.41-.5 1.102.001.621.406 1.02c.27.257.625.39 1.059.39q.392-.001.789-.16a2.6 2.6 0 0 0 .723-.437l.086.457h.96v-3.352q-.001-.792-.44-1.168-.446-.37-1.376-.371-.511.001-1.023.101a3.4 3.4 0 0 0-.856.282v.773c.625-.207 1.184-.308 1.668-.308q.515 0 .719.187.206.186.207.664v.55a4.7 4.7 0 0 0-1.082-.14m-5.156 2.922a4.4 4.4 0 0 1-1.79-.375v-.875c.68.227 1.27.344 1.762.344q1.383 0 1.383-1.195c0-.387-.113-.668-.347-.844-.23-.18-.602-.266-1.106-.266q-.568 0-1.422.094v-.71l.18-2.782h3.508v.887h-2.47l-.105 1.726q.381-.075.81-.074.97-.002 1.526.523.556.523.555 1.426 0 .973-.672 1.547-.668.574-1.812.574m-6.29-5.734h1.16q1.062.001 1.063 1.074c0 .719-.363 1.074-1.09 1.074H9.848Zm0 3.027h1.141l1.512 2.567h1.137l-1.668-2.766q.615-.241.937-.7.321-.456.32-1.09.001-.878-.574-1.394-.573-.52-1.523-.52H8.71v6.47h1.137ZM6 26h20V6H6ZM30.668 8.668V7.332h-3.336v-2a.664.664 0 0 0-.668-.664h-1.996V1.332h-1.336v3.336h-2.668V1.332h-1.332v3.336h-2.668V1.332h-1.332v3.336h-2.668V1.332h-1.332v3.336H8.668V1.332H7.332v3.336h-2a.664.664 0 0 0-.664.664v2H1.332v1.336h3.336v2.664H1.332v1.336h3.336v2.664H1.332v1.336h3.336v2.664H1.332v1.336h3.336v2.664H1.332v1.336h3.336v2c0 .367.297.664.664.664h2v3.336h1.336v-3.336h2.664v3.336h1.332v-3.336h2.668v3.336h1.332v-3.336h2.668v3.336h1.332v-3.336h2.668v3.336h1.336v-3.336h1.996a.664.664 0 0 0 .668-.664v-2h3.336v-1.336h-3.336v-2.664h3.336v-1.336h-3.336v-2.664h3.336v-1.336h-3.336v-2.664h3.336v-1.336h-3.336V8.668Zm0 0" fill="rgb(83.137256%, 35.686275%, 2.745098%)" fill-rule="evenodd"/></svg>