<?xml version="1.0" encoding="UTF-8"?>
<svg xmlns="http://www.w3.org/2000/svg" xmlns:xlink="http://www.w3.org/1999/xlink" width="32" height="32" viewBox="0 0 32 32">
<path fill-rule="nonzero" fill="rgb(100%, 100%, 100%)" fill-opacity="1" d="M 0.203125 0.203125 L 32.203125 0.203125 L 32.203125 32.203125 L 0.203125 32.203125 Z M 0.203125 0.203125 "/>
<path fill-rule="nonzero" fill="rgb(78.823529%, 14.509804%, 81.960784%)" fill-opacity="1" d="M 0.203125 0.203125 L 31.796875 0.203125 L 31.796875 31.796875 L 0.203125 31.796875 Z M 0.203125 0.203125 "/>
<path fill-rule="nonzero" fill="rgb(100%, 100%, 100%)" fill-opacity="1" d="M 21.4375 22.703125 C 19.929688 23.917969 16.769531 24.5625 13.742188 24.5625 C 10.722656 24.5625 7.558594 23.917969 6.050781 22.703125 L 6.050781 25.15625 C 6.050781 26.378906 9.210938 27.742188 13.742188 27.742188 C 18.277344 27.742188 21.433594 26.382812 21.4375 25.160156 Z M 21.441406 18.042969 L 22.339844 18.039062 L 22.339844 18.042969 C 22.339844 18.585938 22.066406 19.09375 21.539062 19.558594 C 22.179688 20.128906 22.339844 20.6875 22.339844 21.078125 L 22.339844 25.15625 C 22.339844 27.417969 17.910156 28.636719 13.742188 28.636719 C 9.585938 28.636719 5.171875 27.421875 5.152344 25.171875 C 5.152344 25.171875 5.148438 25.167969 5.148438 25.164062 L 5.148438 21.078125 C 5.148438 21.078125 5.152344 21.078125 5.152344 21.074219 C 5.152344 20.679688 5.3125 20.128906 5.957031 19.558594 C 5.320312 18.992188 5.15625 18.441406 5.152344 18.050781 C 5.152344 18.050781 5.148438 18.050781 5.148438 18.046875 L 5.148438 13.960938 C 5.148438 13.957031 5.152344 13.957031 5.152344 13.957031 C 5.152344 13.5625 5.3125 13.007812 5.957031 12.445312 C 5.320312 11.875 5.15625 11.324219 5.152344 10.933594 L 5.148438 10.929688 L 5.148438 6.839844 C 5.148438 6.839844 5.152344 6.839844 5.152344 6.835938 C 5.160156 4.582031 9.582031 3.363281 13.742188 3.363281 C 16.097656 3.363281 18.359375 3.734375 19.945312 4.386719 L 19.601562 5.214844 C 18.117188 4.605469 15.984375 4.257812 13.742188 4.257812 C 9.210938 4.257812 6.050781 5.621094 6.050781 6.84375 C 6.050781 8.070312 9.210938 9.433594 13.742188 9.433594 C 13.871094 9.433594 13.988281 9.433594 14.109375 9.429688 L 14.144531 10.320312 C 14.011719 10.328125 13.878906 10.328125 13.742188 10.328125 C 10.722656 10.328125 7.558594 9.683594 6.050781 8.464844 L 6.050781 10.929688 C 6.058594 11.398438 6.539062 11.808594 6.941406 12.066406 C 8.15625 12.839844 10.332031 13.371094 12.757812 13.480469 L 12.71875 14.375 C 10.261719 14.261719 8.109375 13.75 6.722656 12.972656 C 6.378906 13.226562 6.050781 13.574219 6.050781 13.960938 C 6.050781 15.1875 9.210938 16.550781 13.742188 16.550781 C 14.1875 16.550781 14.632812 16.535156 15.058594 16.507812 L 15.121094 17.402344 C 14.675781 17.429688 14.210938 17.445312 13.742188 17.445312 C 10.722656 17.445312 7.558594 16.800781 6.050781 15.582031 L 6.050781 18.039062 C 6.058594 18.515625 6.539062 18.925781 6.941406 19.1875 C 8.332031 20.070312 10.9375 20.625 13.742188 20.625 L 13.941406 20.625 L 13.941406 21.519531 L 13.742188 21.519531 C 10.890625 21.519531 8.300781 20.992188 6.714844 20.09375 C 6.375 20.351562 6.050781 20.695312 6.050781 21.078125 C 6.050781 22.308594 9.210938 23.667969 13.742188 23.667969 C 18.277344 23.667969 21.433594 22.308594 21.4375 21.082031 L 21.4375 21.078125 C 21.4375 20.691406 21.113281 20.347656 20.773438 20.089844 C 20.554688 20.214844 20.3125 20.339844 20.046875 20.449219 L 19.703125 19.621094 C 19.996094 19.503906 20.277344 19.359375 20.542969 19.1875 C 20.953125 18.921875 21.441406 18.507812 21.441406 18.042969 M 25.304688 11.496094 L 22.777344 11.496094 C 22.625 11.496094 22.484375 11.421875 22.398438 11.296875 C 22.316406 11.171875 22.300781 11.015625 22.355469 10.878906 L 23.894531 7.035156 L 18.066406 7.035156 L 15.359375 12.40625 L 18.238281 12.40625 C 18.386719 12.40625 18.519531 12.476562 18.605469 12.589844 C 18.691406 12.707031 18.714844 12.851562 18.667969 12.992188 L 16.097656 21.007812 Z M 26.691406 11.359375 L 15.40625 23.015625 C 15.257812 23.160156 15.03125 23.191406 14.851562 23.089844 C 14.667969 22.988281 14.585938 22.769531 14.652344 22.570312 L 17.625 13.300781 L 14.632812 13.300781 C 14.476562 13.300781 14.332031 13.222656 14.25 13.089844 C 14.167969 12.957031 14.160156 12.792969 14.226562 12.652344 L 17.386719 6.386719 C 17.460938 6.234375 17.617188 6.136719 17.789062 6.140625 L 24.558594 6.140625 C 24.707031 6.140625 24.851562 6.214844 24.933594 6.335938 C 25.015625 6.460938 25.03125 6.617188 24.980469 6.753906 L 23.441406 10.601562 L 26.367188 10.601562 C 26.542969 10.601562 26.710938 10.707031 26.777344 10.871094 C 26.851562 11.035156 26.816406 11.230469 26.691406 11.359375 M 6.707031 25.332031 C 7.347656 25.691406 8.152344 25.992188 9.101562 26.230469 L 9.324219 25.359375 C 8.464844 25.148438 7.714844 24.871094 7.15625 24.554688 Z M 9.101562 19.070312 L 9.324219 18.199219 C 8.464844 17.984375 7.714844 17.707031 7.15625 17.390625 L 6.707031 18.167969 C 7.347656 18.527344 8.152344 18.832031 9.101562 19.070312 M 6.707031 11.003906 L 7.15625 10.226562 C 7.714844 10.542969 8.464844 10.824219 9.324219 11.039062 L 9.101562 11.90625 C 8.152344 11.667969 7.347656 11.367188 6.707031 11.003906 M 6.707031 11.003906 "/>
</svg>
