<svg role="img" viewBox="0 0 32 32" height="32" width="32" xmlns="http://www.w3.org/2000/svg"><path d="M20.238 15.195c-3.086 3.153-8.078 3.617-10.781 3.614 2.504-1.914 5.07-4.196 7.508-6.684 2.547-2.598 4.87-5.348 6.812-8.035.012 2.773-.43 7.93-3.539 11.105M12.23 5.672c.075-.067.153-.121.23-.184.165-.129.325-.25.493-.367.094-.062.188-.125.281-.184.254-.164.516-.316.782-.46.187-.098.37-.188.562-.278.078-.039.156-.078.238-.113.266-.117.532-.227.801-.324.074-.028.145-.051.215-.075.203-.07.41-.14.613-.203l.328-.09c.168-.046.336-.093.504-.136.114-.028.23-.055.344-.078.164-.04.328-.075.492-.106l.328-.062c.18-.032.356-.059.532-.086l.261-.04c.25-.034.493-.066.73-.09.11-.007.212-.019.313-.026l.418-.036c.114-.007.223-.011.328-.02.125-.007.247-.01.364-.015l.308-.011c.114-.004.223-.004.332-.008h.27c.226 0 .453 0 .68.007.058 0 .113.004.168.004-1.989 2.829-4.434 5.75-7.133 8.5-2.594 2.649-5.336 5.063-7.985 7.032 0-.047-.004-.094-.004-.141a8.55 8.55 0 0 1-.007-.316c-.004-.078-.004-.168-.004-.254v-.332c0-.11.004-.227.004-.34.004-.113.004-.219.007-.336.008-.223.02-.453.032-.692.004-.09.015-.183.02-.273.01-.164.023-.332.038-.504l.035-.328c.02-.164.036-.324.059-.488.012-.117.031-.239.05-.36.024-.164.048-.328.075-.492l.07-.379c.032-.164.063-.328.098-.496.027-.129.059-.258.09-.387.039-.168.082-.332.129-.5a19.127 19.127 0 0 1 .265-.89c.043-.13.09-.258.133-.387.063-.168.13-.332.195-.496.051-.125.102-.254.157-.379.074-.164.152-.328.234-.492l.18-.36c.09-.167.187-.331.285-.496l.195-.32c.117-.176.242-.348.371-.52.063-.081.121-.171.184-.253.2-.25.41-.492.637-.723.215-.219.441-.426.675-.617m12.79-3.645c-.004-.004-.004-.011-.004-.015a.763.763 0 0 0-.055-.184c0-.004-.004-.008-.004-.008-.004-.011-.016-.023-.02-.035a.778.778 0 0 0-.093-.129c-.016-.015-.032-.031-.047-.043a.758.758 0 0 0-.113-.082l-.055-.031a.833.833 0 0 0-.192-.059c-.363-.043-8.992-1.03-13.835 3.914-3.864 3.946-4.028 10.336-3.91 12.946h-.02v12.36h1.332V20.097c.398.027.922.054 1.555.054 3.004 0 8.234-.554 11.632-4.023 4.836-4.942 3.872-13.73 3.829-14.102" fill="rgb(83.137255%, 35.686275%, 2.745098%)" fill-rule="evenodd"/></svg>