<svg role="img" viewBox="0 0 32 32" height="32" width="32" xmlns="http://www.w3.org/2000/svg"><path d="M6 26h20V6H6ZM27.332 8.668v2.664h3.336v1.336h-3.336v2.664h3.336v1.336h-3.336v2.664h3.336v1.336h-3.336v2.664h3.336v1.336h-3.336v2a.664.664 0 0 1-.664.664h-2v3.336h-1.336v-3.336h-2.664v3.336h-1.336v-3.336h-2.664v3.336h-1.336v-3.336h-2.664v3.336h-1.336v-3.336H8.668v3.336H7.332v-3.336h-2a.664.664 0 0 1-.664-.664v-2H1.332v-1.336h3.336v-2.664H1.332v-1.336h3.336v-2.664H1.332v-1.336h3.336v-2.664H1.332v-1.336h3.336V8.668H1.332V7.332h3.336v-2c0-.367.297-.664.664-.664h2V1.332h1.336v3.336h2.664V1.332h1.336v3.336h2.664V1.332h1.336v3.336h2.664V1.332h1.336v3.336h2.664V1.332h1.336v3.336h2c.367 0 .664.297.664.664v2h3.336v1.336Zm-6.234 10.023h.875V13.61h-.793l-1.453.676v.703l1.37-.515Zm-4.926-2.84c.336-.214.668-.32.988-.32.215 0 .371.055.469.164.101.11.148.285.148.524v2.472h.868V15.95c0-.36-.094-.629-.282-.82-.183-.188-.457-.281-.812-.281-.5.004-.98.175-1.438.52l-.09-.411h-.718v3.734h.867Zm-2.684.133c.278-.183.598-.277.961-.277.14 0 .281.012.418.035v-.793c-.11-.011-.21-.02-.3-.02-.204 0-.387.044-.56.133-.171.086-.355.239-.55.454l-.117-.559h-.719v3.734h.867Zm-3.441-1.64h-1.59v-.735h4.078v.735h-1.594v4.347h-.894Zm0 0" fill="rgb(83.137255%, 35.686275%, 2.745098%)" fill-rule="evenodd"/></svg>