<?xml version="1.0" encoding="UTF-8"?>
<svg xmlns="http://www.w3.org/2000/svg" xmlns:xlink="http://www.w3.org/1999/xlink" width="32" height="32" viewBox="0 0 32 32">
<defs>
<linearGradient id="linear-pattern-0" gradientUnits="userSpaceOnUse" x1="0" y1="1" x2="1" y2="0" gradientTransform="matrix(32, 0, 0, 32, 0, 0)">
<stop offset="0" stop-color="rgb(10.588235%, 40%, 5.882353%)" stop-opacity="1"/>
<stop offset="1" stop-color="rgb(42.352941%, 68.235294%, 24.313725%)" stop-opacity="1"/>
</linearGradient>
</defs>
<rect x="-3.2" y="-3.2" width="38.4" height="38.4" fill="url(#linear-pattern-0)"/>
<path fill-rule="nonzero" fill="rgb(100%, 100%, 100%)" fill-opacity="1" d="M 24.335938 17.15625 L 24.488281 16.074219 C 25.902344 16.925781 25.921875 17.273438 25.921875 17.285156 C 25.917969 17.285156 25.679688 17.488281 24.335938 17.15625 M 23.558594 16.941406 C 21.109375 16.199219 17.699219 14.636719 16.320312 13.984375 C 16.320312 13.980469 16.320312 13.972656 16.320312 13.96875 C 16.320312 13.4375 15.890625 13.007812 15.359375 13.007812 C 14.832031 13.007812 14.398438 13.4375 14.398438 13.96875 C 14.398438 14.496094 14.832031 14.929688 15.359375 14.929688 C 15.59375 14.929688 15.804688 14.84375 15.972656 14.703125 C 17.59375 15.472656 20.976562 17.015625 23.441406 17.742188 L 22.46875 24.625 C 22.464844 24.644531 22.464844 24.660156 22.464844 24.679688 C 22.464844 25.285156 19.78125 26.398438 15.398438 26.398438 C 10.96875 26.398438 8.257812 25.285156 8.257812 24.679688 C 8.257812 24.664062 8.253906 24.644531 8.253906 24.625 L 6.214844 9.742188 C 7.980469 10.957031 11.773438 11.601562 15.398438 11.601562 C 19.023438 11.601562 22.808594 10.960938 24.578125 9.75 Z M 6 8.191406 C 6.027344 7.664062 9.054688 5.601562 15.398438 5.601562 C 21.746094 5.601562 24.769531 7.664062 24.800781 8.191406 L 24.800781 8.371094 C 24.453125 9.550781 20.53125 10.800781 15.398438 10.800781 C 10.257812 10.800781 6.335938 9.546875 6 8.363281 Z M 25.601562 8.199219 C 25.601562 6.8125 21.625 4.800781 15.398438 4.800781 C 9.171875 4.800781 5.199219 6.8125 5.199219 8.199219 L 5.238281 8.5 L 7.457031 24.710938 C 7.511719 26.523438 12.34375 27.199219 15.398438 27.199219 C 19.1875 27.199219 23.210938 26.328125 23.261719 24.710938 L 24.222656 17.953125 C 24.753906 18.082031 25.195312 18.144531 25.546875 18.144531 C 26.019531 18.144531 26.339844 18.03125 26.535156 17.800781 C 26.691406 17.609375 26.753906 17.378906 26.707031 17.136719 C 26.605469 16.582031 25.945312 15.984375 24.609375 15.222656 L 25.558594 8.515625 Z M 25.601562 8.199219 "/>
</svg>
