<svg role="img" viewBox="0 0 32 32" xmlns="http://www.w3.org/2000/svg"><path d="M6 26h20V6H6ZM27.332 8.668v2.664h3.336v1.336h-3.336v2.664h3.336v1.336h-3.336v2.664h3.336v1.336h-3.336v2.664h3.336v1.336h-3.336v2a.664.664 0 0 1-.664.664h-2v3.336h-1.336v-3.336h-2.664v3.336h-1.336v-3.336h-2.664v3.336h-1.336v-3.336h-2.664v3.336h-1.336v-3.336H8.668v3.336H7.332v-3.336h-2a.664.664 0 0 1-.664-.664v-2H1.332v-1.336h3.336v-2.664H1.332v-1.336h3.336v-2.664H1.332v-1.336h3.336v-2.664H1.332v-1.336h3.336V8.668H1.332V7.332h3.336v-2c0-.367.297-.664.664-.664h2V1.332h1.336v3.336h2.664V1.332h1.336v3.336h2.664V1.332h1.336v3.336h2.664V1.332h1.336v3.336h2.664V1.332h1.336v3.336h2c.367 0 .664.297.664.664v2h3.336v1.336Zm-6.8 7.309q0 1.565 1.109 1.566.549 0 1.047-.363v-2.39a1.8 1.8 0 0 0-1.04-.337q-.568 0-.843.375-.275.369-.274 1.149m-.602 1.765q-.521-.646-.52-1.73 0-.709.235-1.254.23-.545.671-.856a1.77 1.77 0 0 1 1.036-.308q.813 0 1.41.57l.093-.43h.934v4.426q-.001 1.125-.617 1.746c-.406.41-.992.614-1.746.614a3.6 3.6 0 0 1-1.633-.383v-.782q.867.289 1.559.29.697-.001 1.015-.325c.215-.215.32-.562.32-1.05v-.399a2.06 2.06 0 0 1-1.375.524q-.867-.002-1.382-.653m-2.032.309q.674-.573.672-1.543c0-.606-.187-1.078-.554-1.43-.371-.348-.883-.52-1.528-.52a4 4 0 0 0-.812.075l.11-1.727h2.468v-.886h-3.512l-.176 2.78v.708q.855-.094 1.418-.094.764.001 1.11.266.346.268.347.847 0 1.194-1.382 1.192-.744 0-1.762-.344v.879q.856.37 1.789.371c.762 0 1.363-.191 1.812-.574m-9.136-.301q-.814-.85-.813-2.457-.001-1.63.84-2.504.837-.874 2.41-.875 1.059.001 1.883.383v.906q-.977-.328-1.809-.328-1.101 0-1.636.563-.53.556-.532 1.746v.195q0 1.166.528 1.71c.351.364.906.548 1.656.548q.45 0 .879-.086v-1.707h-1.336v-.895h2.473v3.172a4 4 0 0 1-.996.352 5.6 5.6 0 0 1-1.18.125q-1.553 0-2.367-.848m0 0" fill="rgb(83.137256%, 35.686275%, 2.745098%)" fill-rule="evenodd"/></svg>