<svg role="img" viewBox="0 0 32 32" xmlns="http://www.w3.org/2000/svg"><path d="M2.45 16.64H1.331v-1.33h1.117a13.4 13.4 0 0 1 2.54-7.27l1.077.781a12.1 12.1 0 0 0-2.28 6.489h1.062v1.332H3.785a12.1 12.1 0 0 0 2.281 6.484l-1.078.781a13.4 13.4 0 0 1-2.539-7.265m21.456 10.32a13.4 13.4 0 0 1-7.265 2.536v1.078h-1.332v-1.078a13.4 13.4 0 0 1-7.27-2.535l.781-1.082a12.1 12.1 0 0 0 6.489 2.285V27.1h1.332v1.066a12.07 12.07 0 0 0 6.484-2.285ZM8.04 4.989a13.4 13.4 0 0 1 7.27-2.539V1.332h1.332v1.117c2.629.125 5.129.992 7.265 2.54l-.781 1.077a12.1 12.1 0 0 0-6.484-2.285v1.067H15.31V3.78a12.13 12.13 0 0 0-6.49 2.286Zm22.574 11.653h-1.117a13.4 13.4 0 0 1-2.535 7.265l-1.082-.781a12.07 12.07 0 0 0 2.285-6.484h-1.062V15.31h1.062a12.1 12.1 0 0 0-2.285-6.49l1.082-.78a13.4 13.4 0 0 1 2.535 7.269h1.117ZM23.7 7.305l4.102-4.102.941.945-4.097 4.098ZM8.246 24.645l-4.098 4.097-.945-.941 4.102-4.102Zm12.883-4.457 7.613 7.613-.941.941-7.613-7.613Zm-10.313-8.426L3.203 4.148l.945-.945 7.614 7.613Zm11.52 3.547V9.613H16.64v1.657h-1.332V9.219c0-.52.418-.938.937-.938h6.484c.516 0 .938.418.938.938v6.484a.94.94 0 0 1-.938.938h-2.074v-1.332ZM9.613 16.64v5.695h5.696v-1.68h1.332v2.074a.94.94 0 0 1-.938.938H9.22a.94.94 0 0 1-.938-.938v-6.484c0-.52.422-.937.938-.937h2.07v1.332Zm3.512 2.18h5.695v-5.696h-5.695Zm7.027.23v-6.156c0-.606-.492-1.102-1.101-1.102h-6.156c-.606 0-1.102.496-1.102 1.102v6.156c0 .61.496 1.101 1.102 1.101h6.156a1.1 1.1 0 0 0 1.101-1.101m0 0" fill="rgb(83.137256%, 35.686275%, 2.745098%)" fill-rule="evenodd"/></svg>