<svg role="img" viewBox="0 0 32 32" height="32" width="32" xmlns="http://www.w3.org/2000/svg"><path d="M6 26h20V6H6ZM27.332 8.668v2.664h3.336v1.336h-3.336v2.664h3.336v1.336h-3.336v2.664h3.336v1.336h-3.336v2.664h3.336v1.336h-3.336v2a.664.664 0 0 1-.664.664h-2v3.336h-1.336v-3.336h-2.664v3.336h-1.336v-3.336h-2.664v3.336h-1.336v-3.336h-2.664v3.336h-1.336v-3.336H8.668v3.336H7.332v-3.336h-2a.664.664 0 0 1-.664-.664v-2H1.332v-1.336h3.336v-2.664H1.332v-1.336h3.336v-2.664H1.332v-1.336h3.336v-2.664H1.332v-1.336h3.336V8.668H1.332V7.332h3.336v-2c0-.367.297-.664.664-.664h2V1.332h1.336v3.336h2.664V1.332h1.336v3.336h2.664V1.332h1.336v3.336h2.664V1.332h1.336v3.336h2.664V1.332h1.336v3.336h2c.367 0 .664.297.664.664v2h3.336v1.336Zm-4.945 6.7c.293-.184.578-.278.855-.278.188 0 .32.047.406.14.082.098.125.247.125.454v2.136h.747v-2.37c0-.305-.079-.544-.239-.704-.16-.164-.394-.246-.703-.246-.43 0-.844.152-1.242.45l-.074-.352h-.621v3.222h.746Zm-3.668.75c0 .706.254 1.062.754 1.062.25 0 .484-.082.71-.246v-1.622a1.193 1.193 0 0 0-.703-.23c-.257 0-.449.086-.574.254-.125.168-.187.43-.187.781m-.407 1.2c-.234-.297-.351-.688-.351-1.176 0-.32.05-.606.156-.852s.258-.437.457-.578c.2-.14.434-.211.703-.211.368 0 .688.129.957.387l.063-.29h.633v3c0 .512-.137.907-.418 1.184-.278.282-.672.418-1.184.418-.39 0-.762-.086-1.11-.258v-.535c.395.133.747.2 1.06.2.316 0 .546-.075.69-.22.145-.144.216-.382.216-.71v-.274a1.4 1.4 0 0 1-.93.356c-.395 0-.707-.149-.942-.442m-1.917-1.003v-1.934l-1.325 1.934Zm0 .593h-2.079v-.562l2.047-2.914h.785v2.883h.59v.593h-.59v.914h-.753ZM9.82 15.324c.133-.078.27-.133.41-.176.141-.039.274-.058.395-.058.172 0 .297.043.375.125.074.086.113.226.113.418v2.187h.746v-2.496c.11-.066.239-.125.387-.168a1.53 1.53 0 0 1 .418-.066c.176 0 .297.043.375.125.074.086.113.226.113.418v2.187h.746v-2.37c0-.305-.082-.544-.246-.704-.164-.164-.394-.246-.695-.246-.39 0-.793.148-1.215.438-.148-.29-.418-.438-.812-.438-.192 0-.38.035-.567.102-.21.078-.414.187-.597.316l-.07-.32h-.622v3.222h.746ZM7.492 17.82h.774v-4.39h-.774Zm0 0" fill="rgb(83.137255%, 35.686275%, 2.745098%)" fill-rule="evenodd"/></svg>