<svg role="img" viewBox="0 0 32 32" height="32" width="32" xmlns="http://www.w3.org/2000/svg"><path d="M6 26h20V6H6ZM30.668 8.668V7.332h-3.336v-2a.664.664 0 0 0-.664-.664h-2V1.332h-1.336v3.336h-2.664V1.332h-1.336v3.336h-2.664V1.332h-1.336v3.336h-2.664V1.332h-1.336v3.336H8.668V1.332H7.332v3.336h-2a.664.664 0 0 0-.664.664v2H1.332v1.336h3.336v2.664H1.332v1.336h3.336v2.664H1.332v1.336h3.336v2.664H1.332v1.336h3.336v2.664H1.332v1.336h3.336v2c0 .367.297.664.664.664h2v3.336h1.336v-3.336h2.664v3.336h1.336v-3.336h2.664v3.336h1.336v-3.336h2.664v3.336h1.336v-3.336h2.664v3.336h1.336v-3.336h2a.664.664 0 0 0 .664-.664v-2h3.336v-1.336h-3.336v-2.664h3.336v-1.336h-3.336v-2.664h3.336v-1.336h-3.336v-2.664h3.336v-1.336h-3.336V8.668ZM20.41 19.152h-1.1v-4.75h.914l.113.524c.582-.442 1.191-.664 1.828-.664.453 0 .797.12 1.035.36.238.241.36.585.356 1.038v3.492h-1.102v-3.144c0-.305-.062-.528-.187-.668s-.325-.211-.598-.211c-.41 0-.828.137-1.258.41Zm-5.336-3.625c.196-.265.504-.398.918-.398.387 0 .738.113 1.055.336v2.566c-.348.239-.703.356-1.07.356-.797 0-1.196-.547-1.196-1.64 0-.548.098-.954.293-1.22m.555 3.727c.555 0 1.043-.184 1.465-.559l.113.457h.941v-6.906h-1.101v2.5a2.15 2.15 0 0 0-1.36-.484c-.417 0-.78.11-1.085.324-.305.21-.536.512-.7.89-.16.38-.242.817-.242 1.317 0 .75.18 1.352.54 1.797.355.441.831.664 1.429.664m-6.02-5.692h1.16c.708 0 1.063.36 1.063 1.075s-.363 1.07-1.09 1.07H9.61Zm0 3.024h1.141l1.512 2.566h1.136l-1.668-2.761c.41-.164.723-.395.938-.7.215-.304.32-.671.32-1.093 0-.586-.191-1.051-.574-1.395-.383-.348-.89-.52-1.527-.52H8.473v6.47h1.136Zm0 0" fill="rgb(83.137255%, 35.686275%, 2.745098%)" fill-rule="evenodd"/></svg>