<?xml version="1.0" encoding="UTF-8"?>
<svg xmlns="http://www.w3.org/2000/svg" xmlns:xlink="http://www.w3.org/1999/xlink" width="32" height="32" viewBox="0 0 32 32">
<path fill-rule="evenodd" fill="rgb(83.137255%, 35.686275%, 2.745098%)" fill-opacity="1" d="M 6 26 L 26 26 L 26 6 L 6 6 Z M 30.667969 8.667969 L 30.667969 7.332031 L 27.332031 7.332031 L 27.332031 5.332031 C 27.332031 4.964844 27.035156 4.667969 26.667969 4.667969 L 24.667969 4.667969 L 24.667969 1.332031 L 23.332031 1.332031 L 23.332031 4.667969 L 20.667969 4.667969 L 20.667969 1.332031 L 19.332031 1.332031 L 19.332031 4.667969 L 16.667969 4.667969 L 16.667969 1.332031 L 15.332031 1.332031 L 15.332031 4.667969 L 12.667969 4.667969 L 12.667969 1.332031 L 11.332031 1.332031 L 11.332031 4.667969 L 8.667969 4.667969 L 8.667969 1.332031 L 7.332031 1.332031 L 7.332031 4.667969 L 5.332031 4.667969 C 4.964844 4.667969 4.667969 4.964844 4.667969 5.332031 L 4.667969 7.332031 L 1.332031 7.332031 L 1.332031 8.667969 L 4.667969 8.667969 L 4.667969 11.332031 L 1.332031 11.332031 L 1.332031 12.667969 L 4.667969 12.667969 L 4.667969 15.332031 L 1.332031 15.332031 L 1.332031 16.667969 L 4.667969 16.667969 L 4.667969 19.332031 L 1.332031 19.332031 L 1.332031 20.667969 L 4.667969 20.667969 L 4.667969 23.332031 L 1.332031 23.332031 L 1.332031 24.667969 L 4.667969 24.667969 L 4.667969 26.667969 C 4.667969 27.035156 4.964844 27.332031 5.332031 27.332031 L 7.332031 27.332031 L 7.332031 30.667969 L 8.667969 30.667969 L 8.667969 27.332031 L 11.332031 27.332031 L 11.332031 30.667969 L 12.667969 30.667969 L 12.667969 27.332031 L 15.332031 27.332031 L 15.332031 30.667969 L 16.667969 30.667969 L 16.667969 27.332031 L 19.332031 27.332031 L 19.332031 30.667969 L 20.667969 30.667969 L 20.667969 27.332031 L 23.332031 27.332031 L 23.332031 30.667969 L 24.667969 30.667969 L 24.667969 27.332031 L 26.667969 27.332031 C 27.035156 27.332031 27.332031 27.035156 27.332031 26.667969 L 27.332031 24.667969 L 30.667969 24.667969 L 30.667969 23.332031 L 27.332031 23.332031 L 27.332031 20.667969 L 30.667969 20.667969 L 30.667969 19.332031 L 27.332031 19.332031 L 27.332031 16.667969 L 30.667969 16.667969 L 30.667969 15.332031 L 27.332031 15.332031 L 27.332031 12.667969 L 30.667969 12.667969 L 30.667969 11.332031 L 27.332031 11.332031 L 27.332031 8.667969 Z M 20.917969 13.449219 C 20.792969 13.328125 20.726562 13.15625 20.738281 12.984375 C 20.738281 12.785156 20.800781 12.628906 20.917969 12.515625 C 21.050781 12.402344 21.226562 12.339844 21.402344 12.347656 C 21.609375 12.347656 21.769531 12.40625 21.886719 12.515625 C 22.007812 12.628906 22.066406 12.785156 22.066406 12.984375 C 22.066406 13.183594 22.007812 13.339844 21.886719 13.449219 C 21.769531 13.5625 21.609375 13.617188 21.402344 13.617188 C 21.199219 13.617188 21.035156 13.5625 20.917969 13.449219 M 20.851562 19.152344 L 21.953125 19.152344 L 21.953125 14.402344 L 20.851562 14.402344 Z M 17.660156 16.089844 C 18.03125 16.089844 18.3125 16.1875 18.507812 16.386719 C 18.703125 16.582031 18.796875 16.867188 18.796875 17.238281 C 18.796875 17.605469 18.703125 17.894531 18.515625 18.097656 C 18.328125 18.304688 18.066406 18.40625 17.730469 18.40625 C 16.910156 18.40625 16.480469 17.742188 16.4375 16.417969 C 16.851562 16.199219 17.257812 16.089844 17.660156 16.089844 M 17.652344 19.292969 C 18.113281 19.292969 18.515625 19.199219 18.859375 19.015625 C 19.203125 18.835938 19.46875 18.582031 19.652344 18.261719 C 19.835938 17.941406 19.929688 17.574219 19.929688 17.164062 C 19.929688 16.578125 19.753906 16.113281 19.402344 15.761719 C 19.050781 15.410156 18.585938 15.234375 18.007812 15.234375 C 17.453125 15.234375 16.929688 15.390625 16.4375 15.707031 C 16.46875 14.929688 16.621094 14.355469 16.898438 13.980469 C 17.175781 13.609375 17.59375 13.421875 18.152344 13.421875 C 18.363281 13.421875 18.589844 13.445312 18.839844 13.492188 C 19.089844 13.539062 19.308594 13.597656 19.5 13.675781 L 19.5 12.863281 C 19.28125 12.753906 19.046875 12.671875 18.804688 12.625 C 18.539062 12.566406 18.269531 12.539062 17.996094 12.535156 C 17.144531 12.535156 16.484375 12.851562 16.011719 13.488281 C 15.542969 14.121094 15.308594 15.011719 15.308594 16.15625 C 15.308594 17.1875 15.503906 17.96875 15.902344 18.5 C 16.296875 19.027344 16.878906 19.292969 17.652344 19.292969 M 11.144531 13.5625 L 12.304688 13.5625 C 13.011719 13.5625 13.367188 13.921875 13.367188 14.636719 C 13.367188 15.351562 13.003906 15.707031 12.277344 15.707031 L 11.144531 15.707031 Z M 11.144531 16.585938 L 12.285156 16.585938 L 13.796875 19.152344 L 14.933594 19.152344 L 13.265625 16.390625 C 13.675781 16.226562 13.988281 15.996094 14.203125 15.691406 C 14.417969 15.386719 14.523438 15.019531 14.523438 14.597656 C 14.523438 14.011719 14.332031 13.546875 13.949219 13.203125 C 13.566406 12.855469 13.058594 12.683594 12.425781 12.683594 L 10.007812 12.683594 L 10.007812 19.152344 L 11.144531 19.152344 Z M 11.144531 16.585938 "/>
</svg>
