<svg role="img" viewBox="0 0 32 32" xmlns="http://www.w3.org/2000/svg"><path d="M6 26h20V6H6ZM27.332 8.668v2.664h3.336v1.336h-3.336v2.664h3.336v1.336h-3.336v2.664h3.336v1.336h-3.336v2.664h3.336v1.336h-3.336v2a.664.664 0 0 1-.664.664h-2v3.336h-1.336v-3.336h-2.664v3.336h-1.336v-3.336h-2.664v3.336h-1.336v-3.336h-2.664v3.336h-1.336v-3.336H8.668v3.336H7.332v-3.336h-2a.664.664 0 0 1-.664-.664v-2H1.332v-1.336h3.336v-2.664H1.332v-1.336h3.336v-2.664H1.332v-1.336h3.336v-2.664H1.332v-1.336h3.336V8.668H1.332V7.332h3.336v-2c0-.367.297-.664.664-.664h2V1.332h1.336v3.336h2.664V1.332h1.336v3.336h2.664V1.332h1.336v3.336h2.664V1.332h1.336v3.336h2.664V1.332h1.336v3.336h2c.367 0 .664.297.664.664v2h3.336v1.336Zm-5.812 7.754q.002 1.406 1.023 1.406.472.002.922-.3v-2.204a1.54 1.54 0 0 0-.906-.285q-.534 0-.786.34t-.253 1.043m-.5 1.582q-.46-.576-.461-1.543 0-.638.21-1.125.205-.491.598-.766.392-.276.93-.277.64 0 1.168.418v-2.145h.941v5.918h-.804l-.098-.39q-.543.48-1.258.48c-.512 0-.918-.191-1.226-.57m-2.11-1.223a3.5 3.5 0 0 0-.73-.086q-.814-.001-.813.649c0 .183.055.332.156.433q.157.158.43.157.227 0 .477-.098c.164-.07.328-.164.48-.285Zm0-.558v-.473q0-.408-.176-.566c-.117-.11-.32-.16-.613-.16q-.626-.001-1.433.261v-.664q.299-.151.738-.238.434-.09.875-.09c.531 0 .926.11 1.176.32q.379.322.378 1v2.871h-.824l-.07-.39q-.282.24-.621.375a1.8 1.8 0 0 1-.676.136q-.562-.001-.906-.335-.352-.336-.352-.872.001-.592.43-.945.428-.351 1.148-.351.422 0 .926.12m-3.75 1.89q.574-.492.574-1.324.002-.776-.476-1.223-.476-.45-1.309-.449a3.6 3.6 0 0 0-.691.067l.09-1.48h2.117v-.763h-3.008l-.152 2.383v.61c.488-.055.89-.079 1.215-.079q.65 0 .949.227.3.23.3.723.001 1.024-1.187 1.023-.633 0-1.512-.293v.75q.737.321 1.54.32.974 0 1.55-.492m-7.148-.234q-.675-.704-.676-2.082 0-1.412.7-2.18.7-.762 2.01-.762c.481 0 .927.07 1.329.215v.801q-.798-.169-1.25-.168c-.605 0-1.059.156-1.352.473q-.444.469-.445 1.453v.191c0 .653.149 1.133.438 1.446q.444.468 1.343.468.51 0 1.348-.199v.8a4 4 0 0 1-1.441.247q-1.33 0-2.004-.703m0 0" fill="rgb(83.137256%, 35.686275%, 2.745098%)" fill-rule="evenodd"/></svg>