<svg role="img" viewBox="0 0 32 32" xmlns="http://www.w3.org/2000/svg"><path d="M20.93 19.215h-4.387v-.84a52 52 0 0 0 1.895-2.004q.605-.701.835-1.133.235-.429.235-.789.001-.433-.25-.668-.253-.239-.711-.238-.401 0-.871.18a4.5 4.5 0 0 0-.957.52v-.915q.89-.731 1.968-.73.585 0 1.024.21.434.21.68.602.246.394.246.934c0 .347-.094.703-.285 1.058q-.288.539-.926 1.223c-.422.457-1.012 1.027-1.754 1.703h3.258Zm-8.72-5.59h1.142q.528.001.793.29.27.29.27.85t-.27.848c-.176.196-.442.29-.793.29H12.21Zm0 3.156h1.278q.96-.002 1.524-.543.556-.54.558-1.472 0-.938-.562-1.477c-.38-.36-.89-.543-1.54-.543h-2.394v6.469h1.137ZM6 26h20V6H6ZM30.668 8.668V7.332h-3.336v-2a.664.664 0 0 0-.664-.664h-2V1.332h-1.336v3.336h-2.664V1.332h-1.336v3.336h-2.664V1.332h-1.336v3.336h-2.664V1.332h-1.336v3.336H8.668V1.332H7.332v3.336h-2a.664.664 0 0 0-.664.664v2H1.332v1.336h3.336v2.664H1.332v1.336h3.336v2.664H1.332v1.336h3.336v2.664H1.332v1.336h3.336v2.664H1.332v1.336h3.336v2c0 .367.297.664.664.664h2v3.336h1.336v-3.336h2.664v3.336h1.336v-3.336h2.664v3.336h1.336v-3.336h2.664v3.336h1.336v-3.336h2.664v3.336h1.336v-3.336h2a.664.664 0 0 0 .664-.664v-2h3.336v-1.336h-3.336v-2.664h3.336v-1.336h-3.336v-2.664h3.336v-1.336h-3.336v-2.664h3.336v-1.336h-3.336V8.668Zm0 0" fill="rgb(83.137256%, 35.686275%, 2.745098%)" fill-rule="evenodd"/></svg>