<?xml version="1.0" encoding="UTF-8"?>
<svg xmlns="http://www.w3.org/2000/svg" xmlns:xlink="http://www.w3.org/1999/xlink" width="32" height="32" viewBox="0 0 32 32">
<path fill-rule="evenodd" fill="rgb(83.137255%, 35.686275%, 2.745098%)" fill-opacity="1" d="M 6 26 L 26 26 L 26 6 L 6 6 Z M 27.332031 8.667969 L 27.332031 11.332031 L 30.667969 11.332031 L 30.667969 12.667969 L 27.332031 12.667969 L 27.332031 15.332031 L 30.667969 15.332031 L 30.667969 16.667969 L 27.332031 16.667969 L 27.332031 19.332031 L 30.667969 19.332031 L 30.667969 20.667969 L 27.332031 20.667969 L 27.332031 23.332031 L 30.667969 23.332031 L 30.667969 24.667969 L 27.332031 24.667969 L 27.332031 26.667969 C 27.332031 27.035156 27.035156 27.332031 26.667969 27.332031 L 24.667969 27.332031 L 24.667969 30.667969 L 23.332031 30.667969 L 23.332031 27.332031 L 20.667969 27.332031 L 20.667969 30.667969 L 19.332031 30.667969 L 19.332031 27.332031 L 16.667969 27.332031 L 16.667969 30.667969 L 15.332031 30.667969 L 15.332031 27.332031 L 12.667969 27.332031 L 12.667969 30.667969 L 11.332031 30.667969 L 11.332031 27.332031 L 8.667969 27.332031 L 8.667969 30.667969 L 7.332031 30.667969 L 7.332031 27.332031 L 5.332031 27.332031 C 4.964844 27.332031 4.667969 27.035156 4.667969 26.667969 L 4.667969 24.667969 L 1.332031 24.667969 L 1.332031 23.332031 L 4.667969 23.332031 L 4.667969 20.667969 L 1.332031 20.667969 L 1.332031 19.332031 L 4.667969 19.332031 L 4.667969 16.667969 L 1.332031 16.667969 L 1.332031 15.332031 L 4.667969 15.332031 L 4.667969 12.667969 L 1.332031 12.667969 L 1.332031 11.332031 L 4.667969 11.332031 L 4.667969 8.667969 L 1.332031 8.667969 L 1.332031 7.332031 L 4.667969 7.332031 L 4.667969 5.332031 C 4.667969 4.964844 4.964844 4.667969 5.332031 4.667969 L 7.332031 4.667969 L 7.332031 1.332031 L 8.667969 1.332031 L 8.667969 4.667969 L 11.332031 4.667969 L 11.332031 1.332031 L 12.667969 1.332031 L 12.667969 4.667969 L 15.332031 4.667969 L 15.332031 1.332031 L 16.667969 1.332031 L 16.667969 4.667969 L 19.332031 4.667969 L 19.332031 1.332031 L 20.667969 1.332031 L 20.667969 4.667969 L 23.332031 4.667969 L 23.332031 1.332031 L 24.667969 1.332031 L 24.667969 4.667969 L 26.667969 4.667969 C 27.035156 4.667969 27.332031 4.964844 27.332031 5.332031 L 27.332031 7.332031 L 30.667969 7.332031 L 30.667969 8.667969 Z M 20.53125 15.976562 C 20.53125 17.019531 20.902344 17.542969 21.640625 17.542969 C 22.007812 17.542969 22.355469 17.421875 22.6875 17.179688 L 22.6875 14.789062 C 22.382812 14.574219 22.019531 14.453125 21.648438 14.453125 C 21.269531 14.453125 20.988281 14.578125 20.804688 14.828125 C 20.621094 15.074219 20.53125 15.457031 20.53125 15.976562 M 19.929688 17.742188 C 19.582031 17.3125 19.410156 16.734375 19.410156 16.011719 C 19.410156 15.539062 19.488281 15.121094 19.644531 14.757812 C 19.796875 14.394531 20.019531 14.109375 20.316406 13.902344 C 20.621094 13.695312 20.984375 13.585938 21.351562 13.59375 C 21.894531 13.59375 22.363281 13.785156 22.761719 14.164062 L 22.855469 13.734375 L 23.789062 13.734375 L 23.789062 18.160156 C 23.789062 18.910156 23.582031 19.492188 23.171875 19.90625 C 22.765625 20.316406 22.179688 20.519531 21.425781 20.519531 C 20.859375 20.523438 20.300781 20.390625 19.792969 20.136719 L 19.792969 19.355469 C 20.371094 19.546875 20.890625 19.644531 21.351562 19.644531 C 21.816406 19.644531 22.152344 19.535156 22.367188 19.320312 C 22.582031 19.105469 22.6875 18.757812 22.6875 18.269531 L 22.6875 17.871094 C 22.308594 18.210938 21.820312 18.394531 21.3125 18.394531 C 20.734375 18.394531 20.273438 18.175781 19.929688 17.742188 M 17.898438 18.050781 C 18.347656 17.667969 18.570312 17.15625 18.570312 16.507812 C 18.570312 15.902344 18.382812 15.429688 18.015625 15.078125 C 17.644531 14.730469 17.132812 14.558594 16.488281 14.558594 C 16.214844 14.554688 15.945312 14.582031 15.675781 14.632812 L 15.785156 12.90625 L 18.253906 12.90625 L 18.253906 12.019531 L 14.742188 12.019531 L 14.566406 14.800781 L 14.566406 15.507812 C 15.136719 15.445312 15.609375 15.414062 15.984375 15.414062 C 16.492188 15.414062 16.863281 15.503906 17.09375 15.679688 C 17.324219 15.859375 17.4375 16.140625 17.441406 16.527344 C 17.441406 17.324219 16.980469 17.71875 16.058594 17.71875 C 15.5625 17.71875 14.976562 17.605469 14.296875 17.375 L 14.296875 18.253906 C 14.867188 18.5 15.464844 18.625 16.085938 18.625 C 16.847656 18.625 17.449219 18.433594 17.898438 18.050781 M 8.761719 17.75 C 8.21875 17.183594 7.949219 16.363281 7.949219 15.292969 C 7.949219 14.207031 8.226562 13.371094 8.789062 12.789062 C 9.347656 12.207031 10.148438 11.914062 11.199219 11.914062 C 11.902344 11.914062 12.53125 12.042969 13.082031 12.296875 L 13.082031 13.203125 C 12.429688 12.984375 11.828125 12.875 11.273438 12.875 C 10.539062 12.875 9.992188 13.0625 9.636719 13.4375 C 9.28125 13.808594 9.105469 14.390625 9.105469 15.183594 L 9.105469 15.378906 C 9.105469 16.15625 9.28125 16.726562 9.632812 17.089844 C 9.984375 17.453125 10.539062 17.636719 11.289062 17.636719 C 11.589844 17.636719 11.882812 17.609375 12.167969 17.550781 L 12.167969 15.84375 L 10.832031 15.84375 L 10.832031 14.949219 L 13.304688 14.949219 L 13.304688 18.121094 C 12.988281 18.28125 12.652344 18.398438 12.308594 18.472656 C 11.921875 18.554688 11.527344 18.597656 11.128906 18.597656 C 10.09375 18.597656 9.304688 18.316406 8.761719 17.75 M 8.761719 17.75 "/>
</svg>
