<?xml version="1.0" encoding="UTF-8"?>
<svg xmlns="http://www.w3.org/2000/svg" xmlns:xlink="http://www.w3.org/1999/xlink" width="32" height="32" viewBox="0 0 32 32">
<path fill-rule="evenodd" fill="rgb(83.137255%, 35.686275%, 2.745098%)" fill-opacity="1" d="M 6 26 L 26 26 L 26 6 L 6 6 Z M 27.332031 8.667969 L 27.332031 11.332031 L 30.667969 11.332031 L 30.667969 12.667969 L 27.332031 12.667969 L 27.332031 15.332031 L 30.667969 15.332031 L 30.667969 16.667969 L 27.332031 16.667969 L 27.332031 19.332031 L 30.667969 19.332031 L 30.667969 20.667969 L 27.332031 20.667969 L 27.332031 23.332031 L 30.667969 23.332031 L 30.667969 24.667969 L 27.332031 24.667969 L 27.332031 26.667969 C 27.332031 27.035156 27.035156 27.332031 26.667969 27.332031 L 24.667969 27.332031 L 24.667969 30.667969 L 23.332031 30.667969 L 23.332031 27.332031 L 20.667969 27.332031 L 20.667969 30.667969 L 19.332031 30.667969 L 19.332031 27.332031 L 16.667969 27.332031 L 16.667969 30.667969 L 15.332031 30.667969 L 15.332031 27.332031 L 12.667969 27.332031 L 12.667969 30.667969 L 11.332031 30.667969 L 11.332031 27.332031 L 8.667969 27.332031 L 8.667969 30.667969 L 7.332031 30.667969 L 7.332031 27.332031 L 5.332031 27.332031 C 4.964844 27.332031 4.667969 27.035156 4.667969 26.667969 L 4.667969 24.667969 L 1.332031 24.667969 L 1.332031 23.332031 L 4.667969 23.332031 L 4.667969 20.667969 L 1.332031 20.667969 L 1.332031 19.332031 L 4.667969 19.332031 L 4.667969 16.667969 L 1.332031 16.667969 L 1.332031 15.332031 L 4.667969 15.332031 L 4.667969 12.667969 L 1.332031 12.667969 L 1.332031 11.332031 L 4.667969 11.332031 L 4.667969 8.667969 L 1.332031 8.667969 L 1.332031 7.332031 L 4.667969 7.332031 L 4.667969 5.332031 C 4.667969 4.964844 4.964844 4.667969 5.332031 4.667969 L 7.332031 4.667969 L 7.332031 1.332031 L 8.667969 1.332031 L 8.667969 4.667969 L 11.332031 4.667969 L 11.332031 1.332031 L 12.667969 1.332031 L 12.667969 4.667969 L 15.332031 4.667969 L 15.332031 1.332031 L 16.667969 1.332031 L 16.667969 4.667969 L 19.332031 4.667969 L 19.332031 1.332031 L 20.667969 1.332031 L 20.667969 4.667969 L 23.332031 4.667969 L 23.332031 1.332031 L 24.667969 1.332031 L 24.667969 4.667969 L 26.667969 4.667969 C 27.035156 4.667969 27.332031 4.964844 27.332031 5.332031 L 27.332031 7.332031 L 30.667969 7.332031 L 30.667969 8.667969 Z M 22.105469 17.164062 C 21.824219 17.101562 21.539062 17.066406 21.253906 17.0625 C 20.621094 17.0625 20.304688 17.3125 20.304688 17.816406 C 20.304688 18.035156 20.367188 18.207031 20.488281 18.328125 C 20.609375 18.449219 20.777344 18.507812 20.988281 18.507812 C 21.164062 18.507812 21.347656 18.46875 21.542969 18.390625 C 21.738281 18.3125 21.925781 18.203125 22.105469 18.0625 Z M 22.105469 16.511719 L 22.105469 15.960938 C 22.105469 15.644531 22.039062 15.421875 21.902344 15.296875 C 21.765625 15.171875 21.527344 15.113281 21.183594 15.113281 C 20.699219 15.113281 20.140625 15.214844 19.511719 15.417969 L 19.511719 14.644531 C 19.746094 14.527344 20.035156 14.433594 20.371094 14.363281 C 20.707031 14.296875 21.050781 14.261719 21.394531 14.261719 C 22.015625 14.261719 22.472656 14.386719 22.765625 14.636719 C 23.0625 14.882812 23.207031 15.273438 23.207031 15.800781 L 23.207031 19.152344 L 22.246094 19.152344 L 22.164062 18.695312 C 21.949219 18.878906 21.703125 19.027344 21.441406 19.132812 C 21.191406 19.234375 20.921875 19.289062 20.652344 19.292969 C 20.214844 19.292969 19.863281 19.160156 19.59375 18.902344 C 19.320312 18.640625 19.1875 18.300781 19.1875 17.882812 C 19.1875 17.421875 19.351562 17.054688 19.683594 16.78125 C 20.019531 16.507812 20.464844 16.371094 21.023438 16.371094 C 21.355469 16.371094 21.714844 16.417969 22.105469 16.511719 M 15.105469 16.417969 C 15.148438 17.742188 15.582031 18.40625 16.402344 18.40625 C 16.734375 18.40625 16.996094 18.304688 17.1875 18.097656 C 17.375 17.894531 17.46875 17.605469 17.46875 17.238281 C 17.46875 16.867188 17.371094 16.582031 17.175781 16.386719 C 16.984375 16.1875 16.699219 16.085938 16.328125 16.089844 C 15.929688 16.089844 15.519531 16.199219 15.105469 16.417969 M 14.570312 18.5 C 14.175781 17.96875 13.976562 17.1875 13.976562 16.15625 C 13.976562 15.011719 14.210938 14.121094 14.683594 13.488281 C 15.152344 12.851562 15.8125 12.535156 16.664062 12.535156 C 16.933594 12.535156 17.203125 12.566406 17.472656 12.625 C 17.746094 12.683594 17.976562 12.761719 18.167969 12.863281 L 18.167969 13.675781 C 17.953125 13.59375 17.734375 13.53125 17.507812 13.492188 C 17.28125 13.445312 17.050781 13.421875 16.820312 13.421875 C 16.261719 13.421875 15.84375 13.609375 15.570312 13.980469 C 15.292969 14.355469 15.136719 14.929688 15.105469 15.707031 C 15.570312 15.398438 16.117188 15.234375 16.675781 15.234375 C 17.257812 15.234375 17.71875 15.410156 18.070312 15.761719 C 18.421875 16.113281 18.597656 16.578125 18.597656 17.164062 C 18.597656 17.574219 18.507812 17.941406 18.324219 18.261719 C 18.136719 18.582031 17.875 18.835938 17.53125 19.015625 C 17.183594 19.199219 16.78125 19.292969 16.320312 19.292969 C 15.550781 19.292969 14.964844 19.027344 14.570312 18.5 M 9.390625 18.441406 C 8.863281 17.894531 8.601562 17.085938 8.601562 16.015625 C 8.601562 14.914062 8.875 14.066406 9.417969 13.472656 C 9.964844 12.878906 10.75 12.582031 11.765625 12.582031 C 12.292969 12.574219 12.820312 12.660156 13.316406 12.835938 L 13.316406 13.765625 C 12.695312 13.636719 12.210938 13.570312 11.855469 13.570312 C 11.148438 13.570312 10.621094 13.753906 10.277344 14.121094 C 9.933594 14.488281 9.757812 15.054688 9.757812 15.820312 L 9.757812 16.042969 C 9.757812 16.804688 9.929688 17.367188 10.273438 17.730469 C 10.613281 18.09375 11.136719 18.273438 11.839844 18.273438 C 12.234375 18.273438 12.757812 18.199219 13.410156 18.042969 L 13.410156 18.976562 C 12.917969 19.167969 12.355469 19.265625 11.730469 19.265625 C 10.695312 19.265625 9.917969 18.992188 9.390625 18.441406 M 9.390625 18.441406 "/>
</svg>
