<?xml version="1.0" encoding="UTF-8"?>
<svg xmlns="http://www.w3.org/2000/svg" xmlns:xlink="http://www.w3.org/1999/xlink" width="32" height="32" viewBox="0 0 32 32">
<path fill-rule="evenodd" fill="rgb(83.137255%, 35.686275%, 2.745098%)" fill-opacity="1" d="M 20.957031 19.195312 L 16.570312 19.195312 L 16.570312 18.355469 C 17.429688 17.484375 18.058594 16.816406 18.464844 16.347656 C 18.867188 15.882812 19.148438 15.507812 19.304688 15.21875 C 19.460938 14.933594 19.539062 14.667969 19.539062 14.425781 C 19.539062 14.140625 19.453125 13.917969 19.285156 13.757812 C 19.117188 13.601562 18.882812 13.519531 18.578125 13.519531 C 18.308594 13.519531 18.019531 13.582031 17.703125 13.703125 C 17.363281 13.835938 17.042969 14.011719 16.746094 14.222656 L 16.746094 13.304688 C 17.339844 12.820312 18 12.578125 18.714844 12.578125 C 19.105469 12.578125 19.445312 12.648438 19.738281 12.789062 C 20.03125 12.929688 20.257812 13.128906 20.421875 13.390625 C 20.585938 13.652344 20.667969 13.960938 20.667969 14.324219 C 20.667969 14.671875 20.570312 15.023438 20.378906 15.382812 C 20.1875 15.742188 19.878906 16.148438 19.457031 16.605469 C 18.894531 17.195312 18.308594 17.761719 17.699219 18.308594 L 20.957031 18.308594 Z M 12.695312 13.660156 L 10.671875 13.660156 L 10.671875 12.726562 L 15.859375 12.726562 L 15.859375 13.660156 L 13.835938 13.660156 L 13.835938 19.195312 L 12.695312 19.195312 Z M 6 26 L 26 26 L 26 6 L 6 6 Z M 30.667969 8.667969 L 30.667969 7.332031 L 27.332031 7.332031 L 27.332031 5.332031 C 27.332031 4.964844 27.035156 4.667969 26.667969 4.667969 L 24.667969 4.667969 L 24.667969 1.332031 L 23.332031 1.332031 L 23.332031 4.667969 L 20.667969 4.667969 L 20.667969 1.332031 L 19.332031 1.332031 L 19.332031 4.667969 L 16.667969 4.667969 L 16.667969 1.332031 L 15.332031 1.332031 L 15.332031 4.667969 L 12.667969 4.667969 L 12.667969 1.332031 L 11.332031 1.332031 L 11.332031 4.667969 L 8.667969 4.667969 L 8.667969 1.332031 L 7.332031 1.332031 L 7.332031 4.667969 L 5.332031 4.667969 C 4.964844 4.667969 4.667969 4.964844 4.667969 5.332031 L 4.667969 7.332031 L 1.332031 7.332031 L 1.332031 8.667969 L 4.667969 8.667969 L 4.667969 11.332031 L 1.332031 11.332031 L 1.332031 12.667969 L 4.667969 12.667969 L 4.667969 15.332031 L 1.332031 15.332031 L 1.332031 16.667969 L 4.667969 16.667969 L 4.667969 19.332031 L 1.332031 19.332031 L 1.332031 20.667969 L 4.667969 20.667969 L 4.667969 23.332031 L 1.332031 23.332031 L 1.332031 24.667969 L 4.667969 24.667969 L 4.667969 26.667969 C 4.667969 27.035156 4.964844 27.332031 5.332031 27.332031 L 7.332031 27.332031 L 7.332031 30.667969 L 8.667969 30.667969 L 8.667969 27.332031 L 11.332031 27.332031 L 11.332031 30.667969 L 12.667969 30.667969 L 12.667969 27.332031 L 15.332031 27.332031 L 15.332031 30.667969 L 16.667969 30.667969 L 16.667969 27.332031 L 19.332031 27.332031 L 19.332031 30.667969 L 20.667969 30.667969 L 20.667969 27.332031 L 23.332031 27.332031 L 23.332031 30.667969 L 24.667969 30.667969 L 24.667969 27.332031 L 26.667969 27.332031 C 27.035156 27.332031 27.332031 27.035156 27.332031 26.667969 L 27.332031 24.667969 L 30.667969 24.667969 L 30.667969 23.332031 L 27.332031 23.332031 L 27.332031 20.667969 L 30.667969 20.667969 L 30.667969 19.332031 L 27.332031 19.332031 L 27.332031 16.667969 L 30.667969 16.667969 L 30.667969 15.332031 L 27.332031 15.332031 L 27.332031 12.667969 L 30.667969 12.667969 L 30.667969 11.332031 L 27.332031 11.332031 L 27.332031 8.667969 Z M 30.667969 8.667969 "/>
</svg>
