<?xml version="1.0" encoding="UTF-8"?>
<svg xmlns="http://www.w3.org/2000/svg" xmlns:xlink="http://www.w3.org/1999/xlink" width="32" height="32" viewBox="0 0 32 32">
<path fill-rule="nonzero" fill="rgb(90.588236%, 8.235294%, 48.235294%)" fill-opacity="1" d="M 2.839844 29.65625 L 9.203125 29.65625 C 9.394531 29.65625 9.578125 29.582031 9.714844 29.445312 C 9.851562 29.308594 9.929688 29.125 9.929688 28.933594 L 9.929688 14.933594 C 9.929688 14.742188 9.855469 14.554688 9.71875 14.417969 C 9.582031 14.28125 9.394531 14.207031 9.203125 14.207031 L 2.839844 14.207031 C 2.648438 14.207031 2.460938 14.28125 2.324219 14.417969 C 2.1875 14.554688 2.113281 14.742188 2.113281 14.933594 L 2.113281 28.933594 C 2.113281 29.332031 2.4375 29.65625 2.839844 29.65625 M 3.566406 28.210938 L 3.566406 15.65625 L 8.480469 15.65625 L 8.480469 28.210938 Z M 13.023438 29.65625 L 19.390625 29.65625 C 19.789062 29.652344 20.109375 29.332031 20.109375 28.933594 L 20.109375 18.113281 C 20.109375 17.714844 19.789062 17.394531 19.390625 17.390625 L 13.023438 17.390625 C 12.625 17.390625 12.300781 17.714844 12.300781 18.113281 L 12.300781 28.933594 C 12.300781 29.332031 12.625 29.65625 13.023438 29.65625 M 13.746094 28.210938 L 13.746094 18.839844 L 18.664062 18.839844 L 18.664062 28.210938 Z M 0.292969 32.207031 L 32.117188 32.207031 L 32.117188 30.757812 L 0.292969 30.757812 Z M 26.386719 10.5625 C 29.246094 10.558594 31.566406 8.242188 31.570312 5.382812 C 31.570312 2.527344 29.242188 0.207031 26.386719 0.207031 C 23.527344 0.210938 21.214844 2.527344 21.210938 5.382812 C 21.210938 8.242188 23.527344 10.5625 26.386719 10.5625 M 26.386719 1.652344 C 28.445312 1.65625 30.117188 3.324219 30.121094 5.382812 C 30.117188 7.445312 28.449219 9.113281 26.386719 9.117188 C 24.328125 9.113281 22.660156 7.441406 22.660156 5.382812 C 22.664062 3.324219 24.328125 1.65625 26.386719 1.652344 M 29.257812 11.402344 C 27.441406 12.261719 25.332031 12.261719 23.515625 11.402344 C 23.292969 11.296875 23.027344 11.308594 22.816406 11.441406 C 22.605469 11.574219 22.480469 11.804688 22.480469 12.054688 L 22.480469 28.933594 C 22.480469 29.332031 22.804688 29.65625 23.203125 29.65625 L 29.570312 29.65625 C 29.96875 29.65625 30.292969 29.332031 30.292969 28.933594 L 30.292969 12.054688 C 30.292969 11.804688 30.167969 11.574219 29.957031 11.441406 C 29.746094 11.308594 29.480469 11.292969 29.257812 11.402344 M 28.84375 28.210938 L 23.929688 28.210938 L 23.929688 13.121094 C 25.527344 13.625 27.246094 13.625 28.84375 13.121094 Z M 28.84375 28.210938 "/>
</svg>
