<?xml version="1.0" encoding="UTF-8"?>
<svg xmlns="http://www.w3.org/2000/svg" xmlns:xlink="http://www.w3.org/1999/xlink" width="32" height="32" viewBox="0 0 32 32">
<path fill-rule="evenodd" fill="rgb(83.137255%, 35.686275%, 2.745098%)" fill-opacity="1" d="M 6 26 L 26 26 L 26 6 L 6 6 Z M 27.332031 8.667969 L 27.332031 11.332031 L 30.667969 11.332031 L 30.667969 12.667969 L 27.332031 12.667969 L 27.332031 15.332031 L 30.667969 15.332031 L 30.667969 16.667969 L 27.332031 16.667969 L 27.332031 19.332031 L 30.667969 19.332031 L 30.667969 20.667969 L 27.332031 20.667969 L 27.332031 23.332031 L 30.667969 23.332031 L 30.667969 24.667969 L 27.332031 24.667969 L 27.332031 26.667969 C 27.332031 27.035156 27.035156 27.332031 26.667969 27.332031 L 24.667969 27.332031 L 24.667969 30.667969 L 23.332031 30.667969 L 23.332031 27.332031 L 20.667969 27.332031 L 20.667969 30.667969 L 19.332031 30.667969 L 19.332031 27.332031 L 16.667969 27.332031 L 16.667969 30.667969 L 15.332031 30.667969 L 15.332031 27.332031 L 12.667969 27.332031 L 12.667969 30.667969 L 11.332031 30.667969 L 11.332031 27.332031 L 8.667969 27.332031 L 8.667969 30.667969 L 7.332031 30.667969 L 7.332031 27.332031 L 5.332031 27.332031 C 4.964844 27.332031 4.667969 27.035156 4.667969 26.667969 L 4.667969 24.667969 L 1.332031 24.667969 L 1.332031 23.332031 L 4.667969 23.332031 L 4.667969 20.667969 L 1.332031 20.667969 L 1.332031 19.332031 L 4.667969 19.332031 L 4.667969 16.667969 L 1.332031 16.667969 L 1.332031 15.332031 L 4.667969 15.332031 L 4.667969 12.667969 L 1.332031 12.667969 L 1.332031 11.332031 L 4.667969 11.332031 L 4.667969 8.667969 L 1.332031 8.667969 L 1.332031 7.332031 L 4.667969 7.332031 L 4.667969 5.332031 C 4.667969 4.964844 4.964844 4.667969 5.332031 4.667969 L 7.332031 4.667969 L 7.332031 1.332031 L 8.667969 1.332031 L 8.667969 4.667969 L 11.332031 4.667969 L 11.332031 1.332031 L 12.667969 1.332031 L 12.667969 4.667969 L 15.332031 4.667969 L 15.332031 1.332031 L 16.667969 1.332031 L 16.667969 4.667969 L 19.332031 4.667969 L 19.332031 1.332031 L 20.667969 1.332031 L 20.667969 4.667969 L 23.332031 4.667969 L 23.332031 1.332031 L 24.667969 1.332031 L 24.667969 4.667969 L 26.667969 4.667969 C 27.035156 4.667969 27.332031 4.964844 27.332031 5.332031 L 27.332031 7.332031 L 30.667969 7.332031 L 30.667969 8.667969 Z M 22.359375 15.496094 C 22.636719 15.320312 22.90625 15.234375 23.171875 15.234375 C 23.347656 15.234375 23.472656 15.277344 23.554688 15.367188 C 23.632812 15.457031 23.671875 15.601562 23.675781 15.796875 L 23.675781 17.820312 L 24.382812 17.820312 L 24.382812 15.574219 C 24.382812 15.28125 24.304688 15.058594 24.152344 14.90625 C 24.003906 14.75 23.78125 14.675781 23.488281 14.675781 C 23.082031 14.675781 22.691406 14.816406 22.3125 15.101562 L 22.238281 14.765625 L 21.652344 14.765625 L 21.652344 17.820312 L 22.359375 17.820312 Z M 18.921875 16.269531 C 18.921875 16.976562 19.179688 17.328125 19.691406 17.328125 C 19.925781 17.328125 20.15625 17.25 20.378906 17.097656 L 20.378906 15.449219 C 20.183594 15.304688 19.945312 15.230469 19.703125 15.234375 C 19.433594 15.234375 19.238281 15.316406 19.113281 15.488281 C 18.984375 15.65625 18.921875 15.917969 18.921875 16.269531 M 18.546875 17.457031 C 18.316406 17.167969 18.203125 16.785156 18.203125 16.300781 C 18.203125 15.980469 18.253906 15.699219 18.359375 15.453125 C 18.453125 15.222656 18.609375 15.027344 18.808594 14.882812 C 19.003906 14.742188 19.234375 14.675781 19.503906 14.675781 C 19.824219 14.675781 20.117188 14.777344 20.378906 14.988281 L 20.378906 13.378906 L 21.089844 13.378906 L 21.089844 17.820312 L 20.480469 17.820312 L 20.410156 17.523438 C 20.136719 17.765625 19.824219 17.882812 19.46875 17.882812 C 19.085938 17.882812 18.777344 17.742188 18.546875 17.457031 M 16.023438 15.988281 L 17.339844 15.988281 L 17.339844 15.941406 C 17.339844 15.695312 17.289062 15.511719 17.1875 15.382812 C 17.085938 15.253906 16.941406 15.191406 16.746094 15.191406 C 16.554688 15.183594 16.371094 15.261719 16.246094 15.40625 C 16.117188 15.550781 16.042969 15.746094 16.023438 15.988281 M 15.695312 17.5 C 15.433594 17.230469 15.304688 16.832031 15.304688 16.3125 C 15.304688 15.796875 15.429688 15.394531 15.683594 15.105469 C 15.9375 14.820312 16.292969 14.675781 16.75 14.675781 C 17.140625 14.675781 17.441406 14.78125 17.652344 14.996094 C 17.863281 15.210938 17.96875 15.511719 17.96875 15.90625 C 17.96875 16.113281 17.949219 16.296875 17.914062 16.460938 L 16.023438 16.460938 C 16.035156 16.765625 16.117188 16.988281 16.269531 17.132812 C 16.421875 17.273438 16.65625 17.34375 16.976562 17.34375 C 17.261719 17.34375 17.570312 17.289062 17.902344 17.175781 L 17.902344 17.675781 C 17.765625 17.746094 17.605469 17.804688 17.417969 17.847656 C 17.234375 17.886719 17.039062 17.910156 16.839844 17.910156 C 16.335938 17.910156 15.953125 17.773438 15.695312 17.5 M 14.519531 14.261719 C 14.632812 14.269531 14.746094 14.230469 14.832031 14.152344 C 14.910156 14.070312 14.949219 13.964844 14.945312 13.851562 C 14.949219 13.742188 14.90625 13.632812 14.832031 13.550781 C 14.746094 13.476562 14.632812 13.441406 14.519531 13.445312 C 14.40625 13.4375 14.292969 13.476562 14.207031 13.550781 C 14.128906 13.632812 14.089844 13.738281 14.09375 13.851562 C 14.09375 13.980469 14.128906 14.082031 14.207031 14.152344 C 14.28125 14.226562 14.386719 14.261719 14.519531 14.261719 M 14.164062 17.820312 L 14.871094 17.820312 L 14.871094 14.765625 L 14.164062 14.765625 Z M 13.683594 17.25 L 11.589844 17.25 C 12.070312 16.8125 12.445312 16.449219 12.71875 16.152344 C 12.992188 15.859375 13.191406 15.597656 13.3125 15.367188 C 13.4375 15.136719 13.5 14.910156 13.5 14.6875 C 13.5 14.453125 13.445312 14.253906 13.339844 14.085938 C 13.234375 13.917969 13.082031 13.78125 12.902344 13.699219 C 12.695312 13.605469 12.472656 13.558594 12.246094 13.566406 C 11.78125 13.566406 11.359375 13.71875 10.980469 14.03125 L 10.980469 14.621094 C 11.1875 14.476562 11.390625 14.367188 11.59375 14.289062 C 11.796875 14.210938 11.984375 14.171875 12.15625 14.171875 C 12.351562 14.171875 12.503906 14.222656 12.609375 14.324219 C 12.71875 14.425781 12.773438 14.570312 12.773438 14.753906 C 12.773438 14.910156 12.722656 15.078125 12.621094 15.261719 C 12.523438 15.445312 12.34375 15.6875 12.082031 15.988281 C 11.824219 16.289062 11.417969 16.71875 10.863281 17.277344 L 10.863281 17.820312 L 13.683594 17.820312 Z M 7.144531 17.820312 L 8.535156 15.664062 L 7.242188 13.660156 L 7.972656 13.660156 L 8.960938 15.136719 L 9.929688 13.660156 L 10.660156 13.660156 L 9.359375 15.652344 L 10.757812 17.820312 L 10.023438 17.820312 L 8.933594 16.175781 L 7.875 17.820312 Z M 7.144531 17.820312 "/>
</svg>
