<svg role="img" viewBox="0 0 32 32" xmlns="http://www.w3.org/2000/svg"><path d="M25.031 24.727a.375.375 0 0 1-.527 0l-2.547-2.547q.282-.25.523-.547l2.551 2.566a.375.375 0 0 1 0 .528m-9.418-5.977a3.28 3.28 0 0 1 3.274-3.277 3.28 3.28 0 0 1 3.277 3.277 3.28 3.28 0 0 1-3.277 3.273 3.283 3.283 0 0 1-3.274-3.273m7.559 1.691a4.6 4.6 0 0 0 .328-1.691 4.62 4.62 0 0 0-4.613-4.613c-2.54 0-4.61 2.07-4.61 4.613 0 2.54 2.07 4.61 4.61 4.61.668 0 1.328-.15 1.933-.43l2.739 2.738a1.706 1.706 0 0 0 2.418-2.41Zm-3.004-3.812-.793 1.074a1.13 1.13 0 0 0-1.258-.062 1.133 1.133 0 0 0-.09 1.879l-.793 1.07a2.43 2.43 0 0 1-.968-1.617 2.4 2.4 0 0 1 .457-1.828 2.464 2.464 0 0 1 3.445-.516m6.34.332c0 2.078-1.13 3.144-2.078 3.676l-.649-1.164c.922-.516 1.39-1.36 1.39-2.512 0-2.223-1.855-2.777-2.651-2.914a.664.664 0 0 1-.551-.73c-.117-1.31-.86-1.899-1.555-1.899-.434 0-.844.219-1.125.594a.66.66 0 0 1-.633.261.67.67 0 0 1-.531-.433c-.285-.805-.7-1.485-1.23-2.012-.641-.644-2.407-2.027-4.903-.973-1.433.606-2.558 2.352-2.558 3.973q0 .277.03.543a.66.66 0 0 1-.163.524.66.66 0 0 1-.367.21c-.829.22-2.18.872-2.18 2.829 0 1.496.816 2.32 1.5 2.746.207.133.457.203.719.207l4.523.004v1.336l-4.531-.008a2.65 2.65 0 0 1-1.422-.41c-.79-.497-2.121-1.66-2.121-3.875 0-1.883.992-3.329 2.68-3.961v-.145c0-2.152 1.449-4.39 3.375-5.2 2.25-.948 4.625-.48 6.363 1.259.457.457.844.996 1.156 1.605.422-.262.91-.406 1.418-.406 1.191 0 2.531.867 2.836 2.758 1.656.445 3.258 1.719 3.258 4.117m2.71 9.293a2.97 2.97 0 0 1-2.964 2.965H5.633a2.97 2.97 0 0 1-2.965-2.965V5.633a2.966 2.966 0 0 1 2.965-2.965h20.62a2.97 2.97 0 0 1 2.966 2.965ZM26.255 1.332H5.633a4.306 4.306 0 0 0-4.301 4.3v20.622a4.3 4.3 0 0 0 4.3 4.297h20.622a4.3 4.3 0 0 0 4.297-4.297V5.633a4.3 4.3 0 0 0-4.297-4.301m0 0" fill="rgb(83.137256%, 35.686275%, 2.745098%)" fill-rule="evenodd"/></svg>