<svg role="img" viewBox="0 0 32 32" height="32" width="32" xmlns="http://www.w3.org/2000/svg"><path d="M18.809 19.473a4.476 4.476 0 0 1-1.79-.371v-.88c.68.231 1.266.344 1.762.344.922 0 1.383-.394 1.383-1.191 0-.387-.117-.668-.348-.848-.23-.175-.601-.265-1.109-.265-.375 0-.848.031-1.418.093v-.707l.176-2.78h3.512v.886h-2.47l-.109 1.726c.258-.05.528-.078.813-.078.644 0 1.156.176 1.527.524.371.347.555.824.555 1.43 0 .648-.223 1.16-.672 1.542-.45.383-1.05.575-1.812.575m-7.508-.875c-.543-.567-.817-1.387-.817-2.457 0-1.09.282-1.922.84-2.504.559-.582 1.36-.875 2.41-.875.707 0 1.336.129 1.883.383v.906c-.652-.219-1.254-.328-1.805-.328-.738 0-1.28.187-1.636.562-.356.371-.535.953-.535 1.746v.196c0 .777.18 1.347.527 1.71.352.364.906.547 1.66.547.297 0 .59-.027.875-.086v-1.707h-1.332v-.894h2.473v3.172c-.32.16-.653.277-1 .351a5.68 5.68 0 0 1-1.18.125c-1.035 0-1.82-.285-2.363-.847M6 26h20V6H6ZM30.668 8.668V7.332h-3.336v-2a.664.664 0 0 0-.664-.664h-2V1.332h-1.336v3.336h-2.664V1.332h-1.336v3.336h-2.664V1.332h-1.336v3.336h-2.664V1.332h-1.336v3.336H8.668V1.332H7.332v3.336h-2a.664.664 0 0 0-.664.664v2H1.332v1.336h3.336v2.664H1.332v1.336h3.336v2.664H1.332v1.336h3.336v2.664H1.332v1.336h3.336v2.664H1.332v1.336h3.336v2c0 .367.297.664.664.664h2v3.336h1.336v-3.336h2.664v3.336h1.336v-3.336h2.664v3.336h1.336v-3.336h2.664v3.336h1.336v-3.336h2.664v3.336h1.336v-3.336h2a.664.664 0 0 0 .664-.664v-2h3.336v-1.336h-3.336v-2.664h3.336v-1.336h-3.336v-2.664h3.336v-1.336h-3.336v-2.664h3.336v-1.336h-3.336V8.668Zm0 0" fill="rgb(83.137255%, 35.686275%, 2.745098%)" fill-rule="evenodd"/></svg>