<?xml version="1.0" encoding="UTF-8"?>
<svg xmlns="http://www.w3.org/2000/svg" xmlns:xlink="http://www.w3.org/1999/xlink" width="32" height="32" viewBox="0 0 32 32">
<path fill-rule="evenodd" fill="rgb(83.137255%, 35.686275%, 2.745098%)" fill-opacity="1" d="M 6 26 L 26 26 L 26 6 L 6 6 Z M 27.332031 8.667969 L 27.332031 11.332031 L 30.667969 11.332031 L 30.667969 12.667969 L 27.332031 12.667969 L 27.332031 15.332031 L 30.667969 15.332031 L 30.667969 16.667969 L 27.332031 16.667969 L 27.332031 19.332031 L 30.667969 19.332031 L 30.667969 20.667969 L 27.332031 20.667969 L 27.332031 23.332031 L 30.667969 23.332031 L 30.667969 24.667969 L 27.332031 24.667969 L 27.332031 26.667969 C 27.332031 27.035156 27.035156 27.332031 26.667969 27.332031 L 24.667969 27.332031 L 24.667969 30.667969 L 23.332031 30.667969 L 23.332031 27.332031 L 20.667969 27.332031 L 20.667969 30.667969 L 19.332031 30.667969 L 19.332031 27.332031 L 16.667969 27.332031 L 16.667969 30.667969 L 15.332031 30.667969 L 15.332031 27.332031 L 12.667969 27.332031 L 12.667969 30.667969 L 11.332031 30.667969 L 11.332031 27.332031 L 8.667969 27.332031 L 8.667969 30.667969 L 7.332031 30.667969 L 7.332031 27.332031 L 5.332031 27.332031 C 4.964844 27.332031 4.667969 27.035156 4.667969 26.667969 L 4.667969 24.667969 L 1.332031 24.667969 L 1.332031 23.332031 L 4.667969 23.332031 L 4.667969 20.667969 L 1.332031 20.667969 L 1.332031 19.332031 L 4.667969 19.332031 L 4.667969 16.667969 L 1.332031 16.667969 L 1.332031 15.332031 L 4.667969 15.332031 L 4.667969 12.667969 L 1.332031 12.667969 L 1.332031 11.332031 L 4.667969 11.332031 L 4.667969 8.667969 L 1.332031 8.667969 L 1.332031 7.332031 L 4.667969 7.332031 L 4.667969 5.332031 C 4.667969 4.964844 4.964844 4.667969 5.332031 4.667969 L 7.332031 4.667969 L 7.332031 1.332031 L 8.667969 1.332031 L 8.667969 4.667969 L 11.332031 4.667969 L 11.332031 1.332031 L 12.667969 1.332031 L 12.667969 4.667969 L 15.332031 4.667969 L 15.332031 1.332031 L 16.667969 1.332031 L 16.667969 4.667969 L 19.332031 4.667969 L 19.332031 1.332031 L 20.667969 1.332031 L 20.667969 4.667969 L 23.332031 4.667969 L 23.332031 1.332031 L 24.667969 1.332031 L 24.667969 4.667969 L 26.667969 4.667969 C 27.035156 4.667969 27.332031 4.964844 27.332031 5.332031 L 27.332031 7.332031 L 30.667969 7.332031 L 30.667969 8.667969 Z M 20.75 19.152344 L 21.851562 19.152344 L 21.851562 14.402344 L 20.75 14.402344 Z M 21.300781 13.617188 C 21.507812 13.617188 21.667969 13.5625 21.785156 13.449219 C 21.902344 13.339844 21.960938 13.183594 21.960938 12.984375 C 21.960938 12.785156 21.902344 12.628906 21.785156 12.515625 C 21.667969 12.40625 21.507812 12.347656 21.300781 12.347656 C 21.09375 12.347656 20.933594 12.40625 20.816406 12.515625 C 20.695312 12.628906 20.636719 12.785156 20.636719 12.984375 C 20.636719 13.183594 20.695312 13.339844 20.816406 13.449219 C 20.933594 13.5625 21.09375 13.617188 21.300781 13.617188 M 16.335938 16.417969 C 16.378906 17.742188 16.8125 18.40625 17.628906 18.40625 C 17.964844 18.40625 18.226562 18.304688 18.414062 18.097656 C 18.601562 17.894531 18.695312 17.605469 18.695312 17.238281 C 18.695312 16.867188 18.597656 16.582031 18.402344 16.386719 C 18.210938 16.1875 17.929688 16.089844 17.554688 16.089844 C 17.128906 16.097656 16.707031 16.210938 16.335938 16.417969 M 15.796875 18.5 C 15.402344 17.96875 15.207031 17.1875 15.207031 16.15625 C 15.207031 15.011719 15.441406 14.121094 15.910156 13.488281 C 16.378906 12.851562 17.042969 12.535156 17.894531 12.535156 C 18.160156 12.535156 18.429688 12.566406 18.699219 12.625 C 18.972656 12.683594 19.203125 12.761719 19.394531 12.863281 L 19.394531 13.675781 C 19.183594 13.59375 18.960938 13.53125 18.738281 13.492188 C 18.488281 13.445312 18.257812 13.421875 18.050781 13.421875 C 17.492188 13.421875 17.074219 13.609375 16.796875 13.980469 C 16.519531 14.355469 16.367188 14.929688 16.335938 15.707031 C 16.800781 15.398438 17.347656 15.234375 17.90625 15.234375 C 18.484375 15.234375 18.949219 15.410156 19.300781 15.761719 C 19.648438 16.113281 19.824219 16.578125 19.824219 17.164062 C 19.824219 17.574219 19.734375 17.941406 19.550781 18.261719 C 19.367188 18.585938 19.089844 18.847656 18.757812 19.015625 C 18.382812 19.207031 17.96875 19.300781 17.546875 19.292969 C 16.777344 19.292969 16.191406 19.027344 15.796875 18.5 M 10.617188 18.441406 C 10.09375 17.894531 9.828125 17.085938 9.828125 16.015625 C 9.828125 14.914062 10.101562 14.066406 10.648438 13.472656 C 11.191406 12.878906 11.972656 12.582031 12.992188 12.582031 C 13.554688 12.582031 14.070312 12.664062 14.542969 12.835938 L 14.542969 13.765625 C 13.925781 13.636719 13.4375 13.570312 13.085938 13.570312 C 12.375 13.570312 11.847656 13.753906 11.503906 14.121094 C 11.160156 14.488281 10.988281 15.054688 10.988281 15.820312 L 10.988281 16.042969 C 10.988281 16.804688 11.15625 17.367188 11.5 17.730469 C 11.839844 18.09375 12.363281 18.273438 13.066406 18.273438 C 13.460938 18.273438 13.984375 18.199219 14.636719 18.042969 L 14.636719 18.976562 C 14.144531 19.167969 13.585938 19.265625 12.957031 19.265625 C 11.921875 19.265625 11.144531 18.992188 10.617188 18.441406 M 10.617188 18.441406 "/>
</svg>
