<?xml version="1.0" encoding="UTF-8"?>
<svg xmlns="http://www.w3.org/2000/svg" xmlns:xlink="http://www.w3.org/1999/xlink" width="32" height="32" viewBox="0 0 32 32">
<path fill-rule="evenodd" fill="rgb(83.137255%, 35.686275%, 2.745098%)" fill-opacity="1" d="M 18.808594 19.472656 C 18.191406 19.472656 17.585938 19.347656 17.019531 19.101562 L 17.019531 18.222656 C 17.699219 18.453125 18.285156 18.566406 18.78125 18.566406 C 19.703125 18.566406 20.164062 18.171875 20.164062 17.375 C 20.164062 16.988281 20.046875 16.707031 19.816406 16.527344 C 19.585938 16.351562 19.214844 16.261719 18.707031 16.261719 C 18.332031 16.261719 17.859375 16.292969 17.289062 16.355469 L 17.289062 15.648438 L 17.464844 12.867188 L 20.976562 12.867188 L 20.976562 13.753906 L 18.507812 13.753906 L 18.398438 15.480469 C 18.65625 15.429688 18.925781 15.402344 19.210938 15.402344 C 19.855469 15.402344 20.367188 15.578125 20.738281 15.925781 C 21.109375 16.273438 21.292969 16.75 21.292969 17.355469 C 21.292969 18.003906 21.070312 18.515625 20.621094 18.898438 C 20.171875 19.28125 19.570312 19.472656 18.808594 19.472656 M 11.300781 18.597656 C 10.757812 18.03125 10.484375 17.210938 10.484375 16.140625 C 10.484375 15.050781 10.765625 14.21875 11.324219 13.636719 C 11.882812 13.054688 12.683594 12.761719 13.734375 12.761719 C 14.441406 12.761719 15.070312 12.890625 15.617188 13.144531 L 15.617188 14.050781 C 14.964844 13.832031 14.363281 13.722656 13.8125 13.722656 C 13.074219 13.722656 12.53125 13.910156 12.175781 14.285156 C 11.820312 14.65625 11.640625 15.238281 11.640625 16.03125 L 11.640625 16.226562 C 11.640625 17.003906 11.820312 17.574219 12.167969 17.9375 C 12.519531 18.300781 13.074219 18.484375 13.828125 18.484375 C 14.125 18.484375 14.417969 18.457031 14.703125 18.398438 L 14.703125 16.691406 L 13.371094 16.691406 L 13.371094 15.796875 L 15.84375 15.796875 L 15.84375 18.96875 C 15.523438 19.128906 15.191406 19.246094 14.84375 19.320312 C 14.457031 19.402344 14.0625 19.445312 13.664062 19.445312 C 12.628906 19.445312 11.84375 19.160156 11.300781 18.597656 M 6 26 L 26 26 L 26 6 L 6 6 Z M 30.667969 8.667969 L 30.667969 7.332031 L 27.332031 7.332031 L 27.332031 5.332031 C 27.332031 4.964844 27.035156 4.667969 26.667969 4.667969 L 24.667969 4.667969 L 24.667969 1.332031 L 23.332031 1.332031 L 23.332031 4.667969 L 20.667969 4.667969 L 20.667969 1.332031 L 19.332031 1.332031 L 19.332031 4.667969 L 16.667969 4.667969 L 16.667969 1.332031 L 15.332031 1.332031 L 15.332031 4.667969 L 12.667969 4.667969 L 12.667969 1.332031 L 11.332031 1.332031 L 11.332031 4.667969 L 8.667969 4.667969 L 8.667969 1.332031 L 7.332031 1.332031 L 7.332031 4.667969 L 5.332031 4.667969 C 4.964844 4.667969 4.667969 4.964844 4.667969 5.332031 L 4.667969 7.332031 L 1.332031 7.332031 L 1.332031 8.667969 L 4.667969 8.667969 L 4.667969 11.332031 L 1.332031 11.332031 L 1.332031 12.667969 L 4.667969 12.667969 L 4.667969 15.332031 L 1.332031 15.332031 L 1.332031 16.667969 L 4.667969 16.667969 L 4.667969 19.332031 L 1.332031 19.332031 L 1.332031 20.667969 L 4.667969 20.667969 L 4.667969 23.332031 L 1.332031 23.332031 L 1.332031 24.667969 L 4.667969 24.667969 L 4.667969 26.667969 C 4.667969 27.035156 4.964844 27.332031 5.332031 27.332031 L 7.332031 27.332031 L 7.332031 30.667969 L 8.667969 30.667969 L 8.667969 27.332031 L 11.332031 27.332031 L 11.332031 30.667969 L 12.667969 30.667969 L 12.667969 27.332031 L 15.332031 27.332031 L 15.332031 30.667969 L 16.667969 30.667969 L 16.667969 27.332031 L 19.332031 27.332031 L 19.332031 30.667969 L 20.667969 30.667969 L 20.667969 27.332031 L 23.332031 27.332031 L 23.332031 30.667969 L 24.667969 30.667969 L 24.667969 27.332031 L 26.667969 27.332031 C 27.035156 27.332031 27.332031 27.035156 27.332031 26.667969 L 27.332031 24.667969 L 30.667969 24.667969 L 30.667969 23.332031 L 27.332031 23.332031 L 27.332031 20.667969 L 30.667969 20.667969 L 30.667969 19.332031 L 27.332031 19.332031 L 27.332031 16.667969 L 30.667969 16.667969 L 30.667969 15.332031 L 27.332031 15.332031 L 27.332031 12.667969 L 30.667969 12.667969 L 30.667969 11.332031 L 27.332031 11.332031 L 27.332031 8.667969 Z M 30.667969 8.667969 "/>
</svg>
