<svg role="img" viewBox="0 0 32 32" xmlns="http://www.w3.org/2000/svg"><path d="M6 26h20V6H6ZM27.332 8.668v2.664h3.336v1.336h-3.336v2.664h3.336v1.336h-3.336v2.664h3.336v1.336h-3.336v2.664h3.336v1.336h-3.336v2a.664.664 0 0 1-.664.664h-2v3.336h-1.336v-3.336h-2.664v3.336h-1.336v-3.336h-2.664v3.336h-1.336v-3.336h-2.664v3.336h-1.336v-3.336H8.668v3.336H7.332v-3.336h-2a.664.664 0 0 1-.664-.664v-2H1.332v-1.336h3.336v-2.664H1.332v-1.336h3.336v-2.664H1.332v-1.336h3.336v-2.664H1.332v-1.336h3.336V8.668H1.332V7.332h3.336v-2c0-.367.297-.664.664-.664h2V1.332h1.336v3.336h2.664V1.332h1.336v3.336h2.664V1.332h1.336v3.336h2.664V1.332h1.336v3.336h2.664V1.332h1.336v3.336h2c.367 0 .664.297.664.664v2h3.336v1.336Zm-5.094 6.98q.503-.322.989-.324.321 0 .468.164c.098.114.149.285.149.528v2.468h.863v-2.742q.002-.534-.277-.816-.28-.282-.813-.281-.75-.002-1.437.52l-.09-.411h-.719v3.73h.867Zm-4.312.946q0 1.29.937 1.289.434.002.844-.278V15.59a1.4 1.4 0 0 0-.828-.266q-.493.001-.723.313-.232.311-.23.957m-.461 1.449c-.281-.352-.422-.82-.422-1.414q.002-.585.191-1.031.194-.45.551-.7.358-.255.852-.253.584 0 1.07.378V13.06h.863v5.425h-.738l-.09-.359a1.67 1.67 0 0 1-1.148.441q-.708 0-1.13-.523m-1.5.102q.532-.45.531-1.215-.002-.71-.437-1.121-.439-.41-1.2-.41-.338 0-.636.058l.082-1.355h1.941v-.7h-2.758l-.14 2.188v.558q.672-.075 1.117-.074.596 0 .87.207.27.212.27.664.002.938-1.085.938-.58 0-1.383-.27v.688c.449.195.918.297 1.406.297q.896-.002 1.422-.453m-7.852.34h-.82v-5.083h.996l1.524 3.032 1.554-3.032h.969v5.082h-.82V14.68l-1.32 2.53h-.81l-1.273-2.515Zm0 0" fill="rgb(83.137256%, 35.686275%, 2.745098%)" fill-rule="evenodd"/></svg>