<svg role="img" viewBox="0 0 32 32" xmlns="http://www.w3.org/2000/svg"><defs><linearGradient gradientTransform="scale(32)" gradientUnits="userSpaceOnUse" id="aws-kms_svg__a" x1="0" x2="1" y1="1" y2="0"><stop offset="0" stop-color="rgb(74.117649%, 3.137255%, 8.627451%)"/><stop offset="1" stop-color="rgb(100%, 32.156864%, 32.156864%)"/></linearGradient></defs><path d="M-3.2-3.2h38.4v38.4H-3.2z" fill="url(#aws-kms_svg__a)"/><path d="M21.422 21h3v-1h-3Zm-4 0h3v-1h-3Zm-4 0h3v-1h-3Zm5-3.25a.75.75 0 1 1 1.5 0 .75.75 0 0 1-1.5 0m2.5 0c0-.965-.785-1.75-1.75-1.75s-1.75.785-1.75 1.75.785 1.75 1.75 1.75 1.75-.785 1.75-1.75m-5.75.75a.75.75 0 1 1 0-1.5.75.75 0 0 1 0 1.5m0-2.5c-.965 0-1.75.785-1.75 1.75s.785 1.75 1.75 1.75 1.75-.785 1.75-1.75-.785-1.75-1.75-1.75m11.75-3v10c0 .273-.227.5-.5.5h-13v-1h12.5v-9h-9.5v-1h10c.273 0 .5.223.5.5m-16.469-1.055a.99.99 0 1 1 .988-.988.997.997 0 0 1-.988.988m0-2.976c-1.098 0-1.992.89-1.992 1.988a1.99 1.99 0 0 0 1.988 1.902 1.99 1.99 0 0 0 1.992-1.902 1.99 1.99 0 0 0-1.988-1.988m1.313 6.054a.49.49 0 0 0-.344.477v9.29l-.973.948-1.027-1.402V23.02a.5.5 0 0 0-.176-.38l-1.055-.898 1.055-.894a.5.5 0 0 0 .176-.383v-.848a.5.5 0 0 0-.176-.383l-1.055-.894 1.055-.899a.5.5 0 0 0 .176-.378V15.5a.495.495 0 0 0-.352-.477c-2.187-.695-3.441-2.828-2.976-5.074a4.32 4.32 0 0 1 3.18-3.312c1.359-.336 2.753-.043 3.824.797a4.37 4.37 0 0 1 1.683 3.457 4.34 4.34 0 0 1-3.015 4.132m4.015-4.132a5.37 5.37 0 0 0-2.066-4.246c-1.313-1.028-3.02-1.387-4.68-.98A5.34 5.34 0 0 0 5.113 9.75a5.37 5.37 0 0 0 3.309 6.102v.98l-1.324 1.125a.5.5 0 0 0-.176.383c0 .144.062.285.176.379l1.324 1.129v.386l-1.324 1.13a.5.5 0 0 0-.176.382c0 .145.066.285.176.379l1.324 1.125v1.25c0 .105.035.21.098.293l1.464 2a.5.5 0 0 0 .364.203l.043.004c.132 0 .257-.05.347-.145l1.532-1.5a.5.5 0 0 0 .152-.355v-9.152a5.32 5.32 0 0 0 3.36-4.957m0 0" fill="rgb(100%, 100%, 100%)" fill-rule="evenodd"/></svg>