<svg role="img" viewBox="0 0 32 32" height="32" width="32" xmlns="http://www.w3.org/2000/svg"><path d="M22.203 18.645c.176 0 .36-.04.555-.118.195-.078.383-.187.562-.332v-.894a3.938 3.938 0 0 0-.851-.106c-.633 0-.95.254-.95.758 0 .219.063.387.184.508s.29.184.5.184m1.258.644-.082-.457a2.693 2.693 0 0 1-.723.438 2.13 2.13 0 0 1-.789.16c-.437 0-.789-.133-1.062-.395-.27-.262-.403-.601-.403-1.015 0-.461.164-.829.496-1.102.336-.273.782-.41 1.34-.41.332 0 .692.047 1.082.14v-.55c0-.32-.066-.54-.203-.664-.137-.125-.375-.188-.719-.188-.484 0-1.043.102-1.671.309v-.774c.234-.12.523-.21.859-.281.34-.07.68-.102 1.023-.102.621 0 1.078.122 1.371.372.297.25.442.636.442 1.168v3.351Zm-5.918-3.062c-.402 0-.809.109-1.223.328.043 1.324.477 1.988 1.297 1.988.332 0 .594-.105.785-.309.188-.207.282-.492.282-.859 0-.375-.098-.66-.293-.855-.196-.196-.477-.293-.848-.293m.492-2.668c-.558 0-.976.183-1.254.558-.273.375-.43.95-.46 1.727a2.918 2.918 0 0 1 1.57-.477c.578 0 1.043.176 1.394.528.352.351.527.82.527 1.406 0 .41-.093.773-.273 1.097-.184.32-.45.57-.797.754-.344.184-.746.278-1.207.278-.77 0-1.355-.266-1.75-.797-.394-.528-.594-1.309-.594-2.34 0-1.145.235-2.035.707-2.672.47-.633 1.13-.95 1.98-.95.27 0 .54.028.81.087.269.062.503.14.695.238v.813a4.224 4.224 0 0 0-1.348-.25m-4.894 5.73v-4.844l-1.68 3.22h-1.027L8.809 14.46v4.828H7.762V12.82h1.27l1.94 3.856 1.981-3.856h1.23v6.47ZM6 26h20V6H6ZM30.668 8.668V7.332h-3.336v-2a.664.664 0 0 0-.664-.664h-2V1.332h-1.336v3.336h-2.664V1.332h-1.336v3.336h-2.664V1.332h-1.336v3.336h-2.664V1.332h-1.336v3.336H8.668V1.332H7.332v3.336h-2a.664.664 0 0 0-.664.664v2H1.332v1.336h3.336v2.664H1.332v1.336h3.336v2.664H1.332v1.336h3.336v2.664H1.332v1.336h3.336v2.664H1.332v1.336h3.336v2c0 .367.297.664.664.664h2v3.336h1.336v-3.336h2.664v3.336h1.336v-3.336h2.664v3.336h1.336v-3.336h2.664v3.336h1.336v-3.336h2.664v3.336h1.336v-3.336h2a.664.664 0 0 0 .664-.664v-2h3.336v-1.336h-3.336v-2.664h3.336v-1.336h-3.336v-2.664h3.336v-1.336h-3.336v-2.664h3.336v-1.336h-3.336V8.668Zm0 0" fill="rgb(83.137255%, 35.686275%, 2.745098%)" fill-rule="evenodd"/></svg>