<svg role="img" viewBox="0 0 32 32" xmlns="http://www.w3.org/2000/svg"><path d="M6 26h20V6H6ZM27.332 8.668v2.664h3.336v1.336h-3.336v2.664h3.336v1.336h-3.336v2.664h3.336v1.336h-3.336v2.664h3.336v1.336h-3.336v2a.664.664 0 0 1-.664.664h-2v3.336h-1.336v-3.336h-2.664v3.336h-1.336v-3.336h-2.664v3.336h-1.336v-3.336h-2.664v3.336h-1.336v-3.336H8.668v3.336H7.332v-3.336h-2a.664.664 0 0 1-.664-.664v-2H1.332v-1.336h3.336v-2.664H1.332v-1.336h3.336v-2.664H1.332v-1.336h3.336v-2.664H1.332v-1.336h3.336V8.668H1.332V7.332h3.336v-2c0-.367.297-.664.664-.664h2V1.332h1.336v3.336h2.664V1.332h1.336v3.336h2.664V1.332h1.336v3.336h2.664V1.332h1.336v3.336h2.664V1.332h1.336v3.336h2c.367 0 .664.297.664.664v2h3.336v1.336Zm-7.277 7.41q0 1.64 1.195 1.64.55 0 1.07-.35V14.8a1.77 1.77 0 0 0-1.054-.336c-.414 0-.723.133-.918.394q-.294.399-.293 1.22m-.582 1.844q-.54-.667-.54-1.797.002-.749.243-1.316c.164-.38.394-.676.699-.891a1.84 1.84 0 0 1 1.086-.324q.744.001 1.36.488v-2.504h1.1v6.906h-.94l-.114-.457q-.633.563-1.465.563-.896 0-1.43-.668m-2.051.129q.674-.573.672-1.543c0-.606-.184-1.078-.555-1.43-.371-.348-.883-.52-1.527-.52a4 4 0 0 0-.813.075l.11-1.727h2.468v-.886h-3.511l-.176 2.78v.708q.855-.094 1.418-.094.763.001 1.11.266.346.268.347.847 0 1.194-1.383 1.192-.743 0-1.762-.344v.879a4.5 4.5 0 0 0 1.793.371q1.136 0 1.809-.574m-8.34-.274c-.523-.547-.789-1.355-.789-2.425q0-1.653.82-2.543.815-.896 2.344-.895.843.001 1.55.254v.934q-.93-.198-1.456-.196-1.067 0-1.582.551-.516.549-.516 1.695v.227c0 .758.168 1.32.512 1.684q.51.545 1.566.546.592 0 1.57-.234v.934q-.736.288-1.68.289-1.55 0-2.339-.82m0 0" fill="rgb(83.137256%, 35.686275%, 2.745098%)" fill-rule="evenodd"/></svg>