<?xml version="1.0" encoding="UTF-8"?>
<svg xmlns="http://www.w3.org/2000/svg" xmlns:xlink="http://www.w3.org/1999/xlink" width="32" height="32" viewBox="0 0 32 32">
<path fill-rule="evenodd" fill="rgb(83.137255%, 35.686275%, 2.745098%)" fill-opacity="1" d="M 6 26 L 26 26 L 26 6 L 6 6 Z M 30.667969 8.667969 L 30.667969 7.332031 L 27.332031 7.332031 L 27.332031 5.332031 C 27.332031 4.964844 27.035156 4.667969 26.667969 4.667969 L 24.667969 4.667969 L 24.667969 1.332031 L 23.332031 1.332031 L 23.332031 4.667969 L 20.667969 4.667969 L 20.667969 1.332031 L 19.332031 1.332031 L 19.332031 4.667969 L 16.667969 4.667969 L 16.667969 1.332031 L 15.332031 1.332031 L 15.332031 4.667969 L 12.667969 4.667969 L 12.667969 1.332031 L 11.332031 1.332031 L 11.332031 4.667969 L 8.667969 4.667969 L 8.667969 1.332031 L 7.332031 1.332031 L 7.332031 4.667969 L 5.332031 4.667969 C 4.964844 4.667969 4.667969 4.964844 4.667969 5.332031 L 4.667969 7.332031 L 1.332031 7.332031 L 1.332031 8.667969 L 4.667969 8.667969 L 4.667969 11.332031 L 1.332031 11.332031 L 1.332031 12.667969 L 4.667969 12.667969 L 4.667969 15.332031 L 1.332031 15.332031 L 1.332031 16.667969 L 4.667969 16.667969 L 4.667969 19.332031 L 1.332031 19.332031 L 1.332031 20.667969 L 4.667969 20.667969 L 4.667969 23.332031 L 1.332031 23.332031 L 1.332031 24.667969 L 4.667969 24.667969 L 4.667969 26.667969 C 4.667969 27.035156 4.964844 27.332031 5.332031 27.332031 L 7.332031 27.332031 L 7.332031 30.667969 L 8.667969 30.667969 L 8.667969 27.332031 L 11.332031 27.332031 L 11.332031 30.667969 L 12.667969 30.667969 L 12.667969 27.332031 L 15.332031 27.332031 L 15.332031 30.667969 L 16.667969 30.667969 L 16.667969 27.332031 L 19.332031 27.332031 L 19.332031 30.667969 L 20.667969 30.667969 L 20.667969 27.332031 L 23.332031 27.332031 L 23.332031 30.667969 L 24.667969 30.667969 L 24.667969 27.332031 L 26.667969 27.332031 C 27.035156 27.332031 27.332031 27.035156 27.332031 26.667969 L 27.332031 24.667969 L 30.667969 24.667969 L 30.667969 23.332031 L 27.332031 23.332031 L 27.332031 20.667969 L 30.667969 20.667969 L 30.667969 19.332031 L 27.332031 19.332031 L 27.332031 16.667969 L 30.667969 16.667969 L 30.667969 15.332031 L 27.332031 15.332031 L 27.332031 12.667969 L 30.667969 12.667969 L 30.667969 11.332031 L 27.332031 11.332031 L 27.332031 8.667969 Z M 23.171875 18.484375 L 23.171875 16.015625 C 23.171875 15.773438 23.125 15.601562 23.023438 15.488281 C 22.925781 15.378906 22.769531 15.324219 22.554688 15.324219 C 22.234375 15.324219 21.902344 15.433594 21.566406 15.648438 L 21.566406 18.484375 L 20.699219 18.484375 L 20.699219 14.753906 L 21.417969 14.753906 L 21.507812 15.164062 C 21.964844 14.816406 22.445312 14.644531 22.945312 14.644531 C 23.300781 14.644531 23.574219 14.738281 23.757812 14.925781 C 23.945312 15.113281 24.039062 15.386719 24.039062 15.742188 L 24.039062 18.484375 Z M 18.511719 15.273438 C 18.261719 15.273438 18.054688 15.363281 17.898438 15.539062 C 17.742188 15.714844 17.652344 15.953125 17.628906 16.25 L 19.234375 16.25 L 19.234375 16.191406 C 19.234375 15.894531 19.171875 15.664062 19.050781 15.507812 C 18.925781 15.351562 18.746094 15.273438 18.511719 15.273438 M 17.628906 16.828125 C 17.640625 17.199219 17.742188 17.472656 17.929688 17.648438 C 18.113281 17.820312 18.402344 17.90625 18.789062 17.90625 C 19.136719 17.90625 19.515625 17.839844 19.921875 17.703125 L 19.921875 18.308594 C 19.734375 18.40625 19.539062 18.476562 19.332031 18.519531 C 19.105469 18.570312 18.871094 18.597656 18.625 18.597656 C 18.007812 18.597656 17.542969 18.429688 17.226562 18.097656 C 16.90625 17.765625 16.746094 17.28125 16.746094 16.644531 C 16.746094 16.011719 16.902344 15.523438 17.214844 15.171875 C 17.523438 14.820312 17.957031 14.644531 18.515625 14.644531 C 18.992188 14.644531 19.363281 14.773438 19.617188 15.035156 C 19.875 15.296875 20.003906 15.667969 20.003906 16.148438 C 20.003906 16.398438 19.980469 16.628906 19.941406 16.828125 Z M 14.292969 15.566406 C 14.359375 15.558594 14.425781 15.558594 14.492188 15.558594 C 14.78125 15.558594 15.039062 15.621094 15.269531 15.738281 C 15.5 15.859375 15.683594 16.027344 15.824219 16.25 C 15.960938 16.46875 16.027344 16.71875 16.027344 17.003906 C 16.027344 17.3125 15.949219 17.585938 15.792969 17.824219 C 15.636719 18.0625 15.414062 18.253906 15.121094 18.390625 C 14.796875 18.535156 14.449219 18.605469 14.09375 18.597656 C 13.625 18.597656 13.164062 18.496094 12.714844 18.300781 L 12.714844 17.613281 C 13.25 17.792969 13.699219 17.882812 14.0625 17.882812 C 14.40625 17.882812 14.675781 17.808594 14.863281 17.652344 C 15.046875 17.5 15.140625 17.28125 15.140625 16.996094 C 15.140625 16.460938 14.800781 16.191406 14.125 16.191406 C 13.90625 16.191406 13.671875 16.203125 13.417969 16.234375 L 13.417969 15.671875 L 14.863281 14.101562 L 12.789062 14.101562 L 12.789062 13.402344 L 15.816406 13.402344 L 15.816406 14.070312 Z M 8.855469 14.109375 L 8.855469 17.78125 L 9.597656 17.78125 C 10.609375 17.78125 11.117188 17.195312 11.117188 16.023438 L 11.117188 15.859375 C 11.117188 14.691406 10.609375 14.109375 9.597656 14.109375 Z M 7.960938 18.484375 L 7.960938 13.402344 L 9.699219 13.402344 C 10.453125 13.402344 11.03125 13.621094 11.429688 14.058594 C 11.824219 14.492188 12.023438 15.117188 12.023438 15.933594 C 12.023438 16.753906 11.824219 17.386719 11.421875 17.824219 C 11.015625 18.269531 10.441406 18.488281 9.691406 18.484375 Z M 7.960938 18.484375 "/>
</svg>
