<?xml version="1.0" encoding="UTF-8"?>
<svg xmlns="http://www.w3.org/2000/svg" xmlns:xlink="http://www.w3.org/1999/xlink" width="32" height="32" viewBox="0 0 32 32">
<path fill-rule="evenodd" fill="rgb(83.137255%, 35.686275%, 2.745098%)" fill-opacity="1" d="M 6 26 L 26 26 L 26 6 L 6 6 Z M 27.332031 8.667969 L 27.332031 11.332031 L 30.667969 11.332031 L 30.667969 12.667969 L 27.332031 12.667969 L 27.332031 15.332031 L 30.667969 15.332031 L 30.667969 16.667969 L 27.332031 16.667969 L 27.332031 19.332031 L 30.667969 19.332031 L 30.667969 20.667969 L 27.332031 20.667969 L 27.332031 23.332031 L 30.667969 23.332031 L 30.667969 24.667969 L 27.332031 24.667969 L 27.332031 26.667969 C 27.332031 27.035156 27.035156 27.332031 26.667969 27.332031 L 24.667969 27.332031 L 24.667969 30.667969 L 23.332031 30.667969 L 23.332031 27.332031 L 20.667969 27.332031 L 20.667969 30.667969 L 19.332031 30.667969 L 19.332031 27.332031 L 16.667969 27.332031 L 16.667969 30.667969 L 15.332031 30.667969 L 15.332031 27.332031 L 12.667969 27.332031 L 12.667969 30.667969 L 11.332031 30.667969 L 11.332031 27.332031 L 8.667969 27.332031 L 8.667969 30.667969 L 7.332031 30.667969 L 7.332031 27.332031 L 5.332031 27.332031 C 4.964844 27.332031 4.667969 27.035156 4.667969 26.667969 L 4.667969 24.667969 L 1.332031 24.667969 L 1.332031 23.332031 L 4.667969 23.332031 L 4.667969 20.667969 L 1.332031 20.667969 L 1.332031 19.332031 L 4.667969 19.332031 L 4.667969 16.667969 L 1.332031 16.667969 L 1.332031 15.332031 L 4.667969 15.332031 L 4.667969 12.667969 L 1.332031 12.667969 L 1.332031 11.332031 L 4.667969 11.332031 L 4.667969 8.667969 L 1.332031 8.667969 L 1.332031 7.332031 L 4.667969 7.332031 L 4.667969 5.332031 C 4.667969 4.964844 4.964844 4.667969 5.332031 4.667969 L 7.332031 4.667969 L 7.332031 1.332031 L 8.667969 1.332031 L 8.667969 4.667969 L 11.332031 4.667969 L 11.332031 1.332031 L 12.667969 1.332031 L 12.667969 4.667969 L 15.332031 4.667969 L 15.332031 1.332031 L 16.667969 1.332031 L 16.667969 4.667969 L 19.332031 4.667969 L 19.332031 1.332031 L 20.667969 1.332031 L 20.667969 4.667969 L 23.332031 4.667969 L 23.332031 1.332031 L 24.667969 1.332031 L 24.667969 4.667969 L 26.667969 4.667969 C 27.035156 4.667969 27.332031 4.964844 27.332031 5.332031 L 27.332031 7.332031 L 30.667969 7.332031 L 30.667969 8.667969 Z M 22.503906 15.367188 C 22.796875 15.183594 23.078125 15.089844 23.359375 15.089844 C 23.542969 15.089844 23.679688 15.136719 23.765625 15.230469 C 23.847656 15.328125 23.890625 15.476562 23.890625 15.683594 L 23.890625 17.820312 L 24.636719 17.820312 L 24.636719 15.449219 C 24.636719 15.144531 24.558594 14.90625 24.398438 14.746094 C 24.238281 14.582031 24.003906 14.5 23.695312 14.5 C 23.265625 14.5 22.851562 14.652344 22.453125 14.949219 L 22.378906 14.597656 L 21.757812 14.597656 L 21.757812 17.820312 L 22.503906 17.820312 Z M 19.167969 15.886719 L 20.554688 15.886719 L 20.554688 15.835938 C 20.554688 15.578125 20.5 15.382812 20.394531 15.246094 C 20.289062 15.113281 20.132812 15.046875 19.929688 15.046875 C 19.726562 15.035156 19.53125 15.121094 19.402344 15.273438 C 19.265625 15.425781 19.1875 15.628906 19.167969 15.886719 M 18.816406 17.484375 C 18.542969 17.195312 18.40625 16.777344 18.40625 16.230469 C 18.40625 15.683594 18.539062 15.261719 18.808594 14.957031 C 19.078125 14.652344 19.453125 14.5 19.933594 14.5 C 20.347656 14.5 20.664062 14.613281 20.886719 14.839844 C 21.105469 15.066406 21.21875 15.386719 21.21875 15.800781 C 21.21875 16.019531 21.199219 16.214844 21.164062 16.386719 L 19.167969 16.386719 C 19.179688 16.707031 19.265625 16.945312 19.425781 17.09375 C 19.585938 17.242188 19.835938 17.320312 20.167969 17.320312 C 20.472656 17.320312 20.796875 17.261719 21.148438 17.140625 L 21.148438 17.667969 C 20.988281 17.75 20.816406 17.8125 20.636719 17.847656 C 20.4375 17.890625 20.230469 17.914062 20.027344 17.914062 C 19.496094 17.914062 19.09375 17.769531 18.816406 17.484375 M 15.652344 16.117188 C 15.652344 16.824219 15.902344 17.179688 16.40625 17.179688 C 16.652344 17.179688 16.890625 17.097656 17.113281 16.933594 L 17.113281 15.3125 C 16.910156 15.164062 16.664062 15.082031 16.410156 15.082031 C 16.152344 15.082031 15.960938 15.167969 15.839844 15.335938 C 15.714844 15.503906 15.652344 15.765625 15.652344 16.117188 M 15.242188 17.316406 C 15.007812 17.023438 14.890625 16.628906 14.890625 16.140625 C 14.890625 15.820312 14.945312 15.535156 15.050781 15.289062 C 15.144531 15.058594 15.300781 14.859375 15.503906 14.710938 C 15.703125 14.570312 15.9375 14.5 16.207031 14.5 C 16.574219 14.5 16.894531 14.628906 17.164062 14.886719 L 17.226562 14.597656 L 17.863281 14.597656 L 17.863281 17.597656 C 17.863281 18.109375 17.726562 18.503906 17.445312 18.78125 C 17.167969 19.0625 16.769531 19.199219 16.257812 19.199219 C 15.867188 19.199219 15.5 19.113281 15.152344 18.941406 L 15.152344 18.40625 C 15.542969 18.539062 15.894531 18.605469 16.207031 18.605469 C 16.523438 18.605469 16.753906 18.53125 16.898438 18.386719 C 17.042969 18.242188 17.113281 18.003906 17.113281 17.675781 L 17.113281 17.402344 C 16.855469 17.628906 16.527344 17.757812 16.183594 17.757812 C 15.789062 17.757812 15.476562 17.609375 15.242188 17.316406 M 13.328125 16.3125 L 13.328125 14.378906 L 12.007812 16.3125 Z M 13.328125 16.90625 L 11.25 16.90625 L 11.25 16.34375 L 13.296875 13.429688 L 14.082031 13.429688 L 14.082031 16.3125 L 14.671875 16.3125 L 14.671875 16.90625 L 14.082031 16.90625 L 14.082031 17.820312 L 13.328125 17.820312 Z M 9.816406 17.914062 C 10.222656 17.914062 10.539062 17.820312 10.765625 17.636719 C 10.992188 17.457031 11.105469 17.207031 11.105469 16.886719 C 11.113281 16.703125 11.054688 16.519531 10.9375 16.375 C 10.824219 16.238281 10.644531 16.125 10.390625 16.027344 L 9.898438 15.835938 C 9.773438 15.789062 9.65625 15.726562 9.546875 15.648438 C 9.480469 15.59375 9.441406 15.511719 9.445312 15.425781 C 9.445312 15.304688 9.488281 15.214844 9.585938 15.15625 C 9.675781 15.097656 9.816406 15.066406 10.015625 15.070312 C 10.289062 15.070312 10.589844 15.121094 10.925781 15.230469 L 10.925781 14.703125 C 10.625 14.566406 10.300781 14.496094 9.972656 14.5 C 9.605469 14.5 9.3125 14.585938 9.089844 14.757812 C 8.875 14.921875 8.753906 15.183594 8.765625 15.457031 C 8.761719 15.863281 9 16.160156 9.472656 16.34375 L 10.003906 16.546875 C 10.160156 16.605469 10.273438 16.660156 10.335938 16.71875 C 10.394531 16.777344 10.425781 16.851562 10.425781 16.945312 C 10.425781 17.078125 10.375 17.179688 10.273438 17.246094 C 10.175781 17.3125 10.023438 17.34375 9.8125 17.34375 C 9.5 17.34375 9.136719 17.277344 8.730469 17.148438 L 8.730469 17.675781 C 8.875 17.75 9.039062 17.808594 9.230469 17.851562 C 9.421875 17.894531 9.613281 17.914062 9.8125 17.914062 M 7.375 17.820312 L 8.148438 17.820312 L 8.148438 13.429688 L 7.375 13.429688 Z M 7.375 17.820312 "/>
</svg>
