<svg role="img" viewBox="0 0 32 32" xmlns="http://www.w3.org/2000/svg"><path d="M6 26h20V6H6ZM27.332 8.668v2.664h3.336v1.336h-3.336v2.664h3.336v1.336h-3.336v2.664h3.336v1.336h-3.336v2.664h3.336v1.336h-3.336v2a.664.664 0 0 1-.664.664h-2v3.336h-1.336v-3.336h-2.664v3.336h-1.336v-3.336h-2.664v3.336h-1.336v-3.336h-2.664v3.336h-1.336v-3.336H8.668v3.336H7.332v-3.336h-2a.664.664 0 0 1-.664-.664v-2H1.332v-1.336h3.336v-2.664H1.332v-1.336h3.336v-2.664H1.332v-1.336h3.336v-2.664H1.332v-1.336h3.336V8.668H1.332V7.332h3.336v-2c0-.367.297-.664.664-.664h2V1.332h1.336v3.336h2.664V1.332h1.336v3.336h2.664V1.332h1.336v3.336h2.664V1.332h1.336v3.336h2.664V1.332h1.336v3.336h2c.367 0 .664.297.664.664v2h3.336v1.336Zm-6.062 6.828q.414-.263.812-.262.265-.001.383.133.122.136.12.43v2.023h.708v-2.246q.001-.439-.227-.668c-.152-.156-.375-.23-.668-.23q-.61-.002-1.175.426l-.07-.336h-.59v3.054h.707Zm-3.618.774q.001 1.056.77 1.058.352-.001.691-.23v-1.649a1.16 1.16 0 0 0-.68-.215q-.402-.002-.59.254-.191.253-.19.782m-.375 1.187q-.344-.432-.343-1.156-.002-.48.156-.848a1.3 1.3 0 0 1 .45-.57 1.16 1.16 0 0 1 .694-.207q.48-.001.88.308V13.38h.706v4.441h-.605l-.074-.297c-.27.243-.586.36-.942.36q-.575.002-.922-.426m-1.308-3.195c.129 0 .234-.04.312-.11a.4.4 0 0 0 .114-.3.4.4 0 0 0-.114-.301.45.45 0 0 0-.312-.106.44.44 0 0 0-.313.106q-.115.11-.113.3-.002.196.113.301c.074.07.18.11.313.11m-.356 3.558h.707v-3.054h-.707Zm-.66-.57H12.86c.48-.437.856-.8 1.13-1.098q.41-.439.593-.785.186-.345.184-.68.001-.35-.157-.601a1.05 1.05 0 0 0-.437-.387 1.5 1.5 0 0 0-.66-.133q-.692-.002-1.266.465v.59c.211-.144.414-.254.617-.332q.303-.117.559-.117c.2 0 .348.05.457.152q.164.153.164.43 0 .23-.152.508-.147.275-.54.726-.391.45-1.218 1.29v.542h2.82Zm-6.719.57 1.391-2.156-1.297-2.004h.735l.988 1.477.965-1.477h.734l-1.3 1.992 1.394 2.168h-.73l-1.094-1.644-1.055 1.644Zm0 0" fill="rgb(83.137256%, 35.686275%, 2.745098%)" fill-rule="evenodd"/></svg>