<?xml version="1.0" encoding="UTF-8"?>
<svg xmlns="http://www.w3.org/2000/svg" xmlns:xlink="http://www.w3.org/1999/xlink" width="32" height="32" viewBox="0 0 32 32">
<path fill-rule="nonzero" fill="rgb(92.941176%, 44.313725%, 0%)" fill-opacity="1" d="M 0.203125 0.203125 L 31.796875 0.203125 L 31.796875 31.796875 L 0.203125 31.796875 Z M 0.203125 0.203125 "/>
<path fill-rule="nonzero" fill="rgb(100%, 100%, 100%)" fill-opacity="1" d="M 20.761719 18.871094 C 20.761719 18.082031 20.121094 17.441406 19.332031 17.441406 C 18.542969 17.441406 17.902344 18.082031 17.902344 18.871094 C 17.902344 19.660156 18.546875 20.304688 19.332031 20.304688 C 20.125 20.304688 20.761719 19.660156 20.761719 18.871094 M 15.523438 14.09375 C 16.3125 14.09375 16.953125 13.449219 16.953125 12.660156 C 16.953125 11.867188 16.3125 11.222656 15.523438 11.222656 C 14.734375 11.222656 14.097656 11.867188 14.097656 12.660156 C 14.097656 13.449219 14.734375 14.09375 15.523438 14.09375 M 11.238281 19.351562 C 12.027344 19.351562 12.667969 18.707031 12.667969 17.914062 C 12.667969 17.125 12.027344 16.480469 11.238281 16.480469 C 10.445312 16.480469 9.800781 17.121094 9.800781 17.914062 C 9.800781 18.710938 10.445312 19.351562 11.238281 19.351562 M 21.714844 18.871094 C 21.714844 20.003906 20.921875 20.984375 19.8125 21.214844 L 19.8125 24.128906 C 19.8125 24.257812 19.761719 24.378906 19.671875 24.46875 C 19.582031 24.558594 19.460938 24.609375 19.332031 24.609375 L 16 24.609375 L 16 27.472656 L 15.046875 27.472656 L 15.046875 22.21875 L 11.238281 22.21875 C 11.109375 22.21875 10.988281 22.167969 10.898438 22.078125 C 10.8125 21.988281 10.761719 21.867188 10.761719 21.738281 L 10.761719 20.257812 C 9.648438 20.027344 8.851562 19.050781 8.855469 17.914062 C 8.855469 16.59375 9.925781 15.527344 11.238281 15.527344 C 11.871094 15.527344 12.476562 15.777344 12.921875 16.226562 C 13.371094 16.675781 13.621094 17.28125 13.617188 17.914062 C 13.621094 19.046875 12.824219 20.027344 11.714844 20.257812 L 11.714844 21.261719 L 15.046875 21.261719 L 15.046875 15 C 13.9375 14.769531 13.144531 13.792969 13.144531 12.660156 C 13.140625 11.34375 14.207031 10.273438 15.523438 10.269531 C 16.15625 10.269531 16.761719 10.523438 17.210938 10.96875 C 17.65625 11.417969 17.90625 12.027344 17.902344 12.660156 C 17.902344 13.792969 17.109375 14.769531 16 15 L 16 23.652344 L 18.855469 23.652344 L 18.855469 21.214844 C 17.660156 20.960938 16.851562 19.847656 16.972656 18.632812 C 17.097656 17.417969 18.113281 16.492188 19.332031 16.480469 C 20.648438 16.484375 21.714844 17.554688 21.714844 18.871094 M 28.636719 16.511719 C 28.636719 20.015625 26.039062 21.261719 23.601562 21.261719 L 23.601562 20.304688 C 24.832031 20.304688 27.6875 19.933594 27.6875 16.511719 C 27.6875 13.949219 25.746094 13.019531 24.117188 12.691406 C 23.90625 12.648438 23.75 12.46875 23.734375 12.253906 C 23.613281 10.242188 22.449219 9.535156 21.488281 9.535156 C 20.835938 9.535156 20.230469 9.84375 19.816406 10.386719 C 19.710938 10.527344 19.539062 10.597656 19.367188 10.570312 C 19.195312 10.542969 19.050781 10.429688 18.988281 10.265625 C 18.617188 9.246094 18.082031 8.394531 17.398438 7.734375 C 15.640625 6.023438 13.238281 5.558594 10.96875 6.492188 C 9.089844 7.261719 7.609375 9.488281 7.609375 11.554688 C 7.609375 11.789062 7.628906 12.015625 7.65625 12.242188 C 7.683594 12.480469 7.53125 12.703125 7.296875 12.761719 C 6.179688 13.039062 4.3125 13.890625 4.3125 16.472656 C 4.3125 16.570312 4.316406 16.664062 4.320312 16.753906 C 4.433594 18.742188 6.195312 20.304688 8.324219 20.304688 L 8.855469 20.304688 L 8.855469 21.261719 L 8.324219 21.261719 C 5.6875 21.261719 3.511719 19.304688 3.375 16.804688 C 3.367188 16.695312 3.363281 16.582031 3.363281 16.472656 C 3.363281 13.472656 5.4375 12.351562 6.671875 11.949219 C 6.664062 11.816406 6.660156 11.6875 6.660156 11.554688 C 6.660156 9.085938 8.359375 6.527344 10.613281 5.605469 C 13.238281 4.527344 16.023438 5.0625 18.058594 7.042969 C 18.6875 7.652344 19.199219 8.394531 19.601562 9.246094 C 20.136719 8.8125 20.800781 8.578125 21.488281 8.578125 C 22.898438 8.578125 24.378906 9.585938 24.652344 11.832031 C 27.226562 12.464844 28.636719 14.113281 28.636719 16.511719 "/>
</svg>
