<svg role="img" viewBox="0 0 32 32" height="32" width="32" xmlns="http://www.w3.org/2000/svg"><path d="M6 26h20V6H6ZM27.332 8.668v2.664h3.336v1.336h-3.336v2.664h3.336v1.336h-3.336v2.664h3.336v1.336h-3.336v2.664h3.336v1.336h-3.336v2a.664.664 0 0 1-.664.664h-2v3.336h-1.336v-3.336h-2.664v3.336h-1.336v-3.336h-2.664v3.336h-1.336v-3.336h-2.664v3.336h-1.336v-3.336H8.668v3.336H7.332v-3.336h-2a.664.664 0 0 1-.664-.664v-2H1.332v-1.336h3.336v-2.664H1.332v-1.336h3.336v-2.664H1.332v-1.336h3.336v-2.664H1.332v-1.336h3.336V8.668H1.332V7.332h3.336v-2c0-.367.297-.664.664-.664h2V1.332h1.336v3.336h2.664V1.332h1.336v3.336h2.664V1.332h1.336v3.336h2.664V1.332h1.336v3.336h2.664V1.332h1.336v3.336h2c.367 0 .664.297.664.664v2h3.336v1.336Zm-5.867 7.113c0 1.043.37 1.567 1.11 1.567.366 0 .718-.121 1.046-.364v-2.386a1.761 1.761 0 0 0-1.035-.336c-.379 0-.66.12-.848.37-.18.247-.273.634-.273 1.15m-.602 1.765c-.347-.43-.52-1.008-.52-1.727 0-.472.079-.89.235-1.258.14-.343.375-.636.672-.855a1.777 1.777 0 0 1 1.035-.305 2 2 0 0 1 1.41.567l.094-.426h.934v4.422c0 .75-.207 1.332-.614 1.746-.41.41-.992.613-1.75.613a3.596 3.596 0 0 1-1.632-.383v-.78c.578.19 1.097.288 1.558.288.469 0 .809-.105 1.02-.324.21-.215.316-.562.316-1.05v-.4a2.07 2.07 0 0 1-1.371.524c-.578 0-1.043-.219-1.387-.652m-4.84-1.988c.043 1.324.473 1.984 1.293 1.984.336 0 .598-.102.786-.309.187-.203.28-.488.28-.855 0-.375-.093-.66-.288-.856-.196-.195-.477-.293-.848-.293-.402 0-.808.11-1.223.329m-.535 2.078c-.394-.528-.593-1.309-.593-2.344 0-1.137.234-2.027.703-2.668.472-.633 1.132-.95 1.984-.95.266 0 .535.028.809.087.27.058.5.14.695.238v.813a4.236 4.236 0 0 0-.66-.184 4.503 4.503 0 0 0-.688-.066c-.558 0-.976.183-1.254.558-.277.371-.43.95-.46 1.727a2.918 2.918 0 0 1 1.57-.477c.578 0 1.043.176 1.394.527.352.352.528.82.528 1.403 0 .414-.094.777-.278 1.101-.183.325-.46.586-.793.754a2.5 2.5 0 0 1-1.207.274c-.773.004-1.355-.262-1.75-.793m-7.164.656H7.277v-6.469h1.27l1.941 3.856 1.98-3.856H13.7v6.469h-1.047v-4.844l-1.68 3.219H9.95l-1.625-3.203Zm0 0" fill="rgb(83.137255%, 35.686275%, 2.745098%)" fill-rule="evenodd"/></svg>