<?xml version="1.0" encoding="UTF-8"?>
<svg xmlns="http://www.w3.org/2000/svg" xmlns:xlink="http://www.w3.org/1999/xlink" width="32" height="32" viewBox="0 0 32 32">
<path fill-rule="evenodd" fill="rgb(83.137255%, 35.686275%, 2.745098%)" fill-opacity="1" d="M 20.21875 19.257812 L 19.117188 19.257812 L 19.117188 14.503906 L 20.03125 14.503906 L 20.144531 15.027344 C 20.730469 14.585938 21.339844 14.367188 21.972656 14.367188 C 22.425781 14.367188 22.773438 14.484375 23.007812 14.726562 C 23.246094 14.964844 23.363281 15.3125 23.363281 15.765625 L 23.363281 19.257812 L 22.261719 19.257812 L 22.261719 16.109375 C 22.261719 15.804688 22.199219 15.582031 22.074219 15.441406 C 21.953125 15.300781 21.753906 15.234375 21.480469 15.234375 C 21.066406 15.234375 20.644531 15.371094 20.21875 15.644531 Z M 15.832031 19.394531 C 15.214844 19.394531 14.605469 19.269531 14.039062 19.023438 L 14.039062 18.144531 C 14.71875 18.375 15.308594 18.492188 15.800781 18.492188 C 16.726562 18.492188 17.183594 18.09375 17.183594 17.296875 C 17.183594 16.910156 17.070312 16.628906 16.835938 16.453125 C 16.605469 16.273438 16.234375 16.1875 15.730469 16.1875 C 15.351562 16.1875 14.878906 16.214844 14.3125 16.277344 L 14.3125 15.570312 L 14.488281 12.789062 L 17.996094 12.789062 L 17.996094 13.675781 L 15.527344 13.675781 L 15.421875 15.402344 C 15.675781 15.351562 15.945312 15.324219 16.230469 15.324219 C 16.878906 15.324219 17.386719 15.5 17.757812 15.851562 C 18.128906 16.199219 18.316406 16.675781 18.316406 17.277344 C 18.316406 17.925781 18.089844 18.4375 17.644531 18.824219 C 17.195312 19.203125 16.589844 19.394531 15.832031 19.394531 M 9.773438 13.664062 L 10.933594 13.664062 C 11.640625 13.664062 11.996094 14.023438 11.996094 14.738281 C 11.996094 15.453125 11.632812 15.8125 10.90625 15.8125 L 9.773438 15.8125 Z M 9.773438 16.6875 L 10.914062 16.6875 L 12.425781 19.257812 L 13.5625 19.257812 L 11.894531 16.492188 C 12.304688 16.332031 12.617188 16.097656 12.832031 15.792969 C 13.046875 15.488281 13.152344 15.125 13.152344 14.703125 C 13.152344 14.117188 12.960938 13.652344 12.578125 13.304688 C 12.195312 12.960938 11.6875 12.789062 11.054688 12.789062 L 8.636719 12.789062 L 8.636719 19.257812 L 9.773438 19.257812 Z M 6 26 L 26 26 L 26 6 L 6 6 Z M 30.667969 8.667969 L 30.667969 7.332031 L 27.332031 7.332031 L 27.332031 5.332031 C 27.332031 4.964844 27.035156 4.667969 26.667969 4.667969 L 24.667969 4.667969 L 24.667969 1.332031 L 23.332031 1.332031 L 23.332031 4.667969 L 20.667969 4.667969 L 20.667969 1.332031 L 19.332031 1.332031 L 19.332031 4.667969 L 16.667969 4.667969 L 16.667969 1.332031 L 15.332031 1.332031 L 15.332031 4.667969 L 12.667969 4.667969 L 12.667969 1.332031 L 11.332031 1.332031 L 11.332031 4.667969 L 8.667969 4.667969 L 8.667969 1.332031 L 7.332031 1.332031 L 7.332031 4.667969 L 5.332031 4.667969 C 4.964844 4.667969 4.667969 4.964844 4.667969 5.332031 L 4.667969 7.332031 L 1.332031 7.332031 L 1.332031 8.667969 L 4.667969 8.667969 L 4.667969 11.332031 L 1.332031 11.332031 L 1.332031 12.667969 L 4.667969 12.667969 L 4.667969 15.332031 L 1.332031 15.332031 L 1.332031 16.667969 L 4.667969 16.667969 L 4.667969 19.332031 L 1.332031 19.332031 L 1.332031 20.667969 L 4.667969 20.667969 L 4.667969 23.332031 L 1.332031 23.332031 L 1.332031 24.667969 L 4.667969 24.667969 L 4.667969 26.667969 C 4.667969 27.035156 4.964844 27.332031 5.332031 27.332031 L 7.332031 27.332031 L 7.332031 30.667969 L 8.667969 30.667969 L 8.667969 27.332031 L 11.332031 27.332031 L 11.332031 30.667969 L 12.667969 30.667969 L 12.667969 27.332031 L 15.332031 27.332031 L 15.332031 30.667969 L 16.667969 30.667969 L 16.667969 27.332031 L 19.332031 27.332031 L 19.332031 30.667969 L 20.667969 30.667969 L 20.667969 27.332031 L 23.332031 27.332031 L 23.332031 30.667969 L 24.667969 30.667969 L 24.667969 27.332031 L 26.667969 27.332031 C 27.035156 27.332031 27.332031 27.035156 27.332031 26.667969 L 27.332031 24.667969 L 30.667969 24.667969 L 30.667969 23.332031 L 27.332031 23.332031 L 27.332031 20.667969 L 30.667969 20.667969 L 30.667969 19.332031 L 27.332031 19.332031 L 27.332031 16.667969 L 30.667969 16.667969 L 30.667969 15.332031 L 27.332031 15.332031 L 27.332031 12.667969 L 30.667969 12.667969 L 30.667969 11.332031 L 27.332031 11.332031 L 27.332031 8.667969 Z M 30.667969 8.667969 "/>
</svg>
