<?xml version="1.0" encoding="UTF-8"?>
<svg xmlns="http://www.w3.org/2000/svg" xmlns:xlink="http://www.w3.org/1999/xlink" width="32" height="32" viewBox="0 0 32 32">
<path fill-rule="evenodd" fill="rgb(83.137255%, 35.686275%, 2.745098%)" fill-opacity="1" d="M 2.753906 15.308594 L 6.65625 15.308594 L 6.65625 16.640625 L 2.753906 16.640625 C 2.375 16.640625 2.015625 16.492188 1.746094 16.226562 C 1.480469 15.957031 1.332031 15.597656 1.332031 15.21875 L 1.332031 2.753906 C 1.332031 1.96875 1.96875 1.332031 2.753906 1.332031 L 15.21875 1.332031 C 16.003906 1.332031 16.640625 1.96875 16.640625 2.753906 L 16.640625 7.238281 L 15.308594 7.238281 L 15.308594 2.753906 C 15.308594 2.707031 15.265625 2.667969 15.21875 2.667969 L 2.753906 2.667969 C 2.707031 2.667969 2.667969 2.707031 2.667969 2.753906 L 2.667969 15.21875 C 2.667969 15.265625 2.707031 15.308594 2.753906 15.308594 M 9.15625 22.292969 L 14.1875 22.292969 L 14.1875 23.625 L 9.15625 23.625 C 8.375 23.625 7.738281 22.988281 7.738281 22.207031 L 7.738281 9.738281 C 7.738281 8.957031 8.375 8.320312 9.15625 8.320312 L 21.625 8.320312 C 22.40625 8.320312 23.042969 8.957031 23.042969 9.738281 L 23.042969 14.226562 L 21.710938 14.226562 L 21.710938 9.738281 C 21.710938 9.691406 21.671875 9.652344 21.625 9.652344 L 9.15625 9.652344 C 9.109375 9.652344 9.070312 9.691406 9.070312 9.738281 L 9.070312 22.207031 C 9.070312 22.253906 9.109375 22.292969 9.15625 22.292969 M 29.234375 29.28125 L 16.640625 29.234375 L 16.640625 16.726562 C 16.640625 16.679688 16.679688 16.640625 16.726562 16.640625 L 29.191406 16.640625 C 29.242188 16.640625 29.28125 16.679688 29.28125 16.726562 Z M 29.191406 15.308594 L 16.726562 15.308594 C 15.945312 15.308594 15.308594 15.945312 15.308594 16.726562 L 15.308594 29.234375 C 15.308594 29.992188 15.925781 30.613281 16.6875 30.613281 L 29.234375 30.613281 C 29.992188 30.613281 30.613281 29.992188 30.613281 29.234375 L 30.613281 16.726562 C 30.613281 15.945312 29.976562 15.308594 29.191406 15.308594 M 29.191406 15.308594 "/>
</svg>
