<svg role="img" viewBox="0 0 32 32" xmlns="http://www.w3.org/2000/svg"><path d="M.203.203h31.594v31.594H.203Zm0 0" fill="rgb(90.588236%, 8.235294%, 48.235294%)"/><path d="m11 17.633 1.336-1.313a.45.45 0 0 0 .129-.312.48.48 0 0 0-.13-.313l-1.331-1.328-.625.621.566.57H8.918v.883h2.035l-.574.567Zm10.148.039 1.774-1.32a.45.45 0 0 0 .18-.352c0-.137-.07-.27-.18-.352l-1.774-1.32-.53.703.71.528h-1.777v.882h1.777l-.71.528ZM13.878 16c0 .938-.163 1.816-.464 2.586a7.3 7.3 0 0 1 2.594-.465c.898 0 1.797.156 2.597.465-.304-.77-.464-1.648-.464-2.586s.16-1.816.464-2.586c-1.597.613-3.597.613-5.19 0 .3.77.464 1.649.464 2.586m-2.172 4.273a.443.443 0 0 1 0-.625c.805-.796 1.285-2.16 1.285-3.648s-.48-2.852-1.285-3.648a.444.444 0 0 1 .629-.625c1.715 1.707 5.629 1.707 7.348 0a.45.45 0 0 1 .312-.133c.117 0 .23.05.313.133a.43.43 0 0 1 0 .625c-.805.796-1.282 2.16-1.282 3.648s.477 2.852 1.282 3.648a.43.43 0 0 1 0 .625.444.444 0 0 1-.625 0c-1.72-1.707-5.633-1.707-7.348 0a.43.43 0 0 1-.313.133.43.43 0 0 1-.316-.133m15.809-4.27c0-.413-.16-.796-.453-1.089a1.55 1.55 0 0 0-1.094-.45 1.544 1.544 0 0 0-1.547 1.54c0 .406.164.797.453 1.086a1.56 1.56 0 0 0 2.188 0c.292-.293.453-.676.453-1.086m.175 1.707a2.45 2.45 0 0 1-3.445 0 2.42 2.42 0 0 1-.71-1.707c0-.645.257-1.258.71-1.711a2.455 2.455 0 0 1 3.445 0 2.413 2.413 0 0 1 .001 3.418m-20.118-1.7c.004-.41-.16-.8-.453-1.085-.289-.29-.68-.45-1.09-.45a1.532 1.532 0 0 0-1.093 2.622c.582.578 1.601.578 2.183 0 .297-.293.453-.676.453-1.086m.176 1.71a2.42 2.42 0 0 1-1.719.704c-.644 0-1.261-.25-1.722-.703a2.42 2.42 0 0 1-.711-1.707c0-.645.257-1.258.71-1.711a2.443 2.443 0 0 1 3.442 0 2.4 2.4 0 0 1 .71 1.71 2.4 2.4 0 0 1-.71 1.708m14.848 4.855a9.34 9.34 0 0 1-6.625 2.727 9.34 9.34 0 0 1-6.625-2.727c-1.215-1.203-1.883-2.644-2.227-3.64l-.84.289c.38 1.082 1.106 2.652 2.442 3.976a10.24 10.24 0 0 0 7.25 2.985c2.742 0 5.312-1.063 7.25-2.985a10.5 10.5 0 0 0 2.511-3.98l-.84-.282a9.6 9.6 0 0 1-2.296 3.637M7.12 13.063l-.84-.29c.54-1.53 1.407-2.945 2.446-3.98a10.23 10.23 0 0 1 7.246-2.98c2.738 0 5.312 1.062 7.25 2.98a10.9 10.9 0 0 1 2.511 3.98l-.84.29a10 10 0 0 0-2.3-3.645 9.3 9.3 0 0 0-6.621-2.723c-2.5 0-4.856.965-6.621 2.723-.946.941-1.739 2.234-2.23 3.645" fill="rgb(100%, 100%, 100%)"/></svg>