<svg role="img" viewBox="0 0 32 32" xmlns="http://www.w3.org/2000/svg"><path d="M6 26h20V6H6ZM30.668 8.668V7.332h-3.336v-2a.664.664 0 0 0-.664-.664h-2V1.332h-1.336v3.336h-2.664V1.332h-1.336v3.336h-2.664V1.332h-1.336v3.336h-2.664V1.332h-1.336v3.336H8.668V1.332H7.332v3.336h-2a.664.664 0 0 0-.664.664v2H1.332v1.336h3.336v2.664H1.332v1.336h3.336v2.664H1.332v1.336h3.336v2.664H1.332v1.336h3.336v2.664H1.332v1.336h3.336v2c0 .367.297.664.664.664h2v3.336h1.336v-3.336h2.664v3.336h1.336v-3.336h2.664v3.336h1.336v-3.336h2.664v3.336h1.336v-3.336h2.664v3.336h1.336v-3.336h2a.664.664 0 0 0 .664-.664v-2h3.336v-1.336h-3.336v-2.664h3.336v-1.336h-3.336v-2.664h3.336v-1.336h-3.336v-2.664h3.336v-1.336h-3.336V8.668Zm-9.16 9.816h-.867v-3.73h.718l.09.41q.687-.521 1.438-.52c.355 0 .629.094.812.282q.281.281.281.816v2.742h-.867v-2.468c0-.243-.047-.414-.148-.528q-.147-.164-.469-.164-.482.002-.988.324Zm-4.192-2.847q.23-.312.723-.313.451.001.828.266v2.015a1.47 1.47 0 0 1-.844.278q-.937 0-.937-1.29-.002-.645.23-.956m.438 2.93q.65.002 1.148-.442l.09.36h.742v-5.426h-.867v1.964a1.7 1.7 0 0 0-1.07-.378q-.493-.002-.852.253a1.6 1.6 0 0 0-.55.7 2.6 2.6 0 0 0-.188 1.03c0 .595.14 1.063.418 1.415.281.348.66.523 1.129.523m-4.203.03q-.704-.001-1.38-.296v-.688q.803.27 1.349.27.52.002.8-.23.277-.23.278-.657.002-.804-1.016-.805-.327.001-.707.043v-.562l1.445-1.57h-2.074v-.7h3.027v.668l-1.523 1.496q.099-.007.203-.007.428.002.774.18.344.181.554.511.204.33.203.754 0 .462-.234.82-.233.362-.672.567a2.4 2.4 0 0 1-1.027.207m-4.637-4.503h.899q.415-.001.624.226.211.229.211.668t-.21.668-.626.227h-.898Zm0 2.476h1.004q.76 0 1.2-.422.438-.427.437-1.16t-.442-1.16c-.297-.281-.699-.426-1.207-.426H8.02v5.082h.894Zm0 0" fill="rgb(83.137256%, 35.686275%, 2.745098%)" fill-rule="evenodd"/></svg>