<svg role="img" viewBox="0 0 32 32" height="32" width="32" xmlns="http://www.w3.org/2000/svg"><path d="M6 26h20V6H6ZM27.332 8.668v2.664h3.336v1.336h-3.336v2.664h3.336v1.336h-3.336v2.664h3.336v1.336h-3.336v2.664h3.336v1.336h-3.336v2a.664.664 0 0 1-.664.664h-2v3.336h-1.336v-3.336h-2.664v3.336h-1.336v-3.336h-2.664v3.336h-1.336v-3.336h-2.664v3.336h-1.336v-3.336H8.668v3.336H7.332v-3.336h-2a.664.664 0 0 1-.664-.664v-2H1.332v-1.336h3.336v-2.664H1.332v-1.336h3.336v-2.664H1.332v-1.336h3.336v-2.664H1.332v-1.336h3.336V8.668H1.332V7.332h3.336v-2c0-.367.297-.664.664-.664h2V1.332h1.336v3.336h2.664V1.332h1.336v3.336h2.664V1.332h1.336v3.336h2.664V1.332h1.336v3.336h2.664V1.332h1.336v3.336h2c.367 0 .664.297.664.664v2h3.336v1.336ZM20.75 19.152h1.102v-4.75H20.75Zm.55-5.535c.208 0 .368-.055.485-.168.117-.11.176-.265.176-.465 0-.199-.059-.355-.176-.468-.117-.11-.277-.168-.484-.168-.207 0-.367.058-.485.168-.12.113-.18.27-.18.468 0 .2.06.356.18.465.118.114.278.168.485.168m-4.965 2.801c.043 1.324.477 1.988 1.293 1.988.336 0 .598-.101.785-.308.188-.203.281-.493.281-.86 0-.37-.097-.656-.293-.851-.191-.2-.472-.297-.847-.297a2.61 2.61 0 0 0-1.22.328m-.538 2.082c-.395-.531-.59-1.312-.59-2.344 0-1.144.234-2.035.703-2.668.469-.636 1.133-.953 1.985-.953.265 0 .535.031.804.09.274.059.504.137.696.238v.813a3.484 3.484 0 0 0-.657-.184c-.25-.047-.48-.07-.687-.07-.559 0-.977.187-1.254.558-.277.375-.43.95-.461 1.727a2.84 2.84 0 0 1 1.57-.473c.578 0 1.043.176 1.395.528.347.351.523.816.523 1.402 0 .41-.09.777-.273 1.098a1.896 1.896 0 0 1-.793.754 2.56 2.56 0 0 1-1.211.277c-.77 0-1.356-.266-1.75-.793m-5.18-.059c-.523-.546-.789-1.355-.789-2.425 0-1.102.274-1.95.82-2.543.543-.594 1.325-.891 2.344-.891.563 0 1.078.082 1.551.254v.93c-.617-.13-1.105-.196-1.457-.196-.711 0-1.238.184-1.582.551-.344.367-.516.934-.516 1.7v.222c0 .762.168 1.324.512 1.687.34.364.863.543 1.566.543.395 0 .918-.074 1.57-.23v.934c-.491.191-1.05.289-1.679.289-1.035 0-1.812-.274-2.34-.825m0 0" fill="rgb(83.137255%, 35.686275%, 2.745098%)" fill-rule="evenodd"/></svg>