<svg role="img" viewBox="0 0 32 32" xmlns="http://www.w3.org/2000/svg"><path d="M6 26h20V6H6ZM30.668 8.668V7.332h-3.336v-2a.664.664 0 0 0-.664-.664h-2V1.332h-1.336v3.336h-2.664V1.332h-1.336v3.336h-2.664V1.332h-1.336v3.336h-2.664V1.332h-1.336v3.336H8.668V1.332H7.332v3.336h-2a.664.664 0 0 0-.664.664v2H1.332v1.336h3.336v2.664H1.332v1.336h3.336v2.664H1.332v1.336h3.336v2.664H1.332v1.336h3.336v2.664H1.332v1.336h3.336v2c0 .367.297.664.664.664h2v3.336h1.336v-3.336h2.664v3.336h1.336v-3.336h2.664v3.336h1.336v-3.336h2.664v3.336h1.336v-3.336h2.664v3.336h1.336v-3.336h2a.664.664 0 0 0 .664-.664v-2h3.336v-1.336h-3.336v-2.664h3.336v-1.336h-3.336v-2.664h3.336v-1.336h-3.336v-2.664h3.336v-1.336h-3.336V8.668Zm-9.75 4.781a.6.6 0 0 1-.18-.465c0-.199.063-.355.18-.468a.7.7 0 0 1 .484-.168q.31.002.485.168.18.17.18.468 0 .3-.18.465-.175.17-.485.168c-.203 0-.367-.055-.484-.168m-.066 5.703h1.101v-4.75h-1.101ZM17.66 16.09q.555 0 .848.297.29.294.289.851c0 .367-.094.657-.281.86q-.282.31-.786.308-1.23-.001-1.293-1.988.62-.328 1.223-.328m-.008 3.203q.692-.001 1.207-.277c.344-.18.61-.434.793-.754q.277-.481.278-1.098c0-.586-.176-1.05-.528-1.402q-.527-.528-1.394-.528-.832 0-1.57.473.045-1.165.46-1.727.417-.556 1.254-.558.315 0 .688.07.374.069.66.184v-.813a2.8 2.8 0 0 0-.695-.238 4 4 0 0 0-.809-.09q-1.276 0-1.984.953-.703.95-.703 2.668-.002 1.548.593 2.344.591.792 1.75.793m-6.507-5.73h1.16q1.061 0 1.062 1.074 0 1.071-1.09 1.07h-1.132Zm0 3.023h1.14l1.512 2.566h1.137l-1.668-2.761q.615-.244.937-.7.321-.458.32-1.093 0-.879-.574-1.395-.574-.521-1.523-.52h-2.418v6.47h1.137Zm0 0" fill="rgb(83.137256%, 35.686275%, 2.745098%)" fill-rule="evenodd"/></svg>