<?xml version="1.0" encoding="UTF-8"?>
<svg xmlns="http://www.w3.org/2000/svg" xmlns:xlink="http://www.w3.org/1999/xlink" width="32" height="32" viewBox="0 0 32 32">
<path fill-rule="nonzero" fill="rgb(100%, 100%, 100%)" fill-opacity="1" d="M 0.203125 0.203125 L 32.203125 0.203125 L 32.203125 32.203125 L 0.203125 32.203125 Z M 0.203125 0.203125 "/>
<path fill-rule="nonzero" fill="rgb(54.901961%, 30.980392%, 100%)" fill-opacity="1" d="M 0.203125 0.203125 L 31.796875 0.203125 L 31.796875 31.796875 L 0.203125 31.796875 Z M 0.203125 0.203125 "/>
<path fill-rule="nonzero" fill="rgb(100%, 100%, 100%)" fill-opacity="1" d="M 10.945312 22.570312 C 7.316406 22.566406 4.378906 19.628906 4.375 16 C 4.378906 12.371094 7.316406 9.433594 10.945312 9.429688 C 14.574219 9.433594 17.511719 12.371094 17.515625 16 C 17.511719 19.628906 14.574219 22.566406 10.945312 22.570312 M 26.109375 25.605469 C 26.109375 26.722656 25.203125 27.625 24.085938 27.625 C 22.96875 27.625 22.0625 26.714844 22.066406 25.601562 C 22.066406 24.484375 22.972656 23.578125 24.089844 23.582031 C 25.207031 23.582031 26.109375 24.488281 26.109375 25.605469 M 24.089844 4.375 C 25.207031 4.375 26.109375 5.28125 26.109375 6.398438 C 26.109375 7.515625 25.203125 8.421875 24.085938 8.417969 C 22.96875 8.417969 22.0625 7.511719 22.066406 6.394531 C 22.066406 5.277344 22.972656 4.375 24.089844 4.375 M 25.605469 13.980469 C 26.71875 13.980469 27.625 14.882812 27.625 16 C 27.625 17.117188 26.71875 18.019531 25.605469 18.019531 C 24.488281 18.019531 23.585938 17.117188 23.585938 16 C 23.585938 14.882812 24.488281 13.980469 25.605469 13.980469 M 18.503906 16.507812 L 22.617188 16.507812 C 22.867188 17.964844 24.128906 19.03125 25.605469 19.035156 C 27.28125 19.035156 28.640625 17.675781 28.640625 16 C 28.640625 14.324219 27.28125 12.964844 25.605469 12.964844 C 24.128906 12.96875 22.867188 14.035156 22.617188 15.492188 L 18.503906 15.492188 C 18.4375 14.558594 18.203125 13.640625 17.804688 12.792969 L 22.289062 8.835938 C 22.808594 9.222656 23.441406 9.429688 24.089844 9.429688 C 25.742188 9.398438 27.066406 8.050781 27.066406 6.398438 C 27.066406 4.742188 25.742188 3.394531 24.089844 3.363281 C 22.414062 3.363281 21.058594 4.722656 21.054688 6.394531 C 21.054688 7.03125 21.253906 7.621094 21.585938 8.105469 L 17.304688 11.882812 C 15.910156 9.722656 13.515625 8.417969 10.945312 8.417969 C 6.765625 8.417969 3.363281 11.820312 3.363281 16 C 3.363281 20.179688 6.765625 23.582031 10.945312 23.582031 C 13.515625 23.582031 15.910156 22.277344 17.304688 20.117188 L 21.585938 23.894531 C 21.238281 24.398438 21.054688 24.996094 21.054688 25.605469 C 21.058594 27.28125 22.414062 28.636719 24.089844 28.636719 C 25.746094 28.605469 27.070312 27.257812 27.070312 25.601562 C 27.070312 23.949219 25.742188 22.601562 24.089844 22.570312 C 23.441406 22.570312 22.8125 22.777344 22.289062 23.164062 L 17.804688 19.207031 C 18.203125 18.359375 18.441406 17.441406 18.503906 16.507812 "/>
</svg>
