<svg role="img" viewBox="0 0 32 32" xmlns="http://www.w3.org/2000/svg"><path d="M20.238 15.195c-3.086 3.153-8.078 3.617-10.781 3.614 2.504-1.914 5.07-4.196 7.508-6.684 2.547-2.598 4.87-5.348 6.812-8.035.012 2.773-.43 7.93-3.539 11.105M12.23 5.672c.075-.067.153-.121.23-.184.165-.129.325-.25.493-.367q.141-.094.281-.184.382-.245.782-.46c.187-.098.37-.188.562-.278q.116-.06.238-.113.398-.177.801-.324.11-.04.215-.075.306-.107.613-.203l.328-.09q.252-.07.504-.136.172-.043.344-.078.246-.06.492-.106l.328-.062q.269-.047.532-.086l.261-.04q.375-.052.73-.09c.11-.007.212-.019.313-.026l.418-.036q.17-.009.328-.02.188-.009.364-.015l.308-.011c.114-.004.223-.004.332-.008h.27q.34-.002.68.007c.058 0 .113.004.168.004-1.989 2.829-4.434 5.75-7.133 8.5-2.594 2.649-5.336 5.063-7.985 7.032 0-.047-.004-.094-.004-.141a9 9 0 0 1-.007-.316c-.004-.078-.004-.168-.004-.254v-.332c0-.11.004-.227.004-.34.004-.113.004-.219.007-.336q.013-.334.032-.692c.004-.09.015-.183.02-.273q.015-.246.038-.504l.035-.328c.02-.164.036-.324.059-.488q.02-.177.05-.36.035-.246.075-.492l.07-.379q.047-.245.098-.496.042-.194.09-.387.059-.25.129-.5c.031-.128.07-.261.11-.39q.074-.25.155-.5c.043-.13.09-.258.133-.387q.096-.251.195-.496c.051-.125.102-.254.157-.379q.111-.246.234-.492l.18-.36q.136-.25.285-.496l.195-.32q.177-.263.371-.52c.063-.081.121-.171.184-.253q.298-.376.637-.723.323-.33.675-.617m12.79-3.645q-.005-.007-.004-.015a.8.8 0 0 0-.055-.184q-.002-.007-.004-.008c-.004-.011-.016-.023-.02-.035a1 1 0 0 0-.093-.129q-.024-.024-.047-.043a1 1 0 0 0-.113-.082l-.055-.031a.8.8 0 0 0-.192-.059c-.363-.043-8.992-1.03-13.835 3.914-3.864 3.946-4.028 10.336-3.91 12.946h-.02v12.36h1.332V20.097c.398.027.922.054 1.555.054 3.004 0 8.234-.554 11.632-4.023 4.836-4.942 3.872-13.73 3.829-14.102" fill="rgb(83.137256%, 35.686275%, 2.745098%)" fill-rule="evenodd"/></svg>