<?xml version="1.0" encoding="UTF-8"?>
<svg xmlns="http://www.w3.org/2000/svg" xmlns:xlink="http://www.w3.org/1999/xlink" width="32" height="32" viewBox="0 0 32 32">
<defs>
<linearGradient id="linear-pattern-0" gradientUnits="userSpaceOnUse" x1="0" y1="1" x2="1" y2="0" gradientTransform="matrix(32, 0, 0, 32, 0, 0)">
<stop offset="0" stop-color="rgb(74.117647%, 3.137255%, 8.627451%)" stop-opacity="1"/>
<stop offset="1" stop-color="rgb(100%, 32.156863%, 32.156863%)" stop-opacity="1"/>
</linearGradient>
</defs>
<rect x="-3.2" y="-3.2" width="38.4" height="38.4" fill="url(#linear-pattern-0)"/>
<path fill-rule="nonzero" fill="rgb(100%, 100%, 100%)" fill-opacity="1" d="M 5.601562 23.601562 L 26.398438 23.601562 L 26.398438 8.398438 L 5.601562 8.398438 Z M 27.199219 8 L 27.199219 24 C 27.199219 24.222656 27.019531 24.398438 26.800781 24.398438 L 5.199219 24.398438 C 4.980469 24.398438 4.800781 24.222656 4.800781 24 L 4.800781 8 C 4.800781 7.777344 4.980469 7.601562 5.199219 7.601562 L 26.800781 7.601562 C 27.019531 7.601562 27.199219 7.777344 27.199219 8 M 17.601562 19.199219 L 23.601562 19.199219 L 23.601562 18.398438 L 17.601562 18.398438 Z M 22.800781 16.800781 L 24.800781 16.800781 L 24.800781 16 L 22.800781 16 Z M 17.601562 16.800781 L 20.800781 16.800781 L 20.800781 16 L 17.601562 16 Z M 11.601562 18.398438 C 11.601562 18.179688 11.421875 18 11.199219 18 C 10.980469 18 10.800781 18.179688 10.800781 18.398438 C 10.800781 18.621094 10.980469 18.800781 11.199219 18.800781 C 11.421875 18.800781 11.601562 18.621094 11.601562 18.398438 M 12.398438 18.398438 C 12.398438 18.921875 12.0625 19.359375 11.601562 19.527344 L 11.601562 20.398438 L 10.800781 20.398438 L 10.800781 19.527344 C 10.335938 19.359375 10 18.921875 10 18.398438 C 10 17.738281 10.539062 17.199219 11.199219 17.199219 C 11.863281 17.199219 12.398438 17.738281 12.398438 18.398438 M 7.601562 21.597656 L 14.796875 21.601562 L 14.796875 20 L 13.199219 20 L 13.199219 19.199219 L 14.796875 19.199219 L 14.800781 18 L 13.199219 18 L 13.199219 17.199219 L 14.800781 17.199219 L 14.800781 16.003906 L 7.601562 16 Z M 8.800781 15.199219 L 13.601562 15.203125 L 13.601562 12.398438 C 13.601562 11.480469 12.480469 10.671875 11.199219 10.671875 C 9.921875 10.671875 8.800781 11.476562 8.800781 12.398438 Z M 6.800781 21.996094 L 6.800781 15.601562 C 6.800781 15.378906 6.980469 15.199219 7.203125 15.199219 L 8 15.199219 L 8 12.398438 C 8 11.003906 9.4375 9.871094 11.199219 9.871094 C 12.964844 9.871094 14.398438 11.007812 14.398438 12.398438 L 14.398438 15.203125 L 15.199219 15.203125 C 15.421875 15.203125 15.601562 15.382812 15.601562 15.601562 L 15.597656 22 C 15.597656 22.222656 15.417969 22.398438 15.199219 22.398438 L 7.199219 22.398438 C 6.980469 22.398438 6.800781 22.21875 6.800781 21.996094 M 24 14.398438 L 24.800781 14.398438 L 24.800781 13.601562 L 24 13.601562 Z M 17.601562 14.398438 L 22 14.398438 L 22 13.601562 L 17.601562 13.601562 Z M 17.601562 14.398438 "/>
</svg>
