<svg role="img" viewBox="0 0 32 32" xmlns="http://www.w3.org/2000/svg"><path d="M6 26h20V6H6ZM30.668 8.668V7.332h-3.336v-2a.664.664 0 0 0-.664-.664h-2V1.332h-1.336v3.336h-2.664V1.332h-1.336v3.336h-2.664V1.332h-1.336v3.336h-2.664V1.332h-1.336v3.336H8.668V1.332H7.332v3.336h-2a.664.664 0 0 0-.664.664v2H1.332v1.336h3.336v2.664H1.332v1.336h3.336v2.664H1.332v1.336h3.336v2.664H1.332v1.336h3.336v2.664H1.332v1.336h3.336v2c0 .367.297.664.664.664h2v3.336h1.336v-3.336h2.664v3.336h1.336v-3.336h2.664v3.336h1.336v-3.336h2.664v3.336h1.336v-3.336h2.664v3.336h1.336v-3.336h2a.664.664 0 0 0 .664-.664v-2h3.336v-1.336h-3.336v-2.664h3.336v-1.336h-3.336v-2.664h3.336v-1.336h-3.336v-2.664h3.336v-1.336h-3.336V8.668Zm-9.3 6.969q.229-.312.722-.313c.305 0 .578.09.828.266v2.015a1.47 1.47 0 0 1-.844.278q-.937 0-.937-1.29.001-.645.23-.956m.437 2.93q.649.002 1.152-.442l.086.36h.742v-5.426h-.867v1.964a1.7 1.7 0 0 0-1.07-.378q-.49-.002-.852.253a1.57 1.57 0 0 0-.547.7 2.6 2.6 0 0 0-.191 1.03c0 .595.14 1.063.422 1.415q.42.523 1.125.523m-3.059-.938q-.215.17-.441.258-.231.093-.438.093a.53.53 0 0 1-.394-.144q-.141-.141-.141-.398-.001-.593.742-.594.293 0 .672.082Zm-.851-1.328c-.438 0-.79.105-1.051.324q-.394.32-.395.863c0 .328.11.594.32.801.215.203.493.309.833.309q.31-.001.62-.125a2 2 0 0 0 .567-.348l.066.36h.758v-2.633q-.001-.623-.347-.915-.351-.292-1.082-.292c-.266 0-.536.027-.801.078a2.7 2.7 0 0 0-.676.222v.606c.496-.16.93-.239 1.313-.239q.404-.001.566.145.159.148.16.52v.433a3.6 3.6 0 0 0-.851-.11m-4.012 2.297c-.488 0-.957-.102-1.406-.297v-.688q.802.27 1.386.27 1.085 0 1.086-.938c0-.3-.094-.523-.273-.664q-.275-.206-.871-.207-.444 0-1.117.074v-.558l.14-2.188h2.758v.7h-1.941l-.082 1.355q.298-.059.636-.059.76 0 1.2.41.435.412.437 1.122 0 .765-.527 1.215-.532.451-1.426.453M9.09 14.094H10q.832 0 .832.844 0 .843-.852.843h-.89Zm0 2.375h.894l1.188 2.015h.894l-1.312-2.168q.481-.193.734-.55c.172-.239.254-.528.254-.86q.001-.687-.449-1.094c-.3-.273-.703-.41-1.2-.41H8.192v5.082h.899Zm0 0" fill="rgb(83.137256%, 35.686275%, 2.745098%)" fill-rule="evenodd"/></svg>