<svg role="img" viewBox="0 0 32 32" xmlns="http://www.w3.org/2000/svg"><path d="M6 26h20V6H6ZM27.332 8.668v2.664h3.336v1.336h-3.336v2.664h3.336v1.336h-3.336v2.664h3.336v1.336h-3.336v2.664h3.336v1.336h-3.336v2a.664.664 0 0 1-.664.664h-2v3.336h-1.336v-3.336h-2.664v3.336h-1.336v-3.336h-2.664v3.336h-1.336v-3.336h-2.664v3.336h-1.336v-3.336H8.668v3.336H7.332v-3.336h-2a.664.664 0 0 1-.664-.664v-2H1.332v-1.336h3.336v-2.664H1.332v-1.336h3.336v-2.664H1.332v-1.336h3.336v-2.664H1.332v-1.336h3.336V8.668H1.332V7.332h3.336v-2c0-.367.297-.664.664-.664h2V1.332h1.336v3.336h2.664V1.332h1.336v3.336h2.664V1.332h1.336v3.336h2.664V1.332h1.336v3.336h2.664V1.332h1.336v3.336h2c.367 0 .664.297.664.664v2h3.336v1.336Zm-5.227 8.496a4.3 4.3 0 0 0-.851-.102q-.95-.001-.95.754.001.33.184.512.183.18.5.18.263 0 .555-.117t.562-.328Zm0-.652v-.551c0-.316-.066-.54-.203-.664q-.204-.186-.718-.184-.728 0-1.672.305v-.773q.353-.176.86-.282.508-.1 1.023-.101.931 0 1.37.375.444.37.442 1.164v3.351h-.96l-.083-.457q-.329.28-.723.438-.397.159-.789.16c-.437 0-.789-.133-1.058-.39q-.409-.393-.407-1.02 0-.691.497-1.102.502-.41 1.34-.41.495 0 1.081.14m-7-.094q.066 1.987 1.297 1.988.498.001.785-.308c.188-.203.282-.493.282-.86q0-.557-.293-.851-.29-.299-.848-.297-.599 0-1.223.328M14.57 18.5q-.592-.796-.593-2.344-.001-1.717.707-2.668.703-.953 1.98-.953.405 0 .809.09.407.088.695.238v.813a3.4 3.4 0 0 0-.66-.184 3.7 3.7 0 0 0-.688-.07q-.838 0-1.25.558-.416.562-.465 1.727a2.86 2.86 0 0 1 1.57-.473c.583 0 1.044.176 1.395.528q.528.525.528 1.402.001.616-.274 1.098c-.187.32-.449.574-.793.754q-.52.276-1.21.277-1.157-.001-1.75-.793m-5.18-.059q-.79-.82-.788-2.425 0-1.653.816-2.543.82-.891 2.348-.891a4.5 4.5 0 0 1 1.55.254v.93q-.932-.196-1.46-.196-1.062 0-1.579.551c-.343.367-.52.934-.52 1.7v.222q0 1.143.516 1.687.511.544 1.567.543.591.002 1.57-.23v.934c-.492.191-1.055.289-1.68.289-1.035 0-1.812-.274-2.34-.825m0 0" fill="rgb(83.137256%, 35.686275%, 2.745098%)" fill-rule="evenodd"/></svg>