<?xml version="1.0" encoding="UTF-8"?>
<svg xmlns="http://www.w3.org/2000/svg" xmlns:xlink="http://www.w3.org/1999/xlink" width="32" height="32" viewBox="0 0 32 32">
<path fill-rule="evenodd" fill="rgb(83.137255%, 35.686275%, 2.745098%)" fill-opacity="1" d="M 18.511719 19.339844 C 17.894531 19.34375 17.285156 19.214844 16.71875 18.964844 L 16.71875 18.089844 C 17.398438 18.320312 17.988281 18.433594 18.480469 18.433594 C 19.402344 18.433594 19.863281 18.039062 19.863281 17.242188 C 19.863281 16.855469 19.75 16.574219 19.515625 16.394531 C 19.285156 16.21875 18.914062 16.128906 18.410156 16.128906 C 18.03125 16.128906 17.558594 16.160156 16.988281 16.222656 L 16.988281 15.515625 L 17.167969 12.734375 L 20.675781 12.734375 L 20.675781 13.621094 L 18.207031 13.621094 L 18.101562 15.347656 C 18.355469 15.296875 18.625 15.269531 18.910156 15.269531 C 19.558594 15.269531 20.066406 15.445312 20.4375 15.792969 C 20.808594 16.140625 20.992188 16.617188 20.992188 17.222656 C 20.992188 17.871094 20.769531 18.382812 20.320312 18.765625 C 19.875 19.148438 19.269531 19.339844 18.511719 19.339844 M 11.796875 18.492188 C 11.269531 17.941406 11.007812 17.132812 11.007812 16.066406 C 11.007812 14.964844 11.28125 14.117188 11.824219 13.519531 C 12.367188 12.925781 13.152344 12.628906 14.171875 12.628906 C 14.699219 12.625 15.222656 12.710938 15.71875 12.882812 L 15.71875 13.816406 C 15.101562 13.683594 14.613281 13.621094 14.261719 13.621094 C 13.554688 13.621094 13.027344 13.800781 12.683594 14.171875 C 12.335938 14.539062 12.164062 15.101562 12.164062 15.867188 L 12.164062 16.09375 C 12.164062 16.851562 12.335938 17.414062 12.675781 17.777344 C 13.019531 18.140625 13.542969 18.324219 14.242188 18.324219 C 14.636719 18.324219 15.164062 18.246094 15.816406 18.089844 L 15.816406 19.023438 C 15.324219 19.214844 14.761719 19.3125 14.132812 19.3125 C 13.101562 19.3125 12.320312 19.039062 11.796875 18.492188 M 6 26 L 26 26 L 26 6 L 6 6 Z M 30.667969 8.667969 L 30.667969 7.332031 L 27.332031 7.332031 L 27.332031 5.332031 C 27.332031 4.964844 27.035156 4.667969 26.667969 4.667969 L 24.667969 4.667969 L 24.667969 1.332031 L 23.332031 1.332031 L 23.332031 4.667969 L 20.667969 4.667969 L 20.667969 1.332031 L 19.332031 1.332031 L 19.332031 4.667969 L 16.667969 4.667969 L 16.667969 1.332031 L 15.332031 1.332031 L 15.332031 4.667969 L 12.667969 4.667969 L 12.667969 1.332031 L 11.332031 1.332031 L 11.332031 4.667969 L 8.667969 4.667969 L 8.667969 1.332031 L 7.332031 1.332031 L 7.332031 4.667969 L 5.332031 4.667969 C 4.964844 4.667969 4.667969 4.964844 4.667969 5.332031 L 4.667969 7.332031 L 1.332031 7.332031 L 1.332031 8.667969 L 4.667969 8.667969 L 4.667969 11.332031 L 1.332031 11.332031 L 1.332031 12.667969 L 4.667969 12.667969 L 4.667969 15.332031 L 1.332031 15.332031 L 1.332031 16.667969 L 4.667969 16.667969 L 4.667969 19.332031 L 1.332031 19.332031 L 1.332031 20.667969 L 4.667969 20.667969 L 4.667969 23.332031 L 1.332031 23.332031 L 1.332031 24.667969 L 4.667969 24.667969 L 4.667969 26.667969 C 4.667969 27.035156 4.964844 27.332031 5.332031 27.332031 L 7.332031 27.332031 L 7.332031 30.667969 L 8.667969 30.667969 L 8.667969 27.332031 L 11.332031 27.332031 L 11.332031 30.667969 L 12.667969 30.667969 L 12.667969 27.332031 L 15.332031 27.332031 L 15.332031 30.667969 L 16.667969 30.667969 L 16.667969 27.332031 L 19.332031 27.332031 L 19.332031 30.667969 L 20.667969 30.667969 L 20.667969 27.332031 L 23.332031 27.332031 L 23.332031 30.667969 L 24.667969 30.667969 L 24.667969 27.332031 L 26.667969 27.332031 C 27.035156 27.332031 27.332031 27.035156 27.332031 26.667969 L 27.332031 24.667969 L 30.667969 24.667969 L 30.667969 23.332031 L 27.332031 23.332031 L 27.332031 20.667969 L 30.667969 20.667969 L 30.667969 19.332031 L 27.332031 19.332031 L 27.332031 16.667969 L 30.667969 16.667969 L 30.667969 15.332031 L 27.332031 15.332031 L 27.332031 12.667969 L 30.667969 12.667969 L 30.667969 11.332031 L 27.332031 11.332031 L 27.332031 8.667969 Z M 30.667969 8.667969 "/>
</svg>
