<?xml version="1.0" encoding="UTF-8"?>
<svg xmlns="http://www.w3.org/2000/svg" xmlns:xlink="http://www.w3.org/1999/xlink" width="32" height="32" viewBox="0 0 32 32">
<path fill-rule="evenodd" fill="rgb(83.137255%, 35.686275%, 2.745098%)" fill-opacity="1" d="M 20.253906 15.570312 C 20.433594 15.324219 20.71875 15.199219 21.097656 15.199219 C 21.464844 15.199219 21.808594 15.308594 22.132812 15.535156 L 22.132812 17.921875 C 21.835938 18.15625 21.46875 18.285156 21.089844 18.289062 C 20.347656 18.289062 19.976562 17.765625 19.976562 16.71875 C 19.976562 16.203125 20.070312 15.820312 20.253906 15.570312 M 20.761719 19.136719 C 21.269531 19.140625 21.757812 18.953125 22.132812 18.613281 L 22.132812 19.015625 C 22.132812 19.5 22.027344 19.851562 21.816406 20.066406 C 21.605469 20.28125 21.265625 20.386719 20.796875 20.386719 C 20.339844 20.386719 19.820312 20.289062 19.238281 20.097656 L 19.238281 20.882812 C 19.746094 21.136719 20.304688 21.265625 20.871094 21.265625 C 21.628906 21.265625 22.210938 21.058594 22.621094 20.648438 C 23.03125 20.238281 23.234375 19.65625 23.234375 18.902344 L 23.234375 14.480469 L 22.300781 14.480469 L 22.207031 14.910156 C 21.832031 14.539062 21.324219 14.335938 20.796875 14.339844 C 20.402344 14.339844 20.054688 14.441406 19.761719 14.648438 C 19.460938 14.863281 19.226562 15.160156 19.089844 15.503906 C 18.925781 15.902344 18.84375 16.328125 18.855469 16.757812 C 18.855469 17.480469 19.03125 18.054688 19.375 18.488281 C 19.71875 18.921875 20.183594 19.136719 20.761719 19.136719 M 10.332031 13.695312 L 8.304688 13.695312 L 8.304688 12.761719 L 13.496094 12.761719 L 13.496094 13.695312 L 11.46875 13.695312 L 11.46875 19.230469 L 10.332031 19.230469 Z M 16.269531 14.164062 L 16.269531 17.007812 L 14.320312 17.007812 Z M 13.210938 17.886719 L 16.269531 17.886719 L 16.269531 19.230469 L 17.382812 19.230469 L 17.382812 17.886719 L 18.25 17.886719 L 18.25 17.007812 L 17.382812 17.007812 L 17.382812 12.761719 L 16.226562 12.761719 L 13.210938 17.054688 Z M 6 26 L 26 26 L 26 6 L 6 6 Z M 30.667969 8.667969 L 30.667969 7.332031 L 27.332031 7.332031 L 27.332031 5.332031 C 27.332031 4.964844 27.035156 4.667969 26.667969 4.667969 L 24.667969 4.667969 L 24.667969 1.332031 L 23.332031 1.332031 L 23.332031 4.667969 L 20.667969 4.667969 L 20.667969 1.332031 L 19.332031 1.332031 L 19.332031 4.667969 L 16.667969 4.667969 L 16.667969 1.332031 L 15.332031 1.332031 L 15.332031 4.667969 L 12.667969 4.667969 L 12.667969 1.332031 L 11.332031 1.332031 L 11.332031 4.667969 L 8.667969 4.667969 L 8.667969 1.332031 L 7.332031 1.332031 L 7.332031 4.667969 L 5.332031 4.667969 C 4.964844 4.667969 4.667969 4.964844 4.667969 5.332031 L 4.667969 7.332031 L 1.332031 7.332031 L 1.332031 8.667969 L 4.667969 8.667969 L 4.667969 11.332031 L 1.332031 11.332031 L 1.332031 12.667969 L 4.667969 12.667969 L 4.667969 15.332031 L 1.332031 15.332031 L 1.332031 16.667969 L 4.667969 16.667969 L 4.667969 19.332031 L 1.332031 19.332031 L 1.332031 20.667969 L 4.667969 20.667969 L 4.667969 23.332031 L 1.332031 23.332031 L 1.332031 24.667969 L 4.667969 24.667969 L 4.667969 26.667969 C 4.667969 27.035156 4.964844 27.332031 5.332031 27.332031 L 7.332031 27.332031 L 7.332031 30.667969 L 8.667969 30.667969 L 8.667969 27.332031 L 11.332031 27.332031 L 11.332031 30.667969 L 12.667969 30.667969 L 12.667969 27.332031 L 15.332031 27.332031 L 15.332031 30.667969 L 16.667969 30.667969 L 16.667969 27.332031 L 19.332031 27.332031 L 19.332031 30.667969 L 20.667969 30.667969 L 20.667969 27.332031 L 23.332031 27.332031 L 23.332031 30.667969 L 24.667969 30.667969 L 24.667969 27.332031 L 26.667969 27.332031 C 27.035156 27.332031 27.332031 27.035156 27.332031 26.667969 L 27.332031 24.667969 L 30.667969 24.667969 L 30.667969 23.332031 L 27.332031 23.332031 L 27.332031 20.667969 L 30.667969 20.667969 L 30.667969 19.332031 L 27.332031 19.332031 L 27.332031 16.667969 L 30.667969 16.667969 L 30.667969 15.332031 L 27.332031 15.332031 L 27.332031 12.667969 L 30.667969 12.667969 L 30.667969 11.332031 L 27.332031 11.332031 L 27.332031 8.667969 Z M 30.667969 8.667969 "/>
</svg>
