<svg role="img" viewBox="0 0 32 32" height="32" width="32" xmlns="http://www.w3.org/2000/svg"><path d="m17.531 16.98 1.95-2.847v2.847Zm1.95 2.22h1.113v-1.345h.867v-.875h-.867v-4.246h-1.16l-3.012 4.29v.831h3.058Zm-7.215-5.59h1.16c.707 0 1.062.359 1.062 1.074 0 .714-.363 1.074-1.09 1.074h-1.132Zm0 3.023h1.14l1.512 2.566h1.137l-1.668-2.762c.41-.16.722-.394.937-.699.215-.304.32-.668.32-1.093 0-.582-.19-1.047-.574-1.395-.383-.344-.89-.516-1.523-.516h-2.418V19.2h1.137ZM6 26h20V6H6ZM30.668 8.668V7.332h-3.336v-2a.664.664 0 0 0-.664-.664h-2V1.332h-1.336v3.336h-2.664V1.332h-1.336v3.336h-2.664V1.332h-1.336v3.336h-2.664V1.332h-1.336v3.336H8.668V1.332H7.332v3.336h-2a.664.664 0 0 0-.664.664v2H1.332v1.336h3.336v2.664H1.332v1.336h3.336v2.664H1.332v1.336h3.336v2.664H1.332v1.336h3.336v2.664H1.332v1.336h3.336v2c0 .367.297.664.664.664h2v3.336h1.336v-3.336h2.664v3.336h1.336v-3.336h2.664v3.336h1.336v-3.336h2.664v3.336h1.336v-3.336h2.664v3.336h1.336v-3.336h2a.664.664 0 0 0 .664-.664v-2h3.336v-1.336h-3.336v-2.664h3.336v-1.336h-3.336v-2.664h3.336v-1.336h-3.336v-2.664h3.336v-1.336h-3.336V8.668Zm0 0" fill="rgb(83.137255%, 35.686275%, 2.745098%)" fill-rule="evenodd"/></svg>