<svg role="img" viewBox="0 0 32 32" height="32" width="32" xmlns="http://www.w3.org/2000/svg"><path d="M6 26h20V6H6ZM30.668 8.668V7.332h-3.336v-2a.664.664 0 0 0-.664-.664h-2V1.332h-1.336v3.336h-2.664V1.332h-1.336v3.336h-2.664V1.332h-1.336v3.336h-2.664V1.332h-1.336v3.336H8.668V1.332H7.332v3.336h-2a.664.664 0 0 0-.664.664v2H1.332v1.336h3.336v2.664H1.332v1.336h3.336v2.664H1.332v1.336h3.336v2.664H1.332v1.336h3.336v2.664H1.332v1.336h3.336v2c0 .367.297.664.664.664h2v3.336h1.336v-3.336h2.664v3.336h1.336v-3.336h2.664v3.336h1.336v-3.336h2.664v3.336h1.336v-3.336h2.664v3.336h1.336v-3.336h2a.664.664 0 0 0 .664-.664v-2h3.336v-1.336h-3.336v-2.664h3.336v-1.336h-3.336v-2.664h3.336v-1.336h-3.336v-2.664h3.336v-1.336h-3.336V8.668Zm-8.352 9.215c.29 0 .57-.09.844-.278V15.59a1.404 1.404 0 0 0-.828-.266c-.328 0-.566.106-.723.313-.152.207-.23.527-.23.957 0 .86.312 1.289.937 1.289m.97.601-.087-.359c-.312.29-.726.445-1.152.441-.469 0-.844-.175-1.125-.523-.281-.352-.422-.82-.422-1.414 0-.39.063-.734.188-1.031.128-.301.312-.532.55-.7.242-.171.524-.253.852-.253.39 0 .75.125 1.07.378V13.06h.867v5.425Zm-5.177-.504c.137 0 .282-.03.434-.093.156-.059.3-.145.445-.258v-.703a3.258 3.258 0 0 0-.672-.082c-.496 0-.742.199-.742.593 0 .172.047.305.14.399.106.102.25.152.395.144m.989.504-.067-.359c-.168.148-.36.262-.566.348a1.678 1.678 0 0 1-.621.125c-.34 0-.621-.106-.832-.309-.215-.21-.328-.5-.32-.8 0-.364.132-.65.394-.864.262-.219.613-.324 1.05-.324.262 0 .544.035.852.11v-.434c0-.247-.054-.422-.16-.52-.11-.098-.297-.145-.566-.145-.383 0-.82.079-1.313.239v-.606c.184-.093.41-.168.676-.222a4.26 4.26 0 0 1 .8-.078c.49 0 .848.097 1.083.293.23.195.344.5.344.914v2.632Zm-4.246-1.742v-2.238l-1.532 2.238Zm0 1.742V17.43h-2.407v-.653l2.371-3.375h.91v3.34h.68v.688h-.68v1.054Zm-4.497-.664c.235 0 .465-.023.692-.066V16.41h-1.05v-.703h1.944v2.492a3.15 3.15 0 0 1-.785.278c-.3.066-.61.097-.926.097-.812 0-1.433-.222-1.859-.668-.426-.445-.64-1.086-.64-1.93 0-.855.222-1.511.66-1.968.437-.457 1.07-.684 1.894-.684.555 0 1.047.098 1.48.301v.71c-.515-.17-.988-.257-1.421-.257-.578 0-1.004.149-1.285.442-.278.293-.418.75-.418 1.37v.153c0 .613.136 1.059.414 1.348.277.285.71.43 1.3.43m0 0" fill="rgb(83.137255%, 35.686275%, 2.745098%)" fill-rule="evenodd"/></svg>