<svg role="img" viewBox="0 0 32 32" height="32" width="32" xmlns="http://www.w3.org/2000/svg"><path d="M6 26h20V6H6ZM27.332 8.668v2.664h3.336v1.336h-3.336v2.664h3.336v1.336h-3.336v2.664h3.336v1.336h-3.336v2.664h3.336v1.336h-3.336v2a.664.664 0 0 1-.664.664h-2v3.336h-1.336v-3.336h-2.664v3.336h-1.336v-3.336h-2.664v3.336h-1.336v-3.336h-2.664v3.336h-1.336v-3.336H8.668v3.336H7.332v-3.336h-2a.664.664 0 0 1-.664-.664v-2H1.332v-1.336h3.336v-2.664H1.332v-1.336h3.336v-2.664H1.332v-1.336h3.336v-2.664H1.332v-1.336h3.336V8.668H1.332V7.332h3.336v-2c0-.367.297-.664.664-.664h2V1.332h1.336v3.336h2.664V1.332h1.336v3.336h2.664V1.332h1.336v3.336h2.664V1.332h1.336v3.336h2.664V1.332h1.336v3.336h2c.367 0 .664.297.664.664v2h3.336v1.336Zm-4.828 6.7c.293-.184.574-.278.855-.278.184 0 .32.047.407.14.082.098.125.247.125.454v2.136h.746v-2.37c0-.305-.078-.544-.239-.704-.16-.164-.394-.246-.703-.246-.43 0-.843.152-1.242.45l-.074-.352h-.621v3.222h.746Zm-3.336.519h1.387v-.051c0-.258-.055-.453-.16-.59-.106-.133-.262-.2-.465-.2a.644.644 0 0 0-.528.227c-.136.153-.215.356-.234.614m-.352 1.597c-.273-.289-.41-.707-.41-1.254 0-.546.133-.968.403-1.273.27-.305.644-.457 1.125-.457.414 0 .73.113.953.34.218.226.332.547.332.96 0 .22-.02.415-.055.587h-1.996c.012.32.098.558.258.707.16.148.41.226.742.226.305 0 .629-.058.98-.18v.528c-.16.082-.332.145-.511.18-.2.043-.407.066-.61.066-.53 0-.933-.144-1.21-.43m-3.165-1.367c0 .707.25 1.063.754 1.063.246 0 .485-.082.707-.246v-1.622a1.193 1.193 0 0 0-.703-.23c-.258 0-.45.086-.57.254-.125.168-.188.43-.188.781m-.41 1.2c-.234-.294-.351-.688-.351-1.176 0-.32.054-.606.16-.852.094-.23.25-.43.453-.578.2-.14.434-.211.703-.211.367 0 .688.129.957.387l.063-.29h.636v3c0 .512-.136.907-.418 1.184-.277.282-.675.418-1.187.418-.39 0-.758-.086-1.106-.258v-.535c.391.133.743.2 1.055.2.316 0 .547-.075.691-.22.145-.144.215-.382.215-.71v-.274a1.408 1.408 0 0 1-.93.356c-.394 0-.706-.149-.94-.442m-1.915-1.003v-1.934l-1.32 1.934Zm0 .593H11.25v-.562l2.047-2.914h.785v2.883h.59v.593h-.59v.914h-.754Zm-3.512 1.008c.407 0 .723-.094.95-.277.226-.18.34-.43.34-.75a.763.763 0 0 0-.168-.512c-.114-.137-.293-.25-.547-.348l-.493-.191a1.522 1.522 0 0 1-.351-.188.274.274 0 0 1-.102-.222c0-.121.043-.211.14-.27.09-.058.231-.09.43-.086.274 0 .575.051.91.16v-.527a2.237 2.237 0 0 0-.952-.203c-.368 0-.66.086-.883.258a.834.834 0 0 0-.324.699c-.004.406.234.703.707.887l.53.203c.157.058.27.113.333.172.059.058.09.133.09.226a.336.336 0 0 1-.153.301c-.097.067-.25.098-.46.098-.313 0-.676-.067-1.083-.196v.528c.145.074.31.133.5.176.192.043.383.062.582.062m-2.437-.094h.773v-4.39h-.773Zm0 0" fill="rgb(83.137255%, 35.686275%, 2.745098%)" fill-rule="evenodd"/></svg>