<svg role="img" viewBox="0 0 32 32" height="32" width="32" xmlns="http://www.w3.org/2000/svg"><path d="M20.676 14.633c.183-.25.465-.375.844-.375.367 0 .714.113 1.035.336v2.39c-.297.23-.664.36-1.043.364-.742 0-1.11-.524-1.11-1.567 0-.515.09-.898.274-1.148m.508 3.566c.511 0 .968-.176 1.37-.523v.402c0 .485-.105.836-.316 1.047-.21.215-.55.324-1.015.324-.461 0-.98-.097-1.559-.289v.785a3.592 3.592 0 0 0 1.633.38c.754 0 1.336-.204 1.746-.614.41-.41.617-.992.617-1.746v-4.426h-.937l-.09.43a1.962 1.962 0 0 0-1.41-.567 1.76 1.76 0 0 0-1.035.305 1.93 1.93 0 0 0-.672.855 3.138 3.138 0 0 0-.235 1.254c0 .723.172 1.301.52 1.735.344.43.804.648 1.383.648M16.18 15.23c.37 0 .656.098.847.293.196.196.293.48.293.856 0 .367-.093.652-.28.86-.188.202-.454.304-.786.304-.82 0-1.254-.66-1.293-1.984.41-.22.82-.329 1.219-.329m-.008 3.2c.46 0 .863-.09 1.21-.274.345-.183.61-.433.794-.758.183-.32.273-.683.273-1.093 0-.586-.176-1.055-.527-1.407-.348-.351-.813-.527-1.395-.527-.55 0-1.074.16-1.566.477.031-.778.184-1.352.46-1.727.274-.375.692-.559 1.255-.559a4.025 4.025 0 0 1 1.343.251V12a2.763 2.763 0 0 0-.695-.238 3.731 3.731 0 0 0-.804-.086c-.856 0-1.516.316-1.985.949-.469.637-.707 1.527-.707 2.672 0 1.031.2 1.812.594 2.34.394.531.98.793 1.75.793M9.48 12.7h1.16c.708 0 1.063.359 1.063 1.073 0 .715-.363 1.075-1.09 1.075H9.48Zm0 3.027h1.137l1.516 2.566h1.137l-1.668-2.766c.41-.16.722-.394.937-.699a1.87 1.87 0 0 0 .32-1.09c0-.586-.191-1.05-.574-1.398-.383-.344-.89-.516-1.527-.516H8.344v6.469H9.48ZM6 26h20V6H6ZM30.668 8.668V7.332h-3.336v-2a.664.664 0 0 0-.664-.664h-2V1.332h-1.336v3.336h-2.664V1.332h-1.336v3.336h-2.664V1.332h-1.336v3.336h-2.664V1.332h-1.336v3.336H8.668V1.332H7.332v3.336h-2a.664.664 0 0 0-.664.664v2H1.332v1.336h3.336v2.664H1.332v1.336h3.336v2.664H1.332v1.336h3.336v2.664H1.332v1.336h3.336v2.664H1.332v1.336h3.336v2c0 .367.297.664.664.664h2v3.336h1.336v-3.336h2.664v3.336h1.336v-3.336h2.664v3.336h1.336v-3.336h2.664v3.336h1.336v-3.336h2.664v3.336h1.336v-3.336h2a.664.664 0 0 0 .664-.664v-2h3.336v-1.336h-3.336v-2.664h3.336v-1.336h-3.336v-2.664h3.336v-1.336h-3.336v-2.664h3.336v-1.336h-3.336V8.668Zm0 0" fill="rgb(83.137255%, 35.686275%, 2.745098%)" fill-rule="evenodd"/></svg>