<svg role="img" viewBox="0 0 32 32" height="32" width="32" xmlns="http://www.w3.org/2000/svg"><defs><linearGradient gradientTransform="scale(32)" gradientUnits="userSpaceOnUse" id="159__158__404__403__133__132__419__418__403__402__129__128__315__314__211__210__291__290__133__132__aws-ebs-volume_svg__svg/aws-ebs-volume.svg583__svg/aws-ebs-volume.svg581__aws-ebs-volume-lp-0" x1="0" x2="1" y1="1" y2="0"><stop offset="0" stop-color="rgb(10.588235%, 40%, 5.882353%)"/><stop offset="1" stop-color="rgb(42.352941%, 68.235294%, 24.313725%)"/></linearGradient></defs><path d="M-3.2-3.2h38.4v38.4H-3.2z" fill="url(#159__158__404__403__133__132__419__418__403__402__129__128__315__314__211__210__291__290__133__132__aws-ebs-volume_svg__svg/aws-ebs-volume.svg583__svg/aws-ebs-volume.svg581__aws-ebs-volume-lp-0)"/><path d="M26 23h1v4h-4v-1h2.398l-2.773-3.172.75-.656L26 25.168Zm-16.125-.172L7.102 26H9.5v1h-4v-4h1v2.168l2.625-2.996ZM27 5v4h-1V6.832l-2.625 2.996-.75-.656L25.398 6H23V5ZM7.102 6l2.773 3.172-.75.656L6.5 6.832V9h-1V5h4v1Zm9.148 6c-3.004 0-4.25-.652-4.25-1 0-.387 1.152-1 4.25-1 2.93 0 4.25.586 4.25 1 0 .348-1.246 1-4.25 1m.043 9.5c-2.961 0-4.293-.586-4.293-1v-8.187c1.203.597 3.195.687 4.25.687 1.055 0 3.047-.09 4.25-.687V20.5c0 .414-1.305 1-4.207 1M16.25 9C13.855 9 11 9.348 11 11v9.5c0 1.652 2.879 2 5.293 2 1.945 0 5.207-.262 5.207-2V11c0-1.738-3.29-2-5.25-2m0 0" fill="rgb(100%, 100%, 100%)" fill-rule="evenodd"/></svg>