<svg role="img" viewBox="0 0 24.667 32" height="32" width="24.667" xmlns="http://www.w3.org/2000/svg"><path d="M.332.332H25v32H.332Zm0 0" fill="rgb(100%, 100%, 100%)"/><path d="M10.121 25.332h11.453v-1.453H10.121Zm0-8.906h11.453v-1.461H10.121Zm0-8.914h11.453V6.059H10.121Zm-5 18.273v-2.36h2.367v2.36Zm-.726 1.453h3.82a.723.723 0 0 0 .727-.727V22.7a.734.734 0 0 0-.727-.734h-3.82a.734.734 0 0 0-.516.215.74.74 0 0 0-.211.52v3.812c0 .41.324.726.727.726m.726-10.36v-2.366h2.367v2.367Zm-.726 1.454h3.82a.735.735 0 0 0 .726-.727v-3.82a.735.735 0 0 0-.726-.726h-3.82a.735.735 0 0 0-.727.726v3.82c0 .403.324.727.727.727M5.12 7.965v-2.36h2.367v2.36Zm-.726 1.46h3.82A.735.735 0 0 0 8.94 8.7V4.88a.735.735 0 0 0-.726-.727h-3.82a.73.73 0 0 0-.727.727V8.7c0 .403.324.727.727.727M1.94 30.879V1.785h21.454V30.88ZM24.121.332H1.215a.73.73 0 0 0-.516.211.73.73 0 0 0-.21.516v30.546c0 .403.32.727.726.727H24.12a.73.73 0 0 0 .516-.21.73.73 0 0 0 .21-.517V1.06a.742.742 0 0 0-.214-.512.725.725 0 0 0-.512-.215m0 0" fill="rgb(92.941176%, 44.313725%, 0%)"/></svg>