<svg role="img" viewBox="0 0 32 32" height="32" width="32" xmlns="http://www.w3.org/2000/svg"><path d="M6 26h20V6H6ZM27.332 8.668v2.664h3.336v1.336h-3.336v2.664h3.336v1.336h-3.336v2.664h3.336v1.336h-3.336v2.664h3.336v1.336h-3.336v2a.664.664 0 0 1-.664.664h-2v3.336h-1.336v-3.336h-2.664v3.336h-1.336v-3.336h-2.664v3.336h-1.336v-3.336h-2.664v3.336h-1.336v-3.336H8.668v3.336H7.332v-3.336h-2a.664.664 0 0 1-.664-.664v-2H1.332v-1.336h3.336v-2.664H1.332v-1.336h3.336v-2.664H1.332v-1.336h3.336v-2.664H1.332v-1.336h3.336V8.668H1.332V7.332h3.336v-2c0-.367.297-.664.664-.664h2V1.332h1.336v3.336h2.664V1.332h1.336v3.336h2.664V1.332h1.336v3.336h2.664V1.332h1.336v3.336h2.664V1.332h1.336v3.336h2c.367 0 .664.297.664.664v2h3.336v1.336Zm-7.21 7.977c0 1.043.366 1.566 1.108 1.566.368 0 .715-.121 1.047-.363v-2.391a1.782 1.782 0 0 0-1.039-.336c-.379 0-.66.125-.843.375-.184.246-.274.629-.274 1.149m-.605 1.765c-.344-.43-.516-1.008-.516-1.73 0-.473.078-.89.234-1.254.153-.364.38-.649.672-.856a1.81 1.81 0 0 1 1.035-.308c.543 0 1.012.191 1.41.57l.094-.43h.93v4.426c0 .75-.203 1.332-.613 1.742-.41.414-.992.617-1.746.617a3.596 3.596 0 0 1-1.633-.382v-.785c.578.195 1.097.293 1.558.293.465 0 .805-.11 1.016-.325.215-.215.32-.562.32-1.05v-.399c-.406.348-.863.52-1.375.52-.578 0-1.039-.215-1.386-.649m-4.922.742h1.156l2.457-5.617v-.851h-4.48v.886h3.367Zm-5.446-.707c-.527-.547-.789-1.36-.789-2.43 0-1.097.274-1.945.817-2.542.543-.594 1.328-.891 2.347-.891.559 0 1.079.086 1.551.254v.934c-.62-.133-1.11-.2-1.46-.2-.708 0-1.235.184-1.579.551-.348.367-.52.934-.52 1.7v.226c0 .758.172 1.32.516 1.683.34.364.864.547 1.567.547.394 0 .918-.078 1.57-.234v.934c-.492.191-1.055.289-1.684.289-1.03 0-1.808-.274-2.336-.82m0 0" fill="rgb(83.137255%, 35.686275%, 2.745098%)" fill-rule="evenodd"/></svg>