<svg role="img" viewBox="0 0 32 32" xmlns="http://www.w3.org/2000/svg"><path d="M6 26h20V6H6ZM30.668 8.668V7.332h-3.336v-2a.664.664 0 0 0-.664-.664h-2V1.332h-1.336v3.336h-2.664V1.332h-1.336v3.336h-2.664V1.332h-1.336v3.336h-2.664V1.332h-1.336v3.336H8.668V1.332H7.332v3.336h-2a.664.664 0 0 0-.664.664v2H1.332v1.336h3.336v2.664H1.332v1.336h3.336v2.664H1.332v1.336h3.336v2.664H1.332v1.336h3.336v2.664H1.332v1.336h3.336v2c0 .367.297.664.664.664h2v3.336h1.336v-3.336h2.664v3.336h1.336v-3.336h2.664v3.336h1.336v-3.336h2.664v3.336h1.336v-3.336h2.664v3.336h1.336v-3.336h2a.664.664 0 0 0 .664-.664v-2h3.336v-1.336h-3.336v-2.664h3.336v-1.336h-3.336v-2.664h3.336v-1.336h-3.336v-2.664h3.336v-1.336h-3.336V8.668Zm-10.297 6.148a1.94 1.94 0 0 1 1.121-.351q.598.001.883.394.281.399.281 1.22c0 .554-.093.964-.289 1.237-.191.27-.488.403-.883.403q-.591 0-1.113-.364ZM20.297 18q.279.281.664.434.383.157.8.156.616 0 1.075-.328.458-.33.7-.899.243-.574.241-1.324 0-1.12-.527-1.781c-.352-.442-.82-.664-1.414-.664q-.802 0-1.465.562v-2.578H19.27v6.906h.914Zm-4.594.625a4.5 4.5 0 0 1-1.789-.371v-.879q1.019.345 1.762.344 1.383.002 1.383-1.192-.002-.579-.348-.847-.346-.265-1.11-.266-.562 0-1.417.094V14.8l.175-2.781h3.512v.886h-2.469l-.109 1.727q.383-.075.812-.074c.645 0 1.157.171 1.524.52.375.35.558.823.558 1.429q.001.97-.671 1.543c-.45.383-1.051.574-1.813.574m-6.101-5.73h1.16q1.06 0 1.058 1.074.001 1.073-1.086 1.074H9.602Zm0 3.023h1.136l1.512 2.566h1.14l-1.671-2.761q.615-.241.937-.7.323-.456.324-1.093.001-.873-.574-1.395-.573-.515-1.527-.515H8.46v6.464H9.6Zm0 0" fill="rgb(83.137256%, 35.686275%, 2.745098%)" fill-rule="evenodd"/></svg>