<?xml version="1.0" encoding="UTF-8"?>
<svg xmlns="http://www.w3.org/2000/svg" xmlns:xlink="http://www.w3.org/1999/xlink" width="32" height="32" viewBox="0 0 32 32">
<path fill-rule="evenodd" fill="rgb(83.137255%, 35.686275%, 2.745098%)" fill-opacity="1" d="M 6 26 L 26 26 L 26 6 L 6 6 Z M 27.332031 8.667969 L 27.332031 11.332031 L 30.667969 11.332031 L 30.667969 12.667969 L 27.332031 12.667969 L 27.332031 15.332031 L 30.667969 15.332031 L 30.667969 16.667969 L 27.332031 16.667969 L 27.332031 19.332031 L 30.667969 19.332031 L 30.667969 20.667969 L 27.332031 20.667969 L 27.332031 23.332031 L 30.667969 23.332031 L 30.667969 24.667969 L 27.332031 24.667969 L 27.332031 26.667969 C 27.332031 27.035156 27.035156 27.332031 26.667969 27.332031 L 24.667969 27.332031 L 24.667969 30.667969 L 23.332031 30.667969 L 23.332031 27.332031 L 20.667969 27.332031 L 20.667969 30.667969 L 19.332031 30.667969 L 19.332031 27.332031 L 16.667969 27.332031 L 16.667969 30.667969 L 15.332031 30.667969 L 15.332031 27.332031 L 12.667969 27.332031 L 12.667969 30.667969 L 11.332031 30.667969 L 11.332031 27.332031 L 8.667969 27.332031 L 8.667969 30.667969 L 7.332031 30.667969 L 7.332031 27.332031 L 5.332031 27.332031 C 4.964844 27.332031 4.667969 27.035156 4.667969 26.667969 L 4.667969 24.667969 L 1.332031 24.667969 L 1.332031 23.332031 L 4.667969 23.332031 L 4.667969 20.667969 L 1.332031 20.667969 L 1.332031 19.332031 L 4.667969 19.332031 L 4.667969 16.667969 L 1.332031 16.667969 L 1.332031 15.332031 L 4.667969 15.332031 L 4.667969 12.667969 L 1.332031 12.667969 L 1.332031 11.332031 L 4.667969 11.332031 L 4.667969 8.667969 L 1.332031 8.667969 L 1.332031 7.332031 L 4.667969 7.332031 L 4.667969 5.332031 C 4.667969 4.964844 4.964844 4.667969 5.332031 4.667969 L 7.332031 4.667969 L 7.332031 1.332031 L 8.667969 1.332031 L 8.667969 4.667969 L 11.332031 4.667969 L 11.332031 1.332031 L 12.667969 1.332031 L 12.667969 4.667969 L 15.332031 4.667969 L 15.332031 1.332031 L 16.667969 1.332031 L 16.667969 4.667969 L 19.332031 4.667969 L 19.332031 1.332031 L 20.667969 1.332031 L 20.667969 4.667969 L 23.332031 4.667969 L 23.332031 1.332031 L 24.667969 1.332031 L 24.667969 4.667969 L 26.667969 4.667969 C 27.035156 4.667969 27.332031 4.964844 27.332031 5.332031 L 27.332031 7.332031 L 30.667969 7.332031 L 30.667969 8.667969 Z M 20.121094 16.644531 C 20.121094 17.6875 20.488281 18.210938 21.230469 18.210938 C 21.597656 18.210938 21.945312 18.089844 22.277344 17.847656 L 22.277344 15.457031 C 21.972656 15.238281 21.609375 15.121094 21.238281 15.121094 C 20.859375 15.121094 20.578125 15.246094 20.394531 15.496094 C 20.210938 15.742188 20.121094 16.125 20.121094 16.644531 M 19.515625 18.410156 C 19.171875 17.980469 19 17.402344 19 16.679688 C 19 16.207031 19.078125 15.789062 19.234375 15.425781 C 19.386719 15.0625 19.613281 14.777344 19.90625 14.570312 C 20.210938 14.363281 20.574219 14.257812 20.941406 14.261719 C 21.484375 14.261719 21.953125 14.453125 22.351562 14.832031 L 22.445312 14.402344 L 23.375 14.402344 L 23.375 18.828125 C 23.375 19.578125 23.171875 20.160156 22.761719 20.570312 C 22.351562 20.984375 21.769531 21.1875 21.015625 21.1875 C 20.449219 21.191406 19.890625 21.058594 19.382812 20.804688 L 19.382812 20.019531 C 19.960938 20.214844 20.480469 20.3125 20.941406 20.3125 C 21.40625 20.3125 21.746094 20.203125 21.957031 19.988281 C 22.171875 19.773438 22.277344 19.425781 22.277344 18.9375 L 22.277344 18.539062 C 21.871094 18.886719 21.414062 19.058594 20.902344 19.058594 C 20.324219 19.058594 19.863281 18.84375 19.515625 18.410156 M 14.59375 19.152344 L 15.75 19.152344 L 18.207031 13.535156 L 18.207031 12.683594 L 13.726562 12.683594 L 13.726562 13.570312 L 17.09375 13.570312 Z M 9.148438 18.445312 C 8.621094 17.898438 8.359375 17.085938 8.359375 16.015625 C 8.359375 14.917969 8.632812 14.070312 9.175781 13.472656 C 9.71875 12.878906 10.503906 12.582031 11.523438 12.582031 C 12.082031 12.582031 12.601562 12.667969 13.074219 12.835938 L 13.074219 13.769531 C 12.453125 13.636719 11.964844 13.570312 11.613281 13.570312 C 10.90625 13.570312 10.378906 13.753906 10.035156 14.121094 C 9.6875 14.488281 9.515625 15.054688 9.515625 15.820312 L 9.515625 16.046875 C 9.515625 16.804688 9.6875 17.367188 10.03125 17.730469 C 10.371094 18.09375 10.894531 18.277344 11.597656 18.277344 C 11.992188 18.277344 12.515625 18.199219 13.167969 18.042969 L 13.167969 18.976562 C 12.675781 19.167969 12.113281 19.265625 11.484375 19.265625 C 10.453125 19.265625 9.675781 18.992188 9.148438 18.445312 M 9.148438 18.445312 "/>
</svg>
