<svg role="img" viewBox="0 0 32 32" xmlns="http://www.w3.org/2000/svg"><path d="M6 26h20V6H6ZM30.668 8.668V7.332h-3.336v-2a.664.664 0 0 0-.664-.664h-2V1.332h-1.336v3.336h-2.664V1.332h-1.336v3.336h-2.664V1.332h-1.336v3.336h-2.664V1.332h-1.336v3.336H8.668V1.332H7.332v3.336h-2a.664.664 0 0 0-.664.664v2H1.332v1.336h3.336v2.664H1.332v1.336h3.336v2.664H1.332v1.336h3.336v2.664H1.332v1.336h3.336v2.664H1.332v1.336h3.336v2c0 .367.297.664.664.664h2v3.336h1.336v-3.336h2.664v3.336h1.336v-3.336h2.664v3.336h1.336v-3.336h2.664v3.336h1.336v-3.336h2.664v3.336h1.336v-3.336h2a.664.664 0 0 0 .664-.664v-2h3.336v-1.336h-3.336v-2.664h3.336v-1.336h-3.336v-2.664h3.336v-1.336h-3.336v-2.664h3.336v-1.336h-3.336V8.668Zm-10.293 6.86q.294-.4.922-.4.574.001 1.055.337v2.566c-.352.239-.707.356-1.075.356q-1.195 0-1.195-1.64 0-.822.293-1.22m.555 3.726q.83.002 1.468-.559l.11.457h.945v-6.906h-1.101v2.5a2.18 2.18 0 0 0-1.364-.484q-.626.002-1.082.324a2.04 2.04 0 0 0-.703.89q-.241.569-.242 1.317c0 .75.18 1.352.539 1.797.355.441.836.664 1.43.664m-6.317-2.324 1.95-2.844v2.844Zm1.95 2.222h1.113V17.81h.867v-.88h-.867v-4.245h-1.16l-3.012 4.293v.832h3.059Zm-6.88-5.59h1.145q.523.001.793.29.265.289.266.847c0 .375-.09.656-.266.852q-.27.288-.793.289H9.684Zm0 3.153h1.278q.966 0 1.523-.54.56-.538.559-1.476 0-.932-.563-1.472-.562-.542-1.535-.543H8.547v6.468h1.137Zm0 0" fill="rgb(83.137256%, 35.686275%, 2.745098%)" fill-rule="evenodd"/></svg>