<?xml version="1.0" encoding="UTF-8"?>
<svg xmlns="http://www.w3.org/2000/svg" xmlns:xlink="http://www.w3.org/1999/xlink" width="32" height="32" viewBox="0 0 32 32">
<path fill-rule="evenodd" fill="rgb(83.137255%, 35.686275%, 2.745098%)" fill-opacity="1" d="M 6 26 L 26 26 L 26 6 L 6 6 Z M 27.332031 8.667969 L 27.332031 11.332031 L 30.667969 11.332031 L 30.667969 12.667969 L 27.332031 12.667969 L 27.332031 15.332031 L 30.667969 15.332031 L 30.667969 16.667969 L 27.332031 16.667969 L 27.332031 19.332031 L 30.667969 19.332031 L 30.667969 20.667969 L 27.332031 20.667969 L 27.332031 23.332031 L 30.667969 23.332031 L 30.667969 24.667969 L 27.332031 24.667969 L 27.332031 26.667969 C 27.332031 27.035156 27.035156 27.332031 26.667969 27.332031 L 24.667969 27.332031 L 24.667969 30.667969 L 23.332031 30.667969 L 23.332031 27.332031 L 20.667969 27.332031 L 20.667969 30.667969 L 19.332031 30.667969 L 19.332031 27.332031 L 16.667969 27.332031 L 16.667969 30.667969 L 15.332031 30.667969 L 15.332031 27.332031 L 12.667969 27.332031 L 12.667969 30.667969 L 11.332031 30.667969 L 11.332031 27.332031 L 8.667969 27.332031 L 8.667969 30.667969 L 7.332031 30.667969 L 7.332031 27.332031 L 5.332031 27.332031 C 4.964844 27.332031 4.667969 27.035156 4.667969 26.667969 L 4.667969 24.667969 L 1.332031 24.667969 L 1.332031 23.332031 L 4.667969 23.332031 L 4.667969 20.667969 L 1.332031 20.667969 L 1.332031 19.332031 L 4.667969 19.332031 L 4.667969 16.667969 L 1.332031 16.667969 L 1.332031 15.332031 L 4.667969 15.332031 L 4.667969 12.667969 L 1.332031 12.667969 L 1.332031 11.332031 L 4.667969 11.332031 L 4.667969 8.667969 L 1.332031 8.667969 L 1.332031 7.332031 L 4.667969 7.332031 L 4.667969 5.332031 C 4.667969 4.964844 4.964844 4.667969 5.332031 4.667969 L 7.332031 4.667969 L 7.332031 1.332031 L 8.667969 1.332031 L 8.667969 4.667969 L 11.332031 4.667969 L 11.332031 1.332031 L 12.667969 1.332031 L 12.667969 4.667969 L 15.332031 4.667969 L 15.332031 1.332031 L 16.667969 1.332031 L 16.667969 4.667969 L 19.332031 4.667969 L 19.332031 1.332031 L 20.667969 1.332031 L 20.667969 4.667969 L 23.332031 4.667969 L 23.332031 1.332031 L 24.667969 1.332031 L 24.667969 4.667969 L 26.667969 4.667969 C 27.035156 4.667969 27.332031 4.964844 27.332031 5.332031 L 27.332031 7.332031 L 30.667969 7.332031 L 30.667969 8.667969 Z M 21.097656 18.691406 L 21.972656 18.691406 L 21.972656 13.609375 L 21.179688 13.609375 L 19.726562 14.285156 L 19.726562 14.988281 L 21.097656 14.472656 Z M 16.171875 15.851562 C 16.507812 15.636719 16.839844 15.53125 17.160156 15.53125 C 17.375 15.53125 17.53125 15.585938 17.628906 15.695312 C 17.730469 15.804688 17.777344 15.980469 17.777344 16.21875 L 17.777344 18.691406 L 18.644531 18.691406 L 18.644531 15.949219 C 18.644531 15.589844 18.550781 15.320312 18.363281 15.128906 C 18.179688 14.941406 17.90625 14.847656 17.550781 14.847656 C 17.050781 14.851562 16.570312 15.023438 16.113281 15.367188 L 16.023438 14.957031 L 15.304688 14.957031 L 15.304688 18.691406 L 16.171875 18.691406 Z M 13.488281 15.984375 C 13.765625 15.800781 14.085938 15.707031 14.449219 15.707031 C 14.589844 15.707031 14.730469 15.71875 14.867188 15.742188 L 14.867188 14.949219 C 14.757812 14.9375 14.65625 14.929688 14.566406 14.929688 C 14.363281 14.929688 14.179688 14.972656 14.007812 15.0625 C 13.835938 15.148438 13.652344 15.300781 13.457031 15.515625 L 13.339844 14.957031 L 12.621094 14.957031 L 12.621094 18.691406 L 13.488281 18.691406 Z M 10.046875 14.34375 L 8.457031 14.34375 L 8.457031 13.609375 L 12.535156 13.609375 L 12.535156 14.34375 L 10.941406 14.34375 L 10.941406 18.691406 L 10.046875 18.691406 Z M 10.046875 14.34375 "/>
</svg>
