<svg role="img" viewBox="0 0 32 32" height="32" width="32" xmlns="http://www.w3.org/2000/svg"><path d="M18.473 19.395a4.462 4.462 0 0 1-1.79-.372v-.878c.68.23 1.266.347 1.762.347.922 0 1.383-.398 1.383-1.195 0-.387-.117-.668-.348-.844-.234-.18-.601-.265-1.109-.265-.379 0-.851.027-1.418.09v-.708l.176-2.78h3.512v.886h-2.473l-.105 1.726c.269-.05.539-.078.812-.074.645 0 1.156.172 1.527.524.368.347.555.824.555 1.425 0 .649-.223 1.16-.672 1.547-.45.38-1.05.57-1.812.57m-6.29-5.73h1.16c.708 0 1.063.36 1.063 1.074 0 .715-.363 1.075-1.09 1.075h-1.132Zm0 3.024h1.137l1.516 2.57h1.137L14.3 16.492c.41-.16.722-.394.937-.699.215-.305.325-.668.325-1.09 0-.586-.192-1.05-.575-1.398-.383-.344-.89-.516-1.527-.516h-2.418v6.469h1.14ZM6 26h20V6H6ZM30.668 8.668V7.332h-3.336v-2a.664.664 0 0 0-.664-.664h-2V1.332h-1.336v3.336h-2.664V1.332h-1.336v3.336h-2.664V1.332h-1.336v3.336h-2.664V1.332h-1.336v3.336H8.668V1.332H7.332v3.336h-2a.664.664 0 0 0-.664.664v2H1.332v1.336h3.336v2.664H1.332v1.336h3.336v2.664H1.332v1.336h3.336v2.664H1.332v1.336h3.336v2.664H1.332v1.336h3.336v2c0 .367.297.664.664.664h2v3.336h1.336v-3.336h2.664v3.336h1.336v-3.336h2.664v3.336h1.336v-3.336h2.664v3.336h1.336v-3.336h2.664v3.336h1.336v-3.336h2a.664.664 0 0 0 .664-.664v-2h3.336v-1.336h-3.336v-2.664h3.336v-1.336h-3.336v-2.664h3.336v-1.336h-3.336v-2.664h3.336v-1.336h-3.336V8.668Zm0 0" fill="rgb(83.137255%, 35.686275%, 2.745098%)" fill-rule="evenodd"/></svg>