<svg role="img" viewBox="0 0 32 32" height="32" width="32" xmlns="http://www.w3.org/2000/svg"><path d="M.203.203h32v32h-32Zm0 0" fill="rgb(100%, 100%, 100%)"/><path d="M.203.203h31.594v31.594H.203Zm0 0" fill="rgb(78.823529%, 14.509804%, 81.960784%)"/><path d="M21.438 22.703c-1.508 1.215-4.668 1.86-7.696 1.86-3.02 0-6.183-.645-7.691-1.86v2.453c0 1.223 3.16 2.586 7.691 2.586 4.535 0 7.692-1.36 7.695-2.582Zm.003-4.66.899-.004v.004c0 .543-.274 1.05-.8 1.516.64.57.8 1.128.8 1.52v4.077c0 2.262-4.43 3.48-8.598 3.48-4.156 0-8.57-1.214-8.59-3.464 0 0-.004-.004-.004-.008v-4.086s.004 0 .004-.004c0-.394.16-.945.805-1.515-.637-.567-.8-1.118-.805-1.508 0 0-.004 0-.004-.004V13.96c0-.004.004-.004.004-.004 0-.395.16-.95.805-1.512-.637-.57-.8-1.12-.805-1.511l-.004-.004V6.84s.004 0 .004-.004c.008-2.254 4.43-3.473 8.59-3.473 2.356 0 4.617.371 6.203 1.024l-.343.828c-1.485-.61-3.618-.957-5.86-.957-4.531 0-7.691 1.363-7.691 2.586 0 1.226 3.16 2.59 7.691 2.59.13 0 .246 0 .367-.004l.036.89c-.133.008-.266.008-.403.008-3.02 0-6.183-.644-7.691-1.863v2.465c.008.468.488.879.89 1.136 1.215.774 3.391 1.305 5.817 1.414l-.04.895c-2.456-.113-4.609-.625-5.995-1.402-.344.254-.672.601-.672.988 0 1.226 3.16 2.59 7.691 2.59.445 0 .89-.016 1.317-.043l.062.894c-.445.028-.91.043-1.379.043-3.02 0-6.183-.644-7.691-1.863v2.457c.008.477.488.887.89 1.148 1.391.883 3.997 1.438 6.801 1.438h.2v.895h-.2c-2.851 0-5.441-.528-7.027-1.426-.34.258-.664.601-.664.984 0 1.23 3.16 2.59 7.691 2.59 4.535 0 7.692-1.36 7.695-2.586v-.004c0-.387-.324-.73-.664-.988-.218.125-.46.25-.726.36l-.344-.829c.293-.117.574-.262.84-.433.41-.266.898-.68.898-1.145m3.864-6.547h-2.528a.468.468 0 0 1-.379-.2.455.455 0 0 1-.043-.417l1.54-3.844h-5.829l-2.707 5.371h2.88c.148 0 .28.07.366.184.086.117.11.262.063.402l-2.57 8.016Zm1.386-.137L15.406 23.016a.467.467 0 0 1-.554.074.437.437 0 0 1-.2-.52l2.973-9.27h-2.992a.447.447 0 0 1-.383-.21.458.458 0 0 1-.023-.438l3.16-6.265a.437.437 0 0 1 .402-.246h6.77c.148 0 .293.074.375.195a.466.466 0 0 1 .046.418l-1.539 3.848h2.926c.176 0 .344.105.41.27a.438.438 0 0 1-.086.487M6.707 25.332c.64.36 1.445.66 2.395.898l.222-.87c-.86-.212-1.61-.489-2.168-.805Zm2.395-6.262.222-.87c-.86-.216-1.61-.493-2.168-.81l-.449.778c.64.36 1.445.664 2.395.902m-2.395-8.066.45-.777c.558.316 1.308.597 2.167.812l-.222.867c-.95-.238-1.754-.539-2.395-.902m0 0" fill="rgb(100%, 100%, 100%)"/></svg>