<svg role="img" viewBox="0 0 32 32" xmlns="http://www.w3.org/2000/svg"><path d="M6 26h20V6H6ZM27.332 8.668v2.664h3.336v1.336h-3.336v2.664h3.336v1.336h-3.336v2.664h3.336v1.336h-3.336v2.664h3.336v1.336h-3.336v2a.664.664 0 0 1-.664.664h-2v3.336h-1.336v-3.336h-2.664v3.336h-1.336v-3.336h-2.664v3.336h-1.336v-3.336h-2.664v3.336h-1.336v-3.336H8.668v3.336H7.332v-3.336h-2a.664.664 0 0 1-.664-.664v-2H1.332v-1.336h3.336v-2.664H1.332v-1.336h3.336v-2.664H1.332v-1.336h3.336v-2.664H1.332v-1.336h3.336V8.668H1.332V7.332h3.336v-2c0-.367.297-.664.664-.664h2V1.332h1.336v3.336h2.664V1.332h1.336v3.336h2.664V1.332h1.336v3.336h2.664V1.332h1.336v3.336h2.664V1.332h1.336v3.336h2c.367 0 .664.297.664.664v2h3.336v1.336Zm-5.277 7.926q0 1.29.937 1.289.434.002.844-.278V15.59a1.4 1.4 0 0 0-.828-.266q-.493.001-.723.313-.232.311-.23.957m-.461 1.449c-.282-.352-.422-.82-.422-1.414q.002-.585.191-1.031.194-.45.551-.7.358-.255.852-.253.584 0 1.07.378V13.06h.863v5.425h-.738l-.09-.359a1.67 1.67 0 0 1-1.152.441q-.704 0-1.125-.523m-3.61-1.531q0 1.235.871 1.234c.29 0 .563-.098.82-.285v-1.879a1.4 1.4 0 0 0-.812-.266q-.447 0-.664.297-.215.294-.215.899m-.472 1.39q-.41-.51-.41-1.359 0-.556.183-.988.186-.428.531-.668.342-.244.813-.242.638 0 1.105.445l.075-.336h.734v3.476q.001.885-.484 1.372-.48.482-1.372.484c-.453 0-.878-.102-1.285-.3v-.618q.684.227 1.227.227.55.002.8-.254.247-.251.247-.825v-.312q-.475.41-1.078.41-.681-.001-1.086-.512m-3.582-1.566q.046 1.563 1.015 1.562.395.002.617-.242.223-.242.223-.672-.001-.445-.23-.672c-.153-.156-.375-.23-.668-.23q-.47.001-.957.254m-.422 1.637q-.47-.622-.469-1.84c0-.899.188-1.598.555-2.098q.556-.75 1.558-.75.316 0 .637.07c.211.047.395.11.543.188v.637a2.7 2.7 0 0 0-.516-.14 2.7 2.7 0 0 0-.539-.056q-.661 0-.988.438-.323.44-.36 1.36.581-.376 1.231-.376c.457 0 .82.137 1.098.414.273.278.414.645.414 1.106 0 .32-.074.61-.219.86q-.216.378-.621.593-.41.218-.95.219-.913-.002-1.374-.625m-5.41.511h-.82v-5.082h.995l1.528 3.032 1.554-3.032h.965v5.082h-.82V14.68l-1.32 2.53h-.805l-1.277-2.515Zm0 0" fill="rgb(83.137256%, 35.686275%, 2.745098%)" fill-rule="evenodd"/></svg>