<svg role="img" viewBox="0 0 32 32" height="32" width="32" xmlns="http://www.w3.org/2000/svg"><path d="M6 26h20V6H6ZM27.332 8.668v2.664h3.336v1.336h-3.336v2.664h3.336v1.336h-3.336v2.664h3.336v1.336h-3.336v2.664h3.336v1.336h-3.336v2a.664.664 0 0 1-.664.664h-2v3.336h-1.336v-3.336h-2.664v3.336h-1.336v-3.336h-2.664v3.336h-1.336v-3.336h-2.664v3.336h-1.336v-3.336H8.668v3.336H7.332v-3.336h-2a.664.664 0 0 1-.664-.664v-2H1.332v-1.336h3.336v-2.664H1.332v-1.336h3.336v-2.664H1.332v-1.336h3.336v-2.664H1.332v-1.336h3.336V8.668H1.332V7.332h3.336v-2c0-.367.297-.664.664-.664h2V1.332h1.336v3.336h2.664V1.332h1.336v3.336h2.664V1.332h1.336v3.336h2.664V1.332h1.336v3.336h2.664V1.332h1.336v3.336h2c.367 0 .664.297.664.664v2h3.336v1.336Zm-5.023 6.828c.277-.176.546-.262.808-.262.176 0 .305.043.387.133.078.09.121.235.121.43v2.023h.707v-2.246c0-.289-.078-.515-.23-.668-.153-.152-.372-.23-.665-.23-.41 0-.8.14-1.175.426l-.075-.336h-.585v3.054h.707Zm-1.164 1.785h-1.723l1.703-1.992v-.523h-2.402v.539h1.64l-1.703 1.992v.523h2.485Zm-4.711-1.293h1.316v-.047c0-.242-.05-.43-.152-.558-.102-.13-.246-.192-.442-.192a.625.625 0 0 0-.5.215c-.129.145-.203.34-.222.582m-.329 1.512c-.261-.27-.39-.668-.39-1.187 0-.516.129-.918.383-1.208.254-.285.609-.43 1.062-.43.395 0 .695.106.902.321.211.215.317.516.317.91 0 .207-.016.395-.05.559h-1.895c.011.3.093.527.246.668.156.14.39.21.707.21.285 0 .593-.054.925-.167v.5c-.136.07-.296.129-.484.172a2.88 2.88 0 0 1-.578.062c-.504 0-.883-.137-1.145-.41m-1.296-3.238a.422.422 0 0 0 .312-.11.409.409 0 0 0 .113-.3.4.4 0 0 0-.113-.297.422.422 0 0 0-.312-.11.422.422 0 0 0-.313.11.4.4 0 0 0-.113.297c0 .128.039.23.113.3.086.078.2.118.313.11m-.352 3.558h.707v-3.054h-.707Zm-.602-.57h-2.093c.48-.437.855-.8 1.129-1.098.273-.293.472-.554.593-.785.121-.23.184-.457.184-.68 0-.23-.05-.433-.156-.601a1.032 1.032 0 0 0-.442-.387 1.464 1.464 0 0 0-.656-.133c-.46 0-.883.157-1.266.47v.585c.207-.144.415-.254.618-.332.199-.078.386-.117.558-.117.196 0 .348.05.457.152.106.102.16.246.16.43 0 .156-.046.324-.148.508-.102.187-.281.425-.54.726-.26.301-.667.73-1.218 1.293v.54h2.82Zm-6.66.57 1.39-2.156-1.292-2.004h.73l.989 1.477.968-1.477h.73l-1.3 1.992 1.399 2.168h-.735l-1.09-1.644-1.058 1.644Zm0 0" fill="rgb(83.137255%, 35.686275%, 2.745098%)" fill-rule="evenodd"/></svg>