<?xml version="1.0" encoding="UTF-8"?>
<svg xmlns="http://www.w3.org/2000/svg" xmlns:xlink="http://www.w3.org/1999/xlink" width="32" height="32" viewBox="0 0 32 32">
<path fill-rule="evenodd" fill="rgb(83.137255%, 35.686275%, 2.745098%)" fill-opacity="1" d="M 20.09375 25.152344 L 25.734375 25.152344 L 25.734375 17.769531 L 20.09375 17.769531 Z M 6.152344 25.152344 L 11.789062 25.152344 L 11.789062 17.769531 L 6.152344 17.769531 Z M 13.125 25.152344 L 18.761719 25.152344 L 18.761719 17.769531 L 13.125 17.769531 Z M 26.398438 16.4375 L 5.484375 16.4375 C 5.308594 16.4375 5.136719 16.507812 5.011719 16.632812 C 4.886719 16.757812 4.820312 16.929688 4.820312 17.105469 L 4.820312 25.816406 C 4.820312 26.1875 5.117188 26.484375 5.484375 26.484375 L 26.398438 26.484375 C 26.765625 26.484375 27.066406 26.183594 27.066406 25.816406 L 27.066406 17.105469 C 27.066406 16.734375 26.765625 16.4375 26.398438 16.4375 M 20.09375 12.953125 L 25.734375 12.953125 L 25.734375 7.3125 L 20.09375 7.3125 Z M 6.152344 12.953125 L 11.789062 12.953125 L 11.789062 7.3125 L 6.152344 7.3125 Z M 13.125 12.953125 L 18.761719 12.953125 L 18.761719 7.3125 L 13.125 7.3125 Z M 26.398438 5.980469 L 5.484375 5.980469 C 5.117188 5.980469 4.820312 6.28125 4.820312 6.648438 L 4.820312 13.617188 C 4.820312 13.988281 5.117188 14.285156 5.484375 14.285156 L 26.398438 14.285156 C 26.765625 14.285156 27.066406 13.984375 27.066406 13.617188 L 27.066406 6.648438 C 27.066406 6.28125 26.765625 5.980469 26.398438 5.980469 M 29.21875 26.253906 C 29.214844 27.890625 27.890625 29.214844 26.253906 29.21875 L 5.632812 29.21875 C 3.996094 29.214844 2.671875 27.890625 2.667969 26.253906 L 2.667969 5.632812 C 2.667969 3.996094 3.996094 2.667969 5.632812 2.667969 L 26.253906 2.667969 C 27.890625 2.671875 29.214844 3.996094 29.21875 5.632812 Z M 26.253906 1.332031 L 5.632812 1.332031 C 3.257812 1.335938 1.335938 3.257812 1.332031 5.632812 L 1.332031 26.253906 C 1.335938 28.625 3.257812 30.546875 5.632812 30.550781 L 26.253906 30.550781 C 28.625 30.550781 30.550781 28.625 30.550781 26.253906 L 30.550781 5.632812 C 30.550781 3.257812 28.628906 1.332031 26.253906 1.332031 M 26.253906 1.332031 "/>
</svg>
