<svg role="img" viewBox="0 0 32 32" height="32" width="32" xmlns="http://www.w3.org/2000/svg"><path d="M.203.203h31.594v31.594H.203Zm0 0" fill="rgb(90.588235%, 8.235294%, 48.235294%)"/><path d="m11 17.633 1.336-1.313a.444.444 0 0 0 .129-.312.488.488 0 0 0-.13-.313l-1.331-1.328-.625.621.566.57H8.918v.883h2.035l-.574.567Zm10.148.039 1.774-1.32a.454.454 0 0 0 .18-.352c0-.137-.07-.27-.18-.352l-1.774-1.32-.53.703.71.528h-1.777v.882h1.777l-.71.528ZM13.878 16c0 .938-.163 1.816-.464 2.586a7.253 7.253 0 0 1 2.594-.465c.898 0 1.797.156 2.597.465-.304-.77-.464-1.648-.464-2.586 0-.937.16-1.816.464-2.586-1.597.613-3.597.613-5.19 0 .3.77.464 1.649.464 2.586m-2.172 4.273a.443.443 0 0 1 0-.625c.805-.796 1.285-2.16 1.285-3.648s-.48-2.852-1.285-3.648a.443.443 0 0 1 .02-.61.443.443 0 0 1 .609-.015c1.715 1.707 5.629 1.707 7.348 0a.473.473 0 0 1 .312-.133c.117 0 .23.05.313.133a.451.451 0 0 1 .136.312c0 .117-.05.23-.136.313-.805.796-1.282 2.16-1.282 3.648s.477 2.852 1.282 3.648a.435.435 0 0 1 .136.313c0 .117-.05.23-.136.312a.443.443 0 0 1-.625 0c-1.72-1.707-5.633-1.707-7.348 0a.431.431 0 0 1-.313.133.434.434 0 0 1-.316-.133m15.809-4.27c0-.413-.16-.796-.453-1.089a1.55 1.55 0 0 0-1.094-.45 1.544 1.544 0 0 0-1.547 1.54c0 .406.164.797.453 1.086a1.559 1.559 0 0 0 2.188 0c.292-.293.453-.676.453-1.086m.175 1.707a2.447 2.447 0 0 1-3.445 0 2.433 2.433 0 0 1-.71-1.707c0-.645.257-1.258.71-1.711a2.455 2.455 0 0 1 3.445 0 2.412 2.412 0 0 1 .001 3.417M7.573 16.013c.004-.41-.16-.801-.453-1.086-.289-.29-.68-.45-1.09-.45a1.529 1.529 0 0 0-1.43.942 1.519 1.519 0 0 0 .337 1.68c.582.578 1.601.578 2.183 0 .297-.293.453-.676.453-1.086m.176 1.71a2.42 2.42 0 0 1-1.719.704c-.644 0-1.261-.25-1.722-.703a2.433 2.433 0 0 1-.711-1.707c0-.645.257-1.258.71-1.711a2.443 2.443 0 0 1 3.442 0 2.41 2.41 0 0 1 0 3.418m14.848 4.855a9.342 9.342 0 0 1-6.625 2.727 9.335 9.335 0 0 1-6.625-2.727c-1.215-1.203-1.883-2.644-2.227-3.64l-.84.289c.38 1.082 1.106 2.652 2.442 3.976a10.229 10.229 0 0 0 7.25 2.985c2.742 0 5.312-1.063 7.25-2.985a10.537 10.537 0 0 0 2.511-3.98l-.84-.282a9.59 9.59 0 0 1-2.296 3.637M7.12 13.063l-.84-.29c.54-1.53 1.407-2.945 2.446-3.98a10.232 10.232 0 0 1 7.246-2.98c2.738 0 5.312 1.062 7.25 2.98a10.943 10.943 0 0 1 2.511 3.98l-.84.29a10.002 10.002 0 0 0-2.3-3.645 9.313 9.313 0 0 0-6.621-2.723c-2.5 0-4.856.965-6.621 2.723-.946.941-1.739 2.234-2.23 3.645" fill="rgb(100%, 100%, 100%)"/></svg>