<?xml version="1.0" encoding="UTF-8"?>
<!DOCTYPE svg PUBLIC "-//W3C//DTD SVG 1.1//EN" "http://www.w3.org/Graphics/SVG/1.1/DTD/svg11.dtd">
<svg xmlns="http://www.w3.org/2000/svg" xmlns:xlink="http://www.w3.org/1999/xlink" version="1.1" width="79px" height="79px" viewBox="-0.5 -0.5 79 79" style="background-color: rgb(255, 255, 255);"><defs><style type="text/css">@import url(https://fonts.googleapis.com/css2?family=Segoe+UI:wght@400;500);&#xa;</style></defs><rect fill="#ffffff" width="100%" height="100%" x="0" y="0"/><g><g data-cell-id="0"><g data-cell-id="1"><g data-cell-id="NpY9npqtjyR1Koi9KO41-1"/><g data-cell-id="NpY9npqtjyR1Koi9KO41-2"/><g data-cell-id="NpY9npqtjyR1Koi9KO41-3"/><g data-cell-id="NpY9npqtjyR1Koi9KO41-4"/><g data-cell-id="NpY9npqtjyR1Koi9KO41-5"><g><path d="M 0 0 L 78 0 L 78 78 L 0 78 Z" fill="#ed7100" stroke="none" pointer-events="all"/><path d="M 64.71 47.49 L 55.95 42.23 L 55.95 29.73 C 55.95 29.34 55.75 28.98 55.41 28.78 L 42.83 21.44 L 42.83 10.86 L 64.71 23.79 Z M 66.36 22.22 L 42.29 8 C 41.95 7.8 41.54 7.8 41.19 7.99 C 40.85 8.19 40.64 8.55 40.64 8.94 L 40.64 22.07 C 40.64 22.46 40.85 22.82 41.18 23.02 L 53.77 30.36 L 53.77 42.85 C 53.77 43.24 53.97 43.59 54.3 43.79 L 65.24 50.35 C 65.41 50.46 65.6 50.51 65.8 50.51 C 65.99 50.51 66.17 50.46 66.34 50.37 C 66.68 50.17 66.89 49.81 66.89 49.42 L 66.89 23.16 C 66.89 22.78 66.69 22.42 66.36 22.22 Z M 38.94 67.86 L 13.29 54.23 L 13.29 23.79 L 35.17 10.86 L 35.17 21.47 L 23.65 28.8 C 23.33 29.01 23.14 29.35 23.14 29.73 L 23.14 48.32 C 23.14 48.73 23.37 49.11 23.73 49.29 L 38.44 56.95 C 38.76 57.11 39.14 57.12 39.45 56.95 L 53.73 49.57 L 62.51 54.85 Z M 65.27 53.95 L 54.33 47.38 C 54 47.19 53.6 47.18 53.26 47.35 L 38.95 54.75 L 25.33 47.66 L 25.33 30.33 L 36.85 22.99 C 37.17 22.79 37.36 22.44 37.36 22.07 L 37.36 8.94 C 37.36 8.55 37.15 8.19 36.81 7.99 C 36.47 7.8 36.05 7.8 35.71 8 L 11.64 22.22 C 11.31 22.42 11.11 22.78 11.11 23.16 L 11.11 54.89 C 11.11 55.29 11.33 55.66 11.69 55.85 L 38.44 70.07 C 38.6 70.16 38.77 70.2 38.95 70.2 C 39.13 70.2 39.31 70.15 39.48 70.06 L 65.23 55.84 C 65.58 55.65 65.79 55.3 65.8 54.91 C 65.81 54.51 65.6 54.15 65.27 53.95 Z" fill="#ffffff" stroke="none" pointer-events="all"/></g></g></g></g></g></svg>