<?xml version="1.0" encoding="UTF-8"?>
<svg xmlns="http://www.w3.org/2000/svg" xmlns:xlink="http://www.w3.org/1999/xlink" width="32" height="32" viewBox="0 0 32 32">
<path fill-rule="evenodd" fill="rgb(83.137255%, 35.686275%, 2.745098%)" fill-opacity="1" d="M 6 26 L 26 26 L 26 6 L 6 6 Z M 27.332031 8.667969 L 27.332031 11.332031 L 30.667969 11.332031 L 30.667969 12.667969 L 27.332031 12.667969 L 27.332031 15.332031 L 30.667969 15.332031 L 30.667969 16.667969 L 27.332031 16.667969 L 27.332031 19.332031 L 30.667969 19.332031 L 30.667969 20.667969 L 27.332031 20.667969 L 27.332031 23.332031 L 30.667969 23.332031 L 30.667969 24.667969 L 27.332031 24.667969 L 27.332031 26.667969 C 27.332031 27.035156 27.035156 27.332031 26.667969 27.332031 L 24.667969 27.332031 L 24.667969 30.667969 L 23.332031 30.667969 L 23.332031 27.332031 L 20.667969 27.332031 L 20.667969 30.667969 L 19.332031 30.667969 L 19.332031 27.332031 L 16.667969 27.332031 L 16.667969 30.667969 L 15.332031 30.667969 L 15.332031 27.332031 L 12.667969 27.332031 L 12.667969 30.667969 L 11.332031 30.667969 L 11.332031 27.332031 L 8.667969 27.332031 L 8.667969 30.667969 L 7.332031 30.667969 L 7.332031 27.332031 L 5.332031 27.332031 C 4.964844 27.332031 4.667969 27.035156 4.667969 26.667969 L 4.667969 24.667969 L 1.332031 24.667969 L 1.332031 23.332031 L 4.667969 23.332031 L 4.667969 20.667969 L 1.332031 20.667969 L 1.332031 19.332031 L 4.667969 19.332031 L 4.667969 16.667969 L 1.332031 16.667969 L 1.332031 15.332031 L 4.667969 15.332031 L 4.667969 12.667969 L 1.332031 12.667969 L 1.332031 11.332031 L 4.667969 11.332031 L 4.667969 8.667969 L 1.332031 8.667969 L 1.332031 7.332031 L 4.667969 7.332031 L 4.667969 5.332031 C 4.667969 4.964844 4.964844 4.667969 5.332031 4.667969 L 7.332031 4.667969 L 7.332031 1.332031 L 8.667969 1.332031 L 8.667969 4.667969 L 11.332031 4.667969 L 11.332031 1.332031 L 12.667969 1.332031 L 12.667969 4.667969 L 15.332031 4.667969 L 15.332031 1.332031 L 16.667969 1.332031 L 16.667969 4.667969 L 19.332031 4.667969 L 19.332031 1.332031 L 20.667969 1.332031 L 20.667969 4.667969 L 23.332031 4.667969 L 23.332031 1.332031 L 24.667969 1.332031 L 24.667969 4.667969 L 26.667969 4.667969 C 27.035156 4.667969 27.332031 4.964844 27.332031 5.332031 L 27.332031 7.332031 L 30.667969 7.332031 L 30.667969 8.667969 Z M 21.800781 15.980469 C 21.894531 15.925781 21.996094 15.882812 22.101562 15.851562 C 22.203125 15.824219 22.300781 15.808594 22.390625 15.808594 C 22.519531 15.808594 22.613281 15.839844 22.667969 15.902344 C 22.722656 15.964844 22.75 16.066406 22.75 16.210938 L 22.75 17.820312 L 23.300781 17.820312 L 23.300781 15.980469 C 23.480469 15.871094 23.683594 15.8125 23.894531 15.808594 C 24.023438 15.808594 24.113281 15.839844 24.171875 15.902344 C 24.226562 15.964844 24.253906 16.066406 24.253906 16.210938 L 24.253906 17.820312 L 24.804688 17.820312 L 24.804688 16.074219 C 24.804688 15.847656 24.742188 15.671875 24.621094 15.554688 C 24.5 15.433594 24.328125 15.375 24.109375 15.375 C 23.824219 15.375 23.523438 15.480469 23.214844 15.695312 C 23.105469 15.480469 22.90625 15.375 22.617188 15.375 C 22.476562 15.375 22.335938 15.398438 22.199219 15.449219 C 22.042969 15.507812 21.894531 15.585938 21.757812 15.683594 L 21.707031 15.445312 L 21.25 15.445312 L 21.25 17.820312 L 21.800781 17.820312 Z M 19.285156 17.890625 C 19.574219 17.886719 19.863281 17.777344 20.15625 17.558594 L 20.210938 17.820312 L 20.671875 17.820312 L 20.671875 15.445312 L 20.121094 15.445312 L 20.121094 17.265625 C 19.921875 17.390625 19.730469 17.457031 19.535156 17.457031 C 19.398438 17.457031 19.300781 17.417969 19.238281 17.347656 C 19.175781 17.277344 19.144531 17.164062 19.144531 17.011719 L 19.144531 15.445312 L 18.59375 15.445312 L 18.59375 17.175781 C 18.59375 17.40625 18.652344 17.582031 18.773438 17.707031 C 18.894531 17.828125 19.0625 17.890625 19.285156 17.890625 M 17.46875 17.820312 L 18.019531 17.820312 L 18.019531 15.445312 L 17.46875 15.445312 Z M 17.742188 15.050781 C 17.832031 15.054688 17.917969 15.027344 17.988281 14.96875 C 18.050781 14.90625 18.082031 14.820312 18.074219 14.734375 C 18.078125 14.648438 18.046875 14.5625 17.988281 14.5 C 17.917969 14.441406 17.832031 14.414062 17.742188 14.417969 C 17.652344 14.414062 17.566406 14.445312 17.5 14.5 C 17.441406 14.5625 17.410156 14.648438 17.414062 14.734375 C 17.40625 14.820312 17.4375 14.90625 17.5 14.96875 C 17.566406 15.027344 17.652344 15.054688 17.742188 15.050781 M 15.3125 16.015625 C 15.5 15.886719 15.71875 15.816406 15.941406 15.8125 C 16.078125 15.8125 16.179688 15.847656 16.242188 15.914062 C 16.304688 15.984375 16.335938 16.097656 16.335938 16.246094 L 16.335938 17.820312 L 16.886719 17.820312 L 16.886719 16.074219 C 16.882812 15.847656 16.824219 15.675781 16.707031 15.554688 C 16.589844 15.4375 16.417969 15.375 16.191406 15.378906 C 15.871094 15.378906 15.566406 15.488281 15.273438 15.710938 L 15.21875 15.445312 L 14.761719 15.445312 L 14.761719 17.820312 L 15.3125 17.820312 Z M 13.613281 17.820312 L 14.164062 17.820312 L 14.164062 15.445312 L 13.613281 15.445312 Z M 13.890625 15.050781 C 13.976562 15.054688 14.066406 15.027344 14.132812 14.972656 C 14.195312 14.910156 14.226562 14.824219 14.21875 14.734375 C 14.222656 14.648438 14.191406 14.566406 14.132812 14.503906 C 14.066406 14.445312 13.980469 14.414062 13.890625 14.421875 C 13.800781 14.414062 13.714844 14.445312 13.648438 14.503906 C 13.585938 14.5625 13.554688 14.648438 13.558594 14.734375 C 13.558594 14.839844 13.589844 14.910156 13.648438 14.972656 C 13.714844 15.03125 13.800781 15.058594 13.890625 15.054688 M 12.511719 16.828125 C 12.351562 16.796875 12.210938 16.78125 12.085938 16.777344 C 11.769531 16.777344 11.613281 16.902344 11.613281 17.15625 C 11.613281 17.265625 11.644531 17.351562 11.703125 17.410156 C 11.765625 17.472656 11.847656 17.5 11.953125 17.5 C 12.042969 17.5 12.132812 17.480469 12.230469 17.441406 C 12.328125 17.402344 12.421875 17.347656 12.511719 17.277344 Z M 12.511719 16.503906 L 12.511719 16.226562 C 12.511719 16.070312 12.480469 15.957031 12.410156 15.894531 C 12.34375 15.832031 12.222656 15.800781 12.050781 15.800781 C 11.808594 15.800781 11.53125 15.855469 11.214844 15.957031 L 11.214844 15.570312 C 11.332031 15.511719 11.476562 15.464844 11.644531 15.429688 C 11.8125 15.394531 11.984375 15.378906 12.15625 15.378906 C 12.464844 15.378906 12.695312 15.441406 12.84375 15.566406 C 12.988281 15.6875 13.0625 15.878906 13.0625 16.148438 L 13.0625 17.824219 L 12.582031 17.824219 L 12.542969 17.59375 C 12.433594 17.683594 12.3125 17.757812 12.179688 17.8125 C 12.054688 17.867188 11.921875 17.894531 11.785156 17.894531 C 11.589844 17.902344 11.398438 17.828125 11.253906 17.695312 C 11.117188 17.5625 11.042969 17.378906 11.050781 17.1875 C 11.050781 16.957031 11.136719 16.773438 11.300781 16.636719 C 11.46875 16.5 11.691406 16.433594 11.972656 16.433594 C 12.136719 16.433594 12.316406 16.457031 12.511719 16.503906 M 10.042969 16.101562 C 10.226562 15.984375 10.4375 15.921875 10.65625 15.925781 C 10.746094 15.925781 10.835938 15.933594 10.921875 15.945312 L 10.921875 15.441406 C 10.859375 15.433594 10.792969 15.429688 10.730469 15.429688 C 10.605469 15.429688 10.484375 15.457031 10.375 15.511719 C 10.265625 15.570312 10.152344 15.664062 10.023438 15.800781 L 9.953125 15.449219 L 9.492188 15.449219 L 9.492188 17.824219 L 10.042969 17.824219 Z M 7.855469 15.050781 L 6.84375 15.050781 L 6.84375 14.585938 L 9.4375 14.585938 L 9.4375 15.050781 L 8.425781 15.050781 L 8.425781 17.820312 L 7.855469 17.820312 Z M 7.855469 15.050781 "/>
</svg>
