<?xml version="1.0" encoding="UTF-8"?>
<svg xmlns="http://www.w3.org/2000/svg" xmlns:xlink="http://www.w3.org/1999/xlink" width="32" height="32" viewBox="0 0 32 32">
<path fill-rule="evenodd" fill="rgb(83.137255%, 35.686275%, 2.745098%)" fill-opacity="1" d="M 21.398438 19.257812 L 20.296875 19.257812 L 20.296875 14.503906 L 21.214844 14.503906 L 21.324219 15.027344 C 21.910156 14.585938 22.519531 14.367188 23.15625 14.367188 C 23.609375 14.367188 23.953125 14.484375 24.191406 14.726562 C 24.425781 14.964844 24.546875 15.3125 24.546875 15.765625 L 24.546875 19.257812 L 23.441406 19.257812 L 23.441406 16.109375 C 23.441406 15.804688 23.382812 15.582031 23.257812 15.441406 C 23.132812 15.304688 22.933594 15.234375 22.660156 15.234375 C 22.25 15.234375 21.828125 15.371094 21.398438 15.644531 Z M 16.78125 19.394531 C 16.164062 19.394531 15.554688 19.269531 14.988281 19.023438 L 14.988281 18.144531 C 15.667969 18.375 16.257812 18.492188 16.75 18.492188 C 17.671875 18.492188 18.132812 18.09375 18.132812 17.296875 C 18.132812 16.910156 18.019531 16.628906 17.785156 16.453125 C 17.554688 16.273438 17.183594 16.1875 16.679688 16.1875 C 16.300781 16.1875 15.828125 16.214844 15.257812 16.277344 L 15.257812 15.570312 L 15.4375 12.789062 L 18.945312 12.789062 L 18.945312 13.675781 L 16.476562 13.675781 L 16.371094 15.402344 C 16.625 15.351562 16.894531 15.328125 17.179688 15.328125 C 17.828125 15.328125 18.335938 15.5 18.707031 15.851562 C 19.078125 16.199219 19.261719 16.675781 19.261719 17.277344 C 19.261719 17.925781 19.039062 18.4375 18.589844 18.824219 C 18.144531 19.203125 17.539062 19.394531 16.78125 19.394531 M 8.5 19.257812 L 7.457031 19.257812 L 7.457031 12.789062 L 8.726562 12.789062 L 10.667969 16.644531 L 12.644531 12.789062 L 13.878906 12.789062 L 13.878906 19.257812 L 12.832031 19.257812 L 12.832031 14.410156 L 11.152344 17.632812 L 10.125 17.632812 L 8.5 14.429688 Z M 6 26 L 26 26 L 26 6 L 6 6 Z M 30.667969 8.667969 L 30.667969 7.332031 L 27.332031 7.332031 L 27.332031 5.332031 C 27.332031 4.964844 27.035156 4.667969 26.667969 4.667969 L 24.667969 4.667969 L 24.667969 1.332031 L 23.332031 1.332031 L 23.332031 4.667969 L 20.667969 4.667969 L 20.667969 1.332031 L 19.332031 1.332031 L 19.332031 4.667969 L 16.667969 4.667969 L 16.667969 1.332031 L 15.332031 1.332031 L 15.332031 4.667969 L 12.667969 4.667969 L 12.667969 1.332031 L 11.332031 1.332031 L 11.332031 4.667969 L 8.667969 4.667969 L 8.667969 1.332031 L 7.332031 1.332031 L 7.332031 4.667969 L 5.332031 4.667969 C 4.964844 4.667969 4.667969 4.964844 4.667969 5.332031 L 4.667969 7.332031 L 1.332031 7.332031 L 1.332031 8.667969 L 4.667969 8.667969 L 4.667969 11.332031 L 1.332031 11.332031 L 1.332031 12.667969 L 4.667969 12.667969 L 4.667969 15.332031 L 1.332031 15.332031 L 1.332031 16.667969 L 4.667969 16.667969 L 4.667969 19.332031 L 1.332031 19.332031 L 1.332031 20.667969 L 4.667969 20.667969 L 4.667969 23.332031 L 1.332031 23.332031 L 1.332031 24.667969 L 4.667969 24.667969 L 4.667969 26.667969 C 4.667969 27.035156 4.964844 27.332031 5.332031 27.332031 L 7.332031 27.332031 L 7.332031 30.667969 L 8.667969 30.667969 L 8.667969 27.332031 L 11.332031 27.332031 L 11.332031 30.667969 L 12.667969 30.667969 L 12.667969 27.332031 L 15.332031 27.332031 L 15.332031 30.667969 L 16.667969 30.667969 L 16.667969 27.332031 L 19.332031 27.332031 L 19.332031 30.667969 L 20.667969 30.667969 L 20.667969 27.332031 L 23.332031 27.332031 L 23.332031 30.667969 L 24.667969 30.667969 L 24.667969 27.332031 L 26.667969 27.332031 C 27.035156 27.332031 27.332031 27.035156 27.332031 26.667969 L 27.332031 24.667969 L 30.667969 24.667969 L 30.667969 23.332031 L 27.332031 23.332031 L 27.332031 20.667969 L 30.667969 20.667969 L 30.667969 19.332031 L 27.332031 19.332031 L 27.332031 16.667969 L 30.667969 16.667969 L 30.667969 15.332031 L 27.332031 15.332031 L 27.332031 12.667969 L 30.667969 12.667969 L 30.667969 11.332031 L 27.332031 11.332031 L 27.332031 8.667969 Z M 30.667969 8.667969 "/>
</svg>
