<svg role="img" viewBox="0 0 32 32" height="32" width="32" xmlns="http://www.w3.org/2000/svg"><path d="M6 26h20V6H6ZM27.332 8.668v2.664h3.336v1.336h-3.336v2.664h3.336v1.336h-3.336v2.664h3.336v1.336h-3.336v2.664h3.336v1.336h-3.336v2a.664.664 0 0 1-.664.664h-2v3.336h-1.336v-3.336h-2.664v3.336h-1.336v-3.336h-2.664v3.336h-1.336v-3.336h-2.664v3.336h-1.336v-3.336H8.668v3.336H7.332v-3.336h-2a.664.664 0 0 1-.664-.664v-2H1.332v-1.336h3.336v-2.664H1.332v-1.336h3.336v-2.664H1.332v-1.336h3.336v-2.664H1.332v-1.336h3.336V8.668H1.332V7.332h3.336v-2c0-.367.297-.664.664-.664h2V1.332h1.336v3.336h2.664V1.332h1.336v3.336h2.664V1.332h1.336v3.336h2.664V1.332h1.336v3.336h2.664V1.332h1.336v3.336h2c.367 0 .664.297.664.664v2h3.336v1.336Zm-6.035 7.926c0 .86.316 1.289.941 1.289.285 0 .57-.09.844-.278V15.59a1.39 1.39 0 0 0-.832-.266c-.324 0-.566.106-.719.313-.156.207-.234.527-.234.957m-.457 1.449c-.281-.352-.422-.82-.422-1.414 0-.39.062-.734.191-1.031.125-.301.309-.532.551-.703.238-.168.524-.25.852-.25.39 0 .746.125 1.07.378V13.06h.863v5.425h-.738l-.09-.359a1.7 1.7 0 0 1-1.152.441c-.469 0-.844-.171-1.125-.523m-3.684-1.531c0 .824.29 1.234.871 1.234.29 0 .563-.098.82-.289v-1.875a1.412 1.412 0 0 0-.812-.266c-.297 0-.52.098-.664.293-.144.196-.215.496-.215.903m-.472 1.39c-.274-.34-.41-.793-.41-1.359 0-.371.062-.7.183-.988.113-.266.293-.5.527-.672.23-.156.504-.238.817-.238.426 0 .793.148 1.105.445l.074-.336h.735v3.476c0 .59-.16 1.047-.485 1.372-.32.324-.777.484-1.375.484a2.86 2.86 0 0 1-1.28-.3v-.618c.456.152.863.227 1.226.227.367.003.633-.082.797-.254.168-.164.25-.442.25-.825V18c-.317.273-.676.41-1.078.41-.454 0-.817-.168-1.086-.508m-.997-.113H13.13c.586-.531 1.047-.98 1.379-1.34.336-.36.578-.68.726-.96.153-.282.227-.56.227-.833a1.266 1.266 0 0 0-.73-1.203 1.768 1.768 0 0 0-.801-.168c-.567 0-1.082.192-1.547.574v.72c.254-.177.504-.313.75-.411.246-.094.476-.14.687-.14.239 0 .422.062.555.187.133.125.2.297.2.523.003.192-.06.399-.184.625-.121.223-.344.52-.66.887-.317.367-.813.89-1.489 1.574v.66h3.445Zm-8.21.695 1.699-2.632-1.582-2.45h.894l1.207 1.805 1.184-1.805h.894L10.18 15.84l1.71 2.644h-.894L9.66 16.477l-1.289 2.007Zm0 0" fill="rgb(83.137255%, 35.686275%, 2.745098%)" fill-rule="evenodd"/></svg>