<svg role="img" viewBox="0 0 32 32" xmlns="http://www.w3.org/2000/svg"><path d="M6 26h20V6H6ZM27.332 8.668v2.664h3.336v1.336h-3.336v2.664h3.336v1.336h-3.336v2.664h3.336v1.336h-3.336v2.664h3.336v1.336h-3.336v2a.664.664 0 0 1-.664.664h-2v3.336h-1.336v-3.336h-2.664v3.336h-1.336v-3.336h-2.664v3.336h-1.336v-3.336h-2.664v3.336h-1.336v-3.336H8.668v3.336H7.332v-3.336h-2a.664.664 0 0 1-.664-.664v-2H1.332v-1.336h3.336v-2.664H1.332v-1.336h3.336v-2.664H1.332v-1.336h3.336v-2.664H1.332v-1.336h3.336V8.668H1.332V7.332h3.336v-2c0-.367.297-.664.664-.664h2V1.332h1.336v3.336h2.664V1.332h1.336v3.336h2.664V1.332h1.336v3.336h2.664V1.332h1.336v3.336h2.664V1.332h1.336v3.336h2c.367 0 .664.297.664.664v2h3.336v1.336Zm-4.945 6.7q.44-.277.855-.278c.188 0 .32.047.406.14q.124.145.125.454v2.136h.747v-2.37c0-.305-.079-.544-.239-.704q-.24-.246-.703-.246-.645.002-1.242.45l-.074-.352h-.621v3.222h.746Zm-3.668.75q.002 1.06.754 1.062.373 0 .71-.246v-1.622a1.2 1.2 0 0 0-.703-.23q-.386.001-.574.254t-.187.781m-.407 1.198q-.351-.441-.351-1.175-.002-.482.156-.852.159-.37.457-.578.3-.21.703-.211.553 0 .957.387l.063-.29h.633v3q.002.768-.418 1.184c-.278.282-.672.418-1.184.418q-.587 0-1.11-.258v-.535q.591.2 1.06.2.474-.001.69-.22.217-.217.216-.71v-.274a1.4 1.4 0 0 1-.93.356q-.591-.001-.942-.442m-1.917-1.003v-1.934l-1.325 1.934Zm0 .593h-2.079v-.562l2.047-2.914h.785v2.883h.59v.593h-.59v.914h-.753ZM9.82 15.324c.133-.078.27-.133.41-.176q.213-.058.395-.058.258.001.375.125.112.13.113.418v2.187h.746v-2.496c.11-.066.239-.125.387-.168a1.5 1.5 0 0 1 .418-.066c.176 0 .297.043.375.125q.112.13.113.418v2.187h.746v-2.37c0-.305-.082-.544-.246-.704q-.245-.246-.695-.246-.584.002-1.215.438-.221-.436-.812-.438-.287 0-.567.102a2.6 2.6 0 0 0-.597.316l-.07-.32h-.622v3.222h.746ZM7.492 17.82h.774v-4.39h-.774Zm0 0" fill="rgb(83.137256%, 35.686275%, 2.745098%)" fill-rule="evenodd"/></svg>