<svg role="img" viewBox="0 0 32 32" xmlns="http://www.w3.org/2000/svg"><path d="M6 26h20V6H6ZM30.668 8.668V7.332h-3.336v-2a.664.664 0 0 0-.664-.664h-2V1.332h-1.336v3.336h-2.664V1.332h-1.336v3.336h-2.664V1.332h-1.336v3.336h-2.664V1.332h-1.336v3.336H8.668V1.332H7.332v3.336h-2a.664.664 0 0 0-.664.664v2H1.332v1.336h3.336v2.664H1.332v1.336h3.336v2.664H1.332v1.336h3.336v2.664H1.332v1.336h3.336v2.664H1.332v1.336h3.336v2c0 .367.297.664.664.664h2v3.336h1.336v-3.336h2.664v3.336h1.336v-3.336h2.664v3.336h1.336v-3.336h2.664v3.336h1.336v-3.336h2.664v3.336h1.336v-3.336h2a.664.664 0 0 0 .664-.664v-2h3.336v-1.336h-3.336v-2.664h3.336v-1.336h-3.336v-2.664h3.336v-1.336h-3.336v-2.664h3.336v-1.336h-3.336V8.668Zm-10.219 6.86c.2-.266.504-.4.922-.4.387 0 .734.114 1.055.337v2.566c-.352.239-.707.356-1.074.356q-1.196 0-1.196-1.64 0-.822.293-1.22m.559 3.726q.826.002 1.465-.559l.109.457h.945v-6.906h-1.101v2.5a2.17 2.17 0 0 0-1.363-.484q-.626.002-1.083.324c-.304.21-.539.512-.699.89q-.246.569-.246 1.317c0 .75.18 1.352.54 1.797q.534.663 1.433.664m-5.293.039a4.4 4.4 0 0 1-1.793-.375v-.875c.68.23 1.27.344 1.762.344q1.382 0 1.382-1.196c0-.382-.113-.668-.347-.843-.23-.176-.602-.266-1.106-.266q-.567 0-1.422.094v-.711l.18-2.781h3.508v.886H15.41l-.105 1.727q.38-.072.808-.074.973 0 1.528.523.554.522.554 1.43.002.967-.672 1.543-.67.574-1.808.574m-6.106-5.73h1.16q1.063 0 1.063 1.074 0 1.071-1.09 1.07H9.61Zm0 3.023h1.141l1.512 2.566h1.136L11.73 16.39q.615-.244.938-.7.321-.458.32-1.093 0-.879-.574-1.395-.573-.521-1.527-.52H8.473v6.47h1.136Zm0 0" fill="rgb(83.137256%, 35.686275%, 2.745098%)" fill-rule="evenodd"/></svg>