<?xml version="1.0" encoding="UTF-8"?>
<svg xmlns="http://www.w3.org/2000/svg" xmlns:xlink="http://www.w3.org/1999/xlink" width="32" height="32" viewBox="0 0 32 32">
<path fill-rule="evenodd" fill="rgb(83.137255%, 35.686275%, 2.745098%)" fill-opacity="1" d="M 18.378906 19.339844 C 17.78125 19.339844 17.199219 19.214844 16.625 18.96875 L 16.625 18.089844 C 17.304688 18.320312 17.878906 18.4375 18.339844 18.4375 C 18.78125 18.4375 19.117188 18.335938 19.355469 18.140625 C 19.59375 17.945312 19.714844 17.667969 19.714844 17.304688 C 19.714844 16.621094 19.28125 16.277344 18.417969 16.277344 C 18.140625 16.277344 17.839844 16.296875 17.519531 16.335938 L 17.519531 15.617188 L 19.359375 13.617188 L 16.71875 13.617188 L 16.71875 12.734375 L 20.574219 12.734375 L 20.574219 13.582031 L 18.632812 15.488281 C 18.71875 15.480469 18.804688 15.476562 18.890625 15.476562 C 19.253906 15.476562 19.582031 15.550781 19.875 15.707031 C 20.171875 15.859375 20.40625 16.074219 20.582031 16.355469 C 20.753906 16.632812 20.84375 16.953125 20.84375 17.316406 C 20.84375 17.707031 20.742188 18.054688 20.542969 18.359375 C 20.332031 18.675781 20.035156 18.925781 19.6875 19.078125 C 19.3125 19.253906 18.878906 19.339844 18.378906 19.339844 M 12.292969 13.609375 L 13.4375 13.609375 C 13.785156 13.609375 14.050781 13.703125 14.230469 13.898438 C 14.40625 14.09375 14.496094 14.375 14.496094 14.75 C 14.496094 15.121094 14.40625 15.402344 14.230469 15.597656 C 14.050781 15.789062 13.785156 15.886719 13.4375 15.886719 L 12.292969 15.886719 Z M 12.292969 16.765625 L 13.570312 16.765625 C 14.214844 16.765625 14.722656 16.582031 15.09375 16.222656 C 15.46875 15.863281 15.65625 15.371094 15.65625 14.75 C 15.652344 14.125 15.464844 13.632812 15.089844 13.273438 C 14.714844 12.914062 14.203125 12.734375 13.554688 12.734375 L 11.15625 12.734375 L 11.15625 19.199219 L 12.292969 19.199219 Z M 6 26 L 26 26 L 26 6 L 6 6 Z M 30.667969 8.667969 L 30.667969 7.332031 L 27.332031 7.332031 L 27.332031 5.332031 C 27.332031 4.964844 27.035156 4.667969 26.667969 4.667969 L 24.667969 4.667969 L 24.667969 1.332031 L 23.332031 1.332031 L 23.332031 4.667969 L 20.667969 4.667969 L 20.667969 1.332031 L 19.332031 1.332031 L 19.332031 4.667969 L 16.667969 4.667969 L 16.667969 1.332031 L 15.332031 1.332031 L 15.332031 4.667969 L 12.667969 4.667969 L 12.667969 1.332031 L 11.332031 1.332031 L 11.332031 4.667969 L 8.667969 4.667969 L 8.667969 1.332031 L 7.332031 1.332031 L 7.332031 4.667969 L 5.332031 4.667969 C 4.964844 4.667969 4.667969 4.964844 4.667969 5.332031 L 4.667969 7.332031 L 1.332031 7.332031 L 1.332031 8.667969 L 4.667969 8.667969 L 4.667969 11.332031 L 1.332031 11.332031 L 1.332031 12.667969 L 4.667969 12.667969 L 4.667969 15.332031 L 1.332031 15.332031 L 1.332031 16.667969 L 4.667969 16.667969 L 4.667969 19.332031 L 1.332031 19.332031 L 1.332031 20.667969 L 4.667969 20.667969 L 4.667969 23.332031 L 1.332031 23.332031 L 1.332031 24.667969 L 4.667969 24.667969 L 4.667969 26.667969 C 4.667969 27.035156 4.964844 27.332031 5.332031 27.332031 L 7.332031 27.332031 L 7.332031 30.667969 L 8.667969 30.667969 L 8.667969 27.332031 L 11.332031 27.332031 L 11.332031 30.667969 L 12.667969 30.667969 L 12.667969 27.332031 L 15.332031 27.332031 L 15.332031 30.667969 L 16.667969 30.667969 L 16.667969 27.332031 L 19.332031 27.332031 L 19.332031 30.667969 L 20.667969 30.667969 L 20.667969 27.332031 L 23.332031 27.332031 L 23.332031 30.667969 L 24.667969 30.667969 L 24.667969 27.332031 L 26.667969 27.332031 C 27.035156 27.332031 27.332031 27.035156 27.332031 26.667969 L 27.332031 24.667969 L 30.667969 24.667969 L 30.667969 23.332031 L 27.332031 23.332031 L 27.332031 20.667969 L 30.667969 20.667969 L 30.667969 19.332031 L 27.332031 19.332031 L 27.332031 16.667969 L 30.667969 16.667969 L 30.667969 15.332031 L 27.332031 15.332031 L 27.332031 12.667969 L 30.667969 12.667969 L 30.667969 11.332031 L 27.332031 11.332031 L 27.332031 8.667969 Z M 30.667969 8.667969 "/>
</svg>
