<svg role="img" viewBox="0 0 32 32" height="32" width="32" xmlns="http://www.w3.org/2000/svg"><path d="M22.477 24.48h1.453V7.93h-1.453Zm-13.997 0h1.454V7.93H8.48Zm19.09-7.195-1.297-1.078 1.297-1.082Zm1.032-4.37a.742.742 0 0 0-.774.097l-3.16 2.636a.734.734 0 0 0-.258.559c0 .215.094.422.258.555l3.164 2.636c.215.18.516.22.77.098a.721.721 0 0 0 .421-.656v-5.27a.721.721 0 0 0-.421-.656M4.84 17.285v-2.16l1.297 1.082Zm-.258-4.273a.734.734 0 0 0-.773-.098.724.724 0 0 0-.418.656v5.27c0 .281.16.539.414.66a.718.718 0 0 0 .773-.102l3.164-2.636A.72.72 0 0 0 8 16.207a.734.734 0 0 0-.258-.559ZM16.207 30.75c-8.023 0-14.547-6.523-14.547-14.543C1.66 8.184 8.184 1.66 16.207 1.66c8.02 0 14.543 6.524 14.543 14.547 0 8.02-6.523 14.543-14.543 14.543m0-30.543c-8.824 0-16 7.172-16 16 0 8.824 7.176 16 16 16 8.82 0 16-7.176 16-16 0-8.828-7.18-16-16-16m3.086 19.727-6.176-.004v-4.907l6.176.004Zm-4.266-7.329c0-.398.137-.773.38-1.046.218-.246.507-.387.804-.387h.004c.648.004 1.172.652 1.168 1.453v.945h-2.36Zm4.996.965h-1.187l.004-.941c.004-1.602-1.176-2.906-2.621-2.914h-.008c-.719 0-1.39.312-1.895.879a3.027 3.027 0 0 0-.746 2.004l-.004.972-1.175-.004a.736.736 0 0 0-.52.215.773.773 0 0 0-.21.516v6.36c0 .402.323.726.726.726l7.633.004a.69.69 0 0 0 .515-.215.721.721 0 0 0 .211-.512l.004-6.363a.73.73 0 0 0-.21-.516.73.73 0 0 0-.517-.21" fill="rgb(54.901961%, 30.980392%, 100%)"/></svg>