<svg role="img" viewBox="0 0 32 32" height="32" width="32" xmlns="http://www.w3.org/2000/svg"><path d="m18.594 17.043 1.949-2.848v2.848Zm1.949 2.219h1.113v-1.344h.867v-.875h-.867v-4.246h-1.16l-3.012 4.293v.828h3.059Zm-9.434 0h-1.046v-6.465h1.269l1.941 3.851 1.98-3.851h1.231v6.465h-1.043v-4.844l-1.68 3.219h-1.027l-1.625-3.2ZM6 26h20V6H6ZM30.668 8.664V7.332h-3.336v-2a.664.664 0 0 0-.664-.664h-2V1.332h-1.336v3.336h-2.664V1.332h-1.336v3.336h-2.664V1.332h-1.336v3.336h-2.664V1.332h-1.336v3.336H8.668V1.332H7.332v3.336h-2a.664.664 0 0 0-.664.664v2H1.332v1.332h3.336v2.668H1.332v1.336h3.336v2.664H1.332v1.336h3.336v2.664H1.332v1.332h3.336v2.668H1.332v1.336h3.336v2c0 .367.297.664.664.664h2v3.332h1.336v-3.332h2.664v3.332h1.336v-3.332h2.664v3.332h1.336v-3.332h2.664v3.332h1.336v-3.332h2.664v3.332h1.336v-3.332h2a.664.664 0 0 0 .664-.664v-2h3.336v-1.336h-3.336v-2.668h3.336v-1.332h-3.336v-2.664h3.336v-1.336h-3.336v-2.664h3.336v-1.336h-3.336V8.664Zm0 0" fill="rgb(83.137255%, 35.686275%, 2.745098%)" fill-rule="evenodd"/></svg>