<svg role="img" viewBox="0 0 32 32" xmlns="http://www.w3.org/2000/svg"><path d="M6 26h20V6H6ZM27.332 8.668v2.664h3.336v1.336h-3.336v2.664h3.336v1.336h-3.336v2.664h3.336v1.336h-3.336v2.664h3.336v1.336h-3.336v2a.664.664 0 0 1-.664.664h-2v3.336h-1.336v-3.336h-2.664v3.336h-1.336v-3.336h-2.664v3.336h-1.336v-3.336h-2.664v3.336h-1.336v-3.336H8.668v3.336H7.332v-3.336h-2a.664.664 0 0 1-.664-.664v-2H1.332v-1.336h3.336v-2.664H1.332v-1.336h3.336v-2.664H1.332v-1.336h3.336v-2.664H1.332v-1.336h3.336V8.668H1.332V7.332h3.336v-2c0-.367.297-.664.664-.664h2V1.332h1.336v3.336h2.664V1.332h1.336v3.336h2.664V1.332h1.336v3.336h2.664V1.332h1.336v3.336h2.664V1.332h1.336v3.336h2c.367 0 .664.297.664.664v2h3.336v1.336Zm-5.512 9.176q-.002.168.102.265a.38.38 0 0 0 .277.094.4.4 0 0 0 .278-.094.34.34 0 0 0 .097-.265.35.35 0 0 0-.097-.27.4.4 0 0 0-.278-.094.38.38 0 0 0-.277.094.34.34 0 0 0-.102.27m.063 3.523h.629v-2.715h-.63Zm-2.61-1.375q.002.938.684.938.316 0 .613-.203v-1.465a1 1 0 0 0-.601-.192q-.358 0-.528.227c-.109.148-.168.383-.168.695m-.101-1.234q.264-.186.621-.184c.281 0 .543.09.777.278v-1.43h.63v3.945h-.54l-.062-.262q-.366.321-.836.32c-.344 0-.617-.124-.82-.382q-.308-.38-.31-1.023 0-.428.141-.754c.094-.215.227-.387.399-.508m-3.434-.106v1.98q0 .395.207.606c.137.14.328.211.582.211q.498-.002.996-.379l.067.297h.523v-2.715h-.629v2.082q-.34.219-.668.22-.234-.002-.34-.126c-.074-.082-.109-.207-.109-.383v-1.793Zm-1.21 1.578a2.6 2.6 0 0 0-.489-.058q-.544 0-.543.433c0 .125.04.22.106.29q.104.105.285.105a.9.9 0 0 0 .32-.066q.167-.07.32-.192Zm-1.485-1.437q.205-.103.492-.16.292-.06.586-.059c.356 0 .613.07.781.211.172.145.254.367.254.668v1.914h-.55l-.047-.262a1.5 1.5 0 0 1-.41.25 1.2 1.2 0 0 1-.454.094.85.85 0 0 1-.605-.226.77.77 0 0 1-.23-.582.78.78 0 0 1 .285-.63q.285-.234.765-.234.283 0 .617.082v-.316c0-.18-.039-.309-.117-.379q-.117-.105-.41-.105-.417 0-.957.175Zm-2.035 1.066h.762v.977a2.7 2.7 0 0 1-.5.047q-.645-.001-.95-.313-.3-.312-.3-.98v-.11q0-.678.304-1c.203-.21.516-.32.938-.32.312 0 .66.063 1.031.188v-.516a2.5 2.5 0 0 0-1.078-.219q-.899-.002-1.375.5-.48.498-.48 1.43.001.918.464 1.402.468.486 1.352.485.346 0 .676-.07.3-.06.57-.2v-1.812h-1.414Zm13.156-6.027a2.6 2.6 0 0 0-.488-.059q-.54.001-.54.43a.4.4 0 0 0 .102.293q.104.104.285.102.152.002.32-.067c.11-.043.22-.105.321-.187Zm0-.375v-.312q0-.275-.117-.38-.117-.107-.41-.109-.416 0-.953.18v-.445q.198-.101.492-.16.288-.06.582-.06.533 0 .785.216.251.211.25.664v1.918h-.547l-.047-.262a1.6 1.6 0 0 1-.414.25c-.152.059-.3.09-.453.09a.85.85 0 0 1-.605-.223.8.8 0 0 1-.23-.582.78.78 0 0 1 .284-.629q.287-.234.766-.234.281 0 .617.078m-3.941-.555q.367-.234.722-.234.235-.001.34.121.106.118.106.383v1.797h.629v-1.996q0-.388-.2-.594-.206-.206-.593-.207c-.364 0-.711.129-1.047.379l-.063-.297h-.523v2.715h.629Zm-1.868.93a2.6 2.6 0 0 0-.488-.059q-.54.001-.539.43a.4.4 0 0 0 .102.293q.106.104.289.102.152.002.316-.067.167-.064.32-.187Zm0-.375v-.312q0-.275-.117-.38-.117-.107-.41-.109-.415 0-.953.18v-.445q.2-.101.492-.16.289-.06.582-.06.534 0 .785.216.251.211.25.664v1.918h-.547l-.046-.262a1.5 1.5 0 0 1-.414.25c-.153.059-.301.09-.454.09-.246 0-.449-.074-.601-.223a.78.78 0 0 1-.235-.582.77.77 0 0 1 .286-.629q.286-.234.765-.234.283 0 .617.078m-3.964.863q.299.21.632.211.342 0 .508-.234.164-.23.164-.707 0-.468-.16-.695-.164-.225-.504-.227-.35-.001-.64.203Zm-.11.649h-.52v-3.95h.63v1.473c.25-.21.53-.32.836-.32.34 0 .605.129.808.379q.3.381.3 1.02 0 .425-.136.753-.14.328-.402.516c-.18.125-.395.191-.613.187-.313 0-.61-.12-.836-.336Zm-1.758-1.137a2.6 2.6 0 0 0-.488-.059q-.544.001-.543.43 0 .188.106.293.104.104.285.102.152.002.316-.067c.114-.043.219-.105.324-.187Zm0-.375v-.312q0-.275-.117-.38-.117-.107-.41-.109-.417 0-.957.18v-.445c.137-.067.297-.121.492-.16.196-.04.387-.06.582-.06q.534 0 .785.216.253.211.254.664v1.918h-.55l-.047-.262a1.5 1.5 0 0 1-.414.25q-.228.09-.45.09-.376 0-.605-.223a.78.78 0 0 1-.234-.582q.002-.393.285-.629c.191-.156.449-.234.765-.234.192 0 .395.027.621.078m-4.562 1.512h-.649v-3.7h.649v1.555h1.695V11.27h.653v3.699h-.653v-1.621H7.961Zm0 0" fill="rgb(83.137256%, 35.686275%, 2.745098%)" fill-rule="evenodd"/></svg>