<svg role="img" viewBox="0 0 32 32" xmlns="http://www.w3.org/2000/svg"><path d="M.203.203h31.594v31.594H.203Zm0 0" fill="rgb(92.941177%, 44.313726%, 0%)"/><path d="M28.54 15.457h-4.571l2.183-2.184-.812-.804-3.188 3.191a.56.56 0 0 0 0 .805l3.188 3.191.812-.804-2.254-2.254h4.641ZM6.655 12.469l-.808.804 2.183 2.184H3.46v1.14H8.1l-2.253 2.255.808.804 3.192-3.191a.57.57 0 0 0 .168-.402.57.57 0 0 0-.168-.403Zm6.403 6.5h5.882v-5.883h-5.88Zm6.898-6.52h1.059v1.14h-.934v.864h.934v1.14h-.934v.868h.934v1.144h-.934v.864h.934v1.14h-1.059c-.09.157-.219.286-.375.375v1.059h-1.145v-.93h-.863v.93h-1.14v-.93h-.868v.93h-1.14v-.93h-.864v.93h-1.144v-1.059a1 1 0 0 1-.375-.375h-1.059v-1.14h.934v-.864h-.934v-1.144h.934v-.867h-.934v-1.14h.934v-.864h-.934v-1.14h1.059a.96.96 0 0 1 .375-.384v-1.054h1.145v.933h.863v-.933h1.14v.933h.868v-.933h1.14v.933h.863v-.933h1.145v1.054c.156.09.285.223.375.383M16.57 26.688v-4.641h-1.14v4.644l-2.22-2.222-.808.812 3.192 3.192a.583.583 0 0 0 .808 0l3.196-3.192-.813-.812ZM13.21 7.586l-.808-.809 3.192-3.191a.573.573 0 0 1 .808 0l3.196 3.191-.813.809-2.215-2.219v4.64h-1.14v-4.64Zm0 0" fill="rgb(100%, 100%, 100%)"/></svg>