<svg role="img" viewBox="0 0 32 32" xmlns="http://www.w3.org/2000/svg"><path d="M6 26h20V6H6ZM27.332 8.668v2.664h3.336v1.336h-3.336v2.664h3.336v1.336h-3.336v2.664h3.336v1.336h-3.336v2.664h3.336v1.336h-3.336v2a.664.664 0 0 1-.664.664h-2v3.336h-1.336v-3.336h-2.664v3.336h-1.336v-3.336h-2.664v3.336h-1.336v-3.336h-2.664v3.336h-1.336v-3.336H8.668v3.336H7.332v-3.336h-2a.664.664 0 0 1-.664-.664v-2H1.332v-1.336h3.336v-2.664H1.332v-1.336h3.336v-2.664H1.332v-1.336h3.336v-2.664H1.332v-1.336h3.336V8.668H1.332V7.332h3.336v-2c0-.367.297-.664.664-.664h2V1.332h1.336v3.336h2.664V1.332h1.336v3.336h2.664V1.332h1.336v3.336h2.664V1.332h1.336v3.336h2.664V1.332h1.336v3.336h2c.367 0 .664.297.664.664v2h3.336v1.336ZM20.75 19.152h1.102v-4.75H20.75Zm.55-5.535q.31 0 .485-.168.176-.165.176-.465 0-.299-.176-.468-.175-.166-.484-.168-.31.002-.485.168-.18.17-.18.468 0 .3.18.465.176.17.485.168m-4.964 2.801q.064 1.987 1.293 1.988.504.001.785-.308c.188-.203.281-.493.281-.86q0-.557-.293-.851-.288-.299-.847-.297a2.6 2.6 0 0 0-1.22.328m-.54 2.082q-.59-.796-.589-2.344 0-1.717.703-2.668.705-.953 1.985-.953.399 0 .804.09.41.088.696.238v.813a3.4 3.4 0 0 0-.657-.184q-.376-.07-.687-.07-.838 0-1.254.558-.415.562-.461 1.727a2.85 2.85 0 0 1 1.57-.473q.867 0 1.395.528.522.525.523 1.402 0 .616-.273 1.098a1.9 1.9 0 0 1-.793.754q-.52.276-1.211.277c-.77 0-1.356-.266-1.75-.793m-5.179-.059c-.523-.546-.789-1.355-.789-2.425q0-1.653.82-2.543.815-.891 2.344-.891.843-.002 1.551.254v.93q-.93-.196-1.457-.196-1.066 0-1.582.551-.516.55-.516 1.7v.222c0 .762.168 1.324.512 1.687q.51.544 1.566.543.592.002 1.57-.23v.934q-.736.288-1.679.289c-1.035 0-1.812-.274-2.34-.825m0 0" fill="rgb(83.137256%, 35.686275%, 2.745098%)" fill-rule="evenodd"/></svg>