<?xml version="1.0" encoding="UTF-8"?>
<svg xmlns="http://www.w3.org/2000/svg" xmlns:xlink="http://www.w3.org/1999/xlink" width="32" height="32" viewBox="0 0 32 32">
<path fill-rule="evenodd" fill="rgb(83.137255%, 35.686275%, 2.745098%)" fill-opacity="1" d="M 6 26 L 26 26 L 26 6 L 6 6 Z M 27.332031 8.667969 L 27.332031 11.332031 L 30.667969 11.332031 L 30.667969 12.667969 L 27.332031 12.667969 L 27.332031 15.332031 L 30.667969 15.332031 L 30.667969 16.667969 L 27.332031 16.667969 L 27.332031 19.332031 L 30.667969 19.332031 L 30.667969 20.667969 L 27.332031 20.667969 L 27.332031 23.332031 L 30.667969 23.332031 L 30.667969 24.667969 L 27.332031 24.667969 L 27.332031 26.667969 C 27.332031 27.035156 27.035156 27.332031 26.667969 27.332031 L 24.667969 27.332031 L 24.667969 30.667969 L 23.332031 30.667969 L 23.332031 27.332031 L 20.667969 27.332031 L 20.667969 30.667969 L 19.332031 30.667969 L 19.332031 27.332031 L 16.667969 27.332031 L 16.667969 30.667969 L 15.332031 30.667969 L 15.332031 27.332031 L 12.667969 27.332031 L 12.667969 30.667969 L 11.332031 30.667969 L 11.332031 27.332031 L 8.667969 27.332031 L 8.667969 30.667969 L 7.332031 30.667969 L 7.332031 27.332031 L 5.332031 27.332031 C 4.964844 27.332031 4.667969 27.035156 4.667969 26.667969 L 4.667969 24.667969 L 1.332031 24.667969 L 1.332031 23.332031 L 4.667969 23.332031 L 4.667969 20.667969 L 1.332031 20.667969 L 1.332031 19.332031 L 4.667969 19.332031 L 4.667969 16.667969 L 1.332031 16.667969 L 1.332031 15.332031 L 4.667969 15.332031 L 4.667969 12.667969 L 1.332031 12.667969 L 1.332031 11.332031 L 4.667969 11.332031 L 4.667969 8.667969 L 1.332031 8.667969 L 1.332031 7.332031 L 4.667969 7.332031 L 4.667969 5.332031 C 4.667969 4.964844 4.964844 4.667969 5.332031 4.667969 L 7.332031 4.667969 L 7.332031 1.332031 L 8.667969 1.332031 L 8.667969 4.667969 L 11.332031 4.667969 L 11.332031 1.332031 L 12.667969 1.332031 L 12.667969 4.667969 L 15.332031 4.667969 L 15.332031 1.332031 L 16.667969 1.332031 L 16.667969 4.667969 L 19.332031 4.667969 L 19.332031 1.332031 L 20.667969 1.332031 L 20.667969 4.667969 L 23.332031 4.667969 L 23.332031 1.332031 L 24.667969 1.332031 L 24.667969 4.667969 L 26.667969 4.667969 C 27.035156 4.667969 27.332031 4.964844 27.332031 5.332031 L 27.332031 7.332031 L 30.667969 7.332031 L 30.667969 8.667969 Z M 20.386719 21.542969 C 20.722656 21.90625 21.203125 22.089844 21.828125 22.089844 C 22.265625 22.089844 22.640625 22.003906 22.957031 21.839844 L 22.957031 21.175781 C 22.613281 21.28125 22.300781 21.335938 22.011719 21.335938 C 21.613281 21.335938 21.316406 21.230469 21.128906 21.015625 C 20.9375 20.800781 20.84375 20.472656 20.84375 20.023438 L 20.84375 19.921875 C 20.84375 19.464844 20.9375 19.132812 21.128906 18.914062 C 21.316406 18.699219 21.613281 18.59375 22.011719 18.59375 C 22.261719 18.59375 22.566406 18.644531 22.925781 18.742188 L 22.925781 18.078125 C 22.59375 17.917969 22.226562 17.835938 21.859375 17.839844 C 21.234375 17.839844 20.75 18.03125 20.402344 18.40625 C 20.058594 18.785156 19.882812 19.316406 19.882812 20 C 19.882812 20.667969 20.050781 21.179688 20.386719 21.542969 M 18.234375 20.296875 C 17.996094 20.242188 17.75 20.210938 17.503906 20.207031 C 16.960938 20.207031 16.691406 20.425781 16.691406 20.855469 C 16.691406 21.042969 16.742188 21.1875 16.847656 21.292969 C 16.964844 21.398438 17.121094 21.457031 17.277344 21.449219 C 17.429688 21.449219 17.585938 21.414062 17.753906 21.347656 C 17.917969 21.28125 18.078125 21.1875 18.234375 21.0625 Z M 16.011719 18.136719 C 16.210938 18.035156 16.457031 17.953125 16.75 17.894531 C 17.039062 17.835938 17.332031 17.808594 17.625 17.808594 C 18.15625 17.808594 18.546875 17.914062 18.800781 18.128906 C 19.054688 18.339844 19.179688 18.675781 19.179688 19.128906 L 19.179688 22 L 18.355469 22 L 18.285156 21.609375 C 18.097656 21.769531 17.890625 21.894531 17.664062 21.984375 C 17.449219 22.074219 17.21875 22.121094 16.988281 22.121094 C 16.613281 22.121094 16.3125 22.007812 16.078125 21.785156 C 15.847656 21.558594 15.734375 21.269531 15.734375 20.910156 C 15.734375 20.515625 15.875 20.203125 16.160156 19.96875 C 16.445312 19.734375 16.828125 19.617188 17.308594 19.617188 C 17.589844 19.617188 17.902344 19.65625 18.234375 19.734375 L 18.234375 19.265625 C 18.234375 18.992188 18.179688 18.800781 18.0625 18.695312 C 17.941406 18.589844 17.738281 18.535156 17.445312 18.535156 C 17.027344 18.535156 16.550781 18.625 16.011719 18.800781 Z M 10.324219 17.863281 L 11.714844 20.609375 L 12.597656 20.609375 L 14.035156 17.847656 L 14.035156 22 L 14.933594 22 L 14.933594 16.457031 L 13.875 16.457031 L 12.179688 19.761719 L 10.515625 16.457031 L 9.429688 16.457031 L 9.429688 22 L 10.324219 22 Z M 19.265625 15.332031 L 20.214844 15.332031 L 20.214844 9.789062 L 19.351562 9.789062 L 17.769531 10.523438 L 17.769531 11.292969 L 19.265625 10.734375 Z M 11.886719 15.332031 L 10.992188 15.332031 L 10.992188 9.789062 L 12.078125 9.789062 L 13.742188 13.09375 L 15.441406 9.789062 L 16.496094 9.789062 L 16.496094 15.332031 L 15.601562 15.332031 L 15.601562 11.179688 L 14.160156 13.941406 L 13.28125 13.941406 L 11.886719 11.199219 Z M 11.886719 15.332031 "/>
</svg>
