<svg role="img" viewBox="0 0 32 32" xmlns="http://www.w3.org/2000/svg"><path d="M6 26h20V6H6ZM27.332 8.668v2.664h3.336v1.336h-3.336v2.664h3.336v1.336h-3.336v2.664h3.336v1.336h-3.336v2.664h3.336v1.336h-3.336v2a.664.664 0 0 1-.664.664h-2v3.336h-1.336v-3.336h-2.664v3.336h-1.336v-3.336h-2.664v3.336h-1.336v-3.336h-2.664v3.336h-1.336v-3.336H8.668v3.336H7.332v-3.336h-2a.664.664 0 0 1-.664-.664v-2H1.332v-1.336h3.336v-2.664H1.332v-1.336h3.336v-2.664H1.332v-1.336h3.336v-2.664H1.332v-1.336h3.336V8.668H1.332V7.332h3.336v-2c0-.367.297-.664.664-.664h2V1.332h1.336v3.336h2.664V1.332h1.336v3.336h2.664V1.332h1.336v3.336h2.664V1.332h1.336v3.336h2.664V1.332h1.336v3.336h2c.367 0 .664.297.664.664v2h3.336v1.336Zm-4.973 6.828q.416-.263.813-.262c.176 0 .3.043.383.133q.118.136.12.43v2.023h.708v-2.246q-.001-.439-.23-.668c-.15-.156-.372-.23-.665-.23q-.61-.002-1.175.426l-.075-.336h-.586v3.054h.707Zm-3.437.774q.001 1.06.77 1.058.352-.001.687-.23v-1.649a1.14 1.14 0 0 0-.676-.215q-.404-.002-.59.254-.192.253-.191.782m-.375 1.187q-.344-.432-.344-1.156-.002-.48.156-.848a1.3 1.3 0 0 1 .45-.57q.291-.209.695-.207c.32 0 .613.101.875.312v-1.61h.71v4.442h-.609l-.07-.297c-.273.243-.586.36-.941.36q-.576.002-.922-.426m-2.524-1.469h1.317v-.047q0-.367-.152-.558-.151-.194-.442-.192a.64.64 0 0 0-.5.215q-.193.218-.223.582m-.328 1.512q-.39-.407-.39-1.187-.001-.774.379-1.208.38-.429 1.066-.43.585 0 .902.321.317.32.317.91-.001.309-.055.555h-1.89q.017.456.246.672.227.21.707.21.427.001.925-.167v.5q-.204.106-.484.172-.278.06-.578.062-.757 0-1.145-.41m-1.175-3.238a.43.43 0 0 0 .312-.11.4.4 0 0 0 .113-.3.4.4 0 0 0-.113-.301.45.45 0 0 0-.312-.106.44.44 0 0 0-.313.106.4.4 0 0 0-.113.3q-.002.196.113.301.112.111.313.11m-.356 3.558h.707v-3.054h-.707Zm-.48-.57H11.59c.48-.437.855-.8 1.129-1.098q.41-.439.594-.785.187-.345.187-.68-.001-.35-.16-.601a1.03 1.03 0 0 0-.438-.387 1.5 1.5 0 0 0-.656-.133q-.697-.002-1.266.465v.59q.31-.216.614-.332t.562-.117q.295 0 .453.152.164.153.164.43 0 .233-.152.508-.146.275-.539.726-.387.45-1.219 1.29v.542h2.82Zm-6.54.57 1.391-2.156-1.293-2.004h.73l.989 1.477.969-1.477h.73l-1.3 1.992 1.398 2.168h-.735l-1.09-1.644-1.058 1.644Zm0 0" fill="rgb(83.137256%, 35.686275%, 2.745098%)" fill-rule="evenodd"/></svg>