<?xml version="1.0" encoding="UTF-8"?>
<svg xmlns="http://www.w3.org/2000/svg" xmlns:xlink="http://www.w3.org/1999/xlink" width="32" height="32" viewBox="0 0 32 32">
<path fill-rule="evenodd" fill="rgb(83.137255%, 35.686275%, 2.745098%)" fill-opacity="1" d="M 6 26 L 26 26 L 26 6 L 6 6 Z M 27.332031 8.667969 L 27.332031 11.332031 L 30.667969 11.332031 L 30.667969 12.667969 L 27.332031 12.667969 L 27.332031 15.332031 L 30.667969 15.332031 L 30.667969 16.667969 L 27.332031 16.667969 L 27.332031 19.332031 L 30.667969 19.332031 L 30.667969 20.667969 L 27.332031 20.667969 L 27.332031 23.332031 L 30.667969 23.332031 L 30.667969 24.667969 L 27.332031 24.667969 L 27.332031 26.667969 C 27.332031 27.035156 27.035156 27.332031 26.667969 27.332031 L 24.667969 27.332031 L 24.667969 30.667969 L 23.332031 30.667969 L 23.332031 27.332031 L 20.667969 27.332031 L 20.667969 30.667969 L 19.332031 30.667969 L 19.332031 27.332031 L 16.667969 27.332031 L 16.667969 30.667969 L 15.332031 30.667969 L 15.332031 27.332031 L 12.667969 27.332031 L 12.667969 30.667969 L 11.332031 30.667969 L 11.332031 27.332031 L 8.667969 27.332031 L 8.667969 30.667969 L 7.332031 30.667969 L 7.332031 27.332031 L 5.332031 27.332031 C 4.964844 27.332031 4.667969 27.035156 4.667969 26.667969 L 4.667969 24.667969 L 1.332031 24.667969 L 1.332031 23.332031 L 4.667969 23.332031 L 4.667969 20.667969 L 1.332031 20.667969 L 1.332031 19.332031 L 4.667969 19.332031 L 4.667969 16.667969 L 1.332031 16.667969 L 1.332031 15.332031 L 4.667969 15.332031 L 4.667969 12.667969 L 1.332031 12.667969 L 1.332031 11.332031 L 4.667969 11.332031 L 4.667969 8.667969 L 1.332031 8.667969 L 1.332031 7.332031 L 4.667969 7.332031 L 4.667969 5.332031 C 4.667969 4.964844 4.964844 4.667969 5.332031 4.667969 L 7.332031 4.667969 L 7.332031 1.332031 L 8.667969 1.332031 L 8.667969 4.667969 L 11.332031 4.667969 L 11.332031 1.332031 L 12.667969 1.332031 L 12.667969 4.667969 L 15.332031 4.667969 L 15.332031 1.332031 L 16.667969 1.332031 L 16.667969 4.667969 L 19.332031 4.667969 L 19.332031 1.332031 L 20.667969 1.332031 L 20.667969 4.667969 L 23.332031 4.667969 L 23.332031 1.332031 L 24.667969 1.332031 L 24.667969 4.667969 L 26.667969 4.667969 C 27.035156 4.667969 27.332031 4.964844 27.332031 5.332031 L 27.332031 7.332031 L 30.667969 7.332031 L 30.667969 8.667969 Z M 22.105469 16.496094 C 21.824219 16.433594 21.539062 16.398438 21.253906 16.394531 C 20.621094 16.394531 20.304688 16.648438 20.304688 17.152344 C 20.304688 17.371094 20.367188 17.539062 20.488281 17.660156 C 20.609375 17.78125 20.777344 17.84375 20.988281 17.84375 C 21.164062 17.84375 21.347656 17.804688 21.542969 17.726562 C 21.738281 17.648438 21.925781 17.539062 22.105469 17.394531 Z M 22.105469 15.84375 L 22.105469 15.292969 C 22.105469 14.976562 22.039062 14.757812 21.902344 14.632812 C 21.765625 14.507812 21.527344 14.445312 21.183594 14.445312 C 20.699219 14.445312 20.140625 14.546875 19.511719 14.753906 L 19.511719 13.976562 C 19.746094 13.859375 20.035156 13.765625 20.371094 13.699219 C 20.710938 13.628906 21.050781 13.59375 21.394531 13.59375 C 22.015625 13.59375 22.472656 13.71875 22.765625 13.96875 C 23.0625 14.21875 23.207031 14.605469 23.207031 15.136719 L 23.207031 18.484375 L 22.246094 18.484375 L 22.164062 18.027344 C 21.945312 18.214844 21.703125 18.363281 21.441406 18.46875 C 21.191406 18.570312 20.921875 18.625 20.652344 18.625 C 20.214844 18.625 19.863281 18.496094 19.59375 18.234375 C 19.320312 17.972656 19.1875 17.632812 19.1875 17.214844 C 19.1875 16.757812 19.351562 16.390625 19.683594 16.117188 C 20.019531 15.839844 20.464844 15.703125 21.023438 15.703125 C 21.355469 15.703125 21.714844 15.75 22.105469 15.84375 M 17.730469 18.050781 C 18.179688 17.667969 18.402344 17.152344 18.402344 16.507812 C 18.402344 15.902344 18.214844 15.429688 17.84375 15.078125 C 17.476562 14.730469 16.964844 14.558594 16.320312 14.558594 C 16.046875 14.554688 15.773438 14.578125 15.507812 14.632812 L 15.613281 12.90625 L 18.085938 12.90625 L 18.085938 12.019531 L 14.574219 12.019531 L 14.398438 14.800781 L 14.398438 15.507812 C 14.867188 15.449219 15.34375 15.417969 15.816406 15.414062 C 16.324219 15.414062 16.691406 15.503906 16.925781 15.679688 C 17.15625 15.859375 17.273438 16.140625 17.273438 16.527344 C 17.273438 17.320312 16.8125 17.71875 15.890625 17.71875 C 15.394531 17.71875 14.808594 17.601562 14.128906 17.375 L 14.128906 18.253906 C 14.699219 18.5 15.296875 18.625 15.917969 18.625 C 16.679688 18.625 17.28125 18.433594 17.730469 18.050781 M 9.390625 17.777344 C 8.863281 17.230469 8.601562 16.421875 8.601562 15.351562 C 8.601562 14.25 8.875 13.402344 9.417969 12.808594 C 9.964844 12.210938 10.746094 11.914062 11.765625 11.914062 C 12.324219 11.914062 12.84375 12 13.316406 12.167969 L 13.316406 13.101562 C 12.695312 12.96875 12.207031 12.902344 11.855469 12.90625 C 11.148438 12.90625 10.621094 13.089844 10.277344 13.457031 C 9.933594 13.824219 9.757812 14.386719 9.757812 15.152344 L 9.757812 15.378906 C 9.757812 16.136719 9.929688 16.699219 10.273438 17.0625 C 10.613281 17.425781 11.136719 17.605469 11.839844 17.609375 C 12.234375 17.609375 12.757812 17.53125 13.410156 17.375 L 13.410156 18.308594 C 12.917969 18.5 12.355469 18.597656 11.730469 18.597656 C 10.695312 18.597656 9.917969 18.324219 9.390625 17.777344 M 9.390625 17.777344 "/>
</svg>
