<?xml version="1.0" encoding="UTF-8"?>
<svg xmlns="http://www.w3.org/2000/svg" xmlns:xlink="http://www.w3.org/1999/xlink" width="32" height="32" viewBox="0 0 32 32">
<path fill-rule="evenodd" fill="rgb(83.137255%, 35.686275%, 2.745098%)" fill-opacity="1" d="M 19.539062 19.378906 C 18.921875 19.382812 18.3125 19.253906 17.746094 19.003906 L 17.746094 18.125 C 18.425781 18.355469 19.011719 18.472656 19.507812 18.472656 C 20.429688 18.472656 20.890625 18.074219 20.890625 17.277344 C 20.890625 16.890625 20.773438 16.609375 20.542969 16.433594 C 20.3125 16.253906 19.941406 16.167969 19.433594 16.167969 C 19.058594 16.167969 18.585938 16.199219 18.015625 16.261719 L 18.015625 15.550781 L 18.191406 12.769531 L 21.703125 12.769531 L 21.703125 13.65625 L 19.234375 13.65625 L 19.125 15.382812 C 19.394531 15.332031 19.664062 15.304688 19.9375 15.308594 C 20.582031 15.308594 21.09375 15.480469 21.464844 15.832031 C 21.835938 16.179688 22.019531 16.65625 22.019531 17.257812 C 22.019531 17.90625 21.796875 18.421875 21.347656 18.804688 C 20.898438 19.1875 20.296875 19.378906 19.539062 19.378906 M 11.023438 19.238281 L 9.980469 19.238281 L 9.980469 12.769531 L 11.25 12.769531 L 13.191406 16.625 L 15.167969 12.769531 L 16.402344 12.769531 L 16.402344 19.238281 L 15.355469 19.238281 L 15.355469 14.394531 L 13.675781 17.613281 L 12.648438 17.613281 L 11.023438 14.410156 Z M 6 26 L 26 26 L 26 6 L 6 6 Z M 30.667969 8.667969 L 30.667969 7.332031 L 27.332031 7.332031 L 27.332031 5.332031 C 27.332031 4.964844 27.035156 4.667969 26.667969 4.667969 L 24.667969 4.667969 L 24.667969 1.332031 L 23.332031 1.332031 L 23.332031 4.667969 L 20.667969 4.667969 L 20.667969 1.332031 L 19.332031 1.332031 L 19.332031 4.667969 L 16.667969 4.667969 L 16.667969 1.332031 L 15.332031 1.332031 L 15.332031 4.667969 L 12.667969 4.667969 L 12.667969 1.332031 L 11.332031 1.332031 L 11.332031 4.667969 L 8.667969 4.667969 L 8.667969 1.332031 L 7.332031 1.332031 L 7.332031 4.667969 L 5.332031 4.667969 C 4.964844 4.667969 4.667969 4.964844 4.667969 5.332031 L 4.667969 7.332031 L 1.332031 7.332031 L 1.332031 8.667969 L 4.667969 8.667969 L 4.667969 11.332031 L 1.332031 11.332031 L 1.332031 12.667969 L 4.667969 12.667969 L 4.667969 15.332031 L 1.332031 15.332031 L 1.332031 16.667969 L 4.667969 16.667969 L 4.667969 19.332031 L 1.332031 19.332031 L 1.332031 20.667969 L 4.667969 20.667969 L 4.667969 23.332031 L 1.332031 23.332031 L 1.332031 24.667969 L 4.667969 24.667969 L 4.667969 26.667969 C 4.667969 27.035156 4.964844 27.332031 5.332031 27.332031 L 7.332031 27.332031 L 7.332031 30.667969 L 8.667969 30.667969 L 8.667969 27.332031 L 11.332031 27.332031 L 11.332031 30.667969 L 12.667969 30.667969 L 12.667969 27.332031 L 15.332031 27.332031 L 15.332031 30.667969 L 16.667969 30.667969 L 16.667969 27.332031 L 19.332031 27.332031 L 19.332031 30.667969 L 20.667969 30.667969 L 20.667969 27.332031 L 23.332031 27.332031 L 23.332031 30.667969 L 24.667969 30.667969 L 24.667969 27.332031 L 26.667969 27.332031 C 27.035156 27.332031 27.332031 27.035156 27.332031 26.667969 L 27.332031 24.667969 L 30.667969 24.667969 L 30.667969 23.332031 L 27.332031 23.332031 L 27.332031 20.667969 L 30.667969 20.667969 L 30.667969 19.332031 L 27.332031 19.332031 L 27.332031 16.667969 L 30.667969 16.667969 L 30.667969 15.332031 L 27.332031 15.332031 L 27.332031 12.667969 L 30.667969 12.667969 L 30.667969 11.332031 L 27.332031 11.332031 L 27.332031 8.667969 Z M 30.667969 8.667969 "/>
</svg>
