<svg role="img" viewBox="0 0 32 32" xmlns="http://www.w3.org/2000/svg"><path d="M20.676 14.633q.275-.375.844-.375.552 0 1.035.336v2.39a1.73 1.73 0 0 1-1.043.364q-1.111-.001-1.11-1.567-.001-.773.274-1.148m.508 3.566q.767-.001 1.37-.523v.402q0 .729-.316 1.047-.316.323-1.015.324-.691 0-1.559-.289v.785a3.6 3.6 0 0 0 1.633.38q1.131 0 1.746-.614.616-.615.617-1.746v-4.426h-.937l-.09.43a1.97 1.97 0 0 0-1.41-.567q-.6 0-1.035.305a1.94 1.94 0 0 0-.672.855 3.15 3.15 0 0 0-.235 1.254q-.001 1.084.52 1.735.515.647 1.383.648M16.18 15.23c.37 0 .656.098.847.293q.294.293.293.856 0 .55-.28.86c-.188.202-.454.304-.786.304-.82 0-1.254-.66-1.293-1.984.41-.22.82-.329 1.219-.329m-.008 3.2q.69.001 1.21-.274c.345-.183.61-.433.794-.758q.274-.479.273-1.093 0-.879-.527-1.407-.522-.527-1.395-.527-.827 0-1.566.477.046-1.166.46-1.727.41-.56 1.255-.559.312.001.683.067.375.072.66.184V12a2.8 2.8 0 0 0-.695-.238 3.8 3.8 0 0 0-.804-.086q-1.283 0-1.985.949-.705.955-.707 2.672.001 1.547.594 2.34.593.795 1.75.793M9.48 12.7h1.16q1.063.001 1.063 1.073 0 1.074-1.09 1.075H9.48Zm0 3.027h1.137l1.516 2.566h1.137l-1.668-2.766q.615-.24.937-.699.318-.457.32-1.09 0-.878-.574-1.398-.573-.516-1.527-.516H8.344v6.469H9.48ZM6 26h20V6H6ZM30.668 8.668V7.332h-3.336v-2a.664.664 0 0 0-.664-.664h-2V1.332h-1.336v3.336h-2.664V1.332h-1.336v3.336h-2.664V1.332h-1.336v3.336h-2.664V1.332h-1.336v3.336H8.668V1.332H7.332v3.336h-2a.664.664 0 0 0-.664.664v2H1.332v1.336h3.336v2.664H1.332v1.336h3.336v2.664H1.332v1.336h3.336v2.664H1.332v1.336h3.336v2.664H1.332v1.336h3.336v2c0 .367.297.664.664.664h2v3.336h1.336v-3.336h2.664v3.336h1.336v-3.336h2.664v3.336h1.336v-3.336h2.664v3.336h1.336v-3.336h2.664v3.336h1.336v-3.336h2a.664.664 0 0 0 .664-.664v-2h3.336v-1.336h-3.336v-2.664h3.336v-1.336h-3.336v-2.664h3.336v-1.336h-3.336v-2.664h3.336v-1.336h-3.336V8.668Zm0 0" fill="rgb(83.137256%, 35.686275%, 2.745098%)" fill-rule="evenodd"/></svg>