<svg role="img" viewBox="0 0 32 32" xmlns="http://www.w3.org/2000/svg"><path d="m17.273 17.02 1.95-2.848v2.848Zm1.95 2.222h1.113v-1.344h.867v-.878h-.867v-4.247H19.18l-3.016 4.293v.832h3.059Zm-7.637-.71q-.79-.821-.79-2.427.001-1.652.817-2.543.816-.89 2.348-.89.84-.001 1.55.25v.933q-.932-.194-1.46-.195-1.062 0-1.578.55-.521.552-.52 1.7v.223c0 .762.172 1.32.512 1.687q.517.544 1.566.543.597-.001 1.574-.23v.93q-.739.292-1.683.292c-1.031 0-1.813-.277-2.336-.824M6 26h20V6H6ZM30.668 8.668V7.332h-3.336v-2a.664.664 0 0 0-.664-.664h-2V1.332h-1.336v3.336h-2.664V1.332h-1.336v3.336h-2.664V1.332h-1.336v3.336h-2.664V1.332h-1.336v3.336H8.668V1.332H7.332v3.336h-2a.664.664 0 0 0-.664.664v2H1.332v1.336h3.336v2.664H1.332v1.336h3.336v2.664H1.332v1.336h3.336v2.664H1.332v1.336h3.336v2.664H1.332v1.336h3.336v2c0 .367.297.664.664.664h2v3.336h1.336v-3.336h2.664v3.336h1.336v-3.336h2.664v3.336h1.336v-3.336h2.664v3.336h1.336v-3.336h2.664v3.336h1.336v-3.336h2a.664.664 0 0 0 .664-.664v-2h3.336v-1.336h-3.336v-2.664h3.336v-1.336h-3.336v-2.664h3.336v-1.336h-3.336v-2.664h3.336v-1.336h-3.336V8.668Zm0 0" fill="rgb(83.137256%, 35.686275%, 2.745098%)" fill-rule="evenodd"/></svg>