<svg role="img" viewBox="0 0 32 32" xmlns="http://www.w3.org/2000/svg"><defs><linearGradient gradientTransform="scale(32)" gradientUnits="userSpaceOnUse" id="aws-audit-manager_svg__a" x1="0" x2="1" y1="1" y2="0"><stop offset="0" stop-color="rgb(74.117649%, 3.137255%, 8.627451%)"/><stop offset="1" stop-color="rgb(100%, 32.156864%, 32.156864%)"/></linearGradient></defs><path d="M-3.2-3.2h38.4v38.4H-3.2z" fill="url(#aws-audit-manager_svg__a)"/><path d="m24.852 20.648-.704.704 1.145 1.148H21.5v1h3.793l-1.145 1.148.704.704 2-2A.48.48 0 0 0 27 23a.48.48 0 0 0-.148-.352ZM14.5 23.5h3.793l-1.145 1.148.704.704 2-2A.48.48 0 0 0 20 23a.48.48 0 0 0-.148-.352l-2-2-.704.704 1.145 1.148H14.5Zm-3.648 1.852 2-2A.48.48 0 0 0 13 23a.48.48 0 0 0-.148-.352l-2-2-.704.704 1.145 1.148H7.5v1h3.793l-1.145 1.148ZM7.5 18.5h7v-1h-7Zm0-4.5h7v-1h-7Zm9.5 0h2v-1h-2Zm2.5-2c.277 0 .5.223.5.5v2c0 .277-.223.5-.5.5h-3a.5.5 0 0 1-.355-.145A.5.5 0 0 1 16 14.5v-2c0-.277.223-.5.5-.5ZM17 18.5h9v-1h-9ZM27 17v2c0 .277-.223.5-.5.5h-10a.5.5 0 0 1-.355-.145A.5.5 0 0 1 16 19v-2c0-.277.223-.5.5-.5h10c.277 0 .5.223.5.5m-8-8.5h1.793L19 6.707ZM21.5 25h1v1.5c0 .277-.223.5-.5.5H5.5a.5.5 0 0 1-.355-.145A.5.5 0 0 1 5 26.5v-21c0-.277.223-.5.5-.5h13a.5.5 0 0 1 .352.148l3.5 3.5A.48.48 0 0 1 22.5 9v6.5h-1v-6h-3a.5.5 0 0 1-.355-.145A.5.5 0 0 1 18 9V6H6v20h15.5ZM11 11.5a.5.5 0 0 1-.352-.148l-1.5-1.5.704-.704L11 10.293l2.648-2.645.704.704-3 3A.5.5 0 0 1 11 11.5m0 0" fill="rgb(100%, 100%, 100%)" fill-rule="evenodd"/></svg>