<?xml version="1.0" encoding="UTF-8"?>
<svg xmlns="http://www.w3.org/2000/svg" xmlns:xlink="http://www.w3.org/1999/xlink" width="32" height="32" viewBox="0 0 32 32">
<path fill-rule="evenodd" fill="rgb(83.137255%, 35.686275%, 2.745098%)" fill-opacity="1" d="M 6 26 L 26 26 L 26 6 L 6 6 Z M 27.332031 8.667969 L 27.332031 11.332031 L 30.667969 11.332031 L 30.667969 12.667969 L 27.332031 12.667969 L 27.332031 15.332031 L 30.667969 15.332031 L 30.667969 16.667969 L 27.332031 16.667969 L 27.332031 19.332031 L 30.667969 19.332031 L 30.667969 20.667969 L 27.332031 20.667969 L 27.332031 23.332031 L 30.667969 23.332031 L 30.667969 24.667969 L 27.332031 24.667969 L 27.332031 26.667969 C 27.332031 27.035156 27.035156 27.332031 26.667969 27.332031 L 24.667969 27.332031 L 24.667969 30.667969 L 23.332031 30.667969 L 23.332031 27.332031 L 20.667969 27.332031 L 20.667969 30.667969 L 19.332031 30.667969 L 19.332031 27.332031 L 16.667969 27.332031 L 16.667969 30.667969 L 15.332031 30.667969 L 15.332031 27.332031 L 12.667969 27.332031 L 12.667969 30.667969 L 11.332031 30.667969 L 11.332031 27.332031 L 8.667969 27.332031 L 8.667969 30.667969 L 7.332031 30.667969 L 7.332031 27.332031 L 5.332031 27.332031 C 4.964844 27.332031 4.667969 27.035156 4.667969 26.667969 L 4.667969 24.667969 L 1.332031 24.667969 L 1.332031 23.332031 L 4.667969 23.332031 L 4.667969 20.667969 L 1.332031 20.667969 L 1.332031 19.332031 L 4.667969 19.332031 L 4.667969 16.667969 L 1.332031 16.667969 L 1.332031 15.332031 L 4.667969 15.332031 L 4.667969 12.667969 L 1.332031 12.667969 L 1.332031 11.332031 L 4.667969 11.332031 L 4.667969 8.667969 L 1.332031 8.667969 L 1.332031 7.332031 L 4.667969 7.332031 L 4.667969 5.332031 C 4.667969 4.964844 4.964844 4.667969 5.332031 4.667969 L 7.332031 4.667969 L 7.332031 1.332031 L 8.667969 1.332031 L 8.667969 4.667969 L 11.332031 4.667969 L 11.332031 1.332031 L 12.667969 1.332031 L 12.667969 4.667969 L 15.332031 4.667969 L 15.332031 1.332031 L 16.667969 1.332031 L 16.667969 4.667969 L 19.332031 4.667969 L 19.332031 1.332031 L 20.667969 1.332031 L 20.667969 4.667969 L 23.332031 4.667969 L 23.332031 1.332031 L 24.667969 1.332031 L 24.667969 4.667969 L 26.667969 4.667969 C 27.035156 4.667969 27.332031 4.964844 27.332031 5.332031 L 27.332031 7.332031 L 30.667969 7.332031 L 30.667969 8.667969 Z M 20.121094 15.648438 C 20.457031 15.433594 20.789062 15.324219 21.113281 15.324219 C 21.324219 15.324219 21.484375 15.378906 21.582031 15.488281 C 21.679688 15.601562 21.726562 15.773438 21.726562 16.015625 L 21.726562 18.484375 L 22.59375 18.484375 L 22.59375 15.742188 C 22.59375 15.386719 22.5 15.113281 22.3125 14.925781 C 22.128906 14.738281 21.855469 14.644531 21.5 14.644531 C 21 14.644531 20.523438 14.816406 20.0625 15.164062 L 19.976562 14.753906 L 19.257812 14.753906 L 19.257812 18.484375 L 20.121094 18.484375 Z M 16.183594 16.25 L 17.789062 16.25 L 17.789062 16.191406 C 17.789062 15.894531 17.726562 15.664062 17.605469 15.507812 C 17.480469 15.351562 17.300781 15.273438 17.066406 15.273438 C 16.816406 15.273438 16.613281 15.363281 16.453125 15.539062 C 16.296875 15.714844 16.207031 15.953125 16.183594 16.25 M 15.78125 18.097656 C 15.460938 17.765625 15.300781 17.28125 15.304688 16.644531 C 15.304688 16.015625 15.457031 15.523438 15.769531 15.171875 C 16.078125 14.820312 16.511719 14.644531 17.070312 14.644531 C 17.550781 14.644531 17.917969 14.773438 18.175781 15.035156 C 18.429688 15.296875 18.558594 15.667969 18.558594 16.148438 C 18.558594 16.402344 18.535156 16.628906 18.496094 16.828125 L 16.183594 16.828125 C 16.195312 17.199219 16.296875 17.472656 16.484375 17.648438 C 16.667969 17.820312 16.957031 17.90625 17.34375 17.90625 C 17.730469 17.898438 18.113281 17.832031 18.480469 17.703125 L 18.480469 18.308594 C 18.3125 18.398438 18.117188 18.46875 17.886719 18.519531 C 17.65625 18.570312 17.417969 18.597656 17.179688 18.597656 C 16.5625 18.597656 16.097656 18.429688 15.78125 18.097656 M 13.675781 18.390625 C 13.96875 18.253906 14.191406 18.066406 14.347656 17.824219 C 14.507812 17.585938 14.585938 17.3125 14.585938 17.003906 C 14.597656 16.46875 14.300781 15.980469 13.824219 15.738281 C 13.585938 15.617188 13.320312 15.554688 13.050781 15.558594 C 12.980469 15.558594 12.914062 15.5625 12.847656 15.566406 L 14.371094 14.070312 L 14.371094 13.402344 L 11.34375 13.402344 L 11.34375 14.101562 L 13.417969 14.101562 L 11.972656 15.671875 L 11.972656 16.234375 C 12.207031 16.207031 12.445312 16.191406 12.679688 16.191406 C 13.359375 16.191406 13.699219 16.460938 13.699219 16.996094 C 13.699219 17.28125 13.601562 17.5 13.417969 17.652344 C 13.230469 17.808594 12.964844 17.882812 12.617188 17.882812 C 12.253906 17.882812 11.804688 17.792969 11.269531 17.613281 L 11.269531 18.300781 C 11.71875 18.496094 12.179688 18.597656 12.648438 18.597656 C 13.039062 18.597656 13.382812 18.527344 13.675781 18.390625 M 9.4375 18.484375 L 10.332031 18.484375 L 10.332031 13.402344 L 9.4375 13.402344 Z M 9.4375 18.484375 "/>
</svg>
