<svg role="img" viewBox="0 0 32 32" height="32" width="32" xmlns="http://www.w3.org/2000/svg"><path d="M6 26h20V6H6ZM27.332 8.668v2.664h3.336v1.336h-3.336v2.664h3.336v1.336h-3.336v2.664h3.336v1.336h-3.336v2.664h3.336v1.336h-3.336v2a.664.664 0 0 1-.664.664h-2v3.336h-1.336v-3.336h-2.664v3.336h-1.336v-3.336h-2.664v3.336h-1.336v-3.336h-2.664v3.336h-1.336v-3.336H8.668v3.336H7.332v-3.336h-2a.664.664 0 0 1-.664-.664v-2H1.332v-1.336h3.336v-2.664H1.332v-1.336h3.336v-2.664H1.332v-1.336h3.336v-2.664H1.332v-1.336h3.336V8.668H1.332V7.332h3.336v-2c0-.367.297-.664.664-.664h2V1.332h1.336v3.336h2.664V1.332h1.336v3.336h2.664V1.332h1.336v3.336h2.664V1.332h1.336v3.336h2.664V1.332h1.336v3.336h2c.367 0 .664.297.664.664v2h3.336v1.336Zm-5.227 8.496a4.191 4.191 0 0 0-.851-.102c-.633 0-.95.25-.95.754 0 .22.063.391.184.512s.29.18.5.18c.176 0 .36-.04.555-.117.195-.078.383-.188.562-.328Zm0-.652v-.551c0-.316-.066-.54-.203-.664-.136-.125-.375-.184-.718-.184-.485 0-1.043.102-1.672.305v-.773c.234-.118.523-.211.86-.282a5.336 5.336 0 0 1 1.023-.101c.62 0 1.078.125 1.37.375.297.246.442.636.442 1.164v3.351h-.96l-.083-.457a2.58 2.58 0 0 1-.723.438 2.13 2.13 0 0 1-.789.16c-.437 0-.789-.133-1.058-.39-.274-.262-.407-.602-.407-1.02 0-.461.165-.828.497-1.102.336-.273.78-.41 1.34-.41.331 0 .69.047 1.081.14m-7-.093c.043 1.324.477 1.988 1.297 1.988.332 0 .594-.101.785-.308.188-.203.282-.493.282-.86 0-.37-.098-.656-.293-.851-.192-.2-.477-.301-.848-.297-.398 0-.808.11-1.223.328M14.57 18.5c-.394-.531-.593-1.312-.593-2.344 0-1.144.234-2.035.707-2.668.468-.636 1.129-.953 1.98-.953.27 0 .54.031.809.09.273.059.504.137.695.238v.813a3.522 3.522 0 0 0-.66-.184 3.394 3.394 0 0 0-.688-.07c-.558 0-.976.187-1.25.558-.277.375-.433.95-.465 1.727a2.84 2.84 0 0 1 1.57-.473c.583 0 1.044.176 1.395.528.352.351.528.816.528 1.402 0 .41-.09.777-.274 1.098-.187.32-.449.574-.793.754-.347.183-.75.277-1.21.277-.77 0-1.356-.266-1.75-.793m-5.18-.059c-.528-.546-.79-1.355-.79-2.425 0-1.102.274-1.95.817-2.543.547-.594 1.332-.891 2.348-.891a4.47 4.47 0 0 1 1.55.254v.93c-.62-.13-1.105-.196-1.46-.196-.708 0-1.235.184-1.579.551-.343.367-.52.934-.52 1.7v.222c0 .762.173 1.324.516 1.687.34.364.864.543 1.567.543.394 0 .918-.074 1.57-.23v.934c-.492.191-1.055.289-1.68.289-1.035 0-1.812-.274-2.34-.825m0 0" fill="rgb(83.137255%, 35.686275%, 2.745098%)" fill-rule="evenodd"/></svg>