<?xml version="1.0" encoding="UTF-8"?>
<svg xmlns="http://www.w3.org/2000/svg" xmlns:xlink="http://www.w3.org/1999/xlink" width="32" height="32" viewBox="0 0 32 32">
<path fill-rule="evenodd" fill="rgb(83.137255%, 35.686275%, 2.745098%)" fill-opacity="1" d="M 29.078125 16.039062 L 29.078125 15.863281 L 29.160156 15.949219 Z M 7.285156 20.566406 C 4.734375 20.5625 2.671875 18.496094 2.667969 15.949219 C 2.671875 13.398438 4.738281 11.335938 7.285156 11.332031 C 9.832031 11.335938 11.898438 13.398438 11.902344 15.949219 C 11.894531 18.496094 9.832031 20.558594 7.285156 20.566406 M 30.558594 15.496094 L 26.265625 10.875 L 25.289062 11.78125 L 28.542969 15.285156 L 13.195312 15.285156 C 12.863281 12.316406 10.339844 10 7.285156 10 C 4 10.003906 1.335938 12.664062 1.332031 15.949219 C 1.335938 19.234375 4 21.898438 7.285156 21.902344 C 10.339844 21.902344 12.863281 19.585938 13.195312 16.617188 L 28.542969 16.617188 L 25.289062 20.121094 L 26.265625 21.027344 L 30.558594 16.40625 C 30.796875 16.148438 30.796875 15.753906 30.558594 15.496094 M 30.558594 15.496094 "/>
</svg>
