<svg role="img" viewBox="0 0 32 32" height="32" width="32" xmlns="http://www.w3.org/2000/svg"><path d="M18.594 19.348a4.34 4.34 0 0 1-1.754-.371v-.88c.68.231 1.254.348 1.715.348.441 0 .78-.097 1.015-.297.239-.195.36-.472.36-.832 0-.687-.434-1.027-1.297-1.027-.278 0-.574.02-.899.055v-.719l1.84-1.996h-2.64v-.887h3.855v.848l-1.941 1.906c.086-.008.172-.012.257-.012.364 0 .692.079.985.23.297.153.531.368.707.65.172.277.262.6.262.96 0 .39-.098.738-.297 1.047-.2.305-.489.543-.86.715-.375.176-.808.262-1.308.262m-5.625-5.672H10.94v-.934h5.192v.934h-2.028v5.535H12.97ZM6 26h20V6H6ZM30.668 8.668V7.332h-3.336v-2a.664.664 0 0 0-.664-.664h-2V1.332h-1.336v3.336h-2.664V1.332h-1.336v3.336h-2.664V1.332h-1.336v3.336h-2.664V1.332h-1.336v3.336H8.668V1.332H7.332v3.336h-2a.664.664 0 0 0-.664.664v2H1.332v1.336h3.336v2.664H1.332v1.336h3.336v2.664H1.332v1.336h3.336v2.664H1.332v1.336h3.336v2.664H1.332v1.336h3.336v2c0 .367.297.664.664.664h2v3.336h1.336v-3.336h2.664v3.336h1.336v-3.336h2.664v3.336h1.336v-3.336h2.664v3.336h1.336v-3.336h2.664v3.336h1.336v-3.336h2a.664.664 0 0 0 .664-.664v-2h3.336v-1.336h-3.336v-2.664h3.336v-1.336h-3.336v-2.664h3.336v-1.336h-3.336v-2.664h3.336v-1.336h-3.336V8.668Zm0 0" fill="rgb(83.137255%, 35.686275%, 2.745098%)" fill-rule="evenodd"/></svg>