<svg role="img" viewBox="0 0 32 32" height="32" width="32" xmlns="http://www.w3.org/2000/svg"><path d="M6 26h20V6H6ZM30.668 8.668V7.332h-3.336v-2a.664.664 0 0 0-.664-.664h-2V1.332h-1.336v3.336h-2.664V1.332h-1.336v3.336h-2.664V1.332h-1.336v3.336h-2.664V1.332h-1.336v3.336H8.668V1.332H7.332v3.336h-2a.664.664 0 0 0-.664.664v2H1.332v1.336h3.336v2.664H1.332v1.336h3.336v2.664H1.332v1.336h3.336v2.664H1.332v1.336h3.336v2.664H1.332v1.336h3.336v2c0 .367.297.664.664.664h2v3.336h1.336v-3.336h2.664v3.336h1.336v-3.336h2.664v3.336h1.336v-3.336h2.664v3.336h1.336v-3.336h2.664v3.336h1.336v-3.336h2a.664.664 0 0 0 .664-.664v-2h3.336v-1.336h-3.336v-2.664h3.336v-1.336h-3.336v-2.664h3.336v-1.336h-3.336v-2.664h3.336v-1.336h-3.336V8.668Zm-9.75 4.781a.595.595 0 0 1-.18-.465c0-.199.063-.355.18-.468a.706.706 0 0 1 .484-.168c.207 0 .368.058.485.168.12.113.18.27.18.468 0 .2-.06.356-.18.465-.117.114-.278.168-.485.168-.203 0-.367-.055-.484-.168m-.066 5.703h1.101v-4.75h-1.101ZM17.66 16.09c.371 0 .652.098.848.297.195.195.289.48.289.851 0 .367-.094.657-.281.86-.188.207-.45.308-.786.308-.82 0-1.25-.664-1.293-1.988.415-.219.82-.328 1.223-.328m-.008 3.203c.461 0 .864-.094 1.207-.277.344-.18.61-.434.793-.754a2.17 2.17 0 0 0 .278-1.098c0-.586-.176-1.05-.528-1.402-.351-.352-.816-.528-1.394-.528-.555 0-1.078.157-1.57.473.03-.777.183-1.352.46-1.727.278-.37.696-.558 1.254-.558.211 0 .438.023.688.07.25.047.469.106.66.184v-.813a2.711 2.711 0 0 0-.695-.238 4.006 4.006 0 0 0-.809-.09c-.851 0-1.512.317-1.984.953-.469.633-.703 1.524-.703 2.668 0 1.032.195 1.813.593 2.344.395.527.977.793 1.75.793m-6.507-5.73h1.16c.707 0 1.062.359 1.062 1.074 0 .715-.363 1.07-1.09 1.07h-1.132Zm0 3.023h1.14l1.512 2.566h1.137l-1.668-2.761c.41-.164.722-.395.937-.7.215-.304.32-.671.32-1.093 0-.586-.191-1.051-.574-1.395-.383-.348-.89-.52-1.523-.52h-2.418v6.47h1.137Zm0 0" fill="rgb(83.137255%, 35.686275%, 2.745098%)" fill-rule="evenodd"/></svg>