<svg role="img" viewBox="0 0 32 32" xmlns="http://www.w3.org/2000/svg"><path d="M20.219 19.258h-1.102v-4.754h.914l.114.523q.878-.66 1.828-.66c.453 0 .8.117 1.035.36q.356.357.355 1.039v3.492h-1.101v-3.149q0-.456-.188-.668-.181-.209-.594-.207-.62 0-1.261.41Zm-4.387.137a4.5 4.5 0 0 1-1.793-.372v-.878c.68.23 1.27.347 1.762.347.926 0 1.383-.398 1.383-1.195q.002-.58-.348-.844c-.23-.18-.602-.265-1.106-.265-.378 0-.851.027-1.418.09v-.708l.176-2.78h3.508v.886h-2.469l-.105 1.726q.38-.076.808-.078.973 0 1.528.528.556.522.558 1.425c0 .649-.226 1.16-.671 1.547q-.675.57-1.813.57m-6.059-5.73h1.16q1.063 0 1.063 1.073 0 1.074-1.09 1.075H9.773Zm0 3.023h1.141l1.512 2.57h1.136l-1.667-2.766q.615-.24.937-.699.321-.457.32-1.09 0-.878-.574-1.398-.574-.516-1.523-.516H8.637v6.469h1.136ZM6 26h20V6H6ZM30.668 8.668V7.332h-3.336v-2a.664.664 0 0 0-.664-.664h-2V1.332h-1.336v3.336h-2.664V1.332h-1.336v3.336h-2.664V1.332h-1.336v3.336h-2.664V1.332h-1.336v3.336H8.668V1.332H7.332v3.336h-2a.664.664 0 0 0-.664.664v2H1.332v1.336h3.336v2.664H1.332v1.336h3.336v2.664H1.332v1.336h3.336v2.664H1.332v1.336h3.336v2.664H1.332v1.336h3.336v2c0 .367.297.664.664.664h2v3.336h1.336v-3.336h2.664v3.336h1.336v-3.336h2.664v3.336h1.336v-3.336h2.664v3.336h1.336v-3.336h2.664v3.336h1.336v-3.336h2a.664.664 0 0 0 .664-.664v-2h3.336v-1.336h-3.336v-2.664h3.336v-1.336h-3.336v-2.664h3.336v-1.336h-3.336v-2.664h3.336v-1.336h-3.336V8.668Zm0 0" fill="rgb(83.137256%, 35.686275%, 2.745098%)" fill-rule="evenodd"/></svg>