<svg role="img" viewBox="0 0 32 32" xmlns="http://www.w3.org/2000/svg"><path d="M6 26h20V6H6ZM27.332 8.668v2.664h3.336v1.336h-3.336v2.664h3.336v1.336h-3.336v2.664h3.336v1.336h-3.336v2.664h3.336v1.336h-3.336v2a.664.664 0 0 1-.664.664h-2v3.336h-1.336v-3.336h-2.664v3.336h-1.336v-3.336h-2.664v3.336h-1.336v-3.336h-2.664v3.336h-1.336v-3.336H8.668v3.336H7.332v-3.336h-2a.664.664 0 0 1-.664-.664v-2H1.332v-1.336h3.336v-2.664H1.332v-1.336h3.336v-2.664H1.332v-1.336h3.336v-2.664H1.332v-1.336h3.336V8.668H1.332V7.332h3.336v-2c0-.367.297-.664.664-.664h2V1.332h1.336v3.336h2.664V1.332h1.336v3.336h2.664V1.332h1.336v3.336h2.664V1.332h1.336v3.336h2.664V1.332h1.336v3.336h2c.367 0 .664.297.664.664v2h3.336v1.336Zm-6.035 7.926q.002 1.29.941 1.289c.285 0 .57-.09.844-.278V15.59a1.4 1.4 0 0 0-.832-.266q-.488.001-.719.313-.234.311-.234.957m-.457 1.449c-.281-.352-.422-.82-.422-1.414q-.001-.585.191-1.031c.125-.301.309-.532.551-.703q.358-.251.852-.25.584 0 1.07.378V13.06h.863v5.425h-.738l-.09-.359a1.7 1.7 0 0 1-1.152.441q-.704 0-1.125-.523m-3.684-1.531q0 1.235.871 1.234.435-.001.82-.289v-1.875a1.4 1.4 0 0 0-.812-.266q-.447 0-.664.293-.215.293-.215.903m-.472 1.39q-.41-.51-.41-1.359 0-.556.183-.988a1.6 1.6 0 0 1 .527-.672q.346-.239.817-.238.638 0 1.105.445l.074-.336h.735v3.476q.001.885-.485 1.372-.479.482-1.375.484a2.86 2.86 0 0 1-1.28-.3v-.618q.683.227 1.226.227.55-.001.797-.254.251-.251.25-.825V18q-.475.41-1.078.41-.682.001-1.086-.508m-.997-.113H13.13q.88-.798 1.379-1.34.504-.54.726-.96.228-.423.227-.833a1.3 1.3 0 0 0-.195-.73 1.24 1.24 0 0 0-.536-.473 1.8 1.8 0 0 0-.8-.168q-.85 0-1.547.574v.72q.381-.265.75-.411.37-.14.687-.14.357 0 .555.187.2.186.2.523-.001.287-.184.625c-.121.223-.344.52-.66.887q-.475.55-1.489 1.574v.66h3.445Zm-8.21.695 1.699-2.632-1.582-2.45h.894l1.207 1.805 1.184-1.805h.894L10.18 15.84l1.71 2.644h-.894L9.66 16.477l-1.289 2.007Zm0 0" fill="rgb(83.137256%, 35.686275%, 2.745098%)" fill-rule="evenodd"/></svg>