<?xml version="1.0" encoding="UTF-8"?>
<svg xmlns="http://www.w3.org/2000/svg" xmlns:xlink="http://www.w3.org/1999/xlink" width="32" height="32" viewBox="0 0 32 32">
<path fill-rule="evenodd" fill="rgb(83.137255%, 35.686275%, 2.745098%)" fill-opacity="1" d="M 2.449219 16.640625 L 1.332031 16.640625 L 1.332031 15.308594 L 2.449219 15.308594 C 2.566406 12.691406 3.449219 10.164062 4.988281 8.039062 L 6.066406 8.820312 C 4.691406 10.71875 3.902344 12.972656 3.785156 15.308594 L 4.847656 15.308594 L 4.847656 16.640625 L 3.785156 16.640625 C 3.902344 18.976562 4.695312 21.230469 6.066406 23.125 L 4.988281 23.90625 C 3.449219 21.785156 2.566406 19.261719 2.449219 16.640625 M 23.90625 26.960938 C 21.785156 28.5 19.257812 29.382812 16.640625 29.496094 L 16.640625 30.574219 L 15.308594 30.574219 L 15.308594 29.496094 C 12.691406 29.382812 10.160156 28.503906 8.039062 26.964844 L 8.820312 25.882812 C 10.714844 27.257812 12.972656 28.050781 15.308594 28.164062 L 15.308594 27.101562 L 16.640625 27.101562 L 16.640625 28.164062 C 18.976562 28.050781 21.230469 27.257812 23.125 25.882812 Z M 8.039062 4.988281 C 10.164062 3.449219 12.691406 2.566406 15.308594 2.449219 L 15.308594 1.332031 L 16.640625 1.332031 L 16.640625 2.449219 C 19.269531 2.574219 21.769531 3.441406 23.90625 4.988281 L 23.125 6.066406 C 21.230469 4.691406 18.980469 3.898438 16.640625 3.78125 L 16.640625 4.847656 L 15.308594 4.847656 L 15.308594 3.78125 C 12.972656 3.898438 10.71875 4.695312 8.820312 6.066406 Z M 30.613281 16.640625 L 29.496094 16.640625 C 29.382812 19.257812 28.5 21.785156 26.960938 23.90625 L 25.878906 23.125 C 27.253906 21.230469 28.046875 18.976562 28.164062 16.640625 L 27.101562 16.640625 L 27.101562 15.308594 L 28.164062 15.308594 C 28.050781 12.96875 27.253906 10.714844 25.878906 8.820312 L 26.960938 8.039062 C 28.5 10.164062 29.382812 12.691406 29.496094 15.308594 L 30.613281 15.308594 Z M 23.699219 7.304688 L 27.800781 3.203125 L 28.742188 4.148438 L 24.644531 8.246094 Z M 8.246094 24.644531 L 4.148438 28.742188 L 3.203125 27.800781 L 7.304688 23.699219 Z M 21.128906 20.1875 L 28.742188 27.800781 L 27.800781 28.742188 L 20.1875 21.128906 Z M 10.816406 11.761719 L 3.203125 4.148438 L 4.148438 3.203125 L 11.761719 10.816406 Z M 22.335938 15.308594 L 22.335938 9.613281 L 16.640625 9.613281 L 16.640625 11.269531 L 15.308594 11.269531 L 15.308594 9.21875 C 15.308594 8.699219 15.726562 8.28125 16.246094 8.28125 L 22.730469 8.28125 C 23.246094 8.28125 23.667969 8.699219 23.667969 9.21875 L 23.667969 15.703125 C 23.664062 16.21875 23.246094 16.636719 22.730469 16.640625 L 20.65625 16.640625 L 20.65625 15.308594 Z M 9.613281 16.640625 L 9.613281 22.335938 L 15.308594 22.335938 L 15.308594 20.65625 L 16.640625 20.65625 L 16.640625 22.730469 C 16.636719 23.246094 16.21875 23.664062 15.703125 23.667969 L 9.21875 23.667969 C 8.703125 23.664062 8.285156 23.246094 8.28125 22.730469 L 8.28125 16.246094 C 8.28125 15.726562 8.703125 15.308594 9.21875 15.308594 L 11.289062 15.308594 L 11.289062 16.640625 Z M 13.125 18.820312 L 18.820312 18.820312 L 18.820312 13.125 L 13.125 13.125 Z M 20.152344 19.050781 L 20.152344 12.894531 C 20.152344 12.289062 19.660156 11.792969 19.050781 11.792969 L 12.894531 11.792969 C 12.289062 11.792969 11.792969 12.289062 11.792969 12.894531 L 11.792969 19.050781 C 11.792969 19.660156 12.289062 20.152344 12.894531 20.152344 L 19.050781 20.152344 C 19.34375 20.152344 19.625 20.035156 19.828125 19.828125 C 20.035156 19.621094 20.152344 19.34375 20.152344 19.050781 M 20.152344 19.050781 "/>
</svg>
