<svg role="img" viewBox="0 0 32 32" xmlns="http://www.w3.org/2000/svg"><path d="M6 26h20V6H6ZM27.332 8.668v2.664h3.336v1.336h-3.336v2.664h3.336v1.336h-3.336v2.664h3.336v1.336h-3.336v2.664h3.336v1.336h-3.336v2a.664.664 0 0 1-.664.664h-2v3.336h-1.336v-3.336h-2.664v3.336h-1.336v-3.336h-2.664v3.336h-1.336v-3.336h-2.664v3.336h-1.336v-3.336H8.668v3.336H7.332v-3.336h-2a.664.664 0 0 1-.664-.664v-2H1.332v-1.336h3.336v-2.664H1.332v-1.336h3.336v-2.664H1.332v-1.336h3.336v-2.664H1.332v-1.336h3.336V8.668H1.332V7.332h3.336v-2c0-.367.297-.664.664-.664h2V1.332h1.336v3.336h2.664V1.332h1.336v3.336h2.664V1.332h1.336v3.336h2.664V1.332h1.336v3.336h2.664V1.332h1.336v3.336h2c.367 0 .664.297.664.664v2h3.336v1.336Zm-5.3 8.496a4.3 4.3 0 0 0-.856-.102q-.946-.001-.946.754.001.33.184.512.183.18.5.18.263 0 .555-.117t.562-.328Zm0-.652v-.551c0-.316-.067-.54-.204-.664q-.207-.186-.719-.184-.727 0-1.672.305v-.773q.351-.176.86-.282.51-.1 1.023-.101.931 0 1.371.375.444.37.442 1.164v3.351h-.961l-.082-.457q-.33.28-.723.438-.397.159-.789.16c-.437 0-.789-.133-1.062-.39q-.404-.393-.403-1.02-.001-.691.496-1.102c.332-.273.782-.41 1.34-.41q.497 0 1.082.14m-4.938 2.52q.561-.264.86-.72t.3-1.046a1.78 1.78 0 0 0-.969-1.61 2.1 2.1 0 0 0-.988-.226 6 6 0 0 0-.258.008l1.941-1.903v-.851H14.13v.886h2.64l-1.84 2v.72q.482-.06.9-.06 1.294.001 1.296 1.028 0 .541-.36.836-.358.293-1.015.293-.696 0-1.715-.344v.875q.856.375 1.754.375c.496 0 .934-.086 1.305-.262m-6.746-5.415H8.32v-.933h5.192v.933h-2.028v5.535h-1.136Zm0 0" fill="rgb(83.137256%, 35.686275%, 2.745098%)" fill-rule="evenodd"/></svg>