<svg role="img" viewBox="0 0 32 32" height="32" width="32" xmlns="http://www.w3.org/2000/svg"><path d="M6 26h20V6H6ZM27.332 8.668v2.664h3.336v1.336h-3.336v2.664h3.336v1.336h-3.336v2.664h3.336v1.336h-3.336v2.664h3.336v1.336h-3.336v2a.664.664 0 0 1-.664.664h-2v3.336h-1.336v-3.336h-2.664v3.336h-1.336v-3.336h-2.664v3.336h-1.336v-3.336h-2.664v3.336h-1.336v-3.336H8.668v3.336H7.332v-3.336h-2a.664.664 0 0 1-.664-.664v-2H1.332v-1.336h3.336v-2.664H1.332v-1.336h3.336v-2.664H1.332v-1.336h3.336v-2.664H1.332v-1.336h3.336V8.668H1.332V7.332h3.336v-2c0-.367.297-.664.664-.664h2V1.332h1.336v3.336h2.664V1.332h1.336v3.336h2.664V1.332h1.336v3.336h2.664V1.332h1.336v3.336h2.664V1.332h1.336v3.336h2c.367 0 .664.297.664.664v2h3.336v1.336Zm-6.996 9.816h.875v-5.082h-.793l-1.453.676v.703l1.37-.511Zm-3.957 0h.863v-3.07h1.102v-.66h-1.102v-.586c0-.191.047-.328.137-.406.09-.082.242-.125.45-.125.093 0 .28.02.558.054v-.593a1.922 1.922 0 0 0-.77-.141c-.828 0-1.238.441-1.238 1.32v.496l-.652.098v.543h.652Zm-3.61-2.836c.336-.214.668-.324.989-.324.215 0 .37.055.472.164.098.114.145.285.145.528v2.468h.867v-2.742c0-.355-.094-.629-.281-.816-.184-.188-.457-.281-.813-.281-.5 0-.976.171-1.437.52l-.09-.411h-.719v3.73h.868Zm-2.773 2.836h.895v-5.082h-.895Zm0 0" fill="rgb(83.137255%, 35.686275%, 2.745098%)" fill-rule="evenodd"/></svg>