<svg role="img" viewBox="0 0 32 32" height="32" width="32" xmlns="http://www.w3.org/2000/svg"><path d="M6 26h20V6H6ZM27.332 8.668v2.664h3.336v1.336h-3.336v2.664h3.336v1.336h-3.336v2.664h3.336v1.336h-3.336v2.664h3.336v1.336h-3.336v2a.664.664 0 0 1-.664.664h-2v3.336h-1.336v-3.336h-2.664v3.336h-1.336v-3.336h-2.664v3.336h-1.336v-3.336h-2.664v3.336h-1.336v-3.336H8.668v3.336H7.332v-3.336h-2a.664.664 0 0 1-.664-.664v-2H1.332v-1.336h3.336v-2.664H1.332v-1.336h3.336v-2.664H1.332v-1.336h3.336v-2.664H1.332v-1.336h3.336V8.668H1.332V7.332h3.336v-2c0-.367.297-.664.664-.664h2V1.332h1.336v3.336h2.664V1.332h1.336v3.336h2.664V1.332h1.336v3.336h2.664V1.332h1.336v3.336h2.664V1.332h1.336v3.336h2c.367 0 .664.297.664.664v2h3.336v1.336Zm-6.945 12.875c.336.363.816.547 1.441.547.438 0 .813-.086 1.129-.25v-.664c-.344.105-.656.16-.945.16-.399 0-.696-.106-.883-.32-.192-.215-.285-.543-.285-.993v-.101c0-.457.093-.79.285-1.008.187-.215.484-.32.883-.32.25 0 .554.05.914.148v-.664c-.332-.16-.7-.242-1.067-.238-.625 0-1.109.191-1.457.566-.343.38-.52.91-.52 1.594 0 .668.169 1.18.505 1.543m-2.153-1.246a3.525 3.525 0 0 0-.73-.09c-.543 0-.813.219-.813.648 0 .188.051.332.157.438a.604.604 0 0 0 .43.156c.152 0 .308-.035.476-.101.164-.067.324-.16.48-.285Zm-2.222-2.16c.199-.102.445-.184.738-.242.29-.06.582-.086.875-.086.531 0 .922.105 1.176.32.254.21.379.547.379 1V22h-.825l-.07-.39c-.187.16-.394.285-.62.374-.216.09-.446.137-.677.137-.375 0-.675-.113-.91-.336-.23-.226-.344-.515-.344-.875 0-.394.141-.707.426-.941.285-.235.668-.352 1.149-.352.28 0 .593.04.925.117v-.468c0-.274-.054-.465-.172-.57-.12-.106-.324-.16-.617-.16-.418 0-.894.089-1.433.265Zm-5.688-.274 1.39 2.746h.884l1.437-2.761V22h.899v-5.543h-1.059l-1.695 3.305-1.664-3.305H9.43V22h.894Zm8.942-2.531h.949V9.789h-.863l-1.582.734v.77l1.496-.559Zm-7.38 0h-.894V9.789h1.086l1.664 3.305 1.7-3.305h1.054v5.543h-.894V11.18l-1.442 2.76h-.879l-1.394-2.74Zm0 0" fill="rgb(83.137255%, 35.686275%, 2.745098%)" fill-rule="evenodd"/></svg>