<svg role="img" viewBox="0 0 32 32" xmlns="http://www.w3.org/2000/svg"><path d="M6 26h20V6H6ZM27.332 8.668v2.664h3.336v1.336h-3.336v2.664h3.336v1.336h-3.336v2.664h3.336v1.336h-3.336v2.664h3.336v1.336h-3.336v2a.664.664 0 0 1-.664.664h-2v3.336h-1.336v-3.336h-2.664v3.336h-1.336v-3.336h-2.664v3.336h-1.336v-3.336h-2.664v3.336h-1.336v-3.336H8.668v3.336H7.332v-3.336h-2a.664.664 0 0 1-.664-.664v-2H1.332v-1.336h3.336v-2.664H1.332v-1.336h3.336v-2.664H1.332v-1.336h3.336v-2.664H1.332v-1.336h3.336V8.668H1.332V7.332h3.336v-2c0-.367.297-.664.664-.664h2V1.332h1.336v3.336h2.664V1.332h1.336v3.336h2.664V1.332h1.336v3.336h2.664V1.332h1.336v3.336h2.664V1.332h1.336v3.336h2c.367 0 .664.297.664.664v2h3.336v1.336Zm-5.023 6.828q.415-.263.808-.262.264-.001.387.133.119.136.121.43v2.023h.707v-2.246c0-.289-.078-.515-.23-.668q-.227-.229-.665-.23-.614-.002-1.175.426l-.075-.336h-.585v3.054h.707Zm-1.164 1.785h-1.723l1.703-1.992v-.523h-2.402v.539h1.64l-1.703 1.992v.523h2.485Zm-4.711-1.293h1.316v-.047q0-.364-.152-.558c-.102-.13-.246-.192-.442-.192a.64.64 0 0 0-.5.215q-.194.218-.222.582m-.329 1.512q-.39-.407-.39-1.187.001-.774.383-1.208.382-.429 1.062-.43.592 0 .902.321.317.32.317.91 0 .312-.05.559h-1.895c.011.3.093.527.246.668q.233.21.707.21.427.001.925-.167v.5q-.203.106-.484.172a2.8 2.8 0 0 1-.578.062q-.754 0-1.145-.41m-1.296-3.238a.43.43 0 0 0 .312-.11.4.4 0 0 0 .113-.3.4.4 0 0 0-.113-.297.43.43 0 0 0-.312-.11.43.43 0 0 0-.313.11.4.4 0 0 0-.113.297q.001.194.113.3a.43.43 0 0 0 .313.11m-.352 3.558h.707v-3.054h-.707Zm-.602-.57h-2.093c.48-.437.855-.8 1.129-1.098q.41-.439.593-.785.183-.345.184-.68c0-.23-.05-.433-.156-.601a1.04 1.04 0 0 0-.442-.387 1.5 1.5 0 0 0-.656-.133q-.69 0-1.266.47v.585q.312-.216.618-.332.3-.117.558-.117.294 0 .457.152.16.153.16.43c0 .156-.046.324-.148.508-.102.187-.281.425-.54.726q-.39.45-1.218 1.293v.54h2.82Zm-6.66.57 1.39-2.156-1.292-2.004h.73l.989 1.477.968-1.477h.73l-1.3 1.992 1.399 2.168h-.735l-1.09-1.644-1.058 1.644Zm0 0" fill="rgb(83.137256%, 35.686275%, 2.745098%)" fill-rule="evenodd"/></svg>