<svg role="img" viewBox="0 0 32 32" xmlns="http://www.w3.org/2000/svg"><path d="M6 26h20V6H6ZM27.332 8.668v2.664h3.336v1.336h-3.336v2.664h3.336v1.336h-3.336v2.664h3.336v1.336h-3.336v2.664h3.336v1.336h-3.336v2a.664.664 0 0 1-.664.664h-2v3.336h-1.336v-3.336h-2.664v3.336h-1.336v-3.336h-2.664v3.336h-1.336v-3.336h-2.664v3.336h-1.336v-3.336H8.668v3.336H7.332v-3.336h-2a.664.664 0 0 1-.664-.664v-2H1.332v-1.336h3.336v-2.664H1.332v-1.336h3.336v-2.664H1.332v-1.336h3.336v-2.664H1.332v-1.336h3.336V8.668H1.332V7.332h3.336v-2c0-.367.297-.664.664-.664h2V1.332h1.336v3.336h2.664V1.332h1.336v3.336h2.664V1.332h1.336v3.336h2.664V1.332h1.336v3.336h2.664V1.332h1.336v3.336h2c.367 0 .664.297.664.664v2h3.336v1.336Zm-5.664 7.754q0 1.406 1.023 1.406.474.002.922-.3v-2.204a1.54 1.54 0 0 0-.906-.285q-.533 0-.785.34-.253.34-.254 1.043m-.5 1.582q-.46-.576-.461-1.543 0-.638.207-1.125.21-.491.602-.766.39-.276.93-.277.639 0 1.167.418v-2.145h.942v5.918h-.809l-.094-.39q-.543.48-1.257.48c-.512 0-.918-.191-1.227-.57m-3.98-1.668q-.001 1.343.953 1.344c.312 0 .613-.106.894-.313v-2.05a1.53 1.53 0 0 0-.887-.286q-.487 0-.722.32-.239.317-.238.985m-.516 1.516q-.445-.559-.445-1.485-.001-.609.203-1.078.2-.468.574-.73.376-.265.887-.266.696.001 1.21.488l.079-.367h.8v3.793q0 .969-.527 1.496-.526.527-1.5.527-.737 0-1.398-.328v-.672q.744.247 1.336.247c.402 0 .691-.09.875-.274q.27-.275.27-.902v-.344q-.523.45-1.177.45c-.496 0-.89-.188-1.187-.555m-3.95-1.711c.04 1.136.407 1.707 1.11 1.707.29 0 .512-.09.676-.266q.239-.265.238-.734.001-.482-.25-.735-.246-.251-.726-.25a2.3 2.3 0 0 0-1.047.278m-.456 1.785q-.509-.678-.508-2.008-.001-1.469.601-2.29.605-.814 1.7-.816.344.001.695.079.346.075.594.203v.695a3.6 3.6 0 0 0-1.153-.215q-.722 0-1.074.48-.357.48-.398 1.481.632-.41 1.347-.41.744 0 1.196.453.45.451.449 1.203 0 .53-.235.942a1.7 1.7 0 0 1-.68.648q-.444.234-1.034.234-.996 0-1.5-.68m-4.403-.047q-.675-.704-.676-2.082.001-1.412.7-2.18.7-.762 2.011-.762c.48 0 .926.07 1.329.215v.801c-.532-.113-.946-.168-1.25-.168q-.91-.001-1.352.473-.445.469-.445 1.453v.191q0 .978.441 1.446.438.468 1.34.468.51 0 1.348-.199v.8a4 4 0 0 1-1.442.247q-1.324 0-2.004-.703m0 0" fill="rgb(83.137256%, 35.686275%, 2.745098%)" fill-rule="evenodd"/></svg>