<svg role="img" viewBox="0 0 32 32" xmlns="http://www.w3.org/2000/svg"><path d="M18.379 19.34q-.895-.001-1.754-.371v-.88q1.022.348 1.715.349c.441 0 .777-.102 1.015-.297q.36-.293.36-.836-.001-1.027-1.297-1.028-.417 0-.898.059v-.719l1.84-2h-2.641v-.883h3.855v.848l-1.941 1.906q.129-.012.258-.011.544-.002.984.23.444.227.707.648.26.417.262.961-.001.587-.301 1.043-.3.459-.855.72-.561.261-1.31.26m-6.086-5.73h1.145q.522 0 .792.288c.176.196.266.477.266.852q-.001.558-.266.848-.27.29-.793.289h-1.144Zm0 3.156h1.277c.645 0 1.153-.184 1.524-.543q.562-.54.562-1.473-.002-.937-.566-1.477-.563-.539-1.535-.539h-2.399V19.2h1.137ZM6 26h20V6H6ZM30.668 8.668V7.332h-3.336v-2a.664.664 0 0 0-.664-.664h-2V1.332h-1.336v3.336h-2.664V1.332h-1.336v3.336h-2.664V1.332h-1.336v3.336h-2.664V1.332h-1.336v3.336H8.668V1.332H7.332v3.336h-2a.664.664 0 0 0-.664.664v2H1.332v1.336h3.336v2.664H1.332v1.336h3.336v2.664H1.332v1.336h3.336v2.664H1.332v1.336h3.336v2.664H1.332v1.336h3.336v2c0 .367.297.664.664.664h2v3.336h1.336v-3.336h2.664v3.336h1.336v-3.336h2.664v3.336h1.336v-3.336h2.664v3.336h1.336v-3.336h2.664v3.336h1.336v-3.336h2a.664.664 0 0 0 .664-.664v-2h3.336v-1.336h-3.336v-2.664h3.336v-1.336h-3.336v-2.664h3.336v-1.336h-3.336v-2.664h3.336v-1.336h-3.336V8.668Zm0 0" fill="rgb(83.137256%, 35.686275%, 2.745098%)" fill-rule="evenodd"/></svg>