<svg role="img" viewBox="0 0 26 32" height="32" width="26" xmlns="http://www.w3.org/2000/svg"><path d="M14.191 26.672h9.27v-1.457h-9.27Zm0-7.211h9.27v-1.453h-9.27Zm0-7.207h9.27V10.8h-9.27Zm-3.906 14.508v-1.637h1.637v1.637Zm-.726 1.453h3.09a.73.73 0 0 0 .726-.727v-3.09a.747.747 0 0 0-.21-.515.73.73 0 0 0-.517-.211h-3.09a.723.723 0 0 0-.726.726v3.09c0 .399.32.727.727.727m.726-8.66v-1.633h1.637v1.633Zm-.726 1.453h3.09a.73.73 0 0 0 .726-.727v-3.09a.747.747 0 0 0-.21-.515.73.73 0 0 0-.517-.211h-3.09a.723.723 0 0 0-.726.726v3.09c0 .399.32.727.727.727m.726-8.66v-1.633h1.637v1.633ZM9.56 13.8h3.09a.73.73 0 0 0 .726-.727V9.988a.723.723 0 0 0-.727-.727h-3.09a.73.73 0 0 0-.515.212.747.747 0 0 0-.211.515v3.086c0 .399.32.727.727.727M7.715 30.879V7.62h17.078v23.26ZM6.254 6.895v20.898H4.62V4.535H21.7v1.633H6.99a.714.714 0 0 0-.516.21.708.708 0 0 0-.22.517M3.169 3.809v21.238H1.875V1.785h17.078v1.293H3.895a.729.729 0 0 0-.727.73m22.352 2.36h-2.368v-2.36c0-.402-.32-.73-.726-.73h-2.02v-2.02a.747.747 0 0 0-.21-.515.723.723 0 0 0-.516-.211H1.148a.73.73 0 0 0-.726.727v24.714c0 .399.324.727.726.727h2.02v2.02c0 .402.324.726.727.726h2.359v2.36c0 .402.324.726.734.726H25.52a.747.747 0 0 0 .515-.21.73.73 0 0 0 .211-.517V6.895a.73.73 0 0 0-.21-.516.747.747 0 0 0-.516-.211m0 0" fill="rgb(92.941176%, 44.313725%, 0%)"/></svg>