<svg role="img" viewBox="0 0 32 32" xmlns="http://www.w3.org/2000/svg"><path d="M6 26h20V6H6ZM27.332 8.668v2.664h3.336v1.336h-3.336v2.664h3.336v1.336h-3.336v2.664h3.336v1.336h-3.336v2.664h3.336v1.336h-3.336v2a.664.664 0 0 1-.664.664h-2v3.336h-1.336v-3.336h-2.664v3.336h-1.336v-3.336h-2.664v3.336h-1.336v-3.336h-2.664v3.336h-1.336v-3.336H8.668v3.336H7.332v-3.336h-2a.664.664 0 0 1-.664-.664v-2H1.332v-1.336h3.336v-2.664H1.332v-1.336h3.336v-2.664H1.332v-1.336h3.336v-2.664H1.332v-1.336h3.336V8.668H1.332V7.332h3.336v-2c0-.367.297-.664.664-.664h2V1.332h1.336v3.336h2.664V1.332h1.336v3.336h2.664V1.332h1.336v3.336h2.664V1.332h1.336v3.336h2.664V1.332h1.336v3.336h2c.367 0 .664.297.664.664v2h3.336v1.336Zm-3.148 8.398a2.8 2.8 0 0 0-.61-.074q-.675 0-.676.54 0 .233.13.363a.48.48 0 0 0 .359.132 1 1 0 0 0 .394-.086q.21-.081.403-.234Zm0-.468v-.391q.001-.342-.145-.473-.147-.136-.516-.136-.516 0-1.191.222v-.554q.251-.13.613-.2.363-.075.73-.074c.446 0 .77.09.981.266q.317.269.317.836v2.39h-.688l-.058-.324a1.8 1.8 0 0 1-.52.313 1.5 1.5 0 0 1-.562.113q-.465 0-.758-.281-.289-.276-.29-.727.002-.492.36-.785c.234-.195.555-.293.953-.293q.357-.001.774.098m-5-.067q.046 1.424.925 1.422.358 0 .563-.219.2-.221.2-.613-.001-.404-.208-.613-.209-.206-.605-.207-.433.001-.875.23M18.8 18.02q-.422-.57-.422-1.672c0-.82.168-1.453.504-1.91q.505-.68 1.414-.68c.191 0 .387.023.578.066q.292.062.496.168v.582a2.7 2.7 0 0 0-.96-.18q-.601 0-.895.399-.299.398-.332 1.234a2.05 2.05 0 0 1 1.125-.34q.616 0 .992.376.38.376.379 1.003 0 .44-.2.782c-.128.23-.32.41-.566.543a1.8 1.8 0 0 1-.863.195q-.824 0-1.25-.566m-1.774.539a2 2 0 0 0 .938-.207V17.8a2.8 2.8 0 0 1-.785.133q-.498 0-.739-.27-.234-.266-.234-.824v-.086c0-.379.078-.656.234-.84q.24-.27.739-.27.31 0 .758.13v-.555a1.96 1.96 0 0 0-.887-.2q-.779 0-1.211.473-.434.474-.434 1.328 0 .834.418 1.285.42.453 1.203.454m-4.535-.88q.373.26.793.259.428.002.633-.29c.14-.191.207-.488.207-.882q.001-.585-.203-.871c-.137-.188-.344-.282-.629-.282q-.434.001-.8.254Zm0 2.18h-.785v-4.765h.652l.075.34a1.6 1.6 0 0 1 1.105-.441q.633.002 1.008.472.38.475.379 1.273-.001.535-.172.946a1.5 1.5 0 0 1-.5.64 1.3 1.3 0 0 1-.77.235q-.28 0-.539-.098a1.4 1.4 0 0 1-.453-.27ZM7.88 18.484h-.813v-4.617h.813v1.938H10v-1.938h.813v4.617H10v-2.023H7.879Zm0 0" fill="rgb(83.137256%, 35.686275%, 2.745098%)" fill-rule="evenodd"/></svg>