<svg role="img" viewBox="0 0 31 32" height="32" width="31" xmlns="http://www.w3.org/2000/svg"><path d="M12.16.61a6.32 6.32 0 0 0-5.64 4.109 6.289 6.289 0 0 0 1.601 6.8 11.535 11.535 0 0 0-7.55 10.833v2.187h14.038l-.03-1.41H1.948v-.777c0-4.57 3.063-8.563 7.461-9.774a6.844 6.844 0 0 0 6.031 0c1.887.52 3.59 1.563 4.91 3.012l1.04-.942a11.622 11.622 0 0 0-4.633-3.136 6.315 6.315 0 0 0 1.48-7.043A6.308 6.308 0 0 0 12.16.609m.281 1.57a4.812 4.812 0 0 1 4.688 3.622c.562 2.129-.418 4.37-2.36 5.43a5 5 0 0 1-4.718 0A4.834 4.834 0 0 1 7.69 5.77a4.821 4.821 0 0 1 4.75-3.59m10.88 13.082-7.462 4.308v8.621L23.32 32.5l7.47-4.309v-8.62Zm0 1.59 5.39 3.109-5.39 3.11-5.38-3.11Zm-6.06 4.34 5.36 3.097v6.191l-5.36-3.101Zm12.13 0v6.187l-5.36 3.101v-6.19Zm0 0" fill="rgb(86.666667%, 20.392157%, 29.803922%)"/></svg>