<?xml version="1.0" encoding="UTF-8"?>
<svg xmlns="http://www.w3.org/2000/svg" xmlns:xlink="http://www.w3.org/1999/xlink" width="32" height="32" viewBox="0 0 32 32">
<path fill-rule="evenodd" fill="rgb(83.137255%, 35.686275%, 2.745098%)" fill-opacity="1" d="M 6 26 L 26 26 L 26 6 L 6 6 Z M 27.332031 8.667969 L 27.332031 11.332031 L 30.667969 11.332031 L 30.667969 12.667969 L 27.332031 12.667969 L 27.332031 15.332031 L 30.667969 15.332031 L 30.667969 16.667969 L 27.332031 16.667969 L 27.332031 19.332031 L 30.667969 19.332031 L 30.667969 20.667969 L 27.332031 20.667969 L 27.332031 23.332031 L 30.667969 23.332031 L 30.667969 24.667969 L 27.332031 24.667969 L 27.332031 26.667969 C 27.332031 27.035156 27.035156 27.332031 26.667969 27.332031 L 24.667969 27.332031 L 24.667969 30.667969 L 23.332031 30.667969 L 23.332031 27.332031 L 20.667969 27.332031 L 20.667969 30.667969 L 19.332031 30.667969 L 19.332031 27.332031 L 16.667969 27.332031 L 16.667969 30.667969 L 15.332031 30.667969 L 15.332031 27.332031 L 12.667969 27.332031 L 12.667969 30.667969 L 11.332031 30.667969 L 11.332031 27.332031 L 8.667969 27.332031 L 8.667969 30.667969 L 7.332031 30.667969 L 7.332031 27.332031 L 5.332031 27.332031 C 4.964844 27.332031 4.667969 27.035156 4.667969 26.667969 L 4.667969 24.667969 L 1.332031 24.667969 L 1.332031 23.332031 L 4.667969 23.332031 L 4.667969 20.667969 L 1.332031 20.667969 L 1.332031 19.332031 L 4.667969 19.332031 L 4.667969 16.667969 L 1.332031 16.667969 L 1.332031 15.332031 L 4.667969 15.332031 L 4.667969 12.667969 L 1.332031 12.667969 L 1.332031 11.332031 L 4.667969 11.332031 L 4.667969 8.667969 L 1.332031 8.667969 L 1.332031 7.332031 L 4.667969 7.332031 L 4.667969 5.332031 C 4.667969 4.964844 4.964844 4.667969 5.332031 4.667969 L 7.332031 4.667969 L 7.332031 1.332031 L 8.667969 1.332031 L 8.667969 4.667969 L 11.332031 4.667969 L 11.332031 1.332031 L 12.667969 1.332031 L 12.667969 4.667969 L 15.332031 4.667969 L 15.332031 1.332031 L 16.667969 1.332031 L 16.667969 4.667969 L 19.332031 4.667969 L 19.332031 1.332031 L 20.667969 1.332031 L 20.667969 4.667969 L 23.332031 4.667969 L 23.332031 1.332031 L 24.667969 1.332031 L 24.667969 4.667969 L 26.667969 4.667969 C 27.035156 4.667969 27.332031 4.964844 27.332031 5.332031 L 27.332031 7.332031 L 30.667969 7.332031 L 30.667969 8.667969 Z M 20.054688 16.078125 C 20.054688 17.171875 20.453125 17.71875 21.25 17.71875 C 21.617188 17.71875 21.972656 17.601562 22.320312 17.367188 L 22.320312 14.800781 C 22.011719 14.578125 21.644531 14.460938 21.265625 14.464844 C 20.851562 14.464844 20.542969 14.597656 20.347656 14.859375 C 20.152344 15.125 20.054688 15.53125 20.054688 16.078125 M 19.472656 17.921875 C 19.113281 17.476562 18.933594 16.878906 18.933594 16.125 C 18.933594 15.625 19.015625 15.1875 19.175781 14.808594 C 19.339844 14.429688 19.570312 14.132812 19.875 13.917969 C 20.195312 13.699219 20.574219 13.585938 20.960938 13.59375 C 21.457031 13.59375 21.910156 13.757812 22.320312 14.082031 L 22.320312 11.578125 L 23.421875 11.578125 L 23.421875 18.484375 L 22.480469 18.484375 L 22.367188 18.027344 C 21.945312 18.402344 21.457031 18.589844 20.902344 18.589844 C 20.304688 18.589844 19.828125 18.367188 19.472656 17.921875 M 17.421875 18.050781 C 17.871094 17.667969 18.09375 17.152344 18.09375 16.507812 C 18.09375 15.902344 17.910156 15.429688 17.539062 15.078125 C 17.167969 14.730469 16.65625 14.558594 16.011719 14.558594 C 15.738281 14.554688 15.464844 14.578125 15.199219 14.632812 L 15.308594 12.90625 L 17.777344 12.90625 L 17.777344 12.019531 L 14.265625 12.019531 L 14.089844 14.800781 L 14.089844 15.507812 C 14.660156 15.445312 15.132812 15.414062 15.507812 15.414062 C 16.015625 15.414062 16.386719 15.503906 16.617188 15.679688 C 16.847656 15.859375 16.964844 16.140625 16.964844 16.527344 C 16.964844 17.320312 16.503906 17.71875 15.582031 17.71875 C 15.085938 17.71875 14.5 17.601562 13.820312 17.375 L 13.820312 18.253906 C 14.386719 18.5 14.996094 18.625 15.613281 18.625 C 16.371094 18.625 16.972656 18.433594 17.421875 18.050781 M 9.082031 17.777344 C 8.558594 17.230469 8.292969 16.421875 8.292969 15.351562 C 8.292969 14.25 8.566406 13.402344 9.113281 12.808594 C 9.65625 12.210938 10.4375 11.914062 11.457031 11.914062 C 12.019531 11.914062 12.535156 12 13.007812 12.167969 L 13.007812 13.101562 C 12.386719 12.96875 11.902344 12.902344 11.550781 12.90625 C 10.839844 12.90625 10.3125 13.089844 9.96875 13.457031 C 9.625 13.820312 9.453125 14.386719 9.453125 15.152344 L 9.453125 15.378906 C 9.453125 16.136719 9.621094 16.699219 9.964844 17.0625 C 10.304688 17.425781 10.824219 17.605469 11.53125 17.609375 C 11.925781 17.609375 12.449219 17.53125 13.101562 17.375 L 13.101562 18.308594 C 12.609375 18.5 12.050781 18.597656 11.421875 18.597656 C 10.386719 18.597656 9.605469 18.324219 9.082031 17.777344 M 9.082031 17.777344 "/>
</svg>
