<svg role="img" viewBox="0 0 32 32" height="32" width="32" xmlns="http://www.w3.org/2000/svg"><path d="M.203.203h31.594v31.594H.203Zm0 0" fill="rgb(86.666667%, 20.392157%, 29.803922%)"/><path d="M4.266 24.574h23.468V7.426H4.266Zm24.37-17.601v18.054c0 .246-.198.45-.448.45H3.813c-.25 0-.45-.2-.45-.45V6.973c0-.25.203-.45.45-.45h24.375a.45.45 0 0 1 .449.45M17.805 19.609h6.77v-.898h-6.77Zm5.867-2.707h2.258V16h-2.258Zm-5.867 0h3.613V16h-3.613Zm-6.77 1.809a.45.45 0 0 0-.133-.32.44.44 0 0 0-.316-.133.47.47 0 0 0-.418.215.485.485 0 0 0 0 .472c.09.145.25.227.418.215a.45.45 0 0 0 .45-.45m.902 0c0 .587-.376 1.083-.903 1.267v.988h-.902v-.988a1.347 1.347 0 0 1-.903-1.266c0-.75.614-1.36 1.36-1.36.738 0 1.348.61 1.348 1.36m-5.415 3.605 8.125.004v-1.808H12.84v-.903h1.805v-1.351H12.84v-.906h1.808v-1.348L6.528 16Zm1.356-7.218 5.41.004v-3.165c.008-1.039-1.262-1.953-2.7-1.953h-.003c-1.441 0-2.703.91-2.703 1.954ZM5.617 22.77l.004-7.22a.45.45 0 0 1 .45-.453h.902l.004-3.16c0-1.574 1.613-2.855 3.605-2.855h.004c1.988.004 3.61 1.285 3.61 2.855v3.165h.902c.25 0 .453.203.453.449l-.004 7.219c0 .12-.05.234-.133.32a.45.45 0 0 1-.32.133l-9.024-.004a.45.45 0 0 1-.453-.45m19.41-8.574h.903v-.906h-.903Zm-7.222 0h4.965v-.906h-4.965Zm0 0" fill="rgb(100%, 100%, 100%)"/></svg>