<svg role="img" viewBox="0 0 32 32" height="32" width="32" xmlns="http://www.w3.org/2000/svg"><path d="M30.613 15.387h-5.34l2.551-2.547-.945-.945-3.727 3.73a.67.67 0 0 0 0 .941l3.727 3.727.945-.945-2.629-2.625h5.418ZM5.066 11.895l-.945.945 2.55 2.547H1.333v1.336H6.75l-2.629 2.625.945.945 3.727-3.727a.67.67 0 0 0 0-.941Zm7.473 7.593h6.867v-6.867H12.54Zm8.055-7.613h1.234v1.332h-1.09v1.008h1.09v1.336h-1.09v1.008h1.09v1.332h-1.09v1.011h1.09v1.332h-1.234c-.102.188-.254.34-.442.442v1.234H18.82v-1.09h-1.008v1.09h-1.335v-1.09h-1.008v1.09h-1.332v-1.09h-1.012v1.09h-1.332v-1.234a1.092 1.092 0 0 1-.441-.442h-1.235v-1.332h1.09v-1.011h-1.09v-1.332h1.09V15.55h-1.09v-1.336h1.09v-1.008h-1.09v-1.332h1.235c.105-.187.253-.34.441-.441v-1.235h1.332v1.09h1.012V10.2h1.332v1.09h1.008V10.2h1.335v1.09h1.008V10.2h1.332v1.235c.188.101.34.254.442.441M16.64 28.5v-5.418h-1.332V28.5l-2.594-2.59-.942.942 3.727 3.73a.67.67 0 0 0 .941 0l3.73-3.73-.944-.942ZM12.715 6.2l-.942-.946L15.5 1.527a.67.67 0 0 1 .941 0l3.73 3.727-.944.945-2.586-2.59v5.418h-1.332V3.61Zm0 0" fill="rgb(83.137255%, 35.686275%, 2.745098%)" fill-rule="evenodd"/></svg>