<svg role="img" viewBox="0 0 32 32" height="32" width="32" xmlns="http://www.w3.org/2000/svg"><path d="M.203.203h31.594v31.594H.203Zm0 0" fill="rgb(90.588235%, 8.235294%, 48.235294%)"/><path d="M9.23 21.883h1.805v-.906H9.23Zm15.782-6.695c-.102-1.376-.77-2.383-1.836-2.739-.856-.285-1.801-.086-2.516.5a9.36 9.36 0 0 0-1.633-2.234c-1.941-1.914-4.082-2.402-6.359-1.45-2.035.844-3.89 3.63-3.89 5.837v.09c-1.22.41-2.208 1.308-2.673 2.449l.832.343c.598-1.457 1.989-1.914 2.403-2.02.2-.054.34-.23.34-.437v-.425c0-1.825 1.648-4.301 3.336-5.004 1.933-.809 3.699-.395 5.375 1.261.714.704 1.414 1.75 1.699 2.543a.461.461 0 0 0 .36.293.442.442 0 0 0 .421-.175c.5-.665 1.309-.954 2.02-.715.785.265 1.234 1.082 1.234 2.25 0 .222.16.41.379.445.332.059 3.23.625 3.23 3.621 0 3.102-3.035 3.16-3.16 3.164H14.195v.902h10.38c1.405-.003 4.062-.859 4.062-4.066 0-2.805-2.13-4.062-3.625-4.433m-13.074 6.695h6.32v-.906h-6.32Zm-1.81 1.805h2.712v-.903h-2.711Zm-6.765 0h1.352v-.903H3.363Zm1.352-3.618h4.062v-.902H4.715Zm-.902 1.813h4.515v-.906H3.813Zm6.316-1.813h3.16v-.902h-3.16Zm-4.512 3.617H9.23v-.902H5.617Zm0 0" fill="rgb(100%, 100%, 100%)"/></svg>