<svg role="img" viewBox="0 0 32 32" xmlns="http://www.w3.org/2000/svg"><path d="M6 26h20V6H6ZM27.332 8.668v2.664h3.336v1.336h-3.336v2.664h3.336v1.336h-3.336v2.664h3.336v1.336h-3.336v2.664h3.336v1.336h-3.336v2a.664.664 0 0 1-.664.664h-2v3.336h-1.336v-3.336h-2.664v3.336h-1.336v-3.336h-2.664v3.336h-1.336v-3.336h-2.664v3.336h-1.336v-3.336H8.668v3.336H7.332v-3.336h-2a.664.664 0 0 1-.664-.664v-2H1.332v-1.336h3.336v-2.664H1.332v-1.336h3.336v-2.664H1.332v-1.336h3.336v-2.664H1.332v-1.336h3.336V8.668H1.332V7.332h3.336v-2c0-.367.297-.664.664-.664h2V1.332h1.336v3.336h2.664V1.332h1.336v3.336h2.664V1.332h1.336v3.336h2.664V1.332h1.336v3.336h2.664V1.332h1.336v3.336h2c.367 0 .664.297.664.664v2h3.336v1.336Zm-4.828 6.7c.293-.184.574-.278.855-.278q.276 0 .407.14.124.145.125.454v2.136h.746v-2.37c0-.305-.078-.544-.239-.704q-.24-.246-.703-.246-.644.002-1.242.45l-.074-.352h-.621v3.222h.746Zm-3.336.519h1.387v-.051q-.001-.386-.16-.59-.16-.2-.465-.2a.66.66 0 0 0-.528.227q-.205.228-.234.614m-.352 1.597q-.41-.434-.41-1.254-.001-.817.403-1.273.404-.457 1.125-.457.62 0 .953.34c.218.226.332.547.332.96q-.001.33-.055.587h-1.996q.018.482.258.707.242.224.742.226.456.002.98-.18v.528a2 2 0 0 1-.511.18 3 3 0 0 1-.61.066q-.795 0-1.21-.43m-3.164-1.367q-.001 1.062.754 1.063c.246 0 .485-.082.707-.246v-1.622a1.2 1.2 0 0 0-.703-.23q-.389.001-.57.254-.188.253-.188.781m-.41 1.2q-.351-.442-.351-1.176 0-.482.16-.852.159-.37.453-.578.3-.21.703-.211.552 0 .957.387l.063-.29h.636v3q0 .768-.418 1.184c-.277.282-.675.418-1.187.418q-.585 0-1.106-.258v-.535q.587.2 1.055.2.474-.001.691-.22.216-.217.215-.71v-.274a1.4 1.4 0 0 1-.93.356q-.59-.001-.94-.442m-1.914-1.005V14.38l-1.324 1.934Zm0 .594h-2.08v-.562l2.047-2.914h.785v2.883h.59v.593h-.59v.914h-.754Zm-3.515 1.008q.609.002.949-.277.341-.27.343-.75a.77.77 0 0 0-.171-.512c-.11-.137-.293-.25-.547-.348l-.492-.191a1.3 1.3 0 0 1-.352-.188.27.27 0 0 1-.098-.222c0-.121.043-.211.137-.27q.136-.087.43-.086.41.001.91.16v-.527a2.2 2.2 0 0 0-.953-.203q-.55 0-.88.258a.84.84 0 0 0-.327.699q-.002.613.71.887l.528.203q.24.088.332.172.09.087.09.226 0 .204-.149.301-.146.1-.464.098-.469-.001-1.079-.196v.528q.213.111.5.176.283.063.582.062m-2.438-.094h.773v-4.39h-.773Zm0 0" fill="rgb(83.137256%, 35.686275%, 2.745098%)" fill-rule="evenodd"/></svg>