<svg role="img" viewBox="0 0 32 32" xmlns="http://www.w3.org/2000/svg"><path d="M18.473 19.395a4.5 4.5 0 0 1-1.79-.372v-.878q1.019.346 1.762.347 1.383 0 1.383-1.195 0-.58-.348-.844c-.234-.18-.601-.265-1.109-.265-.379 0-.851.027-1.418.09v-.708l.176-2.78h3.512v.886h-2.473l-.105 1.726a4 4 0 0 1 .812-.074q.969-.002 1.527.524.553.522.555 1.425c0 .649-.223 1.16-.672 1.547-.45.38-1.05.57-1.812.57m-6.29-5.73h1.16q1.063 0 1.063 1.073 0 1.074-1.09 1.075h-1.132Zm0 3.023h1.137l1.516 2.57h1.137L14.3 16.492q.615-.24.937-.699.324-.457.325-1.09 0-.878-.575-1.398-.573-.516-1.527-.516h-2.418v6.469h1.14ZM6 26h20V6H6ZM30.668 8.668V7.332h-3.336v-2a.664.664 0 0 0-.664-.664h-2V1.332h-1.336v3.336h-2.664V1.332h-1.336v3.336h-2.664V1.332h-1.336v3.336h-2.664V1.332h-1.336v3.336H8.668V1.332H7.332v3.336h-2a.664.664 0 0 0-.664.664v2H1.332v1.336h3.336v2.664H1.332v1.336h3.336v2.664H1.332v1.336h3.336v2.664H1.332v1.336h3.336v2.664H1.332v1.336h3.336v2c0 .367.297.664.664.664h2v3.336h1.336v-3.336h2.664v3.336h1.336v-3.336h2.664v3.336h1.336v-3.336h2.664v3.336h1.336v-3.336h2.664v3.336h1.336v-3.336h2a.664.664 0 0 0 .664-.664v-2h3.336v-1.336h-3.336v-2.664h3.336v-1.336h-3.336v-2.664h3.336v-1.336h-3.336v-2.664h3.336v-1.336h-3.336V8.668Zm0 0" fill="rgb(83.137256%, 35.686275%, 2.745098%)" fill-rule="evenodd"/></svg>