<svg role="img" viewBox="0 0 32 32" xmlns="http://www.w3.org/2000/svg"><defs><linearGradient gradientTransform="scale(32)" gradientUnits="userSpaceOnUse" id="aws-waf_svg__a" x1="0" x2="1" y1="1" y2="0"><stop offset="0" stop-color="rgb(74.117649%, 3.137255%, 8.627451%)"/><stop offset="1" stop-color="rgb(100%, 32.156864%, 32.156864%)"/></linearGradient></defs><path d="M-3.2-3.2h38.4v38.4H-3.2z" fill="url(#aws-waf_svg__a)"/><path d="M13.465 20.2c.441.308.953.59 1.52.843-.239-1.188-.4-3.242.671-5.207.797-1.465.926-3.129.344-4.34a2.9 2.9 0 0 0-.96-1.148c.378.879.593 2.152.019 3.789a.5.5 0 0 1-.434.332.52.52 0 0 1-.48-.262c-.165-.309-.622-1.004-1.141-1.418.203.938.332 2.344-.336 3.395-.035.054-.07.113-.102.168-.734 1.293-.34 2.984.899 3.847m3.77-8.12c.285 1.323.046 2.862-.7 4.233-1.082 1.993-.683 4.16-.453 5.012.977-.164 3.45-.777 3.977-2.824.507-1.96.203-3.098-.153-3.71-.355 1.273-1.004 1.808-1.039 1.835a.51.51 0 0 1-.562.04.5.5 0 0 1-.246-.509c.304-1.886-.18-3.195-.825-4.078m-5.41 3.567c.805-1.262-.035-3.48-.043-3.504a.493.493 0 0 1 .465-.68c.875 0 1.625.676 2.125 1.297.266-1.996-.937-3.043-1-3.094a.49.49 0 0 1-.129-.594.49.49 0 0 1 .54-.28c.734.128 1.386.41 1.925.815.477.211 2.86 1.418 3.355 4.348.016-.086.024-.18.036-.273a.506.506 0 0 1 .738-.387c.094.05 2.266 1.297 1.191 5.457-.836 3.246-5.09 3.613-5.27 3.629v-.004c-.01 0-.023.004-.03.004a.5.5 0 0 1-.168-.027c-1.028-.368-1.926-.817-2.668-1.332-1.657-1.157-2.18-3.426-1.192-5.165q.06-.105.125-.21m-4.082 6.332.813-.59A9.1 9.1 0 0 1 6.832 16.5H8v-1H6.84a9.04 9.04 0 0 1 1.715-4.86l-.809-.585A10.07 10.07 0 0 0 5.84 15.5H5v1h.836a10.07 10.07 0 0 0 1.91 5.477m13.629 1.484a9.1 9.1 0 0 1-4.875 1.715V24h-1v1.176a9.1 9.1 0 0 1-4.875-1.715l-.586.809a10.1 10.1 0 0 0 5.461 1.906V27h1v-.824a10.13 10.13 0 0 0 5.46-1.906ZM10.625 8.57A9.07 9.07 0 0 1 15.5 6.854V8h1V6.855a9.07 9.07 0 0 1 4.875 1.715l.586-.808A10.05 10.05 0 0 0 16.5 5.855V5h-1v.855c-1.969.086-3.867.75-5.46 1.907ZM26.16 15.5a10.07 10.07 0 0 0-1.906-5.445l-.809.586A9.13 9.13 0 0 1 25.16 15.5H24v1h1.16a9.07 9.07 0 0 1-1.715 4.887l.809.59A10.1 10.1 0 0 0 26.16 16.5H27v-1Zm-3.648-5.293 3.082-3.078-.707-.707L21.805 9.5ZM9.484 21.82l-3.078 3.082.707.707 3.078-3.082Zm1.723-11.32L5.793 5.086l-.707.707 5.414 5.414ZM21.5 20.793l5.414 5.414-.707.707-5.414-5.414Zm0 0" fill="rgb(100%, 100%, 100%)" fill-rule="evenodd"/></svg>