<svg role="img" viewBox="0 0 32 32" height="32" width="32" xmlns="http://www.w3.org/2000/svg"><defs><linearGradient gradientTransform="scale(32)" gradientUnits="userSpaceOnUse" id="37__36__476__475__135__134__421__420__405__404__135__134__389__388__215__214__363__362__209__208__aws-firewall-manager_svg__svg/aws-firewall-manager.svg727__svg/aws-firewall-manager.svg725__aws-firewall-manager-lp-0" x1="0" x2="1" y1="1" y2="0"><stop offset="0" stop-color="rgb(74.117647%, 3.137255%, 8.627451%)"/><stop offset="1" stop-color="rgb(100%, 32.156863%, 32.156863%)"/></linearGradient></defs><path d="M-3.2-3.2h38.4v38.4H-3.2z" fill="url(#37__36__476__475__135__134__421__420__405__404__135__134__389__388__215__214__363__362__209__208__aws-firewall-manager_svg__svg/aws-firewall-manager.svg727__svg/aws-firewall-manager.svg725__aws-firewall-manager-lp-0)"/><path d="M25 15.5c-.55 0-1-.45-1-1s.45-1 1-1 1 .45 1 1-.45 1-1 1m2-1c0-1.102-.898-2-2-2-.043 0-.082.012-.125.012a9.96 9.96 0 0 0-.727-1.442l-.847.528c.238.386.441.8.62 1.222a1.993 1.993 0 0 0-.89 2.047c.149.801.77 1.43 1.567 1.594a8.63 8.63 0 0 1-1.7 4.937l.801.594a9.597 9.597 0 0 0 1.903-5.594A2 2 0 0 0 27 14.5M22 10c-.55 0-1-.45-1-1s.45-1 1-1 1 .45 1 1-.45 1-1 1m2-1c0-1.102-.898-2-2-2-1.102 0-2 .898-2 2 0 1.102.898 2 2 2 1.102 0 2-.898 2-2M11 7.5c0-.55.45-1 1-1s1 .45 1 1-.45 1-1 1-1-.45-1-1m3 0c0-1.102-.898-2-2-2-1.102 0-2 .898-2 2 0 1.102.898 2 2 2 1.102 0 2-.898 2-2m.55.043-.152-.988a9.703 9.703 0 0 1 5.301.68l-.398.917a8.683 8.683 0 0 0-4.75-.609M7 15c-.55 0-1-.45-1-1s.45-1 1-1 1 .45 1 1-.45 1-1 1m3.316-5.574-.632-.774a9.733 9.733 0 0 0-2.63 3.352L7 12c-1.102 0-2 .898-2 2 0 .785.457 1.457 1.113 1.785-.004.137-.011.274-.011.414a9.783 9.783 0 0 0 3.355 7.363l.656-.753a8.756 8.756 0 0 1-3.011-6.61c0-.07.003-.14.007-.21A1.993 1.993 0 0 0 9 14c0-.727-.395-1.36-.977-1.707a8.833 8.833 0 0 1 2.293-2.867m9.965 12.898c-.597 2.313-3.426 2.965-4.43 3.13-.238-.852-.683-3.048.29-5.145.062-.137.132-.27.207-.403.593-1.062 1.074-2.058.918-3.449-.067-.562-.348-1.332-.66-2.043.953 1.008 1.917 2.719 1.496 5.348a.494.494 0 0 0 .242.511c.18.106.402.086.562-.043.04-.03.77-.636 1.145-2.085.418.656.812 1.921.23 4.18m-7.254 1.597c-1.37-.953-1.808-2.824-.996-4.254.035-.063.07-.125.114-.191.753-1.18.57-2.774.332-3.79.617.446 1.168 1.278 1.359 1.633a.501.501 0 0 0 .48.258.493.493 0 0 0 .434-.328c.664-1.89.355-3.324-.105-4.281.074.047.14.094.207.144.41.746 1.316 2.559 1.418 3.457.125 1.098-.25 1.875-.797 2.848a8.776 8.776 0 0 0-.239.469c-.921 1.984-.746 4.004-.5 5.199-.48-.273-.906-.578-1.27-.848-.155-.113-.3-.222-.437-.316m6.942-7.254a.517.517 0 0 0-.473-.004.51.51 0 0 0-.266.39c-.02.2-.046.384-.082.551-.425-3.543-3.261-5.07-3.668-5.273-.57-.426-1.253-.707-2.09-.855a.514.514 0 0 0-.542.28.506.506 0 0 0 .136.598c.067.055 1.438 1.247 1.09 3.516-.543-.687-1.375-1.48-2.351-1.48a.504.504 0 0 0-.414.218.494.494 0 0 0-.051.465c.262.68.785 2.703.043 3.864a4.473 4.473 0 0 0-.137.23c-1.07 1.879-.5 4.328 1.29 5.574.132.09.269.192.417.301.633.469 1.422 1.055 2.461 1.426.05.02.11.031.168.031.016 0 .04 0 .05-.004.493-.043 4.821-.527 5.7-3.922 1.164-4.508-1.18-5.851-1.281-5.906" fill="rgb(100%, 100%, 100%)" fill-rule="evenodd"/></svg>