<svg role="img" viewBox="0 0 32 32" xmlns="http://www.w3.org/2000/svg"><path d="M6 26h20V6H6ZM27.332 8.668v2.664h3.336v1.336h-3.336v2.664h3.336v1.336h-3.336v2.664h3.336v1.336h-3.336v2.664h3.336v1.336h-3.336v2a.664.664 0 0 1-.664.664h-2v3.336h-1.336v-3.336h-2.664v3.336h-1.336v-3.336h-2.664v3.336h-1.336v-3.336h-2.664v3.336h-1.336v-3.336H8.668v3.336H7.332v-3.336h-2a.664.664 0 0 1-.664-.664v-2H1.332v-1.336h3.336v-2.664H1.332v-1.336h3.336v-2.664H1.332v-1.336h3.336v-2.664H1.332v-1.336h3.336V8.668H1.332V7.332h3.336v-2c0-.367.297-.664.664-.664h2V1.332h1.336v3.336h2.664V1.332h1.336v3.336h2.664V1.332h1.336v3.336h2.664V1.332h1.336v3.336h2.664V1.332h1.336v3.336h2c.367 0 .664.297.664.664v2h3.336v1.336Zm-7.21 6.98q.504-.322.991-.324c.211 0 .371.055.469.164.098.114.145.285.145.528v2.468h.867v-2.742q0-.534-.282-.816c-.183-.188-.457-.281-.812-.281q-.748-.002-1.437.52l-.086-.411h-.72v3.73h.864Zm-3.938.602h1.605v-.059c0-.296-.062-.527-.184-.683q-.187-.235-.539-.235-.374.001-.613.266-.234.265-.27.711m-.403 1.848q-.478-.498-.476-1.453c0-.63.152-1.122.465-1.473q.462-.527 1.3-.527.72-.002 1.106.39.382.393.383 1.113 0 .38-.063.68h-2.312q.021.557.3.82.28.258.86.258a3.6 3.6 0 0 0 1.136-.203v.606c-.168.09-.363.16-.593.21q-.34.078-.707.079-.922-.001-1.399-.5m-2.105.293q.438-.205.672-.567.239-.358.238-.82a1.4 1.4 0 0 0-.207-.754 1.46 1.46 0 0 0-.555-.512 1.7 1.7 0 0 0-.773-.18q-.105.002-.203.008l1.523-1.496v-.668h-3.027v.7h2.074l-1.445 1.57v.562q.38-.042.707-.043 1.02.001 1.02.805c0 .285-.098.504-.282.656-.188.157-.453.23-.8.23q-.546 0-1.348-.269v.688c.449.195.91.297 1.378.297q.588 0 1.028-.207m-4.238.093h.894v-5.082h-.895Zm0 0" fill="rgb(83.137256%, 35.686275%, 2.745098%)" fill-rule="evenodd"/></svg>