<svg role="img" viewBox="0 0 32 32" height="32" width="32" xmlns="http://www.w3.org/2000/svg"><path d="M6 26h20V6H6ZM30.668 8.668V7.332h-3.336v-2a.664.664 0 0 0-.664-.664h-2V1.332h-1.336v3.336h-2.664V1.332h-1.336v3.336h-2.664V1.332h-1.336v3.336h-2.664V1.332h-1.336v3.336H8.668V1.332H7.332v3.336h-2a.664.664 0 0 0-.664.664v2H1.332v1.336h3.336v2.664H1.332v1.336h3.336v2.664H1.332v1.336h3.336v2.664H1.332v1.336h3.336v2.664H1.332v1.336h3.336v2c0 .367.297.664.664.664h2v3.336h1.336v-3.336h2.664v3.336h1.336v-3.336h2.664v3.336h1.336v-3.336h2.664v3.336h1.336v-3.336h2.664v3.336h1.336v-3.336h2a.664.664 0 0 0 .664-.664v-2h3.336v-1.336h-3.336v-2.664h3.336v-1.336h-3.336v-2.664h3.336v-1.336h-3.336v-2.664h3.336v-1.336h-3.336V8.668Zm-6.695 9.816V15.79c0-.262-.055-.45-.16-.57-.106-.117-.278-.18-.512-.18-.352 0-.711.117-1.082.352v3.093h-.942v-4.07h.782l.097.45c.5-.38 1.024-.571 1.567-.571.39.004.687.105.89.309.203.207.305.503.305.89v2.992Zm-5.473-.656c.316 0 .621-.098.922-.3v-2.204a1.54 1.54 0 0 0-.906-.285c-.356 0-.621.113-.79.34-.167.226-.25.574-.25 1.043 0 .937.34 1.406 1.024 1.406m1.055.656-.094-.39c-.363.32-.781.48-1.258.48-.512 0-.922-.191-1.226-.57-.309-.383-.461-.899-.461-1.543 0-.426.07-.8.207-1.125.14-.328.34-.582.601-.766a1.58 1.58 0 0 1 .93-.277c.426 0 .812.14 1.168.418v-2.145h.941v5.918Zm-5.016-1.902v-2.441l-1.672 2.441Zm0 1.902v-1.148h-2.621v-.715l2.582-3.68h.992v3.641h.742v.754h-.742v1.148Zm-4.824-.726c.258 0 .508-.024.754-.07v-1.465H9.324v-.77h2.121v2.723c-.27.137-.558.234-.855.297a4.575 4.575 0 0 1-1.012.109c-.887 0-1.562-.242-2.027-.727-.465-.488-.7-1.187-.7-2.105 0-.934.239-1.648.72-2.148.48-.5 1.167-.747 2.066-.747.605 0 1.144.11 1.617.329v.773c-.563-.187-1.078-.277-1.55-.277-.63 0-1.099.16-1.403.476-.305.32-.457.82-.457 1.496v.168c0 .668.152 1.157.453 1.47.3.312.773.468 1.418.468m0 0" fill="rgb(83.137255%, 35.686275%, 2.745098%)" fill-rule="evenodd"/></svg>