<?xml version="1.0" encoding="UTF-8"?>
<svg xmlns="http://www.w3.org/2000/svg" xmlns:xlink="http://www.w3.org/1999/xlink" width="32" height="32" viewBox="0 0 32 32">
<path fill-rule="nonzero" fill="rgb(92.941176%, 44.313725%, 0%)" fill-opacity="1" d="M 0.203125 0.203125 L 31.796875 0.203125 L 31.796875 31.796875 L 0.203125 31.796875 Z M 0.203125 0.203125 "/>
<path fill-rule="nonzero" fill="rgb(100%, 100%, 100%)" fill-opacity="1" d="M 26.414062 19.4375 L 22.867188 17.308594 L 22.867188 12.246094 C 22.867188 12.085938 22.785156 11.941406 22.648438 11.859375 L 17.550781 8.886719 L 17.550781 4.601562 L 26.414062 9.839844 Z M 27.082031 9.203125 L 17.332031 3.441406 C 17.195312 3.363281 17.027344 3.363281 16.886719 3.4375 C 16.75 3.519531 16.664062 3.664062 16.664062 3.824219 L 16.664062 9.140625 C 16.664062 9.300781 16.75 9.445312 16.882812 9.527344 L 21.984375 12.5 L 21.984375 17.558594 C 21.984375 17.71875 22.0625 17.859375 22.199219 17.941406 L 26.628906 20.597656 C 26.765625 20.683594 26.9375 20.6875 27.074219 20.605469 C 27.210938 20.527344 27.292969 20.378906 27.296875 20.222656 L 27.296875 9.582031 C 27.296875 9.425781 27.214844 9.285156 27.082031 9.203125 M 15.976562 27.691406 L 5.585938 22.167969 L 5.585938 9.839844 L 14.449219 4.601562 L 14.449219 8.898438 L 9.78125 11.867188 C 9.652344 11.949219 9.574219 12.09375 9.574219 12.246094 L 9.574219 19.773438 C 9.574219 19.941406 9.667969 20.09375 9.816406 20.167969 L 15.773438 23.269531 C 15.902344 23.335938 16.058594 23.339844 16.183594 23.269531 L 21.964844 20.28125 L 25.523438 22.421875 Z M 26.640625 22.054688 L 22.210938 19.394531 C 22.078125 19.316406 21.914062 19.3125 21.777344 19.382812 L 15.980469 22.378906 L 10.460938 19.507812 L 10.460938 12.488281 L 15.128906 9.515625 C 15.257812 9.433594 15.335938 9.292969 15.335938 9.140625 L 15.335938 3.824219 C 15.335938 3.664062 15.25 3.519531 15.113281 3.4375 C 14.972656 3.363281 14.804688 3.363281 14.667969 3.441406 L 4.917969 9.203125 C 4.785156 9.285156 4.703125 9.425781 4.703125 9.582031 L 4.703125 22.4375 C 4.703125 22.597656 4.792969 22.75 4.9375 22.824219 L 15.773438 28.585938 C 15.835938 28.621094 15.90625 28.636719 15.980469 28.636719 C 16.050781 28.636719 16.125 28.617188 16.195312 28.582031 L 26.625 22.820312 C 26.761719 22.746094 26.851562 22.601562 26.855469 22.445312 C 26.855469 22.285156 26.777344 22.136719 26.640625 22.054688 M 26.640625 22.054688 "/>
</svg>
