<svg role="img" viewBox="0 0 32 32" height="32" width="32" xmlns="http://www.w3.org/2000/svg"><path d="M6 26h20V6H6ZM27.332 8.668v2.664h3.336v1.336h-3.336v2.664h3.336v1.336h-3.336v2.664h3.336v1.336h-3.336v2.664h3.336v1.336h-3.336v2a.664.664 0 0 1-.664.664h-2v3.336h-1.336v-3.336h-2.664v3.336h-1.336v-3.336h-2.664v3.336h-1.336v-3.336h-2.664v3.336h-1.336v-3.336H8.668v3.336H7.332v-3.336h-2a.664.664 0 0 1-.664-.664v-2H1.332v-1.336h3.336v-2.664H1.332v-1.336h3.336v-2.664H1.332v-1.336h3.336v-2.664H1.332v-1.336h3.336V8.668H1.332V7.332h3.336v-2c0-.367.297-.664.664-.664h2V1.332h1.336v3.336h2.664V1.332h1.336v3.336h2.664V1.332h1.336v3.336h2.664V1.332h1.336v3.336h2.664V1.332h1.336v3.336h2c.367 0 .664.297.664.664v2h3.336v1.336Zm-4.863 4.95c.203 0 .367-.056.484-.169.117-.11.176-.265.176-.465 0-.199-.059-.355-.176-.468a.706.706 0 0 0-.484-.168.697.697 0 0 0-.489.168c-.117.113-.175.27-.175.468 0 .2.058.356.175.465.122.114.282.168.489.168m-.551 5.535h1.102v-4.75h-1.102ZM17.5 16.418c.043 1.324.477 1.988 1.297 1.988.332 0 .594-.101.781-.308.192-.203.285-.493.285-.86 0-.37-.097-.656-.293-.851-.195-.2-.476-.297-.847-.297-.403 0-.809.11-1.223.328m-.535 2.082c-.395-.531-.594-1.312-.594-2.344 0-1.144.234-2.035.707-2.668.469-.636 1.129-.953 1.98-.953.27 0 .54.031.81.09.269.059.503.137.695.238v.813a3.442 3.442 0 0 0-.66-.184 3.394 3.394 0 0 0-.688-.07c-.559 0-.977.187-1.254.558-.273.375-.43.95-.461 1.727a2.84 2.84 0 0 1 1.57-.473c.578 0 1.043.176 1.395.528.351.351.527.816.527 1.402 0 .41-.09.777-.277 1.098-.18.32-.445.574-.793.754-.344.183-.746.277-1.207.277-.774 0-1.356-.266-1.75-.793m-6.977.652H8.941v-6.468h1.27l1.941 3.855 1.98-3.855h1.231v6.468H14.32V14.31l-1.683 3.218h-1.024l-1.625-3.199Zm0 0" fill="rgb(83.137255%, 35.686275%, 2.745098%)" fill-rule="evenodd"/></svg>