<svg role="img" viewBox="0 0 32 32" xmlns="http://www.w3.org/2000/svg"><path d="M18.902 19.387a4.3 4.3 0 0 1-1.754-.371v-.88q1.022.347 1.715.348c.442 0 .778-.101 1.016-.297q.358-.291.36-.835-.001-1.025-1.298-1.024-.417.001-.898.055v-.719l1.84-1.996h-2.64v-.887h3.855v.848l-1.942 1.906q.129-.012.258-.012.544.002.984.23.445.228.707.65c.172.277.262.6.262.96q0 .586-.3 1.043-.3.46-.856.719-.56.263-1.309.262m-7.453-.875q-.815-.852-.816-2.453c0-1.094.281-1.926.84-2.508q.835-.872 2.41-.871c.707 0 1.336.125 1.883.383v.902q-.979-.328-1.805-.328-1.105 0-1.637.562-.534.556-.535 1.746v.196q0 1.166.527 1.71.53.547 1.66.547.446 0 .876-.082v-1.71h-1.336v-.895h2.476v3.172q-.426.229-1 .351a5.4 5.4 0 0 1-1.18.125q-1.554.002-2.363-.847M6 26h20V6H6ZM30.668 8.668V7.332h-3.336v-2a.664.664 0 0 0-.664-.664h-2V1.332h-1.336v3.336h-2.664V1.332h-1.336v3.336h-2.664V1.332h-1.336v3.336h-2.664V1.332h-1.336v3.336H8.668V1.332H7.332v3.336h-2a.664.664 0 0 0-.664.664v2H1.332v1.336h3.336v2.664H1.332v1.336h3.336v2.664H1.332v1.336h3.336v2.664H1.332v1.336h3.336v2.664H1.332v1.336h3.336v2c0 .367.297.664.664.664h2v3.336h1.336v-3.336h2.664v3.336h1.336v-3.336h2.664v3.336h1.336v-3.336h2.664v3.336h1.336v-3.336h2.664v3.336h1.336v-3.336h2a.664.664 0 0 0 .664-.664v-2h3.336v-1.336h-3.336v-2.664h3.336v-1.336h-3.336v-2.664h3.336v-1.336h-3.336v-2.664h3.336v-1.336h-3.336V8.668Zm0 0" fill="rgb(83.137256%, 35.686275%, 2.745098%)" fill-rule="evenodd"/></svg>