<?xml version="1.0" encoding="UTF-8"?>
<svg xmlns="http://www.w3.org/2000/svg" xmlns:xlink="http://www.w3.org/1999/xlink" width="32" height="32" viewBox="0 0 32 32">
<path fill-rule="evenodd" fill="rgb(83.137255%, 35.686275%, 2.745098%)" fill-opacity="1" d="M 6 26 L 26 26 L 26 6 L 6 6 Z M 27.332031 8.667969 L 27.332031 11.332031 L 30.667969 11.332031 L 30.667969 12.667969 L 27.332031 12.667969 L 27.332031 15.332031 L 30.667969 15.332031 L 30.667969 16.667969 L 27.332031 16.667969 L 27.332031 19.332031 L 30.667969 19.332031 L 30.667969 20.667969 L 27.332031 20.667969 L 27.332031 23.332031 L 30.667969 23.332031 L 30.667969 24.667969 L 27.332031 24.667969 L 27.332031 26.667969 C 27.332031 27.035156 27.035156 27.332031 26.667969 27.332031 L 24.667969 27.332031 L 24.667969 30.667969 L 23.332031 30.667969 L 23.332031 27.332031 L 20.667969 27.332031 L 20.667969 30.667969 L 19.332031 30.667969 L 19.332031 27.332031 L 16.667969 27.332031 L 16.667969 30.667969 L 15.332031 30.667969 L 15.332031 27.332031 L 12.667969 27.332031 L 12.667969 30.667969 L 11.332031 30.667969 L 11.332031 27.332031 L 8.667969 27.332031 L 8.667969 30.667969 L 7.332031 30.667969 L 7.332031 27.332031 L 5.332031 27.332031 C 4.964844 27.332031 4.667969 27.035156 4.667969 26.667969 L 4.667969 24.667969 L 1.332031 24.667969 L 1.332031 23.332031 L 4.667969 23.332031 L 4.667969 20.667969 L 1.332031 20.667969 L 1.332031 19.332031 L 4.667969 19.332031 L 4.667969 16.667969 L 1.332031 16.667969 L 1.332031 15.332031 L 4.667969 15.332031 L 4.667969 12.667969 L 1.332031 12.667969 L 1.332031 11.332031 L 4.667969 11.332031 L 4.667969 8.667969 L 1.332031 8.667969 L 1.332031 7.332031 L 4.667969 7.332031 L 4.667969 5.332031 C 4.667969 4.964844 4.964844 4.667969 5.332031 4.667969 L 7.332031 4.667969 L 7.332031 1.332031 L 8.667969 1.332031 L 8.667969 4.667969 L 11.332031 4.667969 L 11.332031 1.332031 L 12.667969 1.332031 L 12.667969 4.667969 L 15.332031 4.667969 L 15.332031 1.332031 L 16.667969 1.332031 L 16.667969 4.667969 L 19.332031 4.667969 L 19.332031 1.332031 L 20.667969 1.332031 L 20.667969 4.667969 L 23.332031 4.667969 L 23.332031 1.332031 L 24.667969 1.332031 L 24.667969 4.667969 L 26.667969 4.667969 C 27.035156 4.667969 27.332031 4.964844 27.332031 5.332031 L 27.332031 7.332031 L 30.667969 7.332031 L 30.667969 8.667969 Z M 21.464844 15.78125 C 21.464844 16.824219 21.835938 17.347656 22.574219 17.347656 C 22.941406 17.347656 23.292969 17.226562 23.621094 16.984375 L 23.621094 14.597656 C 23.320312 14.378906 22.957031 14.261719 22.585938 14.261719 C 22.207031 14.261719 21.925781 14.382812 21.738281 14.632812 C 21.558594 14.878906 21.464844 15.265625 21.464844 15.78125 M 20.863281 17.546875 C 20.515625 17.117188 20.34375 16.539062 20.34375 15.820312 C 20.34375 15.347656 20.421875 14.929688 20.578125 14.5625 C 20.71875 14.21875 20.953125 13.925781 21.25 13.707031 C 21.554688 13.5 21.917969 13.394531 22.285156 13.402344 C 22.8125 13.398438 23.316406 13.601562 23.695312 13.96875 L 23.789062 13.542969 L 24.722656 13.542969 L 24.722656 17.964844 C 24.722656 18.714844 24.515625 19.296875 24.109375 19.710938 C 23.699219 20.121094 23.117188 20.324219 22.359375 20.324219 C 21.792969 20.328125 21.234375 20.195312 20.726562 19.941406 L 20.726562 19.160156 C 21.304688 19.351562 21.824219 19.449219 22.285156 19.449219 C 22.753906 19.449219 23.09375 19.34375 23.304688 19.125 C 23.515625 18.910156 23.621094 18.5625 23.621094 18.074219 L 23.621094 17.675781 C 23.242188 18.011719 22.753906 18.199219 22.25 18.199219 C 21.671875 18.199219 21.207031 17.980469 20.863281 17.546875 M 16.023438 15.558594 C 16.066406 16.882812 16.496094 17.542969 17.316406 17.542969 C 17.652344 17.542969 17.914062 17.441406 18.101562 17.234375 C 18.289062 17.03125 18.382812 16.746094 18.382812 16.378906 C 18.382812 16.003906 18.289062 15.71875 18.09375 15.523438 C 17.898438 15.328125 17.617188 15.230469 17.246094 15.230469 C 16.84375 15.230469 16.4375 15.339844 16.023438 15.558594 M 15.488281 17.636719 C 15.09375 17.109375 14.894531 16.328125 14.894531 15.292969 C 14.894531 14.15625 15.128906 13.265625 15.597656 12.625 C 16.070312 11.992188 16.730469 11.675781 17.582031 11.675781 C 17.847656 11.675781 18.117188 11.703125 18.390625 11.761719 C 18.660156 11.820312 18.890625 11.902344 19.085938 12 L 19.085938 12.8125 C 18.871094 12.734375 18.652344 12.671875 18.425781 12.628906 C 18.199219 12.589844 17.96875 12.566406 17.738281 12.5625 C 17.179688 12.5625 16.761719 12.746094 16.484375 13.121094 C 16.207031 13.492188 16.054688 14.070312 16.023438 14.847656 C 16.492188 14.542969 17.035156 14.375 17.59375 14.371094 C 18.171875 14.371094 18.636719 14.546875 18.988281 14.898438 C 19.339844 15.25 19.515625 15.71875 19.515625 16.300781 C 19.515625 16.714844 19.421875 17.078125 19.238281 17.402344 C 19.054688 17.726562 18.777344 17.988281 18.445312 18.15625 C 18.070312 18.347656 17.65625 18.441406 17.238281 18.429688 C 16.464844 18.433594 15.882812 18.167969 15.488281 17.636719 M 8.324219 18.292969 L 7.277344 18.292969 L 7.277344 11.824219 L 8.546875 11.824219 L 10.488281 15.679688 L 12.46875 11.824219 L 13.699219 11.824219 L 13.699219 18.292969 L 12.652344 18.292969 L 12.652344 13.449219 L 10.972656 16.667969 L 9.949219 16.667969 L 8.324219 13.464844 Z M 8.324219 18.292969 "/>
</svg>
