<svg role="img" viewBox="0 0 32 32" height="32" width="32" xmlns="http://www.w3.org/2000/svg"><path d="M20.715 14.875c.183-.25.465-.375.844-.375.367 0 .71.11 1.035.336v2.387a1.712 1.712 0 0 1-1.043.367c-.742 0-1.113-.524-1.113-1.57 0-.516.093-.899.277-1.145m.508 3.563c.507.003.996-.184 1.37-.524v.402c0 .485-.105.836-.316 1.051-.21.215-.55.32-1.02.32-.456 0-.976-.097-1.558-.289v.786a3.647 3.647 0 0 0 1.633.382c.758 0 1.34-.207 1.75-.617.41-.41.613-.992.613-1.746v-4.422h-.933l-.094.43a1.981 1.981 0 0 0-1.41-.57 1.75 1.75 0 0 0-1.035.308 1.93 1.93 0 0 0-.672.856 3.072 3.072 0 0 0-.235 1.254c0 .722.176 1.3.52 1.73.344.434.809.648 1.387.648m-5.004-2.968c.37 0 .652.097.847.297.196.195.293.48.293.851 0 .367-.097.653-.285.86-.187.207-.449.308-.785.308-.816 0-1.25-.664-1.293-1.988.414-.219.82-.328 1.223-.328m-.008 3.203c.46 0 .863-.09 1.207-.277.348-.18.61-.434.793-.754.184-.32.277-.688.277-1.098 0-.582-.175-1.05-.527-1.406-.352-.352-.816-.528-1.395-.528-.554 0-1.078.16-1.57.477.031-.777.184-1.352.461-1.727.277-.37.695-.558 1.254-.558.21 0 .437.023.687.07.25.047.47.106.66.184v-.813a2.711 2.711 0 0 0-.695-.238 3.744 3.744 0 0 0-.808-.09c-.852 0-1.512.316-1.985.953-.468.633-.703 1.524-.703 2.668 0 1.035.2 1.817.594 2.344.394.527.976.793 1.75.793m-7.117-.848c-.528-.55-.79-1.36-.79-2.43 0-1.101.274-1.949.817-2.542.547-.594 1.328-.891 2.348-.891.558 0 1.074.086 1.55.254v.93c-.62-.13-1.109-.196-1.46-.196-.707 0-1.235.184-1.579.551-.343.367-.52.934-.52 1.7v.222c0 .762.173 1.324.517 1.687.34.364.863.547 1.562.547.395 0 .922-.078 1.574-.234v.933c-.492.192-1.054.29-1.683.29-1.032 0-1.813-.278-2.336-.82M6 26h20V6H6ZM30.668 8.668V7.332h-3.336v-2a.664.664 0 0 0-.664-.664h-2V1.332h-1.336v3.336h-2.664V1.332h-1.336v3.336h-2.664V1.332h-1.336v3.336h-2.664V1.332h-1.336v3.336H8.668V1.332H7.332v3.336h-2a.664.664 0 0 0-.664.664v2H1.332v1.336h3.336v2.664H1.332v1.336h3.336v2.664H1.332v1.336h3.336v2.664H1.332v1.336h3.336v2.664H1.332v1.336h3.336v2c0 .367.297.664.664.664h2v3.336h1.336v-3.336h2.664v3.336h1.336v-3.336h2.664v3.336h1.336v-3.336h2.664v3.336h1.336v-3.336h2.664v3.336h1.336v-3.336h2a.664.664 0 0 0 .664-.664v-2h3.336v-1.336h-3.336v-2.664h3.336v-1.336h-3.336v-2.664h3.336v-1.336h-3.336v-2.664h3.336v-1.336h-3.336V8.668Zm0 0" fill="rgb(83.137255%, 35.686275%, 2.745098%)" fill-rule="evenodd"/></svg>