<svg role="img" viewBox="0 0 32 32" xmlns="http://www.w3.org/2000/svg"><path d="M18.512 19.34a4.4 4.4 0 0 1-1.793-.375v-.875c.68.23 1.27.344 1.761.344q1.383.002 1.383-1.192c0-.387-.113-.668-.347-.847-.23-.176-.602-.266-1.106-.266q-.567 0-1.422.094v-.707l.18-2.782h3.508v.887h-2.469l-.105 1.727q.38-.077.808-.078.972 0 1.527.523.556.522.555 1.43.002.97-.672 1.543-.67.574-1.808.574m-6.715-.848q-.79-.826-.79-2.426.001-1.651.817-2.546.816-.891 2.348-.891a4.6 4.6 0 0 1 1.547.254v.933c-.617-.132-1.106-.195-1.457-.195-.707 0-1.235.18-1.578.55-.348.368-.52.93-.52 1.696v.227q.001 1.138.512 1.683.517.547 1.566.547.594 0 1.574-.234v.933q-.739.289-1.683.29c-1.031 0-1.813-.274-2.336-.82M6 26h20V6H6ZM30.668 8.668V7.332h-3.336v-2a.664.664 0 0 0-.664-.664h-2V1.332h-1.336v3.336h-2.664V1.332h-1.336v3.336h-2.664V1.332h-1.336v3.336h-2.664V1.332h-1.336v3.336H8.668V1.332H7.332v3.336h-2a.664.664 0 0 0-.664.664v2H1.332v1.336h3.336v2.664H1.332v1.336h3.336v2.664H1.332v1.336h3.336v2.664H1.332v1.336h3.336v2.664H1.332v1.336h3.336v2c0 .367.297.664.664.664h2v3.336h1.336v-3.336h2.664v3.336h1.336v-3.336h2.664v3.336h1.336v-3.336h2.664v3.336h1.336v-3.336h2.664v3.336h1.336v-3.336h2a.664.664 0 0 0 .664-.664v-2h3.336v-1.336h-3.336v-2.664h3.336v-1.336h-3.336v-2.664h3.336v-1.336h-3.336v-2.664h3.336v-1.336h-3.336V8.668Zm0 0" fill="rgb(83.137256%, 35.686275%, 2.745098%)" fill-rule="evenodd"/></svg>