<svg role="img" viewBox="0 0 32 32" height="32" width="32" xmlns="http://www.w3.org/2000/svg"><path d="M.203.203h32v32h-32Zm0 0" fill="rgb(100%, 100%, 100%)"/><path d="M.203.203h31.594v31.594H.203Zm0 0" fill="rgb(54.901961%, 30.980392%, 100%)"/><path d="M13.324 23.059h1.324v-.907h-1.324Zm2.227 0h1.351v-.907h-1.351ZM10.14 4.57 4.273 7.48v18.086l5.868 1.985Zm.898 5.754v11.828h1.352v.907h-1.352v5.125c0 .148-.07.285-.187.37a.457.457 0 0 1-.407.06l-6.761-2.286a.449.449 0 0 1-.309-.433V7.199c0-.176.098-.332.25-.41l6.766-3.36a.456.456 0 0 1 .648.41v5.579h1.352v.906ZM17.8 23.059h1.355v-.907H17.8Zm.035-12.735h1.32v-.906h-1.32Zm-2.258 0h1.324v-.906h-1.324Zm-2.254 0h1.324v-.906h-1.324ZM27.727 7.48l-5.868-2.91v22.98l5.868-1.984Zm.898 18.415a.449.449 0 0 1-.309.433l-6.761 2.285a.47.47 0 0 1-.407-.058.459.459 0 0 1-.187-.371v-5.125h-.875v-.907h.875V10.324h-.875v-.906h.875V3.84c0-.156.082-.305.21-.383a.448.448 0 0 1 .438-.027l6.766 3.36c.152.077.25.233.25.41Zm-11.3-12.676-.845-.324-2.253 5.91.84.328Zm3.054 2.886a.46.46 0 0 0 0-.644l-1.809-1.82-.633.644 1.485 1.5-1.485 1.496.633.645Zm-6.95 1.82-1.808-1.82a.46.46 0 0 1 0-.644l1.809-1.82.633.644-1.485 1.5 1.485 1.496Zm0 0" fill="rgb(100%, 100%, 100%)"/></svg>