<?xml version="1.0" encoding="UTF-8"?>
<svg xmlns="http://www.w3.org/2000/svg" xmlns:xlink="http://www.w3.org/1999/xlink" width="49.919998" height="32" viewBox="0 0 49.919998 32">
<path fill-rule="nonzero" fill="rgb(86.666667%, 20.392157%, 29.803922%)" fill-opacity="1" d="M 14.90625 27.429688 C 19.46875 27.429688 23.496094 24.679688 25.171875 20.511719 L 43.007812 20.511719 C 43.335938 20.511719 43.648438 20.363281 43.867188 20.113281 L 46.457031 17.089844 C 46.859375 16.617188 46.808594 15.910156 46.34375 15.5 L 42.886719 12.472656 C 42.679688 12.292969 42.414062 12.191406 42.136719 12.191406 L 40.011719 12.191406 L 37.753906 9.933594 C 37.3125 9.492188 36.59375 9.492188 36.152344 9.933594 L 33.886719 12.191406 L 33.101562 12.191406 L 30.835938 9.933594 C 30.394531 9.492188 29.675781 9.492188 29.234375 9.933594 L 26.96875 12.191406 L 25.171875 12.191406 C 23.5 7.992188 19.425781 5.246094 14.90625 5.273438 C 8.800781 5.273438 3.828125 10.246094 3.828125 16.351562 C 3.828125 22.457031 8.800781 27.429688 14.90625 27.429688 M 14.90625 7.539062 C 18.742188 7.527344 22.140625 10.007812 23.296875 13.664062 C 23.441406 14.136719 23.878906 14.457031 24.371094 14.457031 L 27.441406 14.457031 C 27.742188 14.457031 28.03125 14.335938 28.242188 14.125 L 30.035156 12.332031 L 31.828125 14.125 C 32.039062 14.335938 32.328125 14.457031 32.628906 14.457031 L 34.363281 14.457031 C 34.664062 14.457031 34.945312 14.335938 35.160156 14.125 L 36.953125 12.332031 L 38.746094 14.125 C 38.957031 14.335938 39.246094 14.457031 39.546875 14.457031 L 41.714844 14.457031 L 44.007812 16.46875 L 42.484375 18.246094 L 24.371094 18.246094 C 23.878906 18.246094 23.441406 18.566406 23.296875 19.035156 C 22.140625 22.691406 18.742188 25.171875 14.90625 25.164062 C 10.046875 25.164062 6.09375 21.210938 6.09375 16.351562 C 6.09375 11.496094 10.046875 7.539062 14.90625 7.539062 M 11.878906 20.511719 C 14.175781 20.507812 16.035156 18.648438 16.039062 16.351562 C 16.035156 14.054688 14.175781 12.195312 11.878906 12.191406 C 9.585938 12.203125 7.730469 14.058594 7.71875 16.351562 C 7.730469 18.644531 9.585938 20.5 11.878906 20.511719 M 11.878906 14.457031 C 12.921875 14.457031 13.773438 15.308594 13.773438 16.351562 C 13.773438 17.394531 12.925781 18.242188 11.878906 18.246094 C 10.835938 18.238281 9.992188 17.394531 9.984375 16.351562 C 9.988281 15.308594 10.835938 14.460938 11.878906 14.457031 M 49.070312 0.320312 L 1.492188 0.320312 C 0.871094 0.320312 0.359375 0.824219 0.359375 1.453125 L 0.359375 31.1875 C 0.359375 31.8125 0.871094 32.320312 1.492188 32.320312 L 49.070312 32.320312 C 49.695312 32.320312 50.203125 31.8125 50.203125 31.1875 L 50.203125 1.453125 C 50.203125 1.152344 50.085938 0.863281 49.871094 0.652344 C 49.660156 0.4375 49.371094 0.320312 49.070312 0.320312 M 2.625 30.054688 L 2.625 2.585938 L 47.9375 2.585938 L 47.9375 30.054688 Z M 2.625 30.054688 "/>
</svg>
