<svg role="img" viewBox="0 0 32 32" xmlns="http://www.w3.org/2000/svg"><path d="M6 26h20V6H6ZM27.332 8.668v2.664h3.336v1.336h-3.336v2.664h3.336v1.336h-3.336v2.664h3.336v1.336h-3.336v2.664h3.336v1.336h-3.336v2a.664.664 0 0 1-.664.664h-2v3.336h-1.336v-3.336h-2.664v3.336h-1.336v-3.336h-2.664v3.336h-1.336v-3.336h-2.664v3.336h-1.336v-3.336H8.668v3.336H7.332v-3.336h-2a.664.664 0 0 1-.664-.664v-2H1.332v-1.336h3.336v-2.664H1.332v-1.336h3.336v-2.664H1.332v-1.336h3.336v-2.664H1.332v-1.336h3.336V8.668H1.332V7.332h3.336v-2c0-.367.297-.664.664-.664h2V1.332h1.336v3.336h2.664V1.332h1.336v3.336h2.664V1.332h1.336v3.336h2.664V1.332h1.336v3.336h2.664V1.332h1.336v3.336h2c.367 0 .664.297.664.664v2h3.336v1.336ZM22.75 18.59q.767-.001 1.316-.29v-.777a3.7 3.7 0 0 1-1.101.188q-.698-.001-1.031-.371-.331-.375-.332-1.16v-.121q.002-.791.332-1.172.333-.375 1.03-.375.441 0 1.067.175v-.773a2.74 2.74 0 0 0-1.242-.281q-1.09-.002-1.7.664-.606.66-.605 1.855 0 1.168.586 1.801.591.638 1.68.637m-4.187-2.094a4.4 4.4 0 0 0-.856-.101q-.95 0-.95.757.001.328.184.508.184.183.5.184.263 0 .555-.117t.567-.332Zm0-.652v-.551q0-.473-.208-.66-.204-.188-.718-.188-.728 0-1.672.309v-.777q.353-.177.86-.278.508-.105 1.023-.105.931 0 1.37.375c.298.25.442.636.442 1.168v3.347h-.96l-.083-.457q-.329.282-.722.442a2.1 2.1 0 0 1-.79.156q-.655 0-1.058-.39c-.274-.262-.406-.602-.406-1.02q-.001-.686.496-1.098.503-.415 1.34-.414c.332 0 .691.047 1.085.14m-9.235 2.64H8.285V12.02h1.27l1.941 3.851 1.977-3.851h1.234v6.464H13.66v-4.843l-1.68 3.222h-1.027L9.328 13.66Zm0 0" fill="rgb(83.137256%, 35.686275%, 2.745098%)" fill-rule="evenodd"/></svg>