<svg role="img" viewBox="0 0 32 32" height="32" width="32" xmlns="http://www.w3.org/2000/svg"><path d="M6 26h20V6H6ZM30.668 8.668V7.332h-3.336v-2a.664.664 0 0 0-.664-.664h-2V1.332h-1.336v3.336h-2.664V1.332h-1.336v3.336h-2.664V1.332h-1.336v3.336h-2.664V1.332h-1.336v3.336H8.668V1.332H7.332v3.336h-2a.664.664 0 0 0-.664.664v2H1.332v1.336h3.336v2.664H1.332v1.336h3.336v2.664H1.332v1.336h3.336v2.664H1.332v1.336h3.336v2.664H1.332v1.336h3.336v2c0 .367.297.664.664.664h2v3.336h1.336v-3.336h2.664v3.336h1.336v-3.336h2.664v3.336h1.336v-3.336h2.664v3.336h1.336v-3.336h2.664v3.336h1.336v-3.336h2a.664.664 0 0 0 .664-.664v-2h3.336v-1.336h-3.336v-2.664h3.336v-1.336h-3.336v-2.664h3.336v-1.336h-3.336v-2.664h3.336v-1.336h-3.336V8.668Zm-12 10.805c-.605 0-1.2-.13-1.754-.371v-.88c.68.231 1.25.344 1.715.344.441 0 .777-.097 1.016-.293.238-.195.359-.472.359-.835 0-.684-.434-1.028-1.297-1.028-.277 0-.578.02-.898.059v-.719l1.84-1.996h-2.641v-.887h3.855v.848l-1.941 1.902a5.68 5.68 0 0 1 .258-.008c.363 0 .691.075.984.23.297.153.531.368.707.65.172.277.262.597.262.96 0 .39-.102.738-.301 1.043-.2.305-.484.547-.855.719-.375.176-.813.262-1.309.262m-6.664-1.035v-4.676h.941c1.29 0 1.934.742 1.934 2.23v.207c0 1.492-.645 2.238-1.934 2.238Zm3.262.054c.515-.558.77-1.363.77-2.406 0-1.04-.255-1.836-.759-2.39-.507-.551-1.242-.829-2.199-.829h-2.21v6.465h2.202c.95 0 1.684-.277 2.196-.84m0 0" fill="rgb(83.137255%, 35.686275%, 2.745098%)" fill-rule="evenodd"/></svg>