<?xml version="1.0" encoding="UTF-8"?>
<svg xmlns="http://www.w3.org/2000/svg" xmlns:xlink="http://www.w3.org/1999/xlink" width="32" height="32" viewBox="0 0 32 32">
<path fill-rule="evenodd" fill="rgb(83.137255%, 35.686275%, 2.745098%)" fill-opacity="1" d="M 6 26 L 26 26 L 26 6 L 6 6 Z M 27.332031 8.667969 L 27.332031 11.332031 L 30.667969 11.332031 L 30.667969 12.667969 L 27.332031 12.667969 L 27.332031 15.332031 L 30.667969 15.332031 L 30.667969 16.667969 L 27.332031 16.667969 L 27.332031 19.332031 L 30.667969 19.332031 L 30.667969 20.667969 L 27.332031 20.667969 L 27.332031 23.332031 L 30.667969 23.332031 L 30.667969 24.667969 L 27.332031 24.667969 L 27.332031 26.667969 C 27.332031 27.035156 27.035156 27.332031 26.667969 27.332031 L 24.667969 27.332031 L 24.667969 30.667969 L 23.332031 30.667969 L 23.332031 27.332031 L 20.667969 27.332031 L 20.667969 30.667969 L 19.332031 30.667969 L 19.332031 27.332031 L 16.667969 27.332031 L 16.667969 30.667969 L 15.332031 30.667969 L 15.332031 27.332031 L 12.667969 27.332031 L 12.667969 30.667969 L 11.332031 30.667969 L 11.332031 27.332031 L 8.667969 27.332031 L 8.667969 30.667969 L 7.332031 30.667969 L 7.332031 27.332031 L 5.332031 27.332031 C 4.964844 27.332031 4.667969 27.035156 4.667969 26.667969 L 4.667969 24.667969 L 1.332031 24.667969 L 1.332031 23.332031 L 4.667969 23.332031 L 4.667969 20.667969 L 1.332031 20.667969 L 1.332031 19.332031 L 4.667969 19.332031 L 4.667969 16.667969 L 1.332031 16.667969 L 1.332031 15.332031 L 4.667969 15.332031 L 4.667969 12.667969 L 1.332031 12.667969 L 1.332031 11.332031 L 4.667969 11.332031 L 4.667969 8.667969 L 1.332031 8.667969 L 1.332031 7.332031 L 4.667969 7.332031 L 4.667969 5.332031 C 4.667969 4.964844 4.964844 4.667969 5.332031 4.667969 L 7.332031 4.667969 L 7.332031 1.332031 L 8.667969 1.332031 L 8.667969 4.667969 L 11.332031 4.667969 L 11.332031 1.332031 L 12.667969 1.332031 L 12.667969 4.667969 L 15.332031 4.667969 L 15.332031 1.332031 L 16.667969 1.332031 L 16.667969 4.667969 L 19.332031 4.667969 L 19.332031 1.332031 L 20.667969 1.332031 L 20.667969 4.667969 L 23.332031 4.667969 L 23.332031 1.332031 L 24.667969 1.332031 L 24.667969 4.667969 L 26.667969 4.667969 C 27.035156 4.667969 27.332031 4.964844 27.332031 5.332031 L 27.332031 7.332031 L 30.667969 7.332031 L 30.667969 8.667969 Z M 21.519531 16.421875 C 21.519531 17.359375 21.863281 17.828125 22.542969 17.828125 C 22.859375 17.828125 23.164062 17.730469 23.464844 17.527344 L 23.464844 15.324219 C 23.199219 15.136719 22.882812 15.035156 22.558594 15.039062 C 22.203125 15.039062 21.941406 15.152344 21.773438 15.378906 C 21.605469 15.605469 21.519531 15.953125 21.519531 16.421875 M 21.019531 18.003906 C 20.714844 17.621094 20.558594 17.105469 20.558594 16.460938 C 20.558594 16.035156 20.628906 15.660156 20.769531 15.335938 C 20.90625 15.007812 21.105469 14.753906 21.367188 14.570312 C 21.628906 14.386719 21.9375 14.292969 22.296875 14.292969 C 22.722656 14.292969 23.113281 14.433594 23.464844 14.710938 L 23.464844 12.566406 L 24.40625 12.566406 L 24.40625 18.484375 L 23.601562 18.484375 L 23.503906 18.09375 C 23.140625 18.414062 22.722656 18.574219 22.246094 18.574219 C 21.734375 18.574219 21.328125 18.382812 21.019531 18.003906 M 18.910156 16.78125 C 18.671875 16.726562 18.425781 16.699219 18.179688 16.695312 C 17.636719 16.695312 17.367188 16.910156 17.367188 17.34375 C 17.367188 17.527344 17.421875 17.675781 17.523438 17.777344 C 17.628906 17.882812 17.769531 17.933594 17.953125 17.933594 C 18.105469 17.933594 18.261719 17.902344 18.429688 17.835938 C 18.59375 17.765625 18.757812 17.671875 18.910156 17.550781 Z M 18.910156 16.222656 L 18.910156 15.75 C 18.910156 15.476562 18.851562 15.289062 18.734375 15.183594 C 18.617188 15.074219 18.414062 15.023438 18.121094 15.023438 C 17.703125 15.023438 17.226562 15.109375 16.6875 15.285156 L 16.6875 14.621094 C 16.886719 14.519531 17.132812 14.441406 17.425781 14.382812 C 17.714844 14.324219 18.007812 14.292969 18.300781 14.292969 C 18.832031 14.292969 19.226562 14.402344 19.476562 14.613281 C 19.730469 14.828125 19.855469 15.160156 19.855469 15.613281 L 19.855469 18.484375 L 19.03125 18.484375 L 18.960938 18.09375 C 18.773438 18.253906 18.566406 18.378906 18.339844 18.46875 C 18.125 18.558594 17.894531 18.605469 17.664062 18.605469 C 17.289062 18.605469 16.988281 18.492188 16.757812 18.269531 C 16.523438 18.046875 16.40625 17.753906 16.40625 17.398438 C 16.40625 17.003906 16.550781 16.6875 16.835938 16.453125 C 17.121094 16.21875 17.503906 16.101562 17.984375 16.101562 C 18.265625 16.101562 18.574219 16.140625 18.910156 16.222656 M 15.160156 18.113281 C 15.542969 17.785156 15.734375 17.34375 15.734375 16.789062 C 15.734375 16.269531 15.578125 15.863281 15.257812 15.566406 C 14.941406 15.265625 14.503906 15.117188 13.949219 15.117188 C 13.71875 15.117188 13.484375 15.136719 13.257812 15.183594 L 13.347656 13.703125 L 15.464844 13.703125 L 15.464844 12.941406 L 12.457031 12.941406 L 12.304688 15.324219 L 12.304688 15.933594 C 12.792969 15.878906 13.195312 15.855469 13.519531 15.855469 C 13.953125 15.855469 14.269531 15.929688 14.46875 16.082031 C 14.667969 16.234375 14.769531 16.476562 14.769531 16.804688 C 14.769531 17.488281 14.375 17.828125 13.582031 17.828125 C 13.160156 17.828125 12.65625 17.730469 12.070312 17.535156 L 12.070312 18.285156 C 12.5625 18.496094 13.074219 18.605469 13.609375 18.605469 C 14.257812 18.605469 14.777344 18.441406 15.160156 18.113281 M 8.011719 17.878906 C 7.5625 17.410156 7.335938 16.714844 7.335938 15.796875 C 7.335938 14.855469 7.570312 14.128906 8.035156 13.617188 C 8.503906 13.109375 9.171875 12.855469 10.046875 12.855469 C 10.527344 12.855469 10.972656 12.925781 11.375 13.070312 L 11.375 13.871094 C 10.84375 13.757812 10.425781 13.703125 10.125 13.703125 C 9.519531 13.703125 9.066406 13.859375 8.773438 14.175781 C 8.476562 14.488281 8.328125 14.972656 8.328125 15.628906 L 8.328125 15.820312 C 8.328125 16.472656 8.476562 16.953125 8.765625 17.265625 C 9.0625 17.578125 9.507812 17.734375 10.109375 17.734375 C 10.449219 17.734375 10.898438 17.667969 11.457031 17.535156 L 11.457031 18.335938 C 10.996094 18.503906 10.507812 18.589844 10.015625 18.582031 C 9.128906 18.582031 8.460938 18.347656 8.011719 17.878906 M 8.011719 17.878906 "/>
</svg>
