<svg role="img" viewBox="0 0 56.727 32" xmlns="http://www.w3.org/2000/svg"><path d="M55.816 21.52a2.2 2.2 0 0 0-.625-.38C53.875 9.41 43.883.364 31.957.364A23.44 23.44 0 0 0 17.18 5.621a23.31 23.31 0 0 0-8.63 18.145c0 .05.009.109.009.16-.844.422-1.73.824-2.618 1.207-2.691 1.18-4.632 2.031-4.921 3.566-.075.383-.083 1.149.652 1.89 1.308 1.31 3.82 1.774 6.363 1.774a22 22 0 0 0 3.113-.218c1.688-.223 4.836-.844 6.977-2.407 3.375-2.449 11.004-3.36 14.973-3.054 2.37.183 5.238 1.425 7.543 2.421 1.757.77 3.148 1.368 4.238 1.528 1.5.203 3.95-.051 6.547-.313l.219-.023q1-.105 2-.188c.277-.03.539-.05.902-.074a2.126 2.126 0 0 0 1.969-2.113v-4.824c0-.602-.254-1.176-.7-1.578M31.957 2.879c10.543 0 19.395 7.937 20.7 18.262-.368.03-.743.066-1.153.101l-.23.024a2.143 2.143 0 0 0-2.141-2.086h-.895C45.461 11.02 37.434 5.39 28.344 5.39c-3.371 0-6.672.77-9.633 2.239.023-.024.047-.035.059-.05a20.9 20.9 0 0 1 13.187-4.7M44.91 23.418v-1.723h3.848v1.723Zm-34.094 6.234c-3.34.457-5.98.051-7.07-.625.66-.468 2.16-1.12 3.207-1.578q1.377-.597 2.719-1.265c1.457 1.105 3.258 1.933 5.25 2.425-1.156.47-2.578.832-4.106 1.043M54 27.551q-.293.017-.582.05c-.656.051-1.344.114-2.043.188l-.21.023c-2.22.231-4.743.485-5.935.325-.75-.11-2.132-.703-3.593-1.336-2.473-1.078-5.559-2.414-8.344-2.625-3.84-.301-10.473.43-14.742 2.43-2.473-.11-4.77-.782-6.543-1.88q-.011-.405-.016-.812c0-5.207 2.438-10.098 6.7-13.418a19.2 19.2 0 0 1 9.652-2.582c7.707 0 14.55 4.55 17.219 11.266h-1.024a2.144 2.144 0 0 0-2.094 1.687c-.175-.066-.336-.125-.52-.199-2.558-.988-6.062-2.332-10.112-2.094-5.93.348-8.844.707-11.145 1.36l.691 2.421c2.102-.601 4.875-.93 10.598-1.273 3.504-.195 6.719 1.035 9.063 1.938.492.187.945.363 1.375.507v.262c0 1.184.957 2.145 2.144 2.145h4.594c1.18 0 2.14-.961 2.148-2.137l.442-.043c.75-.067 1.433-.133 2.007-.192l.27-.019Zm0 0" fill="rgb(86.666667%, 20.392157%, 29.803923%)"/></svg>