<svg role="img" viewBox="0 0 32 32" xmlns="http://www.w3.org/2000/svg"><path d="M6 26h20V6H6ZM27.332 8.668v2.664h3.336v1.336h-3.336v2.664h3.336v1.336h-3.336v2.664h3.336v1.336h-3.336v2.664h3.336v1.336h-3.336v2a.664.664 0 0 1-.664.664h-2v3.336h-1.336v-3.336h-2.664v3.336h-1.336v-3.336h-2.664v3.336h-1.336v-3.336h-2.664v3.336h-1.336v-3.336H8.668v3.336H7.332v-3.336h-2a.664.664 0 0 1-.664-.664v-2H1.332v-1.336h3.336v-2.664H1.332v-1.336h3.336v-2.664H1.332v-1.336h3.336v-2.664H1.332v-1.336h3.336V8.668H1.332V7.332h3.336v-2c0-.367.297-.664.664-.664h2V1.332h1.336v3.336h2.664V1.332h1.336v3.336h2.664V1.332h1.336v3.336h2.664V1.332h1.336v3.336h2.664V1.332h1.336v3.336h2c.367 0 .664.297.664.664v2h3.336v1.336Zm-5.867 7.113q0 1.566 1.11 1.567c.366 0 .718-.121 1.046-.364v-2.386a1.77 1.77 0 0 0-1.035-.336c-.379 0-.66.12-.848.37-.18.247-.273.634-.273 1.15m-.602 1.766q-.52-.647-.52-1.727 0-.71.235-1.258a1.97 1.97 0 0 1 .672-.855 1.77 1.77 0 0 1 1.035-.305q.814 0 1.41.567l.094-.426h.934v4.422q-.002 1.125-.614 1.746-.614.614-1.75.613a3.6 3.6 0 0 1-1.632-.383v-.78q.867.287 1.558.288c.469 0 .809-.105 1.02-.324.21-.215.316-.562.316-1.05v-.4a2.06 2.06 0 0 1-1.371.524c-.578 0-1.043-.219-1.387-.652m-4.84-1.988q.064 1.985 1.293 1.984.504 0 .786-.309.28-.304.28-.855c0-.375-.093-.66-.288-.856q-.293-.293-.848-.293-.602 0-1.223.329m-.535 2.078q-.592-.792-.593-2.344 0-1.711.703-2.668.707-.95 1.984-.95.398 0 .809.087c.27.058.5.14.695.238v.813a4 4 0 0 0-.66-.184 4 4 0 0 0-.688-.066c-.558 0-.976.183-1.254.558-.277.371-.43.95-.46 1.727a2.86 2.86 0 0 1 1.57-.477q.867 0 1.394.527.528.528.528 1.403c0 .414-.094.777-.278 1.101q-.273.477-.793.754-.515.275-1.207.274-1.158.002-1.75-.793m-7.164.656H7.277v-6.469h1.27l1.941 3.856 1.98-3.856H13.7v6.469h-1.047V13.45l-1.68 3.219H9.95l-1.625-3.203Zm0 0" fill="rgb(83.137256%, 35.686275%, 2.745098%)" fill-rule="evenodd"/></svg>