<svg role="img" viewBox="0 0 32 32" height="32" width="32" xmlns="http://www.w3.org/2000/svg"><path d="M6 26h20V6H6ZM27.332 8.668v2.664h3.336v1.336h-3.336v2.664h3.336v1.336h-3.336v2.664h3.336v1.336h-3.336v2.664h3.336v1.336h-3.336v2a.664.664 0 0 1-.664.664h-2v3.336h-1.336v-3.336h-2.664v3.336h-1.336v-3.336h-2.664v3.336h-1.336v-3.336h-2.664v3.336h-1.336v-3.336H8.668v3.336H7.332v-3.336h-2a.664.664 0 0 1-.664-.664v-2H1.332v-1.336h3.336v-2.664H1.332v-1.336h3.336v-2.664H1.332v-1.336h3.336v-2.664H1.332v-1.336h3.336V8.668H1.332V7.332h3.336v-2c0-.367.297-.664.664-.664h2V1.332h1.336v3.336h2.664V1.332h1.336v3.336h2.664V1.332h1.336v3.336h2.664V1.332h1.336v3.336h2.664V1.332h1.336v3.336h2c.367 0 .664.297.664.664v2h3.336v1.336Zm-7.21 6.98c.335-.214.667-.324.991-.324.211 0 .371.055.469.164.098.114.145.285.145.528v2.468h.867v-2.742c0-.355-.094-.629-.282-.816-.183-.188-.457-.281-.812-.281-.5 0-.977.171-1.437.52l-.086-.411h-.72v3.73h.864Zm-3.938.602h1.605v-.059c0-.296-.062-.527-.184-.683-.125-.156-.304-.235-.539-.235-.25 0-.453.09-.613.266-.156.176-.246.414-.27.711m-.402 1.848c-.32-.332-.48-.817-.476-1.453 0-.63.152-1.122.465-1.473.308-.352.742-.527 1.3-.527.48 0 .848.128 1.106.39.254.262.383.633.383 1.113 0 .254-.024.48-.063.68h-2.312c.011.371.113.645.3.82.184.172.473.258.86.258.386-.008.77-.074 1.136-.203v.606c-.168.09-.363.16-.593.21a3.232 3.232 0 0 1-.707.079c-.617 0-1.082-.168-1.399-.5m-2.105.293c.293-.137.515-.325.672-.567.16-.238.238-.512.238-.82a1.389 1.389 0 0 0-.762-1.266 1.656 1.656 0 0 0-.773-.18c-.07 0-.137.005-.203.008l1.523-1.496v-.668h-3.027v.7h2.074l-1.445 1.57v.562a6.73 6.73 0 0 1 .707-.043c.68 0 1.02.27 1.02.805 0 .285-.098.504-.282.656-.188.157-.453.23-.8.23-.364 0-.813-.089-1.348-.269v.688c.449.195.91.297 1.378.297.391 0 .735-.07 1.028-.207m-4.238.093h.894v-5.082h-.895Zm0 0" fill="rgb(83.137255%, 35.686275%, 2.745098%)" fill-rule="evenodd"/></svg>