<?xml version="1.0" encoding="UTF-8"?>
<svg xmlns="http://www.w3.org/2000/svg" xmlns:xlink="http://www.w3.org/1999/xlink" width="32" height="32" viewBox="0 0 32 32">
<path fill-rule="nonzero" fill="rgb(100%, 100%, 100%)" fill-opacity="1" d="M 0.484375 0.484375 L 32.484375 0.484375 L 32.484375 32.484375 L 0.484375 32.484375 Z M 0.484375 0.484375 "/>
<path fill-rule="nonzero" fill="rgb(92.941176%, 44.313725%, 0%)" fill-opacity="1" d="M 0.484375 0.484375 L 31.515625 0.484375 L 31.515625 31.515625 L 0.484375 31.515625 Z M 0.484375 0.484375 "/>
<path fill-rule="nonzero" fill="rgb(100%, 100%, 100%)" fill-opacity="1" d="M 21.835938 23.796875 L 21.835938 21.441406 L 23.300781 20.859375 L 23.300781 23.214844 Z M 19.402344 20.859375 L 20.867188 21.441406 L 20.867188 23.796875 L 19.402344 23.214844 Z M 16.484375 27.210938 L 16.484375 24.851562 L 17.949219 24.261719 L 17.949219 26.628906 Z M 14.050781 24.261719 L 15.515625 24.851562 L 15.515625 27.210938 L 14.050781 26.628906 Z M 11.132812 23.796875 L 11.132812 21.441406 L 12.597656 20.859375 L 12.597656 23.214844 Z M 8.699219 20.859375 L 10.164062 21.441406 L 10.164062 23.796875 L 8.699219 23.214844 Z M 10.648438 19.695312 L 11.773438 20.140625 L 10.648438 20.585938 L 9.523438 20.140625 Z M 16 23.097656 L 17.125 23.542969 L 16 24 L 14.875 23.542969 Z M 21.351562 19.695312 L 22.476562 20.140625 L 21.351562 20.585938 L 20.226562 20.140625 Z M 23.960938 19.683594 L 21.535156 18.714844 C 21.421875 18.667969 21.285156 18.667969 21.167969 18.714844 L 18.734375 19.683594 C 18.550781 19.761719 18.433594 19.945312 18.433594 20.140625 L 18.433594 23.019531 L 16.183594 22.117188 C 16.066406 22.078125 15.933594 22.078125 15.816406 22.117188 L 13.566406 23.019531 L 13.566406 20.140625 C 13.566406 19.945312 13.449219 19.761719 13.265625 19.683594 L 10.832031 18.714844 C 10.714844 18.667969 10.578125 18.667969 10.464844 18.714844 L 8.039062 19.683594 C 7.855469 19.761719 7.726562 19.945312 7.726562 20.140625 L 7.726562 23.542969 C 7.726562 23.746094 7.855469 23.921875 8.039062 24 L 10.464844 24.96875 C 10.519531 25 10.589844 25.007812 10.648438 25.007812 C 10.707031 25.007812 10.773438 25 10.832031 24.96875 L 13.082031 24.066406 L 13.082031 26.949219 C 13.082031 27.152344 13.199219 27.324219 13.390625 27.402344 L 15.816406 28.375 C 15.875 28.402344 15.941406 28.414062 16 28.414062 C 16.058594 28.414062 16.125 28.402344 16.183594 28.375 L 18.609375 27.402344 C 18.800781 27.324219 18.917969 27.152344 18.917969 26.949219 L 18.917969 24.066406 L 21.167969 24.96875 C 21.226562 25 21.292969 25.007812 21.351562 25.007812 C 21.410156 25.007812 21.480469 25 21.535156 24.96875 L 23.960938 24 C 24.144531 23.921875 24.273438 23.746094 24.273438 23.542969 L 24.273438 20.140625 C 24.273438 19.945312 24.144531 19.761719 23.960938 19.683594 Z M 28.160156 13.789062 C 28.160156 16.628906 21.894531 18.164062 16 18.164062 C 10.105469 18.164062 3.839844 16.628906 3.839844 13.789062 C 3.839844 12.429688 5.34375 11.230469 8.078125 10.414062 L 8.359375 11.355469 C 6.167969 12.003906 4.808594 12.9375 4.808594 13.789062 C 4.808594 15.398438 9.40625 17.191406 16 17.191406 C 22.59375 17.191406 27.191406 15.398438 27.191406 13.789062 C 27.191406 12.9375 25.832031 12.003906 23.640625 11.355469 L 23.921875 10.414062 C 26.65625 11.230469 28.160156 12.429688 28.160156 13.789062 Z M 16 4.605469 L 20.964844 6.515625 L 16 8.425781 L 11.035156 6.515625 Z M 21.148438 14.226562 C 20.226562 14.632812 18.6875 15.117188 16.484375 15.175781 L 16.484375 9.28125 L 21.835938 7.222656 L 21.835938 13.160156 C 21.835938 13.625 21.566406 14.042969 21.148438 14.226562 Z M 10.164062 13.160156 L 10.164062 7.222656 L 15.515625 9.28125 L 15.515625 15.175781 C 13.3125 15.117188 11.773438 14.632812 10.851562 14.226562 C 10.433594 14.042969 10.164062 13.625 10.164062 13.160156 Z M 10.453125 15.117188 C 11.53125 15.59375 13.363281 16.164062 16 16.164062 C 18.636719 16.164062 20.46875 15.59375 21.546875 15.117188 C 22.3125 14.777344 22.808594 14.003906 22.808594 13.160156 L 22.808594 6.515625 C 22.808594 6.3125 22.691406 6.136719 22.496094 6.0625 L 16.175781 3.625 C 16.058594 3.585938 15.941406 3.585938 15.824219 3.625 L 9.503906 6.0625 C 9.308594 6.136719 9.191406 6.3125 9.191406 6.515625 L 9.191406 13.160156 C 9.191406 14.003906 9.6875 14.777344 10.453125 15.117188 Z M 10.453125 15.117188 "/>
</svg>
