<svg role="img" viewBox="0 0 32 32" height="32" width="32" xmlns="http://www.w3.org/2000/svg"><path d="M.203.203h32v32h-32Zm0 0" fill="rgb(100%, 100%, 100%)"/><path d="M.203.203h31.594v31.594H.203Zm0 0" fill="rgb(92.941176%, 44.313725%, 0%)"/><path d="M10.602 27.734H4.996l6.195-12.953L14 20.562Zm.996-14.191a.46.46 0 0 0-.407-.258h-.004a.446.446 0 0 0-.406.262L3.867 27.992a.45.45 0 0 0 .41.645h6.606a.46.46 0 0 0 .41-.258l3.617-7.629a.422.422 0 0 0 0-.387Zm15.695 14.191h-5.57l-8.93-18.699a.46.46 0 0 0-.41-.258h-3.64l.003-4.511h7.14l8.891 18.699a.46.46 0 0 0 .41.258h2.106Zm.453-5.414H25.47L16.58 3.621a.45.45 0 0 0-.407-.258h-7.88c-.25 0-.45.203-.453.45l-.008 5.414c0 .12.05.234.137.32a.45.45 0 0 0 .32.133h3.809l8.933 18.699a.46.46 0 0 0 .41.258h6.305c.246 0 .45-.203.45-.45V22.77c0-.25-.2-.45-.45-.45m0 0" fill="rgb(100%, 100%, 100%)"/></svg>