<svg role="img" viewBox="0 0 32 32" height="32" width="32" xmlns="http://www.w3.org/2000/svg"><path d="M6 26h20V6H6ZM27.332 8.668v2.664h3.336v1.336h-3.336v2.664h3.336v1.336h-3.336v2.664h3.336v1.336h-3.336v2.664h3.336v1.336h-3.336v2a.664.664 0 0 1-.664.664h-2v3.336h-1.336v-3.336h-2.664v3.336h-1.336v-3.336h-2.664v3.336h-1.336v-3.336h-2.664v3.336h-1.336v-3.336H8.668v3.336H7.332v-3.336h-2a.664.664 0 0 1-.664-.664v-2H1.332v-1.336h3.336v-2.664H1.332v-1.336h3.336v-2.664H1.332v-1.336h3.336v-2.664H1.332v-1.336h3.336V8.668H1.332V7.332h3.336v-2c0-.367.297-.664.664-.664h2V1.332h1.336v3.336h2.664V1.332h1.336v3.336h2.664V1.332h1.336v3.336h2.664V1.332h1.336v3.336h2.664V1.332h1.336v3.336h2c.367 0 .664.297.664.664v2h3.336v1.336Zm-5.531 7.312a1.37 1.37 0 0 1 .3-.128c.102-.028.2-.043.29-.043.129 0 .222.03.277.093.055.063.082.164.082.309v1.61h.55v-1.84c.18-.11.384-.168.595-.172.128 0 .218.03.277.093.055.063.082.164.082.309v1.61h.55v-1.747c0-.226-.062-.402-.183-.52-.121-.12-.293-.179-.512-.179-.285 0-.586.105-.894.32-.11-.215-.309-.32-.598-.32-.14 0-.281.023-.418.074a1.915 1.915 0 0 0-.441.235l-.051-.239h-.457v2.375h.55Zm-2.516 1.91c.29-.003.578-.113.871-.331l.055.261h.46v-2.375h-.55v1.82c-.2.126-.39.192-.586.192-.137 0-.234-.039-.297-.11-.062-.07-.093-.183-.093-.335v-1.567h-.551v1.73c0 .231.058.407.18.532.12.121.288.184.511.184m-1.816-.07h.55v-2.376h-.55Zm.273-2.77a.355.355 0 0 0 .246-.082.294.294 0 0 0 .086-.235.324.324 0 0 0-.086-.234.355.355 0 0 0-.246-.082.358.358 0 0 0-.242.082.324.324 0 0 0-.086.234.294.294 0 0 0 .086.235.34.34 0 0 0 .242.082m-2.43.965c.188-.13.407-.2.63-.203.136 0 .238.035.3.101.063.07.094.184.094.332v1.574h.55v-1.746c-.003-.226-.062-.398-.179-.52-.117-.117-.289-.179-.516-.175-.32 0-.625.11-.918.332l-.054-.266h-.457v2.375h.55Zm-1.699 1.804h.551v-2.375h-.55Zm.278-2.77a.355.355 0 0 0 .242-.077.298.298 0 0 0 .086-.239.315.315 0 0 0-.086-.23.323.323 0 0 0-.242-.082.323.323 0 0 0-.243.082.298.298 0 0 0-.09.23c0 .106.032.176.09.239a.348.348 0 0 0 .243.082m-1.38 1.773c-.16-.031-.3-.047-.425-.05-.316 0-.473.124-.473.378 0 .11.032.196.09.254.063.063.145.09.25.09.09 0 .18-.02.277-.059.098-.039.192-.093.282-.164Zm0-.324v-.277c0-.157-.03-.27-.1-.332-.067-.063-.188-.094-.36-.094-.242 0-.52.054-.836.156v-.387c.117-.058.262-.105.43-.14a2.53 2.53 0 0 1 .511-.051c.309 0 .54.062.688.187.144.121.219.313.219.582v1.676h-.481l-.039-.23c-.11.09-.23.164-.363.218a.978.978 0 0 1-.395.083.746.746 0 0 1-.531-.2.669.669 0 0 1-.203-.508c0-.23.086-.414.25-.55.168-.137.39-.203.672-.203.164 0 .343.023.539.07m-2.469-.402a1.09 1.09 0 0 1 .613-.176c.09 0 .18.008.266.02v-.505a1.574 1.574 0 0 0-.192-.011.792.792 0 0 0-.355.082c-.11.058-.223.152-.352.289l-.07-.352h-.46v2.375h.55ZM7.855 15.05H6.844v-.465h2.593v.465h-1.01v2.77h-.57Zm0 0" fill="rgb(83.137255%, 35.686275%, 2.745098%)" fill-rule="evenodd"/></svg>