<?xml version="1.0" encoding="UTF-8"?>
<svg xmlns="http://www.w3.org/2000/svg" xmlns:xlink="http://www.w3.org/1999/xlink" width="32" height="32" viewBox="0 0 32 32">
<path fill-rule="evenodd" fill="rgb(83.137255%, 35.686275%, 2.745098%)" fill-opacity="1" d="M 6 26 L 26 26 L 26 6 L 6 6 Z M 27.332031 8.667969 L 27.332031 11.332031 L 30.667969 11.332031 L 30.667969 12.667969 L 27.332031 12.667969 L 27.332031 15.332031 L 30.667969 15.332031 L 30.667969 16.667969 L 27.332031 16.667969 L 27.332031 19.332031 L 30.667969 19.332031 L 30.667969 20.667969 L 27.332031 20.667969 L 27.332031 23.332031 L 30.667969 23.332031 L 30.667969 24.667969 L 27.332031 24.667969 L 27.332031 26.667969 C 27.332031 27.035156 27.035156 27.332031 26.667969 27.332031 L 24.667969 27.332031 L 24.667969 30.667969 L 23.332031 30.667969 L 23.332031 27.332031 L 20.667969 27.332031 L 20.667969 30.667969 L 19.332031 30.667969 L 19.332031 27.332031 L 16.667969 27.332031 L 16.667969 30.667969 L 15.332031 30.667969 L 15.332031 27.332031 L 12.667969 27.332031 L 12.667969 30.667969 L 11.332031 30.667969 L 11.332031 27.332031 L 8.667969 27.332031 L 8.667969 30.667969 L 7.332031 30.667969 L 7.332031 27.332031 L 5.332031 27.332031 C 4.964844 27.332031 4.667969 27.035156 4.667969 26.667969 L 4.667969 24.667969 L 1.332031 24.667969 L 1.332031 23.332031 L 4.667969 23.332031 L 4.667969 20.667969 L 1.332031 20.667969 L 1.332031 19.332031 L 4.667969 19.332031 L 4.667969 16.667969 L 1.332031 16.667969 L 1.332031 15.332031 L 4.667969 15.332031 L 4.667969 12.667969 L 1.332031 12.667969 L 1.332031 11.332031 L 4.667969 11.332031 L 4.667969 8.667969 L 1.332031 8.667969 L 1.332031 7.332031 L 4.667969 7.332031 L 4.667969 5.332031 C 4.667969 4.964844 4.964844 4.667969 5.332031 4.667969 L 7.332031 4.667969 L 7.332031 1.332031 L 8.667969 1.332031 L 8.667969 4.667969 L 11.332031 4.667969 L 11.332031 1.332031 L 12.667969 1.332031 L 12.667969 4.667969 L 15.332031 4.667969 L 15.332031 1.332031 L 16.667969 1.332031 L 16.667969 4.667969 L 19.332031 4.667969 L 19.332031 1.332031 L 20.667969 1.332031 L 20.667969 4.667969 L 23.332031 4.667969 L 23.332031 1.332031 L 24.667969 1.332031 L 24.667969 4.667969 L 26.667969 4.667969 C 27.035156 4.667969 27.332031 4.964844 27.332031 5.332031 L 27.332031 7.332031 L 30.667969 7.332031 L 30.667969 8.667969 Z M 21.667969 16.421875 C 21.667969 17.359375 22.007812 17.828125 22.691406 17.828125 C 23.007812 17.828125 23.3125 17.730469 23.613281 17.527344 L 23.613281 15.324219 C 23.347656 15.136719 23.03125 15.035156 22.707031 15.039062 C 22.351562 15.039062 22.089844 15.152344 21.921875 15.378906 C 21.753906 15.605469 21.667969 15.953125 21.667969 16.421875 M 21.167969 18.003906 C 20.863281 17.621094 20.707031 17.105469 20.707031 16.460938 C 20.707031 16.035156 20.777344 15.660156 20.914062 15.335938 C 21.054688 15.007812 21.253906 14.753906 21.515625 14.570312 C 21.777344 14.386719 22.085938 14.292969 22.445312 14.292969 C 22.871094 14.292969 23.261719 14.433594 23.613281 14.710938 L 23.613281 12.566406 L 24.554688 12.566406 L 24.554688 18.484375 L 23.746094 18.484375 L 23.652344 18.09375 C 23.289062 18.414062 22.871094 18.574219 22.394531 18.574219 C 21.882812 18.574219 21.476562 18.382812 21.167969 18.003906 M 17.1875 16.335938 C 17.1875 17.230469 17.503906 17.679688 18.140625 17.679688 C 18.453125 17.679688 18.753906 17.574219 19.035156 17.367188 L 19.035156 15.316406 C 18.777344 15.132812 18.464844 15.03125 18.148438 15.03125 C 17.824219 15.03125 17.582031 15.136719 17.425781 15.351562 C 17.265625 15.5625 17.1875 15.890625 17.1875 16.335938 M 16.671875 17.851562 C 16.375 17.480469 16.226562 16.984375 16.226562 16.367188 C 16.226562 15.960938 16.292969 15.601562 16.429688 15.289062 C 16.5625 14.976562 16.753906 14.734375 17.003906 14.558594 C 17.253906 14.382812 17.550781 14.292969 17.890625 14.292969 C 18.355469 14.292969 18.757812 14.457031 19.101562 14.78125 L 19.179688 14.414062 L 19.980469 14.414062 L 19.980469 18.207031 C 19.980469 18.851562 19.804688 19.351562 19.453125 19.703125 C 19.101562 20.054688 18.601562 20.230469 17.953125 20.230469 C 17.460938 20.230469 16.996094 20.121094 16.554688 19.902344 L 16.554688 19.230469 C 17.050781 19.394531 17.496094 19.476562 17.890625 19.476562 C 18.292969 19.476562 18.582031 19.386719 18.765625 19.203125 C 18.945312 19.019531 19.035156 18.71875 19.035156 18.300781 L 19.035156 17.957031 C 18.6875 18.257812 18.296875 18.40625 17.859375 18.40625 C 17.363281 18.40625 16.96875 18.21875 16.671875 17.851562 M 12.722656 16.140625 C 12.761719 17.277344 13.128906 17.847656 13.832031 17.847656 C 14.121094 17.847656 14.34375 17.757812 14.507812 17.582031 C 14.667969 17.40625 14.746094 17.160156 14.746094 16.847656 C 14.746094 16.527344 14.664062 16.28125 14.496094 16.113281 C 14.332031 15.945312 14.089844 15.863281 13.769531 15.863281 C 13.402344 15.871094 13.042969 15.964844 12.722656 16.140625 M 12.265625 17.925781 C 11.925781 17.472656 11.757812 16.804688 11.757812 15.917969 C 11.757812 14.9375 11.957031 14.175781 12.359375 13.628906 C 12.761719 13.085938 13.328125 12.8125 14.058594 12.8125 C 14.289062 12.8125 14.519531 12.839844 14.753906 12.890625 C 14.984375 12.941406 15.183594 13.007812 15.347656 13.09375 L 15.347656 13.789062 C 14.976562 13.65625 14.589844 13.582031 14.195312 13.574219 C 13.714844 13.574219 13.355469 13.734375 13.121094 14.054688 C 12.882812 14.375 12.75 14.867188 12.722656 15.535156 C 13.144531 15.261719 13.59375 15.125 14.070312 15.125 C 14.566406 15.125 14.964844 15.277344 15.265625 15.578125 C 15.566406 15.878906 15.714844 16.28125 15.714844 16.78125 C 15.714844 17.132812 15.636719 17.449219 15.480469 17.722656 C 15.320312 18 15.085938 18.222656 14.800781 18.371094 C 14.503906 18.527344 14.160156 18.605469 13.765625 18.605469 C 13.101562 18.605469 12.601562 18.378906 12.265625 17.925781 M 7.863281 17.878906 C 7.414062 17.410156 7.1875 16.714844 7.1875 15.796875 C 7.1875 14.855469 7.421875 14.128906 7.886719 13.617188 C 8.355469 13.109375 9.023438 12.855469 9.898438 12.855469 C 10.378906 12.855469 10.824219 12.925781 11.226562 13.070312 L 11.226562 13.871094 C 10.695312 13.757812 10.28125 13.703125 9.976562 13.703125 C 9.371094 13.703125 8.921875 13.859375 8.625 14.175781 C 8.328125 14.488281 8.179688 14.972656 8.179688 15.628906 L 8.179688 15.820312 C 8.179688 16.472656 8.328125 16.953125 8.621094 17.265625 C 8.914062 17.578125 9.359375 17.734375 9.960938 17.734375 C 10.300781 17.734375 10.75 17.667969 11.308594 17.535156 L 11.308594 18.335938 C 10.847656 18.503906 10.359375 18.589844 9.867188 18.582031 C 8.984375 18.582031 8.316406 18.347656 7.863281 17.878906 M 7.863281 17.878906 "/>
</svg>
