<svg role="img" viewBox="0 0 32 32" xmlns="http://www.w3.org/2000/svg"><path d="M6 26h20V6H6ZM30.668 8.668V7.332h-3.336v-2a.664.664 0 0 0-.664-.664h-2V1.332h-1.336v3.336h-2.664V1.332h-1.336v3.336h-2.664V1.332h-1.336v3.336h-2.664V1.332h-1.336v3.336H8.668V1.332H7.332v3.336h-2a.664.664 0 0 0-.664.664v2H1.332v1.336h3.336v2.664H1.332v1.336h3.336v2.664H1.332v1.336h3.336v2.664H1.332v1.336h3.336v2.664H1.332v1.336h3.336v2c0 .367.297.664.664.664h2v3.336h1.336v-3.336h2.664v3.336h1.336v-3.336h2.664v3.336h1.336v-3.336h2.664v3.336h1.336v-3.336h2.664v3.336h1.336v-3.336h2a.664.664 0 0 0 .664-.664v-2h3.336v-1.336h-3.336v-2.664h3.336v-1.336h-3.336v-2.664h3.336v-1.336h-3.336v-2.664h3.336v-1.336h-3.336V8.668Zm-12 10.805a4.4 4.4 0 0 1-1.754-.371v-.88q1.019.345 1.715.344.66 0 1.016-.293.358-.291.359-.835-.001-1.027-1.297-1.028-.417 0-.898.059v-.719l1.84-1.996h-2.641v-.887h3.855v.848l-1.941 1.902a6 6 0 0 1 .258-.008q.544-.001.984.23.444.228.707.65.26.416.262.96-.001.585-.301 1.043-.3.46-.855.719-.564.263-1.309.262m-6.664-1.035v-4.676h.941q1.935-.001 1.934 2.23v.207q0 2.238-1.934 2.238Zm3.262.054c.515-.558.77-1.363.77-2.406q-.002-1.56-.759-2.39-.762-.83-2.199-.829h-2.21v6.465h2.202c.95 0 1.684-.277 2.196-.84m0 0" fill="rgb(83.137256%, 35.686275%, 2.745098%)" fill-rule="evenodd"/></svg>