<svg role="img" viewBox="0 0 32 32" xmlns="http://www.w3.org/2000/svg"><path d="M6 26h20V6H6ZM30.668 8.668V7.332h-3.336v-2a.664.664 0 0 0-.664-.664h-2V1.332h-1.336v3.336h-2.664V1.332h-1.336v3.336h-2.664V1.332h-1.336v3.336h-2.664V1.332h-1.336v3.336H8.668V1.332H7.332v3.336h-2a.664.664 0 0 0-.664.664v2H1.332v1.336h3.336v2.664H1.332v1.336h3.336v2.664H1.332v1.336h3.336v2.664H1.332v1.336h3.336v2.664H1.332v1.336h3.336v2c0 .367.297.664.664.664h2v3.336h1.336v-3.336h2.664v3.336h1.336v-3.336h2.664v3.336h1.336v-3.336h2.664v3.336h1.336v-3.336h2.664v3.336h1.336v-3.336h2a.664.664 0 0 0 .664-.664v-2h3.336v-1.336h-3.336v-2.664h3.336v-1.336h-3.336v-2.664h3.336v-1.336h-3.336v-2.664h3.336v-1.336h-3.336V8.668Zm-6.695 9.816V15.79q-.001-.392-.16-.57-.16-.18-.512-.18-.527 0-1.082.352v3.093h-.942v-4.07h.782l.097.45q.751-.57 1.567-.571.585.002.89.309.305.31.305.89v2.992Zm-5.473-.656q.472.002.922-.3v-2.204a1.54 1.54 0 0 0-.906-.285q-.535 0-.79.34-.25.34-.25 1.043-.001 1.406 1.024 1.406m1.055.656-.094-.39q-.543.48-1.258.48-.769 0-1.226-.57-.462-.576-.461-1.543 0-.638.207-1.125.21-.491.601-.766.392-.276.93-.277c.426 0 .812.14 1.168.418v-2.145h.941v5.918Zm-5.016-1.902v-2.441l-1.672 2.441Zm0 1.902v-1.148h-2.621v-.715l2.582-3.68h.992v3.641h.742v.754h-.742v1.148Zm-4.824-.726q.386 0 .754-.07v-1.465H9.324v-.77h2.121v2.723a3.5 3.5 0 0 1-.855.297q-.491.11-1.012.109-1.33 0-2.027-.727-.699-.73-.7-2.105 0-1.4.72-2.148.719-.749 2.066-.747.908 0 1.617.329v.773q-.843-.279-1.55-.277-.946.001-1.403.476-.457.481-.457 1.496v.168q0 1.001.453 1.47.45.468 1.418.468m0 0" fill="rgb(83.137256%, 35.686275%, 2.745098%)" fill-rule="evenodd"/></svg>