<?xml version="1.0" encoding="UTF-8"?>
<svg xmlns="http://www.w3.org/2000/svg" xmlns:xlink="http://www.w3.org/1999/xlink" width="32" height="32" viewBox="0 0 32 32">
<path fill-rule="evenodd" fill="rgb(83.137255%, 35.686275%, 2.745098%)" fill-opacity="1" d="M 6 26 L 26 26 L 26 6 L 6 6 Z M 27.332031 8.667969 L 27.332031 11.332031 L 30.667969 11.332031 L 30.667969 12.667969 L 27.332031 12.667969 L 27.332031 15.332031 L 30.667969 15.332031 L 30.667969 16.667969 L 27.332031 16.667969 L 27.332031 19.332031 L 30.667969 19.332031 L 30.667969 20.667969 L 27.332031 20.667969 L 27.332031 23.332031 L 30.667969 23.332031 L 30.667969 24.667969 L 27.332031 24.667969 L 27.332031 26.667969 C 27.332031 27.035156 27.035156 27.332031 26.667969 27.332031 L 24.667969 27.332031 L 24.667969 30.667969 L 23.332031 30.667969 L 23.332031 27.332031 L 20.667969 27.332031 L 20.667969 30.667969 L 19.332031 30.667969 L 19.332031 27.332031 L 16.667969 27.332031 L 16.667969 30.667969 L 15.332031 30.667969 L 15.332031 27.332031 L 12.667969 27.332031 L 12.667969 30.667969 L 11.332031 30.667969 L 11.332031 27.332031 L 8.667969 27.332031 L 8.667969 30.667969 L 7.332031 30.667969 L 7.332031 27.332031 L 5.332031 27.332031 C 4.964844 27.332031 4.667969 27.035156 4.667969 26.667969 L 4.667969 24.667969 L 1.332031 24.667969 L 1.332031 23.332031 L 4.667969 23.332031 L 4.667969 20.667969 L 1.332031 20.667969 L 1.332031 19.332031 L 4.667969 19.332031 L 4.667969 16.667969 L 1.332031 16.667969 L 1.332031 15.332031 L 4.667969 15.332031 L 4.667969 12.667969 L 1.332031 12.667969 L 1.332031 11.332031 L 4.667969 11.332031 L 4.667969 8.667969 L 1.332031 8.667969 L 1.332031 7.332031 L 4.667969 7.332031 L 4.667969 5.332031 C 4.667969 4.964844 4.964844 4.667969 5.332031 4.667969 L 7.332031 4.667969 L 7.332031 1.332031 L 8.667969 1.332031 L 8.667969 4.667969 L 11.332031 4.667969 L 11.332031 1.332031 L 12.667969 1.332031 L 12.667969 4.667969 L 15.332031 4.667969 L 15.332031 1.332031 L 16.667969 1.332031 L 16.667969 4.667969 L 19.332031 4.667969 L 19.332031 1.332031 L 20.667969 1.332031 L 20.667969 4.667969 L 23.332031 4.667969 L 23.332031 1.332031 L 24.667969 1.332031 L 24.667969 4.667969 L 26.667969 4.667969 C 27.035156 4.667969 27.332031 4.964844 27.332031 5.332031 L 27.332031 7.332031 L 30.667969 7.332031 L 30.667969 8.667969 Z M 22.75 18.589844 C 23.261719 18.589844 23.699219 18.492188 24.066406 18.300781 L 24.066406 17.523438 C 23.710938 17.640625 23.339844 17.703125 22.964844 17.710938 C 22.5 17.710938 22.15625 17.585938 21.933594 17.339844 C 21.714844 17.089844 21.601562 16.703125 21.601562 16.179688 L 21.601562 16.058594 C 21.601562 15.53125 21.714844 15.140625 21.933594 14.886719 C 22.15625 14.636719 22.5 14.511719 22.964844 14.511719 C 23.257812 14.511719 23.613281 14.570312 24.03125 14.6875 L 24.03125 13.914062 C 23.644531 13.722656 23.21875 13.628906 22.789062 13.632812 C 22.0625 13.632812 21.496094 13.851562 21.089844 14.296875 C 20.683594 14.738281 20.484375 15.355469 20.484375 16.152344 C 20.484375 16.929688 20.679688 17.53125 21.070312 17.953125 C 21.464844 18.378906 22.023438 18.589844 22.75 18.589844 M 18.5625 16.496094 C 18.28125 16.433594 17.996094 16.402344 17.707031 16.394531 C 17.074219 16.394531 16.757812 16.648438 16.757812 17.152344 C 16.757812 17.371094 16.820312 17.539062 16.941406 17.660156 C 17.0625 17.78125 17.230469 17.84375 17.441406 17.84375 C 17.617188 17.84375 17.800781 17.804688 17.996094 17.726562 C 18.191406 17.648438 18.378906 17.539062 18.5625 17.394531 Z M 18.5625 15.84375 L 18.5625 15.292969 C 18.5625 14.976562 18.492188 14.757812 18.355469 14.632812 C 18.21875 14.507812 17.980469 14.445312 17.636719 14.445312 C 17.152344 14.445312 16.59375 14.546875 15.964844 14.753906 L 15.964844 13.976562 C 16.199219 13.859375 16.488281 13.765625 16.824219 13.699219 C 17.164062 13.628906 17.503906 13.59375 17.847656 13.59375 C 18.46875 13.59375 18.925781 13.71875 19.21875 13.96875 C 19.515625 14.21875 19.660156 14.605469 19.660156 15.136719 L 19.660156 18.484375 L 18.699219 18.484375 L 18.617188 18.027344 C 18.398438 18.214844 18.15625 18.363281 17.894531 18.46875 C 17.644531 18.570312 17.375 18.625 17.105469 18.625 C 16.667969 18.625 16.316406 18.496094 16.046875 18.234375 C 15.773438 17.972656 15.640625 17.632812 15.640625 17.214844 C 15.640625 16.757812 15.804688 16.390625 16.136719 16.117188 C 16.472656 15.839844 16.917969 15.703125 17.476562 15.703125 C 17.808594 15.703125 18.167969 15.75 18.5625 15.84375 M 9.328125 18.484375 L 8.285156 18.484375 L 8.285156 12.019531 L 9.554688 12.019531 L 11.496094 15.871094 L 13.472656 12.019531 L 14.707031 12.019531 L 14.707031 18.484375 L 13.660156 18.484375 L 13.660156 13.640625 L 11.980469 16.863281 L 10.953125 16.863281 L 9.328125 13.660156 Z M 9.328125 18.484375 "/>
</svg>
