<svg role="img" viewBox="0 0 32 32" height="32" width="32" xmlns="http://www.w3.org/2000/svg"><path d="M.203.203h31.594v31.594H.203Zm0 0" fill="rgb(78.823529%, 14.509804%, 81.960784%)"/><path d="m4.902 4.266 4.196 4.191-.641.64-4.191-4.195v3.426h-.903V3.813c0-.247.203-.45.45-.45h4.515v.903Zm23.735-.453v4.515h-.903V4.902l-4.191 4.196-.64-.641 4.195-4.191h-3.426v-.903h4.515c.247 0 .45.203.45.45m-.903 19.859h.903v4.515c0 .247-.203.45-.45.45h-4.515v-.903h3.426l-4.196-4.191.641-.64 4.191 4.195Zm-.226-8.027c0-1.5-1.73-2.977-4.625-3.957l.289-.856c3.332 1.125 5.238 2.879 5.238 4.813 0 1.93-1.906 3.687-5.238 4.816l-.29-.856c2.895-.98 4.626-2.464 4.626-3.96m-22.992 0c0 1.437 1.62 2.875 4.332 3.855l-.309.852c-3.133-1.133-4.926-2.848-4.926-4.707 0-1.86 1.793-3.575 4.926-4.704l.309.852c-2.711.977-4.332 2.418-4.332 3.852m4.582 7.898-4.196 4.191h3.426v.903H3.813a.452.452 0 0 1-.45-.45v-4.515h.903v3.426l4.191-4.196ZM16 12.066c-3.223 0-4.965-.836-4.965-1.175 0-.34 1.742-1.168 4.965-1.168s4.965.828 4.965 1.168c0 .34-1.742 1.175-4.965 1.175m.012 3.496c-3.086 0-4.977-.843-4.977-1.304v-2.192c1.113.614 3.086.903 4.965.903s3.852-.29 4.965-.903v2.192c0 .46-1.88 1.305-4.953 1.305m0 3.445c-3.086 0-4.977-.84-4.977-1.301v-2.223c1.098.645 3.043.98 4.977.98 1.925 0 3.86-.331 4.953-.976v2.219c0 .461-1.88 1.3-4.953 1.3M16 22.103c-3.21 0-4.965-.864-4.965-1.305v-1.863c1.098.644 3.043.98 4.977.98 1.925 0 3.86-.332 4.953-.977v1.86c0 .441-1.754 1.305-4.965 1.305m0-13.286c-2.828 0-5.871.649-5.871 2.075v9.906c0 1.45 2.953 2.207 5.871 2.207 2.918 0 5.871-.758 5.871-2.207V10.89c0-1.426-3.043-2.075-5.871-2.075" fill="rgb(100%, 100%, 100%)"/></svg>