<svg role="img" viewBox="0 0 32 32" height="32" width="32" xmlns="http://www.w3.org/2000/svg"><path d="M.203.203h31.594v31.594H.203Zm0 0" fill="rgb(92.941176%, 44.313725%, 0%)"/><path d="m26.414 19.438-3.547-2.13v-5.062a.447.447 0 0 0-.219-.387l-5.097-2.972V4.602l8.863 5.238Zm.668-10.235-9.75-5.762a.462.462 0 0 0-.445-.003.451.451 0 0 0-.223.386v5.317c0 .16.086.304.219.386l5.101 2.973v5.059c0 .16.078.3.215.382l4.43 2.657c.137.086.308.09.445.007a.453.453 0 0 0 .223-.382V9.582a.444.444 0 0 0-.215-.379M15.977 27.691 5.586 22.168V9.84l8.863-5.238v4.296l-4.668 2.97a.45.45 0 0 0-.207.378v7.527c0 .168.094.32.242.395l5.957 3.102c.13.066.286.07.41 0l5.782-2.989 3.558 2.14Zm10.664-5.636-4.43-2.66a.45.45 0 0 0-.434-.012l-5.797 2.996-5.52-2.871v-7.02l4.669-2.972a.444.444 0 0 0 .207-.375V3.824a.451.451 0 0 0-.223-.386.462.462 0 0 0-.445.003l-9.75 5.762a.444.444 0 0 0-.215.379v12.856c0 .16.09.312.234.386l10.836 5.762a.42.42 0 0 0 .207.05c.07 0 .145-.019.215-.054l10.43-5.762a.443.443 0 0 0 .23-.375.45.45 0 0 0-.214-.39m0 0" fill="rgb(100%, 100%, 100%)"/></svg>