<svg role="img" viewBox="0 0 32 32" height="32" width="32" xmlns="http://www.w3.org/2000/svg"><path d="M.203.203h31.594v31.594H.203Zm0 0" fill="rgb(54.901961%, 30.980392%, 100%)"/><path d="m25.406 17.07-2.476-.988v8.977c.722-.075 1.304-.313 1.718-.735.766-.773.758-1.918.758-1.926Zm-3.375 7.993v-8.981l-2.476.988v5.317c.004.093.105 2.41 2.476 2.675m4.274-2.675c0 .054.023 1.508-1.004 2.562-.676.688-1.625 1.04-2.82 1.04-2.958 0-3.794-2.348-3.825-3.59v-5.633c0-.184.11-.348.285-.418L22.316 15a.41.41 0 0 1 .332 0l3.372 1.348c.171.07.285.234.285.418Zm1.347-.883v-6.008L22.48 13.43l-5.171 2.066v5.992c-.004.04-.063 2.805 1.586 4.5.87.895 2.074 1.348 3.585 1.348 1.52 0 2.73-.457 3.602-1.356 1.648-1.703 1.57-4.449 1.57-4.476m-.925 5.101c-1.047 1.086-2.477 1.633-4.247 1.633-1.765 0-3.187-.547-4.23-1.625-1.918-1.976-1.844-5.011-1.84-5.136V15.19c0-.183.11-.347.277-.418l5.63-2.25a.444.444 0 0 1 .331 0l5.622 2.25c.171.067.285.23.285.418v6.297c.004.114.082 3.137-1.828 5.117M8.336 19.691h6.719v.899h-6.72c-2.733 0-4.823-1.824-4.96-4.336-.012-.102-.012-.223-.012-.34 0-3.09 2.157-4.226 3.418-4.629a8.177 8.177 0 0 1-.011-.437c0-2.45 1.75-5.02 4.07-5.97 2.723-1.116 5.594-.577 7.68 1.446a7.836 7.836 0 0 1 1.625 2.219 2.904 2.904 0 0 1 1.898-.719c1.488 0 3.059 1.168 3.332 3.403.977.25 2.215.777 3.082 1.89l-.71.555c-.798-1.031-2.009-1.461-2.884-1.637a.449.449 0 0 1-.355-.414c-.117-1.988-1.363-2.894-2.465-2.894-.656 0-1.238.308-1.684.894a.438.438 0 0 1-.425.172.44.44 0 0 1-.356-.285c-.348-.942-.898-1.774-1.687-2.54-1.817-1.765-4.328-2.234-6.711-1.257-2 .82-3.512 3.027-3.512 5.137 0 .242.016.484.043.718a.456.456 0 0 1-.34.489c-1.16.289-3.11 1.172-3.11 3.86 0 .089 0 .183.009.273.113 2.035 1.824 3.503 4.066 3.503" fill="rgb(100%, 100%, 100%)"/></svg>