<svg role="img" viewBox="0 0 76.8 32" xmlns="http://www.w3.org/2000/svg"><path d="M73.121 17.023v-.449l.223.227ZM16.305 28.832c-6.625 0-12.032-5.39-12.032-12.031 0-6.64 5.407-12.031 12.032-12.031 6.64 0 12.047 5.39 12.047 12.03 0 6.641-5.407 12.032-12.047 12.032m60.672-13.215L65.793 3.567l-2.547 2.37 8.48 9.118H31.712c-.863-7.727-7.438-13.758-15.406-13.758C7.762 1.297.8 8.238.8 16.8c0 8.558 6.96 15.504 15.504 15.504 7.968 0 14.543-6.032 15.406-13.762h40.016l-8.48 9.121 2.546 2.367 11.184-12.047a1.73 1.73 0 0 0 0-2.367" fill="rgb(92.941177%, 44.313726%, 0%)"/></svg>