<?xml version="1.0" encoding="UTF-8"?>
<svg xmlns="http://www.w3.org/2000/svg" xmlns:xlink="http://www.w3.org/1999/xlink" width="32" height="32" viewBox="0 0 32 32">
<path fill-rule="evenodd" fill="rgb(83.137255%, 35.686275%, 2.745098%)" fill-opacity="1" d="M 6 26 L 26 26 L 26 6 L 6 6 Z M 27.332031 8.667969 L 27.332031 11.332031 L 30.667969 11.332031 L 30.667969 12.667969 L 27.332031 12.667969 L 27.332031 15.332031 L 30.667969 15.332031 L 30.667969 16.667969 L 27.332031 16.667969 L 27.332031 19.332031 L 30.667969 19.332031 L 30.667969 20.667969 L 27.332031 20.667969 L 27.332031 23.332031 L 30.667969 23.332031 L 30.667969 24.667969 L 27.332031 24.667969 L 27.332031 26.667969 C 27.332031 27.035156 27.035156 27.332031 26.667969 27.332031 L 24.667969 27.332031 L 24.667969 30.667969 L 23.332031 30.667969 L 23.332031 27.332031 L 20.667969 27.332031 L 20.667969 30.667969 L 19.332031 30.667969 L 19.332031 27.332031 L 16.667969 27.332031 L 16.667969 30.667969 L 15.332031 30.667969 L 15.332031 27.332031 L 12.667969 27.332031 L 12.667969 30.667969 L 11.332031 30.667969 L 11.332031 27.332031 L 8.667969 27.332031 L 8.667969 30.667969 L 7.332031 30.667969 L 7.332031 27.332031 L 5.332031 27.332031 C 4.964844 27.332031 4.667969 27.035156 4.667969 26.667969 L 4.667969 24.667969 L 1.332031 24.667969 L 1.332031 23.332031 L 4.667969 23.332031 L 4.667969 20.667969 L 1.332031 20.667969 L 1.332031 19.332031 L 4.667969 19.332031 L 4.667969 16.667969 L 1.332031 16.667969 L 1.332031 15.332031 L 4.667969 15.332031 L 4.667969 12.667969 L 1.332031 12.667969 L 1.332031 11.332031 L 4.667969 11.332031 L 4.667969 8.667969 L 1.332031 8.667969 L 1.332031 7.332031 L 4.667969 7.332031 L 4.667969 5.332031 C 4.667969 4.964844 4.964844 4.667969 5.332031 4.667969 L 7.332031 4.667969 L 7.332031 1.332031 L 8.667969 1.332031 L 8.667969 4.667969 L 11.332031 4.667969 L 11.332031 1.332031 L 12.667969 1.332031 L 12.667969 4.667969 L 15.332031 4.667969 L 15.332031 1.332031 L 16.667969 1.332031 L 16.667969 4.667969 L 19.332031 4.667969 L 19.332031 1.332031 L 20.667969 1.332031 L 20.667969 4.667969 L 23.332031 4.667969 L 23.332031 1.332031 L 24.667969 1.332031 L 24.667969 4.667969 L 26.667969 4.667969 C 27.035156 4.667969 27.332031 4.964844 27.332031 5.332031 L 27.332031 7.332031 L 30.667969 7.332031 L 30.667969 8.667969 Z M 22.03125 17.164062 C 21.75 17.101562 21.464844 17.066406 21.175781 17.0625 C 20.546875 17.0625 20.230469 17.3125 20.230469 17.816406 C 20.230469 18.035156 20.292969 18.207031 20.414062 18.328125 C 20.535156 18.449219 20.703125 18.507812 20.914062 18.507812 C 21.089844 18.507812 21.273438 18.46875 21.46875 18.390625 C 21.664062 18.3125 21.851562 18.203125 22.03125 18.0625 Z M 22.03125 16.511719 L 22.03125 15.960938 C 22.03125 15.644531 21.964844 15.421875 21.828125 15.296875 C 21.691406 15.171875 21.449219 15.113281 21.109375 15.113281 C 20.625 15.113281 20.066406 15.214844 19.4375 15.417969 L 19.4375 14.644531 C 19.671875 14.527344 19.957031 14.433594 20.296875 14.363281 C 20.636719 14.296875 20.976562 14.261719 21.320312 14.261719 C 21.941406 14.261719 22.398438 14.386719 22.691406 14.636719 C 22.988281 14.882812 23.132812 15.273438 23.132812 15.800781 L 23.132812 19.152344 L 22.171875 19.152344 L 22.089844 18.695312 C 21.875 18.878906 21.628906 19.027344 21.367188 19.132812 C 21.117188 19.234375 20.847656 19.289062 20.578125 19.292969 C 20.140625 19.292969 19.789062 19.160156 19.515625 18.902344 C 19.246094 18.640625 19.113281 18.300781 19.113281 17.882812 C 19.113281 17.421875 19.277344 17.054688 19.609375 16.78125 C 19.941406 16.507812 20.390625 16.371094 20.949219 16.371094 C 21.28125 16.371094 21.640625 16.417969 22.03125 16.511719 M 17.09375 19.03125 C 17.46875 18.855469 17.753906 18.613281 17.953125 18.3125 C 18.152344 18.007812 18.253906 17.660156 18.253906 17.265625 C 18.261719 16.589844 17.886719 15.964844 17.285156 15.65625 C 16.980469 15.5 16.640625 15.421875 16.296875 15.429688 C 16.210938 15.429688 16.125 15.433594 16.039062 15.4375 L 17.980469 13.535156 L 17.980469 12.683594 L 14.128906 12.683594 L 14.128906 13.570312 L 16.769531 13.570312 L 14.929688 15.570312 L 14.929688 16.289062 C 15.25 16.25 15.550781 16.230469 15.828125 16.230469 C 16.691406 16.230469 17.125 16.574219 17.125 17.257812 C 17.125 17.617188 17.007812 17.894531 16.765625 18.09375 C 16.527344 18.289062 16.1875 18.386719 15.75 18.386719 C 15.285156 18.386719 14.714844 18.269531 14.035156 18.042969 L 14.035156 18.917969 C 14.589844 19.164062 15.1875 19.292969 15.789062 19.292969 C 16.285156 19.292969 16.722656 19.207031 17.09375 19.03125 M 10.347656 13.613281 L 8.320312 13.613281 L 8.320312 12.683594 L 13.511719 12.683594 L 13.511719 13.613281 L 11.484375 13.613281 L 11.484375 19.148438 L 10.347656 19.148438 Z M 10.347656 13.613281 "/>
</svg>
