<svg role="img" viewBox="0 0 32 32" xmlns="http://www.w3.org/2000/svg"><path d="M6 26h20V6H6ZM30.668 8.668V7.332h-3.336v-2a.664.664 0 0 0-.664-.664h-2V1.332h-1.336v3.336h-2.664V1.332h-1.336v3.336h-2.664V1.332h-1.336v3.336h-2.664V1.332h-1.336v3.336H8.668V1.332H7.332v3.336h-2a.664.664 0 0 0-.664.664v2H1.332v1.336h3.336v2.664H1.332v1.336h3.336v2.664H1.332v1.336h3.336v2.664H1.332v1.336h3.336v2.664H1.332v1.336h3.336v2c0 .367.297.664.664.664h2v3.336h1.336v-3.336h2.664v3.336h1.336v-3.336h2.664v3.336h1.336v-3.336h2.664v3.336h1.336v-3.336h2.664v3.336h1.336v-3.336h2a.664.664 0 0 0 .664-.664v-2h3.336v-1.336h-3.336v-2.664h3.336v-1.336h-3.336v-2.664h3.336v-1.336h-3.336v-2.664h3.336v-1.336h-3.336V8.668ZM20.41 19.152h-1.1v-4.75h.914l.113.524q.873-.663 1.828-.664.679 0 1.035.36.357.36.356 1.038v3.492h-1.102v-3.144q0-.458-.187-.668-.188-.21-.598-.211-.614 0-1.258.41Zm-5.336-3.625q.296-.398.918-.398.58 0 1.055.336v2.566q-.52.357-1.07.356-1.196 0-1.196-1.64 0-.822.293-1.22m.555 3.727q.832.002 1.465-.559l.113.457h.941v-6.906h-1.101v2.5a2.16 2.16 0 0 0-1.36-.484q-.626.002-1.085.324c-.305.21-.536.512-.7.89q-.241.569-.242 1.317c0 .75.18 1.352.54 1.797q.532.663 1.429.664m-6.02-5.692h1.16q1.063.001 1.063 1.075 0 1.071-1.09 1.07H9.61Zm0 3.024h1.141l1.512 2.566h1.136l-1.668-2.761q.615-.244.938-.7.321-.458.32-1.093 0-.879-.574-1.395-.573-.521-1.527-.52H8.473v6.47h1.136Zm0 0" fill="rgb(83.137256%, 35.686275%, 2.745098%)" fill-rule="evenodd"/></svg>