<svg role="img" viewBox="0 0 32 32" height="32" width="32" xmlns="http://www.w3.org/2000/svg"><path d="M20.254 15.57c.18-.246.465-.37.844-.37.367 0 .71.109 1.035.335v2.387a1.712 1.712 0 0 1-1.043.367c-.742 0-1.113-.523-1.113-1.57 0-.516.093-.899.277-1.149m.508 3.567c.508.004.996-.184 1.37-.524v.403c0 .484-.105.836-.316 1.05-.21.215-.55.32-1.02.32-.456 0-.976-.097-1.558-.288v.785a3.647 3.647 0 0 0 1.633.383c.758 0 1.34-.207 1.75-.618.41-.41.613-.992.613-1.746V14.48h-.933l-.094.43a1.981 1.981 0 0 0-1.41-.57 1.75 1.75 0 0 0-1.035.308 1.93 1.93 0 0 0-.672.856 3.072 3.072 0 0 0-.235 1.254c0 .722.176 1.297.52 1.73.344.434.809.649 1.387.649m-10.43-5.442H8.305v-.933h5.191v.933H11.47v5.535h-1.137Zm5.938.47v2.843h-1.95Zm-3.06 3.722h3.06v1.343h1.113v-1.343h.867v-.88h-.867v-4.245h-1.156l-3.016 4.293ZM6 26h20V6H6ZM30.668 8.668V7.332h-3.336v-2a.664.664 0 0 0-.664-.664h-2V1.332h-1.336v3.336h-2.664V1.332h-1.336v3.336h-2.664V1.332h-1.336v3.336h-2.664V1.332h-1.336v3.336H8.668V1.332H7.332v3.336h-2a.664.664 0 0 0-.664.664v2H1.332v1.336h3.336v2.664H1.332v1.336h3.336v2.664H1.332v1.336h3.336v2.664H1.332v1.336h3.336v2.664H1.332v1.336h3.336v2c0 .367.297.664.664.664h2v3.336h1.336v-3.336h2.664v3.336h1.336v-3.336h2.664v3.336h1.336v-3.336h2.664v3.336h1.336v-3.336h2.664v3.336h1.336v-3.336h2a.664.664 0 0 0 .664-.664v-2h3.336v-1.336h-3.336v-2.664h3.336v-1.336h-3.336v-2.664h3.336v-1.336h-3.336v-2.664h3.336v-1.336h-3.336V8.668Zm0 0" fill="rgb(83.137255%, 35.686275%, 2.745098%)" fill-rule="evenodd"/></svg>