<svg role="img" viewBox="0 0 32 32" xmlns="http://www.w3.org/2000/svg"><path d="M23.184 18.164a2.3 2.3 0 0 1-.567.332 1.5 1.5 0 0 1-.555.117q-.316 0-.5-.183-.181-.181-.183-.508 0-.757.95-.758a4 4 0 0 1 .855.106Zm-1.086-1.687q-.837 0-1.34.41-.497.41-.496 1.101-.002.622.406 1.016.404.392 1.059.39.39.002.789-.156.396-.159.722-.441l.082.46h.961v-3.35c0-.532-.144-.919-.441-1.169-.293-.25-.75-.37-1.371-.37-.344 0-.684.03-1.024.1q-.506.1-.86.278v.777q.945-.31 1.673-.308.515 0 .719.187.206.187.207.66v.551a4.7 4.7 0 0 0-1.086-.136m-5.059 2.918a4.5 4.5 0 0 1-1.789-.372v-.878q1.019.346 1.762.347 1.383 0 1.383-1.195-.002-.58-.348-.844c-.235-.18-.602-.27-1.11-.27q-.562 0-1.417.094v-.707l.175-2.78h3.512v.886h-2.473l-.105 1.726a4 4 0 0 1 .812-.074c.645 0 1.157.172 1.528.52q.552.527.554 1.43.001.97-.671 1.542c-.45.383-1.051.575-1.813.575m-8.277-.137H7.719v-6.469h1.265l1.942 3.856 1.98-3.856h1.23v6.469h-1.042V14.41l-1.68 3.223h-1.027L8.762 14.43ZM6 26h20V6H6ZM30.668 8.668V7.332h-3.336v-2a.664.664 0 0 0-.664-.664h-2V1.332h-1.336v3.336h-2.664V1.332h-1.336v3.336h-2.664V1.332h-1.336v3.336h-2.664V1.332h-1.336v3.336H8.668V1.332H7.332v3.336h-2a.664.664 0 0 0-.664.664v2H1.332v1.336h3.336v2.664H1.332v1.336h3.336v2.664H1.332v1.336h3.336v2.664H1.332v1.336h3.336v2.664H1.332v1.336h3.336v2c0 .367.297.664.664.664h2v3.336h1.336v-3.336h2.664v3.336h1.336v-3.336h2.664v3.336h1.336v-3.336h2.664v3.336h1.336v-3.336h2.664v3.336h1.336v-3.336h2a.664.664 0 0 0 .664-.664v-2h3.336v-1.336h-3.336v-2.664h3.336v-1.336h-3.336v-2.664h3.336v-1.336h-3.336v-2.664h3.336v-1.336h-3.336V8.668Zm0 0" fill="rgb(83.137256%, 35.686275%, 2.745098%)" fill-rule="evenodd"/></svg>