<svg role="img" viewBox="0 0 32 32" xmlns="http://www.w3.org/2000/svg"><path d="M.203.203h31.594v31.594H.203Zm0 0" fill="rgb(92.941177%, 44.313726%, 0%)"/><path d="M10.129 21.871h11.285V10.586H10.13ZM22.32 10.586h1.805v.902H22.32v1.801h1.805v.906H22.32v1.356h1.805v.898H22.32v1.809h1.805v.902H22.32v1.805h1.805v.906H22.32v.059c0 .46-.379.84-.843.84h-.063v1.804h-.902V22.77H18.71v1.804h-.906V22.77h-1.356v1.804h-.898V22.77h-1.809v1.804h-.902V22.77h-1.805v1.804h-.906V22.77h-.059a.84.84 0 0 1-.84-.84v-.059H7.875v-.906H9.23V19.16H7.875v-.902H9.23v-1.809H7.875v-.898H9.23v-1.356H7.875v-.906H9.23v-1.8H7.875v-.903H9.23v-.063c0-.464.38-.843.84-.843h.059V7.875h.906V9.68h1.805V7.875h.902V9.68h1.809V7.875h.898V9.68h1.356V7.875h.906V9.68h1.8V7.875h.903V9.68h.063c.464 0 .843.379.843.843ZM16.45 27.68c0 .03-.024.054-.052.054H4.32q-.022-.002-.039-.015a.05.05 0 0 1-.015-.04V15.603c0-.028.023-.051.054-.051h2.653v-.903H4.32a.955.955 0 0 0-.957.954V27.68c0 .527.43.957.957.957h12.078c.524 0 .954-.43.954-.957v-2.203h-.903ZM28.636 4.32v12.078c0 .524-.43.954-.957.954h-2.653v-.903h2.653c.03 0 .054-.023.054-.05V4.32q-.002-.022-.015-.039-.017-.013-.04-.015H15.603a.06.06 0 0 0-.036.015.05.05 0 0 0-.015.04v2.652h-.903V4.32c0-.527.43-.957.954-.957H27.68c.527 0 .957.43.957.957" fill="rgb(100%, 100%, 100%)"/></svg>