<svg role="img" viewBox="0 0 32 32" height="32" width="32" xmlns="http://www.w3.org/2000/svg"><defs><linearGradient gradientTransform="scale(32)" gradientUnits="userSpaceOnUse" id="327__326__209__208__458__457__102__101__97__96__462__461__93__92__67__66__19__18__453__452__aws-shield_svg__svg/aws-shield.svg195__svg/aws-shield.svg193__aws-shield-lp-0" x1="0" x2="1" y1="1" y2="0"><stop offset="0" stop-color="rgb(74.117647%, 3.137255%, 8.627451%)"/><stop offset="1" stop-color="rgb(100%, 32.156863%, 32.156863%)"/></linearGradient></defs><path d="M-3.2-3.2h38.4v38.4H-3.2z" fill="url(#327__326__209__208__458__457__102__101__97__96__462__461__93__92__67__66__19__18__453__452__aws-shield_svg__svg/aws-shield.svg195__svg/aws-shield.svg193__aws-shield-lp-0)"/><path d="M21.5 19.492h-1v1.5H19v1h1.5v1.5h1v-1.5H23v-1h-1.5Zm2.5 2c0-1.652-1.344-3-3-3-1.652 0-3 1.348-3 3a3 3 0 0 0 6 0m1 0c0 2.207-1.793 4-4 4-2.203 0-4-1.793-4-4s1.797-4 4-4c2.207 0 4 1.793 4 4m-11 1.645V9.297l-4 2.008v7.515c.004.172.078 4.012 4 4.317m5.5-6.414v-5.395L15 9.266v13.882c.426-.03.84-.093 1.219-.191.101.32.23.633.394.93a8.032 8.032 0 0 1-2.113.281c-5.437 0-5.5-5.293-5.5-5.348V11a.51.51 0 0 1 .277-.45l5-2.507a.484.484 0 0 1 .434-.008l5.5 2.52a.5.5 0 0 1 .289.453v5.512a4.59 4.59 0 0 0-1 .203m-1.621 8.672c.332.265.691.484 1.078.656-1.219.52-2.848.84-4.457.84-2.246 0-4.078-.711-5.441-2.11-2.641-2.71-2.563-7.015-2.559-7.199V9a.5.5 0 0 1 .29-.453l7.5-3.5a.5.5 0 0 1 .41-.004l8 3.496c.183.082.3.262.3.461v7.914a4.737 4.737 0 0 0-1-.32v-7.27l-7.492-3.273L7.5 9.316v8.278c0 .054-.07 4.09 2.277 6.496 1.168 1.195 2.758 1.8 4.723 1.8 1.195 0 2.39-.183 3.379-.495m0 0" fill="rgb(100%, 100%, 100%)" fill-rule="evenodd"/></svg>