<svg role="img" viewBox="0 0 32 32" xmlns="http://www.w3.org/2000/svg"><path d="M.203.203h31.594v31.594H.203Zm0 0" fill="rgb(86.666667%, 20.392157%, 29.803923%)"/><path d="M4.266 24.574h23.468V7.426H4.266Zm24.37-17.601v18.054c0 .246-.198.45-.448.45H3.813c-.25 0-.45-.2-.45-.45V6.973c0-.25.203-.45.45-.45h24.375a.45.45 0 0 1 .449.45M17.806 19.609h6.77v-.898h-6.77Zm5.867-2.707h2.258V16h-2.258Zm-5.867 0h3.613V16h-3.613Zm-6.77 1.809a.45.45 0 0 0-.45-.453.46.46 0 0 0-.417.215.47.47 0 0 0 0 .472c.09.145.25.227.418.215a.45.45 0 0 0 .45-.45m.902 0c0 .586-.378 1.082-.902 1.266v.988h-.906v-.988a1.35 1.35 0 0 1-.899-1.266c0-.75.61-1.36 1.356-1.36.742 0 1.351.61 1.351 1.36m-5.414 3.605 8.122.004v-1.808H12.84v-.903h1.805v-1.351H12.84v-.906h1.808v-1.348L6.528 16Zm1.352-7.218 5.414.004v-3.165c.004-1.039-1.262-1.953-2.703-1.953h-.004c-1.441 0-2.703.91-2.703 1.954Zm-2.26 7.673.004-7.22a.45.45 0 0 1 .45-.453h.902l.004-3.16c0-1.574 1.613-2.855 3.605-2.855h.004c1.988.004 3.61 1.285 3.61 2.855v3.165h.902c.25 0 .453.203.453.449l-.004 7.219c0 .12-.05.234-.133.32a.45.45 0 0 1-.32.133l-9.024-.004a.45.45 0 0 1-.453-.45m19.41-8.575h.903v-.906h-.903Zm-7.222 0h4.965v-.906h-4.965Zm0 0" fill="rgb(100%, 100%, 100%)"/></svg>