<svg role="img" viewBox="0 0 32 32" height="32" width="32" xmlns="http://www.w3.org/2000/svg"><path d="M20.93 19.215h-4.387v-.84a53.927 53.927 0 0 0 1.895-2.004c.402-.469.683-.844.835-1.133.157-.285.235-.55.235-.789 0-.289-.082-.511-.25-.668-.168-.16-.406-.238-.711-.238-.266 0-.559.059-.871.18a4.45 4.45 0 0 0-.957.52v-.915c.593-.488 1.25-.73 1.968-.73.391 0 .731.07 1.024.21.289.141.516.34.68.602.164.262.246.574.246.934 0 .347-.094.703-.285 1.058-.192.36-.5.766-.926 1.223-.422.457-1.012 1.027-1.754 1.703h3.258Zm-8.72-5.59h1.142c.351 0 .617.098.793.29.18.194.27.476.27.85 0 .372-.09.657-.27.848-.176.196-.442.29-.793.29H12.21Zm0 3.156h1.278c.64 0 1.149-.183 1.524-.543.37-.36.558-.851.558-1.472 0-.625-.187-1.118-.562-1.477-.38-.36-.89-.543-1.54-.543h-2.394v6.469h1.137ZM6 26h20V6H6ZM30.668 8.668V7.332h-3.336v-2a.664.664 0 0 0-.664-.664h-2V1.332h-1.336v3.336h-2.664V1.332h-1.336v3.336h-2.664V1.332h-1.336v3.336h-2.664V1.332h-1.336v3.336H8.668V1.332H7.332v3.336h-2a.664.664 0 0 0-.664.664v2H1.332v1.336h3.336v2.664H1.332v1.336h3.336v2.664H1.332v1.336h3.336v2.664H1.332v1.336h3.336v2.664H1.332v1.336h3.336v2c0 .367.297.664.664.664h2v3.336h1.336v-3.336h2.664v3.336h1.336v-3.336h2.664v3.336h1.336v-3.336h2.664v3.336h1.336v-3.336h2.664v3.336h1.336v-3.336h2a.664.664 0 0 0 .664-.664v-2h3.336v-1.336h-3.336v-2.664h3.336v-1.336h-3.336v-2.664h3.336v-1.336h-3.336v-2.664h3.336v-1.336h-3.336V8.668Zm0 0" fill="rgb(83.137255%, 35.686275%, 2.745098%)" fill-rule="evenodd"/></svg>