<?xml version="1.0" encoding="UTF-8"?>
<svg xmlns="http://www.w3.org/2000/svg" xmlns:xlink="http://www.w3.org/1999/xlink" width="32" height="32" viewBox="0 0 32 32">
<path fill-rule="evenodd" fill="rgb(83.137255%, 35.686275%, 2.745098%)" fill-opacity="1" d="M 6 26 L 26 26 L 26 6 L 6 6 Z M 30.667969 8.667969 L 30.667969 7.332031 L 27.332031 7.332031 L 27.332031 5.332031 C 27.332031 4.964844 27.035156 4.667969 26.667969 4.667969 L 24.667969 4.667969 L 24.667969 1.332031 L 23.332031 1.332031 L 23.332031 4.667969 L 20.667969 4.667969 L 20.667969 1.332031 L 19.332031 1.332031 L 19.332031 4.667969 L 16.667969 4.667969 L 16.667969 1.332031 L 15.332031 1.332031 L 15.332031 4.667969 L 12.667969 4.667969 L 12.667969 1.332031 L 11.332031 1.332031 L 11.332031 4.667969 L 8.667969 4.667969 L 8.667969 1.332031 L 7.332031 1.332031 L 7.332031 4.667969 L 5.332031 4.667969 C 4.964844 4.667969 4.667969 4.964844 4.667969 5.332031 L 4.667969 7.332031 L 1.332031 7.332031 L 1.332031 8.667969 L 4.667969 8.667969 L 4.667969 11.332031 L 1.332031 11.332031 L 1.332031 12.667969 L 4.667969 12.667969 L 4.667969 15.332031 L 1.332031 15.332031 L 1.332031 16.667969 L 4.667969 16.667969 L 4.667969 19.332031 L 1.332031 19.332031 L 1.332031 20.667969 L 4.667969 20.667969 L 4.667969 23.332031 L 1.332031 23.332031 L 1.332031 24.667969 L 4.667969 24.667969 L 4.667969 26.667969 C 4.667969 27.035156 4.964844 27.332031 5.332031 27.332031 L 7.332031 27.332031 L 7.332031 30.667969 L 8.667969 30.667969 L 8.667969 27.332031 L 11.332031 27.332031 L 11.332031 30.667969 L 12.667969 30.667969 L 12.667969 27.332031 L 15.332031 27.332031 L 15.332031 30.667969 L 16.667969 30.667969 L 16.667969 27.332031 L 19.332031 27.332031 L 19.332031 30.667969 L 20.667969 30.667969 L 20.667969 27.332031 L 23.332031 27.332031 L 23.332031 30.667969 L 24.667969 30.667969 L 24.667969 27.332031 L 26.667969 27.332031 C 27.035156 27.332031 27.332031 27.035156 27.332031 26.667969 L 27.332031 24.667969 L 30.667969 24.667969 L 30.667969 23.332031 L 27.332031 23.332031 L 27.332031 20.667969 L 30.667969 20.667969 L 30.667969 19.332031 L 27.332031 19.332031 L 27.332031 16.667969 L 30.667969 16.667969 L 30.667969 15.332031 L 27.332031 15.332031 L 27.332031 12.667969 L 30.667969 12.667969 L 30.667969 11.332031 L 27.332031 11.332031 L 27.332031 8.667969 Z M 20.410156 19.152344 L 19.308594 19.152344 L 19.308594 14.402344 L 20.222656 14.402344 L 20.335938 14.925781 C 20.917969 14.484375 21.527344 14.261719 22.164062 14.261719 C 22.617188 14.261719 22.960938 14.382812 23.199219 14.621094 C 23.4375 14.863281 23.558594 15.207031 23.554688 15.660156 L 23.554688 19.152344 L 22.453125 19.152344 L 22.453125 16.007812 C 22.453125 15.703125 22.390625 15.480469 22.265625 15.339844 C 22.140625 15.199219 21.941406 15.128906 21.667969 15.128906 C 21.257812 15.128906 20.839844 15.265625 20.410156 15.539062 Z M 15.074219 15.527344 C 15.269531 15.261719 15.578125 15.128906 15.992188 15.128906 C 16.378906 15.128906 16.730469 15.242188 17.046875 15.464844 L 17.046875 18.03125 C 16.699219 18.269531 16.34375 18.386719 15.976562 18.386719 C 15.179688 18.386719 14.78125 17.839844 14.78125 16.746094 C 14.78125 16.199219 14.878906 15.792969 15.074219 15.527344 M 15.628906 19.253906 C 16.183594 19.253906 16.671875 19.070312 17.09375 18.695312 L 17.207031 19.152344 L 18.148438 19.152344 L 18.148438 12.246094 L 17.046875 12.246094 L 17.046875 14.746094 C 16.664062 14.433594 16.183594 14.261719 15.6875 14.261719 C 15.269531 14.261719 14.90625 14.371094 14.601562 14.585938 C 14.296875 14.796875 14.066406 15.097656 13.902344 15.476562 C 13.742188 15.855469 13.660156 16.292969 13.660156 16.792969 C 13.660156 17.542969 13.839844 18.144531 14.199219 18.589844 C 14.554688 19.03125 15.03125 19.253906 15.628906 19.253906 M 9.609375 13.5625 L 10.769531 13.5625 C 11.476562 13.5625 11.832031 13.921875 11.832031 14.636719 C 11.832031 15.351562 11.46875 15.707031 10.742188 15.707031 L 9.609375 15.707031 Z M 9.609375 16.585938 L 10.75 16.585938 L 12.261719 19.152344 L 13.398438 19.152344 L 11.730469 16.390625 C 12.140625 16.226562 12.453125 15.996094 12.667969 15.691406 C 12.882812 15.386719 12.988281 15.019531 12.988281 14.597656 C 12.988281 14.011719 12.796875 13.546875 12.414062 13.203125 C 12.03125 12.855469 11.523438 12.683594 10.886719 12.683594 L 8.472656 12.683594 L 8.472656 19.152344 L 9.609375 19.152344 Z M 9.609375 16.585938 "/>
</svg>
