<svg role="img" viewBox="0 0 32 32" xmlns="http://www.w3.org/2000/svg"><path d="M6 26h20V6H6ZM27.332 8.668v2.664h3.336v1.336h-3.336v2.664h3.336v1.336h-3.336v2.664h3.336v1.336h-3.336v2.664h3.336v1.336h-3.336v2a.664.664 0 0 1-.664.664h-2v3.336h-1.336v-3.336h-2.664v3.336h-1.336v-3.336h-2.664v3.336h-1.336v-3.336h-2.664v3.336h-1.336v-3.336H8.668v3.336H7.332v-3.336h-2a.664.664 0 0 1-.664-.664v-2H1.332v-1.336h3.336v-2.664H1.332v-1.336h3.336v-2.664H1.332v-1.336h3.336v-2.664H1.332v-1.336h3.336V8.668H1.332V7.332h3.336v-2c0-.367.297-.664.664-.664h2V1.332h1.336v3.336h2.664V1.332h1.336v3.336h2.664V1.332h1.336v3.336h2.664V1.332h1.336v3.336h2.664V1.332h1.336v3.336h2c.367 0 .664.297.664.664v2h3.336v1.336Zm-6.11 7.41q.002 1.64 1.192 1.64.552 0 1.074-.35V14.8a1.77 1.77 0 0 0-1.054-.336q-.626.001-.918.394-.294.399-.293 1.22m-.585 1.844q-.535-.667-.535-1.797-.002-.749.242-1.316.24-.57.699-.891a1.84 1.84 0 0 1 1.082-.324q.749.001 1.363.488v-2.504h1.102v6.906h-.942l-.113-.457q-.633.563-1.465.563-.895 0-1.433-.668m-2.047.129c.445-.383.672-.895.672-1.543 0-.606-.188-1.078-.559-1.43q-.556-.521-1.527-.52a4 4 0 0 0-.809.075l.106-1.727h2.468v-.886h-3.507l-.176 2.78v.708q.85-.094 1.418-.094c.508 0 .875.09 1.11.266q.346.268.347.847 0 1.194-1.383 1.192-.742 0-1.766-.344v.879a4.5 4.5 0 0 0 1.793.371q1.141 0 1.813-.574m-10.137.433H7.406V12.02h1.27l1.941 3.851 1.98-3.851h1.231v6.464h-1.043v-4.843l-1.683 3.222h-1.024L8.453 13.66Zm0 0" fill="rgb(83.137256%, 35.686275%, 2.745098%)" fill-rule="evenodd"/></svg>