<svg role="img" viewBox="0 0 32 32" xmlns="http://www.w3.org/2000/svg"><path d="M32.215 15.648h-5.793l2.765-2.77-1.027-1.019-4.039 4.04a.73.73 0 0 0 0 1.027l4.04 4.039 1.026-1.024-2.855-2.847h5.883ZM4.5 11.86l-1.02 1.02 2.766 2.77H.453v1.445h5.879L3.48 19.94l1.02 1.024 4.047-4.043a.726.726 0 0 0 0-1.024Zm8.105 8.235h7.45v-7.446h-7.45Zm8.743-8.262h1.332v1.453H21.5v1.09h1.18v1.445H21.5v1.094h1.18v1.445H21.5v1.094h1.18v1.445h-1.332a1.24 1.24 0 0 1-.48.48v1.34h-1.446V21.54h-1.094v1.18h-1.45v-1.18h-1.093v1.18H14.34v-1.18h-1.094v1.18h-1.445v-1.34a1.2 1.2 0 0 1-.48-.48H9.98v-1.446h1.187V18.36H9.98v-1.445h1.188V15.82H9.98v-1.445h1.188v-1.094H9.98v-1.449h1.34c.114-.2.282-.367.48-.48V10.02h1.446v1.18h1.094v-1.18h1.445v1.18h1.094v-1.18h1.45v1.18h1.093v-1.18h1.445v1.332c.2.113.367.28.48.48M17.06 29.867v-5.879h-1.446v5.88l-2.812-2.81-1.02 1.02 4.04 4.043a.73.73 0 0 0 1.019 0l4.047-4.043-1.028-1.02ZM12.8 5.68l-1.02-1.02L15.82.613a.72.72 0 0 1 1.019 0l4.047 4.047-1.028 1.02-2.8-2.805v5.871h-1.446V2.875Zm0 0" fill="rgb(92.941177%, 44.313726%, 0%)"/></svg>