<svg role="img" viewBox="0 0 32 32" xmlns="http://www.w3.org/2000/svg"><path d="M22.203 18.645q.263 0 .555-.118.293-.116.562-.332v-.894a4 4 0 0 0-.851-.106q-.95.001-.95.758.001.328.184.508.183.183.5.184m1.258.644-.082-.457q-.33.278-.723.438-.397.159-.789.16-.654-.001-1.062-.395-.404-.393-.403-1.015-.001-.692.496-1.102.503-.41 1.34-.41.498 0 1.082.14v-.55q.001-.479-.203-.664-.204-.188-.719-.188-.727 0-1.671.309v-.774c.234-.12.523-.21.859-.281q.51-.104 1.023-.102.931-.001 1.371.372c.297.25.442.636.442 1.168v3.351Zm-5.918-3.062q-.603 0-1.223.328.066 1.987 1.297 1.988.498-.002.785-.309.282-.31.282-.859 0-.562-.293-.855-.293-.294-.848-.293m.492-2.668c-.558 0-.976.183-1.254.558-.273.375-.43.95-.46 1.727a2.87 2.87 0 0 1 1.57-.477q.867 0 1.394.528.527.527.527 1.406c0 .41-.093.773-.273 1.097q-.276.479-.797.754-.516.277-1.207.278-1.156 0-1.75-.797-.592-.793-.594-2.34 0-1.717.707-2.672.705-.95 1.98-.95.405 0 .81.087.405.092.695.238v.813a3.7 3.7 0 0 0-.66-.18 3.7 3.7 0 0 0-.688-.07m-4.894 5.73v-4.844l-1.68 3.22h-1.027L8.809 14.46v4.828H7.762V12.82h1.27l1.94 3.856 1.981-3.856h1.23v6.47ZM6 26h20V6H6ZM30.668 8.668V7.332h-3.336v-2a.664.664 0 0 0-.664-.664h-2V1.332h-1.336v3.336h-2.664V1.332h-1.336v3.336h-2.664V1.332h-1.336v3.336h-2.664V1.332h-1.336v3.336H8.668V1.332H7.332v3.336h-2a.664.664 0 0 0-.664.664v2H1.332v1.336h3.336v2.664H1.332v1.336h3.336v2.664H1.332v1.336h3.336v2.664H1.332v1.336h3.336v2.664H1.332v1.336h3.336v2c0 .367.297.664.664.664h2v3.336h1.336v-3.336h2.664v3.336h1.336v-3.336h2.664v3.336h1.336v-3.336h2.664v3.336h1.336v-3.336h2.664v3.336h1.336v-3.336h2a.664.664 0 0 0 .664-.664v-2h3.336v-1.336h-3.336v-2.664h3.336v-1.336h-3.336v-2.664h3.336v-1.336h-3.336v-2.664h3.336v-1.336h-3.336V8.668Zm0 0" fill="rgb(83.137256%, 35.686275%, 2.745098%)" fill-rule="evenodd"/></svg>