<?xml version="1.0" encoding="UTF-8"?>
<svg xmlns="http://www.w3.org/2000/svg" xmlns:xlink="http://www.w3.org/1999/xlink" width="32" height="32" viewBox="0 0 32 32">
<path fill-rule="evenodd" fill="rgb(83.137255%, 35.686275%, 2.745098%)" fill-opacity="1" d="M 20.371094 19.199219 L 19.269531 19.199219 L 19.269531 14.449219 L 20.1875 14.449219 L 20.296875 14.972656 C 20.882812 14.53125 21.492188 14.308594 22.128906 14.308594 C 22.582031 14.308594 22.925781 14.429688 23.164062 14.667969 C 23.398438 14.910156 23.519531 15.253906 23.519531 15.710938 L 23.519531 19.199219 L 22.417969 19.199219 L 22.417969 16.054688 C 22.417969 15.75 22.355469 15.527344 22.230469 15.386719 C 22.105469 15.246094 21.90625 15.175781 21.632812 15.175781 C 21.222656 15.175781 20.800781 15.3125 20.371094 15.589844 Z M 15.984375 19.339844 C 15.367188 19.339844 14.757812 19.214844 14.195312 18.964844 L 14.195312 18.089844 C 14.875 18.320312 15.460938 18.433594 15.957031 18.433594 C 16.878906 18.433594 17.339844 18.035156 17.339844 17.238281 C 17.339844 16.855469 17.222656 16.574219 16.992188 16.394531 C 16.757812 16.21875 16.390625 16.128906 15.882812 16.128906 C 15.507812 16.128906 15.035156 16.160156 14.464844 16.222656 L 14.464844 15.511719 L 14.640625 12.730469 L 18.152344 12.730469 L 18.152344 13.617188 L 15.679688 13.617188 L 15.574219 15.34375 C 15.84375 15.292969 16.113281 15.269531 16.386719 15.269531 C 17.03125 15.269531 17.542969 15.445312 17.914062 15.792969 C 18.28125 16.140625 18.46875 16.617188 18.46875 17.222656 C 18.46875 17.867188 18.246094 18.382812 17.796875 18.765625 C 17.347656 19.148438 16.746094 19.339844 15.984375 19.339844 M 9.269531 18.492188 C 8.746094 17.941406 8.480469 17.132812 8.480469 16.0625 C 8.480469 14.960938 8.753906 14.113281 9.300781 13.519531 C 9.84375 12.925781 10.625 12.628906 11.644531 12.628906 C 12.207031 12.628906 12.722656 12.714844 13.195312 12.882812 L 13.195312 13.816406 C 12.574219 13.683594 12.089844 13.617188 11.738281 13.617188 C 11.027344 13.617188 10.503906 13.800781 10.15625 14.167969 C 9.8125 14.535156 9.640625 15.101562 9.640625 15.867188 L 9.640625 16.09375 C 9.640625 16.851562 9.808594 17.414062 10.152344 17.777344 C 10.492188 18.140625 11.015625 18.324219 11.71875 18.324219 C 12.113281 18.324219 12.636719 18.246094 13.289062 18.089844 L 13.289062 19.023438 C 12.796875 19.214844 12.238281 19.3125 11.609375 19.3125 C 10.574219 19.3125 9.796875 19.039062 9.269531 18.492188 M 6 26 L 26 26 L 26 6 L 6 6 Z M 30.667969 8.667969 L 30.667969 7.332031 L 27.332031 7.332031 L 27.332031 5.332031 C 27.332031 4.964844 27.035156 4.667969 26.667969 4.667969 L 24.667969 4.667969 L 24.667969 1.332031 L 23.332031 1.332031 L 23.332031 4.667969 L 20.667969 4.667969 L 20.667969 1.332031 L 19.332031 1.332031 L 19.332031 4.667969 L 16.667969 4.667969 L 16.667969 1.332031 L 15.332031 1.332031 L 15.332031 4.667969 L 12.667969 4.667969 L 12.667969 1.332031 L 11.332031 1.332031 L 11.332031 4.667969 L 8.667969 4.667969 L 8.667969 1.332031 L 7.332031 1.332031 L 7.332031 4.667969 L 5.332031 4.667969 C 4.964844 4.667969 4.667969 4.964844 4.667969 5.332031 L 4.667969 7.332031 L 1.332031 7.332031 L 1.332031 8.667969 L 4.667969 8.667969 L 4.667969 11.332031 L 1.332031 11.332031 L 1.332031 12.667969 L 4.667969 12.667969 L 4.667969 15.332031 L 1.332031 15.332031 L 1.332031 16.667969 L 4.667969 16.667969 L 4.667969 19.332031 L 1.332031 19.332031 L 1.332031 20.667969 L 4.667969 20.667969 L 4.667969 23.332031 L 1.332031 23.332031 L 1.332031 24.667969 L 4.667969 24.667969 L 4.667969 26.667969 C 4.667969 27.035156 4.964844 27.332031 5.332031 27.332031 L 7.332031 27.332031 L 7.332031 30.667969 L 8.667969 30.667969 L 8.667969 27.332031 L 11.332031 27.332031 L 11.332031 30.667969 L 12.667969 30.667969 L 12.667969 27.332031 L 15.332031 27.332031 L 15.332031 30.667969 L 16.667969 30.667969 L 16.667969 27.332031 L 19.332031 27.332031 L 19.332031 30.667969 L 20.667969 30.667969 L 20.667969 27.332031 L 23.332031 27.332031 L 23.332031 30.667969 L 24.667969 30.667969 L 24.667969 27.332031 L 26.667969 27.332031 C 27.035156 27.332031 27.332031 27.035156 27.332031 26.667969 L 27.332031 24.667969 L 30.667969 24.667969 L 30.667969 23.332031 L 27.332031 23.332031 L 27.332031 20.667969 L 30.667969 20.667969 L 30.667969 19.332031 L 27.332031 19.332031 L 27.332031 16.667969 L 30.667969 16.667969 L 30.667969 15.332031 L 27.332031 15.332031 L 27.332031 12.667969 L 30.667969 12.667969 L 30.667969 11.332031 L 27.332031 11.332031 L 27.332031 8.667969 Z M 30.667969 8.667969 "/>
</svg>
