<svg role="img" viewBox="0 0 32 32" height="32" width="32" xmlns="http://www.w3.org/2000/svg"><path d="M6 26h20V6H6ZM27.332 8.668v2.664h3.336v1.336h-3.336v2.664h3.336v1.336h-3.336v2.664h3.336v1.336h-3.336v2.664h3.336v1.336h-3.336v2a.664.664 0 0 1-.664.664h-2v3.336h-1.336v-3.336h-2.664v3.336h-1.336v-3.336h-2.664v3.336h-1.336v-3.336h-2.664v3.336h-1.336v-3.336H8.668v3.336H7.332v-3.336h-2a.664.664 0 0 1-.664-.664v-2H1.332v-1.336h3.336v-2.664H1.332v-1.336h3.336v-2.664H1.332v-1.336h3.336v-2.664H1.332v-1.336h3.336V8.668H1.332V7.332h3.336v-2c0-.367.297-.664.664-.664h2V1.332h1.336v3.336h2.664V1.332h1.336v3.336h2.664V1.332h1.336v3.336h2.664V1.332h1.336v3.336h2.664V1.332h1.336v3.336h2c.367 0 .664.297.664.664v2h3.336v1.336ZM22.75 18.59c.512 0 .95-.098 1.316-.29v-.777a3.74 3.74 0 0 1-1.101.188c-.465 0-.809-.125-1.031-.371-.22-.25-.332-.637-.332-1.16v-.121c0-.528.113-.918.332-1.172.222-.25.566-.375 1.03-.375.294 0 .65.058 1.067.175v-.773a2.741 2.741 0 0 0-1.242-.281c-.727 0-1.293.219-1.7.664-.405.441-.605 1.058-.605 1.855 0 .778.196 1.38.586 1.801.395.426.953.637 1.68.637m-4.187-2.094a4.49 4.49 0 0 0-.856-.101c-.633 0-.95.253-.95.757 0 .22.063.387.184.508.122.121.29.184.5.184.176 0 .36-.04.555-.117.195-.079.383-.188.567-.332Zm0-.652v-.551c0-.316-.07-.535-.208-.66-.136-.125-.375-.188-.718-.188-.485 0-1.043.102-1.672.309v-.777c.234-.118.523-.211.86-.278.34-.07.679-.105 1.023-.105.62 0 1.078.125 1.37.375.298.25.442.636.442 1.168v3.347h-.96l-.083-.457c-.219.188-.46.336-.722.442-.25.101-.52.156-.79.156-.437 0-.789-.129-1.058-.39-.274-.262-.406-.602-.406-1.02 0-.457.164-.824.496-1.098.336-.277.781-.414 1.34-.414.332 0 .691.047 1.085.14m-9.234 2.641H8.285V12.02h1.27l1.941 3.851 1.977-3.851h1.234v6.464H13.66v-4.843l-1.68 3.222h-1.027L9.328 13.66Zm0 0" fill="rgb(83.137255%, 35.686275%, 2.745098%)" fill-rule="evenodd"/></svg>