<svg role="img" viewBox="0 0 49.92 32" xmlns="http://www.w3.org/2000/svg"><path d="M14.906 27.43c4.563 0 8.59-2.75 10.266-6.918h17.836c.328 0 .64-.149.86-.399l2.589-3.023a1.137 1.137 0 0 0-.113-1.59l-3.457-3.027a1.15 1.15 0 0 0-.75-.282h-2.125l-2.258-2.257a1.134 1.134 0 0 0-1.602 0l-2.265 2.257h-.785l-2.266-2.257a1.134 1.134 0 0 0-1.602 0L26.97 12.19h-1.797a11.01 11.01 0 0 0-10.266-6.918c-6.105 0-11.078 4.973-11.078 11.079 0 6.105 4.973 11.078 11.078 11.078m0-19.89a8.77 8.77 0 0 1 8.39 6.124c.145.473.583.793 1.075.793h3.07c.301 0 .59-.121.801-.332l1.793-1.793 1.793 1.793c.211.21.5.332.8.332h1.735c.301 0 .582-.121.797-.332l1.793-1.793 1.793 1.793c.211.21.5.332.8.332h2.169l2.293 2.012-1.524 1.777H24.371c-.492 0-.93.32-1.074.79a8.77 8.77 0 0 1-8.39 6.128c-4.86 0-8.813-3.953-8.813-8.812 0-4.856 3.953-8.813 8.812-8.813M11.88 20.511a4.166 4.166 0 0 0 4.16-4.16 4.166 4.166 0 0 0-4.16-4.16 4.17 4.17 0 0 0-4.16 4.16 4.17 4.17 0 0 0 4.16 4.16m0-6.055c1.043 0 1.894.852 1.894 1.895s-.847 1.89-1.894 1.894a1.904 1.904 0 0 1-1.895-1.894 1.9 1.9 0 0 1 1.895-1.895M49.07.32H1.492C.872.32.36.824.36 1.453v29.735c0 .625.512 1.132 1.133 1.132H49.07c.625 0 1.133-.508 1.133-1.133V1.453c0-.3-.117-.59-.332-.8a1.12 1.12 0 0 0-.8-.333M2.625 30.055V2.585h45.313v27.47Zm0 0" fill="rgb(86.666667%, 20.392157%, 29.803923%)"/></svg>