<svg role="img" viewBox="0 0 32 32" height="32" width="32" xmlns="http://www.w3.org/2000/svg"><path d="M6 26h20V6H6ZM27.332 8.668v2.664h3.336v1.336h-3.336v2.664h3.336v1.336h-3.336v2.664h3.336v1.336h-3.336v2.664h3.336v1.336h-3.336v2a.664.664 0 0 1-.664.664h-2v3.336h-1.336v-3.336h-2.664v3.336h-1.336v-3.336h-2.664v3.336h-1.336v-3.336h-2.664v3.336h-1.336v-3.336H8.668v3.336H7.332v-3.336h-2a.664.664 0 0 1-.664-.664v-2H1.332v-1.336h3.336v-2.664H1.332v-1.336h3.336v-2.664H1.332v-1.336h3.336v-2.664H1.332v-1.336h3.336V8.668H1.332V7.332h3.336v-2c0-.367.297-.664.664-.664h2V1.332h1.336v3.336h2.664V1.332h1.336v3.336h2.664V1.332h1.336v3.336h2.664V1.332h1.336v3.336h2.664V1.332h1.336v3.336h2c.367 0 .664.297.664.664v2h3.336v1.336Zm-4.973 6.828c.278-.176.547-.262.813-.262.176 0 .3.043.383.133.078.09.117.235.12.43v2.023h.708v-2.246c0-.293-.078-.515-.23-.668-.15-.156-.372-.23-.665-.23-.406 0-.797.14-1.175.426l-.075-.336h-.586v3.054h.707Zm-3.437.774c0 .707.258 1.058.77 1.058.234 0 .464-.078.687-.23v-1.649a1.106 1.106 0 0 0-.676-.215c-.27 0-.465.082-.59.254-.129.168-.191.43-.191.782m-.375 1.187c-.23-.289-.344-.672-.344-1.156 0-.32.05-.602.156-.848.094-.23.25-.426.45-.57.195-.14.425-.207.695-.207.32 0 .613.101.875.312v-1.61h.71v4.442h-.609l-.07-.297c-.273.243-.586.36-.941.36-.383 0-.692-.14-.922-.426m-2.524-1.469h1.317v-.047c0-.246-.05-.43-.152-.558-.102-.13-.247-.192-.442-.192a.625.625 0 0 0-.5.215c-.129.145-.203.34-.223.582m-.328 1.512c-.261-.27-.39-.668-.39-1.187 0-.516.125-.918.379-1.208.254-.285.609-.43 1.066-.43.39 0 .691.106.902.321.211.215.317.516.317.91 0 .207-.02.39-.055.555h-1.89c.011.305.093.527.246.672.152.14.386.21.707.21.285 0 .593-.054.925-.167v.5a2.07 2.07 0 0 1-.484.172 2.797 2.797 0 0 1-.578.062c-.504 0-.887-.137-1.145-.41m-1.175-3.238a.422.422 0 0 0 .312-.11.409.409 0 0 0 .113-.3.432.432 0 0 0-.113-.301.454.454 0 0 0-.312-.106.436.436 0 0 0-.313.106.409.409 0 0 0-.113.3c0 .13.035.231.113.301.074.075.18.11.313.11m-.356 3.558h.707v-3.054h-.707Zm-.48-.57H11.59c.48-.437.855-.8 1.129-1.098.273-.293.472-.554.594-.785.124-.23.187-.457.187-.68 0-.234-.055-.433-.16-.601a1.022 1.022 0 0 0-.438-.387 1.464 1.464 0 0 0-.656-.133 1.94 1.94 0 0 0-1.266.465v.59c.207-.144.41-.254.614-.332.203-.078.39-.117.562-.117.196 0 .348.05.453.152.11.102.164.246.164.43 0 .156-.05.324-.152.508-.098.183-.277.425-.539.726-.258.301-.664.73-1.219 1.29v.542h2.82Zm-6.54.57 1.391-2.156-1.293-2.004h.73l.989 1.477.969-1.477h.73l-1.3 1.992 1.398 2.168h-.735l-1.09-1.644-1.058 1.644Zm0 0" fill="rgb(83.137255%, 35.686275%, 2.745098%)" fill-rule="evenodd"/></svg>