<svg role="img" viewBox="0 0 32 32" xmlns="http://www.w3.org/2000/svg"><path d="M21.313 19.219h-4.387v-.84q1.284-1.306 1.894-2.008.606-.696.836-1.129.235-.428.235-.793.001-.429-.25-.664-.254-.241-.711-.242a2.4 2.4 0 0 0-.871.184 4.6 4.6 0 0 0-.957.515v-.914q.89-.726 1.968-.726.584 0 1.024.21.433.21.68.602c.163.262.246.57.246.934q.001.52-.286 1.058-.287.539-.925 1.223a31 31 0 0 1-1.758 1.703h3.262Zm-9.485-.895v-4.676h.942q1.933 0 1.933 2.23v.204q0 2.24-1.933 2.242Zm3.262.055q.769-.839.77-2.41c0-1.04-.255-1.832-.762-2.387-.504-.555-1.239-.832-2.196-.832h-2.214v6.469h2.203c.953 0 1.683-.282 2.199-.84M6 26h20V6H6ZM30.668 8.668V7.332h-3.336v-2a.664.664 0 0 0-.664-.664h-2V1.332h-1.336v3.336h-2.664V1.332h-1.336v3.336h-2.664V1.332h-1.336v3.336h-2.664V1.332h-1.336v3.336H8.668V1.332H7.332v3.336h-2a.664.664 0 0 0-.664.664v2H1.332v1.336h3.336v2.664H1.332v1.336h3.336v2.664H1.332v1.336h3.336v2.664H1.332v1.336h3.336v2.664H1.332v1.336h3.336v2c0 .367.297.664.664.664h2v3.336h1.336v-3.336h2.664v3.336h1.336v-3.336h2.664v3.336h1.336v-3.336h2.664v3.336h1.336v-3.336h2.664v3.336h1.336v-3.336h2a.664.664 0 0 0 .664-.664v-2h3.336v-1.336h-3.336v-2.664h3.336v-1.336h-3.336v-2.664h3.336v-1.336h-3.336v-2.664h3.336v-1.336h-3.336V8.668Zm0 0" fill="rgb(83.137256%, 35.686275%, 2.745098%)" fill-rule="evenodd"/></svg>