<svg role="img" viewBox="0 0 32 32" xmlns="http://www.w3.org/2000/svg"><path d="M20.957 19.195H16.57v-.84q1.288-1.305 1.895-2.007.604-.696.84-1.13.234-.428.234-.792-.001-.428-.254-.668-.25-.236-.707-.238c-.27 0-.558.062-.875.183a4.6 4.6 0 0 0-.957.52v-.918c.594-.485 1.254-.727 1.969-.727q.584 0 1.023.211.439.21.684.602.246.39.246.933-.001.521-.29 1.059c-.19.36-.5.765-.921 1.222a31 31 0 0 1-1.758 1.704h3.258Zm-8.262-5.535h-2.023v-.933h5.187v.933h-2.023v5.535h-1.14ZM6 26h20V6H6ZM30.668 8.668V7.332h-3.336v-2a.664.664 0 0 0-.664-.664h-2V1.332h-1.336v3.336h-2.664V1.332h-1.336v3.336h-2.664V1.332h-1.336v3.336h-2.664V1.332h-1.336v3.336H8.668V1.332H7.332v3.336h-2a.664.664 0 0 0-.664.664v2H1.332v1.336h3.336v2.664H1.332v1.336h3.336v2.664H1.332v1.336h3.336v2.664H1.332v1.336h3.336v2.664H1.332v1.336h3.336v2c0 .367.297.664.664.664h2v3.336h1.336v-3.336h2.664v3.336h1.336v-3.336h2.664v3.336h1.336v-3.336h2.664v3.336h1.336v-3.336h2.664v3.336h1.336v-3.336h2a.664.664 0 0 0 .664-.664v-2h3.336v-1.336h-3.336v-2.664h3.336v-1.336h-3.336v-2.664h3.336v-1.336h-3.336v-2.664h3.336v-1.336h-3.336V8.668Zm0 0" fill="rgb(83.137256%, 35.686275%, 2.745098%)" fill-rule="evenodd"/></svg>