<?xml version="1.0" encoding="UTF-8"?>
<svg xmlns="http://www.w3.org/2000/svg" xmlns:xlink="http://www.w3.org/1999/xlink" width="32" height="32" viewBox="0 0 32 32">
<path fill-rule="evenodd" fill="rgb(83.137255%, 35.686275%, 2.745098%)" fill-opacity="1" d="M 6 26 L 26 26 L 26 6 L 6 6 Z M 27.332031 8.667969 L 27.332031 11.332031 L 30.667969 11.332031 L 30.667969 12.667969 L 27.332031 12.667969 L 27.332031 15.332031 L 30.667969 15.332031 L 30.667969 16.667969 L 27.332031 16.667969 L 27.332031 19.332031 L 30.667969 19.332031 L 30.667969 20.667969 L 27.332031 20.667969 L 27.332031 23.332031 L 30.667969 23.332031 L 30.667969 24.667969 L 27.332031 24.667969 L 27.332031 26.667969 C 27.332031 27.035156 27.035156 27.332031 26.667969 27.332031 L 24.667969 27.332031 L 24.667969 30.667969 L 23.332031 30.667969 L 23.332031 27.332031 L 20.667969 27.332031 L 20.667969 30.667969 L 19.332031 30.667969 L 19.332031 27.332031 L 16.667969 27.332031 L 16.667969 30.667969 L 15.332031 30.667969 L 15.332031 27.332031 L 12.667969 27.332031 L 12.667969 30.667969 L 11.332031 30.667969 L 11.332031 27.332031 L 8.667969 27.332031 L 8.667969 30.667969 L 7.332031 30.667969 L 7.332031 27.332031 L 5.332031 27.332031 C 4.964844 27.332031 4.667969 27.035156 4.667969 26.667969 L 4.667969 24.667969 L 1.332031 24.667969 L 1.332031 23.332031 L 4.667969 23.332031 L 4.667969 20.667969 L 1.332031 20.667969 L 1.332031 19.332031 L 4.667969 19.332031 L 4.667969 16.667969 L 1.332031 16.667969 L 1.332031 15.332031 L 4.667969 15.332031 L 4.667969 12.667969 L 1.332031 12.667969 L 1.332031 11.332031 L 4.667969 11.332031 L 4.667969 8.667969 L 1.332031 8.667969 L 1.332031 7.332031 L 4.667969 7.332031 L 4.667969 5.332031 C 4.667969 4.964844 4.964844 4.667969 5.332031 4.667969 L 7.332031 4.667969 L 7.332031 1.332031 L 8.667969 1.332031 L 8.667969 4.667969 L 11.332031 4.667969 L 11.332031 1.332031 L 12.667969 1.332031 L 12.667969 4.667969 L 15.332031 4.667969 L 15.332031 1.332031 L 16.667969 1.332031 L 16.667969 4.667969 L 19.332031 4.667969 L 19.332031 1.332031 L 20.667969 1.332031 L 20.667969 4.667969 L 23.332031 4.667969 L 23.332031 1.332031 L 24.667969 1.332031 L 24.667969 4.667969 L 26.667969 4.667969 C 27.035156 4.667969 27.332031 4.964844 27.332031 5.332031 L 27.332031 7.332031 L 30.667969 7.332031 L 30.667969 8.667969 Z M 21.820312 17.84375 C 21.820312 17.957031 21.851562 18.042969 21.921875 18.109375 C 22 18.175781 22.097656 18.210938 22.199219 18.203125 C 22.300781 18.207031 22.398438 18.175781 22.476562 18.109375 C 22.546875 18.039062 22.582031 17.941406 22.574219 17.84375 C 22.582031 17.746094 22.546875 17.644531 22.476562 17.574219 C 22.398438 17.507812 22.300781 17.476562 22.199219 17.480469 C 22.097656 17.472656 22 17.507812 21.921875 17.574219 C 21.847656 17.644531 21.8125 17.742188 21.820312 17.84375 M 21.882812 21.367188 L 22.511719 21.367188 L 22.511719 18.652344 L 21.882812 18.652344 Z M 19.273438 19.992188 C 19.273438 20.617188 19.503906 20.929688 19.957031 20.929688 C 20.167969 20.929688 20.371094 20.863281 20.570312 20.726562 L 20.570312 19.261719 C 20.394531 19.136719 20.183594 19.066406 19.96875 19.070312 C 19.730469 19.070312 19.554688 19.144531 19.441406 19.296875 C 19.332031 19.445312 19.273438 19.679688 19.273438 19.992188 M 19.171875 18.757812 C 19.347656 18.632812 19.554688 18.574219 19.792969 18.574219 C 20.074219 18.574219 20.335938 18.664062 20.570312 18.851562 L 20.570312 17.421875 L 21.199219 17.421875 L 21.199219 21.367188 L 20.660156 21.367188 L 20.597656 21.105469 C 20.355469 21.320312 20.074219 21.425781 19.761719 21.425781 C 19.417969 21.425781 19.144531 21.300781 18.941406 21.042969 C 18.738281 20.789062 18.632812 20.449219 18.632812 20.019531 C 18.632812 19.734375 18.679688 19.484375 18.773438 19.265625 C 18.867188 19.050781 19 18.878906 19.171875 18.757812 M 15.738281 18.652344 L 15.738281 20.632812 C 15.738281 20.894531 15.808594 21.097656 15.945312 21.238281 C 16.082031 21.378906 16.273438 21.449219 16.527344 21.449219 C 16.859375 21.449219 17.191406 21.320312 17.523438 21.070312 L 17.589844 21.367188 L 18.113281 21.367188 L 18.113281 18.652344 L 17.484375 18.652344 L 17.484375 20.734375 C 17.257812 20.878906 17.035156 20.953125 16.816406 20.953125 C 16.660156 20.953125 16.546875 20.910156 16.476562 20.828125 C 16.402344 20.746094 16.367188 20.621094 16.367188 20.445312 L 16.367188 18.652344 Z M 14.527344 20.230469 C 14.367188 20.195312 14.203125 20.175781 14.039062 20.171875 C 13.675781 20.171875 13.496094 20.316406 13.496094 20.605469 C 13.496094 20.730469 13.535156 20.824219 13.601562 20.894531 C 13.671875 20.964844 13.765625 21 13.886719 21 C 13.996094 20.996094 14.105469 20.976562 14.207031 20.933594 C 14.316406 20.886719 14.425781 20.824219 14.527344 20.742188 Z M 13.042969 18.792969 C 13.179688 18.722656 13.34375 18.671875 13.535156 18.632812 C 13.730469 18.59375 13.925781 18.574219 14.121094 18.574219 C 14.476562 18.574219 14.734375 18.644531 14.902344 18.785156 C 15.074219 18.929688 15.15625 19.152344 15.15625 19.453125 L 15.15625 21.367188 L 14.605469 21.367188 L 14.558594 21.105469 C 14.4375 21.210938 14.296875 21.292969 14.148438 21.355469 C 14.003906 21.414062 13.851562 21.449219 13.695312 21.449219 C 13.472656 21.457031 13.253906 21.375 13.089844 21.222656 C 12.933594 21.070312 12.851562 20.859375 12.859375 20.640625 C 12.851562 20.398438 12.957031 20.164062 13.144531 20.011719 C 13.335938 19.855469 13.589844 19.777344 13.910156 19.777344 C 14.097656 19.777344 14.304688 19.804688 14.527344 19.859375 L 14.527344 19.542969 C 14.527344 19.363281 14.488281 19.234375 14.410156 19.164062 C 14.332031 19.09375 14.195312 19.058594 14 19.058594 C 13.722656 19.058594 13.402344 19.117188 13.042969 19.234375 Z M 11.007812 19.859375 L 11.769531 19.859375 L 11.769531 20.835938 C 11.605469 20.867188 11.4375 20.882812 11.269531 20.882812 C 10.839844 20.882812 10.523438 20.777344 10.320312 20.570312 C 10.121094 20.363281 10.019531 20.035156 10.019531 19.589844 L 10.019531 19.480469 C 10.019531 19.027344 10.121094 18.695312 10.324219 18.480469 C 10.527344 18.269531 10.839844 18.160156 11.261719 18.160156 C 11.574219 18.160156 11.921875 18.222656 12.292969 18.347656 L 12.292969 17.832031 C 11.953125 17.679688 11.585938 17.605469 11.214844 17.613281 C 10.617188 17.613281 10.15625 17.777344 9.839844 18.113281 C 9.519531 18.445312 9.359375 18.921875 9.359375 19.542969 C 9.359375 20.15625 9.515625 20.621094 9.824219 20.945312 C 10.136719 21.269531 10.585938 21.429688 11.175781 21.429688 C 11.40625 21.429688 11.632812 21.40625 11.851562 21.359375 C 12.050781 21.320312 12.242188 21.253906 12.421875 21.160156 L 12.421875 19.347656 L 11.007812 19.347656 Z M 24.164062 13.832031 C 24.003906 13.796875 23.839844 13.777344 23.675781 13.773438 C 23.316406 13.773438 23.136719 13.917969 23.136719 14.203125 C 23.128906 14.3125 23.164062 14.417969 23.238281 14.496094 C 23.308594 14.566406 23.402344 14.597656 23.523438 14.597656 C 23.632812 14.597656 23.742188 14.574219 23.84375 14.53125 C 23.953125 14.488281 24.0625 14.425781 24.164062 14.34375 Z M 24.164062 13.457031 L 24.164062 13.144531 C 24.164062 12.960938 24.125 12.835938 24.046875 12.765625 C 23.96875 12.695312 23.832031 12.65625 23.636719 12.65625 C 23.3125 12.664062 22.988281 12.726562 22.683594 12.835938 L 22.683594 12.390625 C 22.839844 12.316406 23.003906 12.261719 23.175781 12.230469 C 23.367188 12.191406 23.5625 12.171875 23.757812 12.171875 C 24.113281 12.171875 24.375 12.242188 24.542969 12.386719 C 24.710938 12.527344 24.792969 12.75 24.792969 13.050781 L 24.792969 14.96875 L 24.246094 14.96875 L 24.199219 14.707031 C 24.074219 14.8125 23.933594 14.894531 23.785156 14.957031 C 23.632812 15.015625 23.484375 15.046875 23.332031 15.046875 C 23.109375 15.054688 22.890625 14.976562 22.726562 14.824219 C 22.574219 14.667969 22.492188 14.460938 22.496094 14.242188 C 22.488281 14 22.59375 13.765625 22.78125 13.613281 C 22.972656 13.457031 23.226562 13.378906 23.546875 13.378906 C 23.753906 13.382812 23.960938 13.40625 24.164062 13.457031 M 20.222656 12.902344 C 20.46875 12.746094 20.707031 12.667969 20.945312 12.667969 C 21.101562 12.667969 21.214844 12.707031 21.285156 12.789062 C 21.355469 12.867188 21.390625 12.996094 21.390625 13.171875 L 21.390625 14.96875 L 22.019531 14.96875 L 22.019531 12.972656 C 22.019531 12.714844 21.953125 12.515625 21.820312 12.378906 C 21.683594 12.242188 21.484375 12.171875 21.226562 12.171875 C 20.863281 12.171875 20.515625 12.300781 20.179688 12.550781 L 20.117188 12.253906 L 19.59375 12.253906 L 19.59375 14.96875 L 20.222656 14.96875 Z M 18.355469 13.832031 C 18.195312 13.796875 18.03125 13.777344 17.867188 13.773438 C 17.507812 13.773438 17.328125 13.917969 17.328125 14.203125 C 17.320312 14.308594 17.359375 14.414062 17.429688 14.496094 C 17.5 14.566406 17.597656 14.597656 17.71875 14.597656 C 17.820312 14.597656 17.925781 14.578125 18.035156 14.53125 C 18.144531 14.488281 18.253906 14.425781 18.355469 14.34375 Z M 18.355469 13.457031 L 18.355469 13.144531 C 18.355469 12.960938 18.316406 12.835938 18.238281 12.765625 C 18.160156 12.695312 18.023438 12.65625 17.828125 12.65625 C 17.550781 12.65625 17.234375 12.714844 16.875 12.835938 L 16.875 12.390625 C 17.007812 12.324219 17.171875 12.269531 17.367188 12.230469 C 17.558594 12.191406 17.753906 12.171875 17.949219 12.171875 C 18.304688 12.171875 18.566406 12.242188 18.734375 12.386719 C 18.902344 12.527344 18.984375 12.75 18.984375 13.050781 L 18.984375 14.96875 L 18.4375 14.96875 L 18.390625 14.707031 C 18.269531 14.8125 18.128906 14.898438 17.976562 14.957031 C 17.824219 15.015625 17.675781 15.046875 17.523438 15.046875 C 17.277344 15.046875 17.074219 14.972656 16.921875 14.824219 C 16.765625 14.671875 16.679688 14.460938 16.6875 14.242188 C 16.675781 14 16.785156 13.765625 16.972656 13.613281 C 17.164062 13.457031 17.417969 13.378906 17.738281 13.378906 C 17.925781 13.378906 18.132812 13.40625 18.355469 13.457031 M 14.390625 14.320312 C 14.589844 14.460938 14.800781 14.53125 15.023438 14.53125 C 15.25 14.53125 15.421875 14.453125 15.53125 14.296875 C 15.640625 14.144531 15.695312 13.90625 15.695312 13.589844 C 15.695312 13.277344 15.640625 13.046875 15.535156 12.894531 C 15.425781 12.746094 15.257812 12.667969 15.03125 12.667969 C 14.796875 12.667969 14.585938 12.734375 14.390625 12.871094 Z M 14.28125 14.96875 L 13.761719 14.96875 L 13.761719 11.019531 L 14.390625 11.019531 L 14.390625 12.492188 C 14.640625 12.28125 14.921875 12.171875 15.226562 12.171875 C 15.566406 12.171875 15.832031 12.300781 16.035156 12.550781 C 16.234375 12.804688 16.335938 13.144531 16.335938 13.570312 C 16.335938 13.855469 16.289062 14.105469 16.199219 14.324219 C 16.105469 14.542969 15.972656 14.714844 15.796875 14.839844 C 15.617188 14.964844 15.402344 15.03125 15.183594 15.027344 C 14.871094 15.027344 14.574219 14.90625 14.347656 14.691406 Z M 12.523438 13.832031 C 12.363281 13.796875 12.199219 13.777344 12.035156 13.773438 C 11.671875 13.773438 11.492188 13.917969 11.492188 14.203125 C 11.492188 14.328125 11.527344 14.425781 11.597656 14.496094 C 11.667969 14.566406 11.761719 14.597656 11.882812 14.597656 C 11.984375 14.597656 12.089844 14.578125 12.199219 14.53125 C 12.3125 14.488281 12.417969 14.425781 12.523438 14.34375 Z M 12.523438 13.457031 L 12.523438 13.144531 C 12.523438 12.960938 12.484375 12.835938 12.40625 12.765625 C 12.328125 12.695312 12.191406 12.65625 11.996094 12.65625 C 11.71875 12.65625 11.398438 12.714844 11.039062 12.835938 L 11.039062 12.390625 C 11.175781 12.324219 11.335938 12.269531 11.53125 12.230469 C 11.726562 12.191406 11.917969 12.171875 12.113281 12.171875 C 12.46875 12.171875 12.730469 12.242188 12.898438 12.386719 C 13.066406 12.527344 13.152344 12.75 13.152344 13.050781 L 13.152344 14.96875 L 12.601562 14.96875 L 12.554688 14.707031 C 12.433594 14.8125 12.292969 14.898438 12.140625 14.957031 C 11.996094 15.015625 11.84375 15.046875 11.691406 15.046875 C 11.441406 15.046875 11.238281 14.972656 11.085938 14.824219 C 10.929688 14.671875 10.84375 14.460938 10.851562 14.242188 C 10.84375 14 10.949219 13.765625 11.136719 13.613281 C 11.328125 13.457031 11.585938 13.378906 11.902344 13.378906 C 12.09375 13.378906 12.296875 13.40625 12.523438 13.457031 M 7.960938 14.96875 L 7.3125 14.96875 L 7.3125 11.269531 L 7.960938 11.269531 L 7.960938 12.824219 L 9.65625 12.824219 L 9.65625 11.269531 L 10.308594 11.269531 L 10.308594 14.96875 L 9.65625 14.96875 L 9.65625 13.347656 L 7.960938 13.347656 Z M 7.960938 14.96875 "/>
</svg>
