<svg role="img" viewBox="0 0 32 32" height="32" width="32" xmlns="http://www.w3.org/2000/svg"><path d="M.203.203h31.594v31.594H.203Zm0 0" fill="rgb(92.941176%, 44.313725%, 0%)"/><path d="M20.762 18.871a1.43 1.43 0 0 0-2.86 0c0 .79.645 1.434 1.43 1.434.793 0 1.43-.645 1.43-1.434m-5.239-4.777c.79 0 1.43-.645 1.43-1.434 0-.793-.64-1.437-1.43-1.437a1.43 1.43 0 0 0-1.425 1.437c0 .79.636 1.434 1.425 1.434m-4.285 5.258c.79 0 1.43-.645 1.43-1.438a1.434 1.434 0 0 0-2.867 0c0 .797.644 1.438 1.437 1.438m10.477-.48a2.392 2.392 0 0 1-1.902 2.343v2.914a.479.479 0 0 1-.481.48H16v2.864h-.953v-5.254h-3.809a.479.479 0 0 1-.34-.14.492.492 0 0 1-.136-.34v-1.481a2.385 2.385 0 0 1-1.907-2.344c0-1.32 1.07-2.387 2.383-2.387.633 0 1.239.25 1.684.7.45.449.7 1.054.695 1.687a2.388 2.388 0 0 1-1.902 2.344v1.004h3.332V15a2.388 2.388 0 0 1-1.902-2.34 2.386 2.386 0 0 1 2.378-2.39 2.4 2.4 0 0 1 1.688.699c.445.449.695 1.058.691 1.691 0 1.133-.793 2.11-1.902 2.34v8.652h2.855v-2.437a2.394 2.394 0 0 1 .477-4.735 2.391 2.391 0 0 1 2.383 2.391m6.922-2.36c0 3.505-2.598 4.75-5.035 4.75v-.956c1.23 0 4.085-.371 4.085-3.793 0-2.563-1.94-3.492-3.57-3.82a.482.482 0 0 1-.383-.438c-.12-2.012-1.285-2.719-2.246-2.719-.652 0-1.258.309-1.672.852a.469.469 0 0 1-.449.183.483.483 0 0 1-.379-.304c-.37-1.02-.906-1.871-1.59-2.532-1.757-1.71-4.16-2.175-6.43-1.242-1.878.77-3.359 2.996-3.359 5.063 0 .234.02.46.047.687a.479.479 0 0 1-.36.52c-1.116.277-2.984 1.129-2.984 3.71 0 .098.004.192.008.282.114 1.988 1.875 3.55 4.004 3.55h.531v.958h-.53c-2.637 0-4.813-1.957-4.95-4.457a4.714 4.714 0 0 1-.012-.332c0-3 2.075-4.121 3.309-4.524a6.651 6.651 0 0 1-.012-.394c0-2.47 1.7-5.028 3.953-5.95 2.625-1.078 5.41-.543 7.446 1.438.628.61 1.14 1.352 1.543 2.203a2.992 2.992 0 0 1 1.886-.668c1.41 0 2.89 1.008 3.164 3.254 2.575.633 3.985 2.281 3.985 4.68" fill="rgb(100%, 100%, 100%)"/></svg>