<svg role="img" viewBox="0 0 32 32" height="32" width="32" xmlns="http://www.w3.org/2000/svg"><path d="M.203.203h31.594v31.594H.203Zm0 0" fill="rgb(86.666667%, 20.392157%, 29.803922%)"/><path d="M23.672 25.477c0-.73-.621-1.352-1.352-1.352-.734 0-1.355.621-1.355 1.352 0 .734.62 1.355 1.355 1.355.73 0 1.352-.621 1.352-1.355M16 25.027a1.368 1.368 0 0 0-1.352 1.356c0 .73.618 1.351 1.352 1.351a1.373 1.373 0 0 0 1.352-1.351A1.368 1.368 0 0 0 16 25.027m-6.32-.902c-.73 0-1.352.621-1.352 1.352 0 .734.621 1.355 1.352 1.355.734 0 1.355-.621 1.355-1.355 0-.73-.62-1.352-1.355-1.352m1.175-6.773h10.29l-3.457-3.106-1.395 1.195a.423.423 0 0 1-.293.106.433.433 0 0 1-.297-.106l-1.39-1.195Zm-.726-6.692v6.133l3.492-3.14Zm10.973-.531H10.898L16 14.5Zm.77 6.664V10.66l-3.493 2.992Zm2.702 8.684c0 1.226-1.031 2.257-2.254 2.257-1.226 0-2.258-1.03-2.258-2.257 0-1.067.79-1.993 1.81-2.207v-1.4h-5.423v2.305c1.016.215 1.809 1.137 1.809 2.207 0 1.222-1.035 2.254-2.258 2.254s-2.258-1.032-2.258-2.254c0-1.07.793-1.992 1.809-2.207V21.87h-5.422v1.399c1.02.214 1.809 1.14 1.809 2.207 0 1.226-1.032 2.257-2.258 2.257-1.223 0-2.254-1.03-2.254-2.257 0-1.067.789-1.993 1.804-2.207v-1.856c0-.25.2-.45.45-.453h5.87v-2.703H9.68a.45.45 0 0 1-.45-.453V9.68c0-.25.2-.453.45-.453h12.64c.25 0 .45.203.45.453v8.125c0 .25-.2.453-.45.453h-5.87v2.707h5.87c.25 0 .45.203.45.45v1.855c1.015.214 1.804 1.14 1.804 2.207M28.637 16c0 2.664-.82 5.219-2.38 7.375l-.73-.523A11.688 11.688 0 0 0 27.734 16c0-6.469-5.261-11.734-11.734-11.734C9.531 4.266 4.266 9.53 4.266 16c0 2.477.765 4.844 2.207 6.852l-.73.523A12.5 12.5 0 0 1 3.362 16C3.363 9.031 9.031 3.363 16 3.363S28.637 9.031 28.637 16" fill="rgb(100%, 100%, 100%)"/></svg>