<svg role="img" viewBox="0 0 32 32" height="32" width="32" xmlns="http://www.w3.org/2000/svg"><path d="M.203.203h31.594v31.594H.203Zm0 0" fill="rgb(90.588235%, 8.235294%, 48.235294%)"/><path d="m12.258 7.918 3.273-1.09v10.559c-2.699-.25-3.273-2.598-3.273-3.254Zm7.484 6.215c0 .656-.574 3.004-3.273 3.254V6.828l3.273 1.09ZM16 18.343c3.535 0 4.68-2.84 4.68-4.21V7.582a.47.47 0 0 0-.32-.445l-4.212-1.403a.482.482 0 0 0-.296 0L11.64 7.137a.47.47 0 0 0-.32.445v6.55c0 1.372 1.144 4.212 4.679 4.212M9.914 6.53 16 4.34l6.086 2.191v7.137c0 1.426-.445 6.078-6.086 6.078-6.016 0-6.086-5.832-6.086-6.078ZM16 20.684c6.68 0 7.02-5.848 7.02-7.016V6.203c0-.2-.125-.375-.313-.441l-6.55-2.364a.476.476 0 0 0-.313 0L9.293 5.762a.467.467 0 0 0-.313.441v7.465c0 2.426 1.465 7.016 7.02 7.016m10.063 3.742A1.167 1.167 0 0 1 25 22.66a1.16 1.16 0 0 1 1.311-.527c.508.137.856.601.856 1.125a1.164 1.164 0 0 1-1.105 1.168m-8.891 2.105a1.174 1.174 0 0 1-2.004.828 1.175 1.175 0 0 1 .832-2c.645 0 1.172.528 1.172 1.172M5.938 24.426a1.168 1.168 0 0 1-1.165-1.168 1.161 1.161 0 0 1 .72-1.082 1.16 1.16 0 0 1 1.273.254c.336.336.433.84.254 1.277-.184.434-.61.719-1.082.719m20.125-3.274c-.536 0-1.012.203-1.387.532l-1.438-1.442a14.326 14.326 0 0 0 3.684-4.719l-.844-.41C24.004 19.352 20.047 22.09 16 22.09c-4.145 0-8.441-2.871-10.453-6.977l-.84.41c.8 1.645 2.066 3.29 3.68 4.622L7.023 21.46a2.095 2.095 0 0 0-1.085-.309 2.11 2.11 0 0 0-2.102 2.106 2.107 2.107 0 0 0 4.207 0c0-.426-.125-.82-.344-1.149l1.434-1.39c1.808 1.297 3.988 2.18 6.398 2.285v1.476a2.11 2.11 0 0 0-1.633 2.29A2.107 2.107 0 0 0 16 28.637a2.1 2.1 0 0 0 2.082-1.871 2.105 2.105 0 0 0-1.613-2.286v-1.476c2.125-.102 4.207-.875 6.023-2.184l1.625 1.63c-.11.257-.164.53-.16.808 0 1.16.945 2.101 2.105 2.101a2.108 2.108 0 0 0 2.102-2.105c0-1.16-.941-2.102-2.102-2.102" fill="rgb(100%, 100%, 100%)"/></svg>