<svg role="img" viewBox="0 0 32 32" xmlns="http://www.w3.org/2000/svg"><path d="M.203.203h31.594v31.594H.203Zm0 0" fill="rgb(90.588236%, 8.235294%, 48.235294%)"/><path d="M22.664 19.3c0-1.75-1.434-3.175-3.2-3.175-1.76 0-3.202 1.426-3.202 3.176 0 1.754 1.441 3.18 3.203 3.18 1.765 0 3.2-1.426 3.2-3.18m.898 0c0 2.25-1.84 4.074-4.098 4.074-2.262 0-4.102-1.824-4.102-4.074 0-2.242 1.84-4.07 4.102-4.07 2.258 0 4.098 1.828 4.098 4.07m3.785 6.14-3.141-2.808c-.254.355-.547.68-.875.965l3.14 2.812c.27.238.68.219.923-.047a.654.654 0 0 0-.047-.922m-7.883-1.257c2.707 0 4.91-2.188 4.91-4.883 0-2.688-2.203-4.875-4.91-4.875s-4.91 2.187-4.91 4.875c0 2.695 2.203 4.883 4.91 4.883m8.601 2.777a1.56 1.56 0 0 1-2.199.113l-3.262-2.922a5.8 5.8 0 0 1-3.14.926c-3.207 0-5.813-2.594-5.813-5.777 0-3.18 2.606-5.774 5.813-5.774 3.203 0 5.812 2.594 5.812 5.774 0 .883-.207 1.754-.605 2.543l3.277 2.933c.637.57.688 1.551.117 2.184M7.523 11.508q-.001.351.04.691a.45.45 0 0 1-.11.356.5.5 0 0 1-.258.14c-1.105.282-2.933 1.145-2.933 3.727 0 1.95 1.086 3.02 1.992 3.586.309.187.676.293 1.062.297l5.434.004v.894L7.313 21.2a2.85 2.85 0 0 1-1.536-.437c-.898-.555-2.414-1.856-2.414-4.34 0-3 2.059-4.106 3.274-4.496a5 5 0 0 1-.02-.414c0-2.446 1.676-4.985 3.89-5.907 2.595-1.078 5.34-.543 7.345 1.43.625.613 1.132 1.36 1.527 2.215a2.94 2.94 0 0 1 1.86-.676c1.347 0 2.863 1.02 3.128 3.239 1.262.285 3.926 1.296 3.926 4.64 0 1.336-.422 2.442-1.254 3.281l-.64-.629c.66-.664.992-1.558.992-2.652 0-2.926-2.47-3.652-3.528-3.832a.44.44 0 0 1-.297-.187.43.43 0 0 1-.074-.332c-.144-1.817-1.234-2.633-2.254-2.633-.644 0-1.25.312-1.656.855a.46.46 0 0 1-.426.18.44.44 0 0 1-.355-.293c-.371-1.016-.906-1.871-1.582-2.54-1.742-1.71-4.117-2.171-6.364-1.237-1.87.773-3.332 3.004-3.332 5.078" fill="rgb(100%, 100%, 100%)"/></svg>