<svg role="img" viewBox="0 0 32 32" height="32" width="32" xmlns="http://www.w3.org/2000/svg"><path d="M21.313 19.219h-4.387v-.84c.855-.871 1.488-1.54 1.894-2.008.403-.465.684-.84.836-1.129.157-.285.235-.55.235-.793 0-.285-.082-.508-.25-.664-.168-.16-.407-.242-.711-.242-.301.008-.594.07-.871.184-.336.132-.66.304-.957.515v-.914c.593-.484 1.25-.726 1.968-.726.39 0 .73.07 1.024.21.289.141.515.34.68.602.163.262.246.57.246.934 0 .347-.094.699-.286 1.058-.191.36-.5.766-.925 1.223-.563.59-1.149 1.16-1.758 1.703h3.262Zm-9.485-.895v-4.676h.942c1.289 0 1.933.743 1.933 2.23v.204c0 1.492-.644 2.242-1.933 2.242Zm3.262.055c.512-.559.77-1.363.77-2.41 0-1.04-.255-1.832-.762-2.387-.504-.555-1.239-.832-2.196-.832h-2.214v6.469h2.203c.953 0 1.683-.282 2.199-.84M6 26h20V6H6ZM30.668 8.668V7.332h-3.336v-2a.664.664 0 0 0-.664-.664h-2V1.332h-1.336v3.336h-2.664V1.332h-1.336v3.336h-2.664V1.332h-1.336v3.336h-2.664V1.332h-1.336v3.336H8.668V1.332H7.332v3.336h-2a.664.664 0 0 0-.664.664v2H1.332v1.336h3.336v2.664H1.332v1.336h3.336v2.664H1.332v1.336h3.336v2.664H1.332v1.336h3.336v2.664H1.332v1.336h3.336v2c0 .367.297.664.664.664h2v3.336h1.336v-3.336h2.664v3.336h1.336v-3.336h2.664v3.336h1.336v-3.336h2.664v3.336h1.336v-3.336h2.664v3.336h1.336v-3.336h2a.664.664 0 0 0 .664-.664v-2h3.336v-1.336h-3.336v-2.664h3.336v-1.336h-3.336v-2.664h3.336v-1.336h-3.336v-2.664h3.336v-1.336h-3.336V8.668Zm0 0" fill="rgb(83.137255%, 35.686275%, 2.745098%)" fill-rule="evenodd"/></svg>