<?xml version="1.0" encoding="UTF-8"?>
<svg xmlns="http://www.w3.org/2000/svg" xmlns:xlink="http://www.w3.org/1999/xlink" width="32" height="32" viewBox="0 0 32 32">
<path fill-rule="nonzero" fill="rgb(100%, 100%, 100%)" fill-opacity="1" d="M 0.203125 0.203125 L 32.203125 0.203125 L 32.203125 32.203125 L 0.203125 32.203125 Z M 0.203125 0.203125 "/>
<path fill-rule="nonzero" fill="rgb(92.941176%, 44.313725%, 0%)" fill-opacity="1" d="M 0.203125 0.203125 L 31.796875 0.203125 L 31.796875 31.796875 L 0.203125 31.796875 Z M 0.203125 0.203125 "/>
<path fill-rule="nonzero" fill="rgb(100%, 100%, 100%)" fill-opacity="1" d="M 15.242188 14.71875 C 15.023438 14.851562 14.886719 15.085938 14.886719 15.339844 L 14.886719 27.628906 L 5.59375 22.433594 L 5.59375 10.347656 L 16.023438 4.304688 L 25.292969 8.898438 Z M 26.375 8.886719 C 26.375 8.632812 26.234375 8.394531 25.992188 8.253906 L 16.371094 3.488281 C 16.152344 3.363281 15.882812 3.363281 15.664062 3.488281 L 5.0625 9.632812 C 4.84375 9.757812 4.707031 9.996094 4.707031 10.25 L 4.707031 22.535156 C 4.707031 22.789062 4.84375 23.023438 5.066406 23.152344 L 14.703125 28.542969 C 14.8125 28.605469 14.9375 28.636719 15.058594 28.636719 C 15.183594 28.636719 15.308594 28.605469 15.417969 28.542969 C 15.636719 28.414062 15.773438 28.179688 15.773438 27.925781 L 15.773438 15.441406 L 26.015625 9.503906 C 26.234375 9.378906 26.375 9.140625 26.375 8.886719 Z M 26.394531 22.460938 L 17.984375 27.601562 L 17.984375 22.996094 L 22.367188 20.167969 L 22.398438 19.96875 C 22.40625 19.917969 22.414062 19.917969 22.414062 19.679688 L 22.425781 14.179688 L 26.40625 11.875 Z M 26.9375 10.953125 C 26.71875 10.828125 26.445312 10.828125 26.222656 10.953125 L 21.988281 13.410156 C 21.851562 13.484375 21.542969 13.65625 21.542969 14.003906 L 21.523438 19.652344 L 17.484375 22.261719 C 17.242188 22.40625 17.097656 22.636719 17.097656 22.875 L 17.097656 27.886719 C 17.097656 28.140625 17.234375 28.367188 17.460938 28.5 C 17.578125 28.570312 17.710938 28.601562 17.84375 28.601562 C 17.96875 28.601562 18.097656 28.570312 18.214844 28.5 L 26.925781 23.171875 C 27.144531 23.046875 27.28125 22.808594 27.28125 22.558594 L 27.292969 11.574219 C 27.292969 11.316406 27.15625 11.082031 26.9375 10.953125 Z M 26.9375 10.953125 "/>
</svg>
