<svg role="img" viewBox="0 0 32 32" height="32" width="32" xmlns="http://www.w3.org/2000/svg"><path d="M20.023 15.777c.196-.265.504-.398.918-.398.387 0 .739.113 1.055.336v2.566c-.348.239-.707.356-1.07.356-.801 0-1.196-.547-1.196-1.645 0-.547.098-.953.293-1.215m.555 3.727c.555 0 1.043-.188 1.465-.559l.113.457h.942v-6.906h-1.102v2.5a2.14 2.14 0 0 0-1.363-.484c-.414 0-.778.11-1.082.32-.305.215-.54.512-.7.895-.16.378-.242.816-.242 1.312 0 .754.18 1.356.536 1.797.359.445.835.668 1.433.668m-4.918-5.469-1.746.652v-.894l1.848-.86h1.008v6.47h-1.11Zm-2.894 5.367H8.902v-.812l2.653-3.098H8.996v-.84h3.742v.813l-2.652 3.098h2.68ZM6 26h20V6H6ZM30.668 8.668V7.332h-3.336v-2a.664.664 0 0 0-.664-.664h-2V1.332h-1.336v3.336h-2.664V1.332h-1.336v3.336h-2.664V1.332h-1.336v3.336h-2.664V1.332h-1.336v3.336H8.668V1.332H7.332v3.336h-2a.664.664 0 0 0-.664.664v2H1.332v1.336h3.336v2.664H1.332v1.336h3.336v2.664H1.332v1.336h3.336v2.664H1.332v1.336h3.336v2.664H1.332v1.336h3.336v2c0 .367.297.664.664.664h2v3.336h1.336v-3.336h2.664v3.336h1.336v-3.336h2.664v3.336h1.336v-3.336h2.664v3.336h1.336v-3.336h2.664v3.336h1.336v-3.336h2a.664.664 0 0 0 .664-.664v-2h3.336v-1.336h-3.336v-2.664h3.336v-1.336h-3.336v-2.664h3.336v-1.336h-3.336v-2.664h3.336v-1.336h-3.336V8.668Zm0 0" fill="rgb(83.137255%, 35.686275%, 2.745098%)" fill-rule="evenodd"/></svg>