<?xml version="1.0" encoding="UTF-8"?>
<svg xmlns="http://www.w3.org/2000/svg" xmlns:xlink="http://www.w3.org/1999/xlink" width="32" height="32" viewBox="0 0 32 32">
<path fill-rule="evenodd" fill="rgb(83.137255%, 35.686275%, 2.745098%)" fill-opacity="1" d="M 6 26 L 26 26 L 26 6 L 6 6 Z M 30.667969 8.667969 L 30.667969 7.332031 L 27.332031 7.332031 L 27.332031 5.332031 C 27.332031 4.964844 27.035156 4.667969 26.667969 4.667969 L 24.667969 4.667969 L 24.667969 1.332031 L 23.332031 1.332031 L 23.332031 4.667969 L 20.667969 4.667969 L 20.667969 1.332031 L 19.332031 1.332031 L 19.332031 4.667969 L 16.667969 4.667969 L 16.667969 1.332031 L 15.332031 1.332031 L 15.332031 4.667969 L 12.667969 4.667969 L 12.667969 1.332031 L 11.332031 1.332031 L 11.332031 4.667969 L 8.667969 4.667969 L 8.667969 1.332031 L 7.332031 1.332031 L 7.332031 4.667969 L 5.332031 4.667969 C 4.964844 4.667969 4.667969 4.964844 4.667969 5.332031 L 4.667969 7.332031 L 1.332031 7.332031 L 1.332031 8.667969 L 4.667969 8.667969 L 4.667969 11.332031 L 1.332031 11.332031 L 1.332031 12.667969 L 4.667969 12.667969 L 4.667969 15.332031 L 1.332031 15.332031 L 1.332031 16.667969 L 4.667969 16.667969 L 4.667969 19.332031 L 1.332031 19.332031 L 1.332031 20.667969 L 4.667969 20.667969 L 4.667969 23.332031 L 1.332031 23.332031 L 1.332031 24.667969 L 4.667969 24.667969 L 4.667969 26.667969 C 4.667969 27.035156 4.964844 27.332031 5.332031 27.332031 L 7.332031 27.332031 L 7.332031 30.667969 L 8.667969 30.667969 L 8.667969 27.332031 L 11.332031 27.332031 L 11.332031 30.667969 L 12.667969 30.667969 L 12.667969 27.332031 L 15.332031 27.332031 L 15.332031 30.667969 L 16.667969 30.667969 L 16.667969 27.332031 L 19.332031 27.332031 L 19.332031 30.667969 L 20.667969 30.667969 L 20.667969 27.332031 L 23.332031 27.332031 L 23.332031 30.667969 L 24.667969 30.667969 L 24.667969 27.332031 L 26.667969 27.332031 C 27.035156 27.332031 27.332031 27.035156 27.332031 26.667969 L 27.332031 24.667969 L 30.667969 24.667969 L 30.667969 23.332031 L 27.332031 23.332031 L 27.332031 20.667969 L 30.667969 20.667969 L 30.667969 19.332031 L 27.332031 19.332031 L 27.332031 16.667969 L 30.667969 16.667969 L 30.667969 15.332031 L 27.332031 15.332031 L 27.332031 12.667969 L 30.667969 12.667969 L 30.667969 11.332031 L 27.332031 11.332031 L 27.332031 8.667969 Z M 21.507812 18.484375 L 20.640625 18.484375 L 20.640625 14.753906 L 21.359375 14.753906 L 21.449219 15.164062 C 21.90625 14.816406 22.386719 14.644531 22.886719 14.644531 C 23.242188 14.644531 23.515625 14.738281 23.699219 14.925781 C 23.886719 15.113281 23.980469 15.386719 23.980469 15.742188 L 23.980469 18.484375 L 23.113281 18.484375 L 23.113281 16.015625 C 23.113281 15.773438 23.066406 15.601562 22.964844 15.488281 C 22.867188 15.378906 22.710938 15.324219 22.496094 15.324219 C 22.175781 15.324219 21.84375 15.433594 21.507812 15.648438 Z M 17.316406 15.636719 C 17.46875 15.429688 17.710938 15.324219 18.039062 15.324219 C 18.339844 15.324219 18.617188 15.414062 18.867188 15.589844 L 18.867188 17.605469 C 18.621094 17.78125 18.324219 17.878906 18.023438 17.882812 C 17.398438 17.882812 17.085938 17.453125 17.085938 16.59375 C 17.085938 16.164062 17.160156 15.84375 17.316406 15.636719 M 17.753906 18.566406 C 18.1875 18.566406 18.570312 18.421875 18.902344 18.125 L 18.992188 18.484375 L 19.734375 18.484375 L 19.734375 13.058594 L 18.867188 13.058594 L 18.867188 15.023438 C 18.5625 14.777344 18.1875 14.644531 17.796875 14.644531 C 17.46875 14.644531 17.183594 14.726562 16.945312 14.898438 C 16.699219 15.074219 16.507812 15.316406 16.394531 15.597656 C 16.261719 15.925781 16.199219 16.277344 16.207031 16.628906 C 16.207031 17.222656 16.347656 17.691406 16.625 18.042969 C 16.90625 18.390625 17.285156 18.566406 17.753906 18.566406 M 13.550781 18.597656 C 13.074219 18.59375 12.605469 18.492188 12.171875 18.300781 L 12.171875 17.613281 C 12.707031 17.792969 13.15625 17.882812 13.519531 17.882812 C 13.867188 17.882812 14.132812 17.808594 14.320312 17.652344 C 14.503906 17.5 14.597656 17.28125 14.597656 16.996094 C 14.597656 16.460938 14.261719 16.191406 13.582031 16.191406 C 13.363281 16.191406 13.128906 16.203125 12.875 16.234375 L 12.875 15.671875 L 14.320312 14.101562 L 12.246094 14.101562 L 12.246094 13.402344 L 15.273438 13.402344 L 15.273438 14.070312 L 13.75 15.566406 C 13.816406 15.558594 13.882812 15.558594 13.953125 15.558594 C 14.238281 15.558594 14.496094 15.621094 14.726562 15.738281 C 14.957031 15.859375 15.140625 16.027344 15.28125 16.25 C 15.417969 16.46875 15.484375 16.71875 15.484375 17.003906 C 15.484375 17.3125 15.40625 17.585938 15.25 17.824219 C 15.09375 18.0625 14.871094 18.253906 14.578125 18.390625 C 14.253906 18.535156 13.90625 18.605469 13.550781 18.597656 M 8.914062 14.09375 L 9.8125 14.09375 C 10.089844 14.09375 10.296875 14.167969 10.4375 14.320312 C 10.578125 14.472656 10.648438 14.695312 10.648438 14.988281 C 10.648438 15.28125 10.578125 15.503906 10.4375 15.65625 C 10.296875 15.808594 10.089844 15.882812 9.8125 15.882812 L 8.914062 15.882812 Z M 8.914062 16.570312 L 9.917969 16.570312 C 10.425781 16.570312 10.824219 16.429688 11.117188 16.148438 C 11.410156 15.863281 11.554688 15.476562 11.554688 14.988281 C 11.554688 14.5 11.40625 14.113281 11.113281 13.828125 C 10.816406 13.546875 10.414062 13.402344 9.90625 13.402344 L 8.019531 13.402344 L 8.019531 18.484375 L 8.914062 18.484375 Z M 8.914062 16.570312 "/>
</svg>
