<svg role="img" viewBox="0 0 32 32" height="32" width="32" xmlns="http://www.w3.org/2000/svg"><path d="M6 26h20V6H6ZM27.332 8.668v2.664h3.336v1.336h-3.336v2.664h3.336v1.336h-3.336v2.664h3.336v1.336h-3.336v2.664h3.336v1.336h-3.336v2a.664.664 0 0 1-.664.664h-2v3.336h-1.336v-3.336h-2.664v3.336h-1.336v-3.336h-2.664v3.336h-1.336v-3.336h-2.664v3.336h-1.336v-3.336H8.668v3.336H7.332v-3.336h-2a.664.664 0 0 1-.664-.664v-2H1.332v-1.336h3.336v-2.664H1.332v-1.336h3.336v-2.664H1.332v-1.336h3.336v-2.664H1.332v-1.336h3.336V8.668H1.332V7.332h3.336v-2c0-.367.297-.664.664-.664h2V1.332h1.336v3.336h2.664V1.332h1.336v3.336h2.664V1.332h1.336v3.336h2.664V1.332h1.336v3.336h2.664V1.332h1.336v3.336h2c.367 0 .664.297.664.664v2h3.336v1.336Zm-5.512 9.176c0 .113.032.199.102.265a.382.382 0 0 0 .277.094.4.4 0 0 0 .278-.094.338.338 0 0 0 .097-.265.347.347 0 0 0-.097-.27.4.4 0 0 0-.278-.094.382.382 0 0 0-.277.094.331.331 0 0 0-.102.27m.063 3.523h.629v-2.715h-.63Zm-2.61-1.375c0 .625.23.938.684.938.211 0 .414-.067.613-.203v-1.465a1.012 1.012 0 0 0-.601-.192c-.239 0-.414.075-.528.227-.109.148-.168.383-.168.695m-.101-1.234c.176-.125.383-.184.621-.184.281 0 .543.09.777.278v-1.43h.63v3.945h-.54l-.062-.262c-.243.215-.524.32-.836.32-.344 0-.617-.124-.82-.382-.204-.254-.31-.594-.31-1.023 0-.286.048-.536.141-.754.094-.215.227-.387.399-.508m-3.434-.106v1.98c0 .263.07.466.207.606.137.14.328.211.582.211.332 0 .664-.129.996-.379l.067.297h.523v-2.715h-.629v2.082c-.226.145-.449.22-.668.22-.156 0-.27-.044-.34-.126-.074-.082-.109-.207-.109-.383v-1.793Zm-1.21 1.578a2.566 2.566 0 0 0-.489-.058c-.363 0-.543.144-.543.433 0 .125.04.22.106.29.07.07.164.105.285.105a.903.903 0 0 0 .32-.066c.11-.047.219-.11.32-.192Zm-1.485-1.437c.137-.07.3-.121.492-.16.195-.04.39-.059.586-.059.356 0 .613.07.781.211.172.145.254.367.254.668v1.914h-.55l-.047-.262a1.52 1.52 0 0 1-.41.25 1.206 1.206 0 0 1-.454.094.849.849 0 0 1-.605-.226.771.771 0 0 1-.23-.582.78.78 0 0 1 .285-.63c.19-.156.445-.234.765-.234.188 0 .395.028.617.082v-.316c0-.18-.039-.309-.117-.379-.078-.07-.215-.105-.41-.105-.277 0-.598.058-.957.175Zm-2.035 1.066h.762v.977a2.676 2.676 0 0 1-.5.047c-.43 0-.747-.106-.95-.313-.199-.207-.3-.535-.3-.98v-.11c0-.453.101-.785.304-1 .203-.21.516-.32.938-.32.312 0 .66.063 1.031.188v-.516a2.503 2.503 0 0 0-1.078-.219c-.598 0-1.059.164-1.375.5-.32.332-.48.809-.48 1.43 0 .613.156 1.078.464 1.402.313.325.762.485 1.352.485.23 0 .457-.024.676-.07.199-.04.39-.106.57-.2v-1.812h-1.414Zm13.156-6.027a2.566 2.566 0 0 0-.488-.059c-.36 0-.54.145-.54.43a.387.387 0 0 0 .102.293c.07.07.164.102.285.102a.82.82 0 0 0 .32-.067c.11-.043.22-.105.321-.187Zm0-.375v-.312c0-.184-.039-.31-.117-.38-.078-.07-.215-.109-.41-.109a3.02 3.02 0 0 0-.953.18v-.445a1.92 1.92 0 0 1 .492-.16c.191-.04.387-.06.582-.06.355 0 .617.071.785.216.168.14.25.363.25.664v1.918h-.547l-.047-.262a1.604 1.604 0 0 1-.414.25c-.152.059-.3.09-.453.09a.845.845 0 0 1-.605-.223.808.808 0 0 1-.23-.582.78.78 0 0 1 .284-.629c.192-.156.446-.234.766-.234a2.8 2.8 0 0 1 .617.078m-3.941-.555c.246-.156.484-.234.722-.234.157 0 .27.039.34.121.07.078.106.207.106.383v1.797h.629v-1.996c0-.258-.067-.457-.2-.594-.136-.137-.336-.207-.593-.207-.364 0-.711.129-1.047.379l-.063-.297h-.523v2.715h.629Zm-1.868.93a2.566 2.566 0 0 0-.488-.059c-.36 0-.539.145-.539.43a.403.403 0 0 0 .102.293c.07.07.168.102.289.102.101 0 .207-.02.316-.067.11-.043.219-.105.32-.187Zm0-.375v-.312c0-.184-.039-.31-.117-.38-.078-.07-.215-.109-.41-.109-.277 0-.594.059-.953.18v-.445c.133-.067.297-.121.492-.16.192-.04.387-.06.582-.06.356 0 .617.071.785.216.168.14.25.363.25.664v1.918h-.547l-.046-.262a1.447 1.447 0 0 1-.414.25c-.153.059-.301.09-.454.09-.246 0-.449-.074-.601-.223a.775.775 0 0 1-.235-.582.768.768 0 0 1 .286-.629c.191-.156.445-.234.765-.234.188 0 .395.027.617.078m-3.964.863c.199.14.41.211.632.211.227 0 .399-.078.508-.234.11-.152.164-.39.164-.707 0-.313-.054-.543-.16-.695-.11-.149-.277-.227-.504-.227-.234 0-.445.066-.64.203Zm-.11.649h-.52v-3.95h.63v1.473c.25-.21.53-.32.836-.32.34 0 .605.129.808.379.2.254.3.594.3 1.02 0 .284-.046.534-.136.753-.094.219-.226.39-.402.516-.18.125-.395.191-.613.187-.313 0-.61-.12-.836-.336Zm-1.758-1.137a2.566 2.566 0 0 0-.488-.059c-.363 0-.543.145-.543.43 0 .125.035.223.106.293.07.07.164.102.285.102.101 0 .207-.02.316-.067.114-.043.219-.105.324-.187Zm0-.375v-.312c0-.184-.039-.31-.117-.38-.078-.07-.215-.109-.41-.109-.277 0-.598.059-.957.18v-.445c.137-.067.297-.121.492-.16.196-.04.387-.06.582-.06.356 0 .617.071.785.216.168.14.254.363.254.664v1.918h-.55l-.047-.262a1.447 1.447 0 0 1-.414.25 1.24 1.24 0 0 1-.45.09c-.25 0-.453-.074-.605-.223a.775.775 0 0 1-.234-.582.78.78 0 0 1 .285-.629c.191-.156.449-.234.765-.234.192 0 .395.027.621.078m-4.562 1.512h-.649v-3.7h.649v1.555h1.695V11.27h.653v3.699h-.653v-1.621H7.961Zm0 0" fill="rgb(83.137255%, 35.686275%, 2.745098%)" fill-rule="evenodd"/></svg>