<svg role="img" viewBox="0 0 32 32" xmlns="http://www.w3.org/2000/svg"><defs><linearGradient gradientTransform="scale(32)" gradientUnits="userSpaceOnUse" id="aws-directory-service_svg__a" x1="0" x2="1" y1="1" y2="0"><stop offset="0" stop-color="rgb(74.117649%, 3.137255%, 8.627451%)"/><stop offset="1" stop-color="rgb(100%, 32.156864%, 32.156864%)"/></linearGradient></defs><path d="M-3.2-3.2h38.4v38.4H-3.2z" fill="url(#aws-directory-service_svg__a)"/><path d="M13.5 21H15v-1h-1.5ZM10 21h3v-1h-3Zm0-2h4.5v-1H10Zm16 4.5V16h-.5v5.5c0 .277-.223.5-.5.5h-8a.5.5 0 0 1-.355-.145.5.5 0 0 1-.145-.355V16H9v7.5ZM18.035 21h5.914c-.219-1.18-1.203-2.047-2.23-2.383a2.35 2.35 0 0 1-1.77.012c-1.058.348-1.758 1.219-1.914 2.371m3.45-3.375c.433-.234.703-.684.703-1.172 0-.746-.614-1.348-1.364-1.348s-1.363.602-1.363 1.348c0 .488.27.938.703 1.176.414.223.91.219 1.32-.004M24.5 13.5h-7v5.957a3.7 3.7 0 0 1 1.512-1.508 2.35 2.35 0 0 1-.551-1.496 2.356 2.356 0 0 1 2.363-2.348 2.356 2.356 0 0 1 2.363 2.348c0 .543-.195 1.059-.527 1.469.793.39 1.434.992 1.84 1.71ZM9 11.5V15h7.5v-2c0-.277.223-.5.5-.5h8c.277 0 .5.223.5.5v2h.5v-3.5Zm18-.5v13c0 .277-.223.5-.5.5h-18a.5.5 0 0 1-.355-.145A.5.5 0 0 1 8 24V11c0-.277.223-.5.5-.5h18c.277 0 .5.223.5.5M6.5 21H7v1H6a.5.5 0 0 1-.355-.145.5.5 0 0 1-.145-.355v-13c0-.277.223-.5.5-.5h18.5c.277 0 .5.223.5.5v1h-1V9H6.5Zm0 0" fill="rgb(100%, 100%, 100%)" fill-rule="evenodd"/></svg>