<svg role="img" viewBox="0 0 32 32" height="32" width="32" xmlns="http://www.w3.org/2000/svg"><path d="M6 26h20V6H6ZM27.332 8.668v2.664h3.336v1.336h-3.336v2.664h3.336v1.336h-3.336v2.664h3.336v1.336h-3.336v2.664h3.336v1.336h-3.336v2a.664.664 0 0 1-.664.664h-2v3.336h-1.336v-3.336h-2.664v3.336h-1.336v-3.336h-2.664v3.336h-1.336v-3.336h-2.664v3.336h-1.336v-3.336H8.668v3.336H7.332v-3.336h-2a.664.664 0 0 1-.664-.664v-2H1.332v-1.336h3.336v-2.664H1.332v-1.336h3.336v-2.664H1.332v-1.336h3.336v-2.664H1.332v-1.336h3.336V8.668H1.332V7.332h3.336v-2c0-.367.297-.664.664-.664h2V1.332h1.336v3.336h2.664V1.332h1.336v3.336h2.664V1.332h1.336v3.336h2.664V1.332h1.336v3.336h2.664V1.332h1.336v3.336h2c.367 0 .664.297.664.664v2h3.336v1.336Zm-5.3 8.496a4.196 4.196 0 0 0-.856-.102c-.63 0-.946.25-.946.754 0 .22.063.391.184.512s.29.18.5.18c.176 0 .36-.04.555-.117.195-.078.383-.188.562-.328Zm0-.652v-.551c0-.316-.067-.54-.204-.664-.137-.125-.379-.184-.719-.184-.484 0-1.043.102-1.672.305v-.773c.235-.118.52-.211.86-.282.34-.066.68-.101 1.023-.101.621 0 1.078.125 1.371.375.297.246.442.636.442 1.164v3.351h-.961l-.082-.457a2.595 2.595 0 0 1-.723.438 2.13 2.13 0 0 1-.789.16c-.437 0-.789-.133-1.062-.39-.27-.262-.403-.602-.403-1.02 0-.461.164-.828.496-1.102.332-.273.782-.41 1.34-.41.332 0 .692.047 1.082.14m-4.937 2.52c.375-.176.66-.418.86-.718.198-.305.3-.653.3-1.047a1.787 1.787 0 0 0-.969-1.61 2.064 2.064 0 0 0-.988-.226 5.68 5.68 0 0 0-.258.008l1.941-1.903v-.851h-3.85v.886h2.64l-1.84 2v.72c.321-.04.622-.06.9-.06.862 0 1.296.344 1.296 1.028 0 .36-.117.637-.36.836-.238.195-.578.293-1.015.293-.465 0-1.035-.117-1.715-.344v.875a4.33 4.33 0 0 0 1.754.375c.496 0 .934-.086 1.305-.262m-6.746-5.418H8.32v-.93h5.192v.93h-2.028v5.535h-1.136Zm0 0" fill="rgb(83.137255%, 35.686275%, 2.745098%)" fill-rule="evenodd"/></svg>