<svg role="img" viewBox="0 0 32 32" height="32" width="32" xmlns="http://www.w3.org/2000/svg"><path d="M.203.203h31.594v31.594H.203Zm0 0" fill="rgb(90.588235%, 8.235294%, 48.235294%)"/><path d="M5.2 15.082a.92.92 0 1 1 .002 1.84.92.92 0 0 1-.003-1.84m11.031 11.95c-5.37 0-9.976-3.923-10.94-9.2a1.829 1.829 0 0 0 1.683-1.375h2.82v-.914h-2.82a1.832 1.832 0 0 0-1.684-1.375c.961-5.195 5.66-9.2 10.941-9.2 1.98 0 4.06.747 6.168 2.22l.528-.754C20.66 4.852 18.402 4.05 16.23 4.05c-5.85 0-11.054 4.532-11.92 10.348A1.84 1.84 0 0 0 3.363 16c0 .688.383 1.285.946 1.602.875 5.91 5.972 10.347 11.921 10.347 2.485 0 5.028-.847 7.16-2.387l-.535-.746c-1.976 1.426-4.332 2.215-6.625 2.215m-5.01-12.668c.855.211 1.922.258 2.71.258.758 0 1.758-.043 2.59-.226l-2.078 4.156a.765.765 0 0 0-.05.207v2.047c-.368.234-.996.625-1.375.703v-2.75a.342.342 0 0 0-.04-.176Zm2.71-1.578c1.852 0 2.84.274 3.153.457-.312.18-1.3.461-3.152.461-1.848 0-2.836-.281-3.145-.46.309-.184 1.297-.458 3.145-.458m-1.375 9.649h.46c.016 0 .036 0 .055-.004.563-.075 1.282-.508 1.907-.91l.12-.075a.464.464 0 0 0 .216-.39v-2.188l2.554-5.11a.765.765 0 0 0 .203-.515c0-1.199-2.593-1.379-4.14-1.379-1.543 0-4.137.18-4.137 1.38 0 .167.059.316.152.444l2.149 5.16v3.13a.461.461 0 0 0 .46.457m13.325-.457a.92.92 0 0 1 .922.918.918.918 0 0 1-.918.91.924.924 0 0 1-.922-.91.932.932 0 0 1 .918-.918m0-13.79a.92.92 0 0 1 .922.918.918.918 0 0 1-.918.91.924.924 0 0 1-.922-.91.922.922 0 0 1 .918-.918m.922 6.895c.508 0 .918.41.918.918s-.41.922-.918.918A.923.923 0 0 1 25.88 16a.923.923 0 0 1 .922-.918m-4.594 1.375h2.82a1.838 1.838 0 0 0 1.774 1.383 1.84 1.84 0 0 0 0-3.68c-.856 0-1.57.59-1.774 1.383h-2.82V9.566h1.902a1.818 1.818 0 0 0 1.77 1.38c1.016 0 1.84-.829 1.84-1.84 0-1.012-.824-1.84-1.84-1.84-.856 0-1.567.593-1.77 1.382h-2.367a.458.458 0 0 0-.324.133.458.458 0 0 0-.133.324v6.438H18.07v.914h3.215v6.438c0 .25.203.457.457.457h2.367a1.83 1.83 0 0 0 1.77 1.382c1.016 0 1.84-.828 1.84-1.84 0-1.011-.824-1.84-1.84-1.84-.856 0-1.567.587-1.77 1.38h-1.902Zm0 0" fill="rgb(100%, 100%, 100%)"/></svg>