<svg role="img" viewBox="0 0 32 32" height="32" width="32" xmlns="http://www.w3.org/2000/svg"><path d="M18.512 19.34a4.368 4.368 0 0 1-1.793-.375v-.875c.68.23 1.27.344 1.761.344.922 0 1.383-.395 1.383-1.192 0-.387-.113-.668-.347-.847-.23-.176-.602-.266-1.106-.266-.379 0-.851.031-1.422.094v-.707l.18-2.782h3.508v.887h-2.469l-.105 1.727c.253-.051.523-.078.808-.078.649 0 1.156.175 1.527.523.372.348.555.824.555 1.43 0 .648-.222 1.16-.672 1.543-.445.382-1.05.574-1.808.574m-6.715-.848c-.527-.55-.79-1.36-.79-2.426 0-1.101.274-1.949.817-2.546.543-.594 1.328-.891 2.348-.891a4.622 4.622 0 0 1 1.547.254v.933c-.617-.132-1.106-.195-1.457-.195-.707 0-1.235.18-1.578.55-.348.368-.52.93-.52 1.696v.227c0 .758.172 1.32.512 1.683.344.364.867.547 1.566.547.395 0 .922-.078 1.574-.234v.933c-.492.192-1.054.29-1.683.29-1.031 0-1.813-.274-2.336-.82M6 26h20V6H6ZM30.668 8.668V7.332h-3.336v-2a.664.664 0 0 0-.664-.664h-2V1.332h-1.336v3.336h-2.664V1.332h-1.336v3.336h-2.664V1.332h-1.336v3.336h-2.664V1.332h-1.336v3.336H8.668V1.332H7.332v3.336h-2a.664.664 0 0 0-.664.664v2H1.332v1.336h3.336v2.664H1.332v1.336h3.336v2.664H1.332v1.336h3.336v2.664H1.332v1.336h3.336v2.664H1.332v1.336h3.336v2c0 .367.297.664.664.664h2v3.336h1.336v-3.336h2.664v3.336h1.336v-3.336h2.664v3.336h1.336v-3.336h2.664v3.336h1.336v-3.336h2.664v3.336h1.336v-3.336h2a.664.664 0 0 0 .664-.664v-2h3.336v-1.336h-3.336v-2.664h3.336v-1.336h-3.336v-2.664h3.336v-1.336h-3.336v-2.664h3.336v-1.336h-3.336V8.668Zm0 0" fill="rgb(83.137255%, 35.686275%, 2.745098%)" fill-rule="evenodd"/></svg>