<svg role="img" viewBox="0 0 32 32" height="32" width="32" xmlns="http://www.w3.org/2000/svg"><path d="M16.906 19.34a4.398 4.398 0 0 1-1.758-.375v-.875c.684.23 1.254.344 1.72.344.437 0 .777-.098 1.015-.293.238-.196.355-.473.355-.836 0-.684-.43-1.024-1.293-1.024-.3 0-.601.016-.898.055v-.719l1.836-1.996h-2.64v-.887h3.855v.848l-1.942 1.902c.086-.004.172-.007.258-.007.363 0 .691.074.988.23.293.148.528.367.703.648.176.278.262.598.262.961 0 .391-.097.739-.297 1.043a1.99 1.99 0 0 1-.86.72c-.37.175-.808.26-1.304.26m-4.277-.14h1.14v-6.465h-1.14ZM6 26h20V6H6ZM30.668 8.668V7.332h-3.336v-2a.664.664 0 0 0-.664-.664h-2V1.332h-1.336v3.336h-2.664V1.332h-1.336v3.336h-2.664V1.332h-1.336v3.336h-2.664V1.332h-1.336v3.336H8.668V1.332H7.332v3.336h-2a.664.664 0 0 0-.664.664v2H1.332v1.336h3.336v2.664H1.332v1.336h3.336v2.664H1.332v1.336h3.336v2.664H1.332v1.336h3.336v2.664H1.332v1.336h3.336v2c0 .367.297.664.664.664h2v3.336h1.336v-3.336h2.664v3.336h1.336v-3.336h2.664v3.336h1.336v-3.336h2.664v3.336h1.336v-3.336h2.664v3.336h1.336v-3.336h2a.664.664 0 0 0 .664-.664v-2h3.336v-1.336h-3.336v-2.664h3.336v-1.336h-3.336v-2.664h3.336v-1.336h-3.336v-2.664h3.336v-1.336h-3.336V8.668Zm0 0" fill="rgb(83.137255%, 35.686275%, 2.745098%)" fill-rule="evenodd"/></svg>