<svg role="img" viewBox="0 0 30 32" height="32" width="30" xmlns="http://www.w3.org/2000/svg"><path d="M0 6.691C0 3.777 2.3 1.43 5.164 1.43h19.672C27.699 1.43 30 3.777 30 6.69v20.047C30 29.652 27.7 32 24.836 32H5.164C2.301 32 0 29.652 0 26.738Zm0 0" fill="rgb(61.568627%, 31.372549%, 14.509804%)" fill-rule="evenodd"/><path d="M0 5.262C0 2.348 2.3 0 5.164 0h19.672C27.699 0 30 2.348 30 5.262v20.047c0 2.914-2.3 5.261-5.164 5.261H5.164C2.301 30.57 0 28.223 0 25.31Zm0 0" fill="rgb(96.078431%, 52.156863%, 21.176471%)" fill-rule="evenodd"/><path d="M5.46 4.578h19.06v9.156H5.46Zm0 0" fill="rgb(100%, 100%, 100%)" fill-rule="evenodd"/><path d="M6.918 6.09h4.523v6.133H6.918Zm5.805 0h4.523v6.133h-4.523Zm5.82 0h4.523v6.133h-4.523Zm0 0" fill="rgb(96.078431%, 52.156863%, 21.176471%)" fill-rule="evenodd"/><path d="M5.46 16.836h19.06v9.152H5.46Zm0 0" fill="rgb(100%, 100%, 100%)" fill-rule="evenodd"/><path d="M6.918 18.348h4.523v6.132H6.918Zm5.805 0h4.523v6.132h-4.523Zm5.82 0h4.523v6.132h-4.523Zm0 0" fill="rgb(96.078431%, 52.156863%, 21.176471%)" fill-rule="evenodd"/></svg>