<svg role="img" viewBox="0 0 32 32" height="32" width="32" xmlns="http://www.w3.org/2000/svg"><path d="M28.855 28.063v-8.165c-.976.47-2.359.696-3.687.696-1.574 0-2.828-.223-3.691-.625v8.093c0 .364 1.351 1.508 3.691 1.508s3.687-1.144 3.687-1.508m-7.378-9.824c0 .426 1.28 1.02 3.691 1.02 2.539 0 3.687-.785 3.687-1.024 0-.214-1.109-.902-3.687-.902-2.465 0-3.637.648-3.691.906m8.71-.004v9.828c0 1.512-2.343 2.84-5.019 2.84s-5.023-1.328-5.023-2.84v-9.828c0-1.648 2.707-2.234 5.023-2.234 2.426 0 5.02.586 5.02 2.234M18 23.332v3.336h-1.332V24h-2v2.668h-1.336V24h-2v2.668H10V24H8v2.668H6.668V24h-2a.671.671 0 0 1-.473-.195.671.671 0 0 1-.195-.473v-2H1.332V20H4v-2H1.332v-1.332H4v-2H1.332v-1.336H4v-2H1.332V10H4V8H1.332V6.668H4v-2C4 4.297 4.297 4 4.668 4h2V1.332H8V4h2V1.332h1.332V4h2V1.332h1.336V4h2V1.332H18V4h2V1.332h1.332V4h2c.371 0 .668.297.668.668v2h2.668V8H24v2h2.668v1.332H24v2h2.668v1.336h-3.336a.667.667 0 0 1-.664-.668V5.332H5.332v17.336h12c.371 0 .668.297.668.664" fill="rgb(83.137255%, 35.686275%, 2.745098%)" fill-rule="evenodd"/></svg>