<?xml version="1.0" encoding="UTF-8"?>
<svg xmlns="http://www.w3.org/2000/svg" xmlns:xlink="http://www.w3.org/1999/xlink" width="32" height="32" viewBox="0 0 32 32">
<path fill-rule="evenodd" fill="rgb(83.137255%, 35.686275%, 2.745098%)" fill-opacity="1" d="M 6 26 L 26 26 L 26 6 L 6 6 Z M 27.332031 8.667969 L 27.332031 11.332031 L 30.667969 11.332031 L 30.667969 12.667969 L 27.332031 12.667969 L 27.332031 15.332031 L 30.667969 15.332031 L 30.667969 16.667969 L 27.332031 16.667969 L 27.332031 19.332031 L 30.667969 19.332031 L 30.667969 20.667969 L 27.332031 20.667969 L 27.332031 23.332031 L 30.667969 23.332031 L 30.667969 24.667969 L 27.332031 24.667969 L 27.332031 26.667969 C 27.332031 27.035156 27.035156 27.332031 26.667969 27.332031 L 24.667969 27.332031 L 24.667969 30.667969 L 23.332031 30.667969 L 23.332031 27.332031 L 20.667969 27.332031 L 20.667969 30.667969 L 19.332031 30.667969 L 19.332031 27.332031 L 16.667969 27.332031 L 16.667969 30.667969 L 15.332031 30.667969 L 15.332031 27.332031 L 12.667969 27.332031 L 12.667969 30.667969 L 11.332031 30.667969 L 11.332031 27.332031 L 8.667969 27.332031 L 8.667969 30.667969 L 7.332031 30.667969 L 7.332031 27.332031 L 5.332031 27.332031 C 4.964844 27.332031 4.667969 27.035156 4.667969 26.667969 L 4.667969 24.667969 L 1.332031 24.667969 L 1.332031 23.332031 L 4.667969 23.332031 L 4.667969 20.667969 L 1.332031 20.667969 L 1.332031 19.332031 L 4.667969 19.332031 L 4.667969 16.667969 L 1.332031 16.667969 L 1.332031 15.332031 L 4.667969 15.332031 L 4.667969 12.667969 L 1.332031 12.667969 L 1.332031 11.332031 L 4.667969 11.332031 L 4.667969 8.667969 L 1.332031 8.667969 L 1.332031 7.332031 L 4.667969 7.332031 L 4.667969 5.332031 C 4.667969 4.964844 4.964844 4.667969 5.332031 4.667969 L 7.332031 4.667969 L 7.332031 1.332031 L 8.667969 1.332031 L 8.667969 4.667969 L 11.332031 4.667969 L 11.332031 1.332031 L 12.667969 1.332031 L 12.667969 4.667969 L 15.332031 4.667969 L 15.332031 1.332031 L 16.667969 1.332031 L 16.667969 4.667969 L 19.332031 4.667969 L 19.332031 1.332031 L 20.667969 1.332031 L 20.667969 4.667969 L 23.332031 4.667969 L 23.332031 1.332031 L 24.667969 1.332031 L 24.667969 4.667969 L 26.667969 4.667969 C 27.035156 4.667969 27.332031 4.964844 27.332031 5.332031 L 27.332031 7.332031 L 30.667969 7.332031 L 30.667969 8.667969 Z M 22.238281 15.648438 C 22.574219 15.433594 22.902344 15.324219 23.226562 15.324219 C 23.441406 15.324219 23.597656 15.378906 23.695312 15.488281 C 23.792969 15.601562 23.84375 15.773438 23.84375 16.015625 L 23.84375 18.484375 L 24.707031 18.484375 L 24.707031 15.742188 C 24.707031 15.386719 24.617188 15.113281 24.429688 14.925781 C 24.242188 14.738281 23.972656 14.644531 23.617188 14.644531 C 23.117188 14.644531 22.636719 14.816406 22.179688 15.164062 L 22.089844 14.753906 L 21.371094 14.753906 L 21.371094 18.484375 L 22.238281 18.484375 Z M 17.925781 16.59375 C 17.925781 17.453125 18.238281 17.882812 18.863281 17.882812 C 19.152344 17.882812 19.433594 17.792969 19.707031 17.605469 L 19.707031 15.589844 C 19.464844 15.414062 19.175781 15.324219 18.878906 15.324219 C 18.550781 15.324219 18.308594 15.429688 18.15625 15.636719 C 18 15.84375 17.925781 16.164062 17.925781 16.59375 M 17.464844 18.042969 C 17.183594 17.691406 17.042969 17.222656 17.042969 16.628906 C 17.042969 16.238281 17.109375 15.894531 17.234375 15.597656 C 17.363281 15.296875 17.546875 15.066406 17.785156 14.898438 C 18.023438 14.726562 18.308594 14.644531 18.636719 14.644531 C 19.027344 14.644531 19.382812 14.769531 19.707031 15.023438 L 19.707031 13.058594 L 20.570312 13.058594 L 20.570312 18.484375 L 19.832031 18.484375 L 19.742188 18.125 C 19.429688 18.414062 19.019531 18.570312 18.59375 18.566406 C 18.121094 18.566406 17.746094 18.394531 17.464844 18.042969 M 15.964844 18.144531 C 16.320312 17.847656 16.496094 17.441406 16.496094 16.929688 C 16.492188 16.460938 16.347656 16.085938 16.058594 15.808594 C 15.765625 15.535156 15.367188 15.398438 14.859375 15.398438 C 14.632812 15.398438 14.421875 15.417969 14.222656 15.457031 L 14.304688 14.101562 L 16.246094 14.101562 L 16.246094 13.402344 L 13.488281 13.402344 L 13.347656 15.589844 L 13.347656 16.148438 C 13.796875 16.097656 14.167969 16.074219 14.464844 16.074219 C 14.863281 16.074219 15.152344 16.144531 15.335938 16.28125 C 15.515625 16.421875 15.605469 16.644531 15.605469 16.945312 C 15.605469 17.570312 15.242188 17.882812 14.519531 17.882812 C 14.132812 17.882812 13.671875 17.792969 13.136719 17.613281 L 13.136719 18.300781 C 13.585938 18.496094 14.054688 18.597656 14.542969 18.597656 C 15.140625 18.597656 15.613281 18.445312 15.964844 18.144531 M 8.113281 18.484375 L 7.292969 18.484375 L 7.292969 13.402344 L 8.289062 13.402344 L 9.8125 16.433594 L 11.367188 13.402344 L 12.335938 13.402344 L 12.335938 18.484375 L 11.515625 18.484375 L 11.515625 14.679688 L 10.195312 17.210938 L 9.386719 17.210938 L 8.113281 14.695312 Z M 8.113281 18.484375 "/>
</svg>
