<svg role="img" viewBox="0 0 32 32" height="32" width="32" xmlns="http://www.w3.org/2000/svg"><path d="M.203.203h31.594v31.594H.203Zm0 0" fill="rgb(90.588235%, 8.235294%, 48.235294%)"/><path d="m24.68 19.3.879.305-.555 1.606a.459.459 0 0 1-.442.309h-.054l-1.797-.227.117-.922 1.016.125c-.403-.629-1.153-1.016-2.051-1.016-1.18 0-2.07.645-2.273 1.641l-.91-.187c.296-1.45 1.546-2.387 3.183-2.387 1.148 0 2.121.488 2.707 1.273Zm-.614 3.153.91.192c-.296 1.437-1.574 2.402-3.183 2.402-1.05 0-1.973-.453-2.57-1.176l-.09.438-.914-.196.37-1.742a.466.466 0 0 1 .548-.36l1.691.333-.18.914-.851-.168c.406.625 1.144 1.027 1.996 1.027 1.176 0 2.066-.652 2.273-1.664m3.641.145-.559-.032a.483.483 0 0 0-.484.364 4.736 4.736 0 0 1-.64 1.543.47.47 0 0 0 .085.597l.418.371-1.082 1.086-.37-.418a.465.465 0 0 0-.598-.078 5.06 5.06 0 0 1-1.547.637.47.47 0 0 0-.364.484l.032.555h-1.535l.03-.555a.465.465 0 0 0-.359-.484 5.058 5.058 0 0 1-1.547-.637.46.46 0 0 0-.593.078l-.375.418-1.082-1.086.418-.367a.47.47 0 0 0 .082-.597c-.301-.477-.516-1-.64-1.547a.457.457 0 0 0-.477-.364l-.56.032v-1.532l.56.028a.475.475 0 0 0 .48-.36c.121-.547.34-1.066.64-1.543a.46.46 0 0 0-.085-.593l-.418-.38 1.082-1.081.379.418a.46.46 0 0 0 .593.086A4.92 4.92 0 0 1 20.734 17a.448.448 0 0 0 .36-.477l-.032-.562h1.536l-.032.562a.458.458 0 0 0 .364.477 4.89 4.89 0 0 1 1.539.64.47.47 0 0 0 .601-.081l.371-.422 1.086 1.082-.418.379a.466.466 0 0 0-.086.593c.301.477.52.997.641 1.543.055.223.27.375.484.36l.559-.028Zm.785-2.364a.49.49 0 0 0-.344-.129l-.675.043a5.634 5.634 0 0 0-.461-1.109l.504-.45a.445.445 0 0 0 .152-.335.45.45 0 0 0-.133-.344l-1.781-1.781a.461.461 0 0 0-.676.02l-.45.503a5.62 5.62 0 0 0-1.108-.457l.039-.675a.447.447 0 0 0-.13-.344.455.455 0 0 0-.335-.149h-2.52a.482.482 0 0 0-.34.145.461.461 0 0 0-.129.348l.043.675a5.62 5.62 0 0 0-1.109.457l-.45-.504a.468.468 0 0 0-.68-.02l-1.78 1.782a.468.468 0 0 0 .02.68l.503.45a6.102 6.102 0 0 0-.46 1.108l-.672-.043a.493.493 0 0 0-.348.13.482.482 0 0 0-.145.34v2.519c0 .129.055.25.145.34a.496.496 0 0 0 .348.125l.671-.04c.114.387.266.758.457 1.114l-.5.445a.452.452 0 0 0-.02.676l1.782 1.781c.09.09.223.145.344.133.129 0 .25-.055.336-.152l.445-.504c.356.195.723.351 1.113.465l-.043.671a.49.49 0 0 0 .13.344c.09.094.214.145.34.145h2.519c.129 0 .25-.051.336-.145a.447.447 0 0 0 .129-.344l-.04-.671a5.753 5.753 0 0 0 1.114-.457l.445.496a.431.431 0 0 0 .332.152.424.424 0 0 0 .344-.133l1.781-1.781a.436.436 0 0 0 .133-.344.431.431 0 0 0-.152-.332l-.504-.45a5.42 5.42 0 0 0 .465-1.108l.671.039c.122.003.25-.04.344-.125a.467.467 0 0 0 .145-.34v-2.52a.446.446 0 0 0-.145-.34m-24.199 2.68h9.312v.934H3.828a.48.48 0 0 1-.332-.137.477.477 0 0 1-.133-.332V3.829c0-.259.207-.466.465-.466h21.414a.47.47 0 0 1 .469.465v10.238h-.934V4.293H4.293ZM19.656 9.88h-.465v-.93h2.793v.93Zm.469-1.863v-1.86h.93v1.86Zm1.86 6.05v-3.254h.464c.258 0 .465-.21.465-.468V8.48a.448.448 0 0 0-.137-.328.448.448 0 0 0-.328-.136h-.465V5.69a.473.473 0 0 0-.136-.332.477.477 0 0 0-.332-.132h-1.86a.434.434 0 0 0-.328.136.448.448 0 0 0-.137.328v2.325h-.464a.466.466 0 0 0-.465.464v1.864c0 .258.207.469.465.469h.464v3.253h.934v-3.254h.93v3.254ZM13.14 15h-.465v-.934h2.789V15Zm.464-1.86V6.157h.93v6.985Zm1.86 3.723v-.933h.465a.484.484 0 0 0 .332-.133.498.498 0 0 0 .136-.332v-1.86a.472.472 0 0 0-.468-.464h-.465V5.69A.471.471 0 0 0 15 5.227h-1.86a.464.464 0 0 0-.464.464v7.45h-.469a.464.464 0 0 0-.465.464v1.86c0 .125.047.242.137.328.086.09.203.137.328.137h.469v5.125h.93V15.93h.93v.933Zm-9.309-6.52H8.95v.934H6.156Zm.93-.929V6.156h.93v3.258Zm0 10.711v-7.918h.93v7.918Zm-.469.93H8.48c.262 0 .47-.211.47-.465v-8.383h.464a.448.448 0 0 0 .328-.137.448.448 0 0 0 .137-.328V9.88a.466.466 0 0 0-.465-.465H8.95V5.691a.442.442 0 0 0-.136-.332.477.477 0 0 0-.333-.132H6.617a.47.47 0 0 0-.46.464v3.723H5.69a.464.464 0 0 0-.464.465v1.863c0 .254.207.465.464.465h.465v8.383c0 .254.207.465.461.465" fill="rgb(100%, 100%, 100%)"/></svg>