<svg role="img" viewBox="0 0 32 32" height="32" width="32" xmlns="http://www.w3.org/2000/svg"><path d="M.203.203h32v32h-32Zm0 0" fill="rgb(100%, 100%, 100%)"/><path d="M.203.203h31.594v31.594H.203Zm0 0" fill="rgb(78.823529%, 14.509804%, 81.960784%)"/><path d="M20.965 25.504v-2.64c-1.145.734-3.203 1.09-5.164 1.09-2.14 0-3.809-.38-4.766-1.02v2.57c0 .766 1.781 1.555 4.766 1.555 3.043 0 5.164-.82 5.164-1.555M15.8 19.937c-2.14 0-3.809-.37-4.766-1.011V21.5c.016.762 1.793 1.547 4.766 1.547 3.035 0 5.148-.813 5.164-1.547v-2.652c-1.145.742-3.203 1.09-5.164 1.09m5.164-2.45v-3.054c-1.145.738-3.203 1.09-5.164 1.09-2.14 0-3.809-.376-4.766-1.016v2.98c.016.762 1.793 1.547 4.766 1.547 3.035 0 5.148-.816 5.164-1.547m-9.93-4.425v.007c.016.762 1.793 1.547 4.766 1.547 3.312 0 5.148-.91 5.164-1.547v-.008c0-.636-1.836-1.554-5.164-1.554-2.985 0-4.766.789-4.766 1.555m10.836.011v12.43c0 1.687-3.148 2.457-6.07 2.457-3.442 0-5.672-.965-5.672-2.457V13.062c0-1.492 2.226-2.457 5.672-2.457 2.922 0 6.07.77 6.07 2.457Zm6.317-5.82a.434.434 0 0 0 .316-.133.45.45 0 0 0 .133-.32V4.492a.453.453 0 0 0-.45-.453H3.814a.453.453 0 0 0-.45.453v2.309c0 .25.203.453.45.453.55 0 1 .445 1 .992 0 .547-.45.992-1 .992a.452.452 0 0 0-.45.45v9.25c0 .246.203.449.45.449h4.515v-.903H6.07V17.13h2.258v-.902h-2.71a.452.452 0 0 0-.45.449v1.808h-.902v-8.398a1.9 1.9 0 0 0 1.449-1.84c0-.89-.621-1.64-1.45-1.844v-1.46h23.47v1.46a1.909 1.909 0 0 0-1.45 1.844c0 .89.621 1.637 1.45 1.84v8.398h-.903v-1.808a.452.452 0 0 0-.45-.45h-2.71v.903h2.258v1.355h-2.258v.903h4.515c.247 0 .45-.203.45-.45v-9.25a.452.452 0 0 0-.45-.449c-.55 0-1-.445-1-.992 0-.547.45-.992 1-.992M10.586 10.36V6.75a.458.458 0 0 0-.133-.324.458.458 0 0 0-.324-.133H7.426a.458.458 0 0 0-.324.133.472.472 0 0 0-.13.324v7.672c0 .25.2.453.454.453h1.351v-.906h-.902v-6.77H9.68v3.16Zm13.539 3.61h-.453v.906h.902a.462.462 0 0 0 .32-.129.458.458 0 0 0 .133-.324V6.75a.458.458 0 0 0-.132-.324.45.45 0 0 0-.32-.133H21.87a.458.458 0 0 0-.324.133.458.458 0 0 0-.133.324v3.61h.906V7.2h1.805Zm-3.613-4.063V6.75c0-.25-.2-.453-.45-.457h-3.16a.458.458 0 0 0-.324.133.454.454 0 0 0-.129.324v2.703h.903V7.2h2.257v2.707Zm-5.864-.453V7.2h-2.257v2.707h-.903V6.75c0-.254.203-.457.45-.457h3.16c.25 0 .453.203.453.457v2.703Zm0 0" fill="rgb(100%, 100%, 100%)"/></svg>