<svg role="img" viewBox="0 0 32 32" xmlns="http://www.w3.org/2000/svg"><path d="M20.371 19.2H19.27v-4.75h.918l.109.523q.878-.663 1.832-.664.679 0 1.035.359c.234.242.356.586.356 1.043v3.488h-1.102v-3.144q0-.458-.188-.668-.187-.21-.597-.211-.616-.002-1.262.414Zm-4.387.14a4.4 4.4 0 0 1-1.789-.375v-.875q1.019.345 1.762.344 1.383 0 1.383-1.196 0-.575-.348-.843c-.234-.176-.601-.266-1.11-.266q-.562 0-1.417.094v-.711l.176-2.782h3.511v.887H15.68l-.106 1.727a4.5 4.5 0 0 1 .813-.074c.644 0 1.156.175 1.527.523.367.348.555.824.555 1.43q0 .967-.672 1.543c-.45.382-1.05.574-1.813.574m-6.714-.848q-.788-.825-.79-2.43 0-1.652.82-2.542.816-.891 2.345-.891.842.001 1.55.254v.933q-.93-.199-1.457-.199c-.71 0-1.234.184-1.582.551q-.515.55-.515 1.7v.226q-.002 1.138.511 1.683.511.547 1.567.547.591 0 1.57-.234v.933q-.736.289-1.68.29c-1.035 0-1.812-.274-2.34-.82M6 26h20V6H6ZM30.668 8.668V7.332h-3.336v-2a.664.664 0 0 0-.664-.664h-2V1.332h-1.336v3.336h-2.664V1.332h-1.336v3.336h-2.664V1.332h-1.336v3.336h-2.664V1.332h-1.336v3.336H8.668V1.332H7.332v3.336h-2a.664.664 0 0 0-.664.664v2H1.332v1.336h3.336v2.664H1.332v1.336h3.336v2.664H1.332v1.336h3.336v2.664H1.332v1.336h3.336v2.664H1.332v1.336h3.336v2c0 .367.297.664.664.664h2v3.336h1.336v-3.336h2.664v3.336h1.336v-3.336h2.664v3.336h1.336v-3.336h2.664v3.336h1.336v-3.336h2.664v3.336h1.336v-3.336h2a.664.664 0 0 0 .664-.664v-2h3.336v-1.336h-3.336v-2.664h3.336v-1.336h-3.336v-2.664h3.336v-1.336h-3.336v-2.664h3.336v-1.336h-3.336V8.668Zm0 0" fill="rgb(83.137256%, 35.686275%, 2.745098%)" fill-rule="evenodd"/></svg>