<svg role="img" viewBox="0 0 32 32" xmlns="http://www.w3.org/2000/svg"><path d="M6 26h20V6H6ZM30.668 8.668V7.332h-3.336v-2a.664.664 0 0 0-.664-.664h-2V1.332h-1.336v3.336h-2.664V1.332h-1.336v3.336h-2.664V1.332h-1.336v3.336h-2.664V1.332h-1.336v3.336H8.668V1.332H7.332v3.336h-2a.664.664 0 0 0-.664.664v2H1.332v1.336h3.336v2.664H1.332v1.336h3.336v2.664H1.332v1.336h3.336v2.664H1.332v1.336h3.336v2.664H1.332v1.336h3.336v2c0 .367.297.664.664.664h2v3.336h1.336v-3.336h2.664v3.336h1.336v-3.336h2.664v3.336h1.336v-3.336h2.664v3.336h1.336v-3.336h2.664v3.336h1.336v-3.336h2a.664.664 0 0 0 .664-.664v-2h3.336v-1.336h-3.336v-2.664h3.336v-1.336h-3.336v-2.664h3.336v-1.336h-3.336v-2.664h3.336v-1.336h-3.336V8.668Zm-8.352 9.215q.434.002.844-.278V15.59a1.4 1.4 0 0 0-.828-.266c-.328 0-.566.106-.723.313q-.229.311-.23.957 0 1.29.937 1.289m.97.601-.087-.359a1.68 1.68 0 0 1-1.152.441q-.704 0-1.125-.523c-.281-.352-.422-.82-.422-1.414q0-.585.188-1.031.193-.45.55-.7.361-.255.852-.253c.39 0 .75.125 1.07.378V13.06h.867v5.425Zm-5.177-.504q.206 0 .434-.093c.156-.059.3-.145.445-.258v-.703a3.2 3.2 0 0 0-.672-.082q-.743.001-.742.593 0 .258.14.399a.53.53 0 0 0 .395.144m.989.504-.067-.359c-.168.148-.36.262-.566.348a1.7 1.7 0 0 1-.621.125c-.34 0-.621-.106-.832-.309a1.07 1.07 0 0 1-.32-.8q0-.544.394-.864c.262-.219.613-.324 1.05-.324q.392-.001.852.11v-.434q0-.372-.16-.52-.164-.146-.566-.145-.574 0-1.313.239v-.606q.277-.14.676-.222.4-.077.8-.078c.49 0 .848.097 1.083.293q.345.293.344.914v2.632Zm-4.246-1.742v-2.238l-1.532 2.238Zm0 1.742V17.43h-2.407v-.653l2.371-3.375h.91v3.34h.68v.688h-.68v1.054Zm-4.497-.664q.352 0 .692-.066V16.41h-1.05v-.703h1.944v2.492q-.333.176-.785.278-.451.098-.926.097-1.219 0-1.859-.668-.64-.666-.64-1.93.002-1.282.66-1.968.657-.685 1.894-.684.832-.002 1.48.301v.71q-.772-.256-1.421-.257-.865.001-1.285.442-.418.44-.418 1.37v.153c0 .613.136 1.059.414 1.348q.415.429 1.3.43m0 0" fill="rgb(83.137256%, 35.686275%, 2.745098%)" fill-rule="evenodd"/></svg>