<?xml version="1.0" encoding="UTF-8"?>
<svg xmlns="http://www.w3.org/2000/svg" xmlns:xlink="http://www.w3.org/1999/xlink" width="32" height="32" viewBox="0 0 32 32">
<path fill-rule="evenodd" fill="rgb(83.137255%, 35.686275%, 2.745098%)" fill-opacity="1" d="M 20.023438 15.777344 C 20.21875 15.511719 20.527344 15.378906 20.941406 15.378906 C 21.328125 15.378906 21.679688 15.492188 21.996094 15.714844 L 21.996094 18.28125 C 21.648438 18.519531 21.289062 18.636719 20.925781 18.636719 C 20.125 18.636719 19.730469 18.089844 19.730469 16.992188 C 19.730469 16.445312 19.828125 16.039062 20.023438 15.777344 M 20.578125 19.503906 C 21.132812 19.503906 21.621094 19.316406 22.042969 18.945312 L 22.15625 19.402344 L 23.097656 19.402344 L 23.097656 12.496094 L 21.996094 12.496094 L 21.996094 14.996094 C 21.613281 14.679688 21.128906 14.511719 20.632812 14.511719 C 20.21875 14.511719 19.855469 14.621094 19.550781 14.832031 C 19.246094 15.046875 19.011719 15.34375 18.851562 15.726562 C 18.691406 16.105469 18.609375 16.542969 18.609375 17.039062 C 18.609375 17.792969 18.789062 18.394531 19.144531 18.835938 C 19.503906 19.28125 19.980469 19.503906 20.578125 19.503906 M 15.660156 14.035156 L 13.914062 14.6875 L 13.914062 13.792969 L 15.761719 12.933594 L 16.769531 12.933594 L 16.769531 19.402344 L 15.660156 19.402344 Z M 12.765625 19.402344 L 8.902344 19.402344 L 8.902344 18.589844 L 11.554688 15.492188 L 8.996094 15.492188 L 8.996094 14.652344 L 12.738281 14.652344 L 12.738281 15.464844 L 10.085938 18.5625 L 12.765625 18.5625 Z M 6 26 L 26 26 L 26 6 L 6 6 Z M 30.667969 8.667969 L 30.667969 7.332031 L 27.332031 7.332031 L 27.332031 5.332031 C 27.332031 4.964844 27.035156 4.667969 26.667969 4.667969 L 24.667969 4.667969 L 24.667969 1.332031 L 23.332031 1.332031 L 23.332031 4.667969 L 20.667969 4.667969 L 20.667969 1.332031 L 19.332031 1.332031 L 19.332031 4.667969 L 16.667969 4.667969 L 16.667969 1.332031 L 15.332031 1.332031 L 15.332031 4.667969 L 12.667969 4.667969 L 12.667969 1.332031 L 11.332031 1.332031 L 11.332031 4.667969 L 8.667969 4.667969 L 8.667969 1.332031 L 7.332031 1.332031 L 7.332031 4.667969 L 5.332031 4.667969 C 4.964844 4.667969 4.667969 4.964844 4.667969 5.332031 L 4.667969 7.332031 L 1.332031 7.332031 L 1.332031 8.667969 L 4.667969 8.667969 L 4.667969 11.332031 L 1.332031 11.332031 L 1.332031 12.667969 L 4.667969 12.667969 L 4.667969 15.332031 L 1.332031 15.332031 L 1.332031 16.667969 L 4.667969 16.667969 L 4.667969 19.332031 L 1.332031 19.332031 L 1.332031 20.667969 L 4.667969 20.667969 L 4.667969 23.332031 L 1.332031 23.332031 L 1.332031 24.667969 L 4.667969 24.667969 L 4.667969 26.667969 C 4.667969 27.035156 4.964844 27.332031 5.332031 27.332031 L 7.332031 27.332031 L 7.332031 30.667969 L 8.667969 30.667969 L 8.667969 27.332031 L 11.332031 27.332031 L 11.332031 30.667969 L 12.667969 30.667969 L 12.667969 27.332031 L 15.332031 27.332031 L 15.332031 30.667969 L 16.667969 30.667969 L 16.667969 27.332031 L 19.332031 27.332031 L 19.332031 30.667969 L 20.667969 30.667969 L 20.667969 27.332031 L 23.332031 27.332031 L 23.332031 30.667969 L 24.667969 30.667969 L 24.667969 27.332031 L 26.667969 27.332031 C 27.035156 27.332031 27.332031 27.035156 27.332031 26.667969 L 27.332031 24.667969 L 30.667969 24.667969 L 30.667969 23.332031 L 27.332031 23.332031 L 27.332031 20.667969 L 30.667969 20.667969 L 30.667969 19.332031 L 27.332031 19.332031 L 27.332031 16.667969 L 30.667969 16.667969 L 30.667969 15.332031 L 27.332031 15.332031 L 27.332031 12.667969 L 30.667969 12.667969 L 30.667969 11.332031 L 27.332031 11.332031 L 27.332031 8.667969 Z M 30.667969 8.667969 "/>
</svg>
