<svg role="img" viewBox="0 0 32 32" xmlns="http://www.w3.org/2000/svg"><path d="M21.398 19.258h-1.101v-4.754h.918l.11.523q.877-.66 1.831-.66c.453 0 .797.117 1.035.36q.354.357.356 1.039v3.492H23.44v-3.149c0-.304-.058-.527-.183-.668q-.187-.206-.598-.207-.616 0-1.262.41Zm-4.617.137a4.5 4.5 0 0 1-1.793-.372v-.878c.68.23 1.27.347 1.762.347q1.383 0 1.383-1.195c0-.387-.113-.668-.348-.844-.23-.18-.601-.265-1.105-.265-.38 0-.852.027-1.422.09v-.708l.18-2.78h3.507v.886h-2.468l-.106 1.726q.381-.075.809-.074.971-.002 1.527.524.556.522.555 1.425c0 .649-.223 1.16-.672 1.547q-.669.57-1.809.57M8.5 19.258H7.457v-6.469h1.27l1.941 3.856 1.977-3.856h1.234v6.469h-1.047V14.41l-1.68 3.223h-1.027L8.5 14.43ZM6 26h20V6H6ZM30.668 8.668V7.332h-3.336v-2a.664.664 0 0 0-.664-.664h-2V1.332h-1.336v3.336h-2.664V1.332h-1.336v3.336h-2.664V1.332h-1.336v3.336h-2.664V1.332h-1.336v3.336H8.668V1.332H7.332v3.336h-2a.664.664 0 0 0-.664.664v2H1.332v1.336h3.336v2.664H1.332v1.336h3.336v2.664H1.332v1.336h3.336v2.664H1.332v1.336h3.336v2.664H1.332v1.336h3.336v2c0 .367.297.664.664.664h2v3.336h1.336v-3.336h2.664v3.336h1.336v-3.336h2.664v3.336h1.336v-3.336h2.664v3.336h1.336v-3.336h2.664v3.336h1.336v-3.336h2a.664.664 0 0 0 .664-.664v-2h3.336v-1.336h-3.336v-2.664h3.336v-1.336h-3.336v-2.664h3.336v-1.336h-3.336v-2.664h3.336v-1.336h-3.336V8.668Zm0 0" fill="rgb(83.137256%, 35.686275%, 2.745098%)" fill-rule="evenodd"/></svg>