<svg role="img" viewBox="0 0 32 32" xmlns="http://www.w3.org/2000/svg"><path d="M6 26h20V6H6ZM27.332 8.668v2.664h3.336v1.336h-3.336v2.664h3.336v1.336h-3.336v2.664h3.336v1.336h-3.336v2.664h3.336v1.336h-3.336v2a.664.664 0 0 1-.664.664h-2v3.336h-1.336v-3.336h-2.664v3.336h-1.336v-3.336h-2.664v3.336h-1.336v-3.336h-2.664v3.336h-1.336v-3.336H8.668v3.336H7.332v-3.336h-2a.664.664 0 0 1-.664-.664v-2H1.332v-1.336h3.336v-2.664H1.332v-1.336h3.336v-2.664H1.332v-1.336h3.336v-2.664H1.332v-1.336h3.336V8.668H1.332V7.332h3.336v-2c0-.367.297-.664.664-.664h2V1.332h1.336v3.336h2.664V1.332h1.336v3.336h2.664V1.332h1.336v3.336h2.664V1.332h1.336v3.336h2.664V1.332h1.336v3.336h2c.367 0 .664.297.664.664v2h3.336v1.336Zm-5.227 7.828a4.3 4.3 0 0 0-.851-.101q-.95 0-.95.757.001.328.184.508.183.183.5.184.263 0 .555-.117t.562-.332Zm0-.652v-.551q.001-.473-.203-.66t-.718-.188q-.728 0-1.672.309v-.777q.353-.177.86-.278.508-.105 1.023-.105.931 0 1.37.375c.297.25.442.636.442 1.168v3.347h-.96l-.083-.457q-.329.282-.723.442a2.1 2.1 0 0 1-.789.156q-.655 0-1.058-.39-.409-.393-.407-1.02 0-.686.497-1.098.502-.415 1.34-.414.495 0 1.081.14M17.73 18.05q.674-.573.672-1.543c0-.606-.187-1.078-.558-1.43-.367-.348-.88-.52-1.524-.52a4 4 0 0 0-.812.075l.105-1.727h2.473v-.886h-3.512l-.176 2.78v.708a13 13 0 0 1 1.418-.094c.508 0 .875.09 1.11.266q.346.268.347.847 0 1.194-1.382 1.192-.743 0-1.762-.344v.879q.856.37 1.789.371c.762 0 1.363-.191 1.812-.574m-8.34-.274q-.79-.82-.788-2.425 0-1.653.816-2.543.82-.896 2.348-.895c.558 0 1.078.086 1.55.254v.934q-.932-.198-1.46-.196-1.062 0-1.579.551c-.343.367-.52.93-.52 1.695v.227q0 1.137.516 1.684.511.545 1.567.546.591 0 1.57-.234v.934c-.492.191-1.055.289-1.68.289-1.035 0-1.812-.274-2.34-.82m0 0" fill="rgb(83.137256%, 35.686275%, 2.745098%)" fill-rule="evenodd"/></svg>