<svg role="img" viewBox="0 0 32 32" xmlns="http://www.w3.org/2000/svg"><path d="M6 26h20V6H6ZM27.332 8.668v2.664h3.336v1.336h-3.336v2.664h3.336v1.336h-3.336v2.664h3.336v1.336h-3.336v2.664h3.336v1.336h-3.336v2a.664.664 0 0 1-.664.664h-2v3.336h-1.336v-3.336h-2.664v3.336h-1.336v-3.336h-2.664v3.336h-1.336v-3.336h-2.664v3.336h-1.336v-3.336H8.668v3.336H7.332v-3.336h-2a.664.664 0 0 1-.664-.664v-2H1.332v-1.336h3.336v-2.664H1.332v-1.336h3.336v-2.664H1.332v-1.336h3.336v-2.664H1.332v-1.336h3.336V8.668H1.332V7.332h3.336v-2c0-.367.297-.664.664-.664h2V1.332h1.336v3.336h2.664V1.332h1.336v3.336h2.664V1.332h1.336v3.336h2.664V1.332h1.336v3.336h2.664V1.332h1.336v3.336h2c.367 0 .664.297.664.664v2h3.336v1.336Zm-4.863 4.95c.203 0 .367-.056.484-.169q.176-.165.176-.465 0-.299-.176-.468a.7.7 0 0 0-.484-.168.7.7 0 0 0-.489.168q-.175.17-.175.468 0 .3.175.465c.122.114.282.168.489.168m-.551 5.534h1.102v-4.75h-1.102ZM17.5 16.418q.066 1.987 1.297 1.988.5.001.781-.308c.192-.203.285-.493.285-.86q0-.557-.293-.851-.291-.299-.847-.297-.603 0-1.223.328m-.535 2.082q-.593-.796-.594-2.344-.001-1.717.707-2.668.703-.953 1.98-.953.405 0 .81.09.405.088.695.238v.813a3.4 3.4 0 0 0-.66-.184 3.7 3.7 0 0 0-.688-.07q-.838 0-1.254.558c-.273.375-.43.95-.461 1.727a2.85 2.85 0 0 1 1.57-.473q.867 0 1.395.528.527.525.527 1.402.002.616-.277 1.098c-.18.32-.445.574-.793.754q-.516.276-1.207.277-1.16-.001-1.75-.793m-6.977.652H8.941v-6.468h1.27l1.941 3.855 1.98-3.855h1.231v6.468H14.32V14.31l-1.683 3.218h-1.024l-1.625-3.199Zm0 0" fill="rgb(83.137256%, 35.686275%, 2.745098%)" fill-rule="evenodd"/></svg>