<svg role="img" viewBox="0 0 32 32" height="32" width="32" xmlns="http://www.w3.org/2000/svg"><path d="M19.54 19.379a4.368 4.368 0 0 1-1.794-.375v-.879c.68.23 1.266.348 1.762.348.922 0 1.383-.399 1.383-1.196 0-.386-.118-.668-.348-.843-.23-.18-.602-.266-1.11-.266-.374 0-.847.031-1.417.094v-.711l.175-2.781h3.512v.886h-2.469l-.109 1.727c.27-.051.54-.078.813-.074.644 0 1.156.171 1.527.523.37.348.555.824.555 1.426 0 .648-.223 1.164-.672 1.547-.45.383-1.051.574-1.809.574m-8.516-.14H9.98v-6.47h1.27l1.941 3.856 1.977-3.855h1.234v6.468h-1.047v-4.843l-1.68 3.218h-1.027l-1.625-3.203ZM6 26h20V6H6ZM30.668 8.668V7.332h-3.336v-2a.664.664 0 0 0-.664-.664h-2V1.332h-1.336v3.336h-2.664V1.332h-1.336v3.336h-2.664V1.332h-1.336v3.336h-2.664V1.332h-1.336v3.336H8.668V1.332H7.332v3.336h-2a.664.664 0 0 0-.664.664v2H1.332v1.336h3.336v2.664H1.332v1.336h3.336v2.664H1.332v1.336h3.336v2.664H1.332v1.336h3.336v2.664H1.332v1.336h3.336v2c0 .367.297.664.664.664h2v3.336h1.336v-3.336h2.664v3.336h1.336v-3.336h2.664v3.336h1.336v-3.336h2.664v3.336h1.336v-3.336h2.664v3.336h1.336v-3.336h2a.664.664 0 0 0 .664-.664v-2h3.336v-1.336h-3.336v-2.664h3.336v-1.336h-3.336v-2.664h3.336v-1.336h-3.336v-2.664h3.336v-1.336h-3.336V8.668Zm0 0" fill="rgb(83.137255%, 35.686275%, 2.745098%)" fill-rule="evenodd"/></svg>