<svg role="img" viewBox="0 0 28.53 32" xmlns="http://www.w3.org/2000/svg"><defs><linearGradient gradientTransform="matrix(6.82422 0 0 8.84375 11.371 11.18)" gradientUnits="userSpaceOnUse" id="aws-eks-cluster_svg__a" x1=".855" x2=".059" y1=".974" y2="-.037"><stop offset="0" stop-color="rgb(30.980393%, 40.000001%, 72.549021%)"/><stop offset=".01" stop-color="rgb(28.235295%, 30.980393%, 67.058825%)"/></linearGradient><linearGradient gradientTransform="matrix(12.80469 0 0 21.67969 15.16 .617)" gradientUnits="userSpaceOnUse" id="aws-eks-cluster_svg__b" x1="1.106" x2=".145" y1=".943" y2="-.035"><stop offset="0" stop-color="rgb(30.980393%, 40.000001%, 72.549021%)"/><stop offset=".01" stop-color="rgb(28.235295%, 30.980393%, 67.058825%)"/></linearGradient><linearGradient gradientTransform="matrix(26.13672 0 0 30.77344 .617 .617)" gradientUnits="userSpaceOnUse" id="aws-eks-cluster_svg__c" x1=".63" x2=".117" y1=".945" y2=".176"><stop offset="0" stop-color="rgb(29.803923%, 40.784314%, 73.333335%)"/><stop offset=".01" stop-color="rgb(31.764707%, 50.196081%, 78.823531%)"/></linearGradient></defs><path d="M11.371 11.18h1.266v3.726l3.636-3.726h1.668l-3.992 4.105 4.246 4.738h-1.617l-3.941-4.421v4.421H11.37Zm0 0" fill="url(#aws-eks-cluster_svg__a)"/><path d="m15.332 7.672 6.223 3.59a.35.35 0 0 1 .172.297v7.187c0 .121.066.234.171.297l5.551 3.207a.343.343 0 0 0 .516-.297V7.957a.35.35 0 0 0-.172-.297l-12.117-7a.348.348 0 0 0-.516.3v6.411a.33.33 0 0 0 .172.3" fill="url(#aws-eks-cluster_svg__b)"/><path d="M20.684 20.547 14.46 24.14a.34.34 0 0 1-.344 0l-7.09-4.094a.35.35 0 0 1-.172-.297v-8.191c0-.121.067-.235.172-.297l6.223-3.594a.36.36 0 0 0 .172-.297V.961a.36.36 0 0 0-.176-.297.35.35 0 0 0-.34-.004l-12.12 7a.34.34 0 0 0-.169.297v15.395c0 .12.063.234.168.296l13.332 7.7a.36.36 0 0 0 .344 0l12.121-7a.34.34 0 0 0 .172-.297.36.36 0 0 0-.172-.297l-5.555-3.207a.34.34 0 0 0-.343 0" fill="url(#aws-eks-cluster_svg__c)"/></svg>