<svg role="img" viewBox="0 0 32 32" height="32" width="32" xmlns="http://www.w3.org/2000/svg"><path d="M.203.203h31.594v31.594H.203Zm0 0" fill="rgb(90.588235%, 8.235294%, 48.235294%)"/><path d="M21.871 16.207h2.254v-.902h-2.254Zm-11.285 5.426h2.254v-.906h-2.254Zm-4.516 0h3.16v-.906H6.07Zm0-2.711h5.418v-.906H6.07Zm0-5.426h4.059v-.902H6.07Zm0 2.711h14.895v-.902H6.07Zm8.578 9.95H4.266V10.78h10.382v3.617h.903v-4.066a.453.453 0 0 0-.453-.453H3.813a.45.45 0 0 0-.45.453v16.273c0 .25.203.454.45.454h11.285c.25 0 .453-.204.453-.454v-9.042h-.903Zm13.989-11.302c0 2.918-2.63 3.934-4.02 4.063l-7.265.004v-.906h7.222c.09-.012 3.16-.344 3.16-3.16 0-2.575-2.316-3.098-2.78-3.172a.46.46 0 0 1-.376-.489v-.023c-.023-1.45-.914-1.902-1.3-2.035-.72-.239-1.52-.012-1.946.558a.461.461 0 0 1-.43.18.453.453 0 0 1-.359-.297c-.277-.785-.688-1.293-1.25-1.863-1.418-1.402-3.336-1.793-5.133-1.035-.941.398-1.765 1.297-2.258 2.468l-.832-.351c.582-1.383 1.582-2.461 2.742-2.953 2.145-.903 4.43-.442 6.118 1.234.48.484.883.953 1.195 1.567.672-.5 1.578-.649 2.438-.364 1.097.364 1.792 1.32 1.902 2.586 1.539.387 3.172 1.617 3.172 3.988" fill="rgb(100%, 100%, 100%)"/></svg>