<?xml version="1.0" encoding="UTF-8"?>
<svg xmlns="http://www.w3.org/2000/svg" xmlns:xlink="http://www.w3.org/1999/xlink" width="32" height="32" viewBox="0 0 32 32">
<path fill-rule="evenodd" fill="rgb(83.137255%, 35.686275%, 2.745098%)" fill-opacity="1" d="M 6 26 L 26 26 L 26 6 L 6 6 Z M 30.667969 8.667969 L 30.667969 7.332031 L 27.332031 7.332031 L 27.332031 5.332031 C 27.332031 4.964844 27.035156 4.667969 26.667969 4.667969 L 24.667969 4.667969 L 24.667969 1.332031 L 23.332031 1.332031 L 23.332031 4.667969 L 20.667969 4.667969 L 20.667969 1.332031 L 19.332031 1.332031 L 19.332031 4.667969 L 16.667969 4.667969 L 16.667969 1.332031 L 15.332031 1.332031 L 15.332031 4.667969 L 12.667969 4.667969 L 12.667969 1.332031 L 11.332031 1.332031 L 11.332031 4.667969 L 8.667969 4.667969 L 8.667969 1.332031 L 7.332031 1.332031 L 7.332031 4.667969 L 5.332031 4.667969 C 4.964844 4.667969 4.667969 4.964844 4.667969 5.332031 L 4.667969 7.332031 L 1.332031 7.332031 L 1.332031 8.667969 L 4.667969 8.667969 L 4.667969 11.332031 L 1.332031 11.332031 L 1.332031 12.667969 L 4.667969 12.667969 L 4.667969 15.332031 L 1.332031 15.332031 L 1.332031 16.667969 L 4.667969 16.667969 L 4.667969 19.332031 L 1.332031 19.332031 L 1.332031 20.667969 L 4.667969 20.667969 L 4.667969 23.332031 L 1.332031 23.332031 L 1.332031 24.667969 L 4.667969 24.667969 L 4.667969 26.667969 C 4.667969 27.035156 4.964844 27.332031 5.332031 27.332031 L 7.332031 27.332031 L 7.332031 30.667969 L 8.667969 30.667969 L 8.667969 27.332031 L 11.332031 27.332031 L 11.332031 30.667969 L 12.667969 30.667969 L 12.667969 27.332031 L 15.332031 27.332031 L 15.332031 30.667969 L 16.667969 30.667969 L 16.667969 27.332031 L 19.332031 27.332031 L 19.332031 30.667969 L 20.667969 30.667969 L 20.667969 27.332031 L 23.332031 27.332031 L 23.332031 30.667969 L 24.667969 30.667969 L 24.667969 27.332031 L 26.667969 27.332031 C 27.035156 27.332031 27.332031 27.035156 27.332031 26.667969 L 27.332031 24.667969 L 30.667969 24.667969 L 30.667969 23.332031 L 27.332031 23.332031 L 27.332031 20.667969 L 30.667969 20.667969 L 30.667969 19.332031 L 27.332031 19.332031 L 27.332031 16.667969 L 30.667969 16.667969 L 30.667969 15.332031 L 27.332031 15.332031 L 27.332031 12.667969 L 30.667969 12.667969 L 30.667969 11.332031 L 27.332031 11.332031 L 27.332031 8.667969 Z M 21.367188 15.636719 C 21.519531 15.429688 21.761719 15.324219 22.089844 15.324219 C 22.394531 15.324219 22.667969 15.414062 22.917969 15.589844 L 22.917969 17.605469 C 22.671875 17.78125 22.378906 17.878906 22.074219 17.882812 C 21.449219 17.882812 21.136719 17.453125 21.136719 16.59375 C 21.136719 16.164062 21.214844 15.84375 21.367188 15.636719 M 21.804688 18.566406 C 22.238281 18.566406 22.621094 18.421875 22.957031 18.125 L 23.042969 18.484375 L 23.785156 18.484375 L 23.785156 13.058594 L 22.917969 13.058594 L 22.917969 15.023438 C 22.613281 14.777344 22.238281 14.644531 21.847656 14.644531 C 21.519531 14.644531 21.238281 14.726562 20.996094 14.898438 C 20.75 15.074219 20.558594 15.316406 20.449219 15.597656 C 20.316406 15.925781 20.25 16.273438 20.257812 16.628906 C 20.257812 17.222656 20.398438 17.691406 20.679688 18.042969 C 20.960938 18.390625 21.335938 18.566406 21.804688 18.566406 M 18.746094 17.628906 C 18.601562 17.742188 18.453125 17.828125 18.304688 17.886719 C 18.148438 17.949219 18.003906 17.980469 17.867188 17.980469 C 17.722656 17.988281 17.578125 17.933594 17.472656 17.835938 C 17.378906 17.742188 17.332031 17.609375 17.332031 17.4375 C 17.332031 17.042969 17.578125 16.84375 18.074219 16.84375 C 18.269531 16.84375 18.492188 16.871094 18.746094 16.925781 Z M 17.894531 16.300781 C 17.457031 16.300781 17.105469 16.40625 16.84375 16.625 C 16.582031 16.835938 16.449219 17.125 16.449219 17.488281 C 16.449219 17.816406 16.558594 18.082031 16.769531 18.289062 C 16.984375 18.492188 17.261719 18.597656 17.601562 18.597656 C 17.808594 18.597656 18.015625 18.554688 18.222656 18.472656 C 18.429688 18.386719 18.621094 18.269531 18.789062 18.125 L 18.855469 18.484375 L 19.613281 18.484375 L 19.613281 15.851562 C 19.613281 15.4375 19.496094 15.128906 19.265625 14.9375 C 19.03125 14.742188 18.671875 14.644531 18.183594 14.644531 C 17.917969 14.644531 17.648438 14.671875 17.382812 14.722656 C 17.148438 14.765625 16.921875 14.839844 16.707031 14.945312 L 16.707031 15.550781 C 17.203125 15.390625 17.636719 15.3125 18.019531 15.3125 C 18.289062 15.308594 18.476562 15.359375 18.585938 15.457031 C 18.691406 15.554688 18.746094 15.726562 18.746094 15.976562 L 18.746094 16.410156 C 18.46875 16.339844 18.183594 16.300781 17.894531 16.300781 M 13.882812 18.597656 C 13.394531 18.597656 12.925781 18.492188 12.476562 18.300781 L 12.476562 17.609375 C 13.011719 17.789062 13.472656 17.882812 13.863281 17.882812 C 14.585938 17.882812 14.949219 17.566406 14.949219 16.941406 C 14.949219 16.644531 14.855469 16.421875 14.675781 16.277344 C 14.492188 16.140625 14.203125 16.074219 13.804688 16.070312 C 13.507812 16.070312 13.136719 16.097656 12.6875 16.144531 L 12.6875 15.589844 L 12.828125 13.398438 L 15.585938 13.398438 L 15.585938 14.101562 L 13.644531 14.101562 L 13.5625 15.453125 C 13.761719 15.414062 13.972656 15.394531 14.199219 15.394531 C 14.703125 15.394531 15.105469 15.53125 15.398438 15.804688 C 15.6875 16.082031 15.832031 16.453125 15.835938 16.929688 C 15.835938 17.4375 15.660156 17.84375 15.308594 18.144531 C 14.953125 18.445312 14.476562 18.59375 13.882812 18.597656 M 9.089844 14.09375 L 10 14.09375 C 10.554688 14.09375 10.832031 14.375 10.832031 14.9375 C 10.832031 15.5 10.546875 15.78125 9.980469 15.78125 L 9.089844 15.78125 Z M 9.089844 16.46875 L 9.984375 16.46875 L 11.171875 18.484375 L 12.066406 18.484375 L 10.753906 16.316406 C 11.074219 16.1875 11.320312 16.003906 11.488281 15.765625 C 11.660156 15.527344 11.742188 15.238281 11.742188 14.90625 C 11.742188 14.449219 11.59375 14.082031 11.292969 13.8125 C 10.992188 13.539062 10.589844 13.402344 10.09375 13.402344 L 8.191406 13.402344 L 8.191406 18.484375 L 9.089844 18.484375 Z M 9.089844 16.46875 "/>
</svg>
