<svg role="img" viewBox="0 0 32 32" height="32" width="32" xmlns="http://www.w3.org/2000/svg"><defs><linearGradient gradientTransform="scale(32)" gradientUnits="userSpaceOnUse" id="485__484__330__329__61__60__334__333__329__328__33__32__243__242__139__138__217__216__59__58__aws-secrets-manager_svg__svg/aws-secrets-manager.svg435__svg/aws-secrets-manager.svg433__aws-secrets-manager-lp-0" x1="0" x2="1" y1="1" y2="0"><stop offset="0" stop-color="rgb(74.117647%, 3.137255%, 8.627451%)"/><stop offset="1" stop-color="rgb(100%, 32.156863%, 32.156863%)"/></linearGradient></defs><path d="M-3.2-3.2h38.4v38.4H-3.2z" fill="url(#485__484__330__329__61__60__334__333__329__328__33__32__243__242__139__138__217__216__59__58__aws-secrets-manager_svg__svg/aws-secrets-manager.svg435__svg/aws-secrets-manager.svg433__aws-secrets-manager-lp-0)"/><path d="M15.621 17.32a.383.383 0 0 0 .188.336c.117.07.265.07.382 0a.37.37 0 0 0 .188-.336.386.386 0 0 0-.11-.27.39.39 0 0 0-.539 0 .388.388 0 0 0-.109.27m-1 0a1.379 1.379 0 1 1 2.758 0c0 .567-.352 1.078-.879 1.282V20h-1v-1.398c-.516-.2-.879-.7-.879-1.282M19.5 15.5h-7v5h7v-1h-1v-1h1v-1h-1v-1h1Zm-6-1h5v-2c0-.434-.29-.93-.773-1.328-.504-.422-1.153-.672-1.727-.672-1.191 0-2.5 1.047-2.5 2Zm6-2v2h.5c.277 0 .5.223.5.5v6c0 .277-.223.5-.5.5h-8a.502.502 0 0 1-.355-.145A.502.502 0 0 1 11.5 21v-6c0-.277.223-.5.5-.5h.5v-2c0-1.516 1.734-3 3.5-3 .813 0 1.676.328 2.367.902.719.594 1.133 1.36 1.133 2.098M7.746 21.977l.809-.59A9.068 9.068 0 0 1 6.84 16.5H8v-1H6.84a9.043 9.043 0 0 1 1.715-4.86l-.809-.585A10.07 10.07 0 0 0 5.84 15.5H5v1h.84a10.034 10.034 0 0 0 1.906 5.477m13.629 1.484a9.105 9.105 0 0 1-4.875 1.715V24h-1v1.176a9.105 9.105 0 0 1-4.875-1.715l-.586.809a10.077 10.077 0 0 0 5.461 1.906V27h1v-.824a10.131 10.131 0 0 0 5.46-1.906ZM10.625 8.57A9.11 9.11 0 0 1 15.5 6.85V8h1V6.852a9.11 9.11 0 0 1 4.875 1.718l.586-.808a10.082 10.082 0 0 0-5.461-1.91V5h-1v.852a10.07 10.07 0 0 0-5.46 1.91ZM26.16 15.5a10.07 10.07 0 0 0-1.906-5.445l-.809.586A9.13 9.13 0 0 1 25.16 15.5H24v1h1.16a9.068 9.068 0 0 1-1.715 4.887l.809.59A10.107 10.107 0 0 0 26.16 16.5H27v-1Zm-3.648-5.293 3.082-3.078-.707-.707L21.805 9.5ZM9.484 21.82l-3.078 3.082.707.707 3.078-3.082Zm2.137-10.902L5.793 5.086l-.707.707 5.828 5.832Zm10.031 10.027 5.262 5.262-.707.707-5.262-5.262Zm0 0" fill="rgb(100%, 100%, 100%)" fill-rule="evenodd"/></svg>