<svg role="img" viewBox="0 0 32 32" height="32" width="32" xmlns="http://www.w3.org/2000/svg"><path d="M.203.203h31.594v31.594H.203Zm0 0" fill="rgb(54.901961%, 30.980392%, 100%)"/><path d="M22.824 21.473a1.354 1.354 0 0 0-1.355-1.258c-.711 0-1.301.547-1.352 1.258a1.35 1.35 0 0 0 1.352 1.32 1.346 1.346 0 0 0 1.355-1.32m.906 0a2.264 2.264 0 0 1-2.257 2.257 2.264 2.264 0 0 1-2.258-2.257 2.264 2.264 0 0 1 2.258-2.258 2.264 2.264 0 0 1 2.257 2.258M11.66 14.96c0-.746-.605-1.356-1.351-1.356s-1.352.61-1.352 1.356c0 .742.605 1.351 1.352 1.351.746 0 1.351-.609 1.351-1.351m.906 0a2.258 2.258 0 0 1-2.257 2.176A2.258 2.258 0 0 1 8.05 14.96a2.258 2.258 0 0 1 2.258-2.176c1.214 0 2.214.961 2.257 2.176m3.313-7.082c0 .746.61 1.351 1.355 1.351a1.358 1.358 0 0 0 1.352-1.355 1.353 1.353 0 1 0-2.707.004m-.902 0A2.26 2.26 0 0 1 17.23 5.62a2.259 2.259 0 0 1 2.258 2.258 2.26 2.26 0 0 1-2.258 2.254 2.262 2.262 0 0 1-2.253-2.254M27.734 16c0-4.184-2.242-8.059-5.859-10.152-.648.132-1.277.308-2.059.593l-.308-.847c.37-.137.746-.258 1.125-.367a11.566 11.566 0 0 0-6.875-.739c.527.309 1 .621 1.457.965l-.547.719c-.645-.488-1.313-.902-2.188-1.36a11.736 11.736 0 0 0-8.132 9.891 16.192 16.192 0 0 1 2.812-.316l.024.906c-1.04.023-1.93.133-2.907.348-.004.12-.011.242-.011.359a11.692 11.692 0 0 0 5.113 9.68c-.57-1.684-.848-3.278-.848-4.832 0-.883.153-1.61.313-2.38.039-.179.074-.363.113-.554l.887.176c-.043.195-.078.383-.117.558-.16.758-.293 1.41-.293 2.2 0 1.765.386 3.59 1.175 5.57A11.608 11.608 0 0 0 16 27.734c1.23 0 2.45-.195 3.617-.578.442-.87.801-1.777 1.074-2.715l.868.25c-.196.68-.438 1.348-.727 1.997.73-.329 1.418-.735 2.066-1.204a14.808 14.808 0 0 0-.507-1.136l.808-.399c.156.309.297.63.438.953A11.635 11.635 0 0 0 27.734 16m.903 0c0 3.938-1.79 7.582-4.907 9.996a12.165 12.165 0 0 1-2.5 1.5c-.375.168-.757.328-1.152.461-1.3.453-2.672.68-4.078.68-2.078 0-4.14-.516-5.96-1.492A12.591 12.591 0 0 1 3.362 16c0-.309.008-.547.028-.762.304-5.273 3.925-9.84 9-11.351A12.415 12.415 0 0 1 16 3.363c6.977.004 12.633 5.66 12.637 12.637M14.789 9.438l-.594-.68c-1.015.883-1.8 1.824-2.718 3.234l.757.496c.871-1.343 1.61-2.222 2.555-3.05m-1.375 5.855-.289.848c2.07.714 3.879 1.851 5.691 3.578l.622-.657c-1.907-1.82-3.825-3.019-6.024-3.769M19.45 9.98c1.696 2.586 2.653 5.422 2.836 8.43l-.902.059c-.18-2.856-1.082-5.543-2.684-7.989Zm0 0" fill="rgb(100%, 100%, 100%)"/></svg>