<?xml version="1.0" encoding="UTF-8"?>
<svg xmlns="http://www.w3.org/2000/svg" xmlns:xlink="http://www.w3.org/1999/xlink" width="32" height="32" viewBox="0 0 32 32">
<path fill-rule="evenodd" fill="rgb(83.137255%, 35.686275%, 2.745098%)" fill-opacity="1" d="M 30.613281 15.386719 L 25.273438 15.386719 L 27.824219 12.839844 L 26.878906 11.894531 L 23.152344 15.625 C 22.894531 15.886719 22.894531 16.304688 23.152344 16.566406 L 26.878906 20.292969 L 27.824219 19.347656 L 25.195312 16.722656 L 30.613281 16.722656 Z M 5.066406 11.894531 L 4.121094 12.839844 L 6.671875 15.386719 L 1.332031 15.386719 L 1.332031 16.722656 L 6.75 16.722656 L 4.121094 19.347656 L 5.066406 20.292969 L 8.792969 16.566406 C 9.050781 16.304688 9.050781 15.886719 8.792969 15.625 Z M 12.539062 19.488281 L 19.40625 19.488281 L 19.40625 12.621094 L 12.539062 12.621094 Z M 20.59375 11.875 L 21.828125 11.875 L 21.828125 13.207031 L 20.738281 13.207031 L 20.738281 14.214844 L 21.828125 14.214844 L 21.828125 15.550781 L 20.738281 15.550781 L 20.738281 16.558594 L 21.828125 16.558594 L 21.828125 17.890625 L 20.738281 17.890625 L 20.738281 18.902344 L 21.828125 18.902344 L 21.828125 20.234375 L 20.59375 20.234375 C 20.492188 20.421875 20.339844 20.574219 20.152344 20.675781 L 20.152344 21.910156 L 18.820312 21.910156 L 18.820312 20.820312 L 17.8125 20.820312 L 17.8125 21.910156 L 16.476562 21.910156 L 16.476562 20.820312 L 15.46875 20.820312 L 15.46875 21.910156 L 14.136719 21.910156 L 14.136719 20.820312 L 13.125 20.820312 L 13.125 21.910156 L 11.792969 21.910156 L 11.792969 20.675781 C 11.605469 20.574219 11.453125 20.421875 11.351562 20.234375 L 10.117188 20.234375 L 10.117188 18.902344 L 11.207031 18.902344 L 11.207031 17.890625 L 10.117188 17.890625 L 10.117188 16.558594 L 11.207031 16.558594 L 11.207031 15.550781 L 10.117188 15.550781 L 10.117188 14.214844 L 11.207031 14.214844 L 11.207031 13.207031 L 10.117188 13.207031 L 10.117188 11.875 L 11.351562 11.875 C 11.457031 11.6875 11.605469 11.535156 11.792969 11.433594 L 11.792969 10.199219 L 13.125 10.199219 L 13.125 11.289062 L 14.136719 11.289062 L 14.136719 10.199219 L 15.46875 10.199219 L 15.46875 11.289062 L 16.476562 11.289062 L 16.476562 10.199219 L 17.8125 10.199219 L 17.8125 11.289062 L 18.820312 11.289062 L 18.820312 10.199219 L 20.152344 10.199219 L 20.152344 11.433594 C 20.339844 11.535156 20.492188 11.6875 20.59375 11.875 M 16.640625 28.5 L 16.640625 23.082031 L 15.308594 23.082031 L 15.308594 28.5 L 12.714844 25.910156 L 11.773438 26.851562 L 15.5 30.582031 C 15.761719 30.839844 16.179688 30.839844 16.441406 30.582031 L 20.171875 26.851562 L 19.226562 25.910156 Z M 12.714844 6.199219 L 11.773438 5.253906 L 15.5 1.527344 C 15.761719 1.269531 16.179688 1.269531 16.441406 1.527344 L 20.171875 5.253906 L 19.226562 6.199219 L 16.640625 3.609375 L 16.640625 9.027344 L 15.308594 9.027344 L 15.308594 3.609375 Z M 12.714844 6.199219 "/>
</svg>
