<svg role="img" viewBox="0 0 32 32" height="32" width="32" xmlns="http://www.w3.org/2000/svg"><defs><linearGradient gradientTransform="scale(32)" gradientUnits="userSpaceOnUse" id="487__486__332__331__59__58__336__335__331__330__67__66__245__244__141__140__219__218__61__60__aws-guard-duty_svg__svg/aws-guard-duty.svg439__svg/aws-guard-duty.svg437__aws-guard-duty-lp-0" x1="0" x2="1" y1="1" y2="0"><stop offset="0" stop-color="rgb(74.117647%, 3.137255%, 8.627451%)"/><stop offset="1" stop-color="rgb(100%, 32.156863%, 32.156863%)"/></linearGradient></defs><path d="M-3.2-3.2h38.4v38.4H-3.2z" fill="url(#487__486__332__331__59__58__336__335__331__330__67__66__245__244__141__140__219__218__61__60__aws-guard-duty_svg__svg/aws-guard-duty.svg439__svg/aws-guard-duty.svg437__aws-guard-duty-lp-0)"/><path d="M18 17.176c-.016.941-.305 2.039-1.5 2.277v-6.539l1.5.625Zm-4-.008v-3.629l1.5-.625v6.531c-1.379-.293-1.5-1.78-1.5-2.277m1.809-5.465-2.5 1.04a.497.497 0 0 0-.309.46v3.965c0 1.539.785 3.332 3 3.332 1.844 0 2.965-1.234 3-3.316v-3.98a.497.497 0 0 0-.309-.462l-2.5-1.039a.5.5 0 0 0-.382 0M20 17.183c0 .176-.047 4.317-4 4.317-3.937 0-4-4.152-4-4.332v-4.965l4-1.66 4 1.66Zm.691-5.777-4.5-1.867a.5.5 0 0 0-.382 0l-4.5 1.867a.503.503 0 0 0-.309.465v5.297c0 1.848 1.047 5.332 5 5.332 3.953 0 5-3.477 5-5.316V11.87a.503.503 0 0 0-.309-.465M26 17.56l-1.215-.067a.513.513 0 0 0-.515.387 8.421 8.421 0 0 1-1.094 2.64.496.496 0 0 0 .09.641l.906.809-2.203 2.203-.805-.902a.516.516 0 0 0-.64-.09 8.36 8.36 0 0 1-2.645 1.097.492.492 0 0 0-.39.516l.07 1.207H14.44l.067-1.21a.498.498 0 0 0-.387-.517 8.36 8.36 0 0 1-2.644-1.097.5.5 0 0 0-.637.09l-.809.906-2.203-2.203.906-.805a.526.526 0 0 0 .09-.64 8.286 8.286 0 0 1-1.097-2.645.513.513 0 0 0-.516-.387L6 17.56v-3.12l1.215.067a.527.527 0 0 0 .515-.383 8.302 8.302 0 0 1 1.098-2.64.496.496 0 0 0-.09-.641l-.91-.813 2.203-2.203.813.91c.16.184.433.219.636.09a8.034 8.034 0 0 1 2.641-1.094.505.505 0 0 0 .39-.515L14.442 6h3.118l-.067 1.219a.506.506 0 0 0 .387.515 8.493 8.493 0 0 1 2.637 1.094c.207.133.48.094.64-.09l.813-.91 2.203 2.203-.91.809a.527.527 0 0 0-.09.64 8.36 8.36 0 0 1 1.098 2.645.513.513 0 0 0 .515.387l1.215-.07Zm.844-4.008a.54.54 0 0 0-.371-.137l-1.332.074a9.623 9.623 0 0 0-.903-2.175l.996-.887a.505.505 0 0 0 .168-.36.501.501 0 0 0-.148-.367L22.3 6.746a.497.497 0 0 0-.367-.144.5.5 0 0 0-.36.164l-.89 1a9.348 9.348 0 0 0-2.172-.903l.074-1.336a.5.5 0 0 0-.5-.527h-4.172a.493.493 0 0 0-.363.156.47.47 0 0 0-.137.371l.074 1.336a9.295 9.295 0 0 0-2.175.899l-.887-.996a.504.504 0 0 0-.36-.16.51.51 0 0 0-.367.14L6.746 9.7a.501.501 0 0 0-.148.367c.004.137.066.27.168.36l.996.886a9.805 9.805 0 0 0-.903 2.176l-1.332-.074a.58.58 0 0 0-.37.137.509.509 0 0 0-.157.363v4.172a.5.5 0 0 0 .527.5l1.328-.074c.207.761.512 1.492.903 2.18l-.992.882a.501.501 0 0 0-.02.73l2.953 2.95c.094.101.23.156.367.148a.528.528 0 0 0 .36-.168l.883-.992c.683.395 1.418.7 2.18.906l-.075 1.325a.5.5 0 0 0 .5.527h4.172a.5.5 0 0 0 .5-.527l-.074-1.325a9.182 9.182 0 0 0 2.18-.906l.882.992c.094.102.223.16.36.168.14.008.273-.05.367-.148l2.953-2.95a.501.501 0 0 0 .148-.366.512.512 0 0 0-.168-.36l-.996-.887a9.17 9.17 0 0 0 .903-2.18l1.332.075a.505.505 0 0 0 .37-.137.509.509 0 0 0 .157-.363v-4.172a.493.493 0 0 0-.156-.363m0 0" fill="rgb(100%, 100%, 100%)" fill-rule="evenodd"/></svg>