<svg role="img" viewBox="0 0 32 32" height="32" width="32" xmlns="http://www.w3.org/2000/svg"><path d="M.203.203h32v32h-32Zm0 0" fill="rgb(100%, 100%, 100%)"/><path d="M.203.203h31.594v31.594H.203Zm0 0" fill="rgb(54.901961%, 30.980392%, 100%)"/><path d="M10.945 22.57A6.575 6.575 0 0 1 4.375 16a6.575 6.575 0 0 1 6.57-6.57 6.575 6.575 0 0 1 6.57 6.57 6.575 6.575 0 0 1-6.57 6.57m15.164 3.035a2.022 2.022 0 1 1-4.044-.005 2.022 2.022 0 0 1 4.044.005m-2.02-21.23a2.022 2.022 0 1 1-.004 4.044 2.022 2.022 0 0 1 .005-4.044m1.515 9.605a2.02 2.02 0 0 1 0 4.04 2.02 2.02 0 1 1 0-4.04m-7.101 2.528h4.113a3.042 3.042 0 0 0 2.988 2.527 3.035 3.035 0 0 0 0-6.07 3.042 3.042 0 0 0-2.988 2.527h-4.113a7.62 7.62 0 0 0-.7-2.699l4.485-3.957c.52.387 1.152.594 1.8.594a3.034 3.034 0 0 0 0-6.067 3.037 3.037 0 0 0-3.034 3.032c0 .636.199 1.226.53 1.71l-4.28 3.778a7.579 7.579 0 0 0-6.36-3.465c-4.18 0-7.582 3.402-7.582 7.582s3.403 7.582 7.582 7.582a7.579 7.579 0 0 0 6.36-3.465l4.28 3.778a3.013 3.013 0 0 0-.53 1.71 3.035 3.035 0 0 0 3.035 3.032 3.037 3.037 0 0 0 2.98-3.035c0-1.653-1.328-3-2.98-3.032-.649 0-1.277.207-1.8.594l-4.485-3.957a7.539 7.539 0 0 0 .699-2.7" fill="rgb(100%, 100%, 100%)"/></svg>