<svg role="img" viewBox="0 0 32 32" xmlns="http://www.w3.org/2000/svg"><path d="M20.191 15.457a1 1 0 0 1 .778-.336q.45.002.683.3c.16.2.235.49.235.868v.074h-2.043c.031-.379.144-.68.347-.906m.922 3.895c.313 0 .614-.036.903-.098q.434-.1.75-.27v-.773a4.5 4.5 0 0 1-1.442.262c-.492 0-.86-.11-1.094-.332q-.357-.33-.386-1.04h2.945c.055-.253.082-.546.082-.867q0-.915-.492-1.414c-.328-.336-.793-.5-1.402-.5q-1.068 0-1.66.672-.591.674-.59 1.875-.002 1.214.605 1.848.603.635 1.781.637m-4.683-5.508-1.746.652v-.894l1.847-.86h1.008v6.469h-1.11ZM8.785 19.21l2.168-3.352-2.02-3.117h1.141l1.54 2.297 1.503-2.297h1.137L12.23 15.84l2.172 3.37h-1.136l-1.7-2.558-1.64 2.559ZM6 26h20V6H6ZM30.668 8.668V7.332h-3.336v-2a.664.664 0 0 0-.664-.664h-2V1.332h-1.336v3.336h-2.664V1.332h-1.336v3.336h-2.664V1.332h-1.336v3.336h-2.664V1.332h-1.336v3.336H8.668V1.332H7.332v3.336h-2a.664.664 0 0 0-.664.664v2H1.332v1.336h3.336v2.664H1.332v1.336h3.336v2.664H1.332v1.336h3.336v2.664H1.332v1.336h3.336v2.664H1.332v1.336h3.336v2c0 .367.297.664.664.664h2v3.336h1.336v-3.336h2.664v3.336h1.336v-3.336h2.664v3.336h1.336v-3.336h2.664v3.336h1.336v-3.336h2.664v3.336h1.336v-3.336h2a.664.664 0 0 0 .664-.664v-2h3.336v-1.336h-3.336v-2.664h3.336v-1.336h-3.336v-2.664h3.336v-1.336h-3.336v-2.664h3.336v-1.336h-3.336V8.668Zm0 0" fill="rgb(83.137256%, 35.686275%, 2.745098%)" fill-rule="evenodd"/></svg>