<?xml version="1.0" encoding="UTF-8"?>
<svg xmlns="http://www.w3.org/2000/svg" xmlns:xlink="http://www.w3.org/1999/xlink" width="32" height="32" viewBox="0 0 32 32">
<path fill-rule="nonzero" fill="rgb(90.588235%, 8.235294%, 48.235294%)" fill-opacity="1" d="M 0.203125 0.203125 L 31.796875 0.203125 L 31.796875 31.796875 L 0.203125 31.796875 Z M 0.203125 0.203125 "/>
<path fill-rule="nonzero" fill="rgb(100%, 100%, 100%)" fill-opacity="1" d="M 12.257812 7.917969 L 15.53125 6.828125 L 15.53125 17.386719 C 12.832031 17.136719 12.257812 14.789062 12.257812 14.132812 Z M 19.742188 14.132812 C 19.742188 14.789062 19.167969 17.136719 16.46875 17.386719 L 16.46875 6.828125 L 19.742188 7.917969 Z M 16 18.34375 C 19.535156 18.34375 20.679688 15.503906 20.679688 14.132812 L 20.679688 7.582031 C 20.679688 7.378906 20.550781 7.203125 20.359375 7.136719 L 16.148438 5.734375 C 16.050781 5.703125 15.949219 5.703125 15.851562 5.734375 L 11.640625 7.136719 C 11.449219 7.203125 11.320312 7.378906 11.320312 7.582031 L 11.320312 14.132812 C 11.320312 15.503906 12.464844 18.34375 16 18.34375 M 9.914062 6.53125 L 16 4.339844 L 22.085938 6.53125 L 22.085938 13.667969 C 22.085938 15.09375 21.640625 19.746094 16 19.746094 C 9.984375 19.746094 9.914062 13.914062 9.914062 13.667969 Z M 16 20.683594 C 22.679688 20.683594 23.019531 14.835938 23.019531 13.667969 L 23.019531 6.203125 C 23.019531 6.003906 22.894531 5.828125 22.707031 5.761719 L 16.15625 3.398438 C 16.054688 3.363281 15.945312 3.363281 15.84375 3.398438 L 9.292969 5.761719 C 9.105469 5.828125 8.980469 6.003906 8.980469 6.203125 L 8.980469 13.667969 C 8.980469 16.09375 10.445312 20.683594 16 20.683594 M 26.0625 24.425781 C 25.632812 24.449219 25.222656 24.230469 25 23.863281 C 24.777344 23.492188 24.777344 23.03125 25 22.660156 C 25.265625 22.207031 25.804688 21.992188 26.3125 22.132812 C 26.820312 22.269531 27.167969 22.734375 27.167969 23.257812 C 27.171875 23.878906 26.683594 24.394531 26.0625 24.425781 M 17.171875 26.53125 C 17.171875 27.003906 16.882812 27.433594 16.445312 27.613281 C 16.007812 27.792969 15.503906 27.695312 15.167969 27.359375 C 14.835938 27.023438 14.738281 26.519531 14.917969 26.082031 C 15.101562 25.644531 15.527344 25.359375 16 25.359375 C 16.644531 25.359375 17.171875 25.886719 17.171875 26.53125 M 5.9375 24.425781 C 5.292969 24.425781 4.773438 23.902344 4.773438 23.257812 C 4.769531 22.785156 5.054688 22.355469 5.492188 22.175781 C 5.929688 21.992188 6.433594 22.09375 6.765625 22.429688 C 7.101562 22.765625 7.199219 23.269531 7.019531 23.707031 C 6.835938 24.140625 6.410156 24.425781 5.9375 24.425781 M 26.0625 21.152344 C 25.527344 21.152344 25.050781 21.355469 24.675781 21.683594 L 23.238281 20.242188 C 24.785156 18.945312 26.039062 17.339844 26.921875 15.523438 L 26.078125 15.113281 C 24.003906 19.351562 20.046875 22.089844 16 22.089844 C 11.855469 22.089844 7.558594 19.21875 5.546875 15.113281 L 4.707031 15.523438 C 5.507812 17.167969 6.773438 18.8125 8.386719 20.144531 L 7.023438 21.460938 C 6.695312 21.257812 6.320312 21.152344 5.9375 21.152344 C 4.777344 21.15625 3.839844 22.097656 3.835938 23.257812 C 3.898438 24.371094 4.824219 25.242188 5.941406 25.242188 C 7.054688 25.242188 7.980469 24.371094 8.042969 23.257812 C 8.042969 22.832031 7.917969 22.4375 7.699219 22.109375 L 9.132812 20.71875 C 10.941406 22.015625 13.121094 22.898438 15.53125 23.003906 L 15.53125 24.480469 C 14.484375 24.714844 13.78125 25.703125 13.898438 26.769531 C 14.019531 27.835938 14.925781 28.640625 16 28.636719 C 17.070312 28.632812 17.964844 27.828125 18.082031 26.765625 C 18.203125 25.707031 17.507812 24.722656 16.46875 24.480469 L 16.46875 23.003906 C 18.59375 22.902344 20.675781 22.128906 22.492188 20.820312 L 24.117188 22.449219 C 24.007812 22.707031 23.953125 22.980469 23.957031 23.257812 C 23.957031 24.417969 24.902344 25.359375 26.0625 25.359375 C 27.222656 25.355469 28.164062 24.414062 28.164062 23.253906 C 28.164062 22.09375 27.222656 21.152344 26.0625 21.152344 "/>
</svg>
