<?xml version="1.0" encoding="UTF-8"?>
<svg xmlns="http://www.w3.org/2000/svg" xmlns:xlink="http://www.w3.org/1999/xlink" width="32" height="32" viewBox="0 0 32 32">
<path fill-rule="evenodd" fill="rgb(83.137255%, 35.686275%, 2.745098%)" fill-opacity="1" d="M 6 26 L 26 26 L 26 6 L 6 6 Z M 27.332031 8.667969 L 27.332031 11.332031 L 30.667969 11.332031 L 30.667969 12.667969 L 27.332031 12.667969 L 27.332031 15.332031 L 30.667969 15.332031 L 30.667969 16.667969 L 27.332031 16.667969 L 27.332031 19.332031 L 30.667969 19.332031 L 30.667969 20.667969 L 27.332031 20.667969 L 27.332031 23.332031 L 30.667969 23.332031 L 30.667969 24.667969 L 27.332031 24.667969 L 27.332031 26.667969 C 27.332031 27.035156 27.035156 27.332031 26.667969 27.332031 L 24.667969 27.332031 L 24.667969 30.667969 L 23.332031 30.667969 L 23.332031 27.332031 L 20.667969 27.332031 L 20.667969 30.667969 L 19.332031 30.667969 L 19.332031 27.332031 L 16.667969 27.332031 L 16.667969 30.667969 L 15.332031 30.667969 L 15.332031 27.332031 L 12.667969 27.332031 L 12.667969 30.667969 L 11.332031 30.667969 L 11.332031 27.332031 L 8.667969 27.332031 L 8.667969 30.667969 L 7.332031 30.667969 L 7.332031 27.332031 L 5.332031 27.332031 C 4.964844 27.332031 4.667969 27.035156 4.667969 26.667969 L 4.667969 24.667969 L 1.332031 24.667969 L 1.332031 23.332031 L 4.667969 23.332031 L 4.667969 20.667969 L 1.332031 20.667969 L 1.332031 19.332031 L 4.667969 19.332031 L 4.667969 16.667969 L 1.332031 16.667969 L 1.332031 15.332031 L 4.667969 15.332031 L 4.667969 12.667969 L 1.332031 12.667969 L 1.332031 11.332031 L 4.667969 11.332031 L 4.667969 8.667969 L 1.332031 8.667969 L 1.332031 7.332031 L 4.667969 7.332031 L 4.667969 5.332031 C 4.667969 4.964844 4.964844 4.667969 5.332031 4.667969 L 7.332031 4.667969 L 7.332031 1.332031 L 8.667969 1.332031 L 8.667969 4.667969 L 11.332031 4.667969 L 11.332031 1.332031 L 12.667969 1.332031 L 12.667969 4.667969 L 15.332031 4.667969 L 15.332031 1.332031 L 16.667969 1.332031 L 16.667969 4.667969 L 19.332031 4.667969 L 19.332031 1.332031 L 20.667969 1.332031 L 20.667969 4.667969 L 23.332031 4.667969 L 23.332031 1.332031 L 24.667969 1.332031 L 24.667969 4.667969 L 26.667969 4.667969 C 27.035156 4.667969 27.332031 4.964844 27.332031 5.332031 L 27.332031 7.332031 L 30.667969 7.332031 L 30.667969 8.667969 Z M 21.222656 16.078125 C 21.222656 17.171875 21.621094 17.71875 22.414062 17.71875 C 22.78125 17.71875 23.140625 17.601562 23.488281 17.367188 L 23.488281 14.800781 C 23.179688 14.578125 22.8125 14.460938 22.433594 14.464844 C 22.015625 14.464844 21.710938 14.597656 21.515625 14.859375 C 21.320312 15.125 21.222656 15.53125 21.222656 16.078125 M 20.636719 17.921875 C 20.28125 17.476562 20.101562 16.878906 20.101562 16.125 C 20.101562 15.625 20.183594 15.1875 20.34375 14.808594 C 20.503906 14.429688 20.738281 14.132812 21.042969 13.917969 C 21.363281 13.699219 21.742188 13.585938 22.125 13.59375 C 22.625 13.59375 23.078125 13.757812 23.488281 14.082031 L 23.488281 11.578125 L 24.589844 11.578125 L 24.589844 18.484375 L 23.648438 18.484375 L 23.535156 18.027344 C 23.113281 18.402344 22.625 18.589844 22.070312 18.589844 C 21.472656 18.589844 20.996094 18.367188 20.636719 17.921875 M 18.589844 18.050781 C 19.035156 17.667969 19.261719 17.15625 19.261719 16.507812 C 19.261719 15.902344 19.074219 15.429688 18.703125 15.078125 C 18.332031 14.730469 17.824219 14.554688 17.175781 14.558594 C 16.90625 14.554688 16.632812 14.578125 16.367188 14.632812 L 16.472656 12.90625 L 18.941406 12.90625 L 18.941406 12.019531 L 15.433594 12.019531 L 15.257812 14.800781 L 15.257812 15.507812 C 15.824219 15.445312 16.296875 15.414062 16.675781 15.414062 C 17.183594 15.414062 17.550781 15.503906 17.785156 15.679688 C 18.019531 15.859375 18.132812 16.140625 18.132812 16.527344 C 18.132812 17.320312 17.671875 17.71875 16.75 17.71875 C 16.257812 17.71875 15.667969 17.601562 14.984375 17.375 L 14.984375 18.253906 C 15.550781 18.5 16.160156 18.625 16.777344 18.625 C 17.539062 18.625 18.144531 18.433594 18.589844 18.050781 M 8.453125 18.484375 L 7.40625 18.484375 L 7.40625 12.019531 L 8.675781 12.019531 L 10.617188 15.871094 L 12.597656 12.019531 L 13.828125 12.019531 L 13.828125 18.484375 L 12.785156 18.484375 L 12.785156 13.640625 L 11.101562 16.863281 L 10.078125 16.863281 L 8.453125 13.660156 Z M 8.453125 18.484375 "/>
</svg>
