<?xml version="1.0" encoding="UTF-8"?>
<svg xmlns="http://www.w3.org/2000/svg" xmlns:xlink="http://www.w3.org/1999/xlink" width="32" height="32" viewBox="0 0 32 32">
<path fill-rule="evenodd" fill="rgb(83.137255%, 35.686275%, 2.745098%)" fill-opacity="1" d="M 6 26 L 26 26 L 26 6 L 6 6 Z M 27.332031 8.667969 L 27.332031 11.332031 L 30.667969 11.332031 L 30.667969 12.667969 L 27.332031 12.667969 L 27.332031 15.332031 L 30.667969 15.332031 L 30.667969 16.667969 L 27.332031 16.667969 L 27.332031 19.332031 L 30.667969 19.332031 L 30.667969 20.667969 L 27.332031 20.667969 L 27.332031 23.332031 L 30.667969 23.332031 L 30.667969 24.667969 L 27.332031 24.667969 L 27.332031 26.667969 C 27.332031 27.035156 27.035156 27.332031 26.667969 27.332031 L 24.667969 27.332031 L 24.667969 30.667969 L 23.332031 30.667969 L 23.332031 27.332031 L 20.667969 27.332031 L 20.667969 30.667969 L 19.332031 30.667969 L 19.332031 27.332031 L 16.667969 27.332031 L 16.667969 30.667969 L 15.332031 30.667969 L 15.332031 27.332031 L 12.667969 27.332031 L 12.667969 30.667969 L 11.332031 30.667969 L 11.332031 27.332031 L 8.667969 27.332031 L 8.667969 30.667969 L 7.332031 30.667969 L 7.332031 27.332031 L 5.332031 27.332031 C 4.964844 27.332031 4.667969 27.035156 4.667969 26.667969 L 4.667969 24.667969 L 1.332031 24.667969 L 1.332031 23.332031 L 4.667969 23.332031 L 4.667969 20.667969 L 1.332031 20.667969 L 1.332031 19.332031 L 4.667969 19.332031 L 4.667969 16.667969 L 1.332031 16.667969 L 1.332031 15.332031 L 4.667969 15.332031 L 4.667969 12.667969 L 1.332031 12.667969 L 1.332031 11.332031 L 4.667969 11.332031 L 4.667969 8.667969 L 1.332031 8.667969 L 1.332031 7.332031 L 4.667969 7.332031 L 4.667969 5.332031 C 4.667969 4.964844 4.964844 4.667969 5.332031 4.667969 L 7.332031 4.667969 L 7.332031 1.332031 L 8.667969 1.332031 L 8.667969 4.667969 L 11.332031 4.667969 L 11.332031 1.332031 L 12.667969 1.332031 L 12.667969 4.667969 L 15.332031 4.667969 L 15.332031 1.332031 L 16.667969 1.332031 L 16.667969 4.667969 L 19.332031 4.667969 L 19.332031 1.332031 L 20.667969 1.332031 L 20.667969 4.667969 L 23.332031 4.667969 L 23.332031 1.332031 L 24.667969 1.332031 L 24.667969 4.667969 L 26.667969 4.667969 C 27.035156 4.667969 27.332031 4.964844 27.332031 5.332031 L 27.332031 7.332031 L 30.667969 7.332031 L 30.667969 8.667969 Z M 22.308594 15.496094 C 22.585938 15.320312 22.855469 15.234375 23.117188 15.234375 C 23.292969 15.234375 23.421875 15.277344 23.503906 15.367188 C 23.582031 15.457031 23.625 15.601562 23.625 15.796875 L 23.625 17.820312 L 24.332031 17.820312 L 24.332031 15.574219 C 24.332031 15.285156 24.253906 15.058594 24.101562 14.90625 C 23.949219 14.753906 23.730469 14.675781 23.4375 14.675781 C 23.027344 14.675781 22.636719 14.816406 22.261719 15.101562 L 22.1875 14.765625 L 21.601562 14.765625 L 21.601562 17.820312 L 22.308594 17.820312 Z M 21.144531 17.28125 L 19.421875 17.28125 L 21.125 15.289062 L 21.125 14.765625 L 18.722656 14.765625 L 18.722656 15.304688 L 20.363281 15.304688 L 18.660156 17.296875 L 18.660156 17.820312 L 21.144531 17.820312 Z M 16.433594 15.988281 L 17.75 15.988281 L 17.75 15.941406 C 17.75 15.699219 17.699219 15.511719 17.597656 15.382812 C 17.496094 15.253906 17.351562 15.191406 17.15625 15.191406 C 16.964844 15.183594 16.78125 15.261719 16.65625 15.40625 C 16.527344 15.550781 16.453125 15.746094 16.433594 15.988281 M 16.105469 17.5 C 15.84375 17.230469 15.714844 16.832031 15.714844 16.3125 C 15.714844 15.796875 15.84375 15.394531 16.097656 15.105469 C 16.351562 14.820312 16.707031 14.675781 17.160156 14.675781 C 17.554688 14.675781 17.855469 14.78125 18.0625 14.996094 C 18.273438 15.210938 18.378906 15.511719 18.378906 15.90625 C 18.378906 16.113281 18.363281 16.300781 18.328125 16.464844 L 16.433594 16.464844 C 16.445312 16.765625 16.527344 16.992188 16.679688 17.132812 C 16.835938 17.273438 17.070312 17.34375 17.386719 17.34375 C 17.671875 17.34375 17.980469 17.289062 18.3125 17.175781 L 18.3125 17.675781 C 18.175781 17.746094 18.015625 17.804688 17.828125 17.847656 C 17.636719 17.886719 17.445312 17.910156 17.25 17.910156 C 16.746094 17.910156 16.367188 17.773438 16.105469 17.5 M 14.808594 14.261719 C 14.921875 14.269531 15.035156 14.230469 15.121094 14.152344 C 15.199219 14.070312 15.238281 13.964844 15.234375 13.851562 C 15.238281 13.742188 15.199219 13.632812 15.121094 13.554688 C 15.035156 13.476562 14.921875 13.4375 14.808594 13.445312 C 14.695312 13.4375 14.582031 13.476562 14.496094 13.554688 C 14.417969 13.632812 14.378906 13.742188 14.382812 13.851562 C 14.382812 13.980469 14.421875 14.082031 14.496094 14.152344 C 14.582031 14.230469 14.695312 14.269531 14.808594 14.261719 M 14.457031 17.820312 L 15.164062 17.820312 L 15.164062 14.765625 L 14.457031 14.765625 Z M 13.855469 17.25 L 11.761719 17.25 C 12.242188 16.8125 12.617188 16.449219 12.890625 16.152344 C 13.164062 15.859375 13.363281 15.597656 13.484375 15.367188 C 13.605469 15.136719 13.667969 14.910156 13.667969 14.6875 C 13.667969 14.457031 13.617188 14.253906 13.511719 14.085938 C 13.40625 13.917969 13.25 13.78125 13.070312 13.699219 C 12.863281 13.605469 12.640625 13.558594 12.414062 13.566406 C 11.953125 13.566406 11.53125 13.722656 11.148438 14.035156 L 11.148438 14.621094 C 11.355469 14.476562 11.5625 14.367188 11.765625 14.289062 C 11.964844 14.210938 12.152344 14.171875 12.324219 14.171875 C 12.519531 14.171875 12.671875 14.222656 12.78125 14.324219 C 12.886719 14.425781 12.941406 14.570312 12.941406 14.753906 C 12.941406 14.910156 12.894531 15.078125 12.792969 15.261719 C 12.691406 15.449219 12.511719 15.6875 12.253906 15.988281 C 11.992188 16.289062 11.585938 16.71875 11.035156 17.28125 L 11.035156 17.820312 L 13.855469 17.820312 Z M 7.195312 17.820312 L 8.585938 15.664062 L 7.292969 13.660156 L 8.023438 13.660156 L 9.011719 15.136719 L 9.980469 13.660156 L 10.710938 13.660156 L 9.410156 15.652344 L 10.808594 17.820312 L 10.074219 17.820312 L 8.984375 16.175781 L 7.925781 17.820312 Z M 7.195312 17.820312 "/>
</svg>
