<svg role="img" viewBox="0 0 32 32" xmlns="http://www.w3.org/2000/svg"><path d="M6 26h20V6H6ZM30.668 8.668V7.332h-3.336v-2a.664.664 0 0 0-.664-.664h-2V1.332h-1.336v3.336h-2.664V1.332h-1.336v3.336h-2.664V1.332h-1.336v3.336h-2.664V1.332h-1.336v3.336H8.668V1.332H7.332v3.336h-2a.664.664 0 0 0-.664.664v2H1.332v1.336h3.336v2.664H1.332v1.336h3.336v2.664H1.332v1.336h3.336v2.664H1.332v1.336h3.336v2.664H1.332v1.336h3.336v2c0 .367.297.664.664.664h2v3.336h1.336v-3.336h2.664v3.336h1.336v-3.336h2.664v3.336h1.336v-3.336h2.664v3.336h1.336v-3.336h2.664v3.336h1.336v-3.336h2a.664.664 0 0 0 .664-.664v-2h3.336v-1.336h-3.336v-2.664h3.336v-1.336h-3.336v-2.664h3.336v-1.336h-3.336v-2.664h3.336v-1.336h-3.336V8.668Zm-7.234 9.816v-2.468c0-.243-.051-.414-.149-.528q-.147-.164-.469-.164c-.324 0-.652.11-.992.324v2.836h-.863v-3.73h.719l.086.41q.69-.521 1.441-.52.532 0 .813.282.276.281.277.816v2.742Zm-6.141 0v-.636l2.082-2.434h-2.008v-.66h2.942v.637l-2.082 2.433h2.101v.66Zm-3.93-.87q.802.269 1.387.269 1.085 0 1.086-.938c0-.3-.094-.523-.274-.664q-.274-.206-.87-.207-.445 0-1.118.074v-.558l.14-2.188h2.759v.7H14.53l-.082 1.355q.301-.059.637-.059.76 0 1.2.41c.288.274.437.649.437 1.122q0 .765-.528 1.215t-1.425.453c-.489 0-.957-.102-1.407-.297Zm-1.437.87V14.68l-1.32 2.53H9.8l-1.278-2.515v3.79h-.82v-5.083H8.7l1.528 3.032 1.554-3.032h.965v5.082Zm0 0" fill="rgb(83.137256%, 35.686275%, 2.745098%)" fill-rule="evenodd"/></svg>