<?xml version="1.0" encoding="UTF-8"?>
<svg xmlns="http://www.w3.org/2000/svg" xmlns:xlink="http://www.w3.org/1999/xlink" width="32" height="32" viewBox="0 0 32 32">
<path fill-rule="evenodd" fill="rgb(83.137255%, 35.686275%, 2.745098%)" fill-opacity="1" d="M 22.375 18.132812 C 22.203125 18.269531 22.011719 18.382812 21.808594 18.464844 C 21.632812 18.539062 21.445312 18.578125 21.253906 18.582031 C 21.042969 18.582031 20.875 18.519531 20.753906 18.398438 C 20.632812 18.28125 20.574219 18.109375 20.574219 17.890625 C 20.574219 17.386719 20.886719 17.132812 21.519531 17.132812 C 21.769531 17.132812 22.054688 17.171875 22.375 17.238281 Z M 21.292969 16.445312 C 20.730469 16.445312 20.285156 16.582031 19.953125 16.855469 C 19.621094 17.128906 19.453125 17.496094 19.453125 17.957031 C 19.453125 18.371094 19.589844 18.710938 19.859375 18.976562 C 20.128906 19.234375 20.484375 19.367188 20.917969 19.367188 C 21.179688 19.367188 21.441406 19.3125 21.707031 19.207031 C 21.96875 19.101562 22.214844 18.953125 22.429688 18.769531 L 22.515625 19.226562 L 23.476562 19.226562 L 23.476562 15.875 C 23.476562 15.347656 23.328125 14.957031 23.035156 14.707031 C 22.738281 14.460938 22.28125 14.335938 21.660156 14.335938 C 21.320312 14.335938 20.976562 14.371094 20.636719 14.4375 C 20.339844 14.492188 20.050781 14.585938 19.78125 14.71875 L 19.78125 15.492188 C 20.40625 15.285156 20.964844 15.183594 21.449219 15.183594 C 21.792969 15.183594 22.03125 15.246094 22.167969 15.371094 C 22.304688 15.496094 22.375 15.714844 22.375 16.035156 L 22.375 16.585938 C 22.019531 16.496094 21.65625 16.449219 21.292969 16.445312 M 16.136719 19.367188 C 15.519531 19.367188 14.910156 19.242188 14.347656 18.992188 L 14.347656 18.117188 C 15.027344 18.34375 15.617188 18.460938 16.109375 18.460938 C 17.03125 18.460938 17.492188 18.0625 17.492188 17.265625 C 17.492188 16.878906 17.378906 16.597656 17.144531 16.421875 C 16.914062 16.242188 16.542969 16.15625 16.039062 16.15625 C 15.660156 16.15625 15.1875 16.1875 14.617188 16.25 L 14.617188 15.539062 L 14.796875 12.757812 L 18.304688 12.757812 L 18.304688 13.644531 L 15.835938 13.644531 L 15.730469 15.371094 C 15.984375 15.320312 16.253906 15.296875 16.539062 15.296875 C 17.1875 15.296875 17.695312 15.46875 18.066406 15.820312 C 18.4375 16.167969 18.621094 16.644531 18.621094 17.246094 C 18.621094 17.894531 18.398438 18.410156 17.949219 18.792969 C 17.503906 19.175781 16.898438 19.367188 16.136719 19.367188 M 9.847656 13.632812 L 11.007812 13.632812 C 11.714844 13.632812 12.070312 13.992188 12.070312 14.707031 C 12.070312 15.425781 11.707031 15.78125 10.980469 15.78125 L 9.847656 15.78125 Z M 9.847656 16.660156 L 10.988281 16.660156 L 12.5 19.226562 L 13.636719 19.226562 L 11.96875 16.460938 C 12.378906 16.300781 12.691406 16.066406 12.90625 15.761719 C 13.121094 15.457031 13.226562 15.09375 13.226562 14.671875 C 13.226562 14.085938 13.035156 13.621094 12.652344 13.277344 C 12.269531 12.929688 11.761719 12.757812 11.128906 12.757812 L 8.710938 12.757812 L 8.710938 19.226562 L 9.847656 19.226562 Z M 6 26 L 26 26 L 26 6 L 6 6 Z M 30.667969 8.667969 L 30.667969 7.332031 L 27.332031 7.332031 L 27.332031 5.332031 C 27.332031 5.15625 27.261719 4.984375 27.136719 4.859375 C 27.007812 4.738281 26.839844 4.667969 26.664062 4.667969 L 24.667969 4.667969 L 24.667969 1.332031 L 23.332031 1.332031 L 23.332031 4.667969 L 20.664062 4.667969 L 20.664062 1.332031 L 19.332031 1.332031 L 19.332031 4.667969 L 16.664062 4.667969 L 16.664062 1.332031 L 15.332031 1.332031 L 15.332031 4.667969 L 12.664062 4.667969 L 12.664062 1.332031 L 11.332031 1.332031 L 11.332031 4.667969 L 8.667969 4.667969 L 8.667969 1.332031 L 7.332031 1.332031 L 7.332031 4.667969 L 5.332031 4.667969 C 4.964844 4.667969 4.667969 4.964844 4.667969 5.332031 L 4.667969 7.332031 L 1.332031 7.332031 L 1.332031 8.667969 L 4.667969 8.667969 L 4.667969 11.332031 L 1.332031 11.332031 L 1.332031 12.667969 L 4.667969 12.667969 L 4.667969 15.332031 L 1.332031 15.332031 L 1.332031 16.667969 L 4.667969 16.667969 L 4.667969 19.332031 L 1.332031 19.332031 L 1.332031 20.667969 L 4.667969 20.667969 L 4.667969 23.332031 L 1.332031 23.332031 L 1.332031 24.667969 L 4.667969 24.667969 L 4.667969 26.667969 C 4.667969 27.035156 4.964844 27.332031 5.332031 27.332031 L 7.332031 27.332031 L 7.332031 30.667969 L 8.667969 30.667969 L 8.667969 27.332031 L 11.332031 27.332031 L 11.332031 30.667969 L 12.664062 30.667969 L 12.664062 27.332031 L 15.332031 27.332031 L 15.332031 30.667969 L 16.664062 30.667969 L 16.664062 27.332031 L 19.332031 27.332031 L 19.332031 30.667969 L 20.664062 30.667969 L 20.664062 27.332031 L 23.332031 27.332031 L 23.332031 30.667969 L 24.667969 30.667969 L 24.667969 27.332031 L 26.664062 27.332031 C 26.839844 27.332031 27.011719 27.261719 27.136719 27.140625 C 27.261719 27.015625 27.332031 26.84375 27.332031 26.667969 L 27.332031 24.667969 L 30.667969 24.667969 L 30.667969 23.332031 L 27.332031 23.332031 L 27.332031 20.667969 L 30.667969 20.667969 L 30.667969 19.332031 L 27.332031 19.332031 L 27.332031 16.667969 L 30.667969 16.667969 L 30.667969 15.332031 L 27.332031 15.332031 L 27.332031 12.667969 L 30.667969 12.667969 L 30.667969 11.332031 L 27.332031 11.332031 L 27.332031 8.667969 Z M 30.667969 8.667969 "/>
</svg>
