<svg role="img" viewBox="0 0 32 32" xmlns="http://www.w3.org/2000/svg"><path d="M20.715 14.875q.275-.375.844-.375.549-.002 1.035.336v2.387a1.7 1.7 0 0 1-1.043.367q-1.113 0-1.113-1.57 0-.775.277-1.145m.508 3.563a2.03 2.03 0 0 0 1.37-.524v.402q0 .728-.316 1.051-.315.321-1.02.32-.684 0-1.558-.289v.786a3.65 3.65 0 0 0 1.633.382q1.136-.001 1.75-.617.614-.615.613-1.746v-4.422h-.933l-.094.43a1.98 1.98 0 0 0-1.41-.57q-.594-.001-1.035.308a1.95 1.95 0 0 0-.672.856 3.15 3.15 0 0 0-.235 1.254q.002 1.084.52 1.73.518.65 1.387.648m-5.004-2.97q.555.002.847.298.294.294.293.851-.002.552-.285.86-.28.31-.785.308c-.816 0-1.25-.664-1.293-1.988q.62-.328 1.223-.328m-.008 3.204q.69.002 1.207-.277c.348-.18.61-.434.793-.754q.277-.481.277-1.098 0-.873-.527-1.406-.527-.528-1.395-.528-.831 0-1.57.477.046-1.165.461-1.727.415-.556 1.254-.558.314 0 .687.07.375.069.66.184v-.813a2.7 2.7 0 0 0-.695-.238 3.6 3.6 0 0 0-.808-.09q-1.277-.001-1.985.953-.702.95-.703 2.668.002 1.553.594 2.344.59.792 1.75.793m-7.117-.848q-.791-.825-.79-2.43.001-1.652.817-2.542.82-.891 2.348-.891.837.001 1.55.254v.93q-.932-.196-1.46-.196-1.062 0-1.579.551c-.343.367-.52.934-.52 1.7v.222q0 1.143.517 1.687.512.547 1.562.547.594 0 1.574-.234v.933q-.739.289-1.683.29c-1.032 0-1.813-.278-2.336-.82M6 26h20V6H6ZM30.668 8.668V7.332h-3.336v-2a.664.664 0 0 0-.664-.664h-2V1.332h-1.336v3.336h-2.664V1.332h-1.336v3.336h-2.664V1.332h-1.336v3.336h-2.664V1.332h-1.336v3.336H8.668V1.332H7.332v3.336h-2a.664.664 0 0 0-.664.664v2H1.332v1.336h3.336v2.664H1.332v1.336h3.336v2.664H1.332v1.336h3.336v2.664H1.332v1.336h3.336v2.664H1.332v1.336h3.336v2c0 .367.297.664.664.664h2v3.336h1.336v-3.336h2.664v3.336h1.336v-3.336h2.664v3.336h1.336v-3.336h2.664v3.336h1.336v-3.336h2.664v3.336h1.336v-3.336h2a.664.664 0 0 0 .664-.664v-2h3.336v-1.336h-3.336v-2.664h3.336v-1.336h-3.336v-2.664h3.336v-1.336h-3.336v-2.664h3.336v-1.336h-3.336V8.668Zm0 0" fill="rgb(83.137256%, 35.686275%, 2.745098%)" fill-rule="evenodd"/></svg>