<?xml version="1.0" encoding="UTF-8"?>
<!DOCTYPE svg PUBLIC "-//W3C//DTD SVG 1.1//EN" "http://www.w3.org/Graphics/SVG/1.1/DTD/svg11.dtd">
<svg xmlns="http://www.w3.org/2000/svg" xmlns:xlink="http://www.w3.org/1999/xlink" version="1.1" width="642px" height="439px" viewBox="-0.5 -0.5 642 439" style="background-color: rgb(255, 255, 255);"><defs><style type="text/css">@import url(https://fonts.googleapis.com/css2?family=Segoe+UI:wght@400;500);&#xa;</style></defs><rect fill="#ffffff" width="100%" height="100%" x="0" y="0"/><g><g data-cell-id="0"><g data-cell-id="1"><g data-cell-id="NpY9npqtjyR1Koi9KO41-1"><g><path d="M 78 0 L 156 0 L 156 78 L 78 78 Z" fill="#ed7100" stroke="none" pointer-events="all"/><path d="M 123.94 29.95 L 116.47 38.61 L 124.59 48.09 L 121.56 48.09 L 114.27 39.57 L 114.27 48.32 L 112.08 48.32 L 112.08 29.73 L 114.27 29.73 L 114.27 37.38 L 121.03 29.95 Z M 142.71 47.49 L 133.95 42.23 L 133.95 29.73 C 133.95 29.34 133.75 28.98 133.41 28.78 L 120.83 21.44 L 120.83 10.86 L 142.71 23.79 Z M 144.36 22.22 L 120.29 8 C 119.95 7.8 119.54 7.8 119.19 7.99 C 118.85 8.19 118.64 8.55 118.64 8.94 L 118.64 22.07 C 118.64 22.46 118.85 22.82 119.18 23.02 L 131.77 30.36 L 131.77 42.85 C 131.77 43.24 131.97 43.59 132.3 43.79 L 143.24 50.35 C 143.41 50.46 143.6 50.51 143.8 50.51 C 143.99 50.51 144.17 50.46 144.34 50.37 C 144.68 50.17 144.89 49.81 144.89 49.42 L 144.89 23.16 C 144.89 22.78 144.69 22.42 144.36 22.22 Z M 116.94 67.86 L 91.29 54.23 L 91.29 23.79 L 113.17 10.86 L 113.17 21.47 L 101.65 28.8 C 101.33 29.01 101.14 29.35 101.14 29.73 L 101.14 48.32 C 101.14 48.73 101.37 49.11 101.73 49.29 L 116.44 56.95 C 116.76 57.11 117.14 57.12 117.45 56.95 L 131.73 49.57 L 140.51 54.85 Z M 143.27 53.95 L 132.33 47.38 C 132 47.19 131.6 47.18 131.26 47.35 L 116.95 54.75 L 103.33 47.66 L 103.33 30.33 L 114.85 22.99 C 115.17 22.79 115.36 22.44 115.36 22.07 L 115.36 8.94 C 115.36 8.55 115.15 8.19 114.81 7.99 C 114.47 7.8 114.05 7.8 113.71 8 L 89.64 22.22 C 89.31 22.42 89.11 22.78 89.11 23.16 L 89.11 54.89 C 89.11 55.29 89.33 55.66 89.69 55.85 L 116.44 70.07 C 116.6 70.16 116.77 70.2 116.95 70.2 C 117.13 70.2 117.31 70.15 117.48 70.06 L 143.23 55.84 C 143.58 55.65 143.79 55.3 143.8 54.91 C 143.81 54.51 143.6 54.15 143.27 53.95 Z" fill="#ffffff" stroke="none" pointer-events="all"/></g></g><g data-cell-id="NpY9npqtjyR1Koi9KO41-2"><g><path d="M 478 270 L 556 270 L 556 348 L 478 348 Z" fill="#ed7100" stroke="none" pointer-events="all"/><path d="M 547.96 307.66 L 536.67 307.66 L 542.06 302.27 L 540.06 300.28 L 532.19 308.16 C 531.63 308.71 531.63 309.6 532.19 310.15 L 540.06 318.03 L 542.06 316.04 L 536.5 310.48 L 547.96 310.48 Z M 493.93 300.28 L 491.94 302.27 L 497.33 307.66 L 486.04 307.66 L 486.04 310.48 L 497.5 310.48 L 491.94 316.04 L 493.93 318.03 L 501.81 310.15 C 502.36 309.6 502.36 308.71 501.81 308.16 Z M 509.74 316.33 L 524.26 316.33 L 524.26 301.81 L 509.74 301.81 Z M 526.77 300.23 L 529.38 300.23 L 529.38 303.05 L 527.08 303.05 L 527.08 305.18 L 529.38 305.18 L 529.38 308 L 527.08 308 L 527.08 310.14 L 529.38 310.14 L 529.38 312.96 L 527.08 312.96 L 527.08 315.09 L 529.38 315.09 L 529.38 317.91 L 526.77 317.91 C 526.55 318.3 526.23 318.62 525.84 318.84 L 525.84 321.45 L 523.02 321.45 L 523.02 319.15 L 520.89 319.15 L 520.89 321.45 L 518.07 321.45 L 518.07 319.15 L 515.93 319.15 L 515.93 321.45 L 513.11 321.45 L 513.11 319.15 L 510.98 319.15 L 510.98 321.45 L 508.16 321.45 L 508.16 318.84 C 507.77 318.62 507.45 318.3 507.23 317.91 L 504.62 317.91 L 504.62 315.09 L 506.92 315.09 L 506.92 312.96 L 504.62 312.96 L 504.62 310.14 L 506.92 310.14 L 506.92 308 L 504.62 308 L 504.62 305.18 L 506.92 305.18 L 506.92 303.05 L 504.62 303.05 L 504.62 300.23 L 507.23 300.23 C 507.45 299.83 507.77 299.51 508.16 299.29 L 508.16 296.69 L 510.98 296.69 L 510.98 298.99 L 513.11 298.99 L 513.11 296.69 L 515.93 296.69 L 515.93 298.99 L 518.07 298.99 L 518.07 296.69 L 520.89 296.69 L 520.89 298.99 L 523.02 298.99 L 523.02 296.69 L 525.84 296.69 L 525.84 299.29 C 526.23 299.51 526.55 299.83 526.77 300.23 Z M 518.41 335.38 L 518.41 323.93 L 515.59 323.93 L 515.59 335.39 L 510.11 329.91 L 508.12 331.91 L 516 339.79 C 516.28 340.06 516.64 340.2 517 340.2 C 517.36 340.2 517.72 340.06 517.99 339.79 L 525.88 331.91 L 523.88 329.91 Z M 510.11 288.23 L 508.12 286.23 L 516 278.35 C 516.55 277.8 517.44 277.8 517.99 278.35 L 525.88 286.23 L 523.88 288.23 L 518.41 282.75 L 518.41 294.21 L 515.59 294.21 L 515.59 282.75 Z" fill="#ffffff" stroke="none" pointer-events="all"/></g></g><g data-cell-id="NpY9npqtjyR1Koi9KO41-3"><g><path d="M 482.42 288.98 L 482.42 315.26 M 621.68 303 L 621.68 293.34 M 603.18 307.54 L 606.62 307.54 L 610.08 313.36 L 613.54 307.54 L 618.22 307.54 L 621.68 313.36 L 625.16 307.54 L 629.8 307.54 L 633.28 313.36 L 636.76 307.54 L 640.26 307.54 L 640.26 326.02 L 603.18 326.02 M 406.98 293.52 C 406.98 296 404.96 298.02 402.48 298.02 C 400 298.02 398 296 398 293.52 C 398 291.04 400.02 289.04 402.48 289.04 C 404.96 289.04 406.98 291.04 406.98 293.52 Z M 403.68 297.9 L 411.82 326.34 M 410.42 321.36 L 436.02 321.36 M 407.72 312.2 L 436.02 312.2 M 538.12 270.04 L 538.12 289.32 M 500.94 270 L 500.94 289.12 M 491.7 288.88 L 491.7 325.98 M 538.12 316.72 L 538.12 344.98 M 532.98 316.72 L 542.98 316.72 M 445.26 316.72 L 445.26 325.98 M 440.18 316.72 L 450.18 316.72 M 598.96 316.72 L 588.92 316.72 M 519.44 307.68 L 519.44 345.06 M 593.86 316.72 L 593.86 325.92 M 589.16 298.44 L 575.4 326.02 M 450.12 298.68 L 463.64 326.02 M 538.12 299.6 L 538.12 307.68 L 500.94 307.68 L 500.94 298.72 M 436.02 289.06 L 603.18 289.06 L 603.18 325.98 L 436.02 325.98 Z M 547.38 289.06 L 547.38 325.98 M 500.94 316.72 L 500.94 344.98 M 496.08 316.72 L 506.08 316.72 M 556.82 288.76 L 556.82 315.32" fill="none" stroke="rgb(0, 0, 0)" stroke-miterlimit="10" pointer-events="all"/><rect x="398" y="270" width="0" height="0" fill="none" stroke="rgb(0, 0, 0)" pointer-events="all"/><path d="M 541.46 299.54 L 534.96 299.54 L 538.2 290.24 Z M 453.06 297.14 L 447.24 300.04 L 445.98 290.26 Z M 560.04 315.46 L 553.52 315.46 L 556.78 324.76 Z M 586.22 296.9 L 592.06 299.8 L 593.3 290.02 Z M 504.14 299.54 L 497.62 299.54 L 500.88 290.24 Z M 520.9 307.76 C 520.9 308.58 520.24 309.24 519.42 309.24 C 518.6 309.24 517.94 308.58 517.94 307.76 C 517.94 306.94 518.6 306.28 519.42 306.28 C 520.24 306.28 520.9 306.94 520.9 307.76 Z M 485.66 315.38 L 479.14 315.38 L 482.4 324.68 Z" fill="rgb(0, 0, 0)" stroke="rgb(0, 0, 0)" stroke-miterlimit="10" pointer-events="all"/></g></g><g data-cell-id="NpY9npqtjyR1Koi9KO41-4"><g><path d="M 178 310 L 256 310 L 256 388 L 178 388 Z" fill="#ed7100" stroke="none" pointer-events="all"/><path d="M 215.13 345.84 C 214.59 346.16 214.25 346.74 214.25 347.37 L 214.25 377.71 L 191.31 364.88 L 191.31 335.05 L 217.06 320.13 L 239.94 331.47 Z M 242.61 331.44 C 242.61 330.81 242.27 330.22 241.67 329.88 L 217.92 318.11 C 217.38 317.8 216.71 317.8 216.17 318.11 L 190 333.28 C 189.46 333.59 189.12 334.18 189.12 334.8 L 189.12 365.13 C 189.12 365.76 189.46 366.34 190.01 366.66 L 213.8 379.97 C 214.07 380.12 214.38 380.2 214.68 380.2 C 214.98 380.2 215.29 380.12 215.56 379.97 C 216.1 379.65 216.44 379.07 216.44 378.44 L 216.44 347.62 L 241.73 332.96 C 242.27 332.65 242.61 332.07 242.61 331.44 Z M 242.66 364.95 L 221.9 377.64 L 221.9 366.27 L 232.72 359.29 L 232.8 358.8 C 232.82 358.67 232.83 358.67 232.83 358.08 L 232.86 344.51 L 242.69 338.82 Z M 244 336.54 C 243.46 336.23 242.79 336.23 242.24 336.54 L 231.78 342.61 C 231.45 342.79 230.68 343.21 230.68 344.07 L 230.64 358.02 L 220.66 364.46 C 220.07 364.82 219.71 365.38 219.71 365.97 L 219.71 378.35 C 219.71 378.97 220.05 379.53 220.61 379.86 C 220.9 380.03 221.22 380.11 221.55 380.11 C 221.86 380.11 222.18 380.03 222.47 379.86 L 243.97 366.71 C 244.51 366.4 244.85 365.81 244.85 365.19 L 244.88 338.07 C 244.88 337.44 244.54 336.86 244 336.54 Z" fill="#ffffff" stroke="none" pointer-events="all"/></g></g><g data-cell-id="NpY9npqtjyR1Koi9KO41-5"><g><path d="M 0 192 L 78 192 L 78 270 L 0 270 Z" fill="#ed7100" stroke="none" pointer-events="all"/><path d="M 64.71 239.49 L 55.95 234.23 L 55.95 221.73 C 55.95 221.34 55.75 220.98 55.41 220.78 L 42.83 213.44 L 42.83 202.86 L 64.71 215.79 Z M 66.36 214.22 L 42.29 200 C 41.95 199.8 41.54 199.8 41.19 199.99 C 40.85 200.19 40.64 200.55 40.64 200.94 L 40.64 214.07 C 40.64 214.46 40.85 214.82 41.18 215.02 L 53.77 222.36 L 53.77 234.85 C 53.77 235.24 53.97 235.59 54.3 235.79 L 65.24 242.35 C 65.41 242.46 65.6 242.51 65.8 242.51 C 65.99 242.51 66.17 242.46 66.34 242.37 C 66.68 242.17 66.89 241.81 66.89 241.42 L 66.89 215.16 C 66.89 214.78 66.69 214.42 66.36 214.22 Z M 38.94 259.86 L 13.29 246.23 L 13.29 215.79 L 35.17 202.86 L 35.17 213.47 L 23.65 220.8 C 23.33 221.01 23.14 221.35 23.14 221.73 L 23.14 240.32 C 23.14 240.73 23.37 241.11 23.73 241.29 L 38.44 248.95 C 38.76 249.11 39.14 249.12 39.45 248.95 L 53.73 241.57 L 62.51 246.85 Z M 65.27 245.95 L 54.33 239.38 C 54 239.19 53.6 239.18 53.26 239.35 L 38.95 246.75 L 25.33 239.66 L 25.33 222.33 L 36.85 214.99 C 37.17 214.79 37.36 214.44 37.36 214.07 L 37.36 200.94 C 37.36 200.55 37.15 200.19 36.81 199.99 C 36.47 199.8 36.05 199.8 35.71 200 L 11.64 214.22 C 11.31 214.42 11.11 214.78 11.11 215.16 L 11.11 246.89 C 11.11 247.29 11.33 247.66 11.69 247.85 L 38.44 262.07 C 38.6 262.16 38.77 262.2 38.95 262.2 C 39.13 262.2 39.31 262.15 39.48 262.06 L 65.23 247.84 C 65.58 247.65 65.79 247.3 65.8 246.91 C 65.81 246.51 65.6 246.15 65.27 245.95 Z" fill="#ffffff" stroke="none" pointer-events="all"/></g></g><g data-cell-id="NpY9npqtjyR1Koi9KO41-6"><g><path d="M 58 360 L 136 360 L 136 438 L 58 438 Z" fill="#ed7100" stroke="none" pointer-events="all"/><path d="M 111.68 418.61 L 111.68 412.68 L 115.35 411.22 L 115.35 417.14 Z M 105.56 411.22 L 109.23 412.68 L 109.23 418.61 L 105.56 417.14 Z M 98.22 427.17 L 98.22 421.24 L 101.89 419.78 L 101.89 425.7 Z M 92.11 419.78 L 95.78 421.24 L 95.78 427.17 L 92.11 425.7 Z M 84.77 418.61 L 84.77 412.68 L 88.44 411.22 L 88.44 417.14 Z M 78.65 411.22 L 82.32 412.68 L 82.32 418.61 L 78.65 417.14 Z M 83.55 408.28 L 86.37 409.41 L 83.55 410.54 L 80.72 409.41 Z M 97 416.84 L 99.82 417.97 L 97 419.1 L 94.18 417.97 Z M 110.45 408.28 L 113.28 409.41 L 110.45 410.54 L 107.63 409.41 Z M 117.02 408.27 L 110.91 405.83 C 110.62 405.71 110.29 405.71 110 405.83 L 103.88 408.27 C 103.42 408.46 103.12 408.91 103.12 409.41 L 103.12 416.65 L 97.45 414.39 C 97.16 414.27 96.84 414.27 96.55 414.39 L 90.88 416.65 L 90.88 409.41 C 90.88 408.91 90.58 408.46 90.12 408.27 L 84 405.83 C 83.71 405.71 83.38 405.71 83.09 405.83 L 76.98 408.27 C 76.51 408.46 76.21 408.91 76.21 409.41 L 76.21 417.97 C 76.21 418.47 76.51 418.92 76.98 419.11 L 83.09 421.55 C 83.24 421.61 83.39 421.64 83.55 421.64 C 83.7 421.64 83.86 421.61 84 421.55 L 89.66 419.29 L 89.66 426.53 C 89.66 427.03 89.97 427.48 90.43 427.67 L 96.55 430.11 C 96.69 430.17 96.85 430.2 97 430.2 C 97.15 430.2 97.31 430.17 97.45 430.11 L 103.57 427.67 C 104.03 427.48 104.34 427.03 104.34 426.53 L 104.34 419.29 L 110 421.55 C 110.14 421.61 110.3 421.64 110.45 421.64 C 110.61 421.64 110.76 421.61 110.91 421.55 L 117.02 419.11 C 117.49 418.92 117.79 418.47 117.79 417.97 L 117.79 409.41 C 117.79 408.91 117.49 408.46 117.02 408.27 Z M 127.58 393.43 C 127.58 400.58 111.82 404.44 97 404.44 C 82.18 404.44 66.42 400.58 66.42 393.43 C 66.42 390.02 70.21 387.02 77.08 384.97 L 77.78 387.32 C 72.28 388.95 68.87 391.3 68.87 393.43 C 68.87 397.48 80.42 402 97 402 C 113.58 402 125.13 397.48 125.13 393.43 C 125.13 391.3 121.72 388.95 116.22 387.32 L 116.92 384.97 C 123.79 387.02 127.58 390.02 127.58 393.43 Z M 97 370.36 L 109.49 375.16 L 97 379.97 L 84.51 375.16 Z M 109.94 394.54 C 107.63 395.57 103.76 396.77 98.22 396.94 L 98.22 382.12 L 111.68 376.95 L 111.68 391.86 C 111.68 393.02 111 394.07 109.94 394.54 Z M 82.32 391.86 L 82.32 376.95 L 95.78 382.12 L 95.78 396.94 C 90.24 396.77 86.37 395.57 84.06 394.54 C 83 394.07 82.32 393.02 82.32 391.86 Z M 83.06 396.77 C 85.75 397.98 90.36 399.41 97 399.41 C 103.64 399.41 108.25 397.98 110.93 396.77 C 112.87 395.92 114.12 393.99 114.12 391.86 L 114.12 375.16 C 114.12 374.66 113.81 374.2 113.34 374.02 L 97.44 367.91 C 97.16 367.8 96.84 367.8 96.56 367.91 L 80.66 374.02 C 80.19 374.2 79.88 374.66 79.88 375.16 L 79.88 391.86 C 79.88 393.99 81.13 395.92 83.06 396.77 Z" fill="#ffffff" stroke="none" pointer-events="all"/></g></g></g></g></g></svg>