<?xml version="1.0" encoding="UTF-8"?>
<svg xmlns="http://www.w3.org/2000/svg" xmlns:xlink="http://www.w3.org/1999/xlink" width="32" height="32" viewBox="0 0 32 32">
<path fill-rule="evenodd" fill="rgb(83.137255%, 35.686275%, 2.745098%)" fill-opacity="1" d="M 6 26 L 26 26 L 26 6 L 6 6 Z M 27.332031 8.667969 L 27.332031 11.332031 L 30.667969 11.332031 L 30.667969 12.667969 L 27.332031 12.667969 L 27.332031 15.332031 L 30.667969 15.332031 L 30.667969 16.667969 L 27.332031 16.667969 L 27.332031 19.332031 L 30.667969 19.332031 L 30.667969 20.667969 L 27.332031 20.667969 L 27.332031 23.332031 L 30.667969 23.332031 L 30.667969 24.667969 L 27.332031 24.667969 L 27.332031 26.667969 C 27.332031 27.035156 27.035156 27.332031 26.667969 27.332031 L 24.667969 27.332031 L 24.667969 30.667969 L 23.332031 30.667969 L 23.332031 27.332031 L 20.667969 27.332031 L 20.667969 30.667969 L 19.332031 30.667969 L 19.332031 27.332031 L 16.667969 27.332031 L 16.667969 30.667969 L 15.332031 30.667969 L 15.332031 27.332031 L 12.667969 27.332031 L 12.667969 30.667969 L 11.332031 30.667969 L 11.332031 27.332031 L 8.667969 27.332031 L 8.667969 30.667969 L 7.332031 30.667969 L 7.332031 27.332031 L 5.332031 27.332031 C 4.964844 27.332031 4.667969 27.035156 4.667969 26.667969 L 4.667969 24.667969 L 1.332031 24.667969 L 1.332031 23.332031 L 4.667969 23.332031 L 4.667969 20.667969 L 1.332031 20.667969 L 1.332031 19.332031 L 4.667969 19.332031 L 4.667969 16.667969 L 1.332031 16.667969 L 1.332031 15.332031 L 4.667969 15.332031 L 4.667969 12.667969 L 1.332031 12.667969 L 1.332031 11.332031 L 4.667969 11.332031 L 4.667969 8.667969 L 1.332031 8.667969 L 1.332031 7.332031 L 4.667969 7.332031 L 4.667969 5.332031 C 4.667969 4.964844 4.964844 4.667969 5.332031 4.667969 L 7.332031 4.667969 L 7.332031 1.332031 L 8.667969 1.332031 L 8.667969 4.667969 L 11.332031 4.667969 L 11.332031 1.332031 L 12.667969 1.332031 L 12.667969 4.667969 L 15.332031 4.667969 L 15.332031 1.332031 L 16.667969 1.332031 L 16.667969 4.667969 L 19.332031 4.667969 L 19.332031 1.332031 L 20.667969 1.332031 L 20.667969 4.667969 L 23.332031 4.667969 L 23.332031 1.332031 L 24.667969 1.332031 L 24.667969 4.667969 L 26.667969 4.667969 C 27.035156 4.667969 27.332031 4.964844 27.332031 5.332031 L 27.332031 7.332031 L 30.667969 7.332031 L 30.667969 8.667969 Z M 22.054688 16.59375 C 22.054688 17.453125 22.367188 17.882812 22.992188 17.882812 C 23.28125 17.882812 23.5625 17.792969 23.835938 17.605469 L 23.835938 15.589844 C 23.59375 15.414062 23.304688 15.324219 23.007812 15.324219 C 22.679688 15.324219 22.4375 15.429688 22.285156 15.636719 C 22.128906 15.84375 22.054688 16.164062 22.054688 16.59375 M 21.59375 18.042969 C 21.3125 17.691406 21.171875 17.222656 21.171875 16.628906 C 21.171875 16.238281 21.238281 15.894531 21.363281 15.597656 C 21.492188 15.296875 21.675781 15.066406 21.914062 14.898438 C 22.152344 14.726562 22.4375 14.644531 22.765625 14.644531 C 23.15625 14.644531 23.511719 14.769531 23.835938 15.023438 L 23.835938 13.058594 L 24.699219 13.058594 L 24.699219 18.484375 L 23.960938 18.484375 L 23.871094 18.125 C 23.558594 18.414062 23.144531 18.574219 22.71875 18.566406 C 22.25 18.566406 21.875 18.394531 21.59375 18.042969 M 17.984375 16.511719 C 17.984375 17.335938 18.273438 17.746094 18.855469 17.746094 C 19.144531 17.746094 19.417969 17.648438 19.675781 17.460938 L 19.675781 15.582031 C 19.4375 15.410156 19.15625 15.320312 18.863281 15.316406 C 18.566406 15.316406 18.34375 15.414062 18.199219 15.613281 C 18.054688 15.808594 17.984375 16.109375 17.984375 16.511719 M 17.511719 17.902344 C 17.238281 17.5625 17.101562 17.109375 17.101562 16.542969 C 17.101562 16.171875 17.164062 15.84375 17.285156 15.554688 C 17.410156 15.269531 17.585938 15.046875 17.816406 14.886719 C 18.042969 14.726562 18.316406 14.648438 18.628906 14.644531 C 19.054688 14.644531 19.421875 14.792969 19.734375 15.089844 L 19.808594 14.753906 L 20.542969 14.753906 L 20.542969 18.230469 C 20.542969 18.820312 20.382812 19.277344 20.058594 19.601562 C 19.738281 19.925781 19.28125 20.085938 18.6875 20.085938 C 18.234375 20.085938 17.808594 19.984375 17.402344 19.785156 L 17.402344 19.167969 C 17.859375 19.320312 18.265625 19.394531 18.628906 19.394531 C 18.996094 19.398438 19.261719 19.3125 19.429688 19.140625 C 19.59375 18.976562 19.675781 18.699219 19.675781 18.316406 L 19.675781 18.003906 C 19.359375 18.277344 19 18.414062 18.597656 18.414062 C 18.144531 18.414062 17.78125 18.242188 17.511719 17.902344 M 13.929688 16.335938 C 13.960938 17.378906 14.300781 17.898438 14.945312 17.898438 C 15.207031 17.898438 15.414062 17.820312 15.5625 17.65625 C 15.710938 17.496094 15.785156 17.273438 15.785156 16.984375 C 15.785156 16.6875 15.707031 16.464844 15.554688 16.3125 C 15.402344 16.15625 15.179688 16.082031 14.886719 16.082031 C 14.574219 16.082031 14.253906 16.167969 13.929688 16.335938 M 13.507812 17.972656 C 13.195312 17.558594 13.039062 16.945312 13.039062 16.132812 C 13.039062 15.234375 13.226562 14.535156 13.59375 14.035156 C 13.964844 13.535156 14.484375 13.285156 15.152344 13.285156 C 15.363281 13.285156 15.574219 13.308594 15.789062 13.355469 C 16 13.402344 16.183594 13.464844 16.332031 13.542969 L 16.332031 14.179688 C 16.164062 14.117188 15.992188 14.070312 15.816406 14.039062 C 15.636719 14.007812 15.457031 13.988281 15.277344 13.984375 C 14.835938 13.984375 14.507812 14.132812 14.289062 14.421875 C 14.074219 14.714844 13.953125 15.167969 13.929688 15.78125 C 14.316406 15.53125 14.726562 15.40625 15.160156 15.40625 C 15.617188 15.40625 15.980469 15.542969 16.257812 15.820312 C 16.53125 16.097656 16.671875 16.464844 16.671875 16.925781 C 16.671875 17.246094 16.597656 17.535156 16.453125 17.785156 C 16.308594 18.039062 16.09375 18.246094 15.832031 18.378906 C 15.558594 18.523438 15.242188 18.597656 14.882812 18.597656 C 14.273438 18.601562 13.816406 18.390625 13.507812 17.972656 M 8.097656 18.484375 L 7.277344 18.484375 L 7.277344 13.402344 L 8.273438 13.402344 L 9.800781 16.433594 L 11.355469 13.402344 L 12.320312 13.402344 L 12.320312 18.484375 L 11.5 18.484375 L 11.5 14.679688 L 10.179688 17.210938 L 9.375 17.210938 L 8.097656 14.695312 Z M 8.097656 18.484375 "/>
</svg>
