<svg role="img" viewBox="0 0 32 32" height="32" width="32" xmlns="http://www.w3.org/2000/svg"><path d="M18.379 19.34c-.598 0-1.18-.125-1.754-.371v-.88c.68.231 1.254.349 1.715.349.441 0 .777-.102 1.015-.297.239-.196.36-.473.36-.836 0-.684-.434-1.028-1.297-1.028-.277 0-.578.02-.898.059v-.719l1.84-2h-2.641v-.883h3.855v.848l-1.941 1.906c.086-.008.172-.011.258-.011.363 0 .691.074.984.23.297.152.531.367.707.648.172.278.262.598.262.961 0 .391-.102.739-.301 1.043a2.01 2.01 0 0 1-.855.72c-.375.175-.81.26-1.31.26m-6.085-5.73h1.145c.347 0 .613.094.792.29.176.195.266.476.266.851 0 .371-.09.652-.266.848-.18.191-.445.289-.793.289h-1.144Zm0 3.157h1.277c.645 0 1.153-.184 1.524-.543.375-.36.562-.852.562-1.473-.004-.625-.191-1.117-.566-1.477-.375-.359-.887-.539-1.535-.539h-2.399V19.2h1.137ZM6 26h20V6H6ZM30.668 8.668V7.332h-3.336v-2a.664.664 0 0 0-.664-.664h-2V1.332h-1.336v3.336h-2.664V1.332h-1.336v3.336h-2.664V1.332h-1.336v3.336h-2.664V1.332h-1.336v3.336H8.668V1.332H7.332v3.336h-2a.664.664 0 0 0-.664.664v2H1.332v1.336h3.336v2.664H1.332v1.336h3.336v2.664H1.332v1.336h3.336v2.664H1.332v1.336h3.336v2.664H1.332v1.336h3.336v2c0 .367.297.664.664.664h2v3.336h1.336v-3.336h2.664v3.336h1.336v-3.336h2.664v3.336h1.336v-3.336h2.664v3.336h1.336v-3.336h2.664v3.336h1.336v-3.336h2a.664.664 0 0 0 .664-.664v-2h3.336v-1.336h-3.336v-2.664h3.336v-1.336h-3.336v-2.664h3.336v-1.336h-3.336v-2.664h3.336v-1.336h-3.336V8.668Zm0 0" fill="rgb(83.137255%, 35.686275%, 2.745098%)" fill-rule="evenodd"/></svg>