<svg role="img" viewBox="0 0 32 32" xmlns="http://www.w3.org/2000/svg"><path d="M6 26h20V6H6ZM30.668 8.668V7.332h-3.336v-2a.664.664 0 0 0-.664-.664h-2V1.332h-1.336v3.336h-2.664V1.332h-1.336v3.336h-2.664V1.332h-1.336v3.336h-2.664V1.332h-1.336v3.336H8.668V1.332H7.332v3.336h-2a.664.664 0 0 0-.664.664v2H1.332v1.336h3.336v2.664H1.332v1.336h3.336v2.664H1.332v1.336h3.336v2.664H1.332v1.336h3.336v2.664H1.332v1.336h3.336v2c0 .367.297.664.664.664h2v3.336h1.336v-3.336h2.664v3.336h1.336v-3.336h2.664v3.336h1.336v-3.336h2.664v3.336h1.336v-3.336h2.664v3.336h1.336v-3.336h2a.664.664 0 0 0 .664-.664v-2h3.336v-1.336h-3.336v-2.664h3.336v-1.336h-3.336v-2.664h3.336v-1.336h-3.336v-2.664h3.336v-1.336h-3.336V8.668Zm-7.496 9.816v-2.468c0-.243-.047-.414-.149-.528q-.145-.164-.468-.164c-.32 0-.653.11-.989.324v2.836H20.7v-3.73h.719l.09.41q.686-.521 1.437-.52c.356 0 .63.094.813.282q.28.281.281.816v2.742Zm-4.66-3.21q-.377.001-.614.265-.234.265-.27.711h1.606v-.059c0-.296-.062-.527-.183-.683q-.187-.235-.54-.235m-.883 1.554q.019.557.3.82.28.258.86.258.526.001 1.133-.203v.606q-.248.135-.59.21-.338.078-.707.079-.925-.001-1.398-.5-.48-.498-.48-1.453 0-.946.468-1.473.462-.527 1.3-.527c.477 0 .848.128 1.102.39q.387.393.387 1.113 0 .38-.063.68Zm-3.336-1.262q.1-.007.2-.007.431.002.777.18.344.181.554.511.204.33.203.754 0 .462-.234.82-.233.362-.672.567a2.4 2.4 0 0 1-1.027.207c-.469 0-.93-.102-1.38-.297v-.688q.804.27 1.348.27c.344 0 .614-.074.801-.23q.277-.23.278-.657-.001-.804-1.016-.805-.327.001-.707.043v-.562l1.445-1.57H12.79v-.7h3.027v.668ZM8.855 14.11v3.672h.743q1.518 0 1.52-1.758v-.164q-.002-1.751-1.52-1.75Zm-.894 4.375v-5.082h1.738q1.132 0 1.73.657.593.65.594 1.875c0 .82-.199 1.453-.601 1.89q-.607.662-1.73.66Zm0 0" fill="rgb(83.137256%, 35.686275%, 2.745098%)" fill-rule="evenodd"/></svg>