<svg role="img" viewBox="0 0 32.895 32" height="32" width="32.895" xmlns="http://www.w3.org/2000/svg"><path d="M9.254 31.797a24.419 24.419 0 0 0-.57-.195c-.028 0-3.559-4.372-4.094-5.067a172.561 172.561 0 0 0-1.692-2.097C-.25 20.566-.047 20.914.035 19.57c.04-.633.137-1.332.219-1.554.082-.223.453-1.774.824-3.45.375-1.671.738-3.285.809-3.582.074-.296.254-1.086.402-1.757.688-3.051.711-3.09 2.238-3.852.989-.488 1.977-.969 2.973-1.441l5.063-2.414c3.972-1.9 3.812-1.88 6.222-.711A698.264 698.264 0 0 0 25 3.789c.898.43 1.8.856 2.707 1.277 1.531.72 2.059 1.188 2.29 2.04.124.457.316 1.257 1.089 4.624.144.63.445 1.907.664 2.836.219.93.496 2.149.617 2.704.121.558.29 1.25.375 1.535.254.875.188 1.718-.18 2.273-.18.274-1.304 1.692-2.492 3.156a377.718 377.718 0 0 0-2.5 3.106c-1.793 2.363-3.367 4.16-3.863 4.398-.523.254-.848.266-7.23.262-5.465-.008-6.782-.043-7.223-.203m7.367-7.586c1.02-.336 2.11-.922 2.66-1.426l.297-.273.078.523c.196 1.246.13 1.2 1.563 1.2H22.5v-6.626c0-7.53.008-7.476-1.121-8.734-1.133-1.262-2.711-1.695-5.7-1.562-1.91.082-3.53.394-4.745.917l-.668.29v1.132c0 .621.043 1.13.093 1.13.051 0 .524-.118 1.047-.266 1.239-.344 3.492-.68 4.582-.68 1.024 0 2.203.324 2.637.723.625.574.746 1.004.809 2.847.054 1.656.046 1.739-.192 1.649-.14-.055-.832-.184-1.539-.293-3.316-.5-5.621.004-7.187 1.57-1.024 1.023-1.254 1.656-1.258 3.441-.004 1.239.043 1.59.285 2.11.602 1.305 1.68 2.176 3.035 2.547 1.184.324 2.578.265 4.043-.22m-2.738-2.257c-.688-.258-.91-.46-1.2-1.098-.492-1.082-.195-2.644.626-3.289.851-.671 3.078-.89 5.203-.515l.879.152v3.379l-.739.441c-1.613.961-3.632 1.356-4.77.93m0 0" fill="rgb(12.941176%, 14.509804%, 16.078431%)"/></svg>