<svg role="img" viewBox="0 0 32 32" xmlns="http://www.w3.org/2000/svg"><path d="M6 26h20V6H6ZM27.332 8.668v2.664h3.336v1.336h-3.336v2.664h3.336v1.336h-3.336v2.664h3.336v1.336h-3.336v2.664h3.336v1.336h-3.336v2a.664.664 0 0 1-.664.664h-2v3.336h-1.336v-3.336h-2.664v3.336h-1.336v-3.336h-2.664v3.336h-1.336v-3.336h-2.664v3.336h-1.336v-3.336H8.668v3.336H7.332v-3.336h-2a.664.664 0 0 1-.664-.664v-2H1.332v-1.336h3.336v-2.664H1.332v-1.336h3.336v-2.664H1.332v-1.336h3.336v-2.664H1.332v-1.336h3.336V8.668H1.332V7.332h3.336v-2c0-.367.297-.664.664-.664h2V1.332h1.336v3.336h2.664V1.332h1.336v3.336h2.664V1.332h1.336v3.336h2.664V1.332h1.336v3.336h2.664V1.332h1.336v3.336h2c.367 0 .664.297.664.664v2h3.336v1.336Zm-5.398 6.723q.55-.352 1.078-.352.352 0 .511.18.16.176.16.57v2.695h.946v-2.992q0-.58-.305-.89t-.887-.309c-.546 0-1.066.191-1.57.57l-.094-.449h-.785v4.07h.946Zm-4.715.941q.002 1.346.953 1.344.472 0 .898-.309v-2.05a1.54 1.54 0 0 0-.89-.286q-.488 0-.723.317-.239.322-.238.984m-.516 1.516c-.297-.368-.441-.864-.441-1.48q0-.61.199-1.079.2-.468.574-.73a1.5 1.5 0 0 1 .89-.266 1.7 1.7 0 0 1 1.208.488l.078-.367h.8v3.793c0 .645-.175 1.14-.527 1.496q-.524.527-1.496.527-.742 0-1.398-.328v-.672q.744.247 1.336.247.596.001.87-.274c.18-.187.274-.484.274-.902v-.344q-.522.45-1.18.45-.742-.001-1.187-.56m-3.988-1.707c.039 1.136.406 1.703 1.11 1.703q.43.001.671-.262.244-.264.242-.738.001-.48-.25-.73-.246-.252-.726-.25-.515-.002-1.047.277m-.457 1.785c-.34-.453-.508-1.125-.508-2.008q0-1.472.602-2.29.603-.814 1.699-.816.345.001.691.079.352.075.598.203v.695a3 3 0 0 0-.567-.156 3 3 0 0 0-.585-.059q-.722 0-1.075.48-.357.48-.398 1.481.632-.41 1.348-.41.744 0 1.195.453.45.451.449 1.203 0 .526-.234.942a1.7 1.7 0 0 1-.68.648q-.444.234-1.035.234-.996 0-1.5-.68m-4.442-.047c-.449-.473-.675-1.164-.675-2.082q0-1.418.699-2.18c.469-.508 1.137-.765 2.012-.765q.719.001 1.328.218v.801q-.799-.169-1.25-.168-.91 0-1.356.469-.44.473-.441 1.457v.191q-.001.978.437 1.446.44.468 1.344.468.51 0 1.348-.199v.797q-.633.251-1.442.25-1.329 0-2.004-.703m0 0" fill="rgb(83.137256%, 35.686275%, 2.745098%)" fill-rule="evenodd"/></svg>