<svg role="img" viewBox="0 0 32 32" xmlns="http://www.w3.org/2000/svg"><path d="M6 26h20V6H6ZM30.668 8.668V7.332h-3.336v-2a.664.664 0 0 0-.664-.664h-2V1.332h-1.336v3.336h-2.664V1.332h-1.336v3.336h-2.664V1.332h-1.336v3.336h-2.664V1.332h-1.336v3.336H8.668V1.332H7.332v3.336h-2a.664.664 0 0 0-.664.664v2H1.332v1.336h3.336v2.664H1.332v1.336h3.336v2.664H1.332v1.336h3.336v2.664H1.332v1.336h3.336v2.664H1.332v1.336h3.336v2c0 .367.297.664.664.664h2v3.336h1.336v-3.336h2.664v3.336h1.336v-3.336h2.664v3.336h1.336v-3.336h2.664v3.336h1.336v-3.336h2.664v3.336h1.336v-3.336h2a.664.664 0 0 0 .664-.664v-2h3.336v-1.336h-3.336v-2.664h3.336v-1.336h-3.336v-2.664h3.336v-1.336h-3.336v-2.664h3.336v-1.336h-3.336V8.668Zm-9.11 6.969q.23-.312.723-.313c.305 0 .578.09.828.266v2.015a1.47 1.47 0 0 1-.843.278q-.938 0-.938-1.29.001-.645.23-.956m.438 2.93q.65.002 1.152-.442l.086.36h.743v-5.426h-.868v1.964a1.7 1.7 0 0 0-1.07-.378q-.49-.002-.852.253a1.6 1.6 0 0 0-.55.7 2.6 2.6 0 0 0-.188 1.03c0 .595.14 1.063.422 1.415q.421.523 1.125.523m-4.594-2.954q.213-.298.664-.297.43.001.813.266v1.879a1.4 1.4 0 0 1-.82.285q-.874.001-.875-1.234.001-.605.218-.899m.399 2.801q.604 0 1.078-.41v.312q.001.574-.25.825-.252.256-.8.254-.541 0-1.224-.227v.617q.603.3 1.282.3.889-.002 1.375-.483.48-.487.48-1.372v-3.476h-.73l-.075.336a1.56 1.56 0 0 0-1.109-.445 1.36 1.36 0 0 0-.812.242q-.346.24-.528.668-.181.432-.183.988 0 .85.406 1.36.41.51 1.09.511m-4.106.184c-.492 0-.96-.102-1.41-.297v-.688q.802.27 1.387.27 1.085 0 1.086-.938-.002-.451-.274-.664-.274-.206-.87-.207-.447 0-1.114.074v-.558l.137-2.188h2.758v.7h-1.942l-.082 1.355q.301-.059.637-.059.76 0 1.199.41.439.412.438 1.122 0 .765-.528 1.215c-.351.3-.828.453-1.422.453m-4.797-4.504h.91q.838 0 .837.844 0 .843-.856.843H8.9Zm0 2.375h.895l1.187 2.015h.895l-1.312-2.168c.324-.128.566-.312.738-.55q.251-.36.25-.86 0-.687-.45-1.094-.45-.41-1.199-.41H8.004v5.082h.894Zm0 0" fill="rgb(83.137256%, 35.686275%, 2.745098%)" fill-rule="evenodd"/></svg>