<?xml version="1.0" encoding="UTF-8"?>
<svg xmlns="http://www.w3.org/2000/svg" xmlns:xlink="http://www.w3.org/1999/xlink" width="32" height="32" viewBox="0 0 32 32">
<defs>
<linearGradient id="linear-pattern-0" gradientUnits="userSpaceOnUse" x1="9" y1="19.85" x2="9" y2="-1.02" gradientTransform="matrix(1.777778, 0.00266842, -0.00266842, 1.777778, 0, 0)">
<stop offset="0" stop-color="rgb(36.862745%, 58.823529%, 14.117647%)" stop-opacity="1"/>
<stop offset="0.02" stop-color="rgb(37.254902%, 59.215686%, 14.117647%)" stop-opacity="1"/>
<stop offset="1" stop-color="rgb(46.27451%, 73.72549%, 17.647059%)" stop-opacity="1"/>
</linearGradient>
</defs>
<path fill-rule="nonzero" fill="url(#linear-pattern-0)" d="M 0.320312 15.234375 L 15.234375 0.320312 C 15.433594 0.113281 15.710938 -0.0078125 16 -0.0078125 C 16.289062 -0.0078125 16.566406 0.113281 16.765625 0.320312 L 31.679688 15.234375 C 31.886719 15.433594 32.007812 15.710938 32.007812 16 C 32.007812 16.289062 31.886719 16.566406 31.679688 16.765625 L 16.746094 31.699219 C 16.332031 32.105469 15.667969 32.105469 15.253906 31.699219 L 0.320312 16.765625 C 0.113281 16.566406 -0.0078125 16.289062 -0.0078125 16 C -0.0078125 15.710938 0.113281 15.433594 0.320312 15.234375 "/>
<path fill-rule="nonzero" fill="rgb(70.588235%, 92.54902%, 21.176471%)" fill-opacity="1" d="M 19.910156 7.109375 L 16.140625 3.359375 C 16.058594 3.289062 15.941406 3.289062 15.859375 3.359375 L 12.089844 7.109375 C 12.019531 7.160156 11.992188 7.253906 12.027344 7.332031 C 12.058594 7.410156 12.148438 7.453125 12.230469 7.429688 L 14.4375 7.429688 C 14.542969 7.429688 14.632812 7.519531 14.632812 7.625 L 14.632812 11.183594 C 14.632812 11.289062 14.71875 11.378906 14.828125 11.378906 L 17.171875 11.378906 C 17.28125 11.378906 17.367188 11.289062 17.367188 11.183594 L 17.367188 7.625 C 17.367188 7.519531 17.457031 7.429688 17.5625 7.429688 L 19.769531 7.429688 C 19.851562 7.453125 19.941406 7.410156 19.972656 7.332031 C 20.007812 7.253906 19.980469 7.160156 19.910156 7.109375 M 7.109375 11.75 L 3.378906 15.539062 C 3.308594 15.613281 3.308594 15.730469 3.378906 15.804688 L 7.109375 19.554688 C 7.164062 19.613281 7.253906 19.632812 7.328125 19.601562 C 7.40625 19.570312 7.453125 19.496094 7.449219 19.414062 L 7.449219 17.226562 C 7.449219 17.117188 7.535156 17.03125 7.644531 17.03125 L 11.199219 17.03125 C 11.25 17.03125 11.296875 17.011719 11.332031 16.972656 C 11.367188 16.9375 11.382812 16.886719 11.378906 16.835938 L 11.378906 14.488281 C 11.40625 14.4375 11.410156 14.375 11.386719 14.324219 C 11.363281 14.269531 11.3125 14.230469 11.253906 14.222656 L 7.699219 14.222656 C 7.648438 14.226562 7.597656 14.207031 7.558594 14.175781 C 7.523438 14.140625 7.503906 14.09375 7.503906 14.042969 L 7.503906 11.894531 C 7.542969 11.785156 7.488281 11.664062 7.378906 11.625 C 7.269531 11.585938 7.148438 11.640625 7.109375 11.75 M 25.03125 19.554688 L 28.816406 15.785156 C 28.886719 15.710938 28.886719 15.59375 28.816406 15.519531 L 25.03125 11.75 C 24.972656 11.703125 24.894531 11.695312 24.824219 11.722656 C 24.757812 11.753906 24.714844 11.820312 24.710938 11.894531 L 24.710938 14.117188 C 24.710938 14.167969 24.691406 14.214844 24.652344 14.246094 C 24.617188 14.28125 24.566406 14.296875 24.515625 14.292969 L 20.960938 14.292969 C 20.910156 14.292969 20.863281 14.3125 20.828125 14.351562 C 20.789062 14.386719 20.769531 14.4375 20.78125 14.488281 L 20.78125 16.835938 C 20.769531 16.886719 20.789062 16.941406 20.828125 16.972656 C 20.859375 17.011719 20.910156 17.03125 20.960938 17.03125 L 24.515625 17.03125 C 24.566406 17.03125 24.617188 17.050781 24.652344 17.089844 C 24.691406 17.125 24.710938 17.175781 24.710938 17.226562 L 24.710938 19.429688 C 24.714844 19.503906 24.765625 19.566406 24.835938 19.589844 C 24.902344 19.613281 24.976562 19.601562 25.03125 19.554688 "/>
<path fill-rule="nonzero" fill="rgb(100%, 100%, 100%)" fill-opacity="1" d="M 20.960938 16 C 20.976562 13.429688 19.027344 11.273438 16.46875 11.03125 C 13.914062 10.789062 11.59375 12.539062 11.125 15.066406 C 10.65625 17.589844 12.195312 20.054688 14.667969 20.746094 L 14.667969 22.4375 C 13.421875 23.082031 12.777344 24.492188 13.109375 25.855469 C 13.441406 27.21875 14.660156 28.175781 16.0625 28.175781 C 17.464844 28.175781 18.683594 27.21875 19.015625 25.855469 C 19.347656 24.492188 18.703125 23.082031 17.457031 22.4375 L 17.457031 20.65625 C 19.515625 20.035156 20.933594 18.148438 20.960938 16 "/>
<path fill-rule="nonzero" fill="rgb(36.862745%, 62.745098%, 93.72549%)" fill-opacity="1" d="M 16.019531 13.101562 C 14.429688 13.101562 13.140625 14.390625 13.140625 15.980469 C 13.140625 17.570312 14.425781 18.859375 16.015625 18.859375 C 17.605469 18.863281 18.898438 17.574219 18.898438 15.984375 C 18.898438 14.394531 17.609375 13.105469 16.019531 13.101562 "/>
</svg>
