<svg role="img" viewBox="0 0 32 32" xmlns="http://www.w3.org/2000/svg"><defs><linearGradient gradientTransform="rotate(.086)scale(1.77778)" gradientUnits="userSpaceOnUse" id="azure-storage-container_svg__a" x1="9" x2="9" y1="15.799" y2="5.316"><stop offset="0" stop-color="rgb(19.607843%, 74.509805%, 86.666667%)"/><stop offset=".775" stop-color="rgb(19.607843%, 83.137256%, 96.078432%)"/></linearGradient></defs><path d="M.969 9.45H31.03v17.632a1 1 0 0 1-.297.711 1 1 0 0 1-.707.293H1.973c-.555 0-1.004-.45-1.004-1.004Zm0 0" fill="url(#azure-storage-container_svg__a)"/><path d="M1.977 3.91h28.046c.555 0 1.004.45 1.004 1.004V9.45H.973V4.918A1.01 1.01 0 0 1 1.977 3.91" fill="rgb(0%, 47.058824%, 83.137256%)"/><path d="M24.05 13.063h-7.366a.4.4 0 0 1-.223-.067l-2.102-1.398a.37.37 0 0 0-.218-.07H7.949a.393.393 0 0 0-.394.394V24.93a.396.396 0 0 0 .394.394h16.102a.393.393 0 0 0 .394-.394V13.457a.4.4 0 0 0-.113-.277.4.4 0 0 0-.281-.117" fill="rgb(96.862745%, 55.29412%, 11.764706%)"/><path d="M9.254 12.285h3.516c.085 0 .16.07.16.16v.446c0 .09-.07.16-.16.16H9.254a.16.16 0 0 1-.164-.16v-.446c0-.09.074-.16.164-.16m0 0" fill="rgb(100%, 100%, 100%)"/><path d="M9.203 12.285h.547c.063 0 .11.05.11.11v.546a.12.12 0 0 1-.032.079.12.12 0 0 1-.078.03h-.547a.1.1 0 0 1-.078-.03.1.1 0 0 1-.035-.079v-.546c0-.063.05-.11.113-.11m0 0" fill="rgb(81.960785%, 34.901962%, 0%)"/><path d="M24.05 13.043h-8.09a.4.4 0 0 0-.28.113l-1.301 1.301a.4.4 0 0 1-.281.117H7.949a.37.37 0 0 0-.277.114.4.4 0 0 0-.117.277v9.941c0 .219.175.395.394.395h16.102a.393.393 0 0 0 .394-.395V13.438a.4.4 0 0 0-.117-.282.4.4 0 0 0-.277-.113" fill="rgb(100%, 100%, 100%)"/></svg>