<svg role="img" viewBox="0 0 32 32" height="32" width="32" xmlns="http://www.w3.org/2000/svg"><defs><radialGradient cx="5.72" cy="7.45" fx="5.72" fy="7.45" gradientTransform="translate(5.742 2.684)scale(1.79556)" gradientUnits="userSpaceOnUse" id="2__0__radial-pattern-0" r="8.42"><stop offset=".18" stop-color="rgb(36.862745%, 62.745098%, 93.72549%)"/><stop offset=".56" stop-color="rgb(36.078431%, 62.352941%, 93.333333%)"/><stop offset=".69" stop-color="rgb(33.333333%, 61.176471%, 92.941176%)"/><stop offset=".78" stop-color="rgb(29.019608%, 59.215686%, 91.372549%)"/><stop offset=".86" stop-color="rgb(22.352941%, 56.470588%, 89.411765%)"/><stop offset=".93" stop-color="rgb(13.72549%, 52.941176%, 87.058824%)"/><stop offset=".99" stop-color="rgb(3.137255%, 48.235294%, 83.921569%)"/><stop offset="1" stop-color="rgb(0%, 47.058824%, 83.137255%)"/></radialGradient><radialGradient cx="28.18" cy="202.29" fx="28.18" fy="202.29" gradientTransform="translate(-31.591 -328.907)scale(1.68889)" gradientUnits="userSpaceOnUse" id="3__1__radial-pattern-1" r="2.7"><stop offset=".19" stop-color="rgb(54.901961%, 55.686275%, 56.470588%)"/><stop offset=".35" stop-color="rgb(51.764706%, 52.54902%, 53.333333%)"/><stop offset=".6" stop-color="rgb(43.137255%, 43.921569%, 44.313725%)"/><stop offset=".91" stop-color="rgb(29.019608%, 29.411765%, 29.803922%)"/><stop offset="1" stop-color="rgb(24.313725%, 24.705882%, 24.705882%)"/></radialGradient></defs><path d="M31.11 16c0 8.316-6.766 15.059-15.11 15.059S.89 24.316.89 16 7.657.941 16 .941 31.11 7.684 31.11 16m0 0" fill="url(#2__0__radial-pattern-0)"/><path d="M29.156 16c0 7.234-5.89 13.102-13.156 13.102S2.844 23.234 2.844 16 8.734 2.898 16 2.898 29.156 8.766 29.156 16m0 0" fill="rgb(100%, 100%, 100%)"/><path d="M4.836 16.781a11.1 11.1 0 0 0 3.234 7.114l3.555-3.56a6.28 6.28 0 0 1-1.777-3.554Zm0 0" fill="rgb(61.176471%, 92.156863%, 100%)"/><path d="M23.344 7.59a11.13 11.13 0 0 0-6.564-2.72v4.961a6.06 6.06 0 0 1 3.04 1.242Zm-14.688 0 3.559 3.558a6.07 6.07 0 0 1 3.039-1.246v-5.03A11.12 11.12 0 0 0 8.656 7.59m12.285 4.59a6.4 6.4 0 0 1 1.262 3.039h4.961a10.96 10.96 0 0 0-2.719-6.528Zm0 0" fill="rgb(19.607843%, 74.509804%, 86.666667%)"/><path d="M11.059 12.18 7.504 8.62a10.93 10.93 0 0 0-2.668 6.598h4.96a6.4 6.4 0 0 1 1.263-3.04m0 0" fill="rgb(31.372549%, 90.196078%, 100%)"/><path d="M25.137 12.445A.8.8 0 0 0 24.125 12l-7.324 2.95.566 1.44 7.324-2.898a.78.78 0 0 0 .446-1.047m0 0" fill="rgb(94.117647%, 25.098039%, 28.627451%)"/><path d="M18.133 16A2.13 2.13 0 0 1 16 18.133 2.13 2.13 0 0 1 13.867 16 2.13 2.13 0 0 1 16 13.867 2.13 2.13 0 0 1 18.133 16m0 0" fill="url(#3__1__radial-pattern-1)"/></svg>