<?xml version="1.0" encoding="UTF-8"?>
<svg xmlns="http://www.w3.org/2000/svg" xmlns:xlink="http://www.w3.org/1999/xlink" width="29.511" height="32" viewBox="0 0 29.511 32">
<defs>
<linearGradient id="linear-pattern-0" gradientUnits="userSpaceOnUse" x1="15.15" y1="3.79" x2="15.15" y2="0.5" gradientTransform="matrix(1.81715, 0, 0, 1.81715, -1.545, -0.29)">
<stop offset="0" stop-color="rgb(46.666667%, 22.745098%, 86.27451%)" stop-opacity="1"/>
<stop offset="1" stop-color="rgb(71.764706%, 47.843137%, 95.686275%)" stop-opacity="1"/>
</linearGradient>
<linearGradient id="linear-pattern-1" gradientUnits="userSpaceOnUse" x1="2.85" y1="11.86" x2="2.85" y2="8.57" gradientTransform="matrix(1.81715, 0, 0, 1.81715, -1.545, -0.29)">
<stop offset="0" stop-color="rgb(46.666667%, 22.745098%, 86.27451%)" stop-opacity="1"/>
<stop offset="1" stop-color="rgb(71.764706%, 47.843137%, 95.686275%)" stop-opacity="1"/>
</linearGradient>
</defs>
<path fill-rule="nonzero" fill="rgb(71.764706%, 58.823529%, 97.647059%)" fill-opacity="1" d="M 25.222656 2.652344 L 17.972656 15.554688 L 10.304688 7.742188 L 2.398438 17.988281 L 4.253906 19.445312 L 10.519531 11.355469 L 18.480469 19.480469 L 27.277344 3.835938 Z M 25.222656 2.652344 "/>
<path fill-rule="nonzero" fill="url(#linear-pattern-0)" d="M 28.964844 3.617188 C 28.96875 4.410156 28.65625 5.171875 28.097656 5.734375 C 27.539062 6.296875 26.777344 6.613281 25.984375 6.613281 C 25.191406 6.613281 24.433594 6.296875 23.875 5.734375 C 23.3125 5.171875 23 4.410156 23.003906 3.617188 C 23.003906 1.960938 24.339844 0.617188 25.984375 0.617188 C 27.636719 0.621094 28.96875 1.964844 28.964844 3.617188 M 28.964844 3.617188 "/>
<path fill-rule="nonzero" fill="url(#linear-pattern-1)" d="M 6.613281 18.28125 C 6.617188 19.929688 5.28125 21.273438 3.632812 21.277344 C 1.984375 21.273438 0.648438 19.929688 0.652344 18.28125 C 0.652344 16.625 1.988281 15.28125 3.632812 15.28125 C 5.285156 15.285156 6.617188 16.628906 6.613281 18.28125 M 6.613281 18.28125 "/>
<path fill-rule="nonzero" fill="rgb(0%, 47.058824%, 83.137255%)" fill-opacity="1" d="M 9.265625 17.734375 L 12.9375 17.734375 C 13.21875 17.734375 13.445312 17.964844 13.445312 18.246094 L 13.445312 31 C 13.445312 31.132812 13.390625 31.265625 13.296875 31.359375 C 13.199219 31.453125 13.070312 31.507812 12.9375 31.507812 L 9.265625 31.507812 C 8.988281 31.507812 8.757812 31.28125 8.757812 31 L 8.757812 18.246094 C 8.757812 17.964844 8.988281 17.734375 9.265625 17.734375 M 9.265625 17.734375 "/>
<path fill-rule="nonzero" fill="rgb(0%, 35.686275%, 63.137255%)" fill-opacity="1" d="M 16.734375 22.496094 L 20.40625 22.496094 C 20.6875 22.496094 20.914062 22.722656 20.914062 23.003906 L 20.914062 31 C 20.914062 31.136719 20.859375 31.265625 20.765625 31.359375 C 20.671875 31.453125 20.539062 31.507812 20.40625 31.507812 L 16.734375 31.507812 C 16.453125 31.507812 16.226562 31.28125 16.226562 31 L 16.226562 23.003906 C 16.226562 22.722656 16.453125 22.496094 16.734375 22.496094 M 24.203125 13.121094 L 27.875 13.121094 C 28.15625 13.121094 28.382812 13.347656 28.382812 13.628906 L 28.382812 31 C 28.382812 31.28125 28.15625 31.507812 27.875 31.507812 L 24.203125 31.507812 C 24.066406 31.507812 23.9375 31.453125 23.84375 31.359375 C 23.75 31.265625 23.695312 31.136719 23.695312 31 L 23.695312 13.628906 C 23.695312 13.347656 23.921875 13.121094 24.203125 13.121094 M 24.203125 13.121094 "/>
<path fill-rule="nonzero" fill="rgb(36.862745%, 62.745098%, 93.72549%)" fill-opacity="1" d="M 1.800781 22.496094 L 5.46875 22.496094 C 5.75 22.496094 5.976562 22.722656 5.976562 23.003906 L 5.976562 31 C 5.976562 31.28125 5.75 31.507812 5.46875 31.507812 L 1.800781 31.507812 C 1.519531 31.507812 1.289062 31.28125 1.289062 31 L 1.289062 23.003906 C 1.289062 22.722656 1.519531 22.496094 1.800781 22.496094 M 1.800781 22.496094 "/>
</svg>
