<svg role="img" viewBox="0 0 32 32" height="32" width="32" xmlns="http://www.w3.org/2000/svg"><defs><linearGradient gradientTransform="matrix(.88889 0 0 -.88889 5808.747 995.538)" gradientUnits="userSpaceOnUse" id="355__354__224__223__472__471__116__115__109__108__474__473__111__110__3__2__33__32__467__466__azure-app-registration_svg__svg/azure-app-registration.svg211__svg/azure-app-registration.svg209__azure-app-registration-lp-0" x1="-6518.78" x2="-6518.78" y1="1118.86" y2="1090.06"><stop offset="0" stop-color="rgb(36.862745%, 62.745098%, 93.72549%)"/><stop offset=".18" stop-color="rgb(34.509804%, 61.960784%, 92.941176%)"/><stop offset=".41" stop-color="rgb(28.235294%, 59.215686%, 91.372549%)"/><stop offset=".66" stop-color="rgb(18.039216%, 54.901961%, 88.235294%)"/><stop offset=".94" stop-color="rgb(3.921569%, 48.627451%, 84.313725%)"/><stop offset="1" stop-color="rgb(0%, 47.058824%, 83.137255%)"/></linearGradient></defs><path d="M10.078 18.863h7.7v7.68h-7.7ZM1.191 8.621h7.7V.941H2.188c-.282 0-.555.11-.754.313-.204.2-.313.469-.313.754Zm1.067 17.922H8.89v-7.68H1.12v6.614c0 .285.11.554.313.753.199.204.468.313.754.313Zm-1.067-8.89h7.7v-7.75H1.12Zm17.918 8.89h6.614c.59 0 1.07-.477 1.07-1.066v-6.614h-7.754Zm-8.886-8.89h7.554v-7.75h-7.699Zm8.886 0h7.559v-7.75h-7.629Zm0-16.641v7.61h7.559V2.007c0-.59-.48-1.067-1.066-1.067Zm-8.886 7.68h7.554V.941h-7.699Zm0 0" fill="url(#355__354__224__223__472__471__116__115__109__108__474__473__111__110__3__2__33__32__467__466__azure-app-registration_svg__svg/azure-app-registration.svg211__svg/azure-app-registration.svg209__azure-app-registration-lp-0)"/><path d="M30.879 19.023v8.016L24 31.06v-8.02Zm0 0" fill="rgb(19.607843%, 74.509804%, 86.666667%)"/><path d="M30.879 19.023 24 23.06l-6.879-4.036L24 15.003Zm0 0" fill="rgb(61.176471%, 92.156863%, 100%)"/><path d="M24 23.059v8l-6.879-4.02v-8.016Zm0 0" fill="rgb(31.372549%, 90.196078%, 100%)"/><path d="m17.121 27.04 6.879-4v8.019Zm0 0" fill="rgb(61.176471%, 92.156863%, 100%)"/><path d="m30.879 27.04-6.879-4v8.019Zm0 0" fill="rgb(31.372549%, 90.196078%, 100%)"/></svg>