<svg role="img" viewBox="0 0 32 32" xmlns="http://www.w3.org/2000/svg"><defs><linearGradient gradientTransform="rotate(.086)scale(1.77778)" gradientUnits="userSpaceOnUse" id="azure-advisor_svg__a" x1="9" x2="9" y1="-.88" y2="16.01"><stop offset=".22" stop-color="rgb(19.607843%, 83.137256%, 96.078432%)"/><stop offset=".43" stop-color="rgb(19.215687%, 81.960785%, 94.901961%)"/><stop offset=".6" stop-color="rgb(17.647059%, 77.64706%, 91.37255%)"/><stop offset=".76" stop-color="rgb(15.686275%, 70.980394%, 85.09804%)"/><stop offset=".91" stop-color="rgb(12.156863%, 61.56863%, 76.862746%)"/><stop offset="1" stop-color="rgb(9.803922%, 54.11765%, 70.19608%)"/></linearGradient></defs><path d="M31.11 16.781a6.84 6.84 0 0 0-5.903-6.648 8.62 8.62 0 0 0-8.797-8.356 8.89 8.89 0 0 0-8.445 5.848 8.144 8.144 0 0 0-7.113 7.93 8.283 8.283 0 0 0 8.515 8.054q.375.024.75 0h13.778q.177.03.355 0a6.93 6.93 0 0 0 6.86-6.828" fill="url(#azure-advisor_svg__a)"/><path d="m25.832 26.914-3.555 3.805a.46.46 0 0 1-.465.113.46.46 0 0 1-.32-.36L19.344 19.98a.46.46 0 0 1 .21-.425l2.348-.961a.466.466 0 0 1 .586.234l3.469 7.645c.047.16 0 .332-.125.441" fill="rgb(21.568628%, 76.078433%, 69.411767%)"/><path d="m14.223 26.914 3.554 3.805a.45.45 0 0 0 .47.113.45.45 0 0 0 .312-.36L20.71 19.98a.46.46 0 0 0-.266-.496l-2.347-.96a.46.46 0 0 0-.586.23l-3.469 7.644a.43.43 0 0 0 .18.516" fill="rgb(25.882354%, 90.980393%, 79.215688%)"/><path d="m20.586 10.668.465-.39a.73.73 0 0 1 1.012.085.7.7 0 0 1 .125.215l.21.57c.13.32.461.508.801.461l.586-.105a.727.727 0 0 1 .836.586q.03.123 0 .246l-.105.59a.74.74 0 0 0 .46.797l.57.199a.746.746 0 0 1 .427.941 1.2 1.2 0 0 1-.125.211l-.391.446a.745.745 0 0 0 0 .925l.39.461a.72.72 0 0 1-.105 1.016.8.8 0 0 1-.195.121l-.57.215a.715.715 0 0 0-.461.8l.105.587a.67.67 0 0 1-.117.535.68.68 0 0 1-.469.28.54.54 0 0 1-.25 0H23.2a.71.71 0 0 0-.8.466l-.212.55a.7.7 0 0 1-.375.407.7.7 0 0 1-.55.02.6.6 0 0 1-.211-.126l-.446-.445a.715.715 0 0 0-.925 0l-.461.375a.713.713 0 0 1-1.016-.09.5.5 0 0 1-.125-.21l-.21-.555a.696.696 0 0 0-.802-.461l-.586.105a.724.724 0 0 1-.835-.832l.105-.59a.7.7 0 0 0-.46-.797l-.552-.215a.75.75 0 0 1-.515-.89c.035-.074.074-.145.125-.211l.39-.465a.74.74 0 0 0 0-.922l-.39-.445a.727.727 0 0 1 .105-1.031.4.4 0 0 1 .215-.106l.55-.215a.744.744 0 0 0 .462-.8l-.035-.532a.727.727 0 0 1 .585-.836h.25l.586.106a.726.726 0 0 0 .801-.461l.211-.586a.734.734 0 0 1 .926-.43l.215.125.46.39a.726.726 0 0 0 .907-.085" fill="rgb(0%, 35.686275%, 63.137257%)"/><path d="M20.14 11.84a4.197 4.197 0 0 0-4.195 4.2 4.193 4.193 0 0 0 4.196 4.19 4.196 4.196 0 0 0 0-8.39" fill="rgb(100%, 79.215688%, 0%)"/></svg>