<svg role="img" viewBox="0 0 32 32" height="32" width="32" xmlns="http://www.w3.org/2000/svg"><defs><linearGradient gradientTransform="rotate(.086)scale(1.77778)" gradientUnits="userSpaceOnUse" id="227__226__89__88__344__343__174__173__251__250__346__345__179__178__428__427__502__501__333__332__azure-firewall_svg__svg/azure-firewall.svg991__svg/azure-firewall.svg989__azure-firewall-lp-0" x1="9" x2="9" y1="14.14" y2="1.38"><stop offset="0" stop-color="rgb(0%, 47.058824%, 83.137255%)"/><stop offset=".82" stop-color="rgb(36.862745%, 62.745098%, 93.72549%)"/></linearGradient></defs><path d="M32 18.027a7.217 7.217 0 0 0-6.238-6.918c-.223-4.949-4.38-8.808-9.336-8.656a9.293 9.293 0 0 0-8.887 6.063A8.572 8.572 0 0 0 0 16.766c.184 4.797 4.215 8.543 9.012 8.37H24.39c.129.012.257.012.39 0A7.285 7.285 0 0 0 32 18.028" fill="url(#227__226__89__88__344__343__174__173__251__250__346__345__179__178__428__427__502__501__333__332__azure-firewall_svg__svg/azure-firewall.svg991__svg/azure-firewall.svg989__azure-firewall-lp-0)"/><path d="M25.406 19.895a.751.751 0 0 0-.75-.73H7.344a.751.751 0 0 0-.75.73v8.886a.75.75 0 0 0 .75.73h17.312a.751.751 0 0 0 .75-.73Zm0 0" fill="rgb(50.980392%, 6.27451%, 6.27451%)"/><path d="M7.645 20.195h5.101v2.258H7.645Zm0 0" fill="rgb(90.196078%, 13.72549%, 13.72549%)"/><path d="M13.512 20.195h5.101v2.258h-5.101Zm0 0" fill="rgb(100%, 45.098039%, 50.588235%)"/><path d="M19.379 20.195h5.101v2.258h-5.1ZM7.645 23.22h2.117v2.258H7.645Zm0 0" fill="rgb(90.196078%, 13.72549%, 13.72549%)"/><path d="M22.363 23.219h2.117v2.258h-2.117Zm-11.84 0h5.102v2.258h-5.102Zm0 0" fill="rgb(100%, 45.098039%, 50.588235%)"/><path d="M16.41 23.219h5.102v2.258H16.41Zm-8.765 3.02h5.101v2.257H7.645Zm0 0" fill="rgb(90.196078%, 13.72549%, 13.72549%)"/><path d="M13.512 26.238h5.101v2.258h-5.101Zm0 0" fill="rgb(100%, 45.098039%, 50.588235%)"/><path d="M19.379 26.238h5.101v2.258h-5.1Zm0 0" fill="rgb(90.196078%, 13.72549%, 13.72549%)"/></svg>