<svg role="img" viewBox="0 0 32 32" height="32" width="32" xmlns="http://www.w3.org/2000/svg"><defs><linearGradient gradientTransform="translate(.617 .617)scale(1.7149)" gradientUnits="userSpaceOnUse" id="161__160__402__401__131__130__417__416__401__400__127__126__317__316__213__212__289__288__131__130__azure-load-balancers_svg__svg/azure-load-balancers.svg579__svg/azure-load-balancers.svg577__azure-load-balancers-lp-0" x1="9" x2="9" y1="19.85" y2="-1.02"><stop offset="0" stop-color="rgb(36.862745%, 58.823529%, 14.117647%)"/><stop offset=".02" stop-color="rgb(37.254902%, 59.215686%, 14.117647%)"/><stop offset="1" stop-color="rgb(46.27451%, 73.72549%, 17.647059%)"/></linearGradient></defs><path d="M.926 15.313 15.313.925a1.03 1.03 0 0 1 1.476 0l14.387 14.387c.199.19.308.46.308.738 0 .277-.109.543-.308.738L16.773 31.195c-.402.39-1.043.39-1.441 0L.926 16.79a1.028 1.028 0 0 1 0-1.477m0 0" fill="url(#161__160__402__401__131__130__417__416__401__400__127__126__317__316__213__212__289__288__131__130__azure-load-balancers_svg__svg/azure-load-balancers.svg579__svg/azure-load-balancers.svg577__azure-load-balancers-lp-0)"/><path d="m19.824 7.477-3.637-3.618a.204.204 0 0 0-.273 0l-3.637 3.618a.178.178 0 0 0-.058.21.17.17 0 0 0 .195.098h2.129c.105 0 .187.086.187.188v3.43c0 .05.02.097.055.136a.186.186 0 0 0 .133.055h2.266c.05 0 .097-.02.132-.059a.186.186 0 0 0 .055-.133v-3.43c0-.105.086-.187.192-.187h2.125c.082.02.164-.02.199-.098a.182.182 0 0 0-.063-.21M7.477 11.953l-3.602 3.652a.192.192 0 0 0 0 .258l3.602 3.617a.2.2 0 0 0 .21.047.207.207 0 0 0 .118-.183v-2.11c0-.105.082-.187.187-.187h3.43c.047 0 .094-.02.129-.055a.188.188 0 0 0 .043-.133v-2.265a.178.178 0 0 0 .008-.16.174.174 0 0 0-.13-.098H8.044a.188.188 0 0 1-.133-.043.17.17 0 0 1-.055-.129V12.09a.188.188 0 0 0-.003-.152.185.185 0 0 0-.118-.106.206.206 0 0 0-.257.121m17.285 7.527 3.652-3.636a.18.18 0 0 0 0-.254l-3.652-3.637a.187.187 0 0 0-.196-.027.21.21 0 0 0-.113.164v2.144c0 .047-.02.094-.055.13a.177.177 0 0 1-.132.042h-3.43a.184.184 0 0 0-.129.055.182.182 0 0 0-.043.133v2.265a.2.2 0 0 0 .047.13.172.172 0 0 0 .125.058h3.43c.105 0 .187.082.187.187v2.125c.008.07.055.13.121.153a.174.174 0 0 0 .188-.032m0 0" fill="rgb(70.588235%, 92.54902%, 21.176471%)"/><path d="M20.836 16.05a4.782 4.782 0 0 0-4.332-4.792 4.78 4.78 0 0 0-5.156 3.89 4.781 4.781 0 0 0 3.418 5.48v1.63a2.933 2.933 0 1 0 2.691 0v-1.715a4.746 4.746 0 0 0 3.379-4.492m0 0" fill="rgb(100%, 100%, 100%)"/><path d="M18.848 16.035a2.77 2.77 0 0 1-2.778 2.727 2.781 2.781 0 0 1-2.78-2.727 2.781 2.781 0 0 1 2.78-2.726c1.512 0 2.75 1.21 2.778 2.726m0 0" fill="rgb(36.862745%, 62.745098%, 93.72549%)"/></svg>