<svg role="img" viewBox="0 0 32 32" height="32" width="32" xmlns="http://www.w3.org/2000/svg"><defs><linearGradient gradientTransform="rotate(.086)scale(1.77778)" gradientUnits="userSpaceOnUse" id="16__14__493__491__222__220__506__504__492__490__152__150__406__404__302__300__380__378__220__218__azure-image_svg__svg/azure-image.svg761__svg/azure-image.svg757__azure-image-lp-0" x1="8.8" x2="8.8" y1="12.87" y2=".87"><stop offset="0" stop-color="rgb(0%, 47.058824%, 83.137255%)"/><stop offset=".82" stop-color="rgb(36.862745%, 62.745098%, 93.72549%)"/></linearGradient><linearGradient gradientTransform="rotate(.086)scale(1.77778)" gradientUnits="userSpaceOnUse" id="17__15__494__492__223__221__507__505__493__491__153__151__407__405__303__301__381__379__221__219__azure-image_svg__svg/azure-image.svg763__svg/azure-image.svg759__azure-image-lp-1" x1="8.81" x2="8.81" y1="17.5" y2="12.87"><stop offset="0" stop-color="rgb(7.843137%, 56.470588%, 87.45098%)"/><stop offset=".98" stop-color="rgb(12.156863%, 33.72549%, 63.921569%)"/></linearGradient></defs><path d="M.71 1.547h29.868c.59 0 1.067.476 1.067 1.066v19.2c0 .285-.11.554-.313.753-.2.204-.473.313-.754.313H.711a1.075 1.075 0 0 1-1.066-1.067V2.613A1.073 1.073 0 0 1 .71 1.547m0 0" fill="url(#16__14__493__491__222__220__506__504__492__490__152__150__406__404__302__300__380__378__220__218__azure-image_svg__svg/azure-image.svg761__svg/azure-image.svg757__azure-image-lp-0)"/><path d="M20.977 9.102v6.207l-5.332 3.129v-6.223Zm0 0" fill="rgb(31.372549%, 90.196078%, 100%)"/><path d="m20.977 9.102-5.313 3.128-5.351-3.128 5.351-3.11Zm0 0" fill="rgb(76.470588%, 94.509804%, 100%)"/><path d="M15.645 12.23v6.208l-5.332-3.13V9.103Zm0 0" fill="rgb(61.176471%, 92.156863%, 100%)"/><path d="m10.313 15.309 5.332-3.094v6.223Zm0 0" fill="rgb(76.470588%, 94.509804%, 100%)"/><path d="m20.977 15.309-5.332-3.094v6.223Zm0 0" fill="rgb(61.176471%, 92.156863%, 100%)"/><path d="M22.063 29.332c-3.165-.496-3.29-2.773-3.27-6.453h-6.348c0 3.68 0 5.957-3.218 6.453-.899.11-1.57.875-1.563 1.777h16a1.892 1.892 0 0 0-1.602-1.777" fill="url(#17__15__494__492__223__221__507__505__493__491__153__151__407__405__303__301__381__379__221__219__azure-image_svg__svg/azure-image.svg763__svg/azure-image.svg759__azure-image-lp-1)"/><path d="M8.32 3.68H3.43c-.649 0-1.172.527-1.172 1.172v4.91c0 .324.262.586.586.586h.39a.585.585 0 0 0 .586-.586V5.227h4.5a.587.587 0 0 0 .57-.586v-.375a.592.592 0 0 0-.57-.586m0 15.394H3.805v-4.496a.585.585 0 0 0-.586-.586h-.375a.585.585 0 0 0-.586.586v4.977a1.19 1.19 0 0 0 .336.843c.222.223.523.348.836.348h4.89a.597.597 0 0 0 .438-.219.61.61 0 0 0 .133-.472v-.39a.59.59 0 0 0-.57-.59M27.93 3.734h-4.82a.585.585 0 0 0-.586.586v.37a.591.591 0 0 0 .152.454c.113.12.27.19.433.187h4.5v4.465a.585.585 0 0 0 .586.586h.41a.585.585 0 0 0 .586-.586v-4.89a1.18 1.18 0 0 0-.375-.864 1.161 1.161 0 0 0-.886-.309m.605 10.293h-.375a.56.56 0 0 0-.418.168.59.59 0 0 0-.168.418v4.516H23.11a.585.585 0 0 0-.586.586v.39a.585.585 0 0 0 .586.586H28c.652.004 1.18-.52 1.191-1.171v-4.907a.57.57 0 0 0-.195-.445.567.567 0 0 0-.46-.14" fill="rgb(100%, 100%, 100%)"/></svg>