<svg role="img" viewBox="0 0 32 32" xmlns="http://www.w3.org/2000/svg"><defs><linearGradient gradientTransform="translate(-.29 -.29)scale(1.81715)" gradientUnits="userSpaceOnUse" id="azure-log-analytics_svg__a" x1="5.23" x2="5.23" y1="17.45" y2="8.09"><stop offset="0" stop-color="rgb(9.803922%, 53.333336%, 85.09804%)"/><stop offset=".9" stop-color="rgb(32.941177%, 68.235296%, 94.117647%)"/></linearGradient><linearGradient gradientTransform="translate(-.29 -.29)scale(1.81715)" gradientUnits="userSpaceOnUse" id="azure-log-analytics_svg__b" x1="11.5" x2="11.5" y1="12.45" y2=".55"><stop offset="0" stop-color="rgb(9.803922%, 54.11765%, 70.19608%)"/><stop offset=".01" stop-color="rgb(9.803922%, 54.509807%, 70.588237%)"/><stop offset=".44" stop-color="rgb(15.294118%, 69.803923%, 84.313726%)"/><stop offset=".79" stop-color="rgb(18.431373%, 79.607844%, 92.941177%)"/><stop offset="1" stop-color="rgb(19.607843%, 83.137256%, 96.078432%)"/></linearGradient></defs><path d="M9.867 23.57h7.852v7.848H9.867Zm-8.066 7.848h6.758V23.57H.707v6.758c0 .602.488 1.09 1.094 1.09M.707 22.332h7.852V14.41H.707Zm0 0" fill="url(#azure-log-analytics_svg__a)"/><path d="M20.605.707a10.71 10.71 0 0 1 10.813 10.906 10.7 10.7 0 0 1-10.813 10.809H9.793V11.52A10.71 10.71 0 0 1 20.605.707m0 0" fill="url(#azure-log-analytics_svg__b)" fill-rule="evenodd"/><path d="M13.5 9.977h2.473v7.414H13.5Zm4.945 2.472h2.47v4.942h-2.47Zm4.942-4.945h2.472v9.887h-2.472Zm0 0" fill="rgb(100%, 100%, 100%)"/></svg>