<svg role="img" viewBox="0 0 32 32" xmlns="http://www.w3.org/2000/svg"><defs><clipPath id="azure-cosmos_svg__b"><path d="M5 8.375h21.75v15H5Zm0 0"/></clipPath><clipPath id="azure-cosmos_svg__c"><path d="M26.613 13.387c1.399 5.86-2.218 11.746-8.078 13.148-5.86 1.399-11.746-2.219-13.148-8.078-1.399-5.86 2.218-11.746 8.078-13.148 5.86-1.399 11.746 2.218 13.148 8.078"/></clipPath><radialGradient cx="-105.006" cy="-10.409" fx="-105.006" fy="-10.409" gradientTransform="matrix(1.84178 0 0 1.82578 209.314 34.923)" gradientUnits="userSpaceOnUse" id="azure-cosmos_svg__a" r="5.954"><stop offset=".183" stop-color="rgb(36.862746%, 62.7451%, 93.725491%)"/><stop offset="1" stop-color="rgb(0%, 47.058824%, 83.137256%)"/></radialGradient></defs><path d="M5.25 9.363a.3.3 0 0 1-.219-.093.3.3 0 0 1-.093-.22 3.575 3.575 0 0 0-3.57-3.573.311.311 0 1 1 0-.625 3.57 3.57 0 0 0 3.57-3.57.313.313 0 0 1 .312-.313.3.3 0 0 1 .223.09.3.3 0 0 1 .09.222 3.58 3.58 0 0 0 3.574 3.57c.082 0 .164.032.222.09.059.059.09.141.09.223a.32.32 0 0 1-.09.223.32.32 0 0 1-.222.09A3.58 3.58 0 0 0 5.562 9.05c0 .172-.14.312-.312.312M27.754 31.03a.25.25 0 0 1-.25-.25 2.86 2.86 0 0 0-2.86-2.855.254.254 0 0 1-.25-.25c0-.137.114-.25.25-.25a2.86 2.86 0 0 0 2.86-2.856.25.25 0 1 1 .5 0 2.857 2.857 0 0 0 2.855 2.856c.141 0 .25.113.25.25 0 .14-.109.25-.25.25a2.86 2.86 0 0 0-2.855 2.86.25.25 0 0 1-.074.175.26.26 0 0 1-.176.07" fill="rgb(31.37255%, 90.196079%, 100%)"/><path d="M26.613 13.387c1.399 5.86-2.218 11.746-8.078 13.148-5.86 1.399-11.746-2.219-13.148-8.078-1.399-5.86 2.218-11.746 8.078-13.148 5.86-1.399 11.746 2.218 13.148 8.078" fill="url(#azure-cosmos_svg__a)"/><g clip-path="url(#azure-cosmos_svg__b)"><g clip-path="url(#azure-cosmos_svg__c)"><path d="M10.148 23.316a2.92 2.92 0 0 0 2.586-1.43 2.917 2.917 0 0 0-2.574-4.394q.012-.123.012-.246a2.934 2.934 0 0 0-2.953-2.91H5.035a11.1 11.1 0 0 0 2.836 8.98Zm16.598-9.421c0-.028 0-.055-.012-.079a10.6 10.6 0 0 0-2.5-5.12 4 4 0 0 0-.511-.16 3.23 3.23 0 0 0-2.766.484 3.21 3.21 0 0 0-1.324 2.472 3 3 0 0 0-.356-.023 3.086 3.086 0 0 0-3.043 2.562 3.08 3.08 0 0 0 2.008 3.434c.309.12.633.183.965.18h3.605a24 24 0 0 0 3.934-3.75" fill="rgb(94.901961%, 94.901961%, 94.901961%)"/></g></g><path d="M30.563 6.813c-1.118-1.864-3.735-2.586-7.387-2.043a25.5 25.5 0 0 0-3.703.804c.965.332 1.879.79 2.718 1.364.426-.094.86-.208 1.27-.27a13 13 0 0 1 1.96-.156A3.87 3.87 0 0 1 28.907 7.8c.68 1.133.106 3.07-1.578 5.332a29.7 29.7 0 0 1-8.441 7.203 29.8 29.8 0 0 1-10.352 4.02c-2.781.417-4.77 0-5.45-1.13-.683-1.132-.108-3.078 1.575-5.324.207-.28.258-.418.496-.699a11 11 0 0 1 .047-2.898 20 20 0 0 0-2.082 2.441C.918 19.691.321 22.34 1.438 24.2a5.63 5.63 0 0 0 5.156 2.223c.746 0 1.488-.063 2.222-.18a31.6 31.6 0 0 0 11.059-4.265 31.6 31.6 0 0 0 8.996-7.7c2.211-2.953 2.809-5.601 1.692-7.464" fill="rgb(31.37255%, 90.196079%, 100%)"/></svg>