<svg role="img" viewBox="0 0 32 32" height="32" width="32" xmlns="http://www.w3.org/2000/svg"><defs><linearGradient gradientTransform="translate(-.288 -.18)scale(1.80282)" gradientUnits="userSpaceOnUse" id="223__222__111__110__362__361__164__163__269__268__364__363__159__158__442__441__520__519__355__354__azure-sql-server_svg__svg/azure-sql-server.svg1027__svg/azure-sql-server.svg1025__azure-sql-server-lp-0" x1=".5" x2="13.18" y1="10.04" y2="10.04"><stop offset="0" stop-color="rgb(0%, 35.686275%, 63.137255%)"/><stop offset=".07" stop-color="rgb(0%, 37.647059%, 66.27451%)"/><stop offset=".36" stop-color="rgb(0%, 44.313725%, 78.431373%)"/><stop offset=".52" stop-color="rgb(0%, 47.058824%, 83.137255%)"/><stop offset=".64" stop-color="rgb(0%, 45.490196%, 80.392157%)"/><stop offset=".82" stop-color="rgb(0%, 41.568627%, 73.333333%)"/><stop offset="1" stop-color="rgb(0%, 35.686275%, 63.137255%)"/></linearGradient></defs><path d="M12.043 8.996C5.734 8.996.613 7.191.613 4.848v22.015c0 2.27 5.032 4.11 11.266 4.145h.164c6.309 0 11.43-1.801 11.43-4.145V4.848c0 2.293-5.121 4.148-11.43 4.148m0 0" fill="url(#223__222__111__110__362__361__164__163__269__268__364__363__159__158__442__441__520__519__355__354__azure-sql-server_svg__svg/azure-sql-server.svg1027__svg/azure-sql-server.svg1025__azure-sql-server-lp-0)"/><path d="M23.473 4.848c0 2.293-5.121 4.148-11.43 4.148-6.309 0-11.43-1.855-11.43-4.148 0-2.29 5.121-4.145 11.43-4.145 6.309 0 11.43 1.805 11.43 4.145" fill="rgb(90.980392%, 90.980392%, 90.980392%)"/><path d="M20.805 4.508c0 1.46-3.93 2.633-8.762 2.633-4.832 0-8.727-1.172-8.727-2.633s3.895-2.633 8.727-2.633c4.832 0 8.762 1.191 8.762 2.633" fill="rgb(31.372549%, 90.196078%, 100%)"/><path d="M12.043 5.121a21.43 21.43 0 0 0-6.922.992 20.336 20.336 0 0 0 6.942 1.028A20.3 20.3 0 0 0 19 6.113a21.43 21.43 0 0 0-6.957-.992m0 0" fill="rgb(9.803922%, 54.117647%, 70.196078%)"/><path d="M19.074 19.832v-6.094h-1.676V21.2h4.434v-1.367ZM6.184 16.82a3.401 3.401 0 0 1-.918-.558.782.782 0 0 1-.145-.578c0-.223.106-.43.29-.559.222-.14.487-.21.753-.2a3.067 3.067 0 0 1 1.805.524V13.9a4.982 4.982 0 0 0-1.805-.29 3.154 3.154 0 0 0-2.16.633 2.033 2.033 0 0 0-.742 1.621c0 .922.578 1.64 1.804 2.184.391.168.762.387 1.098.648a.72.72 0 0 1 .29.578.663.663 0 0 1-.29.559c-.238.156-.523.23-.809.215a2.853 2.853 0 0 1-2.039-.813v1.68a4.077 4.077 0 0 0 1.93.414 3.602 3.602 0 0 0 2.129-.578c.512-.39.8-1.012.773-1.656a1.84 1.84 0 0 0-.449-1.266 4.403 4.403 0 0 0-1.515-1.008m9.375 2.832a4.336 4.336 0 0 0 .593-2.293 4.195 4.195 0 0 0-.449-1.98 3.263 3.263 0 0 0-1.262-1.352 3.607 3.607 0 0 0-1.804-.468 4.055 4.055 0 0 0-1.965.484 3.42 3.42 0 0 0-1.317 1.39 4.373 4.373 0 0 0-.468 2.07c-.008.657.14 1.31.433 1.895.274.559.7 1.028 1.227 1.352a3.575 3.575 0 0 0 1.8.523l1.536 1.801h2.144l-2.164-2a3.261 3.261 0 0 0 1.696-1.422m-1.676-.468a1.806 1.806 0 0 1-2.758 0 2.752 2.752 0 0 1-.508-1.805 2.71 2.71 0 0 1 .524-1.8 1.664 1.664 0 0 1 1.406-.669 1.605 1.605 0 0 1 1.351.668c.356.531.528 1.164.489 1.8.07.661-.11 1.325-.504 1.856Zm0 0" fill="rgb(94.901961%, 94.901961%, 94.901961%)"/><path d="m26.41 31.352.434-1.426.847-.485 1.461.649.938-.957v-.11l-.668-1.277.398-.902 1.457-.524h.164v-1.316h-.18l-1.44-.43-.47-.832.63-1.476-.958-.922h-.105l-1.281.652-.883-.543-.578-1.605h-1.332v.199l-.434 1.426-.918.394-1.57-.719-.918.954.09.18.683 1.335-.359.918-1.695.524v1.336h.199l1.422.43.398.921-.703 1.55.957.938.16-.09 1.336-.687.918.363.613 1.602h1.317Zm-2.164-4.254a1.922 1.922 0 0 1 .813-3.254 1.92 1.92 0 1 1-.812 3.254m0 0" fill="rgb(58.039216%, 58.039216%, 58.039216%)"/></svg>