<svg role="img" viewBox="0 0 26.409 32" height="32" width="26.409" xmlns="http://www.w3.org/2000/svg"><path d="M25.879 15.023c0 8.301-10.035 14.989-12.211 16.344a.8.8 0 0 1-.824 0C10.668 30.012.633 23.324.633 15.023v-9.98a.79.79 0 0 1 .773-.79C9.211 4.048 7.41.618 13.258.618c5.847 0 4.047 3.43 11.847 3.637.43.012.774.363.774.789Zm0 0" fill="rgb(0%, 47.058824%, 83.137255%)"/><path d="M24.832 15.11c0 7.613-9.191 13.718-11.2 14.988a.744.744 0 0 1-.753 0c-2.008-1.235-11.2-7.375-11.2-14.989V5.95c0-.39.313-.71.704-.719 7.152-.187 5.504-3.328 10.875-3.328 5.367 0 3.719 3.141 10.87 3.328a.72.72 0 0 1 .704.72Zm0 0" fill="rgb(41.960784%, 72.54902%, 94.901961%)"/><path d="M13.258 16.05V1.903c5.367 0 3.719 3.141 10.87 3.328a.74.74 0 0 1 .704.739v9.156c.016.309.016.617 0 .926Zm0 0H1.73c.688 7.169 9.227 12.864 11.149 14.048.094.058.2.093.309.101h.07Zm0 0" fill="url(#387__386__244__243__azure-acl-lp-0)"/><path d="M2.383 5.23c7.152-.187 5.504-3.328 10.875-3.328v14.149H1.73a9.148 9.148 0 0 1 0-.926V5.969c0-.375.282-.696.653-.739M24.78 16.05H13.258V30.2a.672.672 0 0 0 .308-.102c1.989-1.184 10.528-6.88 11.215-14.047m0 0" fill="rgb(31.372549%, 90.196078%, 100%)"/></svg>