<svg role="img" viewBox="0 0 32 32" xmlns="http://www.w3.org/2000/svg"><defs><linearGradient gradientTransform="rotate(.086)scale(1.77778)" gradientUnits="userSpaceOnUse" id="azure-storage_svg__a" x1="9" x2="9" y1="15.83" y2="5.79"><stop offset="0" stop-color="rgb(70.19608%, 70.19608%, 70.19608%)"/><stop offset=".26" stop-color="rgb(75.686276%, 75.686276%, 75.686276%)"/><stop offset="1" stop-color="rgb(90.196079%, 90.196079%, 90.196079%)"/></linearGradient></defs><path d="M.89 10.293h30.22v16.855c0 .559-.454 1.012-1.012 1.012H1.902a1.01 1.01 0 0 1-1.011-1.012Zm0 0" fill="url(#azure-storage_svg__a)"/><path d="M1.902 3.86h28.196c.558 0 1.011.453 1.011 1.011v5.422H.891V4.852a1.01 1.01 0 0 1 1.011-.993" fill="rgb(21.568628%, 76.078433%, 69.411767%)"/><path d="M4.996 12.25h21.992a.476.476 0 0 1 .461.48v2.489a.48.48 0 0 1-.46.48H4.995a.48.48 0 0 1-.46-.48V12.73a.476.476 0 0 1 .46-.48" fill="rgb(100%, 100%, 100%)"/><path d="M5.012 17.207h21.992a.48.48 0 0 1 .46.48v2.508a.48.48 0 0 1-.46.48H5.012a.48.48 0 0 1-.461-.48v-2.418a.5.5 0 0 1 .097-.39.5.5 0 0 1 .364-.18" fill="rgb(21.568628%, 76.078433%, 69.411767%)"/><path d="M5.012 22.223h21.992c.258.007.46.222.46.48v2.504a.476.476 0 0 1-.46.48H5.012a.476.476 0 0 1-.461-.48v-2.504c0-.258.203-.473.46-.48" fill="rgb(14.509805%, 50.980395%, 46.666667%)"/></svg>