<svg role="img" viewBox="0 0 32 32" height="32" width="32" xmlns="http://www.w3.org/2000/svg"><defs><linearGradient gradientTransform="rotate(.086)scale(1.77778)" gradientUnits="userSpaceOnUse" id="1406__1403__437__434__282__279__17__14__286__283__281__278__11__8__201__198__99__96__175__172__17__14__azure-redis_svg__svg/azure-redis.svg339__svg/azure-redis.svg333__azure-redis-lp-0" x1="9.5" x2="17.5" y1="7.37" y2="7.37"><stop offset="0" stop-color="rgb(0%, 35.686275%, 63.137255%)"/><stop offset=".07" stop-color="rgb(0%, 37.647059%, 66.27451%)"/><stop offset=".36" stop-color="rgb(0%, 44.313725%, 78.431373%)"/><stop offset=".52" stop-color="rgb(0%, 47.058824%, 83.137255%)"/><stop offset="1" stop-color="rgb(0%, 35.686275%, 63.137255%)"/></linearGradient><linearGradient gradientTransform="rotate(.086)scale(1.77778)" gradientUnits="userSpaceOnUse" id="1407__1404__438__435__283__280__18__15__287__284__282__279__12__9__202__199__100__97__176__173__18__15__azure-redis_svg__svg/azure-redis.svg341__svg/azure-redis.svg335__azure-redis-lp-1" x1=".5" x2="8.5" y1="7.37" y2="7.37"><stop offset="0" stop-color="rgb(0%, 35.686275%, 63.137255%)"/><stop offset=".07" stop-color="rgb(0%, 37.647059%, 66.27451%)"/><stop offset=".36" stop-color="rgb(0%, 44.313725%, 78.431373%)"/><stop offset=".52" stop-color="rgb(0%, 47.058824%, 83.137255%)"/><stop offset="1" stop-color="rgb(0%, 35.686275%, 63.137255%)"/></linearGradient><linearGradient gradientTransform="rotate(.086)scale(1.77778)" gradientUnits="userSpaceOnUse" id="1408__1405__439__436__284__281__19__16__288__285__283__280__13__10__203__200__101__98__177__174__19__16__azure-redis_svg__svg/azure-redis.svg343__svg/azure-redis.svg337__azure-redis-lp-2" x1="5" x2="13" y1="11.9" y2="11.9"><stop offset="0" stop-color="rgb(0%, 35.686275%, 63.137255%)"/><stop offset=".07" stop-color="rgb(0%, 37.647059%, 66.27451%)"/><stop offset=".36" stop-color="rgb(0%, 44.313725%, 78.431373%)"/><stop offset=".52" stop-color="rgb(0%, 47.058824%, 83.137255%)"/><stop offset="1" stop-color="rgb(0%, 35.686275%, 63.137255%)"/></linearGradient></defs><path d="M24 8.215c-3.93 0-7.11-1.016-7.11-2.277v12.07c0 1.226 3.13 2.242 7.02 2.258H24c3.93 0 7.11-1.012 7.11-2.258V5.938c0 1.261-3.18 2.277-7.11 2.277" fill="url(#1406__1403__437__434__282__279__17__14__286__283__281__278__11__8__201__198__99__96__175__172__17__14__azure-redis_svg__svg/azure-redis.svg339__svg/azure-redis.svg333__azure-redis-lp-0)"/><path d="M31.11 5.938c0 1.261-3.18 2.277-7.11 2.277s-7.11-1.016-7.11-2.277c0-1.262 3.18-2.258 7.11-2.258s7.11 1.011 7.11 2.258" fill="rgb(90.980392%, 90.980392%, 90.980392%)"/><path d="M29.457 5.762c0 .797-2.453 1.437-5.457 1.437s-5.457-.64-5.457-1.437c0-.801 2.453-1.442 5.457-1.442s5.457.64 5.457 1.442" fill="rgb(31.372549%, 90.196078%, 100%)"/><path d="M24 6.098a15.363 15.363 0 0 0-4.32.535 13.94 13.94 0 0 0 4.32.566 13.91 13.91 0 0 0 4.32-.566A15.363 15.363 0 0 0 24 6.098" fill="rgb(19.607843%, 74.509804%, 86.666667%)"/><path d="M8 8.215C4.07 8.215.89 7.199.89 5.938v12.07c0 1.226 3.13 2.242 7.11 2.258 3.93 0 7.11-1.012 7.11-2.258V5.938c0 1.261-3.18 2.277-7.11 2.277" fill="url(#1407__1404__438__435__283__280__18__15__287__284__282__279__12__9__202__199__100__97__176__173__18__15__azure-redis_svg__svg/azure-redis.svg341__svg/azure-redis.svg335__azure-redis-lp-1)"/><path d="M15.11 5.938c0 1.261-3.18 2.277-7.11 2.277S.89 7.199.89 5.938C.89 4.676 4.07 3.68 8 3.68s7.11 1.011 7.11 2.258" fill="rgb(90.980392%, 90.980392%, 90.980392%)"/><path d="M13.457 5.762c0 .797-2.453 1.437-5.457 1.437s-5.457-.64-5.457-1.437C2.543 4.96 4.996 4.32 8 4.32s5.457.64 5.457 1.442" fill="rgb(31.372549%, 90.196078%, 100%)"/><path d="M8 6.098a15.363 15.363 0 0 0-4.32.535A13.94 13.94 0 0 0 8 7.199a13.91 13.91 0 0 0 4.32-.566A15.363 15.363 0 0 0 8 6.098" fill="rgb(19.607843%, 74.509804%, 86.666667%)"/><path d="M16 16.266c-3.93 0-7.11-1.012-7.11-2.274v12.07c0 1.247 3.13 2.239 7.02 2.258H16c3.93 0 7.11-1.011 7.11-2.258v-12.07c0 1.262-3.18 2.274-7.11 2.274" fill="url(#1408__1405__439__436__284__281__19__16__288__285__283__280__13__10__203__200__101__98__177__174__19__16__azure-redis_svg__svg/azure-redis.svg343__svg/azure-redis.svg337__azure-redis-lp-2)"/><path d="M23.11 13.992c0 1.262-3.18 2.274-7.11 2.274s-7.11-1.012-7.11-2.274 3.18-2.258 7.11-2.258 7.11 1.012 7.11 2.258" fill="rgb(90.980392%, 90.980392%, 90.980392%)"/><path d="M21.457 13.813c0 .8-2.453 1.44-5.457 1.44s-5.457-.64-5.457-1.44c0-.801 2.453-1.368 5.457-1.368s5.457.64 5.457 1.438" fill="rgb(31.372549%, 90.196078%, 100%)"/><path d="M16 14.223a15.521 15.521 0 0 0-4.32.53c1.406.395 2.863.563 4.32.5 1.46.04 2.918-.151 4.32-.57a15.48 15.48 0 0 0-4.32-.46" fill="rgb(19.607843%, 74.509804%, 86.666667%)"/></svg>