<svg role="img" viewBox="0 0 37.25 32" height="32" width="37.25" xmlns="http://www.w3.org/2000/svg"><path d="M36.652 18.215a8.07 8.07 0 0 0-7.007-7.758C29.402 4.891 24.73.555 19.165.727a10.428 10.428 0 0 0-9.981 6.8 9.632 9.632 0 0 0-8.465 9.27c.207 5.383 4.73 9.586 10.117 9.394.3 0 .598-.011.89-.035H28.11a1.8 1.8 0 0 0 .434-.066 8.175 8.175 0 0 0 8.11-7.875m0 0" fill="url(#353__352__222__221__220__azure-service-bus-lp-0)"/><path d="M24.809 21.672h-12.7a.553.553 0 0 0-.562.539v3.457a.553.553 0 0 0 .562.539h12.7c.3.004.55-.238.558-.539v-3.457a.554.554 0 0 0-.558-.54m0 0" fill="rgb(19.607843%, 74.509804%, 86.666667%)"/><path d="M24.809 26.879h-12.7a.553.553 0 0 0-.562.539v3.457a.558.558 0 0 0 .168.387c.105.101.25.156.394.152h12.7a.541.541 0 0 0 .394-.152.571.571 0 0 0 .164-.387v-3.457a.554.554 0 0 0-.558-.54m0 0" fill="rgb(9.803922%, 54.117647%, 70.196078%)"/><path d="M23.215 22.52h.746c.078 0 .144.066.144.144v.711a.14.14 0 0 1-.136.137h-.758a.154.154 0 0 1-.098-.04.154.154 0 0 1-.039-.097v-.719c0-.074.067-.136.14-.136m-.003 1.71h.754c.035 0 .07.016.098.04a.142.142 0 0 1 .042.101v.707a.143.143 0 0 1-.14.145h-.75a.143.143 0 0 1-.14-.145v-.71c0-.04.01-.075.038-.098a.112.112 0 0 1 .098-.04m.043 3.473h.75c.082 0 .144.063.144.145v.707a.15.15 0 0 1-.136.14h-.75a.142.142 0 0 1-.102-.043.142.142 0 0 1-.043-.101v-.703a.122.122 0 0 1 .035-.102.142.142 0 0 1 .102-.043m0 1.707h.75c.082 0 .144.067.144.145v.71a.144.144 0 0 1-.136.137h-.758a.138.138 0 0 1-.137-.136v-.72c0-.073.063-.136.137-.136m0 0" fill="rgb(70.588235%, 92.54902%, 21.176471%)"/><path d="M24.688 16.055H11.992a.548.548 0 0 0-.394.156.542.542 0 0 0-.168.387v3.465a.558.558 0 0 0 .168.386.542.542 0 0 0 .39.153h12.7a.545.545 0 0 0 .562-.54v-3.464a.556.556 0 0 0-.562-.543m0 0" fill="rgb(31.372549%, 90.196078%, 100%)"/><path d="M23.094 16.906h.75c.078 0 .144.063.144.145v.71a.14.14 0 0 1-.14.137h-.75a.142.142 0 0 1-.102-.043.142.142 0 0 1-.043-.101v-.711c0-.035.016-.07.04-.098a.156.156 0 0 1 .1-.039m0 1.707h.75c.079 0 .145.067.145.145v.707a.15.15 0 0 1-.14.137h-.754a.145.145 0 0 1-.14-.137v-.719a.141.141 0 0 1 .14-.133m.851-5.738-4.851 4.852a.562.562 0 0 1-.41.18.56.56 0 0 1-.407-.18l-4.851-4.852a.251.251 0 0 1-.055-.281.255.255 0 0 1 .238-.16h2.98a.274.274 0 0 0 .184-.075.267.267 0 0 0 .075-.183V6.117a.2.2 0 0 1 .199-.199h3.265c.114 0 .2.09.2.2v6.062c0 .14.117.258.258.258h2.984a.25.25 0 0 1 .242.156.251.251 0 0 1-.05.281m0 0" fill="rgb(100%, 100%, 100%)"/></svg>