<svg role="img" viewBox="0 0 32 32" height="32" width="32" xmlns="http://www.w3.org/2000/svg"><defs><linearGradient gradientTransform="scale(1.77778)" gradientUnits="userSpaceOnUse" id="1__0__linear-pattern-0" x1="9" x2="9" y1="16.21" y2=".62"><stop offset="0" stop-color="rgb(10.588235%, 57.647059%, 92.156863%)"/><stop offset=".21" stop-color="rgb(12.54902%, 58.431373%, 92.156863%)"/><stop offset=".44" stop-color="rgb(18.039216%, 61.176471%, 92.941176%)"/><stop offset=".69" stop-color="rgb(27.058824%, 65.490196%, 93.72549%)"/><stop offset=".95" stop-color="rgb(39.215686%, 71.372549%, 94.509804%)"/><stop offset="1" stop-color="rgb(41.960784%, 72.54902%, 94.901961%)"/></linearGradient></defs><path d="M28.445 15.004c0 8.125-9.832 14.668-11.965 16-.25.16-.57.16-.816 0-2.207-1.332-12.11-7.895-12.11-16V5.227a.78.78 0 0 1 .766-.782C12.035 4.25 10.277.891 16 .891s3.965 3.359 11.61 3.554a.78.78 0 0 1 .765.782Zm0 0" fill="rgb(10.588235%, 57.647059%, 92.156863%)"/><path d="M27.344 15.074c0 7.469-9.016 13.461-10.969 14.668a.72.72 0 0 1-.75 0c-1.953-1.207-10.969-7.199-10.969-14.668V6.188a.732.732 0 0 1 .676-.856C12.336 5.137 10.668 2.078 16 2.078s3.645 3.129 10.668 3.254a.73.73 0 0 1 .691.711Zm0 0" fill="url(#1__0__linear-pattern-0)"/><path d="M16 11.61A5.12 5.12 0 0 1 21.05 16a.87.87 0 0 0 .872.71h2.488a.86.86 0 0 0 .652-.273.86.86 0 0 0 .235-.667A9.35 9.35 0 0 0 16 7.414a9.35 9.35 0 0 0-9.297 8.356.86.86 0 0 0 .234.668.86.86 0 0 0 .653.273h2.488A.87.87 0 0 0 10.95 16 5.12 5.12 0 0 1 16 11.61m0 0" fill="rgb(76.470588%, 94.509804%, 100%)"/><path d="M19.395 16.71a3.394 3.394 0 1 1-6.789.002 3.394 3.394 0 0 1 6.789-.001m0 0" fill="rgb(100%, 100%, 100%)"/></svg>