<svg role="img" viewBox="0 0 32 32" height="32" width="32" xmlns="http://www.w3.org/2000/svg"><defs><clipPath id="26__13__0__clip-0"><path d="M0 0h32v32H0z"/></clipPath><clipPath id="27__14__1__clip-1"><path d="M0 0h32v32H0z"/></clipPath><clipPath id="28__15__2__clip-2"><path d="M0 0h32v32H0z"/></clipPath><clipPath id="29__16__3__clip-3"><path d="M0 0h32v32H0z"/></clipPath><mask id="30__17__4__mask-0"><g filter="url(#31__18__5__filter-remove-color)"><path d="M-3.2-3.2h38.4v38.4H-3.2z" fill-opacity=".5"/></g></mask><mask id="32__19__6__mask-1"><g filter="url(#31__18__5__filter-remove-color)"><path d="M-3.2-3.2h38.4v38.4H-3.2z" fill-opacity=".5"/></g></mask><mask id="33__20__7__mask-2"><g filter="url(#31__18__5__filter-remove-color)"><path d="M-3.2-3.2h38.4v38.4H-3.2z" fill-opacity=".5"/></g></mask><mask id="34__21__8__mask-3"><g filter="url(#31__18__5__filter-remove-color)"><path d="M-3.2-3.2h38.4v38.4H-3.2z" fill-opacity=".5"/></g></mask><g clip-path="url(#26__13__0__clip-0)" id="35__22__9__source-10"><path d="M1.902 2.684h2.293v6.402c0 .285-.23.516-.515.516H1.406a.515.515 0 0 1-.515-.516V3.75A1 1 0 0 1 1.168 3c.191-.203.457-.316.734-.316m0 0" fill="rgb(60%, 60%, 60%)"/></g><g clip-path="url(#27__14__1__clip-1)" id="36__23__10__source-15"><path d="M27.805 2.684h2.293c.558 0 1.011.453 1.011 1.015v5.332c0 .285-.23.516-.515.516H28.3a.515.515 0 0 1-.516-.516V2.684Zm0 0" fill="rgb(60%, 60%, 60%)"/></g><g clip-path="url(#28__15__2__clip-2)" id="37__24__11__source-21"><path d="M1.406 22.684H3.7c.285 0 .516.23.516.515v6.403H1.902a1.015 1.015 0 0 1-1.011-1.016v-5.477a.52.52 0 0 1 .515-.425m0 0" fill="rgb(60%, 60%, 60%)"/></g><g clip-path="url(#29__16__3__clip-3)" id="38__25__12__source-26"><path d="M28.3 22.684h2.294c.285 0 .515.23.515.515v5.336c0 .559-.453 1.012-1.011 1.012h-2.293v-6.438a.514.514 0 0 1 .496-.425m0 0" fill="rgb(60%, 60%, 60%)"/></g><filter height="100%" id="31__18__5__filter-remove-color" width="100%" x="0%" y="0%"><feColorMatrix color-interpolation-filters="sRGB" values="0 0 0 0 1 0 0 0 0 1 0 0 0 0 1 0 0 0 1 0"/></filter></defs><path d="M19.254 14.969c.008.25-.18.46-.426.48H15.11a.46.46 0 0 1-.476-.426V12.25a.46.46 0 0 1 .426-.48h3.714a.46.46 0 0 1 .48.425Zm6.594 2.808a.46.46 0 0 1-.426.48h-3.715a.46.46 0 0 1-.48-.425v-2.758a.465.465 0 0 1 .425-.48h3.715c.25-.008.461.18.48.43Zm-6.594 2.844a.464.464 0 0 1-.426.48H15.11a.456.456 0 0 1-.476-.425v-2.774a.46.46 0 0 1 .426-.48h3.714c.25-.012.461.18.48.426Zm0 0" fill="rgb(46.27451%, 73.72549%, 17.647059%)"/><path d="M12.656 12.16a.44.44 0 0 1-.406.461H8.426a.46.46 0 0 1-.48-.406V9.332a.46.46 0 0 1 .429-.441h3.715c.39 0 .566.195.566.476Zm0 0" fill="rgb(52.54902%, 83.921569%, 20%)"/><path d="M12.656 17.777a.444.444 0 0 1-.406.48H8.426a.47.47 0 0 1-.48-.48V14.97a.46.46 0 0 1 .429-.461h3.715c.39 0 .566.195.566.46Zm0 5.672a.44.44 0 0 1-.101.324.46.46 0 0 1-.305.157H8.426a.47.47 0 0 1-.48-.426V20.62a.47.47 0 0 1 .117-.32.45.45 0 0 1 .312-.14h3.715c.39 0 .566.175.566.46Zm0 0" fill="rgb(46.27451%, 73.72549%, 17.647059%)"/><path d="M1.902 2.684h2.293v6.402c0 .285-.23.516-.515.516H1.406a.515.515 0 0 1-.515-.516V3.75A1 1 0 0 1 1.168 3c.191-.203.457-.316.734-.316m0 0" fill="rgb(60%, 60%, 60%)"/><g mask="url(#30__17__4__mask-0)"><use href="#35__22__9__source-10"/></g><path d="M27.805 2.684h2.293c.558 0 1.011.453 1.011 1.015v5.332c0 .285-.23.516-.515.516H28.3a.515.515 0 0 1-.516-.516V2.684Zm0 0" fill="rgb(60%, 60%, 60%)"/><g mask="url(#32__19__6__mask-1)"><use href="#36__23__10__source-15"/></g><path d="M31.11 3.7v2.222H.89V3.699c0-.562.454-1.015 1.012-1.015h28.215c.551.011.992.46.992 1.015m0 0" fill="rgb(58.039216%, 58.039216%, 58.039216%)"/><path d="M1.406 22.684H3.7c.285 0 .516.23.516.515v6.403H1.902a1.015 1.015 0 0 1-1.011-1.016v-5.477a.52.52 0 0 1 .515-.425m0 0" fill="rgb(60%, 60%, 60%)"/><g mask="url(#33__20__7__mask-2)"><use href="#37__24__11__source-21"/></g><path d="M28.3 22.684h2.294c.285 0 .515.23.515.515v5.336c0 .559-.453 1.012-1.011 1.012h-2.293v-6.438a.514.514 0 0 1 .496-.425m0 0" fill="rgb(60%, 60%, 60%)"/><g mask="url(#34__21__8__mask-3)"><use href="#38__25__12__source-26"/></g><path d="M.89 28.586v-2.223h30.22v2.223c0 .559-.454 1.016-1.012 1.016H1.902a1.015 1.015 0 0 1-1.011-1.016m0 0" fill="rgb(58.039216%, 58.039216%, 58.039216%)"/></svg>