<svg role="img" viewBox="0 0 32 32" height="32" width="32" xmlns="http://www.w3.org/2000/svg"><defs><linearGradient gradientTransform="scale(1.77778)" gradientUnits="userSpaceOnUse" id="1__0__linear-pattern-0" x1="10.79" x2="10.79" y1="2.17" y2="16.56"><stop offset=".18" stop-color="rgb(36.862745%, 62.745098%, 93.72549%)"/><stop offset="1" stop-color="rgb(0%, 47.058824%, 83.137255%)"/></linearGradient></defs><path d="M2.95 14.559v-.246c0-.512.413-.926.925-.926h7.504c.508 0 .922.414.922.925v.247a.924.924 0 0 1-.922.925H3.875a.925.925 0 0 1-.926-.925m0 0" fill="rgb(70.196078%, 70.196078%, 70.196078%)"/><path d="M0 18.809v-.25c0-.508.414-.922.926-.922h7.5c.511 0 .926.414.926.922v.25a.925.925 0 0 1-.926.925h-7.5A.925.925 0 0 1 0 18.81m0 0" fill="rgb(63.921569%, 63.921569%, 63.921569%)"/><path d="M2.95 23.059v-.25c0-.512.413-.926.925-.926h7.504c.508 0 .922.414.922.926v.25a.924.924 0 0 1-.922.921H3.875a.924.924 0 0 1-.926-.921m0 0" fill="rgb(47.843137%, 47.843137%, 47.843137%)"/><path d="M32 19.555a5.83 5.83 0 0 0-4.996-5.653 7.34 7.34 0 0 0-7.484-7.109 7.51 7.51 0 0 0-7.11 4.977 6.92 6.92 0 0 0-6.012 6.753 7.117 7.117 0 0 0 7.22 6.864h12.64A5.9 5.9 0 0 0 32 19.555m0 0" fill="url(#1__0__linear-pattern-0)"/></svg>