<svg role="img" viewBox="0 0 32 32" height="32" width="32" xmlns="http://www.w3.org/2000/svg"><defs><clipPath id="8__0__clip-0"><path d="M0 0h32v32H0z"/></clipPath><clipPath id="9__1__clip-1"><path d="M0 0h32v32H0z"/></clipPath><mask id="10__2__mask-0"><g filter="url(#11__3__filter-remove-color)"><path d="M-3.2-3.2h38.4v38.4H-3.2z" fill-opacity=".6"/></g></mask><mask id="12__4__mask-1"><g filter="url(#11__3__filter-remove-color)"><path d="M-3.2-3.2h38.4v38.4H-3.2z" fill-opacity=".8"/></g></mask><g clip-path="url(#8__0__clip-0)" id="13__5__source-7"><path d="M3.395 11.836h25.468c.59 0 1.067.476 1.067 1.066v13c0 .59-.477 1.067-1.067 1.067H3.395c-.59 0-1.067-.477-1.067-1.067v-13c0-.59.477-1.066 1.067-1.066m0 0" fill="rgb(36.862745%, 62.745098%, 93.72549%)"/></g><g clip-path="url(#9__1__clip-1)" id="14__6__source-12"><path d="m12.637 23.496-.57.57a.26.26 0 0 1-.364 0L7.57 19.922a.514.514 0 0 1 0-.73l.57-.57 4.5 4.51a.26.26 0 0 1-.003.364m6.496 0 .57.57a.26.26 0 0 0 .363 0l4.133-4.144a.514.514 0 0 0 0-.73l-.57-.57-4.5 4.51a.26.26 0 0 0 .004.364m0 0" fill="rgb(100%, 100%, 100%)"/></g><linearGradient gradientTransform="scale(1.77778)" gradientUnits="userSpaceOnUse" id="15__7__linear-pattern-0" x1="9" x2="9" y1="16.236" y2="5.599"><stop offset="0" stop-color="rgb(0%, 35.686275%, 63.137255%)"/><stop offset=".775" stop-color="rgb(0%, 47.058824%, 83.137255%)"/></linearGradient><filter height="100%" id="11__3__filter-remove-color" width="100%" x="0%" y="0%"><feColorMatrix color-interpolation-filters="sRGB" values="0 0 0 0 1 0 0 0 0 1 0 0 0 0 1 0 0 0 1 0"/></filter></defs><path d="M0 9.957h32v17.84c0 .586-.477 1.066-1.066 1.066H1.066c-.59 0-1.066-.48-1.066-1.066Zm0 0" fill="url(#15__7__linear-pattern-0)"/><g mask="url(#10__2__mask-0)"><use href="#13__5__source-7"/></g><path d="M1.066 3.137h29.868c.59 0 1.066.476 1.066 1.066v5.754H0V4.203a1.07 1.07 0 0 1 1.066-1.066m0 0" fill="rgb(0%, 35.686275%, 63.137255%)"/><g mask="url(#12__4__mask-1)"><use href="#14__6__source-12"/></g><path d="m12.145 14.992.566.57c.05.047.078.114.078.184a.25.25 0 0 1-.078.18l-4.574 4.566-.57-.57a.51.51 0 0 1 0-.73l4.214-4.204a.26.26 0 0 1 .364.004m7.48 0-.57.57a.25.25 0 0 0-.078.184c0 .066.027.133.078.18l4.578 4.566.566-.57a.514.514 0 0 0 0-.73l-4.21-4.2a.26.26 0 0 0-.363 0m-5.121 10.543-.91-.289a.19.19 0 0 1-.121-.234l3.714-11.606a.2.2 0 0 1 .09-.113.2.2 0 0 1 .145-.008l.91.293a.17.17 0 0 1 .11.09.18.18 0 0 1 .011.14l-3.719 11.614a.16.16 0 0 1-.09.105.2.2 0 0 1-.14.008M5.629 6.84a1.352 1.352 0 1 1-2.704-.001 1.352 1.352 0 0 1 2.704 0m2.906-1.352a1.352 1.352 0 0 0 0 2.703c.746 0 1.348-.605 1.348-1.351S9.28 5.488 8.535 5.488m4.254 0a1.352 1.352 0 0 0 0 2.703c.746 0 1.348-.605 1.348-1.351a1.35 1.35 0 0 0-1.352-1.352Zm0 0" fill="rgb(100%, 100%, 100%)"/></svg>