<svg role="img" viewBox="0 0 32 32" height="32" width="32" xmlns="http://www.w3.org/2000/svg"><defs><linearGradient gradientTransform="rotate(.086)scale(1.77778)" gradientUnits="userSpaceOnUse" id="390__388__247__245__495__493__157__155__134__132__495__493__130__128__26__24__56__54__492__490__azure-ad_svg__svg/azure-ad.svg261__svg/azure-ad.svg257__azure-ad-lp-0" x1="13.25" x2="8.62" y1="13.02" y2="4.25"><stop offset="0" stop-color="rgb(9.803922%, 53.333333%, 85.098039%)"/><stop offset=".9" stop-color="rgb(32.941176%, 68.235294%, 94.117647%)"/></linearGradient><linearGradient gradientTransform="rotate(.086)scale(1.77778)" gradientUnits="userSpaceOnUse" id="391__389__248__246__496__494__158__156__135__133__496__494__131__129__27__25__57__55__493__491__azure-ad_svg__svg/azure-ad.svg263__svg/azure-ad.svg259__azure-ad-lp-1" x1="11.26" x2="14.46" y1="10.47" y2="15.99"><stop offset=".1" stop-color="rgb(32.941176%, 68.235294%, 94.117647%)"/><stop offset=".29" stop-color="rgb(30.980392%, 67.058824%, 93.333333%)"/><stop offset=".51" stop-color="rgb(25.490196%, 63.529412%, 91.372549%)"/><stop offset=".74" stop-color="rgb(16.470588%, 57.647059%, 87.843137%)"/><stop offset=".88" stop-color="rgb(9.803922%, 53.333333%, 85.098039%)"/></linearGradient></defs><path d="m1.797 18.117 14.078 9.137 14.328-9.176L32 20.18 15.875 30.559 0 20.179Zm0 0" fill="rgb(31.372549%, 90.196078%, 100%)"/><path d="m2.863 16.941 13.012-15.5 13.281 15.52-13.281 8.39Zm0 0" fill="rgb(100%, 100%, 100%)"/><path d="M15.875 1.441v23.91l-13.012-8.41Zm0 0" fill="rgb(31.372549%, 90.196078%, 100%)"/><path d="M15.875 1.441v23.91l13.281-8.39Zm0 0" fill="url(#390__388__247__245__495__493__157__155__134__132__495__493__130__128__26__24__56__54__492__490__azure-ad_svg__svg/azure-ad.svg261__svg/azure-ad.svg257__azure-ad-lp-0)"/><path d="m15.875 13.797 13.281 3.164-13.281 8.39Zm0 0" fill="rgb(32.54902%, 69.411765%, 87.843137%)"/><path d="m15.875 25.352-13.012-8.41 13.012-3.145Zm0 0" fill="rgb(61.176471%, 92.156863%, 100%)"/><path d="M15.875 30.559 32 20.179l-1.797-2.1-14.328 9.175Zm0 0" fill="url(#391__389__248__246__496__494__158__156__135__133__496__494__131__129__27__25__57__55__493__491__azure-ad_svg__svg/azure-ad.svg263__svg/azure-ad.svg259__azure-ad-lp-1)"/></svg>