<svg role="img" viewBox="0 0 32 32" xmlns="http://www.w3.org/2000/svg"><defs><linearGradient gradientTransform="rotate(.086)scale(1.77778)" gradientUnits="userSpaceOnUse" id="azure-logic-app_svg__a" x1="5.05" x2="5.05" y1="10.55" y2="13.48"><stop offset="0" stop-color="rgb(46.27451%, 73.725492%, 17.647059%)"/><stop offset="1" stop-color="rgb(36.862746%, 58.823532%, 14.117648%)"/></linearGradient><linearGradient gradientTransform="rotate(.086)scale(1.77778)" gradientUnits="userSpaceOnUse" id="azure-logic-app_svg__b" x1="12.84" x2="12.84" y1="10.57" y2="13.5"><stop offset="0" stop-color="rgb(46.27451%, 73.725492%, 17.647059%)"/><stop offset="1" stop-color="rgb(36.862746%, 58.823532%, 14.117648%)"/></linearGradient></defs><path d="M5.672 27.734a4.46 4.46 0 0 1-2.723-.675 3.01 3.01 0 0 1-.797-2.418v-6.278c0-1.031-.41-1.582-1.261-1.582V15.22c.851 0 1.261-.551 1.261-1.637V7.414a3.2 3.2 0 0 1 .797-2.473 4.1 4.1 0 0 1 2.723-.675v1.582c-.906 0-1.406.48-1.406 1.511v6.047c0 1.387-.407 2.239-1.317 2.594.946.5 1.473 1.54 1.317 2.594v5.992c-.016.426.09.844.304 1.21.274.263.653.392 1.032.356v1.582ZM26.328 4.266a4.46 4.46 0 0 1 2.723.675c.61.649.902 1.536.797 2.418v6.278c0 1.031.41 1.582 1.261 1.582v1.562c-.851 0-1.261.551-1.261 1.637v6.098a3.2 3.2 0 0 1-.797 2.488 4.05 4.05 0 0 1-2.723.73v-1.582c.906 0 1.406-.48 1.406-1.511v-6.047c0-1.387.407-2.239 1.317-2.594a2.52 2.52 0 0 1-1.317-2.594V7.414a2.23 2.23 0 0 0-.304-1.21 1.32 1.32 0 0 0-1.032-.356Zm0 0" fill="rgb(58.039218%, 58.039218%, 58.039218%)"/><path d="M16.73 14.844v-2.258h-1.6v2.258c0 .176-.145.32-.32.32H8.89a.64.64 0 0 0-.453.188.64.64 0 0 0-.188.453v2.933h1.598v-1.617c0-.172.132-.312.304-.32h11.625c.082 0 .164.035.227.094.058.058.094.14.094.226v1.652h1.582v-2.968a.645.645 0 0 0-.621-.64H17.05a.32.32 0 0 1-.32-.321" fill="rgb(0%, 35.686275%, 63.137257%)"/><path d="M18.863 5.707h-5.972a.677.677 0 0 0-.676.656v5.973a.663.663 0 0 0 .676.66h5.972a.67.67 0 0 0 .489-.18.67.67 0 0 0 .203-.48V6.363a.66.66 0 0 0-.211-.472.68.68 0 0 0-.48-.184m-.571 5.637a.444.444 0 0 1-.445.426h-3.965a.44.44 0 0 1-.442-.426V7.379c0-.246.2-.445.442-.445h3.894c.246 0 .446.199.446.445Zm0 0" fill="rgb(0%, 47.058824%, 83.137256%)"/><path d="M6.844 18.754h4.265a.48.48 0 0 1 .48.48v4.27a.484.484 0 0 1-.48.476H6.844a.484.484 0 0 1-.48-.476v-4.27a.48.48 0 0 1 .48-.48m0 0" fill="url(#azure-logic-app_svg__a)"/><path d="M20.71 18.793h4.267a.48.48 0 0 1 .48.477v4.27a.48.48 0 0 1-.48.48H20.71a.48.48 0 0 1-.48-.48v-4.27a.48.48 0 0 1 .48-.477m0 0" fill="url(#azure-logic-app_svg__b)"/></svg>