<svg role="img" viewBox="0 0 29.511 32" height="32" width="29.511" xmlns="http://www.w3.org/2000/svg"><defs><linearGradient gradientTransform="translate(-1.545 -.29)scale(1.81715)" gradientUnits="userSpaceOnUse" id="194__190__79__75__azure-metrics-lp-1" x1="11.02" x2="11.02" y1="11.15" y2="7.86"><stop offset="0" stop-color="rgb(46.666667%, 22.745098%, 86.27451%)"/><stop offset="1" stop-color="rgb(71.764706%, 47.843137%, 95.686275%)"/></linearGradient><linearGradient gradientTransform="translate(-1.545 -.29)scale(1.81715)" gradientUnits="userSpaceOnUse" id="195__191__80__76__linear-pattern-2" x1="15.15" x2="15.15" y1="3.79" y2=".5"><stop offset="0" stop-color="rgb(46.666667%, 22.745098%, 86.27451%)"/><stop offset="1" stop-color="rgb(71.764706%, 47.843137%, 95.686275%)"/></linearGradient><linearGradient gradientTransform="translate(-1.545 -.29)scale(1.81715)" gradientUnits="userSpaceOnUse" id="196__192__81__77__linear-pattern-3" x1="2.85" x2="2.85" y1="11.86" y2="8.57"><stop offset="0" stop-color="rgb(46.666667%, 22.745098%, 86.27451%)"/><stop offset="1" stop-color="rgb(71.764706%, 47.843137%, 95.686275%)"/></linearGradient></defs><path d="m25.223 2.652-7.25 12.903-7.668-7.813-7.907 10.246 1.856 1.457 6.266-8.09 7.96 8.125 8.797-15.644Zm0 0" fill="rgb(71.764706%, 58.823529%, 97.647059%)"/><path d="M13.375 9.54c0 1.655-1.336 3-2.98 3a2.99 2.99 0 0 1-2.98-3 2.99 2.99 0 0 1 2.98-2.997c1.644 0 2.98 1.34 2.98 2.996m0 0" fill="url(#197__193__78__74__linear-pattern-0)"/><path d="M21.46 16.973a2.99 2.99 0 0 1-2.98 2.996 2.98 2.98 0 0 1-2.98-2.996c0-1.657 1.336-3 2.98-3a2.99 2.99 0 0 1 2.98 3m0 0" fill="url(#194__190__79__75__linear-pattern-1)"/><path d="M28.965 3.617a2.984 2.984 0 0 1-2.98 2.996 2.97 2.97 0 0 1-2.11-.879 2.972 2.972 0 0 1-.871-2.117c0-1.656 1.336-3 2.98-3a2.99 2.99 0 0 1 2.98 3m0 0" fill="url(#195__191__80__76__linear-pattern-2)"/><path d="M6.613 18.281a2.99 2.99 0 0 1-2.98 2.996 2.99 2.99 0 0 1-2.98-2.996c0-1.656 1.335-3 2.98-3a2.99 2.99 0 0 1 2.98 3m0 0" fill="url(#196__192__81__77__linear-pattern-3)"/><path d="M9.266 17.734h3.672a.51.51 0 0 1 .507.512V31a.515.515 0 0 1-.148.36.522.522 0 0 1-.36.148h-3.67A.51.51 0 0 1 8.758 31V18.246c0-.281.23-.512.508-.512m0 0" fill="rgb(0%, 47.058824%, 83.137255%)"/><path d="M16.734 22.496h3.672c.282 0 .508.227.508.508V31a.507.507 0 0 1-.508.508h-3.672a.508.508 0 0 1-.507-.508v-7.996c0-.281.226-.508.507-.508m7.47-9.375h3.671c.281 0 .508.227.508.508V31a.508.508 0 0 1-.508.508h-3.672a.507.507 0 0 1-.508-.508V13.629c0-.281.227-.508.508-.508m0 0" fill="rgb(0%, 35.686275%, 63.137255%)"/><path d="M1.8 22.496h3.67c.281 0 .508.227.508.508V31a.508.508 0 0 1-.508.508H1.8A.51.51 0 0 1 1.289 31v-7.996a.51.51 0 0 1 .512-.508m0 0" fill="rgb(36.862745%, 62.745098%, 93.72549%)"/></svg>