<svg role="img" viewBox="0 0 32 32" height="32" width="32" xmlns="http://www.w3.org/2000/svg"><defs><linearGradient gradientTransform="matrix(1.77778 0 0 2.82667 0 -2273.351)" gradientUnits="userSpaceOnUse" id="1466__1465__483__482__328__327__57__56__332__331__327__326__31__30__241__240__137__136__215__214__55__54__azure-disk_svg__svg/azure-disk.svg431__svg/azure-disk.svg429__azure-disk-lp-0" x1="5.51" x2="12.94" y1="802.5" y2="810.58"><stop offset="0" stop-color="rgb(0%, 47.058824%, 83.137255%)"/><stop offset=".02" stop-color="rgb(5.098039%, 49.411765%, 84.705882%)"/><stop offset=".08" stop-color="rgb(16.862745%, 54.117647%, 87.843137%)"/><stop offset=".15" stop-color="rgb(25.490196%, 58.039216%, 90.588235%)"/><stop offset=".22" stop-color="rgb(31.764706%, 60.784314%, 92.156863%)"/><stop offset=".29" stop-color="rgb(35.686275%, 62.352941%, 93.333333%)"/><stop offset=".4" stop-color="rgb(36.862745%, 62.745098%, 93.72549%)"/><stop offset=".55" stop-color="rgb(35.686275%, 62.352941%, 93.333333%)"/><stop offset=".68" stop-color="rgb(31.372549%, 60.392157%, 92.156863%)"/><stop offset=".8" stop-color="rgb(24.705882%, 57.254902%, 90.196078%)"/><stop offset=".91" stop-color="rgb(14.901961%, 53.333333%, 87.45098%)"/><stop offset=".99" stop-color="rgb(7.058824%, 49.803922%, 85.098039%)"/></linearGradient></defs><path d="M15.93 15.54c-7.364 0-13.336 2.448-13.336 5.472 0 3.027 5.972 5.476 13.336 5.476 7.363 0 13.332-2.449 13.332-5.476 0-3.024-5.969-5.473-13.332-5.473" fill="rgb(46.27451%, 73.72549%, 17.647059%)"/><path d="M16.266 19.75c-2.446 0-4.426.543-4.426 1.21 0 .669 1.98 1.208 4.426 1.208 2.445 0 4.425-.54 4.425-1.207 0-.668-1.98-1.211-4.425-1.211" fill="rgb(36.862745%, 58.823529%, 14.117647%)"/><path d="M15.93 3.395c-7.364 0-13.336 2.453-13.336 5.476 0 3.024 5.972 5.477 13.336 5.477 7.363 0 13.332-2.453 13.332-5.477 0-3.023-5.969-5.476-13.332-5.476" fill="url(#1466__1465__483__482__328__327__57__56__332__331__327__326__31__30__241__240__137__136__215__214__55__54__azure-disk_svg__svg/azure-disk.svg431__svg/azure-disk.svg429__azure-disk-lp-0)"/><path d="M16.266 7.59c-2.446 0-4.426.543-4.426 1.21 0 .669 1.98 1.208 4.426 1.208 2.445 0 4.425-.54 4.425-1.207 0-.668-1.98-1.211-4.425-1.211" fill="rgb(0%, 35.686275%, 63.137255%)"/><path d="M16 26.383c7.379 0 13.332-2.453 13.332-5.477v3.235c-.246 2.933-6.113 5.336-13.332 5.336S2.668 27.023 2.668 24v-3.094C2.594 23.93 8.57 26.383 16 26.383" fill="rgb(36.862745%, 58.823529%, 14.117647%)"/><path d="M16 14.223c7.379 0 13.332-2.453 13.332-5.477v3.234c-.246 2.934-6.113 5.336-13.332 5.336S2.668 14.863 2.668 11.84V8.746C2.594 11.77 8.57 14.223 16 14.223" fill="rgb(0%, 47.058824%, 83.137255%)"/></svg>