<svg role="img" viewBox="0 0 32 32" height="32" width="32" xmlns="http://www.w3.org/2000/svg"><defs><linearGradient gradientTransform="rotate(.086)scale(1.77778)" gradientUnits="userSpaceOnUse" id="1464__1463__481__480__326__325__55__54__330__329__323__322__27__26__237__236__133__132__213__212__57__56__azure-load-balancer_svg__svg/azure-load-balancer.svg427__svg/azure-load-balancer.svg425__azure-load-balancer-lp-0" x1="9" x2="9" y1="19.85" y2="-1.02"><stop offset="0" stop-color="rgb(36.862745%, 58.823529%, 14.117647%)"/><stop offset=".02" stop-color="rgb(37.254902%, 59.215686%, 14.117647%)"/><stop offset="1" stop-color="rgb(46.27451%, 73.72549%, 17.647059%)"/></linearGradient></defs><path d="M.32 15.234 15.234.32c.2-.207.477-.328.766-.328.29 0 .566.121.766.328L31.68 15.234c.207.2.328.477.328.766 0 .29-.121.566-.328.766L16.746 31.699a1.066 1.066 0 0 1-1.492 0L.32 16.766A1.067 1.067 0 0 1-.008 16c0-.29.121-.566.328-.766" fill="url(#1464__1463__481__480__326__325__55__54__330__329__323__322__27__26__237__236__133__132__213__212__57__56__azure-load-balancer_svg__svg/azure-load-balancer.svg427__svg/azure-load-balancer.svg425__azure-load-balancer-lp-0)"/><path d="m19.91 7.11-3.77-3.75a.214.214 0 0 0-.28 0l-3.77 3.75a.184.184 0 0 0-.063.222.17.17 0 0 0 .203.098h2.207c.106 0 .196.09.196.195v3.559c0 .105.086.195.195.195h2.344c.11 0 .195-.09.195-.195V7.625c0-.105.09-.195.195-.195h2.208a.17.17 0 0 0 .203-.098.183.183 0 0 0-.063-.223M7.11 11.75l-3.731 3.79a.194.194 0 0 0 0 .265l3.73 3.75a.199.199 0 0 0 .22.047.19.19 0 0 0 .12-.188v-2.187c0-.11.086-.196.196-.196h3.554c.051 0 .098-.02.133-.058a.174.174 0 0 0 .047-.137v-2.348a.186.186 0 0 0 .008-.164.17.17 0 0 0-.133-.101H7.699a.205.205 0 0 1-.14-.047.186.186 0 0 1-.055-.133v-2.148a.21.21 0 1 0-.395-.145m17.922 7.805 3.785-3.77a.194.194 0 0 0 0-.265l-3.785-3.77a.208.208 0 0 0-.207-.027.2.2 0 0 0-.113.172v2.222c0 .051-.02.098-.059.13a.174.174 0 0 1-.136.046H20.96c-.05 0-.098.02-.133.059a.15.15 0 0 0-.047.136v2.348a.141.141 0 0 0 .047.137.17.17 0 0 0 .133.058h3.555c.05 0 .101.02.136.059a.18.18 0 0 1 .059.137v2.203a.186.186 0 0 0 .125.16c.066.023.14.012.195-.035" fill="rgb(70.588235%, 92.54902%, 21.176471%)"/><path d="M20.96 16a4.96 4.96 0 0 0-4.491-4.969 4.96 4.96 0 0 0-1.801 9.715v1.692a3.038 3.038 0 0 0 1.395 5.738 3.038 3.038 0 0 0 1.394-5.738v-1.782A4.93 4.93 0 0 0 20.961 16" fill="rgb(100%, 100%, 100%)"/><path d="M16.02 13.102a2.88 2.88 0 0 0-2.88 2.878 2.879 2.879 0 1 0 5.758.004 2.881 2.881 0 0 0-2.878-2.882" fill="rgb(36.862745%, 62.745098%, 93.72549%)"/></svg>