<svg role="img" viewBox="0 0 32 32" xmlns="http://www.w3.org/2000/svg"><defs><linearGradient gradientTransform="rotate(.086)scale(1.77778)" gradientUnits="userSpaceOnUse" id="azure-vm-scaleset_svg__a" x1="12.74" x2="12.74" y1="15.28" y2="8.52"><stop offset="0" stop-color="rgb(0%, 47.058824%, 83.137256%)"/><stop offset=".82" stop-color="rgb(36.862746%, 62.7451%, 93.725491%)"/></linearGradient><linearGradient gradientTransform="rotate(.086)scale(1.77778)" gradientUnits="userSpaceOnUse" id="azure-vm-scaleset_svg__b" x1="12.74" x2="12.74" y1="17.89" y2="15.28"><stop offset=".15" stop-color="rgb(80.000001%, 80.000001%, 80.000001%)"/><stop offset="1" stop-color="rgb(43.921569%, 43.921569%, 43.921569%)"/></linearGradient></defs><path d="M2.008 1.582h16.765c.332 0 .606.27.606.605v10.79a.606.606 0 0 1-.606.605H2.008a.6.6 0 0 1-.426-.18.6.6 0 0 1-.176-.425V2.187c0-.335.27-.605.602-.605m0 0" fill="rgb(0%, 35.686275%, 63.137257%)"/><path d="M13.387 5.832v3.5l-2.989 1.742V7.59Zm0 0" fill="rgb(31.37255%, 90.196079%, 100%)"/><path d="M13.387 5.832 10.398 7.59 7.395 5.832l3.003-1.762Zm0 0" fill="rgb(76.47059%, 94.509804%, 100%)"/><path d="M10.398 7.59v3.484L7.395 9.332v-3.5Zm0 0" fill="rgb(61.176473%, 92.156863%, 100%)"/><path d="M9.066 8.46h16.766c.332 0 .605.274.605.606V19.86a.61.61 0 0 1-.605.602H9.066a.605.605 0 0 1-.605-.602V9.066c0-.332.273-.605.605-.605m0 0" fill="rgb(0%, 47.058824%, 83.137256%)"/><path d="M20.445 12.73v3.485l-2.988 1.758v-3.5Zm0 0" fill="rgb(31.37255%, 90.196079%, 100%)"/><path d="m20.445 12.73-2.988 1.743-3.004-1.743 3.004-1.761Zm0 0" fill="rgb(76.47059%, 94.509804%, 100%)"/><path d="M17.457 14.473v3.5l-3.004-1.758V12.73Zm0 0" fill="rgb(61.176473%, 92.156863%, 100%)"/><path d="M14.258 15.148h16.765c.332 0 .602.27.602.602v10.793c0 .332-.27.605-.602.605H14.258a.61.61 0 0 1-.606-.605V15.75c0-.332.274-.602.606-.602m0 0" fill="url(#azure-vm-scaleset_svg__a)"/><path d="M25.637 19.414v3.484l-2.989 1.758v-3.5Zm0 0" fill="rgb(31.37255%, 90.196079%, 100%)"/><path d="m25.637 19.414-2.989 1.758-3.003-1.758 3.003-1.762Zm0 0" fill="rgb(76.47059%, 94.509804%, 100%)"/><path d="M22.648 21.172v3.484l-3.003-1.758v-3.484Zm0 0" fill="rgb(61.176473%, 92.156863%, 100%)"/><path d="m19.645 22.898 3.003-1.742v3.5Zm0 0" fill="rgb(76.47059%, 94.509804%, 100%)"/><path d="m25.637 22.898-2.989-1.742v3.5Zm0 0" fill="rgb(61.176473%, 92.156863%, 100%)"/><path d="M26.238 30.793c-1.777-.285-1.777-1.566-1.777-3.559h-3.555c0 2.063 0 3.344-1.777 3.559a1.05 1.05 0 0 0-.89 1.012h8.89a1.046 1.046 0 0 0-.89-1.012" fill="url(#azure-vm-scaleset_svg__b)"/></svg>