<svg role="img" viewBox="0 0 32 32" height="32" width="32" xmlns="http://www.w3.org/2000/svg"><defs><linearGradient gradientTransform="translate(-.29 -.29)scale(1.81715)" gradientUnits="userSpaceOnUse" id="186__184__70__68__325__323__273__271__166__164__277__275__495__493__405__403__483__481__318__316__azure-log-analytics_svg__svg/azure-log-analytics.svg945__svg/azure-log-analytics.svg941__azure-log-analytics-lp-0" x1="5.23" x2="5.23" y1="17.45" y2="8.09"><stop offset="0" stop-color="rgb(9.803922%, 53.333333%, 85.098039%)"/><stop offset=".9" stop-color="rgb(32.941176%, 68.235294%, 94.117647%)"/></linearGradient><linearGradient gradientTransform="translate(-.29 -.29)scale(1.81715)" gradientUnits="userSpaceOnUse" id="187__185__71__69__326__324__274__272__167__165__278__276__496__494__406__404__484__482__319__317__azure-log-analytics_svg__svg/azure-log-analytics.svg947__svg/azure-log-analytics.svg943__azure-log-analytics-lp-1" x1="11.5" x2="11.5" y1="12.45" y2=".55"><stop offset="0" stop-color="rgb(9.803922%, 54.117647%, 70.196078%)"/><stop offset=".01" stop-color="rgb(9.803922%, 54.509804%, 70.588235%)"/><stop offset=".44" stop-color="rgb(15.294118%, 69.803922%, 84.313725%)"/><stop offset=".79" stop-color="rgb(18.431373%, 79.607843%, 92.941176%)"/><stop offset="1" stop-color="rgb(19.607843%, 83.137255%, 96.078431%)"/></linearGradient></defs><path d="M9.867 23.57h7.852v7.848H9.867Zm-8.066 7.848h6.758V23.57H.707v6.758c0 .602.488 1.09 1.094 1.09M.707 22.332h7.852V14.41H.707Zm0 0" fill="url(#186__184__70__68__325__323__273__271__166__164__277__275__495__493__405__403__483__481__318__316__azure-log-analytics_svg__svg/azure-log-analytics.svg945__svg/azure-log-analytics.svg941__azure-log-analytics-lp-0)"/><path d="M20.605.707a10.72 10.72 0 0 1 7.711 3.168 10.73 10.73 0 0 1 3.102 7.738 10.699 10.699 0 0 1-10.813 10.809H9.793V11.52A10.71 10.71 0 0 1 20.605.707m0 0" fill="url(#187__185__71__69__326__324__274__272__167__165__278__276__496__494__406__404__484__482__319__317__azure-log-analytics_svg__svg/azure-log-analytics.svg947__svg/azure-log-analytics.svg943__azure-log-analytics-lp-1)" fill-rule="evenodd"/><path d="M13.5 9.977h2.473v7.414H13.5Zm4.945 2.472h2.47v4.942h-2.47Zm4.942-4.945h2.472v9.887h-2.472Zm0 0" fill="rgb(100%, 100%, 100%)"/></svg>