<svg role="img" viewBox="0 0 32 32" height="32" width="32" xmlns="http://www.w3.org/2000/svg"><defs><linearGradient gradientTransform="matrix(2.05511 0 0 1.82933 377.908 658.752)" gradientUnits="userSpaceOnUse" id="2__1__0__linear-pattern-0" x1="-175.993" x2="-175.993" y1="-343.723" y2="-359.232"><stop offset="0" stop-color="rgb(99.607843%, 63.137255%, 10.588235%)"/><stop offset=".284" stop-color="rgb(99.607843%, 64.705882%, 10.196078%)"/><stop offset=".547" stop-color="rgb(99.607843%, 69.019608%, 9.411765%)"/><stop offset=".8" stop-color="rgb(100%, 76.470588%, 7.843137%)"/><stop offset="1" stop-color="rgb(100%, 84.313725%, 5.882353%)"/></linearGradient></defs><path d="m9.848 23.297-1.04 1.047a.48.48 0 0 1-.671 0L.395 16.629a.97.97 0 0 1-.278-.672.96.96 0 0 1 .278-.672l1.046-1.047 8.414 8.387c.09.09.137.207.137.336a.47.47 0 0 1-.137.336Zm0 0" fill="rgb(31.372549%, 90.196078%, 100%)"/><path d="M8.645 7.652 9.695 8.7c.09.09.137.211.137.336a.47.47 0 0 1-.137.336l-8.261 8.285L.383 16.61a.945.945 0 0 1 0-1.34L7.98 7.653a.474.474 0 0 1 .668 0Zm0 0" fill="rgb(7.843137%, 56.470588%, 87.45098%)"/><path d="m30.559 14.242 1.046 1.051a.95.95 0 0 1 0 1.34l-7.742 7.715a.48.48 0 0 1-.672 0l-1.039-1.043a.47.47 0 0 1 0-.672l8.41-8.387Zm0 0" fill="rgb(31.372549%, 90.196078%, 100%)"/><path d="m31.613 16.605-1.05 1.047L22.3 9.363a.48.48 0 0 1 0-.672l1.047-1.043a.474.474 0 0 1 .672 0l7.597 7.618a.945.945 0 0 1 0 1.34Zm0 0" fill="rgb(7.843137%, 56.470588%, 87.45098%)"/><path d="M15.04 17.602H8.655a.35.35 0 0 1-.355-.325.3.3 0 0 1 .035-.132l7.648-15.137a.37.37 0 0 1 .332-.188h7.547a.345.345 0 0 1 .356.32.32.32 0 0 1-.063.18l-8.984 11.84h8.762a.35.35 0 0 1 .355.324.3.3 0 0 1-.094.215L9.637 29.844c-.137.082-1.11.89-.633-.336Zm0 0" fill="url(#2__1__0__linear-pattern-0)"/></svg>