<svg role="img" viewBox="0 0 32 32" xmlns="http://www.w3.org/2000/svg"><defs><radialGradient cx="-6811.4" cy="6729.69" fx="-6811.4" fy="6729.69" gradientTransform="matrix(.88889 0 0 -.88889 6070.951 5998.311)" gradientUnits="userSpaceOnUse" id="azure-dns_svg__a" r="17"><stop offset=".18" stop-color="rgb(36.862746%, 62.7451%, 93.725491%)"/><stop offset="1" stop-color="rgb(0%, 47.058824%, 83.137256%)"/></radialGradient></defs><path d="M25.262 27.945c-6.598 5.118-16.094 3.914-21.207-2.683C-1.062 18.664.14 9.168 6.738 4.055l.16-.11c6.633-4.949 16.012-3.644 21.04 2.93 5.027 6.57 3.835 15.965-2.676 21.07" fill="url(#azure-dns_svg__a)"/><path d="M16 2.328C8.45 2.328 2.328 8.45 2.328 16S8.449 29.672 16 29.672c7.55 0 13.672-6.121 13.672-13.672C29.66 8.453 23.547 2.34 16 2.328m9.156 4.606a13 13 0 0 1-3.824 1.421 15.7 15.7 0 0 0-2.223-4.8c2.29.55 4.38 1.718 6.047 3.379M16 3.094c.648 0 1.297.05 1.938.16a13.3 13.3 0 0 1 2.718 5.332 26.9 26.9 0 0 1-9.687 0 13.1 13.1 0 0 1 2.683-5.227q1.163-.241 2.348-.265m-3.555.46a15.4 15.4 0 0 0-2.258 4.766A9.8 9.8 0 0 1 6.81 6.95a13.1 13.1 0 0 1 5.636-3.395M6.613 24.89a9.3 9.3 0 0 1 3.164-1.352 12.6 12.6 0 0 0 2.403 4.836 12.9 12.9 0 0 1-5.567-3.484m11.395 3.91q-.998.135-2.008.105a12 12 0 0 1-2.559-.265 10.7 10.7 0 0 1-2.968-5.332 26.2 26.2 0 0 1 10.453 0 10.7 10.7 0 0 1-3.004 5.332Zm1.3-.285a12.8 12.8 0 0 0 2.454-4.977c1.258.293 2.457.793 3.554 1.473a12.74 12.74 0 0 1-6.007 3.433Zm2.63-5.723c.14-.64.265-1.3.355-1.992l-.816.195c-.09.547-.18 1.102-.305 1.617-3.57-.73-7.254-.73-10.824 0a21 21 0 0 1-.305-1.527.6.6 0 0 1 0-.16l-.816-.235a5 5 0 0 0 0 .5c0 .567.195 1.102.3 1.618a10.5 10.5 0 0 0-3.554 1.511 12.87 12.87 0 0 1 .195-16.71 11.2 11.2 0 0 0 3.7 1.527c-.126.425-.231.89-.321 1.351s0 .446-.14.66l.831-.199v-.3c.11-.461.215-.907.34-1.333 1.79.329 3.606.47 5.422.426 1.656 0 3.313-.156 4.941-.46.125.48.25.995.356 1.511l.82.195a25 25 0 0 0-.43-1.781 13.6 13.6 0 0 0 4.09-1.617c4.246 4.805 4.293 12.012.106 16.867a12.9 12.9 0 0 0-3.945-1.719Zm0 0" fill="rgb(36.862746%, 62.7451%, 93.725491%)"/><path d="M6.559 12.445a15 15 0 0 1 2.062-.144 4.37 4.37 0 0 1 3.043.926 3.56 3.56 0 0 1 1.047 2.593 3.92 3.92 0 0 1-1.086 2.918A4.6 4.6 0 0 1 8.32 19.82a16 16 0 0 1-1.777-.086Zm.98 6.63q.488.035.977 0a2.87 2.87 0 0 0 2.37-.837 2.87 2.87 0 0 0 .813-2.379 2.67 2.67 0 0 0-.824-2.18 2.67 2.67 0 0 0-2.219-.702 6 6 0 0 0-1.117 0Zm6.434.675v-7.484h1.05L17.422 16c.504.781.957 1.598 1.351 2.438-.09-.997-.105-1.903-.105-3.079v-3.093h.887v7.484h-.977L16.23 16c-.515-.836-1.011-1.777-1.402-2.488v6.293Zm7.164-1.172c.543.313 1.156.48 1.777.48.996 0 1.566-.515 1.566-1.28 0-.766-.39-1.102-1.406-1.477-1.012-.371-1.988-1.067-1.988-2.133a2.17 2.17 0 0 1 .777-1.54 2.16 2.16 0 0 1 1.657-.487c.57-.016 1.14.105 1.652.355l-.281.8a2.94 2.94 0 0 0-1.426-.355c-1.027 0-1.422.606-1.422 1.121 0 .516.465 1.047 1.496 1.442 1.031.39 1.918 1.101 1.918 2.203s-.852 2.152-2.629 2.152a3.9 3.9 0 0 1-1.902-.48Zm0 0" fill="rgb(100%, 100%, 100%)"/></svg>