<svg role="img" viewBox="0 0 32 32" xmlns="http://www.w3.org/2000/svg"><defs><linearGradient gradientTransform="rotate(.086)scale(1.77778)" gradientUnits="userSpaceOnUse" id="azure-vm_svg__a" x1="8.88" x2="8.88" y1="12.21" y2=".21"><stop offset="0" stop-color="rgb(0%, 47.058824%, 83.137256%)"/><stop offset=".82" stop-color="rgb(36.862746%, 62.7451%, 93.725491%)"/></linearGradient><linearGradient gradientTransform="rotate(.086)scale(1.77778)" gradientUnits="userSpaceOnUse" id="azure-vm_svg__b" x1="8.88" x2="8.88" y1="16.84" y2="12.21"><stop offset=".15" stop-color="rgb(80.000001%, 80.000001%, 80.000001%)"/><stop offset="1" stop-color="rgb(43.921569%, 43.921569%, 43.921569%)"/></linearGradient></defs><path d="M.852.375h29.867a1.064 1.064 0 0 1 1.066 1.066v19.2a1.064 1.064 0 0 1-1.066 1.066H.852c-.59 0-1.067-.477-1.067-1.066V1.44C-.215.851.265.375.852.375m0 0" fill="url(#azure-vm_svg__a)"/><path d="M21.121 7.93v6.203l-5.336 3.129v-6.223Zm0 0" fill="rgb(31.37255%, 90.196079%, 100%)"/><path d="m21.121 7.93-5.336 3.129-5.332-3.13 5.332-3.113Zm0 0" fill="rgb(76.47059%, 94.509804%, 100%)"/><path d="M15.785 11.059v6.203l-5.332-3.13V7.93Zm0 0" fill="rgb(61.176473%, 92.156863%, 100%)"/><path d="m10.453 14.133 5.332-3.094v6.223Zm0 0" fill="rgb(76.47059%, 94.509804%, 100%)"/><path d="m21.121 14.133-5.336-3.094v6.223Zm0 0" fill="rgb(61.176473%, 92.156863%, 100%)"/><path d="M22.203 28.16c-3.164-.496-3.289-2.773-3.289-6.453h-6.273c0 3.68-.106 5.957-3.274 6.453a1.78 1.78 0 0 0-1.582 1.777h16a1.77 1.77 0 0 0-1.582-1.777" fill="url(#azure-vm_svg__b)"/></svg>