<svg role="img" viewBox="0 0 32 32" height="32" width="32" xmlns="http://www.w3.org/2000/svg"><defs><linearGradient gradientTransform="matrix(.8889 .00178 .00178 -.8889 -2234.97 -341.193)" gradientUnits="userSpaceOnUse" id="5__0__linear-pattern-0" x1="2525.57" x2="2525.544" y1="-412.026" y2="-402.136"><stop offset="0" stop-color="rgb(93.72549%, 44.313725%, 0%)"/><stop offset="1" stop-color="rgb(98.039216%, 63.529412%, 11.372549%)"/></linearGradient><linearGradient gradientTransform="scale(1.77778)" gradientUnits="userSpaceOnUse" id="6__1__linear-pattern-1" x1="12.79" x2="12.79" y1="17.38" y2="12.44"><stop offset="0" stop-color="rgb(93.72549%, 44.313725%, 0%)"/><stop offset="1" stop-color="rgb(98.039216%, 63.529412%, 11.372549%)"/></linearGradient><linearGradient gradientTransform="scale(1.77778)" gradientUnits="userSpaceOnUse" id="7__2__linear-pattern-2" x1="15.3" x2="15.3" y1="9.98" y2="5.04"><stop offset="0" stop-color="rgb(93.72549%, 44.313725%, 0%)"/><stop offset="1" stop-color="rgb(98.039216%, 63.529412%, 11.372549%)"/></linearGradient><linearGradient gradientTransform="scale(1.77778)" gradientUnits="userSpaceOnUse" id="8__3__linear-pattern-3" x1="2.7" x2="2.7" y1="9.98" y2="5.04"><stop offset="0" stop-color="rgb(93.72549%, 44.313725%, 0%)"/><stop offset="1" stop-color="rgb(98.039216%, 63.529412%, 11.372549%)"/></linearGradient><linearGradient gradientTransform="scale(1.77778)" gradientUnits="userSpaceOnUse" id="9__4__linear-pattern-4" x1="9" x2="9" y1="5.56" y2=".62"><stop offset="0" stop-color="rgb(93.72549%, 44.313725%, 0%)"/><stop offset="1" stop-color="rgb(98.039216%, 63.529412%, 11.372549%)"/></linearGradient></defs><path d="M28.445 12.8 18.203 5.493 16 3.875l-2.168 1.602L3.555 12.8l4 12.09.836 2.558H23.68l.8-2.558 3.965-12ZM10.238 24.89 6.684 13.833 16 7.109l9.387 6.739-3.555 11.058Zm0 0" fill="rgb(88.627451%, 47.45098%, 3.137255%)"/><path d="M13.406 26.508a4.393 4.393 0 0 1-8.785 0 4.392 4.392 0 0 1 8.785 0m0 0" fill="url(#5__0__linear-pattern-0)"/><path d="M27.129 26.508a4.39 4.39 0 0 1-4.39 4.39 4.39 4.39 0 0 1-4.391-4.39 4.39 4.39 0 0 1 4.39-4.39 4.39 4.39 0 0 1 4.39 4.39m0 0" fill="url(#6__1__linear-pattern-1)"/><path d="M31.59 13.352a4.39 4.39 0 0 1-4.39 4.39 4.39 4.39 0 0 1-4.391-4.39 4.39 4.39 0 0 1 4.39-4.391 4.39 4.39 0 0 1 4.39 4.39m0 0" fill="url(#7__2__linear-pattern-2)"/><path d="M9.191 13.352a4.39 4.39 0 0 1-4.39 4.39 4.39 4.39 0 0 1-4.39-4.39A4.39 4.39 0 0 1 4.8 8.96a4.39 4.39 0 0 1 4.39 4.39m0 0" fill="url(#8__3__linear-pattern-3)"/><path d="M20.39 5.492A4.39 4.39 0 0 1 16 9.882a4.39 4.39 0 0 1-4.39-4.39A4.39 4.39 0 0 1 16 1.102a4.39 4.39 0 0 1 4.39 4.39m0 0" fill="url(#9__4__linear-pattern-4)"/></svg>