<svg role="img" viewBox="0 0 32 32" xmlns="http://www.w3.org/2000/svg"><defs><linearGradient gradientTransform="rotate(.086)scale(1.77778)" gradientUnits="userSpaceOnUse" id="azure-disk-snapshot_svg__a" x1="9.01" x2="9.01" y1="11.69" y2="2.48"><stop offset="0" stop-color="rgb(0%, 47.058824%, 83.137256%)"/><stop offset=".54" stop-color="rgb(20.784314%, 55.686277%, 89.019608%)"/><stop offset="1" stop-color="rgb(36.862746%, 62.7451%, 93.725491%)"/></linearGradient></defs><path d="M16.02 15.344c-5.961 0-10.793 1.98-10.793 4.426 0 2.445 4.832 4.425 10.793 4.425 5.957 0 10.789-1.98 10.789-4.425 0-2.446-4.832-4.426-10.79-4.426" fill="rgb(46.27451%, 73.725492%, 17.647059%)"/><path d="M16.285 18.754c-1.984 0-3.594.437-3.594.98 0 .54 1.61.977 3.594.977 1.985 0 3.59-.438 3.59-.977 0-.543-1.605-.98-3.59-.98" fill="rgb(36.862746%, 58.823532%, 14.117648%)"/><path d="M16.02 5.512c-5.961 0-10.793 1.98-10.793 4.426 0 2.445 4.832 4.425 10.793 4.425 5.957 0 10.789-1.98 10.789-4.425 0-2.446-4.832-4.426-10.79-4.426" fill="url(#azure-disk-snapshot_svg__a)"/><path d="M16.285 8.906c-1.984 0-3.594.438-3.594.977 0 .543 1.61.98 3.594.98 1.985 0 3.59-.437 3.59-.98 0-.54-1.605-.977-3.59-.977" fill="rgb(0%, 35.686275%, 63.137257%)"/><path d="M6.914.215H1.582a1 1 0 0 0-.758.293 1.03 1.03 0 0 0-.308.754v5.332c0 .136.054.27.152.363a.5.5 0 0 0 .363.152h.586a.5.5 0 0 0 .375-.144.5.5 0 0 0 .16-.371V1.777h4.762a.52.52 0 0 0 .379-.144.53.53 0 0 0 .156-.371V.746a.52.52 0 0 0-.535-.531m23.309 0H24.89a.55.55 0 0 0-.38.152.54.54 0 0 0-.156.38v.57a.533.533 0 0 0 .536.46h4.777v4.801a.513.513 0 0 0 .555.531h.586a.5.5 0 0 0 .375-.144.5.5 0 0 0 .16-.371V1.262c0-.29-.121-.567-.332-.766-.215-.2-.5-.3-.79-.281M6.915 30.594H2.152v-4.797a.5.5 0 0 0-.16-.371.5.5 0 0 0-.375-.145h-.586a.515.515 0 0 0-.515.516v5.332a1.02 1.02 0 0 0 .297.738c.19.2.457.313.734.313h5.332a.54.54 0 0 0 .379-.145.53.53 0 0 0 .156-.37v-.571a.535.535 0 0 0-.5-.5m23.824-5.313h-.515a.5.5 0 0 0-.364.153.5.5 0 0 0-.152.363v4.797h-4.816a.557.557 0 0 0-.536.535v.57c.012.29.25.516.536.516h5.332c.582 0 1.047-.473 1.047-1.05v-5.333a.51.51 0 0 0-.528-.55" fill="rgb(58.039218%, 58.039218%, 58.039218%)"/><path d="M16 24.105c5.957 0 10.793-1.972 10.793-4.425v2.613c-.125 2.383-4.945 4.375-10.793 4.375s-10.793-1.992-10.793-4.43V19.68c.02 2.453 4.856 4.425 10.793 4.425" fill="rgb(36.862746%, 58.823532%, 14.117648%)"/><path d="M16 14.223c5.957 0 10.793-1.993 10.793-4.426v2.648c-.125 2.399-4.945 4.301-10.793 4.301S5.227 14.754 5.227 12.301V9.848c0 2.437 4.836 4.375 10.773 4.375" fill="rgb(0%, 47.058824%, 83.137256%)"/></svg>