<svg role="img" viewBox="0 0 32 32" xmlns="http://www.w3.org/2000/svg"><defs><linearGradient gradientTransform="rotate(.086)scale(1.77778)" gradientUnits="userSpaceOnUse" id="azure-availability-set_svg__a" x1="10.31" x2="10.31" y1="12.7" y2="6.83"><stop offset="0" stop-color="rgb(0%, 47.058824%, 83.137256%)"/><stop offset=".82" stop-color="rgb(36.862746%, 62.7451%, 93.725491%)"/></linearGradient><linearGradient gradientTransform="rotate(.086)scale(1.77778)" gradientUnits="userSpaceOnUse" id="azure-availability-set_svg__b" x1="10.31" x2="10.31" y1="14.97" y2="12.7"><stop offset=".15" stop-color="rgb(80.000001%, 80.000001%, 80.000001%)"/><stop offset="1" stop-color="rgb(43.921569%, 43.921569%, 43.921569%)"/></linearGradient></defs><path d="M3.77.89h3.5v1.012h-3.5Zm25.793 1.012h.57v.551h.976V.891h-1.547ZM2.508 30.027h-.5v-.57H.89v1.652h1.617Zm27.625-.515v.515h-.57v1.082h1.546v-1.597ZM2.008 2.418v-.516h.5V.891H.89v1.527Zm4.5 3.895h14.594c.136 0 .27.054.363.152a.5.5 0 0 1 .152.363v9.422c0 .285-.23.516-.515.516H6.508a.52.52 0 0 1-.516-.516V6.828a.52.52 0 0 1 .516-.516m0 0" fill="rgb(0%, 47.058824%, 83.137256%)"/><path d="M16.41 10.027v3.04l-2.597 1.527v-3.055Zm0 0" fill="rgb(31.37255%, 90.196079%, 100%)"/><path d="m16.41 10.027-2.597 1.528-2.614-1.528 2.614-1.53Zm0 0" fill="rgb(76.47059%, 94.509804%, 100%)"/><path d="M13.813 11.555v3.039l-2.614-1.528v-3.039Zm0 0" fill="rgb(61.176473%, 92.156863%, 100%)"/><path d="M11.023 12.14h14.594c.285 0 .516.231.516.516v9.422c0 .285-.23.516-.516.516H11.023a.515.515 0 0 1-.515-.516v-9.422c0-.285.23-.515.515-.515m0 0" fill="url(#azure-availability-set_svg__a)"/><path d="M20.926 15.84v3.039l-2.598 1.531v-3.043Zm0 0" fill="rgb(31.37255%, 90.196079%, 100%)"/><path d="m20.926 15.84-2.598 1.527-2.613-1.527 2.613-1.527Zm0 0" fill="rgb(76.47059%, 94.509804%, 100%)"/><path d="M18.328 17.367v3.043l-2.613-1.531v-3.04Zm0 0" fill="rgb(61.176473%, 92.156863%, 100%)"/><path d="m15.715 18.879 2.613-1.512v3.043Zm0 0" fill="rgb(76.47059%, 94.509804%, 100%)"/><path d="m20.926 18.879-2.598-1.512v3.043Zm0 0" fill="rgb(61.176473%, 92.156863%, 100%)"/><path d="M21.457 25.742c-1.547-.25-1.598-1.367-1.598-3.164h-3.078c0 1.777 0 2.914-1.597 3.164a.91.91 0 0 0-.766.871h7.82a.91.91 0 0 0-.781-.87" fill="url(#azure-availability-set_svg__b)"/><path d="M9.012.89h3.504v1.012H9.012Zm5.226 0h3.504v1.012h-3.504Zm5.246 0h3.504v1.012h-3.504Zm5.246 0h3.5v1.012h-3.5ZM3.805 30.028h3.504v1.012H3.805Zm5.226 0h3.504v1.012H9.031Zm5.246 0h3.5v1.012h-3.5Zm5.243 0h3.503v1.012H19.52Zm5.226 0h3.504v1.012h-3.504Zm5.352-26.382h1.011v3.503h-1.011Zm0 5.226h1.011v3.504h-1.011Zm0 5.246h1.011v3.5h-1.011Zm0 5.227h1.011v3.5h-1.011Zm0 5.242h1.011v3.504h-1.011ZM.89 3.609h1.011v3.5H.891Zm0 5.243h1.011v3.503H.891Zm0 5.226h1.011v3.504H.891Zm0 5.246h1.011v3.504H.891Zm0 5.227h1.011v3.504H.891Zm0 0" fill="rgb(0%, 47.058824%, 83.137256%)"/></svg>