<?xml version="1.0" encoding="UTF-8"?>
<svg xmlns="http://www.w3.org/2000/svg" xmlns:xlink="http://www.w3.org/1999/xlink" width="32" height="32" viewBox="0 0 32 32">
<defs>
<linearGradient id="linear-pattern-0" gradientUnits="userSpaceOnUse" x1="13.25" y1="13.02" x2="8.62" y2="4.25" gradientTransform="matrix(1.777778, 0.00266842, -0.00266842, 1.777778, 0, 0)">
<stop offset="0" stop-color="rgb(9.803922%, 53.333333%, 85.098039%)" stop-opacity="1"/>
<stop offset="0.9" stop-color="rgb(32.941176%, 68.235294%, 94.117647%)" stop-opacity="1"/>
</linearGradient>
<linearGradient id="linear-pattern-1" gradientUnits="userSpaceOnUse" x1="11.26" y1="10.47" x2="14.46" y2="15.99" gradientTransform="matrix(1.777778, 0.00266842, -0.00266842, 1.777778, 0, 0)">
<stop offset="0.1" stop-color="rgb(32.941176%, 68.235294%, 94.117647%)" stop-opacity="1"/>
<stop offset="0.29" stop-color="rgb(30.980392%, 67.058824%, 93.333333%)" stop-opacity="1"/>
<stop offset="0.51" stop-color="rgb(25.490196%, 63.529412%, 91.372549%)" stop-opacity="1"/>
<stop offset="0.74" stop-color="rgb(16.470588%, 57.647059%, 87.843137%)" stop-opacity="1"/>
<stop offset="0.88" stop-color="rgb(9.803922%, 53.333333%, 85.098039%)" stop-opacity="1"/>
</linearGradient>
</defs>
<path fill-rule="nonzero" fill="rgb(31.372549%, 90.196078%, 100%)" fill-opacity="1" d="M 1.796875 18.117188 L 15.875 27.253906 L 30.203125 18.078125 L 32 20.179688 L 15.875 30.558594 L 0 20.179688 Z M 1.796875 18.117188 "/>
<path fill-rule="nonzero" fill="rgb(100%, 100%, 100%)" fill-opacity="1" d="M 2.863281 16.941406 L 15.875 1.441406 L 29.15625 16.960938 L 15.875 25.351562 Z M 2.863281 16.941406 "/>
<path fill-rule="nonzero" fill="rgb(31.372549%, 90.196078%, 100%)" fill-opacity="1" d="M 15.875 1.441406 L 15.875 25.351562 L 2.863281 16.941406 Z M 15.875 1.441406 "/>
<path fill-rule="nonzero" fill="url(#linear-pattern-0)" d="M 15.875 1.441406 L 15.875 25.351562 L 29.15625 16.960938 Z M 15.875 1.441406 "/>
<path fill-rule="nonzero" fill="rgb(32.54902%, 69.411765%, 87.843137%)" fill-opacity="1" d="M 15.875 13.796875 L 29.15625 16.960938 L 15.875 25.351562 Z M 15.875 13.796875 "/>
<path fill-rule="nonzero" fill="rgb(61.176471%, 92.156863%, 100%)" fill-opacity="1" d="M 15.875 25.351562 L 2.863281 16.941406 L 15.875 13.796875 Z M 15.875 25.351562 "/>
<path fill-rule="nonzero" fill="url(#linear-pattern-1)" d="M 15.875 30.558594 L 32 20.179688 L 30.203125 18.078125 L 15.875 27.253906 Z M 15.875 30.558594 "/>
</svg>
