<svg role="img" viewBox="0 0 32 32" xmlns="http://www.w3.org/2000/svg"><defs><linearGradient gradientTransform="rotate(.086)scale(1.77778)" gradientUnits="userSpaceOnUse" id="azure-aks_svg__a" x1="2.94" x2="8.67" y1="3.74" y2="3.74"><stop offset="0" stop-color="rgb(71.764708%, 47.843137%, 95.686275%)"/><stop offset="1" stop-color="rgb(46.666667%, 22.745098%, 86.274511%)"/></linearGradient><linearGradient gradientTransform="rotate(.086)scale(1.77778)" gradientUnits="userSpaceOnUse" id="azure-aks_svg__b" x1="9.13" x2="14.85" y1="3.79" y2="3.79"><stop offset="0" stop-color="rgb(71.764708%, 47.843137%, 95.686275%)"/><stop offset="1" stop-color="rgb(46.666667%, 22.745098%, 86.274511%)"/></linearGradient><linearGradient gradientTransform="rotate(.086)scale(1.77778)" gradientUnits="userSpaceOnUse" id="azure-aks_svg__c" x1=".01" x2="5.73" y1="9.12" y2="9.12"><stop offset="0" stop-color="rgb(71.764708%, 47.843137%, 95.686275%)"/><stop offset="1" stop-color="rgb(46.666667%, 22.745098%, 86.274511%)"/></linearGradient><linearGradient gradientTransform="rotate(.086)scale(1.77778)" gradientUnits="userSpaceOnUse" id="azure-aks_svg__d" x1="6.18" x2="11.9" y1="9.08" y2="9.08"><stop offset="0" stop-color="rgb(71.764708%, 47.843137%, 95.686275%)"/><stop offset="1" stop-color="rgb(46.666667%, 22.745098%, 86.274511%)"/></linearGradient><linearGradient gradientTransform="rotate(.086)scale(1.77778)" gradientUnits="userSpaceOnUse" id="azure-aks_svg__e" x1="12.35" x2="18.08" y1="9.13" y2="9.13"><stop offset="0" stop-color="rgb(71.764708%, 47.843137%, 95.686275%)"/><stop offset="1" stop-color="rgb(46.666667%, 22.745098%, 86.274511%)"/></linearGradient><linearGradient gradientTransform="rotate(.086)scale(1.77778)" gradientUnits="userSpaceOnUse" id="azure-aks_svg__f" x1="2.87" x2="8.6" y1="14.56" y2="14.56"><stop offset="0" stop-color="rgb(71.764708%, 47.843137%, 95.686275%)"/><stop offset="1" stop-color="rgb(46.666667%, 22.745098%, 86.274511%)"/></linearGradient><linearGradient gradientTransform="rotate(.086)scale(1.77778)" gradientUnits="userSpaceOnUse" id="azure-aks_svg__g" x1="9.05" x2="14.78" y1="14.6" y2="14.6"><stop offset="0" stop-color="rgb(71.764708%, 47.843137%, 95.686275%)"/><stop offset="1" stop-color="rgb(46.666667%, 22.745098%, 86.274511%)"/></linearGradient></defs><path d="m10.313 2.168-5.086.941v6.934l5.086 1.086 5.101-2.043V3.91Zm0 0" fill="url(#azure-aks_svg__a)"/><path d="M5.227 3.11v6.933l5.136 1.086v-8.89Zm2.168 6.402-1.438-.285V3.895l1.438-.23Zm2.242.41-1.657-.27V3.555l1.657-.285Zm0 0" fill="rgb(20.392157%, 10.196079%, 43.137255%)"/><path d="m21.316 2.258-5.086.941v6.934l5.086 1.086 5.082-2.063V4Zm0 0" fill="url(#azure-aks_svg__b)"/><path d="M16.23 3.2v6.933l5.102 1.086v-8.89Zm2.153 6.402-1.442-.286V3.98l1.442-.23Zm2.238.406-1.652-.266V3.645l1.652-.301Zm0 0" fill="rgb(20.392157%, 10.196079%, 43.137255%)"/><path d="m5.102 11.734-5.082.942v6.933l5.082 1.082 5.101-2.043v-5.171Zm0 0" fill="url(#azure-aks_svg__c)"/><path d="M0 12.676v6.879l5.137 1.086V11.75Zm2.152 6.418-1.441-.301v-5.336l1.441-.25Zm2.258.46-1.656-.265v-6.168l1.656-.285Zm0 0" fill="rgb(20.392157%, 10.196079%, 43.137255%)"/><path d="m16.07 11.664-5.082.941v6.934l5.082 1.102 5.086-2.063v-5.172Zm0 0" fill="url(#azure-aks_svg__d)"/><path d="M10.988 12.605v6.95l5.117 1.086V11.75Zm2.149 6.418-1.438-.304v-5.332l1.438-.25Zm2.242.391-1.656-.266v-6.097l1.656-.285Zm0 0" fill="rgb(20.392157%, 10.196079%, 43.137255%)"/><path d="m27.04 11.75-5.083.941v6.934l5.082 1.086 5.102-2.043v-5.176Zm0 0" fill="url(#azure-aks_svg__e)"/><path d="M21.957 12.691v6.864l5.137 1.086V11.75Zm2.168 6.418-1.441-.3v-5.332l1.441-.25Zm2.238.395-1.652-.27v-6.097l1.652-.285Zm0 0" fill="rgb(20.392157%, 10.196079%, 43.137255%)"/><path d="m10.188 21.406-5.086.922v6.934l5.086 1.101 5.101-2.062v-5.153Zm0 0" fill="url(#azure-aks_svg__f)"/><path d="M5.102 22.328v6.934l5.136 1.101v-9.031Zm2.168 6.418-1.438-.3v-5.337l1.438-.246Zm2.242.41-1.653-.265v-6.118l1.653-.285Zm0 0" fill="rgb(20.392157%, 10.196079%, 43.137255%)"/><path d="m21.172 21.477-5.082.941v6.934l5.082 1.085 5.105-2.046v-5.172Zm0 0" fill="url(#azure-aks_svg__g)"/><path d="M16.09 22.418v6.934l5.137 1.085v-8.89Zm2.168 6.418-1.442-.3v-5.337l1.442-.25Zm2.238.39-1.652-.265v-6.098l1.652-.285Zm0 0" fill="rgb(20.392157%, 10.196079%, 43.137255%)"/></svg>