<svg role="img" viewBox="0 0 32 32" xmlns="http://www.w3.org/2000/svg"><defs><linearGradient gradientTransform="matrix(.88889 0 0 -.88889 5808.747 995.538)" gradientUnits="userSpaceOnUse" id="azure-app-registration_svg__a" x1="-6518.78" x2="-6518.78" y1="1118.86" y2="1090.06"><stop offset="0" stop-color="rgb(36.862746%, 62.7451%, 93.725491%)"/><stop offset=".18" stop-color="rgb(34.509805%, 61.960787%, 92.941177%)"/><stop offset=".41" stop-color="rgb(28.235295%, 59.215689%, 91.37255%)"/><stop offset=".66" stop-color="rgb(18.039216%, 54.901963%, 88.235295%)"/><stop offset=".94" stop-color="rgb(3.921569%, 48.627451%, 84.313726%)"/><stop offset="1" stop-color="rgb(0%, 47.058824%, 83.137256%)"/></linearGradient></defs><path d="M10.078 18.863h7.7v7.68h-7.7ZM1.191 8.621h7.7V.941H2.188A1.064 1.064 0 0 0 1.12 2.008Zm1.067 17.922H8.89v-7.68H1.12v6.614a1.064 1.064 0 0 0 1.067 1.066Zm-1.067-8.89h7.7v-7.75H1.12Zm17.918 8.89h6.614c.59 0 1.07-.477 1.07-1.066v-6.614h-7.754Zm-8.886-8.89h7.554v-7.75h-7.699Zm8.886 0h7.559v-7.75h-7.629Zm0-16.641v7.61h7.559V2.007c0-.59-.48-1.067-1.066-1.067Zm-8.886 7.68h7.554V.941h-7.699Zm0 0" fill="url(#azure-app-registration_svg__a)"/><path d="M30.879 19.023v8.016L24 31.06v-8.02Zm0 0" fill="rgb(19.607843%, 74.509805%, 86.666667%)"/><path d="M30.879 19.023 24 23.06l-6.879-4.036L24 15.003Zm0 0" fill="rgb(61.176473%, 92.156863%, 100%)"/><path d="M24 23.059v8l-6.879-4.02v-8.016Zm0 0" fill="rgb(31.37255%, 90.196079%, 100%)"/><path d="m17.121 27.04 6.879-4v8.019Zm0 0" fill="rgb(61.176473%, 92.156863%, 100%)"/><path d="m30.879 27.04-6.879-4v8.019Zm0 0" fill="rgb(31.37255%, 90.196079%, 100%)"/></svg>