<svg role="img" viewBox="0 0 32 32" height="32" width="32" xmlns="http://www.w3.org/2000/svg"><defs><linearGradient gradientTransform="rotate(.086)scale(1.77778)" gradientUnits="userSpaceOnUse" id="13__12__490__489__219__218__503__502__489__488__149__148__403__402__299__298__375__374__223__222__azure-advisor_svg__svg/azure-advisor.svg755__svg/azure-advisor.svg753__azure-advisor-lp-0" x1="9" x2="9" y1="-.88" y2="16.01"><stop offset=".22" stop-color="rgb(19.607843%, 83.137255%, 96.078431%)"/><stop offset=".43" stop-color="rgb(19.215686%, 81.960784%, 94.901961%)"/><stop offset=".6" stop-color="rgb(17.647059%, 77.647059%, 91.372549%)"/><stop offset=".76" stop-color="rgb(15.686275%, 70.980392%, 85.098039%)"/><stop offset=".91" stop-color="rgb(12.156863%, 61.568627%, 76.862745%)"/><stop offset="1" stop-color="rgb(9.803922%, 54.117647%, 70.196078%)"/></linearGradient></defs><path d="M31.11 16.781a6.84 6.84 0 0 0-5.903-6.648c-.145-4.727-4.07-8.457-8.797-8.356a8.89 8.89 0 0 0-8.445 5.848 8.144 8.144 0 0 0-7.113 7.93 8.279 8.279 0 0 0 2.59 5.793 8.28 8.28 0 0 0 5.925 2.261c.25.016.5.016.75 0h13.778c.117.02.238.02.355 0a6.929 6.929 0 0 0 6.86-6.828" fill="url(#13__12__490__489__219__218__503__502__489__488__149__148__403__402__299__298__375__374__223__222__azure-advisor_svg__svg/azure-advisor.svg755__svg/azure-advisor.svg753__azure-advisor-lp-0)"/><path d="m25.832 26.914-3.555 3.805a.464.464 0 0 1-.465.113.457.457 0 0 1-.32-.36L19.344 19.98a.456.456 0 0 1 .21-.425l2.348-.961a.466.466 0 0 1 .586.234l3.469 7.645c.047.16 0 .332-.125.441" fill="rgb(21.568627%, 76.078431%, 69.411765%)"/><path d="m14.223 26.914 3.554 3.805a.446.446 0 0 0 .47.113.454.454 0 0 0 .312-.36L20.71 19.98a.46.46 0 0 0-.266-.496l-2.347-.96a.46.46 0 0 0-.586.23l-3.469 7.644a.43.43 0 0 0 .18.516" fill="rgb(25.882353%, 90.980392%, 79.215686%)"/><path d="m20.586 10.668.465-.39a.729.729 0 0 1 1.012.085.66.66 0 0 1 .125.215l.21.57c.13.32.461.508.801.461l.586-.105a.727.727 0 0 1 .836.586c.02.082.02.164 0 .246l-.105.59a.74.74 0 0 0 .46.797l.57.199a.746.746 0 0 1 .427.941 1.153 1.153 0 0 1-.125.211l-.391.446a.745.745 0 0 0 0 .925l.39.461a.724.724 0 0 1-.105 1.016.777.777 0 0 1-.195.121l-.57.215a.715.715 0 0 0-.461.8l.105.587a.67.67 0 0 1-.117.535.675.675 0 0 1-.469.28.54.54 0 0 1-.25 0H23.2a.71.71 0 0 0-.8.466l-.212.55a.698.698 0 0 1-.375.407.692.692 0 0 1-.55.02.642.642 0 0 1-.211-.126l-.446-.445a.715.715 0 0 0-.925 0l-.461.375a.7.7 0 0 1-.528.168.704.704 0 0 1-.488-.258.506.506 0 0 1-.125-.21l-.21-.555a.689.689 0 0 0-.802-.461l-.586.105a.73.73 0 0 1-.632-.2.744.744 0 0 1-.203-.632l.105-.59a.692.692 0 0 0-.46-.797l-.552-.215a.752.752 0 0 1-.515-.89c.035-.074.074-.145.125-.211l.39-.465a.74.74 0 0 0 0-.922l-.39-.445a.727.727 0 0 1-.16-.54.73.73 0 0 1 .265-.491.414.414 0 0 1 .215-.106l.55-.215a.744.744 0 0 0 .462-.8l-.035-.532a.727.727 0 0 1 .585-.836h.25l.586.106a.726.726 0 0 0 .801-.461l.211-.586a.735.735 0 0 1 .926-.43l.215.125.46.39a.726.726 0 0 0 .907-.085" fill="rgb(0%, 35.686275%, 63.137255%)"/><path d="M20.14 11.84a4.189 4.189 0 0 0-2.968 1.23 4.208 4.208 0 0 0-1.227 2.97 4.193 4.193 0 0 0 4.196 4.19 4.2 4.2 0 0 0 4.105-4.195 4.2 4.2 0 0 0-4.105-4.195" fill="rgb(100%, 79.215686%, 0%)"/></svg>