<svg role="img" viewBox="0 0 32 32" xmlns="http://www.w3.org/2000/svg"><defs><linearGradient gradientTransform="rotate(-.086 -5083.573 -1458.785)scale(1.77778)" gradientUnits="userSpaceOnUse" id="azure-postgres_svg__a" x1="2.44" x2="15.27" y1="10.67" y2="10.67"><stop offset="0" stop-color="rgb(0%, 35.686275%, 63.137257%)"/><stop offset=".07" stop-color="rgb(0%, 37.64706%, 66.274512%)"/><stop offset=".36" stop-color="rgb(0%, 44.313726%, 78.431374%)"/><stop offset=".52" stop-color="rgb(0%, 47.058824%, 83.137256%)"/><stop offset=".64" stop-color="rgb(0%, 45.490196%, 80.392158%)"/><stop offset=".82" stop-color="rgb(0%, 41.568628%, 73.333335%)"/><stop offset="1" stop-color="rgb(0%, 35.686275%, 63.137257%)"/></linearGradient></defs><path d="M16 9.137c-6.293 0-11.395-1.778-11.395-4.125v21.976c0 2.258 5.012 4.086 11.235 4.121H16c6.293 0 11.395-1.777 11.395-4.12V5.011c0 2.277-5.102 4.125-11.395 4.125" fill="url(#azure-postgres_svg__a)"/><path d="M27.395 5.012c0 2.277-5.102 4.125-11.395 4.125S4.605 7.359 4.605 5.012C4.605 2.668 9.707.89 16 .89s11.395 1.777 11.395 4.117" fill="rgb(90.980393%, 90.980393%, 90.980393%)"/><path d="M24.73 4.676c0 1.457-3.914 2.633-8.73 2.633S7.254 6.133 7.254 4.69c0-1.437 3.91-2.628 8.746-2.628s8.73 1.171 8.73 2.613" fill="rgb(31.37255%, 90.196079%, 100%)"/><path d="M16 5.332a20.7 20.7 0 0 0-6.934 1.016 20.6 20.6 0 0 0 6.934.96 20.5 20.5 0 0 0 6.914-1.03A21.2 21.2 0 0 0 16 5.331" fill="rgb(9.803922%, 54.11765%, 70.19608%)"/><path d="M21.332 16v.746q-.105.558-.14 1.121c0 .211 0 .531.09.817.085.285 0 .48 0 .64-.009.54-.16 1.07-.446 1.528a1 1 0 0 0 0 .125l.176.214c.8-1.328 1.433-2.75 1.886-4.23.497-1.691.551-2.898.16-3.414a4.59 4.59 0 0 0-4.765-1.527 5.9 5.9 0 0 1 1.617 1.187A4.07 4.07 0 0 1 21.332 16m-.55.14a2.05 2.05 0 0 0-1.403.16c-.516.321-.356.981 0 1.778q.264.774.621 1.512l.16.285c.09.145.14.266.195.355l.141.23c.211-.347.32-.745.32-1.151q.018-.299 0-.59c0-.301 0-.64-.086-.871q.035-.616.141-1.227a1.4 1.4 0 0 1-.02-.531Zm-.532.731a.7.7 0 0 1-.32.18.7.7 0 0 1-.25 0 .43.43 0 0 1-.125-.34c0-.125.195-.23.425-.266h.34s.16 0 .16.14a.36.36 0 0 1-.16.231Zm-8.34 1.582v-.3a2 2 0 0 0 0-.305c-.05-.59-.05-1.188 0-1.778a9 9 0 0 1 .535-1.953 4.25 4.25 0 0 1 1.032-1.672 8.5 8.5 0 0 0-2.403-.355 3.3 3.3 0 0 0-1.953.531A3.57 3.57 0 0 0 8 15.86c.172 1.352.469 2.684.89 3.98.602 2.028 1.297 3.27 1.903 3.47.266.086.55 0 .832-.375.5-.606.96-1.122 1.227-1.422a3.35 3.35 0 0 1-.872-3.114Zm.465.711c-.008.336.027.672.105.996q.167.429.461.781c.176.192.387.34.621.446.223.09.458.136.696.14 0-.3.25-.675.41-1.066q.223-.511.371-1.047a12 12 0 0 0 0-1.973c0-.16 0-.34-.105-.535a.8.8 0 0 0-.215-.48 1.2 1.2 0 0 0-.496-.285h-.356c-.297.039-.586.12-.855.25q-.298.14-.567.34v1.277q.012.135 0 .27v.69Zm1.172-2.383c.16-.05.336-.05.496 0 .117.016.234.055.34.11.16 0 .176.195.16.246a.64.64 0 0 1-.215.23.5.5 0 0 1-.105-.07.615.615 0 0 1-.5-.496Zm1.316 5.336a.4.4 0 0 0-.23.106l-.25.3c-.305.375-.426.5-1.297.676a.9.9 0 0 0-.465.18c.125.098.274.164.43.195.414.133.863.133 1.277 0q.38-.181.695-.465c.172-.14.297-.336.356-.55a.64.64 0 0 0-.18-.497.26.26 0 0 0-.265-.035Zm8.196 0a2.9 2.9 0 0 1-2.008 0 .4.4 0 0 0-.25 0 .53.53 0 0 0-.305.246 2.2 2.2 0 0 0 0 .551 3.2 3.2 0 0 0 1.957-.176c.324-.136.617-.343.856-.605Zm-4.266-3.805c-.25-.73-.605-1.777.316-2.417.48-.27 1.04-.364 1.582-.27a5.6 5.6 0 0 0-1.136-2.043l-.285-.285a.7.7 0 0 0-.106-.106 4.1 4.1 0 0 0-1.191-.746 4.6 4.6 0 0 0-1.973-.39 2.7 2.7 0 0 0-1.246.195 3 3 0 0 0-.531.195 3.73 3.73 0 0 0-1.317 1.778q-.265.874-.37 1.777a2.96 2.96 0 0 1 1.777-.41 1.5 1.5 0 0 1 1.023.523c.254.305.379.7.344 1.094a13 13 0 0 1 0 2.258 6.3 6.3 0 0 1-.41 1.12c-.106.306-.247.622-.32.872a.9.9 0 0 1 .675.25c.25.246.375.594.34.941H16v.426a11.6 11.6 0 0 0 .426 4.34c.101.164.25.293.426.371.164.11.355.172.554.18a2.3 2.3 0 0 0 1.778-.606c.304-.316.484-.734.515-1.172.121-.8.39-3.023.426-3.554a1.28 1.28 0 0 1 .16-.785 1.15 1.15 0 0 1 .48-.426 9.5 9.5 0 0 1-1.902-3.219Zm0 0" fill="rgb(94.901961%, 94.901961%, 94.901961%)"/></svg>