<?xml version="1.0" encoding="UTF-8"?>
<svg xmlns="http://www.w3.org/2000/svg" xmlns:xlink="http://www.w3.org/1999/xlink" width="32" height="32" viewBox="0 0 32 32">
<defs>
<linearGradient id="linear-pattern-0" gradientUnits="userSpaceOnUse" x1="-6518.779785" y1="1118.859985" x2="-6518.779785" y2="1090.060059" gradientTransform="matrix(0.88889, 0, 0, -0.88889, 5808.74707, 995.538025)">
<stop offset="0" stop-color="rgb(36.862745%, 62.745098%, 93.72549%)" stop-opacity="1"/>
<stop offset="0.18" stop-color="rgb(34.509804%, 61.960784%, 92.941176%)" stop-opacity="1"/>
<stop offset="0.41" stop-color="rgb(28.235294%, 59.215686%, 91.372549%)" stop-opacity="1"/>
<stop offset="0.66" stop-color="rgb(18.039216%, 54.901961%, 88.235294%)" stop-opacity="1"/>
<stop offset="0.94" stop-color="rgb(3.921569%, 48.627451%, 84.313725%)" stop-opacity="1"/>
<stop offset="1" stop-color="rgb(0%, 47.058824%, 83.137255%)" stop-opacity="1"/>
</linearGradient>
</defs>
<path fill-rule="nonzero" fill="url(#linear-pattern-0)" d="M 10.078125 18.863281 L 17.777344 18.863281 L 17.777344 26.542969 L 10.078125 26.542969 Z M 1.191406 8.621094 L 8.890625 8.621094 L 8.890625 0.941406 L 2.1875 0.941406 C 1.90625 0.941406 1.632812 1.050781 1.433594 1.253906 C 1.230469 1.453125 1.121094 1.722656 1.121094 2.007812 Z M 2.257812 26.542969 L 8.890625 26.542969 L 8.890625 18.863281 L 1.121094 18.863281 L 1.121094 25.476562 C 1.121094 25.761719 1.230469 26.03125 1.433594 26.230469 C 1.632812 26.433594 1.902344 26.542969 2.1875 26.542969 Z M 1.191406 17.652344 L 8.890625 17.652344 L 8.890625 9.902344 L 1.121094 9.902344 Z M 19.109375 26.542969 L 25.722656 26.542969 C 26.3125 26.542969 26.792969 26.066406 26.792969 25.476562 L 26.792969 18.863281 L 19.039062 18.863281 Z M 10.222656 17.652344 L 17.777344 17.652344 L 17.777344 9.902344 L 10.078125 9.902344 Z M 19.109375 17.652344 L 26.667969 17.652344 L 26.667969 9.902344 L 19.039062 9.902344 Z M 19.109375 1.011719 L 19.109375 8.621094 L 26.667969 8.621094 L 26.667969 2.007812 C 26.667969 1.417969 26.1875 0.941406 25.601562 0.941406 Z M 10.222656 8.691406 L 17.777344 8.691406 L 17.777344 0.941406 L 10.078125 0.941406 Z M 10.222656 8.691406 "/>
<path fill-rule="nonzero" fill="rgb(19.607843%, 74.509804%, 86.666667%)" fill-opacity="1" d="M 30.878906 19.023438 L 30.878906 27.039062 L 24 31.058594 L 24 23.039062 Z M 30.878906 19.023438 "/>
<path fill-rule="nonzero" fill="rgb(61.176471%, 92.156863%, 100%)" fill-opacity="1" d="M 30.878906 19.023438 L 24 23.058594 L 17.121094 19.023438 L 24 15.003906 Z M 30.878906 19.023438 "/>
<path fill-rule="nonzero" fill="rgb(31.372549%, 90.196078%, 100%)" fill-opacity="1" d="M 24 23.058594 L 24 31.058594 L 17.121094 27.039062 L 17.121094 19.023438 Z M 24 23.058594 "/>
<path fill-rule="nonzero" fill="rgb(61.176471%, 92.156863%, 100%)" fill-opacity="1" d="M 17.121094 27.039062 L 24 23.039062 L 24 31.058594 Z M 17.121094 27.039062 "/>
<path fill-rule="nonzero" fill="rgb(31.372549%, 90.196078%, 100%)" fill-opacity="1" d="M 30.878906 27.039062 L 24 23.039062 L 24 31.058594 Z M 30.878906 27.039062 "/>
</svg>
