<svg role="img" viewBox="0 0 32 32" height="32" width="32" xmlns="http://www.w3.org/2000/svg"><defs><linearGradient gradientTransform="scale(1.77778)" gradientUnits="userSpaceOnUse" id="2__0__linear-pattern-0" x1="9" x2="9" y1="5.38" y2="0"><stop offset=".199" stop-color="rgb(0%, 35.686275%, 63.137255%)"/><stop offset="1" stop-color="rgb(0%, 47.058824%, 83.137255%)"/></linearGradient><linearGradient gradientTransform="scale(1.77778)" gradientUnits="userSpaceOnUse" id="3__1__linear-pattern-1" x1="9" x2="9" y1="12.713" y2="5.287"><stop offset="0" stop-color="rgb(9.803922%, 54.117647%, 70.196078%)"/><stop offset=".172" stop-color="rgb(19.607843%, 74.509804%, 86.666667%)"/><stop offset=".5" stop-color="rgb(31.372549%, 90.196078%, 100%)"/><stop offset=".5" stop-color="rgb(30.980392%, 89.411765%, 99.215686%)"/><stop offset=".5" stop-color="rgb(29.411765%, 86.666667%, 97.254902%)"/><stop offset=".5" stop-color="rgb(26.666667%, 82.352941%, 93.333333%)"/><stop offset=".5" stop-color="rgb(22.745098%, 75.686275%, 87.843137%)"/><stop offset=".5" stop-color="rgb(17.647059%, 67.058824%, 80.784314%)"/><stop offset=".5" stop-color="rgb(11.372549%, 56.470588%, 72.156863%)"/><stop offset=".5" stop-color="rgb(9.803922%, 54.117647%, 70.196078%)"/><stop offset=".662" stop-color="rgb(19.607843%, 74.509804%, 86.666667%)"/><stop offset=".975" stop-color="rgb(31.372549%, 90.196078%, 100%)"/></linearGradient></defs><path d="M16 0 2.043 7.98v15.95L16 32l13.957-7.98v-16Zm11.379 22.348L16 28.926 4.621 22.414V9.562L16 2.989l11.379 6.594Zm0 0" fill="rgb(0%, 47.058824%, 83.137255%)"/><path d="M16 0 2.043 7.98l2.578 1.582L16 2.989l11.379 6.575 2.578-1.583Zm0 0" fill="url(#2__0__linear-pattern-0)"/><path d="M22.648 18.621a1.3 1.3 0 0 0-.574-.508 10.38 10.38 0 0 0-7.96-5.949l11.515-6.652-2.68-1.535-13.11 7.578a1.333 1.333 0 0 0 .669 2.488 1 1 0 0 0 .16-.04l.223.93a7.68 7.68 0 0 1 8.597 3.977L6.422 26.46 9.09 28l13.07-7.555c.176-.105.324-.25.434-.422l.133-.03c-.016-.052-.036-.098-.047-.15.191-.386.18-.843-.032-1.222m0 0" fill="rgb(31.372549%, 90.196078%, 100%)"/><path d="M21.496 16.023a3.29 3.29 0 1 0 0 6.579 3.29 3.29 0 0 0 0-6.579m-10.992-6.66a3.29 3.29 0 1 0 0 6.579 3.29 3.29 0 0 0 0-6.579m0 0" fill="url(#3__1__linear-pattern-1)"/></svg>