<svg role="img" viewBox="0 0 32 32" height="32" width="32" xmlns="http://www.w3.org/2000/svg"><defs><clipPath id="10__5__0__clip-0"><path d="M0 0h32v32H0Zm0 0"/></clipPath><clipPath id="11__6__1__clip-1"><path d="M0 0h32v32H0z"/></clipPath><filter height="100%" id="12__7__2__filter-remove-color" width="100%" x="0%" y="0%"><feColorMatrix color-interpolation-filters="sRGB" values="0 0 0 0 1 0 0 0 0 1 0 0 0 0 1 0 0 0 1 0"/></filter><mask id="13__8__3__mask-0"><g filter="url(#12__7__2__filter-remove-color)"><path d="M-3.2-3.2h38.4v38.4H-3.2z" fill-opacity=".01"/></g></mask><g clip-path="url(#11__6__1__clip-1)" id="14__9__4__source-6"><g clip-path="url(#10__5__0__clip-0)"><path d="M31.36.64v30.72H.64V.64h30.72M32 0H0v32h32Zm0 0" fill="none" stroke="rgb(100%, 100%, 100%)" stroke-miterlimit="10" stroke-width=".001"/></g></g></defs><g mask="url(#13__8__3__mask-0)"><use href="#14__9__4__source-6"/></g><path d="M14.273 23.871c-4.16 2.883-10.816 7.297-11.457 7.809-.832.578-2.046.32-2.433-.192C0 30.91 0 29.695.832 29.121c.512-.32 9.281-6.273 11.969-8.129l1.535 1.664c.703.703-.063 1.215-.063 1.215m-.195-4.031s-7.68-8.254-8.574-9.152c-.832-.961-.063-2.047.383-2.43C6.336 7.87 7.68 7.297 8.383 8c.707.703 9.281 9.922 9.922 10.625.64.703.574 1.79-.512 2.559-.191.128-.703.511-1.473 1.023a5 5 0 0 1-.703.512s.703-.512.192-1.086Zm5.508-5.442c3.453 3.715 8.828 9.54 9.406 10.114.703.77 1.918.77 2.434.32.512-.45.765-1.602.062-2.367-.383-.45-7.617-8.192-9.793-10.563l-1.855 1.282c-.895.511-.254 1.214-.254 1.214m.766-3.773s9.28-6.465 10.304-7.234c1.024-.766.512-1.985.13-2.43-.388-.45-1.54-1.344-2.372-.77-.828.579-11.133 7.747-11.902 8.32-.77.579-.961 1.602 0 2.626.129.191.578.64 1.215 1.343.066.063.32.383.578.641 0 0-.578-.64.062-1.09Zm0 0" fill="rgb(0%, 44.705882%, 77.647059%)"/></svg>