<svg role="img" viewBox="0 0 32 32" height="32" width="32" xmlns="http://www.w3.org/2000/svg"><defs><linearGradient gradientTransform="rotate(.086)scale(1.77778)" gradientUnits="userSpaceOnUse" id="369__368__226__225__482__481__118__117__113__112__478__477__113__112__13__12__35__34__471__470__azure-network-interface_svg__svg/azure-network-interface.svg227__svg/azure-network-interface.svg225__azure-network-interface-lp-0" x1="9.01" x2="9.01" y1="16.5" y2="1.5"><stop offset="0" stop-color="rgb(36.862745%, 58.823529%, 25.490196%)"/><stop offset=".34" stop-color="rgb(41.960784%, 66.666667%, 25.882353%)"/><stop offset=".67" stop-color="rgb(45.098039%, 71.764706%, 26.27451%)"/><stop offset="1" stop-color="rgb(46.27451%, 73.333333%, 26.27451%)"/></linearGradient></defs><path d="M28.25 5.172h2.258c.332 0 .601.273.601.605V12c0 .332-.27.605-.601.605H28.25Zm0 10.828h2.258c.332 0 .601.27.601.605v10.418c0 .332-.27.602-.601.602H28.25Zm0 0" fill="rgb(100%, 79.215686%, 0%)"/><path d="M5.012 2.668h22.011c.676 0 1.227.547 1.227 1.227v24.21c0 .676-.55 1.227-1.227 1.227H5.012c-.676 0-1.227-.55-1.227-1.227V3.895c0-.676.55-1.227 1.227-1.227m0 0" fill="url(#369__368__226__225__482__481__118__117__113__112__478__477__113__112__13__12__35__34__471__470__azure-network-interface_svg__svg/azure-network-interface.svg227__svg/azure-network-interface.svg225__azure-network-interface-lp-0)"/><path d="M10.488 22.934H9.227a.351.351 0 0 1-.247-.118.334.334 0 0 1-.09-.257V7.715a.312.312 0 0 1 .09-.25.346.346 0 0 1 .247-.106h3.43a.34.34 0 0 1 .34.356.352.352 0 0 1-.095.258.351.351 0 0 1-.246.117H9.562v14.098h.926a.362.362 0 0 1 .34.37.377.377 0 0 1-.34.376m.18 1.812H7.82a.356.356 0 0 1-.336-.371l-.23-18.367a.36.36 0 0 1 .105-.266.274.274 0 0 1 .23-.105h5.067v.726h-4.71L8.16 24h2.508Zm10.664-1.637h-2.824a.342.342 0 0 1-.25-.12.32.32 0 0 1-.106-.25v-8.696a.326.326 0 0 1 .09-.25.34.34 0 0 1 .246-.105h1.617v-4h.676v4.34a.349.349 0 0 1-.32.37h-1.617v7.86h2.488Zm0 0" fill="rgb(70.588235%, 92.54902%, 21.176471%)"/><path d="M13.031 4.07h9.992c.254 0 .461.207.461.465v4.602c0 .254-.207.46-.46.465H13.03a.463.463 0 0 1-.46-.465V4.535c0-.258.206-.465.46-.465m2.703 15.575v7.785a.464.464 0 0 1-.464.465h-1.012a.448.448 0 0 1-.328-.137.445.445 0 0 1-.133-.328v-7.785c0-.254.207-.461.46-.461h1.013c.257 0 .464.207.464.46m-3.308.036v7.785c0 .254-.207.46-.461.465h-1.016a.465.465 0 0 1-.46-.465V19.68a.462.462 0 0 1 .46-.46l1.016-.001a.46.46 0 0 1 .46.46m0 0" fill="rgb(21.176471%, 33.72549%, 8.235294%)"/><path d="M23.059 19.68v7.785a.448.448 0 0 1-.137.328.448.448 0 0 1-.328.137h-1.012a.47.47 0 0 1-.46-.465V19.68c0-.121.046-.239.136-.325a.462.462 0 0 1 .324-.136h1.012c.258 0 .465.207.465.46m-8.641-7.343c-1.02 0-1.848.894-1.848 1.992 0 1.102.828 1.992 1.848 1.992s1.848-.89 1.848-1.992c0-1.098-.828-1.992-1.848-1.992" fill="rgb(94.901961%, 94.901961%, 94.901961%)"/><path d="M3.75 21.777H1.492a.6.6 0 0 1-.601-.53v-10.42c0-.336.27-.605.601-.605H3.75Zm0 0" fill="rgb(23.137255%, 23.137255%, 23.137255%)"/></svg>