<svg role="img" viewBox="0 0 32 32" xmlns="http://www.w3.org/2000/svg"><defs><linearGradient gradientTransform="scale(1.77778)" gradientUnits="userSpaceOnUse" id="azure-nat_svg__a" x1="9" x2="9" y1="18.17" y2="1.506"><stop offset="0" stop-color="rgb(13.725491%, 54.11765%, 69.01961%)"/><stop offset=".109" stop-color="rgb(17.647059%, 64.313728%, 78.431374%)"/><stop offset=".775" stop-color="rgb(24.313726%, 82.745099%, 94.901961%)"/></linearGradient></defs><path d="M.535 15.258 15.254.535c.41-.41 1.078-.41 1.488 0l14.723 14.723c.195.195.308.465.308.742s-.113.547-.308.742L16.742 31.465c-.41.41-1.074.41-1.488 0L.535 16.742a1.05 1.05 0 0 1 0-1.484m0 0" fill="url(#azure-nat_svg__a)"/><path d="m25.05 17.898-.636-.636v-2.453h-5.078v2.703h2.277l-5.718 5.722-5.723-5.722h2.312v-2.703H6.906v2.703h.211l-.383.386 7.996 7.997 1.165-1.16 1.16 1.16Zm0 0" fill="rgb(61.176473%, 92.156863%, 100%)"/><path d="M5.074 14.172a2.8 2.8 0 0 0-.761 2.738 2.83 2.83 0 0 0 2.019 2.012 2.8 2.8 0 0 0 2.734-.774 2.8 2.8 0 0 0 .762-2.738 2.82 2.82 0 0 0-2.02-2.012 2.8 2.8 0 0 0-2.734.774" fill="rgb(100%, 100%, 100%)"/><path d="M5.93 15.023a1.6 1.6 0 0 0 .015 2.262c.63.63 1.64.633 2.262.012.418-.399.586-.996.438-1.559a1.62 1.62 0 0 0-1.153-1.152 1.6 1.6 0 0 0-1.558.437" fill="rgb(52.549022%, 83.92157%, 20%)"/><path d="M22.918 14.172a2.79 2.79 0 0 0-.727 2.719 2.83 2.83 0 0 0 2.004 1.996 2.8 2.8 0 0 0 2.715-.739 2.81 2.81 0 0 0 .727-2.718 2.83 2.83 0 0 0-2.004-1.992 2.8 2.8 0 0 0-2.715.734" fill="rgb(100%, 100%, 100%)"/><path d="M23.777 15.023c-.418.403-.586 1-.437 1.559a1.62 1.62 0 0 0 1.152 1.152 1.6 1.6 0 0 0 1.559-.437c.418-.402.586-1 .437-1.559a1.62 1.62 0 0 0-1.152-1.152 1.6 1.6 0 0 0-1.559.437" fill="rgb(52.549022%, 83.92157%, 20%)"/><path d="M19.625 8.543 16.07 4.988a.26.26 0 0 0-.187-.078c-.07 0-.14.027-.192.078l-3.554 3.555a.26.26 0 0 0-.059.293c.04.101.137.168.246.164h2.02c.105 0 .191.086.191.191v18.246h2.711V9.192c0-.101.074-.183.176-.191h2.012a.26.26 0 0 0 .25-.16.27.27 0 0 0-.059-.297m-5.738 14.605a2.8 2.8 0 0 0-.723 2.72 2.84 2.84 0 0 0 2 1.995 2.81 2.81 0 0 0 2.719-.738 2.8 2.8 0 0 0 .722-2.719 2.84 2.84 0 0 0-2-1.996 2.81 2.81 0 0 0-2.718.738" fill="rgb(100%, 100%, 100%)"/><path d="M14.746 24a1.603 1.603 0 0 0 .016 2.266 1.603 1.603 0 0 0 2.265.007 1.603 1.603 0 0 0-.015-2.265A1.6 1.6 0 0 0 14.746 24" fill="rgb(52.549022%, 83.92157%, 20%)"/></svg>