<svg role="img" viewBox="0 0 32 32" height="32" width="32" xmlns="http://www.w3.org/2000/svg"><defs><linearGradient gradientTransform="rotate(.086)scale(1.77778)" gradientUnits="userSpaceOnUse" id="407__406__264__263__512__511__150__149__151__150__504__503__151__150__43__42__75__74__511__510__azure-activity-log_svg__svg/azure-activity-log.svg303__svg/azure-activity-log.svg301__azure-activity-log-lp-0" x1="8.15" x2="8.15" y1="17.5" y2="2.09"><stop offset="0" stop-color="rgb(9.803922%, 53.333333%, 85.098039%)"/><stop offset=".9" stop-color="rgb(32.941176%, 68.235294%, 94.117647%)"/></linearGradient></defs><path d="m3.43 3.75 2.152-2.504c.203-.23.496-.36.8-.355h20.641a1.443 1.443 0 0 1 1.582 1.472v25.778a1.03 1.03 0 0 1-.355.765l-2.312 2.117H4.836l-1.441-.585Zm0 0" fill="rgb(0%, 35.686275%, 63.137255%)"/><path d="m5.172 3.734 1.316-1.496a.91.91 0 0 1 .621-.316h19.364c.511 0 .922.414.922.922v24.5a.9.9 0 0 1-.301.691l-2.063 1.867Zm0 0" fill="rgb(100%, 100%, 100%)"/><path d="M24.89 3.715H3.556a.113.113 0 0 0-.106.105v26.668a.695.695 0 0 0 .692.676h20.75c.37 0 .672-.3.672-.676V4.41a.682.682 0 0 0-.672-.695" fill="url(#407__406__264__263__512__511__150__149__151__150__504__503__151__150__43__42__75__74__511__510__azure-activity-log_svg__svg/azure-activity-log.svg303__svg/azure-activity-log.svg301__azure-activity-log-lp-0)"/><path d="M8.89 11.023h10.7c.277 0 .5.223.5.497v3.234c0 .277-.223.5-.5.5H8.89a.502.502 0 0 1-.355-.145.502.502 0 0 1-.144-.355V11.52a.493.493 0 0 1 .5-.497m0 0" fill="rgb(100%, 100%, 100%)"/></svg>