<svg role="img" viewBox="0 0 32 32" height="32" width="32" xmlns="http://www.w3.org/2000/svg"><defs><linearGradient gradientTransform="rotate(.086)scale(1.77778)" gradientUnits="userSpaceOnUse" id="211__210__99__98__350__349__166__165__253__252__344__343__171__170__430__429__508__507__335__334__azure-storage_svg__svg/azure-storage.svg1003__svg/azure-storage.svg1001__azure-storage-lp-0" x1="9" x2="9" y1="15.83" y2="5.79"><stop offset="0" stop-color="rgb(70.196078%, 70.196078%, 70.196078%)"/><stop offset=".26" stop-color="rgb(75.686275%, 75.686275%, 75.686275%)"/><stop offset="1" stop-color="rgb(90.196078%, 90.196078%, 90.196078%)"/></linearGradient></defs><path d="M.89 10.293h30.22v16.855c0 .559-.454 1.012-1.012 1.012H1.902a.998.998 0 0 1-.714-.297.998.998 0 0 1-.297-.715Zm0 0" fill="url(#211__210__99__98__350__349__166__165__253__252__344__343__171__170__430__429__508__507__335__334__azure-storage_svg__svg/azure-storage.svg1003__svg/azure-storage.svg1001__azure-storage-lp-0)"/><path d="M1.902 3.86h28.196c.558 0 1.011.453 1.011 1.011v5.422H.891V4.852a1.01 1.01 0 0 1 1.011-.993" fill="rgb(21.568627%, 76.078431%, 69.411765%)"/><path d="M4.996 12.25h21.992a.476.476 0 0 1 .461.48v2.489a.481.481 0 0 1-.46.48H4.995a.481.481 0 0 1-.46-.48V12.73a.476.476 0 0 1 .46-.48" fill="rgb(100%, 100%, 100%)"/><path d="M5.012 17.207h21.992a.48.48 0 0 1 .46.48v2.508a.481.481 0 0 1-.46.48H5.012a.481.481 0 0 1-.461-.48v-2.418a.5.5 0 0 1 .097-.39.49.49 0 0 1 .364-.18" fill="rgb(21.568627%, 76.078431%, 69.411765%)"/><path d="M5.012 22.223h21.992c.258.007.46.222.46.48v2.504a.481.481 0 0 1-.46.48H5.012a.476.476 0 0 1-.461-.48v-2.504c0-.258.203-.473.46-.48" fill="rgb(14.509804%, 50.980392%, 46.666667%)"/></svg>