<svg role="img" viewBox="0 0 32 32" height="32" width="32" xmlns="http://www.w3.org/2000/svg"><defs><linearGradient gradientTransform="scale(1.77778)" gradientUnits="userSpaceOnUse" id="2__0__linear-pattern-0" x1="9" x2="9" y1="16.82" y2="1.18"><stop offset="0" stop-color="rgb(9.803922%, 54.117647%, 70.196078%)"/><stop offset=".09" stop-color="rgb(12.156863%, 61.568627%, 76.862745%)"/><stop offset=".24" stop-color="rgb(15.686275%, 70.980392%, 85.098039%)"/><stop offset=".4" stop-color="rgb(17.647059%, 77.647059%, 91.372549%)"/><stop offset=".57" stop-color="rgb(19.215686%, 81.960784%, 94.901961%)"/><stop offset=".78" stop-color="rgb(19.607843%, 83.137255%, 96.078431%)"/></linearGradient><linearGradient gradientTransform="scale(1.77778)" gradientUnits="userSpaceOnUse" id="3__1__linear-pattern-1" x1="8.36" x2="8.36" y1="11.35" y2="14.46"><stop offset="0" stop-color="rgb(77.647059%, 60.392157%, 92.156863%)"/><stop offset="1" stop-color="rgb(43.529412%, 29.411765%, 69.803922%)"/></linearGradient></defs><path d="M25.207 10.473a8.62 8.62 0 0 0-8.797-8.375 8.89 8.89 0 0 0-8.445 5.847A8.195 8.195 0 0 0 .89 16a8.3 8.3 0 0 0 8.515 8q.37.024.746 0h2.133a2.6 2.6 0 0 1-.195-.996 2.65 2.65 0 0 1 .355-1.297H9.406A6.06 6.06 0 0 1 3.148 16a5.916 5.916 0 0 1 5.172-5.812l1.352-.215.445-1.297a6.63 6.63 0 0 1 6.293-4.32 6.394 6.394 0 0 1 6.54 6.132v1.957l1.94.266a4.61 4.61 0 0 1 4.016 4.426 4.674 4.674 0 0 1-4.656 4.515h-2.187A6.97 6.97 0 0 0 15.183 16a1.15 1.15 0 0 0-1.105.52 1.14 1.14 0 0 0 0 1.218c.238.371.668.575 1.106.52a4.71 4.71 0 0 1 4.421 4.703 4.716 4.716 0 0 1-4.421 4.703 1.13 1.13 0 0 0-1.106.52 1.14 1.14 0 0 0 0 1.218c.238.371.668.575 1.106.52a6.97 6.97 0 0 0 6.879-5.942h1.867q.177.03.355 0a6.946 6.946 0 0 0 6.824-6.843 6.855 6.855 0 0 0-5.902-6.664m0 0" fill="url(#2__0__linear-pattern-0)"/><path d="M14.828 20.18h.07a2.736 2.736 0 0 1 2.739 2.734v.074a2.736 2.736 0 0 1-2.739 2.735h-.07a2.736 2.736 0 0 1-2.738-2.735v-.074a2.736 2.736 0 0 1 2.738-2.734m0 0" fill="url(#3__1__linear-pattern-1)"/></svg>