<?xml version="1.0" encoding="UTF-8"?>
<svg xmlns="http://www.w3.org/2000/svg" xmlns:xlink="http://www.w3.org/1999/xlink" width="32" height="32" viewBox="0 0 32 32">
<defs>
<linearGradient id="linear-pattern-0" gradientUnits="userSpaceOnUse" x1="10.56" y1="7.77" x2="10.56" y2="19.24" gradientTransform="matrix(1.777778, 0.00266842, -0.00266842, 1.777778, 0, 0)">
<stop offset="0.22" stop-color="rgb(19.607843%, 83.137255%, 96.078431%)" stop-opacity="1"/>
<stop offset="1" stop-color="rgb(9.803922%, 54.117647%, 70.196078%)" stop-opacity="1"/>
</linearGradient>
<linearGradient id="linear-pattern-1" gradientUnits="userSpaceOnUse" x1="10.23" y1="1.63" x2="11.07" y2="12.04" gradientTransform="matrix(1.777778, 0.00266842, -0.00266842, 1.777778, 0, 0)">
<stop offset="0.22" stop-color="rgb(19.607843%, 83.137255%, 96.078431%)" stop-opacity="1"/>
<stop offset="1" stop-color="rgb(9.803922%, 54.117647%, 70.196078%)" stop-opacity="1"/>
</linearGradient>
</defs>
<path fill-rule="nonzero" fill="url(#linear-pattern-0)" d="M 28.851562 30.523438 C 30.027344 30.542969 31 29.617188 31.039062 28.445312 L 31.039062 28.089844 C 30.167969 21.226562 26.257812 15.644531 18.792969 15.644531 C 11.324219 15.644531 7.269531 20.375 6.507812 28.089844 C 6.382812 29.296875 7.257812 30.375 8.460938 30.507812 L 28.851562 30.507812 Z M 28.851562 30.523438 "/>
<path fill-rule="nonzero" fill="url(#linear-pattern-1)" d="M 18.792969 3.503906 C 16.308594 3.460938 13.992188 4.761719 12.738281 6.910156 C 11.332031 9.320312 11.519531 12.34375 13.214844 14.5625 C 14.914062 16.777344 17.78125 17.75 20.476562 17.023438 C 23.785156 16.128906 25.929688 12.933594 25.503906 9.53125 C 25.082031 6.128906 22.21875 3.558594 18.792969 3.503906 "/>
<path fill-rule="nonzero" fill="rgb(0%, 47.058824%, 83.137255%)" fill-opacity="1" d="M 10.667969 10.453125 L 10.667969 1.777344 C 10.671875 1.699219 10.644531 1.621094 10.589844 1.566406 C 10.535156 1.507812 10.460938 1.476562 10.382812 1.476562 L 8.125 1.476562 C 8.042969 1.472656 7.960938 1.5 7.898438 1.558594 C 7.839844 1.613281 7.804688 1.695312 7.804688 1.777344 L 7.804688 10.152344 C 7.792969 10.3125 7.664062 10.4375 7.503906 10.453125 L 5.511719 10.453125 C 5.40625 10.4375 5.332031 10.34375 5.332031 10.238281 L 5.332031 7.910156 C 5.335938 7.828125 5.289062 7.753906 5.214844 7.722656 C 5.140625 7.691406 5.050781 7.710938 4.996094 7.769531 L 1.050781 11.679688 C 0.988281 11.734375 0.953125 11.8125 0.953125 11.894531 C 0.953125 11.976562 0.988281 12.050781 1.050781 12.105469 L 4.960938 16 C 4.980469 16.070312 5.035156 16.121094 5.105469 16.136719 C 5.175781 16.152344 5.25 16.128906 5.296875 16.074219 C 5.34375 16.019531 5.359375 15.941406 5.332031 15.875 L 5.332031 13.527344 C 5.332031 13.425781 5.410156 13.34375 5.511719 13.332031 L 10.382812 13.332031 C 10.539062 13.320312 10.664062 13.191406 10.667969 13.03125 Z M 10.667969 10.453125 "/>
</svg>
