<svg role="img" viewBox="0 0 32 32" xmlns="http://www.w3.org/2000/svg"><path d="M.89 26.809a.28.28 0 0 0 .141.25l2.063 1.156 3.484 2.008c.14.082.324.035.41-.106l1.172-1.992a.29.29 0 0 0-.105-.375l-4.09-2.309a.31.31 0 0 1-.145-.25V6.844c0-.102.055-.196.145-.25l4.09-2.309a.293.293 0 0 0 .105-.375L6.988 1.922a.3.3 0 0 0-.176-.16.3.3 0 0 0-.234.015L3.164 3.75 1.031 4.941a.28.28 0 0 0-.14.25Zm0 0" fill="rgb(58.039218%, 58.039218%, 58.039218%)"/><path d="m3.805 6.703.105-.11L8 4.286a.26.26 0 0 0 .145-.16.26.26 0 0 0-.04-.215L6.934 1.922a.28.28 0 0 0-.16-.168.27.27 0 0 0-.231.023L3.109 3.75.996 4.941s-.09 0-.105.11l1.597.906ZM8 27.715l-4.09-2.309a.4.4 0 0 1-.125-.16L.906 27.023h.09L3.04 28.18l3.555 1.972a.28.28 0 0 0 .222.035.3.3 0 0 0 .172-.144l1.172-1.988a.26.26 0 0 0-.004-.207.25.25 0 0 0-.156-.133" fill="rgb(63.921571%, 63.921571%, 63.921571%)"/><path d="M31.11 26.809a.28.28 0 0 1-.141.25l-2.063 1.156-3.484 2.008a.303.303 0 0 1-.41-.106l-1.172-1.992a.29.29 0 0 1 .105-.375l4.09-2.309a.31.31 0 0 0 .145-.25V6.844c0-.102-.055-.2-.145-.25l-4.09-2.309a.293.293 0 0 1-.105-.375l1.172-1.988a.3.3 0 0 1 .175-.16.3.3 0 0 1 .235.015l3.414 1.938 2.133 1.191c.09.051.144.149.14.25Zm0 0" fill="rgb(58.039218%, 58.039218%, 58.039218%)"/><path d="m28.195 6.703-.105-.11L24 4.286a.25.25 0 0 1-.145-.16.26.26 0 0 1 .04-.215l1.171-1.988a.3.3 0 0 1 .16-.168.27.27 0 0 1 .231.023l3.434 1.938 2.113 1.191.105.106-1.597.91ZM24 27.715l4.09-2.309a.4.4 0 0 0 .125-.16l2.879 1.777-2.043 1.157-3.559 1.972a.27.27 0 0 1-.219.035.3.3 0 0 1-.171-.144l-1.172-1.988a.254.254 0 0 1 .07-.34" fill="rgb(63.921571%, 63.921571%, 63.921571%)"/><path d="M25.441 10.543v10.914l-9.46 5.492V16.02Zm0 0" fill="rgb(19.607843%, 74.509805%, 86.666667%)"/><path d="M25.441 10.543 16 16.035l-9.457-5.492L16 5.051Zm0 0" fill="rgb(61.176473%, 92.156863%, 100%)"/><path d="M15.98 16.035V26.95l-9.437-5.492V10.543Zm0 0" fill="rgb(31.37255%, 90.196079%, 100%)"/><path d="m6.543 21.457 9.437-5.437v10.93Zm0 0" fill="rgb(61.176473%, 92.156863%, 100%)"/><path d="m25.441 21.457-9.46-5.437v10.93Zm0 0" fill="rgb(31.37255%, 90.196079%, 100%)"/></svg>