<svg role="img" viewBox="0 0 32 32" xmlns="http://www.w3.org/2000/svg"><defs><linearGradient gradientTransform="matrix(1.77778 0 0 2.82667 0 -2273.351)" gradientUnits="userSpaceOnUse" id="azure-disk_svg__a" x1="5.51" x2="12.94" y1="802.5" y2="810.58"><stop offset="0" stop-color="rgb(0%, 47.058824%, 83.137256%)"/><stop offset=".02" stop-color="rgb(5.098039%, 49.411765%, 84.705883%)"/><stop offset=".08" stop-color="rgb(16.862746%, 54.11765%, 87.843138%)"/><stop offset=".15" stop-color="rgb(25.490198%, 58.039218%, 90.588236%)"/><stop offset=".22" stop-color="rgb(31.764707%, 60.784316%, 92.156863%)"/><stop offset=".29" stop-color="rgb(35.686275%, 62.352943%, 93.333334%)"/><stop offset=".4" stop-color="rgb(36.862746%, 62.7451%, 93.725491%)"/><stop offset=".55" stop-color="rgb(35.686275%, 62.352943%, 93.333334%)"/><stop offset=".68" stop-color="rgb(31.37255%, 60.392159%, 92.156863%)"/><stop offset=".8" stop-color="rgb(24.705882%, 57.254905%, 90.196079%)"/><stop offset=".91" stop-color="rgb(14.901961%, 53.333336%, 87.450981%)"/><stop offset=".99" stop-color="rgb(7.058824%, 49.803922%, 85.09804%)"/></linearGradient></defs><path d="M15.93 15.54c-7.364 0-13.336 2.448-13.336 5.472 0 3.027 5.972 5.476 13.336 5.476s13.332-2.449 13.332-5.476c0-3.024-5.969-5.473-13.332-5.473" fill="rgb(46.27451%, 73.725492%, 17.647059%)"/><path d="M16.266 19.75c-2.446 0-4.426.543-4.426 1.21 0 .669 1.98 1.208 4.426 1.208 2.445 0 4.425-.54 4.425-1.207 0-.668-1.98-1.211-4.425-1.211" fill="rgb(36.862746%, 58.823532%, 14.117648%)"/><path d="M15.93 3.395c-7.364 0-13.336 2.453-13.336 5.476s5.972 5.477 13.336 5.477 13.332-2.453 13.332-5.477c0-3.023-5.969-5.476-13.332-5.476" fill="url(#azure-disk_svg__a)"/><path d="M16.266 7.59c-2.446 0-4.426.543-4.426 1.21 0 .669 1.98 1.208 4.426 1.208 2.445 0 4.425-.54 4.425-1.207 0-.668-1.98-1.211-4.425-1.211" fill="rgb(0%, 35.686275%, 63.137257%)"/><path d="M16 26.383c7.379 0 13.332-2.453 13.332-5.477v3.235c-.246 2.933-6.113 5.336-13.332 5.336S2.668 27.023 2.668 24v-3.094C2.594 23.93 8.57 26.383 16 26.383" fill="rgb(36.862746%, 58.823532%, 14.117648%)"/><path d="M16 14.223c7.379 0 13.332-2.453 13.332-5.477v3.234c-.246 2.934-6.113 5.336-13.332 5.336S2.668 14.863 2.668 11.84V8.746C2.594 11.77 8.57 14.223 16 14.223" fill="rgb(0%, 47.058824%, 83.137256%)"/></svg>