<svg role="img" viewBox="0 0 32 32" height="32" width="32" xmlns="http://www.w3.org/2000/svg"><defs><linearGradient gradientTransform="rotate(-.086 -5083.563 -1458.771)scale(1.77778)" gradientUnits="userSpaceOnUse" id="225__224__113__112__364__363__168__167__155__154__362__361__167__166__444__443__522__521__357__356__azure-postgres_svg__svg/azure-postgres.svg1031__svg/azure-postgres.svg1029__azure-postgres-lp-0" x1="2.44" x2="15.27" y1="10.67" y2="10.67"><stop offset="0" stop-color="rgb(0%, 35.686275%, 63.137255%)"/><stop offset=".07" stop-color="rgb(0%, 37.647059%, 66.27451%)"/><stop offset=".36" stop-color="rgb(0%, 44.313725%, 78.431373%)"/><stop offset=".52" stop-color="rgb(0%, 47.058824%, 83.137255%)"/><stop offset=".64" stop-color="rgb(0%, 45.490196%, 80.392157%)"/><stop offset=".82" stop-color="rgb(0%, 41.568627%, 73.333333%)"/><stop offset="1" stop-color="rgb(0%, 35.686275%, 63.137255%)"/></linearGradient></defs><path d="M16 9.137c-6.293 0-11.395-1.778-11.395-4.125v21.976c0 2.258 5.012 4.086 11.235 4.121H16c6.293 0 11.395-1.777 11.395-4.12V5.011c0 2.277-5.102 4.125-11.395 4.125" fill="url(#225__224__113__112__364__363__168__167__155__154__362__361__167__166__444__443__522__521__357__356__azure-postgres_svg__svg/azure-postgres.svg1031__svg/azure-postgres.svg1029__azure-postgres-lp-0)"/><path d="M27.395 5.012c0 2.277-5.102 4.125-11.395 4.125-6.293 0-11.395-1.778-11.395-4.125C4.605 2.668 9.707.89 16 .89c6.293 0 11.395 1.777 11.395 4.117" fill="rgb(90.980392%, 90.980392%, 90.980392%)"/><path d="M24.73 4.676c0 1.457-3.914 2.633-8.73 2.633-4.816 0-8.746-1.176-8.746-2.618 0-1.437 3.91-2.628 8.746-2.628s8.73 1.171 8.73 2.613" fill="rgb(31.372549%, 90.196078%, 100%)"/><path d="M16 5.332a20.684 20.684 0 0 0-6.934 1.016 20.554 20.554 0 0 0 6.934.96 20.472 20.472 0 0 0 6.914-1.03A21.163 21.163 0 0 0 16 5.331" fill="rgb(9.803922%, 54.117647%, 70.196078%)"/><path d="M21.332 16v.746c-.07.371-.117.746-.14 1.121 0 .211 0 .531.09.817.085.285 0 .48 0 .64-.009.54-.16 1.07-.446 1.528a.668.668 0 0 0 0 .125l.176.214c.8-1.328 1.433-2.75 1.886-4.23.497-1.691.551-2.898.16-3.414a4.594 4.594 0 0 0-4.765-1.527 5.95 5.95 0 0 1 1.617 1.187A4.07 4.07 0 0 1 21.332 16m-.55.14a2.049 2.049 0 0 0-1.403.16c-.516.321-.356.981 0 1.778.176.516.383 1.02.621 1.512l.16.285c.09.145.14.266.195.355l.141.23c.211-.347.32-.745.32-1.151.012-.2.012-.395 0-.59 0-.301 0-.64-.086-.871.024-.41.07-.82.141-1.227a1.432 1.432 0 0 1-.02-.531Zm-.532.731a.726.726 0 0 1-.32.18.673.673 0 0 1-.25 0 .427.427 0 0 1-.125-.34c0-.125.195-.23.425-.266h.34s.16 0 .16.14a.36.36 0 0 1-.16.231Zm-8.34 1.582v-.3a1.983 1.983 0 0 0 0-.305c-.05-.59-.05-1.188 0-1.778a9.159 9.159 0 0 1 .535-1.953 4.25 4.25 0 0 1 1.032-1.672 8.497 8.497 0 0 0-2.403-.355 3.29 3.29 0 0 0-1.953.531A3.565 3.565 0 0 0 8 15.86c.172 1.352.469 2.684.89 3.98.602 2.028 1.297 3.27 1.903 3.47.266.086.55 0 .832-.375.5-.606.96-1.122 1.227-1.422a3.352 3.352 0 0 1-.872-3.114Zm.465.711c-.008.336.027.672.105.996.11.285.266.547.461.781.176.192.387.34.621.446.223.09.458.136.696.14 0-.3.25-.675.41-1.066.148-.34.273-.691.371-1.047a11.88 11.88 0 0 0 0-1.973c0-.16 0-.34-.105-.535a.798.798 0 0 0-.215-.48 1.215 1.215 0 0 0-.496-.285h-.356c-.297.039-.586.12-.855.25-.2.093-.387.207-.567.34v1.277c.008.09.008.18 0 .27v.69Zm1.172-2.383c.16-.05.336-.05.496 0 .117.016.234.055.34.11.16 0 .176.195.16.246a.64.64 0 0 1-.215.23.496.496 0 0 1-.105-.07.615.615 0 0 1-.5-.496Zm1.316 5.336a.393.393 0 0 0-.23.106l-.25.3c-.305.375-.426.5-1.297.676a.923.923 0 0 0-.465.18c.125.098.274.164.43.195.414.133.863.133 1.277 0 .254-.12.485-.277.695-.465.172-.14.297-.336.356-.55a.635.635 0 0 0-.18-.497.26.26 0 0 0-.265-.035Zm8.196 0a2.91 2.91 0 0 1-2.008 0 .391.391 0 0 0-.25 0 .53.53 0 0 0-.305.246 2.166 2.166 0 0 0 0 .551 3.2 3.2 0 0 0 1.957-.176c.324-.136.617-.343.856-.605Zm-4.266-3.805c-.25-.73-.605-1.777.316-2.417.48-.27 1.04-.364 1.582-.27a5.575 5.575 0 0 0-1.136-2.043l-.285-.285a.673.673 0 0 0-.106-.106 4.11 4.11 0 0 0-1.191-.746 4.626 4.626 0 0 0-1.973-.39 2.668 2.668 0 0 0-1.246.195 2.89 2.89 0 0 0-.531.195 3.733 3.733 0 0 0-1.317 1.778c-.176.582-.3 1.175-.37 1.777a2.955 2.955 0 0 1 1.777-.41 1.49 1.49 0 0 1 1.023.523c.254.305.379.7.344 1.094a12.9 12.9 0 0 1 0 2.258 6.312 6.312 0 0 1-.41 1.12c-.106.306-.247.622-.32.872a.902.902 0 0 1 .675.25c.25.246.375.594.34.941H16v.426a11.634 11.634 0 0 0 .426 4.34c.101.164.25.293.426.371.164.11.355.172.554.18a2.307 2.307 0 0 0 1.778-.606c.304-.316.484-.734.515-1.172.121-.8.39-3.023.426-3.554a1.28 1.28 0 0 1 .16-.785 1.15 1.15 0 0 1 .48-.426 9.53 9.53 0 0 1-1.902-3.219Zm0 0" fill="rgb(94.901961%, 94.901961%, 94.901961%)"/></svg>