<svg role="img" viewBox="0 0 32 32" height="32" width="32" xmlns="http://www.w3.org/2000/svg"><defs><linearGradient gradientTransform="scale(1.77778)" gradientUnits="userSpaceOnUse" id="18__9__0__linear-pattern-0" x1="8.798" x2="14.683" y1="8.703" y2="8.703"><stop offset=".001" stop-color="rgb(46.666667%, 22.745098%, 86.27451%)"/><stop offset="1" stop-color="rgb(33.333333%, 18.431373%, 60%)"/></linearGradient><linearGradient gradientTransform="scale(1.77778)" gradientUnits="userSpaceOnUse" id="19__10__1__linear-pattern-1" x1="5.764" x2="5.764" y1="3.777" y2="13.78"><stop offset="0" stop-color="rgb(65.098039%, 47.843137%, 95.686275%)"/><stop offset=".999" stop-color="rgb(46.666667%, 22.745098%, 86.27451%)"/></linearGradient><clipPath id="20__11__2__clip-0"><path d="M0 0h32v32H0z"/></clipPath><clipPath id="21__12__3__clip-1"><path d="M0 0h32v32H0z"/></clipPath><mask id="22__13__4__mask-0"><g filter="url(#23__14__5__filter-remove-color)"><path d="M-3.2-3.2h38.4v38.4H-3.2z" fill-opacity=".5"/></g></mask><mask id="24__15__6__mask-1"><g filter="url(#23__14__5__filter-remove-color)"><path d="M-3.2-3.2h38.4v38.4H-3.2z" fill-opacity=".5"/></g></mask><g clip-path="url(#20__11__2__clip-0)" id="25__16__7__source-14"><path d="M10.574 8.75v13.441l3.531.59V8.113Zm0 0" fill="rgb(71.764706%, 58.823529%, 97.647059%)"/></g><g clip-path="url(#21__12__3__clip-1)" id="26__17__8__source-18"><path d="M6.238 9.473V21.25l3.074.648V8.945Zm0 0" fill="rgb(71.764706%, 58.823529%, 97.647059%)"/></g><filter height="100%" id="23__14__5__filter-remove-color" width="100%" x="0%" y="0%"><feColorMatrix color-interpolation-filters="sRGB" values="0 0 0 0 1 0 0 0 0 1 0 0 0 0 1 0 0 0 1 0"/></filter></defs><path d="M30.102 20.582a15.015 15.015 0 0 1-14.133 9.938 14.5 14.5 0 0 1-4.145-.586 3.7 3.7 0 0 0 .32-1.477c.02 0 .055.02.075.02 1.215.355 2.48.535 3.75.535a13.59 13.59 0 0 0 12.176-7.61l.02-.02Zm-23.735 4.43a3.6 3.6 0 0 0-1.137.992 15.2 15.2 0 0 1-2.968-4.336l1.847.41v.461a1.06 1.06 0 0 0 .836 1.047l.25.055q.498.691 1.102 1.297ZM21.96 1.703c-.25.445-.413.934-.48 1.442-.035-.02-.09-.036-.125-.055a13.3 13.3 0 0 0-5.386-1.121A13.59 13.59 0 0 0 5.48 6.949l-.515.106a1.07 1.07 0 0 0-.856 1.03v.817l-1.812.34A15.03 15.03 0 0 1 15.969.477c2.058 0 4.097.418 5.992 1.226m8.035 8.43-1.937-.676a11.8 11.8 0 0 0-1.282-2.062c-.035-.051-.07-.086-.09-.125a3.7 3.7 0 0 0 1.282-.797 14 14 0 0 1 2.027 3.66m0 0" fill="rgb(19.607843%, 74.509804%, 86.666667%)"/><path d="m17.906 21.168 4.516.996-7.004 2.902c-.035 0-.055.02-.09.02a.275.275 0 0 1-.265-.27V6.13a.274.274 0 0 1 .265-.266.14.14 0 0 1 .09.02l7.93 2.77-5.426 1.015a1 1 0 0 0-.781.96v9.599a.95.95 0 0 0 .765.941m0 0" fill="rgb(100%, 100%, 100%)"/><path d="m1.957 10.078 2.148-.41v11.645l-2.183-.481-1.762-.39a.197.197 0 0 1-.16-.215v-9.598a.21.21 0 0 1 .16-.215Zm0 0" fill="rgb(65.098039%, 47.843137%, 95.686275%)"/><path d="m17.906 21.168 4.516.996-7.004 2.902c-.035 0-.055.02-.09.02a.275.275 0 0 1-.265-.27V6.13a.274.274 0 0 1 .265-.266.14.14 0 0 1 .09.02l7.93 2.77-5.426 1.015a1 1 0 0 0-.781.96v9.599a.95.95 0 0 0 .765.941m0 0" fill="url(#18__9__0__linear-pattern-0)"/><path d="M15.266 5.867 5.117 7.781a.32.32 0 0 0-.25.313v14.449a.32.32 0 0 0 .242.309l10.145 2.214a.3.3 0 0 0 .262-.066.32.32 0 0 0 .113-.242V6.184a.31.31 0 0 0-.305-.317Zm0 0" fill="url(#19__10__1__linear-pattern-1)"/><g mask="url(#22__13__4__mask-0)"><use href="#25__16__7__source-14"/></g><g mask="url(#24__15__6__mask-1)"><use href="#26__17__8__source-18"/></g><path d="M28.445 3.64a3.12 3.12 0 0 1-3.125 3.114 3.126 3.126 0 0 1-3.117-3.117 3.122 3.122 0 1 1 6.242.004m-17.05 24.754a3.13 3.13 0 0 1-3.13 3.128 3.125 3.125 0 0 1-3.124-3.128 3.127 3.127 0 0 1 6.254 0m0 0" fill="rgb(19.607843%, 74.509804%, 86.666667%)"/><path d="M32 11.89v6.837a.4.4 0 0 1-.238.355l-1.36.563-5.457 2.253h-.09a.18.18 0 0 1-.175-.18V9.306c0-.067.035-.125.093-.157h.036a.05.05 0 0 1 .035 0c.02 0 .043.004.058.016h.043l5.368 1.86 1.421.5c.16.05.27.199.266.367m0 0" fill="rgb(46.666667%, 22.745098%, 86.27451%)"/><path d="M24.816 9.137 18.06 10.41a.206.206 0 0 0-.164.207v9.617c0 .098.066.184.164.203l6.753 1.481q.084.017.157-.031a.2.2 0 0 0 .086-.13.1.1 0 0 0 0-.046V9.344a.21.21 0 0 0-.203-.211zm0 0" fill="rgb(65.098039%, 47.843137%, 95.686275%)"/></svg>