<svg role="img" viewBox="0 0 32 32" height="32" width="32" xmlns="http://www.w3.org/2000/svg"><defs><linearGradient gradientTransform="rotate(.086)scale(1.77778)" gradientUnits="userSpaceOnUse" id="261__254__143__136__394__387__25__18__21__14__394__387__29__22__474__467__119__112__387__380__azure-aks_svg__svg/azure-aks.svg51__svg/azure-aks.svg37__azure-aks-lp-0" x1="2.94" x2="8.67" y1="3.74" y2="3.74"><stop offset="0" stop-color="rgb(71.764706%, 47.843137%, 95.686275%)"/><stop offset="1" stop-color="rgb(46.666667%, 22.745098%, 86.27451%)"/></linearGradient><linearGradient gradientTransform="rotate(.086)scale(1.77778)" gradientUnits="userSpaceOnUse" id="262__255__144__137__395__388__26__19__22__15__395__388__30__23__475__468__120__113__388__381__azure-aks_svg__svg/azure-aks.svg53__svg/azure-aks.svg39__azure-aks-lp-1" x1="9.13" x2="14.85" y1="3.79" y2="3.79"><stop offset="0" stop-color="rgb(71.764706%, 47.843137%, 95.686275%)"/><stop offset="1" stop-color="rgb(46.666667%, 22.745098%, 86.27451%)"/></linearGradient><linearGradient gradientTransform="rotate(.086)scale(1.77778)" gradientUnits="userSpaceOnUse" id="263__256__145__138__396__389__27__20__23__16__396__389__31__24__476__469__121__114__389__382__azure-aks_svg__svg/azure-aks.svg55__svg/azure-aks.svg41__azure-aks-lp-2" x1=".01" x2="5.73" y1="9.12" y2="9.12"><stop offset="0" stop-color="rgb(71.764706%, 47.843137%, 95.686275%)"/><stop offset="1" stop-color="rgb(46.666667%, 22.745098%, 86.27451%)"/></linearGradient><linearGradient gradientTransform="rotate(.086)scale(1.77778)" gradientUnits="userSpaceOnUse" id="264__257__146__139__397__390__28__21__24__17__397__390__32__25__477__470__122__115__390__383__azure-aks_svg__svg/azure-aks.svg57__svg/azure-aks.svg43__azure-aks-lp-3" x1="6.18" x2="11.9" y1="9.08" y2="9.08"><stop offset="0" stop-color="rgb(71.764706%, 47.843137%, 95.686275%)"/><stop offset="1" stop-color="rgb(46.666667%, 22.745098%, 86.27451%)"/></linearGradient><linearGradient gradientTransform="rotate(.086)scale(1.77778)" gradientUnits="userSpaceOnUse" id="265__258__147__140__398__391__29__22__25__18__398__391__33__26__478__471__123__116__391__384__azure-aks_svg__svg/azure-aks.svg59__svg/azure-aks.svg45__azure-aks-lp-4" x1="12.35" x2="18.08" y1="9.13" y2="9.13"><stop offset="0" stop-color="rgb(71.764706%, 47.843137%, 95.686275%)"/><stop offset="1" stop-color="rgb(46.666667%, 22.745098%, 86.27451%)"/></linearGradient><linearGradient gradientTransform="rotate(.086)scale(1.77778)" gradientUnits="userSpaceOnUse" id="266__259__148__141__399__392__30__23__26__19__399__392__34__27__479__472__124__117__392__385__azure-aks_svg__svg/azure-aks.svg61__svg/azure-aks.svg47__azure-aks-lp-5" x1="2.87" x2="8.6" y1="14.56" y2="14.56"><stop offset="0" stop-color="rgb(71.764706%, 47.843137%, 95.686275%)"/><stop offset="1" stop-color="rgb(46.666667%, 22.745098%, 86.27451%)"/></linearGradient><linearGradient gradientTransform="rotate(.086)scale(1.77778)" gradientUnits="userSpaceOnUse" id="267__260__149__142__400__393__31__24__27__20__400__393__35__28__480__473__125__118__393__386__azure-aks_svg__svg/azure-aks.svg63__svg/azure-aks.svg49__azure-aks-lp-6" x1="9.05" x2="14.78" y1="14.6" y2="14.6"><stop offset="0" stop-color="rgb(71.764706%, 47.843137%, 95.686275%)"/><stop offset="1" stop-color="rgb(46.666667%, 22.745098%, 86.27451%)"/></linearGradient></defs><path d="m10.313 2.168-5.086.941v6.934l5.086 1.086 5.101-2.043V3.91Zm0 0" fill="url(#261__254__143__136__394__387__25__18__21__14__394__387__29__22__474__467__119__112__387__380__azure-aks_svg__svg/azure-aks.svg51__svg/azure-aks.svg37__azure-aks-lp-0)"/><path d="M5.227 3.11v6.933l5.136 1.086v-8.89Zm2.168 6.402-1.438-.285V3.895l1.438-.23Zm2.242.41-1.657-.27V3.555l1.657-.285Zm0 0" fill="rgb(20.392157%, 10.196078%, 43.137255%)"/><path d="m21.316 2.258-5.086.941v6.934l5.086 1.086 5.082-2.063V4Zm0 0" fill="url(#262__255__144__137__395__388__26__19__22__15__395__388__30__23__475__468__120__113__388__381__azure-aks_svg__svg/azure-aks.svg53__svg/azure-aks.svg39__azure-aks-lp-1)"/><path d="M16.23 3.2v6.933l5.102 1.086v-8.89Zm2.153 6.402-1.442-.286V3.98l1.442-.23Zm2.238.406-1.652-.266V3.645l1.652-.301Zm0 0" fill="rgb(20.392157%, 10.196078%, 43.137255%)"/><path d="m5.102 11.734-5.082.942v6.933l5.082 1.082 5.101-2.043v-5.171Zm0 0" fill="url(#263__256__145__138__396__389__27__20__23__16__396__389__31__24__476__469__121__114__389__382__azure-aks_svg__svg/azure-aks.svg55__svg/azure-aks.svg41__azure-aks-lp-2)"/><path d="M0 12.676v6.879l5.137 1.086V11.75Zm2.152 6.418-1.441-.301v-5.336l1.441-.25Zm2.258.46-1.656-.265v-6.168l1.656-.285Zm0 0" fill="rgb(20.392157%, 10.196078%, 43.137255%)"/><path d="m16.07 11.664-5.082.941v6.934l5.082 1.102 5.086-2.063v-5.172Zm0 0" fill="url(#264__257__146__139__397__390__28__21__24__17__397__390__32__25__477__470__122__115__390__383__azure-aks_svg__svg/azure-aks.svg57__svg/azure-aks.svg43__azure-aks-lp-3)"/><path d="M10.988 12.605v6.95l5.117 1.086V11.75Zm2.149 6.418-1.438-.304v-5.332l1.438-.25Zm2.242.391-1.656-.266v-6.097l1.656-.285Zm0 0" fill="rgb(20.392157%, 10.196078%, 43.137255%)"/><path d="m27.04 11.75-5.083.941v6.934l5.082 1.086 5.102-2.043v-5.176Zm0 0" fill="url(#265__258__147__140__398__391__29__22__25__18__398__391__33__26__478__471__123__116__391__384__azure-aks_svg__svg/azure-aks.svg59__svg/azure-aks.svg45__azure-aks-lp-4)"/><path d="M21.957 12.691v6.864l5.137 1.086V11.75Zm2.168 6.418-1.441-.3v-5.332l1.441-.25Zm2.238.395-1.652-.27v-6.097l1.652-.285Zm0 0" fill="rgb(20.392157%, 10.196078%, 43.137255%)"/><path d="m10.188 21.406-5.086.922v6.934l5.086 1.101 5.101-2.062v-5.153Zm0 0" fill="url(#266__259__148__141__399__392__30__23__26__19__399__392__34__27__479__472__124__117__392__385__azure-aks_svg__svg/azure-aks.svg61__svg/azure-aks.svg47__azure-aks-lp-5)"/><path d="M5.102 22.328v6.934l5.136 1.101v-9.031Zm2.168 6.418-1.438-.3v-5.337l1.438-.246Zm2.242.41-1.653-.265v-6.118l1.653-.285Zm0 0" fill="rgb(20.392157%, 10.196078%, 43.137255%)"/><path d="m21.172 21.477-5.082.941v6.934l5.082 1.085 5.105-2.046v-5.172Zm0 0" fill="url(#267__260__149__142__400__393__31__24__27__20__400__393__35__28__480__473__125__118__393__386__azure-aks_svg__svg/azure-aks.svg63__svg/azure-aks.svg49__azure-aks-lp-6)"/><path d="M16.09 22.418v6.934l5.137 1.085v-8.89Zm2.168 6.418-1.442-.3v-5.337l1.442-.25Zm2.238.39-1.652-.265v-6.098l1.652-.285Zm0 0" fill="rgb(20.392157%, 10.196078%, 43.137255%)"/></svg>