<svg role="img" viewBox="0 0 32 32" height="32" width="32" xmlns="http://www.w3.org/2000/svg"><defs><linearGradient gradientTransform="rotate(.086)scale(1.77778)" gradientUnits="userSpaceOnUse" id="427__426__272__271__1__0__276__275__271__270__1__0__185__184__81__80__159__158__1__0__azure-storage-container_svg__svg/azure-storage-container.svg319__svg/azure-storage-container.svg317__azure-storage-container-lp-0" x1="9" x2="9" y1="15.799" y2="5.316"><stop offset="0" stop-color="rgb(19.607843%, 74.509804%, 86.666667%)"/><stop offset=".775" stop-color="rgb(19.607843%, 83.137255%, 96.078431%)"/></linearGradient></defs><path d="M.969 9.45H31.03v17.632c0 .266-.11.523-.297.711a1 1 0 0 1-.707.293H1.973c-.555 0-1.004-.45-1.004-1.004Zm0 0" fill="url(#427__426__272__271__1__0__276__275__271__270__1__0__185__184__81__80__159__158__1__0__azure-storage-container_svg__svg/azure-storage-container.svg319__svg/azure-storage-container.svg317__azure-storage-container-lp-0)"/><path d="M1.977 3.91h28.046c.555 0 1.004.45 1.004 1.004V9.45H.973V4.918A1.01 1.01 0 0 1 1.977 3.91" fill="rgb(0%, 47.058824%, 83.137255%)"/><path d="M24.05 13.063h-7.366a.413.413 0 0 1-.223-.067l-2.102-1.398a.365.365 0 0 0-.218-.07H7.949a.39.39 0 0 0-.277.117.39.39 0 0 0-.117.277V24.93c0 .218.175.394.394.394h16.102a.39.39 0 0 0 .277-.117.39.39 0 0 0 .117-.277V13.457a.41.41 0 0 0-.113-.277.4.4 0 0 0-.281-.117" fill="rgb(96.862745%, 55.294118%, 11.764706%)"/><path d="M9.254 12.285h3.516c.085 0 .16.07.16.16v.446c0 .09-.07.16-.16.16H9.254a.165.165 0 0 1-.117-.047.15.15 0 0 1-.047-.113v-.446c0-.09.074-.16.164-.16m0 0" fill="rgb(100%, 100%, 100%)"/><path d="M9.203 12.285h.547c.063 0 .11.05.11.11v.546a.116.116 0 0 1-.032.079.124.124 0 0 1-.078.03h-.547a.124.124 0 0 1-.078-.03.098.098 0 0 1-.035-.079v-.546c0-.063.05-.11.113-.11m0 0" fill="rgb(81.960784%, 34.901961%, 0%)"/><path d="M24.05 13.043h-8.09a.396.396 0 0 0-.28.113l-1.301 1.301a.4.4 0 0 1-.281.117H7.949a.365.365 0 0 0-.277.114.39.39 0 0 0-.117.277v9.941c0 .219.175.395.394.395h16.102a.393.393 0 0 0 .394-.395V13.438a.4.4 0 0 0-.117-.282.403.403 0 0 0-.277-.113" fill="rgb(100%, 100%, 100%)"/></svg>