<svg role="img" viewBox="0 0 32 32" height="32" width="32" xmlns="http://www.w3.org/2000/svg"><defs><linearGradient gradientTransform="rotate(.086)scale(1.77778)" gradientUnits="userSpaceOnUse" id="39__38__1__0__254__253__250__249__233__232__254__253__438__437__334__333__412__411__245__244__azure-ip_svg__svg/azure-ip.svg811__svg/azure-ip.svg809__azure-ip-lp-0" x1="9" x2="9" y1="15.83" y2="5.79"><stop offset="0" stop-color="rgb(19.607843%, 74.509804%, 86.666667%)"/><stop offset=".18" stop-color="rgb(19.607843%, 79.215686%, 91.764706%)"/><stop offset=".41" stop-color="rgb(19.607843%, 82.352941%, 94.901961%)"/><stop offset=".78" stop-color="rgb(19.607843%, 83.137255%, 96.078431%)"/></linearGradient></defs><path d="M.89 10.293h30.22v16.855c0 .559-.454 1.012-1.012 1.012H1.902a.998.998 0 0 1-.714-.297.998.998 0 0 1-.297-.715Zm0 0" fill="url(#39__38__1__0__254__253__250__249__233__232__254__253__438__437__334__333__412__411__245__244__azure-ip_svg__svg/azure-ip.svg811__svg/azure-ip.svg809__azure-ip-lp-0)"/><path d="M1.902 3.86h28.196c.558 0 1.011.453 1.011 1.011v5.422H.891V4.852a1.01 1.01 0 0 1 1.011-.993" fill="rgb(46.27451%, 46.27451%, 46.27451%)"/><path d="M22.793 15.664a2.458 2.458 0 0 0-2.457 2.453 2.46 2.46 0 0 0 2.457 2.453 2.452 2.452 0 1 0 0-4.906m-6.688 0a2.452 2.452 0 1 0-.001 4.905 2.452 2.452 0 0 0 .001-4.905m-6.898 0a2.452 2.452 0 1 0 0 4.906 2.46 2.46 0 0 0 2.457-2.453 2.456 2.456 0 0 0-2.457-2.453m-3.75-9.887h21.102c.277 0 .5.223.5.5v1.598c0 .277-.223.5-.5.5H5.457a.503.503 0 0 1-.496-.5V6.277c0-.277.223-.5.496-.5m0 0" fill="rgb(94.901961%, 94.901961%, 94.901961%)"/></svg>