<svg role="img" viewBox="0 0 32 32" height="32" width="32" xmlns="http://www.w3.org/2000/svg"><defs><linearGradient gradientTransform="scale(1.77778)" gradientUnits="userSpaceOnUse" id="2__1__0__linear-pattern-0" x1="9" x2="9" y1="17.5" y2=".5"><stop offset=".16" stop-color="rgb(43.529412%, 29.411765%, 69.803922%)"/><stop offset=".32" stop-color="rgb(45.490196%, 31.372549%, 70.980392%)"/><stop offset=".51" stop-color="rgb(50.980392%, 36.470588%, 74.901961%)"/><stop offset=".72" stop-color="rgb(60.392157%, 44.705882%, 80.784314%)"/><stop offset=".94" stop-color="rgb(73.333333%, 56.470588%, 89.411765%)"/><stop offset="1" stop-color="rgb(77.647059%, 60.392157%, 92.156863%)"/></linearGradient></defs><path d="M21.848.89H10.152c-.27 0-.527.11-.71.301l-8.25 8.25a1 1 0 0 0-.301.711v11.696c0 .27.109.527.3.71l8.25 8.25a1 1 0 0 0 .711.301h11.696c.27 0 .527-.109.71-.3l8.25-8.25a1 1 0 0 0 .301-.711V10.152a.98.98 0 0 0-.3-.71l-8.25-8.25a1 1 0 0 0-.711-.301m0 0" fill="url(#2__1__0__linear-pattern-0)"/><path d="m10.668 13.582-1.902 1.902a.24.24 0 0 0-.04.258c.04.09.122.145.215.153H15.7a.25.25 0 0 0 .246-.25V8.977a.293.293 0 0 0-.246-.336.297.297 0 0 0-.34.25l-1.902 1.902a.27.27 0 0 1-.355 0l-4.567-4.5-2.437 2.453 4.57 4.48c.09.102.09.254 0 .356m18.097-3.074-7.274-7.274a.5.5 0 0 0-.355-.14H10.863a.5.5 0 0 0-.355.14l-7.274 7.274a.5.5 0 0 0-.14.355v10.274c0 .133.05.261.14.355l7.274 7.274c.094.09.222.144.355.14h10.274a.5.5 0 0 0 .355-.14l7.274-7.274a.52.52 0 0 0 .14-.355V10.863a.5.5 0 0 0-.14-.355m-.641 9.687-5.602-5.601 1.352-1.367a.28.28 0 0 0 .098-.215.28.28 0 0 0-.098-.211.28.28 0 0 0-.195 0l-4.817-.125a.307.307 0 0 0-.304.285l.125 4.816a.29.29 0 0 0 .305.285.22.22 0 0 0 .21 0l1.512-1.492 5.957 5.868-4.516 4.511L16 20.816l1.422-1.261a.28.28 0 0 0 .098-.211.28.28 0 0 0-.098-.215.3.3 0 0 0-.195-.09l-4.782-.21a.306.306 0 0 0-.304.28l.125 4.82c0 .079.035.153.09.208a.3.3 0 0 0 .214.078.3.3 0 0 0 .211-.09l1.442-1.477 5.476 5.477h-8.73l-7.11-7.113V10.969l2.239-2.223 2.437-2.453 2.434-2.434H21.03l7.11 7.11Zm0 0" fill="rgb(94.901961%, 94.901961%, 94.901961%)"/></svg>