<?xml version="1.0" encoding="UTF-8"?>
<svg xmlns="http://www.w3.org/2000/svg" xmlns:xlink="http://www.w3.org/1999/xlink" width="32" height="32" viewBox="0 0 32 32">
<defs>
<linearGradient id="linear-pattern-0" gradientUnits="userSpaceOnUse" x1="9" y1="6.88" x2="9" y2="20.450001" gradientTransform="matrix(1.777778, 0.00266842, -0.00266842, 1.777778, 0, 0)">
<stop offset="0.22" stop-color="rgb(19.607843%, 83.137255%, 96.078431%)" stop-opacity="1"/>
<stop offset="1" stop-color="rgb(9.803922%, 54.117647%, 70.196078%)" stop-opacity="1"/>
</linearGradient>
<linearGradient id="linear-pattern-1" gradientUnits="userSpaceOnUse" x1="8.61" y1="-0.4" x2="9.6" y2="11.92" gradientTransform="matrix(1.777778, 0.00266842, -0.00266842, 1.777778, 0, 0)">
<stop offset="0.22" stop-color="rgb(19.607843%, 83.137255%, 96.078431%)" stop-opacity="1"/>
<stop offset="1" stop-color="rgb(9.803922%, 54.117647%, 70.196078%)" stop-opacity="1"/>
</linearGradient>
</defs>
<path fill-rule="nonzero" fill="url(#linear-pattern-0)" d="M 27.945312 32 C 29.367188 32 30.523438 30.84375 30.523438 29.421875 C 30.542969 29.324219 30.542969 29.222656 30.523438 29.121094 C 29.492188 20.996094 24.890625 14.382812 16 14.382812 C 7.109375 14.382812 2.382812 19.980469 1.476562 29.136719 C 1.402344 29.828125 1.605469 30.515625 2.042969 31.054688 C 2.480469 31.589844 3.117188 31.933594 3.804688 32 Z M 27.945312 32 "/>
<path fill-rule="nonzero" fill="url(#linear-pattern-1)" d="M 16.019531 0 C 11.523438 -0.00390625 7.875 3.640625 7.875 8.140625 C 7.875 12.636719 11.519531 16.28125 16.015625 16.28125 C 18.945312 16.3125 21.667969 14.769531 23.140625 12.238281 C 24.617188 9.707031 24.617188 6.578125 23.144531 4.046875 C 21.671875 1.515625 18.949219 -0.03125 16.019531 0 "/>
</svg>
