<svg role="img" viewBox="0 0 32 32" height="32" width="32" xmlns="http://www.w3.org/2000/svg"><defs><linearGradient gradientTransform="scale(1.77778)" gradientUnits="userSpaceOnUse" id="1__0__linear-pattern-0" x1="9" x2="9" y1="13.83" y2="1.07"><stop offset="0" stop-color="rgb(0%, 47.058824%, 83.137255%)"/><stop offset=".82" stop-color="rgb(36.862745%, 62.745098%, 93.72549%)"/></linearGradient></defs><path d="M32 17.477a7.11 7.11 0 0 0-6.238-6.809 9.07 9.07 0 0 0-9.336-8.766 9.29 9.29 0 0 0-8.887 6.063A8.59 8.59 0 0 0 0 16.215c.184 4.797 4.215 8.543 9.012 8.37H24.39q.195.03.39 0A7.27 7.27 0 0 0 32 17.478m0 0" fill="url(#1__0__linear-pattern-0)"/><path d="M11.785 12.125h8.996V24.57h-8.996Zm0 0" fill="rgb(94.901961%, 94.901961%, 94.901961%)"/><path d="M22.418 11.324 16.215 7.77a.44.44 0 0 0-.55.265v21.617a.44.44 0 0 0 .425.446h.14l6.208-3.66a.45.45 0 0 0 .3-.41V11.804a.46.46 0 0 0-.32-.48m0 0" fill="rgb(31.372549%, 90.196078%, 100%)"/></svg>