<svg role="img" viewBox="0 0 37.25 32" xmlns="http://www.w3.org/2000/svg"><defs><linearGradient gradientTransform="translate(.719 -1.896)scale(1.99626)" gradientUnits="userSpaceOnUse" id="azure-service-bus_svg__a" x1="9" x2="9" y1="14.071" y2="1.313"><stop offset="0" stop-color="rgb(0%, 47.058824%, 83.137256%)"/><stop offset=".156" stop-color="rgb(7.450981%, 50.196081%, 85.490197%)"/><stop offset=".528" stop-color="rgb(23.529412%, 56.862748%, 89.803922%)"/><stop offset=".822" stop-color="rgb(33.333334%, 61.176473%, 92.54902%)"/><stop offset="1" stop-color="rgb(36.862746%, 62.7451%, 93.725491%)"/></linearGradient></defs><path d="M36.652 18.215a8.07 8.07 0 0 0-7.007-7.758C29.402 4.891 24.73.555 19.165.727a10.43 10.43 0 0 0-9.981 6.8 9.63 9.63 0 0 0-8.465 9.27c.207 5.383 4.73 9.586 10.117 9.394q.451 0 .89-.035H28.11q.223-.007.434-.066a8.175 8.175 0 0 0 8.11-7.875m0 0" fill="url(#azure-service-bus_svg__a)"/><path d="M24.809 21.672h-12.7a.553.553 0 0 0-.562.539v3.457a.553.553 0 0 0 .562.539h12.7c.3.004.55-.238.558-.539v-3.457a.554.554 0 0 0-.558-.54m0 0" fill="rgb(19.607843%, 74.509805%, 86.666667%)"/><path d="M24.809 26.879h-12.7a.553.553 0 0 0-.562.539v3.457a.55.55 0 0 0 .563.54h12.699a.55.55 0 0 0 .394-.153.57.57 0 0 0 .164-.387v-3.457a.554.554 0 0 0-.558-.54m0 0" fill="rgb(9.803922%, 54.11765%, 70.19608%)"/><path d="M23.215 22.52h.746c.078 0 .144.066.144.144v.711a.14.14 0 0 1-.136.137h-.758a.15.15 0 0 1-.098-.04.15.15 0 0 1-.039-.097v-.719c0-.074.067-.136.14-.136m-.003 1.71h.754q.054.002.098.04a.14.14 0 0 1 .042.101v.707a.143.143 0 0 1-.14.145h-.75a.143.143 0 0 1-.14-.145v-.71q-.002-.062.038-.098a.11.11 0 0 1 .098-.04m.043 3.473h.75c.082 0 .144.063.144.145v.707a.15.15 0 0 1-.136.14h-.75a.14.14 0 0 1-.102-.043.14.14 0 0 1-.043-.101v-.703a.13.13 0 0 1 .035-.102.14.14 0 0 1 .102-.043m0 1.707h.75c.082 0 .144.067.144.145v.71a.14.14 0 0 1-.136.137h-.758a.14.14 0 0 1-.137-.136v-.72c0-.073.063-.136.137-.136m0 0" fill="rgb(70.588237%, 92.54902%, 21.176471%)"/><path d="M24.688 16.055H11.992a.55.55 0 0 0-.394.156.54.54 0 0 0-.168.387v3.465a.56.56 0 0 0 .168.386.54.54 0 0 0 .39.153h12.7a.545.545 0 0 0 .562-.54v-3.464a.556.556 0 0 0-.562-.543m0 0" fill="rgb(31.37255%, 90.196079%, 100%)"/><path d="M23.094 16.906h.75c.078 0 .144.063.144.145v.71a.14.14 0 0 1-.14.137h-.75a.14.14 0 0 1-.102-.043.14.14 0 0 1-.043-.101v-.711c0-.035.016-.07.04-.098a.16.16 0 0 1 .1-.039m0 1.707h.75c.079 0 .145.067.145.145v.707a.145.145 0 0 1-.14.137h-.754a.14.14 0 0 1-.14-.137v-.719a.14.14 0 0 1 .14-.133m.851-5.738-4.851 4.852a.567.567 0 0 1-.817 0l-4.851-4.852a.25.25 0 0 1-.055-.281.255.255 0 0 1 .238-.16h2.98a.27.27 0 0 0 .184-.075.27.27 0 0 0 .075-.183V6.117a.2.2 0 0 1 .199-.199h3.265c.114 0 .2.09.2.2v6.062c0 .14.117.258.258.258h2.984a.25.25 0 0 1 .242.156.25.25 0 0 1-.05.281m0 0" fill="rgb(100%, 100%, 100%)"/></svg>