<svg role="img" viewBox="0 0 32 32" height="32" width="32" xmlns="http://www.w3.org/2000/svg"><defs><linearGradient gradientTransform="scale(1.77778)" gradientUnits="userSpaceOnUse" id="2__1__0__linear-pattern-0" x1=".5" x2="9" y1="9.77" y2="9.77"><stop offset="0" stop-color="rgb(0%, 35.686275%, 63.137255%)"/><stop offset=".07" stop-color="rgb(0%, 37.647059%, 66.27451%)"/><stop offset=".36" stop-color="rgb(0%, 44.313725%, 78.431373%)"/><stop offset=".52" stop-color="rgb(0%, 47.058824%, 83.137255%)"/><stop offset=".64" stop-color="rgb(0%, 45.490196%, 80.392157%)"/><stop offset=".81" stop-color="rgb(0%, 41.568627%, 73.333333%)"/><stop offset=".99" stop-color="rgb(0%, 35.686275%, 63.137255%)"/></linearGradient></defs><path d="M23.555 18.633V11.68a.246.246 0 0 0-.426-.176l-7.11 7.11-7.398 7.394v5.101h21.477a.98.98 0 0 0 .722-.289.98.98 0 0 0 .29-.722V11.68a.246.246 0 0 0-.426-.176Zm0 0" fill="rgb(0%, 35.686275%, 63.137255%)"/><path d="M8.445 6.363c-4.18 0-7.554-1.226-7.554-2.808v26.543a.98.98 0 0 0 .289.722.98.98 0 0 0 .722.29H16V3.554c0 1.582-3.379 2.808-7.555 2.808m0 0" fill="url(#2__1__0__linear-pattern-0)"/><path d="M23.45 23.059h3.038c.278 0 .5.222.5.496v3.039c0 .277-.222.5-.5.5H23.45a.5.5 0 0 1-.5-.5v-3.04a.5.5 0 0 1 .5-.495m-7.005 0h3.04c.273 0 .495.222.495.496v3.039c0 .277-.222.5-.496.5h-3.039a.5.5 0 0 1-.5-.5v-3.04c0-.273.223-.495.5-.495m-7.004 0h3.04c.273 0 .496.222.496.496v3.039c0 .277-.223.5-.497.5H9.441a.5.5 0 0 1-.5-.5v-3.04c0-.273.223-.495.5-.495m0 0" fill="rgb(100%, 100%, 100%)"/><path d="M16 3.555c0 1.511-3.379 2.738-7.555 2.738-4.18 0-7.554-1.156-7.554-2.738S4.266.89 8.445.89C12.621.89 16 2.117 16 3.555" fill="rgb(91.764706%, 91.764706%, 91.764706%)"/><path d="M14.223 3.395c0 .98-2.598 1.777-5.797 1.777-3.2 0-5.793-.762-5.793-1.777 0-1.012 2.699-1.723 5.812-1.723 3.11 0 5.778.766 5.778 1.723" fill="rgb(31.372549%, 90.196078%, 100%)"/><path d="M8.445 3.805a14.4 14.4 0 0 0-4.586.656c1.477.488 3.028.715 4.586.676a13.6 13.6 0 0 0 4.586-.676 14.4 14.4 0 0 0-4.586-.656m0 0" fill="rgb(9.803922%, 54.117647%, 70.196078%)"/></svg>