<svg role="img" viewBox="0 0 51.788 32" height="32" width="51.788" xmlns="http://www.w3.org/2000/svg"><defs><linearGradient gradientTransform="translate(1 -8.881)scale(2.77537)" gradientUnits="userSpaceOnUse" id="443__440__289__286__azure-vnet-lp-1" x1="6.18" x2="7.81" y1="8.59" y2="10.23"><stop offset="0" stop-color="rgb(52.54902%, 83.921569%, 20%)"/><stop offset="1" stop-color="rgb(36.862745%, 58.823529%, 14.117647%)"/></linearGradient><linearGradient gradientTransform="translate(1 -8.881)scale(2.77537)" gradientUnits="userSpaceOnUse" id="444__441__290__287__linear-pattern-2" x1="2.48" x2="4.11" y1="8.59" y2="10.23"><stop offset="0" stop-color="rgb(52.54902%, 83.921569%, 20%)"/><stop offset="1" stop-color="rgb(36.862745%, 58.823529%, 14.117647%)"/></linearGradient></defs><path d="M39.578 16.07a3.22 3.22 0 1 1-6.44-.002 3.22 3.22 0 0 1 6.44.002m0 0" fill="url(#445__442__288__285__linear-pattern-0)"/><path d="M29.309 16.098a3.22 3.22 0 0 1-3.22 3.222 3.225 3.225 0 0 1-3.167-3.222 3.221 3.221 0 0 1 3.164-3.223c.855 0 1.676.34 2.281.941.602.606.942 1.426.942 2.282m0 0" fill="url(#443__440__289__286__linear-pattern-1)"/><path d="M19.04 16.098a3.22 3.22 0 1 1-6.44-.001 3.22 3.22 0 0 1 6.44 0m0 0" fill="url(#444__441__290__287__linear-pattern-2)"/><path d="m18.156 28.969-1.84 1.847a.837.837 0 0 1-1.18 0L1.5 17.215a1.666 1.666 0 0 1-.004-2.356l1.844-1.847 14.816 14.777a.837.837 0 0 1 0 1.18m0 0" fill="rgb(31.372549%, 90.196078%, 100%)"/><path d="m16.035 1.41 1.848 1.84a.834.834 0 0 1 .004 1.18L3.324 19.03l-1.847-1.843a1.67 1.67 0 0 1-.004-2.356L14.859 1.41a.832.832 0 0 1 .586-.246c.223 0 .434.09.59.246m0 0" fill="rgb(7.843137%, 56.470588%, 87.45098%)"/><path d="m48.613 12.988 1.844 1.848a1.666 1.666 0 0 1-.004 2.355L36.816 30.793a.837.837 0 0 1-1.18-.004l-1.84-1.844a.818.818 0 0 1-.245-.59c0-.222.086-.433.246-.59Zm0 0" fill="rgb(31.372549%, 90.196078%, 100%)"/><path d="m50.45 17.172-1.848 1.84L34.039 4.41a.83.83 0 0 1 .004-1.176l1.867-1.863a.83.83 0 0 1 1.176.004l13.387 13.422a1.666 1.666 0 0 1-.004 2.355Zm0 0" fill="rgb(7.843137%, 56.470588%, 87.45098%)"/></svg>
