<svg role="img" viewBox="0 0 32 32" xmlns="http://www.w3.org/2000/svg"><defs><linearGradient gradientTransform="rotate(.086)scale(1.77778)" gradientUnits="userSpaceOnUse" id="azure-network-interface_svg__a" x1="9.01" x2="9.01" y1="16.5" y2="1.5"><stop offset="0" stop-color="rgb(36.862746%, 58.823532%, 25.490198%)"/><stop offset=".34" stop-color="rgb(41.960785%, 66.666669%, 25.882354%)"/><stop offset=".67" stop-color="rgb(45.09804%, 71.764708%, 26.274511%)"/><stop offset="1" stop-color="rgb(46.27451%, 73.333335%, 26.274511%)"/></linearGradient></defs><path d="M28.25 5.172h2.258c.332 0 .601.273.601.605V12c0 .332-.27.605-.601.605H28.25Zm0 10.828h2.258c.332 0 .601.27.601.605v10.418c0 .332-.27.602-.601.602H28.25Zm0 0" fill="rgb(100%, 79.215688%, 0%)"/><path d="M5.012 2.668h22.011c.676 0 1.227.547 1.227 1.227v24.21a1.227 1.227 0 0 1-1.227 1.227H5.012a1.227 1.227 0 0 1-1.227-1.227V3.895a1.227 1.227 0 0 1 1.227-1.227m0 0" fill="url(#azure-network-interface_svg__a)"/><path d="M10.488 22.934H9.227a.35.35 0 0 1-.247-.118.33.33 0 0 1-.09-.257V7.715a.31.31 0 0 1 .09-.25.35.35 0 0 1 .247-.106h3.43a.34.34 0 0 1 .34.356.35.35 0 0 1-.095.258.35.35 0 0 1-.246.117H9.562v14.098h.926a.36.36 0 0 1 .34.37.377.377 0 0 1-.34.376m.18 1.812H7.82a.356.356 0 0 1-.336-.371l-.23-18.367a.36.36 0 0 1 .105-.266.27.27 0 0 1 .23-.105h5.067v.726h-4.71L8.16 24h2.508Zm10.664-1.637h-2.824a.34.34 0 0 1-.25-.12.32.32 0 0 1-.106-.25v-8.696a.33.33 0 0 1 .09-.25.34.34 0 0 1 .246-.105h1.617v-4h.676v4.34a.35.35 0 0 1-.32.37h-1.617v7.86h2.488Zm0 0" fill="rgb(70.588237%, 92.54902%, 21.176471%)"/><path d="M13.031 4.07h9.992c.254 0 .461.207.461.465v4.602a.465.465 0 0 1-.46.465H13.03a.463.463 0 0 1-.46-.465V4.535c0-.258.206-.465.46-.465m2.703 15.575v7.785a.45.45 0 0 1-.136.328.45.45 0 0 1-.328.137h-1.012a.463.463 0 0 1-.461-.465v-7.785c0-.254.207-.461.46-.461h1.013c.257 0 .464.207.464.46m-3.308.035v7.785a.465.465 0 0 1-.461.465h-1.016a.465.465 0 0 1-.46-.465V19.68c0-.121.05-.239.136-.325a.45.45 0 0 1 .324-.136h1.016a.46.46 0 0 1 .46.46m0 0" fill="rgb(21.176471%, 33.725491%, 8.235294%)"/><path d="M23.059 19.68v7.785a.45.45 0 0 1-.137.328.45.45 0 0 1-.328.137h-1.012a.465.465 0 0 1-.46-.465V19.68c0-.121.046-.239.136-.325a.45.45 0 0 1 .324-.136h1.012c.258 0 .465.207.465.46m-8.641-7.344c-1.02 0-1.848.894-1.848 1.992 0 1.102.828 1.992 1.848 1.992s1.848-.89 1.848-1.992c0-1.098-.828-1.992-1.848-1.992" fill="rgb(94.901961%, 94.901961%, 94.901961%)"/><path d="M3.75 21.777H1.492a.6.6 0 0 1-.601-.53v-10.42c0-.336.27-.605.601-.605H3.75Zm0 0" fill="rgb(23.137255%, 23.137255%, 23.137255%)"/></svg>