<?xml version="1.0" encoding="UTF-8"?>
<svg xmlns="http://www.w3.org/2000/svg" xmlns:xlink="http://www.w3.org/1999/xlink" width="25.201629" height="32" viewBox="0 0 25.201629 32">
<path fill-rule="nonzero" fill="rgb(49.019608%, 95.294118%, 88.235294%)" fill-opacity="1" d="M 22.628906 12.398438 C 22.992188 12.179688 23.328125 11.917969 23.632812 11.625 C 23.695312 11.570312 23.75 11.511719 23.804688 11.453125 C 24.019531 11.234375 24.21875 11 24.398438 10.753906 C 24.582031 10.5 24.738281 10.230469 24.867188 9.949219 C 25.046875 9.5625 25.15625 9.148438 25.191406 8.726562 C 25.300781 7.277344 24.449219 5.835938 22.53125 4.675781 L 14.828125 0 L 5.847656 8.605469 L 0 14.207031 L 8.109375 19.128906 C 9.410156 19.925781 10.902344 20.347656 12.425781 20.355469 C 14.285156 20.355469 16.066406 19.699219 17.382812 18.4375 C 18.816406 17.066406 19.289062 15.292969 18.40625 13.816406 C 18.261719 13.578125 18.09375 13.355469 17.898438 13.15625 C 18.371094 13.261719 18.855469 13.3125 19.339844 13.3125 C 19.34375 13.3125 19.347656 13.316406 19.351562 13.316406 C 20.140625 13.316406 20.925781 13.167969 21.664062 12.882812 C 22 12.75 22.324219 12.589844 22.628906 12.398438 Z M 15.117188 16.867188 C 13.675781 18.25 11.355469 18.453125 9.464844 17.308594 L 3.855469 13.902344 L 8.890625 9.074219 L 14.597656 12.539062 C 16.652344 13.785156 16.539062 15.503906 15.117188 16.867188 Z M 15.785156 10.726562 L 10.507812 7.523438 L 15.320312 2.910156 L 20.5 6.054688 C 22.4375 7.230469 22.6875 8.824219 21.289062 10.164062 C 19.792969 11.578125 17.535156 11.808594 15.785156 10.726562 Z M 18.015625 24.917969 C 16.554688 26.320312 14.566406 27.089844 12.425781 27.089844 C 10.734375 27.085938 9.078125 26.613281 7.636719 25.734375 L 0 21.097656 L 0 22.941406 L 8.109375 27.863281 C 9.410156 28.65625 10.902344 29.082031 12.425781 29.089844 C 14.285156 29.089844 16.066406 28.429688 17.382812 27.171875 C 18.34375 26.25 18.875 25.144531 18.855469 24.070312 L 18.851562 23.9375 C 18.609375 24.292969 18.328125 24.621094 18.015625 24.917969 Z M 18.015625 22.007812 C 16.554688 23.410156 14.566406 24.179688 12.425781 24.179688 C 10.734375 24.171875 9.078125 23.703125 7.636719 22.820312 L 0 18.1875 L 0 20.03125 L 8.109375 24.953125 C 9.410156 25.746094 10.902344 26.171875 12.425781 26.179688 C 14.285156 26.179688 16.066406 25.519531 17.382812 24.257812 C 18.34375 23.335938 18.875 22.234375 18.855469 21.160156 L 18.851562 21.027344 C 18.609375 21.382812 18.328125 21.710938 18.015625 22.007812 Z M 18.015625 19.097656 C 16.554688 20.496094 14.566406 21.269531 12.425781 21.269531 C 10.734375 21.261719 9.078125 20.792969 7.636719 19.910156 L 0 15.277344 L 0 17.117188 L 8.109375 22.039062 C 9.410156 22.835938 10.902344 23.257812 12.425781 23.265625 C 14.285156 23.265625 16.066406 22.609375 17.382812 21.347656 C 18.34375 20.425781 18.875 19.324219 18.855469 18.25 L 18.851562 18.113281 C 18.609375 18.46875 18.328125 18.796875 18.015625 19.097656 Z M 24.265625 21.019531 C 23.046875 22.179688 21.453125 22.863281 19.769531 22.949219 L 19.769531 24.941406 C 21.214844 24.859375 22.585938 24.269531 23.632812 23.269531 C 24.675781 22.269531 25.214844 21.171875 25.203125 20.085938 L 25.203125 19.921875 C 24.925781 20.316406 24.613281 20.6875 24.265625 21.019531 Z M 18.015625 27.828125 C 16.554688 29.230469 14.566406 30.003906 12.425781 30.003906 C 10.734375 29.996094 9.078125 29.527344 7.636719 28.644531 L 0 24.007812 L 0 25.851562 L 8.109375 30.773438 C 9.410156 31.570312 10.902344 31.992188 12.425781 32 C 14.285156 32 16.066406 31.34375 17.382812 30.082031 C 18.34375 29.160156 18.875 28.054688 18.855469 26.984375 L 18.851562 26.847656 C 18.609375 27.203125 18.328125 27.53125 18.015625 27.828125 Z M 24.417969 12.132812 C 24.367188 12.183594 24.320312 12.234375 24.265625 12.285156 C 23.769531 12.75 23.210938 13.144531 22.605469 13.457031 C 21.988281 13.769531 21.328125 13.988281 20.644531 14.105469 C 20.296875 14.171875 19.941406 14.210938 19.589844 14.222656 C 19.625 14.34375 19.65625 14.46875 19.679688 14.589844 C 19.742188 14.886719 19.773438 15.183594 19.765625 15.488281 L 19.765625 16.207031 L 19.769531 16.207031 C 20.417969 16.167969 21.058594 16.027344 21.664062 15.792969 C 22.394531 15.507812 23.066406 15.078125 23.632812 14.535156 C 23.695312 14.480469 23.746094 14.421875 23.804688 14.363281 C 24.019531 14.144531 24.214844 13.910156 24.394531 13.660156 C 24.578125 13.410156 24.734375 13.140625 24.863281 12.855469 C 25.042969 12.46875 25.152344 12.054688 25.1875 11.628906 C 25.195312 11.535156 25.203125 11.445312 25.203125 11.351562 L 25.203125 11.199219 C 25.148438 11.277344 25.089844 11.355469 25.03125 11.429688 C 24.84375 11.675781 24.636719 11.910156 24.417969 12.132812 Z M 24.417969 17.949219 C 24.367188 18.003906 24.320312 18.054688 24.265625 18.105469 C 23.046875 19.269531 21.453125 19.953125 19.769531 20.039062 L 19.769531 22.03125 C 21.214844 21.949219 22.585938 21.355469 23.632812 20.359375 C 24.148438 19.882812 24.566406 19.3125 24.863281 18.679688 C 25.042969 18.292969 25.152344 17.875 25.1875 17.453125 C 25.195312 17.359375 25.203125 17.265625 25.203125 17.175781 L 25.203125 17.011719 C 25.144531 17.089844 25.09375 17.171875 25.03125 17.25 C 24.84375 17.496094 24.636719 17.730469 24.417969 17.949219 Z M 24.417969 15.039062 C 24.367188 15.089844 24.320312 15.144531 24.265625 15.195312 C 23.769531 15.664062 23.210938 16.054688 22.605469 16.367188 C 21.722656 16.8125 20.757812 17.074219 19.769531 17.128906 L 19.765625 17.128906 L 19.769531 19.117188 C 21.214844 19.039062 22.585938 18.445312 23.632812 17.449219 C 23.695312 17.390625 23.746094 17.332031 23.804688 17.273438 C 24.019531 17.054688 24.214844 16.820312 24.394531 16.574219 C 24.578125 16.320312 24.734375 16.050781 24.863281 15.769531 C 25.042969 15.382812 25.152344 14.964844 25.1875 14.539062 C 25.195312 14.449219 25.203125 14.355469 25.203125 14.261719 L 25.203125 14.101562 C 25.144531 14.179688 25.09375 14.261719 25.03125 14.339844 C 24.84375 14.585938 24.636719 14.820312 24.417969 15.039062 Z M 24.417969 15.039062 "/>
</svg>
