<?xml version="1.0" encoding="UTF-8"?>
<svg xmlns="http://www.w3.org/2000/svg" xmlns:xlink="http://www.w3.org/1999/xlink" width="24.381001" height="32" viewBox="0 0 24.381001 32">
<path fill="none" stroke-width="24.384001" stroke-linecap="round" stroke-linejoin="round" stroke="rgb(0%, 0%, 0%)" stroke-opacity="1" stroke-miterlimit="4" d="M 97.53125 42.21875 L 97.53125 13.40625 M 97.53125 42.25 C 132.625 43.59375 160.3125 72.5625 160.09375 107.6875 L 160.09375 129.625 C 160.09375 158.71875 182.84375 165.96875 182.84375 180.53125 C 182.84375 187.71875 182.84375 195.0625 176.3125 195.0625 L 18.75 195.0625 C 12.1875 195.0625 12.1875 187.71875 12.1875 180.5 C 12.1875 165.96875 34.9375 158.6875 34.9375 129.59375 L 34.9375 107.65625 C 34.71875 72.53125 62.4375 43.5625 97.53125 42.21875 Z M 55.34375 195.0625 C 57.6875 216.5625 75.875 232.875 97.53125 232.875 C 119.15625 232.875 137.34375 216.5625 139.6875 195.0625 Z M 55.34375 195.0625 " transform="matrix(0.125, 0, 0, 0.125, 0, 0)"/>
</svg>
