<svg role="img" viewBox="0 0 32 32" height="32" width="32" xmlns="http://www.w3.org/2000/svg"><path d="M30.078 18.559h-.637v-1.196c0-.957-.52-1.789-1.28-2.254v8.18a2.644 2.644 0 0 0 1.28-2.254V19.84h.637a.641.641 0 0 0 0-1.281M22.516 8.96H9.484a4.368 4.368 0 0 0-4.363 4.363v12.39a4.368 4.368 0 0 0 4.363 4.364h13.032a4.368 4.368 0 0 0 4.363-4.363v-12.39a4.368 4.368 0 0 0-4.363-4.364M9.71 15.734a.637.637 0 0 1 0-.902.63.63 0 0 1 .902 0l.907.902.906-.902a.63.63 0 0 1 .902 0 .63.63 0 0 1 0 .902l-.902.907.902.906a.63.63 0 0 1 0 .902.639.639 0 0 1-.902 0l-.906-.902-.907.902a.639.639 0 0 1-.902-.902l.902-.906Zm12.582 9.582a.648.648 0 0 1-.535.286.621.621 0 0 1-.352-.11l-1.57-1.043-1.566 1.043a.637.637 0 0 1-.711 0l-1.563-1.043-1.566 1.043a.637.637 0 0 1-.711 0l-1.563-1.043-1.558 1.043a.645.645 0 0 1-.891-.176.638.638 0 0 1 .18-.886l1.914-1.282a.637.637 0 0 1 .71 0l1.563 1.043 1.567-1.043a.63.63 0 0 1 .707 0l1.566 1.043 1.566-1.043a.637.637 0 0 1 .711 0l1.922 1.278a.642.642 0 0 1 .18.89M20.48 18.56a1.92 1.92 0 1 1-.004-3.84 1.92 1.92 0 0 1 .004 3.84M16.875 6.4h-.234V4.624a.93.93 0 0 1 1.39-.809l.563.325c-.02.109-.035.222-.035.34a1.919 1.919 0 1 0 1.922-1.922c-.477 0-.91.183-1.247.472l-.566-.324a2.187 2.187 0 0 0-2.207.008 2.189 2.189 0 0 0-1.102 1.91v1.773h-.234a2.956 2.956 0 0 0-2.434 1.282h6.618a2.956 2.956 0 0 0-2.434-1.282M2.559 17.362v1.196h-.637a.641.641 0 0 0 0 1.28h.637v1.196c0 .957.52 1.79 1.28 2.254v-8.18a2.644 2.644 0 0 0-1.28 2.254m0 0"/></svg>