<svg role="img" viewBox="0 0 32 32" height="32" width="32" xmlns="http://www.w3.org/2000/svg"><path d="M16 0a1.928 1.928 0 0 0-1.922 1.922c0 .574.254 1.07.64 1.418v1.78h2.563V3.36c.39-.347.64-.851.64-1.437C17.922.832 17.09 0 16 0M3.84 6.398v19.84h13.902L17.282 32l6.84-5.762h4.038V6.398Zm7.68 5.762c1.09 0 1.921.832 1.921 1.918 0 1.09-.832 1.922-1.921 1.922a1.925 1.925 0 0 1-1.918-1.922c0-1.086.894-1.918 1.918-1.918m8.96 0c1.086 0 1.918.832 1.918 1.918 0 1.09-.832 1.922-1.918 1.922a1.928 1.928 0 0 1-1.921-1.922c0-1.086.898-1.918 1.921-1.918m-19.664.004c-.472-.047-.816.32-.816.883v5.137c0 .644.45 1.285 1.023 1.476l.512.13c.578.194 1.024-.192 1.024-.837v-5.137c0-.644-.446-1.285-1.024-1.414l-.512-.191a.946.946 0 0 0-.207-.047m30.368 0a1.03 1.03 0 0 0-.207.043l-.512.195c-.578.13-1.024.77-1.024 1.414v5.137c0 .645.446 1.031 1.024.836l.512-.129c.573-.19 1.023-.832 1.023-1.476v-5.137c0-.563-.344-.93-.816-.883M12.8 18.56h6.398c-.444 1.47-1.725 2.56-3.198 2.56-1.473 0-2.687-1.09-3.2-2.562m0 0"/></svg>