<?xml version="1.0" encoding="UTF-8"?>
<svg xmlns="http://www.w3.org/2000/svg" xmlns:xlink="http://www.w3.org/1999/xlink" width="32" height="32" viewBox="0 0 32 32">
<path fill-rule="nonzero" fill="rgb(0%, 0%, 0%)" fill-opacity="1" d="M 16 0 C 14.941406 0.00390625 14.082031 0.863281 14.078125 1.921875 C 14.078125 2.496094 14.332031 2.992188 14.71875 3.339844 L 14.71875 5.121094 L 17.28125 5.121094 L 17.28125 3.359375 C 17.671875 3.011719 17.921875 2.507812 17.921875 1.921875 C 17.921875 0.832031 17.089844 0 16 0 M 3.839844 6.398438 L 3.839844 26.238281 L 17.742188 26.238281 L 17.28125 32 L 24.121094 26.238281 L 28.160156 26.238281 L 28.160156 6.398438 Z M 11.519531 12.160156 C 12.609375 12.160156 13.441406 12.992188 13.441406 14.078125 C 13.441406 15.167969 12.609375 16 11.519531 16 C 10.460938 15.996094 9.605469 15.136719 9.601562 14.078125 C 9.601562 12.992188 10.496094 12.160156 11.519531 12.160156 M 20.480469 12.160156 C 21.566406 12.160156 22.398438 12.992188 22.398438 14.078125 C 22.398438 15.167969 21.566406 16 20.480469 16 C 19.421875 15.996094 18.5625 15.136719 18.558594 14.078125 C 18.558594 12.992188 19.457031 12.160156 20.480469 12.160156 M 0.816406 12.164062 C 0.34375 12.117188 0 12.484375 0 13.046875 L 0 18.183594 C 0 18.828125 0.449219 19.46875 1.023438 19.660156 L 1.535156 19.789062 C 2.113281 19.984375 2.558594 19.597656 2.558594 18.953125 L 2.558594 13.816406 C 2.558594 13.171875 2.113281 12.53125 1.535156 12.402344 L 1.023438 12.210938 C 0.957031 12.1875 0.886719 12.171875 0.816406 12.164062 M 31.183594 12.164062 C 31.113281 12.171875 31.042969 12.1875 30.976562 12.207031 L 30.464844 12.402344 C 29.886719 12.53125 29.441406 13.171875 29.441406 13.816406 L 29.441406 18.953125 C 29.441406 19.597656 29.886719 19.984375 30.464844 19.789062 L 30.976562 19.660156 C 31.550781 19.46875 32 18.828125 32 18.183594 L 32 13.046875 C 32 12.484375 31.65625 12.117188 31.183594 12.164062 M 12.800781 18.558594 L 19.199219 18.558594 C 18.753906 20.03125 17.472656 21.121094 16 21.121094 C 14.527344 21.121094 13.3125 20.03125 12.800781 18.558594 M 12.800781 18.558594 "/>
</svg>
