<svg role="img" viewBox="0 0 32 32" height="32" width="32" xmlns="http://www.w3.org/2000/svg"><path d="M27.52 16.64v-2.538a5.147 5.147 0 0 0-5.141-5.141H16.64V6.949a2.552 2.552 0 0 0 1.918-2.469A2.557 2.557 0 0 0 16 1.922a2.557 2.557 0 0 0-2.559 2.558c0 1.192.82 2.184 1.918 2.47v2.01H9.621a5.147 5.147 0 0 0-5.14 5.142v2.539h-3.2v7.68h3.2v5.757H27.52V24.32h3.199v-7.68Zm-10.24 7.68v4.48h-2.56v-4.48ZM9.6 16.96a2.239 2.239 0 1 1 4.477 0c0 1.24-1 2.24-2.238 2.24s-2.238-1-2.238-2.24m1.278 7.36h2.562v4.48H10.88ZM21.12 28.8h-2.56v-4.48h2.562Zm-.96-9.6c-1.24 0-2.24-1-2.24-2.24a2.239 2.239 0 1 1 4.477 0c0 1.24-1 2.24-2.238 2.24m0 0"/></svg>