<?xml version="1.0" encoding="UTF-8"?>
<svg xmlns="http://www.w3.org/2000/svg" xmlns:xlink="http://www.w3.org/1999/xlink" width="26.246666" height="32" viewBox="0 0 26.246666 32">
<path fill-rule="nonzero" fill="rgb(94.901961%, 29.803922%, 32.54902%)" fill-opacity="1" d="M -0.00390625 19.671875 L -0.00390625 0 L 22.394531 0 L 26.132812 6.472656 L 20.632812 16 L 26.242188 25.71875 L 22.617188 32 L 4.144531 32 L 4.144531 29.519531 L 9.296875 29.519531 L 9.296875 27.988281 L 6.800781 27.988281 L 6.800781 25.488281 L 18.597656 25.488281 L 13.117188 16 L 18.597656 6.507812 L 6.503906 6.507812 L 6.503906 19.671875 Z M -0.00390625 19.671875 "/>
<path fill-rule="nonzero" fill="rgb(94.901961%, 29.803922%, 32.54902%)" fill-opacity="1" d="M 2.652344 25.488281 L 5.148438 25.488281 L 5.148438 27.988281 L 2.652344 27.988281 Z M 2.652344 25.488281 "/>
<path fill-rule="nonzero" fill="rgb(94.901961%, 29.803922%, 32.54902%)" fill-opacity="1" d="M -0.00390625 29.503906 L 2.492188 29.503906 L 2.492188 32 L -0.00390625 32 Z M -0.00390625 29.503906 "/>
</svg>
