<svg role="img" viewBox="0 0 32 32" height="32" width="32" xmlns="http://www.w3.org/2000/svg"><path d="M28.48 0A3.52 3.52 0 1 0 32 3.52 3.528 3.528 0 0 0 28.48 0m-6.539.86a.967.967 0 0 0-.12.019.652.652 0 0 0-.489.457.651.651 0 0 0 .188.644l1.26 1.22h-7.42c-6.833 0-9.829 3.96-10.64 6.42.133-.008.273-.02.402-.02.332 0 .66.028.98.079.797-1.899 3.231-5.2 9.258-5.2h7.422l-1.2 1.241a.649.649 0 0 0-.21.648.647.647 0 0 0 .491.469c.239.05.485-.04.637-.234l2.281-2.364a.643.643 0 0 0-.023-.898l-2.36-2.281a.69.69 0 0 0-.457-.2m6.54 7.461a3.53 3.53 0 0 0-3.52 3.52 3.518 3.518 0 0 0 3.52 3.46A3.518 3.518 0 0 0 32 11.84a3.53 3.53 0 0 0-3.52-3.52m-6.539.86a.969.969 0 0 0-.12.02.652.652 0 0 0-.489.456.651.651 0 0 0 .188.645l1.261 1.219H19.54c-3.789 0-4.789.98-5.68 1.84-.57.55-1.086 1.027-2.5 1.242.094.41.153.843.16 1.277 1.844-.27 2.54-.941 3.223-1.598.781-.758 1.524-1.48 4.797-1.48h3.242l-1.203 1.238a.647.647 0 0 0-.207.649.64.64 0 0 0 1.129.234l2.281-2.363a.636.636 0 0 0-.023-.899l-2.36-2.281a.626.626 0 0 0-.457-.2m-16.82 1.7A5.126 5.126 0 0 0 0 16a5.126 5.126 0 0 0 5.121 5.121A5.13 5.13 0 0 0 10.238 16a5.13 5.13 0 0 0-5.117-5.121m23.36 5.762a3.53 3.53 0 0 0-3.52 3.52 3.523 3.523 0 0 0 3.52 3.519A3.528 3.528 0 0 0 32 20.16a3.528 3.528 0 0 0-3.52-3.52m-17 .122c-.05.422-.144.836-.28 1.238 1.538.2 2.066.71 2.66 1.281.89.86 1.89 1.84 5.68 1.84h3.241l-1.199 1.238a.649.649 0 0 0-.21.649.647.647 0 0 0 .491.469.653.653 0 0 0 .637-.235l2.281-2.363a.64.64 0 0 0-.023-.899l-2.36-2.28a.634.634 0 0 0-.578-.18.652.652 0 0 0-.488.457.651.651 0 0 0 .188.644l1.261 1.219H19.54c-3.273 0-4.016-.723-4.797-1.48-.691-.66-1.387-1.337-3.262-1.598M6.098 22.32a6.279 6.279 0 0 1-.977.078c-.133 0-.27-.011-.402-.02.812 2.462 3.808 6.423 10.64 6.423h7.422L21.52 30.02a.653.653 0 0 0-.235.636.636.636 0 0 0 .465.496.649.649 0 0 0 .648-.21l2.364-2.282a.64.64 0 0 0 .02-.898L22.5 25.398a.643.643 0 0 0-.578-.199.638.638 0 0 0-.496.438.644.644 0 0 0 .156.644l1.2 1.239h-7.423c-6.027 0-8.46-3.301-9.257-5.2m22.378 2.64a3.518 3.518 0 0 0-3.52 3.52A3.528 3.528 0 0 0 28.48 32 3.528 3.528 0 0 0 32 28.48a3.528 3.528 0 0 0-3.52-3.52"/></svg>