<?xml version="1.0" encoding="UTF-8"?>
<svg xmlns="http://www.w3.org/2000/svg" xmlns:xlink="http://www.w3.org/1999/xlink" width="32" height="32" viewBox="0 0 32 32">
<path  d="M 27.3125 3.351562 C 26.917969 2.984375 26.304688 2.996094 25.925781 3.378906 C 25.542969 3.757812 25.53125 4.371094 25.898438 4.765625 C 28.527344 7.390625 30.003906 10.953125 30 14.667969 C 30 18.535156 28.433594 22.03125 25.898438 24.566406 C 25.519531 24.957031 25.527344 25.582031 25.910156 25.96875 C 26.296875 26.351562 26.921875 26.359375 27.3125 25.980469 C 30.316406 22.980469 32.003906 18.910156 32 14.667969 C 32 10.246094 30.207031 6.246094 27.3125 3.351562 M 6.101562 4.765625 C 6.46875 4.371094 6.457031 3.757812 6.074219 3.378906 C 5.695312 2.996094 5.082031 2.984375 4.6875 3.351562 C 1.683594 6.351562 -0.00390625 10.421875 0 14.667969 C 0 19.085938 1.792969 23.085938 4.6875 25.980469 C 5.082031 26.347656 5.695312 26.335938 6.074219 25.957031 C 6.457031 25.574219 6.46875 24.960938 6.101562 24.566406 C 3.472656 21.945312 1.996094 18.378906 2 14.667969 C 2 10.800781 3.566406 7.300781 6.101562 4.765625 M 10.8125 9.480469 C 11.179688 9.085938 11.167969 8.472656 10.789062 8.089844 C 10.40625 7.710938 9.792969 7.699219 9.398438 8.066406 C 7.648438 9.816406 6.664062 12.191406 6.667969 14.667969 C 6.664062 17.144531 7.648438 19.519531 9.398438 21.265625 C 9.792969 21.644531 10.417969 21.640625 10.800781 21.253906 C 11.1875 20.867188 11.191406 20.246094 10.8125 19.851562 C 9.4375 18.476562 8.664062 16.609375 8.667969 14.664062 C 8.664062 12.71875 9.4375 10.855469 10.8125 9.480469 Z M 22.601562 8.066406 C 22.351562 7.800781 21.976562 7.6875 21.621094 7.78125 C 21.265625 7.871094 20.988281 8.148438 20.898438 8.5 C 20.808594 8.855469 20.917969 9.230469 21.1875 9.480469 C 22.5625 10.855469 23.335938 12.722656 23.332031 14.667969 C 23.335938 16.613281 22.5625 18.476562 21.1875 19.851562 C 20.917969 20.101562 20.808594 20.476562 20.898438 20.832031 C 20.988281 21.183594 21.265625 21.460938 21.621094 21.550781 C 21.976562 21.644531 22.351562 21.53125 22.601562 21.265625 C 24.351562 19.515625 25.335938 17.140625 25.332031 14.667969 C 25.335938 12.191406 24.351562 9.816406 22.601562 8.066406 Z M 18.667969 14.667969 C 18.667969 15.753906 18.007812 16.730469 17 17.140625 L 17 28.332031 C 17 28.886719 16.550781 29.332031 16 29.332031 C 15.449219 29.332031 15 28.886719 15 28.332031 L 15 17.140625 C 13.757812 16.636719 13.082031 15.289062 13.421875 13.992188 C 13.761719 12.695312 15.011719 11.851562 16.339844 12.023438 C 17.667969 12.195312 18.667969 13.324219 18.667969 14.667969 "/>
</svg>
