<svg role="img" viewBox="0 0 32 32" xmlns="http://www.w3.org/2000/svg"><path d="M28.48 0a3.525 3.525 0 0 0-3.52 3.52 3.52 3.52 0 0 0 3.52 3.52A3.525 3.525 0 0 0 32 3.52 3.53 3.53 0 0 0 28.48 0m-6.539.86a1 1 0 0 0-.12.019.65.65 0 0 0-.489.457.65.65 0 0 0 .188.644l1.26 1.22h-7.42c-6.833 0-9.829 3.96-10.64 6.42.133-.008.273-.02.402-.02q.499.001.98.079c.797-1.899 3.231-5.2 9.258-5.2h7.422l-1.2 1.241a.65.65 0 0 0-.21.648.65.65 0 0 0 .491.469c.239.05.485-.04.637-.234l2.281-2.364a.643.643 0 0 0-.023-.898l-2.36-2.281a.66.66 0 0 0-.457-.2m6.54 7.461a3.53 3.53 0 0 0-3.52 3.52 3.523 3.523 0 0 0 3.52 3.52A3.523 3.523 0 0 0 32 11.84a3.53 3.53 0 0 0-3.52-3.52m-6.539.86a1 1 0 0 0-.12.02.65.65 0 0 0-.489.456.65.65 0 0 0 .188.645l1.261 1.219H19.54c-3.789 0-4.789.98-5.68 1.84-.57.55-1.086 1.027-2.5 1.242.094.41.153.843.16 1.277 1.844-.27 2.54-.941 3.223-1.598.781-.758 1.524-1.48 4.797-1.48h3.242l-1.203 1.238a.642.642 0 1 0 .922.883l2.281-2.363a.636.636 0 0 0-.023-.899l-2.36-2.281a.63.63 0 0 0-.457-.2m-16.82 1.7A5.126 5.126 0 0 0 0 16a5.126 5.126 0 0 0 5.121 5.121A5.13 5.13 0 0 0 10.238 16a5.13 5.13 0 0 0-5.117-5.121m23.36 5.762a3.53 3.53 0 0 0-3.52 3.52 3.523 3.523 0 0 0 3.52 3.519A3.53 3.53 0 0 0 32 20.16a3.53 3.53 0 0 0-3.52-3.52m-17 .122q-.076.634-.28 1.238c1.538.2 2.066.71 2.66 1.281.89.86 1.89 1.84 5.68 1.84h3.241l-1.199 1.238a.65.65 0 0 0-.21.649.65.65 0 0 0 .491.469.65.65 0 0 0 .637-.235l2.281-2.363a.64.64 0 0 0-.023-.899l-2.36-2.28a.63.63 0 0 0-.578-.18.65.65 0 0 0-.488.457.65.65 0 0 0 .188.644l1.261 1.219H19.54c-3.273 0-4.016-.723-4.797-1.48-.691-.66-1.387-1.337-3.262-1.598M6.098 22.32q-.486.077-.977.078c-.133 0-.27-.011-.402-.02.812 2.462 3.808 6.423 10.64 6.423h7.422L21.52 30.02a.65.65 0 0 0-.235.636.64.64 0 0 0 .465.496.65.65 0 0 0 .648-.21l2.364-2.282a.64.64 0 0 0 .02-.898L22.5 25.398a.64.64 0 0 0-.578-.199.64.64 0 0 0-.496.438.63.63 0 0 0 .156.644l1.2 1.239h-7.423c-6.027 0-8.46-3.301-9.257-5.2m22.378 2.64a3.523 3.523 0 0 0-3.52 3.52A3.53 3.53 0 0 0 28.48 32 3.53 3.53 0 0 0 32 28.48a3.53 3.53 0 0 0-3.52-3.52" fill="rgb(0%, 0%, 0%)"/></svg>