<svg role="img" viewBox="0 0 32 32" height="32" width="32" xmlns="http://www.w3.org/2000/svg"><path d="M16 1.922a3.837 3.837 0 0 0-3.46 2.2C13.565 3.913 14.718 3.8 16 3.8c1.285 0 2.434.113 3.46.32A3.824 3.824 0 0 0 16 1.92m0 3.156c-3.715 0-7.719.98-7.719 4.524 0 .761.106 1.418.297 2 .516.046 1.043.207 1.684.378 1.218.329 3.062.82 5.738.82 2.434 0 4.176-.37 5.441-.64.735-.156 1.329-.273 1.899-.3.258-.633.379-1.383.379-2.258 0-3.543-4.004-4.524-7.719-4.524m-14.078.043a.639.639 0 0 0-.64.64c0 3.692.84 6.344 2.5 7.9.988.925 2.034 1.23 2.679 1.32-.055.683-.063 1.515-.063 2.597 0 .106.02.215.024.32h-5.14c-.36 0-.66.301-.66.66 0 .364.3.66.66.66H6.5c.14 1.153.445 2.298.879 3.384-1.617.386-6.098 1.878-6.098 6.84 0 .355.285.636.64.636a.634.634 0 0 0 .638-.637c0-4.402 4.328-5.488 5.363-5.68 1.457 2.786 3.945 5 7.437 5.579V18.559c0-.356.29-.637.641-.637.352 0 .64.281.64.637v10.78c3.493-.577 6-2.773 7.462-5.558 1.09.211 5.34 1.305 5.34 5.66 0 .356.285.637.636.637.356 0 .64-.281.64-.637 0-4.96-4.48-6.453-6.097-6.84.434-1.085.738-2.23.879-3.382h5.219c.36 0 .66-.297.66-.66 0-.36-.3-.66-.66-.66h-5.14c.003-.106.023-.215.023-.32 0-1.063-.008-1.915-.102-2.599.64-.085 1.71-.378 2.719-1.32 1.66-1.555 2.5-4.207 2.5-7.898a.639.639 0 0 0-.64-.64.63.63 0 0 0-.24.058c-.077.03-.163.062-.218.12a.637.637 0 0 0-.18.462c0 3.254-.707 5.648-2.062 6.937-.844.805-1.727.985-2.14 1.02-.09.008-.118.02-.16.02-.302-.403-.782-.618-1.54-.618-.5 0-1.086.137-1.84.3-1.32.278-3.129.657-5.699.657-2.844 0-4.797-.531-6.078-.879-.738-.199-1.25-.34-1.723-.34-.8 0-1.254.25-1.5.84-.422-.047-1.238-.21-2.039-.96-1.37-1.286-2.101-3.7-2.101-6.977a.638.638 0 0 0-.637-.64m0 0"/></svg>