<?xml version="1.0" encoding="UTF-8"?>
<svg xmlns="http://www.w3.org/2000/svg" xmlns:xlink="http://www.w3.org/1999/xlink" width="32" height="32" viewBox="0 0 32 32">
<path fill-rule="nonzero" fill="rgb(0%, 0%, 0%)" fill-opacity="1" d="M 16 1.921875 C 14.519531 1.925781 13.171875 2.78125 12.539062 4.121094 C 13.566406 3.914062 14.71875 3.800781 16 3.800781 C 17.285156 3.800781 18.433594 3.914062 19.460938 4.121094 C 18.832031 2.777344 17.480469 1.921875 16 1.921875 M 16 5.074219 C 12.285156 5.074219 8.28125 6.054688 8.28125 9.601562 C 8.28125 10.359375 8.386719 11.019531 8.578125 11.601562 C 9.09375 11.644531 9.621094 11.808594 10.261719 11.976562 C 11.480469 12.308594 13.324219 12.796875 16 12.796875 C 18.433594 12.796875 20.175781 12.429688 21.441406 12.15625 C 22.175781 12.003906 22.769531 11.886719 23.339844 11.859375 C 23.597656 11.226562 23.71875 10.476562 23.71875 9.601562 C 23.71875 6.058594 19.714844 5.074219 16 5.074219 M 1.921875 5.117188 C 1.753906 5.117188 1.589844 5.1875 1.46875 5.304688 C 1.347656 5.425781 1.28125 5.589844 1.28125 5.757812 C 1.28125 9.449219 2.121094 12.101562 3.78125 13.660156 C 4.769531 14.585938 5.816406 14.890625 6.460938 14.980469 C 6.40625 15.660156 6.398438 16.492188 6.398438 17.574219 C 6.398438 17.683594 6.417969 17.789062 6.421875 17.894531 L 1.28125 17.894531 C 0.921875 17.894531 0.621094 18.195312 0.621094 18.554688 C 0.621094 18.921875 0.921875 19.214844 1.28125 19.214844 L 6.5 19.214844 C 6.640625 20.367188 6.945312 21.515625 7.378906 22.601562 C 5.761719 22.984375 1.28125 24.476562 1.28125 29.441406 C 1.28125 29.796875 1.566406 30.074219 1.921875 30.074219 C 2.089844 30.078125 2.253906 30.011719 2.371094 29.890625 C 2.492188 29.769531 2.558594 29.609375 2.558594 29.4375 C 2.558594 25.035156 6.886719 23.949219 7.921875 23.757812 C 9.378906 26.546875 11.867188 28.757812 15.359375 29.339844 L 15.359375 18.558594 C 15.359375 18.203125 15.648438 17.921875 16 17.921875 C 16.351562 17.921875 16.640625 18.203125 16.640625 18.558594 L 16.640625 29.339844 C 20.132812 28.761719 22.640625 26.566406 24.101562 23.78125 C 25.191406 23.992188 29.441406 25.085938 29.441406 29.441406 C 29.441406 29.796875 29.726562 30.078125 30.078125 30.078125 C 30.433594 30.078125 30.71875 29.796875 30.71875 29.441406 C 30.71875 24.480469 26.238281 22.988281 24.621094 22.601562 C 25.054688 21.515625 25.359375 20.371094 25.5 19.21875 L 30.71875 19.21875 C 31.078125 19.21875 31.378906 18.921875 31.378906 18.558594 C 31.378906 18.199219 31.078125 17.898438 30.71875 17.898438 L 25.578125 17.898438 C 25.582031 17.792969 25.601562 17.683594 25.601562 17.578125 C 25.601562 16.515625 25.59375 15.664062 25.5 14.980469 C 26.140625 14.894531 27.210938 14.601562 28.21875 13.660156 C 29.878906 12.105469 30.71875 9.453125 30.71875 5.761719 C 30.71875 5.59375 30.652344 5.429688 30.53125 5.308594 C 30.410156 5.1875 30.25 5.121094 30.078125 5.121094 C 29.996094 5.125 29.914062 5.144531 29.839844 5.179688 C 29.761719 5.210938 29.675781 5.242188 29.621094 5.300781 C 29.5 5.421875 29.4375 5.589844 29.441406 5.761719 C 29.441406 9.015625 28.734375 11.410156 27.378906 12.699219 C 26.535156 13.503906 25.652344 13.683594 25.238281 13.71875 C 25.148438 13.726562 25.121094 13.738281 25.078125 13.738281 C 24.777344 13.335938 24.296875 13.121094 23.539062 13.121094 C 23.039062 13.121094 22.453125 13.257812 21.699219 13.421875 C 20.378906 13.699219 18.570312 14.078125 16 14.078125 C 13.15625 14.078125 11.203125 13.546875 9.921875 13.199219 C 9.183594 13 8.671875 12.859375 8.199219 12.859375 C 7.398438 12.859375 6.945312 13.109375 6.699219 13.699219 C 6.277344 13.652344 5.460938 13.488281 4.660156 12.738281 C 3.289062 11.453125 2.558594 9.039062 2.558594 5.761719 C 2.558594 5.59375 2.492188 5.429688 2.375 5.308594 C 2.253906 5.191406 2.089844 5.121094 1.921875 5.121094 M 1.921875 5.121094 "/>
</svg>
