<?xml version="1.0" encoding="UTF-8"?>
<svg xmlns="http://www.w3.org/2000/svg" xmlns:xlink="http://www.w3.org/1999/xlink" width="32" height="32" viewBox="0 0 32 32">
<path fill-rule="evenodd" fill="rgb(21.568627%, 27.843137%, 30.980392%)" fill-opacity="1" d="M 15.269531 2.191406 C 15.722656 1.9375 16.277344 1.9375 16.730469 2.191406 C 18.96875 3.445312 25.699219 7.226562 27.933594 8.480469 C 28.386719 8.734375 28.667969 9.203125 28.667969 9.710938 C 28.667969 12.222656 28.667969 19.777344 28.667969 22.289062 C 28.667969 22.796875 28.386719 23.265625 27.933594 23.519531 C 25.699219 24.773438 18.96875 28.554688 16.730469 29.808594 C 16.277344 30.0625 15.71875 30.0625 15.269531 29.808594 C 13.03125 28.554688 6.300781 24.773438 4.0625 23.519531 C 3.613281 23.265625 3.332031 22.796875 3.332031 22.289062 C 3.332031 19.777344 3.332031 12.222656 3.332031 9.710938 C 3.332031 9.203125 3.613281 8.734375 4.066406 8.480469 C 6.300781 7.226562 13.03125 3.445312 15.269531 2.191406 Z M 15.269531 2.191406 "/>
<path fill-rule="evenodd" fill="rgb(32.941176%, 43.137255%, 47.843137%)" fill-opacity="1" d="M 3.535156 22.9375 C 3.359375 22.699219 3.332031 22.472656 3.332031 22.171875 C 3.332031 19.675781 3.332031 12.160156 3.332031 9.664062 C 3.332031 9.160156 3.613281 8.691406 4.0625 8.441406 C 6.292969 7.191406 13 3.433594 15.226562 2.1875 C 15.679688 1.933594 16.289062 1.9375 16.742188 2.191406 C 18.96875 3.441406 25.65625 7.164062 27.882812 8.414062 C 28.066406 8.515625 28.203125 8.636719 28.324219 8.796875 Z M 3.535156 22.9375 "/>
<path fill-rule="evenodd" fill="rgb(100%, 100%, 100%)" fill-opacity="1" d="M 16 6.667969 C 21.152344 6.667969 25.332031 10.847656 25.332031 16 C 25.332031 21.152344 21.152344 25.332031 16 25.332031 C 10.847656 25.332031 6.667969 21.152344 6.667969 16 C 6.667969 10.847656 10.847656 6.667969 16 6.667969 Z M 16 11.332031 C 18.574219 11.332031 20.667969 13.425781 20.667969 16 C 20.667969 18.574219 18.574219 20.667969 16 20.667969 C 13.425781 20.667969 11.332031 18.574219 11.332031 16 C 11.332031 13.425781 13.425781 11.332031 16 11.332031 Z M 16 11.332031 "/>
<path fill-rule="evenodd" fill="rgb(27.058824%, 35.294118%, 39.215686%)" fill-opacity="1" d="M 28.324219 8.804688 C 28.667969 9.125 28.660156 9.609375 28.660156 9.992188 C 28.660156 12.523438 28.640625 19.71875 28.667969 22.25 C 28.667969 22.511719 28.582031 22.789062 28.453125 23 L 15.730469 16 Z M 28.324219 8.804688 "/>
<path fill-rule="evenodd" fill="rgb(100%, 100%, 100%)" fill-opacity="1" d="M 22.667969 13.332031 L 23.332031 13.332031 L 23.332031 18.667969 L 22.667969 18.667969 Z M 24.667969 13.332031 L 25.332031 13.332031 L 25.332031 18.667969 L 24.667969 18.667969 Z M 24.667969 13.332031 "/>
<path fill-rule="evenodd" fill="rgb(100%, 100%, 100%)" fill-opacity="1" d="M 21.332031 16.667969 L 26.667969 16.667969 L 26.667969 17.332031 L 21.332031 17.332031 Z M 21.332031 14.667969 L 26.667969 14.667969 L 26.667969 15.332031 L 21.332031 15.332031 Z M 21.332031 14.667969 "/>
</svg>
