<?xml version="1.0" encoding="UTF-8"?>
<svg xmlns="http://www.w3.org/2000/svg" xmlns:xlink="http://www.w3.org/1999/xlink" width="32" height="32" viewBox="0 0 32 32">
<path fill-rule="evenodd" fill="rgb(12.156863%, 53.333333%, 75.294118%)" fill-opacity="1" d="M 29.816406 12.082031 C 30.214844 14.007812 30.175781 15.914062 29.847656 17.738281 C 29.511719 19.589844 28.84375 21.34375 27.882812 22.925781 C 27.496094 23.558594 27.074219 24.164062 26.613281 24.742188 C 26.152344 25.3125 25.65625 25.863281 25.113281 26.367188 C 23.527344 27.867188 21.605469 29.058594 19.378906 29.738281 C 17.613281 30.289062 15.832031 30.5 14.09375 30.382812 C 12.257812 30.257812 10.488281 29.792969 8.847656 29.027344 L 8.6875 29.335938 C 10.320312 30.265625 12.113281 30.890625 14 31.175781 C 15.847656 31.457031 17.773438 31.398438 19.707031 30.96875 C 22.21875 30.382812 24.453125 29.230469 26.28125 27.660156 C 26.90625 27.121094 27.488281 26.519531 28.015625 25.871094 C 28.539062 25.222656 29.007812 24.53125 29.410156 23.804688 C 30.402344 22.007812 31.035156 20 31.214844 17.914062 C 31.386719 15.9375 31.144531 13.898438 30.476562 11.898438 Z M 4.472656 25.425781 C 3.742188 24.625 3.089844 23.742188 2.550781 22.773438 C 2.023438 21.824219 1.605469 20.808594 1.289062 19.726562 C 1.167969 19.1875 1.078125 18.652344 1.023438 18.113281 C 0.804688 15.914062 1.160156 13.777344 1.859375 11.785156 C 2.234375 10.714844 2.734375 9.703125 3.304688 8.738281 C 4.066406 7.453125 4.964844 6.25 6.058594 5.203125 C 7.667969 3.667969 9.617188 2.449219 11.882812 1.75 C 13.726562 1.1875 15.59375 0.972656 17.40625 1.144531 C 18.664062 1.261719 19.898438 1.535156 21.054688 1.992188 C 22.363281 2.515625 23.574219 3.269531 24.660156 4.164062 C 25.726562 5.046875 26.660156 6.097656 27.445312 7.265625 C 27.550781 7.417969 27.613281 7.597656 27.742188 7.734375 C 27.84375 7.835938 27.957031 7.878906 28.074219 7.957031 L 28.539062 7.660156 C 28.511719 7.511719 28.511719 7.390625 28.453125 7.253906 C 28.371094 7.078125 28.222656 6.941406 28.097656 6.789062 C 26.816406 5.183594 25.234375 3.871094 23.472656 2.886719 C 22.71875 2.46875 21.933594 2.113281 21.128906 1.808594 C 20.242188 1.46875 19.324219 1.1875 18.382812 0.992188 C 16.234375 0.542969 13.964844 0.507812 11.6875 1.03125 C 9.214844 1.597656 7.011719 2.714844 5.207031 4.257812 C 3.953125 5.332031 2.871094 6.59375 2.0625 8.019531 C 1.457031 9.089844 1.015625 10.25 0.722656 11.445312 C 0.195312 13.605469 0.1875 15.886719 0.664062 18.167969 C 0.773438 18.707031 0.90625 19.242188 1.078125 19.78125 C 1.351562 20.898438 1.75 21.945312 2.238281 22.933594 C 2.742188 23.960938 3.347656 24.917969 4.046875 25.789062 Z M 4.472656 25.425781 "/>
<path fill="none" stroke-width="5.7819" stroke-linecap="butt" stroke-linejoin="round" stroke="rgb(12.156863%, 53.333333%, 75.294118%)" stroke-opacity="1" stroke-miterlimit="22.0264" d="M -51.703178 26.407027 C -51.601267 19.996821 -57.191127 14.802757 -63.889498 14.80373 C -67.498172 14.802966 -70.706301 16.293755 -72.995775 18.706684 C -75.011175 20.791754 -76.289256 23.601913 -76.305815 26.607679 C -76.410774 32.99792 -70.796751 38.208726 -64.09838 38.207753 C -57.39413 38.103732 -51.808137 32.797269 -51.703178 26.407027 Z M -51.703178 26.407027 " transform="matrix(-0.180777, -0.029186, 0.0275949, -0.1912, 17.135498, 12.747044)"/>
<path fill-rule="evenodd" fill="rgb(12.156863%, 53.333333%, 75.294118%)" fill-opacity="1" d="M 24.585938 14.171875 C 24.585938 14.171875 24.972656 13.804688 25.480469 13.339844 C 26.335938 12.488281 27.488281 11.285156 27.488281 11.285156 L 27.109375 10.847656 C 27.109375 10.847656 25.753906 11.792969 24.785156 12.523438 C 24.25 12.957031 23.804688 13.265625 23.804688 13.265625 Z M 24.585938 14.171875 "/>
<path fill="none" stroke-width="9.5045" stroke-linecap="butt" stroke-linejoin="miter" stroke="rgb(13.333333%, 71.372549%, 21.960784%)" stroke-opacity="1" stroke-miterlimit="20.115299" d="M 24.093939 91.201731 L 75.107833 91.201731 C 78.008211 91.201731 80.300444 88.990225 80.300444 86.292188 L 80.300444 37.90444 C 80.300444 35.206403 78.008211 32.994897 75.107833 32.994897 L -0.793169 32.994897 C -3.693546 32.994897 -6.00917 35.206403 -6.00917 37.90444 L -6.00917 66.499211 " transform="matrix(0.167004, 0, 0, 0.176633, 9.632462, 8.793105)"/>
<path fill="none" stroke-width="9.5045" stroke-linecap="butt" stroke-linejoin="round" stroke="rgb(13.333333%, 71.372549%, 21.960784%)" stroke-opacity="1" stroke-miterlimit="20.115299" d="M 12.609381 32.994897 L 12.609381 9.707741 C 12.609381 -3.096878 23.696307 -13.601531 37.192417 -13.601531 C 50.688528 -13.601531 61.798844 -3.096878 61.798844 9.707741 L 61.798844 32.994897 " transform="matrix(0.167004, 0, 0, 0.176633, 9.632462, 8.793105)"/>
<path fill="none" stroke-width="8.4748" stroke-linecap="butt" stroke-linejoin="round" stroke="rgb(12.156863%, 53.333333%, 75.294118%)" stroke-opacity="1" stroke-miterlimit="34.590801" d="M 28.496433 56.306556 C 28.493068 54.296522 27.997421 52.403033 27.100369 50.795744 C 24.996438 47.206795 21.003768 44.696065 16.299356 44.704364 C 9.604303 44.701749 4.003773 50.003108 3.897255 56.398738 C 3.901975 62.805699 9.39928 67.998314 16.094333 68.00093 C 22.802871 68.001774 28.403401 62.700415 28.496433 56.306556 Z M 28.496433 56.306556 " transform="matrix(0.28474, 0.0395572, -0.0374008, 0.301157, 5.050433, 8.27112)"/>
<path fill-rule="evenodd" fill="rgb(12.156863%, 53.333333%, 75.294118%)" fill-opacity="1" d="M 14.90625 19.347656 C 14.90625 19.347656 12.738281 20.652344 11.175781 21.644531 C 10.289062 22.226562 9.625 22.699219 9.625 22.699219 L 11.007812 24.464844 C 11.007812 24.464844 11.640625 23.945312 12.402344 23.21875 C 13.746094 21.941406 15.535156 20.15625 15.535156 20.15625 Z M 14.90625 19.347656 "/>
</svg>
