<svg role="img" viewBox="0 0 32 32" height="32" width="32" xmlns="http://www.w3.org/2000/svg"><path d="M25.922 2.977v2.078h-3.649V2.977H9.727v2.078H6.078V2.977H1.922v5.726h28.156V2.977Zm0 0" fill="rgb(95.686275%, 26.27451%, 21.176471%)"/><path d="M6.078 8.703H1.922v22.402h28.156V8.703Zm0 0" fill="rgb(81.176471%, 84.705882%, 86.27451%)"/><path d="M6.078.895h3.649v4.16H6.078Zm16.195 0h3.649v4.16h-3.649Zm0 0" fill="rgb(90.980392%, 90.980392%, 90.980392%)"/><path d="M6.078 12.734h3.617v3.586H6.078Zm5.41 0h3.617v3.586h-3.617Zm5.407 0h3.617v3.586h-3.617Zm5.41 0h3.617v3.586h-3.617Zm-16.227 5.41h3.617v3.618H6.078Zm5.41 0h3.617v3.618h-3.617Zm5.407 0h3.617v3.618h-3.617Zm5.41 0h3.617v3.618h-3.617ZM6.078 23.52h3.617v3.617H6.078Zm5.41 0h3.617v3.617h-3.617Zm5.407 0h3.617v3.617h-3.617Zm5.41 0h3.617v3.617h-3.617Zm0 0" fill="rgb(56.470588%, 64.313725%, 68.235294%)"/></svg>