<svg role="img" viewBox="0 0 23.579 32" xmlns="http://www.w3.org/2000/svg"><path d="M17.04 23.227a15 15 0 0 1 1.843-1.387c2.96-1.902 2.148-4.895 1.43-7.32-.512-1.727 1.94-2.192 2.882 2.812.926 4.93-4.789 8.797-6.324 8.797" fill="rgb(45.882353%, 29.803923%, 16.078432%)"/><path d="M16.875 26.379a.257.257 0 0 1-.262-.25c0-.14.117-.254.262-.254.719 0 2.668-1.059 4.18-2.781 1.113-1.27 2.343-3.29 1.886-5.719-.468-2.496-1.328-3.594-1.921-3.777a.35.35 0 0 0-.36.05c-.125.114-.21.383-.09.805.696 2.34 1.645 5.547-1.539 7.594q-.956.61-1.8 1.36a.27.27 0 0 1-.34-.032.24.24 0 0 1-.02-.324c.582-.524 1.211-1 1.879-1.418 2.863-1.844 1.98-4.852 1.328-7.043-.16-.54-.074-1.031.227-1.3a.89.89 0 0 1 .89-.173c.992.305 1.844 1.863 2.278 4.168.492 2.617-.817 4.778-2 6.125-1.567 1.777-3.641 2.969-4.598 2.969m0 0" fill="rgb(13.725491%, 12.156863%, 12.54902%)"/><path d="M21.352 13.598c.62 1.414 2.12 5.34.027 7.855-2.094 2.52-3.5 2.39-3.5 2.39l.203 1.907c2.207-1.086 5.879-4.398 5.117-8.418-.496-2.645-1.168-3.523-1.847-3.734m0 0" fill="rgb(37.64706%, 22.352941%, 7.450981%)"/><path d="M16.875 26.379a.257.257 0 0 1-.262-.25c0-.14.117-.254.262-.254.719 0 2.668-1.059 4.18-2.781 1.113-1.27 2.343-3.29 1.886-5.719-.468-2.496-1.328-3.594-1.921-3.777a.35.35 0 0 0-.36.05c-.125.114-.21.383-.09.805.696 2.34 1.645 5.547-1.539 7.594q-.956.61-1.8 1.36a.27.27 0 0 1-.34-.032.24.24 0 0 1-.02-.324c.582-.524 1.211-1 1.879-1.418 2.863-1.844 1.98-4.852 1.328-7.043-.16-.54-.074-1.031.227-1.3a.89.89 0 0 1 .89-.173c.992.305 1.844 1.863 2.278 4.168.492 2.617-.817 4.778-2 6.125-1.567 1.777-3.641 2.969-4.598 2.969m0 0" fill="rgb(13.725491%, 12.156863%, 12.54902%)"/><path d="M18.453 23.406c0 5.102-3.883 7.965-8.672 7.965S1.11 28.516 1.11 23.406s3.883-13.07 8.672-13.07 8.672 7.965 8.672 13.07m0 0" fill="rgb(96.862745%, 58.039218%, 11.372549%)"/><path d="M9.781 31.605C4.445 31.605.86 28.31.86 23.406c0-5.258 3.996-13.308 8.922-13.308s8.922 8.05 8.922 13.308c0 4.907-3.586 8.2-8.922 8.2m0-21.03c-1.207 0-3.578.585-5.918 4.5-1.543 2.59-2.496 5.78-2.496 8.331 0 4.621 3.383 7.73 8.422 7.73s8.422-3.105 8.422-7.73c0-2.55-.961-5.742-2.508-8.332-2.344-3.91-4.715-4.496-5.922-4.496Zm0 0" fill="rgb(13.725491%, 12.156863%, 12.54902%)"/><path d="M9.781 10.336h-.18c3.723.191 8.184 8.207 8.184 12.867.008 4.723-3.715 7.371-8.312 7.371-1.72 0-3.282-.023-4.575-.39a9.9 9.9 0 0 0 4.883 1.195c4.79 0 8.672-2.863 8.672-7.965 0-5.105-3.883-13.078-8.672-13.078m6.707 6.969-1.363 1.156s1.54-.316 1.602-.578c.062-.266-.239-.578-.239-.578m.348.968L15.25 19.43s1.793-.313 1.863-.578c.075-.262-.277-.579-.277-.579m.367 1.004-1.855 1.336s2.097-.363 2.183-.668c.086-.304-.328-.668-.328-.668m-.074 7.84-1.984-1.148s1.128 1.718 1.457 1.683c.332-.035.527-.535.527-.535m.867-.972-2.21-.688s1.515 1.434 1.827 1.324c.309-.113.383-.636.383-.636m-15.285-8.84 1.621 1.156s-1.824-.316-1.898-.578c-.075-.266.277-.578.277-.578m-.41.968 1.875 1.157s-2.121-.313-2.207-.578c-.086-.262.332-.579.332-.579m-.438 1.004 2.203 1.336s-2.48-.363-2.582-.668c-.101-.304.38-.668.38-.668m0 0" fill="rgb(95.686275%, 46.666667%, 16.078432%)"/><path d="M13.664 22.137c0 2.476-1.453 4.64-4.11 4.64s-4.109-2.16-4.109-4.64 1.453-5.989 4.11-5.989 4.11 3.516 4.11 5.989m0 0" fill="rgb(100%, 100%, 100%)"/><path d="M9.555 27.004c-2.559 0-4.348-2-4.348-4.867a8.3 8.3 0 0 1 1.078-4.04c.824-1.413 1.985-2.19 3.262-2.19 1.281 0 2.437.777 3.262 2.19a8.4 8.4 0 0 1 1.082 4.04c.015 2.867-1.774 4.867-4.336 4.867m0-10.633c-2.489 0-3.864 3.41-3.864 5.766 0 3.043 1.938 4.402 3.864 4.402s3.867-1.36 3.867-4.402c0-2.356-1.379-5.766-3.867-5.766m0 0" fill="rgb(13.725491%, 12.156863%, 12.54902%)"/><path d="M17.418 7.34c-.035.414-.848-.13-1.125.172l-5.672-3.309c.156-.379.344-.746.566-1.09 1.2-1.867 3.774-3.765 5.06-2.398.878.933 1.362 4.21 1.171 6.625m0 0" fill="rgb(45.882353%, 29.803923%, 16.078432%)"/><path d="m16.344 7.832-.18-.11-5.867-3.413.078-.2q.245-.593.59-1.129C11.89 1.535 13.672 0 15.145 0a1.7 1.7 0 0 1 1.296.55c.97 1.032 1.43 4.41 1.239 6.805a.4.4 0 0 1-.149.297.44.44 0 0 1-.324.102 3 3 0 0 1-.344-.047 2 2 0 0 0-.297-.043.2.2 0 0 0-.074.012Zm.222-.668q.206.005.399.05.1.022.195.032c.18-2.484-.351-5.555-1.11-6.355a1.2 1.2 0 0 0-.898-.383c-1.234 0-2.867 1.394-3.73 2.75a6.5 6.5 0 0 0-.465.86l5.332 3.097a.8.8 0 0 1 .277-.05m-.949-1.469c-.012.137-2.39-1.203-2.39-1.203.046-.125.109-.246.18-.36.398-.62 1.234-1.585 1.687-1.03.129.164.59 1.793.523 2.593m-.02.262c-.07 0-.288 0-2.503-1.242l-.196-.11.082-.199q.083-.21.207-.398c.2-.309.903-1.317 1.583-1.317a.66.66 0 0 1 .539.27c.191.238.632 1.95.57 2.746-.008.14-.133.25-.281.25m-2.034-1.559c.683.38 1.398.758 1.8.946a8 8 0 0 0-.484-2.09.12.12 0 0 0-.113-.059c-.25 0-.746.47-1.133 1.07-.016.044-.047.087-.07.133m0 0" fill="rgb(13.725491%, 12.156863%, 12.54902%)"/><path d="M16.344.848 14.98 2.004s1.543-.316 1.606-.578c.059-.266-.242-.578-.242-.578m0 0" fill="rgb(23.529412%, 14.117648%, 8.235294%)"/><path d="M2.004 7.504c.035.414.848-.125 1.125.172L8.805 4.37a6.6 6.6 0 0 0-.57-1.09C7.038 1.414 4.464-.48 3.171.883c-.875.933-1.36 4.21-1.168 6.62m0 0" fill="rgb(96.862745%, 58.039218%, 11.372549%)"/><path d="m2.902 1.426 1.621 1.156s-1.832-.312-1.898-.578c-.062-.266.277-.578.277-.578m-.57 1.054 1.23.829s-1.39-.227-1.44-.414c-.052-.188.21-.415.21-.415m0 0" fill="rgb(95.686275%, 46.666667%, 16.078432%)"/><path d="m3.082 8-.152-.156a.2.2 0 0 0-.07-.012q-.152.01-.297.043c-.114.023-.231.04-.348.043a.43.43 0 0 1-.473-.395c-.195-2.394.274-5.78 1.246-6.808.332-.356.801-.55 1.29-.543 1.476 0 3.253 1.547 4.183 2.98.226.364.426.739.586 1.133l.082.195ZM4.277.668a1.17 1.17 0 0 0-.898.383c-.762.808-1.293 3.883-1.11 6.355.055 0 .126-.02.196-.031.219-.059.453-.059.672 0l5.34-3.11a7 7 0 0 0-.465-.855C7.145 2.062 5.508.668 4.277.668m-.472 5.195c.011.14 2.394-1.203 2.394-1.203a2.6 2.6 0 0 0-.18-.363c-.398-.621-1.238-1.586-1.687-1.031-.129.172-.59 1.797-.527 2.597m.02.262a.276.276 0 0 1-.282-.242c-.063-.805.379-2.516.57-2.75a.67.67 0 0 1 .54-.266c.687 0 1.386 1.004 1.581 1.313.082.125.153.261.211.398l.082.2-.195.109C4.122 6.12 3.898 6.125 3.824 6.125m.827-2.766c-.023 0-.066 0-.12.075a8.4 8.4 0 0 0-.466 2.078q.915-.451 1.805-.95-.035-.063-.078-.128c-.395-.602-.89-1.075-1.14-1.075m0 0" fill="rgb(13.725491%, 12.156863%, 12.54902%)"/><path d="M12.055 17.422q.322.395.574.836c1.71-.434 3.086-1.242 3.86-2.254-.06-.117-.118-.227-.18-.344a10.6 10.6 0 0 1-4.254 1.762m-5.532.762q.254-.435.582-.817a10.7 10.7 0 0 1-3.894-1.633c-.066.121-.129.25-.191.375.742.91 1.98 1.645 3.503 2.075m0 0" fill="rgb(37.64706%, 23.921569%, 9.803922%)"/><path d="M9.71 17.637c-.874 0-1.75-.09-2.605-.27a5.4 5.4 0 0 0-.582.817c1.04.293 2.11.437 3.188.433.984 0 1.965-.117 2.918-.36a6 6 0 0 0-.578-.831q-1.162.21-2.34.21m0 0" fill="rgb(34.117648%, 21.960784%, 9.803922%)"/><path d="M9.555 27.004c-2.559 0-4.348-2-4.348-4.867a8.3 8.3 0 0 1 1.078-4.04c.824-1.413 1.985-2.19 3.262-2.19 1.281 0 2.437.777 3.262 2.19a8.4 8.4 0 0 1 1.082 4.04c.015 2.867-1.774 4.867-4.336 4.867m0-10.633c-2.489 0-3.864 3.41-3.864 5.766 0 3.043 1.938 4.402 3.864 4.402s3.867-1.36 3.867-4.402c0-2.356-1.379-5.766-3.867-5.766m0 0" fill="rgb(13.725491%, 12.156863%, 12.54902%)"/><path d="M16.988 15.117q-.325.281-.675.54.086.169.18.343a3.5 3.5 0 0 0 .495-.883m0 0" fill="rgb(32.549021%, 20.392157%, 7.843138%)"/><path d="M9.781 31.605C4.445 31.605.86 28.31.86 23.406c0-5.258 3.996-13.308 8.922-13.308s8.922 8.05 8.922 13.308c0 4.907-3.586 8.2-8.922 8.2m0-21.03c-1.207 0-3.578.585-5.918 4.5-1.543 2.59-2.496 5.78-2.496 8.331 0 4.621 3.383 7.73 8.422 7.73s8.422-3.105 8.422-7.73c0-2.55-.961-5.742-2.508-8.332-2.344-3.91-4.715-4.496-5.922-4.496Zm0 0" fill="rgb(13.725491%, 12.156863%, 12.54902%)"/><path d="M16.23 9.59c.012-1.086.575-2.098 1.508-2.719-1.703-1.89-4.629-3.133-7.957-3.133h-.336c.274 1.098.387 2.227.336 3.356 0 4.5-1.715 8.34-4.125 9.847 1.328.457 2.723.692 4.125.688 4.223 0 7.801-2.008 9.047-4.785-1.523-.508-2.598-1.774-2.598-3.254m0 0" fill="rgb(96.862745%, 58.039218%, 11.372549%)"/><path d="M9.781 17.887a12.7 12.7 0 0 1-4.219-.7.251.251 0 0 1-.054-.445c2.398-1.5 4.008-5.37 4.008-9.637a11.5 11.5 0 0 0-.325-3.293.25.25 0 0 1 .043-.214.28.28 0 0 1 .204-.102h.343c3.285 0 6.336 1.203 8.153 3.223.046.05.07.12.062.191a.24.24 0 0 1-.105.172A3.08 3.08 0 0 0 16.5 9.59c0 1.34.953 2.527 2.422 3.023.07.024.125.075.152.137a.22.22 0 0 1 0 .2c-1.328 2.952-5.062 4.937-9.293 4.937M6.22 16.87c1.152.348 2.355.52 3.562.516 3.906 0 7.36-1.758 8.692-4.399-1.532-.62-2.512-1.925-2.512-3.398a3.51 3.51 0 0 1 1.387-2.746C15.609 5.05 12.8 3.992 9.78 3.992a12.6 12.6 0 0 1 .262 3.117c0 4.243-1.484 8.008-3.824 9.762m0 0" fill="rgb(13.725491%, 12.156863%, 12.54902%)"/><path d="M9.781 7.105c0-1.128-.11-2.25-.336-3.355C4.348 3.879.258 6.934.258 10.691c0 2.754 2.203 5.137 5.39 6.262 2.418-1.508 4.024-5.348 4.133-9.848m0 0" fill="rgb(45.882353%, 29.803923%, 16.078432%)"/><path d="M5.656 17.203a.3.3 0 0 1-.093-.015C2.183 16 0 13.449 0 10.69c0-3.9 4.145-7.057 9.441-7.194a.27.27 0 0 1 .266.203q.341 1.689.336 3.406c-.11 4.575-1.777 8.512-4.242 10.06a.27.27 0 0 1-.145.038M9.23 4.008C4.332 4.215.527 7.118.527 10.69c0 2.512 1.993 4.848 5.094 5.98 2.266-1.503 3.781-5.237 3.899-9.57a16.7 16.7 0 0 0-.29-3.093m0 0" fill="rgb(13.725491%, 12.156863%, 12.54902%)"/><path d="m1.035 8.16 1.621 1.156S.824 9.004.75 8.738s.285-.578.285-.578m-.414.973L2.5 10.289S.375 9.973.285 9.711c-.094-.262.336-.578.336-.578m0 0" fill="rgb(23.529412%, 14.117648%, 8.235294%)"/><path d="M15.633 12.61c0-.981-.77-1.774-1.719-1.774-.676.012-1.281.402-1.543.996 1.5.39 2.504 1.137 2.504 2.125a1 1 0 0 1-.012.129c.492-.344.778-.895.77-1.477m0 0" fill="rgb(95.686275%, 46.666667%, 16.078432%)"/><path d="M9.445 3.75c.227 1.105.336 2.227.336 3.355a11.7 11.7 0 0 0-.336-3.355m0 0" fill="rgb(45.882353%, 29.803923%, 16.078432%)"/><path d="M9.781 7.355a.254.254 0 0 1-.258-.25c0-1.109-.113-2.218-.335-3.308a.25.25 0 0 1 .199-.3c.14-.032.277.05.316.187.277 1.125.39 2.28.34 3.437a.254.254 0 0 1-.262.234m0 0" fill="rgb(13.725491%, 12.156863%, 12.54902%)"/><path d="M17.738 6.871c-.93.621-1.492 1.629-1.508 2.711 0 1.48 1.082 2.75 2.598 3.266.309-.68.469-1.414.473-2.16a5.68 5.68 0 0 0-1.563-3.817m0 0" fill="rgb(45.882353%, 29.803923%, 16.078432%)"/><path d="m18.973 13.164-.235-.078c-1.683-.57-2.777-1.941-2.777-3.496.012-1.164.617-2.254 1.621-2.918l.195-.14.16.171a5.92 5.92 0 0 1 1.622 3.977 5.5 5.5 0 0 1-.497 2.261Zm-1.274-5.937A3.03 3.03 0 0 0 16.5 9.59c0 1.265.852 2.406 2.188 2.937a5 5 0 0 0 .359-1.836 5.38 5.38 0 0 0-1.348-3.464m-8.406.98c.133.996-.742 1.926-1.957 2.074-1.215.149-2.305-.543-2.441-1.539-.133-.996.742-1.926 1.957-2.074 1.214-.148 2.304.539 2.441 1.539m0 0" fill="rgb(13.725491%, 12.156863%, 12.54902%)"/><path d="M8.79 8.547c.097.723-.54 1.398-1.423 1.508-.883.105-1.676-.395-1.773-1.117-.098-.727.539-1.399 1.422-1.508.882-.11 1.675.39 1.773 1.117m0 0" fill="rgb(100%, 100%, 100%)"/><path d="M7.79 8.734c.038.282-.2.54-.532.579-.328.039-.63-.153-.664-.43-.04-.281.199-.54.531-.578.328-.04.629.152.664.43M5.374 7.137a.2.2 0 0 1-.062-.012l-.614-.23a.17.17 0 0 1-.148-.13.165.165 0 0 1 .074-.183.18.18 0 0 1 .203.004l.61.226a.17.17 0 0 1 .101.215.18.18 0 0 1-.164.11m.496-.395a.2.2 0 0 1-.101-.031l-.735-.492a.15.15 0 0 1-.07-.106.16.16 0 0 1 .027-.125.19.19 0 0 1 .242-.043l.739.492a.17.17 0 0 1 .07.11.18.18 0 0 1-.031.125.2.2 0 0 1-.14.07m7.297-.008c1.21.153 2.082 1.082 1.945 2.079-.136.996-1.23 1.68-2.445 1.527-1.211-.152-2.082-1.082-1.945-2.078s1.23-1.68 2.445-1.528m0 0" fill="rgb(13.725491%, 12.156863%, 12.54902%)"/><path d="M12.953 7.43c.883.11 1.52.78 1.422 1.508-.098.722-.89 1.222-1.773 1.117-.883-.11-1.52-.785-1.422-1.508.097-.727.89-1.227 1.773-1.117m0 0" fill="rgb(100%, 100%, 100%)"/><path d="M12.844 8.305c.332.039.57.297.531.574-.035.281-.336.473-.664.434-.332-.04-.57-.301-.531-.579.035-.277.332-.472.664-.43m1.746-1.168a.174.174 0 0 1-.156-.14.165.165 0 0 1 .09-.184l.613-.227a.19.19 0 0 1 .207-.004c.058.04.09.113.074.184a.175.175 0 0 1-.152.129l-.614.23a.2.2 0 0 1-.062.012m-.485-.395a.19.19 0 0 1-.16-.12.16.16 0 0 1 .059-.184l.73-.493a.2.2 0 0 1 .2-.047c.07.028.117.09.117.16s-.043.137-.114.16l-.734.493a.17.17 0 0 1-.098.031m0 0" fill="rgb(13.725491%, 12.156863%, 12.54902%)"/><path d="M14.879 13.957c0 1.492-2.293 2.707-5.121 2.707S4.64 15.461 4.64 13.961s2.289-2.434 5.117-2.434 5.12.934 5.12 2.43m0 0" fill="rgb(100%, 100%, 100%)"/><path d="M9.785 16.148c-1.855.008-3.586-.449-5.144-2.183.125 1.82 2.457 2.62 5.078 2.62 2.828 0 4.863-1.03 5.117-2.62-1.457 1.508-2.426 2.16-5.05 2.183m0 0" fill="rgb(90.196079%, 90.588236%, 90.980393%)"/><path d="M9.848 15.86c-1.559 0-2.985-.778-3.637-1.989a.17.17 0 0 1 .094-.195.185.185 0 0 1 .218.043c.594 1.101 1.895 1.804 3.325 1.804h.047c1.39-.015 2.671-.71 3.257-1.773a.175.175 0 0 1 .153-.129.19.19 0 0 1 .183.09.18.18 0 0 1-.027.195c-.656 1.188-2.02 1.938-3.563 1.953Zm-.09 1.046c-3.02 0-5.383-1.297-5.383-2.949 0-1.582 2.215-2.687 5.383-2.687s5.383 1.097 5.383 2.687c0 1.652-2.364 2.95-5.383 2.95m0-5.133c-2.813 0-4.856.918-4.856 2.184 0 1.328 2.223 2.45 4.864 2.45 2.644 0 4.867-1.122 4.867-2.45-.016-1.266-2.059-2.184-4.875-2.184m-.125.766h.41v3.238h-.41Zm1.707-.86c0 .794-1.504 1.278-1.504 1.278S8.34 12.473 8.34 11.68c0-.79.672-.7 1.496-.7.828 0 1.504-.085 1.504.7m0 0" fill="rgb(13.725491%, 12.156863%, 12.54902%)"/><path d="M10.813 11.5c0 .09-.438.16-.977.16-.535 0-.973-.07-.973-.16 0-.086.438-.16.973-.16.539 0 .976.074.976.16m0 0" fill="rgb(65.490198%, 66.274512%, 67.450982%)"/><path d="M14.91 28.195c0 .7-.332 3.692-2.215 3.47-1.015-.122-2.46-1.634-1.851-2.028.648-.418-.645-2.567.226-2.02s3.84-.125 3.84.578m0 0" fill="rgb(95.686275%, 46.666667%, 16.078432%)"/><path d="M13.902 30.84c0 .703-.695.95-1.785.95s-1.984-.567-1.984-1.27.492-1.286 1.422-.743c.925.547 2.347.36 2.347 1.063m0 0" fill="rgb(100%, 100%, 100%)"/><path d="M11.996 31.121a5.1 5.1 0 0 1-1.785-1.074q-.07.171-.074.355c0 .766.957 1.387 2.136 1.387a2.8 2.8 0 0 0 1.442-.375 5.2 5.2 0 0 1-1.719-.293m0 0" fill="rgb(90.196079%, 90.588236%, 90.980393%)"/><path d="M12.277 32c-1.3 0-2.355-.719-2.355-1.598 0-.562.418-1.07 1.105-1.359a8 8 0 0 1-.18-1.418.195.195 0 0 1 .094-.2.22.22 0 0 1 .23-.007c.071.035.118.11.114.191.016.508.086 1.016.207 1.512l.043.184-.18.062c-.613.211-.992.61-.992 1.031 0 .649.86 1.18 1.914 1.18.844 0 1.598-.344 1.84-.86.442-1.019.75-2.09.918-3.179a.22.22 0 0 1 .242-.168.22.22 0 0 1 .192.227 13.3 13.3 0 0 1-.95 3.293C14.2 31.559 13.302 32 12.278 32m0 0" fill="rgb(13.725491%, 12.156863%, 12.54902%)"/><path d="M4.504 28.195c0 .7.332 3.692 2.215 3.47 1.015-.122 2.46-1.634 1.851-2.028-.644-.418.399-2.567-.472-2.02s-3.594-.125-3.594.578m0 0" fill="rgb(45.882353%, 29.803923%, 16.078432%)"/><path d="M5.508 30.84c0 .703.695.95 1.789.95 1.09 0 1.98-.567 1.98-1.27s-.492-1.286-1.422-.743c-.925.547-2.347.36-2.347 1.063m0 0" fill="rgb(100%, 100%, 100%)"/><path d="M7.605 31.188a5.1 5.1 0 0 0 1.727-1.165q.077.167.09.344c.039.77-.879 1.438-2.055 1.492a2.8 2.8 0 0 1-1.469-.3 5.5 5.5 0 0 0 1.707-.372m0 0" fill="rgb(90.196079%, 90.588236%, 90.980393%)"/><path d="M7.133 32c-1.028 0-1.926-.441-2.238-1.102a13 13 0 0 1-.954-3.293c-.011-.109.07-.207.188-.222a.22.22 0 0 1 .246.164c.168 1.098.477 2.168.922 3.187.234.496.992.848 1.836.848 1.055 0 1.914-.531 1.914-1.18 0-.425-.379-.824-.992-1.03l-.18-.067.043-.18a7.6 7.6 0 0 0 .207-1.512.21.21 0 0 1 .11-.191.22.22 0 0 1 .23.004c.07.047.105.12.098.199q-.03.717-.18 1.422c.683.289 1.101.797 1.101 1.355.008.88-1.046 1.598-2.351 1.598m0 0" fill="rgb(13.725491%, 12.156863%, 12.54902%)"/><path d="M13.16 13.059a.25.25 0 0 1-.254.242.25.25 0 0 1-.254-.242c0-.137.114-.243.254-.243s.254.106.254.243m-.5-.598a.25.25 0 0 1-.254.242.25.25 0 0 1-.254-.242c0-.137.114-.242.254-.242s.254.105.254.242m-.164.855a.25.25 0 0 1-.254.243.25.25 0 0 1-.254-.243c0-.132.114-.242.254-.242s.254.11.254.242m-5.414-.238a.25.25 0 0 1-.254.242.25.25 0 0 1-.254-.242c0-.133.114-.242.254-.242s.254.11.254.242m.672.238a.25.25 0 0 1-.254.243.25.25 0 0 1-.254-.243c0-.132.113-.242.254-.242.14 0 .254.11.254.242m-.11-.777a.25.25 0 0 1-.253.242c-.137 0-.254-.11-.254-.242 0-.133.117-.242.254-.242.14 0 .254.11.254.242m0 0" fill="rgb(90.196079%, 90.588236%, 90.980393%)"/><path d="m16.73 13.266-3.644-.04a.18.18 0 0 1-.18-.171c0-.094.078-.172.18-.172l3.644.043c.098 0 .18.074.18.172a.18.18 0 0 1-.18.172Zm-4.144-.649a.18.18 0 0 1-.156-.14.165.165 0 0 1 .093-.184l3.422-1.285a.19.19 0 0 1 .203 0c.063.039.09.11.075.18a.19.19 0 0 1-.149.132l-3.422 1.282a.13.13 0 0 1-.066.015m-9.523.649a.18.18 0 0 1-.126-.047.18.18 0 0 1-.054-.125c0-.098.078-.172.18-.172l3.64-.04c.098 0 .18.079.18.173a.18.18 0 0 1-.18.172l-3.644.043Zm4.14-.649a.1.1 0 0 1-.062-.015L3.707 11.32a.19.19 0 0 1-.148-.133.17.17 0 0 1 .074-.18.18.18 0 0 1 .203 0l3.426 1.286c.07.035.105.11.093.184a.19.19 0 0 1-.16.14Zm0 0" fill="rgb(13.725491%, 12.156863%, 12.54902%)"/></svg>