<svg role="img" viewBox="0 0 32 32" xmlns="http://www.w3.org/2000/svg"><path d="M23.938 11.188a4.606 4.606 0 0 0-3.286-1.364 4.62 4.62 0 0 0-3.28 1.364l-1.403 1.402-1.403-1.402a4.606 4.606 0 0 0-3.285-1.364A4.597 4.597 0 0 0 8 11.188a4.644 4.644 0 0 0-1.305 4.03h1.137c.125 0 .336-.113.398-.218l.012-.02.461-.585c.25-.38.57-.38.692-.368.128.02.449.11.582.567l.878 2.922 2.086-4.715c.2-.457.524-.489.66-.48.126.007.454.077.594.55l2.356 7.848 2.129-4.739a1.361 1.361 0 0 1 1.18-.761h2.956a.48.48 0 1 1 0 .96H19.86a.42.42 0 0 0-.308.2l-2.446 5.426c-.183.418-.476.472-.625.472-.011 0-.027-.004-.039-.004-.128-.007-.453-.078-.593-.55l-2.356-7.836-2.086 4.722c-.199.457-.527.489-.66.48-.129-.01-.453-.081-.594-.554l-.96-3.219-.172.23c-.247.372-.758.642-1.192.642h-.871c.23.582.582 1.117 1.035 1.574l7.969 7.965 7.977-7.973a4.59 4.59 0 0 0 1.363-3.285 4.603 4.603 0 0 0-1.363-3.281M9.816 27.78h-.082c-.87 0-1.582.707-1.582 1.574 0 .872.707 1.582 1.582 1.582.871 0 1.575-.703 1.575-1.582 0-.394-.149-.761-.391-1.035l3.004-6.234c-.379-.152-.711-.414-1.063-.613Zm-.082 2.297a.726.726 0 0 1-.672-1.102.724.724 0 0 1 .817-.316c.336.098.55.422.516.77a.722.722 0 0 1-.66.648M3.23 18.707a1.565 1.565 0 0 0-1.277-.66c-.871 0-1.574.707-1.574 1.582 0 .418.164.82.46 1.113a1.58 1.58 0 0 0 2.668-.844l5.595-1.28c-.118-.391-.38-.743-.442-1.153Zm-1.277 1.645a.712.712 0 0 1-.648-.356.716.716 0 0 1 0-.738.726.726 0 0 1 1.347.37.724.724 0 0 1-.699.724m18.156 9.02c0-.34.082-.669.23-.962h-8.75c.15.293.231.613.231.945 0 .61-.254 1.149-.672 1.532h9.622a2.052 2.052 0 0 1-.66-1.516M6.796 7.441c0 .055 0 .106-.008.157l8.02-3.868a2.076 2.076 0 0 1-.825-2.347l-8.53 4.113a2.076 2.076 0 0 1 1.343 1.945m10.336-3.707 8.012 3.864c-.004-.063-.004-.121-.004-.168 0-.883.55-1.64 1.328-1.942l-8.504-4.093c.058.199.098.402.098.617a2.09 2.09 0 0 1-.93 1.722m10.086 5.778c-.2 0-.395-.032-.582-.086l1.972 8.644a2.083 2.083 0 0 1 2.496-.21L28.98 8.55a2.111 2.111 0 0 1-1.761.962M21.012 28.32a1.572 1.572 0 0 0-.262 1.692c.254.57.813.933 1.434.937.87 0 1.574-.703 1.574-1.578 0-.418-.164-.82-.461-1.113a1.563 1.563 0 0 0-1.113-.461h-.07l-2.997-6.223c-.351.2-.699.43-1.082.582Zm1.175.325a.724.724 0 0 1 0 1.45.729.729 0 0 1-.722-.724.732.732 0 0 1 .723-.726m5.894-8.196-5.484 6.88c.902.179 1.593.94 1.672 1.874l5.988-7.512a2.087 2.087 0 0 1-2.176-1.242M6.227 7.88c.039-.137.066-.281.066-.438 0-.867-.707-1.578-1.582-1.578-.871 0-1.574.703-1.574 1.578 0 .555.293 1.07.77 1.356a1.586 1.586 0 0 0 1.554.035l3.11 2.484c.234-.336.5-.652.765-.953Zm-1.516.289a.721.721 0 0 1-.723-.727.722.722 0 0 1 .723-.687c.387 0 .703.3.723.687a.687.687 0 0 1-.211.516.684.684 0 0 1-.512.211m-1.375 9.898 1.969-8.625a2.178 2.178 0 0 1-.594.082c-.73 0-1.375-.378-1.746-.953L.844 17.867a2.092 2.092 0 0 1 2.492.2m6 9.25-5.469-6.864a2.1 2.1 0 0 1-2.176 1.238l5.97 7.485a2.083 2.083 0 0 1 1.675-1.86m7.238-14.652V3.47a1.581 1.581 0 0 0-.601-3.035c-.868 0-1.575.707-1.575 1.582 0 .652.399 1.21.961 1.453v9.203c.211-.012.422-.02.633-.02.195-.007.39 0 .582.012M15.25 2.008c0-.399.324-.727.727-.727a.73.73 0 0 1 .722.727.728.728 0 0 1-.726.726.727.727 0 0 1-.723-.726m14.746 16.039c-.531 0-.996.262-1.285.66l-5.48-1.23c-.063.406-.454.726-.567 1.109l5.777 1.316a1.577 1.577 0 0 0 3.13-.273c0-.875-.704-1.582-1.575-1.582m0 2.297a.725.725 0 0 1-.633-1.16.726.726 0 0 1 .778-.258c.336.097.55.422.515.77a.722.722 0 0 1-.66.648m-3.512-11.52c.215.117.473.18.735.18.64 0 1.218-.383 1.46-.973a1.576 1.576 0 0 0-2.062-2.062 1.58 1.58 0 0 0-.972 1.46c0 .157.027.31.062.45l-3.238 2.586c.277.3.656.523.886.855Zm.735-2.117a.726.726 0 0 1 .105 1.445.724.724 0 0 1-.105-1.445m0 0" fill="rgb(19.215686%, 41.960784%, 89.803922%)"/></svg>