<?xml version="1.0" encoding="UTF-8"?>
<svg xmlns="http://www.w3.org/2000/svg" xmlns:xlink="http://www.w3.org/1999/xlink" width="32" height="32" viewBox="0 0 32 32">
<path fill-rule="nonzero" fill="rgb(19.215687%, 41.960785%, 89.803922%)" fill-opacity="1" d="M 23.9375 11.1875 C 23.070312 10.308594 21.886719 9.820312 20.652344 9.824219 C 19.421875 9.824219 18.238281 10.3125 17.371094 11.1875 L 15.96875 12.589844 L 14.566406 11.1875 C 13.699219 10.308594 12.515625 9.820312 11.28125 9.824219 C 10.046875 9.820312 8.867188 10.3125 8 11.1875 C 7.128906 12.054688 6.636719 13.238281 6.636719 14.46875 C 6.636719 14.726562 6.65625 14.976562 6.695312 15.21875 L 7.832031 15.21875 C 7.957031 15.21875 8.167969 15.105469 8.230469 15 L 8.242188 14.980469 L 8.703125 14.394531 C 8.953125 14.015625 9.273438 14.015625 9.394531 14.027344 C 9.523438 14.046875 9.84375 14.136719 9.976562 14.59375 L 10.855469 17.515625 L 12.941406 12.800781 C 13.140625 12.34375 13.464844 12.3125 13.601562 12.320312 C 13.726562 12.328125 14.054688 12.398438 14.195312 12.871094 L 16.550781 20.71875 L 18.679688 15.980469 C 18.902344 15.527344 19.355469 15.234375 19.859375 15.21875 L 22.816406 15.21875 C 23.082031 15.21875 23.296875 15.433594 23.296875 15.699219 C 23.296875 15.964844 23.082031 16.179688 22.816406 16.179688 L 19.859375 16.179688 C 19.730469 16.195312 19.617188 16.269531 19.550781 16.378906 L 17.105469 21.804688 C 16.921875 22.222656 16.628906 22.277344 16.480469 22.277344 C 16.46875 22.277344 16.453125 22.273438 16.441406 22.273438 C 16.3125 22.265625 15.988281 22.195312 15.847656 21.722656 L 13.492188 13.886719 L 11.40625 18.609375 C 11.207031 19.066406 10.878906 19.097656 10.746094 19.089844 C 10.617188 19.078125 10.292969 19.007812 10.152344 18.535156 L 9.191406 15.316406 L 9.019531 15.546875 C 8.773438 15.917969 8.261719 16.1875 7.828125 16.1875 L 6.957031 16.1875 C 7.1875 16.769531 7.539062 17.304688 7.992188 17.761719 L 15.960938 25.726562 L 23.9375 17.753906 C 24.816406 16.886719 25.304688 15.703125 25.300781 14.46875 C 25.304688 13.238281 24.8125 12.054688 23.9375 11.1875 Z M 23.9375 11.1875 "/>
<path fill-rule="nonzero" fill="rgb(19.607843%, 42.352942%, 89.803922%)" fill-opacity="1" d="M 9.816406 27.78125 L 9.734375 27.78125 C 8.863281 27.78125 8.152344 28.488281 8.152344 29.355469 C 8.152344 30.226562 8.859375 30.9375 9.734375 30.9375 C 10.605469 30.9375 11.308594 30.234375 11.308594 29.355469 C 11.308594 28.960938 11.160156 28.59375 10.917969 28.320312 L 13.921875 22.085938 C 13.542969 21.933594 13.210938 21.671875 12.859375 21.472656 Z M 9.734375 30.078125 C 9.464844 30.097656 9.203125 29.964844 9.0625 29.730469 C 8.921875 29.5 8.921875 29.210938 9.0625 28.976562 C 9.234375 28.699219 9.566406 28.570312 9.878906 28.660156 C 10.191406 28.746094 10.40625 29.03125 10.40625 29.355469 C 10.40625 29.734375 10.113281 30.050781 9.734375 30.078125 Z M 3.230469 18.707031 C 2.9375 18.292969 2.460938 18.046875 1.953125 18.046875 C 1.082031 18.046875 0.378906 18.753906 0.378906 19.628906 C 0.378906 20.046875 0.542969 20.445312 0.839844 20.742188 C 1.132812 21.039062 1.535156 21.203125 1.953125 21.203125 C 2.71875 21.203125 3.375 20.652344 3.507812 19.898438 L 9.101562 18.617188 C 8.984375 18.226562 8.722656 17.875 8.660156 17.464844 Z M 1.953125 20.351562 C 1.6875 20.363281 1.4375 20.226562 1.304688 19.996094 C 1.167969 19.769531 1.167969 19.484375 1.304688 19.257812 C 1.472656 18.976562 1.804688 18.84375 2.121094 18.929688 C 2.433594 19.015625 2.652344 19.304688 2.652344 19.628906 C 2.648438 20.019531 2.34375 20.335938 1.953125 20.351562 Z M 20.109375 29.371094 C 20.109375 29.03125 20.191406 28.703125 20.339844 28.410156 L 11.589844 28.410156 C 11.738281 28.703125 11.820312 29.023438 11.820312 29.355469 C 11.820312 29.964844 11.566406 30.503906 11.148438 30.886719 L 20.769531 30.886719 C 20.347656 30.496094 20.105469 29.945312 20.109375 29.371094 Z M 6.796875 7.441406 C 6.796875 7.496094 6.796875 7.546875 6.789062 7.597656 L 14.808594 3.730469 C 14.042969 3.21875 13.707031 2.261719 13.984375 1.382812 L 5.453125 5.496094 C 6.261719 5.804688 6.796875 6.578125 6.796875 7.441406 Z M 17.132812 3.738281 L 25.144531 7.597656 C 25.140625 7.539062 25.140625 7.480469 25.140625 7.429688 C 25.140625 6.546875 25.691406 5.792969 26.46875 5.492188 L 17.964844 1.394531 C 18.023438 1.59375 18.0625 1.796875 18.0625 2.015625 C 18.054688 2.714844 17.703125 3.359375 17.132812 3.738281 Z M 27.21875 9.511719 C 27.019531 9.511719 26.824219 9.484375 26.636719 9.425781 L 28.609375 18.074219 C 28.988281 17.730469 29.484375 17.542969 29.996094 17.542969 C 30.398438 17.542969 30.785156 17.65625 31.105469 17.863281 L 28.980469 8.550781 C 28.59375 9.148438 27.929688 9.507812 27.21875 9.511719 Z M 21.011719 28.320312 C 20.597656 28.78125 20.496094 29.445312 20.746094 30.011719 C 21 30.582031 21.5625 30.949219 22.183594 30.949219 C 23.054688 30.949219 23.757812 30.246094 23.757812 29.371094 C 23.757812 28.953125 23.59375 28.554688 23.296875 28.257812 C 23.003906 27.960938 22.601562 27.796875 22.183594 27.796875 L 22.113281 27.796875 L 19.117188 21.574219 C 18.765625 21.773438 18.417969 22.003906 18.035156 22.15625 Z M 22.1875 28.644531 C 22.585938 28.644531 22.910156 28.972656 22.910156 29.371094 C 22.90625 29.769531 22.585938 30.09375 22.1875 30.09375 C 21.789062 30.089844 21.46875 29.769531 21.464844 29.371094 C 21.46875 28.972656 21.789062 28.648438 22.1875 28.644531 Z M 28.082031 20.449219 L 22.597656 27.328125 C 23.5 27.507812 24.191406 28.269531 24.269531 29.203125 L 30.257812 21.691406 C 29.335938 21.808594 28.449219 21.300781 28.082031 20.449219 Z M 6.226562 7.878906 C 6.265625 7.742188 6.292969 7.597656 6.292969 7.441406 C 6.292969 6.574219 5.585938 5.863281 4.710938 5.863281 C 3.839844 5.863281 3.136719 6.566406 3.136719 7.441406 C 3.136719 7.996094 3.425781 8.511719 3.902344 8.796875 C 4.378906 9.082031 4.972656 9.097656 5.460938 8.832031 L 8.570312 11.316406 C 8.804688 10.980469 9.070312 10.664062 9.335938 10.363281 Z M 4.710938 8.167969 C 4.519531 8.167969 4.332031 8.089844 4.199219 7.957031 C 4.0625 7.820312 3.988281 7.632812 3.988281 7.441406 C 4.007812 7.054688 4.324219 6.753906 4.710938 6.753906 C 5.097656 6.753906 5.414062 7.054688 5.433594 7.441406 C 5.4375 7.632812 5.359375 7.820312 5.222656 7.957031 C 5.089844 8.09375 4.902344 8.167969 4.710938 8.167969 Z M 3.335938 18.066406 L 5.304688 9.441406 C 5.113281 9.496094 4.910156 9.523438 4.710938 9.523438 C 3.980469 9.523438 3.335938 9.144531 2.964844 8.570312 L 0.84375 17.867188 C 1.628906 17.375 2.640625 17.457031 3.335938 18.066406 Z M 9.335938 27.316406 L 3.867188 20.453125 C 3.496094 21.300781 2.609375 21.804688 1.691406 21.691406 L 7.660156 29.175781 C 7.742188 28.253906 8.425781 27.492188 9.335938 27.316406 Z M 16.574219 12.664062 L 16.574219 3.46875 C 17.265625 3.179688 17.652344 2.441406 17.507812 1.707031 C 17.363281 0.972656 16.722656 0.441406 15.972656 0.433594 C 15.105469 0.433594 14.398438 1.140625 14.398438 2.015625 C 14.398438 2.667969 14.796875 3.226562 15.359375 3.46875 L 15.359375 12.671875 C 15.570312 12.660156 15.78125 12.652344 15.992188 12.652344 C 16.1875 12.644531 16.382812 12.652344 16.574219 12.664062 Z M 15.25 2.007812 C 15.25 1.609375 15.574219 1.28125 15.976562 1.28125 C 16.375 1.285156 16.699219 1.609375 16.699219 2.007812 C 16.699219 2.410156 16.375 2.734375 15.976562 2.734375 C 15.574219 2.734375 15.25 2.410156 15.25 2.007812 Z M 29.996094 18.046875 C 29.464844 18.046875 29 18.308594 28.710938 18.707031 L 23.230469 17.476562 C 23.167969 17.882812 22.777344 18.203125 22.664062 18.585938 L 28.441406 19.902344 C 28.582031 20.710938 29.316406 21.273438 30.132812 21.203125 C 30.945312 21.132812 31.570312 20.449219 31.570312 19.628906 C 31.570312 18.753906 30.867188 18.046875 29.996094 18.046875 Z M 29.996094 20.34375 C 29.726562 20.363281 29.464844 20.230469 29.324219 20 C 29.183594 19.765625 29.183594 19.476562 29.324219 19.242188 C 29.496094 18.964844 29.828125 18.835938 30.140625 18.925781 C 30.453125 19.011719 30.667969 19.296875 30.667969 19.621094 C 30.667969 20 30.375 20.316406 29.996094 20.34375 Z M 26.484375 8.824219 C 26.699219 8.941406 26.957031 9.003906 27.21875 9.003906 C 27.859375 9.003906 28.4375 8.621094 28.679688 8.03125 C 28.925781 7.441406 28.792969 6.761719 28.339844 6.308594 C 27.886719 5.855469 27.207031 5.722656 26.617188 5.96875 C 26.027344 6.214844 25.644531 6.789062 25.644531 7.429688 C 25.644531 7.585938 25.671875 7.738281 25.707031 7.878906 L 22.46875 10.464844 C 22.746094 10.765625 23.125 10.988281 23.355469 11.320312 Z M 27.21875 6.707031 C 27.617188 6.679688 27.964844 6.976562 27.992188 7.375 C 28.023438 7.773438 27.722656 8.121094 27.324219 8.152344 C 26.925781 8.179688 26.578125 7.878906 26.550781 7.480469 C 26.519531 7.082031 26.820312 6.734375 27.21875 6.707031 Z M 27.21875 6.707031 "/>
</svg>
