<?xml version="1.0" encoding="UTF-8"?>
<svg xmlns="http://www.w3.org/2000/svg" xmlns:xlink="http://www.w3.org/1999/xlink" width="32" height="32" viewBox="0 0 32 32">
<path fill-rule="nonzero" fill="rgb(0%, 0%, 0%)" fill-opacity="1" d="M 16 1.28125 C 7.882812 1.28125 1.28125 7.882812 1.28125 16 C 1.28125 24.117188 7.882812 30.71875 16 30.71875 C 24.117188 30.71875 30.71875 24.117188 30.71875 16 C 30.71875 7.882812 24.117188 1.28125 16 1.28125 M 21.574219 20.664062 C 21.824219 20.914062 21.824219 21.324219 21.574219 21.574219 C 21.453125 21.691406 21.289062 21.757812 21.121094 21.761719 C 20.949219 21.761719 20.785156 21.691406 20.664062 21.574219 L 16 16.910156 L 11.335938 21.574219 C 11.214844 21.691406 11.050781 21.761719 10.878906 21.761719 C 10.710938 21.757812 10.546875 21.691406 10.425781 21.574219 C 10.175781 21.320312 10.175781 20.914062 10.425781 20.664062 L 15.089844 16 L 10.425781 11.335938 C 10.175781 11.085938 10.175781 10.679688 10.425781 10.425781 C 10.675781 10.175781 11.085938 10.175781 11.335938 10.425781 L 16 15.089844 L 20.664062 10.425781 C 20.914062 10.175781 21.324219 10.175781 21.574219 10.425781 C 21.824219 10.675781 21.824219 11.085938 21.574219 11.335938 L 16.910156 16 Z M 21.574219 20.664062 "/>
</svg>
