<svg role="img" viewBox="0 0 32 32" height="32" width="32" xmlns="http://www.w3.org/2000/svg"><path d="M16 1.281C7.883 1.281 1.281 7.883 1.281 16c0 8.117 6.602 14.719 14.719 14.719 8.117 0 14.719-6.602 14.719-14.719 0-8.117-6.602-14.719-14.719-14.719m5.574 19.383c.25.25.25.66 0 .91a.663.663 0 0 1-.453.188.665.665 0 0 1-.457-.188L16 16.91l-4.664 4.664a.665.665 0 0 1-.457.188.663.663 0 0 1-.453-.188.646.646 0 0 1 0-.91L15.09 16l-4.664-4.664a.646.646 0 0 1 0-.91c.25-.25.66-.25.91 0L16 15.09l4.664-4.664c.25-.25.66-.25.91 0s.25.66 0 .91L16.91 16Zm0 0"/></svg>