<?xml version="1.0" encoding="UTF-8"?>
<svg xmlns="http://www.w3.org/2000/svg" xmlns:xlink="http://www.w3.org/1999/xlink" width="32" height="32" viewBox="0 0 32 32">
<path fill-rule="nonzero" fill="rgb(94.117647%, 25.882353%, 30.196078%)" fill-opacity="1" d="M 15.945312 0.34375 C 11.714844 0.335938 7.65625 2.015625 4.671875 5.011719 C 1.675781 8 -0.0078125 12.058594 0 16.289062 C -0.00390625 18.710938 0.546875 21.101562 1.609375 23.28125 C 2.570312 25.246094 4.125 27.207031 5.886719 28.671875 C 7.035156 28.046875 7.6875 27.351562 7.824219 26.613281 C 7.957031 25.902344 7.644531 25.136719 6.839844 24.207031 C 4.929688 22.011719 3.878906 19.199219 3.882812 16.289062 C 3.882812 9.636719 9.292969 4.226562 15.945312 4.226562 L 16.050781 4.226562 C 22.707031 4.226562 28.117188 9.636719 28.117188 16.289062 C 28.117188 19.199219 27.066406 22.007812 25.160156 24.203125 C 24.359375 25.128906 24.039062 25.925781 24.179688 26.644531 C 24.324219 27.386719 24.972656 28.066406 26.109375 28.671875 C 27.875 27.207031 29.429688 25.246094 30.390625 23.277344 C 31.453125 21.101562 32.003906 18.710938 32 16.289062 C 32.003906 12.058594 30.324219 8 27.328125 5.011719 C 24.34375 2.019531 20.285156 0.335938 16.054688 0.34375 Z M 15.9375 6.792969 C 14.167969 6.789062 12.429688 7.285156 10.925781 8.226562 C 9.855469 8.894531 8.929688 9.765625 8.199219 10.789062 C 7.449219 11.851562 6.921875 13.054688 6.652344 14.324219 C 6.363281 15.699219 6.382812 17.121094 6.707031 18.492188 C 7.003906 19.75 7.558594 20.929688 8.332031 21.964844 C 8.539062 22.242188 8.765625 22.496094 9.011719 22.761719 L 9.257812 23.03125 L 9.265625 23.039062 C 9.273438 23.050781 9.285156 23.0625 9.296875 23.074219 C 10.144531 24.058594 10.574219 25.121094 10.574219 26.222656 C 10.574219 27.886719 9.65625 29.417969 8.191406 30.207031 C 9.320312 30.832031 10.523438 31.320312 11.769531 31.65625 C 11.957031 31.539062 12.589844 31.070312 13.207031 30.214844 C 14.050781 29.058594 14.488281 27.65625 14.460938 26.226562 C 14.4375 25.140625 14.21875 24.070312 13.808594 23.066406 C 13.398438 22.066406 12.808594 21.148438 12.070312 20.355469 L 12.066406 20.351562 L 11.902344 20.160156 C 11.621094 19.835938 11.332031 19.5 11.101562 19.105469 C 10.820312 18.632812 10.613281 18.125 10.484375 17.59375 C 10.292969 16.78125 10.285156 15.941406 10.453125 15.125 C 10.613281 14.375 10.921875 13.667969 11.367188 13.039062 C 12.421875 11.558594 14.125 10.679688 15.941406 10.675781 L 16.054688 10.675781 C 17.875 10.675781 19.582031 11.554688 20.632812 13.039062 C 21.070312 13.660156 21.390625 14.382812 21.546875 15.125 C 21.714844 15.941406 21.703125 16.78125 21.515625 17.59375 C 21.386719 18.125 21.179688 18.632812 20.898438 19.105469 C 20.667969 19.5 20.378906 19.835938 20.097656 20.160156 L 19.933594 20.351562 L 19.925781 20.355469 C 19.1875 21.148438 18.601562 22.066406 18.191406 23.066406 C 17.78125 24.070312 17.558594 25.140625 17.539062 26.226562 C 17.507812 27.65625 17.949219 29.058594 18.792969 30.214844 C 19.410156 31.070312 20.042969 31.539062 20.226562 31.65625 C 21.476562 31.324219 22.679688 30.835938 23.808594 30.207031 C 22.34375 29.417969 21.425781 27.890625 21.425781 26.222656 C 21.425781 25.132812 21.839844 24.105469 22.699219 23.078125 L 22.734375 23.039062 L 22.742188 23.035156 L 22.988281 22.761719 C 23.230469 22.496094 23.460938 22.242188 23.667969 21.964844 C 24.441406 20.929688 24.996094 19.746094 25.292969 18.488281 C 25.617188 17.121094 25.636719 15.699219 25.347656 14.324219 C 25.078125 13.054688 24.550781 11.851562 23.800781 10.789062 C 23.070312 9.765625 22.144531 8.894531 21.074219 8.226562 C 19.570312 7.285156 17.832031 6.789062 16.058594 6.792969 Z M 16 13.292969 C 14.261719 13.296875 12.855469 14.703125 12.851562 16.441406 C 12.855469 18.179688 14.261719 19.585938 16 19.589844 C 17.738281 19.585938 19.144531 18.179688 19.148438 16.441406 C 19.144531 14.703125 17.738281 13.292969 16 13.289062 Z M 16 13.292969 "/>
</svg>
