<svg role="img" viewBox="0 0 32 32" xmlns="http://www.w3.org/2000/svg"><path d="M16.004 2.137c-.395 0-.785.187-1.012.57l-.445.742c-.192.32-.512.535-.871.633l-.008.004c-.363.11-.75.066-1.082-.11l-.758-.421a1.18 1.18 0 0 0-1.75 1.007l-.015.88c-.012.374-.172.73-.442.988-.262.261-.61.425-.98.433l-.88.012a1.182 1.182 0 0 0-1.007 1.754l.422.762c.18.328.21.71.113 1.07l-.008.02a1.44 1.44 0 0 1-.629.863l-.746.445a1.18 1.18 0 0 0 0 2.02l.746.449c.317.191.532.508.63.863l.003.02c.106.359.067.742-.11 1.07l-.421.762a1.178 1.178 0 0 0 1.008 1.75l.879.015c.37.004.714.172.98.434l.004.008c.266.261.43.61.438.98l.015.88a1.172 1.172 0 0 0 1.746 1.007l.762-.422c.328-.184.71-.21 1.074-.11l.02.005c.355.093.672.312.863.628l.445.747c.215.355.598.57 1.012.57a1.18 1.18 0 0 0 1.012-.57l.445-.747c.191-.316.508-.53.863-.628l.02-.004a1.42 1.42 0 0 1 1.07.109l.762.422a1.178 1.178 0 0 0 1.75-1.008l.015-.879c.008-.37.172-.719.434-.98l.008-.008c.262-.262.61-.43.98-.434l.88-.015a1.178 1.178 0 0 0 1.007-1.75l-.422-.762a1.44 1.44 0 0 1-.113-1.07l.008-.02c.097-.355.312-.672.629-.863l.746-.45a1.17 1.17 0 0 0 .574-1.007 1.18 1.18 0 0 0-.57-1.012l-.75-.445a1.43 1.43 0 0 1-.63-.864l-.003-.02a1.4 1.4 0 0 1 .113-1.07l.422-.761c.203-.36.2-.8-.008-1.16a1.19 1.19 0 0 0-1.004-.594l-.879-.012a1.43 1.43 0 0 1-.98-.433l-.004-.008a1.42 1.42 0 0 1-.437-.98l-.012-.88a1.18 1.18 0 0 0-.59-1c-.36-.207-.8-.21-1.164-.011l-.758.426c-.328.18-.71.21-1.074.109l-.016-.004a1.43 1.43 0 0 1-.863-.629l-.45-.746a1.16 1.16 0 0 0-1.007-.57m9.781 18.312a3.3 3.3 0 0 1-1.512.406l-.214.004-.004.211a3.318 3.318 0 0 1-4.918 2.844l-.188-.105-.11.183c-.023.035-.054.067-.077.102l5.773 5.773v-5.332h5.332Zm-19.57.004-4.082 4.082h5.332v5.332l5.773-5.773c-.023-.035-.054-.063-.078-.102l-.11-.183-.187.105a3.3 3.3 0 0 1-1.605.418 3.323 3.323 0 0 1-3.313-3.258l-.008-.215-.21-.004a3.3 3.3 0 0 1-1.512-.402"/></svg>