<svg role="img" viewBox="0 0 32 32" xmlns="http://www.w3.org/2000/svg"><path d="M6.113 20.64c-1.539.415-2.687 1.794-2.687 3.489 0 1.664 1.148 3.07 2.687 3.488v2.781h1.79v-2.812c1.538-.418 2.69-1.793 2.69-3.488 0-1.664-1.152-3.075-2.69-3.489V1.602h-1.79Zm2.688 3.458c0 .992-.801 1.789-1.793 1.789a1.794 1.794 0 0 1-1.27-3.059 1.8 1.8 0 0 1 1.27-.523c.476 0 .933.187 1.27.523.335.336.523.793.523 1.27Zm3.613-16.196c0 1.664 1.152 3.075 2.691 3.489v19.007h1.79V11.36c1.539-.414 2.69-1.793 2.69-3.488s-1.151-3.07-2.69-3.488V1.602h-1.79v2.812a3.6 3.6 0 0 0-2.69 3.488Zm5.379 0c0 .477-.188.934-.523 1.27a1.8 1.8 0 0 1-1.27.523c-.477 0-.934-.187-1.27-.523a1.794 1.794 0 1 1 3.063-1.27Zm3.613 10.785c0 1.665 1.153 3.075 2.692 3.489v8.222h1.789v-8.222c1.539-.414 2.687-1.793 2.687-3.488s-1.148-3.07-2.687-3.489V1.602h-1.79V15.23a3.57 3.57 0 0 0-2.69 3.457Zm5.41 0c0 .477-.187.934-.523 1.27a1.8 1.8 0 0 1-1.27.523c-.476 0-.933-.187-1.27-.523a1.8 1.8 0 0 1-.523-1.27c0-.476.188-.933.524-1.269a1.8 1.8 0 0 1 1.27-.523c.96 0 1.792.8 1.792 1.793Zm0 0" fill="rgb(72.941178%, 72.941178%, 72.941178%)" stroke="rgb(72.941178%, 72.941178%, 72.941178%)" stroke-miterlimit="10" stroke-width=".8"/></svg>