<?xml version="1.0" encoding="UTF-8"?>
<svg xmlns="http://www.w3.org/2000/svg" xmlns:xlink="http://www.w3.org/1999/xlink" width="32" height="32" viewBox="0 0 32 32">
<path fill-rule="nonzero" fill="rgb(72.941178%, 72.941178%, 72.941178%)" fill-opacity="1" stroke-width="6.4" stroke-linecap="butt" stroke-linejoin="miter" stroke="rgb(72.941178%, 72.941178%, 72.941178%)" stroke-opacity="1" stroke-miterlimit="10" d="M 48.90625 165.125 C 36.59375 168.4375 27.40625 179.46875 27.40625 193.03125 C 27.40625 206.34375 36.59375 217.59375 48.90625 220.9375 L 48.90625 243.1875 L 63.21875 243.1875 L 63.21875 220.6875 C 75.53125 217.34375 84.75 206.34375 84.75 192.78125 C 84.75 179.46875 75.53125 168.1875 63.21875 164.875 L 63.21875 12.8125 L 48.90625 12.8125 Z M 70.40625 192.78125 C 70.40625 200.71875 64 207.09375 56.0625 207.09375 C 50.28125 207.09375 45.0625 203.59375 42.8125 198.25 C 40.59375 192.90625 41.8125 186.71875 45.90625 182.625 C 48.59375 179.9375 52.25 178.4375 56.0625 178.4375 C 59.875 178.4375 63.53125 179.9375 66.21875 182.625 C 68.90625 185.3125 70.40625 188.96875 70.40625 192.78125 Z M 99.3125 63.21875 C 99.3125 76.53125 108.53125 87.8125 120.84375 91.125 L 120.84375 243.1875 L 135.15625 243.1875 L 135.15625 90.875 C 147.46875 87.5625 156.6875 76.53125 156.6875 62.96875 C 156.6875 49.40625 147.46875 38.40625 135.15625 35.0625 L 135.15625 12.8125 L 120.84375 12.8125 L 120.84375 35.3125 C 108.15625 38.625 99.3125 50.09375 99.3125 63.21875 Z M 142.34375 63.21875 C 142.34375 67.03125 140.84375 70.6875 138.15625 73.375 C 135.46875 76.0625 131.8125 77.5625 128 77.5625 C 124.1875 77.5625 120.53125 76.0625 117.84375 73.375 C 113.75 69.28125 112.53125 63.09375 114.75 57.75 C 116.96875 52.40625 122.21875 48.90625 128 48.90625 C 135.9375 48.90625 142.34375 55.28125 142.34375 63.21875 Z M 171.25 149.5 C 171.25 162.8125 180.46875 174.09375 192.78125 177.40625 L 192.78125 243.1875 L 207.09375 243.1875 L 207.09375 177.40625 C 219.40625 174.09375 228.59375 163.0625 228.59375 149.5 C 228.59375 135.9375 219.40625 124.9375 207.09375 121.59375 L 207.09375 12.8125 L 192.78125 12.8125 L 192.78125 121.84375 C 180.125 125.0625 171.28125 136.4375 171.25 149.5 Z M 214.53125 149.5 C 214.53125 153.3125 213.03125 156.96875 210.34375 159.65625 C 207.65625 162.34375 204 163.84375 200.1875 163.84375 C 196.375 163.84375 192.71875 162.34375 190.03125 159.65625 C 187.34375 156.96875 185.84375 153.3125 185.84375 149.5 C 185.84375 145.6875 187.34375 142.03125 190.03125 139.34375 C 192.71875 136.65625 196.375 135.15625 200.1875 135.15625 C 207.875 135.15625 214.53125 141.5625 214.53125 149.5 Z M 214.53125 149.5 " transform="matrix(0.125, 0, 0, 0.125, 0, 0)"/>
</svg>
