<?xml version="1.0" encoding="UTF-8"?>
<svg xmlns="http://www.w3.org/2000/svg" xmlns:xlink="http://www.w3.org/1999/xlink" width="32" height="32" viewBox="0 0 32 32">
<path fill-rule="nonzero" fill="rgb(0%, 0%, 0%)" fill-opacity="1" d="M 10.5 24 C 9.121094 24 8 25.121094 8 26.5 C 8 27.878906 9.121094 29 10.5 29 C 11.878906 29 13 27.878906 13 26.5 C 13 25.121094 11.878906 24 10.5 24 M 23.5 24 C 22.121094 24 21 25.121094 21 26.5 C 21 27.878906 22.121094 29 23.5 29 C 24.878906 29 26 27.878906 26 26.5 C 26 25.121094 24.878906 24 23.5 24 M 6.246094 7.046875 L 5.746094 4.925781 C 5.480469 3.796875 4.472656 3 3.3125 3 L 0.5 3 L 1 5 L 3.3125 5 C 3.542969 5 3.746094 5.160156 3.800781 5.386719 L 7.34375 20.457031 C 7.554688 21.363281 8.363281 22.003906 9.292969 22 L 25.160156 22 C 26.132812 22 26.960938 21.300781 27.128906 20.34375 L 29.175781 8.578125 Z M 19 19.5 L 19 16 L 10.5 16 L 11 14 L 19 14 L 19 10.5 L 24.5 15 Z M 19 19.5 "/>
</svg>
