<svg role="img" viewBox="0 0 32 32" height="32" width="32" xmlns="http://www.w3.org/2000/svg"><path d="M10.5 24A2.502 2.502 0 0 0 8 26.5c0 1.379 1.121 2.5 2.5 2.5s2.5-1.121 2.5-2.5-1.121-2.5-2.5-2.5m13 0a2.502 2.502 0 0 0-2.5 2.5c0 1.379 1.121 2.5 2.5 2.5s2.5-1.121 2.5-2.5-1.121-2.5-2.5-2.5M6.246 7.047l-.5-2.121A2.499 2.499 0 0 0 3.312 3H.5L1 5h2.313c.23 0 .433.16.488.387l3.543 15.07A1.994 1.994 0 0 0 9.293 22H25.16a2 2 0 0 0 1.969-1.656l2.047-11.766ZM19 19.5V16h-8.5l.5-2h8v-3.5l5.5 4.5Zm0 0"/></svg>