<svg role="img" viewBox="0 0 32 32" height="32" width="32" xmlns="http://www.w3.org/2000/svg"><path d="M25 32c3.867 0 7-3.133 7-7s-3.133-7-7-7-7 3.133-7 7 3.133 7 7 7m3.36-8.984-2.672 4.449c-.239.394-.645.66-1.102.719a1.493 1.493 0 0 1-1.246-.43l-1.547-1.547a.992.992 0 0 1-.273-.973.999.999 0 0 1 1.688-.441l1.093 1.094 2.34-3.903a1.008 1.008 0 0 1 1.375-.343c.472.285.625.898.343 1.375M16 2c-3.145 0-6.043.578-8.191 1.555C5.75 4.488 4 5.985 4 8c0 2.016 1.75 3.512 3.809 4.445C9.957 13.422 12.855 14 16 14c3.145 0 6.043-.578 8.191-1.555C26.25 11.512 28 10.015 28 8c0-2.016-1.75-3.512-3.809-4.445C22.043 2.578 19.145 2 16 2M4 14v-1.68c.914.867 2.008 1.504 2.98 1.946C9.445 15.386 12.637 16 16 16c3.363 0 6.555-.613 9.02-1.734.972-.442 2.066-1.078 2.98-1.946V14c0 .848-.309 1.605-.82 2.266a9.034 9.034 0 0 0-9.633 3.687A25.8 25.8 0 0 1 16 20c-3.145 0-6.043-.578-8.191-1.555C5.75 17.512 4 16.015 4 14m12.516 7.996L16 22c-3.363 0-6.555-.613-9.02-1.734-.972-.442-2.066-1.078-2.98-1.946V20c0 2.016 1.75 3.512 3.809 4.445C9.957 25.422 12.855 26 16 26h.055a9.054 9.054 0 0 1 .46-4.004m-.003 6L16 28c-3.363 0-6.555-.613-9.02-1.734-.972-.442-2.066-1.078-2.98-1.946V26c0 2.016 1.75 3.512 3.809 4.445C9.957 31.422 12.855 32 16 32c1.07 0 2.117-.066 3.11-.195a9.022 9.022 0 0 1-2.598-3.809"/></svg>