<svg role="img" viewBox="0 0 32 32" xmlns="http://www.w3.org/2000/svg"><path d="M14.191 2.668v3.07h3.301v-3.07ZM6.383 6.344v3.039h3.3v-3.04Zm3.902 0v3.039h3.305v-3.04Zm3.906 0v3.039h3.301v-3.04Zm10.735.941-.465.707c-.922 1.406-1.172 3.723-.184 5.25-.437.238-1.289.563-2.422.543H.121c-.433 2.57.29 5.906 2.2 8.203 1.855 2.219 4.636 3.348 8.269 3.348 7.87 0 13.695-3.668 16.418-10.332 1.07.023 3.383.004 4.566-2.29.074-.124.332-.663.426-.862l-.664-.45v.004c-.719-.492-2.379-.672-3.656-.43-.164-1.214-.832-2.273-2.051-3.222ZM2.48 9.992v3.004h3.305V9.992Zm3.903 0v3.004h3.3V9.992Zm3.906 0v3.004h3.3V9.992Zm7.813 0v3.004h3.304V9.992Zm-3.91.004v3.008h3.3V9.996Zm0 0"/><path d="M21.848 18.168a6.667 6.667 0 0 0-6.668 6.668 6.667 6.667 0 0 0 6.668 6.668 6.667 6.667 0 0 0 6.668-6.668 6.667 6.667 0 0 0-6.668-6.668" fill="rgb(100%, 100%, 100%)"/><path d="M21.895 18.965c-3.31 0-6 2.691-6 6 0 3.308 2.69 6 6 6 3.308 0 6-2.692 6-6 0-3.309-2.692-6-6-6m2.824 3.8-3.004 4.426-2.348-2.18a.27.27 0 0 1-.086-.253.25.25 0 0 1 .184-.192.26.26 0 0 1 .258.063l1.902 1.766 2.66-3.922a.264.264 0 0 1 .36-.063.26.26 0 0 1 .074.356"/></svg>