<svg role="img" viewBox="0 0 31.556 32" xmlns="http://www.w3.org/2000/svg"><path d="M4.262 6.586h4.71l2.356 4.082-2.355 4.086H4.262L1.91 10.668Zm0 0" fill="rgb(79.607844%, 86.666667%, 44.705883%)"/><path d="M4.262 17.082h4.71l2.356 4.055-2.355 4.058H4.262L1.91 21.137Zm0 0" fill="rgb(59.607846%, 79.215688%, 24.705882%)"/><path d="M13.457 22.246h4.707l2.356 4.055-2.356 4.058h-4.707l-2.355-4.058Zm0 0" fill="rgb(38.82353%, 53.725493%, 77.64706%)"/><path d="M13.457 11.746h4.707l2.356 4.086-2.356 4.086h-4.707l-2.355-4.086Zm0 0" fill="rgb(90.980393%, 15.686275%, 16.862746%)"/><path d="M13.457 1.309h4.707l2.356 4.054-2.356 4.059h-4.707l-2.355-4.059Zm0 0" fill="rgb(97.254902%, 77.254903%, 9.803922%)"/><path d="M22.578 6.586h4.793l2.399 4.082-2.399 4.086h-4.793l-2.398-4.086Zm0 0" fill="rgb(94.117647%, 45.882353%, 14.509805%)"/><path d="M22.578 17.082h4.793l2.399 4.055-2.399 4.058h-4.793l-2.398-4.058Zm0 0" fill="rgb(50.588238%, 38.431373%, 66.666669%)"/><path d="M18.586 11.012h-5.629l-2.82 4.867 2.82 4.832h5.629l2.84-4.836Zm-.738 8.402h-4.121l-2.098-3.527 2.086-3.578h4.133l2.086 3.578Zm.738 2.035h-5.629l-2.82 4.863 2.82 4.84h5.629l2.84-4.84Zm-.738 8.406h-4.121l-2.098-3.53 2.086-3.583h4.133l2.086 3.582ZM18.586.57h-5.629l-2.82 4.871 2.82 4.832h5.629l2.84-4.832Zm-.738 8.41h-4.121l-2.098-3.539 2.086-3.578h4.133l2.078 3.578Zm9.93 7.25h-5.63l-2.82 4.868 2.82 4.836h5.63l2.843-4.836Zm-.747 8.403h-4.12l-2.087-3.528 2.086-3.585h4.121l2.086 3.578Zm.746-18.844h-5.629l-2.82 4.895 2.82 4.867h5.63l2.843-4.867Zm-.746 8.457h-4.12l-2.087-3.55 2.086-3.598h4.121l2.086 3.597ZM9.406 16.23H3.81L1 21.098l2.809 4.836h5.597l2.828-4.836Zm-.738 8.403H4.566l-2.078-3.528 2.078-3.585h4.102l2.074 3.585Zm.738-18.844H3.81L1 10.684l2.809 4.867h5.597l2.828-4.867Zm-.738 8.457H4.566l-2.078-3.555 2.078-3.597h4.102l2.074 3.597Zm0 0" fill="rgb(0%, 0%, 0%)"/></svg>