<?xml version="1.0" encoding="UTF-8"?>
<svg xmlns="http://www.w3.org/2000/svg" xmlns:xlink="http://www.w3.org/1999/xlink" width="32" height="32" viewBox="0 0 32 32">
<path fill-rule="nonzero" fill="rgb(0%, 0%, 0%)" fill-opacity="1" d="M 5.332031 2 L 5.332031 4.070312 C 5.546875 4.027344 5.769531 4 6 4 C 6.226562 4 6.449219 4.027344 6.660156 4.0625 L 6.660156 3.332031 L 30.667969 3.332031 L 30.667969 20.664062 L 10 20.664062 L 10 22.664062 L 31.996094 22.664062 L 31.996094 2 Z M 6 4.664062 C 4.527344 4.664062 3.332031 5.855469 3.332031 7.332031 C 3.332031 7.5625 3.332031 8.433594 3.332031 8.664062 C 3.332031 10.140625 4.527344 11.332031 6 11.332031 C 7.46875 11.332031 8.664062 10.140625 8.664062 8.664062 C 8.664062 8.433594 8.667969 7.5625 8.667969 7.332031 C 8.667969 5.855469 7.46875 4.664062 6 4.664062 Z M 23.601562 9.335938 C 23.558594 9.34375 23.519531 9.359375 23.480469 9.386719 L 17.949219 13.074219 C 17.980469 13.152344 18 13.242188 18 13.332031 C 18 13.484375 18 13.660156 18 13.847656 L 23.851562 9.945312 C 24.003906 9.839844 24.042969 9.636719 23.941406 9.484375 C 23.867188 9.363281 23.730469 9.3125 23.601562 9.335938 Z M 4.664062 12 L 2.664062 12.667969 C 1.613281 13.011719 0.664062 14.222656 0.664062 15.332031 L 0.664062 20.667969 L 3.902344 23.902344 C 4.03125 24.035156 4.03125 24.242188 3.902344 24.375 C 3.769531 24.507812 3.558594 24.507812 3.429688 24.375 L 2.664062 23.609375 L 2.664062 31.332031 C 1.929688 31.332031 0 31.476562 0 31.660156 C 0 31.847656 1.929688 32 2.664062 32 L 9.332031 32 C 10.066406 32 12 31.847656 12 31.660156 C 12 31.476562 10.066406 31.332031 9.332031 31.332031 L 9.332031 17.609375 L 8.292969 16.570312 C 8.164062 16.4375 8.164062 16.230469 8.292969 16.097656 C 8.421875 15.964844 8.636719 15.964844 8.765625 16.097656 L 11.332031 18.667969 C 11.683594 19.011719 12.167969 19.332031 12.664062 19.332031 C 13.15625 19.332031 13.601562 18.960938 14 18.667969 L 16.351562 16.925781 C 17.347656 16.1875 17.332031 14.585938 17.332031 13.332031 L 13.332031 16 L 12 14.667969 C 11.214844 13.882812 10.386719 13.011719 9.332031 12.667969 L 7.332031 12 L 6 15.332031 Z M 21.332031 31.332031 C 16.917969 31.332031 13.332031 31.484375 13.332031 31.660156 C 13.332031 31.847656 16.917969 32 21.332031 32 C 25.746094 32 29.332031 31.847656 29.332031 31.660156 C 29.332031 31.484375 25.746094 31.332031 21.332031 31.332031 Z M 21.332031 31.332031 "/>
</svg>
