<?xml version="1.0" encoding="UTF-8"?>
<svg xmlns="http://www.w3.org/2000/svg" xmlns:xlink="http://www.w3.org/1999/xlink" width="32" height="32" viewBox="0 0 32 32">
<rect x="-3.2" y="-3.2" width="38.4" height="38.4" fill="rgb(8.627451%, 8.627451%, 8.627451%)" fill-opacity="1"/>
<path fill-rule="nonzero" fill="rgb(100%, 100%, 100%)" fill-opacity="1" d="M 6.398438 6.039062 C 6.398438 5.910156 6.507812 5.800781 6.632812 5.800781 L 8.425781 5.800781 C 8.554688 5.800781 8.660156 5.910156 8.660156 6.039062 L 8.660156 25.941406 C 8.660156 26.070312 8.554688 26.175781 8.425781 26.175781 L 6.632812 26.175781 C 6.507812 26.175781 6.398438 26.070312 6.398438 25.941406 Z M 6.398438 6.039062 "/>
<path fill-rule="nonzero" fill="rgb(100%, 100%, 100%)" fill-opacity="1" d="M 10.921875 6.039062 C 10.921875 5.910156 11.03125 5.800781 11.15625 5.800781 L 12.949219 5.800781 C 13.078125 5.800781 13.183594 5.910156 13.183594 6.039062 L 13.183594 25.941406 C 13.183594 26.070312 13.078125 26.175781 12.949219 26.175781 L 11.15625 26.175781 C 11.03125 26.175781 10.921875 26.070312 10.921875 25.941406 Z M 10.921875 6.039062 "/>
<path fill-rule="nonzero" fill="rgb(100%, 100%, 100%)" fill-opacity="1" d="M 15.445312 6.039062 C 15.445312 5.910156 15.550781 5.800781 15.679688 5.800781 L 17.472656 5.800781 C 17.601562 5.800781 17.707031 5.910156 17.707031 6.039062 L 17.707031 25.941406 C 17.707031 26.070312 17.601562 26.175781 17.472656 26.175781 L 15.679688 26.175781 C 15.550781 26.175781 15.445312 26.070312 15.445312 25.941406 Z M 15.445312 6.039062 "/>
<path fill-rule="nonzero" fill="rgb(100%, 100%, 100%)" fill-opacity="1" d="M 19.988281 6.039062 C 19.988281 5.910156 20.097656 5.800781 20.222656 5.800781 L 22.015625 5.800781 C 22.144531 5.800781 22.25 5.910156 22.25 6.039062 L 22.25 25.941406 C 22.25 26.070312 22.144531 26.175781 22.015625 26.175781 L 20.222656 26.175781 C 20.097656 26.175781 19.988281 26.070312 19.988281 25.941406 Z M 19.988281 6.039062 "/>
<path fill-rule="nonzero" fill="rgb(100%, 100%, 100%)" fill-opacity="1" d="M 24.511719 13.972656 C 24.511719 13.84375 24.617188 13.738281 24.746094 13.738281 L 26.539062 13.738281 C 26.667969 13.738281 26.773438 13.84375 26.773438 13.972656 L 26.773438 18.027344 C 26.773438 18.15625 26.667969 18.261719 26.539062 18.261719 L 24.746094 18.261719 C 24.617188 18.261719 24.511719 18.15625 24.511719 18.027344 Z M 24.511719 13.972656 "/>
</svg>
