<?xml version="1.0" encoding="UTF-8"?>
<svg xmlns="http://www.w3.org/2000/svg" xmlns:xlink="http://www.w3.org/1999/xlink" width="104.778618" height="32" viewBox="0 0 104.778618 32">
<path fill-rule="nonzero" fill="rgb(11.764706%, 11.764706%, 11.764706%)" fill-opacity="1" d="M 5.195312 7.875 C 5.195312 7.761719 5.277344 7.679688 5.390625 7.679688 L 6.84375 7.679688 C 6.957031 7.679688 7.035156 7.761719 7.035156 7.875 L 7.035156 24.125 C 7.035156 24.238281 6.957031 24.320312 6.84375 24.320312 L 5.390625 24.320312 C 5.277344 24.320312 5.195312 24.238281 5.195312 24.125 Z M 5.195312 7.875 "/>
<path fill-rule="nonzero" fill="rgb(11.764706%, 11.764706%, 11.764706%)" fill-opacity="1" d="M 8.890625 7.875 C 8.890625 7.761719 8.972656 7.679688 9.085938 7.679688 L 10.539062 7.679688 C 10.652344 7.679688 10.730469 7.761719 10.730469 7.875 L 10.730469 24.125 C 10.730469 24.238281 10.652344 24.320312 10.539062 24.320312 L 9.085938 24.320312 C 8.972656 24.320312 8.890625 24.238281 8.890625 24.125 C 8.890625 24.125 8.890625 7.875 8.890625 7.875 Z M 8.890625 7.875 "/>
<path fill-rule="nonzero" fill="rgb(11.764706%, 11.764706%, 11.764706%)" fill-opacity="1" d="M 12.585938 7.875 C 12.585938 7.761719 12.667969 7.679688 12.78125 7.679688 L 14.234375 7.679688 C 14.347656 7.679688 14.425781 7.761719 14.425781 7.875 L 14.425781 24.125 C 14.425781 24.238281 14.347656 24.320312 14.234375 24.320312 L 12.78125 24.320312 C 12.667969 24.320312 12.585938 24.238281 12.585938 24.125 Z M 12.585938 7.875 "/>
<path fill-rule="nonzero" fill="rgb(11.764706%, 11.764706%, 11.764706%)" fill-opacity="1" d="M 16.28125 7.875 C 16.28125 7.761719 16.363281 7.679688 16.476562 7.679688 L 17.929688 7.679688 C 18.042969 7.679688 18.121094 7.761719 18.121094 7.875 L 18.121094 24.125 C 18.121094 24.238281 18.042969 24.320312 17.929688 24.320312 L 16.476562 24.320312 C 16.363281 24.320312 16.28125 24.238281 16.28125 24.125 Z M 16.28125 7.875 "/>
<path fill-rule="nonzero" fill="rgb(11.764706%, 11.764706%, 11.764706%)" fill-opacity="1" d="M 19.976562 14.347656 C 19.976562 14.234375 20.058594 14.152344 20.171875 14.152344 L 21.625 14.152344 C 21.738281 14.152344 21.816406 14.234375 21.816406 14.347656 L 21.816406 17.652344 C 21.816406 17.765625 21.738281 17.847656 21.625 17.847656 L 20.171875 17.847656 C 20.058594 17.847656 19.976562 17.765625 19.976562 17.652344 Z M 19.976562 14.347656 "/>
<path fill-rule="nonzero" fill="rgb(11.764706%, 11.764706%, 11.764706%)" fill-opacity="1" d="M 31.5 12.214844 C 30.984375 12.214844 30.515625 12.3125 30.097656 12.488281 C 29.675781 12.667969 29.320312 12.925781 29.03125 13.28125 C 28.742188 13.636719 28.53125 14.070312 28.367188 14.570312 C 28.222656 15.070312 28.144531 15.636719 28.144531 16.265625 C 28.144531 16.894531 28.273438 17.816406 28.515625 18.429688 C 28.757812 19.027344 29.128906 19.492188 29.628906 19.816406 C 30.128906 20.140625 30.742188 20.300781 31.484375 20.300781 C 32.226562 20.300781 32.371094 20.269531 32.789062 20.1875 C 33.210938 20.105469 33.644531 19.976562 34.082031 19.847656 L 34.082031 21.21875 C 33.664062 21.382812 33.242188 21.496094 32.808594 21.558594 C 32.371094 21.640625 31.871094 21.671875 31.304688 21.671875 C 30.226562 21.671875 29.335938 21.445312 28.609375 21.011719 C 27.902344 20.574219 27.367188 19.929688 27.011719 19.121094 C 26.660156 18.300781 26.480469 17.347656 26.480469 16.25 C 26.480469 15.152344 26.59375 14.71875 26.804688 14.054688 C 27.03125 13.378906 27.351562 12.8125 27.773438 12.328125 C 28.191406 11.84375 28.722656 11.472656 29.335938 11.214844 C 29.964844 10.957031 30.691406 10.8125 31.515625 10.8125 C 32.339844 10.8125 32.566406 10.875 33.082031 10.988281 C 33.597656 11.101562 34.050781 11.246094 34.46875 11.457031 L 33.871094 12.78125 C 33.53125 12.621094 33.144531 12.488281 32.742188 12.359375 C 32.371094 12.28125 31.953125 12.214844 31.5 12.214844 Z M 31.5 12.214844 "/>
<path fill-rule="nonzero" fill="rgb(11.764706%, 11.764706%, 11.764706%)" fill-opacity="1" d="M 37.746094 21.542969 L 36.179688 21.542969 L 36.179688 10.3125 L 37.746094 10.3125 Z M 37.746094 21.542969 "/>
<path fill-rule="nonzero" fill="rgb(11.764706%, 11.764706%, 11.764706%)" fill-opacity="1" d="M 41.183594 13.570312 L 41.183594 21.542969 L 39.617188 21.542969 L 39.617188 13.570312 Z M 40.421875 10.554688 C 40.664062 10.554688 40.859375 10.617188 41.035156 10.761719 C 41.214844 10.910156 41.296875 11.132812 41.296875 11.457031 C 41.296875 11.78125 41.214844 12.007812 41.035156 12.152344 C 40.859375 12.296875 40.648438 12.359375 40.421875 12.359375 C 40.199219 12.359375 39.957031 12.296875 39.777344 12.152344 C 39.617188 12.007812 39.519531 11.765625 39.519531 11.457031 C 39.519531 11.152344 39.601562 10.894531 39.777344 10.761719 C 39.941406 10.617188 40.164062 10.554688 40.421875 10.554688 Z M 40.421875 10.554688 "/>
<path fill-rule="nonzero" fill="rgb(11.764706%, 11.764706%, 11.764706%)" fill-opacity="1" d="M 46.554688 21.6875 C 45.828125 21.6875 45.183594 21.542969 44.636719 21.253906 C 44.085938 20.960938 43.652344 20.527344 43.34375 19.929688 C 43.039062 19.316406 42.894531 18.542969 42.894531 17.605469 C 42.894531 16.667969 43.054688 15.8125 43.375 15.21875 C 43.714844 14.605469 44.167969 14.152344 44.714844 13.878906 C 45.28125 13.585938 45.941406 13.441406 46.667969 13.441406 C 47.394531 13.441406 47.523438 13.492188 47.910156 13.585938 C 48.296875 13.667969 48.636719 13.78125 48.878906 13.894531 L 48.410156 15.167969 C 48.136719 15.054688 47.847656 14.960938 47.523438 14.894531 C 47.21875 14.8125 46.925781 14.78125 46.652344 14.78125 C 46.152344 14.78125 45.75 14.894531 45.425781 15.105469 C 45.101562 15.3125 44.878906 15.621094 44.714844 16.054688 C 44.570312 16.476562 44.488281 16.992188 44.488281 17.621094 C 44.488281 18.25 44.570312 18.734375 44.730469 19.140625 C 44.894531 19.558594 45.121094 19.863281 45.425781 20.089844 C 45.75 20.300781 46.136719 20.398438 46.589844 20.398438 C 47.039062 20.398438 47.425781 20.347656 47.75 20.253906 C 48.089844 20.15625 48.394531 20.027344 48.703125 19.863281 L 48.703125 21.21875 C 48.410156 21.382812 48.105469 21.511719 47.765625 21.589844 C 47.460938 21.65625 47.039062 21.6875 46.554688 21.6875 Z M 46.554688 21.6875 "/>
<path fill-rule="nonzero" fill="rgb(11.764706%, 11.764706%, 11.764706%)" fill-opacity="1" d="M 51.832031 17.058594 C 51.945312 16.945312 55.238281 13.570312 55.238281 13.570312 L 57.0625 13.570312 L 53.851562 16.992188 L 57.269531 21.542969 L 55.414062 21.542969 L 52.785156 17.976562 L 51.863281 18.75 L 51.863281 21.542969 L 50.316406 21.542969 L 50.316406 10.3125 L 51.863281 10.3125 Z M 51.832031 17.058594 "/>
<path fill-rule="nonzero" fill="rgb(11.764706%, 11.764706%, 11.764706%)" fill-opacity="1" d="M 66.984375 21.542969 L 65.386719 21.542969 L 65.386719 16.71875 L 60.351562 16.71875 L 60.351562 21.542969 L 58.753906 21.542969 L 58.753906 10.988281 L 60.351562 10.988281 L 60.351562 15.363281 L 65.386719 15.363281 L 65.386719 10.988281 L 66.984375 10.988281 Z M 66.984375 21.542969 "/>
<path fill-rule="nonzero" fill="rgb(11.764706%, 11.764706%, 11.764706%)" fill-opacity="1" d="M 75.910156 17.558594 C 75.910156 18.21875 75.8125 18.800781 75.652344 19.316406 C 75.472656 19.832031 75.214844 20.269531 74.894531 20.625 C 74.570312 20.976562 74.167969 21.253906 73.714844 21.429688 C 73.246094 21.609375 72.730469 21.6875 72.148438 21.6875 C 71.566406 21.6875 71.117188 21.609375 70.664062 21.429688 C 70.210938 21.238281 69.808594 20.976562 69.488281 20.625 C 69.164062 20.269531 68.90625 19.832031 68.710938 19.316406 C 68.519531 18.800781 68.4375 18.21875 68.4375 17.542969 C 68.4375 16.863281 68.582031 15.925781 68.875 15.3125 C 69.179688 14.699219 69.617188 14.234375 70.179688 13.925781 C 70.746094 13.605469 71.421875 13.441406 72.199219 13.441406 C 72.972656 13.441406 73.570312 13.605469 74.117188 13.925781 C 74.683594 14.25 75.117188 14.699219 75.441406 15.3125 C 75.746094 15.910156 75.910156 16.667969 75.910156 17.558594 Z M 70.035156 17.558594 C 70.035156 18.15625 70.117188 18.65625 70.261719 19.089844 C 70.40625 19.511719 70.648438 19.832031 70.957031 20.058594 C 71.277344 20.285156 71.679688 20.398438 72.164062 20.398438 C 72.648438 20.398438 73.070312 20.285156 73.375 20.058594 C 73.699219 19.832031 73.925781 19.511719 74.070312 19.089844 C 74.214844 18.65625 74.296875 18.136719 74.296875 17.558594 C 74.296875 16.976562 74.214844 16.425781 74.054688 16.023438 C 73.910156 15.605469 73.667969 15.296875 73.359375 15.070312 C 73.054688 14.847656 72.648438 14.734375 72.148438 14.734375 C 71.40625 14.734375 70.875 14.976562 70.535156 15.476562 C 70.195312 15.960938 70.035156 16.652344 70.035156 17.558594 Z M 70.035156 17.558594 "/>
<path fill-rule="nonzero" fill="rgb(11.764706%, 11.764706%, 11.764706%)" fill-opacity="1" d="M 84.253906 13.570312 L 84.253906 21.542969 L 82.992188 21.542969 L 82.785156 20.496094 L 82.703125 20.496094 C 82.542969 20.769531 82.316406 20.996094 82.058594 21.171875 C 81.800781 21.347656 81.492188 21.480469 81.1875 21.558594 C 80.863281 21.640625 80.539062 21.6875 80.21875 21.6875 C 79.605469 21.6875 79.070312 21.589844 78.636719 21.398438 C 78.21875 21.1875 77.894531 20.882812 77.667969 20.445312 C 77.457031 20.011719 77.34375 19.460938 77.34375 18.785156 L 77.34375 13.570312 L 78.925781 13.570312 L 78.925781 18.558594 C 78.925781 19.171875 79.054688 19.640625 79.3125 19.945312 C 79.574219 20.253906 79.992188 20.398438 80.539062 20.398438 C 81.089844 20.398438 81.523438 20.285156 81.847656 20.074219 C 82.171875 19.863281 82.378906 19.542969 82.507812 19.121094 C 82.65625 18.703125 82.71875 18.1875 82.71875 17.605469 L 82.71875 13.570312 Z M 84.253906 13.570312 "/>
<path fill-rule="nonzero" fill="rgb(11.764706%, 11.764706%, 11.764706%)" fill-opacity="1" d="M 91.417969 19.300781 C 91.417969 19.816406 91.289062 20.269531 91.03125 20.625 C 90.773438 20.976562 90.402344 21.253906 89.917969 21.429688 C 89.433594 21.609375 88.851562 21.6875 88.171875 21.6875 C 87.496094 21.6875 87.125 21.640625 86.722656 21.558594 C 86.332031 21.480469 85.960938 21.367188 85.625 21.203125 L 85.625 19.832031 C 85.980469 19.992188 86.382812 20.15625 86.851562 20.285156 C 87.316406 20.414062 87.769531 20.476562 88.207031 20.476562 C 88.640625 20.476562 89.222656 20.382812 89.480469 20.203125 C 89.738281 20.011719 89.882812 19.769531 89.882812 19.445312 C 89.882812 19.121094 89.835938 19.105469 89.738281 18.976562 C 89.640625 18.832031 89.449219 18.6875 89.175781 18.542969 C 88.898438 18.378906 88.511719 18.203125 87.996094 18.007812 C 87.496094 17.800781 87.058594 17.605469 86.703125 17.394531 C 86.351562 17.1875 86.074219 16.945312 85.898438 16.667969 C 85.703125 16.378906 85.625 16.023438 85.625 15.574219 C 85.625 14.878906 85.898438 14.363281 86.445312 13.992188 C 87.011719 13.621094 87.753906 13.425781 88.65625 13.425781 C 89.5625 13.425781 89.59375 13.472656 90.011719 13.570312 C 90.449219 13.652344 90.867188 13.796875 91.273438 13.992188 L 90.753906 15.183594 C 90.53125 15.070312 90.289062 14.992188 90.046875 14.925781 C 89.804688 14.847656 89.5625 14.78125 89.320312 14.734375 C 89.078125 14.683594 88.835938 14.652344 88.578125 14.652344 C 88.109375 14.652344 87.738281 14.734375 87.496094 14.878906 C 87.253906 15.023438 87.125 15.234375 87.125 15.492188 C 87.125 15.75 87.171875 15.847656 87.285156 15.976562 C 87.398438 16.121094 87.609375 16.25 87.898438 16.394531 C 88.191406 16.539062 88.578125 16.703125 89.0625 16.894531 C 89.5625 17.089844 89.980469 17.28125 90.320312 17.476562 C 90.675781 17.671875 90.933594 17.914062 91.109375 18.203125 C 91.320312 18.492188 91.417969 18.863281 91.417969 19.300781 Z M 91.417969 19.300781 "/>
<path fill-rule="nonzero" fill="rgb(11.764706%, 11.764706%, 11.764706%)" fill-opacity="1" d="M 96.210938 13.425781 C 96.902344 13.425781 97.515625 13.570312 98.015625 13.863281 C 98.515625 14.152344 98.90625 14.554688 99.164062 15.105469 C 99.4375 15.652344 99.582031 16.28125 99.582031 17.023438 L 99.582031 17.878906 L 94.226562 17.878906 C 94.226562 18.703125 94.449219 19.316406 94.855469 19.75 C 95.273438 20.1875 95.839844 20.398438 96.582031 20.398438 C 97.324219 20.398438 97.550781 20.347656 97.9375 20.269531 C 98.339844 20.171875 98.757812 20.027344 99.179688 19.832031 L 99.179688 21.140625 C 98.792969 21.316406 98.386719 21.445312 97.96875 21.542969 C 97.566406 21.625 97.082031 21.671875 96.515625 21.671875 C 95.953125 21.671875 95.0625 21.527344 94.484375 21.21875 C 93.886719 20.914062 93.433594 20.460938 93.09375 19.863281 C 92.773438 19.25 92.609375 18.507812 92.609375 17.621094 C 92.609375 16.734375 92.757812 15.960938 93.046875 15.347656 C 93.351562 14.734375 93.773438 14.25 94.304688 13.925781 C 94.855469 13.605469 95.5 13.425781 96.210938 13.425781 Z M 96.210938 14.636719 C 95.644531 14.636719 95.191406 14.8125 94.855469 15.183594 C 94.515625 15.554688 94.320312 16.074219 94.257812 16.734375 L 98.015625 16.734375 C 98.015625 16.316406 97.953125 15.960938 97.824219 15.636719 C 97.695312 15.3125 97.5 15.070312 97.226562 14.894531 C 96.96875 14.734375 96.628906 14.636719 96.210938 14.636719 Z M 96.210938 14.636719 "/>
</svg>
