<svg role="img" viewBox="0 0 32 32" height="32" width="32" xmlns="http://www.w3.org/2000/svg"><path d="M26.96 14.246c.009-.125.013-.242.013-.36 0-4.64-3.778-8.417-8.418-8.417-3.203 0-6.133 1.855-7.54 4.695a4.452 4.452 0 0 0-2.468-.742 4.487 4.487 0 0 0-4.473 4.18A6.204 6.204 0 0 0 0 19.414a6.198 6.198 0 0 0 6.191 6.188h20.11a5.704 5.704 0 0 0 5.699-5.7 5.701 5.701 0 0 0-5.04-5.656M17.282 22.2c0 .13-.07.2-.199.2H15.56c-.125 0-.196-.07-.196-.2v-1.543c0-.125.07-.18.196-.18h1.523c.129 0 .2.055.2.18Zm.008-3.2c0 .129-.05.2-.18.2h-1.55c-.13 0-.2-.071-.2-.2v-7.281c0-.125.07-.2.2-.2h1.55c.13 0 .18.075.18.2Zm0 0"/></svg>