<svg role="img" viewBox="0 0 24 32" height="32" width="24" xmlns="http://www.w3.org/2000/svg"><path d="M7.492 10.54H0v8.362h7.492l3.684 3.52H24v-8.367H11.176Zm3.684 12.886L7.492 19.91H0V32h24v-8.574Zm0-18.664L7.492 1.246H0v8.29h7.492l3.684 3.515H24V4.758Zm0 0" fill="rgb(29.411765%, 38.039216%, 17.254902%)" fill-rule="evenodd"/><path d="M7.492 9.293H0v8.363h7.492l3.684 3.52H24v-8.367H11.176Zm3.684 12.887-3.684-3.516H0v12.09h24V22.18Zm0 0" fill="rgb(45.882353%, 61.176471%, 24.313725%)" fill-rule="evenodd"/><path d="m16.523 26.371 1.266-1.297 2.55 2.61-1.265 1.296Zm1.313 1.34 4.086-4.18 1.246 1.274-4.086 4.175Zm-1.313-10.707 1.27-1.297 2.55 2.61-1.269 1.296Zm1.313 1.336 4.09-4.176 1.242 1.274-4.086 4.175Zm0 0" fill="rgb(100%, 100%, 100%)" fill-rule="evenodd"/><path d="M11.176 3.516 7.492 0H0v8.29h7.492l3.684 3.515H24v-8.29Zm0 0" fill="rgb(45.882353%, 61.176471%, 24.313725%)" fill-rule="evenodd"/><path d="m17.18 8.93 4.09-4.176 1.242 1.27-4.086 4.18Zm0-2.91 1.242-1.27 4.086 4.176-1.242 1.273Zm0 0" fill="rgb(100%, 100%, 100%)" fill-rule="evenodd"/></svg>