<?xml version="1.0" encoding="UTF-8"?>
<svg xmlns="http://www.w3.org/2000/svg" xmlns:xlink="http://www.w3.org/1999/xlink" width="32" height="32" viewBox="0 0 32 32">
<path fill-rule="nonzero" fill="rgb(0%, 0%, 0%)" fill-opacity="1" d="M 18.554688 5.761719 C 15.3125 5.761719 12.5625 7.46875 11.191406 10.28125 C 10.488281 9.835938 9.640625 9.601562 8.730469 9.601562 C 6.402344 9.601562 4.625 11.371094 4.480469 13.765625 C 1.625 14.734375 0 17 0 20.050781 C 0.00390625 23.464844 2.773438 26.234375 6.1875 26.238281 L 10.238281 26.238281 C 10.238281 27.78125 10.703125 29.210938 11.585938 30.269531 C 12.472656 31.332031 13.796875 32 15.359375 32 C 15.609375 32 15.839844 31.851562 15.941406 31.621094 C 16.042969 31.390625 16.003906 31.125 15.839844 30.9375 C 15.457031 30.5 14.769531 29.917969 14.71875 28.769531 C 14.703125 28.410156 14.753906 28.011719 14.867188 27.578125 C 15.109375 27.828125 15.375 28.003906 15.699219 28.082031 C 16.035156 28.160156 16.414062 28.082031 16.683594 27.898438 C 16.953125 27.714844 17.132812 27.460938 17.269531 27.175781 C 17.515625 26.671875 17.617188 25.996094 17.644531 25.265625 C 17.789062 25.800781 17.90625 26.34375 17.921875 26.894531 C 17.933594 27.878906 17.769531 28.855469 17.433594 29.78125 C 17.328125 30.082031 17.195312 30.375 17.042969 30.65625 C 16.992188 30.742188 16.953125 30.796875 16.929688 30.824219 C 16.691406 30.976562 16.585938 31.269531 16.667969 31.542969 C 16.75 31.8125 17 32 17.28125 32 C 17.316406 32 17.34375 31.976562 17.382812 31.972656 L 17.382812 31.992188 C 17.417969 31.984375 17.398438 31.96875 17.429688 31.960938 C 18.925781 31.910156 20.191406 31.148438 21.035156 30.082031 C 21.914062 28.976562 22.398438 27.578125 22.398438 26.238281 L 26.300781 26.238281 C 29.445312 26.238281 31.996094 23.6875 32 20.542969 C 32 17.515625 29.6875 14.835938 26.871094 14.449219 C 26.875 14.324219 26.878906 14.199219 26.878906 14.078125 C 26.878906 9.414062 23.222656 5.761719 18.554688 5.761719 M 15.667969 18.417969 C 19.675781 21.351562 21.121094 24.113281 21.121094 26.238281 C 21.121094 27.257812 20.722656 28.421875 20.035156 29.285156 C 19.640625 29.769531 19.136719 30.152344 18.558594 30.394531 C 18.585938 30.328125 18.613281 30.289062 18.640625 30.21875 C 18.957031 29.339844 19.230469 28.160156 19.199219 26.863281 C 19.164062 25.273438 18.742188 23.40625 17.0625 21.921875 C 16.847656 21.734375 16.535156 21.707031 16.296875 21.859375 C 16.054688 22.011719 15.945312 22.304688 16.023438 22.578125 C 16.546875 24.382812 16.40625 26.03125 16.121094 26.617188 C 16.089844 26.695312 16.042969 26.761719 15.980469 26.8125 C 15.953125 26.800781 15.636719 26.609375 15.285156 25.941406 C 15.175781 25.734375 14.964844 25.605469 14.730469 25.601562 C 14.496094 25.597656 14.28125 25.71875 14.164062 25.921875 C 13.527344 27.035156 13.40625 28.042969 13.441406 28.828125 C 13.46875 29.457031 13.667969 29.96875 13.894531 30.410156 C 13.382812 30.199219 12.929688 29.871094 12.570312 29.453125 C 11.910156 28.660156 11.519531 27.527344 11.519531 26.238281 C 11.519531 24.578125 12.359375 23.585938 13.402344 22.347656 C 14.269531 21.320312 15.226562 20.113281 15.667969 18.417969 M 15.667969 18.417969 "/>
</svg>
