<svg role="img" viewBox="0 0 26.468 32" height="32" width="26.468" xmlns="http://www.w3.org/2000/svg"><path d="m2.246 21.906.215.246 10.86 3.078.046-1.906-7.597-1.91-.375-.133-3.145.63m22.027-.005-11.09 3.703-.035-2.285 7.602-1.91.336-.371 3.187.867" fill="rgb(71.764706%, 79.215686%, 61.568627%)"/><path d="m13.152 8.832 7.602 1.773 3.344-.16.175-.336-10.597-3.812-.528 2.535" fill="rgb(23.529412%, 28.627451%, 16.078431%)"/><path d="m5.766 21.414-3.52.496-.098-.367V10.496l.098-.383 3.18.239.34.257v10.809" fill="rgb(45.882353%, 61.176471%, 24.313725%)"/><path d="M13.367 8.832 5.77 10.605l-3.524-.496.133-.207L13.32 6.79Zm0 0" fill="rgb(23.529412%, 28.627451%, 16.078431%)"/><path d="M13.246.617.617 6.992l.004 18.04 12.625 6.37.191-.285V.988ZM9.56 24.102 2.246 21.91v-11.8L9.56 7.917Zm11.207-2.688 3.515.492.192-.347V10.445l-.192-.336-3.515.496Zm0 0" fill="rgb(29.411765%, 38.039216%, 17.254902%)"/><path d="m13.246 31.402 12.652-6.37.008-18.04L13.246.617ZM16.97 7.918l7.312 2.191V21.91l-7.312 2.192Zm0 0" fill="rgb(45.882353%, 61.176471%, 24.313725%)"/></svg>