<?xml version="1.0" encoding="UTF-8"?>
<svg xmlns="http://www.w3.org/2000/svg" xmlns:xlink="http://www.w3.org/1999/xlink" width="32" height="32" viewBox="0 0 32 32">
<path fill-rule="nonzero" fill="rgb(0%, 0%, 0%)" fill-opacity="1" d="M 26.960938 14.246094 C 26.96875 14.121094 26.972656 14.003906 26.972656 13.886719 C 26.972656 9.246094 23.195312 5.46875 18.554688 5.46875 C 15.351562 5.46875 12.421875 7.324219 11.015625 10.164062 C 10.285156 9.679688 9.425781 9.421875 8.546875 9.421875 C 6.1875 9.425781 4.234375 11.25 4.074219 13.601562 C 1.632812 14.496094 0.0078125 16.816406 0 19.414062 C 0.00390625 22.832031 2.773438 25.597656 6.191406 25.601562 L 26.300781 25.601562 C 29.449219 25.597656 31.996094 23.046875 32 19.902344 C 31.996094 17.011719 29.832031 14.582031 26.960938 14.246094 M 17.28125 22.199219 C 17.28125 22.328125 17.210938 22.398438 17.082031 22.398438 L 15.558594 22.398438 C 15.433594 22.398438 15.363281 22.328125 15.363281 22.199219 L 15.363281 20.65625 C 15.363281 20.53125 15.433594 20.476562 15.558594 20.476562 L 17.082031 20.476562 C 17.210938 20.476562 17.28125 20.53125 17.28125 20.65625 Z M 17.289062 19 C 17.289062 19.128906 17.238281 19.199219 17.109375 19.199219 L 15.558594 19.199219 C 15.429688 19.199219 15.359375 19.128906 15.359375 19 L 15.359375 11.71875 C 15.359375 11.59375 15.429688 11.519531 15.558594 11.519531 L 17.109375 11.519531 C 17.238281 11.519531 17.289062 11.59375 17.289062 11.71875 Z M 17.289062 19 "/>
</svg>
