<svg role="img" viewBox="0 0 32 32" height="32" width="32" xmlns="http://www.w3.org/2000/svg"><path d="M18.555 5.762c-3.242 0-5.992 1.707-7.364 4.52-.703-.446-1.55-.68-2.46-.68-2.329 0-4.106 1.77-4.25 4.164C1.624 14.734 0 17 0 20.05a6.194 6.194 0 0 0 6.188 6.187h4.05c0 1.543.465 2.973 1.348 4.032.887 1.062 2.21 1.73 3.773 1.73.25 0 .48-.148.582-.379a.636.636 0 0 0-.101-.683c-.383-.438-1.07-1.02-1.121-2.168-.016-.36.035-.758.148-1.192.242.25.508.426.832.504.336.078.715 0 .985-.184.27-.183.449-.437.586-.722.246-.504.347-1.18.375-1.91.144.535.261 1.078.277 1.629a8.2 8.2 0 0 1-.488 2.886 5.836 5.836 0 0 1-.391.875c-.05.086-.09.14-.113.168A.641.641 0 0 0 17.282 32c.034 0 .062-.023.1-.027v.02c.036-.009.016-.024.048-.032 1.496-.05 2.761-.813 3.605-1.879.88-1.105 1.363-2.504 1.363-3.844h3.903A5.702 5.702 0 0 0 32 20.543c0-3.027-2.312-5.707-5.129-6.094.004-.125.008-.25.008-.37 0-4.665-3.656-8.317-8.324-8.317m-2.887 12.656c4.008 2.934 5.453 5.695 5.453 7.82 0 1.02-.398 2.184-1.086 3.047a3.78 3.78 0 0 1-1.476 1.11c.027-.067.054-.106.082-.176.316-.88.59-2.059.558-3.356-.035-1.59-.457-3.457-2.137-4.941a.64.64 0 0 0-1.039.656c.524 1.805.383 3.453.098 4.04a.49.49 0 0 1-.14.195c-.028-.012-.344-.204-.696-.872a.636.636 0 0 0-.555-.34.638.638 0 0 0-.566.32c-.637 1.114-.758 2.122-.723 2.907.028.629.227 1.14.454 1.582a3.48 3.48 0 0 1-1.325-.957c-.66-.793-1.05-1.926-1.05-3.215 0-1.66.84-2.652 1.882-3.89.868-1.028 1.825-2.235 2.266-3.93m0 0"/></svg>