<?xml version="1.0" encoding="UTF-8"?>
<svg xmlns="http://www.w3.org/2000/svg" xmlns:xlink="http://www.w3.org/1999/xlink" width="23.273001" height="32" viewBox="0 0 23.273001 32">
<path fill-rule="evenodd" fill="rgb(68.235294%, 79.607843%, 98.039216%)" fill-opacity="1" d="M 0 13.398438 L 0 18.175781 L 11.636719 24.367188 L 11.636719 19.589844 Z M 0 20.78125 L 0 25.558594 L 11.636719 31.75 L 11.636719 26.972656 Z M 0 20.78125 "/>
<path fill-rule="evenodd" fill="rgb(40%, 61.568627%, 96.470588%)" fill-opacity="1" d="M 11.636719 24.367188 L 23.273438 18.175781 L 23.273438 13.398438 L 11.636719 19.589844 Z M 11.636719 31.75 L 23.273438 25.558594 L 23.273438 20.78125 L 11.636719 26.972656 Z M 11.636719 31.75 "/>
<path fill-rule="evenodd" fill="rgb(25.882353%, 52.156863%, 95.686275%)" fill-opacity="1" d="M 23.273438 10.96875 L 23.273438 6.191406 L 11.636719 0 L 11.636719 4.777344 Z M 23.273438 10.96875 "/>
<path fill-rule="evenodd" fill="rgb(40%, 61.568627%, 96.470588%)" fill-opacity="1" d="M 11.636719 0 L 0 6.191406 L 0 10.96875 L 11.636719 4.777344 Z M 11.636719 0 "/>
<path fill-rule="evenodd" fill="rgb(68.235294%, 79.607843%, 98.039216%)" fill-opacity="1" d="M 0 6.144531 L 0 10.9375 L 11.636719 17.128906 L 11.636719 12.335938 Z M 0 6.144531 "/>
<path fill-rule="evenodd" fill="rgb(40%, 61.568627%, 96.470588%)" fill-opacity="1" d="M 11.636719 17.128906 L 23.273438 10.9375 L 23.273438 6.144531 L 11.636719 12.335938 Z M 11.636719 17.128906 "/>
</svg>
