<?xml version="1.0" encoding="UTF-8"?>
<svg xmlns="http://www.w3.org/2000/svg" xmlns:xlink="http://www.w3.org/1999/xlink" width="32" height="32" viewBox="0 0 32 32">
<path fill-rule="nonzero" fill="rgb(99.215686%, 84.705882%, 20.784314%)" fill-opacity="1" d="M 27.339844 17.65625 L 26.933594 16.164062 L 29.398438 15.707031 L 26.953125 15.15625 L 29.253906 14.160156 L 26.746094 14.167969 L 28.765625 12.683594 L 26.324219 13.25 L 27.964844 11.355469 L 25.710938 12.449219 L 26.886719 10.238281 L 24.933594 11.804688 L 25.589844 9.386719 L 24.03125 11.351562 L 24.132812 8.847656 L 23.050781 11.109375 L 22.59375 8.644531 L 22.042969 11.089844 L 21.046875 8.789062 L 21.054688 11.296875 L 19.980469 11.582031 L 18.242188 10.078125 L 19.335938 12.332031 L 17.125 11.15625 L 18.691406 13.109375 L 16.273438 12.453125 L 18.238281 14.011719 L 15.734375 13.910156 L 17.996094 14.988281 L 15.53125 15.449219 L 17.976562 16 L 16.628906 16.582031 L 11.417969 16.582031 L 11.417969 19.667969 L 22.972656 19.667969 L 26 20 L 25.882812 19.667969 L 26 19.667969 L 26 19.039062 L 26.34375 19.222656 L 27.179688 19.222656 L 26.234375 18.046875 L 28.65625 18.703125 Z M 27.339844 17.65625 "/>
<path fill-rule="nonzero" fill="rgb(96.078431%, 48.627451%, 0%)" fill-opacity="1" d="M 25.511719 15.859375 C 24.921875 15.859375 24.371094 16.003906 23.875 16.242188 L 25.582031 19.417969 L 22.917969 16.832031 L 12.917969 19.75 L 22.082031 16.25 L 17 14.332031 L 23.027344 15.722656 L 23.203125 15.757812 C 23.207031 15.777344 23.226562 15.511719 23.226562 15.246094 C 23.226562 11.746094 20.378906 8.90625 16.871094 8.90625 C 13.953125 8.90625 11.5 10.867188 10.75 13.539062 C 10.253906 13.070312 9.585938 12.78125 8.851562 12.78125 C 7.316406 12.78125 6.074219 14.023438 6.074219 15.550781 C 6.074219 15.859375 6.125 16.15625 6.21875 16.429688 C 6.089844 16.421875 5.957031 16.410156 5.828125 16.410156 C 3.714844 16.414062 2 18.121094 2 20.226562 C 2 20.613281 2.058594 20.984375 2.164062 21.332031 L 28.949219 21.332031 C 29.191406 20.832031 29.332031 20.269531 29.332031 19.675781 C 29.332031 17.566406 27.621094 15.859375 25.511719 15.859375 Z M 25.511719 15.859375 "/>
<path fill-rule="nonzero" fill="rgb(100%, 71.764706%, 30.196078%)" fill-opacity="1" d="M 17 12.667969 C 18.902344 12.667969 20.636719 13.363281 21.976562 14.507812 C 21.726562 11.976562 19.59375 10 17 10 C 14.40625 10 12.273438 11.976562 12.023438 14.507812 C 13.363281 13.363281 15.097656 12.667969 17 12.667969 Z M 9.824219 14.683594 C 9.597656 14.277344 9.164062 14 8.667969 14 C 7.929688 14 7.332031 14.597656 7.332031 15.332031 C 7.332031 15.644531 7.441406 15.925781 7.621094 16.152344 C 8.03125 15.324219 8.855469 14.75 9.824219 14.683594 Z M 4.699219 21.332031 C 4.867188 19.511719 6.355469 18.070312 8.207031 18.007812 C 7.691406 17.59375 7.046875 17.332031 6.332031 17.332031 C 4.675781 17.332031 3.332031 18.675781 3.332031 20.332031 C 3.332031 20.6875 3.402344 21.019531 3.515625 21.332031 Z M 4.699219 21.332031 "/>
</svg>
