<?xml version="1.0" encoding="UTF-8"?>
<svg xmlns="http://www.w3.org/2000/svg" xmlns:xlink="http://www.w3.org/1999/xlink" width="32" height="32" viewBox="0 0 32 32">
<path fill-rule="nonzero" fill="rgb(0%, 0%, 0%)" fill-opacity="1" stroke-width="24.639999" stroke-linecap="round" stroke-linejoin="round" stroke="rgb(64.313728%, 64.313728%, 64.313728%)" stroke-opacity="1" stroke-miterlimit="4" d="M 91.5 17.5625 L 91.5 42.21875 M 165.4375 17.5625 L 165.4375 42.21875 M 91.5 214.71875 L 91.5 239.375 M 165.4375 214.71875 L 165.4375 239.375 M 42.21875 91.5 L 17.5625 91.5 M 42.21875 165.4375 L 17.5625 165.4375 M 239.375 91.5 L 214.71875 91.5 M 239.375 165.4375 L 214.71875 165.4375 M 66.84375 214.71875 L 190.03125 214.71875 C 203.65625 214.71875 214.71875 203.65625 214.71875 190.03125 L 214.71875 66.84375 C 214.6875 53.21875 203.65625 42.1875 190.03125 42.21875 L 66.84375 42.21875 C 53.25 42.21875 42.21875 53.25 42.21875 66.84375 L 42.21875 190.0625 C 42.21875 203.6875 53.21875 214.71875 66.84375 214.71875 M 91.5 91.5 L 165.4375 91.5 L 165.4375 165.4375 L 91.5 165.4375 Z M 91.5 91.5 " transform="matrix(0.125, 0, 0, 0.125, 0, 0)"/>
</svg>
