<svg role="img" viewBox="0 0 32 32" height="32" width="32" xmlns="http://www.w3.org/2000/svg"><path d="M11.438 2.195v3.082m9.242-3.082v3.082M11.438 26.84v3.082m9.242-3.082v3.082M5.277 11.438H2.195m3.082 9.242H2.195m27.727-9.242H26.84m3.082 9.242H26.84M8.355 26.84h15.399a3.087 3.087 0 0 0 3.086-3.086V8.355a3.08 3.08 0 0 0-3.086-3.078H8.355a3.08 3.08 0 0 0-3.078 3.078v15.403c0 .816.32 1.601.899 2.18a3.084 3.084 0 0 0 2.18.902m3.082-15.402h9.242v9.242h-9.242Zm0 0" stroke="rgb(64.313725%, 64.313725%, 64.313725%)" stroke-linecap="round" stroke-linejoin="round" stroke-width="3.08"/></svg>