<?xml version="1.0" encoding="UTF-8"?>
<svg xmlns="http://www.w3.org/2000/svg" xmlns:xlink="http://www.w3.org/1999/xlink" width="32" height="32" viewBox="0 0 32 32">
<path fill-rule="nonzero" fill="rgb(0%, 0%, 0%)" fill-opacity="1" stroke-width="3.08" stroke-linecap="round" stroke-linejoin="round" stroke="rgb(64.313725%, 64.313725%, 64.313725%)" stroke-opacity="1" stroke-miterlimit="4" d="M 11.4375 2.195312 L 11.4375 5.277344 M 20.679688 2.195312 L 20.679688 5.277344 M 11.4375 26.839844 L 11.4375 29.921875 M 20.679688 26.839844 L 20.679688 29.921875 M 5.277344 11.4375 L 2.195312 11.4375 M 5.277344 20.679688 L 2.195312 20.679688 M 29.921875 11.4375 L 26.839844 11.4375 M 29.921875 20.679688 L 26.839844 20.679688 M 8.355469 26.839844 L 23.753906 26.839844 C 25.457031 26.839844 26.839844 25.457031 26.839844 23.753906 L 26.839844 8.355469 C 26.839844 7.539062 26.515625 6.753906 25.933594 6.175781 C 25.355469 5.597656 24.570312 5.277344 23.753906 5.277344 L 8.355469 5.277344 C 6.65625 5.277344 5.277344 6.65625 5.277344 8.355469 L 5.277344 23.757812 C 5.277344 24.574219 5.597656 25.359375 6.175781 25.9375 C 6.753906 26.515625 7.539062 26.839844 8.355469 26.839844 M 11.4375 11.4375 L 20.679688 11.4375 L 20.679688 20.679688 L 11.4375 20.679688 Z M 11.4375 11.4375 "/>
</svg>
