<?xml version="1.0" encoding="UTF-8"?>
<svg xmlns="http://www.w3.org/2000/svg" xmlns:xlink="http://www.w3.org/1999/xlink" width="32" height="32" viewBox="0 0 32 32">
<path fill-rule="nonzero" fill="rgb(41.176471%, 20%, 100%)" fill-opacity="1" d="M 23.527344 21.539062 C 25.160156 14.976562 22.828125 8.058594 17.554688 3.824219 C 19.914062 2.46875 22.585938 1.757812 25.308594 1.761719 C 26.339844 1.761719 27.367188 1.863281 28.378906 2.0625 L 28.808594 0.355469 C 27.65625 0.117188 26.480469 0 25.308594 0 C 22.007812 -0.0078125 18.78125 0.933594 16 2.707031 C 13.222656 0.933594 9.992188 -0.00390625 6.695312 0 C 5.519531 0 4.347656 0.117188 3.195312 0.355469 L 3.621094 2.0625 C 4.632812 1.863281 5.664062 1.761719 6.695312 1.761719 C 9.414062 1.757812 12.089844 2.46875 14.449219 3.820312 C 10.171875 7.257812 7.769531 12.519531 7.976562 18.003906 C 8.183594 23.492188 10.976562 28.554688 15.507812 31.65625 L 16.007812 32 L 16.503906 31.65625 C 20.003906 29.257812 22.503906 25.65625 23.53125 21.539062 Z M 15.121094 29.140625 C 10.417969 25.082031 8.578125 18.617188 10.433594 12.691406 C 11.324219 14.167969 12.425781 15.507812 13.710938 16.660156 C 14.609375 17.472656 15.121094 18.628906 15.121094 19.839844 Z M 16 16.265625 C 14.820312 15.386719 13.769531 14.347656 12.878906 13.175781 C 11.703125 11.636719 11.703125 9.503906 12.878906 7.960938 C 13.765625 6.78125 14.820312 5.734375 16.007812 4.851562 C 17.207031 5.746094 18.269531 6.808594 19.167969 8.003906 C 20.300781 9.519531 20.300781 11.601562 19.167969 13.113281 C 18.265625 14.308594 17.199219 15.371094 16 16.265625 Z M 16.878906 29.140625 L 16.878906 19.839844 C 16.878906 18.628906 17.394531 17.472656 18.292969 16.660156 C 19.574219 15.507812 20.679688 14.171875 21.566406 12.691406 C 23.417969 18.617188 21.578125 25.078125 16.878906 29.140625 Z M 16.878906 29.140625 "/>
</svg>
