<?xml version="1.0" encoding="UTF-8"?>
<svg xmlns="http://www.w3.org/2000/svg" xmlns:xlink="http://www.w3.org/1999/xlink" width="32" height="32" viewBox="0 0 32 32">
<path fill="none" stroke-width="1.5" stroke-linecap="round" stroke-linejoin="round" stroke="rgb(0%, 0%, 0%)" stroke-opacity="1" stroke-miterlimit="4" d="M 8.000977 12 L 8.009766 12 M 11.994141 12 L 12.005859 12 M 15.990234 12 L 15.999023 12 M 18 21 C 19.233398 21 20.232422 19.848633 20.232422 18.427734 C 20.232422 16.180664 20.129883 14.686523 21.673828 12.908203 C 22.110352 12.407227 22.110352 11.592773 21.673828 11.091797 C 20.129883 9.313477 20.232422 7.819336 20.232422 5.572266 C 20.232422 4.151367 19.233398 3 18 3 M 6 21 C 4.766602 21 3.767578 19.848633 3.767578 18.427734 C 3.767578 16.180664 3.870117 14.686523 2.326172 12.908203 C 1.889648 12.407227 1.889648 11.592773 2.326172 11.091797 C 3.834961 9.351562 3.767578 7.839844 3.767578 5.569336 C 3.767578 4.151367 4.766602 3 6 3 " transform="matrix(1.333333, 0, 0, 1.333333, 0, 0)"/>
</svg>
