<?xml version="1.0" encoding="UTF-8"?>
<svg xmlns="http://www.w3.org/2000/svg" xmlns:xlink="http://www.w3.org/1999/xlink" width="32" height="32" viewBox="0 0 32 32">
<path fill="none" stroke-width="1.5" stroke-linecap="round" stroke-linejoin="round" stroke="rgb(0%, 0%, 0%)" stroke-opacity="1" stroke-miterlimit="4" d="M 8.000978 12.000003 L 8.009768 12.000003 M 11.994143 12.000003 L 12.005862 12.000003 M 15.990238 12.000003 L 15.999027 12.000003 M 18.000004 21.000005 C 19.233403 21.000005 20.232427 19.848638 20.232427 18.427739 C 20.232427 16.180668 20.129888 14.686527 21.673833 12.908206 C 22.110357 12.40723 22.110357 11.592776 21.673833 11.0918 C 20.129888 9.313479 20.232427 7.819338 20.232427 5.572267 C 20.232427 4.151368 19.233403 3.000001 18.000004 3.000001 M 6.000001 21.000005 C 4.766603 21.000005 3.767579 19.848638 3.767579 18.427739 C 3.767579 16.180668 3.870118 14.686527 2.326172 12.908206 C 1.889649 12.40723 1.889649 11.592776 2.326172 11.0918 C 3.834962 9.351565 3.767579 7.839846 3.767579 5.569337 C 3.767579 4.151368 4.766603 3.000001 6.000001 3.000001 " transform="matrix(1.333333, 0, 0, 1.333333, 0, 0)"/>
</svg>
