<svg role="img" viewBox="0 0 32 32" xmlns="http://www.w3.org/2000/svg"><path d="m30.184 13.582-3.786-.617a10.7 10.7 0 0 0-.902-2.18l2.207-3.148a.64.64 0 0 0-.07-.82l-2.488-2.489a.64.64 0 0 0-.829-.066l-3.097 2.23a10.7 10.7 0 0 0-2.196-.914l-.66-3.77a.645.645 0 0 0-.633-.527h-3.52a.64.64 0 0 0-.628.535l-.613 3.747a10.6 10.6 0 0 0-2.2.906L7.677 4.258a.64.64 0 0 0-.824.07l-2.49 2.488a.635.635 0 0 0-.07.817l2.176 3.113a11 11 0 0 0-.922 2.215l-3.73.621a.64.64 0 0 0-.536.633v3.52a.64.64 0 0 0 .528.628l3.734.66c.223.77.531 1.512.918 2.215L4.258 24.32a.64.64 0 0 0 .07.825l2.488 2.492a.64.64 0 0 0 .82.07l3.118-2.184c.695.383 1.437.692 2.203.91l.625 3.755c.05.308.316.53.629.53h3.52a.64.64 0 0 0 .632-.527l.668-3.77q1.15-.335 2.196-.917l3.136 2.203a.64.64 0 0 0 .82-.07l2.489-2.492a.64.64 0 0 0 .066-.829L25.5 21.211c.383-.691.684-1.426.902-2.184l3.785-.664a.64.64 0 0 0 .532-.629v-3.52a.64.64 0 0 0-.535-.632M16 20.48A4.49 4.49 0 0 1 11.52 16 4.49 4.49 0 0 1 16 11.52 4.49 4.49 0 0 1 20.48 16 4.49 4.49 0 0 1 16 20.48" fill="rgb(0%, 0%, 0%)"/></svg>