<?xml version="1.0" encoding="UTF-8"?>
<svg xmlns="http://www.w3.org/2000/svg" xmlns:xlink="http://www.w3.org/1999/xlink" width="32" height="32" viewBox="0 0 32 32">
<path fill-rule="nonzero" fill="rgb(0%, 0%, 0%)" fill-opacity="1" d="M 14.667969 29.640625 L 14.667969 26.667969 L 7.488281 26.667969 C 6.875 26.667969 6.363281 26.460938 5.949219 26.050781 C 5.539062 25.640625 5.335938 25.128906 5.332031 24.511719 L 5.332031 7.488281 C 5.332031 6.875 5.539062 6.363281 5.949219 5.949219 C 6.363281 5.539062 6.875 5.335938 7.488281 5.332031 L 14.667969 5.332031 L 14.667969 2.359375 L 16 2.359375 L 16 29.640625 Z M 7.488281 25.332031 L 14.667969 25.332031 L 14.667969 21.332031 L 10 21.332031 L 10 20 L 14.667969 20 L 14.667969 16.667969 L 10 16.667969 L 10 15.332031 L 14.667969 15.332031 L 14.667969 12 L 10 12 L 10 10.667969 L 14.667969 10.667969 L 14.667969 6.667969 L 7.488281 6.667969 C 7.28125 6.667969 7.09375 6.753906 6.921875 6.921875 C 6.75 7.09375 6.664062 7.28125 6.667969 7.488281 L 6.667969 24.511719 C 6.667969 24.71875 6.753906 24.90625 6.921875 25.078125 C 7.09375 25.25 7.28125 25.335938 7.488281 25.332031 M 18.921875 6.667969 L 18.921875 5.332031 L 24.769531 5.332031 C 25.382812 5.332031 25.894531 5.539062 26.308594 5.949219 C 26.71875 6.363281 26.921875 6.875 26.921875 7.488281 L 26.921875 24.511719 C 26.921875 25.125 26.71875 25.640625 26.308594 26.050781 C 25.894531 26.460938 25.382812 26.667969 24.769531 26.667969 L 18.921875 26.667969 L 18.921875 25.332031 L 24.769531 25.332031 C 24.972656 25.332031 25.160156 25.246094 25.332031 25.078125 C 25.503906 24.90625 25.589844 24.71875 25.589844 24.511719 L 25.589844 7.488281 C 25.589844 7.28125 25.503906 7.09375 25.332031 6.921875 C 25.164062 6.75 24.976562 6.664062 24.769531 6.667969 Z M 18.921875 16.667969 L 18.921875 15.332031 L 23.589844 15.332031 L 23.589844 16.667969 Z M 18.921875 12 L 18.921875 10.667969 L 23.589844 10.667969 L 23.589844 12 Z M 14.667969 16 "/>
</svg>
