<svg role="img" viewBox="0 0 32.297 32" fill="rgb(19.607843%, 42.352942%, 89.803922%)" xmlns="http://www.w3.org/2000/svg"><path d="M1.637 17.953c.465 0 .898.14 1.258.39l1.964-8.609c-.14.028-.28.04-.43.04-.495 0-.984-.169-1.37-.481a2.1 2.1 0 0 1-.567-.68L.246 18.441a2.2 2.2 0 0 1 1.39-.488M17.37 3.47l8.293 3.992c.004-.043.004-.09.012-.133a2.2 2.2 0 0 1 1.668-1.894l-9.067-4.368a2.21 2.21 0 0 1-.906 2.403m11.867 5.824c-.386.312-.875.48-1.37.48q-.219.002-.43-.039l1.964 8.61c.356-.25.79-.39 1.258-.39.164 0 .328.015.488.054.34.074.645.23.899.437l-2.242-9.832a2.1 2.1 0 0 1-.567.68M6.621 7.328c.008.043.008.09.012.133l8.293-3.992a2.21 2.21 0 0 1-.906-2.403L4.953 5.434c.902.214 1.57.972 1.668 1.894m23.55 14.977a2.2 2.2 0 0 1-1.421-1.063l-5.531 6.934c.597.172 1.11.59 1.386 1.16.141.293.215.61.22.934l6.355-7.973a2.25 2.25 0 0 1-1.008.008m-21.093 5.87-5.531-6.933a2.2 2.2 0 0 1-2.434 1.055l6.36 7.973a2.2 2.2 0 0 1 .218-.934c.278-.57.79-.988 1.387-1.16m11.559 3.079a2.2 2.2 0 0 1-.043-1.813h-8.89a2.176 2.176 0 0 1-.64 2.558h10.16a2.2 2.2 0 0 1-.59-.746m10.386-12.692a1.6 1.6 0 0 0-.363-.042c-.422 0-.816.164-1.117.44q-.143.136-.25.302l-4.48-1.02a3.11 3.11 0 0 0-2.02-2.722 1.38 1.38 0 0 0-1.316-1.344 3.6 3.6 0 0 0-.125-.676l5.668-4.527c.257.148.55.23.847.234.356 0 .715-.117 1.02-.355.543-.434.75-1.165.52-1.82a1.633 1.633 0 0 0-2.563-.735c-.532.426-.746 1.137-.532 1.785l-5.44 4.344a3.9 3.9 0 0 0-4.153-1.684V3.168s.011-.004.015-.008a1.63 1.63 0 0 0 1.051-1.523c0-.36-.117-.692-.312-.957a1.634 1.634 0 1 0-1.91 2.48q.01.007.015.008v8.035a3.9 3.9 0 0 0-1.383 1.422 2.77 2.77 0 0 0-2.71-.148l-5.5-4.395a1.625 1.625 0 0 0-.532-1.785 1.62 1.62 0 0 0-1.2-.352 1.638 1.638 0 0 0-.843 2.907 1.63 1.63 0 0 0 1.594.25q.143-.054.273-.13l5.29 4.223c-.41.5-.637 1.125-.637 1.774q0 .214.035.418a3.11 3.11 0 0 0-2.48 2.855l-4.481 1.02q-.104-.166-.25-.297a1.62 1.62 0 0 0-1.48-.402A1.633 1.633 0 0 0 .011 20.34c.09.828.793 1.453 1.625 1.45.82 0 1.511-.606 1.62-1.419l4.368-.992a3.105 3.105 0 0 0 2.96 2.16h2.692l-3.445 7.129a1.635 1.635 0 0 0-1.625.918 1.63 1.63 0 0 0 .082 1.578 1.64 1.64 0 0 0 2.816-.07 1.63 1.63 0 0 0-.035-1.653 1.4 1.4 0 0 0-.215-.277l3.688-7.625h3.215l3.426 7.09.128.266.13.27a1.65 1.65 0 0 0-.294 1.843 1.65 1.65 0 0 0 1.477.922 1.64 1.64 0 0 0 1.543-1.094c.14-.41.117-.86-.074-1.25a1.635 1.635 0 0 0-1.625-.918l-.133-.27-.129-.265-3.184-6.594h2.692c1.351 0 2.55-.875 2.96-2.164l4.364.992c.02.133.05.262.102.383.191.488.609.875 1.16.996a1.634 1.634 0 1 0 .723-3.187ZM3.988 8.13a.717.717 0 0 1-.113-1 .713.713 0 0 1 1.266.363.713.713 0 0 1-1.152.637M1.793 20.848a.711.711 0 1 1-.316-1.387.712.712 0 0 1 .316 1.387m8.523 9.757a.73.73 0 0 1-.406.364.73.73 0 0 1-.543-.035.707.707 0 0 1-.32-.942.707.707 0 0 1 .937-.336.707.707 0 0 1 .332.95m5.121-28.968a.711.711 0 0 1 1.422 0 .712.712 0 0 1-1.422 0m11.985 5.379a.713.713 0 0 1 1 .113.717.717 0 0 1-.113 1 .71.71 0 0 1-1-.113.72.72 0 0 1-.153-.524.72.72 0 0 1 .266-.476m-4.16 22.968a.71.71 0 0 1-.332.95.71.71 0 1 1 .332-.95m8.093-9.672a.72.72 0 0 1-.48.543.71.71 0 0 1-.707-.164.7.7 0 0 1-.2-.695.713.713 0 0 1 1.387.317m0 0"/></svg>