<?xml version="1.0" encoding="UTF-8"?>
<svg id="Layer_2" data-name="Layer 2" xmlns="http://www.w3.org/2000/svg" viewBox="0 0 227.18 225.09">
  <defs>
    <style>
      .cls-1 {
        fill: #326ce5;
      }
    </style>
  </defs>
  <g id="Layer_1-2" data-name="Layer 1">
    <g>
      <path class="cls-1" d="M11.51,126.27c3.28,0,6.33,1,8.86,2.76l13.82-60.57c-.99,.2-2,.3-3.02,.3-3.5,0-6.93-1.2-9.66-3.38-1.67-1.33-3.02-2.96-3.99-4.78L1.74,129.72c1.82-1.48,3.97-2.53,6.33-3.06,1.13-.26,2.29-.39,3.44-.39Z"/>
      <path class="cls-1" d="M122.18,24.4l58.34,28.09c.02-.31,.04-.63,.08-.95,.46-4.12,2.5-7.81,5.73-10.39,1.77-1.41,3.83-2.41,6.01-2.94L128.56,7.49c.35,1.28,.53,2.62,.53,4.01,0,5.37-2.75,10.11-6.91,12.9Z"/>
      <path class="cls-1" d="M205.67,65.38c-2.73,2.18-6.17,3.38-9.66,3.38-1.02,0-2.04-.1-3.02-.3l13.82,60.57c2.52-1.76,5.57-2.76,8.85-2.76,1.16,0,2.32,.13,3.45,.39,2.39,.54,4.53,1.62,6.32,3.08l-15.77-69.14c-.97,1.82-2.32,3.45-3.99,4.78Z"/>
      <path class="cls-1" d="M46.58,51.54c.04,.32,.06,.63,.08,.95l58.34-28.09c-4.16-2.79-6.91-7.53-6.91-12.9,0-1.39,.18-2.73,.53-4.01l-63.79,30.72c2.19,.53,4.25,1.53,6.02,2.94,3.23,2.58,5.27,6.27,5.73,10.39Z"/>
      <path class="cls-1" d="M212.24,156.89c-4.41-1.01-7.95-3.81-10.02-7.46l-38.9,48.76c4.2,1.2,7.81,4.15,9.75,8.16,1.03,2.12,1.52,4.36,1.54,6.57l44.72-56.08c-1.17,.28-2.39,.43-3.64,.43-1.16,0-2.32-.13-3.45-.38Z"/>
      <path class="cls-1" d="M63.85,198.2l-38.89-48.77c-2.07,3.65-5.61,6.45-10.02,7.46-1.14,.25-2.29,.38-3.45,.38-1.25,0-2.48-.15-3.65-.43l44.71,56.07c.03-2.25,.55-4.48,1.56-6.56,1.94-4.01,5.54-6.96,9.74-8.15Z"/>
      <path class="cls-1" d="M145.16,219.85c-2.01-4.17-1.99-8.8-.31-12.76h-62.52c1.68,3.96,1.7,8.59-.31,12.76-1,2.06-2.44,3.85-4.17,5.24h71.47c-1.73-1.4-3.17-3.18-4.16-5.24Z"/>
      <path class="cls-1" d="M218.22,130.56c-.85-.2-1.71-.29-2.56-.29-2.96,0-5.75,1.15-7.85,3.11-.67,.62-1.27,1.33-1.77,2.1l-31.5-7.16h0c-.53-8.82-6.29-16.21-14.22-19.15-.12-5.11-4.17-9.23-9.24-9.46-.15-1.63-.45-3.22-.88-4.76h0s39.87-31.83,39.87-31.83c.61,.36,1.25,.67,1.9,.91,1.3,.49,2.67,.73,4.04,.73,2.51,0,5.05-.82,7.17-2.51,4.96-3.96,5.77-11.2,1.81-16.16-2.27-2.85-5.62-4.33-9-4.33-2.51,0-5.04,.83-7.16,2.52-3.17,2.53-4.65,6.39-4.27,10.15,.08,.82,.25,1.63,.52,2.43h0s-38.27,30.55-38.27,30.55h0c-4.89-7.56-13.38-12.56-23.05-12.56-2.12,0-4.19,.25-6.17,.71V22.28s.08-.03,.11-.04c4.32-1.65,7.39-5.84,7.39-10.74,0-2.52-.81-4.84-2.18-6.73-2.09-2.89-5.48-4.77-9.32-4.77s-7.23,1.87-9.31,4.76c-1.38,1.89-2.19,4.22-2.19,6.74,0,4.9,3.07,9.09,7.39,10.74,.03,.01,.07,.03,.11,.04v56.52c-4.04,2.44-7.4,5.89-9.73,10.01-3.03-1.93-6.62-3.06-10.47-3.06-3.09,0-6,.74-8.6,2.01h-.01s-38.68-30.9-38.68-30.9c.27-.8,.44-1.61,.52-2.43,.38-3.76-1.1-7.62-4.27-10.15-2.12-1.69-4.65-2.52-7.17-2.52-3.37,0-6.72,1.48-8.99,4.33-3.96,4.96-3.15,12.2,1.81,16.16,2.12,1.69,4.65,2.51,7.17,2.51,1.38,0,2.75-.25,4.04-.73,.66-.24,1.29-.55,1.9-.91l37.22,29.71h0c-2.81,3.39-4.49,7.73-4.49,12.47,0,1,.1,1.97,.24,2.93-9.55,1.94-16.83,10.11-17.43,20.09h0s-.01,0-.01,0l-31.5,7.16c-.5-.77-1.09-1.47-1.76-2.09-2.1-1.97-4.9-3.12-7.86-3.12-.84,0-1.7,.09-2.56,.29-6.19,1.4-10.07,7.56-8.66,13.76,1.21,5.33,5.95,8.95,11.2,8.95,.85,0,1.7-.09,2.56-.29,3.86-.87,6.82-3.59,8.16-7.01,.34-.86,.58-1.76,.7-2.69l30.71-6.98h0c2.81,8.82,11.07,15.21,20.83,15.21h18.94l-24.24,50.15c-.36-.04-.72-.06-1.08-.06-.48,0-.96,.03-1.43,.09-3.74,.47-7.17,2.76-8.93,6.41-2.77,5.71-.37,12.59,5.35,15.35,1.61,.78,3.31,1.15,4.99,1.15,4.28,0,8.38-2.39,10.36-6.49,1.77-3.66,1.43-7.79-.55-11.02-.42-.7-.93-1.36-1.51-1.95l25.93-53.63h22.62l24.1,49.86,.91,1.87,.91,1.89c-.58,.6-1.08,1.26-1.51,1.96-1.97,3.23-2.32,7.36-.55,11.02,1.99,4.1,6.09,6.49,10.37,6.49,1.67,0,3.38-.37,4.99-1.15,5.72-2.76,8.11-9.64,5.35-15.35-1.76-3.65-5.2-5.95-8.94-6.41-.47-.06-.94-.09-1.42-.09-.36,0-.72,.02-1.08,.06l-.93-1.91-.9-1.87-22.41-46.37h18.93c9.76,0,18.02-6.39,20.83-15.22h0s30.71,6.98,30.71,6.98c.12,.93,.36,1.84,.7,2.7,1.34,3.42,4.3,6.13,8.16,7,.85,.2,1.71,.29,2.56,.29,5.25,0,9.99-3.62,11.2-8.95,1.41-6.2-2.47-12.36-8.67-13.76ZM28.06,57.17c-2.16-1.72-2.51-4.87-.79-7.03,1.72-2.15,4.87-2.51,7.03-.78,2.15,1.72,2.51,4.87,.78,7.02-1.72,2.16-4.87,2.51-7.02,.79Zm-15.45,89.48c-2.69,.61-5.37-1.08-5.98-3.77-.61-2.69,1.07-5.37,3.76-5.99,2.7-.61,5.38,1.08,5.99,3.77,.61,2.7-1.08,5.37-3.77,5.99Zm59.95,68.63c-1.2,2.48-4.19,3.52-6.68,2.32-2.48-1.2-3.52-4.19-2.32-6.68,1.2-2.48,4.19-3.52,6.68-2.32,2.48,1.2,3.52,4.19,2.32,6.68ZM108.59,11.5c0-2.77,2.24-5,5-5s5,2.23,5,5-2.24,5-5,5-5-2.24-5-5Zm84.29,37.86c2.16-1.73,5.31-1.37,7.03,.78,1.72,2.16,1.37,5.31-.79,7.03-2.16,1.72-5.3,1.37-7.03-.79-1.72-2.15-1.37-5.3,.79-7.02Zm-29.26,161.56c1.2,2.49,.16,5.48-2.33,6.68-2.48,1.2-5.47,.16-6.67-2.32-1.21-2.49-.17-5.48,2.32-6.68,2.49-1.2,5.48-.16,6.68,2.32Zm56.93-68.04c-.61,2.69-3.29,4.38-5.98,3.77-2.7-.62-4.38-3.29-3.77-5.99,.61-2.69,3.29-4.38,5.98-3.77,2.7,.62,4.38,3.3,3.77,5.99Z"/>
    </g>
  </g>
</svg>