<svg role="img" viewBox="0 0 32.297 32" height="32" width="32.297" xmlns="http://www.w3.org/2000/svg"><path d="M1.637 17.953c.465 0 .898.14 1.258.39l1.964-8.609c-.14.028-.28.04-.43.04-.495 0-.984-.169-1.37-.481a2.07 2.07 0 0 1-.567-.68L.246 18.441c.262-.21.567-.359.902-.433.16-.04.325-.055.489-.055M17.37 3.47l8.293 3.992c.004-.043.004-.09.012-.133a2.202 2.202 0 0 1 1.668-1.894l-9.067-4.368a2.205 2.205 0 0 1-.906 2.403m11.867 5.824c-.39.312-.875.48-1.37.48a1.977 1.977 0 0 1-.43-.039l1.964 8.61c.356-.25.79-.39 1.258-.39.164 0 .328.015.488.054.34.074.645.23.899.437l-2.242-9.832c-.14.266-.332.496-.567.68M6.621 7.328c.008.043.008.09.012.133l8.293-3.992a2.208 2.208 0 0 1-.906-2.403L4.953 5.434c.902.214 1.57.972 1.668 1.894m23.55 14.977a2.207 2.207 0 0 1-1.421-1.063l-5.531 6.934c.597.172 1.11.59 1.386 1.16.145.3.215.621.22.934l6.355-7.973a2.251 2.251 0 0 1-1.008.008m-21.094 5.87-5.531-6.933a2.19 2.19 0 0 1-2.434 1.055l6.36 7.973a2.22 2.22 0 0 1 .218-.934c.278-.57.79-.988 1.387-1.16m11.559 3.078a2.206 2.206 0 0 1-.043-1.813h-8.89a2.21 2.21 0 0 1-.044 1.813c-.14.293-.348.547-.594.746h10.16a2.194 2.194 0 0 1-.59-.746m10.387-12.692a1.422 1.422 0 0 0-.363-.042c-.422 0-.816.164-1.117.44-.094.09-.18.192-.25.302l-4.48-1.02a3.109 3.109 0 0 0-2.02-2.722 1.384 1.384 0 0 0-1.316-1.344 3.613 3.613 0 0 0-.125-.676l5.668-4.527c.257.148.55.23.847.234.356 0 .715-.117 1.02-.355.543-.434.75-1.165.52-1.82a1.628 1.628 0 0 0-2.071-1.02 1.632 1.632 0 0 0-1.023 2.07c.039.113-5.442 4.344-5.442 4.344a3.897 3.897 0 0 0-4.152-1.684V3.168l.015-.008a1.632 1.632 0 0 0 1.051-1.523c0-.36-.117-.692-.312-.957a1.635 1.635 0 1 0-1.91 2.48c.007.004.011.008.015.008v8.035a3.923 3.923 0 0 0-1.383 1.422 2.755 2.755 0 0 0-1.488-.434 2.75 2.75 0 0 0-1.223.286l-5.5-4.395c.215-.648 0-1.36-.53-1.785a1.632 1.632 0 0 0-2.595.82c-.183.637.036 1.32.551 1.735.54.421 1.281.472 1.867.12l5.29 4.223a2.777 2.777 0 0 0-.602 2.192 3.116 3.116 0 0 0-2.48 2.855c-.087 1.418 0 0 0 0l-4.481 1.02a1.638 1.638 0 0 0-2.215-.504 1.64 1.64 0 0 0-.727 1.836A1.638 1.638 0 0 0 2 21.75a1.64 1.64 0 0 0 1.258-1.379l4.367-.992a3.105 3.105 0 0 0 2.96 2.16h2.692l-3.445 7.129c-.68-.063-1.328.3-1.625.918a1.623 1.623 0 0 0 .086 1.578c.297.477.82.766 1.383.766a1.623 1.623 0 0 0 1.43-.836 1.626 1.626 0 0 0-.036-1.653 1.351 1.351 0 0 0-.215-.277l3.688-7.625h3.215l3.426 7.09.128.266.13.27a1.65 1.65 0 0 0-.294 1.843c.286.582.868.922 1.477.922a1.644 1.644 0 0 0 1.543-1.094c.14-.41.117-.86-.074-1.25a1.629 1.629 0 0 0-1.625-.918l-.133-.27-.129-.265-3.184-6.594h2.692c1.351 0 2.55-.875 2.96-2.164.4-1.254 4.364.992 4.364.992.02.133.05.262.102.383.191.488.609.875 1.16.996a1.629 1.629 0 0 0 1.996-1.41 1.633 1.633 0 0 0-1.274-1.777ZM3.988 8.13a.717.717 0 0 1-.113-1 .717.717 0 0 1 1-.113.73.73 0 0 1 .266.476.718.718 0 0 1-.153.524.717.717 0 0 1-1 .113M1.793 20.848a.714.714 0 0 1-.762-1.075.732.732 0 0 1 .446-.312.725.725 0 0 1 .539.09c.156.101.27.262.312.445a.707.707 0 0 1-.09.54.732.732 0 0 1-.445.312m8.523 9.757a.711.711 0 1 1-1.278-.624.711.711 0 0 1 1.278.624m5.121-28.968c0-.395.317-.711.711-.711.395 0 .711.316.711.71a.711.711 0 1 1-1.422 0m11.985 5.38a.717.717 0 0 1 1 .113.717.717 0 0 1-.113 1 .717.717 0 0 1-1-.113.723.723 0 0 1-.153-.524.719.719 0 0 1 .266-.476m-4.16 22.968a.708.708 0 0 1-.344.922.71.71 0 0 1-.938-.3.71.71 0 0 1 .332-.95.711.711 0 0 1 .95.328m8.093-9.672a.71.71 0 1 1-1.388-.316.71.71 0 0 1 1.388.317"/></svg>