<svg role="img" viewBox="0 0 32.297 32" height="32" width="32.297" xmlns="http://www.w3.org/2000/svg"><path d="M1.637 17.953c.465 0 .898.14 1.258.39l1.964-8.609c-.14.028-.28.04-.43.04-.495 0-.984-.169-1.37-.481a2.07 2.07 0 0 1-.567-.68L.246 18.441a2.195 2.195 0 0 1 1.39-.488M17.372 3.47l8.293 3.992c.004-.043.004-.09.012-.133a2.207 2.207 0 0 1 1.668-1.894l-9.067-4.368a2.205 2.205 0 0 1-.906 2.403m11.867 5.824c-.386.312-.875.48-1.37.48-.145 0-.29-.011-.43-.039l1.964 8.61c.356-.25.79-.39 1.258-.39.164 0 .328.015.488.054.34.074.645.23.899.437l-2.242-9.832c-.14.266-.332.496-.567.68M6.621 7.328c.008.043.008.09.012.133l8.293-3.992a2.208 2.208 0 0 1-.906-2.403L4.953 5.434c.902.214 1.57.972 1.668 1.894m23.55 14.977a2.207 2.207 0 0 1-1.421-1.063l-5.531 6.934c.597.172 1.11.59 1.386 1.16.141.293.215.61.22.934l6.355-7.973a2.251 2.251 0 0 1-1.008.008m-21.094 5.87-5.531-6.933a2.202 2.202 0 0 1-2.434 1.055l6.36 7.973a2.22 2.22 0 0 1 .218-.934c.278-.57.79-.988 1.387-1.16m11.559 3.078a2.206 2.206 0 0 1-.043-1.813h-8.89A2.18 2.18 0 0 1 11.065 32h10.16a2.148 2.148 0 0 1-.59-.746M31.02 18.562a1.62 1.62 0 0 0-.364-.042 1.67 1.67 0 0 0-1.117.44c-.094.09-.176.192-.25.302l-4.477-1.02a3.119 3.119 0 0 0-2.023-2.722 1.377 1.377 0 0 0-1.312-1.344 4.032 4.032 0 0 0-.125-.676l5.668-4.527c.253.148.546.23.843.234.36 0 .715-.117 1.024-.355.543-.434.75-1.165.52-1.82A1.634 1.634 0 0 0 28.316 6a1.64 1.64 0 0 0-2.008 2.082l-5.438 4.344a3.897 3.897 0 0 0-4.152-1.684V3.168s.008-.004.011-.008c.473-.18.836-.57.98-1.058A1.62 1.62 0 0 0 17.474.68a1.635 1.635 0 0 0-1.797-.606c-.668.2-1.137.805-1.164 1.5-.028.7.398 1.336 1.05 1.586.004.004.008.004.012.008v8.035a3.923 3.923 0 0 0-1.383 1.422 2.766 2.766 0 0 0-2.707-.148l-5.5-4.395c.215-.648 0-1.36-.535-1.785a1.622 1.622 0 0 0-1.199-.352 1.635 1.635 0 1 0 1.023 3.027l5.293 4.223c-.41.5-.636 1.125-.636 1.774 0 .144.011.281.035.418a3.107 3.107 0 0 0-2.48 2.855l-4.481 1.02a1.627 1.627 0 0 0-1.73-.7A1.633 1.633 0 0 0 .011 20.34c.09.828.793 1.453 1.625 1.45.82 0 1.511-.606 1.62-1.419l4.368-.992a3.096 3.096 0 0 0 2.96 2.16h2.692l-3.445 7.129c-.68-.063-1.328.3-1.625.918a1.633 1.633 0 0 0 .082 1.578c.309.488.848.777 1.426.766a1.648 1.648 0 0 0 1.39-.836 1.643 1.643 0 0 0-.25-1.93l3.688-7.625h3.215l3.426 7.09.128.266.13.27a1.65 1.65 0 0 0-.294 1.843c.286.597.907.96 1.567.922a1.64 1.64 0 0 0 1.453-1.094c.14-.41.117-.86-.074-1.25a1.635 1.635 0 0 0-1.625-.918l-.133-.27-.129-.265-3.184-6.594h2.692c1.351 0 2.55-.875 2.96-2.164l4.364.992c.02.133.05.262.102.383.191.488.609.875 1.16.996a1.627 1.627 0 0 0 1.562-.48 1.633 1.633 0 0 0-.84-2.707ZM3.988 8.13a.717.717 0 0 1-.113-1 .718.718 0 0 1 .754-.238c.277.078.48.316.512.601a.71.71 0 0 1-1.153.637M1.793 20.848a.711.711 0 0 1-.316-1.387.712.712 0 0 1 .316 1.387m8.523 9.757a.74.74 0 0 1-.406.364.704.704 0 0 1-.863-.977.7.7 0 0 1 .672-.402.708.708 0 0 1 .597 1.015m5.121-28.968a.711.711 0 0 1 1.422 0 .712.712 0 0 1-1.422 0m11.985 5.379a.717.717 0 0 1 1 .113.717.717 0 0 1-.637 1.156.724.724 0 0 1-.629-.793.703.703 0 0 1 .266-.476m-4.16 22.968a.715.715 0 0 1-.035.723.706.706 0 0 1-.653.316.71.71 0 1 1 .688-1.04m8.093-9.67a.722.722 0 0 1-.48.542.712.712 0 0 1-.707-.164.692.692 0 0 1-.2-.695.706.706 0 0 1 .84-.488.713.713 0 0 1 .547.805m0 0" fill="rgb(19.607843%, 42.352941%, 89.803922%)"/></svg>