<?xml version="1.0" encoding="UTF-8"?>
<svg xmlns="http://www.w3.org/2000/svg" xmlns:xlink="http://www.w3.org/1999/xlink" width="32" height="32" viewBox="0 0 32 32">
<path fill-rule="nonzero" fill="rgb(14.117647%, 50.980392%, 99.215686%)" fill-opacity="1" d="M 28.359375 9.34375 C 28.632812 8.902344 28.9375 8.382812 29.199219 7.972656 C 29.433594 7.578125 29.308594 7.074219 28.917969 6.832031 L 23.460938 3.476562 C 23.074219 3.21875 22.550781 3.320312 22.292969 3.703125 C 22.28125 3.71875 22.273438 3.734375 22.261719 3.753906 C 22.042969 4.117188 21.761719 4.59375 21.457031 5.101562 C 19.292969 8.664062 17.117188 8.230469 13.195312 6.359375 L 7.800781 3.800781 C 7.382812 3.601562 6.878906 3.777344 6.679688 4.195312 C 6.675781 4.203125 6.675781 4.210938 6.671875 4.21875 L 4.070312 10.09375 C 3.886719 10.511719 4.074219 11 4.492188 11.191406 C 5.632812 11.726562 7.90625 12.796875 9.949219 13.785156 C 17.324219 17.347656 23.578125 17.109375 28.359375 9.34375 Z M 28.359375 9.34375 "/>
<path fill-rule="nonzero" fill="rgb(11.372549%, 47.058824%, 94.901961%)" fill-opacity="1" d="M 13.195312 6.359375 L 7.800781 3.800781 C 7.382812 3.601562 6.878906 3.777344 6.679688 4.195312 C 6.675781 4.203125 6.675781 4.210938 6.671875 4.21875 L 4.070312 10.09375 C 3.886719 10.511719 4.074219 11 4.492188 11.191406 C 5.632812 11.726562 7.90625 12.796875 9.949219 13.785156 C 10.027344 13.820312 10.105469 13.855469 10.179688 13.894531 L 13.472656 6.488281 C 13.378906 6.441406 13.289062 6.402344 13.195312 6.359375 Z M 13.195312 6.359375 "/>
<path fill-rule="nonzero" fill="rgb(7.058824%, 41.568627%, 89.803922%)" fill-opacity="1" d="M 12.265625 5.917969 L 7.800781 3.800781 C 7.378906 3.601562 6.878906 3.777344 6.679688 4.195312 C 6.675781 4.203125 6.671875 4.210938 6.671875 4.21875 L 4.070312 10.089844 C 3.886719 10.511719 4.074219 11 4.492188 11.191406 C 5.453125 11.644531 7.21875 12.476562 8.976562 13.316406 Z M 12.265625 5.917969 "/>
<path fill-rule="nonzero" fill="rgb(4.313725%, 37.647059%, 85.490196%)" fill-opacity="1" d="M 11.0625 5.347656 L 7.800781 3.800781 C 7.382812 3.601562 6.878906 3.777344 6.679688 4.195312 C 6.675781 4.203125 6.675781 4.210938 6.671875 4.21875 L 4.070312 10.089844 C 3.886719 10.511719 4.074219 11 4.492188 11.191406 C 5.234375 11.539062 6.453125 12.113281 7.773438 12.742188 Z M 11.0625 5.347656 "/>
<path fill-rule="nonzero" fill="rgb(0.392157%, 32.941176%, 80.784314%)" fill-opacity="1" d="M 9.855469 4.773438 L 8.648438 4.203125 L 7.800781 3.800781 C 7.378906 3.601562 6.878906 3.777344 6.679688 4.195312 C 6.675781 4.203125 6.671875 4.210938 6.671875 4.21875 L 4.070312 10.09375 C 3.886719 10.511719 4.074219 11 4.492188 11.191406 C 4.695312 11.289062 4.949219 11.40625 5.222656 11.535156 C 5.621094 11.722656 6.074219 11.9375 6.566406 12.171875 Z M 9.855469 4.773438 "/>
<path fill-rule="nonzero" fill="rgb(14.117647%, 50.980392%, 99.215686%)" fill-opacity="1" d="M 3.640625 22.652344 C 3.367188 23.097656 3.0625 23.613281 2.800781 24.023438 C 2.566406 24.417969 2.691406 24.925781 3.082031 25.167969 L 8.539062 28.523438 C 8.925781 28.78125 9.449219 28.679688 9.707031 28.296875 C 9.71875 28.28125 9.726562 28.261719 9.738281 28.246094 C 9.957031 27.878906 10.238281 27.40625 10.542969 26.898438 C 12.707031 23.332031 14.882812 23.769531 18.804688 25.640625 L 24.199219 28.199219 C 24.617188 28.398438 25.121094 28.21875 25.320312 27.800781 C 25.324219 27.792969 25.324219 27.789062 25.328125 27.78125 L 27.929688 21.90625 C 28.113281 21.488281 27.925781 20.996094 27.507812 20.808594 C 26.367188 20.269531 24.09375 19.199219 22.050781 18.214844 C 14.675781 14.648438 8.421875 14.886719 3.640625 22.652344 Z M 3.640625 22.652344 "/>
<path fill-rule="nonzero" fill="rgb(11.372549%, 47.058824%, 94.901961%)" fill-opacity="1" d="M 18.804688 25.640625 L 24.199219 28.199219 C 24.617188 28.398438 25.121094 28.21875 25.320312 27.800781 C 25.324219 27.792969 25.324219 27.789062 25.328125 27.78125 L 27.929688 21.90625 C 28.113281 21.488281 27.925781 20.996094 27.507812 20.808594 C 26.367188 20.269531 24.09375 19.199219 22.050781 18.214844 C 21.972656 18.175781 21.894531 18.144531 21.820312 18.105469 L 18.527344 25.511719 C 18.621094 25.554688 18.710938 25.59375 18.804688 25.640625 Z M 18.804688 25.640625 "/>
<path fill-rule="nonzero" fill="rgb(7.058824%, 41.568627%, 89.803922%)" fill-opacity="1" d="M 19.734375 26.082031 L 24.199219 28.199219 C 24.621094 28.398438 25.121094 28.21875 25.320312 27.800781 C 25.324219 27.796875 25.328125 27.789062 25.328125 27.78125 L 27.929688 21.90625 C 28.113281 21.488281 27.925781 21 27.507812 20.808594 C 26.546875 20.355469 24.78125 19.523438 23.023438 18.683594 Z M 19.734375 26.082031 "/>
<path fill-rule="nonzero" fill="rgb(4.313725%, 37.647059%, 85.490196%)" fill-opacity="1" d="M 20.9375 26.652344 L 24.199219 28.199219 C 24.617188 28.398438 25.121094 28.21875 25.320312 27.800781 C 25.324219 27.796875 25.324219 27.789062 25.328125 27.78125 L 27.929688 21.90625 C 28.113281 21.488281 27.925781 21 27.507812 20.808594 C 26.765625 20.460938 25.546875 19.886719 24.226562 19.257812 Z M 20.9375 26.652344 "/>
<path fill-rule="nonzero" fill="rgb(0.392157%, 32.941176%, 80.784314%)" fill-opacity="1" d="M 22.144531 27.222656 L 23.351562 27.796875 L 24.199219 28.199219 C 24.621094 28.398438 25.121094 28.21875 25.320312 27.800781 C 25.324219 27.792969 25.328125 27.789062 25.328125 27.78125 L 27.929688 21.90625 C 28.113281 21.488281 27.925781 20.996094 27.507812 20.808594 C 27.304688 20.710938 27.050781 20.589844 26.777344 20.464844 C 26.378906 20.273438 25.925781 20.0625 25.433594 19.828125 Z M 22.144531 27.222656 "/>
</svg>
