<svg role="img" viewBox="0 0 32 32" height="32" width="32" xmlns="http://www.w3.org/2000/svg"><path d="M27.602 1.836 22.8 6.633l-1.422-1.418a2.803 2.803 0 0 0-3.957 0l-4.024 4.02-.214-.22a1.683 1.683 0 0 0-2.368 0 1.661 1.661 0 0 0-.464 1.407c-.075-.008-.149-.02-.227-.02-.43 0-.855.164-1.18.489a1.676 1.676 0 0 0 0 2.367l.215.215-4.02 4.02a2.808 2.808 0 0 0 0 3.96l1.423 1.422-4.801 4.797 2.566 2.566 4.797-4.8 1.422 1.421a2.815 2.815 0 0 0 3.96 0l4.02-4.023.215.219a1.684 1.684 0 0 0 2.367 0c.383-.383.532-.907.465-1.407a1.698 1.698 0 0 0 1.41-.464 1.683 1.683 0 0 0 0-2.368l-.218-.214 4.02-4.024a2.803 2.803 0 0 0 0-3.957L25.366 9.2l4.797-4.8Zm0 1.129 1.433 1.433-4.8 4.801 1.984 1.989c.379.374.59.882.59 1.414a1.98 1.98 0 0 1-.59 1.414l-4.032 4.03a.397.397 0 0 0-.468.071.397.397 0 0 0-.07.469l-.016.016.785.78a.876.876 0 0 1 .258.618c0 .23-.094.453-.258.617a.876.876 0 0 1-.617.258.876.876 0 0 1-.617-.258l-9.801-9.8a.876.876 0 0 1-.258-.618c0-.23.094-.453.258-.617A.876.876 0 0 1 12 9.324c.23 0 .453.094.617.258l.695.7.086.085.016-.015a.397.397 0 0 0 .469-.07.397.397 0 0 0 .07-.47l4.031-4.03c.375-.376.883-.59 1.414-.59a2 2 0 0 1 1.415.59L22.8 7.765Zm-4 5.035a.4.4 0 1 0 .398.402c0-.105-.04-.21-.113-.285A.409.409 0 0 0 23.602 8M14.8 10.8a.368.368 0 0 0-.285.114.392.392 0 0 0-.118.285c-.003.11.04.211.114.285a.402.402 0 0 0 .285.118.4.4 0 0 0 .383-.399.403.403 0 0 0-.38-.402m-4.675.398c.223 0 .445.082.617.258l9.801 9.8a.86.86 0 0 1 0 1.231.863.863 0 0 1-.617.262.85.85 0 0 1-.617-.262l-.692-.687-.004-.008-.086-.086-.011.012a.403.403 0 0 0-.59.355c0 .067.02.13.05.184l-4.035 4.035c-.375.379-.882.59-1.414.59a1.98 1.98 0 0 1-1.414-.59l-1.988-1.988-4.797 4.8-1.433-1.433 4.8-4.797-1.988-1.988a1.948 1.948 0 0 1-.59-1.414c0-.532.211-1.04.59-1.414l4.031-4.036a.448.448 0 0 0 .188.051.403.403 0 0 0 .355-.59l.012-.011-.086-.086c-.004-.004-.008-.004-.008-.004l-.691-.695a.852.852 0 0 1-.266-.614c0-.234.098-.457.266-.617a.862.862 0 0 1 .617-.258M16 12a.4.4 0 0 0 0 .8.403.403 0 0 0 .383-.402A.405.405 0 0 0 16 12m1.2 1.2a.418.418 0 0 0-.364.195.406.406 0 0 0 .367.605.416.416 0 0 0 .285-.117.405.405 0 0 0 .114-.285.416.416 0 0 0-.118-.286.412.412 0 0 0-.285-.113m1.2 1.2a.416.416 0 0 0-.286.117.404.404 0 0 0 .004.566.397.397 0 0 0 .504.05.401.401 0 0 0-.223-.734m-7.273.075a.416.416 0 0 0-.285.117.412.412 0 0 0-.113.285c0 .223.18.398.402.398.223 0 .398-.18.398-.402a.409.409 0 0 0-.117-.285.412.412 0 0 0-.285-.113m8.477 1.129a.408.408 0 0 0-.286.113.403.403 0 0 0 .387.676A.398.398 0 0 0 20 16a.405.405 0 0 0-.398-.398m-7.274.07a.396.396 0 0 0-.371.187.394.394 0 0 0-.004.418.406.406 0 0 0 .371.196.401.401 0 0 0 .004-.8m8.473 1.128a.412.412 0 0 0-.285.113.41.41 0 0 0-.004.57c.074.075.18.118.285.118a.398.398 0 0 0 .371-.399c0-.21-.16-.383-.367-.402m-7.274.074c-.105 0-.21.04-.285.113a.401.401 0 0 0-.058.48.393.393 0 0 0 .379.192.389.389 0 0 0 .335-.258.388.388 0 0 0-.09-.414.366.366 0 0 0-.28-.113m1.199 1.2a.401.401 0 0 0 0 .8c.222 0 .398-.18.398-.402a.434.434 0 0 0-.117-.285.38.38 0 0 0-.281-.114m1.199 1.196a.4.4 0 0 0-.399.402.4.4 0 0 0 .797-.004.405.405 0 0 0-.398-.398m1.199 1.203c-.11 0-.21.043-.285.117a.412.412 0 0 0-.113.285.402.402 0 0 0 .324.398.399.399 0 0 0 .445-.25.391.391 0 0 0-.09-.433.384.384 0 0 0-.281-.117M8.328 23.27a.409.409 0 0 0-.285.117.409.409 0 0 0-.117.285.401.401 0 0 0 .8.004.403.403 0 0 0-.398-.406m0 0"/></svg>