<?xml version="1.0" encoding="UTF-8"?>
<svg xmlns="http://www.w3.org/2000/svg" xmlns:xlink="http://www.w3.org/1999/xlink" width="32" height="32" viewBox="0 0 32 32">
<path fill-rule="nonzero" fill="rgb(0%, 0%, 0%)" fill-opacity="1" d="M 27.601562 1.835938 L 22.800781 6.632812 L 21.378906 5.214844 C 20.285156 4.125 18.515625 4.125 17.421875 5.214844 L 13.398438 9.234375 L 13.183594 9.015625 C 12.527344 8.367188 11.46875 8.367188 10.816406 9.015625 C 10.449219 9.386719 10.277344 9.90625 10.351562 10.421875 C 10.277344 10.414062 10.203125 10.402344 10.125 10.402344 C 9.695312 10.402344 9.269531 10.566406 8.945312 10.890625 C 8.292969 11.542969 8.292969 12.605469 8.945312 13.257812 L 9.160156 13.472656 L 5.140625 17.492188 C 4.050781 18.589844 4.050781 20.359375 5.140625 21.453125 L 6.5625 22.875 L 1.761719 27.671875 L 4.328125 30.238281 L 9.125 25.4375 L 10.546875 26.859375 C 11.640625 27.949219 13.410156 27.949219 14.507812 26.859375 L 18.527344 22.835938 L 18.742188 23.054688 C 19.398438 23.703125 20.453125 23.703125 21.109375 23.054688 C 21.492188 22.671875 21.640625 22.148438 21.574219 21.648438 C 22.089844 21.71875 22.609375 21.546875 22.984375 21.183594 C 23.632812 20.527344 23.632812 19.472656 22.984375 18.816406 L 22.765625 18.601562 L 26.785156 14.578125 C 27.875 13.484375 27.875 11.714844 26.785156 10.621094 L 25.367188 9.199219 L 30.164062 4.398438 Z M 27.601562 2.964844 L 29.035156 4.398438 L 24.234375 9.199219 L 26.21875 11.1875 C 26.597656 11.5625 26.808594 12.070312 26.808594 12.601562 C 26.808594 13.132812 26.597656 13.644531 26.21875 14.015625 L 22.1875 18.046875 C 22.03125 17.964844 21.84375 17.992188 21.71875 18.117188 C 21.59375 18.242188 21.566406 18.429688 21.648438 18.585938 L 21.632812 18.601562 L 22.417969 19.382812 C 22.582031 19.546875 22.675781 19.765625 22.675781 20 C 22.675781 20.230469 22.582031 20.453125 22.417969 20.617188 C 22.253906 20.78125 22.03125 20.875 21.800781 20.875 C 21.570312 20.875 21.347656 20.78125 21.183594 20.617188 L 11.382812 10.816406 C 11.21875 10.652344 11.125 10.429688 11.125 10.199219 C 11.125 9.96875 11.21875 9.746094 11.382812 9.582031 C 11.546875 9.417969 11.769531 9.324219 12 9.324219 C 12.230469 9.324219 12.453125 9.417969 12.617188 9.582031 L 13.3125 10.28125 L 13.398438 10.367188 L 13.414062 10.351562 C 13.570312 10.433594 13.757812 10.40625 13.882812 10.28125 C 14.007812 10.160156 14.035156 9.964844 13.953125 9.8125 L 17.984375 5.78125 C 18.359375 5.40625 18.867188 5.191406 19.398438 5.191406 C 19.929688 5.191406 20.4375 5.40625 20.8125 5.78125 L 22.800781 7.765625 Z M 23.601562 8 C 23.496094 8 23.394531 8.042969 23.316406 8.117188 C 23.242188 8.191406 23.199219 8.292969 23.199219 8.398438 C 23.199219 8.503906 23.242188 8.609375 23.316406 8.683594 C 23.390625 8.757812 23.492188 8.800781 23.597656 8.800781 C 23.707031 8.800781 23.808594 8.761719 23.882812 8.6875 C 23.957031 8.609375 24 8.507812 24 8.402344 C 24.003906 8.179688 23.824219 8 23.601562 8 M 14.800781 10.800781 C 14.691406 10.796875 14.589844 10.839844 14.515625 10.914062 C 14.4375 10.992188 14.398438 11.09375 14.398438 11.199219 C 14.394531 11.308594 14.4375 11.410156 14.511719 11.484375 C 14.585938 11.5625 14.6875 11.601562 14.796875 11.601562 C 15.007812 11.589844 15.171875 11.414062 15.171875 11.203125 C 15.171875 10.992188 15.011719 10.816406 14.800781 10.800781 M 10.125 11.199219 C 10.347656 11.199219 10.570312 11.28125 10.742188 11.457031 L 20.542969 21.257812 C 20.707031 21.417969 20.800781 21.640625 20.800781 21.871094 C 20.800781 22.105469 20.707031 22.324219 20.542969 22.488281 C 20.378906 22.65625 20.15625 22.75 19.925781 22.75 C 19.691406 22.75 19.46875 22.65625 19.308594 22.488281 L 18.617188 21.800781 L 18.613281 21.792969 L 18.527344 21.707031 L 18.515625 21.71875 C 18.390625 21.652344 18.242188 21.65625 18.121094 21.730469 C 18 21.804688 17.925781 21.933594 17.925781 22.074219 C 17.925781 22.140625 17.945312 22.203125 17.976562 22.257812 L 13.941406 26.292969 C 13.566406 26.671875 13.058594 26.882812 12.527344 26.882812 C 11.996094 26.882812 11.484375 26.671875 11.113281 26.292969 L 9.125 24.304688 L 4.328125 29.105469 L 2.894531 27.671875 L 7.695312 22.875 L 5.707031 20.886719 C 5.328125 20.515625 5.113281 20.003906 5.117188 19.472656 C 5.117188 18.941406 5.328125 18.433594 5.707031 18.058594 L 9.738281 14.023438 C 9.796875 14.054688 9.859375 14.070312 9.925781 14.074219 C 10.066406 14.074219 10.195312 14 10.269531 13.878906 C 10.339844 13.757812 10.34375 13.609375 10.28125 13.484375 L 10.292969 13.472656 L 10.207031 13.386719 C 10.203125 13.382812 10.203125 13.382812 10.199219 13.382812 L 9.507812 12.6875 C 9.339844 12.527344 9.246094 12.304688 9.246094 12.070312 C 9.246094 11.839844 9.339844 11.617188 9.507812 11.457031 C 9.667969 11.292969 9.890625 11.199219 10.125 11.199219 M 16 12 C 15.78125 12 15.601562 12.179688 15.601562 12.398438 C 15.601562 12.621094 15.777344 12.800781 16 12.800781 C 16.214844 12.789062 16.382812 12.613281 16.382812 12.398438 C 16.378906 12.1875 16.214844 12.011719 16 12 M 17.199219 13.199219 C 17.054688 13.195312 16.914062 13.269531 16.835938 13.394531 C 16.761719 13.523438 16.765625 13.679688 16.839844 13.804688 C 16.917969 13.933594 17.054688 14.007812 17.203125 14 C 17.308594 14 17.410156 13.957031 17.488281 13.882812 C 17.5625 13.808594 17.601562 13.703125 17.601562 13.597656 C 17.601562 13.492188 17.558594 13.390625 17.484375 13.3125 C 17.410156 13.238281 17.304688 13.199219 17.199219 13.199219 M 18.398438 14.398438 C 18.292969 14.398438 18.191406 14.441406 18.113281 14.515625 C 18.039062 14.589844 18 14.695312 18 14.800781 C 18 14.90625 18.042969 15.007812 18.117188 15.082031 C 18.273438 15.238281 18.527344 15.234375 18.683594 15.078125 C 18.796875 14.964844 18.832031 14.792969 18.769531 14.644531 C 18.707031 14.492188 18.558594 14.398438 18.398438 14.398438 M 11.125 14.472656 C 11.019531 14.472656 10.917969 14.515625 10.839844 14.589844 C 10.765625 14.664062 10.726562 14.769531 10.726562 14.875 C 10.726562 15.097656 10.90625 15.273438 11.128906 15.273438 C 11.351562 15.273438 11.527344 15.09375 11.527344 14.871094 C 11.527344 14.765625 11.484375 14.660156 11.410156 14.585938 C 11.332031 14.511719 11.230469 14.472656 11.125 14.472656 M 19.601562 15.601562 C 19.496094 15.601562 19.394531 15.640625 19.316406 15.714844 C 19.242188 15.789062 19.199219 15.894531 19.199219 16 C 19.199219 16.21875 19.378906 16.398438 19.601562 16.398438 C 19.820312 16.398438 20 16.21875 20 16 C 19.996094 15.78125 19.820312 15.605469 19.601562 15.601562 M 12.328125 15.671875 C 12.179688 15.660156 12.035156 15.730469 11.957031 15.859375 C 11.875 15.988281 11.875 16.148438 11.953125 16.277344 C 12.03125 16.40625 12.175781 16.480469 12.324219 16.472656 C 12.535156 16.457031 12.695312 16.285156 12.699219 16.074219 C 12.699219 15.863281 12.539062 15.6875 12.328125 15.671875 M 20.800781 16.800781 C 20.695312 16.796875 20.589844 16.839844 20.515625 16.914062 C 20.441406 16.988281 20.398438 17.09375 20.398438 17.199219 C 20.394531 17.304688 20.4375 17.40625 20.511719 17.484375 C 20.585938 17.558594 20.691406 17.601562 20.796875 17.601562 C 21.003906 17.585938 21.167969 17.414062 21.167969 17.203125 C 21.167969 16.992188 21.007812 16.820312 20.800781 16.800781 M 13.527344 16.875 C 13.421875 16.875 13.316406 16.914062 13.242188 16.988281 C 13.167969 17.066406 13.128906 17.167969 13.128906 17.273438 C 13.132812 17.488281 13.308594 17.664062 13.527344 17.664062 C 13.742188 17.664062 13.921875 17.488281 13.925781 17.273438 C 13.925781 17.164062 13.882812 17.0625 13.808594 16.988281 C 13.734375 16.910156 13.632812 16.871094 13.527344 16.875 M 14.726562 18.074219 C 14.515625 18.089844 14.351562 18.265625 14.355469 18.472656 C 14.355469 18.683594 14.515625 18.859375 14.726562 18.875 C 14.949219 18.875 15.125 18.695312 15.125 18.472656 C 15.121094 18.367188 15.082031 18.265625 15.007812 18.1875 C 14.933594 18.113281 14.832031 18.070312 14.726562 18.074219 M 15.925781 19.269531 C 15.703125 19.269531 15.527344 19.449219 15.527344 19.671875 C 15.542969 19.882812 15.71875 20.042969 15.929688 20.042969 C 16.136719 20.039062 16.3125 19.878906 16.324219 19.667969 C 16.320312 19.449219 16.144531 19.273438 15.925781 19.269531 M 17.125 20.472656 C 17.015625 20.472656 16.914062 20.515625 16.839844 20.589844 C 16.765625 20.664062 16.722656 20.769531 16.726562 20.875 C 16.726562 21.09375 16.90625 21.273438 17.128906 21.273438 C 17.289062 21.269531 17.433594 21.171875 17.496094 21.023438 C 17.558594 20.875 17.523438 20.703125 17.40625 20.589844 C 17.332031 20.511719 17.230469 20.472656 17.125 20.472656 M 8.328125 23.269531 C 8.105469 23.269531 7.925781 23.449219 7.925781 23.671875 C 7.921875 23.890625 8.101562 24.074219 8.324219 24.074219 C 8.542969 24.070312 8.71875 23.890625 8.71875 23.675781 C 8.71875 23.457031 8.546875 23.277344 8.328125 23.269531 M 8.328125 23.269531 "/>
</svg>
