<svg role="img" viewBox="0 0 33.524 32" height="32" width="33.524" xmlns="http://www.w3.org/2000/svg"><path d="M16.05 19.184a3.365 3.365 0 0 1-3.37-3.352 3.365 3.365 0 0 1 3.351-3.371 3.363 3.363 0 0 1 3.383 3.34 3.353 3.353 0 0 1-.98 2.387 3.348 3.348 0 0 1-2.383.992" fill="rgb(58.823529%, 11.372549%, 34.901961%)"/><path d="M22.602 17.355a1.551 1.551 0 1 1 1.097-.453 1.52 1.52 0 0 1-1.097.453m5.68 1.465a1.49 1.49 0 0 1-1.833.985 1.488 1.488 0 0 1 .766-2.875c.785.191 1.27.976 1.098 1.765 0 .043 0 .078-.032.121m-1.097-3.992a1.549 1.549 0 0 1-1.625-.586 1.582 1.582 0 0 1-.075-1.73c.328-.54.95-.828 1.575-.727a1.537 1.537 0 0 1 1.27 1.18c.038.2.038.406 0 .605a1.487 1.487 0 0 1-1.169 1.262m5.555 3.824c-.07.407-.3.766-.637 1.004-.34.235-.758.328-1.164.254a1.55 1.55 0 1 1 .54-3.055c.8.125 1.37.844 1.308 1.653a.41.41 0 0 0-.032.137m-1.28-3.887a1.549 1.549 0 0 1-1.782-1.274c-.14-.843.43-1.64 1.273-1.777a1.547 1.547 0 0 1 1.782 1.27c.015.132.015.27 0 .402a1.539 1.539 0 0 1-1.274 1.379m-1.082 9.262a1.57 1.57 0 0 1-1.984.675 1.575 1.575 0 0 1-.887-1.902 1.576 1.576 0 0 1 1.805-1.086 1.572 1.572 0 0 1 1.262 1.684 1.351 1.351 0 0 1-.196.636m-.558-14.25a1.558 1.558 0 0 1-1.528-2.71c.75-.419 1.7-.153 2.121.593.16.27.227.586.192.899a1.55 1.55 0 0 1-.782 1.207M16.114 31.434A15.625 15.625 0 0 1 2.387 23.71a15.576 15.576 0 0 1 0-15.734A15.605 15.605 0 0 1 16.113.257a15.455 15.455 0 0 1 9.473 3.22L23.68 5.96a12.475 12.475 0 0 0-13.094-1.277 12.443 12.443 0 0 0-6.95 11.164c0 4.734 2.696 9.062 6.946 11.164a12.489 12.489 0 0 0 13.098-1.266l1.902 2.488a15.48 15.48 0 0 1-9.477 3.2Zm0 0" fill="rgb(83.921569%, 15.294118%, 51.372549%)"/></svg>