<svg role="img" viewBox="0 0 32 32" height="32" width="32" xmlns="http://www.w3.org/2000/svg"><path d="M1.82 1.922C.816 1.922 0 2.734 0 3.738v2.66h32v-2.66a1.821 1.821 0 0 0-1.82-1.816ZM0 7.68v21.76c0 .356.29.637.64.637h30.72c.355 0 .64-.281.64-.637V7.68Zm9.66 5.101a.567.567 0 0 1 .442.18l4.238 4.36L10 21.558a.624.624 0 0 1-.441.18.673.673 0 0 1-.457-.2.65.65 0 0 1-.188-.45c0-.167.07-.331.188-.448l3.437-3.34-3.34-3.442a.637.637 0 0 1-.136-.699.627.627 0 0 1 .597-.379m5.059 7.7h8.32c.172 0 .332.066.453.183.25.25.25.656 0 .91a.622.622 0 0 1-.453.184h-8.32a.641.641 0 0 1 0-1.278m0 0"/></svg>