<svg role="img" viewBox="0 0 32 32" xmlns="http://www.w3.org/2000/svg"><path d="M17.5 3.5c.273 0 .5.227.5.5v7.5h3.5c.273 0 .5.227.5.5v3.5h.047c.027 0 1.047.016 1.836-.586-.492-.875-1.313-3.113.734-6.191a.5.5 0 0 1 .317-.215.52.52 0 0 1 .378.078c.118.078 2.52 1.719 2.415 4.008 1.043-.32 2.558-.297 4.097 1.027a.5.5 0 0 1 .145.547c-.008.027-.992 2.645-4.125 2.875A1.5 1.5 0 0 0 27.5 17h-1.71c.17-.398.257-.64.26-.656a.5.5 0 0 1 .544-.34c2.73.363 3.906-1.168 4.285-1.86-1.942-1.433-3.48-.3-3.55-.246a.52.52 0 0 1-.61 0 .51.51 0 0 1-.16-.585c.628-1.575-.688-2.97-1.395-3.579-1.762 3.047-.258 4.926-.242 4.946a.495.495 0 0 1-.02.656c-1.113 1.203-2.793 1.164-2.87 1.164H1.085c-.137 1.023-.313 3.855 1.418 6.215 1.566 2.137 4.3 3.39 8.125 3.723q.762.06 1.476.062c3.786 0 6.645-1.312 8.766-2.992l-1.433 1.433c-.258.254-.41.594-.434.957-1.887.965-4.164 1.602-6.887 1.602q-.79 0-1.574-.07c-4.129-.352-7.105-1.746-8.855-4.133C-.72 20 .133 16.055.172 15.89a.51.51 0 0 1 .488-.39H1V12c0-.273.227-.5.5-.5H5V8c0-.273.227-.5.5-.5H13V4c0-.273.227-.5.5-.5Zm-3.5 4h3v-3h-3Zm-8 4h3V10c0-.273.227-.5.5-.5s.5.227.5.5v1.5h3v-3H6Zm8 0h1.5c.273 0 .5.227.5.5s-.227.5-.5.5H14v3h3v-7h-3Zm-12 4h3v-3H2Zm4 0h3v-3H6Zm4 0h3v-3h-3Zm8 0h3v-3h-3ZM7.5 20.25c0 .688-.562 1.25-1.25 1.25S5 20.938 5 20.25 5.563 19 6.25 19s1.25.563 1.25 1.25m14.008-.875.765.64a.51.51 0 0 1 .055.712.504.504 0 0 1-.703.054l-.766-.648a.5.5 0 0 1-.175-.34.5.5 0 0 1 .12-.363.47.47 0 0 1 .337-.172.47.47 0 0 1 .367.117m-1.664 1.762.625.777a.505.505 0 0 1-.07.703.505.505 0 0 1-.704-.074l-.629-.777a.503.503 0 0 1 .441-.812c.134.015.25.081.337.183m-1.965 1.406.453.89a.505.505 0 0 1-.219.676.6.6 0 0 1-.226.051.5.5 0 0 1-.446-.273l-.457-.89a.51.51 0 0 1 .22-.677.504.504 0 0 1 .675.223m-2.215.95.25.968a.5.5 0 0 1-.969.25l-.25-.969a.503.503 0 0 1 .36-.61.5.5 0 0 1 .199-.007c.2.027.363.172.41.367m-2.375.457.055.996a.5.5 0 0 1-.477.528l-.023.004a.504.504 0 0 1-.5-.477l-.051-1a.51.51 0 0 1 .219-.46.502.502 0 0 1 .777.41M23 22.585a1.5 1.5 0 0 0-.5-.082c-.215 0-.43.047-.625.137q.593-.572 1.125-1.188ZM26 32a.5.5 0 0 1-.355-.148l-5.497-5.497a.5.5 0 0 1 0-.707l1.997-2a.5.5 0 0 1 .707 0L24 24.797v-6.293c0-.277.223-.5.5-.5h3c.273 0 .5.223.5.5v6.293l1.148-1.149a.5.5 0 0 1 .352-.148.5.5 0 0 1 .352.148l2 2a.5.5 0 0 1 .148.356.5.5 0 0 1-.148.355l-5.5 5.493A.48.48 0 0 1 26 32m-4.793-6L26 30.793l4.793-4.79-1.293-1.292-1.648 1.648a.498.498 0 0 1-.852-.355v-7h-2v7a.5.5 0 0 1-.855.355L22.5 24.711Zm0 0" fill="rgb(20.392157%, 59.607846%, 85.882354%)"/></svg>