<?xml version="1.0" encoding="UTF-8"?>
<svg xmlns="http://www.w3.org/2000/svg" xmlns:xlink="http://www.w3.org/1999/xlink" width="35.807488" height="32" viewBox="0 0 35.807488 32">
<defs>
<linearGradient id="linear-pattern-0" gradientUnits="userSpaceOnUse" x1="1387.905029" y1="-3449.149902" x2="1691.088989" y2="-3449.149902" gradientTransform="matrix(0.0575883, -0.0575903, 0.0575903, 0.0575883, 126.628698, 302.585405)">
<stop offset="0" stop-color="rgb(38.431373%, 20%, 57.647059%)" stop-opacity="1"/>
<stop offset="0.574" stop-color="rgb(27.058824%, 16.862745%, 48.627451%)" stop-opacity="1"/>
<stop offset="1" stop-color="rgb(17.254902%, 14.509804%, 42.352941%)" stop-opacity="1"/>
</linearGradient>
<linearGradient id="linear-pattern-1" gradientUnits="userSpaceOnUse" x1="1387.905029" y1="-3506.711914" x2="1691.088989" y2="-3506.711914" gradientTransform="matrix(0.0575883, -0.0575903, 0.0575903, 0.0575883, 126.628698, 302.585405)">
<stop offset="0" stop-color="rgb(45.882353%, 30.980392%, 62.745098%)" stop-opacity="1"/>
<stop offset="0.181" stop-color="rgb(43.137255%, 29.019608%, 60%)" stop-opacity="1"/>
<stop offset="0.457" stop-color="rgb(36.078431%, 24.705882%, 54.509804%)" stop-opacity="1"/>
<stop offset="0.791" stop-color="rgb(25.490196%, 18.823529%, 47.45098%)" stop-opacity="1"/>
<stop offset="1" stop-color="rgb(17.254902%, 14.509804%, 42.352941%)" stop-opacity="1"/>
</linearGradient>
<linearGradient id="linear-pattern-2" gradientUnits="userSpaceOnUse" x1="1387.905029" y1="-3362.654053" x2="1691.088013" y2="-3362.654053" gradientTransform="matrix(0.0575883, -0.0575903, 0.0575903, 0.0575883, 126.628698, 302.585405)">
<stop offset="0" stop-color="rgb(45.882353%, 30.980392%, 62.745098%)" stop-opacity="1"/>
<stop offset="0.181" stop-color="rgb(43.137255%, 29.019608%, 60%)" stop-opacity="1"/>
<stop offset="0.457" stop-color="rgb(36.078431%, 24.705882%, 54.509804%)" stop-opacity="1"/>
<stop offset="0.791" stop-color="rgb(25.490196%, 18.823529%, 47.45098%)" stop-opacity="1"/>
<stop offset="1" stop-color="rgb(17.254902%, 14.509804%, 42.352941%)" stop-opacity="1"/>
</linearGradient>
<linearGradient id="linear-pattern-3" gradientUnits="userSpaceOnUse" x1="1387.905029" y1="-3434.10791" x2="1691.088989" y2="-3434.10791" gradientTransform="matrix(0.0575883, -0.0575903, 0.0575903, 0.0575883, 126.628698, 302.585405)">
<stop offset="0" stop-color="rgb(38.431373%, 20%, 57.647059%)" stop-opacity="1"/>
<stop offset="0.574" stop-color="rgb(27.058824%, 16.862745%, 48.627451%)" stop-opacity="1"/>
<stop offset="1" stop-color="rgb(17.254902%, 14.509804%, 42.352941%)" stop-opacity="1"/>
</linearGradient>
<linearGradient id="linear-pattern-4" gradientUnits="userSpaceOnUse" x1="1359.161987" y1="-3434.10791" x2="1723.274048" y2="-3434.10791" gradientTransform="matrix(0.0575883, -0.0575903, 0.0575903, 0.0575883, 126.628698, 302.585405)">
<stop offset="0" stop-color="rgb(45.882353%, 30.980392%, 62.745098%)" stop-opacity="1"/>
<stop offset="0.181" stop-color="rgb(43.137255%, 29.019608%, 60%)" stop-opacity="1"/>
<stop offset="0.457" stop-color="rgb(36.078431%, 24.705882%, 54.509804%)" stop-opacity="1"/>
<stop offset="0.791" stop-color="rgb(25.490196%, 18.823529%, 47.45098%)" stop-opacity="1"/>
<stop offset="1" stop-color="rgb(17.254902%, 14.509804%, 42.352941%)" stop-opacity="1"/>
</linearGradient>
<linearGradient id="linear-pattern-5" gradientUnits="userSpaceOnUse" x1="1359.161987" y1="-3396.875" x2="1723.274048" y2="-3396.875" gradientTransform="matrix(0.0575883, -0.0575903, 0.0575903, 0.0575883, 126.628698, 302.585405)">
<stop offset="0" stop-color="rgb(38.431373%, 20%, 57.647059%)" stop-opacity="1"/>
<stop offset="0.574" stop-color="rgb(27.058824%, 16.862745%, 48.627451%)" stop-opacity="1"/>
<stop offset="1" stop-color="rgb(17.254902%, 14.509804%, 42.352941%)" stop-opacity="1"/>
</linearGradient>
<linearGradient id="linear-pattern-6" gradientUnits="userSpaceOnUse" x1="1359.161987" y1="-3417.678955" x2="1723.274048" y2="-3417.678955" gradientTransform="matrix(0.0575883, -0.0575903, 0.0575903, 0.0575883, 126.628698, 302.585405)">
<stop offset="0" stop-color="rgb(38.431373%, 20%, 57.647059%)" stop-opacity="1"/>
<stop offset="0.574" stop-color="rgb(27.058824%, 16.862745%, 48.627451%)" stop-opacity="1"/>
<stop offset="1" stop-color="rgb(17.254902%, 14.509804%, 42.352941%)" stop-opacity="1"/>
</linearGradient>
<linearGradient id="linear-pattern-7" gradientUnits="userSpaceOnUse" x1="1359.161987" y1="-3470.334961" x2="1723.274048" y2="-3470.334961" gradientTransform="matrix(0.0575883, -0.0575903, 0.0575903, 0.0575883, 126.628698, 302.585405)">
<stop offset="0" stop-color="rgb(38.431373%, 20%, 57.647059%)" stop-opacity="1"/>
<stop offset="0.574" stop-color="rgb(27.058824%, 16.862745%, 48.627451%)" stop-opacity="1"/>
<stop offset="1" stop-color="rgb(17.254902%, 14.509804%, 42.352941%)" stop-opacity="1"/>
</linearGradient>
</defs>
<path fill-rule="nonzero" fill="url(#linear-pattern-0)" d="M 20.382812 9.640625 C 20.835938 9.640625 21.292969 9.808594 21.636719 10.160156 L 22.660156 11.1875 L 21.636719 10.160156 C 21.292969 9.808594 20.835938 9.640625 20.382812 9.640625 Z M 20.382812 9.640625 "/>
<path fill-rule="nonzero" fill="url(#linear-pattern-1)" d="M 10.347656 10.875 C 11.488281 9.738281 13.34375 9.738281 14.484375 10.875 L 15.347656 11.738281 L 18.027344 9.0625 C 19.324219 7.765625 21.441406 7.765625 22.734375 9.0625 L 23.761719 10.085938 L 26.335938 7.511719 L 20.722656 1.902344 C 19.109375 0.289062 16.464844 0.289062 14.84375 1.902344 L 3.269531 13.492188 C 1.894531 14.859375 1.699219 16.976562 2.660156 18.574219 L 2.691406 18.539062 Z M 10.347656 10.875 "/>
<path fill-rule="nonzero" fill="url(#linear-pattern-2)" d="M 25.472656 20.960938 C 24.332031 22.101562 22.472656 22.101562 21.335938 20.960938 L 20.316406 19.933594 L 16.9375 23.3125 C 15.640625 24.609375 13.523438 24.609375 12.230469 23.3125 L 11.355469 22.441406 L 8.847656 24.949219 L 14.003906 30.105469 C 15.617188 31.71875 18.265625 31.71875 19.882812 30.105469 L 31.472656 18.523438 C 32.679688 17.320312 32.988281 15.535156 32.394531 14.046875 L 32.019531 14.417969 Z M 25.472656 20.960938 "/>
<path fill-rule="nonzero" fill="rgb(100%, 100%, 100%)" fill-opacity="1" d="M 15.835938 22.214844 C 15.664062 22.386719 15.460938 22.515625 15.25 22.605469 C 15.039062 22.695312 14.808594 22.734375 14.582031 22.734375 C 14.125 22.734375 13.671875 22.5625 13.328125 22.214844 L 11.453125 20.339844 C 11.105469 19.992188 10.933594 19.542969 10.933594 19.085938 C 10.933594 18.859375 10.972656 18.628906 11.0625 18.417969 C 11.152344 18.207031 11.285156 18.003906 11.453125 17.832031 L 16.449219 12.839844 L 19.128906 10.160156 C 19.386719 9.898438 19.707031 9.738281 20.046875 9.671875 C 20.160156 9.648438 20.273438 9.640625 20.390625 9.640625 C 20.84375 9.640625 21.300781 9.808594 21.644531 10.160156 L 22.667969 11.1875 L 23.769531 10.085938 L 22.742188 9.0625 C 21.449219 7.765625 19.332031 7.765625 18.035156 9.0625 L 15.347656 11.738281 L 10.355469 16.734375 C 10.109375 16.976562 9.914062 17.246094 9.761719 17.539062 C 9.710938 17.636719 9.664062 17.734375 9.621094 17.832031 C 9.257812 18.734375 9.304688 19.761719 9.761719 20.632812 C 9.914062 20.925781 10.109375 21.195312 10.355469 21.441406 L 11.355469 22.441406 L 12.230469 23.3125 C 13.523438 24.609375 15.640625 24.609375 16.9375 23.3125 L 20.316406 19.933594 L 19.214844 18.832031 Z M 15.835938 22.214844 "/>
<path fill-rule="nonzero" fill="rgb(17.254902%, 14.509804%, 42.352941%)" fill-opacity="1" d="M 32.011719 14.417969 L 32.386719 14.046875 C 32.246094 13.703125 32.058594 13.378906 31.832031 13.066406 C 31.914062 13.515625 31.96875 13.964844 32.011719 14.417969 Z M 32.011719 14.417969 "/>
<path fill-rule="nonzero" fill="rgb(35.686275%, 17.647059%, 50.980392%)" fill-opacity="1" d="M 2.691406 18.53125 L 2.660156 18.566406 C 2.683594 18.605469 2.699219 18.648438 2.722656 18.679688 C 2.714844 18.636719 2.699219 18.589844 2.691406 18.53125 Z M 2.691406 18.53125 "/>
<path fill-rule="nonzero" fill="url(#linear-pattern-3)" d="M 19.183594 14.671875 L 22.667969 11.1875 L 21.644531 10.160156 C 21.292969 9.808594 20.84375 9.640625 20.390625 9.640625 C 20.273438 9.640625 20.160156 9.648438 20.046875 9.671875 C 19.714844 9.738281 19.386719 9.898438 19.128906 10.160156 L 16.449219 12.839844 L 16.636719 13.027344 C 17.773438 14.167969 17.773438 16.023438 16.636719 17.164062 L 12.449219 21.351562 L 13.320312 22.222656 C 13.671875 22.570312 14.117188 22.742188 14.574219 22.742188 C 14.800781 22.742188 15.03125 22.703125 15.242188 22.613281 C 15.453125 22.523438 15.65625 22.394531 15.828125 22.222656 L 19.207031 18.84375 L 19.175781 18.808594 C 18.042969 17.667969 18.042969 15.8125 19.183594 14.671875 Z M 19.183594 14.671875 "/>
<path fill-rule="nonzero" fill="url(#linear-pattern-4)" d="M 19.183594 14.671875 L 22.667969 11.1875 L 21.644531 10.160156 C 21.292969 9.808594 20.84375 9.640625 20.390625 9.640625 C 20.273438 9.640625 20.160156 9.648438 20.046875 9.671875 C 19.714844 9.738281 19.386719 9.898438 19.128906 10.160156 L 16.449219 12.839844 L 16.636719 13.027344 C 17.773438 14.167969 17.773438 16.023438 16.636719 17.164062 L 12.449219 21.351562 L 13.320312 22.222656 C 13.671875 22.570312 14.117188 22.742188 14.574219 22.742188 C 14.800781 22.742188 15.03125 22.703125 15.242188 22.613281 C 15.453125 22.523438 15.65625 22.394531 15.828125 22.222656 L 19.207031 18.84375 L 19.175781 18.808594 C 18.042969 17.667969 18.042969 15.8125 19.183594 14.671875 Z M 19.183594 14.671875 "/>
<path fill-rule="nonzero" fill="rgb(100%, 100%, 100%)" fill-opacity="1" d="M 15.835938 22.214844 C 15.664062 22.386719 15.460938 22.515625 15.25 22.605469 C 15.460938 22.523438 15.664062 22.394531 15.835938 22.214844 Z M 15.835938 22.214844 "/>
<path fill-rule="nonzero" fill="url(#linear-pattern-5)" d="M 15.835938 22.214844 C 15.664062 22.386719 15.460938 22.515625 15.25 22.605469 C 15.460938 22.523438 15.664062 22.394531 15.835938 22.214844 Z M 15.835938 22.214844 "/>
<path fill-rule="nonzero" fill="rgb(100%, 100%, 100%)" fill-opacity="1" d="M 12.457031 21.351562 L 13.328125 22.222656 C 13.679688 22.570312 14.125 22.742188 14.582031 22.742188 C 14.125 22.742188 13.671875 22.570312 13.328125 22.222656 Z M 12.457031 21.351562 "/>
<path fill-rule="nonzero" fill="url(#linear-pattern-6)" d="M 12.457031 21.351562 L 13.328125 22.222656 C 13.679688 22.570312 14.125 22.742188 14.582031 22.742188 C 14.125 22.742188 13.671875 22.570312 13.328125 22.222656 Z M 12.457031 21.351562 "/>
<path fill-rule="nonzero" fill="rgb(100%, 100%, 100%)" fill-opacity="1" d="M 19.128906 10.160156 C 19.386719 9.898438 19.707031 9.738281 20.046875 9.671875 C 19.707031 9.738281 19.378906 9.898438 19.128906 10.160156 Z M 19.128906 10.160156 "/>
<path fill-rule="nonzero" fill="url(#linear-pattern-7)" d="M 19.128906 10.160156 C 19.386719 9.898438 19.707031 9.738281 20.046875 9.671875 C 19.707031 9.738281 19.378906 9.898438 19.128906 10.160156 Z M 19.128906 10.160156 "/>
<path fill-rule="nonzero" fill="rgb(17.254902%, 14.509804%, 42.352941%)" fill-opacity="1" d="M 3.269531 19.363281 C 3.058594 19.152344 2.878906 18.921875 2.722656 18.6875 C 2.699219 18.648438 2.675781 18.605469 2.660156 18.574219 L 1.558594 19.671875 C 0.417969 20.8125 0.417969 22.667969 1.558594 23.808594 L 3.703125 25.960938 C 4.621094 26.878906 6.007812 27.058594 7.105469 26.496094 C 7.367188 26.359375 7.617188 26.1875 7.839844 25.960938 L 8.523438 25.277344 L 8.765625 25.03125 L 8.847656 24.949219 Z M 3.269531 19.363281 "/>
<path fill-rule="nonzero" fill="rgb(35.686275%, 17.647059%, 50.980392%)" fill-opacity="1" d="M 10.355469 21.441406 C 10.109375 21.195312 9.914062 20.925781 9.761719 20.632812 C 9.304688 19.761719 9.257812 18.734375 9.621094 17.832031 C 9.664062 17.734375 9.710938 17.636719 9.761719 17.539062 C 9.914062 17.246094 10.109375 16.976562 10.355469 16.734375 L 15.347656 11.738281 L 14.484375 10.875 C 13.34375 9.738281 11.488281 9.738281 10.347656 10.875 L 2.691406 18.53125 C 2.699219 18.582031 2.714844 18.628906 2.722656 18.6875 C 2.878906 18.921875 3.058594 19.152344 3.269531 19.363281 L 8.855469 24.949219 L 11.367188 22.441406 Z M 10.355469 21.441406 "/>
<path fill-rule="nonzero" fill="rgb(35.686275%, 17.647059%, 50.980392%)" fill-opacity="1" d="M 9.621094 17.832031 C 9.257812 18.734375 9.304688 19.761719 9.761719 20.632812 C 9.304688 19.761719 9.257812 18.734375 9.621094 17.832031 Z M 12.457031 21.351562 L 16.644531 17.164062 C 17.785156 16.023438 17.785156 14.167969 16.644531 13.027344 L 16.457031 12.839844 L 11.464844 17.832031 C 11.292969 18.003906 11.160156 18.207031 11.070312 18.417969 C 10.984375 18.628906 10.941406 18.859375 10.941406 19.085938 C 10.941406 19.542969 11.113281 20 11.464844 20.339844 Z M 12.457031 21.351562 "/>
<path fill-rule="nonzero" fill="rgb(35.686275%, 17.647059%, 50.980392%)" fill-opacity="1" d="M 11.445312 20.339844 C 11.097656 19.992188 10.925781 19.542969 10.925781 19.085938 C 10.933594 19.542969 11.105469 20 11.445312 20.339844 L 12.449219 21.34375 Z M 11.453125 17.832031 C 11.285156 18.003906 11.152344 18.207031 11.0625 18.417969 C 11.144531 18.207031 11.277344 18.003906 11.453125 17.832031 Z M 11.453125 17.832031 "/>
<path fill-rule="nonzero" fill="rgb(17.254902%, 14.509804%, 42.352941%)" fill-opacity="1" d="M 22.667969 11.1875 L 19.183594 14.671875 C 18.042969 15.8125 18.042969 17.667969 19.183594 18.808594 L 19.214844 18.84375 L 23.507812 14.550781 C 23.769531 14.289062 23.933594 13.972656 23.996094 13.628906 C 24.023438 13.515625 24.03125 13.402344 24.03125 13.289062 C 24.03125 12.832031 23.859375 12.375 23.507812 12.035156 Z M 22.667969 11.1875 "/>
<path fill-rule="nonzero" fill="rgb(17.254902%, 14.509804%, 42.352941%)" fill-opacity="1" d="M 23.507812 14.542969 C 23.769531 14.28125 23.933594 13.964844 23.996094 13.621094 C 23.933594 13.964844 23.769531 14.28125 23.507812 14.542969 Z M 23.507812 14.542969 "/>
<path fill-rule="nonzero" fill="rgb(38.431373%, 20%, 57.647059%)" fill-opacity="1" d="M 23.507812 12.035156 C 23.859375 12.382812 24.03125 12.832031 24.03125 13.289062 C 24.03125 12.832031 23.859375 12.375 23.507812 12.035156 L 22.660156 11.1875 Z M 24.609375 15.640625 C 24.933594 15.316406 25.179688 14.941406 25.339844 14.542969 C 25.179688 14.941406 24.933594 15.316406 24.609375 15.640625 Z M 24.609375 15.640625 "/>
<path fill-rule="nonzero" fill="rgb(38.431373%, 20%, 57.647059%)" fill-opacity="1" d="M 25.339844 14.542969 C 25.382812 14.445312 25.414062 14.339844 25.445312 14.242188 C 25.78125 13.109375 25.503906 11.828125 24.609375 10.941406 L 23.761719 10.09375 L 22.660156 11.195312 L 23.507812 12.042969 C 23.859375 12.390625 24.03125 12.839844 24.03125 13.296875 C 24.03125 13.410156 24.023438 13.523438 23.996094 13.636719 C 23.933594 13.972656 23.769531 14.296875 23.507812 14.558594 L 19.214844 18.851562 L 20.316406 19.949219 L 24.609375 15.65625 C 24.933594 15.316406 25.179688 14.941406 25.339844 14.542969 Z M 34.265625 8.019531 L 32.117188 5.867188 C 31.042969 4.792969 29.339844 4.726562 28.191406 5.679688 C 28.117188 5.738281 28.046875 5.804688 27.980469 5.875 L 26.34375 7.511719 L 31.472656 12.644531 C 31.605469 12.773438 31.726562 12.921875 31.832031 13.066406 C 32.058594 13.367188 32.246094 13.695312 32.386719 14.046875 L 34.265625 12.164062 C 35.40625 11.015625 35.40625 9.167969 34.265625 8.019531 Z M 34.265625 8.019531 "/>
<path fill-rule="nonzero" fill="rgb(17.254902%, 14.509804%, 42.352941%)" fill-opacity="1" d="M 24.609375 10.933594 C 25.503906 11.828125 25.78125 13.101562 25.445312 14.230469 C 25.414062 14.339844 25.382812 14.4375 25.339844 14.535156 C 25.179688 14.933594 24.933594 15.308594 24.609375 15.632812 L 20.316406 19.933594 L 21.335938 20.953125 C 22.472656 22.089844 24.332031 22.089844 25.472656 20.953125 L 32.011719 14.410156 C 31.96875 13.957031 31.914062 13.507812 31.832031 13.058594 C 31.71875 12.914062 31.605469 12.773438 31.472656 12.636719 L 26.34375 7.503906 L 23.769531 10.078125 Z M 24.609375 10.933594 "/>
<path fill-rule="nonzero" fill="rgb(17.254902%, 14.509804%, 42.352941%)" fill-opacity="1" d="M 24.609375 10.933594 C 25.503906 11.828125 25.78125 13.101562 25.445312 14.230469 C 25.78125 13.101562 25.503906 11.828125 24.609375 10.933594 L 23.761719 10.085938 Z M 24.609375 10.933594 "/>
</svg>
