<svg role="img" viewBox="0 0 32 32" xmlns="http://www.w3.org/2000/svg"><path d="M8.32.64a.64.64 0 0 0-.453.188.64.64 0 0 0-.187.453V3.2h1.28V1.281a.64.64 0 0 0-.64-.64m5.121 0a.643.643 0 0 0-.64.64V3.2h1.277V1.281a.643.643 0 0 0-.637-.64m5.118 0a.643.643 0 0 0-.637.64V3.2h1.277V1.281a.64.64 0 0 0-.187-.453.64.64 0 0 0-.453-.187m5.12 0a.64.64 0 0 0-.64.64V3.2h1.281V1.281a.64.64 0 0 0-.187-.453.64.64 0 0 0-.453-.187M5.762 3.84A1.92 1.92 0 0 0 3.84 5.762v20.476c0 .508.203 1 .562 1.36.36.359.852.562 1.36.562h20.476c.508 0 1-.203 1.36-.562.359-.36.562-.852.562-1.36V5.762c0-.508-.203-1-.562-1.36a1.93 1.93 0 0 0-1.36-.562ZM7.68 6.398a1.282 1.282 0 1 1-.002 2.564 1.282 1.282 0 0 1 .002-2.564M1.28 7.68a.644.644 0 0 0-.601.64.647.647 0 0 0 .601.64H3.2V7.68Zm27.52 0v1.28h1.918a.643.643 0 0 0 0-1.28ZM1.28 12.8a.638.638 0 1 0 0 1.278H3.2v-1.277Zm27.52 0v1.278h1.918a.638.638 0 0 0 0-1.277ZM1.28 17.923a.64.64 0 0 0-.574.312.63.63 0 0 0 0 .653c.117.203.34.324.574.312H3.2v-1.277Zm27.52 0V19.2h1.918a.63.63 0 0 0 .574-.312.63.63 0 0 0 0-.653.65.65 0 0 0-.574-.312ZM1.28 23.039a.644.644 0 0 0-.601.64c0 .337.261.618.601.641H3.2v-1.28Zm23.04 0a1.28 1.28 0 0 1 1.277 1.285c0 .707-.575 1.281-1.285 1.278a1.28 1.28 0 0 1-1.278-1.282c0-.707.574-1.28 1.285-1.28m4.48 0v1.28h1.919a.641.641 0 0 0 0-1.28ZM7.68 28.8v1.919c0 .172.066.332.187.453a.642.642 0 0 0 1.094-.453V28.8Zm5.12 0v1.919a.64.64 0 0 0 1.09.453.64.64 0 0 0 .188-.453V28.8Zm5.122 0v1.919a.639.639 0 1 0 1.277 0V28.8Zm5.117 0v1.919a.638.638 0 0 0 1.094.453.64.64 0 0 0 .187-.453V28.8Zm0 0" fill="rgb(0%, 0%, 0%)"/></svg>