<svg role="img" viewBox="0 0 32 32" height="32" width="32" xmlns="http://www.w3.org/2000/svg"><path d="M8.32.64a.635.635 0 0 0-.453.188.635.635 0 0 0-.187.453V3.2h1.28V1.281a.64.64 0 0 0-.64-.64m5.121 0a.649.649 0 0 0-.64.64V3.2h1.277V1.281a.643.643 0 0 0-.637-.64m5.118 0a.643.643 0 0 0-.637.64V3.2h1.277V1.281a.635.635 0 0 0-.187-.453.635.635 0 0 0-.453-.187m5.12 0a.639.639 0 0 0-.64.64V3.2h1.281V1.281a.635.635 0 0 0-.187-.453.635.635 0 0 0-.453-.187M5.762 3.84c-.508 0-1 .203-1.36.562-.359.36-.562.852-.562 1.36v20.476c0 .508.203 1 .562 1.36.36.359.852.562 1.36.562h20.476c.508 0 1-.203 1.36-.562.359-.36.562-.852.562-1.36V5.762c0-.508-.203-1-.562-1.36a1.928 1.928 0 0 0-1.36-.562ZM7.68 6.398a1.282 1.282 0 1 1-.002 2.564 1.282 1.282 0 0 1 .002-2.564M1.28 7.68c-.34.02-.601.3-.601.64a.653.653 0 0 0 .601.64H3.2V7.68Zm27.52 0v1.28h1.918a.646.646 0 0 0 0-1.28ZM1.28 12.8a.638.638 0 1 0 0 1.278H3.2v-1.277Zm27.52 0v1.278h1.918a.638.638 0 0 0 0-1.277ZM1.28 17.923a.644.644 0 0 0-.574.312.631.631 0 0 0 0 .653c.117.203.34.324.574.312H3.2v-1.277Zm27.52 0V19.2h1.918a.632.632 0 0 0 .574-.312.631.631 0 0 0 0-.653.665.665 0 0 0-.574-.312ZM1.28 23.039a.642.642 0 0 0 0 1.281H3.2v-1.28Zm23.04 0a1.282 1.282 0 0 1-.008 2.563 1.27 1.27 0 0 1-1.278-1.282c0-.707.574-1.28 1.285-1.28m4.48 0v1.28h1.919a.643.643 0 0 0 0-1.28ZM7.68 28.8v1.919a.635.635 0 0 0 .883.59.648.648 0 0 0 .398-.59V28.8Zm5.12 0v1.919a.643.643 0 0 0 .997.535.649.649 0 0 0 .281-.535V28.8Zm5.122 0v1.919a.642.642 0 1 0 1.277 0V28.8Zm5.117 0v1.919c-.004.261.152.5.395.597a.633.633 0 0 0 .699-.144.635.635 0 0 0 .187-.453V28.8Zm0 0"/></svg>