<svg role="img" viewBox="0 0 32 32" height="32" width="32" xmlns="http://www.w3.org/2000/svg"><path d="M16 2.559a1.92 1.92 0 0 0-1.687.988L.898 27.133a1.965 1.965 0 0 0 .012 1.976c.356.61.98.97 1.68.97h26.82c.7 0 1.324-.36 1.68-.97.36-.617.363-1.355.012-1.976L17.688 3.547A1.923 1.923 0 0 0 16 2.559M5.762 3.832a.644.644 0 0 0-.586.363.64.64 0 0 0 .086.684l2.558 3.2a.636.636 0 0 0 .899.1.636.636 0 0 0 .101-.898L6.262 4.078a.655.655 0 0 0-.5-.246m20.457 0a.647.647 0 0 0-.48.246l-2.56 3.203a.636.636 0 0 0 .102.899c.274.222.68.175.899-.102l2.558-3.2a.646.646 0 0 0 .082-.69.647.647 0 0 0-.601-.356M1.899 8.316a.64.64 0 0 0-.266 1.215l3.84 1.922a.641.641 0 0 0 .574-1.144l-3.84-1.922a.661.661 0 0 0-.309-.07m28.183 0a.62.62 0 0 0-.289.07l-3.84 1.923a.641.641 0 0 0 .574 1.145l3.84-1.923a.638.638 0 0 0-.285-1.215M15.359 11.52h1.282a.64.64 0 0 1 .64.64v8.961c0 .352-.289.64-.64.64h-1.282a.641.641 0 0 1-.64-.64v-8.96a.64.64 0 0 1 .64-.641M.641 14.078a.652.652 0 0 0-.563.32.64.64 0 0 0 .563.96l3.84.001a.64.64 0 0 0 .562-.96.652.652 0 0 0-.563-.32Zm26.879 0a.652.652 0 0 0-.563.32.64.64 0 0 0 .563.96l3.84.001a.64.64 0 0 0 .562-.96.652.652 0 0 0-.563-.32ZM15.36 23.68h1.28c.356 0 .641.285.641.64v1.282a.638.638 0 0 1-.64.636h-1.282a.638.638 0 0 1-.64-.636V24.32c0-.355.285-.64.64-.64m0 0"/></svg>