<svg role="img" viewBox="0 0 150.227 32" height="32" width="150.227" xmlns="http://www.w3.org/2000/svg"><defs><clipPath id="75__40__440__405__clip-0"><path d="M11 10h4v21h-4Zm0 0"/></clipPath><clipPath id="76__41__441__406__clip-1"><path d="M13.219 10.777c-.961 0-1.742.782-1.742 1.743v16.394a1.742 1.742 0 0 0 3.484 0V12.52c0-.961-.777-1.743-1.742-1.743"/></clipPath><clipPath id="77__42__442__407__clip-2"><path d="M6 1h15v24H6Zm0 0"/></clipPath><clipPath id="78__43__443__408__clip-3"><path d="M20.21 8.629a6.95 6.95 0 0 0-6.941-7.281 6.956 6.956 0 0 0-6.945 6.625c-.004.109-.008.215-.008.324 0 .117.004.234.012.351-.004.059-.012.118-.012.176V20.23a3.979 3.979 0 0 0 3.97 3.965h5.968a3.973 3.973 0 0 0 3.965-3.965V8.824c0-.066-.004-.133-.008-.195"/></clipPath><clipPath id="79__44__444__409__clip-4"><path d="M6.258 3h14.238v21.203H6.258Zm0 0"/></clipPath><clipPath id="80__45__445__410__clip-5"><path d="M6.36 7.973c-.012.226-.012.453.003.675-.004.059-.011.118-.011.176V20.23a3.981 3.981 0 0 0 3.968 3.965h5.97a3.973 3.973 0 0 0 3.964-3.965V8.824c0-.066-.008-.133-.008-.195a9.25 9.25 0 0 0 .008-.332c0-.11-.004-.215-.008-.324a6.95 6.95 0 0 0-6.941-6.625 6.956 6.956 0 0 0-6.946 6.625m0 0"/></clipPath><clipPath id="81__46__446__411__clip-6"><path d="M2.074 20.324 19.313 3.086l5.105 5.105L7.18 25.43Zm0 0"/></clipPath><clipPath id="82__47__447__412__clip-7"><path d="M6.258 1.133h13.254v19.39H6.258Zm0 0"/></clipPath><clipPath id="83__48__448__413__clip-8"><path d="M6.36 7.973c-.012.226-.012.453.003.675-.004.059-.011.118-.011.176V20.23a3.981 3.981 0 0 0 3.968 3.965h5.97a3.973 3.973 0 0 0 3.964-3.965V8.824c0-.066-.008-.133-.008-.195a9.25 9.25 0 0 0 .008-.332c0-.11-.004-.215-.008-.324a6.95 6.95 0 0 0-6.941-6.625 6.956 6.956 0 0 0-6.946 6.625m0 0"/></clipPath><clipPath id="84__49__449__414__clip-9"><path d="M-4.293 13.953 12.945-3.285l6.352 6.351L2.059 20.305Zm0 0"/></clipPath><clipPath id="85__50__450__415__clip-10"><path d="M7 8.004h13.496v16.2H7Zm0 0"/></clipPath><clipPath id="86__51__451__416__clip-11"><path d="M6.36 7.973c-.012.226-.012.453.003.675-.004.059-.011.118-.011.176V20.23a3.981 3.981 0 0 0 3.968 3.965h5.97a3.973 3.973 0 0 0 3.964-3.965V8.824c0-.066-.008-.133-.008-.195a9.25 9.25 0 0 0 .008-.332c0-.11-.004-.215-.008-.324a6.95 6.95 0 0 0-6.941-6.625 6.956 6.956 0 0 0-6.946 6.625m0 0"/></clipPath><clipPath id="87__52__452__417__clip-12"><path d="M7.2 25.445 24.437 8.207l5.105 5.105-17.238 17.239Zm0 0"/></clipPath><clipPath id="88__53__453__418__clip-13"><path d="M11 24h4v4h-4Zm0 0"/></clipPath><clipPath id="89__54__454__419__clip-14"><path d="m11.95 24.215 3.023 3.023v-3.047Zm0 0"/></clipPath><clipPath id="90__55__455__420__clip-15"><path d="M27 6h15v17H27Zm0 0"/></clipPath><clipPath id="91__56__456__421__clip-16"><path d="M35.207 22.336a8.05 8.05 0 1 1 6.047-13.352 1.336 1.336 0 0 1-.117 1.88 1.3 1.3 0 0 1-.961.335 1.301 1.301 0 0 1-.914-.453 5.38 5.38 0 0 0-5.93-1.488 5.366 5.366 0 0 0-3.484 5.027 5.362 5.362 0 0 0 3.48 5.031 5.364 5.364 0 0 0 5.934-1.492 1.31 1.31 0 0 1 1.874-.113c.551.484.602 1.324.118 1.875a8.043 8.043 0 0 1-6.047 2.75"/></clipPath><clipPath id="92__57__457__422__clip-17"><path d="M43 9h8v14h-8Zm0 0"/></clipPath><clipPath id="93__58__458__423__clip-18"><path d="M50.207 11.32c-.004.356-.148.7-.398.946-.254.25-.598.386-.954.382-1.464 0-2.566 1.192-2.566 2.817v5.543a1.327 1.327 0 1 1-2.656 0v-9.961c0-.668.492-1.23 1.156-1.32a1.332 1.332 0 0 1 1.457.976 5.155 5.155 0 0 1 2.61-.71c.355-.005.699.132.953.382.25.25.394.59.398.945"/></clipPath><clipPath id="94__59__459__424__clip-19"><path d="M50 9h14v14H50Zm0 0"/></clipPath><clipPath id="95__60__460__425__clip-20"><path d="M56.96 22.406a6.308 6.308 0 0 1-6.296-6.32 6.306 6.306 0 0 1 6.32-6.297 6.306 6.306 0 0 1 6.297 6.32 6.31 6.31 0 0 1-6.32 6.297m0-9.96a3.649 3.649 0 0 0-3.387 5.04 3.65 3.65 0 1 0 3.387-5.04"/></clipPath><clipPath id="96__61__461__426__clip-21"><path d="M65 9h9v14h-9Zm0 0"/></clipPath><clipPath id="97__62__462__427__clip-22"><path d="M65.48 20.023a1.31 1.31 0 0 1-.046-1.015 1.33 1.33 0 0 1 .687-.746c.32-.149.684-.168 1.016-.047.328.12.597.367.746.687.183.368.687.778 1.582.778 1.234 0 1.672-.754 1.672-1.258 0-.688-.184-.895-1.973-1.352-.8-.183-1.625-.39-2.332-.847a3.233 3.233 0 0 1-1.492-2.793 3.629 3.629 0 0 1 1.125-2.567c.754-.73 1.808-1.144 3-1.144 1.691 0 3.137.824 3.754 2.176a1.332 1.332 0 0 1-.672 1.699 1.332 1.332 0 0 1-1.734-.578c-.137-.297-.57-.641-1.348-.641-1.055 0-1.445.664-1.445 1.055 0 .457.093.64 1.789 1.074 1.488.367 3.98.984 3.98 3.918a3.833 3.833 0 0 1-1.144 2.7c-.57.55-1.579 1.214-3.18 1.214-1.809 0-3.344-.895-3.985-2.313"/></clipPath><clipPath id="98__63__463__428__clip-23"><path d="M75 9h10v14H75Zm0 0"/></clipPath><clipPath id="99__64__464__429__clip-24"><path d="M75.988 20.023a1.327 1.327 0 0 1 .645-1.761c.32-.149.683-.168 1.015-.047.329.12.598.367.747.687.183.368.687.778 1.578.778 1.238 0 1.672-.754 1.672-1.258 0-.688-.184-.895-1.97-1.352-.8-.183-1.624-.39-2.335-.847a3.23 3.23 0 0 1-1.488-2.793 3.629 3.629 0 0 1 1.125-2.567c.753-.73 1.808-1.144 2.996-1.144 1.695 0 3.14.824 3.757 2.176a1.328 1.328 0 0 1-2.406 1.121c-.136-.297-.57-.641-1.351-.641-1.051 0-1.442.664-1.442 1.055 0 .457.094.64 1.785 1.074 1.489.367 3.985.984 3.985 3.918a3.856 3.856 0 0 1-1.145 2.7c-.57.55-1.578 1.214-3.183 1.214-1.809 0-3.34-.895-3.985-2.313"/></clipPath><clipPath id="100__65__465__430__clip-25"><path d="M86 9h13v20H86Zm0 0"/></clipPath><clipPath id="101__66__466__431__clip-26"><path d="M98.363 16.016c0 1.695-.574 3.254-1.648 4.422a5.851 5.851 0 0 1-4.352 1.898 5.98 5.98 0 0 1-3.32-1.008v5.406a1.35 1.35 0 0 1-1.352 1.328c-.73 0-1.324-.593-1.328-1.328V11.047c0-.735.594-1.328 1.328-1.328.621.004 1.16.426 1.305 1.031a6.021 6.021 0 0 1 3.367-1.031 5.819 5.819 0 0 1 4.352 1.879c1.074 1.168 1.648 2.746 1.648 4.418m-2.656 0c0-2.106-1.398-3.641-3.344-3.641-1.925 0-3.32 1.535-3.32 3.64 0 2.11 1.394 3.641 3.32 3.641 1.946 0 3.344-1.531 3.344-3.64"/></clipPath><clipPath id="102__67__467__432__clip-27"><path d="M100 6h4v17h-4Zm0 0"/></clipPath><clipPath id="103__68__468__433__clip-28"><path d="M101.867 22.336c-.351 0-.691-.14-.941-.387a1.347 1.347 0 0 1-.387-.941V7.59c0-.735.594-1.328 1.328-1.328.738 0 1.34.59 1.352 1.328v13.418a1.35 1.35 0 0 1-1.352 1.328"/></clipPath><clipPath id="104__69__469__434__clip-29"><path d="M105 9h13v14h-13Zm0 0"/></clipPath><clipPath id="105__70__470__435__clip-30"><path d="M117.39 11.047v9.96a1.337 1.337 0 0 1-1.183 1.321 1.338 1.338 0 0 1-1.45-1.023 5.939 5.939 0 0 1-3.362 1.03 5.782 5.782 0 0 1-4.352-1.898c-1.055-1.148-1.652-2.726-1.652-4.398 0-1.695.597-3.273 1.652-4.418a5.766 5.766 0 0 1 4.352-1.902 5.9 5.9 0 0 1 3.363 1.031 1.341 1.341 0 0 1 1.449-1.023c.672.078 1.18.644 1.184 1.32m-2.657 4.992c0-2.129-1.418-3.664-3.34-3.664-1.949 0-3.343 1.535-3.343 3.664 0 2.106 1.394 3.64 3.344 3.64 1.921 0 3.34-1.534 3.34-3.64"/></clipPath><clipPath id="106__71__471__436__clip-31"><path d="M119 9h12v14h-12Zm0 0"/></clipPath><clipPath id="107__72__472__437__clip-32"><path d="M130.148 15.191v5.817a1.342 1.342 0 0 1-1.34 1.328 1.337 1.337 0 0 1-1.34-1.328V15.19c0-1.351-.757-2.816-2.448-2.816-1.536 0-2.68 1.215-2.68 2.816v5.817a1.327 1.327 0 1 1-2.656 0v-9.961a1.326 1.326 0 0 1 1.046-1.305 1.323 1.323 0 0 1 1.493.754 5.284 5.284 0 0 1 2.797-.777c2.906 0 5.128 2.36 5.128 5.472"/></clipPath><clipPath id="108__73__473__438__clip-33"><path d="M132 9h12v14h-12Zm0 0"/></clipPath><clipPath id="109__74__474__439__clip-34"><path d="M138.207 22.45a5.832 5.832 0 0 1-4.352-1.97c-1.074-1.144-1.648-2.726-1.648-4.394 0-3.621 2.543-6.32 5.887-6.32 3.363 0 5.812 2.656 5.812 6.32 0 .355-.144.695-.398.945s-.594.387-.95.383h-7.488c.457 1.395 1.649 2.379 3.137 2.379.895 0 1.656-.188 2.2-.711.171-.164.32-.36.433-.57a1.335 1.335 0 1 1 2.289 1.375c-1.027 1.855-2.816 2.562-4.922 2.562m-3.16-7.715h6.023c-.457-1.578-1.718-2.312-2.976-2.312-1.239 0-2.567.73-3.047 2.312"/></clipPath></defs><g clip-path="url(#75__40__440__405__clip-0)"><g clip-path="url(#76__41__441__406__clip-1)"><path d="M10.25 9.55h5.938v22.333H10.25Zm0 0" fill="rgb(96.862745%, 81.960784%, 52.54902%)"/></g></g><g clip-path="url(#77__42__442__407__clip-2)"><g clip-path="url(#78__43__443__408__clip-3)"><path d="M5.09.117h16.36v25.309H5.09Zm0 0" fill="rgb(100%, 57.254902%, 20.392157%)"/></g></g><g clip-path="url(#79__44__444__409__clip-4)"><g clip-path="url(#80__45__445__410__clip-5)"><g clip-path="url(#81__46__446__411__clip-6)"><path d="M.848 1.855h24.8v24.801H.848Zm0 0" fill="rgb(100%, 80.392157%, 23.529412%)"/></g></g></g><g clip-path="url(#82__47__447__412__clip-7)"><g clip-path="url(#83__48__448__413__clip-8)"><g clip-path="url(#84__49__449__414__clip-9)"><path d="M-5.523-4.512h26.046v26.047H-5.523Zm0 0" fill="rgb(95.294118%, 50.196078%, 48.235294%)"/></g></g></g><g clip-path="url(#85__50__450__415__clip-10)"><g clip-path="url(#86__51__451__416__clip-11)"><g clip-path="url(#87__52__452__417__clip-12)"><path d="M5.969 6.98h24.8v24.797H5.97Zm0 0" fill="rgb(20.784314%, 81.568627%, 72.941176%)"/></g></g></g><g clip-path="url(#88__53__453__418__clip-13)"><g clip-path="url(#89__54__454__419__clip-14)"><path d="M10.723 22.965h5.476v5.5h-5.476Zm0 0" fill="rgb(84.705882%, 68.235294%, 39.215686%)"/></g></g><path d="M35.207 22.336a8.05 8.05 0 1 1 6.047-13.352 1.336 1.336 0 0 1-.117 1.88 1.3 1.3 0 0 1-.961.335 1.301 1.301 0 0 1-.914-.453 5.38 5.38 0 0 0-5.93-1.488 5.366 5.366 0 0 0-3.484 5.027 5.362 5.362 0 0 0 3.48 5.031 5.364 5.364 0 0 0 5.934-1.492 1.31 1.31 0 0 1 1.874-.113c.551.484.602 1.324.118 1.875a8.043 8.043 0 0 1-6.047 2.75" fill="rgb(0%, 27.45098%, 50.196078%)" fill-rule="evenodd"/><g clip-path="url(#90__55__455__420__clip-15)"><g clip-path="url(#91__56__456__421__clip-16)"><path d="M25.941 5.012h16.872v18.55H25.94Zm0 0" fill="rgb(0%, 27.45098%, 50.196078%)"/></g></g><path d="M50.207 11.32c-.004.356-.148.7-.398.946-.254.25-.598.386-.954.382-1.464 0-2.566 1.192-2.566 2.817v5.543a1.327 1.327 0 1 1-2.656 0v-9.961c0-.668.492-1.23 1.156-1.32a1.332 1.332 0 0 1 1.457.976 5.155 5.155 0 0 1 2.61-.71c.355-.005.699.132.953.382.25.25.394.59.398.945" fill="rgb(0%, 27.45098%, 50.196078%)" fill-rule="evenodd"/><g clip-path="url(#92__57__457__422__clip-17)"><g clip-path="url(#93__58__458__423__clip-18)"><path d="M42.406 8.492h9.028v15.07h-9.028Zm0 0" fill="rgb(0%, 27.45098%, 50.196078%)"/></g></g><path d="M56.96 22.406a6.308 6.308 0 0 1-6.296-6.32 6.306 6.306 0 0 1 6.32-6.297 6.306 6.306 0 0 1 6.297 6.32 6.31 6.31 0 0 1-6.32 6.297m0-9.96a3.649 3.649 0 0 0-3.387 5.04 3.65 3.65 0 1 0 3.387-5.04" fill="rgb(0%, 27.45098%, 50.196078%)" fill-rule="evenodd"/><g clip-path="url(#94__59__459__424__clip-19)"><g clip-path="url(#95__60__460__425__clip-20)"><path d="M49.438 8.559h15.07v15.074h-15.07Zm0 0" fill="rgb(0%, 27.45098%, 50.196078%)"/></g></g><path d="M65.48 20.023a1.31 1.31 0 0 1-.046-1.015 1.33 1.33 0 0 1 .687-.746c.32-.149.684-.168 1.016-.047.328.12.597.367.746.687.183.368.687.778 1.582.778 1.234 0 1.672-.754 1.672-1.258 0-.688-.184-.895-1.973-1.352-.8-.183-1.625-.39-2.332-.847a3.233 3.233 0 0 1-1.492-2.793 3.629 3.629 0 0 1 1.125-2.567c.754-.73 1.808-1.144 3-1.144 1.691 0 3.137.824 3.754 2.176a1.332 1.332 0 0 1-.672 1.699 1.332 1.332 0 0 1-1.734-.578c-.137-.297-.57-.641-1.348-.641-1.055 0-1.445.664-1.445 1.055 0 .457.093.64 1.789 1.074 1.488.367 3.98.984 3.98 3.918a3.833 3.833 0 0 1-1.144 2.7c-.57.55-1.579 1.214-3.18 1.214-1.809 0-3.344-.895-3.985-2.313" fill="rgb(0%, 27.45098%, 50.196078%)" fill-rule="evenodd"/><g clip-path="url(#96__61__461__426__clip-21)"><g clip-path="url(#97__62__462__427__clip-22)"><path d="M64.113 8.492H75.02v15.07H64.113Zm0 0" fill="rgb(0%, 27.45098%, 50.196078%)"/></g></g><path d="M75.988 20.023a1.327 1.327 0 0 1 .645-1.761c.32-.149.683-.168 1.015-.047.329.12.598.367.747.687.183.368.687.778 1.578.778 1.238 0 1.672-.754 1.672-1.258 0-.688-.184-.895-1.97-1.352-.8-.183-1.624-.39-2.335-.847a3.23 3.23 0 0 1-1.488-2.793 3.629 3.629 0 0 1 1.125-2.567c.753-.73 1.808-1.144 2.996-1.144 1.695 0 3.14.824 3.757 2.176a1.328 1.328 0 0 1-2.406 1.121c-.136-.297-.57-.641-1.351-.641-1.051 0-1.442.664-1.442 1.055 0 .457.094.64 1.785 1.074 1.489.367 3.985.984 3.985 3.918a3.856 3.856 0 0 1-1.145 2.7c-.57.55-1.578 1.214-3.183 1.214-1.809 0-3.34-.895-3.985-2.313" fill="rgb(0%, 27.45098%, 50.196078%)" fill-rule="evenodd"/><g clip-path="url(#98__63__463__428__clip-23)"><g clip-path="url(#99__64__464__429__clip-24)"><path d="M74.625 8.492h10.906v15.07H74.625Zm0 0" fill="rgb(0%, 27.45098%, 50.196078%)"/></g></g><path d="M98.363 16.016c0 1.695-.574 3.254-1.648 4.422a5.851 5.851 0 0 1-4.352 1.898 5.98 5.98 0 0 1-3.32-1.008v5.406a1.35 1.35 0 0 1-1.352 1.328c-.73 0-1.324-.593-1.328-1.328V11.047c0-.735.594-1.328 1.328-1.328.621.004 1.16.426 1.305 1.031a6.021 6.021 0 0 1 3.367-1.031 5.819 5.819 0 0 1 4.352 1.879c1.074 1.168 1.648 2.746 1.648 4.418m-2.656 0c0-2.106-1.398-3.641-3.344-3.641-1.925 0-3.32 1.535-3.32 3.64 0 2.11 1.394 3.641 3.32 3.641 1.946 0 3.344-1.531 3.344-3.64" fill="rgb(0%, 27.45098%, 50.196078%)" fill-rule="evenodd"/><g clip-path="url(#100__65__465__430__clip-25)"><g clip-path="url(#101__66__466__431__clip-26)"><path d="M85.137 8.492H99.59V29.29H85.137Zm0 0" fill="rgb(0%, 27.45098%, 50.196078%)"/></g></g><path d="M101.867 22.336c-.351 0-.691-.14-.941-.387a1.347 1.347 0 0 1-.387-.941V7.59c0-.735.594-1.328 1.328-1.328.738 0 1.34.59 1.352 1.328v13.418a1.35 1.35 0 0 1-1.352 1.328" fill="rgb(0%, 27.45098%, 50.196078%)" fill-rule="evenodd"/><g clip-path="url(#102__67__467__432__clip-27)"><g clip-path="url(#103__68__468__433__clip-28)"><path d="M99.313 5.035h5.132v18.528h-5.132Zm0 0" fill="rgb(0%, 27.45098%, 50.196078%)"/></g></g><path d="M117.39 11.047v9.96a1.337 1.337 0 0 1-1.183 1.321 1.338 1.338 0 0 1-1.45-1.023 5.939 5.939 0 0 1-3.362 1.03 5.782 5.782 0 0 1-4.352-1.898c-1.055-1.148-1.652-2.726-1.652-4.398 0-1.695.597-3.273 1.652-4.418a5.766 5.766 0 0 1 4.352-1.902 5.9 5.9 0 0 1 3.363 1.031 1.341 1.341 0 0 1 1.449-1.023c.672.078 1.18.644 1.184 1.32m-2.657 4.992c0-2.129-1.418-3.664-3.34-3.664-1.949 0-3.343 1.535-3.343 3.664 0 2.106 1.394 3.64 3.344 3.64 1.921 0 3.34-1.534 3.34-3.64" fill="rgb(0%, 27.45098%, 50.196078%)" fill-rule="evenodd"/><g clip-path="url(#104__69__469__434__clip-29)"><g clip-path="url(#105__70__470__435__clip-30)"><path d="M104.164 8.492h14.453v15.07h-14.453Zm0 0" fill="rgb(0%, 27.45098%, 50.196078%)"/></g></g><path d="M130.148 15.191v5.817a1.342 1.342 0 0 1-1.34 1.328 1.337 1.337 0 0 1-1.34-1.328V15.19c0-1.351-.757-2.816-2.448-2.816-1.536 0-2.68 1.215-2.68 2.816v5.817a1.327 1.327 0 1 1-2.656 0v-9.961a1.326 1.326 0 0 1 1.046-1.305 1.323 1.323 0 0 1 1.493.754 5.284 5.284 0 0 1 2.797-.777c2.906 0 5.128 2.36 5.128 5.472" fill="rgb(0%, 27.45098%, 50.196078%)" fill-rule="evenodd"/><g clip-path="url(#106__71__471__436__clip-31)"><g clip-path="url(#107__72__472__437__clip-32)"><path d="M118.453 8.492h12.922v15.07h-12.922Zm0 0" fill="rgb(0%, 27.45098%, 50.196078%)"/></g></g><path d="M138.207 22.45a5.832 5.832 0 0 1-4.352-1.97c-1.074-1.144-1.648-2.726-1.648-4.394 0-3.621 2.543-6.32 5.887-6.32 3.363 0 5.812 2.656 5.812 6.32 0 .355-.144.695-.398.945s-.594.387-.95.383h-7.488c.457 1.395 1.649 2.379 3.137 2.379.895 0 1.656-.188 2.2-.711.171-.164.32-.36.433-.57a1.335 1.335 0 1 1 2.289 1.375c-1.027 1.855-2.816 2.562-4.922 2.562m-3.16-7.715h6.023c-.457-1.578-1.718-2.312-2.976-2.312-1.239 0-2.567.73-3.047 2.312" fill="rgb(0%, 27.45098%, 50.196078%)" fill-rule="evenodd"/><g clip-path="url(#108__73__473__438__clip-33)"><g clip-path="url(#109__74__474__439__clip-34)"><path d="M130.98 8.54h14.157v15.14H130.98Zm0 0" fill="rgb(0%, 27.45098%, 50.196078%)"/></g></g></svg>