<?xml version="1.0" encoding="UTF-8"?>
<svg xmlns="http://www.w3.org/2000/svg" xmlns:xlink="http://www.w3.org/1999/xlink" width="32" height="32" viewBox="0 0 32 32">
<path fill-rule="nonzero" fill="rgb(0%, 0%, 0%)" fill-opacity="1" d="M 15.359375 0.640625 L 15.359375 12.160156 L 16.640625 12.160156 L 16.640625 0.640625 Z M 14.078125 2.714844 C 8.207031 3.558594 3.558594 8.207031 2.710938 14.078125 L 5.289062 14.078125 C 6.089844 9.621094 9.617188 6.101562 14.078125 5.300781 Z M 17.921875 2.714844 L 17.921875 5.300781 C 22.382812 6.097656 25.910156 9.621094 26.710938 14.078125 L 29.289062 14.078125 C 28.441406 8.207031 23.792969 3.558594 17.921875 2.714844 M 14.078125 8.574219 C 11.378906 9.273438 9.273438 11.378906 8.566406 14.078125 L 11.269531 14.078125 C 11.789062 12.796875 12.800781 11.78125 14.078125 11.257812 Z M 17.921875 8.574219 L 17.921875 11.257812 C 19.199219 11.78125 20.210938 12.796875 20.730469 14.078125 L 23.4375 14.078125 C 22.730469 11.378906 20.621094 9.277344 17.921875 8.574219 M 16.003906 14.074219 C 14.941406 14.074219 14.078125 14.9375 14.078125 16 C 14.078125 17.058594 14.941406 17.921875 16.003906 17.921875 C 17.0625 17.921875 17.886719 17.058594 17.886719 16 C 17.886719 14.941406 17.0625 14.078125 16.003906 14.078125 M 0.640625 15.359375 L 0.640625 16.640625 L 12.160156 16.640625 L 12.160156 15.359375 Z M 19.839844 15.359375 L 19.839844 16.640625 L 31.359375 16.640625 L 31.359375 15.359375 Z M 2.714844 17.921875 C 3.558594 23.792969 8.207031 28.441406 14.078125 29.289062 L 14.078125 26.710938 C 9.621094 25.910156 6.101562 22.382812 5.300781 17.921875 Z M 8.5625 17.921875 C 9.269531 20.617188 11.378906 22.722656 14.078125 23.425781 L 14.078125 20.742188 C 12.800781 20.21875 11.789062 19.203125 11.269531 17.921875 Z M 26.699219 17.921875 C 25.898438 22.382812 22.378906 25.910156 17.921875 26.710938 L 17.921875 29.289062 C 23.792969 28.441406 28.441406 23.792969 29.289062 17.921875 Z M 20.742188 17.921875 C 20.21875 19.199219 19.203125 20.210938 17.921875 20.730469 L 17.921875 23.4375 C 20.617188 22.730469 22.722656 20.621094 23.425781 17.921875 Z M 15.359375 19.839844 L 15.359375 31.359375 L 16.640625 31.359375 L 16.640625 19.839844 Z M 15.359375 19.839844 "/>
</svg>
