<?xml version="1.0" encoding="UTF-8"?>
<svg xmlns="http://www.w3.org/2000/svg" xmlns:xlink="http://www.w3.org/1999/xlink" width="32" height="32" viewBox="0 0 32 32">
<path fill-rule="nonzero"  fill-opacity="1" d="M 16 1.28125 C 7.882812 1.28125 1.28125 7.882812 1.28125 16 C 1.28125 24.117188 7.882812 30.71875 16 30.71875 C 24.117188 30.71875 30.71875 24.117188 30.71875 16 C 30.71875 7.882812 24.117188 1.28125 16 1.28125 Z M 21.574219 20.664062 C 21.824219 20.914062 21.824219 21.324219 21.574219 21.574219 C 21.445312 21.695312 21.285156 21.761719 21.121094 21.761719 C 20.953125 21.761719 20.792969 21.695312 20.664062 21.574219 L 16 16.910156 L 11.335938 21.574219 C 11.207031 21.695312 11.046875 21.761719 10.878906 21.761719 C 10.714844 21.761719 10.554688 21.695312 10.425781 21.574219 C 10.175781 21.324219 10.175781 20.914062 10.425781 20.664062 L 15.089844 16 L 10.425781 11.335938 C 10.175781 11.085938 10.175781 10.675781 10.425781 10.425781 C 10.675781 10.175781 11.085938 10.175781 11.335938 10.425781 L 16 15.089844 L 20.664062 10.425781 C 20.914062 10.175781 21.324219 10.175781 21.574219 10.425781 C 21.824219 10.675781 21.824219 11.085938 21.574219 11.335938 L 16.910156 16 Z M 21.574219 20.664062 "/>
</svg>
