<?xml version="1.0" encoding="UTF-8"?>
<svg xmlns="http://www.w3.org/2000/svg" xmlns:xlink="http://www.w3.org/1999/xlink" width="150.227005" height="32" viewBox="0 0 150.227005 32">
<defs>
<clipPath id="clip-0">
<path clip-rule="nonzero" d="M 11 10 L 15 10 L 15 31 L 11 31 Z M 11 10 "/>
</clipPath>
<clipPath id="clip-1">
<path clip-rule="nonzero" d="M 13.21875 10.777344 C 12.257812 10.777344 11.476562 11.558594 11.476562 12.519531 L 11.476562 28.914062 C 11.476562 29.875 12.257812 30.65625 13.21875 30.65625 C 14.179688 30.65625 14.960938 29.875 14.960938 28.914062 L 14.960938 12.519531 C 14.960938 11.558594 14.183594 10.777344 13.21875 10.777344 "/>
</clipPath>
<clipPath id="clip-2">
<path clip-rule="nonzero" d="M 6 1 L 21 1 L 21 25 L 6 25 Z M 6 1 "/>
</clipPath>
<clipPath id="clip-3">
<path clip-rule="nonzero" d="M 20.210938 8.628906 C 20.214844 8.519531 20.21875 8.40625 20.21875 8.296875 C 20.21875 8.1875 20.214844 8.078125 20.210938 7.972656 C 20.039062 4.265625 16.980469 1.347656 13.269531 1.347656 C 9.558594 1.347656 6.5 4.265625 6.324219 7.972656 C 6.320312 8.082031 6.316406 8.1875 6.316406 8.296875 C 6.316406 8.414062 6.320312 8.53125 6.328125 8.648438 C 6.324219 8.707031 6.316406 8.765625 6.316406 8.824219 L 6.316406 20.230469 C 6.324219 22.417969 8.097656 24.191406 10.285156 24.195312 L 16.253906 24.195312 C 18.441406 24.191406 20.214844 22.417969 20.21875 20.230469 L 20.21875 8.824219 C 20.21875 8.757812 20.214844 8.691406 20.210938 8.628906 "/>
</clipPath>
<clipPath id="clip-4">
<path clip-rule="nonzero" d="M 6.257812 3 L 20.496094 3 L 20.496094 24.203125 L 6.257812 24.203125 Z M 6.257812 3 "/>
</clipPath>
<clipPath id="clip-5">
<path clip-rule="nonzero" d="M 6.359375 7.972656 C 6.347656 8.199219 6.347656 8.425781 6.363281 8.648438 C 6.359375 8.707031 6.351562 8.765625 6.351562 8.824219 L 6.351562 20.230469 C 6.359375 22.417969 8.132812 24.1875 10.320312 24.195312 L 16.289062 24.195312 C 18.476562 24.191406 20.25 22.417969 20.253906 20.230469 L 20.253906 8.824219 C 20.253906 8.757812 20.246094 8.691406 20.246094 8.628906 C 20.25 8.519531 20.253906 8.40625 20.253906 8.296875 C 20.253906 8.1875 20.25 8.082031 20.246094 7.972656 C 20.074219 4.265625 17.015625 1.347656 13.304688 1.347656 C 9.59375 1.347656 6.535156 4.265625 6.359375 7.972656 M 6.359375 7.972656 "/>
</clipPath>
<clipPath id="clip-6">
<path clip-rule="nonzero" d="M 2.074219 20.324219 L 19.3125 3.085938 L 24.417969 8.191406 L 7.179688 25.429688 Z M 2.074219 20.324219 "/>
</clipPath>
<clipPath id="clip-7">
<path clip-rule="nonzero" d="M 6.257812 1.132812 L 19.511719 1.132812 L 19.511719 20.523438 L 6.257812 20.523438 Z M 6.257812 1.132812 "/>
</clipPath>
<clipPath id="clip-8">
<path clip-rule="nonzero" d="M 6.359375 7.972656 C 6.347656 8.199219 6.347656 8.425781 6.363281 8.648438 C 6.359375 8.707031 6.351562 8.765625 6.351562 8.824219 L 6.351562 20.230469 C 6.359375 22.417969 8.132812 24.1875 10.320312 24.195312 L 16.289062 24.195312 C 18.476562 24.191406 20.25 22.417969 20.253906 20.230469 L 20.253906 8.824219 C 20.253906 8.757812 20.246094 8.691406 20.246094 8.628906 C 20.25 8.519531 20.253906 8.40625 20.253906 8.296875 C 20.253906 8.1875 20.25 8.082031 20.246094 7.972656 C 20.074219 4.265625 17.015625 1.347656 13.304688 1.347656 C 9.59375 1.347656 6.535156 4.265625 6.359375 7.972656 M 6.359375 7.972656 "/>
</clipPath>
<clipPath id="clip-9">
<path clip-rule="nonzero" d="M -4.292969 13.953125 L 12.945312 -3.285156 L 19.296875 3.066406 L 2.058594 20.304688 Z M -4.292969 13.953125 "/>
</clipPath>
<clipPath id="clip-10">
<path clip-rule="nonzero" d="M 7 8.003906 L 20.496094 8.003906 L 20.496094 24.203125 L 7 24.203125 Z M 7 8.003906 "/>
</clipPath>
<clipPath id="clip-11">
<path clip-rule="nonzero" d="M 6.359375 7.972656 C 6.347656 8.199219 6.347656 8.425781 6.363281 8.648438 C 6.359375 8.707031 6.351562 8.765625 6.351562 8.824219 L 6.351562 20.230469 C 6.359375 22.417969 8.132812 24.1875 10.320312 24.195312 L 16.289062 24.195312 C 18.476562 24.191406 20.25 22.417969 20.253906 20.230469 L 20.253906 8.824219 C 20.253906 8.757812 20.246094 8.691406 20.246094 8.628906 C 20.25 8.519531 20.253906 8.40625 20.253906 8.296875 C 20.253906 8.1875 20.25 8.082031 20.246094 7.972656 C 20.074219 4.265625 17.015625 1.347656 13.304688 1.347656 C 9.59375 1.347656 6.535156 4.265625 6.359375 7.972656 M 6.359375 7.972656 "/>
</clipPath>
<clipPath id="clip-12">
<path clip-rule="nonzero" d="M 7.199219 25.445312 L 24.4375 8.207031 L 29.542969 13.3125 L 12.304688 30.550781 Z M 7.199219 25.445312 "/>
</clipPath>
<clipPath id="clip-13">
<path clip-rule="nonzero" d="M 11 24 L 15 24 L 15 28 L 11 28 Z M 11 24 "/>
</clipPath>
<clipPath id="clip-14">
<path clip-rule="nonzero" d="M 11.949219 24.214844 L 14.972656 27.238281 L 14.972656 24.191406 Z M 11.949219 24.214844 "/>
</clipPath>
<clipPath id="clip-15">
<path clip-rule="nonzero" d="M 27 6 L 42 6 L 42 23 L 27 23 Z M 27 6 "/>
</clipPath>
<clipPath id="clip-16">
<path clip-rule="nonzero" d="M 35.207031 22.335938 C 31.496094 22.339844 28.261719 19.808594 27.378906 16.203125 C 26.496094 12.597656 28.1875 8.859375 31.480469 7.144531 C 34.773438 5.433594 38.808594 6.191406 41.253906 8.984375 C 41.738281 9.535156 41.6875 10.375 41.136719 10.863281 C 40.875 11.101562 40.527344 11.222656 40.175781 11.199219 C 39.824219 11.179688 39.492188 11.015625 39.261719 10.746094 C 37.785156 9.066406 35.425781 8.472656 33.332031 9.257812 C 31.234375 10.042969 29.847656 12.046875 29.847656 14.285156 C 29.84375 16.523438 31.234375 18.53125 33.328125 19.316406 C 35.425781 20.105469 37.789062 19.507812 39.261719 17.824219 C 39.492188 17.554688 39.824219 17.394531 40.175781 17.371094 C 40.527344 17.351562 40.875 17.472656 41.136719 17.710938 C 41.6875 18.195312 41.738281 19.035156 41.253906 19.585938 C 39.730469 21.332031 37.523438 22.332031 35.207031 22.335938 "/>
</clipPath>
<clipPath id="clip-17">
<path clip-rule="nonzero" d="M 43 9 L 51 9 L 51 23 L 43 23 Z M 43 9 "/>
</clipPath>
<clipPath id="clip-18">
<path clip-rule="nonzero" d="M 50.207031 11.320312 C 50.203125 11.675781 50.058594 12.019531 49.808594 12.265625 C 49.554688 12.515625 49.210938 12.652344 48.855469 12.648438 C 47.390625 12.648438 46.289062 13.839844 46.289062 15.464844 L 46.289062 21.007812 C 46.289062 21.742188 45.695312 22.335938 44.960938 22.335938 C 44.226562 22.335938 43.632812 21.742188 43.632812 21.007812 L 43.632812 11.046875 C 43.632812 10.378906 44.128906 9.816406 44.789062 9.730469 C 45.449219 9.644531 46.074219 10.058594 46.246094 10.703125 C 47.039062 10.238281 47.9375 9.992188 48.855469 9.992188 C 49.210938 9.988281 49.554688 10.125 49.808594 10.375 C 50.058594 10.625 50.203125 10.964844 50.207031 11.320312 "/>
</clipPath>
<clipPath id="clip-19">
<path clip-rule="nonzero" d="M 50 9 L 64 9 L 64 23 L 50 23 Z M 50 9 "/>
</clipPath>
<clipPath id="clip-20">
<path clip-rule="nonzero" d="M 56.960938 22.40625 C 53.476562 22.398438 50.65625 19.570312 50.664062 16.085938 C 50.667969 12.601562 53.5 9.78125 56.984375 9.789062 C 60.46875 9.792969 63.289062 12.625 63.28125 16.109375 C 63.273438 19.59375 60.445312 22.410156 56.960938 22.40625 M 56.960938 12.445312 C 55.992188 12.441406 55.0625 12.824219 54.375 13.507812 C 53.6875 14.1875 53.300781 15.117188 53.296875 16.085938 C 53.292969 18.101562 54.921875 19.742188 56.9375 19.746094 C 57.90625 19.75 58.835938 19.367188 59.523438 18.6875 C 60.210938 18.003906 60.597656 17.074219 60.601562 16.105469 C 60.605469 14.089844 58.976562 12.453125 56.960938 12.445312 "/>
</clipPath>
<clipPath id="clip-21">
<path clip-rule="nonzero" d="M 65 9 L 74 9 L 74 23 L 65 23 Z M 65 9 "/>
</clipPath>
<clipPath id="clip-22">
<path clip-rule="nonzero" d="M 65.480469 20.023438 C 65.328125 19.703125 65.3125 19.339844 65.433594 19.007812 C 65.554688 18.679688 65.800781 18.410156 66.121094 18.261719 C 66.4375 18.113281 66.804688 18.09375 67.136719 18.214844 C 67.464844 18.335938 67.734375 18.582031 67.882812 18.902344 C 68.066406 19.269531 68.570312 19.679688 69.464844 19.679688 C 70.699219 19.679688 71.136719 18.925781 71.136719 18.421875 C 71.136719 17.734375 70.953125 17.527344 69.164062 17.070312 C 68.363281 16.886719 67.539062 16.679688 66.832031 16.222656 C 65.882812 15.617188 65.316406 14.558594 65.339844 13.429688 C 65.355469 12.457031 65.761719 11.535156 66.464844 10.863281 C 67.21875 10.132812 68.273438 9.71875 69.464844 9.71875 C 71.15625 9.71875 72.601562 10.542969 73.21875 11.894531 C 73.496094 12.554688 73.207031 13.316406 72.558594 13.617188 C 71.910156 13.917969 71.136719 13.652344 70.8125 13.015625 C 70.675781 12.71875 70.242188 12.375 69.464844 12.375 C 68.410156 12.375 68.019531 13.039062 68.019531 13.429688 C 68.019531 13.886719 68.113281 14.070312 69.808594 14.503906 C 71.296875 14.871094 73.789062 15.488281 73.789062 18.421875 C 73.78125 19.4375 73.367188 20.410156 72.644531 21.121094 C 72.074219 21.671875 71.066406 22.335938 69.464844 22.335938 C 67.65625 22.335938 66.121094 21.441406 65.480469 20.023438 "/>
</clipPath>
<clipPath id="clip-23">
<path clip-rule="nonzero" d="M 75 9 L 85 9 L 85 23 L 75 23 Z M 75 9 "/>
</clipPath>
<clipPath id="clip-24">
<path clip-rule="nonzero" d="M 75.988281 20.023438 C 75.679688 19.359375 75.96875 18.570312 76.632812 18.261719 C 76.953125 18.113281 77.316406 18.09375 77.648438 18.214844 C 77.976562 18.335938 78.246094 18.582031 78.394531 18.902344 C 78.578125 19.269531 79.082031 19.679688 79.972656 19.679688 C 81.210938 19.679688 81.644531 18.925781 81.644531 18.421875 C 81.644531 17.734375 81.460938 17.527344 79.675781 17.070312 C 78.875 16.886719 78.050781 16.679688 77.339844 16.222656 C 76.390625 15.617188 75.828125 14.558594 75.851562 13.429688 C 75.867188 12.457031 76.273438 11.535156 76.976562 10.863281 C 77.730469 10.132812 78.785156 9.71875 79.972656 9.71875 C 81.667969 9.71875 83.113281 10.542969 83.730469 11.894531 C 84.007812 12.554688 83.714844 13.316406 83.066406 13.617188 C 82.417969 13.917969 81.648438 13.652344 81.324219 13.015625 C 81.1875 12.71875 80.753906 12.375 79.972656 12.375 C 78.921875 12.375 78.53125 13.039062 78.53125 13.429688 C 78.53125 13.886719 78.625 14.070312 80.316406 14.503906 C 81.804688 14.871094 84.300781 15.488281 84.300781 18.421875 C 84.289062 19.4375 83.878906 20.40625 83.15625 21.121094 C 82.585938 21.671875 81.578125 22.335938 79.972656 22.335938 C 78.164062 22.335938 76.632812 21.441406 75.988281 20.023438 "/>
</clipPath>
<clipPath id="clip-25">
<path clip-rule="nonzero" d="M 86 9 L 99 9 L 99 29 L 86 29 Z M 86 9 "/>
</clipPath>
<clipPath id="clip-26">
<path clip-rule="nonzero" d="M 98.363281 16.015625 C 98.363281 17.710938 97.789062 19.269531 96.714844 20.4375 C 95.597656 21.65625 94.015625 22.347656 92.363281 22.335938 C 91.179688 22.335938 90.023438 21.984375 89.042969 21.328125 L 89.042969 26.734375 C 89.03125 27.472656 88.429688 28.0625 87.691406 28.0625 C 86.960938 28.0625 86.367188 27.46875 86.363281 26.734375 L 86.363281 11.046875 C 86.363281 10.3125 86.957031 9.71875 87.691406 9.71875 C 88.3125 9.722656 88.851562 10.144531 88.996094 10.75 C 89.988281 10.078125 91.164062 9.71875 92.363281 9.71875 C 94.015625 9.699219 95.597656 10.382812 96.714844 11.597656 C 97.789062 12.765625 98.363281 14.34375 98.363281 16.015625 M 95.707031 16.015625 C 95.707031 13.910156 94.308594 12.375 92.363281 12.375 C 90.4375 12.375 89.042969 13.910156 89.042969 16.015625 C 89.042969 18.125 90.4375 19.65625 92.363281 19.65625 C 94.308594 19.65625 95.707031 18.125 95.707031 16.015625 "/>
</clipPath>
<clipPath id="clip-27">
<path clip-rule="nonzero" d="M 100 6 L 104 6 L 104 23 L 100 23 Z M 100 6 "/>
</clipPath>
<clipPath id="clip-28">
<path clip-rule="nonzero" d="M 101.867188 22.335938 C 101.515625 22.335938 101.175781 22.195312 100.925781 21.949219 C 100.679688 21.699219 100.539062 21.359375 100.539062 21.007812 L 100.539062 7.589844 C 100.539062 6.855469 101.132812 6.261719 101.867188 6.261719 C 102.605469 6.261719 103.207031 6.851562 103.21875 7.589844 L 103.21875 21.007812 C 103.207031 21.746094 102.605469 22.335938 101.867188 22.335938 "/>
</clipPath>
<clipPath id="clip-29">
<path clip-rule="nonzero" d="M 105 9 L 118 9 L 118 23 L 105 23 Z M 105 9 "/>
</clipPath>
<clipPath id="clip-30">
<path clip-rule="nonzero" d="M 117.390625 11.046875 L 117.390625 21.007812 C 117.386719 21.683594 116.878906 22.25 116.207031 22.328125 C 115.535156 22.402344 114.914062 21.964844 114.757812 21.304688 C 113.765625 21.980469 112.59375 22.339844 111.394531 22.335938 C 109.738281 22.355469 108.15625 21.664062 107.042969 20.4375 C 105.988281 19.289062 105.390625 17.710938 105.390625 16.039062 C 105.390625 14.34375 105.988281 12.765625 107.042969 11.621094 C 108.152344 10.390625 109.738281 9.699219 111.394531 9.71875 C 112.59375 9.710938 113.769531 10.074219 114.757812 10.75 C 114.914062 10.09375 115.535156 9.652344 116.207031 9.726562 C 116.878906 9.804688 117.386719 10.371094 117.390625 11.046875 M 114.734375 16.039062 C 114.734375 13.910156 113.316406 12.375 111.394531 12.375 C 109.445312 12.375 108.050781 13.910156 108.050781 16.039062 C 108.050781 18.144531 109.445312 19.679688 111.394531 19.679688 C 113.316406 19.679688 114.734375 18.144531 114.734375 16.039062 "/>
</clipPath>
<clipPath id="clip-31">
<path clip-rule="nonzero" d="M 119 9 L 131 9 L 131 23 L 119 23 Z M 119 9 "/>
</clipPath>
<clipPath id="clip-32">
<path clip-rule="nonzero" d="M 130.148438 15.191406 L 130.148438 21.007812 C 130.140625 21.742188 129.542969 22.335938 128.808594 22.335938 C 128.070312 22.335938 127.472656 21.742188 127.46875 21.007812 L 127.46875 15.191406 C 127.46875 13.839844 126.710938 12.375 125.019531 12.375 C 123.484375 12.375 122.339844 13.589844 122.339844 15.191406 L 122.339844 21.007812 C 122.339844 21.742188 121.746094 22.335938 121.011719 22.335938 C 120.277344 22.335938 119.683594 21.742188 119.683594 21.007812 L 119.683594 11.046875 C 119.683594 10.421875 120.121094 9.878906 120.730469 9.746094 C 121.34375 9.613281 121.964844 9.925781 122.222656 10.496094 C 123.0625 9.980469 124.035156 9.710938 125.019531 9.71875 C 127.925781 9.71875 130.148438 12.078125 130.148438 15.191406 "/>
</clipPath>
<clipPath id="clip-33">
<path clip-rule="nonzero" d="M 132 9 L 144 9 L 144 23 L 132 23 Z M 132 9 "/>
</clipPath>
<clipPath id="clip-34">
<path clip-rule="nonzero" d="M 138.207031 22.449219 C 136.542969 22.445312 134.957031 21.726562 133.855469 20.480469 C 132.78125 19.335938 132.207031 17.753906 132.207031 16.085938 C 132.207031 12.464844 134.75 9.765625 138.09375 9.765625 C 141.457031 9.765625 143.90625 12.421875 143.90625 16.085938 C 143.90625 16.441406 143.761719 16.78125 143.507812 17.03125 C 143.253906 17.28125 142.914062 17.417969 142.558594 17.414062 L 135.070312 17.414062 C 135.527344 18.808594 136.71875 19.792969 138.207031 19.792969 C 139.101562 19.792969 139.863281 19.605469 140.40625 19.082031 C 140.578125 18.917969 140.726562 18.722656 140.839844 18.511719 C 141.21875 17.878906 142.039062 17.675781 142.671875 18.054688 C 143.304688 18.433594 143.507812 19.253906 143.128906 19.886719 C 142.101562 21.742188 140.3125 22.449219 138.207031 22.449219 M 135.046875 14.734375 L 141.070312 14.734375 C 140.613281 13.15625 139.351562 12.421875 138.09375 12.421875 C 136.855469 12.421875 135.527344 13.152344 135.046875 14.734375 "/>
</clipPath>
</defs>
<g clip-path="url(#clip-0)">
<g clip-path="url(#clip-1)">
<path fill-rule="nonzero" fill="rgb(96.862745%, 81.960784%, 52.54902%)" fill-opacity="1" d="M 10.25 9.550781 L 16.1875 9.550781 L 16.1875 31.882812 L 10.25 31.882812 Z M 10.25 9.550781 "/>
</g>
</g>
<g clip-path="url(#clip-2)">
<g clip-path="url(#clip-3)">
<path fill-rule="nonzero" fill="rgb(100%, 57.254902%, 20.392157%)" fill-opacity="1" d="M 5.089844 0.117188 L 21.449219 0.117188 L 21.449219 25.425781 L 5.089844 25.425781 Z M 5.089844 0.117188 "/>
</g>
</g>
<g clip-path="url(#clip-4)">
<g clip-path="url(#clip-5)">
<g clip-path="url(#clip-6)">
<path fill-rule="nonzero" fill="rgb(100%, 80.392157%, 23.529412%)" fill-opacity="1" d="M 0.847656 1.855469 L 25.648438 1.855469 L 25.648438 26.65625 L 0.847656 26.65625 Z M 0.847656 1.855469 "/>
</g>
</g>
</g>
<g clip-path="url(#clip-7)">
<g clip-path="url(#clip-8)">
<g clip-path="url(#clip-9)">
<path fill-rule="nonzero" fill="rgb(95.294118%, 50.196078%, 48.235294%)" fill-opacity="1" d="M -5.523438 -4.511719 L 20.523438 -4.511719 L 20.523438 21.535156 L -5.523438 21.535156 Z M -5.523438 -4.511719 "/>
</g>
</g>
</g>
<g clip-path="url(#clip-10)">
<g clip-path="url(#clip-11)">
<g clip-path="url(#clip-12)">
<path fill-rule="nonzero" fill="rgb(20.784314%, 81.568627%, 72.941176%)" fill-opacity="1" d="M 5.96875 6.980469 L 30.769531 6.980469 L 30.769531 31.777344 L 5.96875 31.777344 Z M 5.96875 6.980469 "/>
</g>
</g>
</g>
<g clip-path="url(#clip-13)">
<g clip-path="url(#clip-14)">
<path fill-rule="nonzero" fill="rgb(84.705882%, 68.235294%, 39.215686%)" fill-opacity="1" d="M 10.722656 22.964844 L 16.199219 22.964844 L 16.199219 28.464844 L 10.722656 28.464844 Z M 10.722656 22.964844 "/>
</g>
</g>
<path fill-rule="evenodd" fill="rgb(0%, 27.45098%, 50.196078%)" fill-opacity="1" d="M 35.207031 22.335938 C 31.496094 22.339844 28.261719 19.808594 27.378906 16.203125 C 26.496094 12.597656 28.1875 8.859375 31.480469 7.144531 C 34.773438 5.433594 38.808594 6.191406 41.253906 8.984375 C 41.738281 9.535156 41.6875 10.375 41.136719 10.863281 C 40.875 11.101562 40.527344 11.222656 40.175781 11.199219 C 39.824219 11.179688 39.492188 11.015625 39.261719 10.746094 C 37.785156 9.066406 35.425781 8.472656 33.332031 9.257812 C 31.234375 10.042969 29.847656 12.046875 29.847656 14.285156 C 29.84375 16.523438 31.234375 18.53125 33.328125 19.316406 C 35.425781 20.105469 37.789062 19.507812 39.261719 17.824219 C 39.492188 17.554688 39.824219 17.394531 40.175781 17.371094 C 40.527344 17.351562 40.875 17.472656 41.136719 17.710938 C 41.6875 18.195312 41.738281 19.035156 41.253906 19.585938 C 39.730469 21.332031 37.523438 22.332031 35.207031 22.335938 "/>
<g clip-path="url(#clip-15)">
<g clip-path="url(#clip-16)">
<path fill-rule="nonzero" fill="rgb(0%, 27.45098%, 50.196078%)" fill-opacity="1" d="M 25.941406 5.011719 L 42.8125 5.011719 L 42.8125 23.5625 L 25.941406 23.5625 Z M 25.941406 5.011719 "/>
</g>
</g>
<path fill-rule="evenodd" fill="rgb(0%, 27.45098%, 50.196078%)" fill-opacity="1" d="M 50.207031 11.320312 C 50.203125 11.675781 50.058594 12.019531 49.808594 12.265625 C 49.554688 12.515625 49.210938 12.652344 48.855469 12.648438 C 47.390625 12.648438 46.289062 13.839844 46.289062 15.464844 L 46.289062 21.007812 C 46.289062 21.742188 45.695312 22.335938 44.960938 22.335938 C 44.226562 22.335938 43.632812 21.742188 43.632812 21.007812 L 43.632812 11.046875 C 43.632812 10.378906 44.128906 9.816406 44.789062 9.730469 C 45.449219 9.644531 46.074219 10.058594 46.246094 10.703125 C 47.039062 10.238281 47.9375 9.992188 48.855469 9.992188 C 49.210938 9.988281 49.554688 10.125 49.808594 10.375 C 50.058594 10.625 50.203125 10.964844 50.207031 11.320312 "/>
<g clip-path="url(#clip-17)">
<g clip-path="url(#clip-18)">
<path fill-rule="nonzero" fill="rgb(0%, 27.45098%, 50.196078%)" fill-opacity="1" d="M 42.40625 8.492188 L 51.433594 8.492188 L 51.433594 23.5625 L 42.40625 23.5625 Z M 42.40625 8.492188 "/>
</g>
</g>
<path fill-rule="evenodd" fill="rgb(0%, 27.45098%, 50.196078%)" fill-opacity="1" d="M 56.960938 22.40625 C 53.476562 22.398438 50.65625 19.570312 50.664062 16.085938 C 50.667969 12.601562 53.5 9.78125 56.984375 9.789062 C 60.46875 9.792969 63.289062 12.625 63.28125 16.109375 C 63.273438 19.59375 60.445312 22.410156 56.960938 22.40625 M 56.960938 12.445312 C 55.992188 12.441406 55.0625 12.824219 54.375 13.507812 C 53.6875 14.1875 53.300781 15.117188 53.296875 16.085938 C 53.292969 18.101562 54.921875 19.742188 56.9375 19.746094 C 57.90625 19.75 58.835938 19.367188 59.523438 18.6875 C 60.210938 18.003906 60.597656 17.074219 60.601562 16.105469 C 60.605469 14.089844 58.976562 12.453125 56.960938 12.445312 "/>
<g clip-path="url(#clip-19)">
<g clip-path="url(#clip-20)">
<path fill-rule="nonzero" fill="rgb(0%, 27.45098%, 50.196078%)" fill-opacity="1" d="M 49.4375 8.558594 L 64.507812 8.558594 L 64.507812 23.632812 L 49.4375 23.632812 Z M 49.4375 8.558594 "/>
</g>
</g>
<path fill-rule="evenodd" fill="rgb(0%, 27.45098%, 50.196078%)" fill-opacity="1" d="M 65.480469 20.023438 C 65.328125 19.703125 65.3125 19.339844 65.433594 19.007812 C 65.554688 18.679688 65.800781 18.410156 66.121094 18.261719 C 66.4375 18.113281 66.804688 18.09375 67.136719 18.214844 C 67.464844 18.335938 67.734375 18.582031 67.882812 18.902344 C 68.066406 19.269531 68.570312 19.679688 69.464844 19.679688 C 70.699219 19.679688 71.136719 18.925781 71.136719 18.421875 C 71.136719 17.734375 70.953125 17.527344 69.164062 17.070312 C 68.363281 16.886719 67.539062 16.679688 66.832031 16.222656 C 65.882812 15.617188 65.316406 14.558594 65.339844 13.429688 C 65.355469 12.457031 65.761719 11.535156 66.464844 10.863281 C 67.21875 10.132812 68.273438 9.71875 69.464844 9.71875 C 71.15625 9.71875 72.601562 10.542969 73.21875 11.894531 C 73.496094 12.554688 73.207031 13.316406 72.558594 13.617188 C 71.910156 13.917969 71.136719 13.652344 70.8125 13.015625 C 70.675781 12.71875 70.242188 12.375 69.464844 12.375 C 68.410156 12.375 68.019531 13.039062 68.019531 13.429688 C 68.019531 13.886719 68.113281 14.070312 69.808594 14.503906 C 71.296875 14.871094 73.789062 15.488281 73.789062 18.421875 C 73.78125 19.4375 73.367188 20.410156 72.644531 21.121094 C 72.074219 21.671875 71.066406 22.335938 69.464844 22.335938 C 67.65625 22.335938 66.121094 21.441406 65.480469 20.023438 "/>
<g clip-path="url(#clip-21)">
<g clip-path="url(#clip-22)">
<path fill-rule="nonzero" fill="rgb(0%, 27.45098%, 50.196078%)" fill-opacity="1" d="M 64.113281 8.492188 L 75.019531 8.492188 L 75.019531 23.5625 L 64.113281 23.5625 Z M 64.113281 8.492188 "/>
</g>
</g>
<path fill-rule="evenodd" fill="rgb(0%, 27.45098%, 50.196078%)" fill-opacity="1" d="M 75.988281 20.023438 C 75.679688 19.359375 75.96875 18.570312 76.632812 18.261719 C 76.953125 18.113281 77.316406 18.09375 77.648438 18.214844 C 77.976562 18.335938 78.246094 18.582031 78.394531 18.902344 C 78.578125 19.269531 79.082031 19.679688 79.972656 19.679688 C 81.210938 19.679688 81.644531 18.925781 81.644531 18.421875 C 81.644531 17.734375 81.460938 17.527344 79.675781 17.070312 C 78.875 16.886719 78.050781 16.679688 77.339844 16.222656 C 76.390625 15.617188 75.828125 14.558594 75.851562 13.429688 C 75.867188 12.457031 76.273438 11.535156 76.976562 10.863281 C 77.730469 10.132812 78.785156 9.71875 79.972656 9.71875 C 81.667969 9.71875 83.113281 10.542969 83.730469 11.894531 C 84.007812 12.554688 83.714844 13.316406 83.066406 13.617188 C 82.417969 13.917969 81.648438 13.652344 81.324219 13.015625 C 81.1875 12.71875 80.753906 12.375 79.972656 12.375 C 78.921875 12.375 78.53125 13.039062 78.53125 13.429688 C 78.53125 13.886719 78.625 14.070312 80.316406 14.503906 C 81.804688 14.871094 84.300781 15.488281 84.300781 18.421875 C 84.289062 19.4375 83.878906 20.40625 83.15625 21.121094 C 82.585938 21.671875 81.578125 22.335938 79.972656 22.335938 C 78.164062 22.335938 76.632812 21.441406 75.988281 20.023438 "/>
<g clip-path="url(#clip-23)">
<g clip-path="url(#clip-24)">
<path fill-rule="nonzero" fill="rgb(0%, 27.45098%, 50.196078%)" fill-opacity="1" d="M 74.625 8.492188 L 85.53125 8.492188 L 85.53125 23.5625 L 74.625 23.5625 Z M 74.625 8.492188 "/>
</g>
</g>
<path fill-rule="evenodd" fill="rgb(0%, 27.45098%, 50.196078%)" fill-opacity="1" d="M 98.363281 16.015625 C 98.363281 17.710938 97.789062 19.269531 96.714844 20.4375 C 95.597656 21.65625 94.015625 22.347656 92.363281 22.335938 C 91.179688 22.335938 90.023438 21.984375 89.042969 21.328125 L 89.042969 26.734375 C 89.03125 27.472656 88.429688 28.0625 87.691406 28.0625 C 86.960938 28.0625 86.367188 27.46875 86.363281 26.734375 L 86.363281 11.046875 C 86.363281 10.3125 86.957031 9.71875 87.691406 9.71875 C 88.3125 9.722656 88.851562 10.144531 88.996094 10.75 C 89.988281 10.078125 91.164062 9.71875 92.363281 9.71875 C 94.015625 9.699219 95.597656 10.382812 96.714844 11.597656 C 97.789062 12.765625 98.363281 14.34375 98.363281 16.015625 M 95.707031 16.015625 C 95.707031 13.910156 94.308594 12.375 92.363281 12.375 C 90.4375 12.375 89.042969 13.910156 89.042969 16.015625 C 89.042969 18.125 90.4375 19.65625 92.363281 19.65625 C 94.308594 19.65625 95.707031 18.125 95.707031 16.015625 "/>
<g clip-path="url(#clip-25)">
<g clip-path="url(#clip-26)">
<path fill-rule="nonzero" fill="rgb(0%, 27.45098%, 50.196078%)" fill-opacity="1" d="M 85.136719 8.492188 L 99.589844 8.492188 L 99.589844 29.289062 L 85.136719 29.289062 Z M 85.136719 8.492188 "/>
</g>
</g>
<path fill-rule="evenodd" fill="rgb(0%, 27.45098%, 50.196078%)" fill-opacity="1" d="M 101.867188 22.335938 C 101.515625 22.335938 101.175781 22.195312 100.925781 21.949219 C 100.679688 21.699219 100.539062 21.359375 100.539062 21.007812 L 100.539062 7.589844 C 100.539062 6.855469 101.132812 6.261719 101.867188 6.261719 C 102.605469 6.261719 103.207031 6.851562 103.21875 7.589844 L 103.21875 21.007812 C 103.207031 21.746094 102.605469 22.335938 101.867188 22.335938 "/>
<g clip-path="url(#clip-27)">
<g clip-path="url(#clip-28)">
<path fill-rule="nonzero" fill="rgb(0%, 27.45098%, 50.196078%)" fill-opacity="1" d="M 99.3125 5.035156 L 104.445312 5.035156 L 104.445312 23.5625 L 99.3125 23.5625 Z M 99.3125 5.035156 "/>
</g>
</g>
<path fill-rule="evenodd" fill="rgb(0%, 27.45098%, 50.196078%)" fill-opacity="1" d="M 117.390625 11.046875 L 117.390625 21.007812 C 117.386719 21.683594 116.878906 22.25 116.207031 22.328125 C 115.535156 22.402344 114.914062 21.964844 114.757812 21.304688 C 113.765625 21.980469 112.59375 22.339844 111.394531 22.335938 C 109.738281 22.355469 108.15625 21.664062 107.042969 20.4375 C 105.988281 19.289062 105.390625 17.710938 105.390625 16.039062 C 105.390625 14.34375 105.988281 12.765625 107.042969 11.621094 C 108.152344 10.390625 109.738281 9.699219 111.394531 9.71875 C 112.59375 9.710938 113.769531 10.074219 114.757812 10.75 C 114.914062 10.09375 115.535156 9.652344 116.207031 9.726562 C 116.878906 9.804688 117.386719 10.371094 117.390625 11.046875 M 114.734375 16.039062 C 114.734375 13.910156 113.316406 12.375 111.394531 12.375 C 109.445312 12.375 108.050781 13.910156 108.050781 16.039062 C 108.050781 18.144531 109.445312 19.679688 111.394531 19.679688 C 113.316406 19.679688 114.734375 18.144531 114.734375 16.039062 "/>
<g clip-path="url(#clip-29)">
<g clip-path="url(#clip-30)">
<path fill-rule="nonzero" fill="rgb(0%, 27.45098%, 50.196078%)" fill-opacity="1" d="M 104.164062 8.492188 L 118.617188 8.492188 L 118.617188 23.5625 L 104.164062 23.5625 Z M 104.164062 8.492188 "/>
</g>
</g>
<path fill-rule="evenodd" fill="rgb(0%, 27.45098%, 50.196078%)" fill-opacity="1" d="M 130.148438 15.191406 L 130.148438 21.007812 C 130.140625 21.742188 129.542969 22.335938 128.808594 22.335938 C 128.070312 22.335938 127.472656 21.742188 127.46875 21.007812 L 127.46875 15.191406 C 127.46875 13.839844 126.710938 12.375 125.019531 12.375 C 123.484375 12.375 122.339844 13.589844 122.339844 15.191406 L 122.339844 21.007812 C 122.339844 21.742188 121.746094 22.335938 121.011719 22.335938 C 120.277344 22.335938 119.683594 21.742188 119.683594 21.007812 L 119.683594 11.046875 C 119.683594 10.421875 120.121094 9.878906 120.730469 9.746094 C 121.34375 9.613281 121.964844 9.925781 122.222656 10.496094 C 123.0625 9.980469 124.035156 9.710938 125.019531 9.71875 C 127.925781 9.71875 130.148438 12.078125 130.148438 15.191406 "/>
<g clip-path="url(#clip-31)">
<g clip-path="url(#clip-32)">
<path fill-rule="nonzero" fill="rgb(0%, 27.45098%, 50.196078%)" fill-opacity="1" d="M 118.453125 8.492188 L 131.375 8.492188 L 131.375 23.5625 L 118.453125 23.5625 Z M 118.453125 8.492188 "/>
</g>
</g>
<path fill-rule="evenodd" fill="rgb(0%, 27.45098%, 50.196078%)" fill-opacity="1" d="M 138.207031 22.449219 C 136.542969 22.445312 134.957031 21.726562 133.855469 20.480469 C 132.78125 19.335938 132.207031 17.753906 132.207031 16.085938 C 132.207031 12.464844 134.75 9.765625 138.09375 9.765625 C 141.457031 9.765625 143.90625 12.421875 143.90625 16.085938 C 143.90625 16.441406 143.761719 16.78125 143.507812 17.03125 C 143.253906 17.28125 142.914062 17.417969 142.558594 17.414062 L 135.070312 17.414062 C 135.527344 18.808594 136.71875 19.792969 138.207031 19.792969 C 139.101562 19.792969 139.863281 19.605469 140.40625 19.082031 C 140.578125 18.917969 140.726562 18.722656 140.839844 18.511719 C 141.21875 17.878906 142.039062 17.675781 142.671875 18.054688 C 143.304688 18.433594 143.507812 19.253906 143.128906 19.886719 C 142.101562 21.742188 140.3125 22.449219 138.207031 22.449219 M 135.046875 14.734375 L 141.070312 14.734375 C 140.613281 13.15625 139.351562 12.421875 138.09375 12.421875 C 136.855469 12.421875 135.527344 13.152344 135.046875 14.734375 "/>
<g clip-path="url(#clip-33)">
<g clip-path="url(#clip-34)">
<path fill-rule="nonzero" fill="rgb(0%, 27.45098%, 50.196078%)" fill-opacity="1" d="M 130.980469 8.539062 L 145.136719 8.539062 L 145.136719 23.679688 L 130.980469 23.679688 Z M 130.980469 8.539062 "/>
</g>
</g>
</svg>
