<?xml version="1.0" encoding="UTF-8"?>
<svg xmlns="http://www.w3.org/2000/svg" xmlns:xlink="http://www.w3.org/1999/xlink" width="32" height="32" viewBox="0 0 32 32">
<path fill-rule="nonzero" fill-opacity="1" d="M 16 1.28125 C 7.878906 1.28125 1.28125 7.878906 1.28125 16 C 1.28125 24.121094 7.878906 30.71875 16 30.71875 C 24.121094 30.71875 30.71875 24.121094 30.71875 16 C 30.71875 7.878906 24.121094 1.28125 16 1.28125 Z M 16 2.558594 C 23.429688 2.558594 29.441406 8.570312 29.441406 16 C 29.441406 23.429688 23.429688 29.441406 16 29.441406 C 8.570312 29.441406 2.558594 23.429688 2.558594 16 C 2.558594 8.570312 8.570312 2.558594 16 2.558594 Z M 21.113281 10.230469 C 20.945312 10.234375 20.785156 10.304688 20.667969 10.425781 L 16 15.09375 L 11.332031 10.425781 C 11.210938 10.304688 11.046875 10.234375 10.875 10.234375 C 10.613281 10.234375 10.378906 10.390625 10.28125 10.632812 C 10.183594 10.875 10.242188 11.152344 10.425781 11.332031 L 15.09375 16 L 10.425781 20.667969 C 10.261719 20.828125 10.191406 21.066406 10.25 21.289062 C 10.308594 21.515625 10.484375 21.691406 10.710938 21.75 C 10.933594 21.808594 11.171875 21.738281 11.332031 21.574219 L 16 16.90625 L 20.667969 21.574219 C 20.828125 21.738281 21.066406 21.808594 21.289062 21.75 C 21.515625 21.691406 21.691406 21.515625 21.75 21.289062 C 21.808594 21.066406 21.738281 20.828125 21.574219 20.667969 L 16.90625 16 L 21.574219 11.332031 C 21.761719 11.148438 21.820312 10.867188 21.71875 10.625 C 21.617188 10.382812 21.378906 10.226562 21.113281 10.230469 Z M 21.113281 10.230469 "/>
</svg>
