<svg role="img" viewBox="0 0 32 32" height="32" width="32" xmlns="http://www.w3.org/2000/svg"><path d="M15.36.64v11.52h1.28V.64Zm-1.282 2.075c-5.871.844-10.52 5.492-11.367 11.363h2.578c.8-4.457 4.328-7.976 8.79-8.777Zm3.844 0V5.3c4.46.797 7.988 4.32 8.789 8.777h2.578c-.848-5.871-5.496-10.52-11.367-11.363m-3.844 5.86a7.7 7.7 0 0 0-5.512 5.503h2.704a5.14 5.14 0 0 1 2.808-2.82Zm3.844 0v2.683a5.128 5.128 0 0 1 2.808 2.82h2.707a7.712 7.712 0 0 0-5.515-5.504m-1.918 5.503A1.926 1.926 0 0 0 14.078 16c0 1.059.863 1.922 1.926 1.922 1.058 0 1.883-.863 1.883-1.922s-.825-1.922-1.883-1.922M.64 15.36v1.282h11.52V15.36Zm19.199 0v1.282h11.52V15.36ZM2.715 17.922c.844 5.871 5.492 10.52 11.363 11.367v-2.578c-4.457-.8-7.976-4.328-8.777-8.79Zm5.848 0a7.712 7.712 0 0 0 5.515 5.504v-2.684a5.128 5.128 0 0 1-2.808-2.82Zm18.136 0c-.8 4.46-4.32 7.988-8.777 8.789v2.578c5.871-.848 10.52-5.496 11.367-11.367Zm-5.957 0a5.128 5.128 0 0 1-2.82 2.808v2.707a7.712 7.712 0 0 0 5.504-5.515ZM15.36 19.84v11.52h1.282V19.84Zm0 0"/></svg>