<?xml version="1.0" encoding="UTF-8"?>
<svg xmlns="http://www.w3.org/2000/svg" xmlns:xlink="http://www.w3.org/1999/xlink" width="32" height="32" viewBox="0 0 32 32">
<defs>
<clipPath id="clip-0">
<path clip-rule="nonzero" d="M 14 11 L 18 11 L 18 30 L 14 30 Z M 14 11 "/>
</clipPath>
<clipPath id="clip-1">
<path clip-rule="nonzero" d="M 15.917969 11.015625 C 15 11.015625 14.257812 11.757812 14.257812 12.675781 L 14.257812 28.324219 C 14.257812 29.242188 15.003906 29.984375 15.921875 29.984375 C 16.839844 29.984375 17.582031 29.242188 17.582031 28.324219 L 17.582031 12.675781 C 17.582031 11.757812 16.835938 11.015625 15.917969 11.015625 "/>
</clipPath>
<clipPath id="clip-2">
<path clip-rule="nonzero" d="M 9.277344 3.449219 L 22.863281 3.449219 L 22.863281 23.828125 L 9.277344 23.828125 Z M 9.277344 3.449219 "/>
</clipPath>
<clipPath id="clip-3">
<path clip-rule="nonzero" d="M 9.375 8.339844 C 9.367188 8.441406 9.367188 8.542969 9.367188 8.648438 C 9.367188 8.761719 9.367188 8.875 9.375 8.984375 C 9.371094 9.039062 9.367188 9.09375 9.367188 9.152344 L 9.367188 20.039062 C 9.371094 22.128906 11.0625 23.820312 13.152344 23.824219 L 18.847656 23.824219 C 20.9375 23.820312 22.628906 22.128906 22.632812 20.039062 L 22.632812 9.152344 C 22.632812 9.085938 22.625 9.027344 22.625 8.964844 C 22.628906 8.859375 22.632812 8.753906 22.632812 8.648438 C 22.632812 8.542969 22.628906 8.441406 22.625 8.339844 C 22.453125 4.808594 19.535156 2.03125 16 2.03125 C 12.464844 2.03125 9.546875 4.808594 9.375 8.339844 M 9.375 8.339844 "/>
</clipPath>
<clipPath id="clip-4">
<path clip-rule="nonzero" d="M 5.269531 20.113281 L 21.71875 3.660156 L 26.636719 8.578125 L 10.183594 25.027344 Z M 5.269531 20.113281 "/>
</clipPath>
<clipPath id="clip-5">
<path clip-rule="nonzero" d="M 9.277344 2 L 21.925781 2 L 21.925781 20.316406 L 9.277344 20.316406 Z M 9.277344 2 "/>
</clipPath>
<clipPath id="clip-6">
<path clip-rule="nonzero" d="M 9.375 8.339844 C 9.367188 8.441406 9.367188 8.542969 9.367188 8.648438 C 9.367188 8.761719 9.367188 8.875 9.375 8.984375 C 9.371094 9.039062 9.367188 9.09375 9.367188 9.152344 L 9.367188 20.039062 C 9.371094 22.128906 11.0625 23.820312 13.152344 23.824219 L 18.847656 23.824219 C 20.9375 23.820312 22.628906 22.128906 22.632812 20.039062 L 22.632812 9.152344 C 22.632812 9.085938 22.625 9.027344 22.625 8.964844 C 22.628906 8.859375 22.632812 8.753906 22.632812 8.648438 C 22.632812 8.542969 22.628906 8.441406 22.625 8.339844 C 22.453125 4.808594 19.535156 2.03125 16 2.03125 C 12.464844 2.03125 9.546875 4.808594 9.375 8.339844 M 9.375 8.339844 "/>
</clipPath>
<clipPath id="clip-7">
<path clip-rule="nonzero" d="M -0.796875 14.046875 L 15.65625 -2.40625 L 21.71875 3.65625 L 5.269531 20.109375 Z M -0.796875 14.046875 "/>
</clipPath>
<clipPath id="clip-8">
<path clip-rule="nonzero" d="M 10 8.371094 L 22.863281 8.371094 L 22.863281 23.828125 L 10 23.828125 Z M 10 8.371094 "/>
</clipPath>
<clipPath id="clip-9">
<path clip-rule="nonzero" d="M 9.375 8.339844 C 9.367188 8.441406 9.367188 8.542969 9.367188 8.648438 C 9.367188 8.761719 9.367188 8.875 9.375 8.984375 C 9.371094 9.039062 9.367188 9.09375 9.367188 9.152344 L 9.367188 20.039062 C 9.371094 22.128906 11.0625 23.820312 13.152344 23.824219 L 18.847656 23.824219 C 20.9375 23.820312 22.628906 22.128906 22.632812 20.039062 L 22.632812 9.152344 C 22.632812 9.085938 22.625 9.027344 22.625 8.964844 C 22.628906 8.859375 22.632812 8.753906 22.632812 8.648438 C 22.632812 8.542969 22.628906 8.441406 22.625 8.339844 C 22.453125 4.808594 19.535156 2.03125 16 2.03125 C 12.464844 2.03125 9.546875 4.808594 9.375 8.339844 M 9.375 8.339844 "/>
</clipPath>
<clipPath id="clip-10">
<path clip-rule="nonzero" d="M 10.171875 25.015625 L 26.625 8.5625 L 31.496094 13.433594 L 15.046875 29.886719 Z M 10.171875 25.015625 "/>
</clipPath>
<clipPath id="clip-11">
<path clip-rule="nonzero" d="M 14 23 L 18 23 L 18 27 L 14 27 Z M 14 23 "/>
</clipPath>
<clipPath id="clip-12">
<path clip-rule="nonzero" d="M 14.683594 23.824219 L 17.582031 26.769531 L 17.582031 23.824219 Z M 14.683594 23.824219 "/>
</clipPath>
</defs>
<g clip-path="url(#clip-0)">
<g clip-path="url(#clip-1)">
<path fill-rule="nonzero" fill="rgb(96.862745%, 81.960784%, 52.54902%)" fill-opacity="1" d="M 13.085938 9.84375 L 18.753906 9.84375 L 18.753906 31.15625 L 13.085938 31.15625 Z M 13.085938 9.84375 "/>
</g>
</g>
<g clip-path="url(#clip-2)">
<g clip-path="url(#clip-3)">
<g clip-path="url(#clip-4)">
<path fill-rule="nonzero" fill="rgb(100%, 80.392157%, 23.529412%)" fill-opacity="1" d="M 4.113281 2.503906 L 27.78125 2.503906 L 27.78125 26.171875 L 4.113281 26.171875 Z M 4.113281 2.503906 "/>
</g>
</g>
</g>
<g clip-path="url(#clip-5)">
<g clip-path="url(#clip-6)">
<g clip-path="url(#clip-7)">
<path fill-rule="nonzero" fill="rgb(95.294118%, 50.196078%, 48.235294%)" fill-opacity="1" d="M -1.96875 -3.578125 L 22.890625 -3.578125 L 22.890625 21.28125 L -1.96875 21.28125 Z M -1.96875 -3.578125 "/>
</g>
</g>
</g>
<g clip-path="url(#clip-8)">
<g clip-path="url(#clip-9)">
<g clip-path="url(#clip-10)">
<path fill-rule="nonzero" fill="rgb(20.784314%, 81.568627%, 72.941176%)" fill-opacity="1" d="M 9 7.390625 L 32.667969 7.390625 L 32.667969 31.058594 L 9 31.058594 Z M 9 7.390625 "/>
</g>
</g>
</g>
<g clip-path="url(#clip-11)">
<g clip-path="url(#clip-12)">
<path fill-rule="nonzero" fill="rgb(84.705882%, 68.235294%, 39.215686%)" fill-opacity="1" d="M 13.535156 22.644531 L 18.761719 22.644531 L 18.761719 27.894531 L 13.535156 27.894531 Z M 13.535156 22.644531 "/>
</g>
</g>
</svg>
