<svg role="img" viewBox="0 0 32 32" xmlns="http://www.w3.org/2000/svg"><defs><clipPath id="crossplane_svg__a"><path d="M14.25 11h3.375v19H14.25Zm0 0"/></clipPath><clipPath id="crossplane_svg__b"><path d="M15.918 11.016c-.918 0-1.66.742-1.66 1.66v15.648a1.661 1.661 0 0 0 3.324 0V12.676c0-.918-.746-1.66-1.664-1.66"/></clipPath><clipPath id="crossplane_svg__c"><path d="M5.25 3.625h21.36V25H5.25Zm0 0"/></clipPath><clipPath id="crossplane_svg__d"><path d="M5.27 20.113 21.719 3.66l4.918 4.918-16.453 16.45Zm0 0"/></clipPath><clipPath id="crossplane_svg__e"><path d="M0 0h21.75v20.125H0Zm0 0"/></clipPath><clipPath id="crossplane_svg__f"><path d="M-.797 14.047 15.656-2.406l6.063 6.062L5.266 20.11Zm0 0"/></clipPath><clipPath id="crossplane_svg__g"><path d="M10.125 8.5H31.5v21.422H10.125Zm0 0"/></clipPath><clipPath id="crossplane_svg__h"><path d="M10.172 25.016 26.625 8.563l4.871 4.87-16.45 16.454Zm0 0"/></clipPath><clipPath id="crossplane_svg__i"><path d="M14.625 23.75h3v3.125h-3Zm0 0"/></clipPath><clipPath id="crossplane_svg__j"><path d="m14.684 23.824 2.898 2.946v-2.946Zm0 0"/></clipPath></defs><g clip-path="url(#crossplane_svg__a)"><g clip-path="url(#crossplane_svg__b)"><path d="M13.086 9.844h5.668v21.312h-5.668Zm0 0" fill="rgb(96.862745%, 81.960785%, 52.549022%)"/></g></g><g clip-path="url(#crossplane_svg__c)"><g clip-path="url(#crossplane_svg__d)"><path d="M4.113 2.504h23.668v23.668H4.113Zm0 0" fill="rgb(100%, 80.392158%, 23.529412%)"/></g></g><g clip-path="url(#crossplane_svg__e)"><g clip-path="url(#crossplane_svg__f)"><path d="M-1.969-3.578h24.86v24.86H-1.97Zm0 0" fill="rgb(95.294118%, 50.196081%, 48.235294%)"/></g></g><g clip-path="url(#crossplane_svg__g)"><g clip-path="url(#crossplane_svg__h)"><path d="M9 7.39h23.668v23.67H9Zm0 0" fill="rgb(20.784314%, 81.568629%, 72.941178%)"/></g></g><g clip-path="url(#crossplane_svg__i)"><g clip-path="url(#crossplane_svg__j)"><path d="M13.535 22.645h5.227v5.25h-5.227Zm0 0" fill="rgb(84.705883%, 68.235296%, 39.215687%)"/></g></g></svg>