<?xml version="1.0" encoding="UTF-8"?>
<svg xmlns="http://www.w3.org/2000/svg" xmlns:xlink="http://www.w3.org/1999/xlink" width="32" height="32" viewBox="0 0 32 32">
<rect x="-3.2" y="-3.2" width="38.4" height="38.4" fill="rgb(100%, 100%, 100%)" fill-opacity="1"/>
<path fill-rule="nonzero" fill="rgb(0%, 0%, 0%)" fill-opacity="1" d="M 32 32 L 0 32 L 0 0 L 32 0 Z M 3.105469 28.800781 L 28.929688 28.800781 L 28.929688 3.199219 L 3.105469 3.199219 M 19.871094 9.886719 L 24.382812 9.886719 L 24.382812 12.894531 L 19.871094 12.894531 Z M 19.871094 14.527344 L 24.382812 14.527344 L 24.382812 17.535156 L 19.871094 17.535156 Z M 19.871094 19.105469 L 24.382812 19.105469 L 24.382812 22.113281 L 19.871094 22.113281 Z M 13.726562 19.105469 L 18.242188 19.105469 L 18.242188 22.113281 L 13.726562 22.113281 Z M 7.648438 19.105469 L 12.160156 19.105469 L 12.160156 22.113281 L 7.648438 22.113281 Z M 13.792969 14.558594 L 18.304688 14.558594 L 18.304688 17.566406 L 13.792969 17.566406 Z M 7.648438 14.558594 L 12.160156 14.558594 L 12.160156 17.566406 L 7.648438 17.566406 Z M 13.792969 9.886719 L 18.304688 9.886719 L 18.304688 12.894531 L 13.792969 12.894531 Z M 7.648438 9.886719 L 12.160156 9.886719 L 12.160156 12.894531 L 7.648438 12.894531 Z M 7.648438 9.886719 "/>
</svg>
