<?xml version="1.0" encoding="UTF-8"?>
<svg xmlns="http://www.w3.org/2000/svg" xmlns:xlink="http://www.w3.org/1999/xlink" width="32" height="32" viewBox="0 0 32 32">
<path fill-rule="nonzero" fill="rgb(0%, 0%, 0%)" fill-opacity="1" d="M 22.382812 10.949219 L 17.128906 16.117188 C 15.957031 15.550781 14.554688 15.914062 13.800781 16.972656 C 13.046875 18.027344 13.164062 19.476562 14.078125 20.398438 C 14.996094 21.320312 16.441406 21.445312 17.503906 20.699219 C 18.566406 19.953125 18.9375 18.550781 18.382812 17.378906 L 23.644531 12.214844 Z M 22.382812 10.949219 "/>
<path fill-rule="nonzero" fill="rgb(0%, 0%, 0%)" fill-opacity="1" d="M 16 3.777344 C 10.289062 3.769531 5.09375 7.082031 2.6875 12.265625 C 0.28125 17.445312 1.105469 23.554688 4.800781 27.910156 L 5.066406 28.222656 L 26.933594 28.222656 L 27.199219 27.910156 C 30.894531 23.554688 31.71875 17.445312 29.3125 12.265625 C 26.90625 7.082031 21.710938 3.769531 16 3.777344 M 26.078125 26.445312 L 5.921875 26.445312 C 4.324219 24.449219 3.363281 22.023438 3.15625 19.476562 L 6.222656 19.476562 L 6.222656 17.699219 L 3.15625 17.699219 C 3.304688 14.875 4.382812 12.179688 6.222656 10.035156 L 8.398438 12.214844 L 9.652344 10.960938 L 7.492188 8.773438 C 9.613281 6.898438 12.289062 5.78125 15.109375 5.589844 L 15.109375 8.703125 L 16.890625 8.703125 L 16.890625 5.601562 C 23.335938 6.066406 28.433594 11.246094 28.800781 17.699219 L 25.707031 17.699219 L 25.707031 19.476562 L 28.84375 19.476562 C 28.636719 22.023438 27.675781 24.449219 26.078125 26.445312 "/>
</svg>
