<?xml version="1.0" encoding="UTF-8"?>
<svg xmlns="http://www.w3.org/2000/svg" xmlns:xlink="http://www.w3.org/1999/xlink" width="32" height="32" viewBox="0 0 32 32">
<path fill-rule="nonzero" fill="rgb(0%, 0%, 0%)" fill-opacity="1" d="M 16 1.3125 C 15.859375 1.3125 15.722656 1.355469 15.605469 1.445312 L 0.882812 12.933594 C 0.609375 13.152344 0.558594 13.554688 0.773438 13.835938 C 0.992188 14.113281 1.394531 14.164062 1.675781 13.945312 L 2.558594 13.253906 L 2.558594 30.078125 C 2.558594 30.433594 2.847656 30.71875 3.199219 30.71875 L 28.800781 30.71875 C 29.152344 30.71875 29.441406 30.433594 29.441406 30.078125 L 29.441406 13.253906 L 30.324219 13.945312 C 30.445312 14.035156 30.578125 14.078125 30.71875 14.078125 C 30.910156 14.078125 31.097656 13.996094 31.226562 13.835938 C 31.441406 13.554688 31.390625 13.152344 31.117188 12.933594 L 16.394531 1.445312 C 16.277344 1.355469 16.140625 1.3125 16 1.3125 Z M 10.144531 10.878906 L 21.855469 10.878906 C 22.507812 10.878906 23.039062 11.410156 23.039062 12.0625 L 23.039062 14.816406 C 23.039062 15.46875 22.507812 16 21.855469 16 L 21.121094 16 L 21.121094 17.28125 L 21.8125 17.28125 C 22.488281 17.28125 23.039062 17.832031 23.039062 18.507812 L 23.039062 21.171875 C 23.039062 21.851562 22.488281 22.398438 21.8125 22.398438 L 16.640625 22.398438 L 16.640625 23.796875 C 17.183594 23.992188 17.605469 24.414062 17.804688 24.960938 L 21.121094 24.960938 C 21.472656 24.960938 21.761719 25.246094 21.761719 25.601562 C 21.761719 25.953125 21.472656 26.238281 21.121094 26.238281 L 17.804688 26.238281 C 17.535156 26.980469 16.832031 27.519531 16 27.519531 C 15.167969 27.519531 14.464844 26.980469 14.195312 26.238281 L 10.878906 26.238281 C 10.527344 26.238281 10.238281 25.953125 10.238281 25.601562 C 10.238281 25.246094 10.527344 24.960938 10.878906 24.960938 L 14.195312 24.960938 C 14.394531 24.414062 14.816406 23.992188 15.359375 23.796875 L 15.359375 22.398438 L 10.1875 22.398438 C 9.511719 22.398438 8.960938 21.851562 8.960938 21.171875 L 8.960938 18.507812 C 8.960938 17.832031 9.511719 17.28125 10.1875 17.28125 L 10.878906 17.28125 L 10.878906 16 L 10.144531 16 C 9.492188 16 8.960938 15.46875 8.960938 14.816406 L 8.960938 12.0625 C 8.960938 11.410156 9.492188 10.878906 10.144531 10.878906 Z M 10.238281 12.160156 L 10.238281 14.71875 L 21.761719 14.71875 L 21.761719 12.160156 Z M 12.160156 12.800781 L 14.078125 12.800781 C 14.433594 12.800781 14.71875 13.089844 14.71875 13.441406 C 14.71875 13.792969 14.433594 14.078125 14.078125 14.078125 L 12.160156 14.078125 C 11.808594 14.078125 11.519531 13.792969 11.519531 13.441406 C 11.519531 13.089844 11.808594 12.800781 12.160156 12.800781 Z M 12.160156 16 L 12.160156 17.28125 L 19.839844 17.28125 L 19.839844 16 Z M 10.238281 18.558594 L 10.238281 21.121094 L 21.761719 21.121094 L 21.761719 18.558594 Z M 12.160156 19.199219 L 14.078125 19.199219 C 14.433594 19.199219 14.71875 19.488281 14.71875 19.839844 C 14.71875 20.191406 14.433594 20.480469 14.078125 20.480469 L 12.160156 20.480469 C 11.808594 20.480469 11.519531 20.191406 11.519531 19.839844 C 11.519531 19.488281 11.808594 19.199219 12.160156 19.199219 Z M 16 24.960938 C 15.648438 24.960938 15.359375 25.246094 15.359375 25.601562 C 15.359375 25.953125 15.648438 26.238281 16 26.238281 C 16.351562 26.238281 16.640625 25.953125 16.640625 25.601562 C 16.640625 25.246094 16.351562 24.960938 16 24.960938 Z M 16 24.960938 "/>
</svg>
