<svg role="img" viewBox="0 0 32 32" height="32" width="32" xmlns="http://www.w3.org/2000/svg"><path d="M7.809 3.555C9.957 2.578 12.855 2 16 2c3.145 0 6.043.578 8.191 1.555C26.25 4.488 28 5.985 28 8c0 2.016-1.75 3.512-3.809 4.445C22.043 13.422 19.145 14 16 14c-3.145 0-6.043-.578-8.191-1.555C5.75 11.512 4 10.015 4 8c0-2.016 1.75-3.512 3.809-4.445M4 12.32V14c0 2.016 1.75 3.512 3.809 4.445C9.957 19.422 12.855 20 16 20c3.145 0 6.043-.578 8.191-1.555C26.25 17.512 28 16.015 28 14v-1.68c-.914.867-2.008 1.504-2.98 1.946C22.555 15.386 19.363 16 16 16c-3.363 0-6.555-.613-9.02-1.734-.972-.442-2.066-1.078-2.98-1.946m0 6V20c0 2.016 1.75 3.512 3.809 4.445C9.957 25.422 12.855 26 16 26c3.145 0 6.043-.578 8.191-1.555C26.25 23.512 28 22.015 28 20v-1.68c-.914.867-2.008 1.504-2.98 1.946C22.555 21.386 19.363 22 16 22c-3.363 0-6.555-.613-9.02-1.734-.972-.442-2.066-1.078-2.98-1.946m0 6V26c0 2.016 1.75 3.512 3.809 4.445C9.957 31.422 12.855 32 16 32c3.145 0 6.043-.578 8.191-1.555C26.25 29.512 28 28.015 28 26v-1.68c-.914.867-2.008 1.504-2.98 1.946C22.555 27.386 19.363 28 16 28c-3.363 0-6.555-.613-9.02-1.734-.972-.442-2.066-1.078-2.98-1.946"/></svg>