<?xml version="1.0" encoding="UTF-8"?>
<svg xmlns="http://www.w3.org/2000/svg" xmlns:xlink="http://www.w3.org/1999/xlink" width="29.767" height="32" viewBox="0 0 29.767 32">
<path fill="none" stroke-width="11.904" stroke-linecap="round" stroke-linejoin="round" stroke="rgb(61.176473%, 63.921571%, 68.627453%)" stroke-opacity="1" stroke-miterlimit="4" d="M 5.96875 56.5625 L 5.96875 175.625 C 5.96875 201.9375 48.59375 223.25 101.21875 223.25 C 109.4375 223.25 117.40625 222.75 125.03125 221.75 M 5.96875 56.5625 C 5.96875 82.875 48.59375 104.1875 101.21875 104.1875 C 153.8125 104.1875 196.46875 82.875 196.46875 56.5625 M 5.96875 56.5625 C 5.96875 30.25 48.59375 8.9375 101.21875 8.9375 C 153.8125 8.9375 196.46875 30.25 196.46875 56.5625 M 196.46875 56.5625 L 196.46875 139.90625 M 196.46875 116.09375 C 196.46875 142.40625 153.8125 163.71875 101.21875 163.71875 C 48.59375 163.71875 5.96875 142.40625 5.96875 116.09375 M 196.46875 175.625 L 196.46875 211.34375 M 196.46875 211.34375 L 196.46875 247.0625 M 196.46875 211.34375 L 232.1875 211.34375 M 196.46875 211.34375 L 160.75 211.34375 " transform="matrix(0.125, 0, 0, 0.125, 0, 0)"/>
</svg>
