<?xml version="1.0" encoding="UTF-8"?>
<svg xmlns="http://www.w3.org/2000/svg" xmlns:xlink="http://www.w3.org/1999/xlink" width="27.429001" height="32" viewBox="0 0 27.429001 32">
<path fill="none" stroke-width="24.384001" stroke-linecap="butt" stroke-linejoin="miter" stroke="rgb(64.313728%, 64.313728%, 64.313728%)" stroke-opacity="1" stroke-miterlimit="4" d="M 12.1875 67.0625 L 12.1875 188.9375 C 12.1875 215.875 55.84375 237.71875 109.71875 237.71875 C 163.5625 237.71875 207.25 215.875 207.25 188.9375 L 207.25 67.0625 M 12.1875 67.0625 C 12.1875 94 55.84375 115.8125 109.71875 115.8125 C 163.5625 115.8125 207.25 93.96875 207.25 67.0625 M 12.1875 67.0625 C 12.1875 40.125 55.84375 18.28125 109.71875 18.28125 C 163.5625 18.28125 207.25 40.125 207.25 67.0625 M 207.25 128 C 207.25 154.9375 163.5625 176.75 109.71875 176.75 C 55.84375 176.75 12.1875 154.9375 12.1875 128 " transform="matrix(0.125, 0, 0, 0.125, 0, 0)"/>
</svg>
