<?xml version="1.0" encoding="UTF-8"?>
<svg xmlns="http://www.w3.org/2000/svg" xmlns:xlink="http://www.w3.org/1999/xlink" width="32" height="32" viewBox="0 0 32 32">
<path fill="none" stroke-width="0.707" stroke-linecap="butt" stroke-linejoin="miter" stroke="rgb(0%, 0%, 0%)" stroke-opacity="1" stroke-miterlimit="10" d="M 18.921875 15.792969 L 28.738281 15.792969 M 14.488281 13.261719 L 9.59375 4.851562 M 9.59375 26.738281 L 14.492188 18.332031 M 29.726562 14.8125 C 29.328125 14.8125 28.964844 15.050781 28.808594 15.417969 C 28.65625 15.789062 28.742188 16.210938 29.023438 16.496094 C 29.304688 16.78125 29.730469 16.863281 30.101562 16.710938 C 30.46875 16.554688 30.710938 16.191406 30.707031 15.792969 C 30.707031 15.53125 30.605469 15.285156 30.421875 15.101562 C 30.238281 14.914062 29.988281 14.8125 29.726562 14.8125 Z M 9.101562 3.027344 C 8.699219 3.023438 8.335938 3.265625 8.179688 3.632812 C 8.027344 4.003906 8.109375 4.433594 8.394531 4.714844 C 8.679688 4.996094 9.109375 5.078125 9.476562 4.921875 C 9.847656 4.769531 10.085938 4.402344 10.078125 4 C 10.078125 3.742188 9.976562 3.496094 9.792969 3.3125 C 9.609375 3.132812 9.359375 3.027344 9.101562 3.027344 Z M 9.101562 26.601562 C 8.742188 26.589844 8.40625 26.773438 8.21875 27.082031 C 8.035156 27.390625 8.03125 27.777344 8.210938 28.085938 C 8.390625 28.394531 8.726562 28.585938 9.085938 28.574219 C 9.617188 28.5625 10.046875 28.132812 10.050781 27.597656 C 10.050781 27.066406 9.632812 26.625 9.101562 26.601562 Z M 16 12.847656 C 15.21875 12.847656 14.46875 13.15625 13.917969 13.710938 C 13.363281 14.261719 13.054688 15.011719 13.054688 15.792969 C 13.054688 16.574219 13.363281 17.324219 13.917969 17.875 C 14.46875 18.429688 15.21875 18.738281 16 18.738281 C 16.78125 18.738281 17.53125 18.429688 18.082031 17.875 C 18.636719 17.324219 18.945312 16.574219 18.945312 15.792969 C 18.945312 15.011719 18.636719 14.261719 18.082031 13.710938 C 17.53125 13.15625 16.78125 12.847656 16 12.847656 Z M 16 12.847656 "/>
</svg>
