<svg role="img" viewBox="0 0 32 32" height="32" width="32" xmlns="http://www.w3.org/2000/svg"><path d="M16 0C7.96 0 2.559 2.977 2.559 5.758S7.96 11.52 16 11.52c8.04 0 13.441-2.98 13.441-5.762C29.441 2.977 24.04 0 16 0M2.559 8.71v3.548c0 2.734 5.402 5.664 13.441 5.664 8.04 0 13.441-2.93 13.441-5.664V8.71C27.09 11.113 22.023 12.8 16 12.8c-6.023 0-11.09-1.688-13.441-4.09m0 6.59v3.383c0 2.734 5.402 5.636 13.441 5.636 1.844 0 3.535-.16 5.066-.425l-1.046 1.464a33.73 33.73 0 0 1-4.02.243c-6.023 0-11.09-1.47-13.441-3.872v3.325c0 2.734 5.402 5.664 13.441 5.664 2.973 0 5.57-.407 7.68-1.051V32h4.48v-6.398h3.832l-1.445-2.024-2.063-2.894c.614-.645.957-1.325.957-2V15.3C27.09 17.703 22.023 19.199 16 19.199c-6.023 0-11.09-1.496-13.441-3.898m23.363 3.996 3.586 5.023h-2.63v6.399h-1.917V24.32h-2.629Zm0 0"/></svg>