<?xml version="1.0" encoding="UTF-8"?>
<svg xmlns="http://www.w3.org/2000/svg" xmlns:xlink="http://www.w3.org/1999/xlink" width="32" height="32" viewBox="0 0 32 32">
<path fill-rule="nonzero" fill="rgb(0%, 0%, 0%)" fill-opacity="1" d="M 16 0 C 7.960938 0 2.558594 2.976562 2.558594 5.757812 C 2.558594 8.539062 7.960938 11.519531 16 11.519531 C 24.039062 11.519531 29.441406 8.539062 29.441406 5.757812 C 29.441406 2.976562 24.039062 0 16 0 Z M 2.558594 8.710938 L 2.558594 12.257812 C 2.558594 14.992188 7.960938 17.921875 16 17.921875 C 17.234375 17.921875 18.394531 17.84375 19.492188 17.71875 C 18.914062 18.105469 18.40625 18.585938 17.984375 19.136719 C 17.335938 19.171875 16.675781 19.199219 16 19.199219 C 9.976562 19.199219 4.910156 17.703125 2.558594 15.300781 L 2.558594 18.683594 C 2.558594 21.417969 7.960938 24.320312 16 24.320312 C 16.261719 24.320312 16.511719 24.308594 16.765625 24.300781 C 16.855469 24.742188 16.988281 25.164062 17.164062 25.566406 C 16.777344 25.582031 16.394531 25.601562 16 25.601562 C 9.976562 25.601562 4.910156 24.132812 2.558594 21.730469 L 2.558594 25.054688 C 2.558594 27.789062 7.960938 30.71875 16 30.71875 C 20.957031 30.71875 24.902344 29.605469 27.207031 28.109375 L 30.90625 31.8125 L 31.8125 30.90625 L 28.226562 27.320312 C 29.007812 26.597656 29.441406 25.820312 29.441406 25.054688 L 29.441406 21.730469 C 29.40625 21.765625 29.359375 21.800781 29.324219 21.835938 C 29.21875 21.296875 29.046875 20.785156 28.816406 20.304688 C 29.222656 19.777344 29.441406 19.226562 29.441406 18.683594 L 29.441406 15.300781 C 28.632812 16.128906 27.484375 16.835938 26.105469 17.421875 C 25.492188 17.089844 24.820312 16.859375 24.109375 16.738281 C 27.453125 15.632812 29.441406 13.910156 29.441406 12.257812 L 29.441406 8.710938 C 27.089844 11.113281 22.023438 12.800781 16 12.800781 C 9.976562 12.800781 4.910156 11.113281 2.558594 8.710938 Z M 23.039062 17.921875 C 25.875 17.921875 28.160156 20.203125 28.160156 23.039062 C 28.160156 25.875 25.875 28.160156 23.039062 28.160156 C 20.203125 28.160156 17.921875 25.875 17.921875 23.039062 C 17.921875 20.203125 20.203125 17.921875 23.039062 17.921875 Z M 23.039062 17.921875 "/>
</svg>
