<svg role="img" viewBox="0 0 32 32" xmlns="http://www.w3.org/2000/svg"><path d="M16 2c-3.145 0-6.043.578-8.191 1.555C5.75 4.488 4 5.985 4 8s1.75 3.512 3.809 4.445C9.957 13.422 12.855 14 16 14s6.043-.578 8.191-1.555C26.25 11.512 28 10.015 28 8s-1.75-3.512-3.809-4.445C22.043 2.578 19.145 2 16 2M4 14v-1.68c.914.867 2.008 1.504 2.98 1.946C9.445 15.386 12.637 16 16 16s6.555-.613 9.02-1.734c.972-.442 2.066-1.078 2.98-1.946V14c0 .848-.309 1.605-.82 2.266a9.025 9.025 0 0 0-9.633 3.687Q16.774 20 16 20c-3.145 0-6.043-.578-8.191-1.555C5.75 17.512 4 16.015 4 14m12.516 7.996L16 22c-3.363 0-6.555-.613-9.02-1.734-.972-.442-2.066-1.078-2.98-1.946V20c0 2.016 1.75 3.512 3.809 4.445C9.957 25.422 12.855 26 16 26h.055a9.05 9.05 0 0 1 .46-4.004m-.003 6L16 28c-3.363 0-6.555-.613-9.02-1.734-.972-.442-2.066-1.078-2.98-1.946V26c0 2.016 1.75 3.512 3.809 4.445C9.957 31.422 12.855 32 16 32c1.07 0 2.117-.066 3.11-.195a9 9 0 0 1-2.598-3.809m7.261-9.074c.36-1.227 2.094-1.227 2.457 0l.086.293c.11.37.38.672.739.82.355.149.761.13 1.101-.055l.274-.148c1.12-.613 2.351.617 1.742 1.738l-.152.274c-.184.34-.207.742-.06 1.101.15.356.454.63.825.739l.297.09c1.223.359 1.223 2.093 0 2.456l-.3.086c-.372.11-.673.383-.821.739a1.27 1.27 0 0 0 .062 1.101l.149.274c.61 1.12-.621 2.351-1.742 1.742l-.274-.152a1.28 1.28 0 0 0-1.101-.06 1.3 1.3 0 0 0-.739.825l-.09.297c-.359 1.223-2.093 1.223-2.456 0l-.086-.3a1.29 1.29 0 0 0-.739-.821 1.27 1.27 0 0 0-1.101.062l-.274.149c-1.12.61-2.351-.621-1.742-1.742l.152-.274c.184-.34.207-.742.06-1.101a1.3 1.3 0 0 0-.825-.739l-.293-.09c-1.227-.359-1.227-2.093 0-2.456l.293-.086c.37-.11.672-.38.82-.739a1.28 1.28 0 0 0-.055-1.101l-.148-.274c-.613-1.12.617-2.351 1.738-1.742l.274.152c.34.184.742.207 1.101.06.356-.15.63-.454.739-.825ZM28 25a3.002 3.002 0 1 0-6.003.003A3.002 3.002 0 0 0 28 25" fill="rgb(0%, 0%, 0%)"/></svg>