<svg role="img" viewBox="0 0 32 32" xmlns="http://www.w3.org/2000/svg"><path d="M3.2 2.559a.643.643 0 0 0-.641.64V8.32H8.32V2.56Zm6.402 0V8.32h5.757V2.56Zm7.039 0V8.32h5.757V2.56Zm7.039 0V8.32h5.761V3.2a.643.643 0 0 0-.64-.641ZM2.559 9.602v5.757H8.32V9.602Zm7.043 0v5.757h5.757V9.602Zm7.039 0v5.757h5.757V9.602Zm7.039 0v5.757h5.761V9.602ZM2.559 16.64v5.757H8.32V16.64Zm7.043 0v5.757h5.757V16.64Zm7.039 0v5.757h5.757V16.64Zm7.039 0v5.757h5.761V16.64ZM2.559 23.68v5.12c0 .352.289.641.64.641H8.32V23.68Zm7.043 0v5.761h5.757V23.68Zm7.039 0v5.761h5.757V23.68Zm7.039 0v5.761h5.12a.643.643 0 0 0 .641-.64V23.68Zm0 0"/></svg>