<?xml version="1.0" encoding="UTF-8"?>
<svg xmlns="http://www.w3.org/2000/svg" xmlns:xlink="http://www.w3.org/1999/xlink" width="32" height="32" viewBox="0 0 32 32">
<path fill-rule="nonzero" fill="rgb(0%, 0%, 0%)" fill-opacity="1" d="M 16 0 C 12.386719 0 9.113281 0.648438 6.6875 1.742188 C 5.472656 2.289062 4.464844 2.945312 3.738281 3.71875 C 3.011719 4.492188 2.558594 5.414062 2.558594 6.398438 L 2.558594 24.960938 C 2.558594 28.546875 8.464844 31.359375 16 31.359375 C 18.234375 31.359375 20.324219 31.105469 22.160156 30.664062 C 21.214844 30.558594 20.324219 30.277344 19.515625 29.855469 C 18.417969 29.996094 17.246094 30.078125 16 30.078125 C 8.726562 30.078125 3.839844 27.433594 3.839844 24.960938 L 3.839844 21.953125 C 5.941406 24.101562 10.441406 25.5625 15.804688 25.597656 C 15.660156 25.179688 15.546875 24.75 15.472656 24.308594 C 8.496094 24.183594 3.839844 21.613281 3.839844 19.199219 L 3.839844 15.554688 C 5.964844 17.726562 10.550781 19.199219 16 19.199219 C 16.136719 19.199219 16.269531 19.195312 16.402344 19.191406 C 16.675781 18.722656 16.996094 18.289062 17.359375 17.886719 C 16.917969 17.910156 16.464844 17.921875 16 17.921875 C 8.726562 17.921875 3.839844 15.273438 3.839844 12.800781 L 3.839844 9.175781 C 4.558594 9.90625 5.523438 10.535156 6.6875 11.058594 C 9.113281 12.148438 12.386719 12.800781 16 12.800781 C 19.613281 12.800781 22.886719 12.148438 25.3125 11.058594 C 26.476562 10.535156 27.441406 9.90625 28.160156 9.175781 L 28.160156 12.800781 C 28.160156 13.855469 27.265625 14.9375 25.683594 15.835938 C 26.152344 16.011719 26.601562 16.230469 27.023438 16.488281 C 27.453125 16.195312 27.839844 15.882812 28.160156 15.554688 L 28.160156 17.332031 C 28.644531 17.765625 29.078125 18.257812 29.441406 18.804688 L 29.441406 6.398438 C 29.441406 5.414062 28.988281 4.492188 28.261719 3.71875 C 27.535156 2.945312 26.527344 2.289062 25.3125 1.742188 C 22.886719 0.648438 19.613281 0 16 0 Z M 16 1.28125 C 19.457031 1.28125 22.582031 1.917969 24.789062 2.910156 C 25.890625 3.40625 26.757812 3.992188 27.328125 4.59375 C 27.894531 5.199219 28.160156 5.796875 28.160156 6.398438 C 28.160156 7.003906 27.894531 7.601562 27.328125 8.203125 C 26.757812 8.808594 25.890625 9.394531 24.789062 9.890625 C 22.582031 10.882812 19.457031 11.519531 16 11.519531 C 12.542969 11.519531 9.417969 10.882812 7.210938 9.890625 C 6.109375 9.394531 5.242188 8.808594 4.671875 8.203125 C 4.105469 7.601562 3.839844 7.003906 3.839844 6.398438 C 3.839844 5.796875 4.105469 5.199219 4.671875 4.59375 C 5.242188 3.992188 6.109375 3.40625 7.210938 2.910156 C 9.417969 1.917969 12.542969 1.28125 16 1.28125 Z M 23.039062 16.640625 C 19.511719 16.640625 16.640625 19.511719 16.640625 23.039062 C 16.640625 26.566406 19.511719 29.441406 23.039062 29.441406 C 24.574219 29.441406 25.980469 28.894531 27.085938 27.992188 L 30.90625 31.8125 L 31.8125 30.90625 L 27.992188 27.085938 C 28.894531 25.980469 29.441406 24.574219 29.441406 23.039062 C 29.441406 19.511719 26.566406 16.640625 23.039062 16.640625 Z M 23.039062 17.921875 C 25.875 17.921875 28.160156 20.203125 28.160156 23.039062 C 28.160156 25.875 25.875 28.160156 23.039062 28.160156 C 20.203125 28.160156 17.921875 25.875 17.921875 23.039062 C 17.921875 20.203125 20.203125 17.921875 23.039062 17.921875 Z M 23.039062 17.921875 "/>
</svg>
