<?xml version="1.0" encoding="UTF-8"?>
<svg xmlns="http://www.w3.org/2000/svg" xmlns:xlink="http://www.w3.org/1999/xlink" width="27.429001" height="32" viewBox="0 0 27.429001 32">
<path fill="none" stroke-width="3.048" stroke-linecap="butt" stroke-linejoin="miter" stroke="rgb(64.313725%, 64.313725%, 64.313725%)" stroke-opacity="1" stroke-miterlimit="4" d="M 1.523438 8.382812 L 1.523438 23.617188 C 1.523438 26.984375 6.980469 29.714844 13.714844 29.714844 C 20.445312 29.714844 25.90625 26.984375 25.90625 23.617188 L 25.90625 8.382812 M 1.523438 8.382812 C 1.523438 11.75 6.980469 14.476562 13.714844 14.476562 C 20.445312 14.476562 25.90625 11.746094 25.90625 8.382812 M 1.523438 8.382812 C 1.523438 5.015625 6.980469 2.285156 13.714844 2.285156 C 20.445312 2.285156 25.90625 5.015625 25.90625 8.382812 M 25.90625 16 C 25.90625 19.367188 20.445312 22.09375 13.714844 22.09375 C 6.980469 22.09375 1.523438 19.367188 1.523438 16 "/>
</svg>
