<?xml version="1.0" encoding="UTF-8"?>
<svg xmlns="http://www.w3.org/2000/svg" xmlns:xlink="http://www.w3.org/1999/xlink" width="32" height="32" viewBox="0 0 32 32">
<path fill-rule="nonzero" fill="rgb(0%, 0%, 0%)" fill-opacity="1" d="M 3.199219 2.558594 C 2.847656 2.5625 2.5625 2.847656 2.558594 3.199219 L 2.558594 8.320312 L 8.320312 8.320312 L 8.320312 2.558594 Z M 9.601562 2.558594 L 9.601562 8.320312 L 15.359375 8.320312 L 15.359375 2.558594 Z M 16.640625 2.558594 L 16.640625 8.320312 L 22.398438 8.320312 L 22.398438 2.558594 Z M 23.679688 2.558594 L 23.679688 8.320312 L 29.441406 8.320312 L 29.441406 3.199219 C 29.4375 2.847656 29.152344 2.5625 28.800781 2.558594 Z M 2.558594 9.601562 L 2.558594 15.359375 L 8.320312 15.359375 L 8.320312 9.601562 Z M 9.601562 9.601562 L 9.601562 15.359375 L 15.359375 15.359375 L 15.359375 9.601562 Z M 16.640625 9.601562 L 16.640625 15.359375 L 22.398438 15.359375 L 22.398438 9.601562 Z M 23.679688 9.601562 L 23.679688 15.359375 L 29.441406 15.359375 L 29.441406 9.601562 Z M 2.558594 16.640625 L 2.558594 22.398438 L 8.320312 22.398438 L 8.320312 16.640625 Z M 9.601562 16.640625 L 9.601562 22.398438 L 15.359375 22.398438 L 15.359375 16.640625 Z M 16.640625 16.640625 L 16.640625 22.398438 L 22.398438 22.398438 L 22.398438 16.640625 Z M 23.679688 16.640625 L 23.679688 22.398438 L 29.441406 22.398438 L 29.441406 16.640625 Z M 2.558594 23.679688 L 2.558594 28.800781 C 2.558594 29.152344 2.847656 29.441406 3.199219 29.441406 L 8.320312 29.441406 L 8.320312 23.679688 Z M 9.601562 23.679688 L 9.601562 29.441406 L 15.359375 29.441406 L 15.359375 23.679688 Z M 16.640625 23.679688 L 16.640625 29.441406 L 22.398438 29.441406 L 22.398438 23.679688 Z M 23.679688 23.679688 L 23.679688 29.441406 L 28.800781 29.441406 C 29.152344 29.4375 29.4375 29.152344 29.441406 28.800781 L 29.441406 23.679688 Z M 23.679688 23.679688 "/>
</svg>
