<svg role="img" viewBox="0 0 29.767 32" xmlns="http://www.w3.org/2000/svg"><path d="M.746 7.07v14.883c0 3.29 5.328 5.953 11.906 5.953 1.028 0 2.024-.062 2.977-.187M.746 7.07c0 3.29 5.328 5.953 11.906 5.953 6.575 0 11.907-2.664 11.907-5.953m-23.813 0c0-3.289 5.328-5.953 11.906-5.953 6.575 0 11.907 2.664 11.907 5.953m0 0v10.418m0-2.976c0 3.289-5.332 5.953-11.907 5.953C6.074 20.465.746 17.8.746 14.512m23.813 7.441v4.465m0 0v4.465m0-4.465h4.464m-4.464 0h-4.465" fill="none" stroke="rgb(61.176473%, 63.921571%, 68.627453%)" stroke-linecap="round" stroke-linejoin="round" stroke-width="1.488"/></svg>