<?xml version="1.0" encoding="UTF-8"?>
<svg xmlns="http://www.w3.org/2000/svg" xmlns:xlink="http://www.w3.org/1999/xlink" width="32" height="32" viewBox="0 0 32 32">
<path fill-rule="nonzero" fill="rgb(100%, 21.176471%, 12.941176%)" fill-opacity="1" d="M 2.054688 8.765625 L 2.054688 9.675781 L 16 17.542969 L 28.457031 10.507812 L 28.457031 13.351562 L 16 20.429688 L 2.753906 12.902344 L 2.054688 13.292969 L 2.054688 18.738281 L 16 26.585938 L 28.457031 19.578125 L 28.457031 22.398438 L 16 29.476562 L 2.753906 21.949219 L 2.054688 22.339844 L 2.054688 23.265625 L 16 31.109375 L 29.945312 23.265625 L 29.945312 17.816406 L 29.234375 17.425781 L 16 24.953125 L 3.542969 17.875 L 3.542969 15.070312 L 16 22.070312 L 29.945312 14.222656 L 29.945312 8.851562 L 29.234375 8.460938 L 16 15.988281 L 4.179688 9.269531 L 16 2.59375 L 25.734375 8.097656 L 26.585938 7.617188 L 26.585938 6.867188 L 16 0.890625 Z M 2.054688 8.765625 "/>
</svg>
