<?xml version="1.0" encoding="UTF-8"?>
<svg xmlns="http://www.w3.org/2000/svg" xmlns:xlink="http://www.w3.org/1999/xlink" width="32" height="32" viewBox="0 0 32 32">
<path fill="none" stroke-width="0.721" stroke-linecap="butt" stroke-linejoin="miter" stroke="rgb(0%, 0%, 0%)" stroke-opacity="1" stroke-miterlimit="10" d="M 22.980469 9.800781 L 24.980469 7.800781 L 22.980469 5.800781 M 6.980469 7.800781 C 6.976562 8.207031 7.21875 8.578125 7.597656 8.734375 C 7.972656 8.894531 8.40625 8.808594 8.695312 8.519531 C 8.984375 8.234375 9.074219 7.800781 8.917969 7.421875 C 8.765625 7.042969 8.394531 6.796875 7.988281 6.800781 C 7.71875 6.789062 7.453125 6.890625 7.257812 7.078125 C 7.0625 7.265625 6.949219 7.523438 6.945312 7.792969 Z M 6.980469 23.832031 C 6.976562 24.242188 7.222656 24.609375 7.597656 24.769531 C 7.972656 24.925781 8.40625 24.839844 8.695312 24.554688 C 8.980469 24.265625 9.066406 23.835938 8.914062 23.460938 C 8.757812 23.082031 8.394531 22.835938 7.988281 22.832031 C 7.714844 22.824219 7.453125 22.921875 7.257812 23.109375 C 7.058594 23.296875 6.949219 23.554688 6.945312 23.828125 Z M 22.980469 23.832031 C 22.980469 24.386719 23.429688 24.835938 23.980469 24.839844 C 24.523438 24.828125 24.957031 24.386719 24.960938 23.84375 C 24.96875 23.300781 24.542969 22.851562 24 22.828125 C 23.730469 22.824219 23.472656 22.925781 23.28125 23.113281 C 23.089844 23.300781 22.980469 23.558594 22.980469 23.828125 Z M 22.980469 23.832031 L 8.980469 23.832031 M 7.980469 8.800781 L 7.980469 22.828125 M 24.988281 7.792969 L 8.988281 7.792969 "/>
</svg>
