<?xml version="1.0" encoding="UTF-8"?>
<svg xmlns="http://www.w3.org/2000/svg" xmlns:xlink="http://www.w3.org/1999/xlink" width="32" height="32" viewBox="0 0 32 32">
<path fill-rule="nonzero" fill="rgb(0%, 0%, 0%)" fill-opacity="1" d="M 16 0 C 7.960938 0 2.558594 2.976562 2.558594 5.757812 C 2.558594 8.539062 7.960938 11.519531 16 11.519531 C 24.039062 11.519531 29.441406 8.539062 29.441406 5.757812 C 29.441406 2.976562 24.039062 0 16 0 M 2.558594 8.710938 L 2.558594 12.257812 C 2.558594 14.992188 7.960938 17.921875 16 17.921875 C 24.039062 17.921875 29.441406 14.992188 29.441406 12.257812 L 29.441406 8.710938 C 27.089844 11.113281 22.023438 12.800781 16 12.800781 C 9.976562 12.800781 4.910156 11.113281 2.558594 8.710938 M 2.558594 15.300781 L 2.558594 18.683594 C 2.558594 21.417969 7.960938 24.320312 16 24.320312 C 17.84375 24.320312 19.535156 24.160156 21.066406 23.894531 L 20.019531 25.359375 C 18.6875 25.519531 17.34375 25.601562 16 25.601562 C 9.976562 25.601562 4.910156 24.132812 2.558594 21.730469 L 2.558594 25.054688 C 2.558594 27.789062 7.960938 30.71875 16 30.71875 C 18.972656 30.71875 21.570312 30.3125 23.679688 29.667969 L 23.679688 32 L 28.160156 32 L 28.160156 25.601562 L 31.992188 25.601562 L 30.546875 23.578125 L 28.484375 20.683594 C 29.097656 20.039062 29.441406 19.359375 29.441406 18.683594 L 29.441406 15.300781 C 27.089844 17.703125 22.023438 19.199219 16 19.199219 C 9.976562 19.199219 4.910156 17.703125 2.558594 15.300781 M 25.921875 19.296875 L 29.507812 24.320312 L 26.878906 24.320312 L 26.878906 30.71875 L 24.960938 30.71875 L 24.960938 24.320312 L 22.332031 24.320312 Z M 25.921875 19.296875 "/>
</svg>
