<svg role="img" viewBox="0 0 32 32" height="32" width="32" xmlns="http://www.w3.org/2000/svg"><path d="M30.398 11.457c0-5.441-4.414-9.855-9.855-9.855h-9.086c-5.441 0-9.855 4.414-9.855 9.855v9.055c0 5.472 4.414 9.886 9.855 9.886h9.055c5.472 0 9.886-4.414 9.886-9.855Zm-23.07 2.719-.223-.223a.594.594 0 0 1 0-.832l1.153-1.152-1.121-1.09a.594.594 0 0 1 0-.832l.222-.223a.602.602 0 0 1 .832 0l1.153 1.153 1.152-1.153a.602.602 0 0 1 .832 0l.223.223a.594.594 0 0 1 0 .832l-1.153 1.152 1.153 1.153a.594.594 0 0 1 0 .832l-.223.222a.594.594 0 0 1-.832 0L9.344 13.09 8.19 14.238a.726.726 0 0 1-.863-.062M16 18.273c-4.098 0-7.426-.195-7.426-.418 0-.222 3.328-.414 7.426-.414 4.098 0 7.426.192 7.426.414 0 .223-3.328.418-7.426.418m8.895-5.12a.594.594 0 0 1 0 .831l-.223.223a.594.594 0 0 1-.832 0l-1.121-1.152-1.153 1.152a.594.594 0 0 1-.832 0l-.222-.223a.602.602 0 0 1 0-.832L21.664 12l-1.121-1.121a.602.602 0 0 1 0-.832l.227-.223a.602.602 0 0 1 .832 0l1.152 1.153 1.148-1.153a.602.602 0 0 1 .832 0l.227.223a.602.602 0 0 1 0 .832l-1.152 1.152Zm0 0"/></svg>