<?xml version="1.0" encoding="UTF-8"?>
<svg xmlns="http://www.w3.org/2000/svg" xmlns:xlink="http://www.w3.org/1999/xlink" width="32" height="32" viewBox="0 0 32 32">
<rect x="-3.2" y="-3.2" width="38.4" height="38.4" fill="rgb(100%, 100%, 100%)" fill-opacity="1"/>
<path fill-rule="nonzero" fill="rgb(0%, 0%, 0%)" fill-opacity="1" d="M 32 32 L 0 32 L 0 0 L 32 0 Z M 3.105469 28.800781 L 28.929688 28.800781 L 28.929688 3.199219 L 3.105469 3.199219 M 19.007812 17.214844 L 16 15.808594 L 22.015625 12.992188 L 25.023438 14.398438 L 22.015625 15.808594 Z M 22.015625 10.207031 L 19.007812 8.800781 L 16 10.207031 L 22.015625 13.023438 L 25.023438 11.617188 Z M 12.992188 14.398438 L 9.984375 12.992188 L 6.976562 14.398438 L 12.992188 17.214844 L 16 15.808594 Z M 12.992188 11.617188 L 16 10.207031 L 12.992188 8.800781 L 6.976562 11.617188 L 9.984375 13.023438 Z M 22.015625 16.640625 L 19.328125 17.886719 L 19.007812 18.046875 L 18.6875 17.886719 L 16 16.640625 L 13.3125 17.886719 L 12.992188 18.046875 L 12.671875 17.886719 L 9.984375 16.640625 L 9.984375 21.023438 L 16 24.160156 L 22.015625 21.023438 Z M 22.015625 16.640625 "/>
</svg>
