<svg role="img" viewBox="0 0 32 32" xmlns="http://www.w3.org/2000/svg"><path d="M-3.2-3.2h38.4v38.4H-3.2z" fill="rgb(100%, 100%, 100%)"/><path d="M32 32H0V0h32ZM3.105 28.8H28.93V3.2H3.105m15.903 14.015L16 15.809l6.016-2.817 3.007 1.406-3.007 1.41Zm3.008-7.008-3.008-1.406L16 10.207l6.016 2.816 3.007-1.406Zm-9.024 4.191-3.008-1.406-3.007 1.406 6.015 2.817L16 15.809Zm0-2.78L16 10.206 12.992 8.8l-6.015 2.816 3.007 1.406Zm9.024 5.023-2.688 1.246-.32.16-.32-.16L16 16.64l-2.687 1.246-.32.16-.321-.16-2.688-1.246v4.382L16 24.16l6.016-3.137Zm0 0"/></svg>