<?xml version="1.0" encoding="UTF-8"?>
<svg xmlns="http://www.w3.org/2000/svg" xmlns:xlink="http://www.w3.org/1999/xlink" width="32" height="32" viewBox="0 0 32 32">
<path fill-rule="nonzero" fill="rgb(22.745098%, 85.490197%, 49.019608%)" fill-opacity="1" d="M 6.152344 0 C 5.824219 0 5.511719 0.128906 5.28125 0.359375 C 5.050781 0.589844 4.921875 0.902344 4.921875 1.230469 L 4.921875 17.230469 C 4.921875 17.554688 5.050781 17.871094 5.28125 18.101562 C 5.511719 18.332031 5.824219 18.460938 6.152344 18.460938 L 28.308594 18.460938 C 28.636719 18.460938 28.949219 18.332031 29.179688 18.101562 C 29.410156 17.871094 29.539062 17.554688 29.539062 17.230469 L 29.539062 1.230469 C 29.539062 0.902344 29.410156 0.589844 29.179688 0.359375 C 28.949219 0.128906 28.636719 0 28.308594 0 Z M 13.539062 2.460938 L 20.921875 2.460938 C 21.601562 2.460938 22.152344 3.011719 22.152344 3.691406 C 22.152344 4.015625 22.023438 4.332031 21.792969 4.5625 C 21.5625 4.792969 21.25 4.921875 20.921875 4.921875 L 13.539062 4.921875 C 12.859375 4.921875 12.308594 4.371094 12.308594 3.691406 C 12.308594 3.011719 12.859375 2.460938 13.539062 2.460938 M 6.152344 19.691406 C 2.769531 19.691406 0 22.460938 0 25.847656 C 0 29.230469 2.769531 32 6.152344 32 L 32 32 L 32 29.539062 L 6.152344 29.539062 C 5.171875 29.542969 4.230469 29.15625 3.539062 28.460938 C 2.84375 27.769531 2.457031 26.828125 2.460938 25.847656 C 2.457031 24.867188 2.84375 23.925781 3.535156 23.230469 C 4.230469 22.535156 5.171875 22.148438 6.152344 22.152344 L 32 22.152344 L 32 19.691406 Z M 6.152344 23.382812 C 4.820312 23.417969 3.757812 24.511719 3.757812 25.84375 C 3.757812 27.179688 4.820312 28.269531 6.152344 28.308594 C 7.511719 28.308594 8.617188 27.207031 8.617188 25.847656 C 8.617188 24.484375 7.511719 23.382812 6.152344 23.382812 M 17.230469 23.382812 C 15.898438 23.417969 14.835938 24.511719 14.835938 25.84375 C 14.835938 27.179688 15.898438 28.269531 17.230469 28.308594 C 18.5625 28.269531 19.625 27.179688 19.625 25.84375 C 19.625 24.511719 18.5625 23.417969 17.230469 23.382812 M 28.308594 23.382812 C 26.976562 23.417969 25.914062 24.511719 25.914062 25.84375 C 25.914062 27.179688 26.976562 28.269531 28.308594 28.308594 C 29.640625 28.269531 30.703125 27.179688 30.703125 25.84375 C 30.703125 24.511719 29.640625 23.417969 28.308594 23.382812 "/>
</svg>
