<svg role="img" viewBox="0 0 32 32" xmlns="http://www.w3.org/2000/svg"><path d="M6.152 0a1.23 1.23 0 0 0-1.23 1.23v16a1.23 1.23 0 0 0 1.23 1.23H28.31a1.23 1.23 0 0 0 1.23-1.23v-16A1.23 1.23 0 0 0 28.31 0Zm7.387 2.46h7.383a1.23 1.23 0 1 1 0 2.462h-7.383a1.23 1.23 0 1 1 0-2.461M6.152 19.69C2.77 19.691 0 22.461 0 25.848 0 29.23 2.77 32 6.152 32H32v-2.46H6.152a3.66 3.66 0 0 1-2.613-1.08 3.66 3.66 0 0 1-1.078-2.612 3.7 3.7 0 0 1 1.074-2.618 3.68 3.68 0 0 1 2.617-1.078H32v-2.46Zm0 3.692a2.463 2.463 0 0 0-2.394 2.46 2.466 2.466 0 0 0 2.394 2.466 2.464 2.464 0 1 0 0-4.926m11.078 0a2.463 2.463 0 0 0-2.394 2.46 2.466 2.466 0 0 0 2.394 2.466 2.466 2.466 0 0 0 2.395-2.465 2.463 2.463 0 0 0-2.395-2.461m11.079 0a2.463 2.463 0 0 0-2.395 2.46 2.466 2.466 0 0 0 2.395 2.466 2.466 2.466 0 0 0 2.394-2.465 2.463 2.463 0 0 0-2.394-2.461"/></svg>