<?xml version="1.0" encoding="UTF-8"?>
<svg xmlns="http://www.w3.org/2000/svg" xmlns:xlink="http://www.w3.org/1999/xlink" width="32" height="32" viewBox="0 0 32 32">
<path fill-rule="nonzero" fill="rgb(0%, 0%, 0%)" fill-opacity="1" d="M 6.152344 0 C 5.472656 0 4.921875 0.550781 4.921875 1.230469 L 4.921875 17.230469 C 4.921875 17.910156 5.472656 18.460938 6.152344 18.460938 L 28.308594 18.460938 C 28.988281 18.460938 29.539062 17.910156 29.539062 17.230469 L 29.539062 1.230469 C 29.539062 0.550781 28.988281 0 28.308594 0 Z M 13.539062 2.460938 L 20.921875 2.460938 C 21.601562 2.460938 22.152344 3.011719 22.152344 3.691406 C 22.152344 4.371094 21.601562 4.921875 20.921875 4.921875 L 13.539062 4.921875 C 12.859375 4.921875 12.308594 4.371094 12.308594 3.691406 C 12.308594 3.011719 12.859375 2.460938 13.539062 2.460938 M 6.152344 19.691406 C 2.769531 19.691406 0 22.460938 0 25.847656 C 0 29.230469 2.769531 32 6.152344 32 L 32 32 L 32 29.539062 L 6.152344 29.539062 C 5.171875 29.542969 4.230469 29.15625 3.539062 28.460938 C 2.84375 27.769531 2.457031 26.828125 2.460938 25.847656 C 2.457031 24.867188 2.84375 23.925781 3.535156 23.230469 C 4.230469 22.535156 5.171875 22.148438 6.152344 22.152344 L 32 22.152344 L 32 19.691406 Z M 6.152344 23.382812 C 4.820312 23.417969 3.757812 24.507812 3.757812 25.84375 C 3.757812 27.175781 4.816406 28.269531 6.152344 28.308594 C 7.046875 28.332031 7.886719 27.867188 8.34375 27.097656 C 8.800781 26.324219 8.800781 25.363281 8.34375 24.59375 C 7.890625 23.820312 7.050781 23.355469 6.152344 23.382812 M 17.230469 23.382812 C 15.898438 23.417969 14.835938 24.507812 14.835938 25.84375 C 14.835938 27.175781 15.894531 28.269531 17.230469 28.308594 C 18.5625 28.265625 19.621094 27.175781 19.625 25.84375 C 19.625 24.507812 18.5625 23.417969 17.230469 23.382812 M 28.308594 23.382812 C 26.976562 23.417969 25.914062 24.507812 25.914062 25.84375 C 25.914062 27.175781 26.976562 28.265625 28.308594 28.308594 C 29.640625 28.265625 30.699219 27.175781 30.703125 25.84375 C 30.703125 24.511719 29.640625 23.417969 28.308594 23.382812 "/>
</svg>
