<svg role="img" viewBox="0 0 32 32" height="32" width="32" xmlns="http://www.w3.org/2000/svg"><path d="M6.152 0c-.68 0-1.23.55-1.23 1.23v16c0 .68.55 1.23 1.23 1.23H28.31c.68 0 1.23-.55 1.23-1.23v-16c0-.68-.55-1.23-1.23-1.23Zm7.387 2.46h7.383a1.23 1.23 0 1 1 0 2.462h-7.383a1.23 1.23 0 1 1 0-2.461M6.152 19.69C2.77 19.691 0 22.461 0 25.848 0 29.23 2.77 32 6.152 32H32v-2.46H6.152a3.663 3.663 0 0 1-2.613-1.08 3.663 3.663 0 0 1-1.078-2.612 3.69 3.69 0 0 1 1.074-2.618 3.678 3.678 0 0 1 2.617-1.078H32v-2.46Zm0 3.692a2.46 2.46 0 0 0-2.394 2.46 2.466 2.466 0 0 0 2.394 2.466 2.477 2.477 0 0 0 2.192-1.211 2.458 2.458 0 0 0 0-2.504 2.452 2.452 0 0 0-2.192-1.211m11.078 0a2.46 2.46 0 0 0-2.394 2.46 2.466 2.466 0 0 0 2.394 2.466 2.474 2.474 0 0 0 2.395-2.465 2.46 2.46 0 0 0-2.395-2.461m11.079 0a2.46 2.46 0 0 0-2.395 2.46 2.471 2.471 0 0 0 2.395 2.466 2.474 2.474 0 0 0 2.394-2.465 2.463 2.463 0 0 0-2.394-2.461"/></svg>