<svg role="img" viewBox="0 0 32.881 32" xmlns="http://www.w3.org/2000/svg"><path d="M25.938 15.14a7.4 7.4 0 0 0 4.16-5.44 14.95 14.95 0 0 0-9.52-8.274 11.3 11.3 0 0 1 1.988 7.094 9.58 9.58 0 0 1 3.372 6.62m-17.93-3.824A7.4 7.4 0 0 0 1.59 13.68a14.96 14.96 0 0 0 3.723 12.203 11.4 11.4 0 0 1 2.007-7.188 9.56 9.56 0 0 1 .688-7.379m1.683 11.27a7.38 7.38 0 0 0 1.07 7.105 15 15 0 0 0 11.344-.007 11.26 11.26 0 0 1-5.84-4.325 9.54 9.54 0 0 1-6.574-2.773m8.84-16.066a7.41 7.41 0 0 0-4.472-5.5A15 15 0 0 0 3.746 7.816a11.35 11.35 0 0 1 7.2.192A9.48 9.48 0 0 1 18.53 6.52m6.684 12.992a9.5 9.5 0 0 1-4.602 4.875 7.45 7.45 0 0 0 6.707 1.71 15.02 15.02 0 0 0 4.082-10.277 11.37 11.37 0 0 1-6.187 3.692m0 0" fill="rgb(26.666668%, 62.352943%, 84.705883%)"/><path d="M21.14 15.82a4.69 4.69 0 1 1-9.379.004 4.69 4.69 0 0 1 9.379-.004m0 0" fill="rgb(94.117647%, 30.19608%, 36.078432%)"/></svg>