<svg role="img" viewBox="0 0 32.881 32" height="32" width="32.881" xmlns="http://www.w3.org/2000/svg"><path d="M25.938 15.14a7.402 7.402 0 0 0 4.16-5.44 14.946 14.946 0 0 0-9.52-8.274 11.298 11.298 0 0 1 1.988 7.094 9.582 9.582 0 0 1 3.372 6.62m-17.93-3.824A7.393 7.393 0 0 0 1.59 13.68a14.97 14.97 0 0 0 3.723 12.203 11.392 11.392 0 0 1 2.007-7.188 9.558 9.558 0 0 1 .688-7.379m1.683 11.27a7.382 7.382 0 0 0 1.07 7.105 15.005 15.005 0 0 0 11.344-.007 11.264 11.264 0 0 1-5.84-4.325 9.544 9.544 0 0 1-6.574-2.773m8.84-16.066a7.417 7.417 0 0 0-4.472-5.5A15 15 0 0 0 3.746 7.816a11.354 11.354 0 0 1 7.2.192A9.524 9.524 0 0 1 18.53 6.52m6.684 12.992a9.509 9.509 0 0 1-4.602 4.875 7.447 7.447 0 0 0 6.707 1.71 15.022 15.022 0 0 0 4.082-10.277 11.392 11.392 0 0 1-6.187 3.692m0 0" fill="rgb(26.666667%, 62.352941%, 84.705882%)"/><path d="M21.14 15.82a4.7 4.7 0 0 1-2.324 4.121 4.68 4.68 0 0 1-4.73 0 4.68 4.68 0 0 1-2.324-4.117 4.696 4.696 0 0 1 4.687-4.625 4.694 4.694 0 0 1 4.692 4.621m0 0" fill="rgb(94.117647%, 30.196078%, 36.078431%)"/></svg>