<?xml version="1.0" encoding="UTF-8"?>
<svg xmlns="http://www.w3.org/2000/svg" xmlns:xlink="http://www.w3.org/1999/xlink" width="32.881001" height="32" viewBox="0 0 32.881001 32">
<path fill-rule="nonzero" fill="rgb(26.666667%, 62.352941%, 84.705882%)" fill-opacity="1" d="M 25.9375 15.140625 C 28.128906 14.117188 29.683594 12.085938 30.097656 9.699219 C 28.300781 5.671875 24.816406 2.644531 20.578125 1.425781 C 22.015625 3.503906 22.714844 6 22.566406 8.519531 C 24.535156 10.183594 25.75 12.570312 25.9375 15.140625 M 8.007812 11.316406 C 5.609375 11.007812 3.214844 11.890625 1.589844 13.679688 C 0.949219 18.097656 2.3125 22.574219 5.3125 25.882812 C 5.15625 23.328125 5.863281 20.796875 7.320312 18.695312 C 6.546875 16.242188 6.796875 13.582031 8.007812 11.316406 M 9.691406 22.585938 C 8.792969 24.980469 9.199219 27.667969 10.761719 29.691406 C 14.398438 31.171875 18.46875 31.171875 22.105469 29.683594 C 19.734375 28.925781 17.679688 27.40625 16.265625 25.359375 C 13.796875 25.320312 11.441406 24.324219 9.691406 22.585938 M 18.53125 6.519531 C 18.070312 4.046875 16.386719 1.976562 14.058594 1.019531 C 9.804688 1.699219 6.046875 4.175781 3.746094 7.816406 C 6.101562 7.097656 8.628906 7.164062 10.945312 8.007812 C 13.148438 6.460938 15.90625 5.921875 18.53125 6.519531 M 25.214844 19.511719 C 24.324219 21.640625 22.6875 23.375 20.613281 24.386719 C 22.429688 26.023438 24.9375 26.664062 27.320312 26.097656 C 29.9375 23.316406 31.398438 19.640625 31.402344 15.820312 C 29.792969 17.6875 27.621094 18.984375 25.214844 19.511719 M 25.214844 19.511719 "/>
<path fill-rule="nonzero" fill="rgb(94.117647%, 30.196078%, 36.078431%)" fill-opacity="1" d="M 21.140625 15.820312 C 21.164062 17.511719 20.277344 19.085938 18.816406 19.941406 C 17.355469 20.796875 15.546875 20.796875 14.085938 19.941406 C 12.625 19.089844 11.734375 17.515625 11.761719 15.824219 C 11.800781 13.261719 13.886719 11.203125 16.449219 11.199219 C 19.011719 11.199219 21.101562 13.257812 21.140625 15.820312 M 21.140625 15.820312 "/>
</svg>
