<svg role="img" viewBox="0 0 32 32" xmlns="http://www.w3.org/2000/svg"><path d="M27.27 7.988c-3.665-2.746-7.18-2.668-7.18-2.668l-.36.41c4.36 1.31 6.387 3.23 6.387 3.23-6.238-3.433-14.183-3.41-20.668 0 0 0 2.102-2.026 6.719-3.331l-.258-.309s-3.488-.078-7.18 2.664c0 0-3.69 6.645-3.69 14.825 0 0 2.151 3.691 7.82 3.87 0 0 .949-1.128 1.718-2.1-3.258-.974-4.488-3-4.488-3 2.047 1.28 4.113 2.081 6.691 2.589 4.196.863 9.414-.023 13.309-2.59 0 0-1.281 2.078-4.64 3.027q.839 1.032 1.69 2.051c5.669-.18 7.825-3.875 7.825-3.847-.004-8.18-3.695-14.82-3.695-14.82M11.219 20.421c-1.438 0-2.617-1.254-2.617-2.82.105-3.747 5.152-3.735 5.23 0 0 1.566-1.152 2.82-2.613 2.82m9.36 0c-1.438 0-2.618-1.254-2.618-2.82.117-3.739 5.102-3.739 5.23 0 0 1.566-1.152 2.82-2.613 2.82" fill="rgb(40.000001%, 39.607844%, 82.352942%)"/></svg>