<svg role="img" viewBox="0 0 32 32" height="32" width="32" xmlns="http://www.w3.org/2000/svg"><path d="M4.922 0a1.241 1.241 0 0 0-1.203 1.02L.399 20.64c.28-.105.581-.16.882-.16H30.72c.3 0 .574.067.84.16L28.28 1.02A1.247 1.247 0 0 0 27.082 0ZM16 5.121c4.945 0 8.96 2.863 8.96 6.399 0 3.535-4.015 6.402-8.96 6.402-4.945 0-8.96-2.867-8.96-6.402 0-3.536 4.015-6.399 8.96-6.399m0 4.48c-1.059 0-1.922.57-1.922 1.278 0 .707.863 1.281 1.922 1.281s1.922-.574 1.922-1.281S17.059 9.602 16 9.602M1.281 21.762c-.707 0-1.281.57-1.281 1.277v7.68C0 31.426.574 32 1.281 32H30.72c.707 0 1.281-.574 1.281-1.281v-7.68c0-.707-.574-1.277-1.281-1.277Zm24.32 3.84c.465-.012.899.23 1.137.628.235.403.235.899 0 1.301-.238.403-.675.64-1.14.63a1.282 1.282 0 0 1-1.243-1.282 1.284 1.284 0 0 1 1.247-1.277"/></svg>