<?xml version="1.0" encoding="UTF-8"?>
<svg xmlns="http://www.w3.org/2000/svg" xmlns:xlink="http://www.w3.org/1999/xlink" width="32" height="32" viewBox="0 0 32 32">
<defs>
<clipPath id="disk-error-clip-0">
<path clip-rule="nonzero" d="M 0 32 L 0 0 L 32 0 L 32 32 Z M 23.652344 18.007812 C 22.707031 18.007812 22.023438 18.742188 21.707031 19.375 L 17.027344 27.792969 C 16.921875 28.054688 16.867188 28.316406 16.867188 28.582031 C 16.867188 29.738281 17.816406 30.632812 18.917969 30.632812 L 28.441406 30.632812 C 29.597656 30.632812 30.492188 29.738281 30.492188 28.582031 C 30.492188 28.316406 30.4375 28.054688 30.28125 27.792969 L 25.601562 19.375 C 25.179688 18.535156 24.496094 18.007812 23.652344 18.007812 Z M 23.652344 18.007812 "/>
</clipPath>
</defs>
<g clip-path="url(#disk-error-clip-0)">
<path fill-rule="nonzero"  fill-opacity="1" d="M 4.921875 0 C 4.335938 0 3.816406 0.441406 3.71875 1.019531 L 0.398438 20.640625 C 0.671875 20.539062 0.972656 20.480469 1.28125 20.480469 L 30.71875 20.480469 C 31.019531 20.480469 31.292969 20.546875 31.558594 20.640625 L 28.28125 1.019531 C 28.183594 0.4375 27.664062 0 27.078125 0 Z M 16 5.121094 C 20.945312 5.121094 24.960938 7.984375 24.960938 11.519531 C 24.960938 15.050781 20.945312 17.921875 16 17.921875 C 11.054688 17.921875 7.039062 15.050781 7.039062 11.519531 C 7.039062 7.984375 11.054688 5.121094 16 5.121094 Z M 16 9.601562 C 14.941406 9.601562 14.078125 10.171875 14.078125 10.878906 C 14.078125 11.585938 14.941406 12.160156 16 12.160156 C 17.058594 12.160156 17.921875 11.585938 17.921875 10.878906 C 17.921875 10.171875 17.058594 9.601562 16 9.601562 Z M 1.28125 21.761719 C 0.574219 21.761719 0 22.335938 0 23.039062 L 0 30.71875 C 0 31.425781 0.574219 32 1.28125 32 L 30.71875 32 C 31.425781 32 32 31.425781 32 30.71875 L 32 23.039062 C 32 22.335938 31.425781 21.761719 30.71875 21.761719 Z M 25.601562 25.601562 C 26.308594 25.601562 26.878906 26.171875 26.878906 26.878906 C 26.878906 27.585938 26.308594 28.160156 25.601562 28.160156 C 24.890625 28.160156 24.320312 27.585938 24.320312 26.878906 C 24.320312 26.171875 24.890625 25.601562 25.601562 25.601562 Z M 25.601562 25.601562 "/>
</g>
<path fill-rule="nonzero" fill="rgb(98.039216%, 32.156863%, 32.156863%)" fill-opacity="1" d="M 29.386719 28.316406 L 24.652344 19.902344 C 24.601562 19.691406 24.230469 19.058594 23.652344 19.058594 C 23.074219 19.058594 22.757812 19.691406 22.652344 19.847656 L 17.972656 28.316406 C 17.921875 28.371094 17.921875 28.476562 17.921875 28.582031 C 17.921875 29.105469 18.394531 29.582031 18.917969 29.582031 L 28.441406 29.582031 C 29.019531 29.582031 29.441406 29.160156 29.441406 28.582031 C 29.441406 28.476562 29.441406 28.421875 29.386719 28.316406 Z M 24.230469 27.898438 C 24.230469 27.949219 24.179688 28.003906 24.128906 28.003906 L 23.285156 28.003906 C 23.234375 28.003906 23.179688 27.949219 23.179688 27.898438 L 23.179688 27.054688 C 23.179688 27.003906 23.234375 26.949219 23.285156 26.949219 L 24.128906 26.949219 C 24.179688 26.949219 24.230469 27.003906 24.230469 27.054688 C 24.230469 27.054688 24.230469 27.898438 24.230469 27.898438 Z M 24.230469 25.792969 C 24.230469 25.84375 24.179688 25.898438 24.128906 25.898438 L 23.285156 25.898438 C 23.234375 25.898438 23.179688 25.84375 23.179688 25.792969 L 23.179688 22.847656 C 23.179688 22.792969 23.234375 22.742188 23.285156 22.742188 L 24.128906 22.742188 C 24.179688 22.742188 24.230469 22.792969 24.230469 22.847656 Z M 24.230469 25.792969 "/>
</svg>
