<svg role="img" viewBox="0 0 32 32" xmlns="http://www.w3.org/2000/svg"><defs><clipPath id="disk-failed_svg__a"><path d="M0 32V0h32v22.215c-.7-3.953-4.172-6.985-8.32-6.985-4.645 0-8.45 3.805-8.45 8.45 0 4.148 3.032 7.62 6.985 8.32Zm32 0h-6.855A8.49 8.49 0 0 0 32 25.145Zm0 0"/></clipPath></defs><g clip-path="url(#disk-failed_svg__a)"><path d="M4.922 0a1.24 1.24 0 0 0-1.203 1.02L.399 20.64c.273-.1.574-.16.882-.16H30.72c.3 0 .574.067.84.16L28.28 1.02A1.24 1.24 0 0 0 27.082 0ZM16 5.121c4.945 0 8.96 2.863 8.96 6.399s-4.015 6.402-8.96 6.402-8.96-2.867-8.96-6.402 4.014-6.4 8.96-6.4m0 4.48c-1.059 0-1.922.57-1.922 1.278 0 .707.863 1.281 1.922 1.281s1.922-.574 1.922-1.281S17.059 9.602 16 9.602M1.281 21.762c-.707 0-1.281.57-1.281 1.277v7.68C0 31.426.574 32 1.281 32H30.72c.707 0 1.281-.574 1.281-1.281v-7.68c0-.707-.574-1.277-1.281-1.277Zm24.32 3.84c.708 0 1.278.574 1.278 1.28a1.279 1.279 0 1 1-1.277-1.281"/></g><path d="M23.68 16.64c-3.871 0-7.04 3.169-7.04 7.04s3.169 7.039 7.04 7.039 7.039-3.168 7.039-7.04c0-3.87-3.168-7.038-7.04-7.038m.704 10.418c0 .07-.07.14-.14.14h-1.126a.15.15 0 0 1-.14-.14v-1.125c0-.07.07-.141.14-.141h1.125c.07 0 .14.07.14.14Zm0-2.817c0 .07-.07.14-.14.14h-1.126a.15.15 0 0 1-.14-.14v-3.941c0-.07.07-.14.14-.14h1.125c.07 0 .14.07.14.14Zm0 0" fill="rgb(100%, 9.803922%, 9.803922%)"/></svg>