<svg role="img" viewBox="0 0 32 32" xmlns="http://www.w3.org/2000/svg"><path d="M16 2.668c-4.922 0-9.219 2.687-11.527 6.664h3.254c1.199-1.48 2.765-2.656 4.59-3.328-.419.969-.755 2.101-1.008 3.328h2.742c.636-2.633 1.531-4 1.949-4s1.313 1.367 1.95 4h2.741c-.253-1.227-.59-2.36-1.007-3.328 1.82.672 3.39 1.848 4.59 3.328h3.253C25.22 5.355 20.922 2.668 16 2.668M4.215 12v8h2.844q1.044-.006 1.87-.48a3.3 3.3 0 0 0 1.282-1.348c.3-.578.457-1.238.457-1.985v-.37q0-1.114-.465-1.993a3.37 3.37 0 0 0-1.285-1.351q-.826-.471-1.875-.473Zm8.726 0v8h1.649v-5.262L17.797 20h1.648v-8h-1.644v5.273L14.59 12Zm11.504 0q-.826.001-1.496.277-.661.282-1.02.774a1.85 1.85 0 0 0-.355 1.125c0 .812.446 1.453 1.328 1.93.325.175.762.355 1.32.535q.831.27 1.153.511.323.247.324.7-.002.417-.324.652-.322.229-.895.23c-1.023 0-1.539-.433-1.539-1.293h-1.609c0 .504.133.946.39 1.329.258.378.633.683 1.126.902.515.223 1.07.336 1.632.328q1.296 0 2.06-.574.765-.576.765-1.586c0-.61-.207-1.113-.625-1.52q-.626-.609-1.996-1.02-.74-.224-1.125-.484-.382-.257-.383-.632a.8.8 0 0 1 .328-.657c.219-.164.523-.25.914-.25.406 0 .723.102.945.297q.34.299.34.836h1.606a2.26 2.26 0 0 0-.364-1.254 2.4 2.4 0 0 0-1.011-.855c-.438-.2-.93-.301-1.489-.301M5.934 13.336h.992q.96-.002 1.465.629.504.628.504 1.848v.421q-.011 1.178-.52 1.809-.51.633-1.465.633h-.976Zm-1.461 9.332C6.78 26.645 11.078 29.332 16 29.332s9.219-2.687 11.527-6.664h-3.254c-1.199 1.48-2.765 2.656-4.59 3.328.419-.969.75-2.101 1.008-3.328H17.95c-.64 2.633-1.535 4-1.953 4-.414 0-1.309-1.367-1.945-4H11.31c.254 1.227.59 2.36 1.007 3.328-1.82-.672-3.39-1.848-4.59-3.328Zm0 0" fill="rgb(20.392157%, 59.607846%, 85.882354%)"/></svg>