<?xml version="1.0" encoding="UTF-8"?>
<svg xmlns="http://www.w3.org/2000/svg" xmlns:xlink="http://www.w3.org/1999/xlink" width="32" height="32" viewBox="0 0 32 32">
<path fill-rule="nonzero" fill="rgb(0%, 0%, 0%)" fill-opacity="1" d="M 16 1.28125 C 7.871094 1.28125 1.28125 7.871094 1.28125 16 C 1.28125 24.128906 7.871094 30.71875 16 30.71875 C 24.128906 30.71875 30.71875 24.128906 30.71875 16 C 30.71875 7.871094 24.128906 1.28125 16 1.28125 M 16 2.558594 C 23.421875 2.558594 29.441406 8.578125 29.441406 16 C 29.441406 23.421875 23.421875 29.441406 16 29.441406 C 8.578125 29.441406 2.558594 23.421875 2.558594 16 C 2.558594 8.578125 8.578125 2.558594 16 2.558594 M 15.359375 3.90625 C 14.566406 4.058594 13.796875 4.5 13.066406 5.226562 C 12.246094 6.046875 11.550781 7.171875 10.996094 8.488281 C 12.363281 8.757812 13.84375 8.910156 15.359375 8.945312 Z M 16.640625 3.90625 L 16.640625 8.945312 C 18.105469 8.917969 19.566406 8.765625 21.003906 8.488281 C 20.445312 7.15625 19.738281 6.023438 18.90625 5.199219 C 18.1875 4.488281 17.425781 4.058594 16.640625 3.90625 M 11.972656 4.53125 C 10.257812 5.136719 8.703125 6.121094 7.417969 7.410156 C 8.128906 7.714844 8.902344 7.984375 9.742188 8.203125 C 10.332031 6.746094 11.082031 5.484375 11.972656 4.53125 M 20.023438 4.53125 C 20.914062 5.484375 21.664062 6.746094 22.257812 8.203125 C 23.097656 7.984375 23.875 7.71875 24.582031 7.410156 C 23.296875 6.121094 21.738281 5.136719 20.023438 4.53125 M 25.476562 8.410156 C 24.640625 8.800781 23.710938 9.136719 22.691406 9.410156 C 22.90625 10.082031 23.078125 10.789062 23.226562 11.519531 L 21.929688 11.519531 C 21.800781 10.90625 21.640625 10.300781 21.453125 9.703125 C 19.867188 10.019531 18.257812 10.195312 16.640625 10.222656 L 16.640625 11.519531 L 15.359375 11.519531 L 15.359375 10.226562 C 13.742188 10.195312 12.132812 10.019531 10.550781 9.699219 C 10.359375 10.296875 10.203125 10.90625 10.074219 11.519531 L 8.773438 11.519531 C 8.921875 10.792969 9.09375 10.082031 9.308594 9.410156 C 8.351562 9.15625 7.417969 8.824219 6.519531 8.410156 C 5.621094 9.53125 4.925781 10.800781 4.46875 12.160156 C 4.125 13.195312 3.925781 14.269531 3.867188 15.359375 L 5.761719 15.359375 L 5.761719 16.640625 L 3.867188 16.640625 C 3.925781 17.753906 4.132812 18.824219 4.46875 19.839844 C 4.925781 21.203125 5.621094 22.472656 6.523438 23.589844 C 7.359375 23.199219 8.289062 22.863281 9.308594 22.589844 C 9.09375 21.898438 8.914062 21.191406 8.773438 20.480469 L 10.070312 20.480469 C 10.207031 21.109375 10.359375 21.71875 10.546875 22.296875 C 12.132812 21.980469 13.742188 21.804688 15.359375 21.777344 L 15.359375 20.480469 L 16.640625 20.480469 L 16.640625 21.773438 C 18.257812 21.804688 19.867188 21.980469 21.449219 22.300781 C 21.640625 21.703125 21.796875 21.09375 21.925781 20.480469 L 23.226562 20.480469 C 23.078125 21.207031 22.90625 21.917969 22.691406 22.589844 C 23.707031 22.863281 24.640625 23.199219 25.480469 23.589844 C 26.378906 22.46875 27.074219 21.199219 27.53125 19.839844 C 27.867188 18.824219 28.074219 17.753906 28.132812 16.640625 L 26.238281 16.640625 L 26.238281 15.359375 L 28.132812 15.359375 C 28.074219 14.269531 27.875 13.195312 27.53125 12.160156 C 27.074219 10.796875 26.378906 9.527344 25.476562 8.410156 M 22.570312 12.800781 C 22.933594 12.800781 23.265625 12.847656 23.558594 12.941406 C 23.855469 13.039062 24.109375 13.171875 24.3125 13.339844 C 24.523438 13.511719 24.679688 13.710938 24.792969 13.949219 C 24.90625 14.183594 24.960938 14.441406 24.960938 14.726562 L 23.425781 14.726562 C 23.425781 14.601562 23.410156 14.480469 23.378906 14.363281 C 23.347656 14.257812 23.292969 14.160156 23.21875 14.078125 C 23.144531 13.996094 23.050781 13.933594 22.945312 13.898438 C 22.816406 13.847656 22.679688 13.824219 22.542969 13.828125 C 22.394531 13.828125 22.269531 13.851562 22.164062 13.886719 C 22.066406 13.917969 21.976562 13.972656 21.898438 14.039062 C 21.753906 14.167969 21.679688 14.355469 21.691406 14.550781 C 21.691406 14.648438 21.71875 14.742188 21.769531 14.828125 C 21.832031 14.917969 21.910156 14.996094 22 15.058594 C 22.101562 15.128906 22.21875 15.199219 22.363281 15.261719 C 22.503906 15.324219 22.660156 15.386719 22.828125 15.445312 C 23.183594 15.550781 23.496094 15.667969 23.761719 15.796875 C 24.023438 15.921875 24.246094 16.066406 24.425781 16.230469 C 24.601562 16.394531 24.734375 16.578125 24.824219 16.78125 C 24.910156 16.984375 24.953125 17.214844 24.953125 17.472656 C 24.972656 17.976562 24.730469 18.453125 24.320312 18.742188 C 24.09375 18.898438 23.84375 19.011719 23.578125 19.082031 C 23.257812 19.164062 22.929688 19.203125 22.601562 19.199219 C 22.273438 19.199219 21.949219 19.160156 21.632812 19.078125 C 21.332031 19 21.046875 18.875 20.789062 18.703125 C 20.542969 18.539062 20.339844 18.320312 20.191406 18.066406 C 20.03125 17.785156 19.953125 17.46875 19.960938 17.148438 L 21.507812 17.148438 C 21.507812 17.339844 21.53125 17.5 21.574219 17.628906 C 21.613281 17.75 21.6875 17.859375 21.78125 17.949219 C 21.878906 18.03125 21.996094 18.089844 22.121094 18.121094 C 22.261719 18.160156 22.421875 18.175781 22.601562 18.175781 C 22.746094 18.175781 22.871094 18.160156 22.972656 18.121094 C 23.066406 18.089844 23.152344 18.042969 23.226562 17.980469 C 23.289062 17.917969 23.335938 17.839844 23.363281 17.757812 C 23.417969 17.574219 23.417969 17.375 23.371094 17.191406 C 23.34375 17.097656 23.292969 17.011719 23.21875 16.949219 C 23.117188 16.855469 23.003906 16.78125 22.882812 16.726562 C 22.695312 16.636719 22.5 16.5625 22.300781 16.5 C 22.023438 16.414062 21.75 16.3125 21.484375 16.199219 C 21.242188 16.09375 21.011719 15.957031 20.800781 15.792969 C 20.609375 15.644531 20.449219 15.460938 20.328125 15.253906 C 20.207031 15.035156 20.144531 14.789062 20.152344 14.539062 C 20.152344 14.28125 20.214844 14.046875 20.332031 13.828125 C 20.453125 13.609375 20.621094 13.421875 20.828125 13.28125 C 21.0625 13.121094 21.320312 13 21.59375 12.925781 C 21.914062 12.839844 22.242188 12.796875 22.570312 12.800781 M 7.039062 12.886719 L 9.050781 12.886719 C 9.492188 12.886719 9.894531 12.945312 10.253906 13.0625 C 10.617188 13.179688 10.925781 13.351562 11.179688 13.578125 C 11.4375 13.800781 11.636719 14.074219 11.777344 14.402344 C 11.917969 14.730469 11.988281 15.101562 11.988281 15.519531 L 11.988281 16.488281 C 11.988281 16.90625 11.921875 17.277344 11.78125 17.601562 C 11.640625 17.929688 11.441406 18.203125 11.183594 18.425781 C 10.925781 18.648438 10.613281 18.824219 10.253906 18.9375 C 9.859375 19.058594 9.449219 19.117188 9.039062 19.113281 L 7.039062 19.113281 Z M 13.441406 12.886719 L 14.921875 12.886719 L 17.085938 16.976562 L 17.085938 12.886719 L 18.558594 12.886719 L 18.558594 19.113281 L 17.078125 19.113281 L 14.921875 15.03125 L 14.921875 19.113281 L 13.441406 19.113281 Z M 8.578125 13.933594 L 8.578125 18.070312 L 9.039062 18.070312 C 9.3125 18.070312 9.539062 18.039062 9.71875 17.980469 C 9.886719 17.929688 10.039062 17.832031 10.152344 17.699219 C 10.261719 17.574219 10.339844 17.410156 10.382812 17.210938 C 10.425781 17.011719 10.449219 16.769531 10.449219 16.488281 L 10.449219 15.511719 C 10.453125 15.265625 10.429688 15.023438 10.382812 14.785156 C 10.347656 14.605469 10.269531 14.4375 10.152344 14.296875 C 10.039062 14.164062 9.890625 14.070312 9.722656 14.019531 C 9.507812 13.957031 9.28125 13.925781 9.054688 13.933594 Z M 15.359375 23.054688 C 14.765625 23.070312 14.179688 23.109375 13.601562 23.15625 C 13.441406 23.171875 13.28125 23.179688 13.121094 23.199219 C 12.410156 23.269531 11.699219 23.375 10.996094 23.511719 C 11.554688 24.84375 12.261719 25.976562 13.09375 26.800781 C 13.8125 27.511719 14.574219 27.941406 15.359375 28.09375 Z M 16.640625 23.054688 L 16.640625 28.09375 C 17.433594 27.9375 18.203125 27.496094 18.933594 26.769531 C 19.753906 25.953125 20.449219 24.828125 21.003906 23.511719 C 19.566406 23.234375 18.105469 23.082031 16.640625 23.054688 M 9.742188 23.796875 C 9.738281 23.796875 9.730469 23.800781 9.722656 23.800781 C 8.933594 24.003906 8.164062 24.265625 7.414062 24.585938 C 7.574219 24.746094 7.738281 24.898438 7.90625 25.050781 C 8.070312 25.199219 8.238281 25.34375 8.414062 25.480469 C 8.542969 25.585938 8.675781 25.683594 8.8125 25.785156 C 8.859375 25.820312 8.90625 25.859375 8.953125 25.890625 C 9.109375 26.003906 9.265625 26.109375 9.425781 26.210938 C 9.597656 26.324219 9.773438 26.429688 9.953125 26.53125 L 10.089844 26.613281 C 10.425781 26.800781 10.773438 26.96875 11.128906 27.128906 L 11.3125 27.210938 C 11.53125 27.300781 11.753906 27.386719 11.976562 27.46875 C 11.085938 26.515625 10.335938 25.253906 9.742188 23.796875 M 22.257812 23.796875 C 21.667969 25.253906 20.917969 26.515625 20.027344 27.46875 C 21.742188 26.863281 23.296875 25.878906 24.582031 24.589844 C 23.828125 24.265625 23.050781 24.003906 22.257812 23.796875 M 22.257812 23.796875 "/>
</svg>
