<svg role="img" viewBox="0 0 32 32" height="32" width="32" xmlns="http://www.w3.org/2000/svg"><path d="M16 1.281C7.871 1.281 1.281 7.871 1.281 16S7.871 30.719 16 30.719 30.719 24.129 30.719 16 24.129 1.281 16 1.281m0 1.278c7.422 0 13.441 6.02 13.441 13.441 0 7.422-6.02 13.441-13.441 13.441-7.422 0-13.441-6.02-13.441-13.441C2.559 8.578 8.579 2.559 16 2.559m-.64 1.347c-.794.153-1.563.594-2.294 1.32-.82.82-1.515 1.946-2.07 3.262 1.367.27 2.848.422 4.363.457Zm1.28 0v5.04a25.804 25.804 0 0 0 4.364-.458c-.559-1.332-1.266-2.465-2.098-3.289-.718-.71-1.48-1.14-2.265-1.293m-4.667.625a12.165 12.165 0 0 0-4.555 2.88c.71.304 1.484.573 2.324.792.59-1.457 1.34-2.719 2.23-3.672m8.05 0c.891.953 1.641 2.215 2.235 3.672.84-.219 1.617-.484 2.324-.793a12.15 12.15 0 0 0-4.559-2.879m5.454 3.88c-.836.39-1.766.726-2.786 1 .215.671.387 1.378.536 2.109H21.93a18.965 18.965 0 0 0-.477-1.817 26.944 26.944 0 0 1-4.812.52v1.297h-1.282v-1.293a26.929 26.929 0 0 1-4.808-.528 18.229 18.229 0 0 0-.477 1.82h-1.3c.148-.726.32-1.437.535-2.109a17.264 17.264 0 0 1-2.79-1 12.248 12.248 0 0 0-2.05 3.75 12.208 12.208 0 0 0-.602 3.2h1.895v1.28H3.867c.059 1.114.266 2.184.602 3.2a12.087 12.087 0 0 0 2.054 3.75c.836-.39 1.766-.727 2.786-1a20.05 20.05 0 0 1-.536-2.11h1.297c.137.63.29 1.239.477 1.817a26.944 26.944 0 0 1 4.812-.52V20.48h1.282v1.293a26.96 26.96 0 0 1 4.808.528 18.2 18.2 0 0 0 .477-1.82h1.3c-.148.726-.32 1.437-.535 2.109 1.016.273 1.95.61 2.79 1a12.248 12.248 0 0 0 2.05-3.75c.336-1.016.543-2.086.602-3.2h-1.895v-1.28h1.895a12.208 12.208 0 0 0-.602-3.2 12.087 12.087 0 0 0-2.054-3.75M22.57 12.8c.364 0 .696.047.989.14.296.098.55.23.753.399.211.172.368.37.481.61.113.234.168.491.168.777h-1.535a1.32 1.32 0 0 0-.047-.364.76.76 0 0 0-.16-.285.726.726 0 0 0-.274-.18 1.044 1.044 0 0 0-.402-.07c-.148 0-.273.024-.379.059a.832.832 0 0 0-.266.152.644.644 0 0 0-.207.512.52.52 0 0 0 .079.277.86.86 0 0 0 .23.23c.102.07.219.141.363.204.14.062.297.125.465.183.356.106.668.223.934.352.261.125.484.27.664.433.176.165.308.348.398.551.086.203.13.434.13.692a1.49 1.49 0 0 1-.634 1.27 2.28 2.28 0 0 1-.742.339 3.76 3.76 0 0 1-.976.117 3.85 3.85 0 0 1-.97-.12 2.712 2.712 0 0 1-.843-.376 1.94 1.94 0 0 1-.598-.637 1.77 1.77 0 0 1-.23-.918h1.547c0 .192.023.352.066.48a.773.773 0 0 0 .207.321.8.8 0 0 0 .34.172c.14.04.3.055.48.055.145 0 .27-.016.372-.055a.717.717 0 0 0 .254-.14.547.547 0 0 0 .136-.223 1.065 1.065 0 0 0 .008-.566.51.51 0 0 0-.152-.243 1.317 1.317 0 0 0-.336-.222 4.344 4.344 0 0 0-.582-.227 8.39 8.39 0 0 1-.817-.3 3.227 3.227 0 0 1-.683-.407 1.867 1.867 0 0 1-.473-.54 1.405 1.405 0 0 1-.176-.714c0-.258.063-.492.18-.71a1.6 1.6 0 0 1 .496-.548 2.61 2.61 0 0 1 .766-.355 3.63 3.63 0 0 1 .976-.125m-15.53.086h2.01c.442 0 .845.058 1.204.175.363.118.672.29.926.516.258.223.457.496.597.824.141.328.211.7.211 1.118v.968c0 .418-.066.79-.207 1.114-.14.328-.34.601-.597.824-.258.222-.57.398-.93.512a3.95 3.95 0 0 1-1.215.175h-2Zm6.401 0h1.48l2.165 4.09v-4.09h1.473v6.226h-1.48l-2.157-4.082v4.082h-1.48Zm-4.863 1.047v4.136h.461c.274 0 .5-.03.68-.09a.914.914 0 0 0 .433-.28c.11-.126.188-.29.23-.49.044-.198.067-.44.067-.722v-.976a3.49 3.49 0 0 0-.066-.727 1.115 1.115 0 0 0-.23-.488.924.924 0 0 0-.43-.277 2.185 2.185 0 0 0-.668-.086Zm6.781 9.12c-.593.016-1.18.055-1.757.102-.16.016-.32.024-.48.043a23.61 23.61 0 0 0-2.126.313c.559 1.332 1.266 2.465 2.098 3.289.719.71 1.48 1.14 2.265 1.293Zm1.282 0v5.04c.793-.157 1.562-.598 2.293-1.324.82-.817 1.515-1.942 2.07-3.258a25.846 25.846 0 0 0-4.363-.457m-6.899.743c-.004 0-.012.004-.02.004a16.14 16.14 0 0 0-2.308.785 13.329 13.329 0 0 0 .492.465c.164.148.332.293.508.43.129.105.262.203.399.304.046.035.093.074.14.106.156.113.313.218.473.32a8.369 8.369 0 0 0 .527.32l.137.082c.336.188.683.356 1.039.516l.184.082c.218.09.44.176.664.258-.891-.953-1.641-2.215-2.235-3.672m12.516 0c-.59 1.457-1.34 2.719-2.23 3.672a12.165 12.165 0 0 0 4.554-2.88 16.359 16.359 0 0 0-2.324-.792m0 0"/></svg>