<svg role="img" viewBox="0 0 32 32" height="32" width="32" xmlns="http://www.w3.org/2000/svg"><path d="M14.191 4.668v3.07h3.305v-3.07ZM6.383 8.344v3.039h3.305v-3.04Zm3.906 0v3.039h3.3v-3.04Zm3.902 0v3.039h3.305v-3.04Zm10.735.941-.465.707c-.922 1.406-1.172 3.723-.184 5.25-.437.238-1.289.559-2.422.543H.125c-.434 2.567.29 5.906 2.2 8.2 1.85 2.222 4.632 3.347 8.265 3.347 7.87 0 13.695-3.664 16.422-10.328 1.066.02 3.379.004 4.562-2.29.078-.124.332-.663.426-.862l-.664-.45c-.719-.488-2.379-.668-3.652-.425-.168-1.215-.836-2.27-2.055-3.223ZM2.48 11.992v3.004h3.305v-3.004Zm3.903 0v3.004h3.305v-3.004Zm3.906 0v3.004h3.3v-3.004Zm7.813 0v3.004h3.304v-3.004Zm-3.91.004v3.008h3.304v-3.008Zm0 0"/></svg>