<svg role="img" viewBox="0 0 32 32" xmlns="http://www.w3.org/2000/svg"><path d="M21.137 16.64c-.977-.613-2.344-1.175-4.09-1.683q-2.619-.767-3.762-1.703-1.143-.934-1.144-2.512c0-1.133.363-2.02 1.086-2.652q1.078-.954 3.125-.953c1.304 0 2.343.43 3.109 1.289q1.154 1.283 1.152 3.465V12h3.164v-.105q0-3.166-1.605-4.989-1.609-1.823-4.496-2.176h-.008V1.332H15v3.402c-1.855.22-3.324.852-4.395 1.91Q8.96 8.268 8.961 10.798q0 2.484 1.676 4.101 1.677 1.611 5.336 2.618 2.631.785 3.738 1.757 1.108.978 1.11 2.395 0 1.683-1.29 2.656-1.288.973-3.543.973-2.301 0-3.554-1.16-1.254-1.155-1.254-3.301H8q0 3.052 1.813 4.84c1.175 1.156 2.8 1.824 4.855 2.023v2.969h2.664v-2.95h.035c2.094-.195 3.727-.823 4.89-1.882Q24 24.243 24 21.636q-.002-1.634-.695-2.859-.698-1.217-2.168-2.136m0 0" fill="rgb(0%, 0%, 0%)"/></svg>