<svg role="img" viewBox="0 0 8 32" height="32" width="8" xmlns="http://www.w3.org/2000/svg"><path d="M4 4.332v.02M4 16v.016m0 11.652v.016M4 6a1.668 1.668 0 0 1-1.285-2.793A1.666 1.666 0 1 1 4 6m0 11.668a1.675 1.675 0 0 1-1.496-2.52A1.67 1.67 0 0 1 4 14.336a1.672 1.672 0 0 1 1.555 1.668c0 .875-.68 1.601-1.555 1.664m0 11.664c-.441 0-.867-.176-1.18-.484a1.67 1.67 0 0 1-.488-1.18c0-.922.742-1.668 1.664-1.668.922 0 1.668.742 1.668 1.664 0 .922-.742 1.668-1.664 1.668m0 0" fill="none" stroke="rgb(65.490196%, 65.490196%, 65.490196%)" stroke-linecap="round" stroke-linejoin="round" stroke-width="4"/></svg>