<?xml version="1.0" encoding="UTF-8"?>
<svg xmlns="http://www.w3.org/2000/svg" xmlns:xlink="http://www.w3.org/1999/xlink" width="8" height="32" viewBox="0 0 8 32">
<path fill="none" stroke-width="4" stroke-linecap="round" stroke-linejoin="round" stroke="rgb(65.490196%, 65.490196%, 65.490196%)" stroke-opacity="1" stroke-miterlimit="4" d="M 4 4.332031 L 4 4.351562 M 4 16 L 4 16.015625 M 4 27.667969 L 4 27.683594 M 4 6 C 3.328125 6.023438 2.710938 5.640625 2.429688 5.03125 C 2.148438 4.421875 2.261719 3.703125 2.714844 3.207031 C 3.226562 2.652344 4.046875 2.507812 4.714844 2.859375 C 5.386719 3.210938 5.734375 3.96875 5.566406 4.707031 C 5.398438 5.441406 4.753906 5.972656 4 6 M 4 17.667969 C 3.390625 17.6875 2.820312 17.371094 2.507812 16.847656 C 2.199219 16.324219 2.195312 15.671875 2.503906 15.148438 C 2.816406 14.625 3.390625 14.3125 4 14.335938 C 4.875 14.398438 5.554688 15.125 5.554688 16.003906 C 5.554688 16.878906 4.875 17.605469 4 17.667969 M 4 29.332031 C 3.558594 29.332031 3.132812 29.15625 2.820312 28.847656 C 2.507812 28.535156 2.332031 28.109375 2.332031 27.667969 C 2.332031 26.746094 3.074219 26 3.996094 26 C 4.917969 26 5.664062 26.742188 5.664062 27.664062 C 5.664062 28.585938 4.921875 29.332031 4 29.332031 M 4 29.332031 "/>
</svg>
