<svg role="img" viewBox="0 0 8 32" xmlns="http://www.w3.org/2000/svg"><path d="M4 4.332v.02M4 16v.016m0 11.652v.016M4 6c-.61.02-1.18-.293-1.492-.816a1.665 1.665 0 0 1 2-2.418A1.664 1.664 0 0 1 5.59 4.59 1.67 1.67 0 0 1 4 6m0 11.668a1.674 1.674 0 0 1-1.496-2.52A1.67 1.67 0 0 1 4 14.336a1.669 1.669 0 0 1 0 3.332m0 11.664c-.441 0-.867-.176-1.18-.484a1.67 1.67 0 0 1-.488-1.18c0-.922.742-1.668 1.664-1.668s1.668.742 1.668 1.664S4.922 29.332 4 29.332m0 0" stroke="rgb(65.490198%, 65.490198%, 65.490198%)" stroke-linecap="round" stroke-linejoin="round" stroke-width="4"/></svg>