<?xml version="1.0" encoding="UTF-8"?>
<svg xmlns="http://www.w3.org/2000/svg" xmlns:xlink="http://www.w3.org/1999/xlink" width="8" height="32" viewBox="0 0 8 32">
<path fill="none" stroke-width="32" stroke-linecap="round" stroke-linejoin="round" stroke="rgb(65.490198%, 65.490198%, 65.490198%)" stroke-opacity="1" stroke-miterlimit="4" d="M 32 34.65625 L 32 34.8125 M 32 128 L 32 128.125 M 32 221.34375 L 32 221.46875 M 32 48 C 27.125 48.15625 22.5625 45.65625 20.0625 41.46875 C 17.5625 37.28125 17.5625 32.03125 20.0625 27.84375 C 23.34375 22.34375 30.03125 19.9375 36.0625 22.125 C 42.0625 24.28125 45.71875 30.40625 44.71875 36.71875 C 43.71875 43.0625 38.375 47.78125 32 48 M 32 141.34375 C 27.125 141.5 22.5625 139 20.0625 134.8125 C 17.5625 130.625 17.5625 125.40625 20.03125 121.1875 C 22.53125 117 27.125 114.5 32 114.6875 C 39.09375 115.03125 44.6875 120.90625 44.6875 128.03125 C 44.6875 135.125 39.09375 141 32 141.34375 M 32 234.65625 C 28.46875 234.65625 25.0625 233.25 22.5625 230.78125 C 20.0625 228.28125 18.65625 224.875 18.65625 221.34375 C 18.65625 213.96875 24.59375 208 31.96875 208 C 39.34375 208 45.3125 213.9375 45.3125 221.3125 C 45.3125 228.6875 39.375 234.65625 32 234.65625 M 32 234.65625 " transform="matrix(0.125, 0, 0, 0.125, 0, 0)"/>
</svg>
