<svg role="img" viewBox="0 0 32 32" xmlns="http://www.w3.org/2000/svg"><path d="M15.77 2.668C8.535 2.668 2.668 8.637 2.668 16S8.535 29.332 15.77 29.332c7.238 0 13.105-5.969 13.105-13.332S23.008 2.668 15.77 2.668" fill="rgb(100%, 100%, 100%)"/><path d="M15.902 28.316c6.735 0 12.22-5.48 12.22-12.218 0-6.739-5.481-12.22-12.22-12.22-6.738 0-12.218 5.481-12.218 12.22 0 6.738 5.48 12.218 12.218 12.218M10.34 18.45a.51.51 0 0 1 .473-.316h1.527c.137 0 .265.055.36.152l2.183 2.184V8.46a.5.5 0 0 1 .152-.36.5.5 0 0 1 .36-.148h1.015a.5.5 0 0 1 .36.149.5.5 0 0 1 .152.359v12.008l2.183-2.184a.5.5 0 0 1 .36-.152h1.527c.207 0 .39.117.473.312a.51.51 0 0 1-.113.559l-5.09 5.09a.51.51 0 0 1-.719 0l-5.094-5.09a.51.51 0 0 1-.11-.555"/></svg>