<?xml version="1.0" encoding="UTF-8"?>
<svg xmlns="http://www.w3.org/2000/svg" xmlns:xlink="http://www.w3.org/1999/xlink" width="32" height="32" viewBox="0 0 32 32">
<path fill-rule="nonzero" fill="rgb(0%, 0%, 0%)" fill-opacity="1" d="M 16 22.921875 L 20.410156 18.511719 L 19.464844 17.570312 L 16.667969 20.371094 L 16.667969 14.101562 L 15.332031 14.101562 L 15.332031 20.371094 L 12.535156 17.570312 L 11.589844 18.511719 Z M 6.667969 10.410156 L 6.667969 24.511719 C 6.667969 24.753906 6.742188 24.949219 6.898438 25.101562 C 7.050781 25.257812 7.246094 25.332031 7.488281 25.332031 L 24.511719 25.332031 C 24.753906 25.332031 24.949219 25.257812 25.101562 25.101562 C 25.257812 24.949219 25.332031 24.753906 25.332031 24.511719 L 25.332031 10.410156 Z M 7.691406 26.667969 C 7.097656 26.667969 6.554688 26.421875 6.066406 25.933594 C 5.578125 25.445312 5.332031 24.90625 5.332031 24.308594 L 5.332031 9.980469 C 5.332031 9.722656 5.375 9.476562 5.457031 9.246094 C 5.539062 9.019531 5.664062 8.808594 5.832031 8.613281 L 7.90625 6.121094 C 8.101562 5.859375 8.34375 5.664062 8.632812 5.53125 C 8.921875 5.398438 9.234375 5.332031 9.5625 5.332031 L 22.386719 5.332031 C 22.714844 5.332031 23.03125 5.398438 23.328125 5.53125 C 23.628906 5.664062 23.875 5.859375 24.066406 6.121094 L 26.167969 8.667969 C 26.335938 8.859375 26.460938 9.074219 26.542969 9.3125 C 26.625 9.550781 26.667969 9.800781 26.667969 10.058594 L 26.667969 24.308594 C 26.667969 24.902344 26.421875 25.445312 25.933594 25.933594 C 25.445312 26.421875 24.90625 26.664062 24.308594 26.664062 Z M 7.171875 9.078125 L 24.800781 9.078125 L 23.027344 6.945312 C 22.941406 6.863281 22.839844 6.792969 22.730469 6.742188 C 22.621094 6.691406 22.503906 6.667969 22.382812 6.667969 L 9.589844 6.667969 C 9.46875 6.667969 9.355469 6.691406 9.242188 6.742188 C 9.128906 6.796875 9.03125 6.863281 8.949219 6.949219 Z M 16 17.871094 "/>
</svg>
