<svg role="img" viewBox="0 0 32 32" xmlns="http://www.w3.org/2000/svg"><path d="m16.012 30.852-.266-.125c-.133-.059-13.078-6.25-13.078-24.711v-.489l.477-.105c4.484-.984 7.132-2.379 9.066-3.399C13.715 1.238 14.8.668 16 .668s2.285.57 3.79 1.355c1.933 1.02 4.581 2.415 9.065 3.399l.477.105v.489c0 17.847-12.926 24.632-13.059 24.703Zm0 0"/><path d="M16.316 6.465c-4.523 0-8.187 3.73-8.187 8.332 0 4.601 3.664 8.336 8.187 8.336 4.524 0 8.192-3.735 8.192-8.336s-3.668-8.332-8.192-8.332" fill="rgb(100%, 100%, 100%)"/><path d="M16.398 22.496c4.211 0 7.637-3.426 7.637-7.637s-3.426-7.636-7.637-7.636-7.636 3.425-7.636 7.636 3.425 7.637 7.636 7.637m-3.476-6.168a.33.33 0 0 1 .297-.195h.953c.086 0 .168.031.226.094l1.364 1.363v-7.504c0-.176.144-.316.32-.316h.633c.18 0 .32.14.32.316v7.504l1.367-1.363a.3.3 0 0 1 .223-.094h.953a.31.31 0 0 1 .297.195.32.32 0 0 1-.066.348l-3.184 3.18a.3.3 0 0 1-.227.093.3.3 0 0 1-.222-.094l-3.184-3.18a.33.33 0 0 1-.07-.347"/></svg>