<svg role="img" viewBox="0 0 32 32" height="32" width="32" xmlns="http://www.w3.org/2000/svg"><path d="M1.8 0C.814 0 0 .813 0 1.8v2.68h28.16V1.8c0-.987-.812-1.8-1.8-1.8ZM0 5.762v19.84c0 .351.29.636.64.636h17.4l-.821.82a.695.695 0 0 0-.18.282l-1.078 3.84a.632.632 0 0 0 .16.62c.16.165.395.235.617.18l3.84-1.02a.695.695 0 0 0 .281-.179L30.98 20.738a.619.619 0 0 0 .141-.218l.117-.098a2.633 2.633 0 0 0 0-3.723 2.632 2.632 0 0 0-3.078-.46V5.761Zm4.48 3.84h2.56v1.277H4.48Zm4.48 0h14.72v1.277H8.96ZM4.48 12.8h2.56v1.277H4.48Zm4.48 0h14.72v1.277H8.96ZM4.48 16h2.56v1.281H4.48Zm4.48 0h14.72v1.281H8.96ZM28 18.078 29.922 20l-9.844 9.762-1.86-1.82.02-.083ZM4.48 19.2h2.56v1.281H4.48Zm4.48 0h12.161v1.281H8.961Zm0 0"/></svg>