<?xml version="1.0" encoding="UTF-8"?>
<svg xmlns="http://www.w3.org/2000/svg" xmlns:xlink="http://www.w3.org/1999/xlink" width="32" height="32" viewBox="0 0 32 32">
<path fill-rule="nonzero" fill="rgb(0%, 0%, 0%)" fill-opacity="1" d="M 1.800781 0 C 0.8125 0 0 0.8125 0 1.800781 L 0 4.480469 L 28.160156 4.480469 L 28.160156 1.800781 C 28.160156 0.8125 27.347656 0 26.359375 0 Z M 0 5.761719 L 0 25.601562 C 0 25.953125 0.289062 26.238281 0.640625 26.238281 L 18.039062 26.238281 L 17.21875 27.058594 C 17.136719 27.136719 17.074219 27.234375 17.039062 27.339844 L 15.960938 31.179688 C 15.898438 31.398438 15.960938 31.636719 16.121094 31.800781 C 16.28125 31.964844 16.515625 32.035156 16.738281 31.980469 L 20.578125 30.960938 C 20.683594 30.925781 20.78125 30.863281 20.859375 30.78125 L 30.980469 20.738281 C 31.042969 20.675781 31.089844 20.601562 31.121094 20.519531 L 31.238281 20.421875 C 32.265625 19.394531 32.265625 17.726562 31.238281 16.699219 C 30.421875 15.890625 29.175781 15.703125 28.160156 16.238281 L 28.160156 5.761719 Z M 4.480469 9.601562 L 7.039062 9.601562 L 7.039062 10.878906 L 4.480469 10.878906 Z M 8.960938 9.601562 L 23.679688 9.601562 L 23.679688 10.878906 L 8.960938 10.878906 Z M 4.480469 12.800781 L 7.039062 12.800781 L 7.039062 14.078125 L 4.480469 14.078125 Z M 8.960938 12.800781 L 23.679688 12.800781 L 23.679688 14.078125 L 8.960938 14.078125 Z M 4.480469 16 L 7.039062 16 L 7.039062 17.28125 L 4.480469 17.28125 Z M 8.960938 16 L 23.679688 16 L 23.679688 17.28125 L 8.960938 17.28125 Z M 28 18.078125 L 29.921875 20 L 20.078125 29.761719 L 18.21875 27.941406 L 18.238281 27.859375 Z M 4.480469 19.199219 L 7.039062 19.199219 L 7.039062 20.480469 L 4.480469 20.480469 Z M 8.960938 19.199219 L 21.121094 19.199219 L 21.121094 20.480469 L 8.960938 20.480469 Z M 8.960938 19.199219 "/>
</svg>
