<svg role="img" viewBox="0 0 32 32" height="32" width="32" xmlns="http://www.w3.org/2000/svg"><path d="M27.863 7.355v-.003A13.466 13.466 0 0 0 17.5 2.5c-5.3 0-9.883 3.055-12.094 7.5h17.598a5.348 5.348 0 0 0 3.457-1.25c.5-.422.973-.879 1.402-1.395" fill="rgb(99.607843%, 77.254902%, 7.843137%)" fill-rule="evenodd"/><path d="M4 16c0 1.21.16 2.383.46 3.5H21a3.5 3.5 0 1 0 0-7H4.46A13.392 13.392 0 0 0 4 16" fill="rgb(20.392157%, 21.568627%, 25.490196%)" fill-rule="evenodd"/><path d="M27.863 24.645v.003A13.466 13.466 0 0 1 17.5 29.5c-5.3 0-9.883-3.055-12.094-7.5h17.598a5.348 5.348 0 0 1 3.457 1.25c.5.422.973.879 1.402 1.395" fill="rgb(0%, 74.901961%, 70.196078%)" fill-rule="evenodd"/></svg>