<svg role="img" viewBox="0 0 32 32" height="32" width="32" xmlns="http://www.w3.org/2000/svg"><path d="M31.996 16.8c0-2.69-1.672-5.015-4.152-5.929.101-.57.152-1.144.156-1.723C28 4.156 23.95.11 18.96.11a8.965 8.965 0 0 0-7.312 3.762 4.802 4.802 0 0 0-2.925-.992 4.811 4.811 0 0 0-4.805 4.805c0 .574.105 1.148.285 1.671C1.7 10.22 0 12.621 0 15.285a6.315 6.315 0 0 0 4.18 5.953c-.11.57-.16 1.149-.157 1.727 0 4.96 4.047 9.008 9.008 9.008 2.926 0 5.617-1.41 7.317-3.762.84.66 1.879 1.02 2.949 1.02a4.806 4.806 0 0 0 4.805-4.805c0-.574-.102-1.149-.286-1.672 2.454-.887 4.18-3.29 4.18-5.953m0 0" fill="rgb(100%, 100%, 100%)"/><path d="m12.512 13.797 7.129 3.262 7.21-6.32a8.063 8.063 0 0 0-7.89-9.637 7.991 7.991 0 0 0-6.633 3.5l-1.203 6.214Zm0 0" fill="rgb(95.686275%, 74.117647%, 9.803922%)"/><path d="M5.117 21.344a8.382 8.382 0 0 0-.156 1.62c0 4.438 3.633 8.071 8.07 8.071a8.104 8.104 0 0 0 6.688-3.527l1.176-6.215-1.594-3.031-7.156-3.266Zm0 0" fill="rgb(23.529412%, 74.509804%, 69.411765%)"/><path d="m5.066 8.988 4.883 1.153 1.098-5.567a3.8 3.8 0 0 0-2.348-.781 3.89 3.89 0 0 0-3.168 1.652 3.88 3.88 0 0 0-.465 3.543m0 0" fill="rgb(91.372549%, 27.843137%, 54.901961%)"/><path d="M4.648 10.164c-2.191.707-3.707 2.82-3.707 5.121a5.369 5.369 0 0 0 3.473 5.04l6.867-6.216-1.25-2.691Zm0 0" fill="rgb(17.254902%, 27.058824%, 56.078431%)"/><path d="M20.973 27.48c.68.524 1.488.813 2.324.813a3.879 3.879 0 0 0 3.168-1.656 3.88 3.88 0 0 0 .465-3.543l-4.887-1.149Zm0 0" fill="rgb(58.431373%, 77.647059%, 23.921569%)"/><path d="m21.965 20.664 5.383 1.254c2.191-.73 3.707-2.82 3.707-5.117a5.402 5.402 0 0 0-3.473-5.043l-7.055 6.164Zm0 0" fill="rgb(9.019608%, 40%, 33.333333%)"/></svg>