<?xml version="1.0" encoding="UTF-8"?>
<svg xmlns="http://www.w3.org/2000/svg" xmlns:xlink="http://www.w3.org/1999/xlink" width="32" height="32" viewBox="0 0 32 32">
<path fill="none" stroke-width="21.336" stroke-linecap="round" stroke-linejoin="round" stroke="rgb(0%, 0%, 0%)" stroke-opacity="1" stroke-miterlimit="4" d="M 42.65625 96 L 108.8125 145.59375 C 120.1875 154.125 135.8125 154.125 147.1875 145.59375 L 213.34375 96 " transform="matrix(0.125, 0, 0, 0.125, 0, 0)"/>
<path fill="none" stroke-width="21.336" stroke-linecap="round" stroke-linejoin="miter" stroke="rgb(0%, 0%, 0%)" stroke-opacity="1" stroke-miterlimit="4" d="M 32 97.875 C 32 90.125 36.1875 82.96875 42.96875 79.21875 L 117.65625 37.75 C 124.09375 34.1875 131.90625 34.1875 138.34375 37.75 L 213.03125 79.21875 C 219.8125 82.96875 224 90.125 224 97.875 L 224 181.34375 C 224 193.125 214.4375 202.65625 202.65625 202.65625 L 53.34375 202.65625 C 41.5625 202.65625 32 193.125 32 181.34375 Z M 32 97.875 " transform="matrix(0.125, 0, 0, 0.125, 0, 0)"/>
</svg>
