<svg role="img" viewBox="0 0 32 32" height="32" width="32" xmlns="http://www.w3.org/2000/svg"><defs><linearGradient gradientTransform="scale(1.77778)" gradientUnits="userSpaceOnUse" id="2__0__linear-pattern-0" x1="13.23" x2="8.6" y1="12.83" y2="4.06"><stop offset="0" stop-color="rgb(9.803922%, 53.333333%, 85.098039%)"/><stop offset=".9" stop-color="rgb(32.941176%, 68.235294%, 94.117647%)"/></linearGradient><linearGradient gradientTransform="scale(1.77778)" gradientUnits="userSpaceOnUse" id="3__1__linear-pattern-1" x1="11.23" x2="14.44" y1="10.28" y2="15.8"><stop offset=".1" stop-color="rgb(32.941176%, 68.235294%, 94.117647%)"/><stop offset=".29" stop-color="rgb(30.980392%, 67.058824%, 93.333333%)"/><stop offset=".51" stop-color="rgb(25.490196%, 63.529412%, 91.372549%)"/><stop offset=".74" stop-color="rgb(16.470588%, 57.647059%, 87.843137%)"/><stop offset=".88" stop-color="rgb(9.803922%, 53.333333%, 85.098039%)"/></linearGradient></defs><path d="m1.762 17.777 14.058 9.137 14.332-9.172 1.793 2.098L15.82 30.223-.055 19.84Zm0 0" fill="rgb(31.372549%, 90.196078%, 100%)"/><path d="M2.809 16.605 15.82 1.102l13.282 15.52-13.282 8.39Zm0 0" fill="rgb(100%, 100%, 100%)"/><path d="M15.82 1.102v23.91L2.81 16.605Zm0 0" fill="rgb(31.372549%, 90.196078%, 100%)"/><path d="M15.82 1.102v23.91l13.282-8.39Zm0 0" fill="url(#2__0__linear-pattern-0)"/><path d="m15.82 13.457 13.282 3.164-13.282 8.39Zm0 0" fill="rgb(32.54902%, 69.411765%, 87.843137%)"/><path d="M15.82 25.012 2.81 16.605l13.011-3.148Zm0 0" fill="rgb(61.176471%, 92.156863%, 100%)"/><path d="M15.82 30.223 31.945 19.84l-1.793-2.098-14.332 9.172Zm0 0" fill="url(#3__1__linear-pattern-1)"/><path d="M24.035 30.898C31.82 25.316 32 22.133 32 21.137c0-1.422-.14-5.117-3.86-5.332A4.03 4.03 0 0 0 24 18.508a4.016 4.016 0 0 0-4.09-2.774C16.195 16 16 19.714 16 21.137c0 .996.23 4.18 7.945 9.707" fill="rgb(94.117647%, 25.098039%, 28.627451%)"/><path d="M32 20.57h-3.555a.3.3 0 0 0-.25.14l-1.12 1.903a.14.14 0 0 1-.126.075.13.13 0 0 1-.12-.075l-1.692-3.058a.284.284 0 0 0-.532 0L23.11 24.18a.14.14 0 0 1-.132.09.14.14 0 0 1-.133-.09l-1.352-3.114a.28.28 0 0 0-.258-.164.28.28 0 0 0-.257.164L19.2 24.301a.28.28 0 0 1-.265.16h-1.707q.392.604.851 1.156h1.477a.3.3 0 0 0 .25-.16l1.261-2.348 1.778 3.895a.29.29 0 0 0 .265.187.29.29 0 0 0 .27-.187l1.777-5.207 1.512 2.95a.281.281 0 0 0 .496 0l1.777-2.88a.31.31 0 0 1 .25-.144H32" fill="rgb(100%, 100%, 100%)"/></svg>