<svg role="img" viewBox="0 0 32 32" height="32" width="32" xmlns="http://www.w3.org/2000/svg"><defs><linearGradient gradientTransform="scale(1.77778)" gradientUnits="userSpaceOnUse" id="10__5__0__linear-pattern-0" x1="9" x2="9" y1="16.79" y2="1.21"><stop offset="0" stop-color="rgb(0%, 47.058824%, 83.137255%)"/><stop offset=".06" stop-color="rgb(3.921569%, 48.627451%, 84.313725%)"/><stop offset=".34" stop-color="rgb(18.039216%, 54.901961%, 88.235294%)"/><stop offset=".59" stop-color="rgb(28.235294%, 59.215686%, 91.372549%)"/><stop offset=".82" stop-color="rgb(34.509804%, 61.960784%, 92.941176%)"/><stop offset="1" stop-color="rgb(36.862745%, 62.745098%, 93.72549%)"/></linearGradient><clipPath id="11__6__1__clip-0"><path d="M0 0h32v32H0z"/></clipPath><filter height="100%" id="12__7__2__filter-remove-color" width="100%" x="0%" y="0%"><feColorMatrix color-interpolation-filters="sRGB" values="0 0 0 0 1 0 0 0 0 1 0 0 0 0 1 0 0 0 1 0"/></filter><mask id="13__8__3__mask-0"><g filter="url(#12__7__2__filter-remove-color)"><path d="M-3.2-3.2h38.4v38.4H-3.2z" fill-opacity=".5"/></g></mask><g clip-path="url(#11__6__1__clip-0)" id="14__9__4__source-10"><path d="M21.066 13.617H10.934a.56.56 0 0 0-.375.145l10.882 7.394a.54.54 0 0 0 .211-.426v-6.507a.56.56 0 0 0-.16-.434.57.57 0 0 0-.426-.172m0 0" fill="rgb(100%, 83.137255%, 0%)"/></g></defs><path d="M28.586 15.004c0 8.125-9.992 14.668-12.176 16a.76.76 0 0 1-.82 0c-2.184-1.317-12.176-7.856-12.176-16V5.227a.78.78 0 0 1 .766-.782C11.965 4.25 10.168.891 16 .891s4.035 3.359 11.82 3.554a.78.78 0 0 1 .766.782Zm0 0" fill="rgb(0%, 47.058824%, 83.137255%)"/><path d="M27.555 15.074c0 7.469-9.172 13.461-11.18 14.668a.72.72 0 0 1-.75 0c-2.008-1.207-11.18-7.199-11.18-14.668V6.188a.728.728 0 0 1 .711-.856c7.145-.125 5.512-3.18 10.844-3.18s3.7 3.055 10.844 3.18a.73.73 0 0 1 .71.711Zm0 0" fill="url(#10__5__0__linear-pattern-0)"/><path d="M21.066 13.617h-.71v-2.523a4.66 4.66 0 0 0-1.247-3.219 4.2 4.2 0 0 0-3.09-1.352 4.2 4.2 0 0 0-3.093 1.352 4.65 4.65 0 0 0-1.246 3.219v2.523h-.711a.56.56 0 0 0-.45.16.56.56 0 0 0-.171.446v6.543a.567.567 0 0 0 .586.566h10.132a.567.567 0 0 0 .586-.566v-6.543a.56.56 0 0 0-.16-.434.57.57 0 0 0-.426-.172m-2.753 0h-4.625V11.06a2.56 2.56 0 0 1 .73-1.778 2.112 2.112 0 0 1 3.164 0q.157.164.285.356a2.5 2.5 0 0 1 .445 1.402Zm0 0" fill="rgb(100%, 74.117647%, 0.784314%)"/><path d="M10.934 13.617h10.132c.137 0 .27.051.375.145L10.56 21.156a.6.6 0 0 1-.211-.426v-6.507a.56.56 0 0 1 .16-.434.57.57 0 0 1 .426-.172m0 0" fill="rgb(100%, 89.411765%, 32.156863%)"/><g mask="url(#13__8__3__mask-0)"><use href="#14__9__4__source-10"/></g></svg>