<?xml version="1.0" encoding="UTF-8"?>
<svg xmlns="http://www.w3.org/2000/svg" xmlns:xlink="http://www.w3.org/1999/xlink" width="32" height="32" viewBox="0 0 32 32">
<path fill-rule="nonzero" fill="rgb(0%, 0%, 0%)" fill-opacity="1" d="M 31.238281 14.140625 L 17.859375 0.761719 C 16.882812 -0.214844 15.164062 -0.238281 14.074219 0.765625 L 0.761719 14.140625 C -0.253906 15.15625 -0.261719 16.8125 0.761719 17.925781 L 14.074219 31.238281 C 14.570312 31.730469 15.246094 32.003906 15.945312 32 C 16.648438 32 17.324219 31.734375 17.859375 31.238281 L 31.171875 17.925781 C 32.234375 16.863281 32.261719 15.164062 31.238281 14.140625 M 14.976562 9.214844 C 14.976562 9.085938 15.039062 8.960938 15.234375 8.960938 L 16.703125 8.960938 C 16.832031 8.960938 16.960938 9.023438 16.960938 9.214844 L 16.960938 18.496094 C 16.960938 18.621094 16.894531 18.753906 16.703125 18.753906 L 15.234375 18.753906 C 15.105469 18.753906 14.976562 18.6875 14.976562 18.496094 Z M 17.023438 22.847656 C 17.023438 22.976562 16.960938 23.101562 16.765625 23.101562 L 15.234375 23.101562 C 15.105469 23.101562 14.976562 23.039062 14.976562 22.847656 L 14.976562 21.121094 C 14.976562 20.992188 15.039062 20.863281 15.234375 20.863281 L 16.765625 20.863281 L 16.765625 20.925781 C 16.898438 20.925781 17.023438 20.992188 17.023438 21.183594 Z M 17.023438 22.847656 "/>
</svg>
