<svg role="img" viewBox="0 0 32 32" height="32" width="32" xmlns="http://www.w3.org/2000/svg"><path d="M31.238 14.14 17.86.763c-.976-.977-2.695-1-3.785.004L.762 14.14c-1.016 1.015-1.024 2.672 0 3.785l13.312 13.312a2.64 2.64 0 0 0 1.871.762c.703 0 1.38-.266 1.914-.762l13.313-13.312c1.062-1.063 1.09-2.762.066-3.785M14.977 9.216c0-.13.062-.254.257-.254h1.47c.128 0 .257.062.257.254v9.281c0 .125-.066.258-.258.258h-1.469c-.129 0-.257-.067-.257-.258Zm2.046 13.633c0 .129-.062.254-.257.254h-1.532c-.129 0-.257-.063-.257-.254V21.12c0-.129.062-.258.257-.258h1.532v.063c.132 0 .257.066.257.258Zm0 0"/></svg>