<?xml version="1.0" encoding="UTF-8"?>
<svg xmlns="http://www.w3.org/2000/svg" xmlns:xlink="http://www.w3.org/1999/xlink" width="32" height="32" viewBox="0 0 32 32">
<path fill-rule="nonzero" fill="rgb(0%, 0%, 0%)" fill-opacity="1" d="M 16 1.28125 C 7.878906 1.28125 1.28125 7.878906 1.28125 16 C 1.28125 24.121094 7.878906 30.71875 16 30.71875 C 24.121094 30.71875 30.71875 24.121094 30.71875 16 C 30.71875 7.878906 24.121094 1.28125 16 1.28125 M 16 2.558594 C 23.429688 2.558594 29.441406 8.570312 29.441406 16 C 29.441406 23.429688 23.429688 29.441406 16 29.441406 C 8.570312 29.441406 2.558594 23.429688 2.558594 16 C 2.558594 8.570312 8.570312 2.558594 16 2.558594 M 16 3.839844 C 9.292969 3.839844 3.839844 9.292969 3.839844 16 C 3.839844 22.707031 9.292969 28.160156 16 28.160156 C 22.707031 28.160156 28.160156 22.707031 28.160156 16 C 28.160156 9.292969 22.707031 3.839844 16 3.839844 M 15.359375 8.320312 L 16.640625 8.320312 C 16.808594 8.320312 16.972656 8.386719 17.09375 8.507812 C 17.214844 8.628906 17.28125 8.792969 17.28125 8.960938 L 17.28125 17.28125 C 17.28125 17.632812 16.992188 17.921875 16.640625 17.921875 L 15.359375 17.921875 C 15.007812 17.917969 14.722656 17.632812 14.71875 17.28125 L 14.71875 8.960938 C 14.71875 8.609375 15.003906 8.320312 15.359375 8.320312 M 15.359375 20.480469 L 16.640625 20.480469 C 16.992188 20.480469 17.28125 20.769531 17.28125 21.121094 L 17.28125 22.398438 C 17.28125 22.570312 17.214844 22.734375 17.09375 22.851562 C 16.972656 22.972656 16.808594 23.039062 16.640625 23.039062 L 15.359375 23.039062 C 15.003906 23.039062 14.71875 22.753906 14.71875 22.402344 L 14.71875 21.121094 C 14.71875 20.765625 15.003906 20.480469 15.359375 20.480469 M 15.359375 20.480469 "/>
</svg>
