<svg role="img" viewBox="0 0 32 32" xmlns="http://www.w3.org/2000/svg"><path d="M31.86 29.023 16.554 2.516c-.23-.395-.88-.395-1.11 0L.085 29.12a.64.64 0 0 0 .556.957h30.73c.356 0 .64-.281.64-.637 0-.156-.054-.3-.152-.418M15.035 12.328c0-.137.094-.226.23-.226h1.47c.136 0 .226.09.226.226v9.258c0 .137-.09.23-.227.23h-1.468a.21.21 0 0 1-.168-.066.21.21 0 0 1-.063-.164Zm1.977 13.23c0 .141-.094.231-.23.231h-1.563c-.137 0-.227-.094-.227-.23v-1.676c0-.137.094-.227.227-.227h1.562c.14 0 .23.09.23.227Zm0 0" fill="rgb(0%, 0%, 0%)"/></svg>