<svg role="img" viewBox="0 0 32 32" height="32" width="32" xmlns="http://www.w3.org/2000/svg"><defs><clipPath id="306__304__196__194__443__441__85__83__74__72__447__445__82__80__78__76__4__2__440__438__error-network-card_svg__svg/error-network-card.svg165__svg/error-network-card.svg161__clip-0"><path d="M1.25 3.75h28.875v23.875H1.25Zm0 0"/></clipPath><clipPath id="307__305__197__195__444__442__86__84__75__73__448__446__83__81__79__77__5__3__441__439__error-network-card_svg__svg/error-network-card.svg167__svg/error-network-card.svg163__clip-1"><path d="M0 32V0h32v32Zm23.04-21.504c-3.38 0-6.145 2.766-6.145 6.145 0 3.379 2.765 6.144 6.144 6.144s6.145-2.765 6.145-6.144c0-3.38-2.766-6.145-6.145-6.145"/></clipPath></defs><g clip-path="url(#306__304__196__194__443__441__85__83__74__72__447__445__82__80__78__76__4__2__440__438__error-network-card_svg__svg/error-network-card.svg165__svg/error-network-card.svg161__clip-0)"><g clip-path="url(#307__305__197__195__444__442__86__84__75__73__448__446__83__81__79__77__5__3__441__439__error-network-card_svg__svg/error-network-card.svg167__svg/error-network-card.svg163__clip-1)"><path d="M1.281 3.84v1.28H3.84c.363 0 .64.277.64.637V27.52h1.282v-3.2H8.32v-1.922a.643.643 0 0 1 .64-.636h6.4c.35 0 .636.285.64.636v1.922h14.078V9.602H5.762v-3.84A1.93 1.93 0 0 0 3.84 3.84Zm18.559 7.68h1.281v1.921H19.84v1.278h-1.918V13.44h1.918Zm2.558 0h1.282v1.921h-1.282Zm2.563 0h1.277v1.921h1.922v1.278h-1.922V13.44h-1.277ZM13.44 12.8a1.279 1.279 0 1 1-.004 2.56 1.279 1.279 0 1 1 .004-2.559m-7.68.64h2.56v5.118H5.76ZM17.922 16h1.919v1.281h-1.918Zm8.317 0h1.922v1.281h-1.922Zm-8.316 2.559h1.918v1.28h1.281v1.923H19.84V19.84h-1.918Zm8.316 0h1.922v1.28h-1.922v1.923h-1.277V19.84h1.277Zm-3.84 1.28h1.282v1.923h-1.282Zm0 0"/></g></g><path d="M23.04 11.52c-2.817 0-5.118 2.304-5.118 5.12 0 2.817 2.3 5.122 5.117 5.122 2.816 0 5.121-2.305 5.121-5.121 0-2.817-2.305-5.121-5.12-5.121m.51 7.578a.11.11 0 0 1-.1.101h-.821a.11.11 0 0 1-.102-.101v-.82a.11.11 0 0 1 .102-.102h.82c.051 0 .102.05.102.101Zm0-2.047a.11.11 0 0 1-.1.101h-.821a.11.11 0 0 1-.102-.101v-2.867c0-.051.051-.106.102-.106h.82c.051 0 .102.055.102.106Zm0 0"/></svg>