<svg role="img" viewBox="0 0 32 32" height="32" width="32" xmlns="http://www.w3.org/2000/svg"><path d="M16 1.281C7.879 1.281 1.281 7.88 1.281 16c0 8.121 6.598 14.719 14.719 14.719 8.121 0 14.719-6.598 14.719-14.719C30.719 7.879 24.12 1.281 16 1.281m0 1.278c7.43 0 13.441 6.011 13.441 13.441 0 7.43-6.011 13.441-13.441 13.441C8.57 29.441 2.559 23.43 2.559 16 2.559 8.57 8.57 2.559 16 2.559m0 1.28C9.293 3.84 3.84 9.294 3.84 16S9.293 28.16 16 28.16 28.16 22.707 28.16 16 22.707 3.84 16 3.84m-.64 4.481h1.28a.64.64 0 0 1 .641.64v8.321c0 .352-.289.64-.64.64h-1.282a.644.644 0 0 1-.64-.64v-8.32a.64.64 0 0 1 .64-.64m0 12.16h1.28c.352 0 .641.286.641.641V22.4a.64.64 0 0 1-.64.641h-1.282a.641.641 0 0 1-.64-.64V21.12a.64.64 0 0 1 .64-.64m0 0"/></svg>