<svg role="img" viewBox="0 0 33.422 32" xmlns="http://www.w3.org/2000/svg"><path d="M15.223 14.297c0 1.144-.93 2.074-2.075 2.074a2.071 2.071 0 1 1 2.074-2.074m2.684 0c0 1.144.93 2.074 2.07 2.074 1.145 0 2.075-.93 2.075-2.074a2.072 2.072 0 1 0-4.145 0m14.114 2.25q-.222.019-.461.02c-.922 0-1.82-.22-2.63-.614.266-1.535.384-3.098.352-4.656a24 24 0 0 0-3.011-3.57 6 6 0 0 1 2.125-2.278l.39-.242-.305-.34A15.8 15.8 0 0 0 22.938.824l-.422-.183-.106.445a6 6 0 0 1-1.504 2.726 24 24 0 0 0-4.343-1.789 24 24 0 0 0-4.336 1.786 5.95 5.95 0 0 1-1.497-2.72l-.109-.448-.418.183A16.1 16.1 0 0 0 4.66 4.867l-.305.34.391.242a6 6 0 0 1 2.117 2.262 24.7 24.7 0 0 0-3.008 3.559c-.03 1.55.075 3.12.348 4.687a5.94 5.94 0 0 1-3.078.59l-.457-.035.043.457a15.8 15.8 0 0 0 2.133 6.523l.23.395.352-.297a5.97 5.97 0 0 1 2.824-1.32 24 24 0 0 0 2.418 3.937c1.469.512 2.996.895 4.578 1.125a5.94 5.94 0 0 1-.383 3.125l-.172.426.446.097c1.148.25 2.3.38 3.433.38l3.43-.38.45-.097-.177-.426a6 6 0 0 1-.378-3.129 24.4 24.4 0 0 0 4.562-1.121 24.4 24.4 0 0 0 2.422-3.941 5.9 5.9 0 0 1 2.836 1.324l.351.293.23-.39a15.8 15.8 0 0 0 2.13-6.524l.043-.457Zm-10.547 5.578c-1.621.441-3.27.664-4.91.664s-3.29-.223-4.915-.664a19.2 19.2 0 0 1-2.101-4.434 19 19 0 0 1-.887-4.859 18.8 18.8 0 0 1 3.559-3.39c1.34-.973 2.8-1.766 4.344-2.36a18.7 18.7 0 0 1 7.91 5.766 19 19 0 0 1-.895 4.84 19 19 0 0 1-2.105 4.437m0 0" fill="rgb(25.490198%, 61.960787%, 85.490197%)"/></svg>