<svg role="img" viewBox="0 0 33.422 32" height="32" width="33.422" xmlns="http://www.w3.org/2000/svg"><path d="M15.223 14.297a2.072 2.072 0 1 1-4.145.004 2.079 2.079 0 0 1 2.07-2.07 2.069 2.069 0 0 1 2.075 2.066m2.683 0a2.072 2.072 0 1 0 4.145.004 2.072 2.072 0 0 0-4.145-.004m14.114 2.25c-.149.012-.301.02-.461.02-.922 0-1.82-.22-2.63-.614.266-1.535.384-3.098.352-4.656a24.13 24.13 0 0 0-3.011-3.57 6.013 6.013 0 0 1 2.125-2.278l.39-.242-.305-.34A15.815 15.815 0 0 0 22.938.824l-.422-.183-.106.445a6.046 6.046 0 0 1-1.504 2.726 23.919 23.919 0 0 0-4.343-1.789 24.11 24.11 0 0 0-4.336 1.786 5.95 5.95 0 0 1-1.497-2.72l-.109-.448-.418.183A16.085 16.085 0 0 0 4.66 4.867l-.305.34.391.242a6.008 6.008 0 0 1 2.117 2.262 24.664 24.664 0 0 0-3.008 3.559c-.03 1.55.075 3.12.348 4.687a5.944 5.944 0 0 1-3.078.59l-.457-.035.043.457a15.785 15.785 0 0 0 2.133 6.523l.23.395.352-.297a5.97 5.97 0 0 1 2.824-1.32 23.927 23.927 0 0 0 2.418 3.937c1.469.512 2.996.895 4.578 1.125a5.935 5.935 0 0 1-.383 3.125l-.172.426.446.097c1.148.25 2.3.38 3.433.38l3.43-.38.45-.097-.177-.426a5.992 5.992 0 0 1-.378-3.129 24.403 24.403 0 0 0 4.562-1.121 24.42 24.42 0 0 0 2.422-3.941 5.926 5.926 0 0 1 2.836 1.324l.351.293.23-.39a15.78 15.78 0 0 0 2.13-6.524l.043-.457Zm-10.547 5.578c-1.621.441-3.27.664-4.91.664-1.641 0-3.29-.223-4.915-.664a19.214 19.214 0 0 1-2.101-4.434 19.037 19.037 0 0 1-.887-4.859 18.765 18.765 0 0 1 3.559-3.39c1.34-.973 2.8-1.766 4.344-2.36a18.722 18.722 0 0 1 7.91 5.766 18.9 18.9 0 0 1-.895 4.84 19.095 19.095 0 0 1-2.105 4.437m0 0" fill="rgb(25.490196%, 61.960784%, 85.490196%)"/></svg>