<?xml version="1.0" encoding="UTF-8"?>
<svg xmlns="http://www.w3.org/2000/svg" xmlns:xlink="http://www.w3.org/1999/xlink" width="33.422001" height="32" viewBox="0 0 33.422001 32">
<path fill-rule="nonzero" fill="rgb(25.490196%, 61.960784%, 85.490196%)" fill-opacity="1" d="M 15.222656 14.296875 C 15.222656 15.441406 14.296875 16.371094 13.152344 16.371094 C 12.007812 16.371094 11.078125 15.445312 11.078125 14.300781 C 11.082031 13.160156 12.007812 12.234375 13.148438 12.230469 C 13.695312 12.230469 14.222656 12.445312 14.613281 12.832031 C 15.003906 13.222656 15.222656 13.746094 15.222656 14.296875 M 17.90625 14.296875 C 17.90625 15.441406 18.832031 16.371094 19.976562 16.371094 C 21.121094 16.371094 22.050781 15.445312 22.050781 14.300781 C 22.050781 13.15625 21.125 12.226562 19.980469 12.226562 C 18.835938 12.226562 17.90625 13.152344 17.90625 14.296875 M 32.019531 16.546875 C 31.871094 16.558594 31.71875 16.566406 31.558594 16.566406 C 30.636719 16.566406 29.738281 16.347656 28.929688 15.953125 C 29.195312 14.417969 29.3125 12.855469 29.28125 11.296875 C 28.394531 10.011719 27.386719 8.816406 26.269531 7.726562 C 26.765625 6.792969 27.5 6.007812 28.394531 5.449219 L 28.785156 5.207031 L 28.480469 4.867188 C 26.949219 3.128906 25.058594 1.75 22.9375 0.824219 L 22.515625 0.640625 L 22.410156 1.085938 C 22.15625 2.109375 21.636719 3.050781 20.90625 3.8125 C 19.519531 3.074219 18.066406 2.476562 16.5625 2.023438 C 15.0625 2.476562 13.609375 3.074219 12.226562 3.808594 C 11.496094 3.050781 10.980469 2.113281 10.730469 1.089844 L 10.621094 0.640625 L 10.203125 0.824219 C 8.085938 1.757812 6.195312 3.136719 4.660156 4.867188 L 4.355469 5.207031 L 4.746094 5.449219 C 5.636719 6.003906 6.367188 6.785156 6.863281 7.710938 C 5.75 8.800781 4.742188 9.992188 3.855469 11.269531 C 3.824219 12.820312 3.929688 14.390625 4.203125 15.957031 C 3.25 16.425781 2.183594 16.628906 1.125 16.546875 L 0.667969 16.511719 L 0.710938 16.96875 C 0.933594 19.273438 1.664062 21.5 2.84375 23.492188 L 3.074219 23.886719 L 3.425781 23.589844 C 4.234375 22.90625 5.207031 22.453125 6.25 22.269531 C 6.925781 23.65625 7.738281 24.976562 8.667969 26.207031 C 10.136719 26.71875 11.664062 27.101562 13.246094 27.332031 C 13.402344 28.390625 13.269531 29.46875 12.863281 30.457031 L 12.691406 30.882812 L 13.136719 30.980469 C 14.285156 31.230469 15.4375 31.359375 16.570312 31.359375 L 20 30.980469 L 20.449219 30.882812 L 20.273438 30.457031 C 19.871094 29.464844 19.738281 28.386719 19.894531 27.328125 C 21.449219 27.101562 22.976562 26.726562 24.457031 26.207031 C 25.386719 24.972656 26.199219 23.652344 26.878906 22.265625 C 27.925781 22.445312 28.90625 22.902344 29.714844 23.589844 L 30.066406 23.882812 L 30.296875 23.492188 C 31.476562 21.5 32.203125 19.273438 32.425781 16.96875 L 32.46875 16.511719 Z M 21.472656 22.125 C 19.851562 22.566406 18.203125 22.789062 16.5625 22.789062 C 14.921875 22.789062 13.273438 22.566406 11.648438 22.125 C 10.761719 20.742188 10.054688 19.253906 9.546875 17.691406 C 9.042969 16.117188 8.742188 14.484375 8.660156 12.832031 C 9.691406 11.550781 10.890625 10.410156 12.21875 9.441406 C 13.558594 8.46875 15.019531 7.675781 16.5625 7.082031 C 19.664062 8.269531 22.394531 10.257812 24.472656 12.847656 C 24.386719 14.492188 24.085938 16.121094 23.578125 17.6875 C 23.070312 19.25 22.363281 20.742188 21.472656 22.125 M 21.472656 22.125 "/>
</svg>
