<svg role="img" viewBox="0 0 32 32" height="32" width="32" xmlns="http://www.w3.org/2000/svg"><path d="M9.559 2.559c-1.875 0-3.352.691-4.18 1.96-.68 1.051-.832 2.399-.399 3.66-.148.255-.226.587-.18 1 .098.852.419 1.258.72 1.462.14.613.46 1.328.82 1.738v.082c.004.375.012.71-.02 1.121-.21.434-.883.715-1.64 1.04-1.375.589-3.254 1.394-3.399 3.898a.653.653 0 0 0 .176.476.64.64 0 0 0 .465.203h28.156A.606.606 0 0 0 30.54 19a.629.629 0 0 0 .18-.48c-.145-2.508-2.145-3.31-3.598-3.899-.777-.316-1.508-.629-1.723-1.062-.03-.41-.02-.723-.02-1.098v-.102c.356-.41.645-1.105.782-1.718.3-.203.64-.61.738-1.461a1.64 1.64 0 0 0-.16-.98c.317-.856.301-2.243-.218-3.302-.438-.886-1.165-1.418-2.079-1.539l-.222-.437a.658.658 0 0 0-.578-.363c-1.875 0-3.356.695-4.18 1.96-.684 1.051-.813 2.399-.379 3.66-.18.301-.25.653-.203 1 .101.852.418 1.262.723 1.462.136.617.457 1.328.816 1.738v.082c.004.375.016.707-.02 1.121-.207.434-.882.715-1.636 1.04-.926.394-2.078.894-2.782 1.937-.742-1.047-1.96-1.54-2.94-1.938-.774-.316-1.505-.629-1.72-1.062-.03-.407-.023-.723-.02-1.098v-.102c.352-.41.641-1.105.778-1.718.305-.203.64-.61.742-1.461a1.67 1.67 0 0 0-.16-.98c.313-.86.3-2.243-.219-3.302-.437-.886-1.164-1.418-2.082-1.539l-.218-.437a.664.664 0 0 0-.582-.363m17.261 19.18-.082.023a.634.634 0 0 0-.5.449.665.665 0 0 0 .18.648l2.102 2.102H19.78a.638.638 0 1 0 .059 1.277h8.68l-2.102 2.102a.657.657 0 0 0-.191.46c0 .262.16.5.402.602.242.098.52.043.71-.14l3.102-3.121a.824.824 0 0 0 .141-.121V26c.04-.043.07-.09.098-.14v-.02a.183.183 0 0 0 .02-.04v-.019a.384.384 0 0 0 .019-.062.569.569 0 0 0 0-.2v-.058c-.004-.016-.012-.027-.02-.04v-.023l-.02-.039v-.02c-.007-.015-.015-.026-.019-.038l-.02-.02a.922.922 0 0 0-.1-.14h-.02l-.04-.04-3.14-3.16a.636.636 0 0 0-.52-.203m-21.78.024a.628.628 0 0 0-.38.18l-3.16 3.14a.076.076 0 0 0-.04.04v.019a.522.522 0 0 0-.081.078v.023l-.043.04v.019a.487.487 0 0 0-.074.219v.02a.441.441 0 0 0 0 .1v.02a.571.571 0 0 0 .097.281l.02.02a.122.122 0 0 1 .02.039l.023.02.039.039a.382.382 0 0 0 .121.101l3.078 3.102a.653.653 0 0 0 .922-.922L3.48 26.238h8.68a.64.64 0 0 0 .563-.316.654.654 0 0 0 0-.645.64.64 0 0 0-.563-.316H3.48l2.098-2.102a.644.644 0 0 0 .14-.75.64.64 0 0 0-.679-.347m9.68 3.199a.641.641 0 1 0 0 1.282.641.641 0 0 0 0-1.282m2.562 0a.647.647 0 0 0-.586.309.642.642 0 1 0 .586-.309"/></svg>