<svg role="img" viewBox="0 0 32 32" height="32" width="32" xmlns="http://www.w3.org/2000/svg"><path d="M9.602 0C4.324 0 0 4.324 0 9.602c0 5.277 4.324 9.597 9.602 9.597.507 0 1.039-.074 1.5-.14a.638.638 0 1 0-.18-1.258c-.442.062-.934.12-1.32.12-4.582 0-8.32-3.741-8.32-8.32 0-4.581 3.738-8.32 8.32-8.32 3.746 0 6.949 2.5 7.957 5.938a.645.645 0 0 0 .8.441.648.648 0 0 0 .442-.8C17.633 2.878 13.918 0 9.6 0m-.063 3.18a.457.457 0 0 0-.078.02.642.642 0 0 0-.5.64v4.8c-.309.208-.52.563-.52.962 0 .066.028.136.04.199l-2.34 2.36a.64.64 0 1 0 .898.898l2.36-2.34c.062.011.132.043.203.043a1.17 1.17 0 0 0 1.16-1.16c0-.399-.215-.754-.524-.961V3.84a.637.637 0 0 0-.699-.66m9.34 5.941c-.219 0-.445.082-.559.277L5.84 31.04a.646.646 0 0 0 0 .64c.113.2.332.321.558.321H31.38a.639.639 0 0 0 .48-1.059L19.441 9.398c-.117-.195-.34-.277-.562-.277m-.64 8.16h1.222c.125 0 .18.07.18.2v7.28c0 .126-.055.2-.18.2h-1.223c-.125 0-.199-.074-.199-.2v-7.28c0-.13.074-.2.2-.2m0 9.16h1.28c.13 0 .2.051.2.18v1.34c0 .125-.07.2-.2.2h-1.28c-.126 0-.2-.075-.2-.2v-1.34c0-.129.074-.18.2-.18m0 0"/></svg>