<?xml version="1.0" encoding="UTF-8"?>
<svg xmlns="http://www.w3.org/2000/svg" xmlns:xlink="http://www.w3.org/1999/xlink" width="32" height="32" viewBox="0 0 32 32">
<path fill-rule="nonzero" fill="rgb(0%, 0%, 0%)" fill-opacity="1" d="M 0.640625 -0.0195312 C 0.464844 -0.0195312 0.296875 0.046875 0.171875 0.171875 C 0.046875 0.296875 -0.0195312 0.464844 -0.0195312 0.640625 L -0.0195312 31.359375 C -0.0195312 31.722656 0.277344 32.019531 0.640625 32.019531 L 19.839844 32.019531 C 20.015625 32.015625 20.183594 31.949219 20.308594 31.828125 C 20.433594 31.703125 20.5 31.535156 20.5 31.359375 L 20.5 16.640625 L 10.238281 16.640625 C 9.902344 16.617188 9.640625 16.339844 9.640625 16 C 9.640625 15.664062 9.902344 15.382812 10.238281 15.359375 L 20.5 15.359375 L 20.5 0.640625 C 20.5 0.464844 20.433594 0.296875 20.308594 0.171875 C 20.183594 0.046875 20.015625 -0.0195312 19.839844 -0.0195312 Z M 20.5 15.359375 L 20.5 16.640625 L 29.179688 16.640625 L 24.578125 21.242188 C 24.457031 21.359375 24.390625 21.523438 24.390625 21.691406 C 24.390625 21.859375 24.460938 22.019531 24.578125 22.140625 C 24.691406 22.265625 24.851562 22.335938 25.019531 22.339844 C 25.195312 22.335938 25.359375 22.265625 25.480469 22.140625 L 31.621094 16 L 25.480469 9.859375 C 25.363281 9.738281 25.199219 9.671875 25.03125 9.671875 C 24.863281 9.671875 24.699219 9.738281 24.582031 9.859375 C 24.460938 9.976562 24.394531 10.140625 24.394531 10.308594 C 24.394531 10.476562 24.460938 10.640625 24.582031 10.757812 L 29.179688 15.359375 Z M 20.5 15.359375 "/>
</svg>
