<svg role="img" viewBox="0 0 32 32" height="32" width="32" xmlns="http://www.w3.org/2000/svg"><path d="M.64-.02a.659.659 0 0 0-.468.192A.659.659 0 0 0-.02.64v30.718c0 .364.297.66.66.66h19.2a.693.693 0 0 0 .469-.19.659.659 0 0 0 .191-.47V16.641H10.238a.642.642 0 0 1 0-1.281H20.5V.64a.659.659 0 0 0-.191-.468.659.659 0 0 0-.47-.192ZM20.5 15.36v1.28h8.68l-4.602 4.602a.626.626 0 0 0-.187.45c0 .167.07.328.187.449a.629.629 0 0 0 .442.199.658.658 0 0 0 .46-.2L31.621 16l-6.14-6.14a.626.626 0 0 0-.45-.188.626.626 0 0 0-.449.187.626.626 0 0 0-.187.45c0 .168.066.332.187.449l4.598 4.601Zm0 0"/></svg>