<svg role="img" viewBox="0 0 32 32" xmlns="http://www.w3.org/2000/svg"><path d="M.64-.02a.66.66 0 0 0-.468.192A.66.66 0 0 0-.02.64v30.718a.66.66 0 0 0 .66.66h19.2a.66.66 0 0 0 .469-.19.66.66 0 0 0 .191-.47V16.641H10.238a.641.641 0 0 1 0-1.282H20.5V.641a.66.66 0 0 0-.191-.47.66.66 0 0 0-.47-.19ZM20.5 15.36v1.28h8.68l-4.602 4.602a.63.63 0 0 0-.187.45c0 .167.07.328.187.449a.63.63 0 0 0 .442.199.66.66 0 0 0 .46-.2L31.621 16l-6.14-6.14a.63.63 0 0 0-.45-.188.63.63 0 0 0-.449.187.63.63 0 0 0-.187.45c0 .168.066.332.187.449l4.598 4.601Zm0 0"/></svg>