<?xml version="1.0" encoding="UTF-8"?>
<svg xmlns="http://www.w3.org/2000/svg" xmlns:xlink="http://www.w3.org/1999/xlink" width="32" height="32" viewBox="0 0 32 32">
<path fill-rule="nonzero" fill="rgb(1.176471%, 18.039216%, 28.627451%)" fill-opacity="1" d="M 32 16 C 32 24.835938 24.835938 32 16 32 C 7.164062 32 0 24.835938 0 16 C 0 7.164062 7.164062 0 16 0 C 24.835938 0 32 7.164062 32 16 Z M 32 16 "/>
<path fill="none" stroke-width="4" stroke-linecap="round" stroke-linejoin="miter" stroke="rgb(100%, 100%, 100%)" stroke-opacity="1" stroke-miterlimit="4" d="M 84.613299 45.710169 C 89.521638 45.710169 93.521026 49.689357 93.521026 54.617895 " transform="matrix(0.193389, 0, 0, 0.193389, 0, 0)"/>
<path fill="none" stroke-width="4" stroke-linecap="round" stroke-linejoin="round" stroke="rgb(100%, 100%, 100%)" stroke-opacity="1" stroke-miterlimit="4" d="M 59.869616 62.98025 C 59.869616 50.335723 70.110471 40.074668 82.775197 40.074668 C 95.439924 40.074668 105.700978 50.335723 105.700978 62.98025 " transform="matrix(0.193389, 0, 0, 0.193389, 0, 0)"/>
<path fill-rule="nonzero" fill="rgb(100%, 100%, 100%)" fill-opacity="1" d="M 14.746094 19.136719 C 14.707031 19.191406 14.664062 19.21875 14.621094 19.21875 C 14.578125 19.21875 14.535156 19.199219 14.492188 19.164062 C 14.449219 19.125 14.429688 19.089844 14.429688 19.054688 C 14.429688 19.019531 14.445312 18.984375 14.480469 18.945312 L 14.789062 18.507812 L 14.375 18.375 C 14.292969 18.351562 14.253906 18.308594 14.253906 18.25 C 14.253906 18.214844 14.257812 18.1875 14.269531 18.160156 C 14.292969 18.082031 14.335938 18.042969 14.410156 18.042969 C 14.425781 18.042969 14.449219 18.046875 14.488281 18.054688 L 14.914062 18.195312 L 14.914062 17.738281 C 14.914062 17.628906 14.96875 17.574219 15.082031 17.574219 C 15.191406 17.574219 15.246094 17.628906 15.246094 17.738281 L 15.246094 18.195312 L 15.664062 18.054688 C 15.699219 18.046875 15.730469 18.042969 15.757812 18.042969 C 15.785156 18.042969 15.8125 18.0625 15.847656 18.097656 C 15.878906 18.136719 15.898438 18.183594 15.898438 18.246094 C 15.898438 18.308594 15.855469 18.351562 15.773438 18.375 L 15.351562 18.507812 L 15.667969 18.945312 C 15.699219 18.980469 15.710938 19.015625 15.710938 19.050781 C 15.710938 19.085938 15.691406 19.125 15.648438 19.160156 C 15.605469 19.199219 15.566406 19.21875 15.523438 19.21875 C 15.484375 19.21875 15.445312 19.191406 15.402344 19.132812 L 15.078125 18.671875 L 14.75 19.132812 Z M 14.746094 19.136719 "/>
<path fill-rule="nonzero" fill="rgb(100%, 100%, 100%)" fill-opacity="1" d="M 12.875 19.136719 C 12.832031 19.191406 12.789062 19.21875 12.75 19.21875 C 12.707031 19.21875 12.664062 19.199219 12.621094 19.164062 C 12.578125 19.125 12.558594 19.089844 12.558594 19.054688 C 12.558594 19.019531 12.574219 18.984375 12.605469 18.945312 L 12.917969 18.507812 L 12.503906 18.375 C 12.421875 18.351562 12.378906 18.308594 12.378906 18.25 C 12.378906 18.214844 12.386719 18.1875 12.398438 18.160156 C 12.417969 18.082031 12.464844 18.042969 12.539062 18.042969 C 12.554688 18.042969 12.578125 18.046875 12.613281 18.054688 L 13.042969 18.195312 L 13.042969 17.738281 C 13.042969 17.628906 13.097656 17.574219 13.207031 17.574219 C 13.320312 17.574219 13.375 17.628906 13.375 17.738281 L 13.375 18.195312 L 13.789062 18.054688 C 13.828125 18.046875 13.859375 18.042969 13.886719 18.042969 C 13.914062 18.042969 13.941406 18.0625 13.972656 18.097656 C 14.007812 18.136719 14.023438 18.183594 14.023438 18.246094 C 14.023438 18.308594 13.984375 18.351562 13.902344 18.375 L 13.480469 18.507812 L 13.796875 18.945312 C 13.824219 18.980469 13.839844 19.015625 13.839844 19.050781 C 13.839844 19.085938 13.820312 19.125 13.777344 19.160156 C 13.734375 19.199219 13.695312 19.21875 13.652344 19.21875 C 13.613281 19.21875 13.570312 19.191406 13.53125 19.132812 L 13.203125 18.671875 L 12.878906 19.132812 Z M 12.875 19.136719 "/>
<path fill-rule="nonzero" fill="rgb(100%, 100%, 100%)" fill-opacity="1" d="M 16.617188 19.136719 C 16.574219 19.191406 16.53125 19.21875 16.492188 19.21875 C 16.449219 19.21875 16.40625 19.199219 16.363281 19.164062 C 16.320312 19.125 16.296875 19.089844 16.296875 19.054688 C 16.296875 19.019531 16.316406 18.984375 16.347656 18.945312 L 16.660156 18.507812 L 16.246094 18.375 C 16.164062 18.351562 16.121094 18.308594 16.121094 18.25 C 16.121094 18.214844 16.128906 18.1875 16.140625 18.160156 C 16.160156 18.082031 16.207031 18.042969 16.28125 18.042969 C 16.292969 18.042969 16.320312 18.046875 16.355469 18.054688 L 16.785156 18.195312 L 16.785156 17.738281 C 16.785156 17.628906 16.839844 17.574219 16.949219 17.574219 C 17.0625 17.574219 17.117188 17.628906 17.117188 17.738281 L 17.117188 18.195312 L 17.53125 18.054688 C 17.570312 18.046875 17.601562 18.042969 17.628906 18.042969 C 17.65625 18.042969 17.683594 18.0625 17.714844 18.097656 C 17.75 18.136719 17.765625 18.183594 17.765625 18.246094 C 17.765625 18.308594 17.726562 18.351562 17.644531 18.375 L 17.222656 18.507812 L 17.539062 18.945312 C 17.566406 18.980469 17.582031 19.015625 17.582031 19.050781 C 17.582031 19.085938 17.5625 19.125 17.519531 19.160156 C 17.476562 19.199219 17.4375 19.21875 17.394531 19.21875 C 17.355469 19.21875 17.3125 19.191406 17.273438 19.132812 L 16.945312 18.671875 L 16.621094 19.132812 Z M 16.617188 19.136719 "/>
<path fill-rule="nonzero" fill="rgb(100%, 100%, 100%)" fill-opacity="1" d="M 18.488281 19.136719 C 18.449219 19.191406 18.40625 19.21875 18.363281 19.21875 C 18.320312 19.21875 18.277344 19.199219 18.234375 19.164062 C 18.191406 19.125 18.171875 19.089844 18.171875 19.054688 C 18.171875 19.019531 18.1875 18.984375 18.222656 18.945312 L 18.53125 18.507812 L 18.117188 18.375 C 18.035156 18.351562 17.996094 18.308594 17.996094 18.25 C 17.996094 18.214844 18 18.1875 18.011719 18.160156 C 18.035156 18.082031 18.078125 18.042969 18.152344 18.042969 C 18.167969 18.042969 18.191406 18.046875 18.230469 18.054688 L 18.65625 18.195312 L 18.65625 17.738281 C 18.65625 17.628906 18.710938 17.574219 18.824219 17.574219 C 18.933594 17.574219 18.988281 17.628906 18.988281 17.738281 L 18.988281 18.195312 L 19.40625 18.054688 C 19.441406 18.046875 19.472656 18.042969 19.5 18.042969 C 19.527344 18.042969 19.554688 18.0625 19.589844 18.097656 C 19.621094 18.136719 19.636719 18.183594 19.636719 18.246094 C 19.636719 18.308594 19.597656 18.351562 19.515625 18.375 L 19.09375 18.507812 L 19.410156 18.945312 C 19.4375 18.980469 19.453125 19.015625 19.453125 19.050781 C 19.453125 19.085938 19.433594 19.125 19.390625 19.160156 C 19.347656 19.199219 19.308594 19.21875 19.265625 19.21875 C 19.226562 19.21875 19.1875 19.191406 19.144531 19.132812 L 18.820312 18.671875 L 18.492188 19.132812 Z M 18.488281 19.136719 "/>
<path fill="none" stroke-width="3" stroke-linecap="round" stroke-linejoin="round" stroke="rgb(100%, 100%, 100%)" stroke-opacity="1" stroke-miterlimit="4" d="M 58.435492 87.663337 L 107.114903 87.663337 C 107.599677 87.663337 107.983456 88.047117 107.983456 88.531891 L 107.983456 101.72179 C 107.983456 102.206564 107.599677 102.590343 107.114903 102.590343 L 58.435492 102.590343 C 57.950718 102.590343 57.566938 102.206564 57.566938 101.72179 L 57.566938 88.531891 C 57.566938 88.047117 57.950718 87.663337 58.435492 87.663337 Z M 58.435492 87.663337 " transform="matrix(0.193389, 0, 0, 0.193389, 0, 0)"/>
<path fill="none" stroke-width="4" stroke-linecap="round" stroke-linejoin="miter" stroke="rgb(100%, 100%, 100%)" stroke-opacity="1" stroke-miterlimit="4" d="M 31.146743 101.600596 C 31.146743 96.692257 35.125932 92.713069 40.05447 92.713069 " transform="matrix(0.193389, 0, 0, 0.193389, 0, 0)"/>
<path fill="none" stroke-width="4" stroke-linecap="round" stroke-linejoin="miter" stroke="rgb(100%, 100%, 100%)" stroke-opacity="1" stroke-miterlimit="4" d="M 24.945673 108.730817 C 24.945673 105.296999 27.712926 102.509548 31.166942 102.509548 C 34.60076 102.509548 37.388211 105.296999 37.388211 108.730817 " transform="matrix(0.193389, 0, 0, 0.193389, 0, 0)"/>
<path fill="none" stroke-width="4" stroke-linecap="round" stroke-linejoin="round" stroke="rgb(100%, 100%, 100%)" stroke-opacity="1" stroke-miterlimit="4" d="M 44.296244 84.108326 L 44.296244 102.852929 " transform="matrix(0.193389, 0, 0, 0.193389, 0, 0)"/>
<path fill="none" stroke-width="4" stroke-linecap="round" stroke-linejoin="miter" stroke="rgb(100%, 100%, 100%)" stroke-opacity="1" stroke-miterlimit="4" d="M 134.302657 101.600596 C 134.302657 96.692257 130.323468 92.713069 125.415129 92.713069 " transform="matrix(0.193389, 0, 0, 0.193389, 0, 0)"/>
<path fill="none" stroke-width="4" stroke-linecap="round" stroke-linejoin="miter" stroke="rgb(100%, 100%, 100%)" stroke-opacity="1" stroke-miterlimit="4" d="M 140.523926 108.730817 C 140.523926 105.296999 137.756673 102.509548 134.302657 102.509548 C 130.868839 102.509548 128.081387 105.296999 128.081387 108.730817 " transform="matrix(0.193389, 0, 0, 0.193389, 0, 0)"/>
<path fill="none" stroke-width="4" stroke-linecap="round" stroke-linejoin="round" stroke="rgb(100%, 100%, 100%)" stroke-opacity="1" stroke-miterlimit="4" d="M 121.173355 84.108326 L 121.173355 102.852929 " transform="matrix(0.193389, 0, 0, 0.193389, 0, 0)"/>
<path fill-rule="nonzero" fill="rgb(100%, 100%, 100%)" fill-opacity="1" stroke-width="1" stroke-linecap="butt" stroke-linejoin="miter" stroke="rgb(100%, 100%, 100%)" stroke-opacity="1" stroke-miterlimit="10" d="M 87.077568 19.491963 C 87.077568 21.855238 85.15867 23.794334 82.775197 23.794334 C 80.411923 23.794334 78.472826 21.855238 78.472826 19.491963 C 78.472826 17.10849 80.411923 15.189592 82.775197 15.189592 C 85.15867 15.189592 87.077568 17.10849 87.077568 19.491963 Z M 87.077568 19.491963 " transform="matrix(0.193389, 0, 0, 0.193389, 0, 0)"/>
<path fill="none" stroke-width="4" stroke-linecap="round" stroke-linejoin="miter" stroke="rgb(100%, 100%, 100%)" stroke-opacity="1" stroke-miterlimit="4" d="M 82.775197 21.229071 L 82.775197 39.185916 " transform="matrix(0.193389, 0, 0, 0.193389, 0, 0)"/>
<path fill="none" stroke-width="4" stroke-linecap="round" stroke-linejoin="round" stroke="rgb(100%, 100%, 100%)" stroke-opacity="1" stroke-miterlimit="4" d="M 79.220186 121.536936 L 50.295325 121.819721 L 50.295325 68.413761 L 115.174274 68.413761 L 115.174274 121.819721 L 90.874966 121.577333 " transform="matrix(0.193389, 0, 0, 0.193389, 0, 0)"/>
<path fill-rule="nonzero" fill="rgb(100%, 100%, 100%)" fill-opacity="1" d="M 17.804688 22.746094 L 16.464844 23.503906 L 17.789062 24.285156 Z M 17.804688 22.746094 "/>
</svg>
