<?xml version="1.0" encoding="UTF-8"?>
<svg xmlns="http://www.w3.org/2000/svg" xmlns:xlink="http://www.w3.org/1999/xlink" width="32" height="32" viewBox="0 0 32 32">
<path fill-rule="nonzero" fill="rgb(0%, 0%, 0%)" fill-opacity="1" d="M 16 0 C 14.820312 0 13.863281 0.828125 13.570312 1.921875 L 5.761719 1.921875 C 4.703125 1.921875 3.84375 2.78125 3.839844 3.839844 L 3.839844 28.800781 C 3.839844 29.855469 4.703125 30.71875 5.761719 30.71875 L 26.238281 30.71875 C 27.296875 30.71875 28.15625 29.859375 28.160156 28.800781 L 28.160156 3.839844 C 28.15625 2.78125 27.296875 1.921875 26.238281 1.921875 L 18.429688 1.921875 C 18.136719 0.828125 17.179688 0 16 0 M 16 1.28125 C 16.714844 1.28125 17.28125 1.84375 17.28125 2.558594 C 17.28125 2.914062 17.566406 3.199219 17.921875 3.199219 L 20.480469 3.199219 L 20.480469 5.121094 L 11.519531 5.121094 L 11.519531 3.199219 L 14.078125 3.199219 C 14.433594 3.199219 14.71875 2.914062 14.71875 2.558594 C 14.714844 2.21875 14.851562 1.894531 15.089844 1.652344 C 15.332031 1.414062 15.660156 1.277344 16 1.28125 M 11.519531 12.160156 C 11.683594 12.160156 11.851562 12.21875 11.976562 12.34375 L 16 16.371094 L 20.023438 12.34375 C 20.273438 12.09375 20.683594 12.09375 20.933594 12.34375 C 21.183594 12.59375 21.183594 13.003906 20.933594 13.253906 L 16.910156 17.28125 L 20.933594 21.304688 C 21.183594 21.554688 21.183594 21.964844 20.933594 22.214844 C 20.679688 22.460938 20.277344 22.460938 20.023438 22.214844 L 16 18.1875 L 11.976562 22.214844 C 11.722656 22.460938 11.320312 22.460938 11.066406 22.214844 C 10.816406 21.964844 10.816406 21.558594 11.066406 21.304688 L 15.089844 17.28125 L 11.066406 13.253906 C 10.816406 13.003906 10.816406 12.597656 11.066406 12.34375 C 11.1875 12.222656 11.351562 12.15625 11.519531 12.160156 M 11.519531 12.160156 "/>
</svg>
