<svg role="img" viewBox="0 0 32 32" height="32" width="32" xmlns="http://www.w3.org/2000/svg"><path d="M16 0c-1.18 0-2.137.828-2.43 1.922H5.762A1.925 1.925 0 0 0 3.84 3.84V28.8c0 1.055.863 1.919 1.922 1.919h20.476A1.925 1.925 0 0 0 28.16 28.8V3.84a1.925 1.925 0 0 0-1.922-1.918H18.43C18.137.828 17.18 0 16 0m0 1.281c.715 0 1.281.563 1.281 1.278 0 .355.285.64.64.64h2.56v1.922H11.52V3.2h2.558c.356 0 .64-.285.64-.64A1.27 1.27 0 0 1 16 1.282m-4.48 10.88c.164 0 .332.058.457.183L16 16.37l4.023-4.027c.25-.25.66-.25.91 0s.25.66 0 .91L16.91 17.28l4.024 4.024c.25.25.25.66 0 .91a.652.652 0 0 1-.91 0L16 18.188l-4.023 4.027a.652.652 0 0 1-.91 0 .646.646 0 0 1 0-.91l4.023-4.024-4.024-4.027a.646.646 0 0 1 0-.91.635.635 0 0 1 .454-.184m0 0"/></svg>