<?xml version="1.0" encoding="UTF-8"?>
<svg xmlns="http://www.w3.org/2000/svg" xmlns:xlink="http://www.w3.org/1999/xlink" width="26.20129" height="32" viewBox="0 0 26.20129 32">
<path fill-rule="nonzero" fill="rgb(0%, 70.588235%, 78.431373%)" fill-opacity="1" d="M 22.246094 11.316406 C 20.058594 13.496094 17.867188 15.675781 15.675781 17.851562 L 5.390625 28.136719 L 5.367188 28.113281 C 4.777344 28.703125 4.191406 29.296875 3.625 29.910156 C 3.324219 30.230469 3.214844 30.640625 3.558594 31.011719 C 3.921875 31.398438 4.355469 31.375 4.753906 31.082031 C 5.054688 30.859375 5.3125 30.585938 5.578125 30.320312 C 11.132812 24.765625 16.6875 19.203125 22.234375 13.640625 L 25.613281 13.050781 C 25.0625 12.488281 22.769531 10.796875 22.246094 11.316406 Z M 22.246094 11.316406 "/>
<path fill-rule="nonzero" fill="rgb(0%, 70.588235%, 78.431373%)" fill-opacity="1" d="M 23.855469 16.289062 C 23.859375 15.96875 23.652344 15.6875 23.351562 15.589844 C 22.8125 15.398438 22.441406 15.710938 22.097656 16.058594 C 17.574219 20.578125 13.050781 25.097656 8.53125 29.621094 C 8.132812 30.019531 7.71875 30.496094 8.207031 31.027344 C 8.75 31.609375 9.257812 31.191406 9.6875 30.761719 C 14.257812 26.195312 18.828125 21.628906 23.398438 17.058594 C 23.613281 16.839844 23.832031 16.621094 23.855469 16.289062 Z M 14.8125 15.738281 L 15.765625 14.785156 C 15.6875 14.546875 15.492188 14.320312 15.285156 14.113281 C 10.9375 9.761719 6.585938 5.414062 2.234375 1.0625 C 1.992188 0.820312 1.730469 0.601562 1.351562 0.617188 C 1.058594 0.632812 0.820312 0.757812 0.707031 1.035156 C 0.511719 1.527344 0.765625 1.882812 1.089844 2.210938 C 5.441406 6.5625 9.789062 10.914062 14.140625 15.261719 C 14.347656 15.46875 14.574219 15.660156 14.8125 15.738281 Z M 23.367188 21.757812 C 23.769531 21.351562 24.125 20.863281 23.582031 20.351562 C 23.097656 19.890625 22.628906 20.210938 22.246094 20.59375 C 20.507812 22.320312 18.78125 24.0625 17.042969 25.789062 C 16.433594 26.394531 16.460938 26.957031 17.0625 27.550781 C 18.082031 28.554688 19.101562 29.558594 20.09375 30.589844 C 20.648438 31.167969 21.253906 31.53125 22.039062 31.378906 C 22.21875 31.390625 22.355469 31.414062 22.488281 31.402344 C 23.0625 31.351562 23.78125 31.386719 23.800781 30.601562 C 23.820312 29.789062 23.117188 29.785156 22.527344 29.804688 C 21.929688 29.828125 21.492188 29.582031 21.09375 29.164062 C 20.484375 28.523438 19.875 27.878906 19.214844 27.289062 C 18.628906 26.765625 18.714844 26.382812 19.246094 25.871094 C 20.644531 24.527344 22 23.140625 23.367188 21.757812 Z M 11.75 17.542969 C 11.960938 17.753906 12.214844 17.96875 12.492188 18.0625 L 13.4375 17.113281 C 13.316406 16.769531 13.03125 16.542969 12.785156 16.292969 C 10.117188 13.621094 7.449219 10.953125 4.777344 8.285156 C 4.226562 7.730469 3.675781 7.175781 3.105469 6.640625 C 2.769531 6.324219 2.371094 6.246094 2.015625 6.597656 C 1.675781 6.9375 1.699219 7.332031 1.96875 7.710938 C 2.089844 7.875 2.222656 8.027344 2.367188 8.171875 C 5.492188 11.296875 8.621094 14.421875 11.75 17.542969 Z M 8.199219 18.683594 C 8.703125 19.1875 9.207031 19.691406 9.730469 20.175781 C 9.84375 20.289062 9.984375 20.367188 10.140625 20.410156 L 11.128906 19.421875 C 11.066406 19.164062 10.894531 18.964844 10.707031 18.773438 C 8.691406 16.753906 6.671875 14.738281 4.652344 12.722656 C 4.488281 12.550781 4.289062 12.414062 4.074219 12.320312 C 3.742188 12.183594 3.402344 12.207031 3.136719 12.496094 C 2.871094 12.789062 2.875 13.125 3.082031 13.433594 C 3.273438 13.714844 3.492188 13.972656 3.730469 14.210938 C 5.214844 15.707031 6.703125 17.195312 8.199219 18.683594 Z M 8.199219 18.683594 "/>
</svg>
