<?xml version="1.0" encoding="UTF-8"?>
<svg xmlns="http://www.w3.org/2000/svg" xmlns:xlink="http://www.w3.org/1999/xlink" width="32" height="32" viewBox="0 0 32 32">
<path fill-rule="nonzero" fill="rgb(100%, 15.686275%, 17.647059%)" fill-opacity="1" d="M 18.558594 4.046875 L 18.558594 1.734375 L 19.402344 1.734375 L 19.402344 0 L 12.503906 0 L 12.503906 1.734375 L 13.34375 1.734375 L 13.34375 4.066406 C 6.707031 5.34375 1.910156 11.152344 1.910156 17.910156 C 1.910156 25.699219 8.226562 32 16 32 C 23.789062 32 30.089844 25.683594 30.089844 17.910156 C 30.089844 10.996094 25.117188 5.261719 18.558594 4.046875 Z M 16.386719 25.148438 L 16.386719 24.339844 L 15.5625 24.339844 L 15.5625 25.148438 C 11.886719 24.9375 8.957031 21.976562 8.761719 18.300781 L 9.570312 18.300781 L 9.570312 17.472656 L 8.761719 17.472656 C 8.988281 13.816406 11.90625 10.90625 15.5625 10.6875 L 15.5625 11.496094 L 16.390625 11.496094 L 16.390625 10.6875 C 20.074219 10.882812 23.027344 13.820312 23.238281 17.507812 L 22.429688 17.507812 L 22.429688 18.332031 L 23.238281 18.332031 C 23.019531 22.015625 20.074219 24.949219 16.386719 25.148438 Z M 19.402344 14.867188 L 18.882812 14.347656 L 16.242188 16.648438 C 16.109375 16.597656 15.964844 16.570312 15.820312 16.566406 C 15.109375 16.566406 14.527344 17.164062 14.527344 17.894531 C 14.527344 18.625 15.109375 19.222656 15.820312 19.222656 C 16.535156 19.222656 17.117188 18.621094 17.117188 17.894531 C 17.121094 17.757812 17.097656 17.621094 17.050781 17.488281 Z M 19.402344 14.867188 "/>
</svg>
