<?xml version="1.0" encoding="UTF-8"?>
<svg xmlns="http://www.w3.org/2000/svg" xmlns:xlink="http://www.w3.org/1999/xlink" width="32" height="32" viewBox="0 0 32 32">
<path fill-rule="evenodd" fill="rgb(0%, 0%, 0%)" fill-opacity="1" d="M 8.800781 6.398438 C 8.800781 4.632812 10.234375 3.199219 12 3.199219 L 20.160156 3.199219 C 20.371094 3.199219 20.570312 3.28125 20.71875 3.429688 L 27.761719 10.363281 C 27.914062 10.511719 28 10.71875 28 10.933594 L 28 22.398438 C 28 24.167969 26.566406 25.601562 24.800781 25.601562 L 10.398438 25.601562 C 9.957031 25.601562 9.601562 25.242188 9.601562 24.800781 C 9.601562 24.359375 9.957031 24 10.398438 24 L 24.800781 24 C 25.683594 24 26.398438 23.285156 26.398438 22.398438 L 26.398438 11.734375 L 21.761719 11.734375 C 20.433594 11.734375 19.359375 10.660156 19.359375 9.332031 L 19.359375 4.800781 L 12 4.800781 C 11.117188 4.800781 10.398438 5.515625 10.398438 6.398438 L 10.398438 10.398438 C 10.398438 10.84375 10.042969 11.199219 9.601562 11.199219 C 9.15625 11.199219 8.800781 10.84375 8.800781 10.398438 Z M 20.960938 5.910156 L 25.246094 10.132812 L 21.761719 10.132812 C 21.316406 10.132812 20.960938 9.777344 20.960938 9.335938 Z M 20.960938 5.910156 "/>
<path fill-rule="evenodd" fill="rgb(0%, 0%, 0%)" fill-opacity="1" d="M 12.796875 13.804688 C 11.007812 12.855469 8.789062 13.535156 7.839844 15.324219 C 6.890625 17.109375 7.570312 19.328125 9.355469 20.28125 C 11.144531 21.230469 13.363281 20.550781 14.3125 18.761719 C 15.265625 16.972656 14.585938 14.753906 12.796875 13.804688 M 6.425781 14.574219 C 7.742188 12.097656 10.769531 11.085938 13.308594 12.277344 C 15.847656 13.464844 17.011719 16.4375 15.953125 19.03125 C 14.894531 21.628906 11.984375 22.941406 9.339844 22.015625 L 6.761719 26.863281 C 6.554688 27.253906 6.070312 27.402344 5.679688 27.195312 C 5.289062 26.988281 5.144531 26.503906 5.351562 26.113281 L 7.925781 21.265625 C 5.84375 19.710938 5.207031 16.867188 6.425781 14.570312 "/>
</svg>
