<svg role="img" viewBox="0 0 32 32" xmlns="http://www.w3.org/2000/svg"><path d="M2 29c0 .55.45 1 1 1h7v-6H2Zm10-5h8v6h-8Zm10 6h7c.55 0 1-.45 1-1v-5h-8Zm5-14h3v6h-3ZM2 16h3v6H2Zm7.992 0H7v6h8v-1.27q-.133-.077-.254-.171l-1.621-1.305A17.7 17.7 0 0 1 9.992 16m7.262 4.559a2 2 0 0 1-.254.171V22h8v-6h-2.992a17.7 17.7 0 0 1-3.133 3.254ZM7.054 8H3c-.55 0-1 .45-1 1v5h6.719a14.8 14.8 0 0 1-1.664-6M29 8h-4.055a14.7 14.7 0 0 1-1.668 6H30V9c0-.55-.45-1-1-1M13.75 18.477l1.621 1.3a1 1 0 0 0 1.258 0l1.617-1.3C22.012 15.453 24 11.484 24 7a.99.99 0 0 0-.504-.867l-7-4a1 1 0 0 0-.992 0l-7 4A.99.99 0 0 0 8 7c0 4.484 1.988 8.453 5.75 11.477m-.457-9.184a1 1 0 0 1 1.414 0l1.184 1.184 2.308-3.079a1.003 1.003 0 0 1 1.602 1.204l-3 4c-.176.23-.442.375-.73.394a.98.98 0 0 1-.778-.289l-2-2a1 1 0 0 1 0-1.414"/></svg>