<?xml version="1.0" encoding="UTF-8"?>
<svg xmlns="http://www.w3.org/2000/svg" xmlns:xlink="http://www.w3.org/1999/xlink" width="32.048453" height="32" viewBox="0 0 32.048453 32">
<path fill-rule="nonzero" fill="rgb(10.196078%, 10.196078%, 10.196078%)" fill-opacity="1" d="M 2.300781 29.273438 L 2.300781 24.75 L 3.363281 24.75 L 3.363281 24.03125 L 2.300781 24.03125 L 2.300781 23.632812 C 2.300781 22.957031 2.59375 22.601562 3.136719 22.601562 C 3.332031 22.601562 3.472656 22.644531 3.605469 22.71875 L 3.808594 22.101562 C 3.59375 21.980469 3.320312 21.925781 3.007812 21.925781 C 2.105469 21.925781 1.488281 22.546875 1.488281 23.632812 L 1.488281 24.03125 L 0.617188 24.03125 L 0.617188 24.75 L 1.488281 24.75 L 1.488281 29.273438 Z M 5.15625 29.273438 L 5.15625 22.035156 L 4.339844 22.035156 L 4.339844 29.273438 Z M 2.300781 29.273438 L 2.300781 24.75 L 3.363281 24.75 L 3.363281 24.03125 L 2.300781 24.03125 L 2.300781 23.632812 C 2.300781 22.957031 2.59375 22.601562 3.136719 22.601562 C 3.332031 22.601562 3.472656 22.644531 3.605469 22.71875 L 3.808594 22.101562 C 3.59375 21.980469 3.320312 21.925781 3.007812 21.925781 C 2.105469 21.925781 1.488281 22.546875 1.488281 23.632812 L 1.488281 24.03125 L 0.617188 24.03125 L 0.617188 24.75 L 1.488281 24.75 L 1.488281 29.273438 Z M 5.15625 29.273438 L 5.15625 22.035156 L 4.339844 22.035156 L 4.339844 29.273438 Z M 7.882812 29.40625 C 8.585938 29.40625 9.195312 29.15625 9.617188 28.679688 L 9.617188 29.273438 L 10.433594 29.273438 L 10.433594 25.671875 C 10.433594 24.402344 9.519531 23.902344 8.402344 23.902344 C 7.546875 23.902344 6.871094 24.183594 6.308594 24.769531 L 6.6875 25.335938 C 7.15625 24.824219 7.664062 24.609375 8.292969 24.609375 C 9.054688 24.609375 9.617188 25.007812 9.617188 25.703125 L 9.617188 26.648438 C 9.195312 26.171875 8.597656 25.941406 7.882812 25.941406 C 6.992188 25.941406 6.058594 26.484375 6.058594 27.667969 C 6.058594 28.808594 7.003906 29.40625 7.882812 29.40625 Z M 8.1875 28.820312 C 7.414062 28.820312 6.882812 28.339844 6.882812 27.667969 C 6.882812 27.007812 7.414062 26.527344 8.1875 26.527344 C 8.75 26.527344 9.304688 26.746094 9.617188 27.167969 L 9.617188 28.167969 C 9.304688 28.601562 8.75 28.820312 8.1875 28.820312 Z M 13.734375 31.402344 C 15.015625 31.402344 16.242188 30.859375 16.242188 29.199219 L 16.242188 24.03125 L 15.425781 24.03125 L 15.425781 24.824219 C 15.003906 24.25 14.363281 23.902344 13.65625 23.902344 C 12.28125 23.902344 11.324219 24.945312 11.324219 26.625 C 11.324219 28.320312 12.289062 29.339844 13.65625 29.339844 C 14.394531 29.339844 15.035156 28.9375 15.425781 28.40625 L 15.425781 29.199219 C 15.425781 30.304688 14.601562 30.730469 13.734375 30.730469 C 12.984375 30.730469 12.464844 30.535156 12.03125 30.023438 L 11.617188 30.609375 C 12.246094 31.230469 12.855469 31.402344 13.734375 31.402344 Z M 13.863281 28.613281 C 12.800781 28.613281 12.171875 27.777344 12.171875 26.625 C 12.171875 25.464844 12.800781 24.628906 13.863281 24.628906 C 14.503906 24.628906 15.132812 25.019531 15.425781 25.464844 L 15.425781 27.765625 C 15.132812 28.222656 14.503906 28.613281 13.863281 28.613281 Z M 19.53125 31.402344 C 20.8125 31.402344 22.039062 30.859375 22.039062 29.199219 L 22.039062 24.03125 L 21.222656 24.03125 L 21.222656 24.824219 C 20.800781 24.25 20.160156 23.902344 19.457031 23.902344 C 18.078125 23.902344 17.121094 24.945312 17.121094 26.625 C 17.121094 28.320312 18.089844 29.339844 19.457031 29.339844 C 20.195312 29.339844 20.832031 28.9375 21.222656 28.40625 L 21.222656 29.199219 C 21.222656 30.304688 20.398438 30.730469 19.53125 30.730469 C 18.78125 30.730469 18.261719 30.535156 17.828125 30.023438 L 17.414062 30.609375 C 18.042969 31.230469 18.652344 31.402344 19.53125 31.402344 Z M 19.660156 28.613281 C 18.597656 28.613281 17.96875 27.777344 17.96875 26.625 C 17.96875 25.464844 18.597656 24.628906 19.660156 24.628906 C 20.300781 24.628906 20.929688 25.019531 21.222656 25.464844 L 21.222656 27.765625 C 20.929688 28.222656 20.300781 28.613281 19.660156 28.613281 Z M 25.601562 29.40625 C 26.445312 29.40625 27.152344 29.113281 27.683594 28.589844 L 27.292969 28.058594 C 26.871094 28.492188 26.273438 28.730469 25.664062 28.730469 C 24.535156 28.730469 23.851562 27.90625 23.789062 26.917969 L 28.019531 26.917969 L 28.019531 26.714844 C 28.019531 25.140625 27.085938 23.902344 25.503906 23.902344 C 24.003906 23.902344 22.917969 25.128906 22.917969 26.648438 C 22.917969 28.289062 24.039062 29.40625 25.601562 29.40625 Z M 27.21875 26.3125 L 23.777344 26.3125 C 23.820312 25.519531 24.375 24.574219 25.492188 24.574219 C 26.6875 24.574219 27.207031 25.542969 27.21875 26.3125 Z M 29.703125 29.273438 L 29.703125 25.5625 C 29.945312 25.140625 30.628906 24.726562 31.136719 24.726562 C 31.257812 24.726562 31.355469 24.738281 31.453125 24.75 L 31.453125 23.914062 C 30.734375 23.914062 30.128906 24.324219 29.703125 24.867188 L 29.703125 24.03125 L 28.890625 24.03125 L 28.890625 29.273438 Z M 29.703125 29.273438 "/>
<path fill-rule="evenodd" fill="rgb(48.235294%, 69.019608%, 62.352941%)" fill-opacity="1" d="M 15.824219 0.628906 L 15.824219 2.035156 L 15.828125 2.144531 L 15.828125 10.320312 C 15.71875 10.320312 15.609375 10.289062 15.515625 10.226562 L 9.175781 5.964844 C 9.152344 5.949219 9.128906 5.929688 9.105469 5.910156 L 5.644531 8.1875 C 5.28125 7.960938 5.28125 7.453125 5.644531 7.226562 L 11.808594 3.214844 L 15.515625 0.722656 C 15.609375 0.660156 15.71875 0.628906 15.824219 0.628906 Z M 15.828125 10.902344 C 15.9375 10.902344 16.050781 10.933594 16.148438 10.996094 L 22.644531 15.25 L 25.84375 13.226562 C 26.179688 13.453125 26.179688 13.964844 25.84375 14.191406 L 19.59375 18.246094 C 19.589844 18.25 19.585938 18.25 19.582031 18.25 L 16.148438 20.496094 C 16.050781 20.558594 15.945312 20.589844 15.839844 20.59375 L 15.839844 20.523438 L 15.835938 20.371094 L 15.835938 20.207031 L 15.832031 15.746094 L 15.832031 15.457031 L 15.828125 11.566406 Z M 15.828125 10.902344 "/>
<path fill-rule="evenodd" fill="rgb(48.235294%, 69.019608%, 62.352941%)" fill-opacity="1" d="M 16.503906 0.992188 C 16.355469 0.917969 16.085938 0.644531 15.824219 0.652344 C 15.59375 0.652344 15.507812 0.746094 15.140625 0.992188 C 15.648438 1.21875 17.542969 1.882812 18.070312 2.03125 C 17.230469 1.464844 16.707031 1.117188 16.503906 0.992188 Z M 14.476562 1.4375 L 13.894531 1.816406 C 14.449219 2.195312 14.980469 2.488281 15.484375 2.699219 C 16.515625 3.125 17.824219 3.402344 18.121094 3.476562 C 19.816406 3.894531 21.414062 4.289062 22.703125 5.582031 C 22.765625 5.648438 22.828125 5.714844 22.890625 5.78125 C 23.019531 5.527344 22.953125 5.195312 22.691406 5.023438 L 20.144531 3.359375 C 19.527344 3.15625 18.898438 3 18.277344 2.84375 C 17.691406 2.699219 16.699219 2.441406 16.144531 2.265625 C 15.773438 2.144531 15.21875 1.867188 14.476562 1.4375 Z M 14.5 3.226562 C 14.078125 3.03125 13.617188 2.734375 13.117188 2.335938 L 12.566406 2.710938 C 13.132812 3.183594 13.613281 3.515625 14.011719 3.710938 C 14.613281 4 16.894531 4.625 17.035156 4.660156 C 18.730469 5.078125 20.277344 5.390625 21.5625 6.675781 C 21.566406 6.679688 22.105469 6.351562 22.070312 6.320312 C 20.65625 4.902344 18.894531 4.453125 17.1875 4.03125 C 16.996094 3.984375 15.132812 3.515625 14.5 3.226562 Z M 16.542969 5.859375 C 17.894531 6.203125 19.164062 6.613281 20.238281 7.558594 L 20.804688 7.195312 C 19.578125 6.054688 18.195312 5.507812 16.640625 5.214844 C 15.25 4.953125 14.332031 4.632812 13.292969 4.222656 C 12.597656 3.953125 12.050781 3.652344 11.652344 3.328125 L 11.082031 3.691406 C 11.742188 4.207031 12.332031 4.570312 12.859375 4.789062 C 13.554688 5.078125 14.785156 5.433594 16.542969 5.859375 Z M 9.742188 4.589844 C 9.761719 4.609375 9.78125 4.632812 9.800781 4.652344 C 11.242188 6.066406 12.96875 6.476562 14.707031 6.894531 C 16.214844 7.261719 17.582031 7.5625 18.796875 8.5 L 19.375 8.121094 C 18.007812 6.992188 16.445312 6.648438 14.867188 6.269531 C 13.15625 5.855469 11.613281 5.488281 10.304688 4.230469 Z M 9.097656 5.042969 C 8.84375 5.304688 8.875 5.757812 9.191406 5.972656 L 11.113281 7.269531 C 11.964844 7.632812 12.617188 7.8125 13.492188 8.035156 C 14.859375 8.382812 16.152344 8.671875 17.28125 9.484375 L 17.832031 9.105469 C 16.546875 8.105469 15.097656 7.753906 13.648438 7.382812 C 11.945312 6.949219 10.578125 6.585938 9.285156 5.246094 C 9.21875 5.179688 9.160156 5.113281 9.097656 5.042969 Z M 15.359375 10.121094 C 15.5 10.195312 15.546875 10.285156 15.75 10.320312 C 15.894531 10.320312 16.054688 10.3125 16.1875 10.230469 L 16.507812 10.027344 C 15.476562 9.359375 14.40625 8.976562 13.261719 8.695312 Z M 15.359375 10.121094 "/>
<path fill-rule="evenodd" fill="rgb(48.235294%, 69.019608%, 62.352941%)" fill-opacity="1" d="M 16.503906 11.265625 C 16.355469 11.1875 16.085938 10.914062 15.824219 10.925781 C 15.59375 10.925781 15.507812 11.019531 15.140625 11.265625 C 15.648438 11.488281 17.542969 12.15625 18.070312 12.304688 C 17.230469 11.734375 16.707031 11.390625 16.503906 11.265625 Z M 14.476562 11.707031 L 13.894531 12.085938 C 14.449219 12.464844 14.980469 12.757812 15.484375 12.96875 C 16.515625 13.398438 17.824219 13.671875 18.121094 13.746094 C 19.816406 14.167969 21.414062 14.5625 22.703125 15.855469 C 22.765625 15.917969 22.828125 15.988281 22.890625 16.054688 C 23.019531 15.800781 22.953125 15.464844 22.691406 15.292969 L 20.144531 13.632812 C 19.527344 13.429688 18.898438 13.269531 18.277344 13.117188 C 17.691406 12.972656 16.699219 12.714844 16.144531 12.535156 C 15.773438 12.417969 15.21875 12.140625 14.476562 11.707031 Z M 14.5 13.496094 C 14.078125 13.304688 13.617188 13.007812 13.117188 12.609375 L 12.566406 12.980469 C 13.132812 13.453125 13.613281 13.789062 14.011719 13.984375 C 14.613281 14.273438 16.894531 14.898438 17.035156 14.933594 C 18.730469 15.351562 20.277344 15.660156 21.5625 16.949219 C 21.566406 16.953125 22.105469 16.625 22.070312 16.589844 C 20.65625 15.175781 18.894531 14.726562 17.1875 14.304688 C 16.996094 14.253906 15.132812 13.789062 14.5 13.496094 Z M 16.542969 16.132812 C 17.894531 16.476562 19.164062 16.886719 20.238281 17.828125 L 20.804688 17.464844 C 19.578125 16.328125 18.195312 15.777344 16.640625 15.488281 C 15.25 15.226562 14.332031 14.902344 13.292969 14.496094 C 12.597656 14.222656 12.050781 13.925781 11.652344 13.601562 L 11.082031 13.964844 C 11.742188 14.476562 12.332031 14.84375 12.859375 15.0625 C 13.554688 15.351562 14.785156 15.707031 16.542969 16.132812 Z M 9.742188 14.863281 C 9.761719 14.882812 9.78125 14.902344 9.800781 14.921875 C 11.242188 16.339844 12.96875 16.746094 14.707031 17.167969 C 16.214844 17.53125 17.582031 17.835938 18.796875 18.769531 L 19.375 18.394531 C 18.007812 17.265625 16.445312 16.921875 14.867188 16.539062 C 13.15625 16.125 11.613281 15.761719 10.304688 14.503906 Z M 9.097656 15.316406 C 8.84375 15.578125 8.875 16.03125 9.191406 16.246094 L 11.113281 17.542969 C 11.964844 17.90625 12.617188 18.082031 13.492188 18.308594 C 14.859375 18.65625 16.152344 18.945312 17.28125 19.753906 L 17.832031 19.378906 C 16.546875 18.378906 15.097656 18.023438 13.648438 17.652344 C 11.945312 17.21875 10.578125 16.859375 9.285156 15.519531 C 9.21875 15.453125 9.160156 15.382812 9.097656 15.316406 Z M 15.359375 20.390625 C 15.5 20.46875 15.546875 20.554688 15.75 20.59375 C 15.894531 20.59375 16.054688 20.585938 16.1875 20.503906 L 16.507812 20.300781 C 15.476562 19.632812 14.40625 19.246094 13.261719 18.964844 Z M 15.359375 20.390625 "/>
</svg>
