<svg role="img" viewBox="0 0 114.051 32" height="32" width="114.051" xmlns="http://www.w3.org/2000/svg"><path d="m26.324 1.172 8.324 14.418-8.324 14.418H9.676L1.356 15.59l8.32-14.418ZM27.004 0H9L0 15.59l9 15.59h18.004l9-15.59Zm-8.746 7.781h2.144v2.485h-2.144Zm-2.422 0h2.023v2.485h-2.023Zm-7.723-.554 6.508 1.433v.371l-8.723 2.024-2.617 4.535 7.36 12.937h.597c.45-.336 1.438-1.34 2.246-2.492.809-1.152 1.196-1.785 1.77-2.125.176-.117.375-.2.582-.234l.016-.004v.004c.085-.016.175-.028.261-.028.668 0 1.235.43 1.45 1.028-.274-.133-.82-.293-1.336.187-.72.672-.305 1.852-.305 1.852.027.086.058.16.09.23-.39.477-1.399 1.285-1.828 1.582h.46c.508-.379 1.954-1.52 2.903-2.875.933-1.336 1.375-2.062 2.043-2.453.2-.137.43-.226.668-.27l.02-.007v.004c.097-.016.199-.031.304-.031.75 0 1.422.476 1.668 1.187-.312-.152-.941-.336-1.535.219-.836.773-.352 2.137-.352 2.137.07.226.157.406.258.515-.379.469-1.379 1.274-1.812 1.574h.453c.398-.304 1.46-1.156 2.113-2.09.68-.968 1.004-1.5 1.484-1.785.149-.097.317-.164.493-.195l.011-.004v.004a.993.993 0 0 1 .219-.023c.563 0 1.04.359 1.219.863-.227-.11-.688-.246-1.121.156-.606.567-.254 1.559-.254 1.559.05.164.113.293.187.375l-.004.004c.078.132.41.82 1.106 1.136h.648l7.36-12.937-2.637-4.563-8.555-1.984v-.375l6.383-1.406-2.55-4.418H10.64m4.879 8.793V7.8h-.59l3.195-2.551 3.2 2.55h-.595v3.837h2.02s-1.062 1.508-1.062 3.254h-7.125c0-1.746-1.06-3.254-1.06-3.254Zm3.867 3.953-5.223 3.015.356-3.015Zm-5.871 8.504.379-3.192 7.75-4.492.328 2.781Zm6.636-1.711v-.403l2.188-1.261.297 2.535c-.75-1.188-2.485-.871-2.485-.871M44.527 9.516c.375 0 .688.03.934.093.246.063.453.13.625.204l-.352 1.57a1.84 1.84 0 0 0-.476-.133 3.429 3.429 0 0 0-.528-.043c-.242 0-.449.035-.613.102a.956.956 0 0 0-.39.277c-.094.117-.16.254-.2.414a2.156 2.156 0 0 0-.062.523v.352h2.472v1.664h-2.472v5.402h-2V12.5c0-.914.254-1.64.77-2.18.515-.535 1.28-.804 2.292-.804m5.399 10.558c-.582-.008-1.055-.07-1.414-.187-.364-.117-.649-.278-.86-.489a1.667 1.667 0 0 1-.433-.765 4.218 4.218 0 0 1-.114-1.016V9.84l2.004-.324v7.699c0 .18.012.34.04.484a.768.768 0 0 0 .484.602c.14.066.336.105.578.12Zm4.394-7.387c.594 0 1.086.067 1.48.2.391.136.708.328.946.578.238.25.406.555.504.914.098.36.148.758.148 1.195v4.164l-1.195.223c-.512.086-1.129.129-1.855.129-.457 0-.871-.04-1.243-.121a2.772 2.772 0 0 1-.96-.399c-.266-.18-.48-.43-.618-.718-.144-.293-.215-.657-.215-1.086 0-.414.083-.762.247-1.047.164-.282.39-.52.668-.688.277-.172.593-.293.953-.37a5.646 5.646 0 0 1 1.117-.114l.691.035c.2.023.364.05.489.086v-.188c0-.34-.102-.613-.309-.82-.207-.207-.566-.308-1.074-.308-.336 0-.676.023-1.008.074-.293.039-.582.11-.86.207l-.257-1.61.437-.117.57-.105.653-.082Zm.164 5.856.563-.012.43-.043v-1.515a2.914 2.914 0 0 0-.364-.055l-.441-.027c-.176 0-.356.011-.531.035a1.31 1.31 0 0 0-.438.125.759.759 0 0 0-.297.258.731.731 0 0 0-.105.402c0 .312.105.531.316.652.211.117.5.18.867.18m4.563-5.43c.34-.097.777-.187 1.316-.273.559-.09 1.125-.133 1.692-.13.601 0 1.097.08 1.5.235.398.157.71.38.945.668.234.285.398.625.496 1.02.098.394.149.832.149 1.316v3.992H63.14v-3.75c0-.644-.082-1.101-.254-1.37-.168-.266-.489-.403-.953-.403l-.457.02-.43.046v5.457h-2Zm9.824 2.297.61-.668.609-.687.558-.649.45-.531h2.382l-1.394 1.559-1.484 1.535c.27.242.546.535.835.87l.833 1.044.738 1.074.566.984H71.27l-.489-.777-.582-.848-.652-.812a5.428 5.428 0 0 0-.68-.66v3.097h-2V9.84l2-.324Zm7.742 3.914c.5 0 .914-.086 1.242-.25.329-.164.493-.445.493-.84 0-.187-.032-.351-.09-.484a.942.942 0 0 0-.29-.363 2.329 2.329 0 0 0-.53-.309l-.813-.348-.738-.332a3.27 3.27 0 0 1-.617-.386 1.825 1.825 0 0 1-.43-.532 1.618 1.618 0 0 1-.16-.753c0-.563.21-1.02.636-1.372.426-.347 1.012-.523 1.754-.523.477 0 .868.043 1.176.121.309.078.527.152.652.215l-.203.781a5.407 5.407 0 0 0-.543-.215c-.254-.09-.629-.136-1.12-.136-.2 0-.384.02-.56.062-.175.04-.327.102-.464.188a1.057 1.057 0 0 0-.32.324.852.852 0 0 0-.122.476c0 .188.036.352.106.485.07.137.18.254.316.36.16.112.332.21.512.284l.691.297.77.328c.25.11.465.246.652.403.188.156.344.343.457.562.118.219.176.496.176.828 0 .625-.234 1.102-.703 1.422-.473.324-1.113.485-1.93.485-.61 0-1.074-.051-1.394-.153l-.649-.238.23-.793c.028.02.087.047.173.09.293.125.597.21.91.262.207.035.453.054.73.054m10.059-2.851c0 .547-.078 1.043-.234 1.492a3.26 3.26 0 0 1-.66 1.14 2.952 2.952 0 0 1-1 .735c-.403.18-.837.27-1.278.262a3.006 3.006 0 0 1-2.277-.997 3.297 3.297 0 0 1-.657-1.14 4.5 4.5 0 0 1-.234-1.492c0-.547.078-1.043.234-1.489a3.4 3.4 0 0 1 .657-1.152 3.017 3.017 0 0 1 1.004-.738 3.111 3.111 0 0 1 1.273-.262c.469 0 .895.09 1.277.262.38.176.723.426 1 .738.282.32.504.703.66 1.152.157.446.235.946.235 1.489m-.926 0c0-.868-.203-1.559-.605-2.075-.403-.52-.95-.773-1.641-.773-.687 0-1.234.258-1.637.773-.402.512-.605 1.207-.605 2.075 0 .867.203 1.558.605 2.07.403.512.95.766 1.637.766.691 0 1.238-.254 1.64-.766.403-.508.606-1.2.606-2.07m8.078 3.226-1.047.242c-.437.09-.976.133-1.613.133-.52 0-.953-.078-1.305-.226a2.117 2.117 0 0 1-.843-.649 2.53 2.53 0 0 1-.465-1.008 5.6 5.6 0 0 1-.14-1.3v-3.895h.874v3.613c0 .493.035.91.106 1.25.07.34.187.614.351.825.16.21.367.363.625.457.254.093.567.14.934.14.41 0 .77-.02 1.074-.066.305-.047.496-.086.578-.121v-6.098h.871Zm4.723-6.84c.285 0 .555.024.812.067.254.047.43.09.532.136l-.176.75a1.898 1.898 0 0 0-.438-.113 5.393 5.393 0 0 0-.867-.058c-.375 0-.68.027-.906.078-.227.054-.379.097-.453.136v6.086h-.871v-6.625c.3-.125.613-.222.93-.3.394-.106.87-.157 1.437-.157m5.613 7.23c-.535 0-1.012-.085-1.422-.257a2.597 2.597 0 0 1-1.027-.73c-.273-.32-.484-.7-.625-1.145a4.695 4.695 0 0 1-.215-1.469c0-.547.074-1.043.219-1.492.137-.422.351-.816.64-1.156.278-.32.622-.574 1.008-.746.418-.18.871-.27 1.328-.262.375 0 .73.031 1.055.094.328.062.582.144.762.242l-.23.754c-.18-.09-.38-.16-.606-.215a3.868 3.868 0 0 0-.899-.082c-.77 0-1.355.25-1.753.746-.399.496-.598 1.203-.598 2.117 0 .41.043.79.133 1.133.09.348.234.64.437.887.203.246.461.441.781.578.317.14.704.21 1.16.21.376 0 .692-.042.95-.128.254-.086.441-.16.555-.223l.19.754c-.163.09-.417.176-.76.262a4.404 4.404 0 0 1-1.083.125m2.934-3.625c0-.61.09-1.14.261-1.59.176-.453.403-.832.688-1.137a2.71 2.71 0 0 1 .969-.68 2.9 2.9 0 0 1 1.12-.222c.848 0 1.528.277 2.036.832.504.559.758 1.414.758 2.566l-.008.215-.02.203h-4.878c.027.852.238 1.504.632 1.961.395.457 1.024.688 1.883.688.473 0 .848-.047 1.13-.137l.6-.226.165.75c-.125.074-.364.16-.707.257-.344.098-.75.145-1.215.145-.61 0-1.13-.086-1.559-.266-.43-.18-.785-.43-1.062-.754a3.068 3.068 0 0 1-.606-1.148 5.405 5.405 0 0 1-.187-1.457m4.933-.55c-.02-.727-.191-1.29-.511-1.692-.325-.406-.782-.606-1.371-.606-.313 0-.594.063-.84.188a2.134 2.134 0 0 0-.645.504c-.187.215-.332.46-.43.73a2.795 2.795 0 0 0-.18.875Zm0 0" fill="rgb(100%, 100%, 100%)"/></svg>