<svg role="img" viewBox="0 0 114.051 32" xmlns="http://www.w3.org/2000/svg"><path d="m26.324 1.172 8.324 14.418-8.324 14.418H9.676L1.356 15.59l8.32-14.418ZM27.004 0H9L0 15.59l9 15.59h18.004l9-15.59Zm-8.746 7.781h2.144v2.485h-2.144Zm-2.422 0h2.023v2.485h-2.023Zm-7.723-.554 6.508 1.433v.371l-8.723 2.024-2.617 4.535 7.36 12.937h.597c.45-.336 1.438-1.34 2.246-2.492.809-1.152 1.196-1.785 1.77-2.125.176-.117.375-.2.582-.234l.016-.004v.004c.085-.016.175-.028.261-.028.668 0 1.235.43 1.45 1.028-.274-.133-.82-.293-1.336.187-.72.672-.305 1.852-.305 1.852q.041.127.09.23c-.39.477-1.399 1.285-1.828 1.582h.46c.508-.379 1.954-1.52 2.903-2.875.933-1.336 1.375-2.062 2.043-2.453.2-.137.43-.226.668-.27l.02-.007v.004c.097-.016.199-.031.304-.031a1.77 1.77 0 0 1 1.668 1.187c-.312-.152-.941-.336-1.535.219-.836.773-.352 2.137-.352 2.137.07.226.157.406.258.515-.379.469-1.379 1.274-1.812 1.574h.453c.398-.304 1.46-1.156 2.113-2.09.68-.968 1.004-1.5 1.484-1.785.149-.097.317-.164.493-.195l.011-.004v.004q.107-.024.219-.023c.563 0 1.04.359 1.219.863-.227-.11-.688-.246-1.121.156-.606.567-.254 1.559-.254 1.559.05.164.113.293.187.375l-.004.004c.078.132.41.82 1.106 1.136h.648l7.36-12.937-2.637-4.563-8.555-1.984v-.375l6.383-1.406-2.55-4.418H10.64m4.879 8.793V7.8h-.59l3.195-2.551 3.2 2.55h-.595v3.837h2.02s-1.062 1.508-1.062 3.254h-7.125c0-1.746-1.06-3.254-1.06-3.254Zm3.867 3.953-5.223 3.015.356-3.015Zm-5.871 8.504.379-3.192 7.75-4.492.328 2.781Zm6.636-1.711v-.403l2.188-1.261.297 2.535c-.75-1.188-2.485-.871-2.485-.871M44.527 9.516q.564 0 .934.093.368.094.625.204l-.352 1.57a1.8 1.8 0 0 0-.476-.133 3.4 3.4 0 0 0-.528-.043c-.242 0-.449.035-.613.102a.96.96 0 0 0-.39.277q-.14.175-.2.414a2.2 2.2 0 0 0-.062.523v.352h2.472v1.664h-2.472v5.402h-2V12.5c0-.914.254-1.64.77-2.18q.773-.803 2.292-.804m5.399 10.558q-.874-.012-1.414-.187-.545-.174-.86-.489a1.67 1.67 0 0 1-.433-.765 4.2 4.2 0 0 1-.114-1.016V9.84l2.004-.324v7.699q-.001.269.04.484a.77.77 0 0 0 .484.602c.14.066.336.105.578.12Zm4.394-7.387q.89 0 1.48.2.59.203.946.578.357.375.504.914.148.54.148 1.195v4.164l-1.195.223q-.767.129-1.855.129-.685 0-1.243-.121a2.8 2.8 0 0 1-.96-.399 1.8 1.8 0 0 1-.618-.718q-.215-.441-.215-1.086 0-.62.247-1.047c.164-.282.39-.52.668-.688q.414-.256.953-.37a5.7 5.7 0 0 1 1.117-.114l.691.035q.3.033.489.086v-.188q0-.51-.309-.82-.311-.31-1.074-.308c-.336 0-.676.023-1.008.074q-.441.06-.86.207l-.257-1.61.437-.117.57-.105.653-.082Zm.164 5.856.563-.012.43-.043v-1.515a3 3 0 0 0-.364-.055l-.441-.027c-.176 0-.356.011-.531.035a1.3 1.3 0 0 0-.438.125.76.76 0 0 0-.297.258.73.73 0 0 0-.105.402q0 .47.316.652c.211.117.5.18.867.18m4.563-5.43q.509-.145 1.316-.273.84-.135 1.692-.13c.601 0 1.097.08 1.5.235.398.157.71.38.945.668q.35.428.496 1.02.148.59.149 1.316v3.992H63.14v-3.75q.002-.966-.254-1.37c-.168-.266-.489-.403-.953-.403l-.457.02-.43.046v5.457h-2Zm9.824 2.297.61-.668.609-.687.558-.649.45-.531h2.382l-1.394 1.559-1.484 1.535c.27.242.546.535.835.87l.833 1.044.738 1.074.566.984H71.27l-.489-.777-.582-.848-.652-.812a5.4 5.4 0 0 0-.68-.66v3.097h-2V9.84l2-.324Zm7.742 3.914q.75-.002 1.242-.25.493-.247.493-.84-.001-.282-.09-.484a.94.94 0 0 0-.29-.363 2.3 2.3 0 0 0-.53-.309l-.813-.348-.738-.332a3.3 3.3 0 0 1-.617-.386 1.8 1.8 0 0 1-.43-.532 1.6 1.6 0 0 1-.16-.753q-.001-.844.636-1.372.64-.522 1.754-.523.715.002 1.176.121.464.119.652.215l-.203.781a5 5 0 0 0-.543-.215q-.382-.136-1.12-.136-.298 0-.56.062c-.175.04-.327.102-.464.188a1 1 0 0 0-.32.324.85.85 0 0 0-.122.476q0 .284.106.485c.07.137.18.254.316.36.16.112.332.21.512.284l.691.297.77.328q.373.166.652.403c.188.156.344.343.457.562q.177.33.176.828c0 .625-.234 1.102-.703 1.422-.473.324-1.113.485-1.93.485q-.915 0-1.394-.153l-.649-.238.23-.793c.028.02.087.047.173.09q.44.186.91.262c.207.035.453.054.73.054m10.059-2.851q0 .82-.234 1.492a3.3 3.3 0 0 1-.66 1.14 2.95 2.95 0 0 1-1 .735c-.403.18-.837.27-1.278.262a3 3 0 0 1-2.277-.997 3.3 3.3 0 0 1-.657-1.14 4.5 4.5 0 0 1-.234-1.492q0-.82.234-1.489a3.4 3.4 0 0 1 .657-1.152 3 3 0 0 1 1.004-.738 3.1 3.1 0 0 1 1.273-.262q.704.002 1.277.262c.38.176.723.426 1 .738q.424.48.66 1.152c.157.446.235.946.235 1.489m-.926 0q-.001-1.302-.605-2.075c-.403-.52-.95-.773-1.641-.773q-1.031 0-1.637.773c-.402.512-.605 1.207-.605 2.075q.001 1.301.605 2.07.606.767 1.637.766 1.037.001 1.64-.766.605-.764.606-2.07m8.078 3.226-1.047.242q-.656.134-1.613.133-.778-.002-1.305-.226a2.1 2.1 0 0 1-.843-.649 2.5 2.5 0 0 1-.465-1.008 5.6 5.6 0 0 1-.14-1.3v-3.895h.874v3.613q0 .738.106 1.25.105.51.351.825.239.316.625.457.382.14.934.14.617.002 1.074-.066.456-.07.578-.121v-6.098h.871Zm4.723-6.84q.427.001.812.067.38.069.532.136l-.176.75a2 2 0 0 0-.438-.113 5.4 5.4 0 0 0-.867-.058c-.375 0-.68.027-.906.078q-.341.08-.453.136v6.086h-.871v-6.625c.3-.125.613-.222.93-.3.394-.106.87-.157 1.437-.157m5.613 7.23c-.535 0-1.012-.085-1.422-.257a2.6 2.6 0 0 1-1.027-.73q-.412-.479-.625-1.145a4.7 4.7 0 0 1-.215-1.469q0-.82.219-1.492c.137-.422.351-.816.64-1.156.278-.32.622-.574 1.008-.746.418-.18.871-.27 1.328-.262.375 0 .73.031 1.055.094q.492.094.762.242l-.23.754q-.269-.134-.606-.215a4 4 0 0 0-.899-.082q-1.156.001-1.753.746-.598.745-.598 2.117-.001.617.133 1.133c.09.348.234.64.437.887q.303.37.781.578.476.21 1.16.21.564 0 .95-.128.383-.129.555-.223l.19.754q-.245.134-.76.262a4.4 4.4 0 0 1-1.083.125m2.934-3.625c0-.61.09-1.14.261-1.59q.262-.68.688-1.137a2.7 2.7 0 0 1 .969-.68 2.9 2.9 0 0 1 1.12-.222q1.273 0 2.036.832.757.838.758 2.566l-.008.215-.02.203h-4.878q.043 1.277.632 1.961.594.687 1.883.688.708-.001 1.13-.137l.6-.226.165.75c-.125.074-.364.16-.707.257q-.517.146-1.215.145c-.61 0-1.13-.086-1.559-.266q-.646-.269-1.062-.754a3 3 0 0 1-.606-1.148 5.4 5.4 0 0 1-.187-1.457m4.933-.55q-.03-1.09-.511-1.692-.488-.607-1.371-.606-.47 0-.84.188a2.1 2.1 0 0 0-.645.504q-.282.324-.43.73a2.8 2.8 0 0 0-.18.875Zm0 0" fill="rgb(100%, 100%, 100%)"/></svg>