<svg role="img" viewBox="0 0 37.02 32" xmlns="http://www.w3.org/2000/svg"><path d="m27.04 1.223 8.515 14.75-8.516 14.746H10.012L1.496 15.973l8.516-14.75Zm.694-1.2H9.316L.11 15.973l9.207 15.945h18.418l9.207-15.945Zm-8.949 7.961h2.195v2.54h-2.195Zm-2.472 0h2.066v2.54h-2.067Zm-7.907-.57 6.66 1.469v.379l-8.918 2.07-2.68 4.64 7.528 13.231h.613c.457-.344 1.47-1.367 2.293-2.547.832-1.183 1.223-1.824 1.813-2.172.18-.12.383-.203.594-.242l.015-.004v.004c.09-.015.18-.027.27-.027.683 0 1.261.437 1.48 1.05-.277-.136-.836-.3-1.363.192-.738.688-.313 1.895-.313 1.895.028.09.059.164.094.234-.402.488-1.433 1.316-1.875 1.617h.473c.52-.387 1.996-1.555 2.969-2.937.957-1.368 1.41-2.11 2.09-2.512.206-.137.44-.23.687-.277l.02-.004v.004q.151-.031.308-.032c.79 0 1.457.508 1.707 1.211-.32-.152-.965-.343-1.574.223-.852.797-.36 2.187-.36 2.187.075.23.16.418.266.532-.387.48-1.41 1.3-1.851 1.605h.464c.407-.308 1.493-1.183 2.16-2.133.696-.996 1.028-1.535 1.52-1.828q.229-.152.5-.199.005-.004.016-.008v.004q.111-.018.222-.023c.578 0 1.063.37 1.246.882-.234-.109-.703-.25-1.144.165-.621.578-.262 1.59-.262 1.59.051.167.113.304.192.386l-.004.004c.078.133.422.84 1.129 1.164h.664l7.527-13.234-2.695-4.672-8.754-2.028v-.382l6.531-1.438-2.61-4.523H10.997m4.992 8.996V8.004h-.605l3.27-2.61 3.269 2.61h-.602v3.922h2.063s-1.086 1.543-1.086 3.328h-7.29c0-1.785-1.085-3.328-1.085-3.328Zm3.953 4.047-5.343 3.082.367-3.082Zm-6.003 8.699.382-3.266 7.93-4.593.336 2.843Zm6.789-1.754v-.41l2.234-1.293.309 2.598c-.77-1.215-2.543-.895-2.543-.895" fill="rgb(100%, 100%, 100%)"/></svg>