<?xml version="1.0" encoding="UTF-8"?>
<svg xmlns="http://www.w3.org/2000/svg" xmlns:xlink="http://www.w3.org/1999/xlink" width="32" height="32" viewBox="0 0 32 32">
<path fill-rule="nonzero" fill="rgb(0%, 0%, 0%)" fill-opacity="1" d="M 8.253906 10.714844 C 7.816406 11.15625 7.121094 11.199219 6.628906 10.820312 L 6.515625 10.714844 L 2.820312 7.023438 C 2.382812 6.585938 2.339844 5.890625 2.71875 5.398438 L 2.820312 5.285156 L 6.515625 1.589844 C 6.953125 1.152344 7.648438 1.109375 8.140625 1.488281 L 8.253906 1.589844 L 11.585938 4.921875 L 23.328125 4.921875 L 23.601562 4.929688 C 26.917969 5.078125 29.53125 7.808594 29.53125 11.132812 C 29.53125 14.453125 26.917969 17.1875 23.601562 17.335938 L 23.328125 17.339844 L 20.09375 17.339844 L 16.871094 20.5625 C 16.429688 21 15.734375 21.046875 15.246094 20.664062 L 15.128906 20.5625 L 11.90625 17.339844 L 8.5625 17.339844 L 8.347656 17.347656 C 6.425781 17.464844 4.929688 19.054688 4.929688 20.976562 C 4.929688 22.902344 6.425781 24.492188 8.347656 24.609375 L 8.5625 24.617188 L 23.382812 24.617188 L 23.382812 22.152344 C 23.382812 21.105469 24.597656 20.558594 25.382812 21.191406 L 25.484375 21.285156 L 29.179688 24.976562 C 29.617188 25.414062 29.660156 26.109375 29.28125 26.601562 L 29.179688 26.714844 L 25.484375 30.410156 C 24.746094 31.152344 23.5 30.679688 23.390625 29.679688 L 23.382812 29.539062 L 23.382812 27.078125 L 8.5625 27.078125 L 8.296875 27.070312 C 5.039062 26.925781 2.472656 24.238281 2.472656 20.976562 C 2.472656 17.714844 5.039062 15.03125 8.296875 14.882812 L 8.5625 14.878906 L 11.6875 14.878906 L 15.128906 11.4375 C 15.566406 11 16.265625 10.957031 16.753906 11.335938 L 16.871094 11.4375 L 20.3125 14.878906 L 23.332031 14.878906 L 23.550781 14.871094 C 25.527344 14.753906 27.070312 13.113281 27.070312 11.132812 C 27.070312 9.148438 25.527344 7.511719 23.550781 7.390625 L 23.332031 7.382812 L 11.585938 7.382812 Z M 8.253906 10.714844 "/>
</svg>
