<svg role="img" viewBox="0 0 38.826 32" height="32" width="38.826" xmlns="http://www.w3.org/2000/svg"><defs><linearGradient gradientTransform="translate(.305 109.961)scale(.08836)" gradientUnits="userSpaceOnUse" id="173__166__60__53__fluentd-lp-1" x1="5.034" x2="430.799" y1="-964.816" y2="-964.816"><stop offset="0" stop-color="rgb(17.254902%, 61.960784%, 78.039216%)"/><stop offset=".404" stop-color="rgb(17.254902%, 38.823529%, 64.705882%)"/><stop offset="1" stop-color="rgb(22.352941%, 36.470588%, 63.137255%)"/></linearGradient><linearGradient gradientTransform="translate(.305 109.961)scale(.08836)" gradientUnits="userSpaceOnUse" id="174__167__61__54__linear-pattern-2" x1="5.027" x2="430.792" y1="-1054.146" y2="-1054.146"><stop offset="0" stop-color="rgb(30.980392%, 66.666667%, 76.862745%)"/><stop offset=".002" stop-color="rgb(18.431373%, 45.882353%, 69.411765%)"/><stop offset="1" stop-color="rgb(20.784314%, 43.137255%, 67.45098%)"/></linearGradient><linearGradient gradientTransform="translate(.305 109.961)scale(.08836)" gradientUnits="userSpaceOnUse" id="175__168__62__55__linear-pattern-3" x1="157.652" x2="433.241" y1="-1120.056" y2="-1120.056"><stop offset="0" stop-color="rgb(30.980392%, 66.666667%, 76.862745%)"/><stop offset=".002" stop-color="rgb(18.431373%, 50.588235%, 71.372549%)"/><stop offset="1" stop-color="rgb(23.137255%, 36.862745%, 66.27451%)"/></linearGradient><linearGradient gradientTransform="translate(.305 109.961)scale(.08836)" gradientUnits="userSpaceOnUse" id="176__169__63__56__linear-pattern-4" x1="157.642" x2="433.23" y1="-1014.548" y2="-1014.548"><stop offset="0" stop-color="rgb(30.980392%, 66.666667%, 76.862745%)"/><stop offset=".002" stop-color="rgb(11.764706%, 21.568627%, 45.098039%)"/><stop offset="1" stop-color="rgb(12.54902%, 20%, 43.921569%)"/></linearGradient><linearGradient gradientTransform="translate(.305 109.961)scale(.08836)" gradientUnits="userSpaceOnUse" id="177__170__64__57__linear-pattern-5" x1="336.003" x2="336.003" y1="-991.53" y2="-1142.651"><stop offset="0" stop-color="rgb(30.980392%, 66.666667%, 76.862745%)"/><stop offset=".002" stop-color="rgb(17.254902%, 35.294118%, 60.392157%)"/><stop offset="1" stop-color="rgb(21.568627%, 27.058824%, 50.196078%)"/></linearGradient><linearGradient gradientTransform="translate(.305 109.961)scale(.08836)" gradientUnits="userSpaceOnUse" id="178__171__65__58__linear-pattern-6" x1="-40.934" x2="272.681" y1="-1009.902" y2="-1009.902"><stop offset=".112" stop-color="rgb(21.960784%, 69.411765%, 85.490196%)"/><stop offset="1" stop-color="rgb(19.607843%, 43.529412%, 70.980392%)"/></linearGradient></defs><path d="M37.895 13.762h-.665c-1.21-.016-3.542.117-5.644 1.937-5.04 4.356-6.188 10.778-14.8 14.242-7.184 2.891-16.04.16-16.04.16s7.899-.55 8.942-6.574c.824-4.71-3.473-8.058-6.157-12.308C.79 6.887.094 3.293 1.411 1.734c3.737-4.418 14.03 7.52 19.148 9.13 5 1.573 8.375-2.075 12.52-1.548 1.323.168 1.968.743 2.394 1.47.14.245.504 1.077.82 1.386.312.3.727.52 1.113.75.489.293.973.84.489.84" fill="rgb(16.470588%, 34.901961%, 63.529412%)"/><path d="M14.238 6.86c-1.234-.946-2.508-1.926-3.773-2.825a41.326 41.326 0 0 0-.848-.594C6.25 1.137 3.133-.305 1.41 1.734.094 3.293.79 6.887 3.531 11.22a.618.618 0 0 0 .086.133c1.434 2.207 5.567 7.386 15.387 7.164.644-.688 1.625-1.977 2.894-3.395-2.066-3.32-5.16-6.219-7.66-8.262" fill="url(#179__172__59__52__linear-pattern-0)"/><path d="M24.129 22.477c.035-1.477-.23-2.926-.742-4.332a34.483 34.483 0 0 1-4.395.363c-1.199 1.273-3.941 4.683-8.492 7.758-6.043 4.09-9.754 3.836-9.754 3.836s8.856 2.73 16.027-.153c2.575-1.031 4.48-2.332 6.028-3.762.258-.25 1.273-1.503 1.328-3.71" fill="url(#173__166__60__53__linear-pattern-1)"/><path d="M21.89 15.121c-1.261 1.406-2.253 2.707-2.898 3.395a34.483 34.483 0 0 0 4.395-.364 14.254 14.254 0 0 0-.524-1.234 15.957 15.957 0 0 0-.972-1.797" fill="url(#174__167__61__54__linear-pattern-2)"/><path d="M29.254 9.785c-2.652.805-5.293 2.149-8.695 1.078-1.688-.531-3.934-2.183-6.32-3.992 2.5 2.04 5.6 4.93 7.66 8.262 1.874-2.094 4.374-4.41 7.355-5.348" fill="url(#175__168__62__55__linear-pattern-3)"/><path d="M23.395 18.145c.511 1.406.777 2.855.742 4.332-.055 2.199-1.07 3.46-1.328 3.71 3.625-3.351 5.25-7.425 8.777-10.48a7.477 7.477 0 0 1 1.996-1.254c-2.324.961-4.832 2.887-10.187 3.692" fill="url(#176__169__63__56__linear-pattern-4)"/><path d="M37.895 13.762c.484 0 0-.555-.497-.84-.386-.23-.793-.45-1.113-.75-.316-.309-.672-1.14-.82-1.387-.434-.734-1.078-1.3-2.395-1.469-1.328-.168-2.582.09-3.828.47-2.976.937-5.484 3.26-7.36 5.335.36.578.684 1.172.981 1.785.196.403.367.817.524 1.239 5.363-.813 7.87-2.73 10.187-3.704 1.457-.636 2.817-.687 3.656-.68Zm0 0" fill="url(#177__170__64__57__linear-pattern-5)"/><path d="M10.512 26.266c4.539-3.075 7.289-6.485 8.492-7.758-9.82.219-13.965-4.95-15.387-7.156 2.696 4.187 6.883 7.52 6.082 12.175C8.645 29.551.746 30.102.746 30.102s3.711.253 9.766-3.836" fill="url(#178__171__65__58__linear-pattern-6)"/><path d="M32.805 10.785a.78.78 0 0 0-.785.777c0 .43.351.778.785.778a.764.764 0 0 0 .718-.48.768.768 0 0 0-.164-.848.797.797 0 0 0-.554-.227" fill="rgb(100%, 100%, 100%)"/></svg>