<svg role="img" viewBox="0 0 32 32" height="32" width="32" xmlns="http://www.w3.org/2000/svg"><path d="M5.527 2.559A1.69 1.69 0 0 0 3.84 4.246V7h24.32v-.66c0-.89-.723-1.887-1.687-1.887l-14.09.008c-.13-.055-.395-.438-.555-.668-.398-.578-.851-1.234-1.59-1.234ZM4.48 8.28a.639.639 0 0 0-.64.64v12.43c0 .934.754 1.688 1.687 1.688h9.832v1.922h1.282v-1.922h9.832c.933 0 1.687-.754 1.687-1.687V8.922a.639.639 0 0 0-.64-.64Zm10.88 17.957a.644.644 0 0 0-.641.64v1.282c0 .356.289.64.64.64h1.282a.64.64 0 0 0 .64-.64V26.88a.643.643 0 0 0-.64-.64Zm-8 .64a.641.641 0 0 0 0 1.281l6.081.001V26.88Zm11.199 0v1.282h6.082a.641.641 0 0 0 0-1.281Zm0 0"/></svg>