<?xml version="1.0" encoding="UTF-8"?>
<svg xmlns="http://www.w3.org/2000/svg" xmlns:xlink="http://www.w3.org/1999/xlink" width="32" height="32" viewBox="0 0 32 32">
<path fill-rule="evenodd" fill="rgb(0%, 0%, 0%)" fill-opacity="1" d="M 8.5 5 C 8.027344 5 7.574219 5.199219 7.253906 5.550781 C 6.9375 5.902344 6.78125 6.371094 6.824219 6.84375 L 7.226562 11.035156 C 7.433594 13.214844 6.136719 15.253906 4.078125 16 C 6.136719 16.746094 7.429688 18.789062 7.222656 20.964844 L 6.820312 25.15625 C 6.777344 25.628906 6.933594 26.101562 7.25 26.449219 C 7.570312 26.800781 8.023438 27 8.496094 27 C 9.328125 27 9.996094 27.671875 9.996094 28.5 C 9.996094 29.328125 9.328125 30 8.496094 30 C 7.179688 30 5.921875 29.445312 5.035156 28.46875 C 4.148438 27.492188 3.710938 26.1875 3.839844 24.875 L 4.234375 20.683594 C 4.320312 19.796875 3.742188 18.984375 2.882812 18.769531 L 2.605469 18.699219 C 1.363281 18.390625 0.496094 17.277344 0.496094 16 C 0.496094 14.722656 1.363281 13.609375 2.605469 13.300781 L 2.882812 13.230469 C 3.746094 13.015625 4.320312 12.203125 4.234375 11.316406 L 3.835938 7.125 C 3.710938 5.8125 4.144531 4.507812 5.03125 3.53125 C 5.921875 2.554688 7.179688 2 8.5 2 C 9.328125 2 10 2.671875 10 3.5 C 10 4.328125 9.328125 5 8.5 5 M 18.109375 10.277344 C 18.160156 9.820312 18.40625 9.40625 18.789062 9.148438 C 19.167969 8.890625 19.644531 8.816406 20.089844 8.941406 C 20.605469 9.101562 21.171875 8.96875 21.566406 8.59375 C 21.957031 8.21875 22.117188 7.660156 21.980469 7.132812 C 21.847656 6.609375 21.4375 6.195312 20.910156 6.058594 C 19.617188 5.6875 18.226562 5.910156 17.109375 6.664062 C 15.996094 7.417969 15.269531 8.625 15.128906 9.964844 L 14.910156 12 L 13 12 C 12.171875 12 11.5 12.671875 11.5 13.5 C 11.5 14.328125 12.171875 15 13 15 L 14.597656 15 L 13.890625 21.722656 C 13.839844 22.179688 13.59375 22.59375 13.210938 22.851562 C 12.832031 23.109375 12.355469 23.183594 11.910156 23.058594 C 11.394531 22.898438 10.828125 23.03125 10.433594 23.40625 C 10.042969 23.78125 9.882812 24.339844 10.019531 24.867188 C 10.152344 25.390625 10.5625 25.804688 11.089844 25.941406 C 12.382812 26.3125 13.773438 26.089844 14.890625 25.335938 C 16.003906 24.582031 16.730469 23.375 16.871094 22.035156 L 17.613281 15 L 19.5 15 C 20.328125 15 21 14.328125 21 13.5 C 21 12.671875 20.328125 12 19.5 12 L 17.929688 12 Z M 25.175781 25.15625 C 25.222656 25.628906 25.066406 26.101562 24.746094 26.449219 C 24.425781 26.800781 23.972656 27 23.5 27 C 22.671875 27 22 27.671875 22 28.5 C 22 29.328125 22.671875 30 23.5 30 C 24.820312 30 26.078125 29.445312 26.964844 28.46875 C 27.851562 27.492188 28.285156 26.1875 28.160156 24.875 L 27.761719 20.683594 C 27.679688 19.796875 28.253906 18.984375 29.117188 18.769531 L 29.394531 18.699219 C 30.632812 18.390625 31.503906 17.277344 31.503906 16 C 31.503906 14.722656 30.632812 13.609375 29.394531 13.300781 L 29.113281 13.230469 C 28.253906 13.015625 27.679688 12.203125 27.761719 11.316406 L 28.160156 7.125 C 28.289062 5.8125 27.851562 4.507812 26.964844 3.53125 C 26.078125 2.554688 24.820312 2 23.5 2 C 22.671875 2 22 2.671875 22 3.5 C 22 4.328125 22.671875 5 23.5 5 C 24.492188 5 25.269531 5.855469 25.175781 6.84375 L 24.777344 11.035156 C 24.570312 13.210938 25.863281 15.253906 27.917969 16 C 25.863281 16.746094 24.570312 18.789062 24.777344 20.964844 Z M 25.175781 25.15625 "/>
</svg>
