<?xml version="1.0" encoding="UTF-8"?>
<svg xmlns="http://www.w3.org/2000/svg" xmlns:xlink="http://www.w3.org/1999/xlink" width="32" height="32" viewBox="0 0 32 32">
<path fill-rule="nonzero" fill="rgb(25.882353%, 52.156863%, 95.686275%)" fill-opacity="1" d="M 20.441406 2.667969 L 20.441406 5.839844 L 17.558594 5.839844 L 17.558594 2.667969 L 14.441406 2.667969 L 14.441406 5.839844 L 11.558594 5.839844 L 11.558594 2.667969 L 8.386719 2.667969 L 8.386719 5.839844 C 7.007812 5.902344 5.902344 7.007812 5.839844 8.386719 L 2.667969 8.386719 L 2.667969 11.558594 L 5.839844 11.558594 L 5.839844 14.414062 L 2.667969 14.414062 L 2.667969 17.585938 L 5.839844 17.585938 L 5.839844 20.441406 L 2.667969 20.441406 L 2.667969 23.613281 L 5.839844 23.613281 C 5.902344 24.992188 7.007812 26.097656 8.386719 26.160156 L 8.386719 29.332031 L 11.558594 29.332031 L 11.558594 26.160156 L 14.441406 26.160156 L 14.441406 29.332031 L 17.558594 29.332031 L 17.558594 26.160156 L 20.441406 26.160156 L 20.441406 29.332031 L 23.613281 29.332031 L 23.613281 26.160156 C 24.992188 26.097656 26.097656 24.992188 26.160156 23.613281 L 29.332031 23.613281 L 29.332031 20.441406 L 26.160156 20.441406 L 26.160156 17.585938 L 29.332031 17.585938 L 29.332031 14.414062 L 26.160156 14.414062 L 26.160156 11.558594 L 29.332031 11.558594 L 29.332031 8.386719 L 26.160156 8.386719 C 26.097656 7.007812 24.992188 5.902344 23.613281 5.839844 L 23.613281 2.667969 Z M 22.480469 22.988281 L 9.519531 22.988281 C 9.238281 22.988281 9.011719 22.761719 9.011719 22.480469 L 9.011719 9.519531 C 9.011719 9.238281 9.238281 9.011719 9.519531 9.011719 L 22.480469 9.011719 C 22.761719 9.011719 22.988281 9.238281 22.988281 9.519531 L 22.988281 22.480469 C 22.988281 22.761719 22.761719 22.988281 22.480469 22.988281 Z M 22.480469 22.988281 "/>
<path fill-rule="nonzero" fill="rgb(25.882353%, 52.156863%, 95.686275%)" fill-opacity="1" d="M 17.105469 10.054688 L 17.105469 14.828125 L 19.71875 14.828125 L 15.054688 21.308594 L 15.054688 16.464844 L 12.292969 16.464844 Z M 17.105469 10.054688 "/>
</svg>
