<?xml version="1.0" encoding="UTF-8"?>
<svg xmlns="http://www.w3.org/2000/svg" xmlns:xlink="http://www.w3.org/1999/xlink" width="32" height="32" viewBox="0 0 32 32">
<path fill="none" stroke-width="2" stroke-linecap="butt" stroke-linejoin="miter" stroke="rgb(34.117647%, 60.784314%, 98.431373%)" stroke-opacity="1" stroke-miterlimit="10" d="M 13.529297 2.270508 L 13.529297 4.628906 " transform="matrix(1.333333, 0, 0, 1.333333, 0, 0)"/>
<path fill="none" stroke-width="2" stroke-linecap="butt" stroke-linejoin="miter" stroke="rgb(34.117647%, 60.784314%, 98.431373%)" stroke-opacity="1" stroke-miterlimit="10" d="M 7.719727 4.678711 L 9.389648 6.339844 " transform="matrix(1.333333, 0, 0, 1.333333, 0, 0)"/>
<path fill="none" stroke-width="2" stroke-linecap="butt" stroke-linejoin="miter" stroke="rgb(34.117647%, 60.784314%, 98.431373%)" stroke-opacity="1" stroke-miterlimit="10" d="M 5.320312 10.491211 L 7.669922 10.491211 " transform="matrix(1.333333, 0, 0, 1.333333, 0, 0)"/>
<path fill="none" stroke-width="2" stroke-linecap="butt" stroke-linejoin="miter" stroke="rgb(34.117647%, 60.784314%, 98.431373%)" stroke-opacity="1" stroke-miterlimit="10" d="M 13.529297 18.708984 L 13.529297 16.359375 " transform="matrix(1.333333, 0, 0, 1.333333, 0, 0)"/>
<path fill="none" stroke-width="2" stroke-linecap="butt" stroke-linejoin="miter" stroke="rgb(34.117647%, 60.784314%, 98.431373%)" stroke-opacity="1" stroke-miterlimit="10" d="M 19.350586 16.300781 L 17.680664 14.639648 " transform="matrix(1.333333, 0, 0, 1.333333, 0, 0)"/>
<path fill="none" stroke-width="2" stroke-linecap="butt" stroke-linejoin="miter" stroke="rgb(34.117647%, 60.784314%, 98.431373%)" stroke-opacity="1" stroke-miterlimit="10" d="M 21.75 10.491211 L 19.400391 10.491211 " transform="matrix(1.333333, 0, 0, 1.333333, 0, 0)"/>
<path fill="none" stroke-width="2" stroke-linecap="butt" stroke-linejoin="miter" stroke="rgb(34.117647%, 60.784314%, 98.431373%)" stroke-opacity="1" stroke-miterlimit="10" d="M 19.350586 4.678711 L 17.680664 6.339844 " transform="matrix(1.333333, 0, 0, 1.333333, 0, 0)"/>
<path fill="none" stroke-width="2" stroke-linecap="butt" stroke-linejoin="miter" stroke="rgb(34.117647%, 60.784314%, 98.431373%)" stroke-opacity="1" stroke-miterlimit="10" d="M 6.990234 17.200195 L 8.53125 18.741211 " transform="matrix(1.333333, 0, 0, 1.333333, 0, 0)"/>
<path fill="none" stroke-width="2" stroke-linecap="butt" stroke-linejoin="miter" stroke="rgb(67.058824%, 78.823529%, 97.254902%)" stroke-opacity="1" stroke-miterlimit="10" d="M 9.600586 13.810547 L 4.21875 19.189453 L 6.149414 21.120117 " transform="matrix(1.333333, 0, 0, 1.333333, 0, 0)"/>
<path fill="none" stroke-width="2" stroke-linecap="butt" stroke-linejoin="miter" stroke="rgb(34.117647%, 60.784314%, 98.431373%)" stroke-opacity="1" stroke-miterlimit="10" d="M 17.639648 14.598633 C 15.37207 16.87207 11.692383 16.875 9.421875 14.604492 C 7.151367 12.333984 7.151367 8.654297 9.421875 6.386719 C 11.692383 4.116211 15.37207 4.119141 17.639648 6.389648 C 18.729492 7.476562 19.341797 8.956055 19.341797 10.494141 C 19.341797 12.035156 18.729492 13.511719 17.639648 14.598633 Z M 17.639648 14.598633 " transform="matrix(1.333333, 0, 0, 1.333333, 0, 0)"/>
<path fill="none" stroke-width="1" stroke-linecap="butt" stroke-linejoin="miter" stroke="rgb(25.882353%, 51.372549%, 94.901961%)" stroke-opacity="1" stroke-miterlimit="10" d="M 10.678711 10.678711 L 12.451172 12.518555 L 16.388672 8.460938 " transform="matrix(1.333333, 0, 0, 1.333333, 0, 0)"/>
</svg>
