<?xml version="1.0" encoding="UTF-8"?>
<svg xmlns="http://www.w3.org/2000/svg" xmlns:xlink="http://www.w3.org/1999/xlink" width="32" height="32" viewBox="0 0 32 32">
<path fill-rule="nonzero" fill="rgb(68.235294%, 79.607843%, 98.039216%)" fill-opacity="1" d="M 13.011719 27.464844 L 11.625 26.066406 L 18.894531 18.761719 L 20.28125 20.160156 Z M 13.011719 27.464844 "/>
<path fill-rule="nonzero" fill="rgb(68.235294%, 79.607843%, 98.039216%)" fill-opacity="1" d="M 9.375 24.425781 L 7.988281 23.027344 L 17.785156 13.171875 L 19.171875 14.574219 Z M 9.375 24.425781 "/>
<path fill-rule="nonzero" fill="rgb(68.235294%, 79.607843%, 98.039216%)" fill-opacity="1" d="M 7.121094 19.972656 L 5.734375 18.574219 L 12.238281 12.039062 L 13.625 13.441406 Z M 7.121094 19.972656 "/>
<path fill-rule="nonzero" fill="rgb(40%, 61.568627%, 96.470588%)" fill-opacity="1" d="M 16 4.8125 L 25.039062 8.8125 L 25.039062 14.878906 C 25.078125 20.554688 21.410156 25.59375 16 27.308594 C 10.589844 25.597656 6.925781 20.566406 6.960938 14.894531 L 6.960938 8.839844 L 16 4.839844 M 16 2.667969 L 5 7.574219 L 5 14.894531 C 4.945312 21.585938 9.363281 27.492188 15.800781 29.332031 L 16.199219 29.332031 C 22.613281 27.5 27.023438 21.628906 27 14.960938 L 27 7.574219 Z M 16 2.667969 "/>
<path fill-rule="nonzero" fill="rgb(40%, 61.568627%, 96.470588%)" fill-opacity="1" d="M 21.480469 19.492188 C 21.480469 20.539062 20.632812 21.386719 19.585938 21.386719 C 18.539062 21.386719 17.691406 20.539062 17.691406 19.492188 C 17.691406 18.449219 18.539062 17.601562 19.585938 17.601562 C 20.632812 17.601562 21.480469 18.449219 21.480469 19.492188 Z M 21.480469 19.492188 "/>
<path fill-rule="nonzero" fill="rgb(40%, 61.568627%, 96.470588%)" fill-opacity="1" d="M 20.359375 13.933594 C 20.359375 14.980469 19.511719 15.828125 18.464844 15.828125 C 17.421875 15.828125 16.574219 14.980469 16.574219 13.933594 C 16.574219 12.886719 17.421875 12.039062 18.464844 12.039062 C 19.511719 12.039062 20.359375 12.886719 20.359375 13.933594 Z M 20.359375 13.933594 "/>
<path fill-rule="nonzero" fill="rgb(40%, 61.568627%, 96.470588%)" fill-opacity="1" d="M 14.8125 12.800781 C 14.8125 13.84375 13.964844 14.691406 12.921875 14.691406 C 11.875 14.691406 11.027344 13.84375 11.027344 12.800781 C 11.027344 11.753906 11.875 10.90625 12.921875 10.90625 C 13.964844 10.90625 14.8125 11.753906 14.8125 12.800781 Z M 14.8125 12.800781 "/>
</svg>
