<?xml version="1.0" encoding="UTF-8"?>
<svg xmlns="http://www.w3.org/2000/svg" xmlns:xlink="http://www.w3.org/1999/xlink" width="32" height="32" viewBox="0 0 32 32">
<path fill-rule="nonzero" fill="rgb(10.196078%, 45.098039%, 90.980392%)" fill-opacity="1" d="M 19.28125 0.523438 C 14.988281 -0.84375 10.296875 0.519531 7.402344 3.96875 L 12.664062 8.390625 Z M 19.28125 0.523438 "/>
<path fill-rule="nonzero" fill="rgb(91.764706%, 26.27451%, 20.784314%)" fill-opacity="1" d="M 7.402344 3.96875 C 5.722656 5.96875 4.804688 8.5 4.808594 11.109375 C 4.78125 12.9375 5.15625 14.746094 5.90625 16.410156 L 12.664062 8.390625 Z M 7.402344 3.96875 "/>
<path fill-rule="nonzero" fill="rgb(25.882353%, 52.156863%, 95.686275%)" fill-opacity="1" d="M 15.917969 6.867188 C 17.042969 6.863281 18.128906 7.308594 18.925781 8.105469 C 19.726562 8.902344 20.175781 9.980469 20.175781 11.109375 C 20.175781 12.117188 19.816406 13.09375 19.15625 13.855469 L 25.777344 5.988281 C 24.421875 3.371094 22.085938 1.394531 19.28125 0.496094 L 12.664062 8.390625 C 13.464844 7.421875 14.660156 6.863281 15.917969 6.867188 Z M 15.917969 6.867188 "/>
<path fill-rule="nonzero" fill="rgb(98.431373%, 73.72549%, 1.568627%)" fill-opacity="1" d="M 15.917969 15.367188 C 13.566406 15.367188 11.660156 13.460938 11.660156 11.109375 C 11.65625 10.105469 12.011719 9.128906 12.664062 8.363281 L 5.90625 16.410156 C 7.3125 18.996094 9 21.414062 10.945312 23.621094 L 19.183594 13.855469 C 18.375 14.824219 17.175781 15.378906 15.917969 15.367188 Z M 15.917969 15.367188 "/>
<path fill-rule="nonzero" fill="rgb(20.392157%, 65.882353%, 32.54902%)" fill-opacity="1" d="M 19.007812 26.285156 C 22.714844 20.488281 27.027344 17.851562 27.027344 11.179688 C 27.027344 9.394531 26.597656 7.640625 25.777344 6.054688 L 10.945312 23.621094 C 11.578125 24.445312 12.207031 25.324219 12.828125 26.285156 C 15.09375 29.773438 14.460938 31.863281 15.917969 31.863281 C 17.371094 31.863281 16.742188 29.773438 19.007812 26.285156 Z M 19.007812 26.285156 "/>
</svg>
