<?xml version="1.0" encoding="UTF-8"?>
<svg xmlns="http://www.w3.org/2000/svg" xmlns:xlink="http://www.w3.org/1999/xlink" width="32" height="32" viewBox="0 0 32 32">
<path fill="none" stroke-width="2" stroke-linecap="butt" stroke-linejoin="miter" stroke="rgb(25.882353%, 52.156863%, 95.686275%)" stroke-opacity="1" stroke-miterlimit="4" d="M 1 8.999023 L 1 19.000977 C 1 20.105469 1.896484 20.999023 3.000977 20.999023 L 10.999023 20.999023 C 12.103516 20.999023 13 20.105469 13 19.000977 L 13 8.999023 Z M 1 8.999023 " transform="matrix(1.333333, 0, 0, 1.333333, 6.666667, 1.333333)"/>
<path fill-rule="evenodd" fill="rgb(25.882353%, 52.156863%, 95.686275%)" fill-opacity="1" d="M 14.667969 16 L 17.332031 16 L 17.332031 26.667969 L 14.667969 26.667969 Z M 14.667969 16 "/>
<path fill-rule="evenodd" fill="rgb(25.882353%, 52.156863%, 95.686275%)" fill-opacity="1" d="M 10.667969 20 L 21.332031 20 L 21.332031 22.667969 L 10.667969 22.667969 Z M 10.667969 20 "/>
<path fill-rule="evenodd" fill="rgb(25.882353%, 52.156863%, 95.686275%)" fill-opacity="1" d="M 6.667969 1.332031 L 25.332031 1.332031 L 25.332031 4 L 6.667969 4 Z M 6.667969 1.332031 "/>
<path fill-rule="evenodd" fill="rgb(25.882353%, 52.156863%, 95.686275%)" fill-opacity="1" d="M 6.667969 6.667969 L 25.332031 6.667969 L 25.332031 9.332031 L 6.667969 9.332031 Z M 6.667969 6.667969 "/>
</svg>
