<?xml version="1.0" encoding="UTF-8"?>
<svg xmlns="http://www.w3.org/2000/svg" xmlns:xlink="http://www.w3.org/1999/xlink" width="32" height="32" viewBox="0 0 32 32">
<path fill-rule="evenodd" fill="rgb(36.078431%, 52.156863%, 87.058824%)" fill-opacity="1" d="M 18.132812 5.601562 L 13.867188 5.601562 L 4 14.667969 L 4 30.933594 L 12 30.933594 L 12 20 L 20 20 L 20 30.933594 L 28 30.933594 L 28 14.667969 Z M 18.132812 5.601562 "/>
<path fill-rule="evenodd" fill="rgb(52.156863%, 64.313725%, 90.196078%)" fill-opacity="1" d="M 16 5.601562 L 13.867188 5.601562 L 4 14.667969 L 4 30.933594 L 12 30.933594 L 12 20 L 16 20 Z M 16 5.601562 "/>
<path fill-rule="evenodd" fill="rgb(20%, 40.392157%, 83.921569%)" fill-opacity="1" d="M 17.464844 6.265625 L 4 21.066406 L 4 16 L 16.667969 4.800781 Z M 17.464844 6.265625 "/>
<path fill-rule="evenodd" fill="rgb(52.156863%, 64.313725%, 90.196078%)" fill-opacity="1" d="M 16 1.199219 L 0 17.199219 L 2.398438 19.601562 L 16 6 L 29.601562 19.601562 L 32 17.199219 Z M 16 1.199219 "/>
</svg>
