<?xml version="1.0" encoding="UTF-8"?>
<svg xmlns="http://www.w3.org/2000/svg" xmlns:xlink="http://www.w3.org/1999/xlink" width="32" height="32" viewBox="0 0 32 32">
<path fill-rule="nonzero" fill="rgb(25.882353%, 52.156863%, 95.686275%)" fill-opacity="1" d="M 27.84375 14.058594 C 27.972656 14.863281 28.007812 15.679688 27.953125 16.492188 C 27.640625 21.167969 24.429688 25.335938 19.742188 26.949219 C 18.414062 27.40625 17.042969 27.632812 15.683594 27.636719 L 15.414062 29.1875 C 15.417969 29.234375 15.394531 29.28125 15.355469 29.308594 C 15.3125 29.335938 15.261719 29.339844 15.214844 29.320312 L 13.082031 27.359375 L 12.859375 27.308594 L 12.890625 27.183594 L 11.71875 26.105469 C 11.683594 26.070312 11.664062 26.023438 11.671875 25.976562 C 11.679688 25.929688 11.714844 25.890625 11.757812 25.871094 L 16.042969 23.964844 C 16.101562 23.910156 16.191406 23.910156 16.253906 23.957031 C 16.316406 24.007812 16.332031 24.09375 16.289062 24.15625 L 16.019531 25.707031 C 17.058594 25.675781 18.101562 25.488281 19.117188 25.136719 C 23.023438 23.792969 25.703125 20.320312 25.960938 16.425781 C 25.996094 15.882812 25.984375 15.339844 25.925781 14.800781 L 25.871094 14.398438 Z M 5.550781 20.472656 C 6.839844 19.472656 8.734375 19.664062 9.777344 20.898438 C 10.824219 22.128906 10.625 23.9375 9.335938 24.9375 C 8.042969 25.9375 6.148438 25.746094 5.105469 24.511719 C 4.058594 23.28125 4.257812 21.46875 5.550781 20.472656 Z M 18.433594 14.316406 C 19.367188 15.597656 19.03125 17.429688 17.6875 18.40625 C 16.34375 19.382812 14.5 19.132812 13.566406 17.851562 C 12.636719 16.566406 12.96875 14.734375 14.3125 13.757812 C 15.65625 12.78125 17.5 13.03125 18.433594 14.316406 Z M 16.933594 2.679688 L 20.429688 5.894531 C 20.46875 5.929688 20.484375 5.976562 20.476562 6.023438 C 20.46875 6.070312 20.4375 6.109375 20.390625 6.128906 L 16.105469 8.035156 C 16.050781 8.089844 15.960938 8.089844 15.894531 8.042969 C 15.832031 7.992188 15.816406 7.90625 15.859375 7.84375 L 16.101562 6.457031 C 15.023438 6.476562 13.9375 6.664062 12.882812 7.027344 C 8.339844 8.589844 5.53125 12.996094 6.089844 17.484375 L 6.125 17.746094 L 4.152344 18.082031 C 3.304688 12.585938 6.703125 7.128906 12.257812 5.21875 C 13.625 4.746094 15.035156 4.519531 16.433594 4.53125 L 16.734375 2.8125 C 16.730469 2.765625 16.753906 2.71875 16.796875 2.691406 C 16.835938 2.664062 16.890625 2.660156 16.933594 2.679688 Z M 14.875 14.53125 C 13.980469 15.183594 13.757812 16.40625 14.378906 17.261719 C 15 18.117188 16.230469 18.28125 17.125 17.632812 C 18.023438 16.980469 18.242188 15.761719 17.621094 14.902344 C 17 14.046875 15.769531 13.882812 14.875 14.53125 Z M 22.597656 7.625 C 23.851562 6.582031 25.753906 6.710938 26.84375 7.90625 C 27.929688 9.105469 27.796875 10.921875 26.546875 11.960938 C 25.292969 13 23.390625 12.875 22.300781 11.675781 C 21.210938 10.480469 21.34375 8.664062 22.597656 7.625 Z M 22.597656 7.625 "/>
</svg>
