<?xml version="1.0" encoding="UTF-8"?>
<svg xmlns="http://www.w3.org/2000/svg" xmlns:xlink="http://www.w3.org/1999/xlink" width="32" height="32" viewBox="0 0 32 32">
<path fill-rule="evenodd" fill="rgb(25.882353%, 52.156863%, 95.686275%)" fill-opacity="1" d="M 15.984375 9.597656 C 15.253906 9.597656 14.546875 9.722656 13.894531 9.953125 L 15.007812 11.253906 C 15.324219 11.1875 15.648438 11.152344 15.984375 11.152344 C 18.644531 11.152344 20.808594 13.3125 20.808594 15.972656 C 20.808594 18.628906 18.644531 20.789062 15.984375 20.789062 C 13.324219 20.789062 11.160156 18.628906 11.160156 15.972656 C 11.160156 15.378906 11.269531 14.8125 11.464844 14.289062 L 10.351562 12.988281 C 9.875 13.878906 9.605469 14.894531 9.605469 15.972656 C 9.605469 19.484375 12.464844 22.34375 15.984375 22.34375 C 19.503906 22.34375 22.363281 19.484375 22.363281 15.972656 C 22.363281 12.457031 19.503906 9.597656 15.984375 9.597656 Z M 15.984375 9.597656 "/>
<path fill-rule="evenodd" fill="rgb(25.882353%, 52.156863%, 95.686275%)" fill-opacity="1" d="M 27.96875 10.367188 C 27.96875 9.167969 26.992188 8.191406 25.789062 8.191406 C 25.574219 8.191406 25.363281 8.226562 25.167969 8.285156 C 22.964844 5.667969 19.667969 4 15.984375 4 C 14.257812 4 12.617188 4.367188 11.132812 5.027344 C 11.25 5.390625 11.316406 5.773438 11.316406 6.175781 C 11.316406 6.34375 11.300781 6.511719 11.28125 6.675781 C 12.695312 5.960938 14.292969 5.554688 15.984375 5.554688 C 19.167969 5.554688 22.019531 6.984375 23.933594 9.234375 C 23.730469 9.5625 23.609375 9.953125 23.609375 10.367188 C 23.609375 11.566406 24.589844 12.542969 25.789062 12.542969 C 25.804688 12.542969 25.816406 12.539062 25.832031 12.539062 C 26.207031 13.609375 26.414062 14.761719 26.414062 15.957031 C 26.414062 20.59375 23.359375 24.527344 19.152344 25.871094 C 18.753906 25.324219 18.113281 24.964844 17.386719 24.964844 C 16.464844 24.964844 15.679688 25.535156 15.359375 26.339844 C 9.898438 26.019531 5.554688 21.484375 5.554688 15.957031 C 5.554688 13.699219 6.285156 11.605469 7.515625 9.898438 C 6.9375 9.890625 6.390625 9.746094 5.902344 9.503906 C 4.699219 11.367188 4 13.582031 4 15.957031 C 4 22.335938 9.035156 27.566406 15.347656 27.898438 C 15.65625 28.722656 16.453125 29.3125 17.386719 29.3125 C 18.507812 29.3125 19.433594 28.460938 19.550781 27.375 C 24.421875 25.855469 27.96875 21.3125 27.96875 15.957031 C 27.96875 14.554688 27.722656 13.207031 27.273438 11.953125 C 27.699219 11.554688 27.96875 10.992188 27.96875 10.367188 Z M 27.96875 10.367188 "/>
<path fill-rule="evenodd" fill="rgb(25.882353%, 52.156863%, 95.686275%)" fill-opacity="1" d="M 16.011719 16.5625 C 15.667969 16.5625 15.390625 16.285156 15.390625 15.945312 C 15.390625 15.601562 15.667969 15.324219 16.011719 15.324219 C 16.355469 15.324219 16.632812 15.601562 16.632812 15.945312 C 16.632812 16.285156 16.355469 16.5625 16.011719 16.5625 Z M 6.988281 6.171875 C 6.988281 5.828125 7.265625 5.550781 7.609375 5.550781 C 7.953125 5.550781 8.230469 5.828125 8.230469 6.171875 C 8.230469 6.515625 7.953125 6.792969 7.609375 6.792969 C 7.265625 6.792969 6.988281 6.515625 6.988281 6.171875 Z M 16.011719 13.773438 C 15.753906 13.773438 15.507812 13.820312 15.28125 13.902344 L 9.523438 7.207031 C 9.691406 6.898438 9.789062 6.546875 9.789062 6.171875 C 9.789062 4.972656 8.8125 4 7.609375 4 C 6.40625 4 5.429688 4.972656 5.429688 6.171875 C 5.429688 7.367188 6.40625 8.34375 7.609375 8.34375 C 7.867188 8.34375 8.113281 8.296875 8.339844 8.214844 L 14.097656 14.910156 C 13.929688 15.214844 13.832031 15.570312 13.832031 15.945312 C 13.832031 17.140625 14.8125 18.117188 16.011719 18.117188 C 17.214844 18.117188 18.191406 17.140625 18.191406 15.945312 C 18.191406 14.746094 17.214844 13.773438 16.011719 13.773438 Z M 16.011719 13.773438 "/>
</svg>
