<?xml version="1.0" encoding="UTF-8"?>
<svg xmlns="http://www.w3.org/2000/svg" xmlns:xlink="http://www.w3.org/1999/xlink" width="32" height="32" viewBox="0 0 32 32">
<path fill-rule="nonzero" fill="rgb(25.882353%, 52.156863%, 95.686275%)" fill-opacity="1" d="M 4.625 20.90625 C 2.875 19.375 2.214844 16.941406 2.960938 14.738281 C 3.707031 12.535156 5.707031 10.996094 8.027344 10.84375 C 10.347656 10.691406 12.535156 11.953125 13.5625 14.039062 C 14.589844 16.125 14.257812 18.625 12.71875 20.375 C 12.558594 20.5625 12.386719 20.742188 12.199219 20.90625 C 10.03125 22.800781 6.796875 22.800781 4.625 20.90625 Z M 11.558594 13.972656 C 10.113281 12.238281 7.535156 12.003906 5.796875 13.445312 C 4.0625 14.890625 3.824219 17.46875 5.265625 19.207031 C 6.707031 20.945312 9.285156 21.1875 11.027344 19.746094 C 11.222656 19.585938 11.398438 19.40625 11.558594 19.214844 C 12.824219 17.695312 12.824219 15.492188 11.558594 13.972656 Z M 11.558594 13.972656 "/>
<path fill-rule="nonzero" fill="rgb(25.882353%, 52.156863%, 95.686275%)" fill-opacity="1" d="M 19.8125 20.90625 C 18.0625 19.375 17.402344 16.941406 18.148438 14.738281 C 18.894531 12.535156 20.894531 10.996094 23.214844 10.84375 C 25.535156 10.691406 27.71875 11.953125 28.746094 14.039062 C 29.777344 16.125 29.445312 18.625 27.90625 20.375 C 27.742188 20.5625 27.5625 20.742188 27.375 20.90625 C 25.207031 22.796875 21.980469 22.796875 19.8125 20.90625 Z M 26.746094 13.972656 C 25.300781 12.238281 22.722656 12.003906 20.984375 13.445312 C 19.25 14.890625 19.011719 17.46875 20.453125 19.207031 C 21.894531 20.945312 24.472656 21.1875 26.214844 19.746094 C 26.40625 19.585938 26.585938 19.40625 26.746094 19.214844 C 28.003906 17.695312 28.003906 15.492188 26.746094 13.972656 Z M 26.746094 13.972656 "/>
<path fill-rule="nonzero" fill="rgb(40%, 61.568627%, 96.470588%)" fill-opacity="1" d="M 10.667969 16.585938 C 10.667969 17.832031 9.65625 18.839844 8.414062 18.839844 C 7.167969 18.839844 6.160156 17.832031 6.160156 16.585938 C 6.160156 15.34375 7.167969 14.332031 8.414062 14.332031 C 9.65625 14.332031 10.667969 15.34375 10.667969 16.585938 Z M 10.667969 16.585938 "/>
<path fill-rule="nonzero" fill="rgb(40%, 61.568627%, 96.470588%)" fill-opacity="1" d="M 25.839844 16.585938 C 25.839844 17.832031 24.832031 18.839844 23.585938 18.839844 C 22.34375 18.839844 21.332031 17.832031 21.332031 16.585938 C 21.332031 15.34375 22.34375 14.332031 23.585938 14.332031 C 24.832031 14.332031 25.839844 15.34375 25.839844 16.585938 Z M 25.839844 16.585938 "/>
<path fill-rule="nonzero" fill="rgb(68.235294%, 79.607843%, 98.039216%)" fill-opacity="1" d="M 19.1875 10.414062 C 19.332031 10.308594 19.390625 10.121094 19.335938 9.953125 C 19.28125 9.785156 19.125 9.667969 18.945312 9.667969 L 13.054688 9.667969 C 12.875 9.667969 12.71875 9.785156 12.664062 9.953125 C 12.609375 10.121094 12.667969 10.308594 12.8125 10.414062 C 14.15625 11.371094 15.152344 12.738281 15.652344 14.308594 C 15.726562 14.496094 15.941406 14.59375 16.132812 14.519531 C 16.238281 14.480469 16.320312 14.398438 16.359375 14.292969 C 16.855469 12.726562 17.847656 11.363281 19.1875 10.414062 Z M 19.1875 10.414062 "/>
</svg>
