<?xml version="1.0" encoding="UTF-8"?>
<svg xmlns="http://www.w3.org/2000/svg" xmlns:xlink="http://www.w3.org/1999/xlink" width="32" height="32" viewBox="0 0 32 32">
<path fill-rule="evenodd" fill="rgb(40%, 61.568627%, 96.470588%)" fill-opacity="1" d="M 6.585938 18.265625 L 15.375 26.960938 L 16.828125 25.425781 L 8.398438 17.238281 Z M 6.585938 18.265625 "/>
<path fill-rule="evenodd" fill="rgb(40%, 61.568627%, 96.470588%)" fill-opacity="1" d="M 16.761719 5.414062 L 15.308594 6.960938 L 23.585938 15.253906 L 25.960938 14.746094 Z M 16.761719 5.414062 "/>
<path fill-rule="nonzero" fill="rgb(25.882353%, 52.156863%, 95.686275%)" fill-opacity="1" d="M 15.171875 6.839844 L 16.839844 6.839844 L 16.839844 13.507812 L 15.171875 13.507812 Z M 15.171875 6.839844 "/>
<path fill-rule="nonzero" fill="rgb(25.882353%, 52.156863%, 95.686275%)" fill-opacity="1" d="M 15.171875 19.332031 L 16.839844 19.332031 L 16.839844 26 L 15.171875 26 Z M 15.171875 19.332031 "/>
<path fill-rule="nonzero" fill="rgb(68.235294%, 79.607843%, 98.039216%)" fill-opacity="1" d="M 18.507812 6 C 18.507812 7.382812 17.382812 8.507812 16 8.507812 C 14.617188 8.507812 13.492188 7.382812 13.492188 6 C 13.492188 4.617188 14.617188 3.492188 16 3.492188 C 17.382812 3.492188 18.507812 4.617188 18.507812 6 Z M 18.507812 6 "/>
<path fill-rule="nonzero" fill="rgb(68.235294%, 79.607843%, 98.039216%)" fill-opacity="1" d="M 18.507812 26 C 18.507812 27.382812 17.382812 28.507812 16 28.507812 C 14.617188 28.507812 13.492188 27.382812 13.492188 26 C 13.492188 24.617188 14.617188 23.492188 16 23.492188 C 17.382812 23.492188 18.507812 24.617188 18.507812 26 Z M 18.507812 26 "/>
<path fill-rule="evenodd" fill="rgb(40%, 61.568627%, 96.470588%)" fill-opacity="1" d="M 3.546875 15.171875 L 23.640625 15.171875 L 28.492188 17.667969 L 8.398438 17.667969 Z M 3.546875 15.171875 "/>
<path fill-rule="nonzero" fill="rgb(68.235294%, 79.607843%, 98.039216%)" fill-opacity="1" d="M 9.332031 16.414062 C 9.332031 18.253906 7.839844 19.746094 6 19.746094 C 4.160156 19.746094 2.667969 18.253906 2.667969 16.414062 C 2.667969 14.574219 4.160156 13.078125 6 13.078125 C 7.839844 13.078125 9.332031 14.574219 9.332031 16.414062 Z M 9.332031 16.414062 "/>
<path fill-rule="nonzero" fill="rgb(68.235294%, 79.607843%, 98.039216%)" fill-opacity="1" d="M 29.332031 16.414062 C 29.332031 18.253906 27.839844 19.746094 26 19.746094 C 24.160156 19.746094 22.667969 18.253906 22.667969 16.414062 C 22.667969 14.574219 24.160156 13.078125 26 13.078125 C 27.839844 13.078125 29.332031 14.574219 29.332031 16.414062 Z M 29.332031 16.414062 "/>
</svg>
