<?xml version="1.0" encoding="UTF-8"?>
<svg xmlns="http://www.w3.org/2000/svg" xmlns:xlink="http://www.w3.org/1999/xlink" width="32" height="32" viewBox="0 0 32 32">
<path fill-rule="nonzero" fill="rgb(25.882353%, 52.156863%, 95.686275%)" fill-opacity="1" d="M 16 26.425781 C 16.800781 26.425781 17.449219 27.078125 17.449219 27.878906 C 17.449219 28.683594 16.800781 29.332031 16 29.332031 C 15.199219 29.332031 14.550781 28.683594 14.550781 27.878906 C 14.550781 27.078125 15.199219 26.425781 16 26.425781 Z M 17.785156 7.277344 C 18 7.277344 18.195312 7.433594 18.214844 7.640625 L 18.550781 9.945312 C 19.105469 10.15625 19.601562 10.453125 20.066406 10.800781 L 22.277344 9.929688 C 22.492188 9.859375 22.722656 9.929688 22.832031 10.121094 L 24.613281 13.136719 C 24.71875 13.332031 24.667969 13.558594 24.507812 13.695312 L 22.617188 15.144531 C 22.667969 15.425781 22.6875 15.703125 22.6875 16 C 22.6875 16.296875 22.652344 16.574219 22.617188 16.855469 L 24.523438 18.304688 C 24.683594 18.441406 24.738281 18.667969 24.632812 18.863281 L 22.847656 21.878906 C 22.722656 22.070312 22.492188 22.140625 22.296875 22.070312 L 20.066406 21.199219 C 19.621094 21.546875 19.105469 21.828125 18.570312 22.054688 L 18.230469 24.359375 C 18.195312 24.566406 18 24.722656 17.785156 24.722656 L 14.21875 24.722656 C 13.988281 24.722656 13.808594 24.566406 13.773438 24.359375 L 13.433594 22.054688 C 12.882812 21.84375 12.382812 21.546875 11.917969 21.199219 L 9.710938 22.070312 C 9.496094 22.140625 9.261719 22.070312 9.15625 21.878906 L 7.375 18.863281 C 7.265625 18.667969 7.320312 18.441406 7.480469 18.304688 L 9.371094 16.855469 C 9.335938 16.574219 9.316406 16.296875 9.316406 16 C 9.316406 15.703125 9.335938 15.425781 9.371094 15.144531 L 7.480469 13.695312 C 7.300781 13.558594 7.265625 13.332031 7.375 13.136719 L 9.15625 10.121094 C 9.28125 9.929688 9.511719 9.859375 9.710938 9.929688 L 11.917969 10.800781 C 12.382812 10.453125 12.898438 10.171875 13.433594 9.945312 L 13.773438 7.640625 C 13.808594 7.433594 14.003906 7.277344 14.21875 7.277344 Z M 4.746094 20.601562 C 5.445312 20.214844 6.328125 20.46875 6.714844 21.167969 C 7.101562 21.871094 6.847656 22.757812 6.148438 23.144531 C 5.449219 23.535156 4.570312 23.28125 4.183594 22.578125 C 3.792969 21.878906 4.046875 20.992188 4.746094 20.601562 Z M 25.285156 21.167969 C 25.671875 20.46875 26.554688 20.214844 27.253906 20.601562 C 27.953125 20.992188 28.207031 21.878906 27.816406 22.578125 C 27.429688 23.28125 26.550781 23.535156 25.851562 23.144531 C 25.152344 22.757812 24.898438 21.871094 25.285156 21.167969 Z M 16.003906 13.382812 C 14.523438 13.382812 13.328125 14.550781 13.328125 16 C 13.328125 17.449219 14.523438 18.617188 16.003906 18.617188 C 17.480469 18.617188 18.675781 17.449219 18.675781 16 C 18.675781 14.550781 17.480469 13.382812 16.003906 13.382812 Z M 25.851562 8.855469 C 26.550781 8.464844 27.429688 8.71875 27.816406 9.421875 C 28.207031 10.121094 27.953125 11.007812 27.253906 11.398438 C 26.554688 11.785156 25.671875 11.53125 25.285156 10.832031 C 24.898438 10.128906 25.152344 9.242188 25.851562 8.855469 Z M 4.183594 9.421875 C 4.570312 8.71875 5.449219 8.464844 6.148438 8.855469 C 6.847656 9.242188 7.101562 10.128906 6.714844 10.832031 C 6.328125 11.53125 5.445312 11.785156 4.746094 11.398438 C 4.046875 11.007812 3.792969 10.121094 4.183594 9.421875 Z M 16 2.667969 C 16.800781 2.667969 17.449219 3.316406 17.449219 4.121094 C 17.449219 4.921875 16.800781 5.574219 16 5.574219 C 15.199219 5.574219 14.550781 4.921875 14.550781 4.121094 C 14.550781 3.316406 15.199219 2.667969 16 2.667969 Z M 16 2.667969 "/>
</svg>
