<?xml version="1.0" encoding="UTF-8"?>
<svg xmlns="http://www.w3.org/2000/svg" xmlns:xlink="http://www.w3.org/1999/xlink" width="32" height="32" viewBox="0 0 32 32">
<path fill-rule="nonzero" fill="rgb(40%, 61.568627%, 96.470588%)" fill-opacity="1" d="M 16 16.386719 L 5 9.800781 L 16 3.441406 L 26.988281 9.667969 Z M 7.027344 9.8125 L 15.988281 15.148438 L 24.945312 9.667969 L 16 4.625 Z M 7.027344 9.8125 "/>
<path fill-rule="nonzero" fill="rgb(40%, 61.568627%, 96.470588%)" fill-opacity="1" d="M 16 28.585938 L 4.960938 21.1875 L 16 15.066406 L 26.867188 21.253906 Z M 6.933594 21.253906 L 16 27.332031 L 24.933594 21.332031 L 16 16.238281 Z M 6.933594 21.253906 "/>
<path fill-rule="nonzero" fill="rgb(25.882353%, 52.156863%, 95.686275%)" fill-opacity="1" d="M 5.496094 10.003906 L 6.398438 9.507812 L 16.367188 27.640625 L 15.464844 28.136719 Z M 5.496094 10.003906 "/>
<path fill-rule="nonzero" fill="rgb(25.882353%, 52.156863%, 95.686275%)" fill-opacity="1" d="M 15.605469 27.769531 L 25.339844 9.6875 L 26.242188 10.175781 L 16.507812 28.253906 Z M 15.605469 27.769531 "/>
<path fill-rule="nonzero" fill="rgb(25.882353%, 52.156863%, 95.686275%)" fill-opacity="1" d="M 5.632812 20.914062 L 15.472656 3.871094 L 16.363281 4.386719 L 6.523438 21.429688 Z M 5.632812 20.914062 "/>
<path fill-rule="nonzero" fill="rgb(25.882353%, 52.156863%, 95.686275%)" fill-opacity="1" d="M 15.605469 4.285156 L 16.496094 3.777344 L 26.371094 21.09375 L 25.476562 21.601562 Z M 15.605469 4.285156 "/>
<path fill-rule="nonzero" fill="rgb(25.882353%, 52.156863%, 95.686275%)" fill-opacity="1" d="M 15.519531 3.945312 L 16.546875 3.945312 L 16.546875 27.867188 L 15.519531 27.867188 Z M 15.519531 3.945312 "/>
<path fill-rule="nonzero" fill="rgb(25.882353%, 52.156863%, 95.686275%)" fill-opacity="1" d="M 5.414062 9.90625 L 6.441406 9.90625 L 6.441406 21.453125 L 5.414062 21.453125 Z M 5.414062 9.90625 "/>
<path fill-rule="nonzero" fill="rgb(25.882353%, 52.156863%, 95.686275%)" fill-opacity="1" d="M 25.375 9.785156 L 26.398438 9.785156 L 26.398438 21.332031 L 25.375 21.332031 Z M 25.375 9.785156 "/>
<path fill-rule="nonzero" fill="rgb(68.235294%, 79.607843%, 98.039216%)" fill-opacity="1" d="M 17.464844 4.09375 C 17.464844 4.882812 16.828125 5.519531 16.039062 5.519531 C 15.253906 5.519531 14.613281 4.882812 14.613281 4.09375 C 14.613281 3.304688 15.253906 2.667969 16.039062 2.667969 C 16.828125 2.667969 17.464844 3.304688 17.464844 4.09375 Z M 17.464844 4.09375 "/>
<path fill-rule="nonzero" fill="rgb(68.235294%, 79.607843%, 98.039216%)" fill-opacity="1" d="M 27.320312 9.785156 C 27.320312 10.574219 26.679688 11.214844 25.894531 11.214844 C 25.105469 11.214844 24.464844 10.574219 24.464844 9.785156 C 24.464844 9 25.105469 8.359375 25.894531 8.359375 C 26.679688 8.359375 27.320312 9 27.320312 9.785156 Z M 27.320312 9.785156 "/>
<path fill-rule="nonzero" fill="rgb(68.235294%, 79.607843%, 98.039216%)" fill-opacity="1" d="M 7.535156 9.785156 C 7.535156 10.574219 6.894531 11.214844 6.105469 11.214844 C 5.320312 11.214844 4.679688 10.574219 4.679688 9.785156 C 4.679688 9 5.320312 8.359375 6.105469 8.359375 C 6.894531 8.359375 7.535156 9 7.535156 9.785156 Z M 7.535156 9.785156 "/>
<path fill-rule="nonzero" fill="rgb(68.235294%, 79.607843%, 98.039216%)" fill-opacity="1" d="M 18.28125 15.90625 C 18.28125 17.144531 17.277344 18.148438 16.039062 18.148438 C 14.804688 18.148438 13.800781 17.144531 13.800781 15.90625 C 13.800781 14.667969 14.804688 13.667969 16.039062 13.667969 C 17.277344 13.667969 18.28125 14.667969 18.28125 15.90625 Z M 18.28125 15.90625 "/>
<path fill-rule="nonzero" fill="rgb(68.235294%, 79.607843%, 98.039216%)" fill-opacity="1" d="M 27.320312 21.253906 C 27.320312 22.042969 26.679688 22.679688 25.894531 22.679688 C 25.105469 22.679688 24.464844 22.042969 24.464844 21.253906 C 24.464844 20.464844 25.105469 19.828125 25.894531 19.828125 C 26.679688 19.828125 27.320312 20.464844 27.320312 21.253906 Z M 27.320312 21.253906 "/>
<path fill-rule="nonzero" fill="rgb(68.235294%, 79.607843%, 98.039216%)" fill-opacity="1" d="M 7.535156 21.253906 C 7.535156 22.042969 6.894531 22.679688 6.105469 22.679688 C 5.320312 22.679688 4.679688 22.042969 4.679688 21.253906 C 4.679688 20.464844 5.320312 19.828125 6.105469 19.828125 C 6.894531 19.828125 7.535156 20.464844 7.535156 21.253906 Z M 7.535156 21.253906 "/>
<path fill-rule="nonzero" fill="rgb(68.235294%, 79.607843%, 98.039216%)" fill-opacity="1" d="M 17.464844 27.90625 C 17.464844 28.695312 16.828125 29.332031 16.039062 29.332031 C 15.253906 29.332031 14.613281 28.695312 14.613281 27.90625 C 14.613281 27.117188 15.253906 26.480469 16.039062 26.480469 C 16.828125 26.480469 17.464844 27.117188 17.464844 27.90625 Z M 17.464844 27.90625 "/>
<path fill-rule="nonzero" fill="rgb(68.235294%, 79.607843%, 98.039216%)" fill-opacity="1" d="M 16 16.386719 L 5 9.800781 L 16 3.441406 L 26.988281 9.667969 Z M 7.027344 9.8125 L 15.988281 15.148438 L 24.945312 9.667969 L 16 4.625 Z M 7.027344 9.8125 "/>
<path fill-rule="nonzero" fill="rgb(68.235294%, 79.607843%, 98.039216%)" fill-opacity="1" d="M 16 28.585938 L 4.960938 21.1875 L 16 15.066406 L 26.867188 21.253906 Z M 6.933594 21.253906 L 16 27.332031 L 24.933594 21.332031 L 16 16.238281 Z M 6.933594 21.253906 "/>
<path fill-rule="nonzero" fill="rgb(68.235294%, 79.607843%, 98.039216%)" fill-opacity="1" d="M 5.496094 10.003906 L 6.398438 9.507812 L 16.367188 27.640625 L 15.464844 28.136719 Z M 5.496094 10.003906 "/>
<path fill-rule="nonzero" fill="rgb(68.235294%, 79.607843%, 98.039216%)" fill-opacity="1" d="M 15.605469 27.769531 L 25.339844 9.6875 L 26.242188 10.175781 L 16.507812 28.253906 Z M 15.605469 27.769531 "/>
<path fill-rule="nonzero" fill="rgb(68.235294%, 79.607843%, 98.039216%)" fill-opacity="1" d="M 5.632812 20.914062 L 15.472656 3.871094 L 16.363281 4.386719 L 6.523438 21.429688 Z M 5.632812 20.914062 "/>
<path fill-rule="nonzero" fill="rgb(68.235294%, 79.607843%, 98.039216%)" fill-opacity="1" d="M 15.605469 4.285156 L 16.496094 3.777344 L 26.371094 21.09375 L 25.476562 21.601562 Z M 15.605469 4.285156 "/>
<path fill-rule="nonzero" fill="rgb(68.235294%, 79.607843%, 98.039216%)" fill-opacity="1" d="M 15.519531 3.945312 L 16.546875 3.945312 L 16.546875 27.867188 L 15.519531 27.867188 Z M 15.519531 3.945312 "/>
<path fill-rule="nonzero" fill="rgb(68.235294%, 79.607843%, 98.039216%)" fill-opacity="1" d="M 5.414062 9.90625 L 6.441406 9.90625 L 6.441406 21.453125 L 5.414062 21.453125 Z M 5.414062 9.90625 "/>
<path fill-rule="nonzero" fill="rgb(68.235294%, 79.607843%, 98.039216%)" fill-opacity="1" d="M 25.375 9.785156 L 26.398438 9.785156 L 26.398438 21.332031 L 25.375 21.332031 Z M 25.375 9.785156 "/>
<path fill-rule="nonzero" fill="rgb(40%, 61.568627%, 96.470588%)" fill-opacity="1" d="M 17.464844 4.09375 C 17.464844 4.882812 16.828125 5.519531 16.039062 5.519531 C 15.253906 5.519531 14.613281 4.882812 14.613281 4.09375 C 14.613281 3.304688 15.253906 2.667969 16.039062 2.667969 C 16.828125 2.667969 17.464844 3.304688 17.464844 4.09375 Z M 17.464844 4.09375 "/>
<path fill-rule="nonzero" fill="rgb(40%, 61.568627%, 96.470588%)" fill-opacity="1" d="M 27.320312 9.785156 C 27.320312 10.574219 26.679688 11.214844 25.894531 11.214844 C 25.105469 11.214844 24.464844 10.574219 24.464844 9.785156 C 24.464844 9 25.105469 8.359375 25.894531 8.359375 C 26.679688 8.359375 27.320312 9 27.320312 9.785156 Z M 27.320312 9.785156 "/>
<path fill-rule="nonzero" fill="rgb(40%, 61.568627%, 96.470588%)" fill-opacity="1" d="M 7.535156 9.785156 C 7.535156 10.574219 6.894531 11.214844 6.105469 11.214844 C 5.320312 11.214844 4.679688 10.574219 4.679688 9.785156 C 4.679688 9 5.320312 8.359375 6.105469 8.359375 C 6.894531 8.359375 7.535156 9 7.535156 9.785156 Z M 7.535156 9.785156 "/>
<path fill-rule="nonzero" fill="rgb(40%, 61.568627%, 96.470588%)" fill-opacity="1" d="M 18.28125 15.90625 C 18.28125 17.144531 17.277344 18.148438 16.039062 18.148438 C 14.804688 18.148438 13.800781 17.144531 13.800781 15.90625 C 13.800781 14.667969 14.804688 13.667969 16.039062 13.667969 C 17.277344 13.667969 18.28125 14.667969 18.28125 15.90625 Z M 18.28125 15.90625 "/>
<path fill-rule="nonzero" fill="rgb(40%, 61.568627%, 96.470588%)" fill-opacity="1" d="M 27.320312 21.253906 C 27.320312 22.042969 26.679688 22.679688 25.894531 22.679688 C 25.105469 22.679688 24.464844 22.042969 24.464844 21.253906 C 24.464844 20.464844 25.105469 19.828125 25.894531 19.828125 C 26.679688 19.828125 27.320312 20.464844 27.320312 21.253906 Z M 27.320312 21.253906 "/>
<path fill-rule="nonzero" fill="rgb(40%, 61.568627%, 96.470588%)" fill-opacity="1" d="M 7.535156 21.253906 C 7.535156 22.042969 6.894531 22.679688 6.105469 22.679688 C 5.320312 22.679688 4.679688 22.042969 4.679688 21.253906 C 4.679688 20.464844 5.320312 19.828125 6.105469 19.828125 C 6.894531 19.828125 7.535156 20.464844 7.535156 21.253906 Z M 7.535156 21.253906 "/>
<path fill-rule="nonzero" fill="rgb(40%, 61.568627%, 96.470588%)" fill-opacity="1" d="M 17.464844 27.90625 C 17.464844 28.695312 16.828125 29.332031 16.039062 29.332031 C 15.253906 29.332031 14.613281 28.695312 14.613281 27.90625 C 14.613281 27.117188 15.253906 26.480469 16.039062 26.480469 C 16.828125 26.480469 17.464844 27.117188 17.464844 27.90625 Z M 17.464844 27.90625 "/>
</svg>
