<?xml version="1.0" encoding="UTF-8"?>
<svg xmlns="http://www.w3.org/2000/svg" xmlns:xlink="http://www.w3.org/1999/xlink" width="32" height="32" viewBox="0 0 32 32">
<path fill-rule="evenodd" fill="rgb(40%, 61.568627%, 96.470588%)" fill-opacity="1" d="M 16 2.667969 L 16 5.878906 L 20.171875 10.171875 L 20.171875 6.945312 Z M 16 2.667969 "/>
<path fill-rule="evenodd" fill="rgb(40%, 61.568627%, 96.470588%)" fill-opacity="1" d="M 26 16 L 21.839844 20.171875 L 25.171875 20.171875 L 29.332031 16 Z M 26 16 "/>
<path fill-rule="evenodd" fill="rgb(40%, 61.568627%, 96.470588%)" fill-opacity="1" d="M 6 16 L 10.171875 20.171875 L 6.839844 20.171875 L 2.667969 16 Z M 6 16 "/>
<path fill-rule="evenodd" fill="rgb(40%, 61.568627%, 96.470588%)" fill-opacity="1" d="M 16 29.332031 L 16 26.121094 L 20.171875 21.839844 L 20.171875 25.054688 Z M 16 29.332031 "/>
<path fill-rule="evenodd" fill="rgb(68.235294%, 79.607843%, 98.039216%)" fill-opacity="1" d="M 16 2.667969 L 11.839844 6.945312 L 11.839844 10.171875 L 16 5.878906 Z M 16 2.667969 "/>
<path fill-rule="evenodd" fill="rgb(68.235294%, 79.607843%, 98.039216%)" fill-opacity="1" d="M 25.171875 11.839844 L 21.839844 11.839844 L 26 16 L 29.332031 16 Z M 25.171875 11.839844 "/>
<path fill-rule="evenodd" fill="rgb(68.235294%, 79.607843%, 98.039216%)" fill-opacity="1" d="M 6.839844 11.839844 L 10.171875 11.839844 L 6 16 L 2.667969 16 Z M 6.839844 11.839844 "/>
<path fill-rule="evenodd" fill="rgb(68.235294%, 79.607843%, 98.039216%)" fill-opacity="1" d="M 16 29.332031 L 11.839844 25.054688 L 11.839844 21.839844 L 16 26.121094 Z M 16 29.332031 "/>
<path fill-rule="evenodd" fill="rgb(68.235294%, 79.607843%, 98.039216%)" fill-opacity="1" d="M 20.171875 20.171875 L 11.839844 20.171875 L 11.839844 11.839844 L 20.171875 11.839844 Z M 20.171875 20.171875 "/>
<path fill-rule="evenodd" fill="rgb(40%, 61.568627%, 96.470588%)" fill-opacity="1" d="M 20.171875 11.839844 L 20.171875 20.171875 L 11.839844 20.171875 Z M 20.171875 11.839844 "/>
<path fill-rule="evenodd" fill="rgb(25.882353%, 52.156863%, 95.686275%)" fill-opacity="1" d="M 20.171875 11.839844 L 20.171875 20.171875 L 16 16 Z M 20.171875 11.839844 "/>
</svg>
