<?xml version="1.0" encoding="UTF-8"?>
<svg xmlns="http://www.w3.org/2000/svg" xmlns:xlink="http://www.w3.org/1999/xlink" width="32" height="32" viewBox="0 0 32 32">
<path fill-rule="evenodd" fill="rgb(40%, 61.568627%, 96.470588%)" fill-opacity="1" d="M 19.039062 20.441406 L 21.613281 23.011719 L 16 27.535156 L 1.601562 16 L 10.667969 16 C 10.667969 18.945312 13.054688 21.332031 16 21.332031 C 17.078125 21.34375 18.136719 21.03125 19.039062 20.441406 Z M 21.332031 16 C 21.335938 17.03125 21.039062 18.039062 20.480469 18.90625 L 23.253906 21.707031 L 30.414062 16 Z M 21.332031 16 "/>
<path fill-rule="evenodd" fill="rgb(68.235294%, 79.607843%, 98.039216%)" fill-opacity="1" d="M 16 4.480469 L 1.601562 16 L 10.667969 16 C 10.667969 13.054688 13.054688 10.667969 16 10.667969 C 18.945312 10.667969 21.332031 13.054688 21.332031 16 L 30.386719 16 Z M 16 4.480469 "/>
<path fill-rule="evenodd" fill="rgb(25.882353%, 52.156863%, 95.686275%)" fill-opacity="1" d="M 16 12.761719 C 16.855469 12.753906 17.679688 13.09375 18.28125 13.707031 C 18.894531 14.308594 19.242188 15.132812 19.242188 15.992188 C 19.242188 16.855469 18.894531 17.679688 18.28125 18.28125 C 17.675781 18.886719 16.855469 19.230469 16 19.230469 C 15.144531 19.230469 14.324219 18.886719 13.71875 18.28125 C 13.105469 17.679688 12.757812 16.855469 12.757812 15.992188 C 12.757812 15.132812 13.105469 14.308594 13.71875 13.707031 C 14.320312 13.09375 15.144531 12.753906 16 12.761719 Z M 16 12.761719 "/>
</svg>
