<?xml version="1.0" encoding="UTF-8"?>
<svg xmlns="http://www.w3.org/2000/svg" xmlns:xlink="http://www.w3.org/1999/xlink" width="32" height="32" viewBox="0 0 32 32">
<path fill-rule="nonzero" fill="rgb(25.882353%, 52.156863%, 95.686275%)" fill-opacity="1" d="M 6 22.292969 L 12.667969 10.851562 L 14.894531 10.851562 L 17.105469 7.425781 L 14.867188 4 L 9.332031 4 L 2.667969 15.441406 Z M 6 22.292969 "/>
<path fill-rule="nonzero" fill="rgb(40%, 61.568627%, 96.470588%)" fill-opacity="0.8" d="M 19.332031 7.425781 L 17.105469 10.851562 L 21.558594 10.851562 L 23.773438 7.425781 L 21.558594 4 L 17.105469 4 Z M 19.332031 7.425781 "/>
<path fill-rule="nonzero" fill="rgb(68.235294%, 79.607843%, 98.039216%)" fill-opacity="0.6" d="M 26 9.707031 L 19.332031 21.148438 L 17.105469 21.148438 L 14.894531 24.574219 L 17.132812 28 L 22.667969 28 L 29.332031 16.558594 Z M 26 9.707031 "/>
<path fill-rule="nonzero" fill="rgb(40%, 61.568627%, 96.470588%)" fill-opacity="0.8" d="M 14.894531 28 L 12.667969 24.574219 L 14.894531 21.148438 L 10.441406 21.148438 L 8.226562 24.574219 L 10.441406 28 Z M 14.894531 28 "/>
</svg>
