<?xml version="1.0" encoding="UTF-8"?>
<svg xmlns="http://www.w3.org/2000/svg" xmlns:xlink="http://www.w3.org/1999/xlink" width="32" height="32" viewBox="0 0 32 32">
<path fill-rule="nonzero" fill="rgb(68.235294%, 79.607843%, 98.039216%)" fill-opacity="1" d="M 3 14.707031 L 29 14.707031 L 29 17.308594 L 3 17.308594 Z M 3 14.707031 "/>
<path fill-rule="nonzero" fill="rgb(40%, 61.568627%, 96.470588%)" fill-opacity="1" d="M 25.09375 16 C 25.09375 21.023438 21.023438 25.09375 16 25.09375 C 10.976562 25.09375 6.90625 21.023438 6.90625 16 C 6.90625 10.976562 10.976562 6.90625 16 6.90625 C 21.023438 6.90625 25.09375 10.976562 25.09375 16 Z M 25.09375 16 "/>
<path fill-rule="nonzero" fill="rgb(100%, 100%, 100%)" fill-opacity="1" d="M 19.253906 13.398438 L 19.253906 12.746094 C 19.253906 10.949219 17.796875 9.492188 16 9.492188 C 14.203125 9.492188 12.746094 10.949219 12.746094 12.746094 L 12.746094 13.398438 C 12.011719 13.398438 11.414062 13.996094 11.414062 14.734375 L 11.414062 19.921875 C 11.414062 20.65625 12.011719 21.253906 12.746094 21.253906 L 19.253906 21.253906 C 19.988281 21.253906 20.585938 20.65625 20.585938 19.921875 L 20.585938 14.667969 C 20.550781 13.957031 19.964844 13.398438 19.253906 13.398438 Z M 19.253906 13.398438 "/>
<path fill-rule="nonzero" fill="rgb(40%, 61.568627%, 96.470588%)" fill-opacity="1" d="M 18.214844 13.398438 L 13.785156 13.398438 L 13.785156 12.746094 C 13.785156 11.523438 14.777344 10.535156 16 10.535156 C 17.222656 10.535156 18.214844 11.523438 18.214844 12.746094 Z M 18.214844 13.398438 "/>
<path fill-rule="nonzero" fill="rgb(25.882353%, 52.156863%, 95.686275%)" fill-opacity="1" d="M 17.292969 17.292969 C 17.292969 18.007812 16.714844 18.585938 16 18.585938 C 15.285156 18.585938 14.707031 18.007812 14.707031 17.292969 C 14.707031 16.578125 15.285156 16 16 16 C 16.714844 16 17.292969 16.578125 17.292969 17.292969 Z M 17.292969 17.292969 "/>
</svg>
