<?xml version="1.0" encoding="UTF-8"?>
<svg xmlns="http://www.w3.org/2000/svg" xmlns:xlink="http://www.w3.org/1999/xlink" width="32" height="32" viewBox="0 0 32 32">
<path fill-rule="nonzero" fill="rgb(40%, 61.568627%, 96.470588%)" fill-opacity="1" d="M 6.640625 14.613281 L 16 14.613281 L 16 15.945312 L 6.640625 15.945312 Z M 6.640625 14.613281 "/>
<path fill-rule="nonzero" fill="rgb(25.882353%, 52.156863%, 95.686275%)" fill-opacity="1" d="M 16 14.613281 L 25.359375 14.613281 L 25.359375 15.945312 L 16 15.945312 Z M 16 14.613281 "/>
<path fill-rule="nonzero" fill="rgb(40%, 61.568627%, 96.470588%)" fill-opacity="1" d="M 6.667969 17.332031 L 6.667969 29.332031 L 16 29.332031 L 16 17.332031 Z M 10.347656 27.707031 L 8.308594 27.707031 L 8.308594 18.960938 L 10.320312 18.960938 Z M 14.464844 27.707031 L 12.425781 27.707031 L 12.425781 18.960938 L 14.441406 18.960938 Z M 14.464844 27.707031 "/>
<path fill-rule="nonzero" fill="rgb(25.882353%, 52.156863%, 95.686275%)" fill-opacity="1" d="M 16 17.332031 L 16 29.332031 L 25.332031 29.332031 L 25.332031 17.332031 Z M 19.574219 27.707031 L 17.558594 27.707031 L 17.558594 18.960938 L 19.574219 18.960938 Z M 23.691406 27.707031 L 21.679688 27.707031 L 21.679688 18.960938 L 23.691406 18.960938 Z M 23.691406 27.707031 "/>
<path fill-rule="nonzero" fill="rgb(25.882353%, 52.156863%, 95.686275%)" fill-opacity="1" d="M 24.640625 10.867188 L 20.640625 8.839844 C 19.910156 10.726562 18.101562 11.976562 16.078125 12 L 16 12 L 16 13.332031 L 25.332031 13.332031 L 25.332031 12 C 25.320312 11.527344 25.054688 11.09375 24.640625 10.867188 Z M 24.640625 10.867188 "/>
<path fill-rule="nonzero" fill="rgb(40%, 61.568627%, 96.470588%)" fill-opacity="1" d="M 15.921875 12 C 13.890625 11.984375 12.078125 10.730469 11.347656 8.839844 L 7.347656 10.867188 C 6.933594 11.097656 6.675781 11.527344 6.667969 12 L 6.667969 13.332031 L 16 13.332031 L 16 12 Z M 15.921875 12 "/>
<path fill-rule="nonzero" fill="rgb(25.882353%, 52.156863%, 95.686275%)" fill-opacity="1" d="M 16 2.667969 L 16 3.878906 C 17.65625 3.878906 19 5.222656 19 6.878906 L 19 6.972656 C 18.992188 8.625 17.652344 9.960938 16 9.960938 L 16 11.1875 C 18.261719 11.058594 20.027344 9.191406 20.027344 6.925781 C 20.027344 4.664062 18.261719 2.792969 16 2.667969 Z M 16 2.667969 "/>
<path fill-rule="nonzero" fill="rgb(40%, 61.568627%, 96.470588%)" fill-opacity="1" d="M 16 9.960938 C 15.199219 9.96875 14.429688 9.660156 13.859375 9.101562 C 13.285156 8.539062 12.964844 7.773438 12.960938 6.972656 L 12.960938 6.878906 C 12.960938 6.078125 13.28125 5.308594 13.851562 4.746094 C 14.425781 4.179688 15.199219 3.871094 16 3.878906 L 16 2.667969 C 13.738281 2.792969 11.972656 4.664062 11.972656 6.925781 C 11.972656 9.191406 13.738281 11.058594 16 11.1875 Z M 16 9.960938 "/>
<path fill-rule="nonzero" fill="rgb(25.882353%, 52.156863%, 95.686275%)" fill-opacity="1" d="M 15.386719 4.945312 L 16.601562 4.945312 L 16.601562 8.894531 L 15.386719 8.894531 Z M 15.386719 4.945312 "/>
</svg>
