<?xml version="1.0" encoding="UTF-8"?>
<svg xmlns="http://www.w3.org/2000/svg" xmlns:xlink="http://www.w3.org/1999/xlink" width="32" height="32" viewBox="0 0 32 32">
<path fill-rule="nonzero" fill="rgb(25.882353%, 52.156863%, 95.686275%)" fill-opacity="1" d="M 17.746094 9.132812 C 20.199219 9.769531 22.109375 11.683594 22.746094 14.132812 L 27.453125 14.132812 L 27.453125 6.988281 L 17.746094 2.667969 Z M 17.746094 9.132812 "/>
<path fill-rule="nonzero" fill="rgb(25.882353%, 52.156863%, 95.686275%)" fill-opacity="1" d="M 9.238281 14.148438 C 9.871094 11.695312 11.789062 9.78125 14.238281 9.148438 L 14.238281 2.667969 L 4.546875 6.988281 L 4.546875 14.148438 Z M 9.238281 14.148438 "/>
<path fill-rule="nonzero" fill="rgb(25.882353%, 52.156863%, 95.686275%)" fill-opacity="1" d="M 14.253906 22.667969 C 11.800781 22.03125 9.890625 20.117188 9.253906 17.667969 L 4.839844 17.667969 C 5.847656 22.875 9.375 27.246094 14.253906 29.332031 Z M 14.253906 22.667969 "/>
<path fill-rule="nonzero" fill="rgb(25.882353%, 52.156863%, 95.686275%)" fill-opacity="1" d="M 22.761719 17.667969 C 22.125 20.117188 20.210938 22.03125 17.761719 22.667969 L 17.761719 29.332031 C 22.632812 27.242188 26.152344 22.871094 27.160156 17.667969 Z M 22.761719 17.667969 "/>
<path fill-rule="nonzero" fill="rgb(40%, 61.568627%, 96.470588%)" fill-opacity="1" d="M 19.507812 15.894531 C 19.507812 17.828125 17.9375 19.398438 16 19.398438 C 14.0625 19.398438 12.492188 17.828125 12.492188 15.894531 C 12.492188 13.957031 14.0625 12.386719 16 12.386719 C 17.9375 12.386719 19.507812 13.957031 19.507812 15.894531 Z M 19.507812 15.894531 "/>
</svg>
