<?xml version="1.0" encoding="UTF-8"?>
<svg xmlns="http://www.w3.org/2000/svg" xmlns:xlink="http://www.w3.org/1999/xlink" width="32" height="32" viewBox="0 0 32 32">
<path fill-rule="evenodd" fill="rgb(36.078431%, 52.156863%, 87.058824%)" fill-opacity="1" d="M 16 1.066406 C 18.265625 1.066406 20 2.933594 20 5.066406 C 20 7.199219 18.265625 9.066406 16 9.066406 C 13.734375 9.066406 12 7.332031 12 5.066406 C 12 2.800781 13.867188 1.066406 16 1.066406 Z M 21.066406 14 L 21.066406 30 L 17.066406 30 L 17.066406 22 L 14.933594 22 L 14.933594 30 L 10.933594 30 L 10.933594 14 L 1.867188 14 L 1.867188 10 L 29.867188 10 L 29.867188 14 Z M 21.066406 14 "/>
<path fill-rule="evenodd" fill="rgb(20%, 40.392157%, 83.921569%)" fill-opacity="1" d="M 21.066406 14 L 21.066406 30 L 17.066406 30 L 17.066406 22 L 16 22 L 16 10 L 30 10 L 30 14 Z M 16 9.066406 L 16 1.066406 C 18.265625 1.066406 20 2.933594 20 5.066406 C 20 7.199219 18.265625 9.066406 16 9.066406 Z M 16 9.066406 "/>
</svg>
