<?xml version="1.0" encoding="UTF-8"?>
<svg xmlns="http://www.w3.org/2000/svg" xmlns:xlink="http://www.w3.org/1999/xlink" width="32" height="32" viewBox="0 0 32 32">
<path fill-rule="nonzero" fill="rgb(40%, 61.568627%, 96.470588%)" fill-opacity="1" d="M 19.121094 15.347656 C 19.121094 17.476562 17.394531 19.199219 15.265625 19.199219 C 13.136719 19.199219 11.414062 17.476562 11.414062 15.347656 C 11.414062 13.21875 13.136719 11.492188 15.265625 11.492188 C 17.394531 11.492188 19.121094 13.21875 19.121094 15.347656 Z M 19.121094 15.347656 "/>
<path fill-rule="nonzero" fill="rgb(68.235294%, 79.607843%, 98.039216%)" fill-opacity="1" d="M 24.066406 9.078125 C 22.488281 6.867188 20.136719 5.332031 17.480469 4.773438 L 17.121094 6.507812 C 21.179688 7.347656 24.148438 10.835938 24.328125 14.976562 C 24.511719 19.113281 21.859375 22.851562 17.890625 24.042969 C 13.921875 25.234375 9.648438 23.582031 7.519531 20.027344 C 5.390625 16.472656 5.945312 11.925781 8.867188 8.988281 L 7.535156 7.734375 C 3.648438 11.636719 3.324219 17.839844 6.78125 22.128906 C 10.238281 26.417969 16.367188 27.417969 21.007812 24.449219 C 25.648438 21.480469 27.3125 15.496094 24.867188 10.558594 C 24.363281 10.234375 24.0625 9.675781 24.066406 9.078125 Z M 24.066406 9.078125 "/>
<path fill-rule="nonzero" fill="rgb(40%, 61.568627%, 96.470588%)" fill-opacity="1" d="M 19.28125 27.226562 C 18.226562 27.425781 17.15625 26.976562 16.5625 26.082031 C 15.96875 25.1875 15.96875 24.027344 16.5625 23.132812 C 17.15625 22.238281 18.226562 21.785156 19.28125 21.988281 "/>
<path fill-rule="nonzero" fill="rgb(25.882353%, 52.156863%, 95.686275%)" fill-opacity="1" d="M 19.28125 21.988281 C 20.332031 21.785156 21.40625 22.238281 22 23.132812 C 22.589844 24.027344 22.589844 25.1875 22 26.082031 C 21.40625 26.976562 20.332031 27.425781 19.28125 27.226562 "/>
<path fill-rule="nonzero" fill="rgb(40%, 61.568627%, 96.470588%)" fill-opacity="1" d="M 25.839844 10.800781 C 24.917969 10.71875 24.207031 9.945312 24.207031 9.019531 C 24.207031 8.09375 24.917969 7.320312 25.839844 7.238281 L 25.839844 5.90625 C 24.171875 6.015625 22.871094 7.402344 22.871094 9.074219 C 22.871094 10.746094 24.171875 12.132812 25.839844 12.238281 Z M 25.839844 10.800781 "/>
<path fill-rule="nonzero" fill="rgb(25.882353%, 52.156863%, 95.686275%)" fill-opacity="1" d="M 25.839844 7.238281 C 26.761719 7.320312 27.472656 8.09375 27.472656 9.019531 C 27.472656 9.945312 26.761719 10.71875 25.839844 10.800781 L 25.839844 12.132812 C 27.507812 12.023438 28.808594 10.640625 28.808594 8.964844 C 28.808594 7.292969 27.507812 5.910156 25.839844 5.800781 Z M 25.839844 7.238281 "/>
<path fill-rule="nonzero" fill="rgb(40%, 61.568627%, 96.470588%)" fill-opacity="1" d="M 5.625 17.039062 C 4.574219 17.238281 3.5 16.789062 2.910156 15.894531 C 2.316406 15 2.316406 13.839844 2.910156 12.945312 C 3.5 12.050781 4.574219 11.601562 5.625 11.800781 "/>
<path fill-rule="nonzero" fill="rgb(25.882353%, 52.156863%, 95.686275%)" fill-opacity="1" d="M 5.625 11.800781 C 6.886719 12.039062 7.796875 13.140625 7.796875 14.421875 C 7.796875 15.703125 6.886719 16.800781 5.625 17.039062 "/>
</svg>
