<?xml version="1.0" encoding="UTF-8"?>
<svg xmlns="http://www.w3.org/2000/svg" xmlns:xlink="http://www.w3.org/1999/xlink" width="32" height="32" viewBox="0 0 32 32">
<path fill-rule="evenodd" fill="rgb(40%, 61.568627%, 96.470588%)" fill-opacity="1" d="M 16 2.667969 L 5.054688 7.226562 L 5.054688 14.734375 C 5.054688 21.480469 9.71875 27.800781 16 29.398438 C 22.28125 27.867188 26.945312 21.546875 26.945312 14.800781 L 26.945312 7.226562 Z M 16 7.71875 C 17.671875 7.71875 19.113281 8.902344 19.4375 10.542969 C 19.765625 12.183594 18.886719 13.828125 17.339844 14.464844 C 15.792969 15.105469 14.011719 14.566406 13.082031 13.175781 C 12.152344 11.78125 12.335938 9.929688 13.519531 8.746094 C 14.179688 8.089844 15.070312 7.71875 16 7.71875 Z M 21.480469 22.585938 C 20.082031 24.40625 18.175781 25.765625 16 26.492188 C 13.824219 25.765625 11.917969 24.40625 10.519531 22.585938 L 10.519531 19.585938 C 10.519531 17.359375 14.171875 16.226562 16 16.226562 C 17.828125 16.226562 21.480469 17.359375 21.480469 19.585938 Z M 21.480469 22.585938 "/>
<path fill-rule="evenodd" fill="rgb(25.882353%, 52.156863%, 95.686275%)" fill-opacity="1" d="M 16 2.667969 L 16 7.71875 C 17.9375 7.71875 19.507812 9.289062 19.507812 11.226562 C 19.507812 13.164062 17.9375 14.734375 16 14.734375 L 16 16.226562 C 17.828125 16.226562 21.480469 17.359375 21.480469 19.585938 L 21.480469 22.585938 C 20.082031 24.40625 18.175781 25.765625 16 26.492188 L 16 29.332031 C 22.28125 27.800781 26.945312 21.480469 26.945312 14.734375 L 26.945312 7.226562 Z M 16 2.667969 "/>
</svg>
