<?xml version="1.0" encoding="UTF-8"?>
<svg xmlns="http://www.w3.org/2000/svg" xmlns:xlink="http://www.w3.org/1999/xlink" width="32" height="32" viewBox="0 0 32 32">
<path fill="none" stroke-width="2" stroke-linecap="butt" stroke-linejoin="miter" stroke="rgb(25.882353%, 52.156863%, 95.686275%)" stroke-opacity="1" stroke-miterlimit="10" d="M 3.999024 6.000001 L 20.000981 6.000001 C 20.551763 6.000001 21.000005 6.448244 21.000005 6.999025 L 21.000005 17.000981 C 21.000005 17.551762 20.551763 18.000004 20.000981 18.000004 L 3.999024 18.000004 C 3.448243 18.000004 3.000001 17.551762 3.000001 17.000981 L 3.000001 6.999025 C 3.000001 6.448244 3.448243 6.000001 3.999024 6.000001 Z M 3.999024 6.000001 " transform="matrix(1.333333, 0, 0, 1.333333, 0, 0)"/>
<path fill="none" stroke-width="1" stroke-linecap="butt" stroke-linejoin="miter" stroke="rgb(40%, 61.568627%, 96.470588%)" stroke-opacity="1" stroke-miterlimit="10" d="M 14.00098 10.470706 L 18.002934 10.470706 " transform="matrix(1.333333, 0, 0, 1.333333, 0, 0)"/>
<path fill="none" stroke-width="1" stroke-linecap="butt" stroke-linejoin="miter" stroke="rgb(40%, 61.568627%, 96.470588%)" stroke-opacity="1" stroke-miterlimit="10" d="M 14.00098 13.511722 L 18.002934 13.511722 " transform="matrix(1.333333, 0, 0, 1.333333, 0, 0)"/>
<path fill="none" stroke-width="1" stroke-linecap="butt" stroke-linejoin="miter" stroke="rgb(68.235294%, 79.607843%, 98.039216%)" stroke-opacity="1" stroke-miterlimit="10" d="M 6.492189 9.48926 L 11.499026 9.48926 L 11.499026 14.496097 L 6.492189 14.496097 Z M 6.492189 9.48926 " transform="matrix(1.333333, 0, 0, 1.333333, 0, 0)"/>
<path fill-rule="nonzero" fill="rgb(25.882353%, 52.156863%, 95.686275%)" fill-opacity="1" d="M 10.671875 14.679688 L 13.355469 14.679688 L 13.355469 17.332031 L 10.671875 17.332031 Z M 10.671875 14.679688 "/>
</svg>
