<?xml version="1.0" encoding="UTF-8"?>
<svg xmlns="http://www.w3.org/2000/svg" xmlns:xlink="http://www.w3.org/1999/xlink" width="32" height="32" viewBox="0 0 32 32">
<path fill-rule="nonzero" fill="rgb(40%, 61.568627%, 96.470588%)" fill-opacity="1" d="M 20 13.761719 L 20.214844 13.761719 L 20.214844 12.425781 L 16.667969 12.425781 L 16.667969 10.90625 L 15.199219 10.90625 L 15.199219 12.425781 L 11.761719 12.425781 L 11.761719 13.761719 Z M 20 13.761719 "/>
<path fill-rule="nonzero" fill="rgb(68.235294%, 79.607843%, 98.039216%)" fill-opacity="1" d="M 20.441406 19.667969 C 19.210938 19.34375 18.058594 18.769531 17.066406 17.972656 C 17.769531 17.160156 18.3125 16.226562 18.667969 15.214844 L 17.078125 15.214844 C 16.8125 15.847656 16.449219 16.4375 16 16.960938 C 15.546875 16.4375 15.183594 15.851562 14.921875 15.214844 L 13.332031 15.214844 C 13.761719 16.214844 14.332031 17.148438 15.027344 17.988281 C 14.023438 18.851562 12.839844 19.480469 11.558594 19.828125 L 12.359375 21.160156 C 13.699219 20.6875 14.933594 19.964844 16 19.027344 C 17.042969 19.988281 18.300781 20.6875 19.667969 21.066406 Z M 20.441406 19.667969 "/>
<path fill-rule="nonzero" fill="rgb(25.882353%, 52.156863%, 95.686275%)" fill-opacity="1" d="M 9.09375 25.945312 L 10.359375 28.148438 L 23.011719 28.148438 L 29.332031 17.1875 L 26.800781 12.800781 L 20.480469 23.746094 L 10.359375 23.746094 Z M 9.09375 25.945312 "/>
<path fill-rule="nonzero" fill="rgb(25.882353%, 52.156863%, 95.686275%)" fill-opacity="1" d="M 22.90625 6.054688 L 21.640625 3.851562 L 8.988281 3.851562 L 2.667969 14.8125 L 5.199219 19.199219 L 11.519531 8.253906 L 21.640625 8.253906 Z M 22.90625 6.054688 "/>
</svg>
