<?xml version="1.0" encoding="UTF-8"?>
<svg xmlns="http://www.w3.org/2000/svg" xmlns:xlink="http://www.w3.org/1999/xlink" width="32" height="32" viewBox="0 0 32 32">
<path fill-rule="nonzero" fill="rgb(40%, 61.568627%, 96.470588%)" fill-opacity="1" d="M 13.972656 8.464844 C 13.972656 8.195312 14.027344 7.929688 14.132812 7.679688 C 10.324219 8.535156 7.464844 11.9375 7.464844 16 C 7.464844 16.550781 7.914062 17 8.464844 17 C 9.019531 17 9.464844 16.550781 9.464844 16 C 9.464844 12.957031 11.5625 10.398438 14.382812 9.675781 C 14.117188 9.328125 13.976562 8.902344 13.972656 8.464844 Z M 23.535156 15 C 22.980469 15 22.535156 15.449219 22.535156 16 C 22.535156 19.042969 20.4375 21.601562 17.617188 22.324219 C 18.054688 22.894531 18.148438 23.660156 17.867188 24.324219 C 21.675781 23.464844 24.535156 20.0625 24.535156 16 C 24.535156 15.449219 24.085938 15 23.535156 15 Z M 23.535156 15 "/>
<path fill-rule="nonzero" fill="rgb(68.235294%, 79.607843%, 98.039216%)" fill-opacity="1" d="M 27.472656 13.972656 C 27.769531 13.976562 28.058594 14.039062 28.324219 14.167969 C 27.429688 8.15625 22.253906 3.527344 16 3.527344 C 15.449219 3.527344 15 3.976562 15 4.527344 C 15 5.078125 15.449219 5.527344 16 5.527344 C 21.207031 5.527344 25.523438 9.347656 26.328125 14.332031 C 26.664062 14.097656 27.0625 13.972656 27.472656 13.972656 Z M 16 26.472656 C 10.792969 26.472656 6.476562 22.652344 5.671875 17.667969 C 5.085938 18.078125 4.324219 18.140625 3.675781 17.832031 C 4.570312 23.84375 9.75 28.472656 16 28.472656 C 16.550781 28.472656 17 28.023438 17 27.472656 C 17 26.921875 16.550781 26.472656 16 26.472656 Z M 16 26.472656 "/>
<path fill-rule="nonzero" fill="rgb(25.882353%, 52.156863%, 95.686275%)" fill-opacity="1" d="M 16 20.722656 C 13.390625 20.722656 11.277344 18.609375 11.277344 16 C 11.277344 13.390625 13.390625 11.277344 16 11.277344 C 18.609375 11.277344 20.722656 13.390625 20.722656 16 C 20.71875 18.609375 18.609375 20.71875 16 20.722656 Z M 16 13.277344 C 14.496094 13.277344 13.277344 14.496094 13.277344 16 C 13.277344 17.503906 14.496094 18.722656 16 18.722656 C 17.503906 18.722656 18.722656 17.503906 18.722656 16 C 18.722656 14.496094 17.503906 13.277344 16 13.277344 Z M 27.472656 14.972656 C 26.90625 14.972656 26.445312 15.433594 26.445312 16 C 26.445312 16.566406 26.90625 17.027344 27.472656 17.027344 C 28.039062 17.027344 28.5 16.566406 28.5 16 C 28.5 15.433594 28.039062 14.972656 27.472656 14.972656 Z M 16 7.4375 C 15.433594 7.4375 14.972656 7.898438 14.972656 8.464844 C 14.972656 9.03125 15.433594 9.492188 16 9.492188 C 16.566406 9.492188 17.027344 9.03125 17.027344 8.464844 C 17.027344 7.898438 16.566406 7.4375 16 7.4375 Z M 4.527344 14.972656 C 3.960938 14.972656 3.5 15.433594 3.5 16 C 3.5 16.566406 3.960938 17.027344 4.527344 17.027344 C 5.09375 17.027344 5.554688 16.566406 5.554688 16 C 5.554688 15.433594 5.09375 14.972656 4.527344 14.972656 Z M 16 22.507812 C 15.433594 22.507812 14.972656 22.964844 14.972656 23.535156 C 14.972656 24.101562 15.433594 24.558594 16 24.558594 C 16.566406 24.558594 17.027344 24.101562 17.027344 23.535156 C 17.027344 22.964844 16.566406 22.507812 16 22.507812 Z M 16 22.507812 "/>
</svg>
