<?xml version="1.0" encoding="UTF-8"?>
<svg xmlns="http://www.w3.org/2000/svg" xmlns:xlink="http://www.w3.org/1999/xlink" width="32" height="32" viewBox="0 0 32 32">
<path fill-rule="evenodd" fill="rgb(25.882353%, 52.156863%, 95.686275%)" fill-opacity="1" d="M 13.585938 2.667969 C 13.832031 2.667969 14.035156 2.839844 14.082031 3.074219 L 14.09375 3.175781 L 14.09375 5.777344 L 16.824219 5.777344 L 16.824219 3.175781 C 16.824219 2.929688 17 2.726562 17.230469 2.679688 L 17.332031 2.667969 L 18.160156 2.667969 C 18.40625 2.667969 18.609375 2.839844 18.65625 3.074219 L 18.667969 3.175781 L 18.667969 5.777344 L 21.402344 5.777344 L 21.398438 3.175781 C 21.402344 2.929688 21.574219 2.726562 21.804688 2.679688 L 21.90625 2.667969 L 22.738281 2.667969 C 22.980469 2.667969 23.1875 2.839844 23.234375 3.074219 L 23.246094 3.175781 L 23.246094 5.777344 L 25.671875 5.777344 C 25.949219 5.777344 26.179688 5.976562 26.230469 6.242188 L 26.238281 6.34375 L 26.238281 8.765625 L 28.824219 8.765625 C 29.070312 8.765625 29.273438 8.941406 29.324219 9.171875 L 29.332031 9.277344 L 29.332031 10.105469 C 29.332031 10.351562 29.160156 10.554688 28.925781 10.601562 L 28.824219 10.613281 L 26.238281 10.613281 L 26.238281 13.351562 L 28.824219 13.351562 C 29.070312 13.351562 29.273438 13.527344 29.324219 13.757812 L 29.332031 13.859375 L 29.332031 14.6875 C 29.332031 14.933594 29.160156 15.140625 28.925781 15.1875 L 28.824219 15.195312 L 26.238281 15.199219 L 26.238281 17.933594 L 28.824219 17.933594 C 29.070312 17.933594 29.273438 18.109375 29.324219 18.339844 L 29.332031 18.445312 L 29.332031 19.273438 C 29.332031 19.519531 29.160156 19.722656 28.925781 19.769531 L 28.824219 19.78125 L 26.238281 19.78125 L 26.238281 22.207031 C 26.238281 22.484375 26.035156 22.714844 25.773438 22.761719 L 25.671875 22.773438 L 23.246094 22.773438 L 23.246094 25.371094 C 23.242188 25.617188 23.070312 25.824219 22.839844 25.871094 L 22.734375 25.882812 L 21.910156 25.882812 C 21.664062 25.882812 21.457031 25.707031 21.410156 25.476562 L 21.402344 25.371094 L 21.398438 22.773438 L 18.667969 22.773438 L 18.667969 25.371094 C 18.667969 25.617188 18.496094 25.824219 18.261719 25.871094 L 18.160156 25.882812 L 17.332031 25.882812 C 17.085938 25.882812 16.882812 25.707031 16.835938 25.476562 L 16.824219 25.371094 L 16.824219 22.773438 L 15.476562 22.773438 L 15.476562 22.839844 C 15.476562 26.328125 12.761719 29.175781 9.355469 29.328125 L 9.070312 29.332031 C 5.535156 29.332031 2.667969 26.425781 2.667969 22.839844 C 2.667969 19.253906 5.535156 16.34375 9.070312 16.34375 C 9.132812 16.34375 9.195312 16.34375 9.257812 16.347656 L 9.257812 15.199219 L 6.667969 15.199219 C 6.425781 15.195312 6.21875 15.023438 6.171875 14.792969 L 6.160156 14.6875 L 6.160156 13.859375 C 6.164062 13.613281 6.335938 13.410156 6.566406 13.363281 L 6.667969 13.351562 L 9.257812 13.351562 L 9.253906 10.613281 L 6.667969 10.613281 C 6.425781 10.613281 6.21875 10.4375 6.171875 10.207031 L 6.160156 10.105469 L 6.160156 9.273438 C 6.164062 9.03125 6.335938 8.824219 6.566406 8.777344 L 6.667969 8.765625 L 9.253906 8.765625 L 9.253906 6.34375 C 9.257812 6.066406 9.457031 5.835938 9.71875 5.785156 L 9.820312 5.777344 L 12.25 5.777344 L 12.25 3.175781 C 12.25 2.929688 12.421875 2.726562 12.65625 2.679688 L 12.757812 2.667969 Z M 8.972656 19.320312 L 8.003906 20.304688 L 10.058594 22.390625 L 5.425781 22.390625 L 5.425781 23.785156 L 10.058594 23.785156 L 8.003906 25.871094 L 8.972656 26.855469 L 12.6875 23.089844 Z M 24.328125 7.679688 L 11.164062 7.679688 L 11.167969 16.699219 C 13.070312 17.367188 14.566406 18.917969 15.175781 20.867188 L 24.328125 20.867188 Z M 20.40625 11.042969 C 20.683594 11.042969 20.914062 11.246094 20.960938 11.507812 L 20.972656 11.609375 L 20.972656 16.9375 C 20.972656 17.214844 20.769531 17.449219 20.507812 17.496094 L 20.40625 17.507812 L 15.085938 17.507812 C 14.808594 17.503906 14.578125 17.304688 14.53125 17.039062 L 14.523438 16.9375 L 14.519531 11.609375 C 14.523438 11.332031 14.722656 11.101562 14.984375 11.054688 L 15.085938 11.042969 Z M 20.40625 11.042969 "/>
</svg>
