<?xml version="1.0" encoding="UTF-8"?>
<svg xmlns="http://www.w3.org/2000/svg" xmlns:xlink="http://www.w3.org/1999/xlink" width="32" height="32" viewBox="0 0 32 32">
<path fill-rule="evenodd" fill="rgb(25.882353%, 52.156863%, 95.686275%)" fill-opacity="1" d="M 16.71875 16.574219 L 16.71875 10.667969 C 17.355469 10.355469 17.695312 9.648438 17.535156 8.957031 C 17.375 8.269531 16.761719 7.78125 16.054688 7.78125 C 15.34375 7.78125 14.730469 8.269531 14.574219 8.957031 C 14.414062 9.648438 14.75 10.355469 15.386719 10.667969 L 15.386719 16.558594 L 9.691406 16.558594 L 9.691406 12.800781 C 10.3125 12.476562 10.632812 11.769531 10.464844 11.089844 C 10.296875 10.410156 9.6875 9.933594 8.988281 9.933594 C 8.289062 9.9375 7.683594 10.417969 7.519531 11.097656 C 7.355469 11.773438 7.675781 12.476562 8.292969 12.800781 L 8.292969 16.574219 L 8 16.574219 C 5.957031 16.566406 4.113281 15.335938 3.324219 13.449219 C 2.53125 11.566406 2.945312 9.390625 4.371094 7.925781 C 5.796875 6.460938 7.960938 5.992188 9.867188 6.734375 C 11.003906 4.292969 13.445312 2.726562 16.140625 2.710938 C 18.832031 2.699219 21.289062 4.238281 22.453125 6.667969 C 22.984375 6.492188 23.535156 6.402344 24.09375 6.398438 C 26.914062 6.398438 29.199219 8.6875 29.199219 11.507812 C 29.199219 14.328125 26.914062 16.613281 24.09375 16.613281 L 23.761719 16.613281 L 23.761719 12.800781 C 24.378906 12.476562 24.695312 11.769531 24.527344 11.089844 C 24.363281 10.410156 23.753906 9.933594 23.054688 9.933594 C 22.355469 9.933594 21.746094 10.410156 21.578125 11.089844 C 21.410156 11.769531 21.726562 12.476562 22.347656 12.800781 L 22.347656 16.574219 Z M 16.71875 16.574219 "/>
<path fill-rule="evenodd" fill="rgb(40%, 61.568627%, 96.470588%)" fill-opacity="1" d="M 9.691406 20.519531 C 10.921875 20.808594 11.78125 21.921875 11.746094 23.1875 C 11.75 24.621094 10.652344 25.820312 9.222656 25.941406 C 7.792969 26.0625 6.507812 25.070312 6.265625 23.65625 C 6.023438 22.246094 6.90625 20.878906 8.292969 20.519531 L 8.292969 16.574219 L 9.625 16.574219 Z M 8.988281 24.519531 C 9.722656 24.519531 10.320312 23.921875 10.320312 23.1875 C 10.320312 22.449219 9.722656 21.851562 8.988281 21.851562 C 8.25 21.851562 7.652344 22.449219 7.652344 23.1875 C 7.652344 23.921875 8.25 24.519531 8.988281 24.519531 Z M 23.761719 20.519531 C 25.101562 20.875 25.96875 22.167969 25.789062 23.542969 C 25.609375 24.917969 24.441406 25.949219 23.054688 25.949219 C 21.667969 25.949219 20.496094 24.917969 20.316406 23.542969 C 20.136719 22.167969 21.007812 20.875 22.347656 20.519531 L 22.347656 16.585938 L 23.761719 16.585938 Z M 23.054688 24.519531 C 23.714844 24.554688 24.300781 24.101562 24.429688 23.453125 C 24.5625 22.800781 24.195312 22.15625 23.574219 21.933594 C 23.082031 21.757812 22.53125 21.882812 22.167969 22.261719 C 21.800781 22.636719 21.691406 23.1875 21.882812 23.675781 C 22.074219 24.164062 22.53125 24.492188 23.054688 24.519531 Z M 16.71875 23.945312 C 18.066406 24.285156 18.949219 25.570312 18.78125 26.945312 C 18.609375 28.324219 17.441406 29.359375 16.054688 29.359375 C 14.667969 29.359375 13.496094 28.324219 13.328125 26.945312 C 13.15625 25.570312 14.042969 24.285156 15.386719 23.945312 L 15.386719 16.613281 L 16.800781 16.613281 Z M 16 27.945312 C 16.585938 27.945312 17.101562 27.558594 17.269531 26.996094 C 17.4375 26.433594 17.222656 25.828125 16.734375 25.503906 C 16.246094 25.179688 15.601562 25.210938 15.148438 25.582031 C 14.695312 25.953125 14.539062 26.578125 14.761719 27.121094 C 14.976562 27.613281 15.464844 27.925781 16 27.921875 Z M 16 27.945312 "/>
</svg>
