<?xml version="1.0" encoding="UTF-8"?>
<svg xmlns="http://www.w3.org/2000/svg" xmlns:xlink="http://www.w3.org/1999/xlink" width="32" height="32" viewBox="0 0 32 32">
<path fill-rule="evenodd" fill="rgb(25.882353%, 52.156863%, 95.686275%)" fill-opacity="1" d="M 2.667969 17.332031 L 8 17.332031 L 8 14.667969 L 2.667969 14.667969 Z M 2.667969 17.332031 "/>
<path fill-rule="evenodd" fill="rgb(68.235294%, 79.607843%, 98.039216%)" fill-opacity="1" d="M 20 22.667969 L 6.667969 22.667969 L 6.667969 9.332031 L 20 9.332031 Z M 20 22.667969 "/>
<path fill-rule="evenodd" fill="rgb(25.882353%, 52.156863%, 95.686275%)" fill-opacity="1" d="M 23.105469 17.332031 L 29.332031 17.332031 L 29.332031 14.667969 L 23.105469 14.667969 Z M 23.105469 17.332031 "/>
<path fill-rule="evenodd" fill="rgb(40%, 61.568627%, 96.470588%)" fill-opacity="1" d="M 10.667969 4 L 10.667969 6.667969 L 22.667969 6.667969 L 22.667969 25.332031 L 10.667969 25.332031 L 10.667969 28 L 25.332031 28 L 25.332031 4 Z M 10.667969 4 "/>
<path fill-rule="evenodd" fill="rgb(40%, 61.568627%, 96.470588%)" fill-opacity="1" d="M 20 22.667969 L 13.332031 22.667969 L 13.332031 9.332031 L 20 9.332031 Z M 20 22.667969 "/>
</svg>
