<?xml version="1.0" encoding="UTF-8"?>
<svg xmlns="http://www.w3.org/2000/svg" xmlns:xlink="http://www.w3.org/1999/xlink" width="32" height="32" viewBox="0 0 32 32">
<path fill-rule="nonzero" fill="rgb(25.882353%, 52.156863%, 95.686275%)" fill-opacity="1" d="M 24.308594 8.320312 C 22.007812 6.394531 19.105469 5.339844 16.105469 5.332031 C 9.652344 5.332031 4.148438 10.199219 2.667969 17.199219 C 2.5625 17.582031 2.679688 17.992188 2.96875 18.265625 C 3.257812 18.539062 3.671875 18.632812 4.050781 18.507812 C 4.425781 18.382812 4.707031 18.058594 4.773438 17.667969 C 6.039062 11.652344 10.667969 7.464844 16.105469 7.464844 C 18.226562 7.472656 20.296875 8.125 22.039062 9.332031 Z M 24.308594 8.320312 "/>
<path fill-rule="nonzero" fill="rgb(25.882353%, 52.156863%, 95.686275%)" fill-opacity="1" d="M 24.894531 10.039062 L 17.054688 13.546875 C 16.046875 13.148438 14.902344 13.398438 14.152344 14.175781 C 13.402344 14.953125 13.195312 16.105469 13.628906 17.097656 C 14.0625 18.085938 15.050781 18.714844 16.132812 18.691406 C 17.210938 18.667969 18.171875 17.996094 18.558594 16.988281 C 18.640625 16.789062 18.695312 16.582031 18.71875 16.375 C 18.742188 16.378906 18.765625 16.378906 18.785156 16.375 L 25.453125 11.039062 C 26.238281 10.320312 25.8125 9.625 24.894531 10.039062 Z M 24.894531 10.039062 "/>
<path fill-rule="nonzero" fill="rgb(40%, 61.568627%, 96.470588%)" fill-opacity="1" d="M 27.839844 13.320312 C 27.839844 13.9375 27.339844 14.441406 26.71875 14.441406 C 26.101562 14.441406 25.601562 13.9375 25.601562 13.320312 C 25.601562 12.703125 26.101562 12.199219 26.71875 12.199219 C 27.339844 12.199219 27.839844 12.703125 27.839844 13.320312 Z M 27.839844 13.320312 "/>
<path fill-rule="nonzero" fill="rgb(68.235294%, 79.607843%, 98.039216%)" fill-opacity="1" d="M 29.332031 17.386719 C 29.332031 18.003906 28.832031 18.507812 28.214844 18.507812 C 27.59375 18.507812 27.09375 18.003906 27.09375 17.386719 C 27.09375 16.769531 27.59375 16.265625 28.214844 16.265625 C 28.832031 16.265625 29.332031 16.769531 29.332031 17.386719 Z M 29.332031 17.386719 "/>
</svg>
