<?xml version="1.0" encoding="UTF-8"?>
<svg xmlns="http://www.w3.org/2000/svg" xmlns:xlink="http://www.w3.org/1999/xlink" width="32" height="32" viewBox="0 0 32 32">
<path fill-rule="nonzero" fill="rgb(25.882353%, 52.156863%, 95.686275%)" fill-opacity="1" d="M 23.972656 9.414062 L 9.679688 23.667969 L 8.464844 22.453125 L 22.746094 8.1875 Z M 23.972656 9.414062 "/>
<path fill-rule="nonzero" fill="rgb(40%, 61.568627%, 96.470588%)" fill-opacity="1" d="M 18.707031 13.46875 C 20.148438 14.960938 20.105469 17.34375 18.609375 18.785156 C 17.117188 20.226562 14.734375 20.183594 13.292969 18.6875 C 11.851562 17.195312 11.894531 14.8125 13.390625 13.371094 C 14.882812 11.929688 17.261719 11.972656 18.707031 13.46875 Z M 18.707031 13.46875 "/>
<path fill-rule="nonzero" fill="rgb(25.882353%, 52.156863%, 95.686275%)" fill-opacity="1" d="M 29 16 C 29.003906 18.78125 28.109375 21.488281 26.453125 23.71875 C 26.179688 23.199219 25.691406 22.820312 25.121094 22.679688 C 27.238281 19.8125 27.871094 16.113281 26.828125 12.707031 C 27.382812 12.492188 27.902344 12.191406 28.359375 11.8125 C 28.804688 13.164062 29.019531 14.578125 29 16 Z M 23.667969 26.453125 C 20.242188 28.988281 15.792969 29.679688 11.761719 28.308594 C 12.140625 27.847656 12.441406 27.328125 12.652344 26.773438 C 16.074219 27.832031 19.789062 27.199219 22.667969 25.066406 C 22.792969 25.664062 23.179688 26.171875 23.71875 26.453125 Z M 20.1875 3.691406 C 19.808594 4.152344 19.507812 4.671875 19.292969 5.226562 L 19.226562 5.226562 C 15.84375 4.214844 12.183594 4.847656 9.332031 6.933594 C 9.191406 6.363281 8.8125 5.878906 8.292969 5.601562 C 11.71875 3.066406 16.167969 2.371094 20.199219 3.746094 Z M 6.933594 9.332031 C 4.816406 12.199219 4.183594 15.898438 5.226562 19.308594 C 4.671875 19.519531 4.152344 19.820312 3.691406 20.199219 C 2.3125 16.164062 3.007812 11.707031 5.546875 8.28125 C 5.828125 8.820312 6.335938 9.207031 6.933594 9.332031 Z M 6.933594 9.332031 "/>
<path fill-rule="evenodd" fill="rgb(68.235294%, 79.607843%, 98.039216%)" fill-opacity="1" d="M 26.027344 7.347656 C 26.027344 6.609375 25.429688 6.011719 24.691406 6.011719 C 23.957031 6.011719 23.359375 6.609375 23.359375 7.347656 C 23.359375 8.082031 23.957031 8.679688 24.691406 8.679688 C 25.429688 8.679688 26.027344 8.082031 26.027344 7.347656 Z M 27.839844 7.347656 C 27.839844 9.097656 26.417969 10.519531 24.667969 10.519531 C 22.914062 10.519531 21.492188 9.097656 21.492188 7.347656 C 21.492188 5.59375 22.914062 4.171875 24.667969 4.171875 C 26.417969 4.171875 27.839844 5.59375 27.839844 7.347656 Z M 27.839844 7.347656 "/>
<path fill-rule="evenodd" fill="rgb(68.235294%, 79.607843%, 98.039216%)" fill-opacity="1" d="M 26.027344 24.734375 C 26.027344 23.996094 25.429688 23.398438 24.691406 23.398438 C 23.957031 23.398438 23.359375 23.996094 23.359375 24.734375 C 23.359375 25.46875 23.957031 26.066406 24.691406 26.066406 C 25.429688 26.066406 26.027344 25.46875 26.027344 24.734375 Z M 27.839844 24.734375 C 27.832031 26.484375 26.410156 27.898438 24.65625 27.894531 C 22.90625 27.886719 21.492188 26.464844 21.492188 24.714844 C 21.496094 22.964844 22.914062 21.546875 24.667969 21.546875 C 26.421875 21.554688 27.839844 22.980469 27.839844 24.734375 Z M 27.839844 24.734375 "/>
<path fill-rule="evenodd" fill="rgb(68.235294%, 79.607843%, 98.039216%)" fill-opacity="1" d="M 8.613281 24.734375 C 8.613281 23.996094 8.015625 23.398438 7.28125 23.398438 C 6.542969 23.398438 5.945312 23.996094 5.945312 24.734375 C 5.945312 25.46875 6.542969 26.066406 7.28125 26.066406 C 8.015625 26.066406 8.613281 25.46875 8.613281 24.734375 Z M 10.425781 24.734375 C 10.417969 26.484375 8.992188 27.902344 7.238281 27.894531 C 5.488281 27.886719 4.074219 26.460938 4.078125 24.707031 C 4.085938 22.953125 5.515625 21.539062 7.265625 21.546875 C 9.019531 21.554688 10.433594 22.980469 10.425781 24.734375 Z M 10.425781 24.734375 "/>
<path fill-rule="evenodd" fill="rgb(68.235294%, 79.607843%, 98.039216%)" fill-opacity="1" d="M 8.613281 7.347656 C 8.613281 6.609375 8.015625 6.011719 7.28125 6.011719 C 6.542969 6.011719 5.945312 6.609375 5.945312 7.347656 C 5.945312 8.082031 6.542969 8.679688 7.28125 8.679688 C 8.015625 8.679688 8.613281 8.082031 8.613281 7.347656 Z M 10.425781 7.347656 C 10.425781 8.632812 9.652344 9.789062 8.464844 10.28125 C 7.277344 10.769531 5.910156 10.496094 5.003906 9.585938 C 4.097656 8.675781 3.828125 7.308594 4.324219 6.121094 C 4.820312 4.9375 5.980469 4.167969 7.265625 4.171875 C 8.105469 4.171875 8.914062 4.507812 9.503906 5.105469 C 10.097656 5.699219 10.429688 6.507812 10.425781 7.347656 Z M 10.425781 7.347656 "/>
</svg>
