<?xml version="1.0" encoding="UTF-8"?>
<svg xmlns="http://www.w3.org/2000/svg" xmlns:xlink="http://www.w3.org/1999/xlink" width="32" height="32" viewBox="0 0 32 32">
<path fill-rule="nonzero" fill="rgb(25.882353%, 52.156863%, 95.686275%)" fill-opacity="1" d="M 21.988281 16 L 16 21.988281 L 10.011719 16 L 16 10.011719 Z M 16 19.878906 L 19.878906 16 L 16 12.121094 L 12.121094 16 Z M 16 19.878906 "/>
<path fill-rule="nonzero" fill="rgb(40%, 61.568627%, 96.470588%)" fill-opacity="1" d="M 21.773438 20.027344 L 25.308594 20.027344 L 29.332031 16 L 25.800781 16 Z M 21.773438 20.027344 "/>
<path fill-rule="nonzero" fill="rgb(68.235294%, 79.607843%, 98.039216%)" fill-opacity="1" d="M 21.773438 11.972656 L 25.800781 16 L 29.332031 16 L 25.308594 11.972656 Z M 21.773438 11.972656 "/>
<path fill-rule="nonzero" fill="rgb(68.235294%, 79.607843%, 98.039216%)" fill-opacity="1" d="M 10.226562 11.972656 L 6.691406 11.972656 L 2.667969 16 L 6.199219 16 Z M 10.226562 11.972656 "/>
<path fill-rule="nonzero" fill="rgb(40%, 61.568627%, 96.470588%)" fill-opacity="1" d="M 2.667969 16 L 6.691406 20.027344 L 10.226562 20.027344 L 6.199219 16 Z M 2.667969 16 "/>
<path fill-rule="nonzero" fill="rgb(68.235294%, 79.607843%, 98.039216%)" fill-opacity="1" d="M 11.972656 6.691406 L 11.972656 10.226562 L 16 6.199219 L 16 2.667969 Z M 11.972656 6.691406 "/>
<path fill-rule="nonzero" fill="rgb(40%, 61.568627%, 96.470588%)" fill-opacity="1" d="M 16 2.667969 L 16 6.199219 L 20.027344 10.226562 L 20.027344 6.691406 Z M 16 2.667969 "/>
<path fill-rule="nonzero" fill="rgb(68.235294%, 79.607843%, 98.039216%)" fill-opacity="1" d="M 11.972656 21.773438 L 11.972656 25.308594 L 16 29.332031 L 16 25.800781 Z M 11.972656 21.773438 "/>
<path fill-rule="nonzero" fill="rgb(40%, 61.568627%, 96.470588%)" fill-opacity="1" d="M 16 25.800781 L 16 29.332031 L 20.027344 25.308594 L 20.027344 21.773438 Z M 16 25.800781 "/>
</svg>
