<?xml version="1.0" encoding="UTF-8"?>
<svg xmlns="http://www.w3.org/2000/svg" xmlns:xlink="http://www.w3.org/1999/xlink" width="32" height="32" viewBox="0 0 32 32">
<path fill-rule="evenodd" fill="rgb(25.882353%, 52.156863%, 95.686275%)" fill-opacity="1" d="M 16.460938 2.667969 C 17.40625 2.667969 18.207031 3.191406 18.863281 4.078125 C 19.394531 4.796875 19.855469 5.792969 20.234375 7.011719 C 20.984375 9.414062 21.410156 12.621094 21.410156 16.03125 C 21.410156 19.441406 20.984375 22.648438 20.234375 25.050781 C 19.855469 26.269531 19.394531 27.265625 18.863281 27.988281 C 18.207031 28.871094 17.40625 29.394531 16.460938 29.394531 C 14.296875 29.394531 12.960938 27.503906 12.246094 24.277344 C 12.222656 24.179688 12.21875 24.082031 12.226562 23.988281 L 14.402344 23.988281 C 14.695312 25.292969 15.0625 26.574219 15.472656 27 C 15.742188 27.28125 16.019531 27.382812 16.460938 27.382812 C 16.46875 27.382812 16.480469 27.382812 16.496094 27.375 C 16.527344 27.367188 16.566406 27.347656 16.613281 27.316406 C 16.746094 27.230469 16.902344 27.074219 17.066406 26.851562 C 17.453125 26.332031 17.824219 25.523438 18.148438 24.492188 C 18.835938 22.285156 19.234375 19.265625 19.234375 16.03125 C 19.234375 12.796875 18.835938 9.777344 18.148438 7.570312 C 17.824219 6.539062 17.453125 5.734375 17.066406 5.210938 C 16.902344 4.988281 16.746094 4.832031 16.613281 4.746094 C 16.566406 4.714844 16.527344 4.695312 16.496094 4.6875 C 16.480469 4.679688 16.46875 4.679688 16.460938 4.679688 C 16.109375 4.679688 15.796875 4.84375 15.453125 5.296875 C 15.019531 5.871094 14.640625 6.8125 14.347656 8.136719 L 12.132812 8.136719 C 12.484375 6.359375 12.992188 5.042969 13.671875 4.144531 C 14.402344 3.175781 15.363281 2.667969 16.460938 2.667969 Z M 16.753906 19.332031 L 16.753906 21.347656 L 6.1875 21.347656 C 5.632812 21.347656 5.183594 20.894531 5.183594 20.339844 C 5.183594 19.785156 5.632812 19.332031 6.1875 19.332031 Z M 28.328125 17.195312 C 28.882812 17.195312 29.332031 17.644531 29.332031 18.203125 C 29.332031 18.757812 28.882812 19.207031 28.328125 19.207031 L 23.335938 19.207031 C 23.417969 18.554688 23.476562 17.878906 23.511719 17.195312 Z M 16.753906 15.054688 L 16.753906 17.070312 L 3.671875 17.070312 C 3.117188 17.070312 2.667969 16.617188 2.667969 16.0625 C 2.667969 15.507812 3.117188 15.054688 3.671875 15.054688 Z M 23.402344 12.917969 L 28.328125 12.917969 C 28.882812 12.917969 29.332031 13.367188 29.332031 13.925781 C 29.332031 14.433594 28.953125 14.855469 28.464844 14.921875 L 28.328125 14.929688 L 23.535156 14.929688 C 23.515625 14.246094 23.46875 13.574219 23.402344 12.917969 Z M 16.753906 10.78125 L 16.753906 12.792969 L 6.1875 12.792969 C 5.632812 12.792969 5.183594 12.34375 5.183594 11.785156 C 5.183594 11.277344 5.5625 10.855469 6.050781 10.789062 L 6.1875 10.78125 Z M 16.753906 10.78125 "/>
</svg>
