<?xml version="1.0" encoding="UTF-8"?>
<svg xmlns="http://www.w3.org/2000/svg" xmlns:xlink="http://www.w3.org/1999/xlink" width="32" height="32" viewBox="0 0 32 32">
<path fill="none" stroke-width="2" stroke-linecap="butt" stroke-linejoin="miter" stroke="rgb(34.117647%, 60.784314%, 98.431373%)" stroke-opacity="1" stroke-miterlimit="10" d="M 13.5293 2.270508 L 13.5293 4.628907 " transform="matrix(1.333333, 0, 0, 1.333333, 0, 0)"/>
<path fill="none" stroke-width="2" stroke-linecap="butt" stroke-linejoin="miter" stroke="rgb(34.117647%, 60.784314%, 98.431373%)" stroke-opacity="1" stroke-miterlimit="10" d="M 7.719728 4.678712 L 9.389651 6.339845 " transform="matrix(1.333333, 0, 0, 1.333333, 0, 0)"/>
<path fill="none" stroke-width="2" stroke-linecap="butt" stroke-linejoin="miter" stroke="rgb(34.117647%, 60.784314%, 98.431373%)" stroke-opacity="1" stroke-miterlimit="10" d="M 5.320314 10.491213 L 7.669924 10.491213 " transform="matrix(1.333333, 0, 0, 1.333333, 0, 0)"/>
<path fill="none" stroke-width="2" stroke-linecap="butt" stroke-linejoin="miter" stroke="rgb(34.117647%, 60.784314%, 98.431373%)" stroke-opacity="1" stroke-miterlimit="10" d="M 13.5293 18.708989 L 13.5293 16.359379 " transform="matrix(1.333333, 0, 0, 1.333333, 0, 0)"/>
<path fill="none" stroke-width="2" stroke-linecap="butt" stroke-linejoin="miter" stroke="rgb(34.117647%, 60.784314%, 98.431373%)" stroke-opacity="1" stroke-miterlimit="10" d="M 19.350591 16.300785 L 17.680668 14.639652 " transform="matrix(1.333333, 0, 0, 1.333333, 0, 0)"/>
<path fill="none" stroke-width="2" stroke-linecap="butt" stroke-linejoin="miter" stroke="rgb(34.117647%, 60.784314%, 98.431373%)" stroke-opacity="1" stroke-miterlimit="10" d="M 21.750005 10.491213 L 19.400395 10.491213 " transform="matrix(1.333333, 0, 0, 1.333333, 0, 0)"/>
<path fill="none" stroke-width="2" stroke-linecap="butt" stroke-linejoin="miter" stroke="rgb(34.117647%, 60.784314%, 98.431373%)" stroke-opacity="1" stroke-miterlimit="10" d="M 19.350591 4.678712 L 17.680668 6.339845 " transform="matrix(1.333333, 0, 0, 1.333333, 0, 0)"/>
<path fill="none" stroke-width="2" stroke-linecap="butt" stroke-linejoin="miter" stroke="rgb(34.117647%, 60.784314%, 98.431373%)" stroke-opacity="1" stroke-miterlimit="10" d="M 6.990236 17.200199 L 8.531252 18.741215 " transform="matrix(1.333333, 0, 0, 1.333333, 0, 0)"/>
<path fill="none" stroke-width="2" stroke-linecap="butt" stroke-linejoin="miter" stroke="rgb(67.058824%, 78.823529%, 97.254902%)" stroke-opacity="1" stroke-miterlimit="10" d="M 9.600588 13.81055 L 4.218751 19.189458 L 6.149416 21.120122 " transform="matrix(1.333333, 0, 0, 1.333333, 0, 0)"/>
<path fill="none" stroke-width="2" stroke-linecap="butt" stroke-linejoin="miter" stroke="rgb(34.117647%, 60.784314%, 98.431373%)" stroke-opacity="1" stroke-miterlimit="10" d="M 17.639653 14.598636 C 15.372074 16.872074 11.692386 16.875004 9.421877 14.604496 C 7.151369 12.333987 7.151369 8.654299 9.421877 6.38672 C 11.692386 4.116212 15.372074 4.119142 17.639653 6.38965 C 18.729497 7.476564 19.341801 8.956057 19.341801 10.494143 C 19.341801 12.035159 18.729497 13.511722 17.639653 14.598636 Z M 17.639653 14.598636 " transform="matrix(1.333333, 0, 0, 1.333333, 0, 0)"/>
<path fill="none" stroke-width="1" stroke-linecap="butt" stroke-linejoin="miter" stroke="rgb(25.882353%, 51.372549%, 94.901961%)" stroke-opacity="1" stroke-miterlimit="10" d="M 10.678713 10.678713 L 12.451175 12.518558 L 16.388676 8.46094 " transform="matrix(1.333333, 0, 0, 1.333333, 0, 0)"/>
</svg>
