<?xml version="1.0" encoding="UTF-8"?>
<svg xmlns="http://www.w3.org/2000/svg" xmlns:xlink="http://www.w3.org/1999/xlink" width="32" height="32" viewBox="0 0 32 32">
<path fill-rule="nonzero" fill="rgb(25.882353%, 52.156863%, 95.686275%)" fill-opacity="1" d="M 16.632812 6.878906 L 16.632812 9.683594 L 6.808594 9.683594 L 6.808594 26.835938 L 23.648438 26.835938 L 23.648438 16.703125 L 26.457031 16.703125 L 26.457031 26.527344 C 26.457031 28.070312 25.191406 29.332031 23.648438 29.332031 L 6.808594 29.332031 C 5.261719 29.332031 4 28.070312 4 26.527344 L 4 9.683594 C 4 8.140625 5.261719 6.878906 6.808594 6.878906 Z M 16.632812 20.914062 L 16.632812 23.71875 L 9.613281 23.71875 L 9.613281 20.914062 Z M 20.84375 16.703125 L 20.84375 19.507812 L 9.613281 19.507812 L 9.613281 16.703125 Z M 20.84375 12.492188 L 20.84375 15.296875 L 9.613281 15.296875 L 9.613281 12.492188 Z M 25.050781 5.472656 L 26.367188 8.367188 L 29.261719 9.683594 L 26.367188 11 L 25.050781 13.894531 L 23.738281 11 L 20.84375 9.683594 L 23.738281 8.367188 Z M 20.84375 2.667969 L 21.71875 4.597656 L 23.648438 5.472656 L 21.71875 6.351562 L 20.84375 8.28125 L 19.964844 6.351562 L 18.035156 5.472656 L 19.964844 4.597656 Z M 20.84375 2.667969 "/>
</svg>
