<?xml version="1.0" encoding="UTF-8"?>
<svg xmlns="http://www.w3.org/2000/svg" xmlns:xlink="http://www.w3.org/1999/xlink" width="32" height="32" viewBox="0 0 32 32">
<path fill-rule="nonzero" fill="rgb(25.882353%, 52.156863%, 95.686275%)" fill-opacity="1" d="M 12.867188 5.160156 L 23.921875 5.160156 L 23.921875 7.652344 L 12.867188 7.652344 Z M 12.867188 5.160156 "/>
<path fill-rule="nonzero" fill="rgb(25.882353%, 52.156863%, 95.686275%)" fill-opacity="1" d="M 6.066406 15.132812 L 17.121094 15.132812 L 17.121094 17.625 L 6.066406 17.625 Z M 6.066406 15.132812 "/>
<path fill-rule="nonzero" fill="rgb(25.882353%, 52.156863%, 95.686275%)" fill-opacity="1" d="M 12.867188 24.28125 L 23.921875 24.28125 L 23.921875 26.773438 L 12.867188 26.773438 Z M 12.867188 24.28125 "/>
<path fill-rule="evenodd" fill="rgb(25.882353%, 52.156863%, 95.686275%)" fill-opacity="1" d="M 8.761719 17.839844 L 13.09375 25.1875 L 10.878906 26.425781 L 6.546875 19.078125 Z M 8.761719 17.839844 "/>
<path fill-rule="evenodd" fill="rgb(25.882353%, 52.156863%, 95.686275%)" fill-opacity="1" d="M 9.066406 14.546875 L 13.398438 7.199219 L 11.253906 5.988281 L 6.921875 13.332031 Z M 9.066406 14.546875 "/>
<path fill-rule="evenodd" fill="rgb(68.235294%, 79.607843%, 98.039216%)" fill-opacity="1" d="M 9.972656 10.214844 L 7.761719 6.464844 L 9.972656 2.667969 L 14.386719 2.667969 L 16.585938 6.464844 L 14.386719 10.214844 Z M 9.972656 10.214844 "/>
<path fill-rule="evenodd" fill="rgb(68.235294%, 79.607843%, 98.039216%)" fill-opacity="1" d="M 17.613281 20.1875 L 15.414062 16.453125 L 17.613281 12.640625 L 22.027344 12.640625 L 24.238281 16.453125 L 22.027344 20.1875 Z M 17.613281 20.1875 "/>
<path fill-rule="evenodd" fill="rgb(68.235294%, 79.607843%, 98.039216%)" fill-opacity="1" d="M 4.867188 20.1875 L 2.667969 16.453125 L 4.867188 12.640625 L 9.28125 12.640625 L 11.480469 16.453125 L 9.28125 20.1875 Z M 4.867188 20.1875 "/>
<path fill-rule="evenodd" fill="rgb(68.235294%, 79.607843%, 98.039216%)" fill-opacity="1" d="M 22.71875 10.214844 L 20.519531 6.464844 L 22.71875 2.667969 L 27.132812 2.667969 L 29.332031 6.464844 L 27.132812 10.214844 Z M 22.71875 10.214844 "/>
<path fill-rule="evenodd" fill="rgb(68.235294%, 79.607843%, 98.039216%)" fill-opacity="1" d="M 22.71875 29.332031 L 20.519531 25.585938 L 22.71875 21.785156 L 27.132812 21.785156 L 29.332031 25.585938 L 27.132812 29.332031 Z M 22.71875 29.332031 "/>
<path fill-rule="evenodd" fill="rgb(68.235294%, 79.607843%, 98.039216%)" fill-opacity="1" d="M 9.972656 29.332031 L 7.761719 25.585938 L 9.972656 21.785156 L 14.386719 21.785156 L 16.585938 25.585938 L 14.386719 29.332031 Z M 9.972656 29.332031 "/>
</svg>
