<?xml version="1.0" encoding="UTF-8"?>
<svg xmlns="http://www.w3.org/2000/svg" xmlns:xlink="http://www.w3.org/1999/xlink" width="32" height="32" viewBox="0 0 32 32">
<path fill-rule="nonzero" fill="rgb(25.882353%, 52.156863%, 95.686275%)" fill-opacity="1" d="M 2.640625 2.667969 L 14.492188 2.667969 L 14.492188 5.625 L 2.640625 5.625 Z M 2.640625 2.667969 "/>
<path fill-rule="nonzero" fill="rgb(25.882353%, 52.156863%, 95.686275%)" fill-opacity="1" d="M 2.640625 26.375 L 14.492188 26.375 L 14.492188 29.332031 L 2.640625 29.332031 Z M 2.640625 26.375 "/>
<path fill-rule="nonzero" fill="rgb(25.882353%, 52.156863%, 95.686275%)" fill-opacity="1" d="M 2.640625 14.519531 L 14.492188 14.519531 L 14.492188 17.480469 L 2.640625 17.480469 Z M 2.640625 14.519531 "/>
<path fill-rule="nonzero" fill="rgb(25.882353%, 52.156863%, 95.686275%)" fill-opacity="1" d="M 17.453125 2.667969 L 29.308594 2.667969 L 29.308594 5.625 L 17.453125 5.625 Z M 17.453125 2.667969 "/>
<path fill-rule="nonzero" fill="rgb(25.882353%, 52.156863%, 95.686275%)" fill-opacity="1" d="M 17.453125 26.375 L 29.308594 26.375 L 29.308594 29.332031 L 17.453125 29.332031 Z M 17.453125 26.375 "/>
<path fill-rule="nonzero" fill="rgb(25.882353%, 52.156863%, 95.686275%)" fill-opacity="1" d="M 17.453125 14.519531 L 29.308594 14.519531 L 29.308594 17.480469 L 17.453125 17.480469 Z M 17.453125 14.519531 "/>
<path fill-rule="nonzero" fill="rgb(25.882353%, 52.156863%, 95.686275%)" fill-opacity="1" d="M 10.039062 8.585938 L 21.894531 8.585938 L 21.894531 11.546875 L 10.039062 11.546875 Z M 10.039062 8.585938 "/>
<path fill-rule="nonzero" fill="rgb(25.882353%, 52.156863%, 95.686275%)" fill-opacity="1" d="M 10.039062 20.441406 L 21.894531 20.441406 L 21.894531 23.398438 L 10.039062 23.398438 Z M 10.039062 20.441406 "/>
<path fill-rule="nonzero" fill="rgb(25.882353%, 52.156863%, 95.686275%)" fill-opacity="1" d="M 2.640625 8.585938 L 7.078125 8.585938 L 7.078125 11.546875 L 2.640625 11.546875 Z M 2.640625 8.585938 "/>
<path fill-rule="nonzero" fill="rgb(25.882353%, 52.156863%, 95.686275%)" fill-opacity="1" d="M 2.640625 20.441406 L 7.078125 20.441406 L 7.078125 23.398438 L 2.640625 23.398438 Z M 2.640625 20.441406 "/>
<path fill-rule="nonzero" fill="rgb(25.882353%, 52.156863%, 95.686275%)" fill-opacity="1" d="M 24.867188 8.585938 L 29.308594 8.585938 L 29.308594 11.546875 L 24.867188 11.546875 Z M 24.867188 8.585938 "/>
<path fill-rule="nonzero" fill="rgb(25.882353%, 52.156863%, 95.686275%)" fill-opacity="1" d="M 24.867188 20.441406 L 29.308594 20.441406 L 29.308594 23.398438 L 24.867188 23.398438 Z M 24.867188 20.441406 "/>
</svg>
