<?xml version="1.0" encoding="UTF-8"?>
<svg xmlns="http://www.w3.org/2000/svg" xmlns:xlink="http://www.w3.org/1999/xlink" width="32" height="32" viewBox="0 0 32 32">
<path fill-rule="nonzero" fill="rgb(36.078431%, 52.156863%, 87.058824%)" fill-opacity="1" d="M 28.265625 12.800781 L 28.265625 22.398438 L 31.066406 22.398438 L 31.066406 11.199219 Z M 28.265625 12.800781 "/>
<path fill-rule="nonzero" fill="rgb(20%, 40.392157%, 83.921569%)" fill-opacity="1" d="M 31.066406 11.199219 L 28.265625 12.800781 L 28.265625 14.132812 Z M 31.066406 11.199219 "/>
<path fill-rule="nonzero" fill="rgb(36.078431%, 52.156863%, 87.058824%)" fill-opacity="1" d="M 0.535156 11.199219 L 15.867188 19.601562 L 28.265625 12.800781 L 31.066406 11.199219 L 15.867188 2.933594 Z M 0.535156 11.199219 "/>
<path fill-rule="nonzero" fill="rgb(52.156863%, 64.313725%, 90.196078%)" fill-opacity="1" d="M 0.535156 11.199219 L 15.867188 19.601562 L 15.867188 2.933594 Z M 0.535156 11.199219 "/>
<path fill-rule="nonzero" fill="rgb(36.078431%, 52.156863%, 87.058824%)" fill-opacity="1" d="M 6.132812 17.066406 L 6.132812 22.535156 L 15.867188 27.867188 L 25.464844 22.535156 L 25.464844 17.066406 L 15.867188 22.398438 Z M 6.132812 17.066406 "/>
<path fill-rule="nonzero" fill="rgb(52.156863%, 64.313725%, 90.196078%)" fill-opacity="1" d="M 6.132812 22.535156 L 15.867188 27.867188 L 15.867188 22.398438 L 6.132812 17.066406 Z M 6.132812 22.535156 "/>
</svg>
