<?xml version="1.0" encoding="UTF-8"?>
<svg xmlns="http://www.w3.org/2000/svg" xmlns:xlink="http://www.w3.org/1999/xlink" width="32" height="32" viewBox="0 0 32 32">
<path fill-rule="evenodd" fill="rgb(25.882353%, 52.156863%, 95.686275%)" fill-opacity="1" d="M 7.449219 14.457031 L 7.449219 20.433594 L 11.65625 17.597656 C 11.921875 18.320312 12.363281 18.960938 12.929688 19.46875 L 8.589844 22.394531 L 14.933594 26.292969 L 14.933594 20.519531 C 15.285156 20.601562 15.652344 20.648438 16.03125 20.648438 C 16.433594 20.648438 16.824219 20.597656 17.195312 20.5 L 17.195312 26.289062 L 20.550781 24.226562 L 21.597656 26 L 16.0625 29.25 L 5.1875 22.867188 L 5.1875 14.457031 Z M 20.398438 17.621094 L 24.167969 20.164062 C 24.582031 19.902344 25.070312 19.75 25.59375 19.75 C 27.0625 19.75 28.25 20.9375 28.25 22.40625 C 28.25 23.875 27.0625 25.0625 25.59375 25.0625 C 24.125 25.0625 22.9375 23.875 22.9375 22.40625 C 22.9375 22.292969 22.945312 22.183594 22.957031 22.078125 L 19.113281 19.484375 C 19.683594 18.980469 20.128906 18.34375 20.398438 17.621094 Z M 25.59375 21.34375 C 25.007812 21.34375 24.53125 21.820312 24.53125 22.40625 C 24.53125 22.992188 25.007812 23.46875 25.59375 23.46875 C 26.179688 23.46875 26.65625 22.992188 26.65625 22.40625 C 26.65625 21.820312 26.179688 21.34375 25.59375 21.34375 Z M 16.03125 13.324219 C 17.503906 13.324219 18.695312 14.515625 18.695312 15.988281 C 18.695312 17.457031 17.503906 18.652344 16.03125 18.652344 C 14.558594 18.652344 13.367188 17.457031 13.367188 15.988281 C 13.367188 14.515625 14.558594 13.324219 16.03125 13.324219 Z M 16.0625 2.75 L 26.9375 9.132812 L 26.9375 17.585938 L 24.671875 17.585938 L 24.671875 11.546875 L 20.417969 14.414062 C 20.160156 13.6875 19.722656 13.042969 19.160156 12.535156 L 23.515625 9.597656 L 17.195312 5.710938 L 17.195312 11.472656 C 16.824219 11.378906 16.433594 11.328125 16.03125 11.328125 C 15.652344 11.328125 15.285156 11.371094 14.933594 11.457031 L 14.933594 5.707031 L 11.359375 7.90625 L 10.296875 6.132812 Z M 6.34375 6.9375 C 7.8125 6.9375 9 8.125 9 9.59375 C 9 9.703125 8.992188 9.8125 8.980469 9.917969 L 12.882812 12.550781 C 12.324219 13.0625 11.890625 13.710938 11.632812 14.4375 L 7.773438 11.832031 C 7.359375 12.097656 6.871094 12.25 6.34375 12.25 C 4.875 12.25 3.6875 11.0625 3.6875 9.59375 C 3.6875 8.125 4.875 6.9375 6.34375 6.9375 Z M 6.34375 8.53125 C 5.757812 8.53125 5.28125 9.007812 5.28125 9.59375 C 5.28125 10.179688 5.757812 10.65625 6.34375 10.65625 C 6.929688 10.65625 7.40625 10.179688 7.40625 9.59375 C 7.40625 9.007812 6.929688 8.53125 6.34375 8.53125 Z M 6.34375 8.53125 "/>
</svg>
