<?xml version="1.0" encoding="UTF-8"?>
<svg xmlns="http://www.w3.org/2000/svg" xmlns:xlink="http://www.w3.org/1999/xlink" width="32" height="32" viewBox="0 0 32 32">
<path fill-rule="nonzero" fill="rgb(40%, 61.568627%, 96.470588%)" fill-opacity="1" d="M 14.667969 2.667969 L 14.667969 29.332031 L 28 18.667969 Z M 14.667969 2.667969 "/>
<path fill-rule="nonzero" fill="rgb(25.882353%, 52.156863%, 95.686275%)" fill-opacity="1" d="M 14.667969 2.667969 L 13.359375 4.226562 L 25.160156 18.375 L 13.425781 27.773438 L 14.679688 29.332031 L 28 18.652344 Z M 14.667969 2.667969 "/>
<path fill-rule="nonzero" fill="rgb(40%, 61.568627%, 96.470588%)" fill-opacity="1" d="M 14.667969 2.667969 L 9.332031 9 C 9.925781 9.316406 10.4375 9.773438 10.8125 10.332031 L 14.667969 5.785156 Z M 14.667969 2.667969 "/>
<path fill-rule="nonzero" fill="rgb(40%, 61.568627%, 96.470588%)" fill-opacity="1" d="M 11.132812 24 C 10.871094 24.625 10.445312 25.171875 9.90625 25.585938 L 14.667969 29.332031 L 14.667969 26.773438 Z M 11.132812 24 "/>
<path fill-rule="nonzero" fill="rgb(68.235294%, 79.607843%, 98.039216%)" fill-opacity="1" d="M 8 13.332031 C 7.261719 13.332031 6.667969 12.738281 6.667969 12 C 6.667969 11.261719 7.261719 10.667969 8 10.667969 C 8.738281 10.667969 9.332031 11.261719 9.332031 12 C 9.332031 12.738281 8.738281 13.332031 8 13.332031 M 8 8 C 5.789062 8 4 9.789062 4 12 C 4 14.210938 5.789062 16 8 16 C 10.210938 16 12 14.210938 12 12 C 12 9.789062 10.210938 8 8 8 "/>
<path fill-rule="nonzero" fill="rgb(68.235294%, 79.607843%, 98.039216%)" fill-opacity="1" d="M 8 24 C 7.261719 24 6.667969 23.402344 6.667969 22.667969 C 6.667969 21.929688 7.261719 21.332031 8 21.332031 C 8.738281 21.332031 9.332031 21.929688 9.332031 22.667969 C 9.332031 23.402344 8.738281 24 8 24 M 8 18.667969 C 5.789062 18.667969 4 20.457031 4 22.667969 C 4 24.875 5.789062 26.667969 8 26.667969 C 10.210938 26.667969 12 24.875 12 22.667969 C 12 20.457031 10.210938 18.667969 8 18.667969 "/>
</svg>
