<?xml version="1.0" encoding="UTF-8"?>
<svg xmlns="http://www.w3.org/2000/svg" xmlns:xlink="http://www.w3.org/1999/xlink" width="32" height="32" viewBox="0 0 32 32">
<path fill-rule="nonzero" fill="rgb(25.882353%, 52.156863%, 95.686275%)" fill-opacity="1" d="M 10.375 22.132812 L 10.375 17.132812 C 10.375 16.933594 9.988281 16.679688 9.71875 16.558594 C 6.742188 15.164062 5.066406 11.945312 5.636719 8.703125 C 6.210938 5.464844 8.882812 3.007812 12.160156 2.714844 C 15.4375 2.421875 18.503906 4.367188 19.640625 7.453125 C 20.96875 10.957031 19.386719 14.898438 16 16.507812 C 15.5 16.679688 15.199219 17.183594 15.28125 17.707031 L 15.28125 29.332031 L 10.375 29.332031 L 10.375 27 L 5.558594 27 L 5.558594 22.132812 Z M 15.226562 9.988281 C 15.25 8.644531 14.179688 7.542969 12.839844 7.519531 C 11.5 7.496094 10.394531 8.566406 10.375 9.90625 C 10.359375 11.25 11.429688 12.351562 12.773438 12.375 C 14.097656 12.367188 15.175781 11.308594 15.214844 9.988281 Z M 15.226562 9.988281 "/>
<path fill-rule="nonzero" fill="rgb(40%, 61.568627%, 96.470588%)" fill-opacity="1" d="M 26.027344 7.453125 C 24.773438 4.019531 21.164062 2.054688 17.601562 2.867188 C 20.625 3.542969 22.886719 6.066406 23.226562 9.148438 C 23.566406 12.230469 21.910156 15.1875 19.105469 16.507812 C 18.609375 16.683594 18.304688 17.183594 18.375 17.707031 L 18.375 29.332031 L 21.613281 29.332031 L 21.613281 17.71875 C 21.539062 17.195312 21.847656 16.691406 22.347656 16.519531 C 25.753906 14.921875 27.359375 10.972656 26.027344 7.453125 Z M 26.027344 7.453125 "/>
</svg>
