<?xml version="1.0" encoding="UTF-8"?>
<svg xmlns="http://www.w3.org/2000/svg" xmlns:xlink="http://www.w3.org/1999/xlink" width="32" height="32" viewBox="0 0 32 32">
<path fill-rule="nonzero" fill="rgb(68.235294%, 79.607843%, 98.039216%)" fill-opacity="1" d="M 18.132812 16 C 18.132812 17.179688 17.179688 18.132812 16 18.132812 C 14.820312 18.132812 13.867188 17.179688 13.867188 16 C 13.867188 14.820312 14.820312 13.867188 16 13.867188 C 17.179688 13.867188 18.132812 14.820312 18.132812 16 Z M 18.132812 16 "/>
<path fill-rule="evenodd" fill="rgb(25.882353%, 52.156863%, 95.686275%)" fill-opacity="1" d="M 10.105469 12.265625 L 18.601562 12.265625 L 19.585938 11.332031 L 18.601562 10.398438 L 10.105469 10.398438 Z M 10.105469 12.265625 "/>
<path fill-rule="nonzero" fill="rgb(40%, 61.568627%, 96.470588%)" fill-opacity="1" d="M 10.707031 11.332031 C 10.707031 12.238281 9.972656 12.972656 9.066406 12.972656 C 8.160156 12.972656 7.425781 12.238281 7.425781 11.332031 C 7.425781 10.425781 8.160156 9.691406 9.066406 9.691406 C 9.972656 9.691406 10.707031 10.425781 10.707031 11.332031 Z M 10.707031 11.332031 "/>
<path fill-rule="nonzero" fill="rgb(68.235294%, 79.607843%, 98.039216%)" fill-opacity="1" d="M 25.066406 11.332031 C 25.066406 12.511719 24.113281 13.464844 22.933594 13.464844 C 21.753906 13.464844 20.800781 12.511719 20.800781 11.332031 C 20.800781 10.15625 21.753906 9.199219 22.933594 9.199219 C 24.113281 9.199219 25.066406 10.15625 25.066406 11.332031 Z M 25.066406 11.332031 "/>
<path fill-rule="evenodd" fill="rgb(25.882353%, 52.156863%, 95.686275%)" fill-opacity="1" d="M 12.480469 20.667969 L 13.464844 21.601562 L 21.839844 21.601562 L 21.839844 19.734375 L 13.464844 19.734375 Z M 12.480469 20.667969 "/>
<path fill-rule="nonzero" fill="rgb(68.235294%, 79.607843%, 98.039216%)" fill-opacity="1" d="M 11.199219 20.667969 C 11.199219 21.84375 10.246094 22.800781 9.066406 22.800781 C 7.886719 22.800781 6.933594 21.84375 6.933594 20.667969 C 6.933594 19.488281 7.886719 18.535156 9.066406 18.535156 C 10.246094 18.535156 11.199219 19.488281 11.199219 20.667969 Z M 11.199219 20.667969 "/>
<path fill-rule="nonzero" fill="rgb(40%, 61.568627%, 96.470588%)" fill-opacity="1" d="M 24.574219 20.667969 C 24.574219 21.574219 23.839844 22.308594 22.933594 22.308594 C 22.027344 22.308594 21.292969 21.574219 21.292969 20.667969 C 21.292969 19.761719 22.027344 19.027344 22.933594 19.027344 C 23.839844 19.027344 24.574219 19.761719 24.574219 20.667969 Z M 24.574219 20.667969 "/>
<path fill-rule="evenodd" fill="rgb(25.882353%, 52.156863%, 95.686275%)" fill-opacity="1" d="M 5.574219 6.667969 L 22.480469 6.667969 L 23.464844 5.734375 L 22.480469 4.800781 L 5.574219 4.800781 Z M 5.574219 6.667969 "/>
<path fill-rule="nonzero" fill="rgb(40%, 61.568627%, 96.470588%)" fill-opacity="1" d="M 6.441406 5.734375 C 6.441406 6.640625 5.707031 7.375 4.800781 7.375 C 3.894531 7.375 3.160156 6.640625 3.160156 5.734375 C 3.160156 4.828125 3.894531 4.09375 4.800781 4.09375 C 5.707031 4.09375 6.441406 4.828125 6.441406 5.734375 Z M 6.441406 5.734375 "/>
<path fill-rule="nonzero" fill="rgb(68.235294%, 79.607843%, 98.039216%)" fill-opacity="1" d="M 29.332031 5.734375 C 29.332031 6.910156 28.378906 7.867188 27.199219 7.867188 C 26.023438 7.867188 25.066406 6.910156 25.066406 5.734375 C 25.066406 4.554688 26.023438 3.601562 27.199219 3.601562 C 28.378906 3.601562 29.332031 4.554688 29.332031 5.734375 Z M 29.332031 5.734375 "/>
<path fill-rule="evenodd" fill="rgb(25.882353%, 52.156863%, 95.686275%)" fill-opacity="1" d="M 8.535156 26.265625 L 9.519531 27.199219 L 26.453125 27.199219 L 26.453125 25.332031 L 9.519531 25.332031 Z M 8.535156 26.265625 "/>
<path fill-rule="nonzero" fill="rgb(68.235294%, 79.607843%, 98.039216%)" fill-opacity="1" d="M 6.933594 26.265625 C 6.933594 27.445312 5.976562 28.398438 4.800781 28.398438 C 3.621094 28.398438 2.667969 27.445312 2.667969 26.265625 C 2.667969 25.089844 3.621094 24.132812 4.800781 24.132812 C 5.976562 24.132812 6.933594 25.089844 6.933594 26.265625 Z M 6.933594 26.265625 "/>
<path fill-rule="nonzero" fill="rgb(40%, 61.568627%, 96.470588%)" fill-opacity="1" d="M 28.839844 26.265625 C 28.839844 27.171875 28.105469 27.90625 27.199219 27.90625 C 26.292969 27.90625 25.558594 27.171875 25.558594 26.265625 C 25.558594 25.359375 26.292969 24.625 27.199219 24.625 C 28.105469 24.625 28.839844 25.359375 28.839844 26.265625 Z M 28.839844 26.265625 "/>
</svg>
