<?xml version="1.0" encoding="UTF-8"?>
<svg xmlns="http://www.w3.org/2000/svg" xmlns:xlink="http://www.w3.org/1999/xlink" width="32" height="32" viewBox="0 0 32 32">
<path fill-rule="evenodd" fill="rgb(25.882353%, 52.156863%, 95.686275%)" fill-opacity="1" d="M 25.933594 24.625 C 25.109375 24.605469 24.457031 23.917969 24.480469 23.09375 C 24.503906 22.269531 25.1875 21.617188 26.011719 21.640625 C 26.839844 21.664062 27.488281 22.347656 27.464844 23.171875 C 27.4375 23.996094 26.753906 24.640625 25.933594 24.625 Z M 25.933594 25.960938 C 27.257812 25.988281 28.414062 25.074219 28.699219 23.777344 C 28.980469 22.484375 28.308594 21.171875 27.09375 20.644531 C 25.878906 20.117188 24.460938 20.519531 23.707031 21.609375 C 22.953125 22.699219 23.078125 24.171875 24 25.121094 C 24.519531 25.640625 25.226562 25.933594 25.960938 25.933594 Z M 25.933594 25.960938 "/>
<path fill-rule="nonzero" fill="rgb(25.882353%, 52.156863%, 95.686275%)" fill-opacity="1" d="M 25.945312 5.773438 C 24.828125 5.773438 23.820312 6.445312 23.390625 7.480469 C 22.964844 8.515625 23.207031 9.707031 24 10.492188 C 24.515625 11.019531 25.222656 11.308594 25.960938 11.292969 C 26.996094 11.363281 27.980469 10.855469 28.519531 9.96875 C 29.058594 9.082031 29.058594 7.96875 28.519531 7.085938 C 27.980469 6.199219 26.996094 5.6875 25.960938 5.761719 Z M 27.011719 9.585938 C 26.726562 9.871094 26.335938 10.019531 25.933594 10 C 25.117188 9.96875 24.480469 9.285156 24.507812 8.472656 C 24.535156 7.65625 25.214844 7.015625 26.03125 7.042969 C 26.847656 7.066406 27.488281 7.746094 27.464844 8.558594 C 27.453125 8.949219 27.289062 9.316406 27.011719 9.585938 Z M 27.011719 9.585938 "/>
<path fill-rule="nonzero" fill="rgb(25.882353%, 52.156863%, 95.686275%)" fill-opacity="1" d="M 21.199219 13.332031 L 21.132812 13.332031 L 21.132812 14.601562 L 21.226562 14.601562 C 22.042969 14.601562 22.707031 15.261719 22.707031 16.078125 C 22.707031 16.898438 22.042969 17.558594 21.226562 17.558594 L 21.132812 17.558594 L 21.132812 18.894531 L 21.226562 18.894531 C 22.261719 18.964844 23.25 18.453125 23.789062 17.570312 C 24.328125 16.683594 24.328125 15.570312 23.789062 14.683594 C 23.25 13.800781 22.261719 13.289062 21.226562 13.359375 Z M 21.199219 13.332031 "/>
<path fill-rule="nonzero" fill="rgb(25.882353%, 52.156863%, 95.686275%)" fill-opacity="1" d="M 15.09375 2.667969 C 8.574219 2.667969 3.28125 5.332031 3.28125 8.535156 C 3.28125 11.734375 8.613281 14.414062 15.09375 14.414062 L 15.226562 14.414062 L 15.226562 2.667969 Z M 15.09375 2.667969 "/>
<path fill-rule="nonzero" fill="rgb(25.882353%, 52.156863%, 95.686275%)" fill-opacity="1" d="M 15.09375 16.691406 C 12.214844 16.789062 9.355469 16.21875 6.734375 15.027344 C 5.269531 14.441406 4.101562 13.300781 3.480469 11.851562 L 3.28125 11.851562 L 3.28125 16 C 3.28125 19.238281 8.613281 21.867188 15.09375 21.867188 L 15.226562 21.867188 L 15.226562 16.667969 Z M 15.09375 16.691406 "/>
<path fill-rule="nonzero" fill="rgb(25.882353%, 52.156863%, 95.686275%)" fill-opacity="1" d="M 15.09375 24.132812 C 12.214844 24.234375 9.355469 23.667969 6.734375 22.480469 C 5.269531 21.894531 4.101562 20.753906 3.480469 19.308594 L 3.28125 19.308594 L 3.28125 23.464844 C 3.28125 26.707031 8.613281 29.332031 15.09375 29.332031 L 15.226562 29.332031 L 15.226562 24.132812 Z M 15.09375 24.132812 "/>
<path fill-rule="nonzero" fill="rgb(40%, 61.568627%, 96.470588%)" fill-opacity="1" d="M 18.1875 2.667969 L 21.148438 2.667969 L 21.148438 29.332031 L 18.1875 29.332031 Z M 18.1875 2.667969 "/>
</svg>
