<?xml version="1.0" encoding="UTF-8"?>
<svg xmlns="http://www.w3.org/2000/svg" xmlns:xlink="http://www.w3.org/1999/xlink" width="32" height="32" viewBox="0 0 32 32">
<path fill-rule="evenodd" fill="rgb(40%, 61.568627%, 96.470588%)" fill-opacity="1" d="M 15.09375 22.746094 L 13.332031 22.746094 L 13.332031 24.613281 L 15.160156 24.613281 L 15.160156 25.453125 L 17.066406 25.453125 L 17.066406 16.238281 C 19.136719 15.75 20.605469 13.914062 20.625 11.785156 C 20.621094 9.386719 18.757812 7.402344 16.363281 7.246094 C 13.96875 7.089844 11.863281 8.816406 11.546875 11.195312 C 11.230469 13.574219 12.808594 15.789062 15.160156 16.265625 L 15.160156 19.09375 L 12.347656 19.09375 L 12.347656 20.960938 L 15.09375 20.960938 Z M 16 2.667969 L 26.945312 7.226562 L 26.945312 14.734375 C 26.945312 21.480469 22.28125 27.800781 16 29.398438 C 9.71875 27.867188 5.054688 21.546875 5.054688 14.800781 L 5.054688 7.226562 Z M 16 9.332031 C 17.199219 9.328125 18.234375 10.175781 18.46875 11.351562 C 18.703125 12.527344 18.070312 13.707031 16.960938 14.160156 C 16.023438 14.542969 14.949219 14.324219 14.234375 13.609375 C 13.523438 12.894531 13.308594 11.820312 13.695312 10.882812 C 14.078125 9.949219 14.988281 9.335938 16 9.332031 Z M 16 9.332031 "/>
<path fill-rule="evenodd" fill="rgb(25.882353%, 52.156863%, 95.686275%)" fill-opacity="1" d="M 16 25.453125 L 17 25.453125 L 17 16.238281 C 19.070312 15.75 20.539062 13.914062 20.558594 11.785156 C 20.558594 9.269531 18.519531 7.226562 16 7.226562 L 16 2.667969 L 26.945312 7.226562 L 26.945312 14.734375 C 26.945312 21.480469 22.28125 27.800781 16 29.398438 Z M 16 9.332031 C 17.199219 9.328125 18.234375 10.175781 18.46875 11.351562 C 18.703125 12.527344 18.070312 13.707031 16.960938 14.160156 C 16.671875 14.335938 16.332031 14.40625 16 14.359375 Z M 16 9.332031 "/>
</svg>
