<?xml version="1.0" encoding="UTF-8"?>
<svg xmlns="http://www.w3.org/2000/svg" xmlns:xlink="http://www.w3.org/1999/xlink" width="32" height="32" viewBox="0 0 32 32">
<path fill-rule="nonzero" fill="rgb(40%, 61.568627%, 96.470588%)" fill-opacity="1" d="M 16 3 L 15.464844 3.359375 L 15.464844 4.691406 L 16 5.054688 C 18.515625 5.054688 20.558594 7.085938 20.574219 9.601562 L 20.574219 11.679688 C 21.328125 12.054688 22.03125 12.523438 22.667969 13.078125 L 22.667969 9.613281 C 22.636719 5.953125 19.660156 3 16 3 Z M 16 3 "/>
<path fill-rule="nonzero" fill="rgb(25.882353%, 52.156863%, 95.686275%)" fill-opacity="1" d="M 21.238281 25.027344 L 19.535156 23.320312 C 19.796875 22.988281 20.015625 22.625 20.1875 22.238281 C 20.667969 21.105469 20.667969 19.828125 20.1875 18.691406 C 19.953125 18.148438 19.617188 17.648438 19.199219 17.226562 C 18.785156 16.808594 18.289062 16.480469 17.746094 16.253906 C 17.507812 16.148438 17.257812 16.066406 17 16.011719 L 17 13.585938 L 14.960938 13.585938 L 14.960938 16 C 14.710938 16.0625 14.464844 16.148438 14.226562 16.253906 C 13.6875 16.480469 13.195312 16.804688 12.773438 17.214844 C 12.355469 17.628906 12.027344 18.125 11.800781 18.667969 C 11.699219 18.910156 11.621094 19.160156 11.558594 19.414062 L 13.679688 19.414062 C 13.808594 19.125 13.988281 18.863281 14.214844 18.640625 C 14.441406 18.410156 14.714844 18.230469 15.011719 18.105469 C 15.957031 17.707031 17.046875 17.917969 17.773438 18.640625 C 18.011719 18.863281 18.195312 19.136719 18.320312 19.441406 C 18.722656 20.390625 18.503906 21.488281 17.773438 22.214844 C 17.542969 22.441406 17.273438 22.621094 16.972656 22.746094 C 16.027344 23.144531 14.933594 22.933594 14.199219 22.214844 C 13.988281 21.984375 13.8125 21.722656 13.679688 21.441406 L 11.574219 21.441406 C 11.628906 21.695312 11.707031 21.945312 11.8125 22.1875 C 12.523438 23.871094 14.171875 24.96875 16 24.972656 C 16.609375 24.964844 17.210938 24.835938 17.773438 24.601562 L 17.921875 24.519531 L 19.679688 26.292969 Z M 21.238281 25.027344 "/>
<path fill-rule="nonzero" fill="rgb(68.235294%, 79.607843%, 98.039216%)" fill-opacity="1" d="M 16 3 C 12.339844 3 9.363281 5.953125 9.332031 9.613281 L 9.332031 13.09375 C 9.960938 12.535156 10.660156 12.058594 11.414062 11.679688 L 11.414062 9.601562 C 11.414062 8.382812 11.898438 7.21875 12.757812 6.363281 C 13.617188 5.503906 14.785156 5.023438 16 5.027344 Z M 16 3 "/>
<path fill-rule="nonzero" fill="rgb(40%, 61.568627%, 96.470588%)" fill-opacity="1" d="M 17.332031 14 C 17.757812 14.078125 18.175781 14.203125 18.574219 14.375 C 18.964844 14.527344 19.335938 14.730469 19.679688 14.972656 L 19.972656 15.1875 L 21.414062 13.734375 C 21.214844 13.589844 21.011719 13.457031 20.800781 13.332031 C 20.34375 13.019531 19.859375 12.753906 19.347656 12.546875 C 18.820312 12.304688 18.269531 12.121094 17.707031 12 C 17.144531 11.886719 16.574219 11.832031 16 11.839844 L 15.734375 12 L 15.734375 13.878906 L 15.988281 13.945312 C 16.324219 13.910156 16.664062 13.910156 17 13.945312 Z M 17.332031 14 "/>
<path fill-rule="nonzero" fill="rgb(40%, 61.568627%, 96.470588%)" fill-opacity="1" d="M 24.425781 18.667969 C 24.320312 18.105469 24.148438 17.5625 23.921875 17.039062 C 23.707031 16.535156 23.441406 16.054688 23.132812 15.601562 C 23.039062 15.453125 22.921875 15.308594 22.828125 15.171875 L 21.332031 16.667969 C 21.363281 16.703125 21.390625 16.742188 21.414062 16.785156 C 21.652344 17.136719 21.855469 17.507812 22.027344 17.894531 C 23.015625 20.203125 22.589844 22.871094 20.933594 24.761719 C 20.476562 25.25 19.953125 25.671875 19.375 26.011719 C 19.097656 26.183594 18.8125 26.335938 18.519531 26.464844 C 18.121094 26.632812 17.703125 26.757812 17.28125 26.839844 L 16.960938 26.839844 L 16.960938 28.933594 C 17.203125 28.914062 17.441406 28.878906 17.679688 28.828125 C 18.238281 28.71875 18.785156 28.546875 19.308594 28.320312 C 19.816406 28.105469 20.300781 27.84375 20.761719 27.535156 C 21.238281 27.230469 21.6875 26.875 22.09375 26.480469 C 22.484375 26.117188 22.839844 25.71875 23.160156 25.292969 C 23.484375 24.835938 23.765625 24.347656 24 23.839844 C 24.214844 23.3125 24.386719 22.769531 24.507812 22.214844 C 24.617188 21.640625 24.675781 21.0625 24.679688 20.480469 C 24.652344 19.867188 24.566406 19.261719 24.425781 18.667969 Z M 24.425781 18.667969 "/>
<path fill-rule="nonzero" fill="rgb(68.235294%, 79.607843%, 98.039216%)" fill-opacity="1" d="M 10.535156 16.785156 C 11 16.082031 11.601562 15.476562 12.308594 15.011719 C 12.652344 14.773438 13.023438 14.574219 13.414062 14.414062 C 13.8125 14.242188 14.226562 14.117188 14.652344 14.039062 C 15.09375 13.949219 15.539062 13.902344 15.988281 13.894531 L 15.988281 11.839844 C 15.402344 11.832031 14.816406 11.886719 14.238281 12 C 13.683594 12.109375 13.144531 12.28125 12.625 12.507812 C 12.113281 12.722656 11.625 12.988281 11.160156 13.292969 C 10.707031 13.605469 10.28125 13.957031 9.894531 14.347656 C 9.503906 14.757812 9.15625 15.203125 8.851562 15.679688 C 8.542969 16.136719 8.28125 16.625 8.066406 17.132812 C 7.851562 17.628906 7.679688 18.140625 7.558594 18.667969 C 7.332031 19.8125 7.332031 20.988281 7.558594 22.132812 C 7.667969 22.691406 7.839844 23.238281 8.066406 23.761719 C 8.273438 24.308594 8.539062 24.835938 8.851562 25.332031 C 9.160156 25.789062 9.507812 26.210938 9.894531 26.601562 C 10.300781 26.996094 10.746094 27.347656 11.226562 27.652344 C 11.679688 27.96875 12.167969 28.230469 12.679688 28.441406 C 13.203125 28.667969 13.746094 28.839844 14.308594 28.945312 C 14.535156 28.945312 14.773438 29.027344 15.011719 29.066406 L 15.011719 26.945312 L 14.707031 26.945312 C 14.28125 26.867188 13.863281 26.742188 13.464844 26.574219 C 13.078125 26.414062 12.707031 26.210938 12.359375 25.972656 C 11.636719 25.488281 11.015625 24.867188 10.535156 24.148438 C 10.296875 23.792969 10.09375 23.417969 9.921875 23.027344 C 9.226562 21.390625 9.226562 19.542969 9.921875 17.90625 C 10.078125 17.507812 10.28125 17.132812 10.535156 16.785156 Z M 10.535156 16.785156 "/>
</svg>
