<?xml version="1.0" encoding="UTF-8"?>
<svg xmlns="http://www.w3.org/2000/svg" xmlns:xlink="http://www.w3.org/1999/xlink" width="32" height="32" viewBox="0 0 32 32">
<path fill-rule="evenodd" fill="rgb(25.882353%, 52.156863%, 95.686275%)" fill-opacity="1" d="M 10.363281 5.867188 L 10.363281 11.195312 L 10.371094 11.195312 L 10.363281 11.195312 L 10.363281 18.183594 L 14.480469 20.570312 L 9.9375 23.265625 L 6.859375 21.476562 C 6.316406 21.160156 5.980469 20.582031 5.980469 19.960938 L 5.980469 9.421875 C 5.980469 8.796875 6.316406 8.21875 6.859375 7.902344 Z M 10.363281 5.867188 "/>
<path fill-rule="evenodd" fill="rgb(25.882353%, 52.156863%, 95.686275%)" fill-opacity="1" d="M 21.5 12.976562 L 25.980469 15.65625 L 25.980469 19.992188 C 25.980469 20.621094 25.648438 21.199219 25.105469 21.515625 L 15.980469 26.863281 L 15.953125 26.847656 L 15.972656 26.863281 L 12.035156 29.1875 C 11.824219 29.3125 11.550781 29.242188 11.425781 29.035156 C 11.386719 28.964844 11.363281 28.886719 11.363281 28.808594 L 11.355469 24.234375 L 16.066406 21.417969 L 16.050781 21.394531 L 21.5 18.210938 Z M 21.5 12.976562 "/>
<path fill-rule="evenodd" fill="rgb(25.882353%, 52.156863%, 95.686275%)" fill-opacity="1" d="M 16.886719 2.996094 L 25.164062 7.8125 C 25.707031 8.128906 26.042969 8.707031 26.042969 9.335938 L 26.042969 13.785156 L 21.40625 11.03125 L 21.402344 11.039062 L 15.921875 7.855469 L 11.855469 10.21875 L 11.855469 4.867188 L 15.074219 2.996094 C 15.632812 2.667969 16.328125 2.667969 16.886719 2.996094 Z M 16.886719 2.996094 "/>
</svg>
