<?xml version="1.0" encoding="UTF-8"?>
<svg xmlns="http://www.w3.org/2000/svg" xmlns:xlink="http://www.w3.org/1999/xlink" width="32" height="32" viewBox="0 0 32 32">
<path fill-rule="nonzero" fill="rgb(25.882353%, 52.156863%, 95.686275%)" fill-opacity="1" d="M 24.617188 18.585938 L 29.417969 23.457031 L 24.613281 28.257812 L 23.238281 26.839844 L 25.636719 24.445312 L 2.75 24.445312 L 2.75 22.457031 L 25.660156 22.457031 L 23.234375 19.992188 Z M 13.828125 10.101562 C 18.117188 10.101562 21.59375 13.628906 21.59375 17.984375 C 21.59375 19.234375 21.308594 20.414062 20.800781 21.464844 L 6.855469 21.464844 C 6.347656 20.414062 6.0625 19.234375 6.0625 17.984375 C 6.0625 13.628906 9.539062 10.101562 13.828125 10.101562 Z M 5.386719 7.222656 L 7.707031 9.609375 L 6.316406 11.007812 L 3.992188 8.621094 Z M 22.375 7.214844 L 23.75 8.628906 L 21.398438 10.984375 L 20.023438 9.570312 Z M 12.910156 4.257812 L 14.867188 4.269531 L 14.847656 7.621094 L 12.886719 7.609375 Z M 12.910156 4.257812 "/>
</svg>
