<?xml version="1.0" encoding="UTF-8"?>
<svg xmlns="http://www.w3.org/2000/svg" xmlns:xlink="http://www.w3.org/1999/xlink" width="32" height="32" viewBox="0 0 32 32">
<path fill-rule="nonzero" fill="rgb(68.235294%, 79.607843%, 98.039216%)" fill-opacity="1" d="M 21.332031 2.667969 L 29.332031 2.667969 L 29.332031 10.667969 L 21.332031 10.667969 Z M 21.332031 2.667969 "/>
<path fill-rule="nonzero" fill="rgb(40%, 61.568627%, 96.470588%)" fill-opacity="1" d="M 25.332031 2.667969 L 29.332031 2.667969 L 29.332031 10.667969 L 25.332031 10.667969 Z M 25.332031 2.667969 "/>
<path fill-rule="nonzero" fill="rgb(68.235294%, 79.607843%, 98.039216%)" fill-opacity="1" d="M 21.332031 21.332031 L 29.332031 21.332031 L 29.332031 29.332031 L 21.332031 29.332031 Z M 21.332031 21.332031 "/>
<path fill-rule="nonzero" fill="rgb(40%, 61.568627%, 96.470588%)" fill-opacity="1" d="M 25.332031 21.332031 L 29.332031 21.332031 L 29.332031 29.332031 L 25.332031 29.332031 Z M 25.332031 21.332031 "/>
<path fill-rule="nonzero" fill="rgb(68.235294%, 79.607843%, 98.039216%)" fill-opacity="1" d="M 2.667969 2.667969 L 10.667969 2.667969 L 10.667969 10.667969 L 2.667969 10.667969 Z M 2.667969 2.667969 "/>
<path fill-rule="nonzero" fill="rgb(40%, 61.568627%, 96.470588%)" fill-opacity="1" d="M 6.667969 2.667969 L 10.667969 2.667969 L 10.667969 10.667969 L 6.667969 10.667969 Z M 6.667969 2.667969 "/>
<path fill-rule="nonzero" fill="rgb(68.235294%, 79.607843%, 98.039216%)" fill-opacity="1" d="M 2.667969 21.332031 L 10.667969 21.332031 L 10.667969 29.332031 L 2.667969 29.332031 Z M 2.667969 21.332031 "/>
<path fill-rule="nonzero" fill="rgb(40%, 61.568627%, 96.470588%)" fill-opacity="1" d="M 6.667969 21.332031 L 10.667969 21.332031 L 10.667969 29.332031 L 6.667969 29.332031 Z M 6.667969 21.332031 "/>
<path fill-rule="nonzero" fill="rgb(40%, 61.568627%, 96.470588%)" fill-opacity="1" d="M 10.667969 5.332031 L 21.332031 5.332031 L 21.332031 8 L 10.667969 8 Z M 10.667969 5.332031 "/>
<path fill-rule="nonzero" fill="rgb(40%, 61.568627%, 96.470588%)" fill-opacity="1" d="M 10.667969 24 L 21.332031 24 L 21.332031 26.667969 L 10.667969 26.667969 Z M 10.667969 24 "/>
<path fill-rule="nonzero" fill="rgb(40%, 61.568627%, 96.470588%)" fill-opacity="1" d="M 24 10.667969 L 26.667969 10.667969 L 26.667969 21.332031 L 24 21.332031 Z M 24 10.667969 "/>
<path fill-rule="nonzero" fill="rgb(40%, 61.568627%, 96.470588%)" fill-opacity="1" d="M 5.332031 10.667969 L 8 10.667969 L 8 21.332031 L 5.332031 21.332031 Z M 5.332031 10.667969 "/>
<path fill-rule="nonzero" fill="rgb(25.882353%, 52.156863%, 95.686275%)" fill-opacity="1" d="M 5.332031 10.667969 L 8 10.667969 L 8 13.332031 L 5.332031 13.332031 Z M 5.332031 10.667969 "/>
<path fill-rule="nonzero" fill="rgb(25.882353%, 52.156863%, 95.686275%)" fill-opacity="1" d="M 24 10.667969 L 26.667969 10.667969 L 26.667969 13.332031 L 24 13.332031 Z M 24 10.667969 "/>
<path fill-rule="nonzero" fill="rgb(25.882353%, 52.156863%, 95.686275%)" fill-opacity="1" d="M 10.667969 5.332031 L 13.332031 5.332031 L 13.332031 8 L 10.667969 8 Z M 10.667969 5.332031 "/>
<path fill-rule="nonzero" fill="rgb(25.882353%, 52.156863%, 95.686275%)" fill-opacity="1" d="M 10.667969 24 L 13.332031 24 L 13.332031 26.667969 L 10.667969 26.667969 Z M 10.667969 24 "/>
</svg>
