<?xml version="1.0" encoding="UTF-8"?>
<svg xmlns="http://www.w3.org/2000/svg" xmlns:xlink="http://www.w3.org/1999/xlink" width="32" height="32" viewBox="0 0 32 32">
<path fill-rule="nonzero" fill="rgb(25.882353%, 52.156863%, 95.686275%)" fill-opacity="1" d="M 14.71875 1.332031 C 22.113281 1.332031 28.105469 7.328125 28.105469 14.722656 L 28.09375 15.269531 L 30.667969 16.484375 L 30.667969 21.210938 C 30.667969 25.585938 27.820312 29.675781 24 30.667969 C 22.125 30.179688 20.488281 28.949219 19.304688 27.304688 C 17.875 27.828125 16.332031 28.113281 14.71875 28.113281 C 7.328125 28.113281 1.332031 22.117188 1.332031 14.722656 C 1.332031 7.328125 7.328125 1.332031 14.71875 1.332031 Z M 17.4375 22.667969 L 11.632812 22.667969 C 11.757812 23.027344 11.890625 23.371094 12.03125 23.695312 C 12.492188 24.757812 13.015625 25.582031 13.554688 26.109375 C 13.996094 26.539062 14.390625 26.726562 14.742188 26.734375 L 14.777344 26.730469 L 14.890625 26.722656 C 15.207031 26.679688 15.5625 26.488281 15.953125 26.109375 C 16.492188 25.582031 17.015625 24.757812 17.476562 23.695312 L 17.578125 23.445312 C 17.523438 23.1875 17.476562 22.929688 17.4375 22.667969 Z M 10.082031 22.667969 L 5.695312 22.667969 C 7.304688 24.492188 9.460938 25.820312 11.902344 26.40625 C 11.1875 25.472656 10.566406 24.191406 10.082031 22.667969 Z M 25.332031 17.332031 L 22.667969 17.332031 L 22.667969 20 L 20.015625 20 C 20.011719 20.027344 20.007812 20.054688 20 20.082031 L 20 22.667969 L 22.667969 22.664062 L 22.667969 25.332031 L 25.332031 25.332031 L 25.332031 22.664062 L 28 22.667969 L 28 20 L 25.332031 20 Z M 8.984375 16 L 2.761719 16 C 2.96875 17.957031 3.644531 19.773438 4.675781 21.335938 L 9.707031 21.335938 C 9.316406 19.734375 9.0625 17.925781 8.984375 16 Z M 18.355469 16 L 10.46875 16 C 10.550781 17.921875 10.816406 19.738281 11.230469 21.335938 L 17.335938 21.332031 L 17.332031 21.210938 L 17.332031 16.484375 Z M 9.445312 9.332031 L 3.96875 9.332031 C 3.160156 10.9375 2.703125 12.75 2.695312 14.667969 L 8.957031 14.667969 L 8.960938 14.296875 C 8.984375 12.535156 9.15625 10.859375 9.445312 9.332031 Z M 18.554688 9.332031 L 10.953125 9.332031 C 10.625 10.96875 10.445312 12.78125 10.441406 14.667969 L 19.066406 14.667969 L 19.058594 14.117188 C 19.027344 12.429688 18.851562 10.808594 18.554688 9.332031 Z M 25.433594 9.332031 L 19.996094 9.332031 C 20.304688 10.964844 20.476562 12.769531 20.480469 14.667969 L 21.179688 14.667969 L 24 13.332031 L 26.703125 14.609375 L 26.699219 14.367188 C 26.648438 12.5625 26.199219 10.855469 25.433594 9.332031 Z M 11.902344 3.039062 L 11.617188 3.113281 C 8.777344 3.867188 6.351562 5.632812 4.75 8 L 9.734375 8 C 10.253906 5.929688 11.003906 4.214844 11.902344 3.039062 Z M 14.746094 2.714844 C 14.398438 2.714844 14 2.902344 13.554688 3.335938 C 13.015625 3.863281 12.492188 4.6875 12.03125 5.75 C 11.738281 6.429688 11.480469 7.1875 11.261719 8 L 18.246094 8 C 18.027344 7.1875 17.769531 6.429688 17.476562 5.75 C 17.015625 4.6875 16.492188 3.863281 15.953125 3.335938 C 15.511719 2.910156 15.121094 2.71875 14.769531 2.714844 C 14.761719 2.714844 14.753906 2.714844 14.746094 2.714844 Z M 17.546875 3.054688 L 17.578125 3.09375 C 18.460938 4.265625 19.195312 5.960938 19.703125 8 L 24.648438 8 C 23.003906 5.566406 20.488281 3.769531 17.546875 3.054688 Z M 17.546875 3.054688 "/>
</svg>
