<?xml version="1.0" encoding="UTF-8"?>
<svg xmlns="http://www.w3.org/2000/svg" xmlns:xlink="http://www.w3.org/1999/xlink" width="32" height="32" viewBox="0 0 32 32">
<defs>
<clipPath id="clip-0">
<path clip-rule="nonzero" d="M 25 13 L 29.3125 13 L 29.3125 18 L 25 18 Z M 25 13 "/>
</clipPath>
<clipPath id="clip-1">
<path clip-rule="nonzero" d="M 14 2.6875 L 19 2.6875 L 19 7 L 14 7 Z M 14 2.6875 "/>
</clipPath>
<clipPath id="clip-2">
<path clip-rule="nonzero" d="M 2.6875 13 L 7 13 L 7 18 L 2.6875 18 Z M 2.6875 13 "/>
</clipPath>
<clipPath id="clip-3">
<path clip-rule="nonzero" d="M 7 7 L 25 7 L 25 24.140625 L 7 24.140625 Z M 7 7 "/>
</clipPath>
</defs>
<g clip-path="url(#clip-0)">
<path fill-rule="nonzero" fill="rgb(40%, 61.568627%, 96.470588%)" fill-opacity="1" d="M 28.804688 15.027344 L 25.398438 13.964844 C 25.542969 14.628906 25.617188 15.3125 25.617188 15.992188 C 25.617188 16.472656 25.582031 16.953125 25.511719 17.429688 L 28.804688 17.429688 C 28.941406 17.40625 29.066406 17.339844 29.15625 17.238281 C 29.25 17.136719 29.304688 17.007812 29.3125 16.871094 L 29.3125 15.585938 C 29.304688 15.449219 29.25 15.320312 29.15625 15.21875 C 29.066406 15.117188 28.941406 15.050781 28.804688 15.03125 "/>
</g>
<g clip-path="url(#clip-1)">
<path fill-rule="nonzero" fill="rgb(40%, 61.568627%, 96.470588%)" fill-opacity="1" d="M 16.0625 6.375 C 16.734375 6.375 17.402344 6.445312 18.058594 6.582031 L 16.835938 3.195312 C 16.8125 3.058594 16.746094 2.933594 16.644531 2.839844 C 16.542969 2.75 16.414062 2.695312 16.273438 2.6875 L 15.765625 2.6875 C 15.628906 2.695312 15.496094 2.75 15.394531 2.839844 C 15.292969 2.933594 15.226562 3.058594 15.203125 3.195312 L 14.140625 6.570312 C 14.773438 6.441406 15.414062 6.378906 16.054688 6.378906 "/>
</g>
<g clip-path="url(#clip-2)">
<path fill-rule="nonzero" fill="rgb(40%, 61.568627%, 96.470588%)" fill-opacity="1" d="M 6.382812 15.992188 C 6.382812 15.308594 6.453125 14.625 6.597656 13.957031 L 3.195312 15.019531 C 3.058594 15.039062 2.933594 15.105469 2.84375 15.207031 C 2.75 15.3125 2.695312 15.441406 2.6875 15.578125 L 2.6875 16.863281 C 2.695312 17 2.75 17.128906 2.84375 17.230469 C 2.933594 17.332031 3.058594 17.398438 3.195312 17.421875 L 6.488281 17.421875 C 6.417969 16.945312 6.382812 16.464844 6.382812 15.984375 Z M 6.382812 15.992188 "/>
</g>
<g clip-path="url(#clip-3)">
<path fill-rule="evenodd" fill="rgb(25.882353%, 52.156863%, 95.686275%)" fill-opacity="1" d="M 21.761719 10.230469 C 20.234375 8.703125 18.160156 7.847656 16 7.847656 C 14.390625 7.847656 12.8125 8.324219 11.472656 9.21875 C 10.132812 10.113281 9.089844 11.386719 8.472656 12.875 C 7.855469 14.363281 7.695312 16.003906 8.007812 17.582031 C 8.324219 19.164062 9.097656 20.613281 10.238281 21.753906 C 11.378906 22.894531 12.828125 23.667969 14.410156 23.984375 C 15.992188 24.296875 17.628906 24.136719 19.117188 23.519531 C 20.605469 22.902344 21.878906 21.859375 22.773438 20.519531 C 23.671875 19.179688 24.148438 17.605469 24.148438 15.992188 C 24.148438 13.832031 23.289062 11.757812 21.761719 10.230469 Z M 20.226562 11.640625 L 17.734375 13.417969 L 17.726562 13.414062 C 17.503906 13.574219 17.191406 13.535156 17.019531 13.316406 C 16.949219 13.230469 16.910156 13.125 16.90625 13.019531 L 16.902344 13.015625 L 16.730469 9.949219 C 18.058594 10.113281 19.289062 10.714844 20.226562 11.640625 Z M 16.46875 15.003906 L 17.050781 15.738281 L 16.84375 16.652344 L 16 17.058594 L 15.152344 16.652344 L 14.941406 15.738281 L 15.527344 15.003906 Z M 14.644531 10.054688 C 14.851562 10.007812 15.0625 9.972656 15.269531 9.949219 L 15.09375 13.023438 L 15.082031 13.027344 C 15.070312 13.304688 14.84375 13.523438 14.566406 13.523438 C 14.453125 13.523438 14.347656 13.488281 14.265625 13.425781 L 14.257812 13.425781 L 11.75 11.640625 C 12.519531 10.878906 13.507812 10.316406 14.644531 10.054688 Z M 9.984375 16.609375 C 9.835938 15.234375 10.15625 13.902344 10.839844 12.789062 L 13.128906 14.847656 L 13.128906 14.859375 C 13.335938 15.039062 13.367188 15.351562 13.191406 15.570312 C 13.121094 15.660156 13.027344 15.71875 12.925781 15.746094 L 12.921875 15.757812 Z M 13.90625 18.257812 L 12.738281 21.089844 C 11.648438 20.386719 10.78125 19.332031 10.3125 18.039062 L 13.328125 17.527344 L 13.332031 17.535156 C 13.367188 17.527344 13.402344 17.523438 13.433594 17.523438 C 13.664062 17.527344 13.875 17.691406 13.925781 17.925781 C 13.953125 18.039062 13.941406 18.148438 13.898438 18.246094 Z M 17.355469 21.898438 C 16.21875 22.15625 15.085938 22.078125 14.058594 21.726562 L 15.542969 19.039062 C 15.632812 18.871094 15.800781 18.773438 15.980469 18.765625 C 16.0625 18.761719 16.140625 18.78125 16.21875 18.816406 C 16.324219 18.867188 16.402344 18.945312 16.453125 19.039062 L 16.460938 19.039062 L 17.949219 21.730469 C 17.753906 21.796875 17.558594 21.851562 17.355469 21.898438 Z M 19.269531 21.097656 L 18.089844 18.238281 L 18.09375 18.234375 C 17.984375 17.980469 18.09375 17.683594 18.34375 17.5625 C 18.40625 17.53125 18.472656 17.515625 18.539062 17.511719 C 18.578125 17.511719 18.617188 17.515625 18.65625 17.519531 L 18.664062 17.515625 L 21.703125 18.03125 C 21.257812 19.285156 20.40625 20.371094 19.269531 21.097656 Z M 22.023438 16.597656 L 19.066406 15.746094 L 19.066406 15.730469 C 18.800781 15.660156 18.640625 15.390625 18.699219 15.117188 C 18.726562 15.007812 18.785156 14.914062 18.863281 14.84375 L 18.863281 14.839844 L 21.140625 12.789062 C 21.484375 13.34375 21.742188 13.964844 21.894531 14.632812 C 22.046875 15.296875 22.085938 15.957031 22.023438 16.597656 Z M 22.023438 16.597656 "/>
</g>
</svg>
