<?xml version="1.0" encoding="UTF-8"?>
<svg xmlns="http://www.w3.org/2000/svg" xmlns:xlink="http://www.w3.org/1999/xlink" width="32" height="32" viewBox="0 0 32 32">
<path fill-rule="nonzero" fill="rgb(40%, 61.568627%, 96.470588%)" fill-opacity="1" d="M 16 8.308594 L 9.707031 11.105469 L 9.707031 15.308594 C 9.746094 18.101562 11.085938 20.722656 13.332031 22.386719 C 14.125 23 15.03125 23.453125 16 23.71875 Z M 16 8.308594 "/>
<path fill-rule="nonzero" fill="rgb(25.882353%, 52.156863%, 95.686275%)" fill-opacity="1" d="M 16 23.691406 C 19.738281 22.621094 22.308594 19.195312 22.292969 15.308594 L 22.292969 11.105469 L 16 8.308594 Z M 16 23.691406 "/>
<path fill-rule="nonzero" fill="rgb(25.882353%, 52.156863%, 95.686275%)" fill-opacity="1" d="M 22.773438 15.492188 C 22.773438 15.839844 22.773438 16.171875 22.691406 16.507812 L 25.867188 16.507812 L 25.867188 15.492188 Z M 22.773438 15.492188 "/>
<path fill-rule="nonzero" fill="rgb(25.882353%, 52.156863%, 95.686275%)" fill-opacity="1" d="M 9.226562 15.492188 C 9.226562 15.839844 9.226562 16.171875 9.308594 16.507812 L 6.132812 16.507812 L 6.132812 15.492188 Z M 9.226562 15.492188 "/>
<path fill-rule="nonzero" fill="rgb(68.235294%, 79.607843%, 98.039216%)" fill-opacity="1" d="M 4.785156 16.972656 C 4.25 16.972656 3.8125 16.539062 3.8125 16 C 3.8125 15.460938 4.25 15.027344 4.785156 15.027344 L 4.785156 14.226562 C 3.808594 14.226562 3.011719 15.019531 3.011719 16 C 3.011719 16.980469 3.808594 17.773438 4.785156 17.773438 Z M 4.785156 16.972656 "/>
<path fill-rule="nonzero" fill="rgb(100%, 100%, 100%)" fill-opacity="1" d="M 18.960938 19.027344 C 18.953125 19.433594 18.621094 19.761719 18.214844 19.761719 L 13.652344 19.761719 C 13.308594 19.703125 13.054688 19.402344 13.054688 19.054688 L 13.054688 15.332031 C 13.054688 14.929688 13.382812 14.601562 13.785156 14.601562 L 14.160156 14.601562 L 14.160156 13.851562 C 14.242188 12.894531 15.042969 12.15625 16.007812 12.15625 C 16.96875 12.15625 17.773438 12.894531 17.851562 13.851562 L 17.851562 14.667969 L 18.214844 14.667969 C 18.277344 14.652344 18.347656 14.652344 18.414062 14.667969 C 18.675781 14.742188 18.871094 14.960938 18.921875 15.226562 C 18.925781 15.269531 18.925781 15.316406 18.921875 15.359375 Z M 16 12.71875 L 15.867188 12.71875 C 15.34375 12.777344 14.929688 13.1875 14.867188 13.707031 C 14.867188 13.707031 14.867188 13.800781 14.867188 13.839844 L 14.867188 14.667969 L 17.160156 14.667969 L 17.160156 13.921875 C 17.15625 13.757812 17.121094 13.597656 17.054688 13.453125 C 16.890625 13.011719 16.46875 12.71875 16 12.71875 Z M 16 12.71875 "/>
<path fill-rule="nonzero" fill="rgb(25.882353%, 52.156863%, 95.686275%)" fill-opacity="1" d="M 16.332031 15.441406 L 14.867188 17.398438 L 15.707031 17.398438 L 15.707031 18.878906 L 17.132812 16.894531 L 16.332031 16.894531 Z M 16.332031 15.441406 "/>
<path fill-rule="nonzero" fill="rgb(40%, 61.568627%, 96.470588%)" fill-opacity="1" d="M 4.785156 17.773438 C 5.257812 17.777344 5.710938 17.589844 6.042969 17.257812 C 6.378906 16.925781 6.5625 16.472656 6.558594 16 C 6.5625 15.527344 6.378906 15.074219 6.042969 14.742188 C 5.710938 14.410156 5.257812 14.222656 4.785156 14.226562 L 4.785156 15.027344 C 5.324219 15.027344 5.761719 15.460938 5.761719 16 C 5.761719 16.539062 5.324219 16.972656 4.785156 16.972656 Z M 4.785156 17.773438 "/>
<path fill-rule="nonzero" fill="rgb(68.235294%, 79.607843%, 98.039216%)" fill-opacity="1" d="M 27.214844 16.972656 C 26.675781 16.972656 26.238281 16.539062 26.238281 16 C 26.238281 15.460938 26.675781 15.027344 27.214844 15.027344 L 27.214844 14.226562 C 26.234375 14.226562 25.441406 15.019531 25.441406 16 C 25.441406 16.980469 26.234375 17.773438 27.214844 17.773438 Z M 27.214844 16.972656 "/>
<path fill-rule="nonzero" fill="rgb(40%, 61.568627%, 96.470588%)" fill-opacity="1" d="M 27.214844 17.773438 C 27.6875 17.78125 28.144531 17.597656 28.480469 17.261719 C 28.816406 16.929688 29.003906 16.472656 29 16 C 29 15.527344 28.8125 15.074219 28.476562 14.742188 C 28.140625 14.410156 27.6875 14.222656 27.214844 14.226562 L 27.214844 15.027344 C 27.75 15.027344 28.1875 15.460938 28.1875 16 C 28.1875 16.539062 27.75 16.972656 27.214844 16.972656 Z M 27.214844 17.773438 "/>
</svg>
