<?xml version="1.0" encoding="UTF-8"?>
<svg xmlns="http://www.w3.org/2000/svg" xmlns:xlink="http://www.w3.org/1999/xlink" width="32" height="32" viewBox="0 0 32 32">
<path fill-rule="evenodd" fill="rgb(25.882353%, 52.156863%, 95.686275%)" fill-opacity="1" d="M 19.574219 17.414062 L 25.640625 20.921875 L 25.640625 22.238281 L 19.054688 18.441406 Z M 19.574219 17.414062 "/>
<path fill-rule="evenodd" fill="rgb(40%, 61.568627%, 96.470588%)" fill-opacity="1" d="M 13.308594 18.199219 L 6.359375 22.214844 L 5.933594 21.148438 L 12.707031 17.226562 Z M 13.308594 18.199219 "/>
<path fill-rule="nonzero" fill="rgb(68.235294%, 79.607843%, 98.039216%)" fill-opacity="1" d="M 15.398438 4.386719 L 16.546875 4.386719 L 16.546875 12.09375 L 15.398438 12.09375 Z M 15.398438 4.386719 "/>
<path fill-rule="evenodd" fill="rgb(68.235294%, 79.607843%, 98.039216%)" fill-opacity="1" d="M 4.332031 9.332031 L 4.332031 22.667969 L 16 29.332031 L 27.652344 22.667969 L 27.652344 9.332031 L 16 2.667969 Z M 25.171875 21.1875 L 16 26.375 L 6.828125 21.1875 L 6.828125 10.8125 L 16 5.625 L 25.160156 10.8125 L 25.160156 21.1875 Z M 25.171875 21.1875 "/>
<path fill-rule="evenodd" fill="rgb(68.235294%, 79.607843%, 98.039216%)" fill-opacity="1" d="M 15.972656 15.332031 L 21.28125 12.28125 L 15.972656 9.214844 L 10.679688 12.28125 Z M 15.972656 15.332031 "/>
<path fill-rule="evenodd" fill="rgb(40%, 61.568627%, 96.470588%)" fill-opacity="1" d="M 15.359375 16.398438 L 10.214844 13.347656 L 10.214844 19.464844 L 15.359375 22.519531 Z M 15.359375 16.398438 "/>
<path fill-rule="evenodd" fill="rgb(25.882353%, 52.156863%, 95.686275%)" fill-opacity="1" d="M 16.640625 16.398438 L 16.640625 22.519531 L 21.785156 19.464844 L 21.785156 13.347656 Z M 16.640625 16.398438 "/>
</svg>
