<?xml version="1.0" encoding="UTF-8"?>
<svg xmlns="http://www.w3.org/2000/svg" xmlns:xlink="http://www.w3.org/1999/xlink" width="32" height="32" viewBox="0 0 32 32">
<path fill-rule="evenodd" fill="rgb(25.882353%, 52.156863%, 95.686275%)" fill-opacity="1" d="M 29.332031 2.667969 L 29.332031 12.667969 L 21.652344 12.667969 L 21.648438 12.730469 C 21.503906 15.140625 19.839844 17.203125 17.507812 17.863281 L 17.234375 17.933594 L 17.234375 29.332031 L 14.867188 29.332031 L 14.867188 28.277344 L 12.605469 28.277344 L 12.605469 25.972656 L 14.867188 25.972656 L 14.867188 23.769531 L 11.472656 23.769531 L 11.472656 21.464844 L 14.867188 21.464844 L 14.867188 17.972656 C 12.273438 17.445312 10.441406 15.21875 10.34375 12.667969 L 12.667969 12.667969 C 12.664062 12.59375 12.660156 12.519531 12.660156 12.445312 C 12.660156 10.621094 14.140625 9.140625 15.964844 9.140625 C 17.789062 9.140625 19.265625 10.621094 19.265625 12.445312 C 19.265625 12.519531 19.261719 12.59375 19.257812 12.667969 L 12.667969 12.667969 C 12.78125 14.390625 14.214844 15.75 15.964844 15.75 C 17.714844 15.75 19.144531 14.390625 19.257812 12.667969 L 21.652344 12.667969 L 21.660156 12.449219 C 21.660156 9.578125 19.492188 7.183594 16.65625 6.855469 L 16.378906 6.832031 L 16.101562 6.820312 L 15.824219 6.820312 C 13.089844 6.902344 10.765625 8.945312 10.390625 11.699219 C 10.347656 12.023438 10.332031 12.347656 10.34375 12.667969 L 2.667969 12.667969 L 2.667969 2.667969 Z M 29.332031 2.667969 "/>
</svg>
