<?xml version="1.0" encoding="UTF-8"?>
<svg xmlns="http://www.w3.org/2000/svg" xmlns:xlink="http://www.w3.org/1999/xlink" width="32" height="32" viewBox="0 0 32 32">
<path fill-rule="evenodd" fill="rgb(40%, 61.568627%, 96.470588%)" fill-opacity="1" d="M 6.933594 16 L 8.691406 14.238281 L 6.308594 11.851562 C 5.203125 10.730469 4.878906 9.054688 5.484375 7.601562 C 6.089844 6.148438 7.503906 5.195312 9.078125 5.1875 C 10.117188 5.1875 11.109375 5.597656 11.839844 6.332031 L 14.238281 8.71875 L 16 6.933594 L 13.613281 4.546875 C 12.007812 2.855469 9.613281 2.167969 7.355469 2.75 C 5.097656 3.335938 3.335938 5.097656 2.75 7.355469 C 2.167969 9.613281 2.855469 12.007812 4.546875 13.613281 Z M 6.933594 16 "/>
<path fill-rule="evenodd" fill="rgb(40%, 61.568627%, 96.470588%)" fill-opacity="1" d="M 25.066406 16 L 23.308594 17.761719 L 25.691406 20.160156 C 27.128906 21.707031 27.082031 24.109375 25.585938 25.601562 C 24.09375 27.089844 21.691406 27.132812 20.148438 25.691406 L 17.761719 23.308594 L 16 25.066406 L 18.386719 27.453125 C 19.992188 29.144531 22.386719 29.832031 24.644531 29.25 C 26.902344 28.664062 28.664062 26.902344 29.25 24.644531 C 29.832031 22.386719 29.144531 19.992188 27.453125 18.386719 Z M 25.066406 16 "/>
<path fill-rule="evenodd" fill="rgb(25.882353%, 52.156863%, 95.686275%)" fill-opacity="1" d="M 11.851562 25.691406 C 10.320312 27.226562 7.839844 27.226562 6.308594 25.691406 C 4.773438 24.160156 4.773438 21.679688 6.308594 20.148438 L 8.691406 17.761719 L 14.238281 23.308594 Z M 20.160156 6.308594 C 21.277344 5.191406 22.960938 4.855469 24.421875 5.464844 C 25.878906 6.070312 26.832031 7.5 26.828125 9.078125 C 26.820312 10.117188 26.40625 11.113281 25.679688 11.851562 L 23.292969 14.238281 L 17.761719 8.691406 Z M 16 20.253906 C 13.652344 20.246094 11.753906 18.347656 11.746094 16 C 11.761719 13.65625 13.65625 11.761719 16 11.746094 C 18.34375 11.761719 20.238281 13.65625 20.253906 16 C 20.246094 18.347656 18.347656 20.246094 16 20.253906 Z M 25.066406 16 L 27.453125 13.613281 C 29.144531 12.007812 29.832031 9.613281 29.25 7.355469 C 28.664062 5.097656 26.902344 3.335938 24.644531 2.75 C 22.386719 2.167969 19.992188 2.855469 18.386719 4.546875 L 4.546875 18.386719 C 2.855469 19.992188 2.167969 22.386719 2.75 24.644531 C 3.335938 26.902344 5.097656 28.664062 7.355469 29.25 C 9.613281 29.832031 12.007812 29.144531 13.613281 27.453125 Z M 25.066406 16 "/>
</svg>
