<?xml version="1.0" encoding="UTF-8"?>
<svg xmlns="http://www.w3.org/2000/svg" xmlns:xlink="http://www.w3.org/1999/xlink" width="32" height="32" viewBox="0 0 32 32">
<path fill-rule="nonzero" fill="rgb(25.882353%, 52.156863%, 95.686275%)" fill-opacity="1" d="M 17.5625 4 C 17.828125 4 18.074219 4.164062 18.148438 4.398438 L 18.171875 4.503906 L 18.523438 6.828125 C 19.617188 7.246094 20.617188 7.847656 21.484375 8.589844 L 23.953125 7.648438 C 24.21875 7.5625 24.503906 7.628906 24.675781 7.820312 L 24.738281 7.910156 L 27.277344 12.0625 C 27.410156 12.296875 27.367188 12.5625 27.203125 12.753906 L 27.125 12.832031 L 24.761719 14.582031 C 24.816406 14.996094 24.84375 15.417969 24.84375 15.847656 C 24.84375 16.351562 24.804688 16.847656 24.726562 17.335938 L 21.886719 15.742188 L 21.886719 15.71875 C 21.734375 12.160156 18.726562 9.332031 15.027344 9.332031 C 11.226562 9.332031 8.160156 12.3125 8.160156 16 C 8.160156 19.6875 11.226562 22.667969 15.027344 22.667969 C 16.113281 22.667969 17.136719 22.421875 18.046875 21.992188 L 20.804688 23.636719 C 20.128906 24.121094 19.390625 24.527344 18.601562 24.835938 L 18.195312 27.496094 C 18.152344 27.746094 17.933594 27.945312 17.675781 27.988281 L 17.5625 28 L 12.492188 28 C 12.203125 28 11.972656 27.835938 11.886719 27.601562 L 11.855469 27.496094 L 11.472656 24.964844 C 10.417969 24.59375 9.449219 24.058594 8.597656 23.390625 L 6.074219 24.351562 C 5.808594 24.4375 5.523438 24.371094 5.351562 24.179688 L 5.289062 24.089844 L 2.753906 19.9375 C 2.617188 19.703125 2.660156 19.4375 2.824219 19.246094 L 2.90625 19.167969 L 5.042969 17.582031 C 4.9375 17.019531 4.882812 16.4375 4.882812 15.847656 C 4.882812 15.347656 4.921875 14.859375 4.996094 14.382812 L 2.90625 12.832031 C 2.683594 12.664062 2.617188 12.402344 2.703125 12.164062 L 2.753906 12.0625 L 5.289062 7.910156 C 5.445312 7.679688 5.714844 7.578125 5.96875 7.621094 L 6.074219 7.648438 L 8.339844 8.511719 C 9.265625 7.734375 10.34375 7.117188 11.519531 6.710938 L 11.855469 4.503906 C 11.902344 4.253906 12.121094 4.054688 12.378906 4.011719 L 12.492188 4 Z M 11.8125 12.003906 C 13.488281 10.75 15.902344 10.527344 17.824219 11.691406 C 19.648438 12.800781 20.523438 14.757812 20.238281 16.660156 L 28.976562 21.964844 C 29.34375 22.121094 29.46875 22.652344 29.152344 23.042969 L 27.769531 25.1875 C 27.53125 25.5625 27.0625 25.664062 26.679688 25.433594 L 17.9375 20.128906 C 16.304688 21.210938 14.109375 21.304688 12.28125 20.199219 C 10.363281 19.03125 9.429688 16.847656 9.933594 14.816406 L 14.144531 17.308594 L 15.945312 14.507812 Z M 11.8125 12.003906 "/>
</svg>
