<?xml version="1.0" encoding="UTF-8"?>
<svg xmlns="http://www.w3.org/2000/svg" xmlns:xlink="http://www.w3.org/1999/xlink" width="32" height="32" viewBox="0 0 32 32">
<path fill-rule="nonzero" fill="rgb(68.235294%, 79.607843%, 98.039216%)" fill-opacity="1" d="M 9.347656 2.667969 L 12.011719 2.667969 L 12.011719 6.667969 L 9.347656 6.667969 Z M 9.347656 2.667969 "/>
<path fill-rule="nonzero" fill="rgb(68.235294%, 79.607843%, 98.039216%)" fill-opacity="1" d="M 14.679688 2.667969 L 17.347656 2.667969 L 17.347656 6.667969 L 14.679688 6.667969 Z M 14.679688 2.667969 "/>
<path fill-rule="nonzero" fill="rgb(68.235294%, 79.607843%, 98.039216%)" fill-opacity="1" d="M 20.011719 2.667969 L 22.679688 2.667969 L 22.679688 6.667969 L 20.011719 6.667969 Z M 20.011719 2.667969 "/>
<path fill-rule="nonzero" fill="rgb(25.882353%, 52.156863%, 95.686275%)" fill-opacity="1" d="M 9.347656 25.332031 L 12.011719 25.332031 L 12.011719 29.332031 L 9.347656 29.332031 Z M 9.347656 25.332031 "/>
<path fill-rule="nonzero" fill="rgb(25.882353%, 52.156863%, 95.686275%)" fill-opacity="1" d="M 14.679688 25.332031 L 17.347656 25.332031 L 17.347656 29.332031 L 14.679688 29.332031 Z M 14.679688 25.332031 "/>
<path fill-rule="nonzero" fill="rgb(25.882353%, 52.156863%, 95.686275%)" fill-opacity="1" d="M 20.011719 25.332031 L 22.679688 25.332031 L 22.679688 29.332031 L 20.011719 29.332031 Z M 20.011719 25.332031 "/>
<path fill-rule="nonzero" fill="rgb(25.882353%, 52.156863%, 95.686275%)" fill-opacity="1" d="M 25.332031 20 L 29.332031 20 L 29.332031 22.667969 L 25.332031 22.667969 Z M 25.332031 20 "/>
<path fill-rule="nonzero" fill="rgb(25.882353%, 52.156863%, 95.686275%)" fill-opacity="1" d="M 25.332031 14.667969 L 29.332031 14.667969 L 29.332031 17.332031 L 25.332031 17.332031 Z M 25.332031 14.667969 "/>
<path fill-rule="nonzero" fill="rgb(25.882353%, 52.156863%, 95.686275%)" fill-opacity="1" d="M 25.332031 9.332031 L 29.332031 9.332031 L 29.332031 12 L 25.332031 12 Z M 25.332031 9.332031 "/>
<path fill-rule="nonzero" fill="rgb(68.235294%, 79.607843%, 98.039216%)" fill-opacity="1" d="M 2.667969 20 L 6.667969 20 L 6.667969 22.667969 L 2.667969 22.667969 Z M 2.667969 20 "/>
<path fill-rule="nonzero" fill="rgb(68.235294%, 79.607843%, 98.039216%)" fill-opacity="1" d="M 2.667969 14.667969 L 6.667969 14.667969 L 6.667969 17.332031 L 2.667969 17.332031 Z M 2.667969 14.667969 "/>
<path fill-rule="nonzero" fill="rgb(68.235294%, 79.607843%, 98.039216%)" fill-opacity="1" d="M 2.667969 9.332031 L 6.667969 9.332031 L 6.667969 12 L 2.667969 12 Z M 2.667969 9.332031 "/>
<path fill-rule="nonzero" fill="rgb(40%, 61.568627%, 96.470588%)" fill-opacity="1" d="M 14.667969 17.332031 L 12 17.332031 L 12 9.332031 L 9.332031 9.332031 L 9.332031 20 L 14.667969 20 L 14.667969 24 L 17.332031 24 L 17.332031 20 L 22.667969 20 L 22.667969 9.332031 L 20 9.332031 L 20 17.332031 L 17.332031 17.332031 L 17.332031 8 L 14.667969 8 Z M 5.332031 26.667969 L 5.332031 5.332031 L 26.667969 5.332031 L 26.667969 26.667969 Z M 5.332031 26.667969 "/>
</svg>
