<?xml version="1.0" encoding="UTF-8"?>
<svg xmlns="http://www.w3.org/2000/svg" xmlns:xlink="http://www.w3.org/1999/xlink" width="32" height="32" viewBox="0 0 32 32">
<path fill-rule="nonzero" fill="rgb(68.235294%, 79.607843%, 98.039216%)" fill-opacity="1" d="M 16 13.972656 L 16 8.09375 C 16 7.8125 15.773438 7.585938 15.492188 7.585938 L 13.492188 7.585938 C 13.359375 7.585938 13.234375 7.640625 13.140625 7.734375 C 13.046875 7.832031 12.996094 7.960938 13 8.09375 L 13 10.933594 L 14.332031 13.972656 Z M 16 13.972656 "/>
<path fill-rule="nonzero" fill="rgb(40%, 61.568627%, 96.470588%)" fill-opacity="1" d="M 11.800781 23.347656 C 10.785156 23.339844 9.863281 23.949219 9.472656 24.886719 C 9.082031 25.824219 9.296875 26.90625 10.015625 27.625 C 10.734375 28.34375 11.8125 28.558594 12.753906 28.167969 C 13.691406 27.773438 14.296875 26.855469 14.292969 25.839844 C 14.285156 24.464844 13.175781 23.355469 11.800781 23.347656 Z M 24.171875 23.347656 C 23.15625 23.339844 22.238281 23.949219 21.847656 24.886719 C 21.457031 25.824219 21.667969 26.90625 22.386719 27.625 C 23.105469 28.34375 24.1875 28.558594 25.125 28.167969 C 26.0625 27.773438 26.671875 26.855469 26.667969 25.839844 C 26.667969 24.464844 25.550781 23.347656 24.171875 23.347656 Z M 19.894531 6.761719 C 19.894531 6.480469 19.667969 6.253906 19.386719 6.253906 L 17.332031 6.253906 C 17.199219 6.253906 17.074219 6.308594 16.980469 6.402344 C 16.886719 6.496094 16.835938 6.625 16.839844 6.761719 L 16.839844 13.972656 L 19.839844 13.972656 Z M 19.894531 6.761719 "/>
<path fill-rule="nonzero" fill="rgb(25.882353%, 52.156863%, 95.686275%)" fill-opacity="1" d="M 13.71875 16.972656 L 12.253906 20 L 26.667969 20 C 27.21875 20 27.667969 20.449219 27.667969 21 C 27.667969 21.550781 27.21875 22 26.667969 22 L 12.253906 22 C 11.566406 22.003906 10.925781 21.648438 10.558594 21.066406 C 10.1875 20.484375 10.144531 19.75 10.453125 19.132812 L 12 16 L 7.253906 5.652344 L 4.375 5.652344 C 3.820312 5.652344 3.375 5.207031 3.375 4.652344 C 3.375 4.101562 3.820312 3.652344 4.375 3.652344 L 7.90625 3.652344 C 8.296875 3.65625 8.652344 3.882812 8.8125 4.238281 L 13.734375 14.972656 L 22.441406 14.972656 L 26.761719 7.28125 C 26.929688 6.960938 27.257812 6.757812 27.621094 6.75 C 27.984375 6.742188 28.320312 6.929688 28.503906 7.242188 C 28.6875 7.554688 28.691406 7.941406 28.507812 8.253906 L 24.171875 16 C 23.824219 16.632812 23.160156 17.023438 22.441406 17.027344 Z M 23.800781 10.507812 L 23.800781 4.1875 C 23.800781 4.054688 23.746094 3.925781 23.652344 3.832031 C 23.554688 3.738281 23.425781 3.691406 23.292969 3.691406 L 21.332031 3.691406 C 21.203125 3.691406 21.074219 3.742188 20.980469 3.832031 C 20.886719 3.925781 20.835938 4.054688 20.839844 4.1875 L 20.839844 13.972656 L 21.894531 13.972656 Z M 23.800781 10.507812 "/>
</svg>
