<?xml version="1.0" encoding="UTF-8"?>
<svg xmlns="http://www.w3.org/2000/svg" xmlns:xlink="http://www.w3.org/1999/xlink" width="32" height="32" viewBox="0 0 32 32">
<path fill-rule="nonzero" fill="rgb(40%, 61.568627%, 96.470588%)" fill-opacity="1" d="M 24 16 L 26.667969 16 L 26.667969 21.332031 L 24 21.332031 Z M 24 16 "/>
<path fill-rule="nonzero" fill="rgb(40%, 61.568627%, 96.470588%)" fill-opacity="1" d="M 14.667969 16 L 17.332031 16 L 17.332031 21.332031 L 14.667969 21.332031 Z M 14.667969 16 "/>
<path fill-rule="nonzero" fill="rgb(40%, 61.568627%, 96.470588%)" fill-opacity="1" d="M 5.332031 16 L 8 16 L 8 21.332031 L 5.332031 21.332031 Z M 5.332031 16 "/>
<path fill-rule="nonzero" fill="rgb(25.882353%, 52.156863%, 95.686275%)" fill-opacity="1" d="M 17.332031 14.667969 L 14.667969 14.667969 L 14.667969 9.332031 L 17.332031 9.332031 Z M 17.332031 14.667969 "/>
<path fill-rule="nonzero" fill="rgb(40%, 61.568627%, 96.470588%)" fill-opacity="1" d="M 5.332031 14.667969 L 26.667969 14.667969 L 26.667969 17.332031 L 5.332031 17.332031 Z M 5.332031 14.667969 "/>
<path fill-rule="nonzero" fill="rgb(68.235294%, 79.607843%, 98.039216%)" fill-opacity="1" d="M 8 2.667969 L 24 2.667969 L 24 9.332031 L 8 9.332031 Z M 8 2.667969 "/>
<path fill-rule="nonzero" fill="rgb(40%, 61.568627%, 96.470588%)" fill-opacity="1" d="M 16 2.667969 L 24 2.667969 L 24 9.332031 L 16 9.332031 Z M 16 2.667969 "/>
<path fill-rule="nonzero" fill="rgb(68.235294%, 79.607843%, 98.039216%)" fill-opacity="1" d="M 21.332031 21.332031 L 29.332031 21.332031 L 29.332031 29.332031 L 21.332031 29.332031 Z M 21.332031 21.332031 "/>
<path fill-rule="nonzero" fill="rgb(68.235294%, 79.607843%, 98.039216%)" fill-opacity="1" d="M 2.667969 21.332031 L 10.667969 21.332031 L 10.667969 29.332031 L 2.667969 29.332031 Z M 2.667969 21.332031 "/>
<path fill-rule="nonzero" fill="rgb(40%, 61.568627%, 96.470588%)" fill-opacity="1" d="M 6.667969 21.332031 L 10.667969 21.332031 L 10.667969 29.332031 L 6.667969 29.332031 Z M 6.667969 21.332031 "/>
<path fill-rule="nonzero" fill="rgb(68.235294%, 79.607843%, 98.039216%)" fill-opacity="1" d="M 12 21.332031 L 20 21.332031 L 20 29.332031 L 12 29.332031 Z M 12 21.332031 "/>
<path fill-rule="nonzero" fill="rgb(40%, 61.568627%, 96.470588%)" fill-opacity="1" d="M 16 21.332031 L 20 21.332031 L 20 29.332031 L 16 29.332031 Z M 16 21.332031 "/>
<path fill-rule="nonzero" fill="rgb(40%, 61.568627%, 96.470588%)" fill-opacity="1" d="M 25.332031 21.332031 L 29.332031 21.332031 L 29.332031 29.332031 L 25.332031 29.332031 Z M 25.332031 21.332031 "/>
</svg>
