<?xml version="1.0" encoding="UTF-8"?>
<svg xmlns="http://www.w3.org/2000/svg" xmlns:xlink="http://www.w3.org/1999/xlink" width="32" height="32" viewBox="0 0 32 32">
<path fill-rule="nonzero" fill="rgb(25.882353%, 52.156863%, 95.686275%)" fill-opacity="1" d="M 26.476562 20 C 26.554688 20 26.632812 20.003906 26.707031 20.007812 L 26.476562 20 C 26.582031 20 26.6875 20.007812 26.789062 20.019531 C 26.839844 20.023438 26.890625 20.03125 26.941406 20.039062 C 26.964844 20.042969 26.988281 20.046875 27.011719 20.050781 C 27.066406 20.0625 27.125 20.078125 27.179688 20.089844 C 27.191406 20.09375 27.203125 20.097656 27.21875 20.101562 C 28.4375 20.445312 29.332031 21.613281 29.332031 23 C 29.332031 24.65625 28.054688 26 26.476562 26 C 24.898438 26 23.617188 24.65625 23.617188 23 C 23.617188 21.835938 24.25 20.828125 25.167969 20.332031 L 25.214844 20.308594 C 25.257812 20.285156 25.304688 20.261719 25.351562 20.242188 L 25.167969 20.332031 C 25.246094 20.289062 25.328125 20.25 25.410156 20.214844 C 25.457031 20.195312 25.503906 20.179688 25.550781 20.160156 C 25.574219 20.152344 25.597656 20.144531 25.617188 20.136719 C 25.660156 20.125 25.699219 20.113281 25.738281 20.101562 C 25.769531 20.09375 25.800781 20.085938 25.832031 20.078125 C 25.878906 20.066406 25.925781 20.054688 25.972656 20.046875 C 25.992188 20.042969 26.011719 20.039062 26.035156 20.035156 C 26.089844 20.027344 26.144531 20.019531 26.203125 20.011719 C 26.21875 20.011719 26.234375 20.011719 26.253906 20.007812 C 26.324219 20.003906 26.402344 20 26.476562 20 Z M 5.523438 20 C 5.605469 20 5.6875 20.003906 5.769531 20.011719 L 5.523438 20 C 5.628906 20 5.730469 20.003906 5.832031 20.015625 C 5.886719 20.023438 5.9375 20.03125 5.988281 20.039062 C 6.023438 20.046875 6.050781 20.050781 6.082031 20.058594 C 6.132812 20.066406 6.183594 20.078125 6.230469 20.09375 C 6.257812 20.097656 6.28125 20.105469 6.304688 20.113281 C 6.378906 20.136719 6.453125 20.160156 6.523438 20.1875 C 6.53125 20.191406 6.539062 20.195312 6.542969 20.195312 C 6.609375 20.222656 6.671875 20.25 6.730469 20.28125 C 6.742188 20.285156 6.75 20.289062 6.757812 20.292969 C 7.71875 20.777344 8.382812 21.808594 8.382812 23 C 8.382812 24.65625 7.101562 26 5.523438 26 C 3.945312 26 2.667969 24.65625 2.667969 23 C 2.667969 21.507812 3.703125 20.273438 5.058594 20.039062 C 5.078125 20.035156 5.097656 20.03125 5.117188 20.03125 C 5.125 20.027344 5.136719 20.027344 5.144531 20.027344 C 5.269531 20.007812 5.394531 20 5.523438 20 Z M 20.613281 15 C 21.058594 15 21.417969 15.371094 21.417969 15.824219 C 21.417969 15.953125 21.390625 16.070312 21.339844 16.179688 L 21.339844 16.183594 L 17.152344 23.0625 C 17.074219 23.226562 16.972656 23.375 16.851562 23.503906 C 16.5625 23.808594 16.152344 24 15.703125 24 C 14.816406 24 14.09375 23.261719 14.09375 22.351562 C 14.09375 21.9375 14.242188 21.5625 14.484375 21.273438 L 14.546875 21.207031 L 14.539062 21.199219 L 20.089844 15.191406 C 20.234375 15.074219 20.414062 15 20.613281 15 Z M 20.144531 9 C 24.019531 10.617188 26.828125 14.441406 27.179688 18.992188 C 26.949219 18.949219 26.714844 18.925781 26.476562 18.925781 C 26.007812 18.925781 25.554688 19.011719 25.140625 19.175781 C 24.859375 15.53125 22.660156 12.460938 19.601562 11.078125 C 19.898438 10.558594 20.085938 9.960938 20.132812 9.324219 L 20.144531 9 L 20.144531 8.992188 Z M 12.390625 8.757812 C 12.386719 8.835938 12.382812 8.917969 12.382812 9 C 12.382812 9.675781 12.542969 10.316406 12.820312 10.875 C 9.515625 12.136719 7.09375 15.324219 6.789062 19.148438 C 6.394531 19.003906 5.96875 18.925781 5.523438 18.925781 C 5.257812 18.925781 5 18.953125 4.75 19.007812 C 5.09375 14.453125 7.902344 10.625 11.777344 8.992188 L 12.105469 8.863281 Z M 16.265625 6 C 17.71875 6 18.917969 7.140625 19.097656 8.613281 L 19.113281 8.757812 C 19.117188 8.835938 19.121094 8.917969 19.121094 9 C 19.121094 9.082031 19.117188 9.164062 19.113281 9.242188 L 19.121094 9 C 19.121094 9.109375 19.117188 9.21875 19.105469 9.324219 C 19.101562 9.375 19.09375 9.429688 19.085938 9.480469 C 19.082031 9.511719 19.074219 9.539062 19.070312 9.570312 C 19.0625 9.617188 19.050781 9.664062 19.039062 9.710938 C 19.035156 9.742188 19.027344 9.769531 19.019531 9.800781 C 18.957031 10.035156 18.867188 10.257812 18.757812 10.46875 C 18.75 10.480469 18.742188 10.496094 18.734375 10.511719 C 18.703125 10.566406 18.671875 10.621094 18.636719 10.671875 C 18.628906 10.683594 18.625 10.691406 18.617188 10.703125 C 18.101562 11.488281 17.238281 12 16.265625 12 C 15.082031 12 14.070312 11.246094 13.632812 10.175781 C 13.625 10.144531 13.613281 10.117188 13.601562 10.089844 C 13.589844 10.054688 13.578125 10.019531 13.566406 9.984375 C 13.554688 9.949219 13.542969 9.914062 13.53125 9.878906 C 13.5 9.761719 13.472656 9.644531 13.449219 9.523438 C 13.445312 9.503906 13.445312 9.480469 13.441406 9.457031 C 13.417969 9.308594 13.40625 9.15625 13.40625 9 C 13.40625 8.824219 13.421875 8.652344 13.449219 8.488281 C 13.453125 8.472656 13.453125 8.457031 13.457031 8.441406 C 13.707031 7.050781 14.867188 6 16.265625 6 Z M 16.265625 6 "/>
</svg>
