<?xml version="1.0" encoding="UTF-8"?>
<svg xmlns="http://www.w3.org/2000/svg" xmlns:xlink="http://www.w3.org/1999/xlink" width="32" height="32" viewBox="0 0 32 32">
<path fill-rule="nonzero" fill="rgb(20%, 40.392157%, 83.921569%)" fill-opacity="1" d="M 17.199219 23.464844 C 17.601562 25.066406 19.066406 26.265625 20.800781 26.265625 C 22.933594 26.265625 24.535156 24.535156 24.535156 22.535156 C 24.535156 20.535156 22.800781 18.800781 20.800781 18.800781 C 19.066406 18.800781 17.601562 20 17.199219 21.601562 L 7.464844 21.601562 L 7.464844 23.601562 L 17.199219 23.601562 Z M 29.066406 29.066406 L 2.933594 29.066406 L 2.933594 14.933594 L 9.867188 14.933594 L 12 17.066406 L 20 17.066406 L 22 15.066406 L 28.933594 15.066406 L 28.933594 29.066406 Z M 10.535156 23.464844 L 8.535156 23.464844 L 8.535156 25.464844 L 10.535156 25.464844 Z M 13.464844 23.464844 L 11.464844 23.464844 L 11.464844 25.464844 L 13.464844 25.464844 Z M 18.933594 22.535156 C 18.933594 23.601562 19.734375 24.398438 20.800781 24.398438 C 21.867188 24.398438 22.667969 23.601562 22.667969 22.535156 C 22.667969 21.464844 21.867188 20.667969 20.800781 20.667969 C 19.734375 20.667969 18.933594 21.464844 18.933594 22.535156 Z M 18.933594 22.535156 "/>
<path fill-rule="nonzero" fill="rgb(36.078431%, 52.156863%, 87.058824%)" fill-opacity="1" d="M 14.933594 16 L 12.535156 16 L 10.800781 14 L 5.066406 14 L 5.066406 10 L 14.933594 10 Z M 14.933594 16 "/>
<path fill-rule="nonzero" fill="rgb(52.156863%, 64.313725%, 90.196078%)" fill-opacity="1" d="M 21.066406 14.398438 L 19.332031 16 L 16 16 L 16 9.066406 L 8 9.066406 L 8 6.933594 L 21.066406 6.933594 Z M 21.066406 14.398438 "/>
<path fill-rule="nonzero" fill="rgb(52.156863%, 64.313725%, 90.196078%)" fill-opacity="1" d="M 26.933594 14 L 22 14 L 22 6 L 13.066406 6 L 13.066406 4 L 26.933594 4 Z M 26.933594 14 "/>
</svg>
