<svg xmlns="http://www.w3.org/2000/svg" width="24px" height="24px" viewBox="0 0 24 24"><title>Icon_24px_LoadBalancing_Color</title><g data-name="Product Icons"><g data-name="colored-32/load-balancing"><rect fill="none" width="24" height="24"/><g><rect fill="#669df6" x="18" y="12" width="2" height="4"/><rect fill="#669df6" x="11" y="12" width="2" height="4"/><rect fill="#669df6" x="4" y="12" width="2" height="4"/><polygon id="Fill-2" fill="#4285f4" points="13 11 11 11 11 7 13 7 13 11"/><rect fill="#669df6" x="4" y="11" width="16" height="2"/><rect fill="#aecbfa" x="6" y="2" width="12" height="5"/><rect fill="#669df6" x="12" y="2" width="6" height="5"/><rect fill="#aecbfa" x="16" y="16" width="6" height="6"/><rect fill="#aecbfa" x="2" y="16" width="6" height="6"/><rect fill="#669df6" x="5" y="16" width="3" height="6"/><rect fill="#aecbfa" x="9" y="16" width="6" height="6"/><rect fill="#669df6" x="12" y="16" width="3" height="6"/><rect fill="#669df6" x="19" y="16" width="3" height="6"/></g></g></g></svg>