<?xml version="1.0" encoding="UTF-8"?>
<svg xmlns="http://www.w3.org/2000/svg" xmlns:xlink="http://www.w3.org/1999/xlink" width="32" height="32" viewBox="0 0 32 32">
<path fill-rule="evenodd" fill="rgb(40%, 61.568627%, 96.470588%)" fill-opacity="1" d="M 8.90625 21.734375 L 5.691406 16.054688 L 8.90625 10.386719 L 5.894531 10.386719 L 2.667969 16.054688 L 5.894531 21.734375 Z M 8.90625 21.734375 "/>
<path fill-rule="evenodd" fill="rgb(25.882353%, 52.156863%, 95.686275%)" fill-opacity="1" d="M 6.09375 16.746094 L 5.691406 16.054688 L 2.667969 16.054688 L 4.148438 18.679688 Z M 6.09375 16.746094 "/>
<path fill-rule="evenodd" fill="rgb(68.235294%, 79.607843%, 98.039216%)" fill-opacity="1" d="M 20 8.492188 L 12.160156 8.492188 L 7.746094 16 L 12.160156 23.453125 L 20 23.453125 L 24.386719 16 Z M 16.09375 19.640625 C 14.152344 19.625 12.589844 18.042969 12.601562 16.101562 C 12.609375 14.160156 14.1875 12.59375 16.128906 12.601562 C 18.070312 12.605469 19.640625 14.179688 19.640625 16.121094 C 19.632812 18.070312 18.042969 19.648438 16.09375 19.640625 Z M 16.09375 19.640625 "/>
<path fill-rule="evenodd" fill="rgb(68.235294%, 79.607843%, 98.039216%)" fill-opacity="1" d="M 5.691406 16.078125 L 8.90625 10.386719 L 5.894531 10.386719 L 2.667969 16.078125 L 4.148438 18.707031 Z M 5.691406 16.078125 "/>
<path fill-rule="evenodd" fill="rgb(40%, 61.568627%, 96.470588%)" fill-opacity="1" d="M 20 8.601562 L 17.734375 13.039062 C 19.160156 13.808594 19.878906 15.449219 19.488281 17.019531 C 19.09375 18.59375 17.6875 19.699219 16.066406 19.707031 C 15.519531 19.710938 14.984375 19.585938 14.492188 19.347656 L 12.160156 23.507812 L 20 23.507812 L 24.386719 16 Z M 20 8.601562 "/>
<path fill-rule="evenodd" fill="rgb(40%, 61.568627%, 96.470588%)" fill-opacity="1" d="M 23.09375 10.386719 L 26.308594 16.054688 L 23.09375 21.734375 L 26.121094 21.734375 L 29.332031 16.054688 L 26.121094 10.386719 Z M 23.09375 10.386719 "/>
<path fill-rule="evenodd" fill="rgb(25.882353%, 52.156863%, 95.686275%)" fill-opacity="1" d="M 25.90625 15.375 L 26.308594 16.054688 L 29.332031 16.054688 L 27.851562 13.425781 Z M 25.90625 15.375 "/>
<path fill-rule="evenodd" fill="rgb(68.235294%, 79.607843%, 98.039216%)" fill-opacity="1" d="M 26.308594 16.027344 L 23.09375 21.734375 L 26.121094 21.734375 L 29.332031 16.027344 L 27.851562 13.398438 Z M 26.308594 16.027344 "/>
</svg>
