<?xml version="1.0" encoding="UTF-8"?>
<svg xmlns="http://www.w3.org/2000/svg" xmlns:xlink="http://www.w3.org/1999/xlink" width="32" height="32" viewBox="0 0 32 32">
<path fill-rule="nonzero" fill="rgb(40%, 61.568627%, 96.470588%)" fill-opacity="1" d="M 23.320312 16.535156 L 23.320312 25.464844 C 23.320312 25.761719 23.082031 26 22.785156 26 L 6.535156 26 C 6.238281 26 6 25.761719 6 25.464844 L 6 9.199219 C 6 8.90625 6.238281 8.667969 6.535156 8.667969 L 15.464844 8.667969 C 15.761719 8.667969 16 8.429688 16 8.132812 L 16 5.867188 C 16 5.570312 15.761719 5.332031 15.464844 5.332031 L 3.199219 5.332031 C 2.90625 5.332031 2.667969 5.570312 2.667969 5.867188 L 2.667969 28.800781 C 2.667969 29.09375 2.90625 29.332031 3.199219 29.332031 L 26.132812 29.332031 C 26.429688 29.332031 26.667969 29.09375 26.667969 28.800781 L 26.667969 16.535156 C 26.667969 16.238281 26.429688 16 26.132812 16 L 23.851562 16 C 23.558594 16 23.320312 16.238281 23.320312 16.535156 Z M 23.320312 16.535156 "/>
<path fill-rule="nonzero" fill="rgb(25.882353%, 52.156863%, 95.686275%)" fill-opacity="1" d="M 18.667969 3.199219 L 18.667969 12.800781 C 18.667969 13.09375 18.90625 13.332031 19.199219 13.332031 L 28.800781 13.332031 C 29.09375 13.332031 29.332031 13.09375 29.332031 12.800781 L 29.332031 3.199219 C 29.332031 2.90625 29.09375 2.667969 28.800781 2.667969 L 19.199219 2.667969 C 18.90625 2.667969 18.667969 2.90625 18.667969 3.199219 Z M 26.132812 8.667969 L 23.851562 8.667969 C 23.558594 8.667969 23.320312 8.429688 23.320312 8.132812 L 23.320312 5.867188 C 23.320312 5.570312 23.558594 5.332031 23.851562 5.332031 L 26.132812 5.332031 C 26.429688 5.332031 26.667969 5.570312 26.667969 5.867188 L 26.667969 8.132812 C 26.667969 8.429688 26.429688 8.667969 26.132812 8.667969 Z M 26.132812 8.667969 "/>
</svg>
