<?xml version="1.0" encoding="UTF-8"?>
<svg xmlns="http://www.w3.org/2000/svg" xmlns:xlink="http://www.w3.org/1999/xlink" width="32" height="32" viewBox="0 0 32 32">
<path fill-rule="evenodd" fill="rgb(36.078431%, 52.156863%, 87.058824%)" fill-opacity="1" d="M 8 3.199219 L 1.066406 7.199219 L 1.066406 25.464844 L 8 29.464844 L 8 26 L 4 23.734375 L 4 8.933594 L 8 6.667969 Z M 8 3.199219 "/>
<path fill-rule="evenodd" fill="rgb(20%, 40.392157%, 83.921569%)" fill-opacity="1" d="M 1.066406 10.667969 L 1.066406 22 L 4 23.734375 L 4 8.933594 Z M 1.066406 10.667969 "/>
<path fill-rule="evenodd" fill="rgb(20%, 40.392157%, 83.921569%)" fill-opacity="1" d="M 1.066406 10.667969 L 4 10 L 4 8.933594 Z M 1.066406 10.667969 "/>
<path fill-rule="evenodd" fill="rgb(36.078431%, 52.156863%, 87.058824%)" fill-opacity="1" d="M 24 3.199219 L 24 6.667969 L 28 8.933594 L 28 23.734375 L 24 26 L 24 29.464844 L 30.933594 25.464844 L 30.933594 7.199219 Z M 24 3.199219 "/>
<path fill-rule="evenodd" fill="rgb(20%, 40.392157%, 83.921569%)" fill-opacity="1" d="M 28 23.734375 L 30.933594 22 L 30.933594 10.667969 L 28 8.933594 Z M 28 23.734375 "/>
<path fill-rule="evenodd" fill="rgb(20%, 40.392157%, 83.921569%)" fill-opacity="1" d="M 28 10 L 30.933594 10.667969 L 28 8.933594 Z M 28 10 "/>
<path fill-rule="evenodd" fill="rgb(20%, 40.392157%, 83.921569%)" fill-opacity="1" d="M 28 22.800781 L 28 23.734375 L 30.933594 22 Z M 28 22.800781 "/>
<path fill-rule="evenodd" fill="rgb(36.078431%, 52.156863%, 87.058824%)" fill-opacity="1" d="M 16 7.332031 L 12 9.464844 L 16 11.601562 L 20 9.464844 Z M 16 7.332031 "/>
<path fill-rule="evenodd" fill="rgb(20%, 40.392157%, 83.921569%)" fill-opacity="1" d="M 16.535156 16.535156 L 20.398438 14.398438 L 20.398438 10.265625 L 16.535156 12.398438 Z M 16.535156 16.535156 "/>
<path fill-rule="evenodd" fill="rgb(20%, 40.392157%, 83.921569%)" fill-opacity="1" d="M 15.601562 12.398438 L 11.601562 10.265625 L 11.601562 14.398438 L 15.601562 16.535156 Z M 15.601562 12.398438 "/>
<path fill-rule="evenodd" fill="rgb(36.078431%, 52.156863%, 87.058824%)" fill-opacity="1" d="M 11.414062 15.167969 L 7.546875 17.300781 L 11.414062 19.433594 L 15.148438 17.300781 Z M 11.414062 15.167969 "/>
<path fill-rule="evenodd" fill="rgb(20%, 40.392157%, 83.921569%)" fill-opacity="1" d="M 11.679688 24.367188 L 15.546875 22.234375 L 15.546875 17.96875 L 11.679688 20.101562 Z M 11.679688 24.367188 "/>
<path fill-rule="evenodd" fill="rgb(20%, 40.392157%, 83.921569%)" fill-opacity="1" d="M 11.011719 20.101562 L 7.148438 17.96875 L 7.148438 22.234375 L 11.011719 24.367188 Z M 11.011719 20.101562 "/>
<path fill-rule="evenodd" fill="rgb(36.078431%, 52.156863%, 87.058824%)" fill-opacity="1" d="M 20.691406 15.167969 L 16.828125 17.300781 L 20.691406 19.433594 L 24.558594 17.300781 Z M 20.691406 15.167969 "/>
<path fill-rule="evenodd" fill="rgb(20%, 40.392157%, 83.921569%)" fill-opacity="1" d="M 21.09375 24.367188 L 24.960938 22.234375 L 24.960938 17.96875 L 21.09375 20.101562 Z M 21.09375 24.367188 "/>
<path fill-rule="evenodd" fill="rgb(20%, 40.392157%, 83.921569%)" fill-opacity="1" d="M 20.292969 20.101562 L 16.425781 17.96875 L 16.425781 22.234375 L 20.292969 24.367188 Z M 20.292969 20.101562 "/>
</svg>
