<?xml version="1.0" encoding="UTF-8"?>
<svg xmlns="http://www.w3.org/2000/svg" xmlns:xlink="http://www.w3.org/1999/xlink" width="32" height="32" viewBox="0 0 32 32">
<path fill-rule="nonzero" fill="rgb(40%, 61.568627%, 96.470588%)" fill-opacity="1" d="M 16 22.667969 C 15.578125 22.695312 15.171875 22.511719 14.917969 22.175781 C 14.664062 21.839844 14.59375 21.398438 14.734375 21 L 10.878906 17.121094 C 10.609375 17.257812 10.304688 17.332031 10 17.332031 C 8.980469 17.335938 8.125 16.574219 8.007812 15.5625 C 7.890625 14.550781 8.550781 13.613281 9.542969 13.386719 C 10.535156 13.15625 11.539062 13.707031 11.878906 14.667969 L 16 14.667969 L 16 13.332031 L 15.332031 13.332031 L 15.332031 10.464844 C 14.832031 10.15625 14.59375 9.554688 14.746094 8.984375 C 14.902344 8.414062 15.410156 8.015625 16 8 L 16 2.667969 L 5.332031 6.667969 L 5.332031 14.734375 C 5.332031 21.480469 9.878906 27.800781 16 29.398438 Z M 16 22.667969 "/>
<path fill-rule="nonzero" fill="rgb(40%, 61.568627%, 96.470588%)" fill-opacity="1" d="M 11.8125 16.160156 L 15.332031 19.71875 L 15.332031 17.332031 L 16 17.332031 L 16 16 L 11.878906 16 Z M 11.8125 16.160156 "/>
<path fill-rule="nonzero" fill="rgb(40%, 61.568627%, 96.470588%)" fill-opacity="1" d="M 20.199219 14.480469 L 16.667969 10.945312 L 16.667969 13.332031 L 16 13.332031 L 16 14.667969 L 20.121094 14.667969 Z M 20.199219 14.480469 "/>
<path fill-rule="nonzero" fill="rgb(25.882353%, 52.156863%, 95.686275%)" fill-opacity="1" d="M 17.332031 9.332031 C 17.324219 9.441406 17.304688 9.550781 17.265625 9.652344 L 21.148438 13.535156 C 21.894531 13.175781 22.785156 13.316406 23.386719 13.890625 C 23.984375 14.460938 24.171875 15.34375 23.855469 16.105469 C 23.535156 16.871094 22.777344 17.363281 21.949219 17.335938 C 21.121094 17.3125 20.394531 16.78125 20.121094 16 L 16 16 L 16 17.332031 L 16.667969 17.332031 L 16.667969 20.199219 C 17.167969 20.511719 17.40625 21.113281 17.253906 21.683594 C 17.097656 22.25 16.589844 22.652344 16 22.667969 L 16 29.332031 C 22.121094 27.800781 26.667969 21.480469 26.667969 14.734375 L 26.667969 6.667969 L 16 2.667969 L 16 8 C 16.738281 8 17.332031 8.597656 17.332031 9.332031 Z M 17.332031 9.332031 "/>
</svg>
