<?xml version="1.0" encoding="UTF-8"?>
<svg xmlns="http://www.w3.org/2000/svg" xmlns:xlink="http://www.w3.org/1999/xlink" width="32" height="32" viewBox="0 0 32 32">
<path fill-rule="evenodd" fill="rgb(25.882353%, 52.156863%, 95.686275%)" fill-opacity="1" d="M 8.460938 18.007812 C 11.613281 18.007812 14.167969 20.5625 14.167969 23.714844 C 14.167969 26.863281 11.613281 29.417969 8.460938 29.417969 C 5.304688 29.417969 2.75 26.863281 2.75 23.714844 C 2.75 20.5625 5.304688 18.007812 8.460938 18.007812 Z M 8.414062 20.496094 L 7.542969 21.367188 L 9.382812 23.214844 L 5.238281 23.214844 L 5.238281 24.453125 L 9.386719 24.453125 L 7.542969 26.300781 L 8.414062 27.171875 L 11.738281 23.835938 Z M 29.417969 2.75 L 29.417969 19.449219 L 23.65625 19.449219 L 23.65625 25.199219 L 15.289062 25.203125 C 15.398438 24.707031 15.457031 24.195312 15.457031 23.667969 C 15.457031 23.363281 15.4375 23.058594 15.398438 22.761719 L 21.214844 22.761719 L 21.214844 17.007812 L 26.976562 17.007812 L 26.976562 5.1875 L 15.144531 5.1875 L 15.144531 10.941406 L 9.382812 10.941406 L 9.382812 16.753906 C 9.085938 16.714844 8.785156 16.695312 8.476562 16.695312 C 7.949219 16.695312 7.4375 16.753906 6.941406 16.863281 L 6.945312 8.503906 L 12.703125 8.503906 L 12.703125 2.75 Z M 24.597656 7.566406 L 24.597656 14.632812 L 18.835938 14.632812 L 18.835938 20.386719 L 14.636719 20.386719 C 13.984375 19.167969 12.984375 18.167969 11.765625 17.515625 L 11.765625 13.320312 L 17.523438 13.316406 L 17.523438 7.566406 Z M 24.597656 7.566406 "/>
</svg>
