<?xml version="1.0" encoding="UTF-8"?>
<svg xmlns="http://www.w3.org/2000/svg" xmlns:xlink="http://www.w3.org/1999/xlink" width="32" height="32" viewBox="0 0 32 32">
<path fill-rule="nonzero" fill="rgb(40%, 61.568627%, 96.470588%)" fill-opacity="1" d="M 21.773438 6.441406 L 14.414062 6.441406 L 16.375 9.546875 L 19.105469 9.546875 L 19.105469 11.320312 L 15.214844 11.320312 L 12.105469 6.441406 L 2.679688 6.441406 L 2.679688 12.214844 L 5.332031 12.214844 L 7.011719 9.105469 L 10.441406 9.105469 L 11.585938 10.878906 L 8.160156 10.878906 L 6.480469 13.988281 L 2.679688 13.988281 L 2.679688 17.441406 L 6.480469 17.441406 L 8.160156 20.652344 L 11.585938 20.652344 L 10.441406 22.441406 L 7.011719 22.441406 L 5.332031 19.320312 L 2.679688 19.320312 L 2.679688 25.105469 L 12.105469 25.105469 L 15.214844 20.214844 L 19.105469 20.214844 L 19.105469 21.988281 L 16.375 21.988281 L 14.414062 25.105469 L 21.773438 25.105469 L 21.773438 16.652344 L 13.226562 16.652344 L 12.121094 18.441406 L 9.667969 18.441406 L 11.347656 15.773438 L 9.667969 13.105469 L 12.121094 13.105469 L 13.1875 14.878906 L 21.773438 14.878906 Z M 21.773438 6.441406 "/>
<path fill-rule="nonzero" fill="rgb(25.882353%, 52.156863%, 95.686275%)" fill-opacity="1" d="M 29.332031 7.90625 L 24 11.785156 L 24 19.921875 L 29.332031 23.851562 Z M 29.332031 7.90625 "/>
</svg>
