<?xml version="1.0" encoding="UTF-8"?>
<svg xmlns="http://www.w3.org/2000/svg" xmlns:xlink="http://www.w3.org/1999/xlink" width="32" height="32" viewBox="0 0 32 32">
<path fill-rule="nonzero" fill="rgb(25.882353%, 52.156863%, 95.686275%)" fill-opacity="1" d="M 28.558594 12 L 28.09375 11.878906 L 26.667969 11.519531 L 26.546875 11.265625 C 26.480469 11.148438 26.425781 11.011719 26.359375 10.878906 C 26.292969 10.746094 26.238281 10.640625 26.171875 10.519531 L 25.960938 10.148438 L 25.746094 9.800781 L 25.519531 9.453125 C 25.441406 9.335938 25.359375 9.226562 25.265625 9.121094 C 25.1875 9.011719 25.105469 8.894531 25.011719 8.785156 L 24.746094 8.464844 L 24.480469 8.160156 L 24.132812 7.867188 L 23.839844 7.574219 L 23.519531 7.308594 L 23.214844 7.039062 L 22.878906 6.785156 L 22.546875 6.535156 L 22.199219 6.308594 L 21.851562 6.09375 L 21.480469 5.878906 L 21.121094 5.691406 L 20.734375 5.507812 L 20.480469 5.398438 L 20.09375 3.90625 L 20 3.441406 C 19.878906 2.976562 19.453125 2.65625 18.972656 2.667969 L 13.027344 2.667969 C 12.546875 2.65625 12.121094 2.976562 12 3.441406 L 11.878906 3.90625 L 11.519531 5.398438 L 11.265625 5.507812 L 10.878906 5.691406 L 10.519531 5.878906 L 10.148438 6.09375 L 9.800781 6.308594 L 9.453125 6.535156 L 9.121094 6.785156 L 8.785156 7.039062 L 8.464844 7.308594 L 8.160156 7.574219 L 7.574219 8.160156 L 7.308594 8.480469 C 7.210938 8.574219 7.121094 8.679688 7.039062 8.785156 C 6.945312 8.894531 6.867188 9.011719 6.785156 9.121094 C 6.695312 9.226562 6.609375 9.335938 6.535156 9.453125 L 6.308594 9.800781 L 6.09375 10.148438 L 5.878906 10.519531 C 5.878906 10.640625 5.746094 10.761719 5.691406 10.878906 C 5.640625 11 5.574219 11.148438 5.507812 11.265625 C 5.441406 11.386719 5.425781 11.441406 5.398438 11.519531 L 3.90625 11.90625 L 3.441406 12 C 2.976562 12.121094 2.65625 12.546875 2.667969 13.027344 L 2.667969 18.972656 C 2.667969 19.441406 2.984375 19.851562 3.441406 19.972656 L 3.90625 20.09375 L 5.398438 20.480469 C 5.398438 20.558594 5.480469 20.640625 5.507812 20.734375 C 5.535156 20.828125 5.625 20.988281 5.691406 21.121094 C 5.761719 21.253906 5.8125 21.359375 5.878906 21.480469 L 6.09375 21.851562 L 6.308594 22.199219 L 6.535156 22.546875 C 6.609375 22.664062 6.695312 22.773438 6.785156 22.878906 C 6.867188 22.988281 6.945312 23.105469 7.039062 23.214844 C 7.121094 23.320312 7.210938 23.425781 7.308594 23.519531 L 7.574219 23.839844 L 8.160156 24.425781 L 8.480469 24.691406 L 8.785156 24.960938 L 9.121094 25.214844 L 9.453125 25.464844 L 9.800781 25.691406 L 10.148438 25.90625 L 10.519531 26.121094 L 10.878906 26.308594 L 11.265625 26.492188 L 11.519531 26.601562 L 11.90625 28.09375 L 12.027344 28.558594 C 12.148438 29.015625 12.558594 29.332031 13.027344 29.332031 L 18.972656 29.332031 C 19.441406 29.332031 19.851562 29.015625 19.972656 28.558594 L 20.09375 28.09375 L 20.480469 26.667969 L 20.734375 26.558594 L 21.121094 26.375 L 21.480469 26.1875 L 21.851562 25.972656 L 22.199219 25.761719 L 22.546875 25.535156 L 22.878906 25.28125 L 23.214844 25.027344 L 23.535156 24.761719 L 23.839844 24.492188 L 24.425781 23.90625 L 24.691406 23.585938 C 24.789062 23.492188 24.878906 23.386719 24.960938 23.28125 C 25.054688 23.171875 25.132812 23.054688 25.214844 22.945312 C 25.304688 22.839844 25.390625 22.730469 25.464844 22.613281 L 25.691406 22.265625 L 25.90625 21.921875 L 26.121094 21.546875 C 26.1875 21.425781 26.253906 21.308594 26.308594 21.1875 C 26.359375 21.066406 26.425781 20.921875 26.492188 20.800781 C 26.558594 20.679688 26.574219 20.625 26.601562 20.546875 L 28.09375 20.160156 L 28.558594 20.039062 C 29.015625 19.917969 29.332031 19.507812 29.332031 19.039062 L 29.332031 13.027344 C 29.34375 12.546875 29.023438 12.121094 28.558594 12 Z M 16 24.894531 C 11.097656 24.886719 7.132812 20.910156 7.132812 16.007812 C 7.136719 11.109375 11.109375 7.136719 16.007812 7.132812 C 20.910156 7.132812 24.886719 11.097656 24.894531 16 C 24.890625 16.597656 24.828125 17.191406 24.707031 17.773438 C 23.878906 21.921875 20.230469 24.90625 16 24.894531 Z M 16 24.894531 "/>
<path fill-rule="nonzero" fill="rgb(40%, 61.568627%, 96.470588%)" fill-opacity="1" d="M 16 9.171875 C 15.503906 9.171875 15.007812 9.226562 14.519531 9.332031 L 14.878906 10.972656 C 17.652344 10.355469 20.402344 12.105469 21.019531 14.878906 C 21.636719 17.652344 19.890625 20.402344 17.117188 21.019531 C 14.34375 21.640625 11.59375 19.894531 10.972656 17.121094 C 10.894531 16.75 10.855469 16.375 10.851562 16 L 9.171875 16 C 9.171875 19.769531 12.230469 22.828125 16 22.828125 C 19.769531 22.828125 22.828125 19.769531 22.828125 16 C 22.828125 12.230469 19.769531 9.171875 16 9.171875 Z M 16 9.171875 "/>
<path fill-rule="nonzero" fill="rgb(68.235294%, 79.607843%, 98.039216%)" fill-opacity="1" d="M 16 12.558594 C 15.75 12.558594 15.5 12.585938 15.253906 12.640625 L 15.613281 14.292969 C 16.308594 14.136719 17.03125 14.414062 17.441406 15 C 17.847656 15.582031 17.867188 16.355469 17.484375 16.957031 C 17.101562 17.558594 16.394531 17.867188 15.691406 17.742188 C 14.988281 17.617188 14.433594 17.082031 14.28125 16.386719 C 14.265625 16.257812 14.265625 16.128906 14.28125 16 L 12.558594 16 C 12.558594 17.898438 14.101562 19.441406 16 19.441406 C 17.898438 19.441406 19.441406 17.898438 19.441406 16 C 19.441406 14.101562 17.898438 12.558594 16 12.558594 Z M 16 12.558594 "/>
</svg>
