<?xml version="1.0" encoding="UTF-8"?>
<svg xmlns="http://www.w3.org/2000/svg" xmlns:xlink="http://www.w3.org/1999/xlink" width="32" height="32" viewBox="0 0 32 32">
<path fill-rule="evenodd" fill="rgb(68.235294%, 79.607843%, 98.039216%)" fill-opacity="1" d="M 8.972656 14.441406 L 8.972656 17.945312 C 9.527344 18.898438 10.308594 19.699219 11.253906 20.265625 L 11.253906 14.441406 Z M 8.972656 14.441406 "/>
<path fill-rule="evenodd" fill="rgb(40%, 61.568627%, 96.470588%)" fill-opacity="1" d="M 13.1875 11.214844 L 13.1875 21.253906 C 13.675781 21.316406 14.171875 21.34375 14.667969 21.332031 C 15.109375 21.359375 15.554688 21.359375 16 21.332031 L 16 11.214844 Z M 13.1875 11.214844 "/>
<path fill-rule="evenodd" fill="rgb(68.235294%, 79.607843%, 98.039216%)" fill-opacity="1" d="M 18.1875 15.8125 L 18.1875 20.199219 C 19.136719 19.59375 19.914062 18.761719 20.453125 17.773438 L 20.453125 15.8125 Z M 18.1875 15.8125 "/>
<path fill-rule="evenodd" fill="rgb(25.882353%, 52.156863%, 95.686275%)" fill-opacity="1" d="M 23.652344 21.761719 L 21.761719 23.652344 C 21.652344 23.757812 21.59375 23.902344 21.59375 24.054688 C 21.59375 24.203125 21.652344 24.347656 21.761719 24.453125 L 26.480469 29.171875 C 26.699219 29.386719 27.046875 29.386719 27.265625 29.171875 L 29.171875 27.265625 C 29.386719 27.046875 29.386719 26.699219 29.171875 26.480469 L 24.453125 21.761719 C 24.347656 21.652344 24.203125 21.59375 24.054688 21.59375 C 23.902344 21.59375 23.757812 21.652344 23.652344 21.761719 "/>
<path fill-rule="evenodd" fill="rgb(40%, 61.568627%, 96.470588%)" fill-opacity="1" d="M 14.667969 2.667969 C 8.039062 2.667969 2.667969 8.039062 2.667969 14.667969 C 2.667969 21.292969 8.039062 26.667969 14.667969 26.667969 C 21.292969 26.667969 26.667969 21.292969 26.667969 14.667969 C 26.667969 8.039062 21.292969 2.667969 14.667969 2.667969 M 14.667969 23.585938 C 9.75 23.578125 5.769531 19.589844 5.773438 14.675781 C 5.777344 9.761719 9.761719 5.777344 14.675781 5.773438 C 19.589844 5.769531 23.578125 9.75 23.585938 14.667969 C 23.589844 17.035156 22.652344 19.304688 20.976562 20.976562 C 19.304688 22.652344 17.035156 23.589844 14.667969 23.585938 "/>
</svg>
