<?xml version="1.0" encoding="UTF-8"?>
<svg xmlns="http://www.w3.org/2000/svg" xmlns:xlink="http://www.w3.org/1999/xlink" width="32" height="32" viewBox="0 0 32 32">
<path fill-rule="nonzero" fill="rgb(25.882353%, 52.156863%, 95.686275%)" fill-opacity="1" d="M 14.921875 9.148438 L 17.078125 9.148438 L 17.078125 22.839844 L 14.921875 22.839844 Z M 14.921875 9.148438 "/>
<path fill-rule="nonzero" fill="rgb(40%, 61.568627%, 96.470588%)" fill-opacity="1" d="M 2.667969 14.921875 L 6.265625 14.921875 L 6.265625 17.078125 L 2.667969 17.078125 Z M 2.667969 14.921875 "/>
<path fill-rule="nonzero" fill="rgb(25.882353%, 52.156863%, 95.686275%)" fill-opacity="1" d="M 6.226562 11.679688 L 12.066406 11.679688 C 12.242188 11.679688 12.386719 11.824219 12.386719 12 L 12.386719 20.011719 C 12.386719 20.191406 12.242188 20.332031 12.066406 20.332031 L 6.226562 20.332031 C 6.050781 20.332031 5.90625 20.191406 5.90625 20.011719 L 5.90625 12 C 5.90625 11.824219 6.050781 11.679688 6.226562 11.679688 Z M 6.226562 11.679688 "/>
<path fill-rule="nonzero" fill="rgb(40%, 61.568627%, 96.470588%)" fill-opacity="1" d="M 14.921875 9.148438 L 17.078125 9.148438 L 17.078125 22.839844 L 14.921875 22.839844 Z M 14.921875 9.148438 "/>
<path fill-rule="nonzero" fill="rgb(40%, 61.568627%, 96.470588%)" fill-opacity="1" d="M 25.734375 14.921875 L 29.332031 14.921875 L 29.332031 17.078125 L 25.734375 17.078125 Z M 25.734375 14.921875 "/>
<path fill-rule="nonzero" fill="rgb(40%, 61.568627%, 96.470588%)" fill-opacity="1" d="M 8.785156 22.851562 L 8.785156 24.625 C 8.785156 24.839844 8.960938 25.011719 9.171875 25.011719 L 22.828125 25.011719 C 23.039062 25.011719 23.214844 24.839844 23.214844 24.625 L 23.214844 22.851562 Z M 8.785156 22.851562 "/>
<path fill-rule="nonzero" fill="rgb(40%, 61.568627%, 96.470588%)" fill-opacity="1" d="M 22.828125 6.988281 L 9.171875 6.988281 C 8.960938 6.988281 8.785156 7.160156 8.785156 7.375 L 8.785156 9.148438 L 23.214844 9.148438 L 23.214844 7.375 C 23.214844 7.160156 23.039062 6.988281 22.828125 6.988281 Z M 22.828125 6.988281 "/>
<path fill-rule="nonzero" fill="rgb(25.882353%, 52.156863%, 95.686275%)" fill-opacity="1" d="M 19.921875 11.679688 L 25.761719 11.679688 C 25.9375 11.679688 26.078125 11.824219 26.078125 12 L 26.078125 20.011719 C 26.078125 20.191406 25.9375 20.332031 25.761719 20.332031 L 19.921875 20.332031 C 19.742188 20.332031 19.601562 20.191406 19.601562 20.011719 L 19.601562 12 C 19.601562 11.824219 19.742188 11.679688 19.921875 11.679688 Z M 19.921875 11.679688 "/>
</svg>
