<?xml version="1.0" encoding="UTF-8"?>
<svg xmlns="http://www.w3.org/2000/svg" xmlns:xlink="http://www.w3.org/1999/xlink" width="32" height="32" viewBox="0 0 32 32">
<path fill-rule="evenodd" fill="rgb(25.882353%, 52.156863%, 95.686275%)" fill-opacity="1" d="M 27.5 11.132812 L 27.5 24.847656 C 27.5 26.320312 26.320312 27.5 24.847656 27.5 L 11.132812 27.5 C 9.671875 27.5 8.480469 26.320312 8.480469 24.847656 L 24.847656 24.847656 L 24.847656 8.480469 C 26.320312 8.480469 27.5 9.671875 27.5 11.132812 Z M 27.5 11.132812 "/>
<path fill-rule="evenodd" fill="rgb(25.882353%, 52.156863%, 95.686275%)" fill-opacity="1" d="M 20.867188 4.5 L 7.152344 4.5 C 5.691406 4.5 4.5 5.691406 4.5 7.152344 L 4.5 20.867188 C 4.5 22.339844 5.691406 23.519531 7.152344 23.519531 L 20.867188 23.519531 C 22.339844 23.519531 23.519531 22.339844 23.519531 20.867188 L 23.519531 7.152344 C 23.519531 5.691406 22.339844 4.5 20.867188 4.5 Z M 20.867188 20.867188 L 7.152344 20.867188 L 7.152344 7.152344 L 20.867188 7.152344 Z M 20.867188 20.867188 "/>
<path fill-rule="nonzero" fill="rgb(25.882353%, 52.156863%, 95.686275%)" fill-opacity="1" d="M 17.433594 11.308594 C 17.347656 10.847656 17.15625 10.433594 16.90625 10.058594 C 16.542969 9.507812 16.03125 9.066406 15.429688 8.804688 C 14.992188 8.617188 14.515625 8.503906 14 8.503906 C 13.5 8.503906 13.023438 8.617188 12.585938 8.804688 C 11.984375 9.066406 11.46875 9.507812 11.105469 10.058594 C 10.71875 10.609375 10.507812 11.285156 10.507812 12.011719 C 10.507812 12.25 10.53125 12.488281 10.582031 12.714844 C 10.582031 12.726562 10.582031 12.738281 10.59375 12.761719 C 10.617188 12.875 10.644531 13 10.679688 13.113281 C 10.78125 13.414062 10.917969 13.691406 11.09375 13.941406 C 11.257812 14.179688 11.445312 14.40625 11.671875 14.605469 L 11.671875 19.015625 L 14 16.824219 L 16.34375 19.015625 L 16.34375 14.605469 C 16.792969 14.203125 17.132812 13.691406 17.332031 13.113281 C 17.371094 13 17.394531 12.875 17.421875 12.761719 C 17.433594 12.738281 17.433594 12.726562 17.433594 12.714844 C 17.484375 12.488281 17.507812 12.25 17.507812 12.011719 C 17.507812 11.773438 17.484375 11.535156 17.433594 11.308594 Z M 15.628906 12.011719 C 15.628906 12.902344 14.902344 13.628906 14 13.628906 C 13.113281 13.628906 12.386719 12.902344 12.386719 12.011719 C 12.386719 11.761719 12.433594 11.523438 12.546875 11.308594 C 12.796875 10.757812 13.363281 10.382812 14 10.382812 C 14.652344 10.382812 15.214844 10.757812 15.464844 11.308594 C 15.578125 11.523438 15.628906 11.761719 15.628906 12.011719 Z M 15.628906 12.011719 "/>
</svg>
