<?xml version="1.0" encoding="UTF-8"?>
<svg xmlns="http://www.w3.org/2000/svg" xmlns:xlink="http://www.w3.org/1999/xlink" width="32" height="32" viewBox="0 0 32 32">
<path fill-rule="nonzero" fill="rgb(25.882353%, 52.156863%, 95.686275%)" fill-opacity="1" d="M 23.878906 13.601562 L 21.453125 13.601562 L 16 28 L 18.425781 28 L 19.761719 24.398438 L 25.519531 24.398438 L 26.851562 28 L 29.332031 28 Z M 20.691406 22 L 22.667969 16.800781 L 24.640625 22 Z M 20.691406 22 "/>
<path fill-rule="evenodd" fill="rgb(40%, 61.568627%, 96.470588%)" fill-opacity="1" d="M 17.054688 19.691406 L 13.972656 16.679688 C 16.046875 14.417969 17.59375 11.726562 18.507812 8.800781 L 22.066406 8.800781 L 22.066406 6.398438 L 13.574219 6.398438 L 13.574219 4 L 11.148438 4 L 11.148438 6.398438 L 2.667969 6.398438 L 2.667969 8.785156 L 16.199219 8.785156 C 15.363281 11.164062 14.058594 13.351562 12.359375 15.214844 C 11.261719 14.003906 10.320312 12.660156 9.558594 11.214844 L 7.132812 11.214844 C 8.050781 13.210938 9.269531 15.054688 10.746094 16.679688 L 4.585938 22.667969 L 6.308594 24.398438 L 12.359375 18.398438 L 16.132812 22.132812 Z M 17.054688 19.691406 "/>
</svg>
