<?xml version="1.0" encoding="UTF-8"?>
<svg xmlns="http://www.w3.org/2000/svg" xmlns:xlink="http://www.w3.org/1999/xlink" width="32" height="32" viewBox="0 0 32 32">
<path fill-rule="nonzero" fill="rgb(25.882353%, 52.156863%, 95.686275%)" fill-opacity="1" d="M 7.679688 11.519531 L 7.679688 16.691406 C 7.777344 21.636719 11.195312 25.890625 16 27.054688 L 16 7.640625 Z M 7.679688 11.519531 "/>
<path fill-rule="nonzero" fill="rgb(68.235294%, 79.607843%, 98.039216%)" fill-opacity="1" d="M 16 27.054688 L 16.878906 26.800781 C 21.25 25.34375 24.230469 21.296875 24.320312 16.691406 L 24.320312 11.519531 L 16 7.640625 Z M 16 27.054688 "/>
<path fill-rule="nonzero" fill="rgb(68.235294%, 79.607843%, 98.039216%)" fill-opacity="1" d="M 23.71875 5.519531 C 23.589844 5.511719 23.460938 5.511719 23.332031 5.519531 L 24.441406 4.1875 L 23.679688 3.546875 L 21.453125 6.214844 L 24.121094 8.425781 L 24.761719 7.667969 L 23.425781 6.535156 C 23.542969 6.527344 23.65625 6.527344 23.773438 6.535156 C 25.71875 6.535156 27.292969 8.109375 27.292969 10.054688 C 27.292969 10.605469 27.160156 11.148438 26.90625 11.640625 L 27.640625 12.386719 L 27.761719 12.214844 C 28.109375 11.546875 28.292969 10.804688 28.292969 10.054688 C 28.296875 8.84375 27.816406 7.683594 26.957031 6.828125 C 26.097656 5.976562 24.929688 5.503906 23.71875 5.519531 Z M 23.71875 5.519531 "/>
<path fill-rule="nonzero" fill="rgb(25.882353%, 52.156863%, 95.686275%)" fill-opacity="1" d="M 7.558594 23.601562 L 6.746094 24.1875 L 7.761719 25.601562 C 7.640625 25.605469 7.519531 25.605469 7.398438 25.601562 C 6.21875 25.292969 5.28125 24.398438 4.917969 23.234375 C 4.558594 22.070312 4.824219 20.800781 5.625 19.878906 L 5.105469 18.972656 C 5.054688 19.019531 5.003906 19.066406 4.960938 19.121094 C 3.875 20.285156 3.484375 21.941406 3.9375 23.46875 C 4.390625 24.996094 5.613281 26.171875 7.160156 26.558594 C 7.289062 26.589844 7.417969 26.609375 7.546875 26.625 L 6.214844 27.613281 L 6.800781 28.425781 L 9.613281 26.425781 Z M 7.558594 23.601562 "/>
</svg>
