<?xml version="1.0" encoding="UTF-8"?>
<svg xmlns="http://www.w3.org/2000/svg" xmlns:xlink="http://www.w3.org/1999/xlink" width="32" height="32" viewBox="0 0 32 32">
<path fill-rule="nonzero" fill="rgb(25.882353%, 52.156863%, 95.686275%)" fill-opacity="1" d="M 20.996094 13.375 L 24.738281 15.554688 C 24.933594 15.664062 25 15.914062 24.886719 16.105469 C 24.851562 16.167969 24.800781 16.214844 24.742188 16.25 L 19.261719 19.496094 L 25.128906 22.8125 C 25.253906 22.882812 25.332031 23.019531 25.332031 23.164062 L 25.332031 26.253906 C 25.332031 26.476562 25.152344 26.65625 24.929688 26.65625 C 24.855469 26.65625 24.785156 26.636719 24.726562 26.601562 L 15.914062 21.480469 L 7.277344 26.601562 C 7.085938 26.714844 6.835938 26.648438 6.722656 26.457031 C 6.6875 26.394531 6.667969 26.324219 6.667969 26.25 L 6.667969 23.167969 C 6.667969 23.023438 6.742188 22.890625 6.867188 22.816406 L 18.742188 15.898438 L 17.636719 15.273438 Z M 7.070312 5.34375 C 7.144531 5.34375 7.214844 5.363281 7.273438 5.398438 L 16.082031 10.519531 L 24.722656 5.398438 C 24.914062 5.285156 25.164062 5.351562 25.277344 5.542969 C 25.3125 5.605469 25.332031 5.675781 25.332031 5.75 L 25.332031 8.832031 C 25.332031 8.976562 25.257812 9.109375 25.132812 9.183594 L 13.257812 16.101562 L 14.363281 16.726562 L 11.003906 18.625 L 7.261719 16.445312 C 7.066406 16.335938 7 16.085938 7.113281 15.894531 C 7.148438 15.832031 7.199219 15.785156 7.257812 15.75 L 12.734375 12.503906 L 6.871094 9.1875 C 6.746094 9.117188 6.667969 8.980469 6.667969 8.835938 L 6.667969 5.746094 C 6.667969 5.523438 6.847656 5.34375 7.070312 5.34375 Z M 7.070312 5.34375 "/>
</svg>
