<?xml version="1.0" encoding="UTF-8"?>
<svg xmlns="http://www.w3.org/2000/svg" xmlns:xlink="http://www.w3.org/1999/xlink" width="32" height="32" viewBox="0 0 32 32">
<path fill-rule="nonzero" fill="rgb(25.882353%, 52.156863%, 95.686275%)" fill-opacity="1" d="M 5.265625 11.015625 C 5.589844 11.125 5.929688 11.183594 6.285156 11.183594 C 6.640625 11.183594 6.980469 11.125 7.300781 11.015625 L 7.300781 21.847656 C 7.300781 24.070312 9.023438 25.871094 11.144531 25.871094 C 13.1875 25.871094 14.859375 24.195312 14.976562 22.082031 L 14.984375 21.847656 L 14.984375 20.050781 C 15.355469 20.203125 15.765625 20.289062 16.191406 20.289062 C 16.476562 20.289062 16.753906 20.25 17.015625 20.179688 L 17.015625 21.847656 C 17.015625 25.246094 14.386719 28 11.144531 28 C 7.992188 28 5.421875 25.398438 5.277344 22.136719 L 5.269531 21.847656 Z M 25.714844 23.214844 C 26.976562 23.214844 28 24.285156 28 25.605469 C 28 26.929688 26.976562 28 25.714844 28 C 24.453125 28 23.429688 26.929688 23.429688 25.605469 C 23.429688 24.285156 24.453125 23.214844 25.714844 23.214844 Z M 20.855469 5.433594 C 24.101562 5.433594 26.730469 8.1875 26.730469 11.585938 L 26.730469 22.316406 C 26.410156 22.210938 26.070312 22.152344 25.714844 22.152344 C 25.359375 22.152344 25.019531 22.210938 24.699219 22.316406 L 24.699219 11.585938 C 24.699219 9.363281 22.976562 7.558594 20.855469 7.558594 C 18.734375 7.558594 17.015625 9.363281 17.015625 11.585938 L 17.015625 13.484375 C 16.753906 13.414062 16.476562 13.375 16.191406 13.375 C 15.765625 13.375 15.355469 13.460938 14.984375 13.613281 L 14.984375 11.585938 C 14.984375 8.1875 17.613281 5.433594 20.855469 5.433594 Z M 16.191406 14.441406 C 17.453125 14.441406 18.476562 15.511719 18.476562 16.832031 C 18.476562 18.15625 17.453125 19.226562 16.191406 19.226562 C 14.929688 19.226562 13.90625 18.15625 13.90625 16.832031 C 13.90625 15.511719 14.929688 14.441406 16.191406 14.441406 Z M 6.285156 5.332031 C 7.546875 5.332031 8.570312 6.40625 8.570312 7.726562 C 8.570312 9.046875 7.546875 10.121094 6.285156 10.121094 C 5.023438 10.121094 4 9.046875 4 7.726562 C 4 6.40625 5.023438 5.332031 6.285156 5.332031 Z M 6.285156 5.332031 "/>
</svg>
