<?xml version="1.0" encoding="UTF-8"?>
<svg xmlns="http://www.w3.org/2000/svg" xmlns:xlink="http://www.w3.org/1999/xlink" width="32" height="32" viewBox="0 0 32 32">
<path fill-rule="nonzero" fill="rgb(25.882353%, 52.156863%, 95.686275%)" fill-opacity="1" d="M 8.640625 12.828125 C 8.367188 12.84375 8.132812 12.640625 8.113281 12.367188 C 8.09375 12.09375 8.300781 11.859375 8.574219 11.839844 L 11.640625 11.414062 C 11.769531 11.394531 11.902344 11.429688 12.007812 11.507812 C 12.113281 11.589844 12.183594 11.707031 12.199219 11.839844 C 12.238281 12.117188 12.050781 12.371094 11.773438 12.414062 L 8.707031 12.828125 Z M 8.640625 12.828125 "/>
<path fill-rule="nonzero" fill="rgb(25.882353%, 52.156863%, 95.686275%)" fill-opacity="1" d="M 12.398438 12.390625 L 12.710938 11.4375 L 18.234375 13.242188 L 17.925781 14.191406 Z M 12.398438 12.390625 "/>
<path fill-rule="nonzero" fill="rgb(25.882353%, 52.156863%, 95.686275%)" fill-opacity="1" d="M 12.238281 12.214844 L 12.09375 12.214844 C 11.835938 12.128906 11.695312 11.859375 11.773438 11.601562 L 12.878906 7.8125 C 12.960938 7.558594 13.234375 7.414062 13.492188 7.492188 C 13.621094 7.523438 13.730469 7.605469 13.792969 7.71875 C 13.859375 7.832031 13.875 7.96875 13.839844 8.09375 L 12.71875 11.839844 C 12.660156 12.058594 12.464844 12.210938 12.238281 12.214844 Z M 12.238281 12.214844 "/>
<path fill-rule="nonzero" fill="rgb(25.882353%, 52.156863%, 95.686275%)" fill-opacity="1" d="M 19.078125 14.078125 C 18.910156 14.082031 18.753906 13.996094 18.667969 13.851562 C 18.566406 13.695312 18.566406 13.492188 18.667969 13.332031 L 20.894531 7.691406 C 21.011719 7.464844 21.28125 7.363281 21.519531 7.453125 C 21.757812 7.546875 21.890625 7.804688 21.828125 8.054688 L 19.585938 13.707031 C 19.519531 13.929688 19.3125 14.082031 19.078125 14.078125 Z M 19.078125 14.078125 "/>
<path fill-rule="nonzero" fill="rgb(25.882353%, 52.156863%, 95.686275%)" fill-opacity="1" d="M 7.558594 22.136719 L 12.800781 17.953125 L 13.425781 18.734375 L 8.183594 22.917969 Z M 7.558594 22.136719 "/>
<path fill-rule="nonzero" fill="rgb(25.882353%, 52.156863%, 95.686275%)" fill-opacity="1" d="M 18.828125 14.28125 L 19.214844 13.359375 L 24.066406 15.480469 L 23.667969 16.386719 Z M 18.828125 14.28125 "/>
<path fill-rule="nonzero" fill="rgb(25.882353%, 52.156863%, 95.686275%)" fill-opacity="1" d="M 18.652344 19.453125 L 19.347656 18.71875 L 23.652344 22.785156 L 22.960938 23.507812 Z M 18.652344 19.453125 "/>
<path fill-rule="nonzero" fill="rgb(25.882353%, 52.156863%, 95.686275%)" fill-opacity="1" d="M 11.714844 12.152344 L 12.695312 11.953125 L 13.773438 17.257812 L 12.792969 17.457031 Z M 11.714844 12.152344 "/>
<path fill-rule="nonzero" fill="rgb(25.882353%, 52.156863%, 95.686275%)" fill-opacity="1" d="M 13.28125 18.132812 L 18.746094 13.332031 L 19.414062 14.078125 L 13.945312 18.878906 Z M 13.28125 18.132812 "/>
<path fill-rule="nonzero" fill="rgb(25.882353%, 52.156863%, 95.686275%)" fill-opacity="1" d="M 18.332031 18.960938 L 18.652344 13.667969 L 19.652344 13.734375 L 19.320312 19.027344 Z M 18.332031 18.960938 "/>
<path fill-rule="nonzero" fill="rgb(25.882353%, 52.156863%, 95.686275%)" fill-opacity="1" d="M 15.160156 18.425781 C 15.160156 19.429688 14.347656 20.238281 13.347656 20.238281 C 12.34375 20.238281 11.535156 19.429688 11.535156 18.425781 C 11.535156 17.425781 12.34375 16.613281 13.347656 16.613281 C 14.347656 16.613281 15.160156 17.425781 15.160156 18.425781 Z M 15.160156 18.425781 "/>
<path fill-rule="nonzero" fill="rgb(25.882353%, 52.156863%, 95.686275%)" fill-opacity="1" d="M 21.308594 13.8125 C 21.308594 15 20.34375 15.960938 19.160156 15.960938 C 17.972656 15.960938 17.011719 15 17.011719 13.8125 C 17.011719 12.628906 17.972656 11.667969 19.160156 11.667969 C 20.34375 11.667969 21.308594 12.628906 21.308594 13.8125 Z M 21.308594 13.8125 "/>
<path fill-rule="nonzero" fill="rgb(25.882353%, 52.156863%, 95.686275%)" fill-opacity="1" d="M 20.265625 19.386719 C 20.265625 20.003906 19.765625 20.507812 19.148438 20.507812 C 18.527344 20.507812 18.027344 20.003906 18.027344 19.386719 C 18.027344 18.769531 18.527344 18.265625 19.148438 18.265625 C 19.765625 18.265625 20.265625 18.769531 20.265625 19.386719 Z M 20.265625 19.386719 "/>
<path fill-rule="nonzero" fill="rgb(25.882353%, 52.156863%, 95.686275%)" fill-opacity="1" d="M 13.375 11.558594 C 13.375 12.289062 12.78125 12.878906 12.054688 12.878906 C 11.324219 12.878906 10.734375 12.289062 10.734375 11.558594 C 10.734375 10.832031 11.324219 10.238281 12.054688 10.238281 C 12.78125 10.238281 13.375 10.832031 13.375 11.558594 Z M 13.375 11.558594 "/>
<path fill-rule="nonzero" fill="rgb(40%, 61.568627%, 96.470588%)" fill-opacity="1" d="M 17.332031 4 L 14.667969 4 L 14.667969 9.332031 L 17.332031 9.332031 Z M 17.332031 4 "/>
<path fill-rule="nonzero" fill="rgb(40%, 61.568627%, 96.470588%)" fill-opacity="1" d="M 22.667969 4 L 20 4 L 20 9.332031 L 22.667969 9.332031 Z M 22.667969 4 "/>
<path fill-rule="nonzero" fill="rgb(40%, 61.568627%, 96.470588%)" fill-opacity="1" d="M 12 4 L 9.332031 4 L 9.332031 9.332031 L 12 9.332031 Z M 12 4 "/>
<path fill-rule="nonzero" fill="rgb(40%, 61.568627%, 96.470588%)" fill-opacity="1" d="M 17.332031 22.667969 L 14.667969 22.667969 L 14.667969 28 L 17.332031 28 Z M 17.332031 22.667969 "/>
<path fill-rule="nonzero" fill="rgb(40%, 61.568627%, 96.470588%)" fill-opacity="1" d="M 22.667969 22.667969 L 20 22.667969 L 20 28 L 22.667969 28 Z M 22.667969 22.667969 "/>
<path fill-rule="nonzero" fill="rgb(40%, 61.568627%, 96.470588%)" fill-opacity="1" d="M 12 22.667969 L 9.332031 22.667969 L 9.332031 28 L 12 28 Z M 12 22.667969 "/>
<path fill-rule="nonzero" fill="rgb(40%, 61.568627%, 96.470588%)" fill-opacity="1" d="M 9.332031 14.667969 L 4 14.667969 L 4 17.332031 L 9.332031 17.332031 Z M 9.332031 14.667969 "/>
<path fill-rule="nonzero" fill="rgb(40%, 61.568627%, 96.470588%)" fill-opacity="1" d="M 9.332031 9.332031 L 4 9.332031 L 4 12 L 9.332031 12 Z M 9.332031 9.332031 "/>
<path fill-rule="nonzero" fill="rgb(40%, 61.568627%, 96.470588%)" fill-opacity="1" d="M 9.332031 20 L 4 20 L 4 22.667969 L 9.332031 22.667969 Z M 9.332031 20 "/>
<path fill-rule="nonzero" fill="rgb(40%, 61.568627%, 96.470588%)" fill-opacity="1" d="M 28 14.667969 L 22.667969 14.667969 L 22.667969 17.332031 L 28 17.332031 Z M 28 14.667969 "/>
<path fill-rule="nonzero" fill="rgb(40%, 61.568627%, 96.470588%)" fill-opacity="1" d="M 28 9.332031 L 22.667969 9.332031 L 22.667969 12 L 28 12 Z M 28 9.332031 "/>
<path fill-rule="nonzero" fill="rgb(40%, 61.568627%, 96.470588%)" fill-opacity="1" d="M 28 20 L 22.667969 20 L 22.667969 22.667969 L 28 22.667969 Z M 28 20 "/>
<path fill-rule="nonzero" fill="rgb(40%, 61.568627%, 96.470588%)" fill-opacity="1" d="M 24 6.667969 L 8 6.667969 C 7.261719 6.667969 6.667969 7.261719 6.667969 8 L 6.667969 24 C 6.667969 24.738281 7.261719 25.332031 8 25.332031 L 24 25.332031 C 24.738281 25.332031 25.332031 24.738281 25.332031 24 L 25.332031 8 C 25.332031 7.261719 24.738281 6.667969 24 6.667969 Z M 22.667969 21.960938 C 22.667969 22.351562 22.351562 22.667969 21.960938 22.667969 L 10.039062 22.667969 C 9.648438 22.667969 9.332031 22.351562 9.332031 21.960938 L 9.332031 10.039062 C 9.332031 9.648438 9.648438 9.332031 10.039062 9.332031 L 21.960938 9.332031 C 22.351562 9.332031 22.667969 9.648438 22.667969 10.039062 Z M 22.667969 21.960938 "/>
</svg>
