<?xml version="1.0" encoding="UTF-8"?>
<svg xmlns="http://www.w3.org/2000/svg" xmlns:xlink="http://www.w3.org/1999/xlink" width="32" height="32" viewBox="0 0 32 32">
<path fill-rule="nonzero" fill="rgb(25.882353%, 52.156863%, 95.686275%)" fill-opacity="1" d="M 29.332031 8 L 29.332031 23.847656 L 24.050781 23.847656 C 23.910156 23.847656 23.796875 23.738281 23.796875 23.597656 L 23.796875 22.089844 C 23.796875 21.949219 23.910156 21.835938 24.050781 21.835938 L 27.320312 21.835938 L 27.320312 10.011719 L 24.050781 10.011719 C 23.910156 10.011719 23.796875 9.898438 23.796875 9.761719 L 23.796875 8.25 C 23.796875 8.113281 23.910156 8 24.050781 8 Z M 8.414062 8 C 8.550781 8 8.664062 8.113281 8.664062 8.25 L 8.664062 9.761719 C 8.664062 9.898438 8.550781 10.011719 8.414062 10.011719 L 4.679688 10.011719 L 4.679688 21.835938 L 8.390625 21.835938 C 8.527344 21.835938 8.640625 21.949219 8.640625 22.089844 L 8.640625 23.597656 C 8.640625 23.738281 8.527344 23.847656 8.390625 23.847656 L 2.667969 23.847656 L 2.667969 8 Z M 23.234375 13.15625 L 23.234375 15.097656 L 23.316406 15.132812 L 25.117188 14.496094 L 25.492188 15.589844 L 23.675781 16.207031 L 23.625 16.339844 L 24.875 18.019531 L 23.933594 18.703125 L 22.71875 17.023438 L 22.605469 17.023438 L 21.386719 18.703125 L 20.445312 18.019531 L 21.679688 16.339844 L 21.648438 16.207031 L 19.832031 15.589844 L 20.203125 14.496094 L 21.988281 15.132812 L 22.085938 15.097656 L 22.085938 13.15625 Z M 9.59375 13.15625 L 9.59375 15.078125 L 9.675781 15.113281 L 11.476562 14.480469 L 11.847656 15.5625 L 10.03125 16.179688 L 9.984375 16.308594 L 11.234375 17.972656 L 10.292969 18.648438 L 9.074219 16.984375 L 8.960938 16.984375 L 7.746094 18.648438 L 6.804688 17.972656 L 8.039062 16.308594 L 8.003906 16.179688 L 6.1875 15.5625 L 6.5625 14.480469 L 8.347656 15.113281 L 8.441406 15.078125 L 8.441406 13.15625 Z M 16.386719 13.15625 L 16.386719 15.078125 L 16.46875 15.113281 L 18.269531 14.480469 L 18.640625 15.5625 L 16.824219 16.179688 L 16.777344 16.308594 L 18.023438 17.972656 L 17.085938 18.648438 L 15.867188 16.984375 L 15.753906 16.984375 L 14.539062 18.648438 L 13.597656 17.972656 L 14.832031 16.308594 L 14.796875 16.179688 L 12.980469 15.5625 L 13.355469 14.480469 L 15.136719 15.113281 L 15.234375 15.078125 L 15.234375 13.15625 Z M 16.386719 13.15625 "/>
</svg>
