<?xml version="1.0" encoding="UTF-8"?>
<svg xmlns="http://www.w3.org/2000/svg" xmlns:xlink="http://www.w3.org/1999/xlink" width="32" height="32" viewBox="0 0 32 32">
<path fill-rule="nonzero" fill="rgb(68.235294%, 79.607843%, 98.039216%)" fill-opacity="1" d="M 26.308594 8.746094 C 25.085938 8.78125 24.101562 9.765625 24.066406 10.988281 C 24.109375 11.800781 24.554688 12.542969 25.253906 12.960938 L 25.253906 22.160156 L 18.375 26.238281 L 19.441406 27.945312 L 26.839844 23.613281 C 27.160156 23.414062 27.363281 23.070312 27.375 22.691406 L 27.375 12.960938 C 28.109375 12.582031 28.570312 11.816406 28.558594 10.988281 C 28.585938 10.382812 28.359375 9.792969 27.929688 9.367188 C 27.5 8.941406 26.910156 8.714844 26.308594 8.746094 Z M 26.308594 8.746094 "/>
<path fill-rule="nonzero" fill="rgb(68.235294%, 79.607843%, 98.039216%)" fill-opacity="1" d="M 24 7.308594 L 16.519531 3.09375 C 16.179688 2.972656 15.808594 2.972656 15.464844 3.09375 L 7 8 C 6.3125 7.535156 5.425781 7.480469 4.6875 7.851562 C 3.945312 8.226562 3.464844 8.972656 3.425781 9.800781 C 3.484375 11.011719 4.46875 11.972656 5.679688 12 C 6.886719 11.964844 7.863281 11.007812 7.921875 9.800781 L 16 5.199219 L 22.867188 9.199219 Z M 24 7.308594 "/>
<path fill-rule="nonzero" fill="rgb(68.235294%, 79.607843%, 98.039216%)" fill-opacity="1" d="M 14.933594 24.667969 C 14.507812 24.671875 14.09375 24.808594 13.746094 25.054688 L 6.867188 21.054688 L 6.867188 13.226562 L 4.746094 13.226562 L 4.746094 21.640625 C 4.757812 22.015625 4.957031 22.363281 5.28125 22.558594 L 12.691406 26.667969 L 12.691406 26.785156 C 12.785156 27.960938 13.761719 28.867188 14.941406 28.867188 C 16.117188 28.867188 17.097656 27.960938 17.1875 26.785156 C 17.144531 25.582031 16.136719 24.636719 14.933594 24.667969 Z M 14.933594 24.667969 "/>
<path fill-rule="nonzero" fill="rgb(40%, 61.568627%, 96.470588%)" fill-opacity="1" d="M 22.613281 11.507812 L 16.132812 7.707031 L 9.507812 11.507812 L 16.132812 15.199219 Z M 22.613281 11.507812 "/>
<path fill-rule="nonzero" fill="rgb(40%, 61.568627%, 96.470588%)" fill-opacity="1" d="M 16.132812 16.507812 L 9.121094 12.425781 L 9.121094 15.71875 L 16.132812 19.667969 Z M 16.132812 16.507812 "/>
<path fill-rule="nonzero" fill="rgb(40%, 61.568627%, 96.470588%)" fill-opacity="1" d="M 16.132812 20.972656 L 9.121094 16.90625 L 9.121094 19.667969 L 16.132812 23.746094 Z M 16.132812 20.972656 "/>
<path fill-rule="nonzero" fill="rgb(25.882353%, 52.156863%, 95.686275%)" fill-opacity="1" d="M 16.121094 16.507812 L 16.121094 19.667969 L 23.132812 15.585938 L 23.132812 12.441406 Z M 21.878906 15.253906 C 21.601562 15.253906 21.375 15.027344 21.375 14.746094 C 21.375 14.46875 21.601562 14.238281 21.878906 14.238281 C 22.160156 14.238281 22.386719 14.46875 22.386719 14.746094 C 22.386719 15.027344 22.160156 15.253906 21.878906 15.253906 Z M 21.878906 15.253906 "/>
<path fill-rule="nonzero" fill="rgb(25.882353%, 52.156863%, 95.686275%)" fill-opacity="1" d="M 16.121094 20.972656 L 16.121094 23.734375 L 23.132812 19.667969 L 23.132812 16.90625 Z M 21.878906 19.546875 C 21.601562 19.546875 21.375 19.320312 21.375 19.039062 C 21.375 18.761719 21.601562 18.535156 21.878906 18.535156 C 22.160156 18.535156 22.386719 18.761719 22.386719 19.039062 C 22.386719 19.320312 22.160156 19.546875 21.878906 19.546875 Z M 21.878906 19.546875 "/>
</svg>
