<?xml version="1.0" encoding="UTF-8"?>
<svg xmlns="http://www.w3.org/2000/svg" xmlns:xlink="http://www.w3.org/1999/xlink" width="32" height="32" viewBox="0 0 32 32">
<path fill-rule="nonzero" fill="rgb(25.882353%, 52.156863%, 95.686275%)" fill-opacity="1" d="M 16.628906 4 L 28.480469 24.441406 L 29.332031 25.910156 L 13.882812 25.910156 C 12.957031 27.929688 10.914062 29.332031 8.539062 29.332031 C 5.296875 29.332031 2.667969 26.714844 2.667969 23.488281 C 2.667969 20.257812 5.296875 17.640625 8.539062 17.640625 C 8.597656 17.640625 8.660156 17.640625 8.71875 17.644531 Z M 8.445312 20.320312 L 7.558594 21.207031 L 9.4375 23.078125 L 5.195312 23.078125 L 5.195312 24.335938 L 9.445312 24.339844 L 7.558594 26.214844 L 8.445312 27.101562 L 11.851562 23.710938 Z M 16.628906 21.128906 L 14.261719 22.179688 C 14.359375 22.601562 14.410156 23.039062 14.410156 23.488281 C 14.410156 23.644531 14.402344 23.796875 14.390625 23.953125 L 22.996094 23.949219 Z M 16.628906 15.285156 L 12.617188 19.285156 C 12.957031 19.609375 13.253906 19.972656 13.503906 20.371094 L 16.628906 18.988281 L 23.316406 21.949219 Z M 16.628906 7.914062 L 10.742188 18.066406 C 10.816406 18.097656 10.890625 18.128906 10.960938 18.160156 L 16.628906 12.507812 L 22.941406 18.800781 Z M 16.628906 7.914062 "/>
</svg>
