<?xml version="1.0" encoding="UTF-8"?>
<svg xmlns="http://www.w3.org/2000/svg" xmlns:xlink="http://www.w3.org/1999/xlink" width="32" height="32" viewBox="0 0 32 32">
<path fill-rule="nonzero" fill="rgb(25.882353%, 52.156863%, 95.686275%)" fill-opacity="1" d="M 13.617188 15.863281 L 16.039062 13.441406 L 18.464844 15.863281 L 16.042969 18.285156 Z M 13.617188 15.863281 "/>
<path fill-rule="evenodd" fill="rgb(40%, 61.568627%, 96.470588%)" fill-opacity="1" d="M 23.828125 15.851562 L 23.734375 15.933594 L 18.707031 20.972656 L 17.292969 19.574219 L 21.027344 15.851562 L 13.414062 8.238281 L 13.414062 5.441406 L 13.507812 5.535156 Z M 23.828125 15.851562 "/>
<path fill-rule="evenodd" fill="rgb(68.235294%, 79.607843%, 98.039216%)" fill-opacity="1" d="M 13.414062 8.238281 L 5.8125 15.851562 L 14.8125 24.867188 L 13.414062 26.265625 L 13.332031 26.171875 L 3 15.851562 L 13.414062 5.441406 Z M 13.414062 8.238281 "/>
<path fill-rule="evenodd" fill="rgb(40%, 61.568627%, 96.470588%)" fill-opacity="1" d="M 18.585938 23.464844 L 18.585938 26.265625 L 18.507812 26.171875 L 8.171875 15.867188 L 13.292969 10.734375 L 14.707031 12.148438 L 10.972656 15.867188 Z M 18.585938 23.464844 "/>
<path fill-rule="nonzero" fill="rgb(25.882353%, 52.156863%, 95.686275%)" fill-opacity="1" d="M 18.585938 23.464844 L 26.1875 15.867188 L 17.1875 6.851562 L 18.585938 5.441406 L 18.667969 5.535156 L 29 15.867188 L 28.90625 15.945312 L 18.585938 26.265625 Z M 18.585938 23.464844 "/>
</svg>
