<?xml version="1.0" encoding="UTF-8"?>
<svg xmlns="http://www.w3.org/2000/svg" xmlns:xlink="http://www.w3.org/1999/xlink" width="32" height="32" viewBox="0 0 32 32">
<path fill-rule="evenodd" fill="rgb(40%, 61.568627%, 96.470588%)" fill-opacity="1" d="M 4.441406 9.332031 L 16 2.667969 L 27.546875 9.332031 L 27.546875 22.292969 L 23.105469 18.667969 L 8.894531 18.667969 L 4.441406 22.226562 Z M 21.332031 11.558594 C 21.332031 8.613281 18.945312 6.226562 16 6.226562 C 13.054688 6.226562 10.667969 8.613281 10.667969 11.558594 C 10.667969 14.503906 13.054688 16.894531 16 16.894531 C 18.945312 16.894531 21.332031 14.503906 21.332031 11.558594 Z M 19.558594 11.558594 C 19.558594 13.527344 17.964844 15.121094 16 15.121094 C 14.035156 15.121094 12.441406 13.527344 12.441406 11.558594 C 12.441406 9.59375 14.035156 8 16 8 C 17.964844 8 19.558594 9.59375 19.558594 11.558594 Z M 19.558594 11.558594 "/>
<path fill-rule="evenodd" fill="rgb(25.882353%, 52.156863%, 95.686275%)" fill-opacity="1" d="M 16 16.894531 C 18.945312 16.894531 21.332031 14.503906 21.332031 11.558594 C 21.332031 8.613281 18.945312 6.226562 16 6.226562 L 16 2.667969 L 27.546875 9.332031 L 27.546875 22.292969 L 23.105469 18.667969 L 16 18.667969 Z M 19.558594 11.558594 C 19.539062 13.511719 17.949219 15.082031 16 15.078125 L 16 8 C 17.960938 8 19.550781 9.585938 19.558594 11.546875 Z M 19.558594 11.558594 "/>
<path fill-rule="evenodd" fill="rgb(40%, 61.568627%, 96.470588%)" fill-opacity="1" d="M 5.332031 24 L 16 29.332031 L 26.667969 24 L 22.226562 20.441406 L 9.773438 20.441406 Z M 5.332031 24 "/>
<path fill-rule="evenodd" fill="rgb(25.882353%, 52.156863%, 95.686275%)" fill-opacity="1" d="M 16 29.332031 L 26.667969 24 L 22.226562 20.441406 L 16 20.441406 Z M 16 29.332031 "/>
</svg>
