<?xml version="1.0" encoding="UTF-8"?>
<svg xmlns="http://www.w3.org/2000/svg" xmlns:xlink="http://www.w3.org/1999/xlink" width="32" height="32" viewBox="0 0 32 32">
<path fill-rule="nonzero" fill="rgb(25.882353%, 52.156863%, 95.686275%)" fill-opacity="1" d="M 26.011719 9.226562 C 25.597656 9.664062 25.152344 10.074219 24.679688 10.453125 C 27.664062 14.554688 27.390625 20.183594 24.015625 23.972656 C 20.644531 27.761719 15.085938 28.6875 10.667969 26.199219 L 13 26.199219 C 12.558594 25.664062 12.175781 25.082031 11.851562 24.464844 L 8.414062 24.464844 C 7.921875 23.976562 7.476562 23.449219 7.078125 22.878906 L 11.160156 22.878906 C 10.957031 22.308594 10.792969 21.726562 10.667969 21.132812 L 6.121094 21.132812 C 5.890625 20.621094 5.703125 20.089844 5.558594 19.546875 L 10.320312 19.546875 C 10.226562 18.988281 10.171875 18.414062 10.132812 17.8125 L 5.253906 17.8125 C 5.234375 17.472656 5.234375 17.128906 5.253906 16.785156 L 5.253906 16.214844 L 10.09375 16.214844 C 10.09375 15.632812 10.132812 15.054688 10.199219 14.480469 L 5.441406 14.480469 C 5.558594 13.941406 5.71875 13.410156 5.921875 12.894531 L 10.453125 12.894531 C 10.558594 12.304688 10.707031 11.726562 10.894531 11.160156 L 6.800781 11.160156 C 7.148438 10.59375 7.550781 10.0625 8 9.574219 L 11.480469 9.574219 C 11.746094 8.964844 12.0625 8.382812 12.425781 7.828125 L 10 7.828125 C 13.054688 5.773438 16.949219 5.425781 20.320312 6.90625 C 20.660156 8.40625 21.242188 9.84375 22.039062 11.160156 C 22.039062 11.160156 25.945312 8.933594 26.546875 6.574219 C 26.957031 4.867188 25.925781 3.144531 24.230469 2.699219 C 22.53125 2.25 20.789062 3.246094 20.308594 4.933594 L 20.308594 5.027344 C 15.160156 3.140625 9.386719 4.8125 6.042969 9.152344 C 2.699219 13.496094 2.5625 19.507812 5.707031 24 C 8.847656 28.488281 14.539062 30.421875 19.765625 28.769531 C 24.992188 27.117188 28.542969 22.265625 28.535156 16.785156 C 28.609375 14.046875 27.71875 11.371094 26.011719 9.226562 Z M 22 5.332031 C 22.15625 4.738281 22.65625 4.296875 23.265625 4.210938 C 23.875 4.128906 24.472656 4.421875 24.785156 4.953125 C 25.09375 5.484375 25.050781 6.148438 24.679688 6.640625 C 24.304688 7.128906 23.675781 7.34375 23.078125 7.1875 C 22.691406 7.085938 22.355469 6.835938 22.152344 6.484375 C 21.949219 6.136719 21.894531 5.722656 22 5.332031 Z M 22 5.332031 "/>
</svg>
