<?xml version="1.0" encoding="UTF-8"?>
<svg xmlns="http://www.w3.org/2000/svg" xmlns:xlink="http://www.w3.org/1999/xlink" width="32" height="32" viewBox="0 0 32 32">
<path fill-rule="evenodd" fill="rgb(68.235294%, 79.607843%, 98.039216%)" fill-opacity="1" d="M 23.800781 18.933594 L 10.226562 26.773438 L 8.921875 24.535156 L 22.507812 16.679688 Z M 23.800781 18.933594 "/>
<path fill-rule="evenodd" fill="rgb(68.235294%, 79.607843%, 98.039216%)" fill-opacity="1" d="M 10.171875 24.214844 L 10.171875 8.535156 L 12.667969 8.535156 L 12.667969 22.332031 Z M 10.171875 24.214844 "/>
<path fill-rule="evenodd" fill="rgb(68.235294%, 79.607843%, 98.039216%)" fill-opacity="1" d="M 12.746094 12.921875 L 12.398438 9.773438 L 25.988281 17.601562 L 24.691406 19.839844 Z M 12.746094 12.921875 "/>
<path fill-rule="evenodd" fill="rgb(25.882353%, 52.156863%, 95.686275%)" fill-opacity="1" d="M 19.1875 13.679688 L 12.398438 9.773438 L 12.746094 12.921875 L 14.761719 14.066406 C 16.222656 14.585938 17.835938 14.445312 19.1875 13.679688 Z M 19.1875 13.679688 "/>
<path fill-rule="evenodd" fill="rgb(68.235294%, 79.607843%, 98.039216%)" fill-opacity="1" d="M 10.839844 11.054688 C 9.699219 9.078125 10.027344 6.582031 11.640625 4.96875 C 13.253906 3.355469 15.75 3.027344 17.726562 4.167969 C 19.703125 5.3125 20.664062 7.636719 20.070312 9.839844 C 19.480469 12.042969 17.480469 13.574219 15.199219 13.574219 C 13.402344 13.566406 11.742188 12.605469 10.839844 11.054688 Z M 17.332031 7.320312 C 16.894531 6.5625 16.089844 6.09375 15.214844 6.09375 C 14.5625 6.089844 13.941406 6.34375 13.480469 6.804688 C 13.019531 7.261719 12.761719 7.882812 12.761719 8.535156 C 12.691406 9.449219 13.144531 10.328125 13.929688 10.808594 C 14.714844 11.289062 15.699219 11.289062 16.484375 10.808594 C 17.269531 10.328125 17.722656 9.449219 17.652344 8.535156 C 17.65625 8.109375 17.546875 7.6875 17.332031 7.320312 Z M 17.332031 7.320312 "/>
<path fill-rule="evenodd" fill="rgb(25.882353%, 52.156863%, 95.686275%)" fill-opacity="1" d="M 10.171875 17.253906 L 10.171875 24.214844 L 12.667969 22.332031 L 12.667969 20.160156 C 12.324219 18.859375 11.40625 17.789062 10.171875 17.253906 Z M 10.171875 17.253906 "/>
<path fill-rule="evenodd" fill="rgb(25.882353%, 52.156863%, 95.686275%)" fill-opacity="1" d="M 17.773438 22.414062 L 23.800781 18.933594 L 20.851562 17.601562 L 19.1875 18.667969 C 18.257812 19.71875 17.753906 21.078125 17.773438 22.480469 Z M 17.773438 22.414062 "/>
<path fill-rule="evenodd" fill="rgb(68.235294%, 79.607843%, 98.039216%)" fill-opacity="1" d="M 3.347656 24.933594 C 2.675781 23.777344 2.492188 22.402344 2.839844 21.109375 C 3.183594 19.820312 4.027344 18.71875 5.1875 18.054688 C 6.335938 17.378906 7.710938 17.195312 9 17.546875 C 11.210938 18.128906 12.75 20.125 12.753906 22.410156 C 12.761719 24.695312 11.226562 26.695312 9.019531 27.289062 C 6.816406 27.878906 4.484375 26.914062 3.347656 24.933594 Z M 9.8125 21.1875 C 9.503906 20.605469 8.96875 20.175781 8.332031 20 C 7.375 19.738281 6.359375 20.082031 5.753906 20.871094 C 5.152344 21.65625 5.085938 22.730469 5.585938 23.585938 C 6.265625 24.753906 7.757812 25.152344 8.925781 24.472656 C 10.09375 23.796875 10.492188 22.300781 9.8125 21.132812 Z M 9.8125 21.1875 "/>
<path fill-rule="evenodd" fill="rgb(68.235294%, 79.607843%, 98.039216%)" fill-opacity="1" d="M 19.105469 24.480469 C 18.214844 22.921875 18.214844 21.011719 19.105469 19.453125 C 20.5 17.046875 23.574219 16.222656 25.988281 17.601562 C 28.394531 18.992188 29.214844 22.070312 27.828125 24.480469 C 26.925781 26.035156 25.265625 26.992188 23.464844 26.992188 C 21.667969 26.992188 20.007812 26.035156 19.105469 24.480469 Z M 25.585938 20.734375 C 25.363281 20.367188 25.058594 20.0625 24.691406 19.839844 C 23.519531 19.175781 22.027344 19.578125 21.347656 20.746094 C 20.917969 21.503906 20.917969 22.429688 21.347656 23.1875 C 21.902344 24.148438 23.035156 24.613281 24.105469 24.320312 C 24.730469 24.15625 25.265625 23.746094 25.585938 23.1875 C 26.015625 22.425781 26.015625 21.496094 25.585938 20.734375 Z M 25.585938 20.734375 "/>
<path fill-rule="evenodd" fill="rgb(40%, 61.568627%, 96.470588%)" fill-opacity="1" d="M 12.652344 21.535156 C 12.652344 21.535156 9.535156 24.199219 8.921875 24.535156 L 12.734375 22.332031 C 12.726562 22.066406 12.699219 21.796875 12.652344 21.535156 Z M 12.652344 21.535156 "/>
<path fill-rule="evenodd" fill="rgb(40%, 61.568627%, 96.470588%)" fill-opacity="1" d="M 13.535156 13.332031 C 13.535156 13.332031 12.746094 8.960938 12.746094 8.535156 L 12.746094 12.921875 C 12.996094 13.0625 13.261719 13.183594 13.535156 13.28125 Z M 13.535156 13.332031 "/>
<path fill-rule="evenodd" fill="rgb(40%, 61.568627%, 96.470588%)" fill-opacity="1" d="M 20.398438 17.960938 C 20.398438 17.960938 24.078125 19.492188 24.691406 19.839844 L 20.878906 17.652344 C 20.707031 17.734375 20.546875 17.835938 20.398438 17.960938 Z M 20.398438 17.960938 "/>
</svg>
