<?xml version="1.0" encoding="UTF-8"?>
<svg xmlns="http://www.w3.org/2000/svg" xmlns:xlink="http://www.w3.org/1999/xlink" width="32" height="32" viewBox="0 0 32 32">
<path fill-rule="nonzero" fill="rgb(40%, 61.568627%, 96.470588%)" fill-opacity="1" d="M 9.734375 20.933594 C 8.613281 19.535156 8 17.792969 8 16 L 2.667969 16 C 2.664062 19.207031 3.828125 22.308594 5.945312 24.71875 Z M 9.734375 20.933594 "/>
<path fill-rule="nonzero" fill="rgb(40%, 61.568627%, 96.470588%)" fill-opacity="1" d="M 16 2.667969 C 12.789062 2.667969 9.691406 3.828125 7.265625 5.933594 L 11.054688 9.71875 C 13.460938 7.828125 16.734375 7.472656 19.492188 8.808594 C 22.246094 10.144531 23.996094 12.9375 24 16 L 29.332031 16 C 29.332031 8.636719 23.363281 2.667969 16 2.667969 Z M 16 2.667969 "/>
<path fill-rule="nonzero" fill="rgb(68.235294%, 79.607843%, 98.039216%)" fill-opacity="1" d="M 13.332031 25.332031 C 13.332031 26.804688 12.140625 28 10.667969 28 C 9.195312 28 8 26.804688 8 25.332031 C 8 23.859375 9.195312 22.667969 10.667969 22.667969 C 12.140625 22.667969 13.332031 23.859375 13.332031 25.332031 Z M 13.332031 25.332031 "/>
<path fill-rule="nonzero" fill="rgb(25.882353%, 52.156863%, 95.686275%)" fill-opacity="1" d="M 28 21.332031 C 28 22.804688 26.804688 24 25.332031 24 C 23.859375 24 22.667969 22.804688 22.667969 21.332031 C 22.667969 19.859375 23.859375 18.667969 25.332031 18.667969 C 26.804688 18.667969 28 19.859375 28 21.332031 Z M 28 21.332031 "/>
<path fill-rule="nonzero" fill="rgb(40%, 61.568627%, 96.470588%)" fill-opacity="1" d="M 21.332031 26.667969 C 21.332031 28.140625 20.140625 29.332031 18.667969 29.332031 C 17.195312 29.332031 16 28.140625 16 26.667969 C 16 25.195312 17.195312 24 18.667969 24 C 20.140625 24 21.332031 25.195312 21.332031 26.667969 Z M 21.332031 26.667969 "/>
<path fill-rule="nonzero" fill="rgb(25.882353%, 52.156863%, 95.686275%)" fill-opacity="1" d="M 8 16 L 2.667969 16 C 2.667969 17.316406 2.867188 18.621094 3.253906 19.878906 L 8.585938 18.828125 C 8.222656 17.929688 8.023438 16.96875 8 16 Z M 8 16 "/>
<path fill-rule="nonzero" fill="rgb(68.235294%, 79.607843%, 98.039216%)" fill-opacity="1" d="M 9.332031 10.667969 C 9.332031 12.140625 8.140625 13.332031 6.667969 13.332031 C 5.195312 13.332031 4 12.140625 4 10.667969 C 4 9.195312 5.195312 8 6.667969 8 C 8.140625 8 9.332031 9.195312 9.332031 10.667969 Z M 9.332031 10.667969 "/>
<path fill-rule="nonzero" fill="rgb(25.882353%, 52.156863%, 95.686275%)" fill-opacity="1" d="M 23.480469 13.171875 C 23.824219 14.078125 24 15.035156 24 16 L 29.332031 16 C 29.335938 14.683594 29.140625 13.378906 28.761719 12.121094 Z M 23.480469 13.171875 "/>
</svg>
