<?xml version="1.0" encoding="UTF-8"?>
<svg xmlns="http://www.w3.org/2000/svg" xmlns:xlink="http://www.w3.org/1999/xlink" width="32" height="32" viewBox="0 0 32 32">
<path fill-rule="evenodd" fill="rgb(25.882353%, 52.156863%, 95.686275%)" fill-opacity="1" d="M 6.492188 16.4375 C 8.585938 15.847656 10.773438 17.039062 11.371094 19.101562 C 11.972656 21.160156 10.761719 23.3125 8.667969 23.90625 C 7.972656 24.101562 7.269531 24.097656 6.613281 23.933594 L 6.394531 23.875 L 4.324219 27.554688 L 2.945312 26.804688 L 5.015625 23.117188 C 4.449219 22.636719 4.011719 22.003906 3.789062 21.242188 C 3.1875 19.179688 4.398438 17.027344 6.492188 16.4375 Z M 18.050781 24.640625 L 18.050781 26.660156 L 13.949219 26.660156 L 13.949219 24.640625 Z M 22.152344 20.601562 L 22.152344 22.621094 L 13.949219 22.621094 L 13.949219 20.601562 Z M 9.855469 19.527344 C 9.496094 18.296875 8.179688 17.578125 6.929688 17.929688 C 5.675781 18.285156 4.945312 19.582031 5.304688 20.8125 C 5.664062 22.046875 6.980469 22.765625 8.234375 22.410156 C 9.484375 22.058594 10.214844 20.761719 9.855469 19.527344 Z M 26.257812 16.5625 L 26.257812 18.582031 L 13.949219 18.582031 L 13.949219 16.5625 Z M 29.332031 12.523438 L 29.332031 14.542969 L 2.667969 14.542969 L 2.667969 12.523438 Z M 29.332031 8.484375 L 29.332031 10.503906 L 2.667969 10.503906 L 2.667969 8.484375 Z M 15.039062 4.445312 L 15.039062 6.464844 L 5.742188 6.464844 L 5.742188 4.445312 Z M 26.257812 4.445312 L 26.257812 6.464844 L 16.960938 6.464844 L 16.960938 4.445312 Z M 26.257812 4.445312 "/>
</svg>
