<?xml version="1.0" encoding="UTF-8"?>
<svg xmlns="http://www.w3.org/2000/svg" xmlns:xlink="http://www.w3.org/1999/xlink" width="32" height="32" viewBox="0 0 32 32">
<path fill-rule="nonzero" fill="rgb(25.882353%, 52.156863%, 95.686275%)" fill-opacity="1" d="M 16.042969 16.085938 C 17.792969 16.085938 19.375 16.824219 20.484375 18.011719 C 21.300781 17.070312 22.496094 16.503906 23.785156 16.503906 L 24.945312 16.503906 C 27.367188 16.503906 29.332031 18.480469 29.332031 20.917969 C 29.332031 23.355469 27.367188 25.332031 24.945312 25.332031 L 6.558594 25.332031 C 4.410156 25.332031 2.667969 23.582031 2.667969 21.417969 C 2.667969 19.253906 4.410156 17.503906 6.558594 17.503906 L 9.453125 17.503906 C 10.195312 17.503906 10.90625 17.714844 11.515625 18.097656 C 12.628906 16.863281 14.246094 16.085938 16.042969 16.085938 Z M 9.453125 19.164062 L 6.558594 19.164062 C 5.320312 19.164062 4.320312 20.171875 4.320312 21.417969 C 4.320312 22.664062 5.320312 23.671875 6.558594 23.671875 L 9.964844 23.671875 L 9.964844 23.554688 L 9.957031 22.164062 L 9.953125 22.160156 L 9.957031 22.097656 L 9.960938 21.875 L 9.960938 21.863281 L 9.972656 21.710938 C 9.976562 21.636719 9.984375 21.5625 9.992188 21.492188 C 9.996094 21.46875 10 21.441406 10 21.417969 C 10.011719 21.335938 10.023438 21.25 10.035156 21.167969 C 10.042969 21.140625 10.046875 21.113281 10.050781 21.085938 C 10.089844 20.878906 10.136719 20.675781 10.191406 20.476562 C 10.207031 20.429688 10.222656 20.382812 10.238281 20.332031 C 10.253906 20.273438 10.277344 20.214844 10.296875 20.152344 L 10.34375 20.027344 C 10.410156 19.84375 10.488281 19.664062 10.574219 19.492188 L 10.582031 19.472656 L 10.550781 19.453125 C 10.222656 19.265625 9.847656 19.164062 9.453125 19.164062 Z M 24.945312 18.164062 L 23.785156 18.164062 C 22.839844 18.164062 21.976562 18.652344 21.480469 19.433594 L 21.488281 19.453125 C 21.582031 19.640625 21.667969 19.832031 21.742188 20.027344 C 21.75 20.054688 21.761719 20.082031 21.769531 20.109375 C 21.800781 20.191406 21.828125 20.28125 21.855469 20.367188 C 21.863281 20.390625 21.871094 20.414062 21.878906 20.4375 L 21.910156 20.550781 L 21.941406 20.667969 C 21.976562 20.800781 22.003906 20.933594 22.027344 21.070312 C 22.035156 21.101562 22.039062 21.136719 22.046875 21.167969 C 22.058594 21.242188 22.070312 21.3125 22.078125 21.386719 C 22.082031 21.433594 22.089844 21.476562 22.09375 21.519531 C 22.101562 21.585938 22.105469 21.648438 22.109375 21.710938 C 22.113281 21.753906 22.117188 21.792969 22.117188 21.835938 L 22.125 22 L 22.128906 22.164062 L 22.128906 23.671875 L 24.945312 23.671875 C 26.457031 23.671875 27.679688 22.4375 27.679688 20.917969 C 27.679688 19.398438 26.457031 18.164062 24.945312 18.164062 Z M 20.347656 21.117188 L 20.347656 21.121094 L 20.351562 21.125 Z M 20.074219 20.328125 L 20.078125 20.332031 L 20.066406 20.3125 Z M 7.71875 10.511719 C 9.542969 10.511719 11.027344 11.984375 11.027344 13.804688 C 11.027344 15.625 9.542969 17.09375 7.71875 17.09375 C 5.890625 17.09375 4.40625 15.625 4.40625 13.804688 C 4.40625 11.984375 5.890625 10.511719 7.71875 10.511719 Z M 24.484375 9.011719 C 26.421875 9.011719 27.996094 10.578125 27.996094 12.511719 C 27.996094 14.445312 26.421875 16.011719 24.484375 16.011719 C 22.546875 16.011719 20.972656 14.445312 20.972656 12.511719 C 20.972656 10.578125 22.546875 9.011719 24.484375 9.011719 Z M 7.71875 12.175781 C 6.796875 12.175781 6.058594 12.90625 6.058594 13.804688 C 6.058594 14.699219 6.796875 15.429688 7.71875 15.429688 C 8.636719 15.429688 9.375 14.699219 9.375 13.804688 C 9.375 12.90625 8.636719 12.175781 7.71875 12.175781 Z M 16.082031 6.667969 C 18.230469 6.667969 19.972656 8.398438 19.972656 10.539062 C 19.972656 12.683594 18.230469 14.414062 16.082031 14.414062 C 13.9375 14.414062 12.191406 12.683594 12.191406 10.539062 C 12.191406 8.398438 13.9375 6.667969 16.082031 6.667969 Z M 24.484375 10.675781 C 23.453125 10.675781 22.625 11.5 22.625 12.511719 C 22.625 13.523438 23.453125 14.347656 24.484375 14.347656 C 25.515625 14.347656 26.347656 13.523438 26.347656 12.511719 C 26.347656 11.5 25.515625 10.675781 24.484375 10.675781 Z M 16.082031 8.328125 C 14.84375 8.328125 13.84375 9.320312 13.84375 10.539062 C 13.84375 11.757812 14.84375 12.75 16.082031 12.75 C 17.320312 12.75 18.320312 11.757812 18.320312 10.539062 C 18.320312 9.320312 17.320312 8.328125 16.082031 8.328125 Z M 12.09375 20.148438 L 12.105469 20.121094 L 12.09375 20.148438 L 12.089844 20.152344 Z M 20.25 20.777344 L 20.269531 20.839844 L 20.261719 20.800781 L 20.238281 20.738281 Z M 20.25 20.777344 L 20.230469 20.710938 L 20.230469 20.707031 L 20.214844 20.671875 L 20.214844 20.667969 L 20.207031 20.644531 L 20.195312 20.617188 L 20.191406 20.613281 L 20.183594 20.585938 L 20.167969 20.550781 L 20.15625 20.519531 L 20.152344 20.511719 L 20.140625 20.476562 L 20.144531 20.492188 L 20.101562 20.386719 L 20.09375 20.367188 L 20.0625 20.304688 L 20.039062 20.253906 L 20.035156 20.242188 L 20.027344 20.230469 L 20.03125 20.234375 L 20.015625 20.203125 L 20 20.175781 L 19.960938 20.097656 L 19.949219 20.078125 L 19.945312 20.066406 L 19.921875 20.03125 L 19.898438 19.984375 C 19.875 19.945312 19.851562 19.90625 19.828125 19.867188 L 19.761719 19.761719 L 19.722656 19.707031 L 19.742188 19.738281 L 19.683594 19.648438 C 18.886719 18.5 17.550781 17.75 16.042969 17.75 C 14.53125 17.75 13.203125 18.496094 12.402344 19.640625 L 12.398438 19.644531 C 12.292969 19.796875 12.195312 19.957031 12.109375 20.121094 L 12.09375 20.148438 L 12.066406 20.203125 L 12.078125 20.175781 L 12.050781 20.234375 L 12.046875 20.242188 L 12.042969 20.253906 L 12.019531 20.304688 L 12.007812 20.328125 L 12.003906 20.332031 L 11.992188 20.359375 L 11.988281 20.367188 L 11.980469 20.386719 L 11.964844 20.421875 L 11.972656 20.402344 L 11.867188 20.667969 C 11.835938 20.761719 11.804688 20.855469 11.777344 20.953125 L 11.703125 21.246094 L 11.691406 21.292969 L 11.6875 21.324219 L 11.675781 21.378906 L 11.671875 21.414062 L 11.671875 21.417969 L 11.664062 21.453125 L 11.664062 21.457031 L 11.660156 21.492188 L 11.65625 21.507812 L 11.652344 21.519531 L 11.628906 21.726562 C 11.613281 21.867188 11.609375 22.011719 11.609375 22.160156 L 11.617188 23.554688 L 11.617188 23.671875 L 20.476562 23.671875 L 20.476562 22.164062 C 20.476562 22.0625 20.472656 21.960938 20.464844 21.859375 L 20.460938 21.832031 C 20.460938 21.820312 20.460938 21.8125 20.460938 21.804688 L 20.460938 21.828125 L 20.460938 21.800781 L 20.457031 21.773438 L 20.453125 21.730469 L 20.449219 21.710938 L 20.445312 21.648438 L 20.441406 21.617188 L 20.441406 21.601562 L 20.425781 21.507812 L 20.417969 21.457031 L 20.402344 21.371094 L 20.382812 21.265625 L 20.378906 21.246094 L 20.375 21.222656 L 20.363281 21.175781 L 20.351562 21.125 L 20.359375 21.167969 L 20.347656 21.121094 L 20.339844 21.085938 L 20.335938 21.070312 L 20.335938 21.066406 L 20.308594 20.960938 L 20.304688 20.953125 L 20.292969 20.917969 Z M 20.25 20.777344 "/>
</svg>
