<?xml version="1.0" encoding="UTF-8"?>
<svg xmlns="http://www.w3.org/2000/svg" xmlns:xlink="http://www.w3.org/1999/xlink" width="32" height="32" viewBox="0 0 32 32">
<path fill-rule="nonzero" fill="rgb(40%, 61.568627%, 96.470588%)" fill-opacity="1" d="M 26 21.558594 L 16.320312 21.558594 C 15.386719 21.480469 14.460938 21.796875 13.765625 22.429688 C 13.074219 23.0625 12.675781 23.953125 12.667969 24.894531 C 12.664062 25.835938 13.058594 26.734375 13.753906 27.371094 C 14.449219 28.007812 15.382812 28.316406 16.320312 28.226562 L 26 28.226562 Z M 26 21.558594 "/>
<path fill-rule="nonzero" fill="rgb(25.882353%, 52.156863%, 95.686275%)" fill-opacity="1" d="M 29.332031 24.894531 C 29.332031 26.734375 27.839844 28.226562 26 28.226562 C 24.160156 28.226562 22.667969 26.734375 22.667969 24.894531 C 22.667969 23.050781 24.160156 21.558594 26 21.558594 C 27.839844 21.558594 29.332031 23.050781 29.332031 24.894531 Z M 29.332031 24.894531 "/>
<path fill-rule="nonzero" fill="rgb(40%, 61.568627%, 96.470588%)" fill-opacity="1" d="M 16 12.667969 L 6.320312 12.667969 C 5.386719 12.589844 4.460938 12.902344 3.765625 13.535156 C 3.074219 14.167969 2.675781 15.0625 2.667969 16 C 2.664062 16.941406 3.058594 17.84375 3.753906 18.476562 C 4.449219 19.113281 5.382812 19.421875 6.320312 19.332031 L 16 19.332031 Z M 16 12.667969 "/>
<path fill-rule="nonzero" fill="rgb(25.882353%, 52.156863%, 95.686275%)" fill-opacity="1" d="M 19.332031 16 C 19.332031 17.839844 17.839844 19.332031 16 19.332031 C 14.160156 19.332031 12.667969 17.839844 12.667969 16 C 12.667969 14.160156 14.160156 12.667969 16 12.667969 C 17.839844 12.667969 19.332031 14.160156 19.332031 16 Z M 19.332031 16 "/>
<path fill-rule="nonzero" fill="rgb(40%, 61.568627%, 96.470588%)" fill-opacity="1" d="M 26 3.773438 L 16.320312 3.773438 C 15.386719 3.699219 14.460938 4.015625 13.769531 4.648438 C 13.078125 5.28125 12.679688 6.167969 12.667969 7.105469 C 12.664062 8.050781 13.058594 8.949219 13.753906 9.585938 C 14.449219 10.21875 15.382812 10.53125 16.320312 10.441406 L 26 10.441406 Z M 26 3.773438 "/>
<path fill-rule="nonzero" fill="rgb(25.882353%, 52.156863%, 95.686275%)" fill-opacity="1" d="M 29.332031 7.105469 C 29.332031 8.949219 27.839844 10.441406 26 10.441406 C 24.160156 10.441406 22.667969 8.949219 22.667969 7.105469 C 22.667969 5.265625 24.160156 3.773438 26 3.773438 C 27.839844 3.773438 29.332031 5.265625 29.332031 7.105469 Z M 29.332031 7.105469 "/>
</svg>
