<?xml version="1.0" encoding="UTF-8"?>
<svg xmlns="http://www.w3.org/2000/svg" xmlns:xlink="http://www.w3.org/1999/xlink" width="32" height="32" viewBox="0 0 32 32">
<path fill-rule="nonzero" fill="rgb(68.235294%, 79.607843%, 98.039216%)" fill-opacity="1" d="M 8 10.464844 L 8 15.507812 C 7.980469 15.839844 7.980469 16.171875 8 16.507812 C 8.304688 18.875 9.441406 21.054688 11.199219 22.667969 C 12.472656 23.890625 14.054688 24.746094 15.773438 25.148438 L 16 25.148438 L 16 20.160156 C 13.703125 20.160156 11.839844 18.296875 11.839844 16 C 11.839844 13.703125 13.703125 11.839844 16 11.839844 L 16 6.746094 Z M 8 10.464844 "/>
<path fill-rule="nonzero" fill="rgb(68.235294%, 79.607843%, 98.039216%)" fill-opacity="1" d="M 26.960938 14.960938 C 27.535156 14.960938 28 15.425781 28 16 C 28 16.574219 27.535156 17.039062 26.960938 17.039062 C 26.386719 17.039062 25.921875 16.574219 25.921875 16 C 25.921875 15.425781 26.386719 14.960938 26.960938 14.960938 M 26.960938 13.960938 C 25.832031 13.960938 24.921875 14.875 24.921875 16 C 24.921875 17.125 25.832031 18.039062 26.960938 18.039062 C 28.085938 18.039062 29 17.125 29 16 C 29 14.875 28.085938 13.960938 26.960938 13.960938 Z M 26.960938 13.960938 "/>
<path fill-rule="nonzero" fill="rgb(25.882353%, 52.156863%, 95.686275%)" fill-opacity="1" d="M 16 6.746094 L 16 11.839844 C 18.296875 11.839844 20.160156 13.703125 20.160156 16 C 20.160156 18.296875 18.296875 20.160156 16 20.160156 L 16 25.171875 L 16.226562 25.171875 C 17.949219 24.765625 19.53125 23.902344 20.800781 22.667969 C 22.527344 21.050781 23.628906 18.878906 23.921875 16.535156 C 23.941406 16.199219 23.941406 15.867188 23.921875 15.535156 L 23.921875 10.464844 Z M 16 6.746094 "/>
<path fill-rule="nonzero" fill="rgb(25.882353%, 52.156863%, 95.686275%)" fill-opacity="1" d="M 26.960938 6.28125 C 27.535156 6.28125 28 6.746094 28 7.320312 C 28 7.894531 27.535156 8.359375 26.960938 8.359375 C 26.386719 8.359375 25.921875 7.894531 25.921875 7.320312 C 25.921875 6.746094 26.386719 6.28125 26.960938 6.28125 M 26.960938 5.28125 C 25.832031 5.28125 24.921875 6.191406 24.921875 7.320312 C 24.921875 8.445312 25.832031 9.359375 26.960938 9.359375 C 28.085938 9.359375 29 8.445312 29 7.320312 C 28.976562 6.210938 28.070312 5.324219 26.960938 5.332031 Z M 26.960938 5.28125 "/>
<path fill-rule="nonzero" fill="rgb(25.882353%, 52.156863%, 95.686275%)" fill-opacity="1" d="M 5.039062 23.640625 C 5.613281 23.640625 6.078125 24.105469 6.078125 24.679688 C 6.078125 25.253906 5.613281 25.71875 5.039062 25.71875 C 4.464844 25.71875 4 25.253906 4 24.679688 C 4 24.105469 4.464844 23.640625 5.039062 23.640625 M 5.039062 22.640625 C 4.214844 22.632812 3.464844 23.128906 3.144531 23.890625 C 2.824219 24.652344 2.996094 25.53125 3.578125 26.117188 C 4.160156 26.703125 5.039062 26.882812 5.804688 26.566406 C 6.566406 26.25 7.066406 25.507812 7.066406 24.679688 C 7.050781 23.570312 6.152344 22.675781 5.039062 22.667969 Z M 5.039062 22.640625 "/>
<path fill-rule="nonzero" fill="rgb(68.235294%, 79.607843%, 98.039216%)" fill-opacity="1" d="M 5.039062 14.960938 C 5.613281 14.960938 6.078125 15.425781 6.078125 16 C 6.078125 16.574219 5.613281 17.039062 5.039062 17.039062 C 4.464844 17.039062 4 16.574219 4 16 C 4 15.425781 4.464844 14.960938 5.039062 14.960938 M 5.039062 13.960938 C 4.214844 13.953125 3.464844 14.449219 3.144531 15.210938 C 2.824219 15.972656 2.996094 16.851562 3.578125 17.4375 C 4.160156 18.023438 5.039062 18.199219 5.804688 17.886719 C 6.566406 17.570312 7.066406 16.828125 7.066406 16 C 7.066406 14.878906 6.160156 13.96875 5.039062 13.960938 Z M 5.039062 13.960938 "/>
<path fill-rule="nonzero" fill="rgb(40%, 61.568627%, 96.470588%)" fill-opacity="1" d="M 25 15.507812 L 24 15.507812 C 24.019531 15.839844 24.019531 16.171875 24 16.507812 L 25.078125 16.507812 C 25.011719 16.34375 24.960938 16.175781 24.933594 16 C 24.933594 15.832031 24.957031 15.667969 25 15.507812 Z M 25 15.507812 "/>
<path fill-rule="nonzero" fill="rgb(40%, 61.568627%, 96.470588%)" fill-opacity="1" d="M 7 16.507812 L 8.078125 16.507812 C 8.058594 16.171875 8.058594 15.839844 8.078125 15.507812 L 7 15.507812 C 7.019531 15.671875 7.019531 15.835938 7 16 C 7.019531 16.167969 7.019531 16.339844 7 16.507812 Z M 7 16.507812 "/>
<path fill-rule="nonzero" fill="rgb(40%, 61.568627%, 96.470588%)" fill-opacity="1" d="M 9.160156 6.8125 L 7 6.8125 C 7.019531 6.980469 7.019531 7.152344 7 7.320312 C 7.019531 7.484375 7.019531 7.648438 7 7.8125 L 8.867188 7.8125 L 10.867188 9.148438 L 12 8.640625 Z M 9.160156 6.8125 "/>
<path fill-rule="nonzero" fill="rgb(40%, 61.568627%, 96.470588%)" fill-opacity="1" d="M 25 6.8125 L 22.839844 6.8125 L 20.066406 8.640625 L 21.132812 9.148438 L 23.132812 7.8125 L 25 7.8125 C 24.957031 7.652344 24.933594 7.488281 24.933594 7.320312 C 24.933594 7.148438 24.957031 6.980469 25 6.8125 Z M 25 6.8125 "/>
<path fill-rule="nonzero" fill="rgb(40%, 61.568627%, 96.470588%)" fill-opacity="1" d="M 12 23.320312 C 11.722656 23.117188 11.453125 22.898438 11.199219 22.667969 L 8.867188 24.1875 L 7 24.1875 C 7.019531 24.351562 7.019531 24.515625 7 24.679688 C 7.019531 24.847656 7.019531 25.019531 7 25.1875 L 9.160156 25.1875 Z M 12 23.320312 "/>
<path fill-rule="nonzero" fill="rgb(40%, 61.568627%, 96.470588%)" fill-opacity="1" d="M 25 24.1875 L 23.132812 24.1875 L 20.800781 22.667969 C 20.550781 22.90625 20.289062 23.132812 20.011719 23.347656 L 22.839844 25.214844 L 25 25.214844 C 24.957031 25.046875 24.933594 24.878906 24.933594 24.707031 C 24.933594 24.53125 24.953125 24.355469 25 24.1875 Z M 25 24.1875 "/>
<path fill-rule="nonzero" fill="rgb(40%, 61.568627%, 96.470588%)" fill-opacity="1" d="M 16 13.839844 C 14.808594 13.839844 13.839844 14.808594 13.839844 16 C 13.839844 17.191406 14.808594 18.160156 16 18.160156 C 17.191406 18.160156 18.160156 17.191406 18.160156 16 C 18.152344 14.808594 17.191406 13.847656 16 13.839844 Z M 16 13.839844 "/>
<path fill-rule="nonzero" fill="rgb(40%, 61.568627%, 96.470588%)" fill-opacity="1" d="M 26.960938 23.640625 C 27.535156 23.640625 28 24.105469 28 24.679688 C 28 25.253906 27.535156 25.71875 26.960938 25.71875 C 26.386719 25.71875 25.921875 25.253906 25.921875 24.679688 C 25.921875 24.105469 26.386719 23.640625 26.960938 23.640625 M 26.960938 22.640625 C 25.832031 22.640625 24.921875 23.554688 24.921875 24.679688 C 24.921875 25.808594 25.832031 26.71875 26.960938 26.71875 C 28.085938 26.71875 29 25.808594 29 24.679688 C 28.984375 23.5625 28.078125 22.667969 26.960938 22.667969 Z M 26.960938 22.640625 "/>
<path fill-rule="nonzero" fill="rgb(40%, 61.568627%, 96.470588%)" fill-opacity="1" d="M 5.039062 6.28125 C 5.613281 6.28125 6.078125 6.746094 6.078125 7.320312 C 6.078125 7.894531 5.613281 8.359375 5.039062 8.359375 C 4.464844 8.359375 4 7.894531 4 7.320312 C 4 6.746094 4.464844 6.28125 5.039062 6.28125 M 5.039062 5.28125 C 4.214844 5.273438 3.464844 5.769531 3.144531 6.53125 C 2.824219 7.292969 2.996094 8.171875 3.578125 8.757812 C 4.160156 9.34375 5.039062 9.519531 5.804688 9.207031 C 6.566406 8.890625 7.066406 8.144531 7.066406 7.320312 C 7.042969 6.214844 6.144531 5.332031 5.039062 5.332031 Z M 5.039062 5.28125 "/>
</svg>
