<?xml version="1.0" encoding="UTF-8"?>
<svg xmlns="http://www.w3.org/2000/svg" xmlns:xlink="http://www.w3.org/1999/xlink" width="32" height="32" viewBox="0 0 32 32">
<path fill-rule="nonzero" fill="rgb(68.235294%, 79.607843%, 98.039216%)" fill-opacity="1" d="M 24.746094 4 C 25.019531 3.992188 25.246094 4.207031 25.253906 4.480469 L 25.253906 10.011719 C 25.214844 10.257812 25 10.4375 24.753906 10.4375 C 24.503906 10.4375 24.292969 10.257812 24.253906 10.011719 L 24.253906 4.519531 C 24.246094 4.382812 24.292969 4.253906 24.386719 4.152344 C 24.480469 4.054688 24.609375 4 24.746094 4 Z M 28.945312 5.878906 L 28.945312 8 C 28.9375 8.273438 28.710938 8.488281 28.441406 8.480469 C 28.191406 8.460938 28 8.25 28 8 L 28 5.921875 C 28 5.789062 28.050781 5.667969 28.144531 5.574219 C 28.238281 5.484375 28.363281 5.4375 28.492188 5.441406 C 28.746094 5.460938 28.941406 5.667969 28.945312 5.921875 Z M 26.09375 3.558594 L 26.09375 10.667969 C 26.132812 10.910156 26.34375 11.089844 26.59375 11.089844 C 26.839844 11.089844 27.054688 10.910156 27.09375 10.667969 L 27.09375 3.558594 C 27.054688 3.316406 26.839844 3.136719 26.59375 3.136719 C 26.34375 3.136719 26.132812 3.316406 26.09375 3.558594 Z M 22.425781 5.585938 L 22.425781 8.546875 C 22.46875 8.792969 22.679688 8.972656 22.925781 8.972656 C 23.175781 8.972656 23.386719 8.792969 23.425781 8.546875 L 23.425781 5.585938 C 23.386719 5.339844 23.175781 5.160156 22.925781 5.160156 C 22.679688 5.160156 22.46875 5.339844 22.425781 5.585938 Z M 22.425781 5.585938 "/>
<path fill-rule="nonzero" fill="rgb(40%, 61.568627%, 96.470588%)" fill-opacity="1" d="M 3 27.773438 L 3 7.066406 C 3 5.6875 4.113281 4.566406 5.492188 4.558594 L 21.199219 4.558594 L 21.199219 6.558594 L 5.492188 6.558594 C 5.21875 6.566406 5 6.792969 5 7.066406 L 5 22.945312 L 6.414062 21.535156 L 25.078125 21.535156 C 25.355469 21.527344 25.574219 21.300781 25.574219 21.027344 L 25.574219 12.480469 L 27.574219 12.480469 L 27.574219 21.027344 C 27.574219 22.40625 26.460938 23.527344 25.078125 23.535156 L 7.238281 23.535156 Z M 3 27.773438 "/>
<path fill-rule="nonzero" fill="rgb(25.882353%, 52.156863%, 95.686275%)" fill-opacity="1" d="M 18.347656 8.894531 L 18.347656 10.507812 L 16.332031 10.507812 C 15.820312 12.101562 14.988281 13.570312 13.878906 14.828125 L 15.574219 16.492188 L 14.960938 18.132812 L 12.800781 16 L 9.398438 19.375 L 8.265625 18.226562 L 11.71875 14.828125 C 10.9375 13.9375 10.292969 12.941406 9.800781 11.867188 L 9.679688 11.613281 L 11.308594 11.613281 C 11.695312 12.386719 12.183594 13.101562 12.761719 13.746094 C 13.621094 12.773438 14.289062 11.648438 14.734375 10.425781 L 7.238281 10.425781 L 7.238281 8.894531 L 12 8.894531 L 12 7.558594 L 13.601562 7.558594 L 13.601562 8.894531 Z M 16.585938 20.558594 L 18.292969 20.558594 L 18.988281 18.585938 L 22.132812 18.585938 L 22.828125 20.558594 L 24.546875 20.558594 L 21.453125 12.320312 L 19.667969 12.320312 Z M 19.480469 17.160156 L 20.214844 15.09375 L 20.519531 14.105469 L 20.613281 14.105469 L 20.90625 15.09375 L 21.640625 17.160156 Z M 19.480469 17.160156 "/>
</svg>
