<?xml version="1.0" encoding="UTF-8"?>
<svg xmlns="http://www.w3.org/2000/svg" xmlns:xlink="http://www.w3.org/1999/xlink" width="32" height="32" viewBox="0 0 32 32">
<path fill-rule="evenodd" fill="rgb(25.882353%, 52.156863%, 95.686275%)" fill-opacity="1" d="M 24.238281 22.988281 C 23.636719 23.648438 22.960938 24.238281 22.226562 24.746094 L 26.148438 28.667969 C 26.667969 29.183594 27.507812 29.183594 28.027344 28.667969 C 28.542969 28.148438 28.542969 27.308594 28.027344 26.785156 Z M 24.238281 22.988281 "/>
<path fill-rule="nonzero" fill="rgb(25.882353%, 52.156863%, 95.686275%)" fill-opacity="1" d="M 18.667969 20.667969 L 12.253906 20.667969 L 17.585938 10 L 13.332031 10 L 13.332031 8.667969 L 19.746094 8.667969 L 14.414062 19.332031 L 18.667969 19.332031 Z M 18.667969 20.667969 "/>
<path fill-rule="nonzero" fill="rgb(40%, 61.568627%, 96.470588%)" fill-opacity="1" d="M 20.332031 20 C 20.332031 20.921875 19.585938 21.667969 18.667969 21.667969 C 17.746094 21.667969 17 20.921875 17 20 C 17 19.078125 17.746094 18.332031 18.667969 18.332031 C 19.585938 18.332031 20.332031 19.078125 20.332031 20 Z M 20.332031 20 "/>
<path fill-rule="nonzero" fill="rgb(40%, 61.568627%, 96.470588%)" fill-opacity="1" d="M 15 20 C 15 20.921875 14.253906 21.667969 13.332031 21.667969 C 12.414062 21.667969 11.667969 20.921875 11.667969 20 C 11.667969 19.078125 12.414062 18.332031 13.332031 18.332031 C 14.253906 18.332031 15 19.078125 15 20 Z M 15 20 "/>
<path fill-rule="nonzero" fill="rgb(25.882353%, 52.156863%, 95.686275%)" fill-opacity="1" d="M 10.667969 14 L 21.332031 14 L 21.332031 15.332031 L 10.667969 15.332031 Z M 10.667969 14 "/>
<path fill-rule="evenodd" fill="rgb(40%, 61.568627%, 96.470588%)" fill-opacity="1" d="M 16 5.332031 C 21.15625 5.332031 25.332031 9.511719 25.332031 14.667969 C 25.332031 19.820312 21.15625 24 16 24 C 10.84375 24 6.667969 19.820312 6.667969 14.667969 C 6.667969 9.511719 10.84375 5.332031 16 5.332031 M 16 2.667969 C 9.371094 2.667969 4 8.039062 4 14.667969 C 4 21.292969 9.371094 26.667969 16 26.667969 C 22.628906 26.667969 28 21.292969 28 14.667969 C 28 8.039062 22.628906 2.667969 16 2.667969 "/>
<path fill-rule="nonzero" fill="rgb(40%, 61.568627%, 96.470588%)" fill-opacity="1" d="M 17.667969 14.667969 C 17.667969 15.585938 16.921875 16.332031 16 16.332031 C 15.078125 16.332031 14.332031 15.585938 14.332031 14.667969 C 14.332031 13.746094 15.078125 13 16 13 C 16.921875 13 17.667969 13.746094 17.667969 14.667969 Z M 17.667969 14.667969 "/>
<path fill-rule="nonzero" fill="rgb(40%, 61.568627%, 96.470588%)" fill-opacity="1" d="M 12.332031 14.667969 C 12.332031 15.585938 11.585938 16.332031 10.667969 16.332031 C 9.746094 16.332031 9 15.585938 9 14.667969 C 9 13.746094 9.746094 13 10.667969 13 C 11.585938 13 12.332031 13.746094 12.332031 14.667969 Z M 12.332031 14.667969 "/>
<path fill-rule="nonzero" fill="rgb(40%, 61.568627%, 96.470588%)" fill-opacity="1" d="M 23 14.667969 C 23 15.585938 22.253906 16.332031 21.332031 16.332031 C 20.414062 16.332031 19.667969 15.585938 19.667969 14.667969 C 19.667969 13.746094 20.414062 13 21.332031 13 C 22.253906 13 23 13.746094 23 14.667969 Z M 23 14.667969 "/>
<path fill-rule="nonzero" fill="rgb(40%, 61.568627%, 96.470588%)" fill-opacity="1" d="M 20.332031 9.332031 C 20.332031 10.253906 19.585938 11 18.667969 11 C 17.746094 11 17 10.253906 17 9.332031 C 17 8.414062 17.746094 7.667969 18.667969 7.667969 C 19.585938 7.667969 20.332031 8.414062 20.332031 9.332031 Z M 20.332031 9.332031 "/>
<path fill-rule="nonzero" fill="rgb(40%, 61.568627%, 96.470588%)" fill-opacity="1" d="M 15 9.332031 C 15 10.253906 14.253906 11 13.332031 11 C 12.414062 11 11.667969 10.253906 11.667969 9.332031 C 11.667969 8.414062 12.414062 7.667969 13.332031 7.667969 C 14.253906 7.667969 15 8.414062 15 9.332031 Z M 15 9.332031 "/>
</svg>
