<?xml version="1.0" encoding="UTF-8"?>
<svg xmlns="http://www.w3.org/2000/svg" xmlns:xlink="http://www.w3.org/1999/xlink" width="32" height="32" viewBox="0 0 32 32">
<path fill-rule="nonzero" fill="rgb(40%, 61.568627%, 96.470588%)" fill-opacity="1" d="M 26.667969 28 C 26.316406 28 25.980469 27.859375 25.734375 27.613281 L 23.066406 24.945312 C 22.613281 24.417969 22.644531 23.628906 23.136719 23.136719 C 23.628906 22.644531 24.417969 22.613281 24.945312 23.066406 L 27.613281 25.734375 C 28.128906 26.253906 28.128906 27.09375 27.613281 27.613281 C 27.363281 27.863281 27.019531 28.003906 26.667969 28 Z M 26.667969 28 "/>
<path fill-rule="nonzero" fill="rgb(40%, 61.568627%, 96.470588%)" fill-opacity="1" d="M 5.332031 28 C 4.792969 27.996094 4.308594 27.671875 4.105469 27.171875 C 3.902344 26.671875 4.015625 26.101562 4.398438 25.71875 L 7.066406 23.054688 C 7.316406 22.800781 7.65625 22.660156 8.011719 22.660156 C 8.367188 22.660156 8.710938 22.800781 8.960938 23.054688 C 9.476562 23.574219 9.476562 24.414062 8.960938 24.933594 L 6.292969 27.601562 C 6.039062 27.859375 5.695312 28.003906 5.332031 28 Z M 5.332031 28 "/>
<path fill-rule="nonzero" fill="rgb(25.882353%, 52.156863%, 95.686275%)" fill-opacity="1" d="M 7.292969 22.839844 L 5.667969 24.464844 C 6.238281 25.148438 6.875 25.777344 7.558594 26.347656 L 9.1875 24.71875 Z M 7.292969 22.839844 "/>
<path fill-rule="nonzero" fill="rgb(25.882353%, 52.156863%, 95.686275%)" fill-opacity="1" d="M 26.308594 24.414062 L 24.972656 23.078125 C 24.878906 22.996094 24.777344 22.925781 24.667969 22.867188 L 22.878906 24.652344 C 22.9375 24.761719 23.011719 24.867188 23.09375 24.960938 L 24.425781 26.292969 C 25.109375 25.722656 25.738281 25.09375 26.308594 24.414062 Z M 26.308594 24.414062 "/>
<path fill-rule="nonzero" fill="rgb(40%, 61.568627%, 96.470588%)" fill-opacity="1" d="M 16 28 C 9.371094 28 4 22.628906 4 16 C 4 9.371094 9.371094 4 16 4 C 22.628906 4 28 9.371094 28 16 C 28 22.628906 22.628906 28 16 28 Z M 16 25.332031 C 21.15625 25.332031 25.332031 21.15625 25.332031 16 C 25.332031 10.84375 21.15625 6.667969 16 6.667969 C 10.84375 6.667969 6.667969 10.84375 6.667969 16 C 6.667969 21.15625 10.84375 25.332031 16 25.332031 Z M 16 25.332031 "/>
<path fill-rule="nonzero" fill="rgb(25.882353%, 52.156863%, 95.686275%)" fill-opacity="1" d="M 16 22.667969 C 19.683594 22.667969 22.667969 19.683594 22.667969 16 C 22.667969 12.316406 19.683594 9.332031 16 9.332031 L 16 16 L 10.558594 19.878906 C 11.816406 21.632812 13.84375 22.671875 16 22.667969 Z M 16 22.667969 "/>
<path fill-rule="nonzero" fill="rgb(68.235294%, 79.607843%, 98.039216%)" fill-opacity="1" d="M 5.332031 8.09375 C 4.792969 8.097656 4.300781 7.773438 4.09375 7.269531 C 3.886719 6.769531 4.003906 6.195312 4.386719 5.8125 L 7.054688 3.148438 C 7.304688 2.894531 7.644531 2.753906 8 2.753906 C 8.355469 2.753906 8.695312 2.894531 8.945312 3.148438 C 9.464844 3.667969 9.464844 4.507812 8.945312 5.027344 L 6.28125 7.691406 C 6.03125 7.949219 5.691406 8.09375 5.332031 8.09375 Z M 5.332031 8.09375 "/>
<path fill-rule="nonzero" fill="rgb(68.235294%, 79.607843%, 98.039216%)" fill-opacity="1" d="M 26.667969 8.09375 C 26.308594 8.09375 25.96875 7.949219 25.71875 7.691406 L 23.054688 5.027344 C 22.535156 4.507812 22.535156 3.667969 23.054688 3.148438 C 23.304688 2.894531 23.644531 2.753906 24 2.753906 C 24.355469 2.753906 24.695312 2.894531 24.945312 3.148438 L 27.613281 5.8125 C 27.996094 6.195312 28.113281 6.769531 27.90625 7.269531 C 27.699219 7.773438 27.207031 8.097656 26.667969 8.09375 Z M 26.667969 8.09375 "/>
</svg>
