<?xml version="1.0" encoding="UTF-8"?>
<svg xmlns="http://www.w3.org/2000/svg" xmlns:xlink="http://www.w3.org/1999/xlink" width="32" height="32" viewBox="0 0 32 32">
<path fill-rule="nonzero" fill="rgb(25.882353%, 52.156863%, 95.686275%)" fill-opacity="1" d="M 17.332031 24 L 14.667969 24 L 14.667969 10.667969 L 17.332031 10.667969 Z M 17.332031 24 "/>
<path fill-rule="nonzero" fill="rgb(40%, 61.568627%, 96.470588%)" fill-opacity="1" d="M 2.667969 28 L 29.332031 28 L 29.332031 25.332031 L 2.667969 25.332031 Z M 2.667969 28 "/>
<path fill-rule="nonzero" fill="rgb(68.235294%, 79.607843%, 98.039216%)" fill-opacity="1" d="M 13.332031 29.332031 L 18.667969 29.332031 L 18.667969 24 L 13.332031 24 Z M 13.332031 29.332031 "/>
<path fill-rule="nonzero" fill="rgb(68.235294%, 79.607843%, 98.039216%)" fill-opacity="1" d="M 2.667969 2.667969 L 29.332031 2.667969 L 29.332031 10.667969 L 2.667969 10.667969 Z M 2.667969 2.667969 "/>
<path fill-rule="nonzero" fill="rgb(40%, 61.568627%, 96.470588%)" fill-opacity="1" d="M 16 2.667969 L 29.332031 2.667969 L 29.332031 10.667969 L 16 10.667969 Z M 16 2.667969 "/>
<path fill-rule="nonzero" fill="rgb(100%, 100%, 100%)" fill-opacity="1" d="M 5.332031 5.332031 L 8 5.332031 L 8 8 L 5.332031 8 Z M 5.332031 5.332031 "/>
<path fill-rule="nonzero" fill="rgb(68.235294%, 79.607843%, 98.039216%)" fill-opacity="1" d="M 2.667969 13.332031 L 29.332031 13.332031 L 29.332031 21.332031 L 2.667969 21.332031 Z M 2.667969 13.332031 "/>
<path fill-rule="nonzero" fill="rgb(40%, 61.568627%, 96.470588%)" fill-opacity="1" d="M 16 13.332031 L 29.332031 13.332031 L 29.332031 21.332031 L 16 21.332031 Z M 16 13.332031 "/>
<path fill-rule="nonzero" fill="rgb(100%, 100%, 100%)" fill-opacity="1" d="M 5.332031 16 L 8 16 L 8 18.667969 L 5.332031 18.667969 Z M 5.332031 16 "/>
</svg>
