<?xml version="1.0" encoding="UTF-8"?>
<svg xmlns="http://www.w3.org/2000/svg" xmlns:xlink="http://www.w3.org/1999/xlink" width="32" height="32" viewBox="0 0 32 32">
<path fill-rule="nonzero" fill="rgb(40%, 61.568627%, 96.470588%)" fill-opacity="1" d="M 26.667969 18.519531 C 26.339844 18.125 25.769531 18.035156 25.332031 18.308594 L 16 25.160156 L 16 25.453125 C 16.367188 25.410156 16.726562 25.582031 16.925781 25.894531 C 17.121094 26.207031 17.121094 26.605469 16.925781 26.917969 C 16.726562 27.230469 16.367188 27.402344 16 27.359375 C 16.214844 27.359375 16.425781 27.289062 16.601562 27.160156 L 26.480469 19.867188 C 26.878906 19.53125 26.960938 18.949219 26.667969 18.519531 Z M 26.667969 18.519531 "/>
<path fill-rule="nonzero" fill="rgb(68.235294%, 79.607843%, 98.039216%)" fill-opacity="1" d="M 16 27.359375 C 15.515625 27.304688 15.152344 26.894531 15.152344 26.40625 C 15.152344 25.921875 15.515625 25.511719 16 25.453125 L 16 25.160156 L 6.667969 18.308594 C 6.234375 18.027344 5.660156 18.121094 5.332031 18.519531 C 5.042969 18.949219 5.136719 19.535156 5.546875 19.851562 L 15.425781 27.148438 C 15.59375 27.277344 15.800781 27.347656 16.011719 27.347656 Z M 16 27.359375 "/>
<path fill-rule="nonzero" fill="rgb(25.882353%, 52.156863%, 95.686275%)" fill-opacity="1" d="M 16 24.453125 C 14.917969 24.453125 14.039062 25.332031 14.039062 26.414062 C 14.039062 27.496094 14.917969 28.375 16 28.375 C 17.082031 28.375 17.960938 27.496094 17.960938 26.414062 C 17.960938 25.332031 17.082031 24.453125 16 24.453125 Z M 16 27.359375 C 15.609375 27.359375 15.257812 27.125 15.113281 26.765625 C 14.964844 26.402344 15.046875 25.988281 15.324219 25.714844 C 15.601562 25.441406 16.019531 25.363281 16.375 25.515625 C 16.734375 25.667969 16.964844 26.023438 16.960938 26.414062 C 16.960938 26.667969 16.859375 26.910156 16.679688 27.085938 C 16.496094 27.265625 16.253906 27.363281 16 27.359375 Z M 16 27.359375 "/>
<path fill-rule="nonzero" fill="rgb(68.235294%, 79.607843%, 98.039216%)" fill-opacity="1" d="M 8 8.148438 C 7.449219 8.140625 7.007812 7.695312 7 7.148438 L 7 4.640625 C 6.957031 4.253906 7.136719 3.875 7.46875 3.667969 C 7.796875 3.457031 8.214844 3.457031 8.546875 3.667969 C 8.875 3.875 9.058594 4.253906 9.011719 4.640625 L 9.011719 7.148438 C 9.007812 7.699219 8.554688 8.148438 8 8.148438 Z M 8 8.148438 "/>
<path fill-rule="nonzero" fill="rgb(68.235294%, 79.607843%, 98.039216%)" fill-opacity="1" d="M 8.988281 16 C 8.988281 16.558594 8.53125 17.011719 7.972656 17.011719 C 7.414062 17.011719 6.960938 16.558594 6.960938 16 C 6.960938 15.441406 7.414062 14.988281 7.972656 14.988281 C 8.53125 14.988281 8.988281 15.441406 8.988281 16 Z M 8.988281 16 "/>
<path fill-rule="nonzero" fill="rgb(68.235294%, 79.607843%, 98.039216%)" fill-opacity="1" d="M 8.988281 13.054688 C 8.988281 13.613281 8.53125 14.066406 7.972656 14.066406 C 7.414062 14.066406 6.960938 13.613281 6.960938 13.054688 C 6.960938 12.492188 7.414062 12.039062 7.972656 12.039062 C 8.53125 12.039062 8.988281 12.492188 8.988281 13.054688 Z M 8.988281 13.054688 "/>
<path fill-rule="nonzero" fill="rgb(68.235294%, 79.607843%, 98.039216%)" fill-opacity="1" d="M 8.988281 10.09375 C 8.988281 10.652344 8.53125 11.105469 7.972656 11.105469 C 7.414062 11.105469 6.960938 10.652344 6.960938 10.09375 C 6.960938 9.535156 7.414062 9.078125 7.972656 9.078125 C 8.53125 9.078125 8.988281 9.535156 8.988281 10.09375 Z M 8.988281 10.09375 "/>
<path fill-rule="nonzero" fill="rgb(25.882353%, 52.156863%, 95.686275%)" fill-opacity="1" d="M 24 11.078125 C 23.445312 11.074219 23 10.621094 23 10.066406 L 23 7.558594 C 23 7.007812 23.449219 6.558594 24 6.558594 C 24.550781 6.558594 25 7.007812 25 7.558594 L 25 10.066406 C 25.003906 10.335938 24.898438 10.59375 24.710938 10.78125 C 24.523438 10.972656 24.265625 11.078125 24 11.078125 Z M 24 11.078125 "/>
<path fill-rule="nonzero" fill="rgb(25.882353%, 52.156863%, 95.686275%)" fill-opacity="1" d="M 25.039062 16.011719 C 25.039062 16.574219 24.585938 17.027344 24.027344 17.027344 C 23.46875 17.027344 23.011719 16.574219 23.011719 16.011719 C 23.011719 15.453125 23.46875 15 24.027344 15 C 24.585938 15 25.039062 15.453125 25.039062 16.011719 Z M 25.039062 16.011719 "/>
<path fill-rule="nonzero" fill="rgb(25.882353%, 52.156863%, 95.686275%)" fill-opacity="1" d="M 25.039062 13.011719 C 25.039062 13.574219 24.585938 14.027344 24.027344 14.027344 C 23.46875 14.027344 23.011719 13.574219 23.011719 13.011719 C 23.011719 12.453125 23.46875 12 24.027344 12 C 24.585938 12 25.039062 12.453125 25.039062 13.011719 Z M 25.039062 13.011719 "/>
<path fill-rule="nonzero" fill="rgb(25.882353%, 52.156863%, 95.686275%)" fill-opacity="1" d="M 25.039062 4.640625 C 25.039062 5.199219 24.585938 5.652344 24.027344 5.652344 C 23.46875 5.652344 23.011719 5.199219 23.011719 4.640625 C 23.011719 4.082031 23.46875 3.625 24.027344 3.625 C 24.585938 3.625 25.039062 4.082031 25.039062 4.640625 Z M 25.039062 4.640625 "/>
<path fill-rule="nonzero" fill="rgb(40%, 61.568627%, 96.470588%)" fill-opacity="1" d="M 16 20 C 15.449219 19.992188 15.007812 19.550781 15 19 L 15 16.453125 C 15.058594 15.941406 15.492188 15.554688 16.007812 15.554688 C 16.519531 15.554688 16.953125 15.941406 17.011719 16.453125 L 17.011719 18.972656 C 17.015625 19.246094 16.910156 19.503906 16.722656 19.699219 C 16.53125 19.890625 16.269531 20 16 20 Z M 16 20 "/>
<path fill-rule="nonzero" fill="rgb(40%, 61.568627%, 96.470588%)" fill-opacity="1" d="M 17.011719 21.933594 C 17.011719 22.492188 16.558594 22.945312 16 22.945312 C 15.441406 22.945312 14.988281 22.492188 14.988281 21.933594 C 14.988281 21.375 15.441406 20.921875 16 20.921875 C 16.558594 20.921875 17.011719 21.375 17.011719 21.933594 Z M 17.011719 21.933594 "/>
<path fill-rule="nonzero" fill="rgb(40%, 61.568627%, 96.470588%)" fill-opacity="1" d="M 17.011719 13.519531 C 17.011719 14.078125 16.558594 14.535156 16 14.535156 C 15.441406 14.535156 14.988281 14.078125 14.988281 13.519531 C 14.988281 12.960938 15.441406 12.507812 16 12.507812 C 16.558594 12.507812 17.011719 12.960938 17.011719 13.519531 Z M 17.011719 13.519531 "/>
<path fill-rule="nonzero" fill="rgb(40%, 61.568627%, 96.470588%)" fill-opacity="1" d="M 17.011719 10.558594 C 17.011719 11.121094 16.558594 11.574219 16 11.574219 C 15.441406 11.574219 14.988281 11.121094 14.988281 10.558594 C 14.988281 10 15.441406 9.546875 16 9.546875 C 16.558594 9.546875 17.011719 10 17.011719 10.558594 Z M 17.011719 10.558594 "/>
<path fill-rule="nonzero" fill="rgb(25.882353%, 52.156863%, 95.686275%)" fill-opacity="1" d="M 20 14.054688 C 19.449219 14.046875 19.007812 13.601562 19 13.054688 L 19 10.546875 C 18.957031 10.160156 19.136719 9.78125 19.46875 9.574219 C 19.796875 9.367188 20.214844 9.367188 20.546875 9.574219 C 20.875 9.78125 21.058594 10.160156 21.011719 10.546875 L 21.011719 13.054688 C 21.007812 13.609375 20.554688 14.054688 20 14.054688 Z M 20 14.054688 "/>
<path fill-rule="nonzero" fill="rgb(25.882353%, 52.156863%, 95.686275%)" fill-opacity="1" d="M 21.027344 7.585938 C 21.027344 8.144531 20.574219 8.601562 20.011719 8.601562 C 19.453125 8.601562 19 8.144531 19 7.585938 C 19 7.027344 19.453125 6.574219 20.011719 6.574219 C 20.574219 6.574219 21.027344 7.027344 21.027344 7.585938 Z M 21.027344 7.585938 "/>
<path fill-rule="nonzero" fill="rgb(25.882353%, 52.156863%, 95.686275%)" fill-opacity="1" d="M 21.027344 18.921875 C 21.027344 19.480469 20.574219 19.933594 20.011719 19.933594 C 19.453125 19.933594 19 19.480469 19 18.921875 C 19 18.359375 19.453125 17.90625 20.011719 17.90625 C 20.574219 17.90625 21.027344 18.359375 21.027344 18.921875 Z M 21.027344 18.921875 "/>
<path fill-rule="nonzero" fill="rgb(25.882353%, 52.156863%, 95.686275%)" fill-opacity="1" d="M 21.027344 15.960938 C 21.027344 16.519531 20.574219 16.972656 20.011719 16.972656 C 19.453125 16.972656 19 16.519531 19 15.960938 C 19 15.398438 19.453125 14.945312 20.011719 14.945312 C 20.574219 14.945312 21.027344 15.398438 21.027344 15.960938 Z M 21.027344 15.960938 "/>
<path fill-rule="nonzero" fill="rgb(68.235294%, 79.607843%, 98.039216%)" fill-opacity="1" d="M 13 18.921875 C 13 19.480469 12.546875 19.933594 11.988281 19.933594 C 11.425781 19.933594 10.972656 19.480469 10.972656 18.921875 C 10.972656 18.359375 11.425781 17.90625 11.988281 17.90625 C 12.546875 17.90625 13 18.359375 13 18.921875 Z M 13 18.921875 "/>
<path fill-rule="nonzero" fill="rgb(68.235294%, 79.607843%, 98.039216%)" fill-opacity="1" d="M 13 10.558594 C 13 11.121094 12.546875 11.574219 11.988281 11.574219 C 11.425781 11.574219 10.972656 11.121094 10.972656 10.558594 C 10.972656 10 11.425781 9.546875 11.988281 9.546875 C 12.546875 9.546875 13 10 13 10.558594 Z M 13 10.558594 "/>
<path fill-rule="nonzero" fill="rgb(68.235294%, 79.607843%, 98.039216%)" fill-opacity="1" d="M 13 7.585938 C 13 8.144531 12.546875 8.601562 11.988281 8.601562 C 11.425781 8.601562 10.972656 8.144531 10.972656 7.585938 C 10.972656 7.027344 11.425781 6.574219 11.988281 6.574219 C 12.546875 6.574219 13 7.027344 13 7.585938 Z M 13 7.585938 "/>
<path fill-rule="nonzero" fill="rgb(68.235294%, 79.607843%, 98.039216%)" fill-opacity="1" d="M 12 16.972656 C 11.457031 16.972656 11.007812 16.542969 10.988281 16 L 10.988281 13.464844 C 10.988281 12.914062 11.433594 12.464844 11.988281 12.464844 C 12.539062 12.464844 12.988281 12.914062 12.988281 13.464844 L 12.988281 16 C 12.972656 16.535156 12.535156 16.964844 12 16.972656 Z M 12 16.972656 "/>
</svg>
