<?xml version="1.0" encoding="UTF-8"?>
<svg xmlns="http://www.w3.org/2000/svg" xmlns:xlink="http://www.w3.org/1999/xlink" width="32" height="32" viewBox="0 0 32 32">
<path fill-rule="nonzero" fill="rgb(68.235294%, 79.607843%, 98.039216%)" fill-opacity="1" d="M 8 10.667969 L 13.332031 10.667969 L 13.332031 5.332031 L 4 5.332031 C 3.261719 5.332031 2.667969 5.929688 2.667969 6.667969 L 2.667969 28 C 2.671875 28.339844 2.804688 28.664062 3.039062 28.90625 L 8 24 Z M 8 10.667969 "/>
<path fill-rule="nonzero" fill="rgb(25.882353%, 52.156863%, 95.686275%)" fill-opacity="1" d="M 21.332031 24 L 26.292969 28.960938 C 26.542969 28.703125 26.675781 28.355469 26.667969 28 L 26.667969 18.667969 L 21.332031 18.667969 Z M 21.332031 24 "/>
<path fill-rule="nonzero" fill="rgb(40%, 61.568627%, 96.470588%)" fill-opacity="1" d="M 28.945312 3.039062 L 24 8 L 24 13.332031 L 29.332031 13.332031 L 29.332031 4 C 29.339844 3.640625 29.199219 3.292969 28.945312 3.039062 Z M 28.945312 3.039062 "/>
<path fill-rule="nonzero" fill="rgb(68.235294%, 79.607843%, 98.039216%)" fill-opacity="1" d="M 24 8 L 28.960938 3.039062 C 28.703125 2.792969 28.355469 2.65625 28 2.667969 L 18.667969 2.667969 L 18.667969 8 Z M 24 8 "/>
<path fill-rule="nonzero" fill="rgb(40%, 61.568627%, 96.470588%)" fill-opacity="1" d="M 2.667969 29.332031 L 8 24 L 21.332031 24 L 26.667969 29.332031 Z M 2.667969 29.332031 "/>
</svg>
