<?xml version="1.0" encoding="UTF-8"?>
<svg xmlns="http://www.w3.org/2000/svg" xmlns:xlink="http://www.w3.org/1999/xlink" width="32" height="32" viewBox="0 0 32 32">
<path fill-rule="nonzero" fill="rgb(25.882353%, 52.156863%, 95.686275%)" fill-opacity="1" d="M 22.386719 8.5 C 23.007812 8.503906 23.503906 9.007812 23.5 9.628906 L 23.5 23.519531 C 23.519531 23.789062 23.421875 24.054688 23.230469 24.242188 C 23.035156 24.433594 22.769531 24.527344 22.5 24.5 L 6.25 24.5 L 3 27.75 L 3 9.628906 C 2.996094 9.007812 3.492188 8.503906 4.113281 8.5 Z M 22.386719 8.5 "/>
<path fill-rule="nonzero" fill="rgb(40%, 61.568627%, 96.470588%)" fill-opacity="1" d="M 16.5 15.25 L 20.25 15.25 L 20.25 21.75 L 16.5 21.75 Z M 16.5 15.25 "/>
<path fill-rule="nonzero" fill="rgb(68.235294%, 79.607843%, 98.039216%)" fill-opacity="1" d="M 11.5 11.5 L 15.25 11.5 L 15.25 21.75 L 11.5 21.75 Z M 11.5 11.5 "/>
<path fill-rule="nonzero" fill="rgb(100%, 100%, 100%)" fill-opacity="1" d="M 6.5 13.5 L 10.25 13.5 L 10.25 21.75 L 6.5 21.75 Z M 6.5 13.5 "/>
<path fill-rule="nonzero" fill="rgb(40%, 61.568627%, 96.470588%)" fill-opacity="1" d="M 27.886719 4.25 C 28.484375 4.253906 28.972656 4.722656 29 5.316406 L 29 23.5 L 26 20.5 L 25 20.5 L 25 8.101562 C 24.996094 7.496094 24.503906 7.003906 23.898438 7.003906 L 8.5 7.003906 L 8.5 5.378906 C 8.496094 4.777344 8.964844 4.28125 9.566406 4.25 Z M 27.886719 4.25 "/>
</svg>
