<?xml version="1.0" encoding="UTF-8"?>
<svg xmlns="http://www.w3.org/2000/svg" xmlns:xlink="http://www.w3.org/1999/xlink" width="32" height="32" viewBox="0 0 32 32">
<path fill-rule="nonzero" fill="rgb(68.235294%, 79.607843%, 98.039216%)" fill-opacity="1" d="M 12 9.351562 L 14.664062 9.351562 L 14.664062 14.683594 L 12 14.683594 Z M 12 9.351562 "/>
<path fill-rule="nonzero" fill="rgb(68.235294%, 79.607843%, 98.039216%)" fill-opacity="1" d="M 17.332031 9.351562 L 20 9.351562 L 20 14.683594 L 17.332031 14.683594 Z M 17.332031 9.351562 "/>
<path fill-rule="nonzero" fill="rgb(68.235294%, 79.607843%, 98.039216%)" fill-opacity="1" d="M 10.667969 25.238281 C 6.484375 22.828125 4.449219 17.910156 5.699219 13.246094 C 6.949219 8.585938 11.175781 5.347656 16 5.351562 L 16 2.683594 C 9.695312 2.691406 4.253906 7.117188 2.96875 13.292969 C 1.679688 19.464844 4.890625 25.699219 10.667969 28.230469 Z M 10.667969 25.238281 "/>
<path fill-rule="nonzero" fill="rgb(25.882353%, 52.156863%, 95.686275%)" fill-opacity="1" d="M 14.664062 22.683594 L 17.332031 22.683594 L 17.332031 29.347656 L 14.664062 29.347656 Z M 14.664062 22.683594 "/>
<path fill-rule="nonzero" fill="rgb(25.882353%, 52.156863%, 95.686275%)" fill-opacity="1" d="M 22.652344 13.351562 L 9.332031 13.351562 L 9.332031 17.265625 C 9.332031 20.953125 12.320312 23.9375 16.003906 23.9375 C 19.691406 23.9375 22.675781 20.953125 22.675781 17.265625 Z M 22.652344 13.351562 "/>
<path fill-rule="nonzero" fill="rgb(40%, 61.568627%, 96.470588%)" fill-opacity="1" d="M 16 24.015625 C 12.296875 23.988281 9.316406 20.96875 9.332031 17.265625 L 9.332031 13.351562 L 16 13.351562 "/>
<path fill-rule="nonzero" fill="rgb(25.882353%, 52.156863%, 95.686275%)" fill-opacity="1" d="M 16 2.683594 C 22.3125 2.6875 27.757812 7.113281 29.046875 13.292969 C 30.335938 19.46875 27.117188 25.707031 21.332031 28.234375 L 21.332031 25.242188 C 25.515625 22.828125 27.554688 17.910156 26.304688 13.246094 C 25.054688 8.585938 20.828125 5.34375 16 5.347656 Z M 16 2.683594 "/>
</svg>
