<?xml version="1.0" encoding="UTF-8"?>
<svg xmlns="http://www.w3.org/2000/svg" xmlns:xlink="http://www.w3.org/1999/xlink" width="32" height="32" viewBox="0 0 32 32">
<path fill-rule="nonzero" fill="rgb(68.235294%, 79.607843%, 98.039216%)" fill-opacity="1" d="M 7.265625 11.375 L 11.398438 7.226562 L 15.535156 11.375 L 11.398438 15.535156 Z M 7.265625 11.375 "/>
<path fill-rule="nonzero" fill="rgb(40%, 61.568627%, 96.470588%)" fill-opacity="1" d="M 2.667969 16 L 6.800781 11.839844 L 10.933594 16 L 6.800781 20.160156 Z M 2.667969 16 "/>
<path fill-rule="nonzero" fill="rgb(25.882353%, 52.156863%, 95.686275%)" fill-opacity="1" d="M 7.265625 20.625 L 11.398438 16.464844 L 15.535156 20.625 L 11.398438 24.785156 Z M 7.265625 20.625 "/>
<path fill-rule="nonzero" fill="rgb(68.235294%, 79.607843%, 98.039216%)" fill-opacity="1" d="M 16.464844 11.375 L 20.601562 7.226562 L 24.734375 11.375 L 20.601562 15.535156 Z M 16.464844 11.375 "/>
<path fill-rule="nonzero" fill="rgb(40%, 61.568627%, 96.470588%)" fill-opacity="1" d="M 21.066406 16 L 25.199219 11.839844 L 29.332031 16 L 25.199219 20.160156 Z M 21.066406 16 "/>
<path fill-rule="nonzero" fill="rgb(25.882353%, 52.156863%, 95.686275%)" fill-opacity="1" d="M 16.464844 20.625 L 20.601562 16.464844 L 24.734375 20.625 L 20.601562 24.785156 Z M 16.464844 20.625 "/>
</svg>
