<?xml version="1.0" encoding="UTF-8"?>
<svg xmlns="http://www.w3.org/2000/svg" xmlns:xlink="http://www.w3.org/1999/xlink" width="32" height="32" viewBox="0 0 32 32">
<path fill-rule="evenodd" fill="rgb(20%, 40.392157%, 83.921569%)" fill-opacity="0.6" d="M 17.601562 0 L 17.601562 7.332031 L 10.265625 7.332031 Z M 17.601562 0 "/>
<path fill-rule="evenodd" fill="rgb(20%, 40.392157%, 83.921569%)" fill-opacity="0.8" d="M 17.601562 7.332031 L 17.601562 14.667969 L 10.265625 7.332031 Z M 17.601562 7.332031 "/>
<path fill-rule="nonzero" fill="rgb(20%, 40.392157%, 83.921569%)" fill-opacity="0.6" d="M 10 21.972656 L 10 21.839844 L 11.332031 19.441406 L 22.265625 19.441406 C 23.332031 19.441406 24.398438 18.773438 24.800781 17.972656 L 30.398438 7.707031 L 28 6.238281 L 26.398438 9.171875 L 22.398438 16.507812 L 12 16.507812 L 11.867188 16.105469 L 8.535156 9.171875 L 7.199219 6.238281 L 5.867188 3.308594 L 1.066406 3.308594 L 1.066406 6.238281 L 4 6.238281 L 9.332031 17.308594 L 7.332031 20.90625 C 7.066406 21.308594 6.933594 21.839844 6.933594 22.375 C 6.933594 23.972656 8.265625 25.308594 9.867188 25.308594 L 27.464844 25.308594 L 27.464844 22.375 L 10.398438 22.375 C 10.265625 22.375 10 22.238281 10 21.972656 Z M 10 21.972656 "/>
<path fill-rule="evenodd" fill="rgb(20%, 40.392157%, 83.921569%)" fill-opacity="1" d="M 11.734375 26.535156 C 10.265625 26.535156 8.933594 27.734375 8.933594 29.332031 C 8.933594 30.800781 10.132812 32.132812 11.734375 32.132812 C 13.332031 32.132812 14.535156 30.933594 14.535156 29.332031 C 14.535156 27.734375 13.199219 26.535156 11.734375 26.535156 Z M 11.734375 26.535156 "/>
<path fill-rule="evenodd" fill="rgb(20%, 40.392157%, 83.921569%)" fill-opacity="1" d="M 23.734375 26.535156 C 22.265625 26.535156 20.933594 27.734375 20.933594 29.332031 C 20.933594 30.800781 22.132812 32.132812 23.734375 32.132812 C 25.199219 32.132812 26.535156 30.933594 26.535156 29.332031 C 26.535156 27.734375 25.199219 26.535156 23.734375 26.535156 Z M 23.734375 26.535156 "/>
<path fill-rule="evenodd" fill="rgb(20%, 40.392157%, 83.921569%)" fill-opacity="0.8" d="M 17.601562 0 L 24.933594 7.332031 L 17.601562 7.332031 Z M 17.601562 0 "/>
<path fill-rule="evenodd" fill="rgb(20%, 40.392157%, 83.921569%)" fill-opacity="1" d="M 24.933594 7.332031 L 17.601562 14.667969 L 17.601562 7.332031 Z M 24.933594 7.332031 "/>
</svg>
