<?xml version="1.0" encoding="UTF-8"?>
<svg xmlns="http://www.w3.org/2000/svg" xmlns:xlink="http://www.w3.org/1999/xlink" width="32" height="32" viewBox="0 0 32 32">
<path fill-rule="nonzero" fill="rgb(52.156863%, 64.313725%, 90.196078%)" fill-opacity="1" d="M 16 1.332031 L 4 6.667969 L 4 14.667969 C 4 22.132812 9.066406 28.933594 16 30.667969 C 22.933594 28.933594 28 22.132812 28 14.667969 L 28 6.667969 Z M 16 16 L 25.332031 16 C 24.667969 21.464844 20.933594 26.398438 16 27.867188 L 16 16 L 6.667969 16 L 6.667969 8.398438 L 16 4.265625 Z M 16 16 "/>
<path fill-rule="nonzero" fill="rgb(36.078431%, 52.156863%, 87.058824%)" fill-opacity="1" d="M 16 1.332031 L 16 30.667969 C 22.933594 28.933594 28 22.132812 28 14.667969 L 28 6.667969 Z M 25.332031 16 C 24.667969 21.464844 20.933594 26.398438 16 27.867188 L 16 16 Z M 25.332031 16 "/>
<path fill-rule="evenodd" fill="rgb(20%, 40.392157%, 83.921569%)" fill-opacity="1" d="M 28 16 L 25.332031 16 C 25.332031 16 25.332031 16.398438 25.199219 16.800781 Z M 28 16 "/>
<path fill-rule="evenodd" fill="rgb(20%, 40.392157%, 83.921569%)" fill-opacity="1" d="M 4 16 L 6.667969 16 L 6.667969 15.199219 Z M 4 16 "/>
</svg>
