<?xml version="1.0" encoding="UTF-8"?>
<svg xmlns="http://www.w3.org/2000/svg" xmlns:xlink="http://www.w3.org/1999/xlink" width="32" height="32" viewBox="0 0 32 32">
<path fill-rule="nonzero" fill="rgb(25.882353%, 52.156863%, 95.686275%)" fill-opacity="1" d="M 16 16 L 5.332031 10.667969 L 5.332031 19.679688 C 5.332031 19.882812 5.425781 20.074219 5.585938 20.199219 L 11.773438 23.867188 C 11.914062 23.941406 12.003906 24.09375 12 24.253906 L 12 28.933594 C 12.003906 29.015625 12.046875 29.089844 12.117188 29.128906 C 12.191406 29.164062 12.277344 29.164062 12.347656 29.121094 L 26.359375 20.199219 C 26.550781 20.078125 26.667969 19.867188 26.667969 19.640625 L 26.667969 10.667969 Z M 16 16 "/>
<path fill-rule="nonzero" fill="rgb(40%, 61.568627%, 96.470588%)" fill-opacity="1" d="M 16 13.332031 L 26.667969 8 L 16.160156 2.746094 C 16.058594 2.691406 15.941406 2.691406 15.839844 2.746094 L 5.332031 8 Z M 16 13.332031 "/>
</svg>
