<?xml version="1.0" encoding="UTF-8"?>
<svg xmlns="http://www.w3.org/2000/svg" xmlns:xlink="http://www.w3.org/1999/xlink" width="32" height="32" viewBox="0 0 32 32">
<path fill-rule="nonzero" fill="rgb(25.882353%, 52.156863%, 95.686275%)" fill-opacity="1" d="M 21.578125 16.558594 L 26.832031 18.941406 L 26.832031 22.515625 C 26.832031 23.933594 26.417969 25.3125 25.710938 26.480469 L 24.019531 24.75 C 24.765625 23.59375 24.644531 22.019531 23.644531 21.003906 C 22.507812 19.839844 20.65625 19.839844 19.519531 21.003906 C 18.378906 22.164062 18.378906 24.054688 19.519531 25.214844 C 20.515625 26.234375 22.058594 26.367188 23.191406 25.597656 L 25.011719 27.457031 C 24.105469 28.535156 22.921875 29.332031 21.578125 29.667969 C 18.566406 28.914062 16.324219 25.824219 16.324219 22.515625 L 16.324219 18.941406 Z M 21.628906 3 L 21.8125 3.007812 C 22.851562 3.097656 23.679688 3.9375 23.773438 4.988281 L 23.785156 5.1875 L 23.789062 16.601562 L 21.625 15.617188 L 21.628906 5.1875 L 7.683594 5.1875 L 7.683594 22.683594 L 15.570312 22.683594 L 15.570312 22.761719 C 15.601562 23.480469 15.71875 24.191406 15.921875 24.871094 L 7.671875 24.871094 C 6.535156 24.871094 5.601562 23.988281 5.507812 22.871094 L 5.5 22.683594 L 5.511719 5.1875 C 5.511719 4.046875 6.382812 3.105469 7.496094 3.007812 L 7.683594 3 Z M 15.566406 18.285156 L 15.566406 20.457031 L 9.804688 20.457031 L 9.804688 18.285156 Z M 19.300781 13.933594 L 19.300781 16.109375 L 9.804688 16.109375 L 9.804688 13.933594 Z M 18.097656 9.585938 L 18.097656 11.695312 L 9.804688 11.695312 L 9.804688 9.585938 Z M 21.578125 24.898438 C 22.546875 24.898438 23.332031 24.097656 23.332031 23.113281 C 23.332031 22.125 22.546875 21.324219 21.578125 21.324219 C 20.613281 21.324219 19.828125 22.125 19.828125 23.113281 C 19.828125 24.097656 20.613281 24.898438 21.578125 24.898438 Z M 21.578125 24.898438 "/>
</svg>
