<?xml version="1.0" encoding="UTF-8"?>
<svg xmlns="http://www.w3.org/2000/svg" xmlns:xlink="http://www.w3.org/1999/xlink" width="32" height="32" viewBox="0 0 32 32">
<path fill-rule="evenodd" fill="rgb(68.235294%, 79.607843%, 98.039216%)" fill-opacity="1" d="M 15.011719 9.148438 L 10.492188 6.480469 C 10.171875 6.300781 9.976562 5.960938 9.980469 5.597656 C 9.984375 5.230469 10.1875 4.894531 10.511719 4.722656 C 10.835938 4.550781 11.226562 4.570312 11.535156 4.773438 L 16.011719 7.441406 Z M 15.011719 9.148438 "/>
<path fill-rule="evenodd" fill="rgb(68.235294%, 79.607843%, 98.039216%)" fill-opacity="1" d="M 15.359375 13.746094 L 6.253906 8.480469 C 5.773438 8.203125 5.609375 7.59375 5.886719 7.113281 C 6.164062 6.632812 6.773438 6.46875 7.253906 6.746094 L 15.359375 11.441406 Z M 15.359375 13.746094 "/>
<path fill-rule="evenodd" fill="rgb(40%, 61.568627%, 96.470588%)" fill-opacity="1" d="M 26.132812 7.105469 C 25.851562 6.65625 25.269531 6.5 24.800781 6.746094 L 17 11.199219 L 17 9.132812 L 21.519531 6.464844 C 21.972656 6.183594 22.121094 5.59375 21.851562 5.132812 C 21.566406 4.6875 20.984375 4.539062 20.519531 4.800781 L 15.535156 7.707031 C 15.210938 7.894531 15.015625 8.242188 15.011719 8.613281 L 15.011719 28 C 14.96875 28.382812 15.148438 28.757812 15.472656 28.960938 C 15.800781 29.167969 16.214844 29.167969 16.539062 28.960938 C 16.867188 28.757812 17.042969 28.382812 17 28 L 17 13.519531 L 25.761719 8.480469 C 26.238281 8.203125 26.40625 7.589844 26.132812 7.105469 Z M 26.132812 7.105469 "/>
<path fill-rule="nonzero" fill="rgb(40%, 61.568627%, 96.470588%)" fill-opacity="1" d="M 17.132812 4.121094 C 17.132812 4.738281 16.632812 5.238281 16.011719 5.238281 C 15.394531 5.238281 14.894531 4.738281 14.894531 4.121094 C 14.894531 3.5 15.394531 3 16.011719 3 C 16.632812 3 17.132812 3.5 17.132812 4.121094 Z M 17.132812 4.121094 "/>
<path fill-rule="nonzero" fill="rgb(68.235294%, 79.607843%, 98.039216%)" fill-opacity="1" d="M 12.640625 14.425781 C 12.953125 14.597656 13.144531 14.925781 13.148438 15.28125 L 13.148438 20.71875 C 13.148438 21.078125 12.953125 21.410156 12.640625 21.585938 C 12.488281 21.671875 12.320312 21.714844 12.148438 21.71875 C 11.96875 21.714844 11.796875 21.667969 11.640625 21.585938 L 5.878906 18.265625 C 5.402344 17.992188 5.238281 17.378906 5.511719 16.898438 C 5.789062 16.421875 6.402344 16.257812 6.878906 16.535156 L 11.148438 18.988281 L 11.148438 15.867188 L 9.214844 14.761719 C 8.757812 14.484375 8.597656 13.894531 8.851562 13.425781 C 9.125 12.964844 9.71875 12.804688 10.1875 13.066406 Z M 12.640625 14.425781 "/>
<path fill-rule="nonzero" fill="rgb(68.235294%, 79.607843%, 98.039216%)" fill-opacity="1" d="M 8.132812 12.347656 C 8.132812 12.964844 7.632812 13.464844 7.011719 13.464844 C 6.394531 13.464844 5.894531 12.964844 5.894531 12.347656 C 5.894531 11.726562 6.394531 11.226562 7.011719 11.226562 C 7.632812 11.226562 8.132812 11.726562 8.132812 12.347656 Z M 8.132812 12.347656 "/>
<path fill-rule="nonzero" fill="rgb(25.882353%, 52.156863%, 95.686275%)" fill-opacity="1" d="M 21.785156 13.027344 C 22.253906 12.765625 22.847656 12.921875 23.121094 13.386719 C 23.375 13.855469 23.21875 14.441406 22.761719 14.71875 L 20.828125 15.828125 L 20.828125 18.945312 L 25.09375 16.492188 C 25.570312 16.21875 26.183594 16.382812 26.460938 16.859375 C 26.734375 17.339844 26.570312 17.949219 26.09375 18.226562 L 20.332031 21.546875 C 20.175781 21.628906 20.003906 21.675781 19.828125 21.679688 C 19.652344 21.675781 19.484375 21.632812 19.332031 21.546875 C 19.019531 21.371094 18.824219 21.039062 18.828125 20.679688 L 18.828125 15.28125 C 18.828125 14.925781 19.019531 14.597656 19.332031 14.425781 Z M 21.785156 13.027344 "/>
<path fill-rule="nonzero" fill="rgb(25.882353%, 52.156863%, 95.686275%)" fill-opacity="1" d="M 26.105469 12.347656 C 26.105469 12.964844 25.605469 13.464844 24.988281 13.464844 C 24.367188 13.464844 23.867188 12.964844 23.867188 12.347656 C 23.867188 11.726562 24.367188 11.226562 24.988281 11.226562 C 25.605469 11.226562 26.105469 11.726562 26.105469 12.347656 Z M 26.105469 12.347656 "/>
</svg>
