<?xml version="1.0" encoding="UTF-8"?>
<svg xmlns="http://www.w3.org/2000/svg" xmlns:xlink="http://www.w3.org/1999/xlink" width="32" height="32" viewBox="0 0 32 32">
<path fill-rule="nonzero" fill="rgb(40%, 61.568627%, 96.470588%)" fill-opacity="1" d="M 8 2.667969 L 5.332031 2.667969 L 5.332031 27.441406 C 5.292969 27.921875 5.453125 28.402344 5.78125 28.761719 C 6.105469 29.121094 6.566406 29.328125 7.054688 29.332031 L 24.972656 29.332031 C 25.457031 29.328125 25.914062 29.121094 26.238281 28.761719 C 26.558594 28.398438 26.714844 27.921875 26.667969 27.441406 L 26.667969 2.667969 L 24 2.851562 L 24 26.667969 L 8 26.667969 Z M 8 2.667969 "/>
<path fill-rule="nonzero" fill="rgb(25.882353%, 52.156863%, 95.686275%)" fill-opacity="1" d="M 16 29.332031 L 24.972656 29.332031 C 25.457031 29.328125 25.914062 29.121094 26.238281 28.761719 C 26.558594 28.398438 26.714844 27.921875 26.667969 27.441406 L 26.667969 2.667969 L 24 2.667969 L 24 26.667969 L 16 26.667969 Z M 16 29.332031 "/>
<path fill-rule="nonzero" fill="rgb(40%, 61.568627%, 96.470588%)" fill-opacity="1" d="M 9.332031 16 L 22.667969 16 L 22.667969 25.332031 L 9.332031 25.332031 Z M 9.332031 16 "/>
<path fill-rule="nonzero" fill="rgb(25.882353%, 52.156863%, 95.686275%)" fill-opacity="1" d="M 16 16 L 22.667969 16 L 22.667969 25.332031 L 16 25.332031 Z M 16 16 "/>
<path fill-rule="nonzero" fill="rgb(40%, 61.568627%, 96.470588%)" fill-opacity="1" d="M 9.332031 4 L 10.667969 4 L 10.667969 8 L 9.332031 8 Z M 9.332031 4 "/>
<path fill-rule="nonzero" fill="rgb(25.882353%, 52.156863%, 95.686275%)" fill-opacity="1" d="M 10 4 L 10.667969 4 L 10.667969 8 L 10 8 Z M 10 4 "/>
<path fill-rule="nonzero" fill="rgb(40%, 61.568627%, 96.470588%)" fill-opacity="1" d="M 13.332031 4 L 14.667969 4 L 14.667969 8 L 13.332031 8 Z M 13.332031 4 "/>
<path fill-rule="nonzero" fill="rgb(40%, 61.568627%, 96.470588%)" fill-opacity="1" d="M 17.332031 4 L 18.667969 4 L 18.667969 8 L 17.332031 8 Z M 17.332031 4 "/>
<path fill-rule="nonzero" fill="rgb(40%, 61.568627%, 96.470588%)" fill-opacity="1" d="M 21.332031 4 L 22.667969 4 L 22.667969 8 L 21.332031 8 Z M 21.332031 4 "/>
<path fill-rule="nonzero" fill="rgb(25.882353%, 52.156863%, 95.686275%)" fill-opacity="1" d="M 14 4 L 14.667969 4 L 14.667969 8 L 14 8 Z M 14 4 "/>
<path fill-rule="nonzero" fill="rgb(25.882353%, 52.156863%, 95.686275%)" fill-opacity="1" d="M 18 4 L 18.667969 4 L 18.667969 8 L 18 8 Z M 18 4 "/>
<path fill-rule="nonzero" fill="rgb(25.882353%, 52.156863%, 95.686275%)" fill-opacity="1" d="M 22 4 L 22.667969 4 L 22.667969 8 L 22 8 Z M 22 4 "/>
</svg>
