<?xml version="1.0" encoding="UTF-8"?>
<svg xmlns="http://www.w3.org/2000/svg" xmlns:xlink="http://www.w3.org/1999/xlink" width="32" height="32" viewBox="0 0 32 32">
<path fill-rule="nonzero" fill="rgb(25.882353%, 52.156863%, 95.686275%)" fill-opacity="1" d="M 17.332031 28.933594 C 17.332031 29.667969 16.738281 30.265625 16 30.265625 C 15.261719 30.265625 14.667969 29.667969 14.667969 28.933594 C 14.667969 28.195312 15.261719 27.601562 16 27.601562 C 16.738281 27.601562 17.332031 28.195312 17.332031 28.933594 Z M 17.332031 28.933594 "/>
<path fill-rule="nonzero" fill="rgb(25.882353%, 52.156863%, 95.686275%)" fill-opacity="1" d="M 5.933594 17.734375 C 5.933594 18.46875 5.335938 19.066406 4.601562 19.066406 C 3.863281 19.066406 3.265625 18.46875 3.265625 17.734375 C 3.265625 16.996094 3.863281 16.398438 4.601562 16.398438 C 5.335938 16.398438 5.933594 16.996094 5.933594 17.734375 Z M 5.933594 17.734375 "/>
<path fill-rule="nonzero" fill="rgb(25.882353%, 52.156863%, 95.686275%)" fill-opacity="1" d="M 25.132812 21.332031 C 25.132812 22.070312 24.535156 22.667969 23.800781 22.667969 C 23.0625 22.667969 22.464844 22.070312 22.464844 21.332031 C 22.464844 20.597656 23.0625 20 23.800781 20 C 24.535156 20 25.132812 20.597656 25.132812 21.332031 Z M 25.132812 21.332031 "/>
<path fill-rule="nonzero" fill="rgb(25.882353%, 52.156863%, 95.686275%)" fill-opacity="1" d="M 21.28125 22.746094 L 21.171875 22.535156 L 17.453125 26.332031 L 17.625 26.464844 C 18.027344 26.734375 18.347656 27.09375 18.574219 27.519531 L 18.691406 27.734375 L 22.398438 23.878906 L 22.238281 23.773438 C 21.839844 23.507812 21.519531 23.160156 21.28125 22.746094 Z M 21.28125 22.746094 "/>
<path fill-rule="nonzero" fill="rgb(25.882353%, 52.156863%, 95.686275%)" fill-opacity="1" d="M 7.121094 19.148438 C 6.894531 19.558594 6.558594 19.90625 6.171875 20.171875 L 5.988281 20.292969 L 13.347656 27.734375 L 13.464844 27.519531 C 13.679688 27.105469 14 26.746094 14.398438 26.480469 L 14.574219 26.359375 L 7.226562 18.933594 Z M 7.121094 19.148438 "/>
<path fill-rule="nonzero" fill="rgb(25.882353%, 52.156863%, 95.686275%)" fill-opacity="1" d="M 23.546875 2.132812 C 21.292969 2.148438 19.148438 3.054688 17.601562 4.640625 L 16 6.1875 L 14.398438 4.640625 C 12.867188 3.054688 10.71875 2.148438 8.480469 2.132812 C 3.691406 2.238281 -0.09375 6.066406 0 10.679688 C 0 12.625 0.667969 14.519531 1.90625 16.054688 L 2.054688 16.253906 L 2.1875 16.054688 C 2.441406 15.652344 2.785156 15.320312 3.199219 15.09375 L 3.386719 14.988281 L 3.265625 14.8125 C 2.332031 13.625 1.839844 12.171875 1.839844 10.679688 C 1.800781 8.945312 2.480469 7.265625 3.71875 6.011719 C 4.972656 4.746094 6.679688 4.027344 8.480469 3.988281 C 10.265625 4 11.960938 4.71875 13.171875 5.988281 L 16 8.828125 L 18.851562 5.945312 C 20.066406 4.691406 21.773438 3.988281 23.546875 3.988281 C 27.292969 4.078125 30.253906 7.066406 30.171875 10.679688 C 30.171875 12.441406 29.480469 14.132812 28.238281 15.414062 L 25.039062 18.652344 L 25.253906 18.773438 C 25.652344 19.011719 26 19.347656 26.238281 19.746094 L 26.347656 19.933594 L 29.546875 16.734375 C 31.132812 15.09375 32.011719 12.933594 32 10.679688 C 32.09375 6.078125 28.320312 2.253906 23.546875 2.132812 Z M 23.546875 2.132812 "/>
</svg>
