<?xml version="1.0" encoding="UTF-8"?>
<svg xmlns="http://www.w3.org/2000/svg" xmlns:xlink="http://www.w3.org/1999/xlink" width="32" height="32" viewBox="0 0 32 32">
<path fill-rule="nonzero" fill="rgb(25.882353%, 52.156863%, 95.686275%)" fill-opacity="1" d="M 19.214844 15.332031 C 19.214844 17.519531 17.441406 19.292969 15.253906 19.292969 C 13.066406 19.292969 11.292969 17.519531 11.292969 15.332031 C 11.292969 13.144531 13.066406 11.375 15.253906 11.375 C 17.441406 11.375 19.214844 13.144531 19.214844 15.332031 Z M 19.214844 15.332031 "/>
<path fill-rule="nonzero" fill="rgb(40%, 61.568627%, 96.470588%)" fill-opacity="1" d="M 8.054688 14.386719 C 8.054688 15.875 6.847656 17.078125 5.359375 17.078125 C 3.871094 17.078125 2.667969 15.875 2.667969 14.386719 C 2.667969 12.898438 3.871094 11.691406 5.359375 11.691406 C 6.847656 11.691406 8.054688 12.898438 8.054688 14.386719 Z M 8.054688 14.386719 "/>
<path fill-rule="nonzero" fill="rgb(40%, 61.568627%, 96.470588%)" fill-opacity="1" d="M 22.054688 24.828125 C 22.054688 26.3125 20.847656 27.519531 19.359375 27.519531 C 17.871094 27.519531 16.667969 26.3125 16.667969 24.828125 C 16.667969 23.339844 17.871094 22.132812 19.359375 22.132812 C 20.847656 22.132812 22.054688 23.339844 22.054688 24.828125 Z M 22.054688 24.828125 "/>
<path fill-rule="nonzero" fill="rgb(40%, 61.568627%, 96.470588%)" fill-opacity="1" d="M 26.09375 5.601562 C 24.304688 5.601562 22.851562 7.050781 22.851562 8.839844 C 22.851562 10.628906 24.304688 12.078125 26.09375 12.078125 C 27.882812 12.078125 29.332031 10.628906 29.332031 8.839844 C 29.332031 7.050781 27.882812 5.601562 26.09375 5.601562 Z M 26.09375 10.667969 C 25.351562 10.671875 24.683594 10.230469 24.394531 9.546875 C 24.109375 8.867188 24.261719 8.078125 24.785156 7.554688 C 25.304688 7.027344 26.089844 6.871094 26.777344 7.152344 C 27.460938 7.433594 27.90625 8.101562 27.90625 8.839844 C 27.90625 9.84375 27.097656 10.660156 26.09375 10.667969 Z M 26.09375 10.667969 "/>
<path fill-rule="nonzero" fill="rgb(40%, 61.568627%, 96.470588%)" fill-opacity="1" d="M 24.265625 8.90625 C 22.65625 6.632812 20.246094 5.050781 17.519531 4.480469 L 17.148438 6.265625 C 22.15625 7.3125 25.375 12.21875 24.328125 17.230469 C 23.28125 22.242188 18.371094 25.457031 13.359375 24.410156 C 8.351562 23.363281 5.136719 18.449219 6.1875 13.441406 C 6.546875 11.6875 7.414062 10.078125 8.679688 8.8125 L 7.347656 7.480469 C 3.382812 11.488281 3.0625 17.835938 6.601562 22.222656 C 10.140625 26.613281 16.414062 27.644531 21.171875 24.621094 C 25.929688 21.597656 27.65625 15.480469 25.1875 10.414062 C 24.640625 10.105469 24.292969 9.535156 24.265625 8.90625 Z M 24.265625 8.90625 "/>
</svg>
