<?xml version="1.0" encoding="UTF-8"?>
<svg xmlns="http://www.w3.org/2000/svg" xmlns:xlink="http://www.w3.org/1999/xlink" width="32" height="32" viewBox="0 0 32 32">
<path fill-rule="evenodd" fill="rgb(25.882353%, 52.156863%, 95.686275%)" fill-opacity="1" d="M 22.1875 20.171875 L 23.171875 18.507812 L 27.878906 18.507812 L 29.332031 16 L 26.425781 11 L 22.332031 11 L 20.921875 8.519531 L 19.332031 8.519531 L 19.332031 6.839844 L 21.921875 6.839844 L 23.332031 9.332031 L 25.453125 9.332031 L 22.535156 4.332031 L 16.839844 4.332031 L 16.839844 11 L 19.148438 11 L 20.121094 12.667969 L 16.839844 12.667969 L 16.839844 16 L 19.851562 16 L 21.253906 13.507812 L 25 13.507812 L 25.960938 15.171875 L 22.226562 15.171875 L 20.828125 17.667969 L 16.839844 17.667969 L 16.839844 23.507812 L 21.375 23.507812 L 20.414062 25.171875 L 16.839844 25.171875 L 16.839844 27.667969 L 22.535156 27.667969 L 26.90625 20.171875 L 24.121094 20.171875 L 23.148438 21.839844 L 19.332031 21.839844 L 19.332031 20.171875 Z M 22.1875 20.171875 "/>
<path fill-rule="evenodd" fill="rgb(40%, 61.568627%, 96.470588%)" fill-opacity="1" d="M 9.8125 20.171875 L 8.828125 18.507812 L 4.121094 18.507812 L 2.667969 16 L 5.574219 11 L 9.667969 11 L 11.078125 8.519531 L 12.667969 8.519531 L 12.667969 6.839844 L 10.078125 6.839844 L 8.667969 9.332031 L 6.546875 9.332031 L 9.464844 4.332031 L 15.171875 4.332031 L 15.171875 11 L 12.851562 11 L 11.878906 12.667969 L 15.171875 12.667969 L 15.171875 16 L 12.148438 16 L 10.746094 13.507812 L 7 13.507812 L 6.039062 15.171875 L 9.773438 15.171875 L 11.171875 17.667969 L 15.171875 17.667969 L 15.171875 23.507812 L 10.625 23.507812 L 11.585938 25.171875 L 15.171875 25.171875 L 15.171875 27.667969 L 9.464844 27.667969 L 5.09375 20.171875 L 7.878906 20.171875 L 8.851562 21.839844 L 12.667969 21.839844 L 12.667969 20.171875 Z M 9.8125 20.171875 "/>
</svg>
