<?xml version="1.0" encoding="UTF-8"?>
<svg xmlns="http://www.w3.org/2000/svg" xmlns:xlink="http://www.w3.org/1999/xlink" width="32" height="32" viewBox="0 0 32 32">
<path fill-rule="nonzero" fill="rgb(25.882353%, 52.156863%, 95.686275%)" fill-opacity="1" d="M 16 2.667969 C 8.636719 2.667969 2.667969 8.636719 2.667969 16 C 2.667969 23.363281 8.636719 29.332031 16 29.332031 C 23.363281 29.332031 29.332031 23.363281 29.332031 16 C 29.332031 8.636719 23.363281 2.667969 16 2.667969 Z M 16 26.667969 C 14.03125 26.667969 12.105469 26.121094 10.425781 25.09375 L 15.199219 22.332031 L 15.199219 16.332031 L 10.011719 13.332031 L 10.011719 19.359375 L 13.679688 21.480469 L 9.066406 24.148438 C 6.386719 21.882812 4.988281 18.449219 5.328125 14.957031 C 5.671875 11.46875 7.707031 8.367188 10.773438 6.667969 L 10.773438 12 L 16 15.039062 L 21.199219 12 L 16 9.027344 L 12.320312 11.148438 L 12.320312 5.960938 C 14.972656 4.964844 17.914062 5.066406 20.492188 6.238281 C 23.074219 7.414062 25.078125 9.570312 26.066406 12.226562 C 26.515625 13.433594 26.746094 14.710938 26.746094 16 L 26.746094 16.09375 L 21.945312 13.332031 L 16.746094 16.347656 L 16.746094 22.359375 L 21.945312 19.359375 L 21.945312 15.121094 L 26.546875 17.785156 C 25.671875 22.925781 21.214844 26.683594 16 26.667969 Z M 16 26.667969 "/>
</svg>
