<?xml version="1.0" encoding="UTF-8"?>
<svg xmlns="http://www.w3.org/2000/svg" xmlns:xlink="http://www.w3.org/1999/xlink" width="32" height="32" viewBox="0 0 32 32">
<path fill-rule="nonzero" fill="rgb(25.882353%, 52.156863%, 95.686275%)" fill-opacity="1" d="M 8.832031 10.859375 L 8.945312 10.9375 L 15.59375 16.121094 C 15.710938 16.105469 15.824219 16.097656 15.941406 16.097656 C 17.035156 16.097656 18.019531 16.765625 18.40625 17.78125 C 18.796875 18.796875 18.515625 19.945312 17.699219 20.667969 C 16.882812 21.390625 15.699219 21.539062 14.726562 21.039062 C 13.820312 20.574219 13.269531 19.632812 13.304688 18.632812 L 13.320312 18.417969 L 13.316406 18.414062 L 8.183594 11.675781 C 7.609375 10.921875 8.105469 10.378906 8.832031 10.859375 Z M 28.21875 18.878906 C 28.835938 18.878906 29.332031 19.371094 29.332031 19.984375 C 29.332031 20.59375 28.835938 21.089844 28.21875 21.089844 C 27.601562 21.089844 27.101562 20.59375 27.101562 19.984375 C 27.101562 19.371094 27.601562 18.878906 28.21875 18.878906 Z M 6.457031 12.285156 L 7.738281 14.050781 C 6.253906 15.792969 5.242188 17.882812 4.789062 20.121094 C 4.714844 20.496094 4.445312 20.804688 4.078125 20.925781 C 3.710938 21.050781 3.308594 20.964844 3.019531 20.710938 C 2.734375 20.453125 2.609375 20.0625 2.691406 19.6875 C 3.246094 16.929688 4.546875 14.371094 6.457031 12.285156 Z M 26.753906 14.859375 C 27.371094 14.859375 27.871094 15.355469 27.871094 15.964844 C 27.871094 16.578125 27.371094 17.074219 26.753906 17.074219 C 26.140625 17.074219 25.640625 16.578125 25.640625 15.964844 C 25.640625 15.355469 26.140625 14.859375 26.753906 14.859375 Z M 24.136719 11.425781 C 24.753906 11.425781 25.253906 11.921875 25.253906 12.535156 C 25.253906 13.144531 24.753906 13.640625 24.136719 13.640625 C 23.519531 13.640625 23.023438 13.144531 23.023438 12.535156 C 23.023438 11.921875 23.519531 11.425781 24.136719 11.425781 Z M 20.503906 9 C 21.117188 9 21.617188 9.496094 21.617188 10.105469 C 21.617188 10.714844 21.117188 11.210938 20.503906 11.210938 C 19.886719 11.210938 19.386719 10.714844 19.386719 10.105469 C 19.386719 9.496094 19.886719 9 20.503906 9 Z M 12.132812 8.730469 C 12.75 8.730469 13.246094 9.222656 13.246094 9.835938 C 13.246094 10.445312 12.75 10.941406 12.132812 10.941406 C 11.515625 10.941406 11.015625 10.445312 11.015625 9.835938 C 11.015625 9.222656 11.515625 8.730469 12.132812 8.730469 Z M 16.335938 8 C 16.953125 8 17.453125 8.496094 17.453125 9.105469 C 17.453125 9.71875 16.953125 10.210938 16.335938 10.210938 C 15.722656 10.210938 15.222656 9.71875 15.222656 9.105469 C 15.222656 8.496094 15.722656 8 16.335938 8 Z M 16.335938 8 "/>
</svg>
