<?xml version="1.0" encoding="UTF-8"?>
<svg xmlns="http://www.w3.org/2000/svg" xmlns:xlink="http://www.w3.org/1999/xlink" width="32" height="32" viewBox="0 0 32 32">
<path fill-rule="nonzero" fill="rgb(25.882353%, 52.156863%, 95.686275%)" fill-opacity="1" d="M 15.800781 9.332031 C 12.042969 9.332031 9 12.378906 9 16.132812 C 9 19.890625 12.042969 22.933594 15.800781 22.933594 C 19.554688 22.933594 22.601562 19.890625 22.601562 16.132812 C 22.601562 12.378906 19.554688 9.332031 15.800781 9.332031 Z M 15.800781 21.441406 C 12.855469 21.441406 10.464844 19.050781 10.464844 16.105469 C 10.464844 13.160156 12.855469 10.773438 15.800781 10.773438 C 18.746094 10.773438 21.132812 13.160156 21.132812 16.105469 C 21.136719 17.523438 20.578125 18.882812 19.574219 19.886719 C 18.574219 20.890625 17.21875 21.453125 15.800781 21.453125 Z M 15.800781 21.441406 "/>
<path fill-rule="nonzero" fill="rgb(40%, 61.568627%, 96.470588%)" fill-opacity="1" d="M 18.359375 16.945312 C 18.242188 16.839844 18.121094 16.742188 17.988281 16.652344 C 16.9375 16.019531 15.664062 15.886719 14.507812 16.28125 C 14.070312 16.398438 13.664062 16.613281 13.320312 16.90625 C 13.03125 17.105469 12.851562 17.425781 12.828125 17.773438 L 12.828125 19.105469 L 18.785156 19.105469 L 18.785156 18.011719 C 18.8125 17.613281 18.65625 17.21875 18.359375 16.945312 Z M 18.359375 16.945312 "/>
<path fill-rule="nonzero" fill="rgb(40%, 61.568627%, 96.470588%)" fill-opacity="1" d="M 15.800781 15.375 C 16.652344 15.367188 17.339844 14.667969 17.332031 13.8125 C 17.324219 12.960938 16.628906 12.273438 15.773438 12.28125 C 14.917969 12.289062 14.234375 12.984375 14.238281 13.839844 C 14.253906 14.691406 14.949219 15.375 15.800781 15.375 Z M 15.800781 15.375 "/>
<path fill-rule="nonzero" fill="rgb(68.235294%, 79.607843%, 98.039216%)" fill-opacity="1" d="M 27.707031 14.292969 L 26.320312 14.292969 L 27.347656 15.320312 L 24.398438 15.320312 L 24.398438 16.519531 L 27.347656 16.519531 L 26.320312 17.558594 L 27.707031 17.558594 L 29.332031 15.921875 Z M 27.707031 14.292969 "/>
<path fill-rule="nonzero" fill="rgb(40%, 61.568627%, 96.470588%)" fill-opacity="1" d="M 23.386719 11.332031 L 24.238281 12.1875 L 25.546875 10.894531 L 25.546875 12.347656 L 26.519531 11.359375 L 26.519531 9.054688 L 24.214844 9.054688 L 23.238281 10.039062 L 24.691406 10.039062 Z M 23.386719 11.332031 "/>
<path fill-rule="nonzero" fill="rgb(40%, 61.568627%, 96.470588%)" fill-opacity="1" d="M 25.546875 21.105469 L 24.238281 19.8125 L 23.386719 20.652344 L 24.691406 21.960938 L 23.238281 21.960938 L 24.214844 22.933594 L 26.519531 22.933594 L 26.519531 20.625 L 25.546875 19.652344 Z M 25.546875 21.105469 "/>
<path fill-rule="nonzero" fill="rgb(40%, 61.568627%, 96.470588%)" fill-opacity="1" d="M 4.464844 14.199219 C 3.472656 14.207031 2.675781 15.015625 2.679688 16.007812 C 2.683594 17 3.492188 17.800781 4.484375 17.800781 C 5.476562 17.796875 6.28125 16.992188 6.28125 16 C 6.28125 15.519531 6.089844 15.058594 5.75 14.722656 C 5.40625 14.382812 4.945312 14.195312 4.464844 14.199219 Z M 4.464844 17 C 4.054688 17 3.683594 16.75 3.527344 16.371094 C 3.375 15.992188 3.460938 15.554688 3.753906 15.265625 C 4.046875 14.976562 4.484375 14.894531 4.863281 15.054688 C 5.242188 15.214844 5.484375 15.589844 5.480469 16 C 5.472656 16.554688 5.019531 17 4.464844 17 Z M 4.464844 17 "/>
</svg>
