<?xml version="1.0" encoding="UTF-8"?>
<svg xmlns="http://www.w3.org/2000/svg" xmlns:xlink="http://www.w3.org/1999/xlink" width="32" height="32" viewBox="0 0 32 32">
<path fill-rule="nonzero" fill="rgb(40%, 61.568627%, 96.470588%)" fill-opacity="1" d="M 19.640625 15.039062 L 25.214844 15.039062 L 25.214844 16.878906 L 19.640625 16.878906 Z M 19.640625 15.039062 "/>
<path fill-rule="nonzero" fill="rgb(40%, 61.568627%, 96.470588%)" fill-opacity="1" d="M 23.933594 8.160156 L 25.773438 8.160156 L 25.773438 23.773438 L 23.933594 23.773438 Z M 23.933594 8.160156 "/>
<path fill-rule="nonzero" fill="rgb(25.882353%, 52.156863%, 95.686275%)" fill-opacity="1" d="M 22.105469 23.09375 L 27.601562 23.09375 C 27.804688 23.09375 27.972656 23.261719 27.972656 23.464844 L 27.972656 28.960938 C 27.972656 29.167969 27.804688 29.332031 27.601562 29.332031 L 22.105469 29.332031 C 21.902344 29.332031 21.734375 29.167969 21.734375 28.960938 L 21.734375 23.464844 C 21.734375 23.261719 21.902344 23.09375 22.105469 23.09375 Z M 22.105469 23.09375 "/>
<path fill-rule="nonzero" fill="rgb(25.882353%, 52.156863%, 95.686275%)" fill-opacity="1" d="M 22.105469 2.667969 L 27.601562 2.667969 C 27.804688 2.667969 27.972656 2.832031 27.972656 3.039062 L 27.972656 8.535156 C 27.972656 8.738281 27.804688 8.90625 27.601562 8.90625 L 22.105469 8.90625 C 21.902344 8.90625 21.734375 8.738281 21.734375 8.535156 L 21.734375 3.039062 C 21.734375 2.832031 21.902344 2.667969 22.105469 2.667969 Z M 22.105469 2.667969 "/>
<path fill-rule="nonzero" fill="rgb(40%, 61.568627%, 96.470588%)" fill-opacity="1" d="M 9.308594 15.039062 L 15.011719 15.039062 L 15.011719 16.878906 L 9.308594 16.878906 Z M 9.308594 15.039062 "/>
<path fill-rule="nonzero" fill="rgb(25.882353%, 52.156863%, 95.686275%)" fill-opacity="1" d="M 4.414062 12.839844 L 9.90625 12.839844 C 10.113281 12.839844 10.28125 13.007812 10.28125 13.214844 L 10.28125 18.707031 C 10.28125 18.914062 10.113281 19.078125 9.90625 19.078125 L 4.414062 19.078125 C 4.207031 19.078125 4.039062 18.914062 4.039062 18.707031 L 4.039062 13.214844 C 4.039062 13.007812 4.207031 12.839844 4.414062 12.839844 Z M 4.414062 12.839844 "/>
<path fill-rule="nonzero" fill="rgb(25.882353%, 52.156863%, 95.686275%)" fill-opacity="1" d="M 17.332031 18.894531 C 15.714844 18.894531 14.398438 17.578125 14.398438 15.960938 C 14.398438 14.339844 15.714844 13.027344 17.332031 13.027344 C 18.953125 13.027344 20.265625 14.339844 20.265625 15.960938 C 20.269531 16.738281 19.960938 17.488281 19.410156 18.039062 C 18.859375 18.589844 18.113281 18.898438 17.332031 18.894531 Z M 17.332031 14.132812 C 16.585938 14.105469 15.898438 14.535156 15.589844 15.214844 C 15.28125 15.898438 15.417969 16.699219 15.933594 17.238281 C 16.449219 17.78125 17.238281 17.957031 17.9375 17.6875 C 18.632812 17.414062 19.09375 16.746094 19.105469 16 C 19.128906 14.996094 18.335938 14.164062 17.332031 14.132812 Z M 17.332031 14.132812 "/>
</svg>
