<?xml version="1.0" encoding="UTF-8"?>
<svg xmlns="http://www.w3.org/2000/svg" xmlns:xlink="http://www.w3.org/1999/xlink" width="32" height="32" viewBox="0 0 32 32">
<path fill-rule="nonzero" fill="rgb(40%, 61.568627%, 96.470588%)" fill-opacity="1" d="M 19.8125 15.492188 L 22.480469 15.492188 L 22.480469 15.574219 C 22.480469 23.453125 17.894531 26.238281 16.375 26.960938 L 16.375 29 L 16.707031 28.894531 C 17.011719 28.785156 24.398438 26.121094 24.398438 15.558594 L 24.398438 13.601562 L 18.839844 13.601562 Z M 19.8125 15.492188 "/>
<path fill-rule="nonzero" fill="rgb(25.882353%, 52.156863%, 95.686275%)" fill-opacity="1" d="M 18.839844 13.601562 L 19.773438 11.90625 L 19.773438 3 L 18.28125 4.160156 C 15.027344 6.546875 11.613281 10.933594 11.828125 16.078125 C 11.894531 19.480469 13.578125 22.644531 16.359375 24.601562 L 16.492188 24.691406 L 17.492188 23.066406 L 17.359375 22.988281 C 16.96875 22.703125 16.601562 22.386719 16.265625 22.039062 L 19.8125 20 L 19.8125 15.492188 Z M 17.90625 15.492188 L 17.90625 18.90625 L 15.066406 20.546875 C 14.207031 19.179688 13.742188 17.601562 13.734375 15.988281 C 13.558594 11.546875 16.574219 8.1875 17.878906 6.945312 L 17.878906 11.375 L 15.640625 15.492188 L 17.933594 15.492188 "/>
<path fill-rule="nonzero" fill="rgb(68.235294%, 79.607843%, 98.039216%)" fill-opacity="1" d="M 16.320312 26.960938 C 11.960938 24.742188 9.316406 20.164062 9.574219 15.28125 L 9.574219 13.535156 L 7.667969 13.535156 L 7.667969 15.28125 C 7.667969 25.308594 15.132812 28.613281 15.988281 28.878906 L 16.308594 29 "/>
</svg>
