<?xml version="1.0" encoding="UTF-8"?>
<svg xmlns="http://www.w3.org/2000/svg" xmlns:xlink="http://www.w3.org/1999/xlink" width="32" height="32" viewBox="0 0 32 32">
<path fill-rule="evenodd" fill="rgb(25.882353%, 52.156863%, 95.686275%)" fill-opacity="1" d="M 27.585938 16.574219 L 16 22.375 L 16 29.332031 L 27.585938 23.535156 Z M 27.585938 16.574219 "/>
<path fill-rule="evenodd" fill="rgb(11.764706%, 53.333333%, 89.803922%)" fill-opacity="1" d="M 9.039062 6.148438 L 4.414062 8.464844 Z M 9.039062 6.148438 "/>
<path fill-rule="evenodd" fill="rgb(25.882353%, 52.156863%, 95.686275%)" fill-opacity="1" d="M 22.960938 10.785156 L 22.960938 16.574219 L 27.585938 14.265625 L 27.585938 8.464844 Z M 22.960938 10.785156 "/>
<path fill-rule="evenodd" fill="rgb(25.882353%, 52.156863%, 95.686275%)" fill-opacity="1" d="M 16 20.054688 L 20.640625 17.746094 L 20.640625 11.945312 L 16 14.265625 Z M 16 20.054688 "/>
<path fill-rule="nonzero" fill="rgb(68.235294%, 79.607843%, 98.039216%)" fill-opacity="1" d="M 9.039062 6.148438 L 4.414062 8.464844 L 9.039062 10.785156 L 13.679688 8.464844 Z M 9.039062 6.148438 "/>
<path fill-rule="evenodd" fill="rgb(68.235294%, 79.607843%, 98.039216%)" fill-opacity="1" d="M 16 2.667969 L 11.359375 4.988281 L 16 7.308594 L 22.960938 10.785156 L 27.585938 8.464844 Z M 16 2.667969 "/>
<path fill-rule="nonzero" fill="rgb(68.235294%, 79.607843%, 98.039216%)" fill-opacity="1" d="M 16 9.625 L 11.359375 11.945312 L 16 14.265625 L 20.640625 11.945312 Z M 16 9.625 "/>
<path fill-rule="nonzero" fill="rgb(40%, 61.568627%, 96.470588%)" fill-opacity="1" d="M 11.359375 20 L 11.359375 26.960938 L 16 29.332031 L 16 22.375 Z M 14.839844 26.960938 L 12.519531 25.800781 L 12.519531 22.375 L 14.839844 23.535156 Z M 14.839844 26.960938 "/>
<path fill-rule="nonzero" fill="rgb(40%, 61.568627%, 96.470588%)" fill-opacity="1" d="M 4.414062 8.464844 L 4.414062 23.535156 L 9.039062 25.851562 L 9.039062 10.785156 Z M 7.894531 23.535156 L 5.558594 22.375 L 5.558594 9.039062 L 7.894531 10.199219 Z M 7.894531 23.535156 "/>
<path fill-rule="nonzero" fill="rgb(40%, 61.568627%, 96.470588%)" fill-opacity="1" d="M 11.359375 12 L 16 14.265625 L 16 20 L 11.359375 17.746094 Z M 14.839844 17.800781 L 14.839844 13.800781 L 12.519531 12.601562 L 12.519531 16.601562 Z M 14.839844 17.800781 "/>
</svg>
