<?xml version="1.0" encoding="UTF-8"?>
<svg xmlns="http://www.w3.org/2000/svg" xmlns:xlink="http://www.w3.org/1999/xlink" width="32" height="32" viewBox="0 0 32 32">
<path fill-rule="nonzero" fill="rgb(25.882353%, 52.156863%, 95.686275%)" fill-opacity="1" d="M 26.207031 27.890625 L 26.84375 28.675781 C 26.304688 29.097656 25.636719 29.332031 24.9375 29.332031 C 24.792969 29.332031 24.652344 29.324219 24.515625 29.304688 L 24.652344 28.308594 C 24.746094 28.320312 24.839844 28.328125 24.9375 28.328125 C 25.40625 28.328125 25.847656 28.171875 26.207031 27.890625 Z M 17.722656 23.171875 C 19.410156 23.171875 20.777344 24.519531 20.777344 26.183594 C 20.777344 27.847656 19.410156 29.195312 17.722656 29.195312 C 16.035156 29.195312 14.664062 27.847656 14.664062 26.183594 C 14.664062 24.519531 16.035156 23.171875 17.722656 23.171875 Z M 22.933594 26.71875 C 23.050781 27.269531 23.394531 27.746094 23.878906 28.035156 L 23.347656 28.894531 C 22.621094 28.460938 22.105469 27.746094 21.933594 26.921875 Z M 13.863281 2.667969 C 15.464844 2.667969 16.820312 3.6875 17.339844 5.097656 L 21.261719 5.097656 C 22.617188 5.097656 23.726562 6.1875 23.726562 7.527344 L 23.726562 14.8125 L 21.261719 14.8125 L 21.261719 7.527344 L 18.792969 7.527344 L 18.792969 11.167969 L 8.929688 11.167969 L 8.929688 7.527344 L 6.464844 7.527344 L 6.464844 25.746094 L 12.628906 25.746094 L 12.628906 28.175781 L 6.464844 28.175781 C 5.109375 28.175781 4 27.082031 4 25.746094 L 4 7.527344 C 4 6.1875 5.109375 5.097656 6.464844 5.097656 L 10.386719 5.097656 C 10.902344 3.6875 12.261719 2.667969 13.863281 2.667969 Z M 27.8125 25.273438 C 27.929688 25.585938 27.992188 25.914062 28 26.265625 C 28 26.792969 27.886719 27.261719 27.664062 27.691406 L 26.753906 27.230469 C 26.902344 26.945312 26.980469 26.632812 26.980469 26.273438 C 26.972656 26.046875 26.933594 25.828125 26.855469 25.621094 Z M 23.363281 23.726562 L 23.886719 24.585938 C 23.402344 24.875 23.054688 25.351562 22.9375 25.898438 L 21.9375 25.691406 C 22.113281 24.867188 22.632812 24.15625 23.363281 23.726562 Z M 24.9375 23.296875 C 25.800781 23.296875 26.605469 23.648438 27.183594 24.261719 L 26.433594 24.945312 C 26.050781 24.539062 25.511719 24.300781 24.9375 24.300781 C 24.851562 24.300781 24.75 24.308594 24.667969 24.320312 L 24.53125 23.320312 C 24.65625 23.304688 24.808594 23.296875 24.9375 23.296875 Z M 24.746094 16.25 C 26.433594 16.25 27.804688 17.601562 27.804688 19.261719 C 27.804688 20.925781 26.433594 22.273438 24.746094 22.273438 C 23.058594 22.273438 21.691406 20.925781 21.691406 19.261719 C 21.691406 17.601562 23.058594 16.25 24.746094 16.25 Z M 17.722656 16.25 C 19.410156 16.25 20.777344 17.601562 20.777344 19.261719 C 20.777344 20.925781 19.410156 22.273438 17.722656 22.273438 C 16.035156 22.273438 14.664062 20.925781 14.664062 19.261719 C 14.664062 17.601562 16.035156 16.25 17.722656 16.25 Z M 13.863281 5.097656 C 13.183594 5.097656 12.628906 5.644531 12.628906 6.3125 C 12.628906 6.980469 13.183594 7.527344 13.863281 7.527344 C 14.539062 7.527344 15.09375 6.980469 15.09375 6.3125 C 15.09375 5.644531 14.539062 5.097656 13.863281 5.097656 Z M 13.863281 5.097656 "/>
</svg>
