<?xml version="1.0" encoding="UTF-8"?>
<svg xmlns="http://www.w3.org/2000/svg" xmlns:xlink="http://www.w3.org/1999/xlink" width="32" height="32" viewBox="0 0 32 32">
<path fill-rule="evenodd" fill="rgb(25.882353%, 52.156863%, 95.686275%)" fill-opacity="1" d="M 19.613281 11.792969 C 19.695312 11.792969 19.765625 11.847656 19.789062 11.925781 L 19.796875 11.988281 L 19.796875 13.066406 C 19.796875 13.15625 19.746094 13.226562 19.671875 13.253906 L 19.613281 13.265625 L 18.882812 13.265625 L 18.882812 15.195312 C 18.882812 15.253906 18.890625 15.308594 18.910156 15.359375 L 18.941406 15.4375 L 23.878906 24.53125 C 24.015625 24.785156 24.035156 25.09375 23.9375 25.363281 L 23.878906 25.492188 L 22.089844 28.851562 C 21.953125 29.109375 21.714844 29.277344 21.445312 29.324219 L 21.3125 29.332031 L 10.6875 29.332031 C 10.414062 29.332031 10.15625 29.199219 9.988281 28.972656 L 9.910156 28.851562 L 8.121094 25.492188 C 7.984375 25.238281 7.964844 24.933594 8.0625 24.664062 L 8.121094 24.53125 L 13.042969 15.4375 C 13.070312 15.386719 13.09375 15.335938 13.105469 15.28125 L 13.117188 15.195312 L 13.117188 13.265625 L 12.386719 13.265625 C 12.304688 13.265625 12.234375 13.207031 12.210938 13.128906 L 12.203125 13.066406 L 12.203125 11.988281 C 12.203125 11.902344 12.253906 11.828125 12.328125 11.804688 L 12.386719 11.792969 Z M 17.511719 13.265625 L 14.488281 13.265625 L 14.488281 15.496094 C 14.488281 15.621094 14.464844 15.746094 14.421875 15.863281 L 14.371094 15.976562 L 9.648438 24.789062 C 9.585938 24.90625 9.574219 25.046875 9.609375 25.175781 L 9.648438 25.269531 L 10.871094 27.535156 C 10.933594 27.652344 11.042969 27.734375 11.164062 27.761719 L 11.257812 27.773438 L 12.761719 27.773438 L 11.433594 25.304688 C 11.371094 25.1875 11.355469 25.046875 11.394531 24.917969 L 11.433594 24.824219 L 12.589844 22.675781 L 21.21875 22.675781 L 20.53125 21.394531 L 17.339844 21.394531 L 16.820312 20.433594 L 20.015625 20.433594 L 19.054688 18.636719 L 15.832031 18.640625 L 15.3125 17.675781 L 18.539062 17.675781 L 17.628906 15.976562 C 17.570312 15.867188 17.53125 15.746094 17.519531 15.621094 L 17.511719 15.496094 Z M 21.796875 23.753906 L 18.609375 23.753906 L 19.128906 24.734375 L 22.320312 24.734375 Z M 14.175781 7.695312 C 14.671875 7.695312 15.070312 8.128906 15.070312 8.660156 C 15.070312 9.191406 14.671875 9.621094 14.175781 9.621094 C 13.679688 9.621094 13.277344 9.191406 13.277344 8.660156 C 13.277344 8.128906 13.679688 7.695312 14.175781 7.695312 Z M 17.5625 5.632812 C 18.304688 5.632812 18.910156 6.277344 18.910156 7.074219 C 18.910156 7.871094 18.304688 8.519531 17.5625 8.519531 C 16.816406 8.519531 16.214844 7.871094 16.214844 7.074219 C 16.214844 6.277344 16.816406 5.632812 17.5625 5.632812 Z M 15.519531 2.667969 C 16.015625 2.667969 16.417969 3.097656 16.417969 3.628906 C 16.417969 4.160156 16.015625 4.589844 15.519531 4.589844 C 15.023438 4.589844 14.625 4.160156 14.625 3.628906 C 14.625 3.097656 15.023438 2.667969 15.519531 2.667969 Z M 15.519531 2.667969 "/>
</svg>
