<?xml version="1.0" encoding="UTF-8"?>
<svg xmlns="http://www.w3.org/2000/svg" xmlns:xlink="http://www.w3.org/1999/xlink" width="32" height="32" viewBox="0 0 32 32">
<path fill-rule="nonzero" fill="rgb(68.235294%, 79.607843%, 98.039216%)" fill-opacity="1" d="M 16.886719 2.996094 L 25.148438 7.828125 C 25.707031 8.136719 26.058594 8.71875 26.066406 9.355469 L 26.066406 19.964844 C 26.054688 20.601562 25.707031 21.183594 25.148438 21.492188 L 11.988281 29.1875 C 11.773438 29.3125 11.5 29.242188 11.371094 29.03125 C 11.332031 28.964844 11.3125 28.890625 11.308594 28.8125 L 11.308594 24.144531 L 6.792969 21.492188 C 6.234375 21.183594 5.882812 20.601562 5.875 19.964844 L 5.875 9.355469 C 5.882812 8.71875 6.234375 8.136719 6.792969 7.828125 L 15.050781 2.996094 C 15.621094 2.667969 16.320312 2.667969 16.886719 2.996094 Z M 16.886719 2.996094 "/>
<path fill-rule="evenodd" fill="rgb(9.411765%, 35.294118%, 73.72549%)" fill-opacity="1" d="M 13.09375 17.648438 C 13.09375 17.121094 12.664062 16.695312 12.140625 16.695312 C 11.613281 16.695312 11.1875 17.121094 11.1875 17.648438 L 11.1875 19.554688 C 11.1875 20.078125 11.613281 20.503906 12.140625 20.503906 C 12.664062 20.503906 13.09375 20.078125 13.09375 19.554688 Z M 13.09375 17.648438 "/>
<path fill-rule="evenodd" fill="rgb(25.882353%, 52.156863%, 95.686275%)" fill-opacity="1" d="M 13.09375 14.792969 C 13.09375 14.265625 12.664062 13.839844 12.140625 13.839844 C 11.613281 13.839844 11.1875 14.265625 11.1875 14.792969 C 11.1875 15.316406 11.613281 15.742188 12.140625 15.742188 C 12.664062 15.742188 13.09375 15.316406 13.09375 14.792969 Z M 13.09375 14.792969 "/>
<path fill-rule="evenodd" fill="rgb(25.882353%, 52.156863%, 95.686275%)" fill-opacity="1" d="M 16.902344 14.792969 C 16.902344 14.265625 16.476562 13.839844 15.949219 13.839844 C 15.421875 13.839844 14.996094 14.265625 14.996094 14.792969 C 14.996094 15.316406 15.421875 15.742188 15.949219 15.742188 C 16.476562 15.742188 16.902344 15.316406 16.902344 14.792969 Z M 16.902344 14.792969 "/>
<path fill-rule="evenodd" fill="rgb(40%, 61.568627%, 96.470588%)" fill-opacity="1" d="M 16.902344 11.933594 C 16.902344 11.410156 16.476562 10.980469 15.949219 10.980469 C 15.421875 10.980469 14.996094 11.410156 14.996094 11.933594 C 14.996094 12.460938 15.421875 12.886719 15.949219 12.886719 C 16.476562 12.886719 16.902344 12.460938 16.902344 11.933594 Z M 16.902344 11.933594 "/>
<path fill-rule="evenodd" fill="rgb(40%, 61.568627%, 96.470588%)" fill-opacity="1" d="M 20.710938 9.078125 C 20.710938 8.550781 20.285156 8.125 19.757812 8.125 C 19.234375 8.125 18.804688 8.550781 18.804688 9.078125 C 18.804688 9.601562 19.234375 10.03125 19.757812 10.03125 C 20.285156 10.03125 20.710938 9.601562 20.710938 9.078125 Z M 20.710938 9.078125 "/>
<path fill-rule="evenodd" fill="rgb(9.411765%, 35.294118%, 73.72549%)" fill-opacity="1" d="M 20.710938 14.792969 C 20.710938 14.265625 20.285156 13.839844 19.757812 13.839844 C 19.234375 13.839844 18.804688 14.265625 18.804688 14.792969 C 18.804688 15.316406 19.234375 15.742188 19.757812 15.742188 C 20.285156 15.742188 20.710938 15.316406 20.710938 14.792969 Z M 20.710938 14.792969 "/>
<path fill-rule="evenodd" fill="rgb(25.882353%, 52.156863%, 95.686275%)" fill-opacity="1" d="M 20.710938 11.933594 C 20.710938 11.410156 20.285156 10.980469 19.757812 10.980469 C 19.234375 10.980469 18.804688 11.410156 18.804688 11.933594 C 18.804688 12.460938 19.234375 12.886719 19.757812 12.886719 C 20.285156 12.886719 20.710938 12.460938 20.710938 11.933594 Z M 20.710938 11.933594 "/>
<path fill-rule="evenodd" fill="rgb(9.411765%, 35.294118%, 73.72549%)" fill-opacity="1" d="M 14.996094 17.648438 C 14.996094 17.121094 15.421875 16.695312 15.949219 16.695312 C 16.476562 16.695312 16.902344 17.121094 16.902344 17.648438 L 16.902344 19.554688 C 16.902344 20.078125 16.476562 20.503906 15.949219 20.503906 C 15.421875 20.503906 14.996094 20.078125 14.996094 19.554688 Z M 14.996094 17.648438 "/>
<path fill-rule="evenodd" fill="rgb(9.411765%, 35.294118%, 73.72549%)" fill-opacity="1" d="M 20.710938 17.648438 C 20.710938 17.121094 20.285156 16.695312 19.757812 16.695312 C 19.234375 16.695312 18.804688 17.121094 18.804688 17.648438 L 18.804688 19.554688 C 18.804688 20.078125 19.234375 20.503906 19.757812 20.503906 C 20.285156 20.503906 20.710938 20.078125 20.710938 19.554688 Z M 20.710938 17.648438 "/>
</svg>
