<?xml version="1.0" encoding="UTF-8"?>
<svg xmlns="http://www.w3.org/2000/svg" xmlns:xlink="http://www.w3.org/1999/xlink" width="32" height="32" viewBox="0 0 32 32">
<path fill-rule="nonzero" fill="rgb(40%, 61.568627%, 96.470588%)" fill-opacity="1" d="M 26.667969 6.667969 L 22.667969 6.667969 L 22.667969 9.332031 L 26.667969 9.332031 L 26.667969 25.332031 L 22.667969 25.332031 L 22.667969 28 L 29.332031 28 L 29.332031 6.667969 Z M 26.667969 6.667969 "/>
<path fill-rule="nonzero" fill="rgb(25.882353%, 52.156863%, 95.686275%)" fill-opacity="1" d="M 26.667969 10.667969 L 29.332031 9.332031 L 26.667969 9.332031 Z M 26.667969 10.667969 "/>
<path fill-rule="nonzero" fill="rgb(25.882353%, 52.156863%, 95.686275%)" fill-opacity="1" d="M 29.332031 24 L 26.667969 25.332031 L 29.332031 25.332031 Z M 29.332031 24 "/>
<path fill-rule="nonzero" fill="rgb(40%, 61.568627%, 96.470588%)" fill-opacity="1" d="M 5.332031 28 L 9.332031 28 L 9.332031 25.332031 L 5.332031 25.332031 L 5.332031 9.332031 L 9.332031 9.332031 L 9.332031 6.667969 L 2.667969 6.667969 L 2.667969 28 Z M 5.332031 28 "/>
<path fill-rule="nonzero" fill="rgb(25.882353%, 52.156863%, 95.686275%)" fill-opacity="1" d="M 2.667969 24 L 5.332031 25.332031 L 2.667969 25.332031 Z M 2.667969 24 "/>
<path fill-rule="nonzero" fill="rgb(25.882353%, 52.156863%, 95.686275%)" fill-opacity="1" d="M 5.332031 10.667969 L 2.667969 9.332031 L 5.332031 9.332031 Z M 5.332031 10.667969 "/>
<path fill-rule="nonzero" fill="rgb(68.235294%, 79.607843%, 98.039216%)" fill-opacity="1" d="M 9.332031 16 L 22.667969 16 L 22.667969 18.667969 L 9.332031 18.667969 Z M 9.332031 16 "/>
<path fill-rule="nonzero" fill="rgb(68.235294%, 79.607843%, 98.039216%)" fill-opacity="1" d="M 9.332031 20 L 22.667969 20 L 22.667969 22.667969 L 9.332031 22.667969 Z M 9.332031 20 "/>
<path fill-rule="nonzero" fill="rgb(68.235294%, 79.607843%, 98.039216%)" fill-opacity="1" d="M 9.332031 12 L 22.667969 12 L 22.667969 14.667969 L 9.332031 14.667969 Z M 9.332031 12 "/>
</svg>
