<?xml version="1.0" encoding="UTF-8"?>
<svg xmlns="http://www.w3.org/2000/svg" xmlns:xlink="http://www.w3.org/1999/xlink" width="32" height="32" viewBox="0 0 32 32">
<path fill-rule="evenodd" fill="rgb(36.078431%, 52.156863%, 87.058824%)" fill-opacity="1" d="M 9.066406 9.066406 C 5.199219 9.066406 4.800781 4 9.066406 4 C 12.132812 4 13.464844 4.933594 16 6 C 18.800781 4.933594 19.867188 4 22.933594 4 C 27.199219 4 26.800781 9.066406 22.933594 9.066406 Z M 9.066406 9.066406 "/>
<path fill-rule="evenodd" fill="rgb(20%, 40.392157%, 83.921569%)" fill-opacity="1" d="M 9.066406 9.066406 L 22.933594 9.066406 C 24 9.066406 24.933594 8.535156 25.332031 8 L 16 9.066406 L 6.667969 8 C 7.066406 8.535156 8 9.066406 9.066406 9.066406 Z M 9.066406 9.066406 "/>
<path fill-rule="evenodd" fill="rgb(52.156863%, 64.313725%, 90.196078%)" fill-opacity="1" d="M 26.933594 17.066406 L 17.066406 17.066406 L 17.066406 28 L 25.066406 28 C 26.132812 28 27.066406 27.066406 27.066406 26 L 27.066406 17.066406 Z M 26.933594 17.066406 "/>
<path fill-rule="evenodd" fill="rgb(52.156863%, 64.313725%, 90.196078%)" fill-opacity="1" d="M 5.066406 17.066406 L 15.066406 17.066406 L 15.066406 28 L 7.066406 28 C 6 28 5.066406 27.066406 5.066406 26 Z M 5.066406 17.066406 "/>
<path fill-rule="evenodd" fill="rgb(52.156863%, 64.313725%, 90.196078%)" fill-opacity="1" d="M 14.933594 16 L 14.933594 9.066406 L 5.066406 9.066406 C 4 9.066406 3.066406 10 3.066406 11.066406 L 3.066406 16 Z M 14.933594 16 "/>
<path fill-rule="evenodd" fill="rgb(52.156863%, 64.313725%, 90.196078%)" fill-opacity="1" d="M 29.066406 16 L 17.066406 16 L 17.066406 9.066406 L 27.066406 9.066406 C 28.132812 9.066406 29.066406 10 29.066406 11.066406 Z M 29.066406 16 "/>
<path fill-rule="evenodd" fill="rgb(20%, 40.392157%, 83.921569%)" fill-opacity="1" d="M 5.066406 16 L 15.066406 16 L 15.066406 18 L 5.066406 18 Z M 5.066406 16 "/>
<path fill-rule="evenodd" fill="rgb(20%, 40.392157%, 83.921569%)" fill-opacity="1" d="M 17.066406 16 L 27.066406 16 L 27.066406 18 L 17.066406 18 Z M 17.066406 16 "/>
<path fill-rule="evenodd" fill="rgb(20%, 40.392157%, 83.921569%)" fill-opacity="1" d="M 18 9.066406 L 19.066406 9.066406 L 19.066406 28 L 18 28 Z M 18 9.066406 "/>
<path fill-rule="evenodd" fill="rgb(36.078431%, 52.156863%, 87.058824%)" fill-opacity="1" d="M 14 9.066406 L 18 9.066406 L 18 28 L 14 28 Z M 14 9.066406 "/>
</svg>
