<?xml version="1.0" encoding="UTF-8"?>
<svg xmlns="http://www.w3.org/2000/svg" xmlns:xlink="http://www.w3.org/1999/xlink" width="32" height="32" viewBox="0 0 32 32">
<path fill-rule="nonzero" fill="rgb(25.882353%, 52.156863%, 95.686275%)" fill-opacity="1" d="M 19.761719 10.253906 C 19.761719 11.769531 18.53125 13 17.011719 13 C 15.496094 13 14.265625 11.769531 14.265625 10.253906 C 14.265625 8.738281 15.496094 7.507812 17.011719 7.507812 C 18.53125 7.507812 19.761719 8.738281 19.761719 10.253906 Z M 19.761719 10.253906 "/>
<path fill-rule="nonzero" fill="rgb(25.882353%, 52.156863%, 95.686275%)" fill-opacity="1" d="M 17.734375 21.746094 C 17.734375 23.261719 16.503906 24.492188 14.988281 24.492188 C 13.46875 24.492188 12.238281 23.261719 12.238281 21.746094 C 12.238281 20.230469 13.46875 19 14.988281 19 C 16.503906 19 17.734375 20.230469 17.734375 21.746094 Z M 17.734375 21.746094 "/>
<path fill-rule="nonzero" fill="rgb(25.882353%, 52.156863%, 95.686275%)" fill-opacity="1" d="M 24.492188 17.011719 C 24.492188 18.53125 23.261719 19.761719 21.746094 19.761719 C 20.230469 19.761719 19 18.53125 19 17.011719 C 19 15.496094 20.230469 14.265625 21.746094 14.265625 C 23.261719 14.265625 24.492188 15.496094 24.492188 17.011719 Z M 24.492188 17.011719 "/>
<path fill-rule="nonzero" fill="rgb(25.882353%, 52.156863%, 95.686275%)" fill-opacity="1" d="M 13 14.988281 C 13 16.503906 11.769531 17.734375 10.253906 17.734375 C 8.738281 17.734375 7.507812 16.503906 7.507812 14.988281 C 7.507812 13.46875 8.738281 12.238281 10.253906 12.238281 C 11.769531 12.238281 13 13.46875 13 14.988281 Z M 13 14.988281 "/>
<path fill-rule="nonzero" fill="rgb(40%, 61.568627%, 96.470588%)" fill-opacity="1" d="M 13.585938 10.398438 C 13.585938 11.230469 12.914062 11.90625 12.078125 11.90625 C 11.246094 11.90625 10.574219 11.230469 10.574219 10.398438 C 10.574219 9.566406 11.246094 8.894531 12.078125 8.894531 C 12.914062 8.894531 13.585938 9.566406 13.585938 10.398438 Z M 13.585938 10.398438 "/>
<path fill-rule="nonzero" fill="rgb(40%, 61.568627%, 96.470588%)" fill-opacity="1" d="M 21.425781 21.601562 C 21.425781 22.433594 20.753906 23.105469 19.921875 23.105469 C 19.085938 23.105469 18.414062 22.433594 18.414062 21.601562 C 18.414062 20.769531 19.085938 20.09375 19.921875 20.09375 C 20.753906 20.09375 21.425781 20.769531 21.425781 21.601562 Z M 21.425781 21.601562 "/>
<path fill-rule="nonzero" fill="rgb(40%, 61.568627%, 96.470588%)" fill-opacity="1" d="M 11.90625 19.921875 C 11.90625 20.753906 11.230469 21.425781 10.398438 21.425781 C 9.566406 21.425781 8.894531 20.753906 8.894531 19.921875 C 8.894531 19.085938 9.566406 18.414062 10.398438 18.414062 C 11.230469 18.414062 11.90625 19.085938 11.90625 19.921875 Z M 11.90625 19.921875 "/>
<path fill-rule="nonzero" fill="rgb(40%, 61.568627%, 96.470588%)" fill-opacity="1" d="M 23.105469 12.078125 C 23.105469 12.914062 22.433594 13.585938 21.601562 13.585938 C 20.769531 13.585938 20.09375 12.914062 20.09375 12.078125 C 20.09375 11.246094 20.769531 10.574219 21.601562 10.574219 C 22.433594 10.574219 23.105469 11.246094 23.105469 12.078125 Z M 23.105469 12.078125 "/>
<path fill-rule="nonzero" fill="rgb(40%, 61.568627%, 96.470588%)" fill-opacity="1" d="M 16.894531 5.414062 C 16.894531 6.519531 15.996094 7.414062 14.894531 7.414062 C 13.789062 7.414062 12.894531 6.519531 12.894531 5.414062 C 12.894531 4.308594 13.789062 3.414062 14.894531 3.414062 C 15.996094 3.414062 16.894531 4.308594 16.894531 5.414062 Z M 16.894531 5.414062 "/>
<path fill-rule="nonzero" fill="rgb(40%, 61.568627%, 96.470588%)" fill-opacity="1" d="M 19.105469 26.585938 C 19.105469 27.691406 18.210938 28.585938 17.105469 28.585938 C 16.003906 28.585938 15.105469 27.691406 15.105469 26.585938 C 15.105469 25.480469 16.003906 24.585938 17.105469 24.585938 C 18.210938 24.585938 19.105469 25.480469 19.105469 26.585938 Z M 19.105469 26.585938 "/>
<path fill-rule="nonzero" fill="rgb(40%, 61.568627%, 96.470588%)" fill-opacity="1" d="M 7.414062 17.105469 C 7.414062 18.210938 6.519531 19.105469 5.414062 19.105469 C 4.308594 19.105469 3.414062 18.210938 3.414062 17.105469 C 3.414062 16.003906 4.308594 15.105469 5.414062 15.105469 C 6.519531 15.105469 7.414062 16.003906 7.414062 17.105469 Z M 7.414062 17.105469 "/>
<path fill-rule="nonzero" fill="rgb(40%, 61.568627%, 96.470588%)" fill-opacity="1" d="M 28.585938 14.894531 C 28.585938 15.996094 27.691406 16.894531 26.585938 16.894531 C 25.480469 16.894531 24.585938 15.996094 24.585938 14.894531 C 24.585938 13.789062 25.480469 12.894531 26.585938 12.894531 C 27.691406 12.894531 28.585938 13.789062 28.585938 14.894531 Z M 28.585938 14.894531 "/>
<path fill-rule="nonzero" fill="rgb(68.235294%, 79.607843%, 98.039216%)" fill-opacity="1" d="M 24.308594 6.867188 C 24.308594 8.109375 23.296875 9.121094 22.054688 9.121094 C 20.808594 9.121094 19.800781 8.109375 19.800781 6.867188 C 19.800781 5.621094 20.808594 4.613281 22.054688 4.613281 C 23.296875 4.613281 24.308594 5.621094 24.308594 6.867188 Z M 24.308594 6.867188 "/>
<path fill-rule="nonzero" fill="rgb(68.235294%, 79.607843%, 98.039216%)" fill-opacity="1" d="M 12.199219 25.132812 C 12.199219 26.378906 11.191406 27.386719 9.945312 27.386719 C 8.703125 27.386719 7.691406 26.378906 7.691406 25.132812 C 7.691406 23.890625 8.703125 22.878906 9.945312 22.878906 C 11.191406 22.878906 12.199219 23.890625 12.199219 25.132812 Z M 12.199219 25.132812 "/>
<path fill-rule="nonzero" fill="rgb(68.235294%, 79.607843%, 98.039216%)" fill-opacity="1" d="M 9.226562 9.800781 C 9.226562 11.042969 8.21875 12.054688 6.972656 12.054688 C 5.730469 12.054688 4.71875 11.042969 4.71875 9.800781 C 4.71875 8.554688 5.730469 7.546875 6.972656 7.546875 C 8.21875 7.546875 9.226562 8.554688 9.226562 9.800781 Z M 9.226562 9.800781 "/>
<path fill-rule="nonzero" fill="rgb(68.235294%, 79.607843%, 98.039216%)" fill-opacity="1" d="M 27.28125 22.199219 C 27.28125 23.445312 26.269531 24.453125 25.027344 24.453125 C 23.78125 24.453125 22.773438 23.445312 22.773438 22.199219 C 22.773438 20.957031 23.78125 19.945312 25.027344 19.945312 C 26.269531 19.945312 27.28125 20.957031 27.28125 22.199219 Z M 27.28125 22.199219 "/>
</svg>
