<?xml version="1.0" encoding="UTF-8"?>
<svg xmlns="http://www.w3.org/2000/svg" xmlns:xlink="http://www.w3.org/1999/xlink" width="32" height="32" viewBox="0 0 32 32">
<path fill-rule="nonzero" fill="rgb(68.235294%, 79.607843%, 98.039216%)" fill-opacity="1" d="M 16 2.667969 L 29.332031 2.667969 L 29.332031 16 L 16 16 Z M 21.945312 11.679688 L 25.734375 7.90625 L 24.667969 6.839844 L 22 9.507812 L 20.667969 8.171875 L 19.601562 9.238281 Z M 21.945312 11.679688 "/>
<path fill-rule="nonzero" fill="rgb(25.882353%, 52.156863%, 95.686275%)" fill-opacity="1" d="M 2.667969 18.667969 L 2.667969 29.332031 L 13.332031 29.332031 L 13.332031 18.667969 Z M 10.667969 26.667969 L 5.332031 26.667969 L 5.332031 21.332031 L 10.667969 21.332031 Z M 10.667969 26.667969 "/>
<path fill-rule="nonzero" fill="rgb(25.882353%, 52.156863%, 95.686275%)" fill-opacity="1" d="M 16 16 L 29.332031 16 L 29.332031 13.375 L 18.667969 13.332031 Z M 16 16 "/>
<path fill-rule="nonzero" fill="rgb(40%, 61.568627%, 96.470588%)" fill-opacity="1" d="M 26.667969 5.332031 L 26.667969 13.359375 L 29.332031 16 L 29.332031 2.667969 Z M 26.667969 5.332031 "/>
<path fill-rule="nonzero" fill="rgb(68.235294%, 79.607843%, 98.039216%)" fill-opacity="1" d="M 13.332031 29.332031 L 10.667969 26.667969 L 10.667969 21.332031 L 13.332031 18.667969 Z M 13.332031 29.332031 "/>
<path fill-rule="nonzero" fill="rgb(40%, 61.568627%, 96.470588%)" fill-opacity="1" d="M 2.667969 29.332031 L 5.332031 26.667969 L 10.667969 26.667969 L 13.332031 29.332031 Z M 2.667969 29.332031 "/>
<path fill-rule="nonzero" fill="rgb(25.882353%, 52.156863%, 95.686275%)" fill-opacity="1" d="M 2.667969 5.332031 L 2.667969 16 L 13.332031 16 L 13.332031 5.332031 Z M 10.667969 13.332031 L 5.332031 13.332031 L 5.332031 8 L 10.667969 8 Z M 10.667969 13.332031 "/>
<path fill-rule="nonzero" fill="rgb(68.235294%, 79.607843%, 98.039216%)" fill-opacity="1" d="M 13.332031 16 L 10.667969 13.332031 L 10.667969 8 L 13.332031 5.332031 Z M 13.332031 16 "/>
<path fill-rule="nonzero" fill="rgb(40%, 61.568627%, 96.470588%)" fill-opacity="1" d="M 2.667969 16 L 5.332031 13.332031 L 10.667969 13.332031 L 13.332031 16 Z M 2.667969 16 "/>
<path fill-rule="nonzero" fill="rgb(25.882353%, 52.156863%, 95.686275%)" fill-opacity="1" d="M 16 18.667969 L 16 29.332031 L 26.667969 29.332031 L 26.667969 18.667969 Z M 24 26.667969 L 18.667969 26.667969 L 18.667969 21.332031 L 24 21.332031 Z M 24 26.667969 "/>
<path fill-rule="nonzero" fill="rgb(68.235294%, 79.607843%, 98.039216%)" fill-opacity="1" d="M 26.667969 29.332031 L 24 26.667969 L 24 21.332031 L 26.667969 18.667969 Z M 26.667969 29.332031 "/>
<path fill-rule="nonzero" fill="rgb(40%, 61.568627%, 96.470588%)" fill-opacity="1" d="M 16 29.332031 L 18.667969 26.667969 L 24 26.667969 L 26.667969 29.332031 Z M 16 29.332031 "/>
</svg>
