<?xml version="1.0" encoding="UTF-8"?>
<svg xmlns="http://www.w3.org/2000/svg" xmlns:xlink="http://www.w3.org/1999/xlink" width="32" height="32" viewBox="0 0 32 32">
<path fill-rule="evenodd" fill="rgb(36.078431%, 52.156863%, 87.058824%)" fill-opacity="1" d="M 27.867188 18 L 30.398438 20 C 30.667969 20.265625 30.800781 20.667969 30.535156 20.933594 L 27.601562 26.132812 C 27.464844 26.398438 27.066406 26.535156 26.667969 26.398438 L 23.734375 25.199219 C 22.667969 26 21.464844 26.667969 20.265625 27.199219 L 19.867188 30.398438 C 19.867188 30.800781 19.464844 31.066406 19.066406 31.066406 L 12.933594 31.066406 C 12.535156 31.066406 12.265625 30.800781 12.132812 30.398438 L 11.734375 27.199219 C 10.535156 26.800781 9.332031 26 8.265625 25.199219 L 5.332031 26.398438 C 4.933594 26.535156 4.667969 26.398438 4.398438 26.132812 L 1.464844 20.933594 C 1.332031 20.535156 1.332031 20.132812 1.734375 20 L 4.265625 18 C 4 16.667969 4 15.332031 4.265625 14 L 1.734375 12 C 1.332031 11.867188 1.332031 11.464844 1.464844 11.066406 L 4.398438 5.867188 C 4.535156 5.601562 4.933594 5.464844 5.332031 5.601562 L 8.265625 6.800781 C 9.332031 5.867188 10.535156 5.199219 11.867188 4.800781 L 12.265625 1.601562 C 12.265625 1.199219 12.667969 0.933594 13.066406 0.933594 L 19.066406 0.933594 C 19.464844 0.933594 19.734375 1.199219 19.867188 1.601562 L 20.265625 4.800781 C 21.464844 5.199219 22.667969 6 23.734375 6.800781 L 26.667969 5.601562 C 27.066406 5.464844 27.332031 5.601562 27.601562 5.867188 L 30.535156 11.066406 C 30.667969 11.464844 30.667969 11.867188 30.265625 12 L 27.734375 14 C 28 15.332031 28 16.667969 27.867188 18 Z M 11.464844 19.199219 L 12.265625 17.601562 L 18.800781 17.601562 C 19.464844 17.601562 20 17.199219 20.398438 16.667969 L 23.734375 10.535156 L 22.265625 9.734375 L 21.332031 11.464844 L 18.933594 15.867188 L 12.667969 15.867188 L 12.535156 15.601562 L 9.867188 8.933594 L 7.066406 8.933594 L 7.066406 10.667969 L 8.800781 10.667969 L 10.933594 16.398438 L 9.734375 18.535156 C 9.601562 18.800781 9.464844 19.066406 9.464844 19.332031 C 9.464844 20.265625 10.265625 21.066406 11.199219 21.066406 L 21.734375 21.066406 L 21.734375 19.332031 L 11.734375 19.332031 C 11.601562 19.464844 11.464844 19.332031 11.464844 19.199219 Z M 12.535156 21.867188 C 11.601562 21.867188 10.933594 22.667969 10.933594 23.464844 C 10.933594 24.265625 11.734375 25.066406 12.535156 25.066406 C 13.464844 25.066406 14.132812 24.265625 14.132812 23.464844 C 14.132812 22.667969 13.332031 21.867188 12.535156 21.867188 Z M 19.734375 21.867188 C 18.800781 21.867188 18.132812 22.667969 18.132812 23.464844 C 18.132812 24.265625 18.933594 25.066406 19.734375 25.066406 C 20.667969 25.066406 21.332031 24.265625 21.332031 23.464844 C 21.332031 22.667969 20.535156 21.867188 19.734375 21.867188 Z M 16 6 L 16 10.398438 L 20.398438 10.398438 Z M 16 6 L 11.601562 10.398438 L 16 10.398438 Z M 16 10.398438 L 11.601562 10.398438 L 16 14.800781 Z M 20.398438 10.398438 L 16 10.398438 L 16 14.800781 Z M 20.398438 10.398438 "/>
<path fill-rule="evenodd" fill="rgb(20%, 40.392157%, 83.921569%)" fill-opacity="1" d="M 16 14.800781 L 20.398438 10.398438 L 16 6 L 16 1.066406 L 18.933594 1.066406 C 19.332031 1.066406 19.601562 1.332031 19.734375 1.734375 L 20.132812 4.933594 C 21.332031 5.332031 22.535156 6.132812 23.601562 6.933594 L 26.535156 5.734375 C 26.933594 5.601562 27.199219 5.734375 27.464844 6 L 30.398438 11.199219 C 30.667969 11.464844 30.667969 11.867188 30.265625 12 L 27.734375 14 C 28 15.332031 28 16.667969 27.734375 18 L 30.265625 20 C 30.535156 20.265625 30.667969 20.667969 30.398438 20.933594 L 27.464844 26.132812 C 27.332031 26.398438 26.933594 26.535156 26.535156 26.398438 L 23.601562 25.199219 C 22.535156 26 21.332031 26.667969 20.132812 27.199219 L 19.734375 30.398438 C 19.734375 30.800781 19.332031 31.066406 18.933594 31.066406 L 16 31.066406 L 16 21.199219 L 21.867188 21.199219 L 21.867188 19.464844 L 16 19.464844 L 16 17.734375 L 18.800781 17.734375 C 19.464844 17.734375 20 17.332031 20.398438 16.800781 L 23.734375 10.667969 L 22.265625 9.867188 L 21.332031 11.601562 L 18.933594 16 L 16 16 Z M 19.734375 21.867188 C 18.800781 21.867188 18.132812 22.667969 18.132812 23.464844 C 18.132812 24.265625 18.933594 25.066406 19.734375 25.066406 C 20.667969 25.066406 21.332031 24.265625 21.332031 23.464844 C 21.332031 22.667969 20.535156 21.867188 19.734375 21.867188 Z M 19.734375 21.867188 "/>
</svg>
