<?xml version="1.0" encoding="UTF-8"?>
<svg xmlns="http://www.w3.org/2000/svg" xmlns:xlink="http://www.w3.org/1999/xlink" width="32" height="32" viewBox="0 0 32 32">
<path fill-rule="evenodd" fill="rgb(40%, 61.568627%, 96.470588%)" fill-opacity="1" d="M 13.972656 14.667969 C 14.644531 14.667969 15.1875 15.210938 15.1875 15.878906 C 15.1875 16.550781 14.644531 17.09375 13.972656 17.09375 C 13.304688 17.09375 12.761719 16.550781 12.761719 15.878906 C 12.761719 15.210938 13.304688 14.667969 13.972656 14.667969 Z M 13.972656 13.601562 C 13.050781 13.59375 12.214844 14.148438 11.855469 15 C 11.5 15.851562 11.691406 16.832031 12.34375 17.488281 C 12.992188 18.140625 13.976562 18.339844 14.828125 17.988281 C 15.683594 17.636719 16.238281 16.804688 16.238281 15.878906 C 16.242188 15.277344 16.007812 14.695312 15.582031 14.269531 C 15.15625 13.839844 14.578125 13.601562 13.972656 13.601562 Z M 13.972656 13.601562 "/>
<path fill-rule="evenodd" fill="rgb(40%, 61.568627%, 96.470588%)" fill-opacity="1" d="M 6.09375 14.667969 C 6.761719 14.667969 7.308594 15.210938 7.308594 15.878906 C 7.308594 16.550781 6.761719 17.09375 6.09375 17.09375 C 5.421875 17.09375 4.878906 16.550781 4.878906 15.878906 C 4.878906 15.210938 5.421875 14.667969 6.09375 14.667969 Z M 6.09375 13.601562 C 5.171875 13.59375 4.335938 14.148438 3.976562 15 C 3.621094 15.851562 3.8125 16.832031 4.464844 17.488281 C 5.113281 18.140625 6.097656 18.339844 6.949219 17.988281 C 7.804688 17.636719 8.359375 16.804688 8.359375 15.878906 C 8.363281 15.277344 8.125 14.695312 7.699219 14.269531 C 7.273438 13.839844 6.695312 13.601562 6.09375 13.601562 Z M 6.09375 13.601562 "/>
<path fill-rule="evenodd" fill="rgb(40%, 61.568627%, 96.470588%)" fill-opacity="1" d="M 10.148438 21.746094 C 10.816406 21.746094 11.359375 22.289062 11.359375 22.960938 C 11.359375 23.628906 10.816406 24.171875 10.148438 24.171875 C 9.476562 24.171875 8.933594 23.628906 8.933594 22.960938 C 8.933594 22.289062 9.476562 21.746094 10.148438 21.746094 Z M 10.148438 20.691406 C 9.058594 20.6875 8.117188 21.453125 7.902344 22.519531 C 7.683594 23.589844 8.253906 24.660156 9.257812 25.078125 C 10.265625 25.496094 11.425781 25.144531 12.03125 24.242188 C 12.636719 23.335938 12.515625 22.128906 11.746094 21.359375 C 11.324219 20.933594 10.746094 20.695312 10.148438 20.691406 Z M 10.148438 20.691406 "/>
<path fill-rule="evenodd" fill="rgb(40%, 61.568627%, 96.470588%)" fill-opacity="1" d="M 10.148438 7.71875 C 10.8125 7.742188 11.335938 8.292969 11.320312 8.960938 C 11.304688 9.625 10.757812 10.152344 10.09375 10.144531 C 9.429688 10.140625 8.894531 9.597656 8.894531 8.933594 C 8.898438 8.605469 9.03125 8.292969 9.265625 8.066406 C 9.503906 7.835938 9.820312 7.710938 10.148438 7.71875 Z M 10.148438 6.652344 C 9.058594 6.648438 8.117188 7.414062 7.902344 8.480469 C 7.683594 9.546875 8.253906 10.617188 9.257812 11.039062 C 10.265625 11.457031 11.425781 11.105469 12.03125 10.203125 C 12.636719 9.296875 12.515625 8.089844 11.746094 7.320312 C 11.320312 6.898438 10.746094 6.664062 10.148438 6.667969 Z M 10.148438 6.652344 "/>
<path fill-rule="nonzero" fill="rgb(25.882353%, 52.156863%, 95.686275%)" fill-opacity="1" d="M 14.214844 2.667969 L 16.453125 2.667969 L 16.453125 29.332031 L 14.214844 29.332031 Z M 14.214844 2.667969 "/>
<path fill-rule="evenodd" fill="rgb(25.882353%, 52.156863%, 95.686275%)" fill-opacity="1" d="M 21.667969 6.492188 L 15.652344 6.492188 C 15.402344 6.539062 15.226562 6.773438 15.253906 7.027344 L 15.253906 10.785156 C 15.230469 11.039062 15.402344 11.265625 15.652344 11.308594 L 21.667969 11.308594 C 21.921875 11.273438 22.105469 11.042969 22.078125 10.785156 L 22.078125 7.039062 C 22.113281 6.777344 21.929688 6.535156 21.667969 6.492188 Z M 21.667969 6.492188 "/>
<path fill-rule="evenodd" fill="rgb(25.882353%, 52.156863%, 95.686275%)" fill-opacity="1" d="M 27.425781 13.546875 L 16.332031 13.546875 C 15.921875 13.546875 15.585938 13.785156 15.585938 14.066406 L 15.585938 17.828125 C 15.585938 18.121094 15.921875 18.359375 16.332031 18.359375 L 27.425781 18.359375 C 27.839844 18.359375 28.171875 18.105469 28.171875 17.828125 L 28.171875 14.066406 C 28.171875 13.773438 27.839844 13.546875 27.425781 13.546875 Z M 27.425781 13.546875 "/>
<path fill-rule="evenodd" fill="rgb(25.882353%, 52.156863%, 95.686275%)" fill-opacity="1" d="M 19.546875 20.585938 L 14.839844 20.585938 C 14.667969 20.585938 14.535156 20.828125 14.535156 21.105469 L 14.535156 24.867188 C 14.535156 25.160156 14.667969 25.386719 14.839844 25.386719 L 19.546875 25.386719 C 19.71875 25.386719 19.867188 25.148438 19.867188 24.867188 L 19.867188 21.105469 C 19.851562 20.8125 19.71875 20.585938 19.546875 20.585938 Z M 19.546875 20.585938 "/>
</svg>
