<?xml version="1.0" encoding="UTF-8"?>
<svg xmlns="http://www.w3.org/2000/svg" xmlns:xlink="http://www.w3.org/1999/xlink" width="32" height="32" viewBox="0 0 32 32">
<path fill-rule="nonzero" fill="rgb(65.098039%, 79.215686%, 99.215686%)" fill-opacity="1" d="M 26.667969 5.332031 L 10.265625 5.332031 C 9.699219 5.335938 9.183594 5.664062 8.933594 6.171875 L 4 16 L 6.667969 16 L 10.667969 8 L 25.332031 8 L 25.332031 9.332031 L 28 9.332031 L 28 6.667969 C 28 5.929688 27.402344 5.332031 26.667969 5.332031 Z M 26.667969 5.332031 "/>
<path fill-rule="nonzero" fill="rgb(33.333333%, 61.176471%, 98.823529%)" fill-opacity="1" d="M 17.332031 16 C 17.332031 18.210938 15.542969 20 13.332031 20 C 11.125 20 9.332031 18.210938 9.332031 16 C 9.332031 13.789062 11.125 12 13.332031 12 C 15.542969 12 17.332031 13.789062 17.332031 16 Z M 17.332031 16 "/>
<path fill-rule="nonzero" fill="rgb(100%, 100%, 100%)" fill-opacity="1" d="M 14.667969 16 C 14.667969 16.738281 14.070312 17.332031 13.332031 17.332031 C 12.597656 17.332031 12 16.738281 12 16 C 12 15.261719 12.597656 14.667969 13.332031 14.667969 C 14.070312 14.667969 14.667969 15.261719 14.667969 16 Z M 14.667969 16 "/>
<path fill-rule="nonzero" fill="rgb(100%, 100%, 100%)" fill-opacity="1" d="M 0 0 L 10.667969 0 L 10.667969 1.332031 L 0 1.332031 Z M 0 0 "/>
<path fill-rule="nonzero" fill="rgb(40%, 61.568627%, 96.470588%)" fill-opacity="1" d="M 24 10.667969 L 28 10.667969 C 28.738281 10.667969 29.332031 11.261719 29.332031 12 C 29.332031 12.738281 28.738281 13.332031 28 13.332031 L 24 13.332031 C 23.261719 13.332031 22.667969 12.738281 22.667969 12 C 22.667969 11.261719 23.261719 10.667969 24 10.667969 Z M 24 10.667969 "/>
<path fill-rule="nonzero" fill="rgb(40%, 61.568627%, 96.470588%)" fill-opacity="1" d="M 20 14.667969 L 28 14.667969 C 28.738281 14.667969 29.332031 15.261719 29.332031 16 C 29.332031 16.738281 28.738281 17.332031 28 17.332031 L 20 17.332031 C 19.261719 17.332031 18.667969 16.738281 18.667969 16 C 18.667969 15.261719 19.261719 14.667969 20 14.667969 Z M 20 14.667969 "/>
<path fill-rule="nonzero" fill="rgb(40%, 61.568627%, 96.470588%)" fill-opacity="1" d="M 24 18.667969 L 28 18.667969 C 28.738281 18.667969 29.332031 19.261719 29.332031 20 C 29.332031 20.738281 28.738281 21.332031 28 21.332031 L 24 21.332031 C 23.261719 21.332031 22.667969 20.738281 22.667969 20 C 22.667969 19.261719 23.261719 18.667969 24 18.667969 Z M 24 18.667969 "/>
<path fill-rule="nonzero" fill="rgb(65.098039%, 79.215686%, 99.215686%)" fill-opacity="1" d="M 25.332031 22.667969 L 25.332031 24 L 10.667969 24 L 8 18.667969 L 5.332031 18.667969 L 8.921875 25.828125 C 9.167969 26.335938 9.683594 26.664062 10.253906 26.667969 L 26.667969 26.667969 C 27.402344 26.667969 28 26.070312 28 25.332031 L 28 22.667969 Z M 25.332031 22.667969 "/>
<path fill="none" stroke-width="1" stroke-linecap="butt" stroke-linejoin="miter" stroke="rgb(14.901961%, 51.372549%, 98.431373%)" stroke-opacity="1" stroke-miterlimit="10" d="M 9.999023 12 L 2.000977 12 " transform="matrix(1.333333, 0, 0, 1.333333, 0, 0)"/>
</svg>
