<?xml version="1.0" encoding="UTF-8"?>
<svg xmlns="http://www.w3.org/2000/svg" xmlns:xlink="http://www.w3.org/1999/xlink" width="32" height="32" viewBox="0 0 32 32">
<path fill-rule="nonzero" fill="rgb(25.882353%, 52.156863%, 95.686275%)" fill-opacity="1" d="M 8.601562 24.320312 C 6.390625 24.320312 4.601562 22.527344 4.601562 20.320312 C 4.601562 18.109375 6.390625 16.320312 8.601562 16.320312 C 10.808594 16.320312 12.601562 18.109375 12.601562 20.320312 C 12.601562 22.527344 10.808594 24.320312 8.601562 24.320312 Z M 13.441406 23.785156 C 14.878906 21.695312 14.820312 18.917969 13.292969 16.890625 C 11.769531 14.859375 9.117188 14.035156 6.707031 14.835938 C 4.300781 15.636719 2.671875 17.886719 2.667969 20.425781 C 2.644531 20.722656 2.644531 21.023438 2.667969 21.320312 C 2.695312 21.519531 2.734375 21.714844 2.785156 21.90625 L 2.867188 22.1875 C 2.984375 22.550781 3.136719 22.902344 3.320312 23.238281 C 3.589844 23.730469 3.929688 24.183594 4.332031 24.574219 L 4.535156 24.773438 L 4.972656 25.132812 C 5.277344 25.363281 5.601562 25.558594 5.945312 25.71875 C 7.882812 26.714844 10.207031 26.566406 12 25.332031 L 15.90625 29.238281 C 15.988281 29.324219 16.101562 29.371094 16.21875 29.371094 C 16.335938 29.371094 16.449219 29.324219 16.535156 29.238281 L 17.414062 28.375 C 17.496094 28.289062 17.542969 28.179688 17.542969 28.058594 C 17.542969 27.941406 17.496094 27.828125 17.414062 27.746094 Z M 13.441406 23.785156 "/>
<path fill-rule="nonzero" fill="rgb(68.235294%, 79.607843%, 98.039216%)" fill-opacity="1" d="M 15.734375 22.105469 C 15.917969 21.453125 16.007812 20.773438 16 20.09375 C 15.917969 16.035156 12.578125 12.808594 8.519531 12.867188 C 7.644531 12.878906 6.78125 13.035156 5.960938 13.332031 L 5.960938 7.773438 C 5.960938 7.316406 6.332031 6.945312 6.785156 6.945312 L 28.375 6.945312 C 28.832031 6.945312 29.207031 7.316406 29.214844 7.773438 L 29.214844 21.332031 C 29.214844 21.796875 28.835938 22.171875 28.375 22.171875 Z M 15.734375 22.105469 "/>
<path fill-rule="evenodd" fill="rgb(40%, 61.568627%, 96.470588%)" fill-opacity="1" d="M 20.773438 6.945312 L 20.773438 4.972656 L 14.851562 4.972656 L 14.851562 6.945312 L 12.867188 6.945312 L 12.867188 3.828125 C 12.875 3.367188 13.246094 3 13.707031 3 L 21.921875 3 C 22.375 3 22.746094 3.371094 22.746094 3.828125 L 22.746094 6.945312 Z M 20.773438 6.945312 "/>
<path fill-rule="evenodd" fill="rgb(25.882353%, 52.156863%, 95.686275%)" fill-opacity="1" d="M 20.773438 6.945312 L 22.746094 6.320312 L 22.746094 6.945312 Z M 20.773438 6.945312 "/>
<path fill-rule="evenodd" fill="rgb(25.882353%, 52.156863%, 95.686275%)" fill-opacity="1" d="M 12.851562 6.945312 L 14.839844 6.226562 L 14.839844 6.945312 Z M 12.851562 6.945312 "/>
</svg>
