<?xml version="1.0" encoding="UTF-8"?>
<svg xmlns="http://www.w3.org/2000/svg" xmlns:xlink="http://www.w3.org/1999/xlink" width="32" height="32" viewBox="0 0 32 32">
<path fill-rule="nonzero" fill="rgb(25.882353%, 52.156863%, 95.686275%)" fill-opacity="1" d="M 21.851562 18.667969 L 21.851562 12.625 L 16.519531 9.574219 L 16.519531 5.039062 L 15.375 5.039062 L 15.375 9.574219 L 10.039062 12.625 L 10.039062 18.667969 L 6.039062 21 L 6.613281 21.988281 L 10.613281 19.652344 L 10.667969 19.652344 L 16 22.691406 L 21.332031 19.652344 L 25.238281 21.90625 L 25.8125 20.921875 Z M 18.746094 19.839844 C 18.371094 19.832031 18.027344 19.636719 17.828125 19.320312 L 12.171875 19.320312 L 12.171875 18.1875 L 17.828125 18.1875 C 18.027344 17.867188 18.371094 17.671875 18.746094 17.667969 C 19.300781 17.726562 19.71875 18.195312 19.71875 18.753906 C 19.71875 19.308594 19.300781 19.777344 18.746094 19.839844 Z M 19.828125 16.519531 L 16.933594 16.519531 C 16.738281 16.851562 16.382812 17.054688 16 17.054688 C 15.617188 17.054688 15.261719 16.851562 15.066406 16.519531 L 12.171875 16.519531 L 12.171875 15.375 L 15.09375 15.375 C 15.292969 15.066406 15.632812 14.878906 16 14.878906 C 16.367188 14.878906 16.707031 15.066406 16.90625 15.375 L 19.828125 15.375 Z M 19.828125 13.707031 L 14.171875 13.707031 C 13.972656 14.023438 13.628906 14.21875 13.253906 14.226562 C 12.699219 14.164062 12.28125 13.695312 12.28125 13.140625 C 12.28125 12.582031 12.699219 12.113281 13.253906 12.054688 C 13.628906 12.058594 13.972656 12.253906 14.171875 12.574219 L 19.828125 12.574219 Z M 19.828125 13.707031 "/>
<path fill-rule="nonzero" fill="rgb(40%, 61.568627%, 96.470588%)" fill-opacity="1" d="M 27.414062 10.078125 L 27.414062 21.90625 C 27.414062 22.324219 27.191406 22.714844 26.828125 22.921875 L 16.585938 28.839844 C 16.410156 28.945312 16.207031 29 16 29 L 16 26.878906 L 25.425781 21.441406 L 25.425781 10.558594 L 16 5.121094 L 16 3 C 16.203125 3.003906 16.40625 3.054688 16.585938 3.148438 L 26.828125 9.066406 C 27.1875 9.277344 27.410156 9.664062 27.414062 10.078125 Z M 27.414062 10.078125 "/>
<path fill-rule="nonzero" fill="rgb(68.235294%, 79.607843%, 98.039216%)" fill-opacity="1" d="M 4.585938 10.078125 L 4.585938 21.90625 C 4.585938 22.324219 4.808594 22.714844 5.171875 22.921875 L 15.414062 28.839844 C 15.589844 28.945312 15.792969 29 16 29 L 16 26.878906 L 6.574219 21.441406 L 6.574219 10.558594 L 16 5.121094 L 16 3 C 15.796875 3.003906 15.59375 3.054688 15.414062 3.148438 L 5.171875 9.066406 C 4.8125 9.277344 4.589844 9.664062 4.585938 10.078125 Z M 4.585938 10.078125 "/>
</svg>
