<?xml version="1.0" encoding="UTF-8"?>
<svg xmlns="http://www.w3.org/2000/svg" xmlns:xlink="http://www.w3.org/1999/xlink" width="32" height="32" viewBox="0 0 32 32">
<path fill-rule="evenodd" fill="rgb(52.156863%, 64.313725%, 90.196078%)" fill-opacity="1" d="M 1.066406 7.867188 L 4.933594 1.066406 L 12.667969 1.066406 L 16.535156 7.867188 L 12.667969 14.535156 L 4.933594 14.535156 Z M 1.066406 7.867188 "/>
<path fill-rule="evenodd" fill="rgb(36.078431%, 52.156863%, 87.058824%)" fill-opacity="1" d="M 15.199219 10.265625 L 11.332031 3.464844 L 12.667969 0.933594 L 16.535156 7.867188 Z M 15.199219 10.265625 "/>
<path fill-rule="evenodd" fill="rgb(20%, 40.392157%, 83.921569%)" fill-opacity="1" d="M 3.601562 12.398438 L 11.332031 12.398438 L 14 7.867188 L 15.199219 10.265625 L 12.667969 14.535156 L 4.933594 14.667969 Z M 3.601562 12.398438 "/>
<path fill-rule="evenodd" fill="rgb(52.156863%, 64.313725%, 90.196078%)" fill-opacity="1" d="M 14.933594 15.867188 L 18.933594 9.066406 L 26.667969 9.066406 L 30.535156 15.867188 L 26.667969 22.535156 L 18.933594 22.535156 Z M 14.933594 15.867188 "/>
<path fill-rule="evenodd" fill="rgb(36.078431%, 52.156863%, 87.058824%)" fill-opacity="1" d="M 29.199219 18.265625 L 25.332031 11.464844 L 26.667969 8.933594 L 30.535156 15.867188 Z M 29.199219 18.265625 "/>
<path fill-rule="evenodd" fill="rgb(20%, 40.392157%, 83.921569%)" fill-opacity="1" d="M 17.601562 20.398438 L 25.332031 20.398438 L 28 15.867188 L 29.199219 18.265625 L 26.667969 22.535156 L 18.933594 22.667969 Z M 17.601562 20.398438 "/>
<path fill-rule="evenodd" fill="rgb(52.156863%, 64.313725%, 90.196078%)" fill-opacity="1" d="M 1.066406 23.867188 L 4.933594 17.066406 L 12.667969 17.066406 L 16.535156 23.867188 L 12.667969 30.535156 L 4.933594 30.535156 Z M 1.066406 23.867188 "/>
<path fill-rule="evenodd" fill="rgb(36.078431%, 52.156863%, 87.058824%)" fill-opacity="1" d="M 15.199219 26.265625 L 11.332031 19.464844 L 12.667969 16.933594 L 16.535156 23.867188 Z M 15.199219 26.265625 "/>
<path fill-rule="evenodd" fill="rgb(20%, 40.392157%, 83.921569%)" fill-opacity="1" d="M 3.601562 28.398438 L 11.332031 28.398438 L 14 23.867188 L 15.199219 26.265625 L 12.667969 30.535156 L 4.933594 30.667969 Z M 3.601562 28.398438 "/>
</svg>
