<?xml version="1.0" encoding="UTF-8"?>
<svg xmlns="http://www.w3.org/2000/svg" xmlns:xlink="http://www.w3.org/1999/xlink" width="32" height="32" viewBox="0 0 32 32">
<path fill-rule="nonzero" fill="rgb(25.882353%, 52.156863%, 95.686275%)" fill-opacity="1" d="M 5.332031 24 L 5.332031 8 L 16 8 L 16 5.332031 L 4 5.332031 C 3.261719 5.332031 2.667969 5.929688 2.667969 6.667969 L 2.667969 25.332031 C 2.667969 26.070312 3.261719 26.667969 4 26.667969 L 16 26.667969 L 16 24 Z M 5.332031 24 "/>
<path fill-rule="nonzero" fill="rgb(40%, 61.568627%, 96.470588%)" fill-opacity="1" d="M 28 5.332031 L 16 5.332031 L 16 8 L 26.667969 8 L 26.667969 24 L 16 24 L 16 26.667969 L 28 26.667969 C 28.738281 26.667969 29.332031 26.070312 29.332031 25.332031 L 29.332031 6.667969 C 29.332031 5.929688 28.738281 5.332031 28 5.332031 "/>
<path fill-rule="nonzero" fill="rgb(40%, 61.568627%, 96.470588%)" fill-opacity="1" d="M 12 16 L 12 13.332031 L 16 12 L 16 9.332031 L 9.332031 12 L 9.332031 16 C 9.332031 19.171875 13.332031 22.667969 16 22.667969 L 16 20 C 14.8125 20 12 18.160156 12 16 "/>
<path fill-rule="nonzero" fill="rgb(68.235294%, 79.607843%, 98.039216%)" fill-opacity="1" d="M 20 16 C 20 18.160156 17.199219 20 16 20 L 16 22.667969 C 18.667969 22.667969 22.667969 19.171875 22.667969 16 L 22.667969 12 L 16 9.332031 L 16 12 L 20 13.332031 L 20 16 "/>
<path fill-rule="nonzero" fill="rgb(25.882353%, 52.156863%, 95.686275%)" fill-opacity="1" d="M 16.785156 17.066406 C 16.34375 17.492188 15.644531 17.492188 15.199219 17.066406 L 13.867188 15.441406 L 14.667969 14.667969 L 16 16.121094 L 20 12.121094 L 20.800781 12.90625 Z M 16.785156 17.066406 "/>
</svg>
