<?xml version="1.0" encoding="UTF-8"?>
<svg xmlns="http://www.w3.org/2000/svg" xmlns:xlink="http://www.w3.org/1999/xlink" width="32" height="32" viewBox="0 0 32 32">
<path fill-rule="nonzero" fill="rgb(40%, 61.568627%, 96.470588%)" fill-opacity="1" d="M 2.679688 9.320312 L 11.535156 9.320312 L 11.535156 11.546875 L 2.679688 11.546875 Z M 2.679688 9.320312 "/>
<path fill-rule="nonzero" fill="rgb(40%, 61.568627%, 96.470588%)" fill-opacity="1" d="M 14.894531 20.425781 L 2.667969 20.425781 L 2.667969 22.652344 L 14.894531 22.652344 Z M 14.894531 20.425781 "/>
<path fill-rule="nonzero" fill="rgb(40%, 61.568627%, 96.470588%)" fill-opacity="1" d="M 6.011719 14.878906 L 2.667969 14.878906 L 2.667969 17.09375 L 16 17.09375 L 13.773438 14.878906 Z M 6.011719 14.878906 "/>
<path fill-rule="nonzero" fill="rgb(25.882353%, 52.156863%, 95.686275%)" fill-opacity="1" d="M 16 12.09375 C 16.039062 11.816406 16.28125 11.609375 16.558594 11.613281 C 16.835938 11.609375 17.074219 11.816406 17.105469 12.09375 L 17.105469 24.332031 C 17.117188 25.1875 17.519531 25.992188 18.199219 26.511719 C 18.878906 27.035156 19.757812 27.214844 20.585938 27 C 21.835938 26.640625 22.6875 25.488281 22.667969 24.1875 L 22.667969 7.667969 C 22.636719 7.453125 22.734375 7.242188 22.921875 7.132812 C 23.101562 7.015625 23.335938 7.015625 23.519531 7.132812 C 23.703125 7.242188 23.804688 7.453125 23.773438 7.667969 L 23.773438 19.878906 C 23.773438 20.738281 24.171875 21.546875 24.851562 22.066406 C 25.527344 22.609375 26.421875 22.792969 27.253906 22.558594 C 28.507812 22.199219 29.359375 21.039062 29.332031 19.734375 L 29.332031 16 L 27.105469 16 L 27.105469 19.894531 C 27.136719 20.105469 27.039062 20.316406 26.851562 20.425781 C 26.671875 20.546875 26.433594 20.546875 26.253906 20.425781 C 26.070312 20.316406 25.96875 20.105469 26 19.894531 L 26 7.667969 C 25.988281 6.8125 25.585938 6.007812 24.910156 5.488281 C 24.230469 4.964844 23.347656 4.785156 22.519531 5 C 21.261719 5.363281 20.40625 6.53125 20.441406 7.839844 L 20.441406 24.332031 C 20.46875 24.546875 20.371094 24.757812 20.1875 24.867188 C 20.003906 24.984375 19.769531 24.984375 19.585938 24.867188 C 19.402344 24.757812 19.300781 24.546875 19.332031 24.332031 L 19.332031 12.105469 C 19.339844 10.671875 18.246094 9.46875 16.8125 9.34375 C 15.382812 9.21875 14.097656 10.210938 13.851562 11.625 C 13.8125 11.828125 13.789062 12.035156 13.785156 12.238281 L 13.785156 14.90625 L 16 17.09375 Z M 16 12.09375 "/>
</svg>
