<?xml version="1.0" encoding="UTF-8"?>
<svg xmlns="http://www.w3.org/2000/svg" xmlns:xlink="http://www.w3.org/1999/xlink" width="32" height="32" viewBox="0 0 32 32">
<defs>
<clipPath id="clip-0">
<path clip-rule="nonzero" d="M 24 14 L 30 14 L 30 18 L 24 18 Z M 24 14 "/>
</clipPath>
<clipPath id="clip-1">
<path clip-rule="evenodd" d="M 24 14.667969 L 24 17.332031 L 28 17.332031 C 28.738281 17.332031 29.332031 16.738281 29.332031 16 C 29.332031 15.261719 28.738281 14.667969 28 14.667969 Z M 24 14.667969 "/>
</clipPath>
<clipPath id="clip-2">
<path clip-rule="nonzero" d="M 2 9 L 24 9 L 24 23 L 2 23 Z M 2 9 "/>
</clipPath>
<clipPath id="clip-3">
<path clip-rule="evenodd" d="M 2.667969 10.667969 L 2.667969 12 L 15.28125 12 C 15.730469 11.996094 16.152344 12.222656 16.398438 12.601562 L 18.171875 15.265625 C 18.472656 15.714844 18.472656 16.296875 18.171875 16.746094 L 16.398438 19.414062 C 16.152344 19.789062 15.730469 20.015625 15.28125 20.011719 L 2.667969 20.011719 L 2.667969 21.347656 C 2.667969 22.082031 3.261719 22.679688 4 22.679688 L 16.613281 22.679688 C 17.0625 22.683594 17.484375 22.457031 17.734375 22.078125 L 20 18.667969 L 22.667969 18.667969 C 23.402344 18.667969 24 18.070312 24 17.332031 L 24 14.667969 C 24 13.929688 23.402344 13.332031 22.667969 13.332031 L 20 13.332031 L 17.734375 9.933594 C 17.484375 9.558594 17.0625 9.332031 16.613281 9.332031 L 4 9.332031 C 3.261719 9.332031 2.667969 9.929688 2.667969 10.667969 Z M 2.667969 10.667969 "/>
</clipPath>
<clipPath id="clip-4">
<path clip-rule="nonzero" d="M 2 17 L 30 17 L 30 27 L 2 27 Z M 2 17 "/>
</clipPath>
<clipPath id="clip-5">
<path clip-rule="evenodd" d="M 20 24 L 15.386719 24 C 14.9375 24.003906 14.515625 23.777344 14.265625 23.398438 L 10.667969 17.933594 C 10.410156 17.542969 9.972656 17.316406 9.507812 17.332031 L 2.667969 17.332031 L 2.667969 20 L 5.332031 20 L 5.332031 18.667969 L 7.28125 18.667969 C 7.730469 18.664062 8.152344 18.890625 8.398438 19.265625 L 12.933594 26.066406 C 13.179688 26.441406 13.601562 26.667969 14.054688 26.667969 L 21.332031 26.667969 C 22.070312 26.667969 22.667969 26.070312 22.667969 25.332031 L 22.667969 22.667969 L 28 22.667969 C 28.738281 22.667969 29.332031 22.070312 29.332031 21.332031 C 29.332031 20.597656 28.738281 20 28 20 L 21.332031 20 C 20.597656 20 20 20.597656 20 21.332031 Z M 20 24 "/>
</clipPath>
<clipPath id="clip-6">
<path clip-rule="nonzero" d="M 2 5 L 30 5 L 30 15 L 2 15 Z M 2 5 "/>
</clipPath>
<clipPath id="clip-7">
<path clip-rule="evenodd" d="M 22.667969 9.332031 L 22.667969 6.667969 C 22.667969 5.929688 22.070312 5.332031 21.332031 5.332031 L 14.054688 5.332031 C 13.601562 5.332031 13.179688 5.558594 12.933594 5.933594 L 8.398438 12.734375 C 8.152344 13.109375 7.730469 13.335938 7.28125 13.332031 L 5.332031 13.332031 L 5.332031 12 L 2.667969 12 L 2.667969 14.667969 L 9.507812 14.667969 C 9.972656 14.683594 10.410156 14.457031 10.667969 14.066406 L 14.320312 8.601562 C 14.558594 8.238281 14.953125 8.015625 15.386719 8 L 20 8 L 20 10.667969 C 20 11.402344 20.597656 12 21.332031 12 L 28 12 C 28.738281 12 29.332031 11.402344 29.332031 10.667969 C 29.332031 9.929688 28.738281 9.332031 28 9.332031 Z M 22.667969 9.332031 "/>
</clipPath>
<clipPath id="clip-8">
<path clip-rule="nonzero" d="M 12 14 L 16 14 L 16 18 L 12 18 Z M 12 14 "/>
</clipPath>
<clipPath id="clip-9">
<path clip-rule="nonzero" d="M 15.667969 16 C 15.667969 16.921875 14.921875 17.667969 14 17.667969 C 13.078125 17.667969 12.332031 16.921875 12.332031 16 C 12.332031 15.078125 13.078125 14.332031 14 14.332031 C 14.921875 14.332031 15.667969 15.078125 15.667969 16 Z M 15.667969 16 "/>
</clipPath>
</defs>
<path fill-rule="evenodd" fill="rgb(14.901961%, 51.372549%, 98.431373%)" fill-opacity="1" d="M 24 14.667969 L 24 17.332031 L 28 17.332031 C 28.738281 17.332031 29.332031 16.738281 29.332031 16 C 29.332031 15.261719 28.738281 14.667969 28 14.667969 Z M 24 14.667969 "/>
<g clip-path="url(#clip-0)">
<g clip-path="url(#clip-1)">
<rect x="-3.2" y="-3.2" width="38.4" height="38.4" fill="rgb(14.901961%, 51.372549%, 98.431373%)" fill-opacity="1"/>
<path fill-rule="nonzero" fill="rgb(14.901961%, 51.372549%, 98.431373%)" fill-opacity="1" d="M 18.667969 8 L 36 8 L 36 24 L 18.667969 24 Z M 18.667969 8 "/>
</g>
</g>
<path fill-rule="evenodd" fill="rgb(65.098039%, 79.215686%, 99.215686%)" fill-opacity="1" d="M 2.667969 10.667969 L 2.667969 12 L 15.28125 12 C 15.730469 11.996094 16.152344 12.222656 16.398438 12.601562 L 18.171875 15.265625 C 18.472656 15.714844 18.472656 16.296875 18.171875 16.746094 L 16.398438 19.414062 C 16.152344 19.789062 15.730469 20.015625 15.28125 20.011719 L 2.667969 20.011719 L 2.667969 21.347656 C 2.667969 22.082031 3.261719 22.679688 4 22.679688 L 16.613281 22.679688 C 17.0625 22.683594 17.484375 22.457031 17.734375 22.078125 L 20 18.667969 L 22.667969 18.667969 C 23.402344 18.667969 24 18.070312 24 17.332031 L 24 14.667969 C 24 13.929688 23.402344 13.332031 22.667969 13.332031 L 20 13.332031 L 17.734375 9.933594 C 17.484375 9.558594 17.0625 9.332031 16.613281 9.332031 L 4 9.332031 C 3.261719 9.332031 2.667969 9.929688 2.667969 10.667969 Z M 2.667969 10.667969 "/>
<g clip-path="url(#clip-2)">
<g clip-path="url(#clip-3)">
<rect x="-3.2" y="-3.2" width="38.4" height="38.4" fill="rgb(65.098039%, 79.215686%, 99.215686%)" fill-opacity="1"/>
<path fill-rule="nonzero" fill="rgb(65.098039%, 79.215686%, 99.215686%)" fill-opacity="1" d="M -4 2.667969 L 32 2.667969 L 32 29.332031 L -4 29.332031 Z M -4 2.667969 "/>
</g>
</g>
<path fill-rule="evenodd" fill="rgb(33.333333%, 61.176471%, 98.823529%)" fill-opacity="1" d="M 20 24 L 15.386719 24 C 14.9375 24.003906 14.515625 23.777344 14.265625 23.398438 L 10.667969 17.933594 C 10.410156 17.542969 9.972656 17.316406 9.507812 17.332031 L 2.667969 17.332031 L 2.667969 20 L 5.332031 20 L 5.332031 18.667969 L 7.28125 18.667969 C 7.730469 18.664062 8.152344 18.890625 8.398438 19.265625 L 12.933594 26.066406 C 13.179688 26.441406 13.601562 26.667969 14.054688 26.667969 L 21.332031 26.667969 C 22.070312 26.667969 22.667969 26.070312 22.667969 25.332031 L 22.667969 22.667969 L 28 22.667969 C 28.738281 22.667969 29.332031 22.070312 29.332031 21.332031 C 29.332031 20.597656 28.738281 20 28 20 L 21.332031 20 C 20.597656 20 20 20.597656 20 21.332031 Z M 20 24 "/>
<g clip-path="url(#clip-4)">
<g clip-path="url(#clip-5)">
<rect x="-3.2" y="-3.2" width="38.4" height="38.4" fill="rgb(33.333333%, 61.176471%, 98.823529%)" fill-opacity="1"/>
<path fill-rule="nonzero" fill="rgb(33.333333%, 61.176471%, 98.823529%)" fill-opacity="1" d="M -4 10.667969 L 36 10.667969 L 36 33.332031 L -4 33.332031 Z M -4 10.667969 "/>
</g>
</g>
<path fill-rule="evenodd" fill="rgb(33.333333%, 61.176471%, 98.823529%)" fill-opacity="1" d="M 22.667969 9.332031 L 22.667969 6.667969 C 22.667969 5.929688 22.070312 5.332031 21.332031 5.332031 L 14.054688 5.332031 C 13.601562 5.332031 13.179688 5.558594 12.933594 5.933594 L 8.398438 12.734375 C 8.152344 13.109375 7.730469 13.335938 7.28125 13.332031 L 5.332031 13.332031 L 5.332031 12 L 2.667969 12 L 2.667969 14.667969 L 9.507812 14.667969 C 9.972656 14.683594 10.410156 14.457031 10.667969 14.066406 L 14.320312 8.601562 C 14.558594 8.238281 14.953125 8.015625 15.386719 8 L 20 8 L 20 10.667969 C 20 11.402344 20.597656 12 21.332031 12 L 28 12 C 28.738281 12 29.332031 11.402344 29.332031 10.667969 C 29.332031 9.929688 28.738281 9.332031 28 9.332031 Z M 22.667969 9.332031 "/>
<g clip-path="url(#clip-6)">
<g clip-path="url(#clip-7)">
<rect x="-3.2" y="-3.2" width="38.4" height="38.4" fill="rgb(33.333333%, 61.176471%, 98.823529%)" fill-opacity="1"/>
<path fill-rule="nonzero" fill="rgb(33.333333%, 61.176471%, 98.823529%)" fill-opacity="1" d="M -4 -1.332031 L 36 -1.332031 L 36 21.332031 L -4 21.332031 Z M -4 -1.332031 "/>
</g>
</g>
<path fill-rule="nonzero" fill="rgb(14.901961%, 51.372549%, 98.431373%)" fill-opacity="1" d="M 15.667969 16 C 15.667969 16.921875 14.921875 17.667969 14 17.667969 C 13.078125 17.667969 12.332031 16.921875 12.332031 16 C 12.332031 15.078125 13.078125 14.332031 14 14.332031 C 14.921875 14.332031 15.667969 15.078125 15.667969 16 Z M 15.667969 16 "/>
<g clip-path="url(#clip-8)">
<g clip-path="url(#clip-9)">
<rect x="-3.2" y="-3.2" width="38.4" height="38.4" fill="rgb(14.901961%, 51.372549%, 98.431373%)" fill-opacity="1"/>
<path fill-rule="nonzero" fill="rgb(14.901961%, 51.372549%, 98.431373%)" fill-opacity="1" d="M 5.667969 7.667969 L 22.332031 7.667969 L 22.332031 24.332031 L 5.667969 24.332031 Z M 5.667969 7.667969 "/>
</g>
</g>
<path fill-rule="nonzero" fill="rgb(14.901961%, 51.372549%, 98.431373%)" fill-opacity="1" d="M 3.960938 24 L 10.066406 24 C 10.78125 24 11.359375 24.578125 11.359375 25.292969 L 11.359375 25.375 C 11.359375 26.085938 10.78125 26.667969 10.066406 26.667969 L 3.960938 26.667969 C 3.246094 26.667969 2.667969 26.085938 2.667969 25.375 L 2.667969 25.292969 C 2.667969 24.578125 3.246094 24 3.960938 24 Z M 3.960938 24 "/>
<path fill-rule="nonzero" fill="rgb(14.901961%, 51.372549%, 98.431373%)" fill-opacity="1" d="M 3.960938 5.332031 L 10.066406 5.332031 C 10.78125 5.332031 11.359375 5.914062 11.359375 6.625 L 11.359375 6.707031 C 11.359375 7.421875 10.78125 8 10.066406 8 L 3.960938 8 C 3.246094 8 2.667969 7.421875 2.667969 6.707031 L 2.667969 6.625 C 2.667969 5.914062 3.246094 5.332031 3.960938 5.332031 Z M 3.960938 5.332031 "/>
</svg>
