<?xml version="1.0" encoding="UTF-8"?>
<svg xmlns="http://www.w3.org/2000/svg" xmlns:xlink="http://www.w3.org/1999/xlink" width="32" height="32" viewBox="0 0 32 32">
<path fill-rule="evenodd" fill="rgb(25.882353%, 52.156863%, 95.686275%)" fill-opacity="1" d="M 19.917969 22.742188 L 11.070312 22.742188 L 9.960938 24.660156 L 11.070312 26.582031 L 22.132812 26.582031 L 27.667969 17 L 25.449219 13.160156 Z M 19.917969 22.742188 "/>
<path fill-rule="evenodd" fill="rgb(25.882353%, 52.156863%, 95.686275%)" fill-opacity="1" d="M 9.867188 5.332031 L 4.332031 14.914062 L 6.550781 18.757812 L 12.082031 9.175781 L 20.929688 9.175781 L 22.039062 7.253906 L 20.929688 5.332031 Z M 9.867188 5.332031 "/>
<path fill-rule="evenodd" fill="rgb(25.882353%, 52.156863%, 95.686275%)" fill-opacity="1" d="M 13.027344 14.074219 L 18.972656 14.074219 L 18.972656 12.476562 L 13.027344 12.476562 Z M 13.027344 14.074219 "/>
<path fill-rule="evenodd" fill="rgb(25.882353%, 52.156863%, 95.686275%)" fill-opacity="1" d="M 13.027344 17.023438 L 18.972656 17.023438 L 18.972656 15.425781 L 13.027344 15.425781 Z M 13.027344 17.023438 "/>
<path fill-rule="evenodd" fill="rgb(25.882353%, 52.156863%, 95.686275%)" fill-opacity="1" d="M 13.027344 19.996094 L 18.972656 19.996094 L 18.972656 18.398438 L 13.027344 18.398438 Z M 13.027344 19.996094 "/>
</svg>
