<?xml version="1.0" encoding="UTF-8"?>
<svg xmlns="http://www.w3.org/2000/svg" xmlns:xlink="http://www.w3.org/1999/xlink" width="32" height="32" viewBox="0 0 32 32">
<path fill-rule="nonzero" fill="rgb(25.882353%, 52.156863%, 95.686275%)" fill-opacity="1" d="M 12 20 C 11.589844 16.964844 9.539062 14.398438 6.667969 13.332031 L 6.667969 10.667969 C 10.992188 11.847656 14.160156 15.546875 14.667969 20 Z M 12 20 "/>
<path fill-rule="nonzero" fill="rgb(25.882353%, 52.156863%, 95.686275%)" fill-opacity="1" d="M 6.667969 9.332031 L 6.667969 14.667969 L 2.667969 12 Z M 14.667969 20.519531 L 14.667969 24 L 12 24 L 12 20.507812 "/>
<path fill-rule="nonzero" fill="rgb(40%, 61.568627%, 96.470588%)" fill-opacity="1" d="M 12 6.667969 L 10.667969 6.667969 L 13.332031 2.667969 L 16 6.667969 L 14.667969 6.667969 L 14.667969 24 L 12 24 Z M 12 6.667969 "/>
<path fill-rule="nonzero" fill="rgb(68.235294%, 79.607843%, 98.039216%)" fill-opacity="1" d="M 25.332031 22.667969 L 25.332031 17.332031 L 29.332031 20 Z M 17.332031 11.492188 L 17.332031 8 L 20 8 L 20 11.492188 "/>
<path fill-rule="nonzero" fill="rgb(40%, 61.568627%, 96.470588%)" fill-opacity="1" d="M 20 25.332031 L 21.332031 25.332031 L 18.667969 29.332031 L 16 25.332031 L 17.332031 25.332031 L 17.332031 8 L 20 8 Z M 20 25.332031 "/>
<path fill-rule="nonzero" fill="rgb(68.235294%, 79.607843%, 98.039216%)" fill-opacity="1" d="M 17.332031 8 L 20 8 L 20 11.238281 C 20.097656 14.570312 22.207031 17.511719 25.332031 18.667969 L 25.332031 21.332031 C 20.742188 20.082031 17.5 15.984375 17.332031 11.226562 "/>
</svg>
