<?xml version="1.0" encoding="UTF-8"?>
<svg xmlns="http://www.w3.org/2000/svg" xmlns:xlink="http://www.w3.org/1999/xlink" width="32" height="32" viewBox="0 0 32 32">
<path fill-rule="nonzero" fill="rgb(82.352941%, 89.019608%, 98.823529%)" fill-opacity="1" d="M 8.769531 1.777344 C 7.347656 1.777344 6.28125 2.84375 6.28125 4.265625 C 6.28125 4.742188 6.402344 5.214844 6.757812 5.691406 L 7.824219 4.621094 C 7.824219 4.503906 7.824219 4.386719 7.824219 4.265625 C 7.824219 3.675781 8.296875 3.199219 8.890625 3.199219 C 9.484375 3.199219 9.957031 3.675781 9.957031 4.265625 C 9.957031 4.859375 9.484375 5.335938 8.890625 5.335938 C 8.769531 5.335938 8.652344 5.335938 8.535156 5.335938 L 7.46875 6.28125 C 8.652344 6.992188 10.195312 6.757812 10.90625 5.570312 C 11.617188 4.386719 11.378906 2.84375 10.195312 2.132812 C 9.839844 1.898438 9.363281 1.777344 8.769531 1.777344 Z M 8.769531 1.777344 "/>
<path fill-rule="nonzero" fill="rgb(36.862745%, 59.215686%, 96.470588%)" fill-opacity="1" d="M 7.824219 9.007812 C 7.824219 8.179688 7.585938 7.347656 7.113281 6.636719 L 5.691406 8.058594 C 5.808594 8.414062 5.925781 8.652344 5.925781 9.007812 C 5.925781 9.601562 5.691406 10.074219 5.335938 10.429688 L 6.046875 12.328125 C 7.230469 11.617188 7.824219 10.3125 7.824219 9.007812 Z M 7.824219 9.007812 "/>
<path fill-rule="nonzero" fill="rgb(36.862745%, 59.215686%, 96.470588%)" fill-opacity="1" d="M 4.03125 11.023438 C 2.964844 11.023438 2.015625 10.195312 2.015625 9.128906 C 2.015625 8.058594 2.84375 7.113281 3.910156 7.113281 C 4.265625 7.113281 4.742188 7.230469 5.097656 7.46875 L 6.519531 6.164062 C 5.691406 5.453125 4.859375 5.097656 3.910156 5.097656 C 1.777344 5.097656 0 6.875 0 9.007812 C 0 11.140625 1.660156 12.921875 3.910156 12.921875 C 4.148438 12.921875 4.503906 12.921875 4.742188 12.800781 Z M 4.03125 11.023438 "/>
<path fill-rule="nonzero" fill="rgb(25.882353%, 52.156863%, 95.686275%)" fill-opacity="1" d="M 8.890625 12.566406 C 8.058594 12.566406 7.230469 12.683594 6.402344 12.921875 L 7.46875 15.527344 C 7.941406 15.527344 8.414062 15.410156 8.890625 15.410156 C 12.207031 15.410156 14.816406 18.136719 14.816406 21.335938 C 14.816406 24.65625 12.089844 27.261719 8.890625 27.261719 C 5.570312 27.261719 2.964844 24.535156 2.964844 21.335938 C 2.964844 19.082031 4.148438 17.070312 6.164062 16.121094 L 5.097656 13.511719 C 0.710938 15.644531 -1.066406 20.980469 1.066406 25.246094 C 3.199219 29.632812 8.535156 31.410156 12.800781 29.277344 C 17.1875 27.144531 18.964844 21.808594 16.832031 17.542969 C 15.289062 14.578125 12.207031 12.566406 8.890625 12.566406 Z M 8.890625 12.566406 "/>
</svg>
