<?xml version="1.0" encoding="UTF-8"?>
<svg xmlns="http://www.w3.org/2000/svg" xmlns:xlink="http://www.w3.org/1999/xlink" width="32" height="32" viewBox="0 0 32 32">
<path fill-rule="evenodd" fill="rgb(36.078431%, 52.156863%, 87.058824%)" fill-opacity="1" d="M 16 16 C 19.867188 16 22.933594 12.933594 22.933594 9.066406 C 22.933594 5.199219 19.867188 2.132812 16 2.132812 C 12.132812 2.132812 9.066406 5.199219 9.066406 9.066406 C 9.066406 12.933594 12.132812 16 16 16 Z M 16 16 "/>
<path fill-rule="evenodd" fill="rgb(36.078431%, 52.156863%, 87.058824%)" fill-opacity="1" d="M 16 19.601562 C 11.332031 19.601562 2 21.867188 2 26.535156 L 2 30 L 30 30 L 30 26.535156 C 30 21.867188 20.667969 19.601562 16 19.601562 Z M 16 19.601562 "/>
<path fill-rule="evenodd" fill="rgb(20%, 40.392157%, 83.921569%)" fill-opacity="1" d="M 16 16 C 19.867188 16 22.933594 12.933594 22.933594 9.066406 C 22.933594 5.199219 19.867188 2.132812 16 2.132812 Z M 16 16 "/>
<path fill-rule="evenodd" fill="rgb(20%, 40.392157%, 83.921569%)" fill-opacity="1" d="M 16 19.601562 L 16 30 L 30 30 L 30 26.535156 C 30 21.867188 20.667969 19.601562 16 19.601562 Z M 16 19.601562 "/>
</svg>
