<?xml version="1.0" encoding="UTF-8"?>
<svg xmlns="http://www.w3.org/2000/svg" xmlns:xlink="http://www.w3.org/1999/xlink" width="32" height="32" viewBox="0 0 32 32">
<path fill-rule="nonzero" fill="rgb(68.235294%, 79.607843%, 98.039216%)" fill-opacity="1" d="M 16.867188 2.871094 L 25.203125 7.753906 C 25.769531 8.0625 26.125 8.652344 26.132812 9.292969 L 26.132812 20.003906 C 26.121094 20.644531 25.769531 21.234375 25.203125 21.542969 L 11.917969 29.3125 C 11.703125 29.4375 11.425781 29.367188 11.300781 29.15625 C 11.257812 29.085938 11.238281 29.011719 11.234375 28.933594 L 11.234375 24.21875 L 6.675781 21.542969 C 6.113281 21.234375 5.757812 20.644531 5.75 20.003906 L 5.75 9.292969 C 5.757812 8.652344 6.109375 8.0625 6.675781 7.753906 L 15.015625 2.871094 C 15.585938 2.542969 16.292969 2.542969 16.867188 2.871094 Z M 16.867188 2.871094 "/>
<path fill-rule="nonzero" fill="rgb(40%, 61.568627%, 96.470588%)" fill-opacity="1" d="M 10.921875 12.640625 C 10.648438 12.640625 10.421875 12.859375 10.414062 13.132812 L 10.414062 18.449219 C 10.433594 18.769531 10.609375 19.058594 10.886719 19.226562 L 10.90625 19.234375 L 13.46875 20.699219 L 13.46875 22.792969 C 13.488281 23.054688 13.710938 23.265625 13.980469 23.265625 C 14.0625 23.265625 14.144531 23.242188 14.214844 23.207031 L 14.234375 23.195312 L 21.039062 19.253906 L 21.085938 19.226562 C 21.355469 19.050781 21.523438 18.753906 21.53125 18.433594 L 21.53125 13.148438 C 21.53125 13.0625 21.507812 12.972656 21.460938 12.894531 C 21.324219 12.65625 21.023438 12.570312 20.78125 12.699219 L 20.765625 12.707031 L 16.242188 15.304688 L 16.203125 15.328125 C 16.050781 15.40625 15.867188 15.402344 15.71875 15.316406 L 15.703125 15.304688 L 11.175781 12.707031 C 11.097656 12.664062 11.011719 12.640625 10.921875 12.640625 Z M 10.921875 12.640625 "/>
<path fill-rule="nonzero" fill="rgb(9.411765%, 35.294118%, 73.72549%)" fill-opacity="1" d="M 16.328125 6.75 C 16.136719 6.644531 15.90625 6.636719 15.714844 6.738281 L 15.695312 6.75 L 10.707031 9.566406 C 10.628906 9.609375 10.5625 9.675781 10.515625 9.757812 C 10.378906 9.996094 10.457031 10.300781 10.691406 10.441406 L 10.703125 10.453125 L 15.691406 13.316406 C 15.882812 13.429688 16.117188 13.429688 16.3125 13.328125 L 16.332031 13.316406 L 21.242188 10.449219 C 21.320312 10.40625 21.382812 10.339844 21.429688 10.261719 C 21.566406 10.023438 21.488281 9.71875 21.253906 9.578125 L 21.238281 9.566406 Z M 16.328125 6.75 "/>
</svg>
