<?xml version="1.0" encoding="UTF-8"?>
<svg xmlns="http://www.w3.org/2000/svg" xmlns:xlink="http://www.w3.org/1999/xlink" width="32" height="32" viewBox="0 0 32 32">
<path fill-rule="evenodd" fill="rgb(36.078431%, 52.156863%, 87.058824%)" fill-opacity="1" d="M 4 8.132812 C 2.535156 8.132812 0.933594 9.601562 0.933594 11.066406 L 0.933594 24 L 4 24 L 4 18 L 6.933594 18 L 6.933594 24 L 9.867188 24 L 9.867188 11.066406 C 9.867188 9.601562 8.398438 8.132812 6.800781 8.132812 Z M 4 14.933594 L 4 10.933594 L 6.933594 10.933594 L 6.933594 14.933594 Z M 4 14.933594 "/>
<path fill-rule="evenodd" fill="rgb(36.078431%, 52.156863%, 87.058824%)" fill-opacity="1" d="M 15.066406 8 C 13.464844 8 12 9.464844 12 10.933594 L 12 24 L 14.933594 24 L 14.933594 18 L 17.867188 18 C 19.332031 18 20.933594 16.535156 20.933594 15.066406 L 20.933594 11.066406 C 20.933594 9.601562 19.464844 8.132812 17.867188 8.132812 L 15.066406 8.132812 Z M 14.933594 14.933594 L 14.933594 10.933594 L 17.867188 10.933594 L 17.867188 14.933594 Z M 14.933594 14.933594 "/>
<path fill-rule="evenodd" fill="rgb(36.078431%, 52.156863%, 87.058824%)" fill-opacity="1" d="M 26 11.066406 L 26 21.066406 L 22.933594 21.066406 L 22.933594 24 L 32 24 L 32 21.066406 L 29.066406 21.066406 L 29.066406 11.066406 L 32 11.066406 L 32 8.132812 L 22.933594 8.132812 L 22.933594 11.066406 Z M 26 11.066406 "/>
<path fill-rule="evenodd" fill="rgb(20%, 40.392157%, 83.921569%)" fill-opacity="1" d="M 4 18 L 4 14.933594 L 6 14.933594 Z M 4 18 "/>
<path fill-rule="evenodd" fill="rgb(20%, 40.392157%, 83.921569%)" fill-opacity="1" d="M 14.933594 18 L 14.933594 14.933594 L 16.667969 14.933594 Z M 14.933594 18 "/>
<path fill-rule="evenodd" fill="rgb(20%, 40.392157%, 83.921569%)" fill-opacity="1" d="M 26 13.066406 L 26 11.066406 L 29.066406 11.066406 Z M 26 13.066406 "/>
</svg>
