<?xml version="1.0" encoding="UTF-8"?>
<svg xmlns="http://www.w3.org/2000/svg" xmlns:xlink="http://www.w3.org/1999/xlink" width="32" height="32" viewBox="0 0 32 32">
<path fill-rule="nonzero" fill="rgb(25.882353%, 52.156863%, 95.686275%)" fill-opacity="1" d="M 10.171875 24.625 L 10.171875 12.386719 L 12.652344 12.386719 L 12.652344 24.625 Z M 5.171875 24.625 L 5.171875 12.386719 L 7.585938 12.386719 L 7.585938 24.625 Z M 15.238281 24.625 L 15.238281 12.386719 L 17.640625 12.386719 L 17.640625 24.625 Z M 22.535156 12.386719 L 22.535156 18.078125 L 20.226562 19.148438 L 20.226562 12.386719 Z M 22.535156 12.386719 "/>
<path fill-rule="nonzero" fill="rgb(68.235294%, 79.607843%, 98.039216%)" fill-opacity="1" d="M 22.90625 23.414062 L 22.320312 24 L 24 25.71875 L 24.785156 24.90625 L 25.039062 24.652344 L 25.039062 28.652344 L 24.785156 29.027344 L 24.707031 29.027344 C 24.234375 28.890625 23.785156 28.691406 23.375 28.425781 C 21.796875 27.367188 20.789062 25.652344 20.625 23.761719 L 20.625 20.253906 L 24.851562 18.320312 L 25.105469 18.8125 L 25.105469 23.464844 L 24.851562 23.71875 L 24 24.535156 Z M 22.90625 23.414062 "/>
<path fill-rule="nonzero" fill="rgb(40%, 61.568627%, 96.470588%)" fill-opacity="1" d="M 24.773438 18.320312 L 24.773438 23.652344 L 25.027344 23.398438 L 26.746094 21.625 L 27.320312 22.214844 L 25.027344 24.585938 L 24.773438 24.839844 L 24.773438 28.921875 L 24.851562 28.921875 C 25.324219 28.785156 25.773438 28.585938 26.1875 28.320312 C 27.765625 27.265625 28.777344 25.546875 28.933594 23.652344 L 28.933594 20.253906 Z M 24.773438 18.320312 "/>
<path fill-rule="nonzero" fill="rgb(40%, 61.568627%, 96.470588%)" fill-opacity="1" d="M 20 26 L 13.851562 26 L 13.851562 23.828125 L 19.414062 23.828125 L 19.414062 23.90625 C 19.5 24.628906 19.699219 25.335938 20 26 Z M 20 26 "/>
<path fill-rule="nonzero" fill="rgb(68.235294%, 79.607843%, 98.039216%)" fill-opacity="1" d="M 12.359375 8.691406 C 12.359375 9.519531 13.027344 10.1875 13.851562 10.1875 L 13.851562 12.851562 L 3 12.851562 L 3 10.667969 L 13.851562 3.054688 L 13.851562 7.1875 C 13.027344 7.195312 12.359375 7.867188 12.359375 8.691406 Z M 12.359375 8.691406 "/>
<path fill-rule="nonzero" fill="rgb(40%, 61.568627%, 96.470588%)" fill-opacity="1" d="M 24.707031 10.667969 L 24.707031 12.785156 L 13.851562 12.785156 L 13.851562 10.1875 C 14.628906 10.113281 15.21875 9.464844 15.21875 8.6875 C 15.21875 7.910156 14.628906 7.257812 13.851562 7.1875 L 13.851562 3 Z M 24.707031 10.667969 "/>
<path fill-rule="nonzero" fill="rgb(68.235294%, 79.607843%, 98.039216%)" fill-opacity="1" d="M 13.851562 23.8125 L 13.851562 26 L 3 26 L 3 23.839844 Z M 13.851562 23.8125 "/>
</svg>
