<?xml version="1.0" encoding="UTF-8"?>
<svg xmlns="http://www.w3.org/2000/svg" xmlns:xlink="http://www.w3.org/1999/xlink" width="32" height="32" viewBox="0 0 32 32">
<path fill-rule="nonzero" fill="rgb(68.235294%, 79.607843%, 98.039216%)" fill-opacity="1" d="M 2.667969 10.667969 L 10.667969 10.667969 L 10.667969 2.667969 L 2.667969 2.667969 Z M 2.667969 10.667969 "/>
<path fill-rule="nonzero" fill="rgb(25.882353%, 52.156863%, 95.686275%)" fill-opacity="1" d="M 9.332031 5.332031 L 26.667969 5.332031 L 26.667969 8 L 9.332031 8 Z M 9.332031 5.332031 "/>
<path fill-rule="nonzero" fill="rgb(68.235294%, 79.607843%, 98.039216%)" fill-opacity="1" d="M 20 17.332031 L 4 17.332031 L 4 13.332031 L 20 13.332031 Z M 20 17.332031 "/>
<path fill-rule="nonzero" fill="rgb(68.235294%, 79.607843%, 98.039216%)" fill-opacity="1" d="M 17.332031 26.667969 L 4 26.667969 L 4 21.332031 L 17.332031 21.332031 Z M 17.332031 26.667969 "/>
<path fill-rule="nonzero" fill="rgb(25.882353%, 52.156863%, 95.686275%)" fill-opacity="1" d="M 6.667969 10.667969 L 10.667969 10.667969 L 10.667969 2.667969 L 6.667969 2.667969 Z M 6.667969 10.667969 "/>
<path fill-rule="nonzero" fill="rgb(68.235294%, 79.607843%, 98.039216%)" fill-opacity="1" d="M 21.332031 29.332031 L 29.332031 29.332031 L 29.332031 21.332031 L 21.332031 21.332031 Z M 21.332031 29.332031 "/>
<path fill-rule="nonzero" fill="rgb(25.882353%, 52.156863%, 95.686275%)" fill-opacity="1" d="M 25.332031 29.332031 L 29.332031 29.332031 L 29.332031 21.332031 L 25.332031 21.332031 Z M 25.332031 29.332031 "/>
<path fill-rule="nonzero" fill="rgb(25.882353%, 52.156863%, 95.686275%)" fill-opacity="1" d="M 24 5.332031 L 26.667969 5.332031 L 26.667969 21.332031 L 24 21.332031 Z M 24 5.332031 "/>
</svg>
