<?xml version="1.0" encoding="UTF-8"?>
<svg xmlns="http://www.w3.org/2000/svg" xmlns:xlink="http://www.w3.org/1999/xlink" width="32" height="32" viewBox="0 0 32 32">
<path fill-rule="nonzero" fill="rgb(40%, 61.568627%, 96.470588%)" fill-opacity="1" d="M 14.667969 6.667969 L 17.332031 6.667969 L 17.332031 16 L 14.667969 16 Z M 14.667969 6.667969 "/>
<path fill-rule="nonzero" fill="rgb(25.882353%, 52.156863%, 95.686275%)" fill-opacity="1" d="M 14.667969 16 L 17.332031 16 L 17.332031 25.332031 L 14.667969 25.332031 Z M 14.667969 16 "/>
<path fill-rule="nonzero" fill="rgb(40%, 61.568627%, 96.470588%)" fill-opacity="1" d="M 20 6.667969 L 22.667969 6.667969 L 22.667969 16 L 20 16 Z M 20 6.667969 "/>
<path fill-rule="nonzero" fill="rgb(25.882353%, 52.156863%, 95.686275%)" fill-opacity="1" d="M 20 16 L 22.667969 16 L 22.667969 25.332031 L 20 25.332031 Z M 20 16 "/>
<path fill-rule="nonzero" fill="rgb(40%, 61.568627%, 96.470588%)" fill-opacity="1" d="M 25.332031 6.667969 L 28 6.667969 L 28 16 L 25.332031 16 Z M 25.332031 6.667969 "/>
<path fill-rule="nonzero" fill="rgb(25.882353%, 52.156863%, 95.686275%)" fill-opacity="1" d="M 25.332031 16 L 28 16 L 28 25.332031 L 25.332031 25.332031 Z M 25.332031 16 "/>
<path fill-rule="nonzero" fill="rgb(40%, 61.568627%, 96.470588%)" fill-opacity="1" d="M 9.332031 6.667969 L 12 6.667969 L 12 16 L 9.332031 16 Z M 9.332031 6.667969 "/>
<path fill-rule="nonzero" fill="rgb(25.882353%, 52.156863%, 95.686275%)" fill-opacity="1" d="M 9.332031 16 L 12 16 L 12 25.332031 L 9.332031 25.332031 Z M 9.332031 16 "/>
<path fill-rule="nonzero" fill="rgb(40%, 61.568627%, 96.470588%)" fill-opacity="1" d="M 4 6.667969 L 6.667969 6.667969 L 6.667969 16 L 4 16 Z M 4 6.667969 "/>
<path fill-rule="nonzero" fill="rgb(25.882353%, 52.156863%, 95.686275%)" fill-opacity="1" d="M 4 16 L 6.667969 16 L 6.667969 25.332031 L 4 25.332031 Z M 4 16 "/>
</svg>
