<?xml version="1.0" encoding="UTF-8"?>
<svg xmlns="http://www.w3.org/2000/svg" xmlns:xlink="http://www.w3.org/1999/xlink" width="32" height="32" viewBox="0 0 32 32">
<path fill-rule="evenodd" fill="rgb(68.235294%, 79.607843%, 98.039216%)" fill-opacity="1" d="M 8.894531 4 L 2.667969 7.679688 L 2.667969 24.320312 L 8.894531 28 L 8.894531 24.800781 L 5.332031 22.691406 L 5.332031 9.308594 L 8.894531 7.199219 Z M 8.894531 4 "/>
<path fill-rule="evenodd" fill="rgb(68.235294%, 79.607843%, 98.039216%)" fill-opacity="1" d="M 12.441406 12.1875 L 16 14.28125 L 19.558594 12.1875 L 19.558594 7.972656 L 16 5.878906 L 12.441406 7.972656 Z M 12.441406 12.1875 "/>
<path fill-rule="evenodd" fill="rgb(40%, 61.568627%, 96.470588%)" fill-opacity="1" d="M 12.441406 7.972656 L 12.441406 12.1875 L 16 14.28125 L 19.558594 12.1875 L 19.558594 7.972656 L 16 10.078125 Z M 12.441406 7.972656 "/>
<path fill-rule="evenodd" fill="rgb(25.882353%, 52.156863%, 95.686275%)" fill-opacity="1" d="M 16 14.28125 L 19.558594 12.1875 L 19.558594 7.972656 L 16 10.078125 Z M 16 14.28125 "/>
<path fill-rule="evenodd" fill="rgb(68.235294%, 79.607843%, 98.039216%)" fill-opacity="1" d="M 16.894531 20.839844 L 20.441406 22.933594 L 24 20.839844 L 24 16.625 L 20.441406 14.519531 L 16.894531 16.625 Z M 16.894531 20.839844 "/>
<path fill-rule="evenodd" fill="rgb(40%, 61.568627%, 96.470588%)" fill-opacity="1" d="M 16.894531 16.625 L 16.894531 20.839844 L 20.441406 22.933594 L 24 20.839844 L 24 16.625 L 20.441406 18.734375 Z M 16.894531 16.625 "/>
<path fill-rule="evenodd" fill="rgb(25.882353%, 52.156863%, 95.686275%)" fill-opacity="1" d="M 20.441406 22.933594 L 24 20.839844 L 24 16.625 L 20.441406 18.734375 Z M 20.441406 22.933594 "/>
<path fill-rule="evenodd" fill="rgb(68.235294%, 79.607843%, 98.039216%)" fill-opacity="1" d="M 8 20.839844 L 11.558594 22.933594 L 15.105469 20.839844 L 15.105469 16.625 L 11.558594 14.519531 L 8 16.625 Z M 8 20.839844 "/>
<path fill-rule="evenodd" fill="rgb(40%, 61.568627%, 96.470588%)" fill-opacity="1" d="M 8 16.625 L 8 20.839844 L 11.558594 22.933594 L 15.105469 20.839844 L 15.105469 16.625 L 11.558594 18.734375 Z M 8 16.625 "/>
<path fill-rule="evenodd" fill="rgb(25.882353%, 52.156863%, 95.686275%)" fill-opacity="1" d="M 11.558594 22.933594 L 15.105469 20.839844 L 15.105469 16.625 L 11.558594 18.734375 Z M 11.558594 22.933594 "/>
<path fill-rule="evenodd" fill="rgb(40%, 61.568627%, 96.470588%)" fill-opacity="1" d="M 2.667969 10.894531 L 2.667969 21.121094 L 5.332031 22.691406 L 5.332031 9.308594 Z M 2.667969 10.894531 "/>
<path fill-rule="evenodd" fill="rgb(25.882353%, 52.156863%, 95.686275%)" fill-opacity="1" d="M 2.667969 10.894531 L 5.332031 10.28125 L 5.332031 9.308594 Z M 2.667969 10.894531 "/>
<path fill-rule="evenodd" fill="rgb(25.882353%, 52.156863%, 95.686275%)" fill-opacity="1" d="M 5.332031 22.691406 L 5.332031 21.921875 L 2.667969 21.121094 Z M 5.332031 22.691406 "/>
<path fill-rule="evenodd" fill="rgb(68.235294%, 79.607843%, 98.039216%)" fill-opacity="1" d="M 23.105469 4 L 23.105469 7.199219 L 26.667969 9.308594 L 26.667969 22.691406 L 23.105469 24.800781 L 23.105469 28 L 29.332031 24.320312 L 29.332031 7.679688 Z M 23.105469 4 "/>
<path fill-rule="evenodd" fill="rgb(40%, 61.568627%, 96.470588%)" fill-opacity="1" d="M 26.667969 22.691406 L 29.332031 21.121094 L 29.332031 10.894531 L 26.667969 9.308594 Z M 26.667969 22.691406 "/>
<path fill-rule="evenodd" fill="rgb(25.882353%, 52.156863%, 95.686275%)" fill-opacity="1" d="M 26.667969 10.28125 L 29.332031 10.894531 L 26.667969 9.308594 Z M 26.667969 10.28125 "/>
<path fill-rule="evenodd" fill="rgb(25.882353%, 52.156863%, 95.686275%)" fill-opacity="1" d="M 26.667969 21.921875 L 26.667969 22.691406 L 29.332031 21.121094 Z M 26.667969 21.921875 "/>
</svg>
