<?xml version="1.0" encoding="UTF-8"?>
<svg xmlns="http://www.w3.org/2000/svg" xmlns:xlink="http://www.w3.org/1999/xlink" width="32" height="32" viewBox="0 0 32 32">
<path fill-rule="evenodd" fill="rgb(36.078431%, 52.156863%, 87.058824%)" fill-opacity="1" d="M 27.867188 18 L 30.398438 20 C 30.667969 20.265625 30.800781 20.667969 30.535156 20.933594 L 27.601562 26.132812 C 27.464844 26.398438 27.066406 26.535156 26.667969 26.398438 L 23.734375 25.199219 C 22.667969 26 21.464844 26.667969 20.265625 27.199219 L 19.867188 30.398438 C 19.867188 30.800781 19.464844 31.066406 19.066406 31.066406 L 12.933594 31.066406 C 12.535156 31.066406 12.265625 30.800781 12.132812 30.398438 L 11.734375 27.199219 C 10.535156 26.800781 9.332031 26 8.265625 25.199219 L 5.332031 26.398438 C 4.933594 26.535156 4.667969 26.398438 4.398438 26.132812 L 1.464844 20.933594 C 1.332031 20.535156 1.332031 20.132812 1.734375 20 L 4.265625 18 C 4 16.667969 4 15.332031 4.265625 14 L 1.734375 12 C 1.332031 11.867188 1.332031 11.464844 1.464844 11.066406 L 4.398438 5.867188 C 4.535156 5.601562 4.933594 5.464844 5.332031 5.601562 L 8.265625 6.800781 C 9.332031 5.867188 10.535156 5.199219 11.867188 4.800781 L 12.265625 1.601562 C 12.265625 1.199219 12.667969 0.933594 13.066406 0.933594 L 19.066406 0.933594 C 19.464844 0.933594 19.734375 1.199219 19.867188 1.601562 L 20.265625 4.800781 C 21.464844 5.199219 22.667969 6 23.734375 6.800781 L 26.667969 5.601562 C 27.066406 5.464844 27.332031 5.601562 27.601562 5.867188 L 30.535156 11.066406 C 30.667969 11.464844 30.667969 11.867188 30.265625 12 L 27.734375 14 C 28 15.332031 28 16.667969 27.867188 18 Z M 16 24 C 17.066406 24 18 23.066406 18 22 L 14 22 C 14 23.066406 14.933594 24 16 24 Z M 21.066406 14.933594 C 21.066406 11.867188 20.398438 10.265625 17.601562 9.601562 L 17.601562 9.066406 C 17.601562 8.265625 16.933594 7.601562 16.132812 7.601562 C 15.332031 7.601562 14.535156 8.132812 14.535156 9.066406 L 14.535156 9.734375 C 11.601562 10.398438 11.066406 12 11.066406 15.066406 L 11.066406 18 L 9.066406 20 L 9.066406 21.066406 L 23.066406 21.066406 L 23.066406 20 L 21.066406 18 Z M 21.066406 14.933594 "/>
<path fill-rule="evenodd" fill="rgb(20%, 40.392157%, 83.921569%)" fill-opacity="1" d="M 16 30.933594 L 16 24 C 17.066406 24 18 23.066406 18 22 L 16 22 L 16 20.933594 L 22.933594 20.933594 L 22.933594 20 L 20.933594 18 L 20.933594 15.066406 C 20.933594 12 20.265625 10.398438 17.464844 9.734375 L 17.464844 9.066406 C 17.464844 8.265625 16.800781 7.601562 16 7.601562 L 16 1.066406 L 18.933594 1.066406 C 19.332031 1.066406 19.601562 1.332031 19.734375 1.734375 L 20.132812 4.933594 C 21.332031 5.332031 22.535156 6.132812 23.601562 6.933594 L 26.535156 5.734375 C 26.933594 5.601562 27.199219 5.734375 27.464844 6 L 30.398438 11.199219 C 30.667969 11.464844 30.667969 11.867188 30.265625 12 L 27.734375 14 C 28 15.332031 28 16.667969 27.734375 18 L 30.265625 20 C 30.535156 20.265625 30.667969 20.667969 30.398438 20.933594 L 27.464844 26.132812 C 27.332031 26.398438 26.933594 26.535156 26.535156 26.398438 L 23.601562 25.199219 C 22.535156 26 21.332031 26.667969 20.132812 27.199219 L 19.734375 30.398438 C 19.734375 30.800781 19.332031 31.066406 18.933594 31.066406 L 16 31.066406 Z M 16 30.933594 "/>
</svg>
