<?xml version="1.0" encoding="UTF-8"?>
<svg xmlns="http://www.w3.org/2000/svg" xmlns:xlink="http://www.w3.org/1999/xlink" width="32" height="32" viewBox="0 0 32 32">
<path fill-rule="nonzero" fill="rgb(25.882353%, 52.156863%, 95.686275%)" fill-opacity="1" d="M 28.839844 8.761719 L 12.347656 8.761719 C 12.230469 8.761719 12.121094 8.808594 12.039062 8.890625 C 11.960938 8.972656 11.917969 9.085938 11.921875 9.199219 L 11.921875 12.078125 C 11.921875 12.316406 12.109375 12.507812 12.347656 12.507812 L 28.839844 12.507812 C 28.964844 12.527344 29.089844 12.488281 29.1875 12.40625 C 29.28125 12.324219 29.335938 12.207031 29.332031 12.078125 L 29.332031 9.199219 C 29.339844 8.964844 29.15625 8.765625 28.921875 8.761719 Z M 13.988281 11.613281 C 13.472656 11.613281 13.054688 11.195312 13.054688 10.679688 C 13.054688 10.164062 13.472656 9.746094 13.988281 9.746094 C 14.503906 9.746094 14.921875 10.164062 14.921875 10.679688 C 14.921875 11.195312 14.503906 11.613281 13.988281 11.613281 Z M 13.988281 11.613281 "/>
<path fill-rule="nonzero" fill="rgb(25.882353%, 52.156863%, 95.686275%)" fill-opacity="1" d="M 28.839844 14.148438 L 12.347656 14.148438 C 12.109375 14.148438 11.921875 14.335938 11.921875 14.574219 L 11.921875 17.441406 C 11.921875 17.675781 12.109375 17.867188 12.347656 17.867188 L 28.839844 17.867188 C 29.074219 17.867188 29.265625 17.675781 29.265625 17.441406 L 29.265625 14.574219 C 29.265625 14.335938 29.074219 14.148438 28.839844 14.148438 Z M 13.988281 17 C 13.472656 17 13.054688 16.582031 13.054688 16.066406 C 13.054688 15.550781 13.472656 15.132812 13.988281 15.132812 C 14.503906 15.132812 14.921875 15.550781 14.921875 16.066406 C 14.921875 16.582031 14.503906 17 13.988281 17 Z M 13.988281 17 "/>
<path fill-rule="nonzero" fill="rgb(25.882353%, 52.156863%, 95.686275%)" fill-opacity="1" d="M 28.90625 19.492188 L 12.425781 19.492188 C 12.191406 19.492188 12 19.683594 12 19.921875 L 12 22.800781 C 11.996094 22.914062 12.039062 23.027344 12.121094 23.109375 C 12.199219 23.191406 12.3125 23.238281 12.425781 23.238281 L 28.90625 23.238281 C 29.023438 23.238281 29.132812 23.191406 29.214844 23.109375 C 29.292969 23.027344 29.335938 22.914062 29.332031 22.800781 L 29.332031 19.921875 C 29.332031 19.683594 29.140625 19.492188 28.90625 19.492188 Z M 14.054688 22.332031 C 13.535156 22.324219 13.121094 21.90625 13.121094 21.386719 C 13.175781 20.910156 13.582031 20.550781 14.058594 20.550781 C 14.539062 20.550781 14.941406 20.910156 15 21.386719 C 15 21.910156 14.574219 22.332031 14.054688 22.332031 Z M 14.054688 22.332031 "/>
<path fill-rule="nonzero" fill="rgb(40%, 61.568627%, 96.470588%)" fill-opacity="1" d="M 8.988281 13.148438 L 6.148438 13.148438 C 5.554688 13.222656 5.011719 12.804688 4.933594 12.214844 C 4.855469 11.621094 5.273438 11.078125 5.867188 11 L 8.988281 11 C 9.578125 10.902344 10.136719 11.308594 10.234375 11.898438 C 10.328125 12.492188 9.925781 13.050781 9.332031 13.148438 Z M 8.988281 13.148438 "/>
<path fill-rule="nonzero" fill="rgb(68.235294%, 79.607843%, 98.039216%)" fill-opacity="1" d="M 8.988281 17.078125 L 3.894531 17.078125 C 3.328125 17.101562 2.839844 16.691406 2.765625 16.128906 C 2.691406 15.566406 3.058594 15.042969 3.613281 14.921875 L 8.945312 14.921875 C 9.542969 14.8125 10.113281 15.210938 10.21875 15.808594 C 10.328125 16.402344 9.929688 16.972656 9.332031 17.078125 Z M 8.988281 17.078125 "/>
<path fill-rule="nonzero" fill="rgb(40%, 61.568627%, 96.470588%)" fill-opacity="1" d="M 8.988281 21 L 6.148438 21 C 5.554688 21.078125 5.011719 20.660156 4.933594 20.066406 C 4.855469 19.472656 5.273438 18.929688 5.867188 18.851562 L 8.988281 18.851562 C 9.578125 18.757812 10.136719 19.160156 10.234375 19.753906 C 10.328125 20.347656 9.925781 20.902344 9.332031 21 Z M 8.988281 21 "/>
</svg>
