<?xml version="1.0" encoding="UTF-8"?>
<svg xmlns="http://www.w3.org/2000/svg" xmlns:xlink="http://www.w3.org/1999/xlink" width="32" height="32" viewBox="0 0 32 32">
<path fill-rule="nonzero" fill="rgb(25.882353%, 52.156863%, 95.686275%)" fill-opacity="1" d="M 7.828125 27.320312 C 7.710938 28.335938 6.847656 29.101562 5.828125 29.101562 C 4.804688 29.101562 3.945312 28.335938 3.828125 27.320312 L 3.828125 21.613281 C 3.738281 20.84375 4.097656 20.089844 4.753906 19.679688 C 5.410156 19.265625 6.242188 19.265625 6.898438 19.679688 C 7.554688 20.089844 7.914062 20.84375 7.828125 21.613281 Z M 7.828125 27.320312 "/>
<path fill-rule="nonzero" fill="rgb(25.882353%, 52.156863%, 95.686275%)" fill-opacity="1" d="M 14.667969 27.320312 C 14.550781 28.335938 13.6875 29.101562 12.667969 29.101562 C 11.644531 29.101562 10.785156 28.335938 10.667969 27.320312 L 10.667969 21.613281 C 10.785156 20.597656 11.644531 19.832031 12.667969 19.832031 C 13.6875 19.832031 14.550781 20.597656 14.667969 21.613281 Z M 14.667969 27.320312 "/>
<path fill-rule="nonzero" fill="rgb(25.882353%, 52.156863%, 95.686275%)" fill-opacity="1" d="M 21.414062 27.320312 C 21.296875 28.335938 20.4375 29.101562 19.414062 29.101562 C 18.390625 29.101562 17.53125 28.335938 17.414062 27.320312 L 17.414062 21.613281 C 17.53125 20.597656 18.390625 19.832031 19.414062 19.832031 C 20.4375 19.832031 21.296875 20.597656 21.414062 21.613281 Z M 21.414062 27.320312 "/>
<path fill-rule="nonzero" fill="rgb(25.882353%, 52.156863%, 95.686275%)" fill-opacity="1" d="M 28.199219 27.320312 C 28.082031 28.335938 27.222656 29.101562 26.199219 29.101562 C 25.175781 29.101562 24.316406 28.335938 24.199219 27.320312 L 24.199219 21.613281 C 24.109375 20.84375 24.472656 20.089844 25.128906 19.679688 C 25.78125 19.265625 26.617188 19.265625 27.273438 19.679688 C 27.929688 20.089844 28.289062 20.84375 28.199219 21.613281 Z M 28.199219 27.320312 "/>
<path fill-rule="nonzero" fill="rgb(68.235294%, 79.607843%, 98.039216%)" fill-opacity="1" d="M 14.613281 15.960938 C 14.613281 17.070312 13.710938 17.972656 12.601562 17.972656 C 11.488281 17.972656 10.585938 17.070312 10.585938 15.960938 C 10.585938 14.847656 11.488281 13.945312 12.601562 13.945312 C 13.710938 13.945312 14.613281 14.847656 14.613281 15.960938 Z M 14.613281 15.960938 "/>
<path fill-rule="nonzero" fill="rgb(40%, 61.568627%, 96.470588%)" fill-opacity="1" d="M 21.414062 15.960938 C 21.414062 17.070312 20.511719 17.972656 19.398438 17.972656 C 18.289062 17.972656 17.386719 17.070312 17.386719 15.960938 C 17.386719 14.847656 18.289062 13.945312 19.398438 13.945312 C 20.511719 13.945312 21.414062 14.847656 21.414062 15.960938 Z M 21.414062 15.960938 "/>
<path fill-rule="nonzero" fill="rgb(68.235294%, 79.607843%, 98.039216%)" fill-opacity="1" d="M 21.414062 10.320312 C 21.414062 11.433594 20.511719 12.332031 19.398438 12.332031 C 18.289062 12.332031 17.386719 11.433594 17.386719 10.320312 C 17.386719 9.207031 18.289062 8.308594 19.398438 8.308594 C 20.511719 8.308594 21.414062 9.207031 21.414062 10.320312 Z M 21.414062 10.320312 "/>
<path fill-rule="nonzero" fill="rgb(40%, 61.568627%, 96.470588%)" fill-opacity="1" d="M 28.199219 15.960938 C 28.199219 17.070312 27.296875 17.972656 26.1875 17.972656 C 25.074219 17.972656 24.171875 17.070312 24.171875 15.960938 C 24.171875 14.847656 25.074219 13.945312 26.1875 13.945312 C 27.296875 13.945312 28.199219 14.847656 28.199219 15.960938 Z M 28.199219 15.960938 "/>
<path fill-rule="nonzero" fill="rgb(40%, 61.568627%, 96.470588%)" fill-opacity="1" d="M 28.199219 10.320312 C 28.199219 11.433594 27.296875 12.332031 26.1875 12.332031 C 25.074219 12.332031 24.171875 11.433594 24.171875 10.320312 C 24.171875 9.207031 25.074219 8.308594 26.1875 8.308594 C 27.296875 8.308594 28.199219 9.207031 28.199219 10.320312 Z M 28.199219 10.320312 "/>
<path fill-rule="nonzero" fill="rgb(68.235294%, 79.607843%, 98.039216%)" fill-opacity="1" d="M 28.199219 4.679688 C 28.199219 5.792969 27.296875 6.691406 26.1875 6.691406 C 25.074219 6.691406 24.171875 5.792969 24.171875 4.679688 C 24.171875 3.566406 25.074219 2.667969 26.1875 2.667969 C 27.296875 2.667969 28.199219 3.566406 28.199219 4.679688 Z M 28.199219 4.679688 "/>
</svg>
