<?xml version="1.0" encoding="UTF-8"?>
<svg xmlns="http://www.w3.org/2000/svg" xmlns:xlink="http://www.w3.org/1999/xlink" width="32" height="32" viewBox="0 0 32 32">
<path fill-rule="nonzero" fill="rgb(25.882353%, 52.156863%, 95.686275%)" fill-opacity="1" d="M 20.398438 14.894531 C 20.398438 15.253906 20.398438 15.613281 20.398438 16 C 20.398438 16.386719 20.398438 16.746094 20.398438 17.105469 L 26.398438 17.105469 L 26.398438 14.894531 Z M 20.398438 14.894531 "/>
<path fill-rule="nonzero" fill="rgb(25.882353%, 52.156863%, 95.686275%)" fill-opacity="1" d="M 13.148438 7.851562 L 9.332031 7.851562 L 9.332031 10.078125 L 14.574219 10.078125 C 14.171875 9.292969 13.695312 8.546875 13.148438 7.851562 Z M 13.148438 7.851562 "/>
<path fill-rule="nonzero" fill="rgb(25.882353%, 52.156863%, 95.686275%)" fill-opacity="1" d="M 14.667969 21.921875 L 10.132812 21.921875 L 10.132812 24.148438 L 13.1875 24.148438 C 13.75 23.453125 14.242188 22.707031 14.667969 21.921875 Z M 14.667969 21.921875 "/>
<path fill-rule="nonzero" fill="rgb(25.882353%, 52.156863%, 95.686275%)" fill-opacity="1" d="M 16 16 C 16.019531 15.632812 16.019531 15.261719 16 14.894531 L 6 14.894531 L 6 17.105469 L 16 17.105469 C 16.019531 16.738281 16.019531 16.367188 16 16 Z M 16 16 "/>
<path fill-rule="nonzero" fill="rgb(40%, 61.568627%, 96.470588%)" fill-opacity="1" d="M 4.894531 16.640625 C 4.632812 16.644531 4.394531 16.492188 4.292969 16.253906 C 4.1875 16.015625 4.242188 15.738281 4.421875 15.550781 C 4.605469 15.367188 4.882812 15.308594 5.121094 15.40625 C 5.363281 15.503906 5.519531 15.738281 5.519531 16 C 5.519531 16.347656 5.242188 16.632812 4.894531 16.640625 Z M 4.894531 13.773438 C 3.992188 13.769531 3.175781 14.308594 2.828125 15.136719 C 2.476562 15.96875 2.664062 16.929688 3.300781 17.570312 C 3.9375 18.210938 4.894531 18.402344 5.730469 18.058594 C 6.5625 17.714844 7.105469 16.902344 7.105469 16 C 7.105469 14.777344 6.117188 13.78125 4.894531 13.773438 Z M 4.894531 13.773438 "/>
<path fill-rule="nonzero" fill="rgb(40%, 61.568627%, 96.470588%)" fill-opacity="1" d="M 8.226562 23.667969 C 7.964844 23.671875 7.730469 23.519531 7.625 23.28125 C 7.523438 23.042969 7.574219 22.765625 7.757812 22.578125 C 7.9375 22.394531 8.214844 22.335938 8.453125 22.433594 C 8.695312 22.53125 8.851562 22.765625 8.851562 23.027344 C 8.855469 23.195312 8.792969 23.359375 8.675781 23.476562 C 8.558594 23.597656 8.394531 23.667969 8.226562 23.667969 Z M 8.226562 20.8125 C 7.324219 20.808594 6.507812 21.347656 6.160156 22.183594 C 5.8125 23.015625 6 23.976562 6.640625 24.613281 C 7.277344 25.253906 8.238281 25.441406 9.070312 25.09375 C 9.90625 24.746094 10.445312 23.929688 10.441406 23.027344 C 10.433594 21.808594 9.445312 20.820312 8.226562 20.8125 Z M 8.226562 20.8125 "/>
<path fill-rule="nonzero" fill="rgb(40%, 61.568627%, 96.470588%)" fill-opacity="1" d="M 8.226562 9.601562 C 7.964844 9.605469 7.726562 9.453125 7.625 9.210938 C 7.523438 8.972656 7.578125 8.691406 7.761719 8.507812 C 7.945312 8.324219 8.222656 8.269531 8.464844 8.371094 C 8.703125 8.472656 8.859375 8.710938 8.851562 8.972656 C 8.851562 9.320312 8.574219 9.601562 8.226562 9.601562 Z M 8.226562 6.746094 C 7.390625 6.683594 6.59375 7.089844 6.15625 7.804688 C 5.71875 8.515625 5.71875 9.414062 6.15625 10.128906 C 6.59375 10.84375 7.390625 11.25 8.226562 11.1875 C 9.386719 11.097656 10.28125 10.128906 10.28125 8.964844 C 10.28125 7.804688 9.386719 6.835938 8.226562 6.746094 Z M 8.226562 6.746094 "/>
<path fill-rule="nonzero" fill="rgb(25.882353%, 52.156863%, 95.686275%)" fill-opacity="1" d="M 24.894531 19.332031 L 24.894531 12.667969 L 29.332031 16 Z M 24.894531 19.332031 "/>
<path fill-rule="nonzero" fill="rgb(25.882353%, 52.156863%, 95.686275%)" fill-opacity="1" d="M 12.667969 29.332031 L 11.519531 27.332031 C 15.039062 24.628906 17.105469 20.441406 17.105469 16 C 17.070312 11.566406 15.007812 7.390625 11.507812 4.667969 L 12.667969 2.667969 C 16.859375 5.820312 19.328125 10.753906 19.332031 16 C 19.339844 21.246094 16.871094 26.191406 12.667969 29.332031 Z M 12.667969 29.332031 "/>
</svg>
