<?xml version="1.0" encoding="UTF-8"?>
<svg xmlns="http://www.w3.org/2000/svg" xmlns:xlink="http://www.w3.org/1999/xlink" width="32" height="32" viewBox="0 0 32 32">
<path fill-rule="evenodd" fill="rgb(25.882353%, 52.156863%, 95.686275%)" fill-opacity="1" d="M 10.3125 8.007812 L 24.121094 8.007812 L 22.609375 10.15625 L 8.753906 10.15625 Z M 10.3125 8.007812 "/>
<path fill-rule="evenodd" fill="rgb(25.882353%, 52.156863%, 95.686275%)" fill-opacity="1" d="M 7.269531 12.394531 L 21.078125 12.394531 L 19.566406 14.542969 L 5.710938 14.542969 Z M 7.269531 12.394531 "/>
<path fill-rule="evenodd" fill="rgb(25.882353%, 52.156863%, 95.686275%)" fill-opacity="1" d="M 4.226562 16.78125 L 18.03125 16.78125 L 16.523438 18.929688 L 2.667969 18.929688 Z M 4.226562 16.78125 "/>
<path fill="none" stroke-width="1.611268" stroke-linecap="butt" stroke-linejoin="miter" stroke="rgb(25.882353%, 52.156863%, 95.686275%)" stroke-opacity="1" stroke-miterlimit="4" d="M 11.883792 13.225589 C 11.883792 14.078128 11.192385 14.769535 10.339846 14.769535 C 9.487307 14.769535 8.7959 14.078128 8.7959 13.225589 C 8.7959 12.37305 9.487307 11.681643 10.339846 11.681643 C 11.192385 11.681643 11.883792 12.37305 11.883792 13.225589 Z M 11.883792 13.225589 " transform="matrix(1.333333, 0, 0, 1.333333, 2.666667, 6.666667)"/>
<path fill-rule="evenodd" fill="rgb(25.882353%, 52.156863%, 95.686275%)" fill-opacity="1" d="M 16.996094 21.703125 L 27.511719 6.675781 L 29.296875 7.925781 L 18.785156 22.953125 Z M 16.996094 21.703125 "/>
</svg>
