<?xml version="1.0" encoding="UTF-8"?>
<svg xmlns="http://www.w3.org/2000/svg" xmlns:xlink="http://www.w3.org/1999/xlink" width="32" height="32" viewBox="0 0 32 32">
<path fill-rule="nonzero" fill="rgb(34.901961%, 50.980392%, 85.882353%)" fill-opacity="1" d="M 31.199219 16.265625 C 31.199219 20.132812 29.734375 24 26.800781 26.933594 C 20.933594 32.800781 11.464844 32.800781 5.601562 26.933594 C -0.265625 21.066406 -0.265625 11.601562 5.601562 5.734375 C 11.066406 0.265625 19.867188 -0.132812 25.734375 4.667969 L 19.332031 11.066406 C 17.066406 9.734375 14 10 12 12 C 9.601562 14.398438 9.601562 18.132812 12 20.535156 C 14.398438 22.933594 18.132812 22.933594 20.535156 20.535156 C 21.734375 19.332031 22.265625 17.867188 22.265625 16.265625 L 25.199219 16.265625 C 25.199219 18.535156 24.265625 20.933594 22.535156 22.667969 C 19.066406 26.132812 13.332031 26.132812 9.867188 22.667969 C 6.398438 19.199219 6.398438 13.332031 9.867188 9.867188 C 13.066406 6.667969 17.867188 6.398438 21.464844 8.933594 L 23.601562 6.800781 C 18.800781 3.066406 12 3.464844 7.734375 7.734375 C 3.066406 12.398438 3.066406 20 7.734375 24.667969 C 12.398438 29.332031 20 29.332031 24.667969 24.667969 C 27.066406 22.265625 28.132812 19.199219 28.132812 16.132812 L 31.199219 16.132812 Z M 31.199219 16.265625 "/>
<path fill-rule="nonzero" fill="rgb(20%, 40.392157%, 83.921569%)" fill-opacity="1" d="M 16.933594 13.332031 C 12.667969 12.800781 12.535156 17.066406 14 18.398438 C 15.464844 19.601562 17.066406 19.601562 18.265625 18.398438 C 19.066406 17.601562 19.332031 16.535156 19.066406 15.464844 L 27.867188 6.667969 C 26.667969 5.464844 26 4.800781 25.734375 4.535156 Z M 16.933594 13.332031 "/>
<path fill-rule="nonzero" fill="rgb(20%, 40.392157%, 83.921569%)" fill-opacity="1" d="M 7.199219 11.734375 C 7.199219 13.648438 5.648438 15.199219 3.734375 15.199219 C 1.820312 15.199219 0.265625 13.648438 0.265625 11.734375 C 0.265625 9.820312 1.820312 8.265625 3.734375 8.265625 C 5.648438 8.265625 7.199219 9.820312 7.199219 11.734375 Z M 7.199219 11.734375 "/>
<path fill-rule="nonzero" fill="rgb(20%, 40.392157%, 83.921569%)" fill-opacity="1" d="M 28.132812 26.667969 C 28.132812 28.582031 26.582031 30.132812 24.667969 30.132812 C 22.753906 30.132812 21.199219 28.582031 21.199219 26.667969 C 21.199219 24.753906 22.753906 23.199219 24.667969 23.199219 C 26.582031 23.199219 28.132812 24.753906 28.132812 26.667969 Z M 28.132812 26.667969 "/>
<path fill-rule="nonzero" fill="rgb(20%, 40.392157%, 83.921569%)" fill-opacity="1" d="M 17.199219 8.667969 C 17.199219 10.066406 16.066406 11.199219 14.667969 11.199219 C 13.265625 11.199219 12.132812 10.066406 12.132812 8.667969 C 12.132812 7.265625 13.265625 6.132812 14.667969 6.132812 C 16.066406 6.132812 17.199219 7.265625 17.199219 8.667969 Z M 17.199219 8.667969 "/>
</svg>
