<?xml version="1.0" encoding="UTF-8"?>
<svg xmlns="http://www.w3.org/2000/svg" xmlns:xlink="http://www.w3.org/1999/xlink" width="32" height="32" viewBox="0 0 32 32">
<path fill-rule="nonzero" fill="rgb(25.882353%, 52.156863%, 95.686275%)" fill-opacity="1" d="M 26 26.746094 L 25.066406 26.746094 L 25.066406 24.746094 L 26 24.746094 C 26.550781 24.738281 26.992188 24.296875 27 23.746094 L 27 18 C 26.992188 17.449219 26.550781 17.007812 26 17 L 21.1875 17 L 21.1875 15 L 26 15 C 27.65625 15 29 16.34375 29 18 L 29 23.746094 C 29 25.402344 27.65625 26.746094 26 26.746094 Z M 26 26.746094 "/>
<path fill-rule="nonzero" fill="rgb(25.882353%, 52.156863%, 95.686275%)" fill-opacity="1" d="M 15.398438 26.746094 L 8.867188 26.746094 L 8.867188 24.746094 L 15.398438 24.746094 Z M 15.398438 26.746094 "/>
<path fill-rule="evenodd" fill="rgb(40%, 61.568627%, 96.470588%)" fill-opacity="1" d="M 10.828125 17 L 6 17 C 4.34375 17 3 15.65625 3 14 L 3 8.253906 C 3 6.597656 4.34375 5.253906 6 5.253906 L 7.332031 5.253906 L 7.332031 7.253906 L 6 7.253906 C 5.449219 7.253906 5 7.699219 5 8.253906 L 5 14 C 5.007812 14.550781 5.449219 14.992188 6 15 L 10.828125 15 Z M 10.828125 17 "/>
<path fill-rule="nonzero" fill="rgb(25.882353%, 52.156863%, 95.686275%)" fill-opacity="1" d="M 23.066406 7.253906 L 15.761719 7.253906 L 15.761719 5.253906 L 23.066406 5.253906 Z M 23.066406 7.253906 "/>
<path fill-rule="nonzero" fill="rgb(68.235294%, 79.607843%, 98.039216%)" fill-opacity="1" d="M 11.507812 5.253906 L 11.507812 3.253906 L 7.507812 3.253906 C 6.679688 3.253906 6.007812 3.917969 6 4.746094 L 6 7.746094 C 6 8.578125 6.675781 9.253906 7.507812 9.253906 L 11.507812 9.253906 L 11.507812 7.253906 L 8 7.253906 L 8 5.253906 Z M 11.507812 5.253906 "/>
<path fill-rule="evenodd" fill="rgb(40%, 61.568627%, 96.470588%)" fill-opacity="1" d="M 17 4.746094 L 17 7.746094 C 17 8.574219 16.332031 9.246094 15.507812 9.253906 L 11.507812 9.253906 L 11.507812 7.253906 L 15 7.253906 L 15 5.253906 L 11.507812 5.253906 L 11.507812 3.253906 L 15.507812 3.253906 C 16.332031 3.253906 17 3.921875 17 4.746094 Z M 17 4.746094 "/>
<path fill-rule="nonzero" fill="rgb(68.235294%, 79.607843%, 98.039216%)" fill-opacity="1" d="M 25.746094 9.507812 C 23.949219 9.507812 22.492188 8.050781 22.492188 6.253906 C 22.492188 4.457031 23.949219 3 25.746094 3 C 27.542969 3 29 4.457031 29 6.253906 C 28.992188 8.046875 27.539062 9.5 25.746094 9.507812 Z M 25.746094 5 C 25.054688 5 24.492188 5.5625 24.492188 6.253906 C 24.492188 6.945312 25.054688 7.507812 25.746094 7.507812 C 26.4375 7.507812 27 6.945312 27 6.253906 C 27 5.5625 26.4375 5 25.746094 5 Z M 25.746094 5 "/>
<path fill-rule="nonzero" fill="rgb(60.392157%, 62.745098%, 65.098039%)" fill-opacity="1" d="M 6.253906 29 C 4.9375 29.003906 3.746094 28.214844 3.238281 27 C 2.730469 25.785156 3.003906 24.382812 3.933594 23.449219 C 4.863281 22.519531 6.265625 22.238281 7.480469 22.738281 C 8.699219 23.242188 9.492188 24.429688 9.492188 25.746094 C 9.492188 27.539062 8.042969 28.992188 6.253906 29 Z M 6.253906 24.492188 C 5.746094 24.488281 5.285156 24.789062 5.085938 25.257812 C 4.886719 25.726562 4.992188 26.265625 5.347656 26.628906 C 5.707031 26.988281 6.246094 27.097656 6.714844 26.90625 C 7.1875 26.710938 7.492188 26.253906 7.492188 25.746094 C 7.492188 25.058594 6.941406 24.5 6.253906 24.492188 Z M 6.253906 24.492188 "/>
<path fill-rule="nonzero" fill="rgb(68.235294%, 79.607843%, 98.039216%)" fill-opacity="1" d="M 6.253906 29 C 4.9375 29.003906 3.746094 28.214844 3.238281 27 C 2.730469 25.785156 3.003906 24.382812 3.933594 23.449219 C 4.863281 22.519531 6.265625 22.238281 7.480469 22.738281 C 8.699219 23.242188 9.492188 24.429688 9.492188 25.746094 C 9.492188 27.539062 8.042969 28.992188 6.253906 29 Z M 6.253906 24.492188 C 5.746094 24.488281 5.285156 24.789062 5.085938 25.257812 C 4.886719 25.726562 4.992188 26.265625 5.347656 26.628906 C 5.707031 26.988281 6.246094 27.097656 6.714844 26.90625 C 7.1875 26.710938 7.492188 26.253906 7.492188 25.746094 C 7.492188 25.058594 6.941406 24.5 6.253906 24.492188 Z M 6.253906 24.492188 "/>
<path fill-rule="nonzero" fill="rgb(68.235294%, 79.607843%, 98.039216%)" fill-opacity="1" d="M 20.480469 24.761719 L 20.480469 22.761719 L 16.480469 22.761719 C 15.652344 22.765625 14.988281 23.441406 14.988281 24.265625 L 14.988281 27.265625 C 14.988281 28.089844 15.65625 28.761719 16.480469 28.761719 L 20.480469 28.761719 L 20.480469 26.761719 L 16.988281 26.761719 L 16.988281 24.761719 Z M 20.480469 24.761719 "/>
<path fill-rule="evenodd" fill="rgb(40%, 61.568627%, 96.470588%)" fill-opacity="1" d="M 25.988281 24.265625 L 25.988281 27.265625 C 25.980469 28.09375 25.308594 28.761719 24.480469 28.761719 L 20.480469 28.761719 L 20.480469 26.761719 L 24 26.761719 L 24 24.761719 L 20.480469 24.761719 L 20.480469 22.761719 L 24.480469 22.761719 C 25.308594 22.765625 25.980469 23.4375 25.988281 24.265625 Z M 25.988281 24.265625 "/>
<path fill-rule="nonzero" fill="rgb(68.235294%, 79.607843%, 98.039216%)" fill-opacity="1" d="M 16 15 L 16 13 L 12 13 C 11.171875 13 10.5 13.667969 10.492188 14.492188 L 10.492188 17.492188 C 10.492188 18.324219 11.167969 19 12 19 L 16 19 L 16 17 L 12.492188 17 L 12.492188 15 Z M 16 15 "/>
<path fill-rule="evenodd" fill="rgb(40%, 61.568627%, 96.470588%)" fill-opacity="1" d="M 21.492188 14.492188 L 21.492188 17.492188 C 21.492188 18.320312 20.828125 18.992188 20 19 L 16 19 L 16 17 L 19.492188 17 L 19.492188 15 L 16 15 L 16 13 L 20 13 C 20.824219 13 21.492188 13.667969 21.492188 14.492188 Z M 21.492188 14.492188 "/>
</svg>
