<?xml version="1.0" encoding="UTF-8"?>
<svg xmlns="http://www.w3.org/2000/svg" xmlns:xlink="http://www.w3.org/1999/xlink" width="32" height="32" viewBox="0 0 32 32">
<path fill-rule="nonzero" fill="rgb(25.882353%, 52.156863%, 95.686275%)" fill-opacity="1" d="M 25.332031 18.667969 L 25.332031 22.667969 L 18.667969 16 L 25.332031 9.332031 L 25.332031 13.332031 L 29.332031 13.332031 L 29.332031 18.667969 Z M 6.667969 13.332031 L 2.667969 13.332031 L 2.667969 18.667969 L 6.667969 18.667969 L 6.667969 22.667969 L 13.332031 16 L 6.667969 9.332031 Z M 18.667969 22.667969 L 18.667969 18.667969 L 13.332031 18.667969 L 13.332031 22.667969 L 9.332031 22.667969 L 16 29.332031 L 22.667969 22.667969 Z M 18.667969 9.332031 L 18.667969 13.332031 L 13.332031 13.332031 L 13.332031 9.332031 L 9.332031 9.332031 L 16 2.667969 L 22.667969 9.332031 Z M 18.667969 9.332031 "/>
</svg>
