<?xml version="1.0" encoding="UTF-8"?>
<svg xmlns="http://www.w3.org/2000/svg" xmlns:xlink="http://www.w3.org/1999/xlink" width="32" height="32" viewBox="0 0 32 32">
<path fill-rule="evenodd" fill="rgb(40%, 61.568627%, 96.470588%)" fill-opacity="1" d="M 18.386719 6.71875 L 18.027344 5.464844 L 16.148438 5.375 L 13.851562 6.652344 L 15.878906 8.652344 L 15.851562 10.960938 L 17.214844 10.972656 L 17.238281 8.667969 L 22.894531 12.078125 L 22.878906 13.507812 L 25.238281 13.546875 L 25.238281 10.8125 Z M 18.386719 6.71875 "/>
<path fill-rule="evenodd" fill="rgb(68.235294%, 79.607843%, 98.039216%)" fill-opacity="1" d="M 16.148438 5.375 L 16.132812 5.375 L 14.238281 5.839844 L 13.851562 6.652344 L 6.839844 10.558594 L 6.800781 13.292969 L 9.171875 13.332031 L 9.199219 11.90625 L 14.945312 8.640625 L 14.921875 10.945312 L 16.066406 10.960938 Z M 16.148438 5.375 "/>
<path fill-rule="evenodd" fill="rgb(40%, 61.568627%, 96.470588%)" fill-opacity="1" d="M 16.148438 5.375 L 16.132812 5.375 L 11.585938 2.667969 L 9.265625 3.933594 L 13.851562 6.652344 Z M 16.148438 5.375 "/>
<path fill-rule="evenodd" fill="rgb(40%, 61.568627%, 96.470588%)" fill-opacity="1" d="M 22.785156 20.078125 L 17.054688 23.347656 L 17.078125 21.054688 L 14.785156 21.027344 L 14.761719 23.320312 L 15.851562 26.625 L 17.746094 26.464844 L 18.132812 25.332031 L 25.160156 21.425781 L 25.199219 18.640625 L 22.8125 18.613281 Z M 22.785156 20.078125 "/>
<path fill-rule="evenodd" fill="rgb(40%, 61.568627%, 96.470588%)" fill-opacity="1" d="M 15.851562 26.625 L 11.238281 29.214844 L 11.171875 29.214844 L 8.960938 27.894531 L 13.613281 25.28125 Z M 15.851562 26.625 "/>
<path fill-rule="evenodd" fill="rgb(25.882353%, 52.156863%, 95.686275%)" fill-opacity="1" d="M 18.386719 6.71875 L 23.039062 4.105469 L 20.828125 2.785156 L 20.761719 2.785156 L 16.148438 5.375 Z M 18.386719 6.71875 "/>
<path fill-rule="evenodd" fill="rgb(25.882353%, 52.156863%, 95.686275%)" fill-opacity="1" d="M 18.148438 25.347656 L 22.734375 28.066406 L 20.480469 29.332031 L 20.414062 29.332031 L 15.851562 26.625 Z M 18.148438 25.347656 "/>
<path fill-rule="evenodd" fill="rgb(68.235294%, 79.607843%, 98.039216%)" fill-opacity="1" d="M 15.851562 26.613281 L 13.613281 25.28125 L 6.761719 21.1875 L 6.761719 18.519531 L 9.105469 18.519531 L 9.09375 19.90625 L 14.761719 23.320312 L 14.785156 21.027344 L 15.933594 21.039062 Z M 15.851562 26.613281 "/>
<path fill-rule="nonzero" fill="rgb(68.235294%, 79.607843%, 98.039216%)" fill-opacity="1" d="M 25.679688 16.054688 C 25.679688 16.894531 25 17.574219 24.160156 17.574219 C 23.320312 17.574219 22.640625 16.894531 22.640625 16.054688 C 22.640625 15.214844 23.320312 14.535156 24.160156 14.535156 C 25 14.535156 25.679688 15.214844 25.679688 16.054688 Z M 25.679688 16.054688 "/>
<path fill-rule="nonzero" fill="rgb(68.235294%, 79.607843%, 98.039216%)" fill-opacity="1" d="M 9.359375 15.839844 C 9.359375 16.679688 8.679688 17.359375 7.839844 17.359375 C 7 17.359375 6.320312 16.679688 6.320312 15.839844 C 6.320312 15 7 14.320312 7.839844 14.320312 C 8.679688 14.320312 9.359375 15 9.359375 15.839844 Z M 9.359375 15.839844 "/>
<path fill-rule="nonzero" fill="rgb(68.235294%, 79.607843%, 98.039216%)" fill-opacity="1" d="M 17.601562 13.320312 C 17.601562 14.160156 16.917969 14.839844 16.078125 14.839844 C 15.242188 14.839844 14.558594 14.160156 14.558594 13.320312 C 14.558594 12.480469 15.242188 11.800781 16.078125 11.800781 C 16.917969 11.800781 17.601562 12.480469 17.601562 13.320312 Z M 17.601562 13.320312 "/>
<path fill-rule="nonzero" fill="rgb(68.235294%, 79.607843%, 98.039216%)" fill-opacity="1" d="M 17.480469 18.667969 C 17.480469 19.507812 16.800781 20.1875 15.960938 20.1875 C 15.121094 20.1875 14.441406 19.507812 14.441406 18.667969 C 14.441406 17.828125 15.121094 17.148438 15.960938 17.148438 C 16.800781 17.148438 17.480469 17.828125 17.480469 18.667969 Z M 17.480469 18.667969 "/>
</svg>
