<?xml version="1.0" encoding="UTF-8"?>
<svg xmlns="http://www.w3.org/2000/svg" xmlns:xlink="http://www.w3.org/1999/xlink" width="32" height="32" viewBox="0 0 32 32">
<path fill-rule="nonzero" fill="rgb(25.882353%, 52.156863%, 95.686275%)" fill-opacity="1" d="M 16 8.535156 C 17.992188 8.503906 19.910156 9.273438 21.332031 10.667969 L 22.667969 9.332031 C 18.984375 5.652344 13.015625 5.652344 9.332031 9.332031 L 10.667969 10.667969 C 12.089844 9.273438 14.007812 8.503906 16 8.535156 Z M 16 8.535156 "/>
<path fill-rule="nonzero" fill="rgb(25.882353%, 52.156863%, 95.686275%)" fill-opacity="1" d="M 16 23.464844 C 14.007812 23.496094 12.089844 22.726562 10.667969 21.332031 L 9.332031 22.667969 C 13.015625 26.347656 18.984375 26.347656 22.667969 22.667969 L 21.332031 21.332031 C 19.910156 22.726562 17.992188 23.496094 16 23.464844 Z M 16 23.464844 "/>
<path fill-rule="nonzero" fill="rgb(40%, 61.568627%, 96.470588%)" fill-opacity="1" d="M 16 20.09375 C 14.105469 20.109375 12.445312 18.816406 12 16.972656 L 6.8125 16.972656 L 6.8125 20.148438 L 2.667969 16 L 6.8125 11.867188 L 6.8125 15.039062 L 12 15.039062 C 12.445312 13.195312 14.105469 11.902344 16 11.921875 C 17.894531 11.902344 19.554688 13.195312 20 15.039062 L 25.214844 15.039062 L 25.214844 11.851562 L 29.332031 16 L 25.1875 20.160156 L 25.1875 16.972656 L 20 16.972656 C 19.554688 18.816406 17.894531 20.109375 16 20.09375 Z M 16 13.851562 C 14.8125 13.851562 13.851562 14.8125 13.851562 16 C 13.851562 17.1875 14.8125 18.148438 16 18.148438 C 17.1875 18.148438 18.148438 17.1875 18.148438 16 C 18.148438 14.8125 17.1875 13.851562 16 13.851562 Z M 16 13.851562 "/>
</svg>
