<?xml version="1.0" encoding="UTF-8"?>
<svg xmlns="http://www.w3.org/2000/svg" xmlns:xlink="http://www.w3.org/1999/xlink" width="32" height="32" viewBox="0 0 32 32">
<path fill-rule="nonzero" fill="rgb(68.235294%, 79.607843%, 98.039216%)" fill-opacity="1" d="M 26.933594 3.558594 L 5.066406 3.558594 C 4.429688 3.554688 3.816406 3.808594 3.367188 4.257812 C 2.914062 4.710938 2.664062 5.324219 2.667969 5.960938 L 2.667969 20.359375 C 2.664062 20.996094 2.914062 21.609375 3.367188 22.0625 C 3.816406 22.511719 4.429688 22.761719 5.066406 22.761719 L 13.332031 22.761719 L 13.332031 25.773438 L 10.667969 25.773438 L 10.667969 28.441406 L 21.332031 28.441406 L 21.332031 25.773438 L 18.667969 25.773438 L 18.667969 22.761719 L 26.933594 22.761719 C 27.570312 22.761719 28.183594 22.511719 28.632812 22.0625 C 29.085938 21.609375 29.335938 20.996094 29.332031 20.359375 L 29.332031 5.960938 C 29.335938 5.324219 29.085938 4.710938 28.632812 4.257812 C 28.183594 3.808594 27.570312 3.554688 26.933594 3.558594 Z M 22.226562 19.558594 L 16.894531 19.558594 L 16.894531 16.894531 L 22.226562 16.894531 Z M 22.226562 13.507812 L 10.132812 18.574219 L 10.132812 16.09375 L 18.839844 12.359375 L 10.132812 8.535156 L 10.132812 6.039062 L 22.226562 11.027344 Z M 22.226562 13.507812 "/>
<path fill-rule="nonzero" fill="rgb(25.882353%, 52.156863%, 95.686275%)" fill-opacity="1" d="M 13.332031 22.761719 L 18.667969 22.761719 L 18.667969 25.773438 L 13.332031 25.773438 Z M 13.332031 22.761719 "/>
<path fill-rule="nonzero" fill="rgb(40%, 61.568627%, 96.470588%)" fill-opacity="1" d="M 10.667969 25.773438 L 21.332031 25.773438 L 21.332031 28.441406 L 10.667969 28.441406 Z M 10.667969 25.773438 "/>
</svg>
