<?xml version="1.0" encoding="UTF-8"?>
<svg xmlns="http://www.w3.org/2000/svg" xmlns:xlink="http://www.w3.org/1999/xlink" width="32" height="32" viewBox="0 0 32 32">
<path fill-rule="nonzero" fill="rgb(68.235294%, 79.607843%, 98.039216%)" fill-opacity="1" d="M 10.9375 23.109375 C 9.417969 23.121094 8.191406 24.351562 8.1875 25.871094 C 8.1875 25.980469 8.199219 26.089844 8.207031 26.203125 C 8.394531 27.710938 9.769531 28.785156 11.28125 28.601562 C 12.535156 28.445312 13.523438 27.457031 13.679688 26.203125 C 13.6875 26.089844 13.699219 25.980469 13.699219 25.871094 C 13.691406 24.347656 12.460938 23.117188 10.9375 23.109375 Z M 10.9375 27.621094 C 9.96875 27.617188 9.183594 26.828125 9.1875 25.859375 C 9.191406 24.890625 9.980469 24.105469 10.949219 24.109375 C 11.917969 24.113281 12.703125 24.902344 12.699219 25.871094 C 12.699219 26.835938 11.914062 27.621094 10.949219 27.621094 C 10.945312 27.621094 10.941406 27.621094 10.9375 27.621094 Z M 10.9375 27.621094 "/>
<path fill-rule="nonzero" fill="rgb(68.235294%, 79.607843%, 98.039216%)" fill-opacity="1" d="M 23.789062 5.800781 C 23.605469 4.289062 22.230469 3.214844 20.71875 3.402344 C 19.464844 3.554688 18.476562 4.546875 18.320312 5.800781 C 18.308594 5.910156 18.300781 6.019531 18.300781 6.128906 C 18.300781 7.652344 19.535156 8.882812 21.054688 8.882812 C 22.574219 8.882812 23.808594 7.652344 23.808594 6.128906 C 23.8125 6.019531 23.800781 5.910156 23.789062 5.800781 Z M 21.0625 7.890625 C 20.09375 7.894531 19.304688 7.109375 19.300781 6.140625 C 19.300781 5.171875 20.085938 4.382812 21.050781 4.382812 C 22.019531 4.378906 22.808594 5.164062 22.8125 6.128906 C 22.8125 7.097656 22.03125 7.882812 21.0625 7.890625 Z M 21.0625 7.890625 "/>
<path fill-rule="nonzero" fill="rgb(68.235294%, 79.607843%, 98.039216%)" fill-opacity="1" d="M 17 13.4375 C 16.355469 13.183594 15.644531 13.183594 15 13.4375 C 13.585938 13.988281 12.882812 15.582031 13.4375 16.996094 C 13.714844 17.714844 14.28125 18.28125 15 18.5625 C 15.644531 18.816406 16.355469 18.816406 17 18.5625 C 18.414062 18.011719 19.117188 16.414062 18.5625 15 C 18.285156 14.285156 17.71875 13.71875 17 13.4375 Z M 16 17.75 C 15.035156 17.75 14.25 16.964844 14.25 16 C 14.25 15.035156 15.035156 14.25 16 14.25 C 16.964844 14.25 17.75 15.035156 17.75 16 C 17.753906 16.964844 16.972656 17.746094 16.007812 17.75 C 16.003906 17.75 16.003906 17.75 16 17.75 Z M 16 17.75 "/>
<path fill-rule="nonzero" fill="rgb(25.882353%, 52.156863%, 95.686275%)" fill-opacity="1" d="M 15 18.5625 L 15 20.8125 C 15 22.1875 14.296875 23.46875 13.140625 24.214844 C 13.503906 24.691406 13.703125 25.273438 13.703125 25.875 C 13.703125 25.984375 13.691406 26.09375 13.683594 26.203125 C 15.71875 25.179688 17.003906 23.09375 17 20.8125 L 17 18.5625 C 16.355469 18.816406 15.644531 18.816406 15 18.5625 Z M 15 18.5625 "/>
<path fill-rule="nonzero" fill="rgb(25.882353%, 52.156863%, 95.686275%)" fill-opacity="1" d="M 8.644531 10.46875 C 8.644531 8.945312 7.414062 7.714844 5.890625 7.714844 C 4.371094 7.714844 3.136719 8.945312 3.136719 10.464844 C 3.136719 11.988281 4.371094 13.222656 5.890625 13.222656 C 7.410156 13.21875 8.644531 11.988281 8.644531 10.46875 Z M 8.644531 10.46875 "/>
<path fill-rule="nonzero" fill="rgb(25.882353%, 52.156863%, 95.686275%)" fill-opacity="1" d="M 6.890625 20.8125 L 6.890625 16.347656 C 6.890625 15.796875 6.441406 15.347656 5.890625 15.347656 C 5.339844 15.347656 4.890625 15.796875 4.890625 16.347656 L 4.890625 20.8125 C 4.890625 23.09375 6.175781 25.175781 8.210938 26.203125 C 8.199219 26.089844 8.191406 25.980469 8.191406 25.871094 C 8.191406 25.273438 8.390625 24.6875 8.753906 24.210938 C 7.59375 23.46875 6.890625 22.1875 6.890625 20.8125 Z M 6.890625 20.8125 "/>
<path fill-rule="nonzero" fill="rgb(25.882353%, 52.156863%, 95.686275%)" fill-opacity="1" d="M 26.109375 18.777344 C 24.589844 18.777344 23.355469 20.011719 23.355469 21.53125 C 23.355469 23.054688 24.585938 24.285156 26.109375 24.285156 C 27.628906 24.285156 28.863281 23.054688 28.863281 21.535156 L 28.863281 21.53125 C 28.859375 20.011719 27.628906 18.78125 26.109375 18.777344 Z M 26.109375 18.777344 "/>
<path fill-rule="nonzero" fill="rgb(25.882353%, 52.156863%, 95.686275%)" fill-opacity="1" d="M 25.109375 11.1875 L 25.109375 15.652344 C 25.109375 16.203125 25.558594 16.652344 26.109375 16.652344 C 26.664062 16.652344 27.109375 16.203125 27.109375 15.652344 L 27.109375 11.1875 C 27.109375 8.910156 25.824219 6.824219 23.789062 5.800781 C 23.800781 5.910156 23.8125 6.019531 23.8125 6.128906 C 23.808594 6.730469 23.613281 7.3125 23.246094 7.789062 C 24.40625 8.53125 25.109375 9.8125 25.109375 11.1875 Z M 25.109375 11.1875 "/>
<path fill-rule="nonzero" fill="rgb(25.882353%, 52.156863%, 95.686275%)" fill-opacity="1" d="M 18.320312 5.800781 C 16.28125 6.824219 15 8.90625 15 11.1875 L 15 13.4375 C 15.644531 13.183594 16.355469 13.183594 17 13.4375 L 17 11.1875 C 17 9.8125 17.703125 8.53125 18.859375 7.789062 C 18.496094 7.3125 18.296875 6.726562 18.296875 6.128906 C 18.300781 6.019531 18.3125 5.910156 18.320312 5.800781 Z M 18.320312 5.800781 "/>
</svg>
