<?xml version="1.0" encoding="UTF-8"?>
<svg xmlns="http://www.w3.org/2000/svg" xmlns:xlink="http://www.w3.org/1999/xlink" width="32" height="32" viewBox="0 0 32 32">
<path fill-rule="nonzero" fill="rgb(40%, 61.568627%, 96.470588%)" fill-opacity="1" d="M 2.667969 20.746094 L 6.667969 24 L 6.667969 8 L 2.667969 11.238281 Z M 2.667969 20.746094 "/>
<path fill-rule="nonzero" fill="rgb(25.882353%, 52.156863%, 95.686275%)" fill-opacity="1" d="M 2.667969 13.332031 L 6.667969 10.667969 L 6.667969 8 Z M 2.667969 13.332031 "/>
<path fill-rule="nonzero" fill="rgb(25.882353%, 52.156863%, 95.686275%)" fill-opacity="1" d="M 6.667969 24 L 6.667969 21.332031 L 2.667969 18.667969 Z M 6.667969 24 "/>
<path fill-rule="nonzero" fill="rgb(68.235294%, 79.607843%, 98.039216%)" fill-opacity="1" d="M 10.667969 26.667969 L 2.667969 18.667969 L 2.667969 24 L 8 29.332031 Z M 10.667969 26.667969 "/>
<path fill-rule="nonzero" fill="rgb(68.235294%, 79.607843%, 98.039216%)" fill-opacity="1" d="M 7.988281 2.679688 L 2.667969 8 L 2.679688 13.332031 L 10.652344 5.347656 Z M 7.988281 2.679688 "/>
<path fill-rule="nonzero" fill="rgb(40%, 61.568627%, 96.470588%)" fill-opacity="1" d="M 29.332031 11.265625 L 25.332031 8.011719 L 25.332031 24.011719 L 29.332031 20.785156 Z M 29.332031 11.265625 "/>
<path fill-rule="nonzero" fill="rgb(25.882353%, 52.156863%, 95.686275%)" fill-opacity="1" d="M 29.332031 18.679688 L 25.332031 21.347656 L 25.332031 24.011719 Z M 29.332031 18.679688 "/>
<path fill-rule="nonzero" fill="rgb(25.882353%, 52.156863%, 95.686275%)" fill-opacity="1" d="M 25.332031 8.011719 L 25.332031 10.679688 L 29.332031 13.347656 Z M 25.332031 8.011719 "/>
<path fill-rule="nonzero" fill="rgb(68.235294%, 79.607843%, 98.039216%)" fill-opacity="1" d="M 21.332031 5.347656 L 29.332031 13.347656 L 29.332031 8.011719 L 24 2.679688 Z M 21.332031 5.347656 "/>
<path fill-rule="nonzero" fill="rgb(68.235294%, 79.607843%, 98.039216%)" fill-opacity="1" d="M 24.011719 29.332031 L 29.332031 24.011719 L 29.320312 18.679688 L 21.347656 26.667969 Z M 24.011719 29.332031 "/>
<path fill-rule="nonzero" fill="rgb(68.235294%, 79.607843%, 98.039216%)" fill-opacity="1" d="M 12 16 C 12 16.738281 11.402344 17.332031 10.667969 17.332031 C 9.929688 17.332031 9.332031 16.738281 9.332031 16 C 9.332031 15.261719 9.929688 14.667969 10.667969 14.667969 C 11.402344 14.667969 12 15.261719 12 16 Z M 12 16 "/>
<path fill-rule="nonzero" fill="rgb(68.235294%, 79.607843%, 98.039216%)" fill-opacity="1" d="M 17.332031 16 C 17.332031 16.738281 16.738281 17.332031 16 17.332031 C 15.261719 17.332031 14.667969 16.738281 14.667969 16 C 14.667969 15.261719 15.261719 14.667969 16 14.667969 C 16.738281 14.667969 17.332031 15.261719 17.332031 16 Z M 17.332031 16 "/>
<path fill-rule="nonzero" fill="rgb(68.235294%, 79.607843%, 98.039216%)" fill-opacity="1" d="M 22.652344 16 C 22.652344 16.738281 22.054688 17.332031 21.320312 17.332031 C 20.582031 17.332031 19.988281 16.738281 19.988281 16 C 19.988281 15.261719 20.582031 14.667969 21.320312 14.667969 C 22.054688 14.667969 22.652344 15.261719 22.652344 16 Z M 22.652344 16 "/>
</svg>
