<?xml version="1.0" encoding="UTF-8"?>
<svg xmlns="http://www.w3.org/2000/svg" xmlns:xlink="http://www.w3.org/1999/xlink" width="32" height="32" viewBox="0 0 32 32">
<path fill-rule="evenodd" fill="rgb(68.235294%, 79.607843%, 98.039216%)" fill-opacity="1" d="M 6.226562 13.921875 L 6.226562 17.933594 L 16 23.132812 L 16 19.121094 Z M 6.226562 13.921875 "/>
<path fill-rule="evenodd" fill="rgb(68.235294%, 79.607843%, 98.039216%)" fill-opacity="1" d="M 6.226562 20.121094 L 6.226562 24.132812 L 16 29.332031 L 16 25.320312 Z M 6.226562 20.121094 "/>
<path fill-rule="evenodd" fill="rgb(40%, 61.568627%, 96.470588%)" fill-opacity="1" d="M 16 23.132812 L 25.773438 17.933594 L 25.773438 13.921875 L 16 19.121094 Z M 16 23.132812 "/>
<path fill-rule="evenodd" fill="rgb(40%, 61.568627%, 96.470588%)" fill-opacity="1" d="M 16 29.332031 L 25.773438 24.132812 L 25.773438 20.121094 L 16 25.320312 Z M 16 29.332031 "/>
<path fill-rule="evenodd" fill="rgb(25.882353%, 52.156863%, 95.686275%)" fill-opacity="1" d="M 25.773438 11.878906 L 25.773438 7.867188 L 16 2.667969 L 16 6.679688 Z M 25.773438 11.878906 "/>
<path fill-rule="evenodd" fill="rgb(40%, 61.568627%, 96.470588%)" fill-opacity="1" d="M 16 2.667969 L 6.226562 7.867188 L 6.226562 11.878906 L 16 6.679688 Z M 16 2.667969 "/>
<path fill-rule="evenodd" fill="rgb(68.235294%, 79.607843%, 98.039216%)" fill-opacity="1" d="M 6.226562 7.828125 L 6.226562 11.851562 L 16 17.054688 L 16 13.027344 Z M 6.226562 7.828125 "/>
<path fill-rule="evenodd" fill="rgb(40%, 61.568627%, 96.470588%)" fill-opacity="1" d="M 16 17.054688 L 25.773438 11.851562 L 25.773438 7.828125 L 16 13.027344 Z M 16 17.054688 "/>
</svg>
