<?xml version="1.0" encoding="UTF-8"?>
<svg xmlns="http://www.w3.org/2000/svg" xmlns:xlink="http://www.w3.org/1999/xlink" width="32" height="32" viewBox="0 0 32 32">
<path fill-rule="evenodd" fill="rgb(40%, 61.568627%, 96.470588%)" fill-opacity="1" d="M 21.625 8.601562 L 16 5.253906 C 15.171875 4.734375 14.578125 3.917969 14.332031 2.972656 C 14.332031 2.972656 14.546875 2.546875 14.839844 2.707031 C 15.132812 2.867188 19.507812 5.453125 21.839844 6.839844 C 22.679688 7.332031 22.160156 9.507812 22.160156 9.507812 C 22.164062 9.128906 21.957031 8.78125 21.625 8.601562 Z M 21.625 8.601562 "/>
<path fill-rule="evenodd" fill="rgb(68.235294%, 79.607843%, 98.039216%)" fill-opacity="1" d="M 23.320312 16.921875 C 23.335938 17.09375 23.253906 17.265625 23.105469 17.359375 L 21.773438 18.265625 L 21.773438 7.667969 C 21.773438 7.308594 22 6.921875 21.691406 6.734375 L 22.921875 7.640625 C 23.222656 7.824219 23.398438 8.15625 23.386719 8.507812 Z M 23.320312 16.921875 "/>
<path fill-rule="evenodd" fill="rgb(40%, 61.568627%, 96.470588%)" fill-opacity="1" d="M 16 18.132812 C 15.90625 18.132812 15.8125 18.105469 15.734375 18.054688 L 11.121094 15.308594 L 11.121094 16.507812 L 16 19.414062 L 16.386719 18.652344 C 16.386719 18.652344 16.09375 18.132812 16 18.132812 Z M 16 18.132812 "/>
<path fill-rule="evenodd" fill="rgb(40%, 61.568627%, 96.470588%)" fill-opacity="1" d="M 16.265625 20.535156 C 16.105469 20.640625 15.894531 20.640625 15.734375 20.535156 L 11.121094 17.785156 L 11.121094 18.667969 C 11.121094 18.855469 11.214844 19.03125 11.375 19.132812 L 15.746094 21.800781 C 15.902344 21.894531 16.097656 21.894531 16.253906 21.800781 C 16.375 21.582031 16.464844 21.347656 16.519531 21.105469 L 16.265625 20.585938 Z M 16.265625 20.535156 "/>
<path fill-rule="evenodd" fill="rgb(68.235294%, 79.607843%, 98.039216%)" fill-opacity="1" d="M 16 16.972656 L 20.878906 14.066406 L 20.878906 13.492188 C 20.882812 13.308594 20.785156 13.136719 20.625 13.039062 L 16.253906 10.375 C 16.097656 10.28125 15.902344 10.28125 15.746094 10.375 L 11.375 13.039062 C 11.21875 13.140625 11.121094 13.308594 11.121094 13.492188 L 11.121094 14.066406 Z M 16 16.972656 "/>
<path fill-rule="evenodd" fill="rgb(40%, 61.568627%, 96.470588%)" fill-opacity="1" d="M 16 15.773438 L 11.375 13.039062 C 11.21875 13.140625 11.121094 13.308594 11.121094 13.492188 L 11.121094 14.066406 L 16 16.972656 L 16.375 16.226562 Z M 16 15.773438 "/>
<path fill-rule="evenodd" fill="rgb(25.882353%, 52.156863%, 95.686275%)" fill-opacity="1" d="M 16 18.132812 L 16 19.464844 L 20.878906 16.558594 L 20.878906 15.359375 L 16.265625 18.054688 C 16.183594 18.09375 16.09375 18.121094 16 18.132812 Z M 16 18.132812 "/>
<path fill-rule="evenodd" fill="rgb(25.882353%, 52.156863%, 95.686275%)" fill-opacity="1" d="M 16.265625 20.535156 C 16.1875 20.585938 16.09375 20.613281 16 20.613281 C 16 20.988281 16 21.8125 16 21.8125 C 16.097656 21.8125 16.191406 21.789062 16.28125 21.746094 L 20.652344 19.078125 C 20.816406 18.984375 20.914062 18.804688 20.90625 18.613281 L 20.90625 17.734375 Z M 16.265625 20.535156 "/>
<path fill-rule="evenodd" fill="rgb(25.882353%, 52.156863%, 95.686275%)" fill-opacity="1" d="M 20.625 13.039062 L 16 15.773438 L 16 16.972656 L 20.878906 14.066406 L 20.878906 13.492188 C 20.882812 13.308594 20.785156 13.136719 20.625 13.039062 Z M 20.625 13.039062 "/>
<path fill-rule="evenodd" fill="rgb(40%, 61.568627%, 96.470588%)" fill-opacity="1" d="M 10.375 23.375 L 15.90625 26.667969 C 16.789062 27.1875 17.410156 28.0625 17.613281 29.066406 C 17.628906 29.164062 17.589844 29.257812 17.507812 29.3125 C 17.425781 29.363281 17.320312 29.363281 17.238281 29.308594 L 9.972656 25 C 9.265625 24.574219 9.878906 22.492188 9.878906 22.492188 C 9.878906 22.851562 10.066406 23.1875 10.375 23.375 Z M 10.375 23.375 "/>
<path fill-rule="evenodd" fill="rgb(68.235294%, 79.607843%, 98.039216%)" fill-opacity="1" d="M 8.679688 23.640625 L 8.679688 14.894531 C 8.6875 14.714844 8.78125 14.550781 8.933594 14.453125 L 10.265625 13.667969 L 10.265625 24.214844 C 10.265625 24.574219 10.265625 25.132812 10.546875 25.320312 L 9.132812 24.441406 C 8.859375 24.261719 8.691406 23.964844 8.679688 23.640625 Z M 8.679688 23.640625 "/>
<path fill-rule="evenodd" fill="rgb(40%, 61.568627%, 96.470588%)" fill-opacity="1" d="M 13.546875 7.28125 C 13.242188 7.105469 12.867188 7.105469 12.558594 7.28125 L 6.960938 10.667969 C 6.125 11.160156 5.121094 11.285156 4.1875 11.011719 C 4.089844 10.957031 4.03125 10.855469 4.03125 10.746094 C 4.03125 10.636719 4.089844 10.535156 4.1875 10.480469 C 4.425781 10.359375 12.613281 5.492188 12.613281 5.492188 C 12.921875 5.308594 13.601562 7.347656 13.601562 7.347656 Z M 13.546875 7.28125 "/>
<path fill-rule="evenodd" fill="rgb(68.235294%, 79.607843%, 98.039216%)" fill-opacity="1" d="M 13.535156 5.441406 L 20.625 9.640625 C 20.78125 9.71875 20.882812 9.878906 20.894531 10.054688 L 20.894531 11.625 L 12 6.347656 C 11.695312 6.171875 11.320312 6.171875 11.011719 6.347656 L 12.585938 5.425781 C 12.886719 5.246094 13.261719 5.246094 13.558594 5.425781 Z M 13.535156 5.441406 "/>
<path fill-rule="evenodd" fill="rgb(40%, 61.568627%, 96.470588%)" fill-opacity="1" d="M 18.425781 24.652344 C 18.730469 24.832031 19.109375 24.832031 19.414062 24.652344 L 25.011719 21.332031 C 25.859375 20.835938 26.875 20.714844 27.8125 21 C 27.910156 21.046875 27.972656 21.144531 27.972656 21.253906 C 27.972656 21.363281 27.910156 21.460938 27.8125 21.507812 L 19.375 26.507812 C 19.078125 26.691406 18.386719 24.640625 18.386719 24.640625 Z M 18.425781 24.652344 "/>
<path fill-rule="evenodd" fill="rgb(68.235294%, 79.607843%, 98.039216%)" fill-opacity="1" d="M 11.347656 22.332031 C 11.222656 22.214844 11.144531 22.0625 11.121094 21.894531 L 11.121094 20.347656 L 20 25.585938 C 20.296875 25.773438 20.675781 25.773438 20.972656 25.585938 L 19.398438 26.519531 C 19.097656 26.707031 18.714844 26.707031 18.414062 26.519531 Z M 11.347656 22.332031 "/>
<path fill-rule="evenodd" fill="rgb(40%, 61.568627%, 96.470588%)" fill-opacity="1" d="M 8.347656 13.078125 C 8.042969 13.261719 7.855469 13.589844 7.851562 13.945312 L 7.851562 20.613281 C 7.851562 21.625 7.429688 22.589844 6.691406 23.28125 C 6.625 23.34375 6.523438 23.359375 6.4375 23.320312 C 6.351562 23.285156 6.296875 23.199219 6.292969 23.105469 L 6.292969 13.027344 C 6.292969 12.652344 8.347656 13.027344 8.347656 13.027344 Z M 8.347656 13.078125 "/>
<path fill-rule="evenodd" fill="rgb(68.235294%, 79.607843%, 98.039216%)" fill-opacity="1" d="M 13.027344 8.691406 C 13.171875 8.601562 13.359375 8.601562 13.507812 8.691406 L 14.839844 9.480469 L 6.734375 14.226562 C 6.425781 14.414062 6.238281 14.746094 6.238281 15.105469 L 6.238281 13.253906 C 6.238281 12.898438 6.433594 12.566406 6.746094 12.398438 Z M 13.027344 8.691406 "/>
<path fill-rule="evenodd" fill="rgb(40%, 61.568627%, 96.470588%)" fill-opacity="1" d="M 24.226562 17.921875 L 24.226562 11.253906 C 24.226562 10.25 24.632812 9.289062 25.347656 8.585938 C 25.347656 8.585938 25.785156 8.441406 25.761719 8.867188 C 25.734375 9.292969 25.761719 18.691406 25.761719 18.691406 C 25.347656 19.1875 23.613281 18.691406 23.613281 18.691406 C 23.929688 18.550781 24.160156 18.261719 24.226562 17.921875 Z M 24.226562 17.921875 "/>
<path fill-rule="evenodd" fill="rgb(68.235294%, 79.607843%, 98.039216%)" fill-opacity="1" d="M 25.332031 19.480469 L 19.011719 23.28125 C 18.863281 23.375 18.671875 23.375 18.519531 23.28125 L 17.1875 22.519531 L 25.332031 17.625 C 25.640625 17.441406 25.828125 17.105469 25.828125 16.746094 L 25.828125 18.667969 C 25.800781 18.972656 25.332031 19.480469 25.332031 19.480469 Z M 25.332031 19.480469 "/>
</svg>
