<?xml version="1.0" encoding="UTF-8"?>
<svg xmlns="http://www.w3.org/2000/svg" xmlns:xlink="http://www.w3.org/1999/xlink" width="32" height="32" viewBox="0 0 32 32">
<path fill-rule="evenodd" fill="rgb(25.882353%, 52.156863%, 95.686275%)" fill-opacity="1" d="M 19.066406 13.332031 L 17.441406 14.960938 C 18.160156 15.574219 18.425781 16.570312 18.105469 17.464844 C 17.785156 18.355469 16.945312 18.957031 16 18.972656 C 15.3125 18.964844 14.660156 18.652344 14.226562 18.121094 L 12.601562 19.746094 C 13.703125 21.085938 15.46875 21.6875 17.160156 21.296875 C 18.851562 20.90625 20.175781 19.59375 20.578125 17.90625 C 20.980469 16.21875 20.398438 14.445312 19.066406 13.332031 Z M 19.066406 13.332031 "/>
<path fill-rule="evenodd" fill="rgb(68.235294%, 79.607843%, 98.039216%)" fill-opacity="1" d="M 16 8.347656 C 11.398438 8.347656 7.667969 12.078125 7.667969 16.679688 C 7.667969 21.28125 11.398438 25.011719 16 25.011719 C 20.601562 25.011719 24.332031 21.28125 24.332031 16.679688 C 24.332031 12.078125 20.601562 8.347656 16 8.347656 M 16 22.667969 C 13.597656 22.671875 11.429688 21.226562 10.507812 19.011719 C 9.585938 16.792969 10.09375 14.238281 11.792969 12.539062 C 13.488281 10.839844 16.046875 10.332031 18.261719 11.253906 C 20.480469 12.175781 21.925781 14.34375 21.921875 16.746094 C 21.921875 20.015625 19.269531 22.667969 16 22.667969 "/>
<path fill-rule="evenodd" fill="rgb(40%, 61.568627%, 96.470588%)" fill-opacity="1" d="M 28.828125 15.867188 L 25.414062 14.785156 C 25.5625 15.457031 25.636719 16.140625 25.640625 16.828125 C 25.636719 17.308594 25.601562 17.789062 25.535156 18.265625 L 28.828125 18.265625 C 29.109375 18.226562 29.324219 17.992188 29.332031 17.707031 L 29.332031 16.375 C 29.324219 16.089844 29.109375 15.851562 28.828125 15.8125 "/>
<path fill-rule="evenodd" fill="rgb(40%, 61.568627%, 96.470588%)" fill-opacity="1" d="M 16 7.359375 C 16.671875 7.359375 17.339844 7.425781 18 7.558594 L 16.773438 4.160156 C 16.679688 3.867188 16.492188 3.652344 16.214844 3.652344 L 15.707031 3.652344 C 15.421875 3.667969 15.191406 3.878906 15.148438 4.160156 L 14.078125 7.546875 C 14.710938 7.425781 15.355469 7.363281 16 7.359375 "/>
<path fill-rule="evenodd" fill="rgb(40%, 61.568627%, 96.470588%)" fill-opacity="1" d="M 6.359375 16.828125 C 6.363281 16.140625 6.4375 15.457031 6.585938 14.785156 L 3.171875 15.867188 C 2.890625 15.90625 2.675781 16.140625 2.667969 16.425781 L 2.667969 17.761719 C 2.675781 18.046875 2.890625 18.28125 3.171875 18.320312 L 6.464844 18.320312 C 6.398438 17.84375 6.363281 17.363281 6.359375 16.878906 "/>
<path fill-rule="evenodd" fill="rgb(68.235294%, 79.607843%, 98.039216%)" fill-opacity="1" d="M 16 13.332031 C 14.160156 13.332031 12.667969 14.824219 12.667969 16.667969 C 12.667969 18.507812 14.160156 20 16 20 C 17.839844 20 19.332031 18.507812 19.332031 16.667969 C 19.332031 14.824219 17.839844 13.332031 16 13.332031 Z M 16 18.332031 C 15.078125 18.332031 14.332031 17.585938 14.332031 16.667969 C 14.332031 15.746094 15.078125 15 16 15 C 16.921875 15 17.667969 15.746094 17.667969 16.667969 C 17.671875 17.109375 17.496094 17.539062 17.183594 17.855469 C 16.871094 18.167969 16.445312 18.347656 16 18.347656 Z M 16 18.332031 "/>
</svg>
