<?xml version="1.0" encoding="UTF-8"?>
<svg xmlns="http://www.w3.org/2000/svg" xmlns:xlink="http://www.w3.org/1999/xlink" width="32" height="32" viewBox="0 0 32 32">
<path fill-rule="evenodd" fill="rgb(40%, 61.568627%, 96.470588%)" fill-opacity="1" d="M 9.332031 2.667969 L 2.667969 9.332031 L 2.667969 22.667969 L 9.332031 29.332031 L 16 29.332031 L 12.667969 25.519531 L 11 25.519531 L 6.480469 21 L 6.480469 11 L 11 6.480469 L 12.667969 6.480469 L 16 2.667969 Z M 9.332031 2.667969 "/>
<path fill-rule="evenodd" fill="rgb(40%, 61.568627%, 96.470588%)" fill-opacity="1" d="M 19.332031 2.667969 L 16 6.480469 L 21 6.480469 L 25.519531 11 L 25.519531 21 L 21 25.519531 L 16 25.519531 L 19.332031 29.332031 L 22.667969 29.332031 L 29.332031 22.667969 L 29.332031 9.332031 L 22.667969 2.667969 Z M 19.332031 2.667969 "/>
<path fill-rule="evenodd" fill="rgb(25.882353%, 52.156863%, 95.686275%)" fill-opacity="1" d="M 16 22.667969 L 12.667969 19.332031 L 16 16 L 12.667969 12.667969 L 16 9.332031 L 12.667969 9.332031 L 9.332031 12.667969 L 9.332031 19.332031 L 12.667969 22.667969 Z M 16 22.667969 "/>
<path fill-rule="evenodd" fill="rgb(25.882353%, 52.156863%, 95.686275%)" fill-opacity="1" d="M 19.332031 9.332031 L 16 12.667969 L 19.332031 16 L 16 19.332031 L 19.332031 22.667969 L 22.667969 19.332031 L 22.667969 12.667969 Z M 19.332031 9.332031 "/>
</svg>
