<?xml version="1.0" encoding="UTF-8"?>
<svg xmlns="http://www.w3.org/2000/svg" xmlns:xlink="http://www.w3.org/1999/xlink" width="32" height="32" viewBox="0 0 32 32">
<path fill-rule="evenodd" fill="rgb(40%, 61.568627%, 96.470588%)" fill-opacity="1" d="M 4.359375 16.519531 L 6.773438 13.613281 C 6.808594 13.566406 6.871094 13.546875 6.929688 13.566406 C 6.984375 13.589844 7.019531 13.648438 7.011719 13.707031 L 7.011719 20 C 7.011719 20.054688 6.980469 20.101562 6.929688 20.121094 C 6.882812 20.140625 6.824219 20.128906 6.785156 20.09375 L 5.71875 19.027344 C 4.90625 20.546875 5.054688 22.398438 6.09375 23.773438 C 6.757812 24.652344 7.757812 25.214844 8.851562 25.332031 C 9.941406 25.46875 11.035156 25.140625 11.867188 24.425781 C 12.238281 24.113281 12.550781 23.734375 12.785156 23.308594 L 12.945312 23.039062 L 13.121094 23.292969 C 13.527344 23.902344 14.003906 24.464844 14.535156 24.972656 L 14.667969 25.09375 L 14.558594 25.238281 C 13.359375 26.945312 11.417969 27.96875 9.332031 28 C 5.59375 27.941406 2.605469 24.859375 2.667969 21.121094 C 2.660156 19.433594 3.261719 17.800781 4.359375 16.519531 Z M 4.359375 16.519531 "/>
<path fill-rule="evenodd" fill="rgb(25.882353%, 52.156863%, 95.686275%)" fill-opacity="1" d="M 27.640625 16.519531 L 25.226562 13.613281 C 25.191406 13.566406 25.128906 13.546875 25.070312 13.566406 C 25.015625 13.589844 24.980469 13.648438 24.988281 13.707031 L 24.988281 20 C 24.988281 20.054688 25.019531 20.101562 25.070312 20.121094 C 25.117188 20.140625 25.175781 20.128906 25.214844 20.09375 L 26.28125 19.027344 C 27.09375 20.546875 26.945312 22.398438 25.90625 23.773438 C 25.242188 24.652344 24.242188 25.214844 23.148438 25.332031 C 22.058594 25.46875 20.964844 25.140625 20.132812 24.425781 C 19.761719 24.113281 19.449219 23.734375 19.214844 23.308594 L 19.054688 23.039062 L 18.878906 23.292969 C 18.472656 23.902344 17.996094 24.464844 17.464844 24.972656 L 17.332031 25.09375 L 17.441406 25.238281 C 18.640625 26.945312 20.582031 27.96875 22.667969 28 C 26.40625 27.941406 29.394531 24.859375 29.332031 21.121094 C 29.339844 19.433594 28.738281 17.800781 27.640625 16.519531 Z M 27.640625 16.519531 "/>
<path fill-rule="evenodd" fill="rgb(40%, 61.568627%, 96.470588%)" fill-opacity="1" d="M 14.667969 8 C 14.667969 7.261719 15.261719 6.667969 16 6.667969 L 16 4 C 13.789062 4 12 5.789062 12 8 C 12 10.210938 13.789062 12 16 12 L 16 9.332031 C 15.261719 9.332031 14.667969 8.738281 14.667969 8 "/>
<path fill-rule="evenodd" fill="rgb(25.882353%, 52.156863%, 95.686275%)" fill-opacity="1" d="M 20 8 C 20 5.789062 18.210938 4 16 4 L 16 6.667969 C 16.738281 6.667969 17.332031 7.261719 17.332031 8 C 17.332031 8.738281 16.738281 9.332031 16 9.332031 L 16 12 C 18.210938 12 20 10.210938 20 8 "/>
<path fill-rule="evenodd" fill="rgb(68.235294%, 79.607843%, 98.039216%)" fill-opacity="1" d="M 16 22.667969 C 14.414062 22.667969 12 19.71875 12 17.121094 L 12 13.332031 L 16 12 L 16 9.332031 L 9.332031 12 L 9.332031 17.121094 C 9.332031 20.734375 12.574219 25.332031 16 25.332031 Z M 16 22.667969 "/>
<path fill-rule="evenodd" fill="rgb(40%, 61.568627%, 96.470588%)" fill-opacity="1" d="M 22.667969 17.121094 L 22.667969 12 L 16 9.332031 L 16 12 L 20 13.332031 L 20 17.121094 C 20 19.71875 17.585938 22.667969 16 22.667969 L 16 25.332031 C 19.425781 25.332031 22.667969 20.71875 22.667969 17.121094 "/>
<path fill-rule="evenodd" fill="rgb(25.882353%, 52.156863%, 95.686275%)" fill-opacity="1" d="M 16.507812 19.1875 C 16.238281 19.457031 15.875 19.609375 15.492188 19.609375 C 15.113281 19.609375 14.746094 19.457031 14.480469 19.1875 L 12.492188 17.199219 L 13.507812 16.1875 L 15.492188 18.171875 L 21.1875 12.492188 L 22.199219 13.507812 Z M 16.507812 19.1875 "/>
</svg>
