<?xml version="1.0" encoding="UTF-8"?>
<svg xmlns="http://www.w3.org/2000/svg" xmlns:xlink="http://www.w3.org/1999/xlink" width="32" height="32" viewBox="0 0 32 32">
<path fill-rule="nonzero" fill="rgb(40%, 61.568627%, 96.470588%)" fill-opacity="1" d="M 10.667969 2.667969 L 21.332031 2.667969 L 21.332031 5.332031 L 10.667969 5.332031 Z M 10.667969 2.667969 "/>
<path fill-rule="nonzero" fill="rgb(40%, 61.568627%, 96.470588%)" fill-opacity="1" d="M 22.054688 9.90625 L 21.878906 10.078125 L 24 12.214844 L 24.160156 12 C 23.558594 11.207031 22.851562 10.503906 22.054688 9.90625 Z M 22.054688 9.90625 "/>
<path fill-rule="nonzero" fill="rgb(40%, 61.568627%, 96.470588%)" fill-opacity="1" d="M 27.480469 8.734375 L 25.347656 6.601562 L 22.132812 9.8125 L 25.480469 10.734375 Z M 27.480469 8.734375 "/>
<path fill-rule="nonzero" fill="rgb(25.882353%, 52.156863%, 95.686275%)" fill-opacity="1" d="M 22.132812 9.8125 L 22.054688 9.90625 C 22.851562 10.503906 23.558594 11.207031 24.160156 12 L 25.492188 10.667969 Z M 22.132812 9.8125 "/>
<path fill-rule="nonzero" fill="rgb(40%, 61.568627%, 96.470588%)" fill-opacity="1" d="M 21.332031 18.667969 C 21.332031 21.613281 18.945312 24 16 24 C 13.054688 24 10.667969 21.613281 10.667969 18.667969 C 10.667969 15.722656 13.054688 13.332031 16 13.332031 C 18.945312 13.332031 21.332031 15.722656 21.332031 18.667969 Z M 21.332031 18.667969 "/>
<path fill-rule="nonzero" fill="rgb(68.235294%, 79.607843%, 98.039216%)" fill-opacity="1" d="M 16 24 C 18.945312 24 21.332031 21.613281 21.332031 18.667969 C 21.332031 15.722656 18.945312 13.332031 16 13.332031 L 16 18.667969 L 11.640625 21.761719 C 12.644531 23.167969 14.269531 24.003906 16 24 Z M 16 24 "/>
<path fill-rule="nonzero" fill="rgb(40%, 61.568627%, 96.470588%)" fill-opacity="1" d="M 16 29.332031 C 10.109375 29.332031 5.332031 24.558594 5.332031 18.667969 C 5.332031 12.777344 10.109375 8 16 8 C 21.890625 8 26.667969 12.777344 26.667969 18.667969 C 26.667969 24.558594 21.890625 29.332031 16 29.332031 Z M 16 26.667969 C 20.417969 26.667969 24 23.085938 24 18.667969 C 24 14.25 20.417969 10.667969 16 10.667969 C 11.582031 10.667969 8 14.25 8 18.667969 C 8 23.085938 11.582031 26.667969 16 26.667969 Z M 16 26.667969 "/>
</svg>
