<?xml version="1.0" encoding="UTF-8"?>
<svg xmlns="http://www.w3.org/2000/svg" xmlns:xlink="http://www.w3.org/1999/xlink" width="32" height="32" viewBox="0 0 32 32">
<path fill-rule="nonzero" fill="rgb(40%, 61.568627%, 96.470588%)" fill-opacity="1" d="M 2.667969 5.253906 L 7.105469 5.253906 L 7.105469 8.691406 L 2.667969 8.691406 Z M 2.667969 5.253906 "/>
<path fill-rule="nonzero" fill="rgb(40%, 61.568627%, 96.470588%)" fill-opacity="1" d="M 2.667969 11.265625 L 7.105469 11.265625 L 7.105469 14.707031 L 2.667969 14.707031 Z M 2.667969 11.265625 "/>
<path fill-rule="nonzero" fill="rgb(40%, 61.568627%, 96.470588%)" fill-opacity="1" d="M 2.667969 17.292969 L 7.105469 17.292969 L 7.105469 20.734375 L 2.667969 20.734375 Z M 2.667969 17.292969 "/>
<path fill-rule="nonzero" fill="rgb(40%, 61.568627%, 96.470588%)" fill-opacity="1" d="M 2.667969 23.308594 L 7.105469 23.308594 L 7.105469 26.746094 L 2.667969 26.746094 Z M 2.667969 23.308594 "/>
<path fill-rule="nonzero" fill="rgb(40%, 61.568627%, 96.470588%)" fill-opacity="1" d="M 24.894531 5.253906 L 29.332031 5.253906 L 29.332031 8.691406 L 24.894531 8.691406 Z M 24.894531 5.253906 "/>
<path fill-rule="nonzero" fill="rgb(40%, 61.568627%, 96.470588%)" fill-opacity="1" d="M 24.894531 11.265625 L 29.332031 11.265625 L 29.332031 14.707031 L 24.894531 14.707031 Z M 24.894531 11.265625 "/>
<path fill-rule="nonzero" fill="rgb(40%, 61.568627%, 96.470588%)" fill-opacity="1" d="M 24.894531 17.292969 L 29.332031 17.292969 L 29.332031 20.734375 L 24.894531 20.734375 Z M 24.894531 17.292969 "/>
<path fill-rule="nonzero" fill="rgb(40%, 61.568627%, 96.470588%)" fill-opacity="1" d="M 24.894531 23.308594 L 29.332031 23.308594 L 29.332031 26.746094 L 24.894531 26.746094 Z M 24.894531 23.308594 "/>
<path fill-rule="evenodd" fill="rgb(25.882353%, 52.156863%, 95.686275%)" fill-opacity="1" d="M 28.441406 8.691406 L 24.894531 8.691406 L 24.894531 5.253906 Z M 28.441406 8.691406 "/>
<path fill-rule="evenodd" fill="rgb(25.882353%, 52.156863%, 95.686275%)" fill-opacity="1" d="M 28.441406 14.707031 L 24.894531 14.707031 L 24.894531 11.265625 Z M 28.441406 14.707031 "/>
<path fill-rule="evenodd" fill="rgb(25.882353%, 52.156863%, 95.686275%)" fill-opacity="1" d="M 28.441406 20.734375 L 24.894531 20.734375 L 24.894531 17.292969 Z M 28.441406 20.734375 "/>
<path fill-rule="evenodd" fill="rgb(25.882353%, 52.156863%, 95.686275%)" fill-opacity="1" d="M 28.441406 26.761719 L 24.894531 26.761719 L 24.894531 23.308594 Z M 28.441406 26.761719 "/>
<path fill-rule="evenodd" fill="rgb(68.235294%, 79.607843%, 98.039216%)" fill-opacity="1" d="M 7.105469 29.332031 L 24.894531 29.332031 L 24.894531 2.667969 L 7.105469 2.667969 Z M 15.105469 17.332031 L 10.667969 17.332031 L 16.894531 7.011719 L 16.894531 14.667969 L 21.332031 14.667969 L 15.105469 24.988281 Z M 15.105469 17.332031 "/>
<path fill-rule="evenodd" fill="rgb(40%, 61.568627%, 96.470588%)" fill-opacity="1" d="M 15.105469 29.332031 L 15.105469 25.027344 L 21.332031 14.707031 L 16.894531 14.707031 L 16.894531 2.667969 L 24.894531 2.667969 L 24.894531 29.332031 Z M 15.105469 29.332031 "/>
</svg>
