<?xml version="1.0" encoding="UTF-8"?>
<svg xmlns="http://www.w3.org/2000/svg" xmlns:xlink="http://www.w3.org/1999/xlink" width="32" height="32" viewBox="0 0 32 32">
<path fill-rule="evenodd" fill="rgb(20%, 40.392157%, 83.921569%)" fill-opacity="1" d="M 7.199219 16.933594 L 12.535156 16.933594 L 12.535156 15.066406 L 7.199219 15.066406 Z M 7.199219 16.933594 "/>
<path fill-rule="evenodd" fill="rgb(20%, 40.392157%, 83.921569%)" fill-opacity="1" d="M 6.132812 27.199219 L 14.933594 18.398438 L 13.734375 17.199219 L 4.933594 26 Z M 6.132812 27.199219 "/>
<path fill-rule="evenodd" fill="rgb(20%, 40.392157%, 83.921569%)" fill-opacity="1" d="M 5.332031 6.535156 L 14.132812 15.332031 L 15.332031 14.132812 L 6.535156 5.332031 Z M 5.332031 6.535156 "/>
<path fill-rule="evenodd" fill="rgb(20%, 40.392157%, 83.921569%)" fill-opacity="1" d="M 19.464844 16.933594 L 24.800781 16.933594 L 24.800781 15.066406 L 19.464844 15.066406 Z M 19.464844 16.933594 "/>
<path fill-rule="evenodd" fill="rgb(20%, 40.392157%, 83.921569%)" fill-opacity="1" d="M 17.066406 18.398438 L 25.464844 26.667969 L 26.667969 25.464844 L 18.398438 17.066406 Z M 17.066406 18.398438 "/>
<path fill-rule="evenodd" fill="rgb(20%, 40.392157%, 83.921569%)" fill-opacity="1" d="M 19.332031 14 L 27.066406 6.132812 L 25.867188 4.933594 L 18 12.667969 Z M 19.332031 14 "/>
<path fill-rule="evenodd" fill="rgb(36.078431%, 52.156863%, 87.058824%)" fill-opacity="1" d="M 2 30 L 8 30 L 8 24 L 2 24 Z M 2 30 "/>
<path fill-rule="evenodd" fill="rgb(36.078431%, 52.156863%, 87.058824%)" fill-opacity="1" d="M 24 30 L 30 30 L 30 24 L 24 24 Z M 24 30 "/>
<path fill-rule="evenodd" fill="rgb(36.078431%, 52.156863%, 87.058824%)" fill-opacity="1" d="M 2 8 L 8 8 L 8 2 L 2 2 Z M 2 8 "/>
<path fill-rule="evenodd" fill="rgb(36.078431%, 52.156863%, 87.058824%)" fill-opacity="1" d="M 24 8 L 30 8 L 30 2 L 24 2 Z M 24 8 "/>
<path fill-rule="evenodd" fill="rgb(52.156863%, 64.313725%, 90.196078%)" fill-opacity="1" d="M 10.933594 21.066406 L 21.066406 21.066406 L 21.066406 10.933594 L 10.933594 10.933594 Z M 10.933594 21.066406 "/>
<path fill-rule="evenodd" fill="rgb(36.078431%, 52.156863%, 87.058824%)" fill-opacity="1" d="M 2 18.933594 L 8 18.933594 L 8 13.066406 L 2 13.066406 Z M 2 18.933594 "/>
<path fill-rule="evenodd" fill="rgb(36.078431%, 52.156863%, 87.058824%)" fill-opacity="1" d="M 24 18.933594 L 30 18.933594 L 30 13.066406 L 24 13.066406 Z M 24 18.933594 "/>
</svg>
