<?xml version="1.0" encoding="UTF-8"?>
<svg xmlns="http://www.w3.org/2000/svg" xmlns:xlink="http://www.w3.org/1999/xlink" width="32" height="32" viewBox="0 0 32 32">
<path fill-rule="evenodd" fill="rgb(52.156863%, 64.313725%, 90.196078%)" fill-opacity="1" d="M 2 2 L 2 30 L 16 30 L 16 2 Z M 8 10 L 5.066406 10 L 5.066406 6.933594 L 8 6.933594 Z M 8 14.933594 L 5.066406 14.933594 L 5.066406 12 L 8 12 Z M 8 20 L 5.066406 20 L 5.066406 17.066406 L 8 17.066406 Z M 8 25.066406 L 5.066406 25.066406 L 5.066406 22.132812 L 8 22.132812 Z M 13.066406 10 L 10 10 L 10 6.933594 L 12.933594 6.933594 L 12.933594 10 Z M 13.066406 14.933594 L 10 14.933594 L 10 12 L 12.933594 12 L 12.933594 14.933594 Z M 13.066406 20 L 10 20 L 10 17.066406 L 12.933594 17.066406 L 12.933594 20 Z M 13.066406 25.066406 L 10 25.066406 L 10 22.132812 L 12.933594 22.132812 L 12.933594 25.066406 Z M 13.066406 25.066406 "/>
<path fill-rule="evenodd" fill="rgb(36.078431%, 52.156863%, 87.058824%)" fill-opacity="1" d="M 9.066406 2 L 9.066406 30 L 16 30 L 16 2 Z M 13.066406 10 L 10 10 L 10 6.933594 L 12.933594 6.933594 L 12.933594 10 Z M 13.066406 14.933594 L 10 14.933594 L 10 12 L 12.933594 12 L 12.933594 14.933594 Z M 13.066406 20 L 10 20 L 10 17.066406 L 12.933594 17.066406 L 12.933594 20 Z M 13.066406 25.066406 L 10 25.066406 L 10 22.132812 L 12.933594 22.132812 L 12.933594 25.066406 Z M 13.066406 25.066406 "/>
<path fill-rule="evenodd" fill="rgb(52.156863%, 64.313725%, 90.196078%)" fill-opacity="1" d="M 16 14 L 16 30 L 30 30 L 30 14 Z M 22 20 L 19.066406 20 L 19.066406 17.066406 L 22 17.066406 Z M 22 25.066406 L 19.066406 25.066406 L 19.066406 22.132812 L 22 22.132812 Z M 26.933594 20 L 24 20 L 24 17.066406 L 26.933594 17.066406 Z M 26.933594 25.066406 L 24 25.066406 L 24 22.132812 L 26.933594 22.132812 Z M 26.933594 25.066406 "/>
<path fill-rule="evenodd" fill="rgb(36.078431%, 52.156863%, 87.058824%)" fill-opacity="1" d="M 22.933594 14 L 22.933594 30 L 29.867188 30 L 29.867188 14 Z M 26.933594 20 L 24 20 L 24 17.066406 L 26.933594 17.066406 Z M 26.933594 25.066406 L 24 25.066406 L 24 22.132812 L 26.933594 22.132812 Z M 26.933594 25.066406 "/>
<path fill-rule="evenodd" fill="rgb(52.156863%, 64.313725%, 90.196078%)" fill-opacity="1" d="M 16 10.933594 L 30 10.933594 L 30 13.867188 L 16 13.867188 Z M 16 10.933594 "/>
<path fill-rule="evenodd" fill="rgb(36.078431%, 52.156863%, 87.058824%)" fill-opacity="1" d="M 16 14 L 30 14 L 30 15.066406 L 16 15.066406 Z M 16 14 "/>
<path fill-rule="evenodd" fill="rgb(20%, 40.392157%, 83.921569%)" fill-opacity="1" d="M 16 10.933594 L 17.066406 10.933594 L 17.066406 13.867188 L 16 13.867188 Z M 16 10.933594 "/>
<path fill-rule="evenodd" fill="rgb(20%, 40.392157%, 83.921569%)" fill-opacity="1" d="M 16 14 L 17.066406 14 L 17.066406 30 L 16 30 Z M 16 14 "/>
</svg>
