<?xml version="1.0" encoding="UTF-8"?>
<svg xmlns="http://www.w3.org/2000/svg" xmlns:xlink="http://www.w3.org/1999/xlink" width="32" height="32" viewBox="0 0 32 32">
<path fill-rule="nonzero" fill="rgb(25.882353%, 52.156863%, 95.686275%)" fill-opacity="1" d="M 28.988281 17.1875 L 23.492188 22.691406 L 22.078125 21.265625 L 25.171875 18.1875 L 15.011719 18.1875 L 15.011719 16.1875 L 25.171875 16.1875 L 22.078125 13.09375 L 23.492188 11.679688 Z M 28.988281 17.1875 "/>
<path fill-rule="nonzero" fill="rgb(68.235294%, 79.607843%, 98.039216%)" fill-opacity="1" d="M 15.691406 6.347656 L 16.09375 6.746094 L 16.09375 8 L 15.691406 8.398438 C 12.855469 8.53125 10.464844 10.554688 9.867188 13.332031 L 9.691406 14.011719 L 9 14.078125 C 6.84375 14.203125 5.125 15.925781 5 18.078125 C 4.988281 18.261719 4.988281 18.445312 5 18.625 L 3.359375 20 C 3.113281 19.371094 2.988281 18.703125 2.988281 18.027344 C 3.09375 15.109375 5.238281 12.667969 8.121094 12.1875 C 9.121094 8.808594 12.171875 6.453125 15.691406 6.347656 Z M 15.691406 6.347656 "/>
<path fill-rule="nonzero" fill="rgb(25.882353%, 52.156863%, 95.686275%)" fill-opacity="1" d="M 18.679688 23.265625 L 8.507812 23.265625 L 11.601562 26.359375 L 10.1875 27.773438 L 4.679688 22.265625 L 10.1875 16.761719 L 11.601562 18.1875 L 8.507812 21.265625 L 18.679688 21.265625 Z M 18.679688 23.265625 "/>
<path fill-rule="nonzero" fill="rgb(40%, 61.568627%, 96.470588%)" fill-opacity="1" d="M 22.171875 9.988281 L 20.707031 11.320312 C 19.683594 9.5 17.78125 8.351562 15.691406 8.292969 L 15.691406 6.347656 C 18.328125 6.394531 20.761719 7.761719 22.171875 9.988281 Z M 22.171875 9.988281 "/>
</svg>
