<?xml version="1.0" encoding="UTF-8"?>
<svg xmlns="http://www.w3.org/2000/svg" xmlns:xlink="http://www.w3.org/1999/xlink" width="32" height="32" viewBox="0 0 32 32">
<path fill-rule="evenodd" fill="rgb(40%, 61.568627%, 96.470588%)" fill-opacity="1" d="M 21.839844 7.691406 L 15.054688 24.292969 L 16.945312 7.691406 Z M 21.839844 7.691406 "/>
<path fill-rule="evenodd" fill="rgb(68.235294%, 79.607843%, 98.039216%)" fill-opacity="1" d="M 16.945312 7.691406 L 15.054688 24.292969 L 10.160156 24.292969 Z M 16.945312 7.691406 "/>
<path fill-rule="evenodd" fill="rgb(68.235294%, 79.607843%, 98.039216%)" fill-opacity="1" d="M 4.945312 19.535156 L 3 24.292969 L 6.425781 24.292969 L 6.972656 19.535156 Z M 4.945312 19.535156 "/>
<path fill-rule="evenodd" fill="rgb(68.235294%, 79.607843%, 98.039216%)" fill-opacity="1" d="M 7.773438 12.652344 L 7.226562 17.425781 L 5.800781 17.425781 Z M 7.773438 12.652344 "/>
<path fill-rule="evenodd" fill="rgb(40%, 61.568627%, 96.470588%)" fill-opacity="1" d="M 12.640625 12.652344 L 12.625 12.691406 L 10.691406 17.425781 L 7.226562 17.425781 L 7.773438 12.652344 Z M 12.640625 12.652344 "/>
<path fill-rule="evenodd" fill="rgb(40%, 61.568627%, 96.470588%)" fill-opacity="1" d="M 29 7.691406 L 22.199219 24.308594 L 24.105469 7.691406 Z M 29 7.691406 "/>
<path fill-rule="evenodd" fill="rgb(68.235294%, 79.607843%, 98.039216%)" fill-opacity="1" d="M 24.105469 7.691406 L 22.199219 24.308594 L 17.308594 24.308594 Z M 24.105469 7.691406 "/>
<path fill-rule="evenodd" fill="rgb(40%, 61.568627%, 96.470588%)" fill-opacity="1" d="M 9.839844 19.535156 L 7.878906 24.292969 L 6.425781 24.292969 L 6.972656 19.535156 Z M 9.839844 19.535156 "/>
</svg>
