<?xml version="1.0" encoding="UTF-8"?>
<svg xmlns="http://www.w3.org/2000/svg" xmlns:xlink="http://www.w3.org/1999/xlink" width="32" height="32" viewBox="0 0 32 32">
<path fill-rule="nonzero" fill="rgb(25.882353%, 52.156863%, 95.686275%)" fill-opacity="1" d="M 18.433594 21.683594 L 19.707031 22.957031 C 19.820312 22.9375 19.9375 22.925781 20.054688 22.925781 C 21.089844 22.925781 21.925781 23.761719 21.925781 24.796875 C 21.925781 25.828125 21.089844 26.667969 20.054688 26.667969 C 19.023438 26.667969 18.183594 25.828125 18.183594 24.796875 C 18.183594 24.679688 18.195312 24.5625 18.214844 24.449219 L 16.941406 23.175781 Z M 20.054688 5.332031 C 21.089844 5.332031 21.925781 6.171875 21.925781 7.203125 C 21.925781 8.238281 21.089844 9.074219 20.054688 9.074219 C 19.9375 9.074219 19.820312 9.0625 19.707031 9.042969 L 12.75 16 L 15.945312 19.195312 L 18.144531 16.996094 L 19.632812 18.488281 L 13.765625 24.359375 C 13.796875 24.5 13.816406 24.644531 13.816406 24.796875 C 13.816406 25.828125 12.980469 26.667969 11.945312 26.667969 C 10.914062 26.667969 10.074219 25.828125 10.074219 24.796875 C 10.074219 23.761719 10.914062 22.925781 11.945312 22.925781 C 12.03125 22.925781 12.113281 22.929688 12.199219 22.941406 L 14.453125 20.6875 L 7.550781 13.785156 C 7.4375 13.804688 7.324219 13.816406 7.203125 13.816406 C 6.171875 13.816406 5.332031 12.976562 5.332031 11.945312 C 5.332031 10.910156 6.171875 10.074219 7.203125 10.074219 C 8.238281 10.074219 9.074219 10.910156 9.074219 11.945312 C 9.074219 12.0625 9.0625 12.179688 9.042969 12.292969 L 11.257812 14.507812 L 14.453125 11.3125 L 12.199219 9.058594 C 12.113281 9.070312 12.03125 9.074219 11.945312 9.074219 C 10.914062 9.074219 10.074219 8.238281 10.074219 7.203125 C 10.074219 6.171875 10.914062 5.332031 11.945312 5.332031 C 12.980469 5.332031 13.816406 6.171875 13.816406 7.203125 C 13.816406 7.355469 13.796875 7.5 13.765625 7.640625 L 15.945312 9.820312 L 18.214844 7.550781 C 18.195312 7.4375 18.183594 7.320312 18.183594 7.203125 C 18.183594 6.171875 19.023438 5.332031 20.054688 5.332031 Z M 24.796875 10.074219 C 25.828125 10.074219 26.667969 10.910156 26.667969 11.945312 C 26.667969 12.976562 25.828125 13.816406 24.796875 13.816406 C 24.644531 13.816406 24.5 13.796875 24.359375 13.765625 L 22.121094 16 L 24.359375 18.234375 C 24.5 18.203125 24.644531 18.183594 24.796875 18.183594 C 25.828125 18.183594 26.667969 19.023438 26.667969 20.054688 C 26.667969 21.089844 25.828125 21.925781 24.796875 21.925781 C 23.761719 21.925781 22.925781 21.089844 22.925781 20.054688 C 22.925781 19.96875 22.929688 19.886719 22.941406 19.804688 L 16.941406 13.800781 L 18.433594 12.308594 L 20.632812 14.507812 L 22.941406 12.195312 C 22.929688 12.113281 22.925781 12.03125 22.925781 11.945312 C 22.925781 10.910156 23.761719 10.074219 24.796875 10.074219 Z M 8.769531 16.996094 L 10.261719 18.488281 L 9.042969 19.707031 C 9.0625 19.820312 9.074219 19.9375 9.074219 20.054688 C 9.074219 21.089844 8.238281 21.925781 7.203125 21.925781 C 6.171875 21.925781 5.332031 21.089844 5.332031 20.054688 C 5.332031 19.023438 6.171875 18.183594 7.203125 18.183594 C 7.320312 18.183594 7.4375 18.195312 7.550781 18.214844 Z M 8.769531 16.996094 "/>
</svg>
