<?xml version="1.0" encoding="UTF-8"?>
<svg xmlns="http://www.w3.org/2000/svg" xmlns:xlink="http://www.w3.org/1999/xlink" width="32" height="32" viewBox="0 0 32 32">
<path fill-rule="nonzero" fill="rgb(25.882353%, 52.156863%, 95.686275%)" fill-opacity="1" d="M 6.253906 10.265625 L 12.507812 6.652344 L 12.507812 3.027344 L 3 8.507812 L 3.519531 9.148438 L 5.679688 10.320312 Z M 6.253906 10.265625 "/>
<path fill-rule="evenodd" fill="rgb(68.235294%, 79.607843%, 98.039216%)" fill-opacity="1" d="M 12.507812 23.148438 L 3 17.667969 L 3 14.214844 L 12.507812 19.707031 Z M 12.507812 25.507812 L 3 20 L 3 23.464844 L 12.507812 28.960938 Z M 12.507812 13.894531 L 6.253906 10.265625 L 3 8.507812 L 3 11.839844 L 12.507812 17.332031 "/>
<path fill-rule="evenodd" fill="rgb(40%, 61.568627%, 96.470588%)" fill-opacity="1" d="M 12.507812 28.972656 L 21.839844 23.640625 L 21.839844 20.132812 L 12.507812 25.464844 M 12.507812 19.667969 L 21.839844 14.332031 L 24.613281 14.332031 L 24.613281 17.441406 L 22.375 17.441406 L 12.507812 23.160156 Z M 12.507812 17.308594 L 22.386719 11.601562 L 25.640625 11.601562 L 25.640625 13.414062 L 28.988281 10.066406 L 25.640625 6.734375 L 25.640625 8.492188 L 21.8125 8.492188 L 20.171875 9.453125 L 18.761719 10.265625 L 15.132812 12.359375 L 12.464844 13.894531 Z M 12.507812 17.308594 "/>
<path fill-rule="evenodd" fill="rgb(40%, 61.568627%, 96.470588%)" fill-opacity="1" d="M 12.507812 6.652344 L 16.71875 9.09375 L 19.867188 7.28125 L 12.507812 3.027344 Z M 12.507812 6.652344 "/>
</svg>
