<?xml version="1.0" encoding="UTF-8"?>
<svg xmlns="http://www.w3.org/2000/svg" xmlns:xlink="http://www.w3.org/1999/xlink" width="32" height="32" viewBox="0 0 32 32">
<path fill-rule="nonzero" fill="rgb(25.882353%, 52.156863%, 95.686275%)" fill-opacity="1" d="M 26.320312 13.640625 L 26.734375 12.90625 "/>
<path fill-rule="nonzero" fill="rgb(25.882353%, 52.156863%, 95.686275%)" fill-opacity="1" d="M 9.09375 25.945312 L 10.359375 28.148438 L 23.011719 28.148438 L 29.332031 17.1875 L 26.800781 12.800781 L 20.480469 23.746094 L 10.359375 23.746094 Z M 9.09375 25.945312 "/>
<path fill-rule="nonzero" fill="rgb(25.882353%, 52.156863%, 95.686275%)" fill-opacity="1" d="M 22.90625 6.054688 L 21.640625 3.851562 L 8.988281 3.851562 L 2.667969 14.8125 L 5.199219 19.199219 L 11.519531 8.253906 L 21.640625 8.253906 Z M 22.90625 6.054688 "/>
<path fill-rule="nonzero" fill="rgb(40%, 61.568627%, 96.470588%)" fill-opacity="1" d="M 18.148438 17.761719 L 20.054688 18.972656 L 20.054688 13.320312 L 15.535156 10.640625 L 15.535156 13.253906 L 18.148438 14.800781 Z M 18.148438 17.761719 "/>
<path fill-rule="nonzero" fill="rgb(68.235294%, 79.607843%, 98.039216%)" fill-opacity="1" d="M 16.90625 21.332031 L 16.90625 15.707031 L 12.386719 13.039062 L 12.386719 18.480469 Z M 16.90625 21.332031 "/>
</svg>
