<?xml version="1.0" encoding="UTF-8"?>
<svg xmlns="http://www.w3.org/2000/svg" xmlns:xlink="http://www.w3.org/1999/xlink" width="32" height="32" viewBox="0 0 32 32">
<path fill-rule="nonzero" fill="rgb(40%, 61.568627%, 96.470588%)" fill-opacity="1" d="M 4 17.332031 L 3.09375 16.972656 L 3.09375 23.160156 L 5.933594 23.160156 L 5.933594 18.105469 C 5.226562 17.878906 4.574219 17.613281 4 17.332031 Z M 4 17.332031 "/>
<path fill-rule="nonzero" fill="rgb(68.235294%, 79.607843%, 98.039216%)" fill-opacity="1" d="M 5 14.667969 L 5.90625 15.027344 L 5.90625 3.027344 L 3 3.027344 L 3 13.960938 C 3.691406 14.160156 4.359375 14.425781 5 14.667969 Z M 5 14.667969 "/>
<path fill-rule="nonzero" fill="rgb(68.235294%, 79.607843%, 98.039216%)" fill-opacity="1" d="M 10.226562 16 C 10.714844 15.996094 11.199219 15.949219 11.679688 15.867188 L 11.679688 8.761719 L 8.773438 8.761719 L 8.773438 15.894531 C 9.253906 15.960938 9.742188 16 10.226562 16 Z M 10.226562 16 "/>
<path fill-rule="nonzero" fill="rgb(40%, 61.568627%, 96.470588%)" fill-opacity="1" d="M 10.226562 18.921875 C 9.742188 18.917969 9.257812 18.894531 8.773438 18.839844 L 8.773438 29 L 11.679688 29 L 11.679688 18.839844 C 11.199219 18.894531 10.710938 18.917969 10.226562 18.921875 Z M 10.226562 18.921875 "/>
<path fill-rule="nonzero" fill="rgb(68.235294%, 79.607843%, 98.039216%)" fill-opacity="1" d="M 15.464844 14.667969 C 16.105469 14.414062 16.800781 14.148438 17.441406 13.921875 L 17.441406 5.921875 L 14.585938 5.921875 L 14.585938 15.054688 C 14.851562 14.921875 15.160156 14.8125 15.464844 14.667969 Z M 15.464844 14.667969 "/>
<path fill-rule="nonzero" fill="rgb(40%, 61.568627%, 96.470588%)" fill-opacity="1" d="M 16.519531 17.332031 C 15.867188 17.585938 15.1875 17.851562 14.535156 18.078125 L 14.535156 26.078125 L 17.441406 26.078125 L 17.441406 16.988281 C 17.148438 17.121094 16.839844 17.238281 16.519531 17.332031 Z M 16.519531 17.332031 "/>
<path fill-rule="nonzero" fill="rgb(68.235294%, 79.607843%, 98.039216%)" fill-opacity="1" d="M 21.773438 13.121094 C 22.257812 13.117188 22.746094 13.148438 23.226562 13.214844 L 23.226562 3 L 20.320312 3 L 20.320312 13.226562 C 20.800781 13.15625 21.285156 13.121094 21.773438 13.121094 Z M 21.773438 13.121094 "/>
<path fill-rule="nonzero" fill="rgb(40%, 61.568627%, 96.470588%)" fill-opacity="1" d="M 21.773438 16 C 21.285156 16 20.800781 16.039062 20.320312 16.121094 L 20.320312 23.160156 L 23.226562 23.160156 L 23.226562 16.148438 C 22.746094 16.058594 22.261719 16.007812 21.773438 16 Z M 21.773438 16 "/>
<path fill-rule="nonzero" fill="rgb(40%, 61.568627%, 96.470588%)" fill-opacity="1" d="M 27 17.332031 L 26.09375 16.972656 L 26.09375 28.972656 L 29 28.972656 L 29 18.105469 C 28.308594 17.878906 27.652344 17.613281 27 17.332031 Z M 27 17.332031 "/>
<path fill-rule="nonzero" fill="rgb(68.235294%, 79.607843%, 98.039216%)" fill-opacity="1" d="M 28.066406 14.667969 L 28.988281 15.027344 L 28.988281 8.761719 L 26.078125 8.761719 L 26.078125 13.933594 C 26.773438 14.160156 27.425781 14.425781 28.066406 14.667969 Z M 28.066406 14.667969 "/>
</svg>
