<?xml version="1.0" encoding="UTF-8"?>
<svg xmlns="http://www.w3.org/2000/svg" xmlns:xlink="http://www.w3.org/1999/xlink" width="32" height="32" viewBox="0 0 32 32">
<path fill-rule="nonzero" fill="rgb(25.882353%, 52.156863%, 95.686275%)" fill-opacity="1" d="M 11.148438 10.398438 C 10.886719 10.609375 10.648438 10.84375 10.425781 11.09375 L 10.121094 10.785156 L 8.945312 9.613281 L 9.652344 8.90625 L 10.828125 10.078125 Z M 11.148438 10.398438 "/>
<path fill-rule="nonzero" fill="rgb(25.882353%, 52.156863%, 95.686275%)" fill-opacity="1" d="M 23.09375 22.347656 L 22.386719 23.054688 L 20.933594 21.585938 C 21.1875 21.375 21.425781 21.144531 21.640625 20.894531 Z M 23.09375 22.347656 "/>
<path fill-rule="nonzero" fill="rgb(25.882353%, 52.156863%, 95.686275%)" fill-opacity="1" d="M 8.773438 15.464844 C 8.757812 15.644531 8.757812 15.824219 8.773438 16 C 8.757812 16.15625 8.757812 16.3125 8.773438 16.464844 L 6.492188 16.464844 L 6.492188 15.464844 Z M 8.773438 15.464844 "/>
<path fill-rule="nonzero" fill="rgb(25.882353%, 52.156863%, 95.686275%)" fill-opacity="1" d="M 25.507812 15.464844 L 25.507812 16.464844 L 23.292969 16.464844 C 23.292969 16.320312 23.292969 16.160156 23.292969 16 C 23.292969 15.839844 23.292969 15.640625 23.292969 15.464844 Z M 25.507812 15.464844 "/>
<path fill-rule="nonzero" fill="rgb(25.882353%, 52.156863%, 95.686275%)" fill-opacity="1" d="M 10.386719 20.867188 C 10.601562 21.121094 10.839844 21.359375 11.09375 21.574219 L 9.613281 23.054688 L 8.90625 22.347656 Z M 10.386719 20.867188 "/>
<path fill-rule="nonzero" fill="rgb(25.882353%, 52.156863%, 95.686275%)" fill-opacity="1" d="M 21.199219 10.054688 L 22.347656 8.90625 L 23.054688 9.613281 L 21.601562 11.066406 C 21.386719 10.8125 21.148438 10.574219 20.894531 10.359375 Z M 21.199219 10.054688 "/>
<path fill-rule="nonzero" fill="rgb(25.882353%, 52.156863%, 95.686275%)" fill-opacity="1" d="M 16 23.292969 L 16.507812 23.292969 L 16.507812 25.519531 L 15.507812 25.519531 L 15.507812 23.265625 Z M 16 23.292969 "/>
<path fill-rule="nonzero" fill="rgb(25.882353%, 52.156863%, 95.686275%)" fill-opacity="1" d="M 16.535156 6.492188 L 16.535156 8.746094 C 16.382812 8.734375 16.230469 8.734375 16.078125 8.746094 C 15.902344 8.734375 15.722656 8.734375 15.546875 8.746094 L 15.546875 6.492188 Z M 16.535156 6.492188 "/>
<path fill-rule="evenodd" fill="rgb(40%, 61.568627%, 96.470588%)" fill-opacity="1" d="M 23.894531 15.464844 C 23.773438 13.71875 23.074219 12.0625 21.90625 10.761719 C 21.683594 10.511719 21.441406 10.28125 21.1875 10.066406 C 19.894531 8.921875 18.257812 8.242188 16.535156 8.132812 L 15.507812 8.132812 C 13.773438 8.242188 12.125 8.925781 10.828125 10.078125 C 10.578125 10.300781 10.34375 10.539062 10.121094 10.785156 C 8.96875 12.085938 8.277344 13.734375 8.160156 15.464844 C 8.160156 15.640625 8.160156 15.828125 8.160156 16 C 8.160156 16.171875 8.160156 16.320312 8.160156 16.464844 C 8.261719 18.203125 8.9375 19.859375 10.078125 21.171875 C 10.296875 21.425781 10.535156 21.660156 10.785156 21.878906 C 12.101562 23.054688 13.773438 23.753906 15.535156 23.867188 L 16.535156 23.867188 C 18.273438 23.753906 19.921875 23.0625 21.226562 21.90625 C 21.480469 21.691406 21.71875 21.457031 21.933594 21.199219 C 23.101562 19.890625 23.792969 18.21875 23.894531 16.464844 C 23.894531 16.320312 23.894531 16.160156 23.894531 16 C 23.894531 15.839844 23.90625 15.640625 23.894531 15.464844 Z M 16 22.878906 C 12.199219 22.878906 9.121094 19.800781 9.121094 16 C 9.121094 12.199219 12.199219 9.121094 16 9.121094 C 19.800781 9.121094 22.878906 12.199219 22.878906 16 C 22.878906 19.800781 19.800781 22.878906 16 22.878906 Z M 16 10.761719 C 13.117188 10.8125 10.820312 13.179688 10.855469 16.0625 C 10.886719 18.941406 13.242188 21.257812 16.125 21.238281 C 19.003906 21.222656 21.332031 18.882812 21.332031 16 C 21.328125 14.59375 20.765625 13.25 19.761719 12.265625 C 18.757812 11.28125 17.40625 10.738281 16 10.761719 Z M 16 10.761719 "/>
<path fill-rule="evenodd" fill="rgb(68.235294%, 79.607843%, 98.039216%)" fill-opacity="1" d="M 16 6.667969 C 15.035156 6.585938 14.289062 5.777344 14.289062 4.808594 C 14.289062 3.835938 15.035156 3.027344 16 2.945312 L 16 4 C 15.566406 4.054688 15.242188 4.421875 15.242188 4.859375 C 15.242188 5.296875 15.566406 5.664062 16 5.71875 Z M 16 6.667969 "/>
<path fill-rule="evenodd" fill="rgb(40%, 61.568627%, 96.470588%)" fill-opacity="1" d="M 16 6.667969 L 16 5.71875 C 16.433594 5.664062 16.757812 5.296875 16.757812 4.859375 C 16.757812 4.421875 16.433594 4.054688 16 4 L 16 3 C 16.878906 3.167969 17.515625 3.9375 17.515625 4.832031 C 17.515625 5.730469 16.878906 6.5 16 6.667969 Z M 16 6.667969 "/>
<path fill-rule="evenodd" fill="rgb(68.235294%, 79.607843%, 98.039216%)" fill-opacity="1" d="M 16 29 C 15.121094 28.832031 14.484375 28.0625 14.484375 27.167969 C 14.484375 26.269531 15.121094 25.5 16 25.332031 L 16 26.332031 C 15.628906 26.441406 15.371094 26.78125 15.371094 27.167969 C 15.371094 27.554688 15.628906 27.894531 16 28 Z M 16 29 "/>
<path fill-rule="evenodd" fill="rgb(40%, 61.568627%, 96.470588%)" fill-opacity="1" d="M 16 29 L 16 28 C 16.433594 27.945312 16.757812 27.578125 16.757812 27.140625 C 16.757812 26.703125 16.433594 26.335938 16 26.28125 L 16 25.332031 C 16.964844 25.414062 17.710938 26.222656 17.710938 27.191406 C 17.710938 28.164062 16.964844 28.972656 16 29.054688 Z M 16 29 "/>
<path fill-rule="evenodd" fill="rgb(68.235294%, 79.607843%, 98.039216%)" fill-opacity="1" d="M 8.121094 9.972656 C 7.097656 9.972656 6.265625 9.144531 6.265625 8.121094 C 6.265625 7.097656 7.097656 6.265625 8.121094 6.265625 L 8.121094 7.265625 C 7.648438 7.265625 7.265625 7.648438 7.265625 8.121094 C 7.265625 8.589844 7.648438 8.972656 8.121094 8.972656 Z M 8.121094 9.972656 "/>
<path fill-rule="evenodd" fill="rgb(40%, 61.568627%, 96.470588%)" fill-opacity="1" d="M 8.121094 9.972656 L 8.121094 8.972656 C 8.589844 8.972656 8.972656 8.589844 8.972656 8.121094 C 8.972656 7.648438 8.589844 7.265625 8.121094 7.265625 L 8.121094 6.265625 C 9.144531 6.265625 9.972656 7.097656 9.972656 8.121094 C 9.972656 9.144531 9.144531 9.972656 8.121094 9.972656 Z M 8.121094 9.972656 "/>
<path fill-rule="evenodd" fill="rgb(68.235294%, 79.607843%, 98.039216%)" fill-opacity="1" d="M 23.878906 25.734375 C 22.855469 25.734375 22.027344 24.902344 22.027344 23.878906 C 22.027344 22.855469 22.855469 22.027344 23.878906 22.027344 L 23.878906 23.027344 C 23.410156 23.027344 23.027344 23.410156 23.027344 23.878906 C 23.027344 24.351562 23.410156 24.734375 23.878906 24.734375 Z M 23.878906 25.734375 "/>
<path fill-rule="evenodd" fill="rgb(40%, 61.568627%, 96.470588%)" fill-opacity="1" d="M 23.878906 25.734375 L 23.878906 24.734375 C 24.351562 24.734375 24.734375 24.351562 24.734375 23.878906 C 24.734375 23.410156 24.351562 23.027344 23.878906 23.027344 L 23.878906 22.027344 C 24.902344 22.027344 25.734375 22.855469 25.734375 23.878906 C 25.734375 24.902344 24.902344 25.734375 23.878906 25.734375 Z M 23.878906 25.734375 "/>
<path fill-rule="evenodd" fill="rgb(68.235294%, 79.607843%, 98.039216%)" fill-opacity="1" d="M 4.851562 17.851562 C 3.828125 17.851562 3 17.023438 3 16 C 3 14.976562 3.828125 14.148438 4.851562 14.148438 L 4.851562 15.148438 C 4.382812 15.148438 4 15.527344 4 16 C 4 16.472656 4.382812 16.851562 4.851562 16.851562 Z M 4.851562 17.851562 "/>
<path fill-rule="evenodd" fill="rgb(40%, 61.568627%, 96.470588%)" fill-opacity="1" d="M 4.851562 17.851562 L 4.851562 16.851562 C 5.324219 16.851562 5.707031 16.472656 5.707031 16 C 5.707031 15.527344 5.324219 15.148438 4.851562 15.148438 L 4.851562 14.148438 C 5.875 14.148438 6.707031 14.976562 6.707031 16 C 6.707031 17.023438 5.875 17.851562 4.851562 17.851562 Z M 4.851562 17.851562 "/>
<path fill-rule="evenodd" fill="rgb(68.235294%, 79.607843%, 98.039216%)" fill-opacity="1" d="M 27.148438 17.851562 C 26.648438 17.863281 26.167969 17.671875 25.8125 17.320312 C 25.492188 16.957031 25.320312 16.484375 25.332031 16 C 25.339844 14.972656 26.175781 14.148438 27.199219 14.148438 L 27.199219 15.148438 C 26.726562 15.148438 26.339844 15.527344 26.332031 16 C 26.335938 16.226562 26.425781 16.441406 26.585938 16.601562 C 26.746094 16.769531 26.96875 16.863281 27.199219 16.851562 Z M 27.148438 17.851562 "/>
<path fill-rule="evenodd" fill="rgb(40%, 61.568627%, 96.470588%)" fill-opacity="1" d="M 27.148438 17.851562 L 27.148438 16.851562 C 27.617188 16.851562 28 16.472656 28 16 C 28 15.527344 27.617188 15.148438 27.148438 15.148438 L 27.148438 14.148438 C 28.171875 14.148438 29 14.976562 29 16 C 29 17.023438 28.171875 17.851562 27.148438 17.851562 Z M 27.148438 17.851562 "/>
<path fill-rule="evenodd" fill="rgb(68.235294%, 79.607843%, 98.039216%)" fill-opacity="1" d="M 8.078125 25.734375 C 7.578125 25.734375 7.097656 25.53125 6.746094 25.171875 C 6.398438 24.820312 6.214844 24.335938 6.238281 23.839844 C 6.28125 22.804688 7.136719 21.992188 8.171875 22 L 8.171875 23 C 7.679688 22.992188 7.269531 23.375 7.238281 23.867188 C 7.226562 24.085938 7.308594 24.300781 7.464844 24.453125 C 7.632812 24.617188 7.859375 24.707031 8.09375 24.707031 Z M 8.078125 25.734375 "/>
<path fill-rule="evenodd" fill="rgb(40%, 61.568627%, 96.470588%)" fill-opacity="1" d="M 8.078125 25.734375 L 8.078125 24.734375 C 8.574219 24.742188 8.984375 24.359375 9.011719 23.867188 C 9.027344 23.648438 8.945312 23.433594 8.785156 23.28125 C 8.617188 23.117188 8.394531 23.027344 8.160156 23.027344 L 8.160156 22.027344 C 8.660156 22.023438 9.144531 22.226562 9.492188 22.585938 C 9.84375 22.941406 10.027344 23.425781 10 23.921875 C 9.941406 24.9375 9.101562 25.734375 8.078125 25.734375 Z M 8.078125 25.734375 "/>
<path fill-rule="evenodd" fill="rgb(68.235294%, 79.607843%, 98.039216%)" fill-opacity="1" d="M 23.878906 9.972656 C 22.855469 9.972656 22.027344 9.144531 22.027344 8.121094 C 22.027344 7.097656 22.855469 6.265625 23.878906 6.265625 L 23.878906 7.265625 C 23.410156 7.265625 23.027344 7.648438 23.027344 8.121094 C 23.027344 8.589844 23.410156 8.972656 23.878906 8.972656 Z M 23.878906 9.972656 "/>
<path fill-rule="evenodd" fill="rgb(40%, 61.568627%, 96.470588%)" fill-opacity="1" d="M 23.878906 9.972656 L 23.878906 8.972656 C 24.351562 8.972656 24.734375 8.589844 24.734375 8.121094 C 24.734375 7.648438 24.351562 7.265625 23.878906 7.265625 L 23.878906 6.265625 C 24.902344 6.265625 25.734375 7.097656 25.734375 8.121094 C 25.734375 9.144531 24.902344 9.972656 23.878906 9.972656 Z M 23.878906 9.972656 "/>
<path fill-rule="evenodd" fill="rgb(68.235294%, 79.607843%, 98.039216%)" fill-opacity="1" d="M 16 10.761719 L 16 21.226562 C 14.066406 21.324219 12.238281 20.347656 11.242188 18.6875 C 10.246094 17.03125 10.246094 14.957031 11.242188 13.296875 C 12.238281 11.636719 14.066406 10.664062 16 10.761719 Z M 16 10.761719 "/>
<path fill-rule="evenodd" fill="rgb(40%, 61.568627%, 96.470588%)" fill-opacity="1" d="M 21.332031 16 C 21.332031 17.40625 20.769531 18.75 19.765625 19.734375 C 18.761719 20.71875 17.40625 21.253906 16 21.226562 L 16 10.761719 C 17.40625 10.734375 18.761719 11.277344 19.765625 12.261719 C 20.769531 13.246094 21.332031 14.59375 21.332031 16 Z M 21.332031 16 "/>
<path fill-rule="nonzero" fill="rgb(68.235294%, 79.607843%, 98.039216%)" fill-opacity="1" d="M 16.027344 17.386719 L 18.839844 17.386719 L 18.839844 18.386719 L 16.027344 18.386719 Z M 16.027344 17.386719 "/>
<path fill-rule="nonzero" fill="rgb(68.235294%, 79.607843%, 98.039216%)" fill-opacity="1" d="M 16.027344 15.558594 L 18.839844 15.558594 L 18.839844 16.558594 L 16.027344 16.558594 Z M 16.027344 15.558594 "/>
<path fill-rule="nonzero" fill="rgb(68.235294%, 79.607843%, 98.039216%)" fill-opacity="1" d="M 16.027344 13.746094 L 18.839844 13.746094 L 18.839844 14.746094 L 16.027344 14.746094 Z M 16.027344 13.746094 "/>
<path fill-rule="nonzero" fill="rgb(100%, 100%, 100%)" fill-opacity="1" d="M 13.214844 17.386719 L 16.027344 17.386719 L 16.027344 18.386719 L 13.214844 18.386719 Z M 13.214844 17.386719 "/>
<path fill-rule="nonzero" fill="rgb(100%, 100%, 100%)" fill-opacity="1" d="M 13.214844 15.558594 L 16.027344 15.558594 L 16.027344 16.558594 L 13.214844 16.558594 Z M 13.214844 15.558594 "/>
<path fill-rule="nonzero" fill="rgb(100%, 100%, 100%)" fill-opacity="1" d="M 13.214844 13.746094 L 16.027344 13.746094 L 16.027344 14.746094 L 13.214844 14.746094 Z M 13.214844 13.746094 "/>
</svg>
