<?xml version="1.0" encoding="UTF-8"?>
<svg xmlns="http://www.w3.org/2000/svg" xmlns:xlink="http://www.w3.org/1999/xlink" width="32" height="32" viewBox="0 0 32 32">
<path fill-rule="nonzero" fill="rgb(68.235294%, 79.607843%, 98.039216%)" fill-opacity="1" d="M 8.558594 17.332031 C 5.78125 17.472656 3.597656 19.769531 3.597656 22.554688 C 3.597656 25.335938 5.78125 27.632812 8.558594 27.773438 C 11.339844 27.632812 13.523438 25.335938 13.523438 22.554688 C 13.523438 19.769531 11.339844 17.472656 8.558594 17.332031 Z M 8 22.785156 L 7.160156 25.601562 L 6.054688 26.160156 L 6.878906 22.785156 L 6.054688 19.425781 L 7.160156 19.988281 Z M 8 26.160156 L 9.105469 22.785156 L 8 19.425781 L 12.425781 22.785156 Z M 8 26.160156 "/>
<path fill-rule="nonzero" fill="rgb(25.882353%, 52.156863%, 95.686275%)" fill-opacity="1" d="M 17 4.171875 L 9.960938 16.558594 C 10.550781 16.699219 11.117188 16.921875 11.640625 17.226562 L 16.972656 7.8125 L 22.734375 17.90625 L 17 12.078125 L 11.8125 17.332031 C 12.316406 17.65625 12.765625 18.058594 13.148438 18.519531 L 17 14.667969 L 23.09375 20.851562 L 17 18.09375 L 13.867188 19.492188 C 14.175781 20.019531 14.398438 20.589844 14.535156 21.1875 L 17 20.078125 L 22.8125 22.746094 L 14.667969 22.746094 C 14.660156 23.363281 14.558594 23.972656 14.375 24.558594 L 28.574219 24.558594 Z M 17 4.171875 "/>
</svg>
