<?xml version="1.0" encoding="UTF-8"?>
<svg xmlns="http://www.w3.org/2000/svg" xmlns:xlink="http://www.w3.org/1999/xlink" width="32" height="32" viewBox="0 0 32 32">
<path fill-rule="nonzero" fill="rgb(25.882353%, 52.156863%, 95.686275%)" fill-opacity="1" d="M 3.746094 12.492188 L 6.921875 6.839844 L 11 6.839844 L 11 9.332031 L 8.347656 9.332031 L 6.585938 12.453125 L 7.667969 14.265625 L 5.546875 15.507812 Z M 3.746094 12.492188 "/>
<path fill-rule="nonzero" fill="rgb(68.235294%, 79.607843%, 98.039216%)" fill-opacity="1" d="M 19.332031 17.425781 L 22.667969 15.507812 L 26 17.425781 L 26 21.28125 L 22.667969 23.199219 L 19.332031 21.28125 Z M 19.332031 17.425781 "/>
<path fill-rule="nonzero" fill="rgb(68.235294%, 79.607843%, 98.039216%)" fill-opacity="1" d="M 6 17.425781 L 9.332031 15.507812 L 12.667969 17.425781 L 12.667969 21.28125 L 9.332031 23.199219 L 6 21.28125 Z M 6 17.425781 "/>
<path fill-rule="nonzero" fill="rgb(68.235294%, 79.607843%, 98.039216%)" fill-opacity="1" d="M 12.667969 6.121094 L 16 4.199219 L 19.332031 6.121094 L 19.332031 9.960938 L 16 11.894531 L 12.667969 9.960938 Z M 12.667969 6.121094 "/>
<path fill-rule="nonzero" fill="rgb(25.882353%, 52.156863%, 95.686275%)" fill-opacity="1" d="M 22.667969 15.507812 L 26 17.425781 L 26 21.28125 L 22.667969 23.199219 Z M 22.667969 15.507812 "/>
<path fill-rule="nonzero" fill="rgb(25.882353%, 52.156863%, 95.686275%)" fill-opacity="1" d="M 9.332031 15.507812 L 12.667969 17.425781 L 12.667969 21.28125 L 9.332031 23.199219 Z M 9.332031 15.507812 "/>
<path fill-rule="nonzero" fill="rgb(25.882353%, 52.156863%, 95.686275%)" fill-opacity="1" d="M 16 4.199219 L 19.332031 6.121094 L 19.332031 9.960938 L 16 11.894531 Z M 16 4.199219 "/>
<path fill-rule="nonzero" fill="rgb(25.882353%, 52.156863%, 95.686275%)" fill-opacity="1" d="M 24.332031 14.265625 L 25.414062 12.464844 L 23.652344 9.332031 L 21 9.332031 L 21 6.839844 L 25.078125 6.839844 L 28.253906 12.492188 L 26.453125 15.507812 Z M 24.332031 14.265625 "/>
<path fill-rule="nonzero" fill="rgb(25.882353%, 52.156863%, 95.686275%)" fill-opacity="1" d="M 12.8125 27.667969 L 10.839844 24.386719 L 12.972656 23.148438 L 14.214844 25.171875 L 17.746094 25.171875 L 19 23.148438 L 21.132812 24.375 L 19.148438 27.667969 Z M 12.8125 27.667969 "/>
</svg>
