<?xml version="1.0" encoding="UTF-8"?>
<svg xmlns="http://www.w3.org/2000/svg" xmlns:xlink="http://www.w3.org/1999/xlink" width="32" height="32" viewBox="0 0 32 32">
<path fill-rule="nonzero" fill="rgb(25.882353%, 52.156863%, 95.686275%)" fill-opacity="1" d="M 16 0 L 3.066406 5.867188 L 3.066406 14.535156 C 2.933594 22.667969 8.535156 30.132812 16 32 C 23.464844 30.132812 28.933594 22.667969 28.933594 14.535156 L 28.933594 5.867188 Z M 16 0 "/>
<path fill-rule="nonzero" fill="rgb(15.686275%, 47.45098%, 91.764706%)" fill-opacity="1" d="M 28.933594 16 C 28.800781 17.066406 28.667969 18.132812 28.398438 18.933594 C 28.132812 20.132812 27.734375 21.066406 27.464844 21.734375 C 27.332031 22.132812 27.199219 22.398438 27.066406 22.667969 C 26.800781 23.066406 26.667969 23.464844 26.398438 23.867188 C 25.867188 24.800781 25.332031 25.464844 24.800781 26.132812 C 24.265625 26.800781 23.601562 27.464844 22.800781 28.265625 C 22 28.933594 21.867188 29.199219 20.933594 29.734375 C 20 30.265625 19.464844 30.667969 17.734375 31.332031 C 17.332031 31.601562 16.800781 31.734375 16 32 L 11.734375 26.132812 L 11.734375 8 L 22.265625 8 Z M 28.933594 16 "/>
<path fill-rule="nonzero" fill="rgb(100%, 100%, 100%)" fill-opacity="1" d="M 16 4.398438 C 20 4.398438 23.199219 7.601562 23.199219 11.734375 C 23.199219 14.132812 22.132812 16.265625 20.265625 17.601562 L 20.265625 26.265625 L 16 22.132812 L 11.734375 26.265625 L 11.734375 17.601562 C 10 16.265625 8.800781 14.132812 8.800781 11.734375 C 8.800781 7.601562 12 4.398438 16 4.398438 Z M 16 15.332031 C 18 15.332031 19.601562 13.734375 19.601562 11.734375 C 19.601562 9.734375 18 8 16 8 C 14 8 12.398438 9.601562 12.398438 11.601562 C 12.398438 13.601562 14 15.332031 16 15.332031 Z M 16 15.332031 "/>
</svg>
