<?xml version="1.0" encoding="UTF-8"?>
<svg xmlns="http://www.w3.org/2000/svg" xmlns:xlink="http://www.w3.org/1999/xlink" width="32" height="32" viewBox="0 0 32 32">
<path fill-rule="nonzero" fill="rgb(9.411765%, 35.294118%, 73.72549%)" fill-opacity="1" d="M 7.148438 5.949219 C 7.148438 7.164062 6.164062 8.148438 4.949219 8.148438 C 3.734375 8.148438 2.75 7.164062 2.75 5.949219 C 2.75 4.734375 3.734375 3.75 4.949219 3.75 C 6.164062 3.75 7.148438 4.734375 7.148438 5.949219 Z M 7.148438 5.949219 "/>
<path fill-rule="nonzero" fill="rgb(9.411765%, 35.294118%, 73.72549%)" fill-opacity="1" d="M 7.148438 15.921875 C 7.148438 17.136719 6.164062 18.121094 4.949219 18.121094 C 3.734375 18.121094 2.75 17.136719 2.75 15.921875 C 2.75 14.707031 3.734375 13.722656 4.949219 13.722656 C 6.164062 13.722656 7.148438 14.707031 7.148438 15.921875 Z M 7.148438 15.921875 "/>
<path fill-rule="nonzero" fill="rgb(9.411765%, 35.294118%, 73.72549%)" fill-opacity="1" d="M 7.148438 25.894531 C 7.148438 27.109375 6.164062 28.097656 4.949219 28.097656 C 3.734375 28.097656 2.75 27.109375 2.75 25.894531 C 2.75 24.679688 3.734375 23.695312 4.949219 23.695312 C 6.164062 23.695312 7.148438 24.679688 7.148438 25.894531 Z M 7.148438 25.894531 "/>
<path fill-rule="nonzero" fill="rgb(9.411765%, 35.294118%, 73.72549%)" fill-opacity="1" d="M 29.09375 15.925781 C 29.09375 17.441406 27.859375 18.675781 26.34375 18.675781 C 24.824219 18.675781 23.59375 17.441406 23.59375 15.925781 C 23.59375 14.40625 24.824219 13.175781 26.34375 13.175781 C 27.859375 13.175781 29.09375 14.40625 29.09375 15.925781 Z M 29.09375 15.925781 "/>
<path fill-rule="nonzero" fill="rgb(40%, 61.568627%, 96.470588%)" fill-opacity="1" d="M 9.269531 17.242188 L 13.917969 17.242188 C 14.101562 16.925781 14.300781 16.617188 14.515625 16.320312 L 14.792969 15.917969 C 14.503906 15.515625 14.222656 15.101562 13.945312 14.578125 L 9.269531 14.578125 C 9.371094 14.925781 9.433594 15.277344 9.453125 15.636719 L 9.453125 16.199219 C 9.433594 16.554688 9.371094 16.902344 9.269531 17.242188 Z M 9.269531 17.242188 "/>
<path fill-rule="nonzero" fill="rgb(9.411765%, 35.294118%, 73.72549%)" fill-opacity="1" d="M 18 11.875 L 17.695312 11.328125 L 17.324219 10.710938 L 16.742188 9.546875 C 15.074219 6.199219 13.351562 4.660156 9.878906 4.660156 L 9.269531 4.660156 C 9.394531 5.09375 9.457031 5.546875 9.453125 6 C 9.457031 6.453125 9.394531 6.902344 9.269531 7.335938 L 9.878906 7.335938 C 12.023438 7.335938 12.964844 8.019531 14.265625 10.390625 L 14.582031 10.964844 L 14.898438 11.609375 C 16.820312 15.488281 18.210938 16.960938 21.433594 17.285156 C 21.328125 16.84375 21.273438 16.394531 21.273438 15.945312 C 21.273438 15.492188 21.335938 15.042969 21.460938 14.605469 L 21.539062 14.605469 C 19.976562 14.460938 19.074219 13.777344 18 11.875 Z M 18 11.875 "/>
<path fill-rule="nonzero" fill="rgb(40%, 61.568627%, 96.470588%)" fill-opacity="1" d="M 15.5625 19.0625 L 15.246094 19.667969 L 14.742188 20.683594 L 14.421875 21.285156 L 14.117188 21.835938 C 12.898438 23.992188 11.945312 24.621094 9.878906 24.621094 L 9.269531 24.621094 C 9.371094 24.964844 9.433594 25.320312 9.453125 25.675781 L 9.453125 26.171875 C 9.433594 26.53125 9.371094 26.886719 9.269531 27.230469 L 10.222656 27.230469 C 13.417969 27.136719 15.140625 25.582031 16.847656 22.355469 L 17.5625 20.925781 L 17.839844 20.402344 L 18.082031 19.960938 C 18.273438 19.625 18.484375 19.304688 18.714844 18.996094 C 17.894531 18.6875 17.132812 18.234375 16.464844 17.660156 C 16.125 18.101562 15.824219 18.570312 15.5625 19.0625 Z M 15.5625 19.0625 "/>
</svg>
