<?xml version="1.0" encoding="UTF-8"?>
<svg xmlns="http://www.w3.org/2000/svg" xmlns:xlink="http://www.w3.org/1999/xlink" width="32" height="32" viewBox="0 0 32 32">
<path fill-rule="nonzero" fill="rgb(25.882353%, 52.156863%, 95.686275%)" fill-opacity="1" d="M 9.105469 25.945312 L 10.441406 28.148438 L 23.078125 28.148438 L 29.332031 17.1875 L 26.800781 12.800781 L 20.480469 23.746094 L 10.375 23.746094 Z M 9.105469 25.945312 "/>
<path fill-rule="nonzero" fill="rgb(25.882353%, 52.156863%, 95.686275%)" fill-opacity="1" d="M 22.894531 6.054688 L 21.558594 3.851562 L 8.988281 3.851562 L 2.667969 14.8125 L 5.199219 19.199219 L 11.535156 8.253906 L 21.640625 8.253906 Z M 22.894531 6.054688 "/>
<path fill-rule="nonzero" fill="rgb(40%, 61.568627%, 96.470588%)" fill-opacity="1" d="M 20.625 13.320312 L 18.851562 14.640625 L 18.851562 17.414062 L 20.625 18.746094 Z M 20.625 13.320312 "/>
<path fill-rule="nonzero" fill="rgb(68.235294%, 79.607843%, 98.039216%)" fill-opacity="1" d="M 14.386719 16.398438 L 13.878906 17.320312 L 12.667969 17.320312 L 13.425781 16.011719 L 12.667969 14.679688 L 13.878906 14.679688 L 14.386719 15.535156 L 17.71875 15.535156 L 17.71875 12.828125 L 15.011719 12.828125 L 15.585938 13.734375 L 16.585938 13.734375 L 16.585938 14.71875 L 14.960938 14.71875 L 13.746094 12.828125 L 11.375 12.828125 L 11.375 19.171875 L 13.746094 19.171875 L 14.960938 17.28125 L 16.585938 17.28125 L 16.585938 18.265625 L 15.585938 18.265625 L 15.011719 19.171875 L 17.71875 19.171875 L 17.71875 16.398438 Z M 14.386719 16.398438 "/>
</svg>
