<?xml version="1.0" encoding="UTF-8"?>
<svg xmlns="http://www.w3.org/2000/svg" xmlns:xlink="http://www.w3.org/1999/xlink" width="32" height="32" viewBox="0 0 32 32">
<path fill-rule="evenodd" fill="rgb(20%, 40.392157%, 83.921569%)" fill-opacity="1" d="M 5.011719 27.308594 L 27.308594 27.308594 C 27.867188 27.308594 28.320312 27.761719 28.320312 28.320312 C 28.320312 28.878906 27.867188 29.332031 27.308594 29.332031 L 5.011719 29.332031 Z M 5.011719 27.308594 "/>
<path fill-rule="evenodd" fill="rgb(20%, 40.392157%, 83.921569%)" fill-opacity="1" d="M 26.292969 4 L 26.292969 14.132812 C 26.292969 14.691406 26.746094 15.148438 27.308594 15.148438 C 27.867188 15.148438 28.320312 14.691406 28.320312 14.132812 L 28.320312 6.027344 C 28.320312 4.90625 27.414062 4 26.292969 4 Z M 26.292969 4 "/>
<path fill-rule="evenodd" fill="rgb(36.078431%, 52.156863%, 87.058824%)" fill-opacity="1" d="M 26.292969 4 L 20.214844 4 C 19.652344 4 19.199219 4.453125 19.199219 5.011719 C 19.199219 5.574219 19.652344 6.027344 20.214844 6.027344 L 26.292969 6.027344 Z M 26.292969 4 "/>
<path fill-rule="evenodd" fill="rgb(20%, 40.392157%, 83.921569%)" fill-opacity="1" d="M 28.320312 13.121094 L 20.214844 13.121094 C 19.652344 13.121094 19.199219 13.574219 19.199219 14.132812 C 19.199219 14.691406 19.652344 15.148438 20.214844 15.148438 L 28.320312 15.148438 Z M 28.320312 13.121094 "/>
<path fill-rule="evenodd" fill="rgb(20%, 40.392157%, 83.921569%)" fill-opacity="1" d="M 4 13.121094 L 12.105469 13.121094 C 12.667969 13.121094 13.121094 13.574219 13.121094 14.132812 C 13.121094 14.691406 12.667969 15.148438 12.105469 15.148438 L 4 15.148438 Z M 4 13.121094 "/>
<path fill-rule="evenodd" fill="rgb(20%, 40.392157%, 83.921569%)" fill-opacity="1" d="M 6.027344 4 L 6.027344 14.132812 C 6.027344 14.691406 5.574219 15.148438 5.011719 15.148438 C 4.453125 15.148438 4 14.691406 4 14.132812 L 4 6.027344 C 4 4.90625 4.90625 4 6.027344 4 Z M 6.027344 4 "/>
<path fill-rule="evenodd" fill="rgb(36.078431%, 52.156863%, 87.058824%)" fill-opacity="1" d="M 6.027344 4 L 12.105469 4 C 12.667969 4 13.121094 4.453125 13.121094 5.011719 C 13.121094 5.574219 12.667969 6.027344 12.105469 6.027344 L 6.027344 6.027344 Z M 6.027344 4 "/>
<path fill-rule="evenodd" fill="rgb(20%, 40.392157%, 83.921569%)" fill-opacity="1" d="M 26.039062 17.171875 L 26.039062 28.191406 C 26.039062 28.824219 26.550781 29.332031 27.179688 29.332031 C 27.808594 29.332031 28.320312 28.824219 28.320312 28.191406 L 28.320312 19.453125 C 28.320312 18.195312 27.300781 17.171875 26.039062 17.171875 Z M 26.039062 17.171875 "/>
<path fill-rule="evenodd" fill="rgb(36.078431%, 52.156863%, 87.058824%)" fill-opacity="1" d="M 26.039062 17.171875 L 20.304688 17.171875 C 19.695312 17.171875 19.199219 17.667969 19.199219 18.277344 C 19.199219 18.890625 19.695312 19.382812 20.304688 19.382812 L 26.039062 19.382812 Z M 26.039062 17.171875 "/>
<path fill-rule="evenodd" fill="rgb(20%, 40.392157%, 83.921569%)" fill-opacity="1" d="M 6.28125 17.171875 L 6.28125 28.191406 C 6.28125 28.824219 5.769531 29.332031 5.140625 29.332031 C 4.511719 29.332031 4 28.824219 4 28.191406 L 4 19.453125 C 4 18.195312 5.019531 17.171875 6.28125 17.171875 Z M 6.28125 17.171875 "/>
<path fill-rule="evenodd" fill="rgb(36.078431%, 52.156863%, 87.058824%)" fill-opacity="1" d="M 6.28125 17.171875 L 12.015625 17.171875 C 12.625 17.171875 13.121094 17.667969 13.121094 18.277344 C 13.121094 18.890625 12.625 19.382812 12.015625 19.382812 L 6.28125 19.382812 Z M 6.28125 17.171875 "/>
<path fill-rule="evenodd" fill="rgb(20%, 40.392157%, 83.921569%)" fill-opacity="1" d="M 22.238281 10.6875 L 17.78125 10.6875 L 17.78125 15.148438 L 15.550781 15.148438 L 15.550781 10.6875 L 11.09375 10.6875 L 11.09375 8.457031 L 15.550781 8.457031 L 15.550781 4 L 17.78125 4 L 17.78125 8.457031 L 22.238281 8.457031 Z M 22.238281 10.6875 "/>
<path fill-rule="evenodd" fill="rgb(20%, 40.392157%, 83.921569%)" fill-opacity="1" d="M 20.660156 22.683594 C 21.25 22.089844 22.214844 22.089844 22.808594 22.683594 C 23.402344 23.277344 23.402344 24.242188 22.808594 24.835938 C 22.214844 25.429688 21.25 25.429688 20.660156 24.835938 C 20.066406 24.242188 20.066406 23.277344 20.660156 22.683594 Z M 20.660156 22.683594 "/>
<path fill-rule="evenodd" fill="rgb(20%, 40.392157%, 83.921569%)" fill-opacity="1" d="M 15.085938 24.835938 C 14.492188 24.242188 14.492188 23.277344 15.085938 22.683594 C 15.679688 22.089844 16.640625 22.089844 17.234375 22.683594 C 17.828125 23.277344 17.828125 24.242188 17.234375 24.835938 C 16.640625 25.429688 15.679688 25.429688 15.085938 24.835938 "/>
<path fill-rule="evenodd" fill="rgb(36.078431%, 52.156863%, 87.058824%)" fill-opacity="1" d="M 15.085938 19.769531 C 14.492188 19.175781 14.492188 18.210938 15.085938 17.617188 C 15.679688 17.023438 16.640625 17.023438 17.234375 17.617188 C 17.828125 18.210938 17.828125 19.175781 17.234375 19.769531 C 16.640625 20.363281 15.679688 20.363281 15.085938 19.769531 "/>
<path fill-rule="evenodd" fill="rgb(20%, 40.392157%, 83.921569%)" fill-opacity="1" d="M 9.511719 24.835938 C 8.917969 24.242188 8.917969 23.277344 9.511719 22.683594 C 10.105469 22.089844 11.066406 22.089844 11.660156 22.683594 C 12.253906 23.277344 12.253906 24.242188 11.660156 24.835938 C 11.066406 25.429688 10.105469 25.429688 9.511719 24.835938 "/>
</svg>
