<?xml version="1.0" encoding="UTF-8"?>
<svg xmlns="http://www.w3.org/2000/svg" xmlns:xlink="http://www.w3.org/1999/xlink" width="32" height="32" viewBox="0 0 32 32">
<path fill-rule="nonzero" fill="rgb(40%, 61.568627%, 96.470588%)" fill-opacity="1" d="M 14.039062 15.574219 L 10.574219 13.480469 C 10.625 13.328125 10.65625 13.171875 10.667969 13.011719 C 10.671875 12.273438 10.230469 11.601562 9.546875 11.316406 C 8.863281 11.027344 8.074219 11.183594 7.546875 11.707031 C 7.023438 12.234375 6.867188 13.019531 7.15625 13.707031 C 7.441406 14.390625 8.113281 14.832031 8.851562 14.828125 C 9.3125 14.828125 9.75 14.652344 10.078125 14.332031 L 13.558594 16.425781 C 13.632812 16.480469 13.722656 16.507812 13.8125 16.507812 C 14.035156 16.5 14.226562 16.347656 14.28125 16.132812 C 14.339844 15.917969 14.253906 15.691406 14.066406 15.574219 Z M 8.828125 13.828125 C 8.378906 13.828125 8.011719 13.460938 8.011719 13.011719 C 8.011719 12.5625 8.378906 12.199219 8.828125 12.199219 C 9.277344 12.199219 9.640625 12.5625 9.640625 13.011719 C 9.640625 13.460938 9.277344 13.828125 8.828125 13.828125 Z M 8.828125 13.828125 "/>
<path fill-rule="nonzero" fill="rgb(68.235294%, 79.607843%, 98.039216%)" fill-opacity="1" d="M 12.265625 25.105469 C 8.578125 25.121094 5.246094 22.914062 3.824219 19.511719 C 2.402344 16.109375 3.171875 12.1875 5.773438 9.574219 C 8.375 6.960938 12.292969 6.175781 15.703125 7.582031 C 19.109375 8.988281 21.332031 12.3125 21.332031 16 C 21.320312 21.007812 17.273438 25.070312 12.265625 25.105469 Z M 12.265625 8.90625 C 9.390625 8.902344 6.792969 10.628906 5.691406 13.289062 C 4.585938 15.945312 5.195312 19.003906 7.226562 21.039062 C 9.261719 23.074219 12.324219 23.679688 14.980469 22.578125 C 17.636719 21.472656 19.367188 18.875 19.359375 16 C 19.351562 12.085938 16.179688 8.914062 12.265625 8.90625 Z M 12.265625 8.90625 "/>
<path fill-rule="nonzero" fill="rgb(25.882353%, 52.156863%, 95.686275%)" fill-opacity="1" d="M 26.359375 20.71875 C 25.832031 20.71875 25.316406 20.894531 24.894531 21.214844 L 17.214844 16.8125 C 17.28125 16.546875 17.320312 16.273438 17.332031 16 C 17.324219 15.726562 17.289062 15.453125 17.226562 15.1875 L 24.90625 10.785156 C 25.328125 11.105469 25.84375 11.28125 26.375 11.28125 C 27.742188 11.273438 28.84375 10.160156 28.839844 8.792969 C 28.835938 7.421875 27.722656 6.316406 26.355469 6.320312 C 24.988281 6.324219 23.878906 7.433594 23.878906 8.800781 C 23.875 8.882812 23.875 8.96875 23.878906 9.054688 L 16.121094 13.492188 C 14.789062 12.359375 12.800781 12.464844 11.59375 13.734375 C 10.390625 15.003906 10.390625 16.996094 11.59375 18.265625 C 12.800781 19.535156 14.789062 19.640625 16.121094 18.507812 L 23.878906 22.945312 C 23.875 23.03125 23.875 23.117188 23.878906 23.199219 C 23.878906 24.570312 24.992188 25.679688 26.359375 25.679688 C 27.730469 25.679688 28.839844 24.570312 28.839844 23.199219 C 28.839844 21.832031 27.730469 20.71875 26.359375 20.71875 Z M 26.359375 20.71875 "/>
</svg>
