<?xml version="1.0" encoding="UTF-8"?>
<svg xmlns="http://www.w3.org/2000/svg" xmlns:xlink="http://www.w3.org/1999/xlink" width="32" height="32" viewBox="0 0 32 32">
<path fill-rule="evenodd" fill="rgb(36.078431%, 52.156863%, 87.058824%)" fill-opacity="1" d="M 13.066406 29.066406 L 18.933594 29.066406 L 18.933594 26.933594 L 13.066406 26.933594 Z M 13.066406 29.066406 "/>
<path fill-rule="evenodd" fill="rgb(20%, 40.392157%, 83.921569%)" fill-opacity="1" d="M 16 29.066406 L 18.933594 29.066406 L 18.933594 26.933594 L 16 26.933594 Z M 16 29.066406 "/>
<path fill-rule="evenodd" fill="rgb(36.078431%, 52.156863%, 87.058824%)" fill-opacity="1" d="M 26.265625 30.933594 L 30.132812 20.132812 L 24.933594 17.199219 L 21.734375 27.066406 L 23.601562 30.933594 Z M 26.265625 30.933594 "/>
<path fill-rule="evenodd" fill="rgb(20%, 40.392157%, 83.921569%)" fill-opacity="1" d="M 24.933594 17.199219 L 21.734375 27.066406 L 23.601562 30.933594 Z M 24.933594 17.199219 "/>
<path fill-rule="evenodd" fill="rgb(52.156863%, 64.313725%, 90.196078%)" fill-opacity="1" d="M 5.734375 30.933594 L 1.867188 20.132812 L 7.066406 17.199219 L 10.265625 27.066406 L 8.398438 30.933594 Z M 5.734375 30.933594 "/>
<path fill-rule="evenodd" fill="rgb(36.078431%, 52.156863%, 87.058824%)" fill-opacity="1" d="M 7.066406 17.199219 L 10.265625 27.066406 L 8.398438 30.933594 Z M 7.066406 17.199219 "/>
<path fill-rule="evenodd" fill="rgb(52.156863%, 64.313725%, 90.196078%)" fill-opacity="1" d="M 16 15.332031 C 14.132812 15.332031 12.667969 13.867188 12.667969 12 C 12.667969 10.132812 14.132812 8.667969 16 8.667969 C 17.867188 8.667969 19.332031 10.132812 19.332031 12 C 19.332031 13.867188 17.867188 15.332031 16 15.332031 Z M 16 1.066406 L 9.066406 8 L 9.066406 15.332031 L 12.132812 26 L 19.867188 26 L 22.933594 15.332031 L 22.933594 8 Z M 16 1.066406 "/>
<path fill-rule="evenodd" fill="rgb(36.078431%, 52.156863%, 87.058824%)" fill-opacity="1" d="M 16 1.066406 L 16 8.800781 C 17.867188 8.800781 19.332031 10.265625 19.332031 12.132812 C 19.332031 14 17.867188 15.464844 16 15.464844 L 16 26.132812 L 19.867188 26.132812 L 22.933594 15.464844 L 22.933594 8 Z M 16 1.066406 "/>
</svg>
