<?xml version="1.0" encoding="UTF-8"?>
<svg xmlns="http://www.w3.org/2000/svg" xmlns:xlink="http://www.w3.org/1999/xlink" width="32" height="32" viewBox="0 0 32 32">
<path fill-rule="nonzero" fill="rgb(25.882353%, 52.156863%, 95.686275%)" fill-opacity="1" d="M 13.332031 22.667969 L 18.667969 22.667969 L 18.667969 28 L 13.332031 28 Z M 13.332031 22.667969 "/>
<path fill-rule="evenodd" fill="rgb(40%, 61.568627%, 96.470588%)" fill-opacity="1" d="M 25.332031 14.453125 L 19.546875 8.679688 L 18.199219 10.027344 L 25.332031 17.132812 Z M 25.332031 14.453125 "/>
<path fill-rule="evenodd" fill="rgb(25.882353%, 52.156863%, 95.686275%)" fill-opacity="1" d="M 20.894531 12.707031 L 18.199219 10.027344 L 19.546875 8.679688 L 20.894531 10.027344 Z M 20.894531 12.707031 "/>
<path fill-rule="evenodd" fill="rgb(68.235294%, 79.607843%, 98.039216%)" fill-opacity="1" d="M 14.585938 16.320312 L 13.238281 14.972656 L 19.546875 8.679688 L 20.894531 10.027344 Z M 14.585938 16.320312 "/>
<path fill-rule="evenodd" fill="rgb(40%, 61.568627%, 96.470588%)" fill-opacity="1" d="M 14.585938 16.320312 L 10.773438 12.519531 L 12.132812 11.171875 L 15.933594 14.972656 Z M 14.585938 16.320312 "/>
<path fill-rule="evenodd" fill="rgb(25.882353%, 52.156863%, 95.686275%)" fill-opacity="1" d="M 13.441406 15.171875 L 10.773438 12.519531 L 12.132812 11.171875 L 13.441406 12.480469 Z M 13.441406 15.171875 "/>
<path fill-rule="evenodd" fill="rgb(68.235294%, 79.607843%, 98.039216%)" fill-opacity="1" d="M 7.253906 18.652344 L 13.441406 12.480469 L 12.09375 11.132812 L 6.667969 16.546875 L 6.667969 18.652344 Z M 7.253906 18.652344 "/>
<path fill-rule="evenodd" fill="rgb(40%, 61.568627%, 96.470588%)" fill-opacity="1" d="M 29.332031 5.398438 C 29.210938 4.722656 28.679688 4.1875 28 4.066406 L 4 4.066406 C 3.320312 4.1875 2.789062 4.722656 2.667969 5.398438 L 2.667969 22.667969 C 2.769531 23.355469 3.3125 23.898438 4 24 L 28 24 C 28.6875 23.898438 29.230469 23.355469 29.332031 22.667969 Z M 26.667969 21.332031 L 5.332031 21.332031 L 5.332031 6.667969 L 26.667969 6.667969 Z M 26.667969 21.332031 "/>
<path fill-rule="evenodd" fill="rgb(40%, 61.568627%, 96.470588%)" fill-opacity="1" d="M 10.667969 29.332031 C 10.667969 28.414062 11.078125 28 12 28 L 20 28 C 20.921875 28 21.332031 28.414062 21.332031 29.332031 Z M 10.667969 29.332031 "/>
</svg>
