<?xml version="1.0" encoding="UTF-8"?>
<svg xmlns="http://www.w3.org/2000/svg" xmlns:xlink="http://www.w3.org/1999/xlink" width="32" height="32" viewBox="0 0 32 32">
<path fill-rule="nonzero" fill="rgb(25.882353%, 52.156863%, 95.686275%)" fill-opacity="1" d="M 16 4 L 16 6.667969 L 9.363281 6.667969 L 9.363281 25.332031 L 16 25.332031 L 16 28 L 8.871094 28 C 7.71875 28 6.769531 27.03125 6.675781 25.804688 L 6.667969 25.601562 L 6.667969 6.398438 C 6.667969 5.078125 7.664062 4 8.882812 4 Z M 16 4 "/>
<path fill-rule="nonzero" fill="rgb(25.882353%, 52.156863%, 95.686275%)" fill-opacity="1" d="M 12 20.667969 L 16 20.667969 L 16 22.667969 L 12 22.667969 Z M 12 20.667969 "/>
<path fill-rule="nonzero" fill="rgb(25.882353%, 52.156863%, 95.686275%)" fill-opacity="1" d="M 12 16.667969 L 16 16.667969 L 16 18.667969 L 12 18.667969 Z M 12 16.667969 "/>
<path fill-rule="nonzero" fill="rgb(25.882353%, 52.156863%, 95.686275%)" fill-opacity="1" d="M 12 12.667969 L 16 12.667969 L 16 14.667969 L 12 14.667969 Z M 12 12.667969 "/>
<path fill-rule="evenodd" fill="rgb(25.882353%, 52.156863%, 95.686275%)" fill-opacity="1" d="M 24 26 C 24 24.894531 23.105469 24 22 24 C 20.894531 24 20 24.894531 20 26 C 20 27.105469 20.894531 28 22 28 C 23.105469 28 24 27.105469 24 26 Z M 24 26 "/>
<path fill-rule="evenodd" fill="rgb(25.882353%, 52.156863%, 95.686275%)" fill-opacity="1" d="M 26.667969 14 C 26.667969 12.894531 25.769531 12 24.667969 12 C 23.5625 12 22.667969 12.894531 22.667969 14 C 22.667969 15.105469 23.5625 16 24.667969 16 C 25.769531 16 26.667969 15.105469 26.667969 14 Z M 26.667969 14 "/>
<path fill-rule="evenodd" fill="rgb(25.882353%, 52.156863%, 95.686275%)" fill-opacity="1" d="M 22.667969 7.332031 C 22.667969 8.4375 21.769531 9.332031 20.667969 9.332031 C 19.5625 9.332031 18.667969 8.4375 18.667969 7.332031 C 18.667969 6.230469 19.5625 5.332031 20.667969 5.332031 C 21.769531 5.332031 22.667969 6.230469 22.667969 7.332031 Z M 22.667969 7.332031 "/>
<path fill="none" stroke-width="1" stroke-linecap="butt" stroke-linejoin="miter" stroke="rgb(25.882353%, 52.156863%, 95.686275%)" stroke-opacity="1" stroke-miterlimit="4" d="M 7.999023 7.5 L 8.813477 7.5 C 10.729492 7.5 10.489258 6.796875 10.489258 3.500977 " transform="matrix(1.333333, 0, 0, 1.333333, 6.666667, 4)"/>
<path fill="none" stroke-width="1" stroke-linecap="butt" stroke-linejoin="miter" stroke="rgb(25.882353%, 52.156863%, 95.686275%)" stroke-opacity="1" stroke-miterlimit="4" d="M 7.999023 10.494141 L 8.813477 10.494141 C 12.589844 10.494141 13.544922 10.716797 13.498047 8.499023 " transform="matrix(1.333333, 0, 0, 1.333333, 6.666667, 4)"/>
<path fill="none" stroke-width="1" stroke-linecap="butt" stroke-linejoin="miter" stroke="rgb(25.882353%, 52.156863%, 95.686275%)" stroke-opacity="1" stroke-miterlimit="4" d="M 7.999023 15.491211 L 8.517578 15.491211 C 11.297852 15.49707 11.529297 15.713867 11.49707 13.499023 " transform="matrix(1.333333, 0, 0, -1.333333, 6.666667, 42.666667)"/>
</svg>
