<?xml version="1.0" encoding="UTF-8"?>
<svg xmlns="http://www.w3.org/2000/svg" xmlns:xlink="http://www.w3.org/1999/xlink" width="32" height="32" viewBox="0 0 32 32">
<path fill-rule="nonzero" fill="rgb(25.882353%, 52.156863%, 95.686275%)" fill-opacity="1" d="M 22.238281 25.253906 L 17.078125 25.253906 L 5.90625 11.265625 L 2.667969 11.265625 L 2.667969 6.691406 L 7.921875 6.691406 L 19.121094 20.679688 L 22.238281 20.679688 L 22.238281 17.054688 L 29.332031 22.960938 L 22.238281 28.867188 Z M 22.238281 25.253906 "/>
<path fill-rule="nonzero" fill="rgb(40%, 61.568627%, 96.470588%)" fill-opacity="1" d="M 16.613281 14.453125 L 19.121094 11.320312 L 22.238281 11.320312 L 22.238281 14.945312 L 29.332031 9.039062 L 22.238281 3.132812 L 22.238281 6.746094 L 17.078125 6.746094 L 13.773438 10.894531 Z M 16.613281 14.453125 "/>
<path fill-rule="nonzero" fill="rgb(40%, 61.568627%, 96.470588%)" fill-opacity="1" d="M 8.441406 17.546875 L 5.90625 20.734375 L 2.667969 20.734375 L 2.667969 25.308594 L 7.921875 25.308594 L 11.28125 21.105469 Z M 8.441406 17.546875 "/>
</svg>
