<?xml version="1.0" encoding="UTF-8"?>
<svg xmlns="http://www.w3.org/2000/svg" xmlns:xlink="http://www.w3.org/1999/xlink" width="32" height="32" viewBox="0 0 32 32">
<path fill-rule="nonzero" fill="rgb(25.882353%, 52.156863%, 95.686275%)" fill-opacity="1" d="M 15.863281 21.589844 C 16.941406 21.589844 17.816406 22.429688 17.816406 23.460938 C 17.816406 24.496094 16.941406 25.332031 15.863281 25.332031 C 14.785156 25.332031 13.910156 24.496094 13.910156 23.460938 C 13.910156 22.429688 14.785156 21.589844 15.863281 21.589844 Z M 18.578125 19.164062 L 19.539062 20.769531 L 20.65625 20.769531 C 20.921875 20.03125 21.648438 19.503906 22.507812 19.503906 C 23.585938 19.503906 24.460938 20.34375 24.460938 21.375 C 24.460938 22.410156 23.585938 23.246094 22.507812 23.246094 C 21.664062 23.246094 20.945312 22.734375 20.671875 22.019531 L 19.40625 22.019531 C 19.015625 22.011719 18.65625 21.808594 18.464844 21.480469 L 17.398438 19.707031 L 14.324219 19.707031 L 13.261719 21.480469 C 13.070312 21.808594 12.710938 22.011719 12.320312 22.019531 L 11.054688 22.019531 C 10.78125 22.734375 10.0625 23.246094 9.21875 23.246094 C 8.140625 23.246094 7.265625 22.410156 7.265625 21.375 C 7.265625 20.34375 8.140625 19.503906 9.21875 19.503906 C 10.078125 19.503906 10.804688 20.03125 11.066406 20.769531 L 12.1875 20.769531 L 13.179688 19.109375 L 11.644531 16.554688 L 9.128906 16.558594 C 8.882812 17.230469 8.242188 17.722656 7.476562 17.792969 L 7.289062 17.800781 C 6.207031 17.800781 5.332031 16.964844 5.332031 15.929688 C 5.332031 14.898438 6.207031 14.0625 7.289062 14.0625 C 8.136719 14.0625 8.863281 14.582031 9.128906 15.304688 L 11.546875 15.308594 L 13.125 12.726562 L 12.183594 11.160156 L 11.0625 11.160156 C 10.792969 11.882812 10.070312 12.402344 9.21875 12.402344 C 8.140625 12.402344 7.265625 11.566406 7.265625 10.535156 C 7.265625 9.5 8.140625 8.664062 9.21875 8.664062 C 10.070312 8.664062 10.792969 9.183594 11.0625 9.90625 L 12.320312 9.910156 C 12.710938 9.914062 13.070312 10.117188 13.261719 10.445312 L 14.289062 12.15625 L 17.4375 12.15625 L 18.464844 10.445312 C 18.65625 10.117188 19.015625 9.914062 19.40625 9.910156 L 20.664062 9.90625 C 20.933594 9.183594 21.65625 8.664062 22.507812 8.664062 C 23.585938 8.664062 24.460938 9.5 24.460938 10.535156 C 24.460938 11.566406 23.585938 12.402344 22.507812 12.402344 C 21.65625 12.402344 20.933594 11.882812 20.664062 11.160156 L 19.539062 11.15625 L 18.5625 12.785156 L 20.085938 15.308594 L 22.871094 15.304688 C 23.117188 14.632812 23.757812 14.140625 24.523438 14.070312 L 24.710938 14.0625 C 25.792969 14.0625 26.667969 14.898438 26.667969 15.929688 C 26.667969 16.964844 25.792969 17.800781 24.710938 17.800781 C 23.863281 17.800781 23.140625 17.28125 22.871094 16.558594 L 20.179688 16.554688 Z M 15.863281 6.667969 C 16.941406 6.667969 17.816406 7.503906 17.816406 8.539062 C 17.816406 9.570312 16.941406 10.410156 15.863281 10.410156 C 14.785156 10.410156 13.910156 9.570312 13.910156 8.539062 C 13.910156 7.503906 14.785156 6.667969 15.863281 6.667969 Z M 15.863281 6.667969 "/>
</svg>
