<?xml version="1.0" encoding="UTF-8"?>
<svg xmlns="http://www.w3.org/2000/svg" xmlns:xlink="http://www.w3.org/1999/xlink" width="32" height="32" viewBox="0 0 32 32">
<path fill-rule="nonzero" fill="rgb(25.882353%, 52.156863%, 95.686275%)" fill-opacity="1" d="M 19.8125 7.253906 C 16.757812 5.335938 12.757812 5.9375 10.398438 8.667969 C 9.226562 9.988281 8.589844 11.699219 8.613281 13.464844 C 8.621094 15.886719 9.824219 18.148438 11.828125 19.507812 L 11.601562 19.878906 L 10.851562 20.09375 C 9.667969 22.171875 9.226562 22.761719 8.105469 24.734375 L 10.078125 25.867188 C 11.214844 23.867188 11.640625 23.28125 12.8125 21.226562 L 12.601562 20.414062 L 12.785156 20.066406 C 16.289062 21.722656 20.472656 20.363281 22.332031 16.96875 C 24.195312 13.574219 23.089844 9.316406 19.8125 7.253906 Z M 17.253906 18.320312 C 14.558594 19.054688 11.78125 17.464844 11.046875 14.773438 C 10.3125 12.078125 11.902344 9.300781 14.597656 8.570312 C 17.289062 7.835938 20.066406 9.425781 20.800781 12.121094 C 21.523438 14.808594 19.9375 17.578125 17.253906 18.320312 Z M 17.253906 18.320312 "/>
<path fill-rule="nonzero" fill="rgb(40%, 61.568627%, 96.470588%)" fill-opacity="1" d="M 2.734375 11.707031 L 2.90625 10.28125 L 4.480469 10.28125 L 4.480469 10.746094 L 3.359375 10.746094 L 3.359375 11.347656 C 3.707031 11.164062 4.128906 11.222656 4.414062 11.492188 C 4.574219 11.691406 4.652344 11.945312 4.640625 12.199219 C 4.640625 12.367188 4.597656 12.53125 4.519531 12.679688 C 4.453125 12.824219 4.339844 12.941406 4.199219 13.011719 C 4.046875 13.105469 3.871094 13.144531 3.691406 13.132812 C 3.527344 13.140625 3.363281 13.101562 3.214844 13.027344 C 3.074219 12.964844 2.957031 12.867188 2.867188 12.746094 C 2.761719 12.625 2.691406 12.476562 2.667969 12.320312 L 3.226562 12.320312 C 3.226562 12.421875 3.269531 12.519531 3.347656 12.585938 C 3.417969 12.65625 3.515625 12.691406 3.613281 12.679688 C 3.726562 12.695312 3.84375 12.644531 3.90625 12.546875 C 3.984375 12.433594 4.015625 12.296875 4 12.160156 C 4.007812 12.027344 3.964844 11.898438 3.878906 11.800781 C 3.792969 11.710938 3.671875 11.660156 3.546875 11.667969 C 3.429688 11.667969 3.320312 11.703125 3.226562 11.773438 Z M 2.734375 11.707031 "/>
<path fill-rule="nonzero" fill="rgb(68.235294%, 79.607843%, 98.039216%)" fill-opacity="1" d="M 7.265625 13.09375 L 6.667969 13.09375 L 6.667969 10.945312 L 5.988281 11.148438 L 5.988281 10.667969 L 7.160156 10.253906 Z M 7.265625 13.09375 "/>
<path fill-rule="nonzero" fill="rgb(68.235294%, 79.607843%, 98.039216%)" fill-opacity="1" d="M 4 16.878906 L 3.453125 16.878906 L 3.453125 14.734375 L 2.785156 14.933594 L 2.785156 14.480469 L 4 14.066406 Z M 4 16.878906 "/>
<path fill-rule="nonzero" fill="rgb(40%, 61.568627%, 96.470588%)" fill-opacity="1" d="M 7.8125 15.71875 C 7.828125 16.035156 7.746094 16.347656 7.574219 16.613281 C 7.195312 16.960938 6.617188 16.960938 6.238281 16.613281 C 6.058594 16.363281 5.96875 16.054688 5.988281 15.746094 L 5.988281 15.226562 C 5.964844 14.910156 6.046875 14.597656 6.226562 14.332031 C 6.601562 13.980469 7.183594 13.980469 7.558594 14.332031 C 7.734375 14.585938 7.824219 14.890625 7.8125 15.199219 Z M 7.253906 15.148438 C 7.257812 14.980469 7.226562 14.816406 7.160156 14.667969 C 7.09375 14.558594 6.976562 14.5 6.851562 14.507812 C 6.734375 14.496094 6.625 14.554688 6.558594 14.652344 C 6.488281 14.804688 6.457031 14.96875 6.464844 15.132812 L 6.464844 15.8125 C 6.457031 15.992188 6.488281 16.167969 6.558594 16.332031 C 6.621094 16.445312 6.742188 16.507812 6.867188 16.492188 C 6.988281 16.503906 7.101562 16.441406 7.160156 16.332031 C 7.230469 16.179688 7.261719 16.007812 7.253906 15.839844 Z M 7.253906 15.148438 "/>
<path fill-rule="nonzero" fill="rgb(68.235294%, 79.607843%, 98.039216%)" fill-opacity="1" d="M 25.507812 12.988281 L 24.960938 12.988281 L 24.960938 10.828125 L 24.28125 11.039062 L 24.28125 10.585938 L 25.453125 10.160156 Z M 25.507812 12.988281 "/>
<path fill-rule="nonzero" fill="rgb(40%, 61.568627%, 96.470588%)" fill-opacity="1" d="M 27.492188 11.601562 L 27.667969 10.171875 L 29.238281 10.171875 L 29.238281 10.667969 L 28.121094 10.667969 L 28 11.238281 C 28.125 11.171875 28.269531 11.132812 28.414062 11.132812 C 28.652344 11.121094 28.886719 11.214844 29.054688 11.386719 C 29.214844 11.582031 29.296875 11.828125 29.28125 12.078125 C 29.28125 12.25 29.238281 12.421875 29.160156 12.574219 C 29.085938 12.714844 28.96875 12.832031 28.828125 12.90625 C 28.671875 12.988281 28.496094 13.03125 28.320312 13.027344 C 28.160156 13.023438 28 12.988281 27.851562 12.921875 C 27.710938 12.855469 27.59375 12.753906 27.507812 12.625 C 27.421875 12.5 27.375 12.351562 27.375 12.199219 L 28 12.199219 C 28.011719 12.304688 28.058594 12.40625 28.132812 12.480469 C 28.207031 12.542969 28.300781 12.578125 28.398438 12.574219 C 28.515625 12.578125 28.625 12.53125 28.691406 12.441406 C 28.777344 12.308594 28.804688 12.152344 28.773438 12 C 28.78125 11.863281 28.738281 11.730469 28.652344 11.625 C 28.5625 11.542969 28.441406 11.5 28.320312 11.507812 C 28.207031 11.496094 28.089844 11.53125 28 11.601562 Z M 27.492188 11.601562 "/>
<path fill-rule="nonzero" fill="rgb(40%, 61.568627%, 96.470588%)" fill-opacity="1" d="M 26.054688 15.71875 C 26.070312 16.035156 25.984375 16.347656 25.8125 16.613281 C 25.4375 16.960938 24.855469 16.960938 24.480469 16.613281 C 24.296875 16.363281 24.207031 16.054688 24.226562 15.746094 L 24.226562 15.226562 C 24.203125 14.910156 24.289062 14.597656 24.464844 14.332031 C 24.839844 13.980469 25.425781 13.980469 25.800781 14.332031 C 25.976562 14.585938 26.0625 14.890625 26.054688 15.199219 Z M 25.492188 15.148438 C 25.503906 14.972656 25.46875 14.800781 25.398438 14.640625 C 25.335938 14.535156 25.21875 14.472656 25.09375 14.480469 C 24.976562 14.472656 24.863281 14.527344 24.800781 14.625 C 24.730469 14.777344 24.699219 14.941406 24.707031 15.105469 L 24.707031 15.785156 C 24.695312 15.964844 24.726562 16.144531 24.800781 16.308594 C 24.859375 16.417969 24.980469 16.480469 25.105469 16.464844 C 25.226562 16.476562 25.34375 16.414062 25.398438 16.308594 C 25.464844 16.152344 25.496094 15.984375 25.492188 15.8125 Z M 25.492188 15.148438 "/>
<path fill-rule="nonzero" fill="rgb(68.235294%, 79.607843%, 98.039216%)" fill-opacity="1" d="M 27.492188 15.492188 L 27.667969 14.066406 L 29.238281 14.066406 L 29.238281 14.535156 L 28.121094 14.535156 L 28.054688 15.132812 C 28.179688 15.0625 28.320312 15.027344 28.464844 15.027344 C 28.707031 15.015625 28.9375 15.109375 29.105469 15.28125 C 29.269531 15.484375 29.351562 15.738281 29.332031 16 C 29.332031 16.167969 29.292969 16.332031 29.214844 16.480469 C 29.144531 16.628906 29.027344 16.746094 28.878906 16.8125 C 28.726562 16.902344 28.550781 16.941406 28.375 16.933594 C 28.210938 16.9375 28.050781 16.902344 27.90625 16.828125 C 27.765625 16.769531 27.644531 16.671875 27.558594 16.546875 C 27.476562 16.417969 27.433594 16.273438 27.425781 16.121094 L 28 16.121094 C 28.011719 16.222656 28.058594 16.316406 28.132812 16.386719 C 28.203125 16.457031 28.300781 16.488281 28.398438 16.480469 C 28.515625 16.496094 28.628906 16.441406 28.691406 16.347656 C 28.773438 16.234375 28.8125 16.097656 28.800781 15.960938 C 28.808594 15.828125 28.765625 15.699219 28.679688 15.601562 C 28.59375 15.507812 28.472656 15.457031 28.347656 15.464844 C 28.230469 15.460938 28.117188 15.5 28.027344 15.574219 Z M 27.492188 15.492188 "/>
<path fill-rule="nonzero" fill="rgb(40%, 61.568627%, 96.470588%)" fill-opacity="1" d="M 12.972656 16.148438 C 12.972656 15.71875 12.972656 15.308594 12.972656 14.894531 C 13.003906 14.5625 13.171875 14.261719 13.441406 14.066406 C 13.769531 13.804688 14.144531 13.609375 14.546875 13.492188 C 15.625 13.132812 16.804688 13.269531 17.773438 13.867188 C 17.90625 13.9375 18.027344 14.027344 18.132812 14.132812 C 18.417969 14.382812 18.566406 14.753906 18.535156 15.132812 C 18.535156 15.464844 18.535156 15.800781 18.535156 16.148438 Z M 12.972656 16.148438 "/>
<path fill-rule="nonzero" fill="rgb(40%, 61.568627%, 96.470588%)" fill-opacity="1" d="M 15.746094 12.667969 C 15.164062 12.667969 14.636719 12.3125 14.414062 11.773438 C 14.191406 11.234375 14.320312 10.613281 14.734375 10.203125 C 15.148438 9.792969 15.769531 9.671875 16.308594 9.898438 C 16.84375 10.128906 17.191406 10.65625 17.1875 11.238281 C 17.171875 12.027344 16.535156 12.660156 15.746094 12.667969 Z M 15.746094 12.667969 "/>
</svg>
