<?xml version="1.0" encoding="UTF-8"?>
<svg xmlns="http://www.w3.org/2000/svg" xmlns:xlink="http://www.w3.org/1999/xlink" width="32" height="32" viewBox="0 0 32 32">
<path fill-rule="nonzero" fill="rgb(68.235294%, 79.607843%, 98.039216%)" fill-opacity="1" d="M 9.332031 8 L 10.667969 6.667969 L 2.667969 6.667969 L 4 8 Z M 9.332031 8 "/>
<path fill-rule="nonzero" fill="rgb(40%, 61.568627%, 96.470588%)" fill-opacity="1" d="M 9.332031 8 L 9.332031 13.332031 L 10.667969 14.667969 L 10.667969 6.667969 Z M 9.332031 8 "/>
<path fill-rule="nonzero" fill="rgb(68.235294%, 79.607843%, 98.039216%)" fill-opacity="1" d="M 4 8 L 2.667969 6.667969 L 2.667969 14.667969 L 4 13.332031 Z M 4 8 "/>
<path fill-rule="nonzero" fill="rgb(25.882353%, 52.156863%, 95.686275%)" fill-opacity="1" d="M 4 13.332031 L 2.667969 14.667969 L 10.667969 14.667969 L 9.332031 13.332031 Z M 4 13.332031 "/>
<path fill-rule="nonzero" fill="rgb(68.235294%, 79.607843%, 98.039216%)" fill-opacity="1" d="M 4 8 L 9.332031 8 L 9.332031 13.332031 L 4 13.332031 Z M 4 8 "/>
<path fill-rule="nonzero" fill="rgb(25.882353%, 52.156863%, 95.686275%)" fill-opacity="1" d="M 18.667969 8 L 20 6.667969 L 12 6.667969 L 13.332031 8 Z M 18.667969 8 "/>
<path fill-rule="nonzero" fill="rgb(68.235294%, 79.607843%, 98.039216%)" fill-opacity="1" d="M 18.667969 8 L 18.667969 13.332031 L 20 14.667969 L 20 6.667969 Z M 18.667969 8 "/>
<path fill-rule="nonzero" fill="rgb(25.882353%, 52.156863%, 95.686275%)" fill-opacity="1" d="M 13.332031 8 L 12 6.667969 L 12 14.667969 L 13.332031 13.332031 Z M 13.332031 8 "/>
<path fill-rule="nonzero" fill="rgb(68.235294%, 79.607843%, 98.039216%)" fill-opacity="1" d="M 13.332031 13.332031 L 12 14.667969 L 20 14.667969 L 18.667969 13.332031 Z M 13.332031 13.332031 "/>
<path fill-rule="nonzero" fill="rgb(100%, 100%, 100%)" fill-opacity="1" d="M 13.332031 8 L 18.667969 8 L 18.667969 13.332031 L 13.332031 13.332031 Z M 13.332031 8 "/>
<path fill-rule="nonzero" fill="rgb(25.882353%, 52.156863%, 95.686275%)" fill-opacity="1" d="M 28 8 L 29.332031 6.667969 L 21.332031 6.667969 L 22.667969 8 Z M 28 8 "/>
<path fill-rule="nonzero" fill="rgb(68.235294%, 79.607843%, 98.039216%)" fill-opacity="1" d="M 28 8 L 28 13.332031 L 29.332031 14.667969 L 29.332031 6.667969 Z M 28 8 "/>
<path fill-rule="nonzero" fill="rgb(25.882353%, 52.156863%, 95.686275%)" fill-opacity="1" d="M 22.667969 8 L 21.332031 6.667969 L 21.332031 14.667969 L 22.667969 13.332031 Z M 22.667969 8 "/>
<path fill-rule="nonzero" fill="rgb(68.235294%, 79.607843%, 98.039216%)" fill-opacity="1" d="M 22.667969 13.332031 L 21.332031 14.667969 L 29.332031 14.667969 L 28 13.332031 Z M 22.667969 13.332031 "/>
<path fill-rule="nonzero" fill="rgb(100%, 100%, 100%)" fill-opacity="1" d="M 22.667969 8 L 28 8 L 28 13.332031 L 22.667969 13.332031 Z M 22.667969 8 "/>
<path fill-rule="nonzero" fill="rgb(25.882353%, 52.156863%, 95.686275%)" fill-opacity="1" d="M 9.332031 18.667969 L 10.667969 17.332031 L 2.667969 17.332031 L 4 18.667969 Z M 9.332031 18.667969 "/>
<path fill-rule="nonzero" fill="rgb(68.235294%, 79.607843%, 98.039216%)" fill-opacity="1" d="M 9.332031 18.667969 L 9.332031 24 L 10.667969 25.332031 L 10.667969 17.332031 Z M 9.332031 18.667969 "/>
<path fill-rule="nonzero" fill="rgb(25.882353%, 52.156863%, 95.686275%)" fill-opacity="1" d="M 4 18.667969 L 2.667969 17.332031 L 2.667969 25.332031 L 4 24 Z M 4 18.667969 "/>
<path fill-rule="nonzero" fill="rgb(68.235294%, 79.607843%, 98.039216%)" fill-opacity="1" d="M 4 24 L 2.667969 25.332031 L 10.667969 25.332031 L 9.332031 24 Z M 4 24 "/>
<path fill-rule="nonzero" fill="rgb(100%, 100%, 100%)" fill-opacity="1" d="M 4 18.667969 L 9.332031 18.667969 L 9.332031 24 L 4 24 Z M 4 18.667969 "/>
<path fill-rule="nonzero" fill="rgb(68.235294%, 79.607843%, 98.039216%)" fill-opacity="1" d="M 18.667969 18.667969 L 20 17.332031 L 12 17.332031 L 13.332031 18.667969 Z M 18.667969 18.667969 "/>
<path fill-rule="nonzero" fill="rgb(40%, 61.568627%, 96.470588%)" fill-opacity="1" d="M 18.667969 18.667969 L 18.667969 24 L 20 25.332031 L 20 17.332031 Z M 18.667969 18.667969 "/>
<path fill-rule="nonzero" fill="rgb(68.235294%, 79.607843%, 98.039216%)" fill-opacity="1" d="M 13.332031 18.667969 L 12 17.332031 L 12 25.332031 L 13.332031 24 Z M 13.332031 18.667969 "/>
<path fill-rule="nonzero" fill="rgb(25.882353%, 52.156863%, 95.686275%)" fill-opacity="1" d="M 13.332031 24 L 12 25.332031 L 20 25.332031 L 18.667969 24 Z M 13.332031 24 "/>
<path fill-rule="nonzero" fill="rgb(68.235294%, 79.607843%, 98.039216%)" fill-opacity="1" d="M 13.332031 18.667969 L 18.667969 18.667969 L 18.667969 24 L 13.332031 24 Z M 13.332031 18.667969 "/>
<path fill-rule="nonzero" fill="rgb(68.235294%, 79.607843%, 98.039216%)" fill-opacity="1" d="M 28 18.667969 L 29.332031 17.332031 L 21.332031 17.332031 L 22.667969 18.667969 Z M 28 18.667969 "/>
<path fill-rule="nonzero" fill="rgb(40%, 61.568627%, 96.470588%)" fill-opacity="1" d="M 28 18.667969 L 28 24 L 29.332031 25.332031 L 29.332031 17.332031 Z M 28 18.667969 "/>
<path fill-rule="nonzero" fill="rgb(68.235294%, 79.607843%, 98.039216%)" fill-opacity="1" d="M 22.667969 18.667969 L 21.332031 17.332031 L 21.332031 25.332031 L 22.667969 24 Z M 22.667969 18.667969 "/>
<path fill-rule="nonzero" fill="rgb(25.882353%, 52.156863%, 95.686275%)" fill-opacity="1" d="M 22.667969 24 L 21.332031 25.332031 L 29.332031 25.332031 L 28 24 Z M 22.667969 24 "/>
<path fill-rule="nonzero" fill="rgb(68.235294%, 79.607843%, 98.039216%)" fill-opacity="1" d="M 22.667969 18.667969 L 28 18.667969 L 28 24 L 22.667969 24 Z M 22.667969 18.667969 "/>
</svg>
