<?xml version="1.0" encoding="UTF-8"?>
<svg xmlns="http://www.w3.org/2000/svg" xmlns:xlink="http://www.w3.org/1999/xlink" width="32" height="32" viewBox="0 0 32 32">
<path fill-rule="evenodd" fill="rgb(36.078431%, 52.156863%, 87.058824%)" fill-opacity="1" d="M 2.667969 6.265625 L 29.332031 6.265625 L 29.332031 3.066406 L 2.667969 3.066406 Z M 2.667969 6.265625 "/>
<path fill-rule="evenodd" fill="rgb(20%, 40.392157%, 83.921569%)" fill-opacity="1" d="M 26 29.066406 L 29.332031 29.066406 L 29.332031 19.199219 L 26 19.199219 Z M 26 29.066406 "/>
<path fill-rule="evenodd" fill="rgb(20%, 40.392157%, 83.921569%)" fill-opacity="1" d="M 16 19.199219 L 16 25.734375 L 6 25.734375 L 6 19.199219 L 2.667969 19.199219 L 2.667969 29.066406 L 19.332031 29.066406 L 19.332031 19.199219 Z M 16 19.199219 "/>
<path fill-rule="evenodd" fill="rgb(36.078431%, 52.156863%, 87.058824%)" fill-opacity="1" d="M 2.667969 7.867188 L 1.066406 16 L 1.066406 19.199219 L 30.933594 19.199219 L 30.933594 16 L 29.332031 7.867188 Z M 5.464844 11.066406 L 26.667969 11.066406 L 27.601562 16 L 4.398438 16 Z M 5.464844 11.066406 "/>
</svg>
