<?xml version="1.0" encoding="UTF-8"?>
<svg xmlns="http://www.w3.org/2000/svg" xmlns:xlink="http://www.w3.org/1999/xlink" width="32" height="32" viewBox="0 0 32 32">
<path fill-rule="evenodd" fill="rgb(40%, 61.568627%, 96.470588%)" fill-opacity="1" d="M 17.785156 17.011719 L 17.785156 11.199219 L 14.214844 11.199219 L 14.214844 17.011719 L 9.1875 19.921875 L 10.972656 23.011719 L 16 20.105469 L 21.027344 23.011719 L 22.8125 19.921875 Z M 17.785156 17.011719 "/>
<path fill-rule="evenodd" fill="rgb(25.882353%, 52.156863%, 95.686275%)" fill-opacity="1" d="M 17.785156 17.011719 L 17.785156 11.199219 L 16 11.199219 L 16 18.027344 L 10.078125 21.464844 L 10.972656 23.011719 L 16 20.105469 L 21.027344 23.011719 L 22.8125 19.921875 Z M 17.785156 17.011719 "/>
<path fill-rule="evenodd" fill="rgb(68.235294%, 79.607843%, 98.039216%)" fill-opacity="1" d="M 14.199219 3.691406 L 11.492188 5.320312 L 11.492188 10.292969 L 16 12.734375 L 16 8.585938 L 14.199219 7.761719 Z M 14.199219 3.691406 "/>
<path fill-rule="evenodd" fill="rgb(40%, 61.568627%, 96.470588%)" fill-opacity="1" d="M 17.800781 7.761719 L 16 8.585938 L 16 12.734375 L 20.507812 10.292969 L 20.507812 5.320312 L 17.800781 3.691406 Z M 17.800781 7.761719 "/>
<path fill-rule="evenodd" fill="rgb(40%, 61.568627%, 96.470588%)" fill-opacity="1" d="M 24.1875 22.773438 L 24.078125 24.625 L 27.679688 26.667969 L 24.773438 28.265625 L 20.453125 25.773438 L 20.601562 20.667969 L 24.960938 18 L 29.332031 20.507812 L 29.332031 23.828125 L 25.746094 21.761719 Z M 24.1875 22.773438 "/>
<path fill-rule="evenodd" fill="rgb(40%, 61.568627%, 96.470588%)" fill-opacity="1" d="M 7.8125 22.773438 L 6.253906 21.761719 L 2.667969 23.828125 L 2.667969 20.507812 L 6.972656 18.011719 L 11.332031 20.679688 L 11.480469 25.785156 L 7.226562 28.308594 L 4.320312 26.667969 L 7.921875 24.585938 Z M 7.8125 22.773438 "/>
<path fill-rule="evenodd" fill="rgb(68.235294%, 79.607843%, 98.039216%)" fill-opacity="1" d="M 29.332031 23.828125 L 29.265625 20.507812 L 24.960938 18.027344 L 20.601562 20.707031 L 24.1875 22.773438 L 25.734375 21.761719 Z M 29.332031 23.828125 "/>
<path fill-rule="evenodd" fill="rgb(68.235294%, 79.607843%, 98.039216%)" fill-opacity="1" d="M 2.667969 23.828125 L 6.265625 21.761719 L 7.8125 22.773438 L 11.398438 20.707031 L 7.039062 18.027344 L 2.734375 20.507812 Z M 2.667969 23.828125 "/>
</svg>
