<?xml version="1.0" encoding="UTF-8"?>
<svg xmlns="http://www.w3.org/2000/svg" xmlns:xlink="http://www.w3.org/1999/xlink" width="32" height="32" viewBox="0 0 32 32">
<path fill-rule="nonzero" fill="rgb(25.882353%, 52.156863%, 95.686275%)" fill-opacity="1" d="M 17.027344 16.960938 C 16.757812 17.230469 16.394531 17.382812 16.011719 17.382812 C 15.632812 17.382812 15.269531 17.230469 15 16.960938 L 13.011719 14.972656 L 14.027344 13.960938 L 16 15.90625 L 21.601562 10.308594 L 22.679688 11.359375 Z M 17.027344 16.960938 "/>
<path fill-rule="nonzero" fill="rgb(40%, 61.568627%, 96.470588%)" fill-opacity="1" d="M 21.332031 15.453125 C 20.761719 15.511719 20.3125 15.964844 20.253906 16.535156 C 19.984375 18.492188 18.410156 20.015625 16.441406 20.214844 C 15.59375 20.296875 14.738281 20.132812 13.988281 19.734375 C 12.320312 18.855469 11.425781 16.984375 11.796875 15.136719 C 12.167969 13.285156 13.710938 11.902344 15.585938 11.734375 C 16.128906 11.683594 16.679688 11.742188 17.199219 11.90625 C 17.679688 12.078125 18.210938 11.925781 18.535156 11.535156 C 18.792969 11.226562 18.882812 10.8125 18.777344 10.425781 C 18.671875 10.039062 18.378906 9.730469 18 9.601562 C 15.851562 8.910156 13.503906 9.355469 11.753906 10.777344 C 10.003906 12.199219 9.09375 14.410156 9.332031 16.652344 C 9.5 18.421875 10.363281 20.050781 11.734375 21.179688 C 13.105469 22.308594 14.871094 22.84375 16.640625 22.667969 C 19.769531 22.386719 22.28125 19.960938 22.667969 16.839844 C 22.703125 16.476562 22.578125 16.113281 22.316406 15.855469 C 22.058594 15.597656 21.699219 15.46875 21.332031 15.507812 Z M 21.332031 15.453125 "/>
<path fill-rule="nonzero" fill="rgb(68.235294%, 79.607843%, 98.039216%)" fill-opacity="1" d="M 16 24 C 17.472656 24 18.667969 25.195312 18.667969 26.667969 C 18.667969 28.140625 17.472656 29.332031 16 29.332031 C 14.527344 29.332031 13.332031 28.140625 13.332031 26.667969 C 13.332031 25.195312 14.527344 24 16 24 "/>
<path fill-rule="nonzero" fill="rgb(68.235294%, 79.607843%, 98.039216%)" fill-opacity="1" d="M 16 2.667969 C 17.472656 2.667969 18.667969 3.859375 18.667969 5.332031 C 18.667969 6.804688 17.472656 8 16 8 C 14.527344 8 13.332031 6.804688 13.332031 5.332031 C 13.332031 3.859375 14.527344 2.667969 16 2.667969 "/>
<path fill-rule="nonzero" fill="rgb(25.882353%, 52.156863%, 95.686275%)" fill-opacity="1" d="M 24 26.667969 C 23.464844 26.664062 22.980469 26.339844 22.773438 25.847656 C 22.570312 25.351562 22.679688 24.78125 23.054688 24.398438 L 26.667969 20.785156 L 26.667969 11.214844 L 23.078125 7.601562 C 22.5625 7.078125 22.5625 6.238281 23.078125 5.71875 C 23.332031 5.46875 23.671875 5.324219 24.027344 5.324219 C 24.382812 5.324219 24.722656 5.46875 24.972656 5.71875 L 28.972656 9.71875 C 29.214844 9.976562 29.34375 10.316406 29.332031 10.667969 L 29.332031 21.332031 C 29.332031 21.683594 29.191406 22.019531 28.945312 22.265625 L 24.945312 26.265625 C 24.695312 26.519531 24.355469 26.664062 24 26.667969 Z M 24 26.667969 "/>
<path fill-rule="nonzero" fill="rgb(40%, 61.568627%, 96.470588%)" fill-opacity="1" d="M 8 26.667969 C 7.644531 26.664062 7.304688 26.519531 7.054688 26.265625 L 3.054688 22.265625 C 2.808594 22.019531 2.667969 21.683594 2.667969 21.332031 L 2.667969 10.667969 C 2.664062 10.3125 2.804688 9.972656 3.054688 9.71875 L 7.054688 5.71875 C 7.304688 5.46875 7.644531 5.324219 8 5.324219 C 8.355469 5.324219 8.695312 5.46875 8.945312 5.71875 C 9.464844 6.238281 9.464844 7.078125 8.945312 7.601562 L 5.332031 11.214844 L 5.332031 20.785156 L 8.921875 24.398438 C 9.171875 24.648438 9.3125 24.992188 9.3125 25.347656 C 9.3125 25.703125 9.171875 26.042969 8.921875 26.292969 C 8.671875 26.53125 8.34375 26.664062 8 26.667969 Z M 8 26.667969 "/>
</svg>
