<?xml version="1.0" encoding="UTF-8"?>
<svg xmlns="http://www.w3.org/2000/svg" xmlns:xlink="http://www.w3.org/1999/xlink" width="28.16" height="32" viewBox="0 0 28.16 32">
<path fill-rule="evenodd" fill="rgb(0%, 0%, 0%)" fill-opacity="1" d="M 28.078125 17.539062 L 28.078125 14.339844 L 24.199219 13.058594 L 23.300781 10.878906 L 25.058594 7.199219 L 22.800781 4.941406 L 19.179688 6.761719 L 17 5.859375 L 15.621094 2.019531 L 12.421875 2.019531 L 11.160156 5.898438 L 8.941406 6.800781 L 5.261719 5.039062 L 3 7.300781 L 4.820312 10.921875 L 3.921875 13.101562 L 0.078125 14.460938 L 0.078125 17.640625 L 3.960938 18.921875 L 4.859375 21.101562 L 3.101562 24.78125 L 5.359375 27.039062 L 8.980469 25.21875 L 11.160156 26.121094 L 12.539062 29.960938 L 15.71875 29.960938 L 16.980469 26.078125 L 19.199219 25.179688 L 22.878906 26.941406 L 25.140625 24.679688 L 23.300781 21.058594 L 24.238281 18.878906 L 28.078125 17.5 Z M 14.078125 22 C 10.761719 22 8.078125 19.320312 8.078125 16 C 8.078125 12.679688 10.761719 10 14.078125 10 C 17.398438 10 20.078125 12.679688 20.078125 16 C 20.078125 19.320312 17.398438 22 14.078125 22 Z M 14.078125 22 "/>
</svg>
