<svg role="img" viewBox="0 0 32 32" height="32" width="32" xmlns="http://www.w3.org/2000/svg"><path d="M7.668 8.668A2.334 2.334 0 1 1 7.664 4a2.334 2.334 0 0 1 .004 4.668m5 3a2.334 2.334 0 1 1 4.668-.004 2.334 2.334 0 0 1-4.668.004M7.668 30a4.336 4.336 0 0 1-4.297-3.832 4.336 4.336 0 0 1 3.3-4.719c-.003-.039-.003-.078-.003-.117v-6.664c0-.55.45-1 1-1s1 .45 1 1v6.664c0 .04-.004.078-.008.117a4.332 4.332 0 0 1 3.293 4.715A4.34 4.34 0 0 1 7.668 30m-2.336-4.332A2.334 2.334 0 1 0 10 25.664a2.334 2.334 0 0 0-4.668.004M20 17a4.334 4.334 0 0 1 4.332-4.332 4.324 4.324 0 0 1 3.828 2.14 4.324 4.324 0 0 1 0 4.387 4.328 4.328 0 0 1-3.828 2.137A4.334 4.334 0 0 1 20 17m4.332 2.332a2.334 2.334 0 1 0 .004-4.668 2.334 2.334 0 0 0-.004 4.668"/></svg>