<svg role="img" viewBox="0 0 32 32" height="32" width="32" xmlns="http://www.w3.org/2000/svg"><path d="M21.332 25.668a4.333 4.333 0 1 1 8.664.004 4.332 4.332 0 1 1-8.664-.004M2 25.668a4.333 4.333 0 0 1 4.336-4.332 4.33 4.33 0 0 1 4.332 4.332 4.335 4.335 0 0 1-4.332 4.336A4.336 4.336 0 0 1 2 25.668M2 6.332A4.333 4.333 0 0 1 6.336 2a4.333 4.333 0 0 1 4.332 4.336 4.34 4.34 0 0 1-1.27 3.066 4.333 4.333 0 0 1-4.722.934A4.332 4.332 0 0 1 2 6.332M6.332 4a2.334 2.334 0 1 0 .004 4.668A2.334 2.334 0 0 0 6.332 4m0 19.332A2.334 2.334 0 1 0 6.336 28a2.334 2.334 0 0 0-.004-4.668m19.336 0A2.334 2.334 0 1 0 25.664 28a2.334 2.334 0 0 0 .004-4.668M17.875 2.293c.387.39.387 1.023 0 1.414l-1.629 1.625h5.422a5 5 0 0 1 5 5V22c0 .55-.45 1-1 1s-1-.45-1-1V10.332a3 3 0 0 0-3-3h-5.422l1.629 1.629c.379.39.371 1.016-.012 1.402a1.003 1.003 0 0 1-1.402.012l-3.336-3.336a1.007 1.007 0 0 1 0-1.414l3.336-3.332a1 1 0 0 1 1.414 0M6.332 9.668c.555 0 1 .445 1 1v10.664c0 .55-.45 1-1 1s-1-.45-1-1V10.668c0-.55.45-1 1-1"/></svg>