<svg role="img" viewBox="0 0 32 32" height="32" width="32" xmlns="http://www.w3.org/2000/svg"><path d="M22 25.668a4.333 4.333 0 0 1 4.336-4.332 4.33 4.33 0 0 1 4.332 4.332 4.335 4.335 0 0 1-4.332 4.336A4.336 4.336 0 0 1 22 25.668m4.332-2.336A2.334 2.334 0 1 0 26.336 28a2.334 2.334 0 0 0-.004-4.668M18.539 2.293a1 1 0 0 1 0 1.414l-1.625 1.625h5.418a5 5 0 0 1 5 5V22c0 .55-.45 1-1 1s-1-.45-1-1V10.332a3 3 0 0 0-3-3h-5.418l1.629 1.629a1 1 0 0 1-.016 1.402 1.003 1.003 0 0 1-1.402.012l-3.332-3.336a1 1 0 0 1 0-1.414l3.332-3.332a1 1 0 0 1 1.414 0M10 6.332a4.333 4.333 0 0 1-4.336 4.332 4.33 4.33 0 0 1-4.332-4.332 4.335 4.335 0 0 1 4.332-4.336A4.336 4.336 0 0 1 10 6.332M5.668 8.668A2.334 2.334 0 1 0 5.664 4a2.334 2.334 0 0 0 .004 4.668m7.793 21.039a1 1 0 0 1 0-1.414l1.625-1.625H9.668a5 5 0 0 1-5-5V10c0-.55.45-1 1-1s1 .45 1 1v11.668a3 3 0 0 0 3 3h5.418l-1.629-1.629a1 1 0 1 1 1.418-1.414l3.332 3.336a1 1 0 0 1 0 1.414l-3.332 3.332a1 1 0 0 1-1.414 0"/></svg>