<svg role="img" viewBox="0 0 32 32" xmlns="http://www.w3.org/2000/svg"><path d="M32.652 13.879 18.122-.652a2.145 2.145 0 0 0-3.032 0l-3.016 3.02 3.828 3.827a2.548 2.548 0 0 1 3.223 3.242l3.688 3.692a2.55 2.55 0 0 1 2.992 1.055 2.55 2.55 0 0 1-.356 3.156c-.86.86-2.207.992-3.219.32a2.554 2.554 0 0 1-.945-3.094l-3.441-3.441v9.055a2.54 2.54 0 0 1 1.12 3.484 2.54 2.54 0 0 1-2.745 1.297 2.55 2.55 0 0 1-2.04-2.254 2.55 2.55 0 0 1 1.571-2.602V10.97a2.554 2.554 0 0 1-1.387-3.348L10.59 3.848.629 13.813a2.14 2.14 0 0 0 0 3.03L15.16 31.372c.836.84 2.192.84 3.031 0l14.461-14.46a2.145 2.145 0 0 0 0-3.032" fill="rgb(6.27451%, 5.882353%, 5.098039%)"/></svg>