<?xml version="1.0" encoding="UTF-8"?>
<svg xmlns="http://www.w3.org/2000/svg" xmlns:xlink="http://www.w3.org/1999/xlink" width="51.948777" height="32" viewBox="0 0 51.948777 32">
<path fill-rule="nonzero" fill="rgb(100%, 100%, 100%)" fill-opacity="1" d="M 32.242188 28.164062 L 21.753906 23.125 C 20.71875 22.628906 20.269531 21.371094 20.777344 20.335938 L 25.820312 9.847656 C 26.316406 8.8125 27.574219 8.367188 28.609375 8.875 C 30.027344 9.5625 30.851562 9.949219 30.851562 9.949219 L 30.839844 0.929688 L 32.21875 0.921875 L 32.230469 10.597656 C 32.230469 10.597656 36.976562 12.597656 39.097656 13.914062 C 39.402344 14.105469 39.9375 14.472656 40.164062 15.101562 C 40.335938 15.609375 40.324219 16.1875 40.082031 16.695312 L 35.039062 27.183594 C 34.53125 28.226562 33.273438 28.671875 32.242188 28.164062 "/>
<path fill-rule="nonzero" fill="rgb(37.647059%, 60%, 14.901961%)" fill-opacity="1" d="M 50.984375 0.546875 C 50.652344 0.210938 50.195312 0.210938 50.195312 0.210938 C 50.195312 0.210938 40.507812 0.757812 35.496094 0.871094 C 34.402344 0.890625 33.304688 0.921875 32.21875 0.929688 L 32.21875 10.617188 C 31.761719 10.40625 31.308594 10.183594 30.851562 9.96875 C 30.851562 6.964844 30.839844 0.953125 30.839844 0.953125 C 28.445312 0.980469 23.464844 0.769531 23.464844 0.769531 C 23.464844 0.769531 11.78125 0.179688 10.511719 0.0703125 C 9.703125 0.0195312 8.65625 -0.101562 7.289062 0.191406 C 6.566406 0.34375 4.519531 0.800781 2.84375 2.410156 C -0.878906 5.730469 0.0742188 10.992188 0.199219 11.785156 C 0.339844 12.75 0.765625 15.4375 2.816406 17.769531 C 6.597656 22.40625 14.742188 22.292969 14.742188 22.292969 C 14.742188 22.292969 15.746094 24.675781 17.269531 26.878906 C 19.339844 29.617188 21.457031 31.746094 23.527344 32 C 28.730469 32 39.136719 31.988281 39.136719 31.988281 C 39.136719 31.988281 40.132812 32 41.472656 31.136719 C 42.628906 30.4375 43.660156 29.199219 43.660156 29.199219 C 43.660156 29.199219 44.726562 28.0625 46.21875 25.457031 C 46.675781 24.65625 47.050781 23.875 47.382812 23.144531 C 47.382812 23.144531 51.949219 13.46875 51.949219 4.054688 C 51.847656 1.214844 51.148438 0.707031 50.984375 0.546875 M 9.914062 17.402344 C 7.773438 16.703125 6.863281 15.863281 6.863281 15.863281 C 6.863281 15.863281 5.28125 14.757812 4.488281 12.574219 C 3.128906 8.925781 4.375 6.691406 4.375 6.691406 C 4.375 6.691406 5.066406 4.835938 7.5625 4.21875 C 8.699219 3.914062 10.117188 3.964844 10.117188 3.964844 C 10.117188 3.964844 10.707031 8.875 11.417969 11.742188 C 12.015625 14.15625 13.464844 18.164062 13.464844 18.164062 C 13.464844 18.164062 11.304688 17.902344 9.914062 17.402344 M 34.726562 26.289062 C 34.726562 26.289062 34.21875 27.484375 33.101562 27.558594 C 32.625 27.585938 32.25 27.457031 32.25 27.457031 C 32.25 27.457031 32.230469 27.445312 31.8125 27.285156 L 22.484375 22.738281 C 22.484375 22.738281 21.578125 22.273438 21.425781 21.449219 C 21.246094 20.78125 21.652344 19.960938 21.652344 19.960938 L 26.132812 10.71875 C 26.132812 10.71875 26.53125 9.917969 27.136719 9.644531 C 27.1875 9.625 27.332031 9.5625 27.511719 9.523438 C 28.183594 9.351562 29.003906 9.753906 29.003906 9.753906 L 38.152344 14.1875 C 38.152344 14.1875 39.199219 14.65625 39.421875 15.527344 C 39.574219 16.136719 39.382812 16.683594 39.269531 16.949219 C 38.742188 18.226562 34.726562 26.289062 34.726562 26.289062 "/>
<path fill-rule="nonzero" fill="rgb(37.647059%, 60%, 14.901961%)" fill-opacity="1" d="M 26.539062 19.5625 C 25.859375 19.574219 25.273438 20.042969 25.109375 20.699219 C 24.957031 21.359375 25.273438 22.050781 25.859375 22.355469 C 26.5 22.6875 27.3125 22.507812 27.738281 21.90625 C 28.164062 21.320312 28.089844 20.507812 27.585938 20 L 29.5625 15.941406 C 29.683594 15.953125 29.867188 15.964844 30.070312 15.902344 C 30.40625 15.832031 30.65625 15.609375 30.65625 15.609375 C 31.003906 15.761719 31.367188 15.921875 31.753906 16.117188 C 32.148438 16.320312 32.523438 16.519531 32.859375 16.714844 C 32.929688 16.753906 33.011719 16.804688 33.09375 16.867188 C 33.222656 16.976562 33.375 17.121094 33.476562 17.324219 C 33.628906 17.777344 33.324219 18.550781 33.324219 18.550781 C 33.132812 19.179688 31.804688 21.90625 31.804688 21.90625 C 31.136719 21.886719 30.535156 22.324219 30.34375 22.941406 C 30.128906 23.613281 30.433594 24.371094 31.074219 24.695312 C 31.722656 25.03125 32.515625 24.839844 32.929688 24.261719 C 33.347656 23.703125 33.304688 22.910156 32.839844 22.394531 L 33.304688 21.460938 C 33.722656 20.597656 34.421875 18.945312 34.421875 18.945312 C 34.492188 18.804688 34.886719 18.09375 34.644531 17.191406 C 34.441406 16.246094 33.597656 15.8125 33.597656 15.8125 C 32.59375 15.164062 31.183594 14.554688 31.183594 14.554688 C 31.183594 14.554688 31.183594 14.21875 31.09375 13.964844 C 31.003906 13.710938 30.859375 13.539062 30.769531 13.449219 C 31.15625 12.648438 31.550781 11.855469 31.9375 11.054688 C 31.601562 10.890625 31.265625 10.71875 30.933594 10.546875 C 30.535156 11.359375 30.128906 12.167969 29.734375 12.980469 C 29.175781 12.972656 28.671875 13.277344 28.40625 13.761719 C 28.121094 14.28125 28.183594 14.929688 28.558594 15.394531 C 27.890625 16.796875 27.210938 18.183594 26.539062 19.5625 "/>
</svg>
