<?xml version="1.0" encoding="UTF-8"?>
<svg xmlns="http://www.w3.org/2000/svg" xmlns:xlink="http://www.w3.org/1999/xlink" width="34.738723" height="32" viewBox="0 0 34.738723 32">
<path fill-rule="nonzero" fill="rgb(88.627451%, 26.27451%, 16.078431%)" fill-opacity="1" d="M 17.367188 32 L 23.769531 12.3125 L 10.980469 12.3125 Z M 17.367188 32 "/>
<path fill-rule="nonzero" fill="rgb(98.823529%, 63.921569%, 14.901961%)" fill-opacity="1" d="M 2.011719 12.316406 L 0.0664062 18.296875 C -0.113281 18.839844 0.078125 19.441406 0.546875 19.777344 L 17.367188 32 Z M 2.011719 12.316406 "/>
<path fill-rule="nonzero" fill="rgb(88.627451%, 26.27451%, 16.078431%)" fill-opacity="1" d="M 2.011719 12.316406 L 10.980469 12.316406 L 7.125 0.457031 C 7.035156 0.183594 6.777344 0 6.492188 0 C 6.203125 0 5.949219 0.183594 5.859375 0.457031 Z M 2.011719 12.316406 "/>
<path fill-rule="nonzero" fill="rgb(98.823529%, 63.921569%, 14.901961%)" fill-opacity="1" d="M 32.726562 12.316406 L 34.671875 18.296875 C 34.851562 18.839844 34.660156 19.4375 34.195312 19.777344 L 17.367188 32 Z M 32.726562 12.316406 "/>
<path fill-rule="nonzero" fill="rgb(88.627451%, 26.27451%, 16.078431%)" fill-opacity="1" d="M 32.726562 12.316406 L 23.769531 12.316406 L 27.617188 0.457031 C 27.8125 -0.144531 28.675781 -0.144531 28.882812 0.457031 Z M 32.726562 12.316406 "/>
<path fill-rule="nonzero" fill="rgb(98.823529%, 42.745098%, 14.901961%)" fill-opacity="1" d="M 17.367188 32 L 23.769531 12.3125 L 32.726562 12.3125 Z M 17.367188 32 L 2.011719 12.316406 L 10.980469 12.316406 Z M 17.367188 32 "/>
</svg>
