<svg role="img" viewBox="0 0 32 32" height="32" width="32" xmlns="http://www.w3.org/2000/svg"><path d="M16.05 1.281C7.93 1.281 1.333 7.88 1.333 16c0 8.121 6.598 14.719 14.719 14.719 8.12 0 14.719-6.598 14.719-14.719 0-8.121-6.598-14.719-14.72-14.719m0 1.278c7.43 0 13.442 6.011 13.442 13.441 0 7.43-6.012 13.441-13.441 13.441C8.62 29.441 2.609 23.43 2.609 16c0-7.43 6.012-13.441 13.442-13.441m-.64 1.367c-1.656.406-3.125 2.37-4.058 5.164 1.285.265 2.656.418 4.058.457Zm1.281 0v5.62a23.977 23.977 0 0 0 4.067-.444c-.938-2.797-2.406-4.77-4.067-5.176m-4.21.453a12.101 12.101 0 0 0-5.297 3.328c.87.434 1.847.797 2.902 1.082.598-1.82 1.418-3.332 2.394-4.41m7.144 0c.977 1.078 1.797 2.598 2.395 4.422a14.767 14.767 0 0 0 2.898-1.098 12.16 12.16 0 0 0-5.293-3.324m6.129 4.324c-.988.54-2.129.98-3.379 1.324.41 1.614.656 3.414.7 5.332h5.105a12.085 12.085 0 0 0-2.426-6.656M6.34 8.711a12.093 12.093 0 0 0-2.418 6.648h5.105c.047-1.921.293-3.726.703-5.343A16.864 16.864 0 0 1 6.34 8.71m4.644 1.61c-.394 1.523-.629 3.238-.675 5.038h5.101v-4.535a24.91 24.91 0 0 1-4.426-.504m10.137.007c-1.394.29-2.887.461-4.43.496v4.535h5.106c-.047-1.796-.285-3.507-.676-5.03m-17.2 6.313a12.085 12.085 0 0 0 2.427 6.656c.988-.54 2.129-.98 3.382-1.324-.41-1.614-.656-3.414-.703-5.332Zm6.388 0c.046 1.797.28 3.507.675 5.03a24.59 24.59 0 0 1 4.426-.495V16.64Zm6.382 0v4.535c1.528.039 3.02.21 4.426.504.395-1.524.633-3.239.68-5.04Zm6.383 0c-.043 1.922-.289 3.726-.703 5.343 1.242.336 2.383.778 3.39 1.305a12.093 12.093 0 0 0 2.419-6.648Zm-7.664 5.812a23.95 23.95 0 0 0-4.062.445c.933 2.797 2.402 4.77 4.062 5.176Zm1.281 0v5.621c1.66-.406 3.125-2.37 4.063-5.164a23.422 23.422 0 0 0-4.063-.457m-6.609.746c-1.062.29-2.043.656-2.898 1.098a12.174 12.174 0 0 0 5.296 3.324c-.98-1.078-1.8-2.598-2.398-4.422m11.934.012c-.598 1.82-1.418 3.332-2.395 4.41a12.136 12.136 0 0 0 5.3-3.328 15.803 15.803 0 0 0-2.905-1.082m0 0"/></svg>