<svg role="img" viewBox="0 0 32 32" height="32" width="32" xmlns="http://www.w3.org/2000/svg"><path d="M16 1.281C7.883 1.281 1.281 7.883 1.281 16c0 8.117 6.602 14.719 14.719 14.719 8.117 0 14.719-6.602 14.719-14.719a14.63 14.63 0 0 0-2.364-7.984l-.945.945h-1.656l-1.746 1.746A9.568 9.568 0 0 1 25.602 16c0 5.3-4.301 9.602-9.602 9.602-5.3 0-9.602-4.301-9.602-9.602 0-5.3 4.301-9.602 9.602-9.602 1.957 0 3.773.59 5.293 1.594l1.746-1.746V4.59l.945-.945A14.63 14.63 0 0 0 16 1.28m11.52.64-3.2 3.2v1.652l-8.773 8.774a.64.64 0 0 0 .281 1.082.64.64 0 0 0 .625-.176l8.774-8.773h1.652l3.2-3.2h-2.56ZM16 10.239A5.77 5.77 0 0 0 10.238 16 5.77 5.77 0 0 0 16 21.762 5.77 5.77 0 0 0 21.762 16c0-.887-.211-1.727-.57-2.477l-3.833 3.836a1.924 1.924 0 0 1-2.719 0A1.928 1.928 0 0 1 14.079 16c0-.512.203-.996.563-1.36l3.836-3.831a5.667 5.667 0 0 0-2.477-.57m0 0"/></svg>