<?xml version="1.0" encoding="UTF-8"?>
<svg xmlns="http://www.w3.org/2000/svg" xmlns:xlink="http://www.w3.org/1999/xlink" width="32" height="32" viewBox="0 0 32 32">
<path fill-rule="nonzero" fill="rgb(0%, 0%, 0%)" fill-opacity="1" d="M 16 1.28125 C 7.882812 1.28125 1.28125 7.882812 1.28125 16 C 1.28125 24.117188 7.882812 30.71875 16 30.71875 C 24.117188 30.71875 30.71875 24.117188 30.71875 16 C 30.722656 13.164062 29.898438 10.390625 28.355469 8.015625 L 27.410156 8.960938 L 25.753906 8.960938 L 24.007812 10.707031 C 25.046875 12.277344 25.601562 14.117188 25.601562 16 C 25.601562 21.300781 21.300781 25.601562 16 25.601562 C 10.699219 25.601562 6.398438 21.300781 6.398438 16 C 6.398438 10.699219 10.699219 6.398438 16 6.398438 C 17.957031 6.398438 19.773438 6.988281 21.292969 7.992188 L 23.039062 6.246094 L 23.039062 4.589844 L 23.984375 3.644531 C 21.609375 2.101562 18.835938 1.277344 16 1.28125 M 27.519531 1.921875 L 24.320312 5.121094 L 24.320312 6.773438 L 15.546875 15.546875 C 15.378906 15.707031 15.3125 15.945312 15.371094 16.167969 C 15.429688 16.394531 15.601562 16.570312 15.828125 16.628906 C 16.054688 16.6875 16.292969 16.621094 16.453125 16.453125 L 25.226562 7.679688 L 26.878906 7.679688 L 30.078125 4.480469 L 27.519531 4.480469 Z M 16 10.238281 C 12.820312 10.242188 10.242188 12.820312 10.238281 16 C 10.242188 19.179688 12.820312 21.757812 16 21.761719 C 19.179688 21.757812 21.757812 19.179688 21.761719 16 C 21.761719 15.113281 21.550781 14.273438 21.191406 13.523438 L 17.359375 17.359375 C 16.609375 18.109375 15.390625 18.109375 14.640625 17.359375 C 14.28125 16.996094 14.078125 16.507812 14.078125 16 C 14.078125 15.488281 14.28125 15.003906 14.640625 14.640625 L 18.476562 10.808594 C 17.707031 10.433594 16.859375 10.238281 16 10.238281 M 16 10.238281 "/>
</svg>
