<svg role="img" viewBox="0 0 32 32" xmlns="http://www.w3.org/2000/svg"><path d="M0 4.8C0 2.14 2.14 0 4.8 0h22.4C29.86 0 32 2.14 32 4.8v22.4c0 2.66-2.14 4.8-4.8 4.8H4.8a4.82 4.82 0 0 1-3.398-1.402A4.8 4.8 0 0 1 0 27.199Zm0 0" fill="rgb(100%, 100%, 100%)"/><path d="M24.125 25c2.813-2.625 4.063-7 3.313-11.187H16.25v4.624h6.375c-.25 1.5-1.125 2.75-2.375 3.563Zm0 0" fill="rgb(25.882354%, 52.156866%, 95.686275%)"/><path d="M5.625 21.313A12.004 12.004 0 0 0 24.125 25l-3.875-3.001c-3.312 2.188-8.812 1.375-10.687-3.75Zm0 0" fill="rgb(20.392157%, 65.882355%, 32.549021%)"/><path d="M9.563 18.25c-.5-1.562-.5-3 0-4.562l-3.938-3.063c-1.437 2.875-1.875 6.938 0 10.688Zm0 0" fill="rgb(98.431373%, 73.725492%, 0.784314%)"/><path d="M9.563 13.688c1.374-4.313 7.25-6.813 11.187-3.126l3.438-3.374C19.313 2.5 9.813 2.688 5.625 10.625Zm0 0" fill="rgb(91.764706%, 26.274511%, 20.784314%)"/></svg>