<svg role="img" viewBox="0 0 39.767 32" height="32" width="39.767" xmlns="http://www.w3.org/2000/svg"><path d="m26.445 8.828 3.457-3.457.23-1.457C23.837-1.812 13.82-1.164 8.146 5.27c-1.579 1.785-2.75 4.015-3.372 6.316l1.235-.176 6.914-1.14.535-.547c3.074-3.375 8.273-3.832 11.824-.957Zm0 0" fill="rgb(91.764706%, 26.27451%, 20.784314%)"/><path d="M34.828 11.48a15.546 15.546 0 0 0-4.695-7.566L25.28 8.766a8.642 8.642 0 0 1 3.168 6.84v.863a4.32 4.32 0 0 1 4.317 4.316c0 2.387-1.934 4.27-4.317 4.27H19.8l-.852.922v5.18l.852.812h8.648c6.203.047 11.27-4.895 11.317-11.094a11.245 11.245 0 0 0-4.938-9.395" fill="rgb(25.882353%, 52.156863%, 95.686275%)"/><path d="M11.164 31.969h8.637v-6.914h-8.637a4.26 4.26 0 0 1-1.77-.387l-1.226.375-3.48 3.457-.305 1.176c1.953 1.472 4.336 2.304 6.781 2.293" fill="rgb(20.392157%, 65.882353%, 32.54902%)"/><path d="M11.164 9.543C4.961 9.578-.036 14.637 0 20.84a11.22 11.22 0 0 0 4.383 8.836l5.012-5.008a4.316 4.316 0 0 1-2.497-4.543 4.321 4.321 0 0 1 3.66-3.668 4.324 4.324 0 0 1 4.547 2.496l5.012-5.008a11.202 11.202 0 0 0-8.953-4.402" fill="rgb(98.431373%, 73.72549%, 1.960784%)"/></svg>