<svg role="img" viewBox="0 0 30.683 32" height="32" width="30.683" xmlns="http://www.w3.org/2000/svg"><path d="M6.965 17.262V6.859H2.418A2.426 2.426 0 0 0 0 9.285v21.5c0 1.082 1.305 1.621 2.066.86l5-5h14.235a2.417 2.417 0 0 0 2.418-2.418V19.68H9.39a2.391 2.391 0 0 1-1.715-.707 2.38 2.38 0 0 1-.711-1.711" fill="rgb(0%, 67.45098%, 27.843137%)"/><path d="M28.262 0H9.39a2.391 2.391 0 0 0-1.715.707 2.391 2.391 0 0 0-.707 1.715v4.441H21.3a2.412 2.412 0 0 1 2.414 2.418v10.395h4.547c.64 0 1.254-.254 1.71-.707a2.43 2.43 0 0 0 .708-1.715V2.418c0-.64-.254-1.258-.707-1.711A2.422 2.422 0 0 0 28.262 0" fill="rgb(35.686275%, 72.54902%, 45.490196%)"/><path d="M21.3 6.86H6.966v10.394a2.42 2.42 0 0 0 2.418 2.422h14.332V9.286A2.417 2.417 0 0 0 21.3 6.858" fill="rgb(0%, 51.372549%, 17.647059%)"/></svg>