<?xml version="1.0" encoding="UTF-8"?>
<svg xmlns="http://www.w3.org/2000/svg" xmlns:xlink="http://www.w3.org/1999/xlink" width="39.766998" height="32" viewBox="0 0 39.766998 32">
<path fill-rule="nonzero" fill="rgb(91.764706%, 26.27451%, 20.784314%)" fill-opacity="1" d="M 26.445312 8.828125 L 29.902344 5.371094 L 30.132812 3.914062 C 23.835938 -1.8125 13.820312 -1.164062 8.144531 5.269531 C 6.566406 7.054688 5.394531 9.285156 4.773438 11.585938 L 6.007812 11.410156 L 12.921875 10.269531 L 13.457031 9.722656 C 16.53125 6.347656 21.730469 5.890625 25.28125 8.765625 Z M 26.445312 8.828125 "/>
<path fill-rule="nonzero" fill="rgb(25.882353%, 52.156863%, 95.686275%)" fill-opacity="1" d="M 34.828125 11.480469 C 34.035156 8.554688 32.402344 5.925781 30.132812 3.914062 L 25.28125 8.765625 C 27.328125 10.441406 28.496094 12.960938 28.449219 15.605469 L 28.449219 16.46875 C 30.832031 16.46875 32.761719 18.402344 32.765625 20.785156 C 32.765625 23.171875 30.832031 25.054688 28.449219 25.054688 L 19.800781 25.054688 L 18.949219 25.976562 L 18.949219 31.15625 L 19.800781 31.96875 L 28.449219 31.96875 C 34.652344 32.015625 39.71875 27.074219 39.765625 20.875 C 39.792969 17.113281 37.941406 13.589844 34.828125 11.480469 "/>
<path fill-rule="nonzero" fill="rgb(20.392157%, 65.882353%, 32.54902%)" fill-opacity="1" d="M 11.164062 31.96875 L 19.800781 31.96875 L 19.800781 25.054688 L 11.164062 25.054688 C 10.554688 25.054688 9.949219 24.921875 9.394531 24.667969 L 8.167969 25.042969 L 4.6875 28.5 L 4.382812 29.675781 C 6.335938 31.148438 8.71875 31.980469 11.164062 31.96875 "/>
<path fill-rule="nonzero" fill="rgb(98.431373%, 73.72549%, 1.960784%)" fill-opacity="1" d="M 11.164062 9.542969 C 4.960938 9.578125 -0.0351562 14.636719 0 20.839844 C 0.0195312 24.304688 1.636719 27.5625 4.382812 29.675781 L 9.394531 24.667969 C 7.644531 23.878906 6.625 22.027344 6.894531 20.125 C 7.164062 18.222656 8.660156 16.730469 10.558594 16.457031 C 12.460938 16.1875 14.3125 17.203125 15.105469 18.953125 L 20.117188 13.945312 C 17.988281 11.15625 14.671875 9.527344 11.164062 9.542969 "/>
</svg>
