<?xml version="1.0" encoding="UTF-8"?>
<svg xmlns="http://www.w3.org/2000/svg" xmlns:xlink="http://www.w3.org/1999/xlink" width="30.683001" height="32" viewBox="0 0 30.683001 32">
<path fill-rule="nonzero" fill="rgb(0%, 67.450982%, 27.843139%)" fill-opacity="1" d="M 6.964844 17.261719 L 6.964844 6.859375 L 2.417969 6.859375 C 1.082031 6.863281 0 7.949219 0 9.285156 L 0 30.785156 C 0 31.867188 1.304688 32.40625 2.066406 31.644531 L 7.066406 26.644531 L 21.300781 26.644531 C 22.636719 26.644531 23.71875 25.5625 23.71875 24.226562 L 23.71875 19.679688 L 9.390625 19.679688 C 8.746094 19.683594 8.128906 19.429688 7.675781 18.972656 C 7.21875 18.519531 6.964844 17.90625 6.964844 17.261719 "/>
<path fill-rule="nonzero" fill="rgb(35.686275%, 72.549021%, 45.490196%)" fill-opacity="1" d="M 28.261719 0 L 9.390625 0 C 8.746094 0 8.128906 0.253906 7.675781 0.707031 C 7.222656 1.164062 6.964844 1.777344 6.96875 2.421875 L 6.96875 6.863281 L 21.300781 6.863281 C 21.941406 6.863281 22.554688 7.117188 23.007812 7.570312 C 23.460938 8.023438 23.714844 8.640625 23.714844 9.28125 L 23.714844 19.675781 L 28.261719 19.675781 C 28.902344 19.675781 29.515625 19.421875 29.972656 18.96875 C 30.425781 18.511719 30.679688 17.898438 30.679688 17.253906 L 30.679688 2.417969 C 30.679688 1.777344 30.425781 1.160156 29.972656 0.707031 C 29.519531 0.253906 28.902344 0 28.261719 0 "/>
<path fill-rule="nonzero" fill="rgb(0%, 51.372552%, 17.647059%)" fill-opacity="1" d="M 21.300781 6.859375 L 6.964844 6.859375 L 6.964844 17.253906 C 6.964844 17.894531 7.21875 18.511719 7.671875 18.964844 C 8.125 19.417969 8.742188 19.675781 9.382812 19.675781 L 23.714844 19.675781 L 23.714844 9.285156 C 23.71875 8.644531 23.464844 8.027344 23.011719 7.570312 C 22.558594 7.113281 21.941406 6.859375 21.300781 6.859375 "/>
</svg>
