<svg role="img" viewBox="0 0 32 32" xmlns="http://www.w3.org/2000/svg"><path d="M30.242 6.59c-1.058-1.918-2.976-2.559-4.324-2.559-1.695-.062-3.04.899-2.75 1.535.062.098.383.801.578 1.059.254.383.797.094.957 0 .543-.258 1.055-.383 1.695-.258.641.067 1.38.418 1.922 1.442 1.215 2.398-2.656 7.457-7.55 3.933-4.899-3.52-9.633-2.3-11.747-1.66-2.144.703-3.136 1.375-2.304 3.04 1.183 2.175.8 1.534 1.922 3.358 1.824 2.88 5.695-1.343 5.695-1.343C11.39 19.39 8.96 18.398 8 16.895c-.863-1.344-1.535-2.91-1.535-2.91C-.832 16.577 1.12 27.968 1.12 27.968H4.8c.957-4.192 4.254-4.032 4.832 0h2.75c2.496-8.192 8.738 0 8.738 0h3.613c-1.023-5.633 2.02-7.395 3.938-10.657 1.762-3.167 3.586-7.23 1.57-10.722m-9.379 10.785c-1.918-.64-1.215-2.559-1.215-2.559s1.696.575 3.938 1.282c-.16.636-1.344 1.757-2.723 1.277m0 0" fill="rgb(45.490196%, 72.156864%, 76.862746%)"/></svg>