<svg role="img" viewBox="0 0 30.773 32" height="32" width="30.773" xmlns="http://www.w3.org/2000/svg"><defs><linearGradient gradientTransform="scale(.08767)" gradientUnits="userSpaceOnUse" id="1418__1417__grafana-lp-0" x1="175.5" x2="175.5" y1="109.5" y2="361.35"><stop offset="0" stop-color="rgb(94.117647%, 35.294118%, 15.686275%)"/><stop offset="1" stop-color="rgb(98.431373%, 79.215686%, 3.921569%)"/></linearGradient></defs><path d="M29.984 14.133a12.14 12.14 0 0 0-.316-1.832 10.98 10.98 0 0 0-.824-2.192 12.111 12.111 0 0 0-1.535-2.351c-.262-.313-.54-.61-.832-.895.449-1.777-.543-3.32-.543-3.32-1.711-.106-2.797.535-3.2.824-.07-.027-.132-.062-.203-.09A12.68 12.68 0 0 0 19.7 3.5a2.076 2.076 0 0 0-.176-.027C18.778 1.086 16.642.086 16.642.086c-2.395 1.52-2.84 3.64-2.84 3.64s-.012.044-.028.122c-.132.035-.261.078-.394.113a6.928 6.928 0 0 0-.543.195c-.555.207-1.094.457-1.613.746-.344.192-.676.403-1 .621-.043-.02-.086-.035-.086-.035-3.317-1.261-6.254.254-6.254.254-.27 3.524 1.324 5.742 1.64 6.145-.078.218-.148.441-.218.66-.246.797-.43 1.613-.543 2.46a5.66 5.66 0 0 0-.047.372c-3.067 1.516-3.969 4.61-3.969 4.61 2.55 2.937 5.531 3.12 5.531 3.12l.008-.007c.383.675.82 1.316 1.309 1.918.207.253.422.496.648.73-.93 2.664.13 4.875.13 4.875 2.843.105 4.71-1.246 5.105-1.555.277.098.57.188.859.254.875.23 1.77.36 2.664.395.219.011.445.02.664.011h.316l.141-.011v.011c1.344 1.91 3.692 2.184 3.692 2.184 1.675-1.766 1.769-3.516 1.769-3.894v-.157a10.806 10.806 0 0 0 2.746-2.843c.043-.067.086-.137.133-.207 1.89.105 3.234-1.176 3.234-1.176-.316-1.973-1.437-2.938-1.675-3.121 0 0-.008-.008-.028-.02-.015-.008-.015-.016-.015-.016a.173.173 0 0 0-.043-.027l.023-.36c.02-.21.02-.429.02-.64v-.332l-.008-.133-.012-.175c0-.06-.008-.114-.016-.165-.007-.054-.007-.113-.02-.168l-.015-.164-.027-.168a7.286 7.286 0 0 0-.121-.648 8.749 8.749 0 0 0-.965-2.387 8.09 8.09 0 0 0-1.605-1.91 8.016 8.016 0 0 0-4.262-1.937 7.348 7.348 0 0 0-1.13-.063h-.28l-.141.012c-.05 0-.105.008-.148.008a6.17 6.17 0 0 0-2.657.867 6.57 6.57 0 0 0-1.605 1.367 6.415 6.415 0 0 0-1.016 1.719 6.21 6.21 0 0 0-.402 1.84c-.012.152-.012.308-.012.457v.113l.012.125c.008.07.008.148.015.219.083.87.403 1.707.922 2.41.317.422.7.785 1.13 1.086.398.27.835.476 1.296.613a4.5 4.5 0 0 0 1.29.188h.23c.023 0 .05 0 .078-.012.043 0 .086-.008.133-.008.007 0 .023 0 .035-.008l.043-.008c.023 0 .05-.011.078-.011l.148-.024a.925.925 0 0 0 .14-.035c.099-.02.185-.055.274-.082a4.02 4.02 0 0 0 .5-.207c.157-.082.297-.176.438-.266.035-.027.078-.05.113-.086a.333.333 0 0 0 .05-.464.315.315 0 0 0-.41-.078c-.034.015-.07.035-.105.05-.12.063-.25.114-.379.157a2.316 2.316 0 0 1-.628.132c-.036 0-.07.008-.114.008h-.21c-.044 0-.09 0-.134-.008h-.05c-.02 0-.047 0-.063-.007-.043-.008-.078-.008-.12-.02a3.583 3.583 0 0 1-.958-.277 3.35 3.35 0 0 1-.887-.582 3.378 3.378 0 0 1-1.07-1.953 3.688 3.688 0 0 1-.035-.586c0-.055.012-.106.012-.16v-.07c0-.028.007-.052.007-.079.008-.105.028-.211.043-.316.149-.84.57-1.665 1.22-2.29.167-.152.343-.296.526-.43a4 4 0 0 1 1.93-.698c.113-.008.227-.02.348-.02h.273l.098.012c.254.011.5.05.742.113.492.106.973.29 1.422.535.895.5 1.656 1.27 2.121 2.2.238.464.402.964.484 1.48.016.133.036.266.043.394l.016.196v.375c0 .062-.008.168-.008.23-.008.14-.027.29-.043.43a7.758 7.758 0 0 1-.43 1.648 7.348 7.348 0 0 1-.824 1.496 6.902 6.902 0 0 1-2.648 2.168 6.54 6.54 0 0 1-1.649.5c-.285.051-.57.079-.859.086h-.437c-.153 0-.309-.007-.465-.027a8.934 8.934 0 0 1-3.516-1.008 8.983 8.983 0 0 1-3.789-3.847 9.911 9.911 0 0 1-.648-1.676 9.653 9.653 0 0 1-.297-1.762l-.008-.113v-.782c.02-.605.094-1.207.219-1.796.18-.891.46-1.758.84-2.586.5-1.07 1.148-2.024 1.93-2.79.195-.19.398-.37.605-.542.21-.168.43-.325.656-.473.223-.148.457-.285.695-.402.114-.063.235-.125.36-.176.062-.027.12-.055.183-.078l.184-.082c.246-.102.5-.192.762-.27.062-.02.132-.035.195-.062l.191-.051c.133-.035.262-.07.395-.098.062-.015.133-.027.203-.043.066-.02.129-.027.203-.043.066-.011.129-.027.2-.035l.093-.02.105-.015c.07-.012.133-.02.204-.027.078-.008.148-.02.226-.028.063-.008.168-.015.23-.027.044-.008.094-.008.141-.016l.094-.007.047-.012h.05c.079-.008.153-.008.227-.016l.117-.008h.086c.063 0 .133-.011.192-.011.258-.008.515-.008.773 0 1.461.058 2.895.425 4.207 1.07.832.402 1.57.902 2.219 1.45.043.034.078.07.121.105.035.03.082.066.117.101.078.07.149.14.227.211.078.067.148.14.219.211.074.07.144.145.21.219.27.289.528.578.754.879.426.547.797 1.129 1.114 1.742.015.035.035.07.05.105l.055.106c.035.07.07.14.098.21.035.071.058.134.094.204.027.07.062.129.09.2.105.265.21.519.288.753.114.34.215.68.305 1.027.027.121.14.204.266.184a.241.241 0 0 0 .226-.246c.008-.316 0-.691-.043-1.121m0 0" fill="url(#1418__1417__grafana-lp-0)"/></svg>