<svg role="img" viewBox="0 0 28.444 32" height="32" width="28.444" xmlns="http://www.w3.org/2000/svg"><path d="m2.59 24.36-1.172-.68 13.07-22.637 1.172.68Zm-1.442-2.49H27.29v1.356H1.15Zm13.59 8.313-13.074-7.55.68-1.172 13.074 7.55Zm11.36-19.676-13.075-7.55.676-1.172 13.078 7.55ZM2.348 10.5l-.68-1.172 13.086-7.55.68 1.171Zm23.511 13.86L12.785 1.718l1.172-.676L27.031 23.68ZM2.184 8.43h1.355v15.097H2.184Zm22.722 0h1.356v15.097h-1.356ZM14.512 29.61l-.594-1.024 11.375-6.566.59 1.023Zm13.543-5.641a2.853 2.853 0 0 1-3.89 1.047 2.86 2.86 0 0 1-1.048-3.895 2.865 2.865 0 0 1 2.84-1.394 2.865 2.865 0 0 1 2.387 2.078c.195.73.093 1.511-.29 2.164M5.317 10.839a2.851 2.851 0 0 1-3.828.934 2.858 2.858 0 0 1-1.11-3.785 2.86 2.86 0 0 1 3.895-1.043 2.856 2.856 0 0 1 1.043 3.89M.391 23.97a2.852 2.852 0 0 1 1.043-3.887 2.87 2.87 0 0 1 3.894 1.04 2.853 2.853 0 0 1-1.047 3.894c-1.37.78-3.11.32-3.89-1.043M23.125 10.84a2.86 2.86 0 0 1 1.047-3.895 2.86 2.86 0 0 1 3.894 1.047 2.857 2.857 0 0 1-1.046 3.89 2.857 2.857 0 0 1-3.895-1.042m-8.902 21.12a2.856 2.856 0 0 1-2.848-2.847c0-.754.3-1.48.832-2.015a2.867 2.867 0 0 1 2.016-.832 2.846 2.846 0 0 1 2.847 2.847 2.856 2.856 0 0 1-2.847 2.848m0-26.266a2.834 2.834 0 0 1-2.016-.832 2.827 2.827 0 0 1-.832-2.015A2.85 2.85 0 0 1 12.797.383a2.833 2.833 0 0 1 2.848 0 2.845 2.845 0 0 1 1.425 2.465c0 .757-.3 1.48-.832 2.015a2.867 2.867 0 0 1-2.015.832" fill="rgb(88.235294%, 0%, 59.607843%)"/></svg>