<svg role="img" viewBox="0 0 32 32" xmlns="http://www.w3.org/2000/svg"><path d="M10.879 1.281a3.2 3.2 0 0 0-3.2 3.2 3.2 3.2 0 0 0 3.2 3.199 3.2 3.2 0 1 0 0-6.399m10.121 0a3.2 3.2 0 0 0-3.2 3.2A3.2 3.2 0 0 0 21 7.68a3.2 3.2 0 0 0 3.2-3.2A3.2 3.2 0 0 0 21 1.281m-10.121 7.04a4.3 4.3 0 0 0-1.957.46A5.116 5.116 0 0 1 9 16.801a7 7 0 0 1 2.379 2 5.1 5.1 0 0 1-.48-2.14 5.14 5.14 0 0 1 4.3-5.06 4.44 4.44 0 0 0-4.32-3.28M21 8.32a4.444 4.444 0 0 0-4.32 3.261c2.508.328 4.46 2.48 4.46 5.078 0 .695-.144 1.383-.421 2.02a7.1 7.1 0 0 1 2.3-1.899 5.1 5.1 0 0 1-1.878-3.96 5.1 5.1 0 0 1 1.898-3.981A4.3 4.3 0 0 0 21 8.32m-15.223.66a3.843 3.843 0 1 0 3.844 3.84 3.845 3.845 0 0 0-3.844-3.84m20.48 0a3.84 3.84 0 0 0-3.839 3.84 3.837 3.837 0 0 0 3.84 3.84 3.84 3.84 0 1 0 0-7.68M16.02 12.82a3.84 3.84 0 1 0-.126 7.68 3.84 3.84 0 0 0 .126-7.68M5.762 17.281A5.767 5.767 0 0 0 0 23.04v2.242c0 .2.098.399.262.52.144.113 1.558 1.078 5.5 1.078 1.363 0 2.426-.121 3.238-.277a7.03 7.03 0 0 1 2.34-4.961 5.76 5.76 0 0 0-5.578-4.36m20.476 0a5.76 5.76 0 0 0-5.578 4.34 7.02 7.02 0 0 1 2.38 5c.808.152 1.855.258 3.198.258 3.942 0 5.356-.965 5.5-1.078a.64.64 0 0 0 .262-.52V23.04a5.767 5.767 0 0 0-5.762-5.758m-10.218 3.86a5.766 5.766 0 0 0-5.758 5.757v2.243c0 .199.097.386.258.5.148.113 1.558 1.097 5.5 1.097 3.94 0 5.351-.984 5.5-1.097a.62.62 0 0 0 .261-.5v-2.243a5.767 5.767 0 0 0-5.761-5.757"/></svg>