<svg role="img" viewBox="0 0 25.143 32" xmlns="http://www.w3.org/2000/svg"><path d="M9.84 17.426v6.004q.002 1.869.637 3.258c.425.921.988 1.687 1.68 2.296a7.3 7.3 0 0 0 2.34 1.387 7.7 7.7 0 0 0 2.612.469q1.318 0 2.618-.469a7.2 7.2 0 0 0 2.335-1.387q1.043-.914 1.68-2.297.638-1.388.637-3.257V13.426l-7.77-.012-.007 4.012h3.441v6.004c0 1.047-.29 1.824-.867 2.32-.574.496-1.266.746-2.063.746q-1.19-.001-2.062-.746c-.582-.496-.867-1.27-.867-2.32V7.41c0-1.05.293-1.824.867-2.32.578-.496 1.27-.746 2.062-.746.797 0 1.48.25 2.063.746.582.496.867 1.27.867 2.32v1.535h4.34V7.41c0-1.219-.215-2.3-.64-3.234q-.639-1.406-1.68-2.324A7.2 7.2 0 0 0 19.727.469 7.6 7.6 0 0 0 17.109 0q-1.319 0-2.613.469a7.2 7.2 0 0 0-2.34 1.383c-.691.613-1.254 1.386-1.68 2.324-.421.937-.636 2.015-.636 3.234v6.004H5.406V8.945h1.36l-3.383-4.78L0 8.944h1.406v6.473c0 1.11.895 2.008 2 2.008h6.438Zm0 0" fill="rgb(17.647059%, 65.098041%, 69.01961%)" fill-rule="evenodd"/></svg>