<svg role="img" viewBox="0 0 81.231 32" xmlns="http://www.w3.org/2000/svg"><path d="M29.363 12.117h2.227q1.032-.001 1.648-.277a2.1 2.1 0 0 0 .942-.793q.323-.515.441-1.27.112-.758.113-1.75-.001-.997-.113-1.754-.117-.755-.48-1.289a2.2 2.2 0 0 0-1.02-.793c-.426-.171-1.008-.257-1.726-.257h-2.032ZM25.453.242h6.29q6.906 0 6.905 8.031 0 2.385-.75 4.094-.75 1.712-2.625 2.75l4.22 12.492h-4.145l-3.703-11.886h-2.282v11.886h-3.91Zm16.34 0h5.867c1.086 0 2.02.14 2.84.426q1.225.423 2.223 1.496a5.84 5.84 0 0 1 1.382 2.516c.258.96.383 2.261.383 3.902 0 1.207-.093 2.066-.234 2.926-.14.86-.594 2.351-2.379 3.367-1.117.633-2.715.86-4.176.86h-1.992v11.874h-3.914Zm3.91 11.875h1.883q1.19.001 1.84-.308.656-.305.96-.825.306-.525.364-1.27l.059-1.655-.059-1.606c-.023-.46-.14-.91-.344-1.324q-.287-.556-.902-.879c-.41-.21-.996-.32-1.762-.32h-2.035Zm24.129 9.38a6.2 6.2 0 0 1-.48 2.421 6.4 6.4 0 0 1-1.32 2.02 6.6 6.6 0 0 1-1.977 1.382 5.8 5.8 0 0 1-2.438.52 8.8 8.8 0 0 1-2.262-.309 5.5 5.5 0 0 1-2.07-1.058q-.921-.75-1.515-1.98c-.399-.821-.594-1.856-.594-3.114V6.305c0-.887.152-1.73.457-2.5A5.9 5.9 0 0 1 60.953.48Q62.125 0 63.543 0q1.344 0 2.492.48 1.151.482 1.996 1.344a6.2 6.2 0 0 1 1.32 2.078c.32.805.481 1.672.481 2.633V8.07h-3.91V6.766q-.001-1.156-.652-2a2.1 2.1 0 0 0-1.766-.844q-1.458 0-1.938.902-.48.903-.48 2.285v13.993q-.001 1.19.52 1.996c.347.539.964.808 1.859.808q.386.001.824-.133c.297-.093.574-.242.809-.445.261-.23.465-.52.593-.844q.23-.538.23-1.347v-1.344h3.911ZM77.5 13.89c0-1-.809-1.809-1.805-1.809h-9.77v3.613h7.966v4.035h-1.227l3.05 4.313 3.056-4.313H77.5ZM8.879 15.73v5.417q0 1.694.574 2.942a6.2 6.2 0 0 0 1.516 2.074 6.7 6.7 0 0 0 2.11 1.25 7 7 0 0 0 2.358.422c.805 0 1.606-.145 2.36-.422a6.6 6.6 0 0 0 2.11-1.25q.935-.826 1.515-2.074c.383-.836.574-1.813.574-2.942V12.12l-7.012-.008-.007 3.617h3.105v5.418q0 1.425-.785 2.098c-.524.45-1.18.684-1.86.672a2.78 2.78 0 0 1-1.863-.672c-.515-.453-.785-1.148-.785-2.098V6.7c0-.949.262-1.644.785-2.094a2.78 2.78 0 0 1 1.864-.675c.68-.012 1.343.23 1.859.675.523.45.785 1.145.785 2.094v1.383h3.91V6.699q0-1.65-.574-2.922-.574-1.266-1.516-2.093a6.5 6.5 0 0 0-2.109-1.25 6.9 6.9 0 0 0-2.355-.422 7 7 0 0 0-2.36.422 6.5 6.5 0 0 0-2.11 1.25c-.624.55-1.132 1.25-1.515 2.093-.387.848-.574 1.82-.574 2.922v5.418h-4V8.082h1.226L3.051 3.77 0 8.082h1.27v5.844c0 .996.804 1.804 1.8 1.808h5.81Zm0 0" fill="rgb(17.647059%, 65.098041%, 69.01961%)" fill-rule="evenodd"/></svg>