<svg role="img" viewBox="0 0 32 32" height="32" width="32" xmlns="http://www.w3.org/2000/svg"><path d="M-3.2-3.2h38.4v38.4H-3.2z" fill="rgb(100%, 100%, 100%)"/><path d="M32 32H0V0h32ZM3.105 28.8H28.93V3.2H3.105m20.063 9.12h-2.527V9.793Zm-6.816-2.527v9.215h6.847V12.93h-3.168V9.758h-3.68Zm1.058-2.434H9.855v1.793h2.977l-1.887 1.442v1.535l2.75-2.113v-.864h9.633v-.738Zm-3.683 3.871-2.75 2.114v1.535l2.75-2.11Zm-2.782 6.403 2.75-2.113v-1.536l-2.75 2.114Zm2.782.64v-1.539l-2.75 2.114v.832h-1.09v1.793h1.699v1.215h-1.027a1.02 1.02 0 0 0-.895-.512.994.994 0 0 0-.726.297 1.01 1.01 0 0 0-.297.726c0 .578.445 1.024 1.023 1.024.383 0 .703-.192.895-.512h.992v.93h1.539v-.93h.992c.191.32.508.512.895.512a.994.994 0 0 0 .726-.297.993.993 0 0 0 .297-.727c0-.574-.45-1.023-1.023-1.023-.387 0-.704.191-.895.512h-.996v-1.215h4.324l5.918-1.059v-.734H11.871Zm0 0"/></svg>