<svg role="img" viewBox="0 0 31.03 32" height="32" width="31.03" xmlns="http://www.w3.org/2000/svg"><path d="m15.5 11.566 3.21-3.71m.673 7.8 3.808-3.207m-3.808 3.203 3.808 3.352m-4.445 4.234-3.242-3.597m-3.246 3.597 3.246-3.597m-7.691-.778 3.667-3.21M7.812 12.44l3.668 3.211m4.02-4.093-7.687.882m7.687-.882 7.691.882m-3.808 3.211-.672-7.797m.672 7.797-.637 7.586m4.445-4.234-7.691.637m-7.687-.782 7.69.782m-3.245 3.597-.781-7.586m.78-7.761-.78 7.761" fill="none" stroke="rgb(15.686275%, 29.019608%, 41.568627%)" stroke-linecap="round" stroke-linejoin="round" stroke-width=".252"/><path d="m4.285 13.43 3.528-.989m.738-7.195 3.71 2.649m.84-4.305-.843 4.305m.844-4.305 5.609 4.265m-.848-4.265.848 4.265m3.703-2.609L18.707 7.86m7.023.883-7.02-.887m4.481 4.586 2.54-3.707m-2.54 3.707 3.598.989m-3.598-.989 3.528 5.364M17.863 3.59l-5.605 4.305M23.19 12.44l-.78-7.195m.78 13.758 3.528-1.2m-3.528 1.2 3.598-5.574m-3.598 5.574 2.54 3.422m-2.54-3.422-.78 6.914m-3.665-2.68 3.668 2.68m-3.668-2.68 6.984-.812m-6.984.812-.84 4.332m.84-4.332-5.644 4.332m-.844-4.332.844 4.344m-.844-4.344 5.648 4.332m-5.644-4.332-3.711 2.68m3.707-2.68-6.992-.777m2.547-3.598L5.265 22.46m2.547-3.598.738 7.055m-.739-7.055L4.25 17.77m3.563-5.329L4.25 17.77m3.563 1.093L4.28 13.43m4.27-8.184-.739 7.2M5.267 8.737l6.984-.847" fill="none" stroke="rgb(15.686275%, 29.019608%, 41.568627%)" stroke-linecap="round" stroke-linejoin="round" stroke-width=".126"/><path d="m8.55 5.246-2.714-1.27m2.715 1.27-.211-2.96m4.762 1.304L8.34 2.285m4.762 1.305-2.043-2.504m2.043 2.504.847-3.004m-5.398 4.66 2.504-4.16m6.808 2.504L13.95.586m3.914 3.004L16.98.484M13.098 3.59 16.98.484m.883 3.106 2.047-2.508m2.508 4.164-2.512-4.16m2.508 4.16.25-2.96m-4.8 1.304 4.796-1.305m-.246 2.961 2.785-1.41m-2.785 1.41 4.836.742m-1.52 2.75 1.52-2.75m-1.52 2.75-.527-4.902m.527 4.902 3.176-.246m-3.176.246 4.344 2.469M26.79 13.43l2.117-4.938M26.79 13.43l3.281-2.223m-3.28 2.223 3.667.742m-3.738 3.633 3.738-3.633m-3.738 3.633 3.843-.707M26.79 13.43l3.773 3.668m-3.843.707L30 19.992m-4.27 2.434L30 19.992m-4.27 2.434 3.141.316m-2.148-4.937 2.148 4.937m-3.133-.316 1.48 2.781m-1.48-2.781-.562 4.867m-.008 0-2.754-1.375m0 0 .215 3.074m-.215-3.074 4.797-.707m-4.797.707-2.508 4.234m-2-2.582 2 2.578m-2-2.578 4.727 1.414m-4.727-1.414-.926 3.176m.926-3.176-3.953 3.176m-.851-3.176.847 3.176m-.847-3.176 3.878 3.176m-3.878-3.176-2.008 2.578m-2.543-4.23 2.543 4.234m2.008-2.582-4.797 1.485m.246-3.137-.246 3.14m.246-3.14L5.8 27.434m-.535-4.973.527 4.973m2.758-1.516-4.832-.668m1.547-2.79-1.551 2.782m1.55-2.781-3.171.316m3.172-.316L.898 20.027M4.25 17.77.898 20.027M4.25 17.77l-3.812-.672m3.812.672-2.148 5.007m2.183-9.347L.438 17.098m3.812.672L.438 14.172m3.847-.742-3.281-2.188m3.281 2.188-3.847.742m3.847-.742L2.098 8.492m3.168.246-3.172-.246m3.172.246-4.262 2.504m4.262-2.504-1.512-2.61m1.512 2.61.566-4.761m2.719 1.27-4.797.882" fill="none" stroke="rgb(14.117647%, 25.098039%, 36.470588%)" stroke-linecap="round" stroke-linejoin="round" stroke-width=".098"/><path d="m9.59 17.488.027-3.71 3.711.027-.027 3.707Zm4.015-4.086.028-3.71 3.71.027-.027 3.707Zm0 8.133.028-3.707 3.71.027-.027 3.707Zm4.051-4.082.028-3.71 3.71.027-.027 3.707Zm0 0" fill="rgb(14.509804%, 43.137255%, 64.705882%)"/><path d="m17.441 9.148.02-2.578 2.586.02-.02 2.574Zm-6.464-.003.02-2.575 2.585.02-.02 2.574ZM6.5 13.735l.02-2.575 2.585.016-.02 2.574Zm-.004 6.468.027-2.574 2.586.027-.027 2.574Zm15.422-.05.016-2.575 2.59.02-.02 2.574Zm.05-6.403.028-2.574 2.586.027-.027 2.574Zm0 0" fill="rgb(20%, 47.058824%, 73.72549%)"/><path d="m4.406 9.578.012-1.691 1.687.011-.011 1.692Zm3.301-3.445.012-1.692 1.691.012-.012 1.692Zm4.55-1.703.013-1.696 1.687.012-.012 1.695ZM3.41 14.27l.012-1.696 1.68.012-.012 1.695Zm21.47-6.36 1.691-.012.012 1.688-1.691.012Zm-3.305-3.504 1.692-.011.011 1.687-1.691.012Zm-4.562-1.664 1.691-.012.012 1.692-1.692.012Zm8.851 9.852 1.692-.012.011 1.691-1.691.012Zm0 0" fill="rgb(8.627451%, 60.784314%, 83.921569%)"/><path d="m10.941 24.594.016-2.574 2.59.02-.02 2.573Zm6.465 0 .02-2.574 2.586.02-.02 2.573Zm0 0" fill="rgb(20%, 47.058824%, 73.72549%)"/><path d="m24.867 23.293.012-1.695 1.687.011-.011 1.696Zm-3.27 3.48.012-1.695 1.692.012-.012 1.695Zm-4.546 1.668.012-1.691 1.687.012-.012 1.691Zm8.808-9.84.012-1.69 1.692.01-.012 1.692ZM4.406 21.599l1.696-.012.011 1.691-1.695.012Zm3.305 3.468 1.695-.011.012 1.691-1.695.012Zm4.527 1.664 1.696-.011.011 1.687-1.695.012Zm-8.816-9.816 1.695-.012.012 1.692-1.695.011Zm0 0" fill="rgb(8.627451%, 60.784314%, 83.921569%)"/><path d="m28.418 8.945.008-.918.933.008-.004.918Zm1.207 2.77.008-.914.933.004-.003.918Zm-2.84-5.219.008-.918.934.004-.008.918ZM5.363 4.398l.008-.918.934.008-.004.918ZM0 14.628l.008-.917.933.008-.007.918Zm24.727-10.23.003-.918.938.008-.008.918ZM.535 11.715l.004-.918.938.008-.008.918ZM10.621 1.559 10.63.64l.934.004-.008.918ZM1.668 8.945l.008-.918.933.008-.004.918ZM3.34 6.461l.004-.918.937.004-.008.918Zm4.527-4.64.918-.008.008.937-.918.004ZM13.535.015l.918-.004.004.933-.918.008Zm8.703 2.75.004-.918.938.004-.008.918Zm7.852 11.828.004-.918.937.008-.008.918ZM16.52.918 16.523 0l.938.008-.008.914Zm2.914.602.003-.915.934.004-.004.918Zm5.289 26.253.007-.918.934.008-.004.918Zm5.367-10.23.004-.918.937.008-.008.914ZM5.363 27.773l.008-.918.934.008-.008.914Zm24.262-7.277.008-.918.933.008-.003.914ZM19.43 30.652l.008-.918.933.004-.004.918Zm8.988-7.39.008-.918.933.008-.004.918Zm-1.633 2.488.008-.918.934.004-.008.918ZM22.2 28.563l.918-.004.008.933-.918.008Zm-5.633 1.734.918-.008.008.938-.918.003Zm-8.68-.781.005-.918.937.004-.008.918Zm-6.253-6.29.008-.917.933.003-.004.918ZM.53 20.493l.008-.918.934.004-.004.918Zm2.77 5.254.008-.918.933.008-.004.918ZM0 17.543l.008-.918.933.004-.007.918Zm13.57 13.676.004-.918.938.008-.008.918Zm-2.984-.606.008-.918.933.008-.007.918Zm0 0" fill="rgb(0%, 65.882353%, 85.490196%)"/></svg>