<?xml version="1.0" encoding="UTF-8"?>
<svg xmlns="http://www.w3.org/2000/svg" xmlns:xlink="http://www.w3.org/1999/xlink" width="31.030001" height="32" viewBox="0 0 31.030001 32">
<path fill="none" stroke-width="2.016" stroke-linecap="round" stroke-linejoin="round" stroke="rgb(15.686275%, 29.019609%, 41.568628%)" stroke-opacity="1" stroke-miterlimit="4" d="M 124 92.53125 L 149.6875 62.84375 M 155.0625 125.25 L 185.53125 99.59375 M 155.0625 125.21875 L 185.53125 152.03125 M 149.96875 185.90625 L 124.03125 157.125 M 98.0625 185.90625 L 124.03125 157.125 M 62.5 150.90625 L 91.84375 125.21875 M 62.5 99.53125 L 91.84375 125.21875 M 124 92.46875 L 62.5 99.53125 M 124 92.46875 L 185.53125 99.53125 M 155.0625 125.21875 L 149.6875 62.84375 M 155.0625 125.21875 L 149.96875 185.90625 M 185.53125 152.03125 L 124 157.125 M 62.5 150.875 L 124.03125 157.125 M 98.0625 185.90625 L 91.8125 125.21875 M 98.0625 63.125 L 91.8125 125.21875 " transform="matrix(0.125, 0, 0, 0.125, 0, 0)"/>
<path fill="none" stroke-width="1.008" stroke-linecap="round" stroke-linejoin="round" stroke="rgb(15.686275%, 29.019609%, 41.568628%)" stroke-opacity="1" stroke-miterlimit="4" d="M 34.28125 107.4375 L 62.5 99.53125 M 68.40625 41.96875 L 98.09375 63.15625 M 104.8125 28.71875 L 98.0625 63.15625 M 104.8125 28.71875 L 149.6875 62.84375 M 142.90625 28.71875 L 149.6875 62.84375 M 179.3125 41.96875 L 149.65625 62.875 M 205.84375 69.9375 L 149.6875 62.84375 M 185.53125 99.53125 L 205.84375 69.875 M 185.53125 99.53125 L 214.3125 107.4375 M 185.53125 99.53125 L 213.75 142.4375 M 142.90625 28.71875 L 98.0625 63.15625 M 185.53125 99.53125 L 179.28125 41.96875 M 185.53125 152.03125 L 213.75 142.4375 M 185.53125 152.03125 L 214.3125 107.4375 M 185.53125 152.03125 L 205.84375 179.40625 M 185.53125 152.03125 L 179.28125 207.34375 M 149.96875 185.90625 L 179.3125 207.34375 M 149.96875 185.90625 L 205.84375 179.40625 M 149.96875 185.90625 L 143.25 220.5625 M 149.96875 185.90625 L 104.8125 220.5625 M 98.0625 185.90625 L 104.8125 220.65625 M 98.0625 185.90625 L 143.25 220.5625 M 98.09375 185.90625 L 68.40625 207.34375 M 98.0625 185.90625 L 42.125 179.6875 M 62.5 150.90625 L 42.125 179.6875 M 62.5 150.90625 L 68.40625 207.34375 M 62.5 150.90625 L 34 142.15625 M 62.5 99.53125 L 34 142.15625 M 62.5 150.90625 L 34.25 107.4375 M 68.40625 41.96875 L 62.5 99.5625 M 42.125 69.90625 L 98 63.125 " transform="matrix(0.125, 0, 0, 0.125, 0, 0)"/>
<path fill="none" stroke-width="0.784" stroke-linecap="round" stroke-linejoin="round" stroke="rgb(14.117648%, 25.098041%, 36.470589%)" stroke-opacity="1" stroke-miterlimit="4" d="M 68.40625 41.96875 L 46.6875 31.8125 M 68.40625 41.96875 L 66.71875 18.28125 M 104.8125 28.71875 L 66.71875 18.28125 M 104.8125 28.71875 L 88.46875 8.6875 M 104.8125 28.71875 L 111.59375 4.6875 M 68.40625 41.96875 L 88.4375 8.6875 M 142.90625 28.71875 L 111.59375 4.6875 M 142.90625 28.71875 L 135.84375 3.875 M 104.78125 28.71875 L 135.84375 3.875 M 142.90625 28.71875 L 159.28125 8.65625 M 179.34375 41.96875 L 159.25 8.6875 M 179.3125 41.96875 L 181.3125 18.28125 M 142.90625 28.71875 L 181.28125 18.28125 M 179.3125 41.96875 L 201.59375 30.6875 M 179.3125 41.96875 L 218 47.90625 M 205.84375 69.90625 L 218 47.90625 M 205.84375 69.90625 L 201.625 30.6875 M 205.84375 69.90625 L 231.25 67.9375 M 205.84375 69.90625 L 240.59375 89.65625 M 214.3125 107.4375 L 231.25 67.9375 M 214.3125 107.4375 L 240.5625 89.65625 M 214.3125 107.4375 L 243.65625 113.375 M 213.75 142.4375 L 243.65625 113.375 M 213.75 142.4375 L 244.5 136.78125 M 214.3125 107.4375 L 244.5 136.78125 M 213.75 142.4375 L 240 159.9375 M 205.84375 179.40625 L 240 159.9375 M 205.84375 179.40625 L 230.96875 181.9375 M 213.78125 142.4375 L 230.96875 181.9375 M 205.90625 179.40625 L 217.75 201.65625 M 205.90625 179.40625 L 201.40625 218.34375 M 201.34375 218.34375 L 179.3125 207.34375 M 179.3125 207.34375 L 181.03125 231.9375 M 179.3125 207.34375 L 217.6875 201.6875 M 179.3125 207.34375 L 159.25 241.21875 M 143.25 220.5625 L 159.25 241.1875 M 143.25 220.5625 L 181.0625 231.875 M 143.25 220.5625 L 135.84375 245.96875 M 143.25 220.5625 L 111.625 245.96875 M 104.8125 220.5625 L 111.59375 245.96875 M 104.8125 220.5625 L 135.84375 245.96875 M 104.8125 220.5625 L 88.75 241.1875 M 68.40625 207.34375 L 88.75 241.21875 M 104.8125 220.5625 L 66.4375 232.4375 M 68.40625 207.34375 L 66.4375 232.46875 M 68.40625 207.34375 L 46.40625 219.46875 M 42.125 179.6875 L 46.34375 219.46875 M 68.40625 207.34375 L 29.75 202 M 42.125 179.6875 L 29.71875 201.9375 M 42.125 179.6875 L 16.75 182.21875 M 42.125 179.6875 L 7.1875 160.21875 M 34 142.15625 L 7.1875 160.21875 M 34 142.15625 L 3.5 136.78125 M 34 142.15625 L 16.8125 182.21875 M 34.28125 107.4375 L 3.5 136.78125 M 34 142.15625 L 3.5 113.375 M 34.28125 107.4375 L 8.03125 89.9375 M 34.28125 107.4375 L 3.5 113.375 M 34.28125 107.4375 L 16.78125 67.9375 M 42.125 69.90625 L 16.75 67.9375 M 42.125 69.90625 L 8.03125 89.9375 M 42.125 69.90625 L 30.03125 49.03125 M 42.125 69.90625 L 46.65625 31.8125 M 68.40625 41.96875 L 30.03125 49.03125 " transform="matrix(0.125, 0, 0, 0.125, 0, 0)"/>
<path fill-rule="nonzero" fill="rgb(14.509805%, 43.137255%, 64.705884%)" fill-opacity="1" d="M 9.589844 17.488281 L 9.617188 13.777344 L 13.328125 13.804688 L 13.300781 17.511719 Z M 13.605469 13.402344 L 13.632812 9.691406 L 17.34375 9.71875 L 17.316406 13.425781 Z M 13.605469 21.535156 L 13.632812 17.828125 L 17.34375 17.855469 L 17.316406 21.5625 Z M 17.65625 17.453125 L 17.683594 13.742188 L 21.394531 13.769531 L 21.367188 17.476562 Z M 17.65625 17.453125 "/>
<path fill-rule="nonzero" fill="rgb(20%, 47.058824%, 73.725492%)" fill-opacity="1" d="M 17.441406 9.148438 L 17.460938 6.570312 L 20.046875 6.589844 L 20.027344 9.164062 Z M 10.976562 9.144531 L 10.996094 6.570312 L 13.582031 6.589844 L 13.5625 9.164062 Z M 6.5 13.734375 L 6.519531 11.160156 L 9.105469 11.175781 L 9.085938 13.75 Z M 6.496094 20.203125 L 6.523438 17.628906 L 9.109375 17.65625 L 9.082031 20.230469 Z M 21.917969 20.152344 L 21.933594 17.578125 L 24.523438 17.597656 L 24.503906 20.171875 Z M 21.96875 13.75 L 21.996094 11.175781 L 24.582031 11.203125 L 24.554688 13.777344 Z M 21.96875 13.75 "/>
<path fill-rule="nonzero" fill="rgb(8.627451%, 60.784316%, 83.92157%)" fill-opacity="1" d="M 4.40625 9.578125 L 4.417969 7.886719 L 6.105469 7.898438 L 6.09375 9.589844 Z M 7.707031 6.132812 L 7.71875 4.441406 L 9.410156 4.453125 L 9.398438 6.144531 Z M 12.257812 4.429688 L 12.269531 2.734375 L 13.957031 2.746094 L 13.945312 4.441406 Z M 3.410156 14.269531 L 3.421875 12.574219 L 5.101562 12.585938 L 5.089844 14.28125 Z M 24.878906 7.910156 L 26.570312 7.898438 L 26.582031 9.585938 L 24.890625 9.597656 Z M 21.574219 4.40625 L 23.265625 4.394531 L 23.277344 6.082031 L 21.585938 6.09375 Z M 17.011719 2.742188 L 18.703125 2.730469 L 18.714844 4.421875 L 17.023438 4.433594 Z M 25.863281 12.59375 L 27.554688 12.582031 L 27.566406 14.273438 L 25.875 14.285156 Z M 25.863281 12.59375 "/>
<path fill-rule="nonzero" fill="rgb(20%, 47.058824%, 73.725492%)" fill-opacity="1" d="M 10.941406 24.59375 L 10.957031 22.019531 L 13.546875 22.039062 L 13.527344 24.613281 Z M 17.40625 24.59375 L 17.425781 22.019531 L 20.011719 22.039062 L 19.992188 24.613281 Z M 17.40625 24.59375 "/>
<path fill-rule="nonzero" fill="rgb(8.627451%, 60.784316%, 83.92157%)" fill-opacity="1" d="M 24.867188 23.292969 L 24.878906 21.597656 L 26.566406 21.609375 L 26.554688 23.304688 Z M 21.597656 26.773438 L 21.609375 25.078125 L 23.300781 25.089844 L 23.289062 26.785156 Z M 17.050781 28.441406 L 17.0625 26.75 L 18.75 26.761719 L 18.738281 28.453125 Z M 25.859375 18.601562 L 25.871094 16.910156 L 27.5625 16.921875 L 27.550781 18.613281 Z M 4.40625 21.597656 L 6.101562 21.585938 L 6.113281 23.277344 L 4.417969 23.289062 Z M 7.710938 25.066406 L 9.40625 25.054688 L 9.417969 26.746094 L 7.722656 26.757812 Z M 12.238281 26.730469 L 13.933594 26.71875 L 13.945312 28.40625 L 12.25 28.417969 Z M 3.421875 16.914062 L 5.117188 16.902344 L 5.128906 18.59375 L 3.433594 18.605469 Z M 3.421875 16.914062 "/>
<path fill-rule="nonzero" fill="rgb(0%, 65.882355%, 85.490197%)" fill-opacity="1" d="M 28.417969 8.945312 L 28.425781 8.027344 L 29.359375 8.035156 L 29.355469 8.953125 Z M 29.625 11.714844 L 29.632812 10.800781 L 30.566406 10.804688 L 30.5625 11.722656 Z M 26.785156 6.496094 L 26.792969 5.578125 L 27.726562 5.582031 L 27.71875 6.5 Z M 5.363281 4.398438 L 5.371094 3.480469 L 6.304688 3.488281 L 6.300781 4.40625 Z M 0 14.628906 L 0.0078125 13.710938 L 0.941406 13.71875 L 0.933594 14.636719 Z M 24.726562 4.398438 L 24.730469 3.480469 L 25.667969 3.488281 L 25.660156 4.40625 Z M 0.535156 11.714844 L 0.539062 10.796875 L 1.476562 10.804688 L 1.46875 11.722656 Z M 10.621094 1.558594 L 10.628906 0.640625 L 11.5625 0.644531 L 11.554688 1.5625 Z M 1.667969 8.945312 L 1.675781 8.027344 L 2.609375 8.035156 L 2.605469 8.953125 Z M 3.339844 6.460938 L 3.34375 5.542969 L 4.28125 5.546875 L 4.273438 6.464844 Z M 7.867188 1.820312 L 8.785156 1.8125 L 8.792969 2.75 L 7.875 2.753906 Z M 13.535156 0.015625 L 14.453125 0.0117188 L 14.457031 0.945312 L 13.539062 0.953125 Z M 22.238281 2.765625 L 22.242188 1.847656 L 23.179688 1.851562 L 23.171875 2.769531 Z M 30.089844 14.59375 L 30.09375 13.675781 L 31.03125 13.683594 L 31.023438 14.601562 Z M 16.519531 0.917969 L 16.523438 0 L 17.460938 0.0078125 L 17.453125 0.921875 Z M 19.433594 1.519531 L 19.4375 0.605469 L 20.371094 0.609375 L 20.367188 1.527344 Z M 24.722656 27.773438 L 24.730469 26.855469 L 25.664062 26.863281 L 25.660156 27.78125 Z M 30.089844 17.542969 L 30.09375 16.625 L 31.03125 16.632812 L 31.023438 17.546875 Z M 5.363281 27.773438 L 5.371094 26.855469 L 6.304688 26.863281 L 6.296875 27.777344 Z M 29.625 20.496094 L 29.632812 19.578125 L 30.566406 19.585938 L 30.5625 20.5 Z M 19.429688 30.652344 L 19.4375 29.734375 L 20.371094 29.738281 L 20.367188 30.65625 Z M 28.417969 23.261719 L 28.425781 22.34375 L 29.359375 22.351562 L 29.355469 23.269531 Z M 26.785156 25.75 L 26.792969 24.832031 L 27.726562 24.835938 L 27.71875 25.753906 Z M 22.199219 28.5625 L 23.117188 28.558594 L 23.125 29.492188 L 22.207031 29.5 Z M 16.566406 30.296875 L 17.484375 30.289062 L 17.492188 31.226562 L 16.574219 31.230469 Z M 7.886719 29.515625 L 7.890625 28.597656 L 8.828125 28.601562 L 8.820312 29.519531 Z M 1.632812 23.226562 L 1.640625 22.308594 L 2.574219 22.3125 L 2.570312 23.230469 Z M 0.53125 20.492188 L 0.539062 19.574219 L 1.472656 19.578125 L 1.46875 20.496094 Z M 3.300781 25.746094 L 3.308594 24.828125 L 4.242188 24.835938 L 4.238281 25.753906 Z M 0 17.542969 L 0.0078125 16.625 L 0.941406 16.628906 L 0.933594 17.546875 Z M 13.570312 31.21875 L 13.574219 30.300781 L 14.511719 30.308594 L 14.503906 31.226562 Z M 10.585938 30.613281 L 10.59375 29.695312 L 11.527344 29.703125 L 11.519531 30.621094 Z M 10.585938 30.613281 "/>
</svg>
