<svg role="img" viewBox="0 0 31.801 32" xmlns="http://www.w3.org/2000/svg"><defs><clipPath id="harbor_svg__a"><path d="M8.875 24.25h6.75v6h-6.75Zm0 0"/></clipPath><clipPath id="harbor_svg__b"><path d="m15.34 26.941-6.074-2.68-.34 3.825 6.68 2.121Zm0 0"/></clipPath><clipPath id="harbor_svg__d"><path d="M9.125 8.125h6.125v12.75H9.125Zm0 0"/></clipPath><clipPath id="harbor_svg__e"><path d="M10.453 12.152h3.41v2.91h-.808v-1.238a.898.898 0 1 0-1.793 0v1.239h-.809Zm-.68 6.371 5.059 2.23-.348-4.269h.664v-1.422h-.492v-2.91h.492v-.836l-2.73-2.671v-.188a.26.26 0 0 0-.441-.184.26.26 0 0 0-.075.184v.188l-2.73 2.671v.836h.492v2.91h-.492v1.426h.781Zm0 0"/></clipPath><clipPath id="harbor_svg__g"><path d="M9.375 20.875h5.75v3.5h-5.75Zm0 0"/></clipPath><clipPath id="harbor_svg__h"><path d="m9.477 21.875 5.652 2.492-.086-1.039-5.484-2.414Zm0 0"/></clipPath><clipPath id="harbor_svg__j"><path d="M9.25 22.5h6.125v3.75H9.25Zm0 0"/></clipPath><clipPath id="harbor_svg__k"><path d="m9.328 23.55 5.945 2.622-.082-1.035-5.78-2.547Zm0 0"/></clipPath><clipPath id="harbor_svg__m"><path d="M9.625 19.125H15v3.5H9.625Zm0 0"/></clipPath><clipPath id="harbor_svg__n"><path d="m9.707 19.238-.082.961 5.355 2.363-.085-1.039Zm0 0"/></clipPath><clipPath id="harbor_svg__p"><path d="M15.25 3.25H28v9.875H15.25Zm0 0"/></clipPath><clipPath id="harbor_svg__q"><path d="M27.613 6.152a15.4 15.4 0 0 0-2.633-2.488c-.136-.105-.28-.203-.421-.3l-2 2.074-7.286 7.578L25.31 7.82l2.57-1.324q-.133-.177-.266-.344m0 0"/></clipPath><clipPath id="harbor_svg__s"><path d="M15.25 14.125h16v5.5h-16Zm0 0"/></clipPath><clipPath id="harbor_svg__t"><path d="M31.191 15.887c0-.176-.011-.352-.02-.524l-2.847-.203-13.05-.937 12.8 4.441 2.692.934c.007-.032.02-.063.027-.094.266-1.145.402-2.317.402-3.492v-.121Zm0 0"/></clipPath><clipPath id="harbor_svg__v"><path d="M15.375 9H31v4.625H15.375Zm0 0"/></clipPath><clipPath id="harbor_svg__w"><path d="M30.773 12.438a15 15 0 0 0-1.226-3.336l-2.735.878-11.34 3.641 12.563-.426 2.88-.097c-.048-.223-.09-.442-.142-.66m0 0"/></clipPath><linearGradient gradientTransform="matrix(2.69247 0 0 -2.69247 -703.978 2591.402)" gradientUnits="userSpaceOnUse" id="harbor_svg__c" x1="264.79" x2="267.27" y1="952.39" y2="952.39"><stop offset="0" stop-color="rgb(37.64706%, 72.549021%, 19.607843%)"/><stop offset=".28" stop-color="rgb(37.64706%, 72.549021%, 19.607843%)"/><stop offset="1" stop-color="rgb(21.176471%, 48.627451%, 20.392157%)"/></linearGradient><linearGradient gradientTransform="matrix(2.40756 0 0 -2.40756 -625.993 2315.665)" gradientUnits="userSpaceOnUse" id="harbor_svg__f" x1="263.77" x2="266.26" y1="955.65" y2="955.65"><stop offset="0" stop-color="rgb(37.64706%, 72.549021%, 19.607843%)"/><stop offset=".28" stop-color="rgb(37.64706%, 72.549021%, 19.607843%)"/><stop offset="1" stop-color="rgb(21.176471%, 48.627451%, 20.392157%)"/></linearGradient><linearGradient gradientTransform="matrix(2.27838 0 0 -2.27838 -590.36 2195.58)" gradientUnits="userSpaceOnUse" id="harbor_svg__i" x1="263.28" x2="265.76" y1="953.74" y2="953.74"><stop offset="0" stop-color="rgb(37.64706%, 72.549021%, 19.607843%)"/><stop offset=".28" stop-color="rgb(37.64706%, 72.549021%, 19.607843%)"/><stop offset="1" stop-color="rgb(21.176471%, 48.627451%, 20.392157%)"/></linearGradient><linearGradient gradientTransform="matrix(2.39783 0 0 -2.39783 -623.078 2309.744)" gradientUnits="userSpaceOnUse" id="harbor_svg__l" x1="263.77" x2="266.25" y1="953.2" y2="953.2"><stop offset="0" stop-color="rgb(37.64706%, 72.549021%, 19.607843%)"/><stop offset=".28" stop-color="rgb(37.64706%, 72.549021%, 19.607843%)"/><stop offset="1" stop-color="rgb(21.176471%, 48.627451%, 20.392157%)"/></linearGradient><linearGradient gradientTransform="matrix(2.15893 0 0 -2.15893 -557.643 2081.418)" gradientUnits="userSpaceOnUse" id="harbor_svg__o" x1="262.73" x2="265.21" y1="954.34" y2="954.34"><stop offset="0" stop-color="rgb(37.64706%, 72.549021%, 19.607843%)"/><stop offset=".28" stop-color="rgb(37.64706%, 72.549021%, 19.607843%)"/><stop offset="1" stop-color="rgb(21.176471%, 48.627451%, 20.392157%)"/></linearGradient><linearGradient gradientTransform="scale(5.8477 -5.8477)rotate(36.52 1588.19 68.11)" gradientUnits="userSpaceOnUse" id="harbor_svg__r" x1="272.14" x2="274.62" y1="955.15" y2="955.15"><stop offset="0" stop-color="rgb(27.058825%, 58.823532%, 84.705883%)"/><stop offset=".2" stop-color="rgb(27.058825%, 58.823532%, 84.705883%)"/><stop offset="1" stop-color="rgb(100%, 100%, 100%)"/></linearGradient><linearGradient gradientTransform="scale(6.88381 -6.88381)rotate(-11.54 -4587.339 1803.377)" gradientUnits="userSpaceOnUse" id="harbor_svg__u" x1="270.65" x2="273.13" y1="952.38" y2="952.38"><stop offset="0" stop-color="rgb(25.490198%, 58.039218%, 84.313726%)"/><stop offset=".2" stop-color="rgb(25.490198%, 58.039218%, 84.313726%)"/><stop offset="1" stop-color="rgb(100%, 100%, 100%)"/></linearGradient><linearGradient gradientTransform="scale(6.31311 -6.31311)rotate(10.23 5477.51 -1024.698)" gradientUnits="userSpaceOnUse" id="harbor_svg__x" x1="270.97" x2="273.45" y1="953.75" y2="953.75"><stop offset="0" stop-color="rgb(25.490198%, 58.039218%, 84.313726%)"/><stop offset=".33" stop-color="rgb(26.666668%, 58.823532%, 84.705883%)"/><stop offset="1" stop-color="rgb(100%, 100%, 100%)"/></linearGradient></defs><path d="M2.64 16.012c0-7.278 5.895-13.176 13.173-13.176 7.273 0 13.171 5.898 13.171 13.172 0 7.277-5.898 13.172-13.172 13.172-7.273 0-13.171-5.895-13.171-13.168" fill="rgb(100%, 100%, 100%)"/><g clip-path="url(#harbor_svg__a)"><g clip-path="url(#harbor_svg__b)"><path d="m15.34 26.941-6.074-2.68-.34 3.825 6.68 2.125Zm0 0" fill="url(#harbor_svg__c)"/></g></g><g clip-path="url(#harbor_svg__d)"><g clip-path="url(#harbor_svg__e)"><path d="M10.453 12.152h3.41v2.91h-.808v-1.238a.898.898 0 1 0-1.793 0v1.239h-.809Zm-.68 6.371 5.059 2.23-.348-4.269h.664v-1.422h-.492v-2.91h.492v-.836l-2.73-2.671v-.188a.26.26 0 0 0-.441-.184.26.26 0 0 0-.075.184v.188l-2.73 2.671v.836h.492v2.91h-.492v1.426h.781Zm0 0" fill="url(#harbor_svg__f)"/></g></g><g clip-path="url(#harbor_svg__g)"><g clip-path="url(#harbor_svg__h)"><path d="m9.473 21.875 5.652 2.492-.086-1.039-5.488-2.414-.086.961" fill="url(#harbor_svg__i)"/></g></g><g clip-path="url(#harbor_svg__j)"><g clip-path="url(#harbor_svg__k)"><path d="m9.328 23.55 5.945 2.622-.085-1.035-5.782-2.547-.086.96" fill="url(#harbor_svg__l)"/></g></g><g clip-path="url(#harbor_svg__m)"><g clip-path="url(#harbor_svg__n)"><path d="m9.707 19.238-.086.961 5.36 2.36-.09-1.04-5.188-2.285" fill="url(#harbor_svg__o)"/></g></g><path d="m26.813 9.98 2.734-.878q-.011-.03-.027-.059a15.3 15.3 0 0 0-1.641-2.55L25.305 7.82a12.2 12.2 0 0 1 1.48 2.11c.012.015.016.03.027.047m1.512 5.183 2.848.203a15 15 0 0 0-.266-2.265l-2.875.097c.149.645.246 1.305.29 1.965m-12.314 13.4c-6.918 0-12.547-5.63-12.547-12.551C3.46 9.09 9.094 3.46 16.008 3.46a12.45 12.45 0 0 1 6.75 1.977l2-2.079A15.3 15.3 0 0 0 16.012.625C7.532.625.629 7.527.629 16.012S7.53 31.395 16.012 31.395c7.246 0 13.332-5.043 14.953-11.797l-2.688-.934c-1.222 5.648-6.257 9.895-12.265 9.895" fill="rgb(0%, 0%, 0%)"/><g clip-path="url(#harbor_svg__p)"><g clip-path="url(#harbor_svg__q)"><path d="M27.613 6.152a15.4 15.4 0 0 0-2.633-2.488c-.136-.105-.28-.203-.421-.3l-2 2.074-7.286 7.578L25.31 7.82l2.57-1.324c-.09-.113-.176-.23-.266-.34" fill="url(#harbor_svg__r)"/></g></g><g clip-path="url(#harbor_svg__s)"><g clip-path="url(#harbor_svg__t)"><path d="M31.191 15.887c0-.176-.011-.352-.02-.524l-2.847-.203-13.05-.937 12.8 4.441 2.692.934c.007-.032.02-.063.027-.094.266-1.145.402-2.317.402-3.492v-.121" fill="url(#harbor_svg__u)"/></g></g><g clip-path="url(#harbor_svg__v)"><g clip-path="url(#harbor_svg__w)"><path d="M30.773 12.438a15 15 0 0 0-1.226-3.336l-2.735.878-11.34 3.641 12.563-.426 2.88-.097q-.065-.333-.142-.664" fill="url(#harbor_svg__x)"/></g></g></svg>