<svg role="img" viewBox="0 0 30.365 32" height="32" width="30.365" xmlns="http://www.w3.org/2000/svg"><path d="M26.906 0H16.242v14.129H30.36V3.449A3.45 3.45 0 0 0 26.906 0" fill="rgb(17.647059%, 49.019608%, 89.411765%)"/><path d="M26.906 17.871H19.72c-.914 0-1.793.363-2.438 1.012a3.438 3.438 0 0 0-1.011 2.437v10.672h14.09V21.348a3.434 3.434 0 0 0-1.008-2.442 3.436 3.436 0 0 0-2.446-1.008M12.102 32h-8.57A3.533 3.533 0 0 1 0 28.469V3.53A3.533 3.533 0 0 1 3.531 0h8.57Zm0 0" fill="rgb(1.568627%, 10.196078%, 23.137255%)"/></svg>