<svg role="img" viewBox="0 0 32 32" xmlns="http://www.w3.org/2000/svg"><path d="M29.887 5.184a8.14 8.14 0 0 0-5.774-2.399 8.16 8.16 0 0 0-5.777 2.399l-1.441 1.441-1.438-1.441a8.16 8.16 0 0 0-11.555 0c-1.566 1.535-2.3 3.199-2.3 5.023 0 1.313.351 2.688 1.023 4.191 1.344-.796 2.879-1.277 4.543-1.277 4.863 0 8.8 3.969 8.8 8.832 0 2.145-.769 4.094-2.015 5.633 1.277.988 2.336 1.598 2.879 1.598 1.793 0 10.527-9.122 12.992-12.45 2.496-3.293 3.23-8.351.063-11.55m-22.688 9.57A7.213 7.213 0 0 0 0 21.984c0 4 3.23 7.23 7.2 7.23a7.14 7.14 0 0 0 5.534-2.62 7.34 7.34 0 0 0 1.664-4.64c.036-3.97-3.199-7.2-7.199-7.2m4.192 8.734H8.668v2.719H5.695v-2.719H3.008V20.48h2.687v-2.687h2.977v2.687h2.687v3.008Zm0 0" fill="rgb(25.098041%, 25.098041%, 25.490198%)"/></svg>