<?xml version="1.0" encoding="UTF-8"?>
<svg xmlns="http://www.w3.org/2000/svg" xmlns:xlink="http://www.w3.org/1999/xlink" width="32" height="32" viewBox="0 0 32 32">
<path fill-rule="nonzero" fill="rgb(0%, 0%, 0%)" fill-opacity="1" d="M 16.6875 19.226562 L 27.648438 8.800781 C 28.171875 9.796875 28.5 11.011719 28.5 12.5 C 28.5 16.703125 25.910156 19.9375 23.65625 22.28125 C 21.183594 24.855469 17.164062 28 16 28 C 14.835938 28 10.816406 24.855469 8.34375 22.28125 C 6.089844 19.9375 3.5 16.703125 3.5 12.5 C 3.5 6.832031 8.214844 5 10.5 5 C 13.261719 5 15.035156 6.511719 16 7.695312 C 16.964844 6.511719 18.738281 5 21.5 5 C 22.804688 5 24.898438 5.601562 26.460938 7.171875 L 16.019531 17.105469 L 12.207031 13.292969 C 11.816406 12.902344 11.183594 12.902344 10.792969 13.292969 C 10.402344 13.683594 10.402344 14.316406 10.792969 14.707031 L 15.292969 19.207031 C 15.488281 19.402344 15.742188 19.5 16 19.5 C 16.246094 19.5 16.496094 19.410156 16.6875 19.226562 Z M 16.6875 19.226562 "/>
</svg>
