<svg xmlns="http://www.w3.org/2000/svg"  viewBox="0 0 50 50" width="32px" height="32px"><path d="M 49 4 L 1 4 C 0.449219 4 0 4.449219 0 5 L 0 24 L 8.585938 24 L 12.292969 20.292969 C 12.53125 20.050781 12.878906 19.949219 13.210938 20.023438 C 13.542969 20.09375 13.816406 20.328125 13.9375 20.648438 L 15.808594 25.640625 L 20.03125 8.757813 C 20.148438 8.28125 20.597656 7.96875 21.089844 8.003906 C 21.578125 8.046875 21.964844 8.441406 21.996094 8.933594 L 23.660156 33.859375 L 28.050781 20.683594 C 28.179688 20.300781 28.527344 20.03125 28.929688 20.003906 C 29.347656 19.980469 29.714844 20.191406 29.894531 20.554688 L 33 26.765625 L 34.105469 24.554688 C 34.273438 24.214844 34.621094 24 35 24 L 40.277344 24 C 40.625 23.40625 41.261719 23 42 23 C 43.105469 23 44 23.894531 44 25 C 44 26.105469 43.105469 27 42 27 C 41.261719 27 40.625 26.597656 40.277344 26 L 35.617188 26 L 33.894531 29.445313 C 33.554688 30.125 32.445313 30.125 32.105469 29.445313 L 29.183594 23.605469 L 23.949219 39.316406 C 23.8125 39.730469 23.425781 40 23 40 C 22.957031 40 22.914063 39.996094 22.871094 39.992188 C 22.398438 39.929688 22.035156 39.542969 22.003906 39.066406 L 20.425781 15.421875 L 16.96875 29.242188 C 16.863281 29.667969 16.492188 29.972656 16.054688 29.996094 C 15.625 30.023438 15.21875 29.761719 15.0625 29.351563 L 12.609375 22.804688 L 9.707031 25.707031 C 9.519531 25.894531 9.265625 26 9 26 L 0 26 L 0 45 C 0 45.554688 0.449219 46 1 46 L 49 46 C 49.554688 46 50 45.554688 50 45 L 50 5 C 50 4.449219 49.554688 4 49 4 Z"/></svg>