<?xml version="1.0" encoding="UTF-8"?>
<svg xmlns="http://www.w3.org/2000/svg" xmlns:xlink="http://www.w3.org/1999/xlink" width="32" height="32" viewBox="0 0 32 32">
<path fill-rule="nonzero" fill="rgb(0%, 0%, 0%)" fill-opacity="1" d="M 31.359375 2.558594 L 0.640625 2.558594 C 0.289062 2.558594 0 2.847656 0 3.199219 L 0 15.359375 L 5.496094 15.359375 L 7.867188 12.988281 C 8.019531 12.832031 8.242188 12.765625 8.453125 12.816406 C 8.667969 12.859375 8.84375 13.011719 8.921875 13.214844 L 10.117188 16.410156 L 12.820312 5.605469 C 12.894531 5.300781 13.183594 5.101562 13.496094 5.121094 C 13.808594 5.148438 14.058594 5.402344 14.078125 5.71875 L 15.140625 21.671875 L 17.953125 13.238281 C 18.035156 12.992188 18.257812 12.820312 18.515625 12.800781 C 18.78125 12.789062 19.015625 12.921875 19.132812 13.15625 L 21.121094 17.128906 L 21.828125 15.714844 C 21.933594 15.496094 22.15625 15.359375 22.398438 15.359375 L 25.777344 15.359375 C 26 14.980469 26.40625 14.71875 26.878906 14.71875 C 27.585938 14.71875 28.160156 15.292969 28.160156 16 C 28.160156 16.707031 27.585938 17.28125 26.878906 17.28125 C 26.40625 17.28125 26 17.023438 25.777344 16.640625 L 22.796875 16.640625 L 21.691406 18.84375 C 21.476562 19.28125 20.765625 19.28125 20.546875 18.84375 L 18.675781 15.109375 L 15.328125 25.164062 C 15.238281 25.425781 14.992188 25.601562 14.71875 25.601562 C 14.691406 25.601562 14.664062 25.597656 14.636719 25.59375 C 14.335938 25.554688 14.101562 25.308594 14.082031 25.003906 L 13.074219 9.871094 L 10.859375 18.714844 C 10.792969 18.988281 10.554688 19.183594 10.273438 19.199219 C 10 19.214844 9.738281 19.046875 9.640625 18.785156 L 8.070312 14.59375 L 6.210938 16.453125 C 6.09375 16.574219 5.929688 16.640625 5.761719 16.640625 L 0 16.640625 L 0 28.800781 C 0 29.15625 0.289062 29.441406 0.640625 29.441406 L 31.359375 29.441406 C 31.714844 29.441406 32 29.15625 32 28.800781 L 32 3.199219 C 32 2.847656 31.714844 2.558594 31.359375 2.558594 Z M 31.359375 2.558594 "/>
</svg>
