<?xml version="1.0" encoding="UTF-8"?>
<svg xmlns="http://www.w3.org/2000/svg" xmlns:xlink="http://www.w3.org/1999/xlink" width="32" height="32" viewBox="0 0 32 32">
<defs>
<clipPath id="hq-clip-0">
<path clip-rule="nonzero" d="M 1 4 L 31 4 L 31 31 L 1 31 Z M 1 4 "/>
</clipPath>
<clipPath id="hq-clip-1">
<path clip-rule="nonzero" d="M 0 32 L 0 0 L 32 0 L 32 32 Z M 16 8.960938 C 11.777344 8.960938 8.320312 12.414062 8.320312 16.640625 C 8.320312 20.863281 11.777344 24.320312 16 24.320312 C 20.222656 24.320312 23.679688 20.863281 23.679688 16.640625 C 23.679688 12.414062 20.222656 8.960938 16 8.960938 Z M 16 8.960938 "/>
</clipPath>
</defs>
<g clip-path="url(#hq-clip-0)">
<g clip-path="url(#hq-clip-1)">
<path fill-rule="nonzero"  fill-opacity="1" d="M 16 30.273438 L 15.589844 29.933594 C 14.8125 29.28125 13.761719 28.578125 12.539062 27.761719 C 7.789062 24.578125 1.28125 20.226562 1.28125 12.800781 C 1.28125 8.210938 5.011719 4.480469 9.601562 4.480469 C 12.09375 4.480469 14.425781 5.589844 16 7.488281 C 17.574219 5.589844 19.90625 4.480469 22.398438 4.480469 C 26.988281 4.480469 30.71875 8.210938 30.71875 12.800781 C 30.71875 20.226562 24.210938 24.578125 19.460938 27.761719 C 18.238281 28.578125 17.1875 29.28125 16.410156 29.933594 Z M 16 30.273438 "/>
</g>
</g>
<path fill-rule="nonzero"  fill-opacity="1" d="M 16 10.238281 C 12.480469 10.238281 9.601562 13.121094 9.601562 16.640625 C 9.601562 20.160156 12.480469 23.039062 16 23.039062 C 19.519531 23.039062 22.398438 20.160156 22.398438 16.640625 C 22.398438 13.121094 19.519531 10.238281 16 10.238281 Z M 16.640625 19.839844 L 15.359375 19.839844 L 15.359375 18.558594 L 16.640625 18.558594 Z M 17.28125 16.640625 C 16.960938 17.023438 16.640625 17.40625 16.640625 17.921875 L 15.359375 17.921875 C 15.359375 16.960938 15.9375 16.257812 16.320312 15.808594 C 16.449219 15.617188 16.640625 15.425781 16.640625 15.359375 C 16.640625 14.847656 16.257812 14.785156 16 14.71875 C 15.488281 14.71875 15.359375 15.039062 15.359375 15.359375 L 14.078125 15.359375 C 14.078125 14.59375 14.59375 13.441406 16 13.441406 C 16.769531 13.441406 17.921875 13.953125 17.921875 15.359375 C 17.921875 15.871094 17.601562 16.257812 17.28125 16.640625 Z M 17.28125 16.640625 "/>
</svg>
