<?xml version="1.0" encoding="UTF-8"?>
<svg xmlns="http://www.w3.org/2000/svg" xmlns:xlink="http://www.w3.org/1999/xlink" width="32" height="32" viewBox="0 0 32 32">
<path fill-rule="nonzero"  fill-opacity="1" d="M 22.957031 2.558594 C 20.210938 2.558594 17.800781 3.75 15.984375 6.003906 C 14.171875 3.75 11.769531 2.558594 9.042969 2.558594 C 4.058594 2.558594 0 6.636719 0 11.644531 C 0 12.972656 0.199219 14.203125 0.539062 15.359375 L 5.363281 15.359375 L 6.46875 13.152344 C 6.582031 12.925781 6.824219 12.792969 7.074219 12.800781 C 7.328125 12.8125 7.550781 12.976562 7.640625 13.214844 L 8.78125 16.257812 L 10.574219 7.550781 C 10.632812 7.253906 10.898438 7.039062 11.199219 7.039062 C 11.203125 7.039062 11.207031 7.039062 11.207031 7.039062 C 11.515625 7.042969 11.773438 7.265625 11.828125 7.566406 L 13.980469 19.402344 L 16.363281 13.210938 C 16.457031 12.964844 16.695312 12.800781 16.960938 12.800781 C 17.230469 12.800781 17.464844 12.964844 17.558594 13.214844 L 19.023438 17.121094 L 19.9375 15.660156 C 20.054688 15.472656 20.257812 15.359375 20.480469 15.359375 L 23.855469 15.359375 C 24.078125 14.980469 24.488281 14.71875 24.960938 14.71875 C 25.667969 14.71875 26.238281 15.292969 26.238281 16 C 26.238281 16.707031 25.667969 17.28125 24.960938 17.28125 C 24.488281 17.28125 24.078125 17.019531 23.855469 16.640625 L 20.835938 16.640625 L 19.421875 18.898438 C 19.292969 19.105469 19.054688 19.214844 18.816406 19.195312 C 18.574219 19.171875 18.367188 19.011719 18.28125 18.785156 L 16.953125 15.242188 L 14.355469 21.988281 C 14.261719 22.238281 14.023438 22.398438 13.761719 22.398438 C 13.742188 22.398438 13.71875 22.398438 13.699219 22.398438 C 13.414062 22.371094 13.179688 22.15625 13.128906 21.875 L 11.160156 11.042969 L 9.585938 18.6875 C 9.527344 18.96875 9.292969 19.175781 9.011719 19.199219 C 8.714844 19.21875 8.460938 19.050781 8.359375 18.785156 L 6.957031 15.039062 L 6.332031 16.285156 C 6.222656 16.503906 6.003906 16.640625 5.761719 16.640625 L 0.980469 16.640625 C 3.097656 21.828125 8.238281 25.289062 12.238281 27.976562 C 13.535156 28.847656 15.570312 30.554688 15.589844 30.570312 C 15.699219 30.664062 15.839844 30.707031 15.984375 30.707031 C 16.148438 30.707031 16.316406 30.648438 16.445312 30.542969 C 17.300781 29.828125 18.46875 28.847656 19.761719 27.980469 C 24.925781 24.503906 32 19.75 32 11.644531 C 32 6.636719 27.941406 2.558594 22.957031 2.558594 Z M 22.957031 2.558594 "/>
</svg>
