<?xml version="1.0" encoding="UTF-8"?>
<svg xmlns="http://www.w3.org/2000/svg" xmlns:xlink="http://www.w3.org/1999/xlink" width="32" height="32" viewBox="0 0 32 32">
<path fill-rule="nonzero" fill="rgb(0%, 0%, 0%)" fill-opacity="1" d="M 5.652344 16.332031 C 4.589844 15.277344 3.992188 13.835938 4 12.332031 C 4 9.203125 6.535156 6.667969 9.667969 6.667969 C 11.773438 6.667969 13.613281 7.8125 14.585938 9.519531 L 16.078125 9.519531 C 17.085938 7.753906 18.964844 6.664062 21 6.667969 C 24.128906 6.667969 26.667969 9.203125 26.667969 12.332031 C 26.667969 13.894531 26 15.332031 25.011719 16.332031 L 15.332031 26 Z M 25.945312 17.28125 C 27.214844 16 28 14.265625 28 12.332031 C 28 8.46875 24.867188 5.332031 21 5.332031 C 18.667969 5.332031 16.601562 6.464844 15.332031 8.226562 C 14.023438 6.40625 11.910156 5.328125 9.667969 5.332031 C 5.800781 5.332031 2.667969 8.46875 2.667969 12.332031 C 2.667969 14.265625 3.453125 16 4.71875 17.28125 L 15.332031 27.894531 Z M 25.945312 17.28125 "/>
</svg>
