<svg role="img" viewBox="0 0 32 32" xmlns="http://www.w3.org/2000/svg"><path d="M8.738 7.754c-.039-.04-.078-.074-.117-.11-.805-.777-1.43-1.675-1.809-2.734-.105-.297-.187-.601-.171-.918q-.001-.046.004-.094c.027-.41.304-.62.707-.523q.192.053.367.14c.441.223.8.551 1.133.907a7.2 7.2 0 0 1 1.386 2.14q.011.031.028.055c.011.012.023.028.035.035a11.3 11.3 0 0 1 5.183-1.593q-.01-.07-.027-.141a7.2 7.2 0 0 1-.168-2.363c.031-.477.125-.946.281-1.395.078-.234.196-.453.352-.648.058-.07.129-.133.203-.184a.45.45 0 0 1 .516 0c.16.106.289.254.37.43.16.293.274.61.337.937a7.1 7.1 0 0 1 .136 2.114q-.04.65-.222 1.273c.457.086.91.148 1.355.254.89.207 1.754.52 2.57.934.407.203.793.445 1.2.675.011-.027.031-.062.047-.097a6.95 6.95 0 0 1 2.105-2.993c.223-.19.477-.34.754-.44a1.2 1.2 0 0 1 .238-.056c.399-.043.567.207.598.508q.033.336-.05.664a5.6 5.6 0 0 1-.688 1.582c-.434.7-.95 1.332-1.606 1.844a.5.5 0 0 0-.066.063c.64.593 1.21 1.253 1.699 1.976q-.053.013-.105.02-1.021-.001-2.036.004a.26.26 0 0 1-.203-.11 9.5 9.5 0 0 0-5.644-2.98 9.2 9.2 0 0 0-1.938-.075 9.36 9.36 0 0 0-5.281 2.036q-.586.463-1.086 1.015a.31.31 0 0 1-.25.114q-.968-.005-1.941-.004h-.137c.039-.153.437-.7.887-1.188.336-.363.691-.707 1.054-1.074M25.25 22.266c-.45.632-.965 1.214-1.535 1.738l.12.101a6.95 6.95 0 0 1 2.157 3.079c.11.296.16.609.14.925a1 1 0 0 1-.05.235.46.46 0 0 1-.52.324 1.4 1.4 0 0 1-.433-.129 3.6 3.6 0 0 1-.59-.375 6.83 6.83 0 0 1-2.105-2.988c-.012-.031-.028-.067-.047-.121q-.769.51-1.602.898a11.5 11.5 0 0 1-3.52.965l.028.14c.195.762.262 1.551.191 2.333a5 5 0 0 1-.28 1.437 5 5 0 0 1-.27.559.8.8 0 0 1-.149.191c-.254.262-.558.266-.808-.004q-.146-.165-.25-.36c-.196-.37-.297-.773-.368-1.183a7.4 7.4 0 0 1-.09-1.691c.02-.414.083-.828.188-1.227l.023-.105-.011-.047a11.3 11.3 0 0 1-5.184-1.598q-.035.082-.07.157a7.1 7.1 0 0 1-1.977 2.648 2.4 2.4 0 0 1-.77.445.77.77 0 0 1-.417.047.45.45 0 0 1-.348-.289c-.09-.219-.074-.445-.043-.672q.077-.473.277-.914a7.2 7.2 0 0 1 1.696-2.414c.031-.027.058-.055.09-.086l.023-.039a11.5 11.5 0 0 1-1.824-2.004 1 1 0 0 1 .148-.012c.672-.003 1.344 0 2.02-.003a.29.29 0 0 1 .234.105 9.6 9.6 0 0 0 2.524 1.848 8.9 8.9 0 0 0 3.18.945q4.522.44 7.784-2.742a.48.48 0 0 1 .383-.156c.625.007 1.254 0 1.883 0h.16Zm-2.805-9.61c.18 0 .352.012.52-.004.191-.015.332.051.469.18.808.746 1.625 1.48 2.437 2.219l.137.117.137-.117c.835-.762 1.675-1.528 2.511-2.293.07-.07.168-.11.27-.102.207.008.414 0 .629 0v6.742c-.11.036-1.59.04-1.77.004v-3.414l-.031-.015c-.578.527-1.156 1.05-1.746 1.59-.59-.532-1.172-1.06-1.758-1.583l-.031.012c-.004.285 0 .57 0 .856v2.57H22.46c-.031-.113-.047-6.379-.016-6.762m-16.195.008h1.742c.035.113.043 6.59.008 6.754H6.254c-.012-.43-.004-.855-.004-1.285-.004-.422 0-.848 0-1.281H4.086v2.543c-.133.039-1.621.043-1.77.007v-6.738h1.762v2.383c.129.035 1.98.043 2.168.008l.004-.582Zm3.836 6.75v-6.73c.101-.032 3.937-.047 4.187-.012v1.433c-.054.004-.113.012-.171.012h-2.239v1.117h2.133v1.485h-2.113c-.035.125-.047 1.011-.016 1.258.051.003.11.011.168.011h2.238v1.426Zm6.187.004c-.03-.18-.023-6.629.008-6.754h1.739v4.977c.074.004.132.011.19.011h2.25v1.766Zm0 0" fill="rgb(5.882353%, 8.627451%, 53.725493%)"/></svg>