<svg role="img" viewBox="0 0 32 32" height="32" width="32" xmlns="http://www.w3.org/2000/svg"><path d="M16 1.281C7.883 1.281 1.281 7.883 1.281 16c0 8.117 6.602 14.719 14.719 14.719 8.117 0 14.719-6.602 14.719-14.719 0-8.117-6.602-14.719-14.719-14.719m1.148 22.356c0 .14-.09.23-.226.23h-1.746c-.137 0-.23-.09-.23-.23v-1.973a.22.22 0 0 1 .23-.23h1.746c.137 0 .226.093.226.23Zm2.02-8.746-1.535 2.113c-.461.617-.598.941-.598 1.719v.734c0 .14-.094.23-.23.23h-1.516c-.137.004-.226-.09-.226-.226v-.941c0-.918.203-1.399.687-2.067l1.54-2.113c.8-1.102 1.077-1.63 1.077-2.41 0-1.309-.918-2.133-2.226-2.133-1.286 0-2.114.781-2.387 2.18-.024.136-.117.207-.254.183l-1.445-.254c-.14-.02-.207-.113-.184-.25.344-2.203 1.926-3.652 4.317-3.652 2.476 0 4.152 1.629 4.152 3.902 0 1.102-.39 1.906-1.172 2.985m0 0"/></svg>