<?xml version="1.0" encoding="UTF-8"?>
<svg xmlns="http://www.w3.org/2000/svg" xmlns:xlink="http://www.w3.org/1999/xlink" width="32" height="32" viewBox="0 0 32 32">
<path fill-rule="nonzero" fill="rgb(0%, 0%, 0%)" fill-opacity="1" d="M 16 1.28125 C 7.882812 1.28125 1.28125 7.882812 1.28125 16 C 1.28125 24.117188 7.882812 30.71875 16 30.71875 C 24.117188 30.71875 30.71875 24.117188 30.71875 16 C 30.71875 7.882812 24.117188 1.28125 16 1.28125 M 16.640625 23.039062 C 16.640625 23.210938 16.574219 23.371094 16.453125 23.492188 C 16.332031 23.613281 16.171875 23.679688 16 23.679688 C 15.832031 23.679688 15.667969 23.613281 15.546875 23.492188 C 15.425781 23.371094 15.359375 23.207031 15.359375 23.039062 L 15.359375 8.960938 C 15.359375 8.789062 15.425781 8.628906 15.546875 8.507812 C 15.667969 8.386719 15.828125 8.320312 16 8.320312 C 16.171875 8.320312 16.332031 8.386719 16.453125 8.507812 C 16.574219 8.628906 16.640625 8.792969 16.640625 8.960938 Z M 16.640625 23.039062 "/>
</svg>
