<?xml version="1.0" encoding="UTF-8"?>
<svg xmlns="http://www.w3.org/2000/svg" xmlns:xlink="http://www.w3.org/1999/xlink" width="32" height="32" viewBox="0 0 32 32">
<path fill-rule="evenodd" fill="rgb(0%, 0%, 0%)" fill-opacity="1" d="M 16 9.675781 C 17.714844 9.675781 19.378906 9.90625 20.960938 10.328125 L 19.09375 12.195312 C 17.144531 10.605469 14.304688 10.753906 12.53125 12.535156 C 11.613281 13.453125 11.09375 14.699219 11.09375 16 C 11.09375 17.167969 11.503906 18.25 12.195312 19.09375 L 9.953125 21.339844 C 6.84375 20.289062 4.058594 18.449219 1.871094 16 C 5.460938 11.972656 10.601562 9.671875 16 9.675781 M 22.046875 10.660156 C 25.15625 11.710938 27.941406 13.550781 30.128906 16 C 26.539062 20.027344 21.398438 22.328125 16 22.324219 C 14.285156 22.324219 12.621094 22.09375 11.039062 21.671875 L 12.90625 19.804688 C 14.855469 21.394531 17.695312 21.246094 19.46875 19.464844 C 20.390625 18.546875 20.910156 17.300781 20.90625 16 C 20.910156 14.871094 20.519531 13.777344 19.804688 12.90625 Z M 18.386719 12.90625 C 16.832031 11.707031 14.625 11.847656 13.234375 13.238281 C 11.847656 14.628906 11.707031 16.832031 12.90625 18.386719 Z M 13.613281 19.09375 C 15.167969 20.292969 17.375 20.152344 18.765625 18.761719 C 19.496094 18.027344 19.90625 17.035156 19.90625 16 C 19.90625 15.101562 19.605469 14.269531 19.09375 13.613281 Z M 13.613281 19.09375 "/>
</svg>
