<svg role="img" viewBox="0 0 32 32" xmlns="http://www.w3.org/2000/svg"><path d="M16 9.676c1.715 0 3.379.23 4.96.652l-1.866 1.867a4.897 4.897 0 0 0-6.563.34A4.9 4.9 0 0 0 11.094 16c0 1.168.41 2.25 1.101 3.094L9.953 21.34A19 19 0 0 1 1.871 16 18.9 18.9 0 0 1 16 9.676m6.047.984A19 19 0 0 1 30.129 16 18.9 18.9 0 0 1 16 22.324c-1.715 0-3.379-.23-4.96-.652l1.866-1.867a4.897 4.897 0 0 0 6.563-.34A4.87 4.87 0 0 0 20.906 16a4.87 4.87 0 0 0-1.101-3.094Zm-3.66 2.246a3.91 3.91 0 0 0-5.152.332 3.91 3.91 0 0 0-.329 5.149Zm-4.774 6.188a3.91 3.91 0 0 0 5.152-.332A3.9 3.9 0 0 0 19.907 16c0-.898-.3-1.73-.812-2.387Zm0 0" fill="rgb(0%, 0%, 0%)" fill-rule="evenodd"/></svg>