<?xml version="1.0" encoding="UTF-8"?>
<svg xmlns="http://www.w3.org/2000/svg" xmlns:xlink="http://www.w3.org/1999/xlink" width="32" height="32" viewBox="0 0 32 32">
<path fill-rule="nonzero" fill="rgb(0%, 0%, 0%)" fill-opacity="1" d="M 3.828125 1.921875 C 3.65625 1.925781 3.496094 1.996094 3.375 2.117188 L 2.097656 3.464844 C 1.984375 3.585938 1.921875 3.742188 1.921875 3.90625 L 1.921875 24.320312 C 1.917969 24.339844 1.921875 24.363281 1.921875 24.382812 C 1.933594 25.71875 2.316406 26.9375 2.976562 27.859375 C 3.621094 28.765625 4.570312 29.390625 5.652344 29.433594 C 5.6875 29.4375 5.726562 29.441406 5.761719 29.441406 L 27.519531 29.441406 C 27.550781 29.441406 27.585938 29.4375 27.617188 29.433594 C 28.703125 29.394531 29.65625 28.769531 30.304688 27.859375 C 30.972656 26.921875 31.359375 25.679688 31.359375 24.320312 C 31.359375 22.960938 30.972656 21.71875 30.304688 20.78125 C 29.65625 19.875 28.707031 19.246094 27.628906 19.207031 C 27.59375 19.203125 27.554688 19.199219 27.519531 19.199219 L 24.960938 19.199219 L 24.960938 2.558594 C 24.960938 2.300781 24.804688 2.066406 24.566406 1.964844 C 24.324219 1.867188 24.050781 1.925781 23.867188 2.109375 L 21.765625 4.214844 L 19.652344 2.109375 C 19.402344 1.859375 18.996094 1.859375 18.746094 2.109375 L 16.640625 4.214844 L 14.53125 2.109375 C 14.410156 1.988281 14.25 1.921875 14.078125 1.921875 C 13.910156 1.921875 13.75 1.988281 13.628906 2.109375 L 11.519531 4.214844 L 9.414062 2.109375 C 9.164062 1.859375 8.757812 1.859375 8.507812 2.109375 L 6.398438 4.214844 L 4.292969 2.109375 C 4.171875 1.984375 4.003906 1.917969 3.828125 1.921875 M 5.761719 7.679688 L 14.71875 7.679688 L 14.71875 8.960938 L 5.761719 8.960938 Z M 16.640625 7.679688 L 21.121094 7.679688 L 21.121094 8.960938 L 16.640625 8.960938 Z M 5.761719 10.238281 L 10.238281 10.238281 L 10.238281 11.519531 L 5.761719 11.519531 Z M 12.160156 10.238281 L 21.121094 10.238281 L 21.121094 11.519531 L 12.160156 11.519531 Z M 5.761719 12.800781 L 8.960938 12.800781 L 8.960938 14.078125 L 5.761719 14.078125 Z M 10.878906 12.800781 L 15.359375 12.800781 L 15.359375 14.078125 L 10.878906 14.078125 Z M 17.28125 12.800781 L 21.121094 12.800781 L 21.121094 14.078125 L 17.28125 14.078125 Z M 5.761719 15.359375 L 12.800781 15.359375 L 12.800781 16.640625 L 5.761719 16.640625 Z M 14.71875 15.359375 L 21.121094 15.359375 L 21.121094 16.640625 L 14.71875 16.640625 Z M 24.320312 20.480469 L 27.519531 20.480469 C 28.160156 20.480469 28.769531 20.839844 29.261719 21.523438 C 29.3125 21.59375 29.351562 21.683594 29.398438 21.761719 L 9.085938 21.761719 C 8.941406 21.417969 8.757812 21.089844 8.542969 20.78125 C 8.46875 20.675781 8.390625 20.582031 8.3125 20.484375 C 13.109375 20.5 24.320312 20.480469 24.320312 20.480469 M 5.746094 20.480469 L 5.773438 20.480469 C 6.410156 20.488281 7.015625 20.84375 7.503906 21.523438 C 7.992188 22.210938 8.320312 23.207031 8.320312 24.320312 C 8.320312 25.433594 7.992188 26.429688 7.503906 27.117188 C 7.011719 27.800781 6.402344 28.160156 5.761719 28.160156 C 5.117188 28.160156 4.507812 27.800781 4.015625 27.117188 C 3.527344 26.429688 3.199219 25.433594 3.199219 24.320312 C 3.199219 23.207031 3.527344 22.210938 4.015625 21.523438 C 4.503906 20.84375 5.109375 20.488281 5.746094 20.480469 M 5.761719 22.398438 C 5.054688 22.398438 4.480469 23.257812 4.480469 24.320312 C 4.480469 25.378906 5.054688 26.238281 5.761719 26.238281 C 6.46875 26.238281 7.039062 25.378906 7.039062 24.320312 C 7.039062 23.257812 6.46875 22.398438 5.761719 22.398438 M 5.761719 22.398438 "/>
</svg>
