<svg role="img" viewBox="0 0 32 32" height="32" width="32" xmlns="http://www.w3.org/2000/svg"><path d="M1.281 16c0 8.129 6.59 14.719 14.719 14.719S30.719 24.129 30.719 16 24.129 1.281 16 1.281c-2.941 0-5.672.871-7.969 2.356V2.59a1.92 1.92 0 0 0-3.84 0v4.629A14.639 14.639 0 0 0 1.281 16m1.278-.031c0-2.114.507-4.246 1.464-6.16l1.149.574a12.497 12.497 0 0 0-1.332 5.586c0 6.707 5.457 12.16 12.16 12.16s12.16-5.453 12.16-12.16c0-6.703-5.457-12.16-12.16-12.16-3.129 0-6.14 1.207-8.398 3.375h3.742a.642.642 0 0 1 0 1.28H5.469V2.59a.642.642 0 0 1 1.281 0v3.64A13.372 13.372 0 0 1 16 2.531c7.41 0 13.441 6.028 13.441 13.438 0 7.414-6.03 13.441-13.441 13.441-7.41 0-13.441-6.027-13.441-13.441m12.8-1.07V5.761h1.282v9.136c.379.223.64.63.64 1.102 0 .707-.574 1.281-1.281 1.281-.113 0-.223-.02-.328-.047l-4.34 4.34-.906-.906 4.34-4.34a1.358 1.358 0 0 1-.047-.328c0-.473.258-.879.64-1.102m0 0"/></svg>