<?xml version="1.0" encoding="UTF-8"?>
<svg xmlns="http://www.w3.org/2000/svg" xmlns:xlink="http://www.w3.org/1999/xlink" width="32" height="32" viewBox="0 0 32 32">
<path fill-rule="nonzero" fill="rgb(0%, 0%, 0%)" fill-opacity="1" d="M 1.28125 16 C 1.28125 24.128906 7.871094 30.71875 16 30.71875 C 24.128906 30.71875 30.71875 24.128906 30.71875 16 C 30.71875 7.871094 24.128906 1.28125 16 1.28125 C 13.058594 1.28125 10.328125 2.152344 8.03125 3.636719 L 8.03125 2.589844 C 8.03125 1.53125 7.171875 0.671875 6.109375 0.671875 C 5.050781 0.671875 4.191406 1.53125 4.191406 2.589844 L 4.191406 7.21875 C 2.296875 9.753906 1.277344 12.835938 1.28125 16 M 2.558594 15.96875 C 2.558594 13.855469 3.066406 11.722656 4.023438 9.808594 L 5.171875 10.382812 C 4.300781 12.117188 3.84375 14.027344 3.839844 15.96875 C 3.839844 22.675781 9.296875 28.128906 16 28.128906 C 22.703125 28.128906 28.160156 22.675781 28.160156 15.96875 C 28.160156 9.265625 22.703125 3.808594 16 3.808594 C 12.871094 3.808594 9.859375 5.015625 7.601562 7.183594 L 11.34375 7.183594 C 11.679688 7.210938 11.933594 7.488281 11.933594 7.824219 C 11.933594 8.160156 11.679688 8.4375 11.34375 8.464844 L 5.46875 8.464844 L 5.46875 2.589844 C 5.492188 2.253906 5.773438 1.992188 6.109375 1.992188 C 6.445312 1.992188 6.726562 2.253906 6.75 2.589844 L 6.75 6.230469 C 9.242188 3.851562 12.554688 2.527344 16 2.53125 C 23.410156 2.53125 29.441406 8.558594 29.441406 15.96875 C 29.441406 23.382812 23.410156 29.410156 16 29.410156 C 8.589844 29.410156 2.558594 23.382812 2.558594 15.96875 M 15.359375 14.898438 L 15.359375 5.761719 L 16.640625 5.761719 L 16.640625 14.898438 C 17.019531 15.121094 17.28125 15.527344 17.28125 16 C 17.28125 16.707031 16.707031 17.28125 16 17.28125 C 15.886719 17.28125 15.777344 17.261719 15.671875 17.234375 L 11.332031 21.574219 L 10.425781 20.667969 L 14.765625 16.328125 C 14.738281 16.21875 14.722656 16.109375 14.71875 16 C 14.71875 15.527344 14.976562 15.121094 15.359375 14.898438 M 15.359375 14.898438 "/>
</svg>
