<svg role="img" viewBox="0 0 32 32" xmlns="http://www.w3.org/2000/svg"><path d="M3.828 1.922a.65.65 0 0 0-.453.195L2.098 3.465a.644.644 0 0 0-.176.441V24.32c-.004.02 0 .043 0 .063.012 1.336.394 2.555 1.055 3.476.644.907 1.593 1.532 2.675 1.575a.96.96 0 0 0 .11.007H27.52a.822.822 0 0 0 .097-.007c1.086-.04 2.04-.664 2.688-1.575.668-.937 1.054-2.18 1.054-3.539 0-1.36-.386-2.601-1.054-3.539-.649-.906-1.598-1.535-2.676-1.574a1.03 1.03 0 0 0-.11-.008h-2.558V2.56a.638.638 0 0 0-1.094-.45l-2.101 2.106-2.114-2.106a.641.641 0 0 0-.906 0l-2.105 2.106-2.11-2.106a.637.637 0 0 0-.902 0l-2.11 2.106L9.414 2.11a.641.641 0 0 0-.906 0l-2.11 2.106L4.293 2.11a.624.624 0 0 0-.465-.187M5.762 7.68h8.957v1.28H5.762Zm10.879 0h4.48v1.28h-4.48ZM5.76 10.238h4.477v1.282H5.762Zm6.4 0h8.96v1.282h-8.96Zm-6.4 2.563h3.2v1.277h-3.2Zm5.118 0h4.48v1.277h-4.48Zm6.402 0h3.84v1.277h-3.84ZM5.76 15.359h7.04v1.282H5.76Zm8.958 0h6.402v1.282h-6.4Zm9.601 5.121h3.2c.64 0 1.25.36 1.742 1.043.05.07.09.16.136.239H9.086a5.271 5.271 0 0 0-.543-.98c-.074-.106-.152-.2-.23-.298 4.796.016 16.007-.004 16.007-.004m-18.574 0h.027c.637.008 1.243.364 1.73 1.043.49.688.817 1.684.817 2.797 0 1.114-.328 2.11-.816 2.797-.492.684-1.102 1.043-1.742 1.043-.645 0-1.254-.36-1.746-1.043-.489-.687-.817-1.683-.817-2.797 0-1.113.328-2.11.817-2.797.488-.68 1.093-1.035 1.73-1.043m.016 1.918c-.707 0-1.282.86-1.282 1.922 0 1.059.575 1.918 1.282 1.918.707 0 1.277-.86 1.277-1.918 0-1.062-.57-1.922-1.277-1.922m0 0"/></svg>