<svg role="img" viewBox="0 0 32 32" xmlns="http://www.w3.org/2000/svg"><path d="M6.273 28.8H4.48c-.77 0-1.28.512-1.28 1.278 0 .77.51 1.281 1.28 1.281h22.91c.77 0 1.282-.511 1.282-1.28 0-.767-.512-1.278-1.281-1.278H25.6c-.64-6.403-5.12-10.88-7.554-12.801 2.433-1.922 6.914-6.398 7.555-12.8h1.789c.64 0 1.277-.513 1.277-1.278 0-.64-.637-1.281-1.277-1.281H4.35c-.64 0-1.28.64-1.28 1.28 0 .767.64 1.278 1.28 1.278h1.794c.64 6.403 5.12 10.88 7.55 12.801-2.304 1.922-6.785 6.398-7.422 12.8m3.966-20.99C9.602 6.4 9.09 4.864 8.832 3.2h14.336c-.258 1.664-.77 3.2-1.406 4.61Zm5.25 10.238.512-.383.512.383c1.023.77 2.558 2.176 3.84 4.098H11.52c1.41-1.922 2.945-3.329 3.968-4.098"/></svg>