<svg role="img" viewBox="0 0 38.857 32" xmlns="http://www.w3.org/2000/svg"><defs><linearGradient gradientTransform="matrix(34.69922 0 0 12.17188 .855 0)" gradientUnits="userSpaceOnUse" id="ibm-cloud_svg__a" x1=".824" x2=".217" y1="-.124" y2="1.043"><stop offset="0" stop-color="rgb(31.37255%, 100%, 82.352942%)"/><stop offset=".01" stop-color="rgb(0%, 39.215687%, 100%)"/></linearGradient><linearGradient gradientTransform="matrix(22.80078 0 0 19.98047 5.809 7.094)" gradientUnits="userSpaceOnUse" id="ibm-cloud_svg__b" x1=".824" x2=".217" y1="-.124" y2="1.043"><stop offset="0" stop-color="rgb(31.37255%, 100%, 82.352942%)"/><stop offset=".01" stop-color="rgb(0%, 39.215687%, 100%)"/></linearGradient><linearGradient gradientTransform="matrix(36.5703 0 0 14.88672 0 15.621)" gradientUnits="userSpaceOnUse" id="ibm-cloud_svg__c" x1=".824" x2=".217" y1="-.124" y2="1.043"><stop offset="0" stop-color="rgb(31.37255%, 100%, 82.352942%)"/><stop offset=".01" stop-color="rgb(0%, 39.215687%, 100%)"/></linearGradient><linearGradient gradientTransform="matrix(6.91406 0 0 7.41797 0 15.473)" gradientUnits="userSpaceOnUse" id="ibm-cloud_svg__d" x1=".824" x2=".217" y1="-.124" y2="1.043"><stop offset="0" stop-color="rgb(31.37255%, 100%, 82.352942%)"/><stop offset=".01" stop-color="rgb(0%, 39.215687%, 100%)"/></linearGradient><linearGradient gradientTransform="matrix(16.57422 0 0 8.90234 17.586 12.594)" gradientUnits="userSpaceOnUse" id="ibm-cloud_svg__e" x1=".824" x2=".217" y1="-.124" y2="1.043"><stop offset="0" stop-color="rgb(31.37255%, 100%, 82.352942%)"/><stop offset=".01" stop-color="rgb(0%, 39.215687%, 100%)"/></linearGradient></defs><path d="M4.848 12.172a.84.84 0 0 1-.348-.094l-3.273-1.781a.64.64 0 0 1-.332-.805.71.71 0 0 1 .898-.387l.117.055 3.27 1.781c.332.164.468.567.293.88-.118.222-.352.35-.625.35m5.668-5.323a.71.71 0 0 1-.602-.332l-1.89-3.082a.67.67 0 0 1 .136-.864.706.706 0 0 1 .973.075c.02.035.058.054.078.09L11.1 5.82c.196.293.118.68-.175.899a.7.7 0 0 1-.41.129m7.011-2.645V.7c0-.367.274-.66.664-.699.387-.016.7.258.72.625v3.633c0 .367-.313.664-.7.664h-.043c-.348-.059-.64-.367-.64-.719m8.413 2.645a.7.7 0 0 1-.39-.11.66.66 0 0 1-.176-.902l1.89-3.082a.725.725 0 0 1 .954-.238c.039.023.078.035.097.074.25.215.309.582.137.863l-1.89 3.082a.79.79 0 0 1-.622.313m5.649 5.324a.72.72 0 0 1-.625-.352.66.66 0 0 1-.043-.5c.058-.164.18-.3.336-.379l3.23-1.761a.74.74 0 0 1 .899.129c.254.273.215.675-.078.918-.04.015-.059.054-.098.07l-3.313 1.8a.6.6 0 0 1-.308.075m0 0" fill="url(#ibm-cloud_svg__a)"/><path d="M9.445 27.074c-4.847-4.57-4.847-11.984 0-16.554s12.72-4.57 17.567 0a12 12 0 0 1 1.597 1.835l-1.148.715c-.176-.238-.352-.476-.547-.699q-.41-.492-.875-.934c-4.305-4.058-11.297-4.058-15.621 0-4.3 4.055-4.3 10.645 0 14.72Zm0 0" fill="url(#ibm-cloud_svg__b)"/><path d="M27.09 30.508H7.965C3.523 30.468-.04 27.074 0 22.89l1.383.02c-.02 3.448 2.922 6.276 6.582 6.312H27.07c4.48 0 8.102-3.414 8.121-7.637 0-1.871-.738-3.688-2.066-5.102l1.035-.863c3.485 3.691 3.153 9.344-.742 12.629a9.94 9.94 0 0 1-6.328 2.258m0 0" fill="url(#ibm-cloud_svg__c)"/><path d="M1.383 22.89 0 22.872c.02-3.672 2.844-6.789 6.68-7.398l.234 1.285c-3.176.515-5.512 3.101-5.531 6.133m0 0" fill="url(#ibm-cloud_svg__d)"/><path d="m18.969 21.496-1.383-.02c.039-4.937 4.324-8.921 9.562-8.882 2.668.015 5.22 1.101 7.012 2.972l-1.035.864c-2.977-3.14-8.117-3.414-11.45-.606-1.695 1.469-2.687 3.524-2.706 5.672m0 0" fill="url(#ibm-cloud_svg__e)"/></svg>