<svg role="img" viewBox="0 0 36.923 32" xmlns="http://www.w3.org/2000/svg"><path d="m0 0 36.922.258-.223 32L-.223 32Zm.879 16.059C3.78 21.133 6.664 26.227 9.566 31.3c1.25.008 2.504-.004 3.754-.004 4.578.031 9.14.055 13.72.07.077.004.112-.078.16-.133q4.424-7.47 8.863-14.933c-2.067-3.617-4.149-7.227-6.215-10.84-.852-1.465-1.684-2.953-2.543-4.41C21.688 1.016 16.07.973 10.453.938c-.203-.004-.41-.02-.613 0-.106.082-.168.25-.242.363-2.903 4.918-5.813 9.84-8.72 14.758Zm0 0" stroke="rgb(100%, 100%, 100%)" stroke-width=".821"/><path d="M9.84.938c.203-.02.41-.004.613 0 5.617.035 11.235.078 16.852.113.86 1.46 1.691 2.945 2.543 4.41 2.066 3.613 4.148 7.223 6.215 10.84a7147 7147 0 0 0-8.864 14.933c-.047.055-.082.137-.16.133-4.578-.015-9.14-.039-13.719-.07-1.25 0-2.504.012-3.754.004C6.664 26.227 3.781 21.133.88 16.059 3.785 11.14 6.695 6.219 9.598 1.3c.074-.113.136-.281.242-.363Zm.637 1.558c-2.715 4.59-5.442 9.176-8.16 13.766q3.96 6.967 7.917 13.933c5.34.035 10.704.04 16.043.055 2.72-4.586 5.442-9.18 8.164-13.766-2.566-4.484-5.14-8.968-7.707-13.449q-.146-.253-.293-.5c-5.32-.004-10.632-.039-15.964-.039Zm0 0" stroke="rgb(63.529414%, 70.980394%, 83.529413%)" stroke-width=".821"/><path d="M26.441 2.535q.147.247.293.5c2.567 4.48 5.141 8.965 7.707 13.45-2.722 4.585-5.445 9.18-8.164 13.765-5.34-.016-10.703-.02-16.043-.055Q6.28 23.23 2.316 16.262c2.72-4.59 5.446-9.176 8.16-13.766 5.333 0 10.645.035 15.965.04ZM2.871 16.262c2.555 4.484 5.098 8.976 7.649 13.457 5.16.015 10.343.047 15.48.05 2.633-4.43 5.254-8.863 7.887-13.289-2.57-4.488-5.145-8.972-7.711-13.457C21.18 3 16.18 2.993 11.18 2.961c-.137.004-.285-.016-.418.02-.106.14-.192.304-.282.457-2.539 4.273-5.07 8.554-7.609 12.824Zm0 0" stroke="rgb(100%, 100%, 100%)" stroke-width=".821"/><path d="M26.176 3.023c2.566 4.485 5.14 8.97 7.71 13.457-2.632 4.426-5.253 8.864-7.886 13.29-5.137-.004-10.32-.036-15.48-.051-2.551-4.48-5.094-8.973-7.649-13.457 2.54-4.27 5.07-8.551 7.61-12.824.09-.153.175-.317.28-.458.134-.035.282-.015.419-.02 5 .032 10 .04 14.996.063ZM23.684 8.84c-.028 3.156-.04 6.308-.067 9.465-3.535-.024-7.074-.043-10.613-.075.023-3.132.035-6.28.07-9.41-.715-.011-1.43-.015-2.144-.039-.028.235-.024.473-.028.711.485.016.965.016 1.45.031-.012 3.137-.047 6.274-.063 9.41q6.018.05 12.035.087c.02-3.13.043-6.332.067-9.461.484-.004.968.015 1.453 0q.011-.353.004-.704c-.72-.011-1.442-.007-2.164-.015Zm-9.938 3.52q-.001.21-.008.413c1.543.875 3.082 1.758 4.625 2.633 1.52-.875 3.04-1.758 4.555-2.633l.004-.347c-3.059-.024-6.117-.043-9.176-.067Zm-.004.84c-.015 1.421-.02 2.843-.035 4.265 3.063.02 6.121.047 9.18.062.008-1.441.02-2.882.027-4.324-1.375.793-2.746 1.59-4.121 2.387-.14.078-.281.18-.438.223-.14-.051-.27-.137-.402-.215a2306 2306 0 0 1-4.21-2.399Zm11.551 12.378q.22.199.441.402.166-.164.325-.335-.193-.184-.391-.36c.531-.633.566-1.66.05-2.308-.464-.602-1.394-.704-2.027-.313-.468.297-.703.828-.71 1.375-.028.535.167 1.078.605 1.41.477.367 1.176.39 1.707.13Zm-14.727-3.172c-.015 1.059-.011 2.114-.027 3.168q.152.007.305.008c.004-1.055.023-2.113.02-3.168q-.149-.001-.298-.008Zm.95.008c-.016 1.055-.016 2.113-.028 3.172l1.317.008c.273.004.539-.024.785-.16.465-.258.527-1.032.101-1.352-.109-.082-.246-.121-.375-.164.133-.055.254-.094.352-.203.277-.285.27-.84-.059-1.078-.238-.184-.554-.2-.843-.215-.418-.008-.832-.004-1.25-.008Zm2.949.02c-.012 1.054-.016 2.113-.027 3.171l.308.004c.008-.914.012-1.828.024-2.742.37.914.707 1.848 1.085 2.758l.274-.012c.371-.898.726-1.808 1.101-2.707.008.907-.011 1.809-.015 2.715l.3.012c.02-1.055.016-2.113.028-3.168-.133-.008-.273-.027-.402-.004-.07.02-.086.133-.118.191-.34.856-.687 1.711-1.027 2.567-.379-.91-.71-1.852-1.09-2.762-.14-.039-.297-.023-.441-.023Zm4.691 3.199c.219.012.438.008.657.008.011-.723 0-1.45.023-2.176.289.71.508 1.46.77 2.183l.53.004c.282-.722.505-1.476.802-2.191.011.73-.004 1.465-.012 2.195.219.004.433.004.652.004 0-1.055.016-2.11.02-3.164-.328-.008-.664-.031-.989.008-.148.492-.32.973-.476 1.46-.082.235-.13.466-.242.684-.239-.722-.48-1.437-.715-2.16a7 7 0 0 0-.985-.008c-.027 1.047-.007 2.102-.035 3.153Zm0 0" stroke="rgb(35.686275%, 48.235294%, 70.980394%)" stroke-width=".821"/><path d="M23.684 8.84c.722.008 1.445.004 2.164.015q.007.353-.004.704c-.485.015-.969-.004-1.453 0q-.037 4.73-.067 9.46-6.018-.036-12.035-.085c.016-3.137.05-6.274.063-9.41-.485-.016-.965-.016-1.45-.032.004-.238 0-.476.028-.71.715.023 1.43.027 2.144.038-.035 3.13-.047 6.278-.07 9.41 3.539.032 7.078.051 10.613.075.028-3.157.04-6.309.067-9.465Zm0 0" stroke="rgb(63.529414%, 70.980394%, 83.529413%)" stroke-width=".821"/><path d="M13.746 12.36c3.059.023 6.117.042 9.176.066l-.004.347c-1.516.875-3.035 1.758-4.555 2.633-1.543-.875-3.082-1.758-4.625-2.633q.007-.203.008-.414Zm9.168.843c-.008 1.442-.02 2.883-.027 4.324-3.059-.015-6.117-.043-9.18-.062.016-1.422.02-2.844.035-4.266q2.103 1.202 4.211 2.399c.133.078.262.164.402.214.157-.042.297-.144.438-.222q2.06-1.197 4.121-2.387Zm2.805 9.774c.515.648.48 1.675-.051 2.308q.199.176.39.36-.158.17-.324.335-.22-.204-.441-.402c-.531.262-1.23.238-1.707-.129-.438-.332-.633-.875-.606-1.41.008-.547.243-1.078.711-1.375.633-.39 1.563-.289 2.028.313Zm-.926 2.187c-.066-.129-.176-.219-.285-.312.11-.118.215-.23.328-.34q.176.166.36.332c.265-.434.269-1.086-.016-1.512-.285-.406-.98-.414-1.274-.023-.21.277-.258.648-.226.984.027.297.16.605.425.762.22.129.446.117.688.11Zm-14.227-2.758c.098.004.2.008.297.008.004 1.055-.015 2.113-.02 3.168q-.15-.001-.304-.008c.016-1.054.012-2.11.027-3.168Zm.95.008c.418.004.832 0 1.25.008.289.015.605.031.843.215.329.238.336.793.059 1.078-.098.11-.219.148-.352.203.13.043.266.082.375.164.426.32.364 1.094-.101 1.352-.246.136-.512.164-.785.16l-1.317-.008c.012-1.059.012-2.117.028-3.172Zm.304.262c-.008.375-.008.754-.011 1.129.359.004.718.015 1.074.008.238 0 .476-.067.613-.278.145-.242.063-.637-.21-.762-.161-.082-.337-.082-.52-.09q-.474.002-.946-.007Zm-.011 1.39c-.008.418-.004.84-.008 1.262.394-.004.797.016 1.195.004.262-.02.512-.11.629-.36.074-.226.078-.538-.121-.706-.184-.16-.453-.184-.688-.192zm2.656-1.632c.144 0 .3-.016.441.023.38.91.711 1.852 1.09 2.762.34-.856.688-1.711 1.027-2.567.032-.058.047-.172.118-.191.129-.023.27-.004.402.004-.012 1.055-.008 2.113-.027 3.168l-.301-.012c.004-.906.023-1.808.015-2.715-.375.899-.73 1.809-1.101 2.707l-.274.012c-.378-.91-.714-1.844-1.085-2.758-.012.914-.016 1.828-.024 2.742l-.309-.004c.012-1.058.016-2.117.028-3.171Zm4.726.046c.329-.023.66-.015.985.008.234.723.476 1.438.715 2.16.113-.218.16-.449.242-.683.156-.488.328-.969.476-1.461.325-.04.66-.016.989-.008-.004 1.055-.02 2.11-.02 3.164-.219 0-.433 0-.652-.004.008-.73.023-1.465.012-2.195-.297.715-.52 1.469-.801 2.191l-.532-.004c-.261-.722-.48-1.472-.77-2.183-.023.726-.01 1.453-.023 2.176-.218 0-.437.004-.656-.008.028-1.051.008-2.106.035-3.153Zm0 0" stroke="rgb(100%, 100%, 100%)" stroke-width=".821"/><path d="M11.82 22.676q.474.01.946.008c.183.007.359.007.52.09.273.124.355.519.21.761-.137.211-.375.277-.613.277-.356.008-.715-.003-1.074-.007.004-.375.004-.754.011-1.13Zm13.36.656c.285.426.28 1.078.015 1.512l-.36-.332q-.169.164-.327.34c.11.093.219.183.285.312-.242.008-.469.02-.688-.11-.265-.156-.398-.464-.425-.761-.032-.336.015-.707.226-.984.293-.391.989-.383 1.274.023Zm-13.371.734 1.007.008c.235.008.504.031.688.192.2.168.195.48.121.707-.117.25-.367.34-.629.359-.398.012-.8-.008-1.195-.004.004-.422 0-.844.008-1.262Zm0 0" stroke="rgb(35.686275%, 48.235294%, 70.980394%)" stroke-width=".821"/><path d="M0 0h36.922v32H0Zm.992 16.05c2.938 5.055 5.856 10.13 8.793 15.184 1.25-.004 2.504-.023 3.754-.03 4.578 0 9.14-.013 13.719-.028.078.004.113-.078.156-.133q4.375-7.501 8.762-14.996c-2.094-3.602-4.2-7.195-6.293-10.793-.86-1.461-1.703-2.938-2.57-4.395-5.618.004-11.235 0-16.852.004-.203 0-.41-.015-.613.004-.106.086-.168.254-.243.367-2.867 4.938-5.742 9.88-8.613 14.817m0 0" fill="rgb(100%, 100%, 100%)"/><path d="M9.848.867c.203-.02.41-.004.613-.004C16.078.86 21.695.863 27.313.86c.867 1.457 1.71 2.934 2.57 4.395 2.094 3.598 4.199 7.191 6.293 10.793q-4.387 7.495-8.762 14.996c-.043.055-.078.137-.156.133-4.578.015-9.14.027-13.719.027-1.25.008-2.504.027-3.754.031C6.848 26.18 3.93 21.105.992 16.051c2.871-4.938 5.746-9.88 8.613-14.817.075-.113.137-.28.243-.367m.644 1.555c-2.68 4.61-5.375 9.215-8.062 13.824 2.672 4.625 5.347 9.25 8.015 13.875 5.34 0 10.703-.035 16.043-.055 2.688-4.605 5.375-9.218 8.067-13.824-2.598-4.465-5.203-8.93-7.801-13.394a21 21 0 0 0-.297-.496c-5.32.03-10.633.035-15.965.07m0 0" fill="rgb(63.529414%, 70.980394%, 83.529413%)"/><path d="M26.457 2.352q.152.245.297.496c2.598 4.464 5.203 8.93 7.8 13.394-2.69 4.606-5.378 9.219-8.066 13.824-5.34.02-10.703.055-16.043.055-2.668-4.625-5.343-9.25-8.015-13.875 2.687-4.61 5.383-9.215 8.062-13.824 5.332-.035 10.645-.04 15.965-.07M2.984 16.242c2.586 4.465 5.16 8.938 7.743 13.403 5.16-.02 10.343-.028 15.48-.06 2.602-4.444 5.191-8.897 7.793-13.343-2.602-4.469-5.207-8.933-7.805-13.402-4.996.012-9.996.039-14.996.043-.136.004-.285-.016-.418.023-.105.14-.187.305-.277.457-2.508 4.293-5.012 8.59-7.52 12.88m0 0" fill="rgb(100%, 100%, 100%)"/><path d="M26.195 2.84c2.598 4.469 5.203 8.933 7.805 13.402-2.602 4.445-5.191 8.899-7.793 13.344-5.137.031-10.32.039-15.48.059-2.582-4.465-5.157-8.938-7.743-13.403 2.508-4.289 5.012-8.586 7.52-12.879.09-.152.172-.316.277-.457.133-.039.281-.02.418-.023 5-.004 10-.031 14.996-.043m-2.449 5.836c-.008 3.156.004 6.308-.004 9.465-3.535 0-7.074.004-10.613 0 .004-3.133-.008-6.282.008-9.41-.715-.008-1.43-.008-2.145-.028-.027.235-.023.473-.023.711.484.016.965.012 1.449.024.008 3.136-.004 6.273.004 9.41q6.018.006 12.035 0a3819 3819 0 0 1 0-9.461c.484-.008.969.011 1.453-.008q.007-.351-.004-.703c-.718-.008-1.437 0-2.16 0m-9.914 3.586-.004.414c1.547.867 3.094 1.738 4.64 2.601 1.516-.886 3.028-1.777 4.54-2.664v-.347c-3.059-.004-6.117 0-9.176-.004m0 .84c-.004 1.421 0 2.843-.004 4.265 3.063 0 6.121.004 9.18 0-.004-1.441 0-2.883-.004-4.324-1.367.8-2.734 1.61-4.102 2.414-.14.078-.28.184-.437.227-.14-.051-.27-.137-.402-.211q-2.115-1.183-4.231-2.371m11.637 12.296q.223.199.445.403.166-.17.324-.34-.194-.177-.394-.356c.527-.636.554-1.664.035-2.308-.469-.598-1.402-.695-2.031-.3-.465.3-.696.835-.7 1.382-.023.535.176 1.074.614 1.406.48.363 1.18.38 1.707.113m-14.746-3.066c-.008 1.059.004 2.113-.004 3.168q.152.005.304.004c-.003-1.055.008-2.113-.003-3.168-.098 0-.2 0-.297-.004m.949 0c-.008 1.055 0 2.113-.004 3.172h1.316c.274 0 .54-.027.782-.168.464-.258.52-1.035.093-1.352-.109-.082-.246-.117-.375-.16.13-.054.25-.097.348-.207.277-.285.266-.84-.066-1.078-.239-.18-.555-.195-.844-.207-.418-.004-.832 0-1.25 0m2.95 0c-.005 1.055 0 2.113-.005 3.172h.309c0-.914-.004-1.828.004-2.742.375.914.718 1.843 1.105 2.75l.274-.012c.363-.902.71-1.812 1.082-2.715.011.906 0 1.809.004 2.715q.147.007.3.008c.012-1.055 0-2.113.004-3.168-.133-.004-.273-.024-.402 0-.07.02-.086.133-.117.191-.332.86-.676 1.715-1.008 2.574-.387-.906-.723-1.847-1.11-2.753-.14-.04-.296-.02-.44-.02m4.714 3.164c.219.012.437.008.656.004.004-.723-.012-1.45.008-2.176.293.711.516 1.457.785 2.18h.531c.274-.727.493-1.48.786-2.2.015.731.003 1.466.003 2.196.22.004.434.004.653 0-.008-1.055 0-2.11-.004-3.164-.328-.004-.664-.023-.988.016-.145.492-.313.976-.465 1.464-.082.235-.13.465-.238.684-.243-.719-.493-1.434-.731-2.152a7 7 0 0 0-.984-.004c-.02 1.047.007 2.101-.012 3.152m0 0" fill="rgb(35.686275%, 48.235294%, 70.980394%)"/><path d="M23.746 8.676c.723 0 1.442-.008 2.16 0q.011.351.004.703c-.484.02-.969 0-1.453.008a3819 3819 0 0 0 0 9.46q-6.018.008-12.035 0c-.008-3.136.004-6.273-.004-9.41-.484-.011-.965-.007-1.45-.023 0-.238-.003-.476.024-.71.715.019 1.43.019 2.145.026-.016 3.13-.004 6.278-.008 9.41 3.539.005 7.078 0 10.613 0 .008-3.156-.004-6.308.004-9.464m0 0" fill="rgb(63.529414%, 70.980394%, 83.529413%)"/><path d="M13.832 12.262c3.059.004 6.117 0 9.176.004v.347c-1.512.887-3.024 1.778-4.54 2.664-1.546-.863-3.093-1.734-4.64-2.601 0-.137.004-.274.004-.414m9.172.781c.004 1.441 0 2.883.004 4.324-3.059.004-6.117 0-9.18 0 .004-1.422 0-2.844.004-4.265q2.115 1.189 4.23 2.37c.133.075.262.16.403.212.156-.043.297-.149.437-.227 1.368-.805 2.735-1.613 4.102-2.414m2.875 9.754c.52.644.492 1.672-.035 2.308q.2.179.394.356-.159.17-.324.34-.223-.205-.445-.403c-.528.266-1.227.25-1.707-.113-.438-.332-.637-.87-.614-1.406.004-.547.235-1.082.7-1.383.629-.394 1.562-.297 2.03.3m-.91 2.192c-.07-.129-.179-.215-.288-.308l.324-.344q.181.167.363.332c.262-.438.262-1.09-.027-1.512-.285-.406-.98-.41-1.274-.015-.207.277-.25.648-.218.984.03.297.164.605.43.762.222.125.449.113.69.101m-14.245-2.656c.097.004.199.004.297.004.011 1.055 0 2.113.003 3.168q-.152.001-.304-.004c.008-1.055-.004-2.11.004-3.168m.949 0c.418 0 .832-.004 1.25 0 .289.012.605.027.844.207.332.238.343.793.066 1.078-.098.11-.219.153-.348.207.13.043.266.078.375.16.426.317.371 1.094-.093 1.352-.243.14-.508.168-.782.168h-1.316c.004-1.059-.004-2.117.004-3.172m.305.262c-.004.375 0 .754-.004 1.129.359 0 .718.007 1.074 0 .238-.004.476-.07.613-.282.14-.246.059-.64-.215-.761-.164-.082-.34-.078-.523-.086-.317 0-.629.004-.945 0m0 1.39c-.004.418 0 .84 0 1.262.394-.008.796.008 1.195-.008.262-.02.512-.11.625-.363.074-.227.074-.54-.125-.703-.184-.16-.453-.184-.688-.188-.336-.004-.671 0-1.007 0m2.644-1.652c.145 0 .3-.02.441.02.387.906.723 1.847 1.11 2.753.332-.859.676-1.714 1.008-2.574.03-.058.047-.172.117-.191.129-.024.27-.004.402 0-.004 1.055.008 2.113-.004 3.168q-.153-.001-.3-.008c-.004-.906.007-1.809-.004-2.715-.371.902-.72 1.813-1.082 2.715l-.274.012c-.387-.907-.73-1.836-1.105-2.75-.008.914-.004 1.828-.004 2.742h-.309c.004-1.059 0-2.117.004-3.172m4.727.012c.328-.024.66-.02.984.004.238.718.488 1.433.73 2.152.11-.219.157-.45.239-.684.152-.488.32-.972.465-1.464.324-.04.66-.02.988-.016.004 1.055-.004 2.11.004 3.164a18 18 0 0 1-.653 0c0-.73.012-1.465-.003-2.195-.293.718-.512 1.472-.786 2.199h-.53c-.27-.723-.493-1.469-.786-2.18-.02.727-.004 1.453-.008 2.176-.219.004-.437.008-.656-.004.02-1.05-.008-2.105.012-3.152m0 0" fill="rgb(100%, 100%, 100%)"/><path d="M11.977 22.594c.316.004.628 0 .945 0 .183.008.36.004.523.086.274.12.356.515.215.761-.137.211-.375.278-.613.282-.356.007-.715 0-1.074 0 .004-.375 0-.754.004-1.13m13.363.563c.289.422.289 1.074.027 1.512q-.18-.167-.363-.332c-.11.113-.215.227-.324.344.11.093.218.18.289.308-.242.012-.469.024-.692-.101-.265-.157-.398-.465-.43-.762-.03-.336.012-.707.22-.984.292-.395.988-.391 1.273.015m-13.363.828c.335 0 .671-.004 1.007 0 .235.004.504.028.688.188.2.164.2.476.125.703-.113.254-.363.344-.625.363-.399.016-.8 0-1.195.008 0-.422-.004-.844 0-1.262m0 0" fill="rgb(35.686275%, 48.235294%, 70.980394%)"/></svg>