<?xml version="1.0" encoding="UTF-8"?>
<svg xmlns="http://www.w3.org/2000/svg" xmlns:xlink="http://www.w3.org/1999/xlink" width="36.923" height="32" viewBox="0 0 36.923 32">
<path fill-rule="nonzero" fill="rgb(0%, 0%, 0%)" fill-opacity="1" stroke-width="0.821" stroke-linecap="butt" stroke-linejoin="miter" stroke="rgb(100%, 100%, 100%)" stroke-opacity="1" stroke-miterlimit="4" d="M 0 0 L 36.921875 0.257812 L 36.699219 32.257812 L -0.222656 32 Z M 0.878906 16.058594 C 3.78125 21.132812 6.664062 26.226562 9.566406 31.300781 C 10.816406 31.308594 12.070312 31.296875 13.320312 31.296875 C 17.898438 31.328125 22.460938 31.351562 27.039062 31.367188 C 27.117188 31.371094 27.152344 31.289062 27.199219 31.234375 C 30.148438 26.25 33.105469 21.273438 36.0625 16.300781 C 33.996094 12.683594 31.914062 9.074219 29.847656 5.460938 C 28.996094 3.996094 28.164062 2.507812 27.304688 1.050781 C 21.6875 1.015625 16.070312 0.972656 10.453125 0.9375 C 10.25 0.933594 10.042969 0.917969 9.839844 0.9375 C 9.734375 1.019531 9.671875 1.1875 9.597656 1.300781 C 6.695312 6.21875 3.785156 11.140625 0.878906 16.058594 Z M 0.878906 16.058594 "/>
<path fill-rule="nonzero" fill="rgb(0%, 0%, 0%)" fill-opacity="1" stroke-width="0.821" stroke-linecap="butt" stroke-linejoin="miter" stroke="rgb(63.529412%, 70.980392%, 83.529412%)" stroke-opacity="1" stroke-miterlimit="4" d="M 9.839844 0.9375 C 10.042969 0.917969 10.25 0.933594 10.453125 0.9375 C 16.070312 0.972656 21.6875 1.015625 27.304688 1.050781 C 28.164062 2.511719 28.996094 3.996094 29.847656 5.460938 C 31.914062 9.074219 33.996094 12.683594 36.0625 16.300781 C 33.101562 21.273438 30.148438 26.253906 27.199219 31.234375 C 27.152344 31.289062 27.117188 31.371094 27.039062 31.367188 C 22.460938 31.351562 17.898438 31.328125 13.320312 31.296875 C 12.070312 31.296875 10.816406 31.308594 9.566406 31.300781 C 6.664062 26.226562 3.78125 21.132812 0.878906 16.058594 C 3.785156 11.140625 6.695312 6.21875 9.597656 1.300781 C 9.671875 1.1875 9.734375 1.019531 9.839844 0.9375 Z M 10.476562 2.496094 C 7.761719 7.085938 5.035156 11.671875 2.316406 16.261719 C 4.957031 20.90625 7.597656 25.550781 10.234375 30.195312 C 15.574219 30.230469 20.9375 30.234375 26.277344 30.25 C 28.996094 25.664062 31.71875 21.070312 34.441406 16.484375 C 31.875 12 29.300781 7.515625 26.734375 3.035156 L 26.441406 2.535156 C 21.121094 2.53125 15.808594 2.496094 10.476562 2.496094 Z M 10.476562 2.496094 "/>
<path fill-rule="nonzero" fill="rgb(0%, 0%, 0%)" fill-opacity="1" stroke-width="0.821" stroke-linecap="butt" stroke-linejoin="miter" stroke="rgb(100%, 100%, 100%)" stroke-opacity="1" stroke-miterlimit="4" d="M 26.441406 2.535156 C 26.539062 2.699219 26.636719 2.867188 26.734375 3.035156 C 29.300781 7.515625 31.875 12 34.441406 16.484375 C 31.71875 21.070312 28.996094 25.664062 26.277344 30.25 C 20.9375 30.234375 15.574219 30.230469 10.234375 30.195312 C 7.597656 25.550781 4.957031 20.90625 2.316406 16.261719 C 5.035156 11.671875 7.761719 7.085938 10.476562 2.496094 C 15.808594 2.496094 21.121094 2.53125 26.441406 2.535156 Z M 2.871094 16.261719 C 5.425781 20.746094 7.96875 25.238281 10.519531 29.71875 C 15.679688 29.734375 20.863281 29.765625 26 29.769531 C 28.632812 25.339844 31.253906 20.90625 33.886719 16.480469 C 31.316406 11.992188 28.742188 7.507812 26.175781 3.023438 C 21.179688 3 16.179688 2.992188 11.179688 2.960938 C 11.042969 2.964844 10.894531 2.945312 10.761719 2.980469 C 10.65625 3.121094 10.570312 3.285156 10.480469 3.4375 C 7.941406 7.710938 5.410156 11.992188 2.871094 16.261719 Z M 2.871094 16.261719 "/>
<path fill-rule="nonzero" fill="rgb(0%, 0%, 0%)" fill-opacity="1" stroke-width="0.821" stroke-linecap="butt" stroke-linejoin="miter" stroke="rgb(35.686275%, 48.235294%, 70.980392%)" stroke-opacity="1" stroke-miterlimit="4" d="M 26.175781 3.023438 C 28.742188 7.507812 31.316406 11.992188 33.886719 16.480469 C 31.253906 20.90625 28.632812 25.34375 26 29.769531 C 20.863281 29.765625 15.679688 29.734375 10.519531 29.71875 C 7.96875 25.238281 5.425781 20.746094 2.871094 16.261719 C 5.410156 11.992188 7.941406 7.710938 10.480469 3.4375 C 10.570312 3.285156 10.65625 3.121094 10.761719 2.980469 C 10.894531 2.945312 11.042969 2.964844 11.179688 2.960938 C 16.179688 2.992188 21.179688 3 26.175781 3.023438 Z M 23.683594 8.839844 C 23.65625 11.996094 23.644531 15.148438 23.617188 18.304688 C 20.082031 18.28125 16.542969 18.261719 13.003906 18.230469 C 13.027344 15.097656 13.039062 11.949219 13.074219 8.820312 C 12.359375 8.808594 11.644531 8.804688 10.929688 8.78125 C 10.902344 9.015625 10.90625 9.253906 10.902344 9.492188 C 11.386719 9.507812 11.867188 9.507812 12.351562 9.523438 C 12.339844 12.660156 12.304688 15.796875 12.289062 18.933594 C 16.300781 18.964844 20.3125 18.996094 24.324219 19.019531 C 24.34375 15.890625 24.367188 12.6875 24.390625 9.558594 C 24.875 9.554688 25.359375 9.574219 25.84375 9.558594 C 25.851562 9.324219 25.851562 9.089844 25.847656 8.855469 C 25.128906 8.84375 24.40625 8.847656 23.683594 8.839844 Z M 13.746094 12.359375 C 13.746094 12.5 13.742188 12.636719 13.738281 12.773438 C 15.28125 13.648438 16.820312 14.53125 18.363281 15.40625 C 19.882812 14.53125 21.402344 13.648438 22.917969 12.773438 L 22.921875 12.425781 C 19.863281 12.402344 16.804688 12.382812 13.746094 12.359375 Z M 13.742188 13.199219 C 13.726562 14.621094 13.722656 16.042969 13.707031 17.464844 C 16.769531 17.484375 19.828125 17.511719 22.886719 17.527344 C 22.894531 16.085938 22.90625 14.644531 22.914062 13.203125 C 21.539062 13.996094 20.167969 14.792969 18.792969 15.589844 C 18.652344 15.667969 18.511719 15.769531 18.355469 15.8125 C 18.214844 15.761719 18.085938 15.675781 17.953125 15.597656 C 16.546875 14.800781 15.144531 14 13.742188 13.199219 Z M 25.292969 25.578125 C 25.441406 25.710938 25.585938 25.84375 25.734375 25.980469 C 25.84375 25.871094 25.953125 25.757812 26.058594 25.644531 C 25.929688 25.523438 25.800781 25.402344 25.667969 25.285156 C 26.199219 24.652344 26.234375 23.625 25.71875 22.976562 C 25.253906 22.375 24.324219 22.273438 23.691406 22.664062 C 23.222656 22.960938 22.988281 23.492188 22.980469 24.039062 C 22.953125 24.574219 23.148438 25.117188 23.585938 25.449219 C 24.0625 25.816406 24.761719 25.839844 25.292969 25.578125 Z M 10.566406 22.40625 C 10.550781 23.464844 10.554688 24.519531 10.539062 25.574219 C 10.640625 25.578125 10.742188 25.582031 10.84375 25.582031 C 10.847656 24.527344 10.867188 23.46875 10.863281 22.414062 C 10.765625 22.414062 10.664062 22.410156 10.566406 22.40625 Z M 11.515625 22.414062 C 11.5 23.46875 11.5 24.527344 11.488281 25.585938 L 12.804688 25.59375 C 13.078125 25.597656 13.34375 25.570312 13.589844 25.433594 C 14.054688 25.175781 14.117188 24.402344 13.691406 24.082031 C 13.582031 24 13.445312 23.960938 13.316406 23.917969 C 13.449219 23.863281 13.570312 23.824219 13.667969 23.714844 C 13.945312 23.429688 13.9375 22.875 13.609375 22.636719 C 13.371094 22.453125 13.054688 22.4375 12.765625 22.421875 C 12.347656 22.414062 11.933594 22.417969 11.515625 22.414062 Z M 14.464844 22.433594 C 14.453125 23.488281 14.449219 24.546875 14.4375 25.605469 L 14.746094 25.609375 C 14.753906 24.695312 14.757812 23.78125 14.769531 22.867188 C 15.140625 23.78125 15.476562 24.714844 15.855469 25.625 L 16.128906 25.613281 C 16.5 24.714844 16.855469 23.804688 17.230469 22.90625 C 17.238281 23.8125 17.21875 24.714844 17.214844 25.621094 L 17.515625 25.632812 C 17.535156 24.578125 17.53125 23.519531 17.542969 22.464844 C 17.410156 22.457031 17.269531 22.4375 17.140625 22.460938 C 17.070312 22.480469 17.054688 22.59375 17.023438 22.652344 C 16.683594 23.507812 16.335938 24.363281 15.996094 25.21875 C 15.617188 24.308594 15.285156 23.367188 14.90625 22.457031 C 14.765625 22.417969 14.609375 22.433594 14.464844 22.433594 Z M 19.15625 25.632812 C 19.375 25.644531 19.59375 25.640625 19.8125 25.640625 C 19.824219 24.917969 19.8125 24.191406 19.835938 23.464844 C 20.125 24.175781 20.34375 24.925781 20.605469 25.648438 L 21.136719 25.652344 C 21.417969 24.929688 21.640625 24.175781 21.9375 23.460938 C 21.949219 24.191406 21.933594 24.925781 21.925781 25.65625 C 22.144531 25.660156 22.359375 25.660156 22.578125 25.660156 C 22.578125 24.605469 22.59375 23.550781 22.597656 22.496094 C 22.269531 22.488281 21.933594 22.464844 21.609375 22.503906 C 21.460938 22.996094 21.289062 23.476562 21.132812 23.964844 C 21.050781 24.199219 21.003906 24.429688 20.890625 24.648438 C 20.652344 23.925781 20.410156 23.210938 20.175781 22.488281 C 19.847656 22.460938 19.519531 22.460938 19.191406 22.480469 C 19.164062 23.527344 19.183594 24.582031 19.15625 25.632812 Z M 19.15625 25.632812 "/>
<path fill-rule="nonzero" fill="rgb(0%, 0%, 0%)" fill-opacity="1" stroke-width="0.821" stroke-linecap="butt" stroke-linejoin="miter" stroke="rgb(63.529412%, 70.980392%, 83.529412%)" stroke-opacity="1" stroke-miterlimit="4" d="M 23.683594 8.839844 C 24.40625 8.847656 25.128906 8.84375 25.847656 8.855469 C 25.851562 9.089844 25.851562 9.324219 25.84375 9.558594 C 25.359375 9.574219 24.875 9.554688 24.390625 9.558594 C 24.367188 12.710938 24.34375 15.867188 24.324219 19.019531 C 20.3125 18.996094 16.300781 18.964844 12.289062 18.933594 C 12.304688 15.796875 12.339844 12.660156 12.351562 9.523438 C 11.867188 9.507812 11.386719 9.507812 10.902344 9.492188 C 10.90625 9.253906 10.902344 9.015625 10.929688 8.78125 C 11.644531 8.804688 12.359375 8.808594 13.074219 8.820312 C 13.039062 11.949219 13.027344 15.097656 13.003906 18.230469 C 16.542969 18.261719 20.082031 18.28125 23.617188 18.304688 C 23.644531 15.148438 23.65625 11.996094 23.683594 8.839844 Z M 23.683594 8.839844 "/>
<path fill-rule="nonzero" fill="rgb(0%, 0%, 0%)" fill-opacity="1" stroke-width="0.821" stroke-linecap="butt" stroke-linejoin="miter" stroke="rgb(100%, 100%, 100%)" stroke-opacity="1" stroke-miterlimit="4" d="M 13.746094 12.359375 C 16.804688 12.382812 19.863281 12.402344 22.921875 12.425781 L 22.917969 12.773438 C 21.402344 13.648438 19.882812 14.53125 18.363281 15.40625 C 16.820312 14.53125 15.28125 13.648438 13.738281 12.773438 C 13.742188 12.636719 13.746094 12.5 13.746094 12.359375 Z M 22.914062 13.203125 C 22.90625 14.644531 22.894531 16.085938 22.886719 17.527344 C 19.828125 17.511719 16.769531 17.484375 13.707031 17.464844 C 13.722656 16.042969 13.726562 14.621094 13.742188 13.199219 C 15.144531 14 16.546875 14.800781 17.953125 15.597656 C 18.085938 15.675781 18.214844 15.761719 18.355469 15.8125 C 18.511719 15.769531 18.652344 15.667969 18.792969 15.589844 C 20.167969 14.792969 21.539062 13.996094 22.914062 13.203125 Z M 25.71875 22.976562 C 26.234375 23.625 26.199219 24.652344 25.667969 25.285156 C 25.800781 25.402344 25.929688 25.523438 26.058594 25.644531 C 25.953125 25.757812 25.84375 25.871094 25.734375 25.980469 C 25.589844 25.84375 25.441406 25.710938 25.292969 25.578125 C 24.761719 25.839844 24.0625 25.816406 23.585938 25.449219 C 23.148438 25.117188 22.953125 24.574219 22.980469 24.039062 C 22.988281 23.492188 23.222656 22.960938 23.691406 22.664062 C 24.324219 22.273438 25.253906 22.375 25.71875 22.976562 Z M 24.792969 25.164062 C 24.726562 25.035156 24.617188 24.945312 24.507812 24.851562 C 24.617188 24.734375 24.722656 24.621094 24.835938 24.511719 C 24.953125 24.621094 25.074219 24.734375 25.195312 24.84375 C 25.460938 24.410156 25.464844 23.757812 25.179688 23.332031 C 24.894531 22.925781 24.199219 22.917969 23.90625 23.308594 C 23.695312 23.585938 23.648438 23.957031 23.679688 24.292969 C 23.707031 24.589844 23.839844 24.898438 24.105469 25.054688 C 24.324219 25.183594 24.550781 25.171875 24.792969 25.164062 Z M 10.566406 22.40625 C 10.664062 22.410156 10.765625 22.414062 10.863281 22.414062 C 10.867188 23.46875 10.847656 24.527344 10.84375 25.582031 C 10.742188 25.582031 10.640625 25.578125 10.539062 25.574219 C 10.554688 24.519531 10.550781 23.464844 10.566406 22.40625 Z M 11.515625 22.414062 C 11.933594 22.417969 12.347656 22.414062 12.765625 22.421875 C 13.054688 22.4375 13.371094 22.453125 13.609375 22.636719 C 13.9375 22.875 13.945312 23.429688 13.667969 23.714844 C 13.570312 23.824219 13.449219 23.863281 13.316406 23.917969 C 13.445312 23.960938 13.582031 24 13.691406 24.082031 C 14.117188 24.402344 14.054688 25.175781 13.589844 25.433594 C 13.34375 25.570312 13.078125 25.597656 12.804688 25.59375 L 11.488281 25.585938 C 11.5 24.527344 11.5 23.46875 11.515625 22.414062 Z M 11.820312 22.675781 C 11.8125 23.050781 11.8125 23.429688 11.808594 23.804688 C 12.167969 23.808594 12.527344 23.820312 12.882812 23.8125 C 13.121094 23.8125 13.359375 23.746094 13.496094 23.535156 C 13.640625 23.292969 13.558594 22.898438 13.285156 22.773438 C 13.125 22.691406 12.949219 22.691406 12.765625 22.683594 C 12.449219 22.683594 12.132812 22.683594 11.820312 22.675781 Z M 11.808594 24.066406 C 11.800781 24.484375 11.804688 24.90625 11.800781 25.328125 C 12.195312 25.324219 12.597656 25.34375 12.996094 25.332031 C 13.257812 25.3125 13.507812 25.222656 13.625 24.972656 C 13.699219 24.746094 13.703125 24.433594 13.503906 24.265625 C 13.320312 24.105469 13.050781 24.082031 12.816406 24.074219 Z M 14.464844 22.433594 C 14.609375 22.433594 14.765625 22.417969 14.90625 22.457031 C 15.285156 23.367188 15.617188 24.308594 15.996094 25.21875 C 16.335938 24.363281 16.683594 23.507812 17.023438 22.652344 C 17.054688 22.59375 17.070312 22.480469 17.140625 22.460938 C 17.269531 22.4375 17.410156 22.457031 17.542969 22.464844 C 17.53125 23.519531 17.535156 24.578125 17.515625 25.632812 L 17.214844 25.621094 C 17.21875 24.714844 17.238281 23.8125 17.230469 22.90625 C 16.855469 23.804688 16.5 24.714844 16.128906 25.613281 L 15.855469 25.625 C 15.476562 24.714844 15.140625 23.78125 14.769531 22.867188 C 14.757812 23.78125 14.753906 24.695312 14.746094 25.609375 L 14.4375 25.605469 C 14.449219 24.546875 14.453125 23.488281 14.464844 22.433594 Z M 19.191406 22.480469 C 19.519531 22.457031 19.851562 22.464844 20.175781 22.488281 C 20.410156 23.210938 20.652344 23.925781 20.890625 24.648438 C 21.003906 24.429688 21.050781 24.199219 21.132812 23.964844 C 21.289062 23.476562 21.460938 22.996094 21.609375 22.503906 C 21.933594 22.464844 22.269531 22.488281 22.597656 22.496094 C 22.59375 23.550781 22.578125 24.605469 22.578125 25.660156 C 22.359375 25.660156 22.144531 25.660156 21.925781 25.65625 C 21.933594 24.925781 21.949219 24.191406 21.9375 23.460938 C 21.640625 24.175781 21.417969 24.929688 21.136719 25.652344 L 20.605469 25.648438 C 20.34375 24.925781 20.125 24.175781 19.835938 23.464844 C 19.8125 24.191406 19.824219 24.917969 19.8125 25.640625 C 19.59375 25.640625 19.375 25.644531 19.15625 25.632812 C 19.183594 24.582031 19.164062 23.527344 19.191406 22.480469 Z M 19.191406 22.480469 "/>
<path fill-rule="nonzero" fill="rgb(0%, 0%, 0%)" fill-opacity="1" stroke-width="0.821" stroke-linecap="butt" stroke-linejoin="miter" stroke="rgb(35.686275%, 48.235294%, 70.980392%)" stroke-opacity="1" stroke-miterlimit="4" d="M 11.820312 22.675781 C 12.136719 22.683594 12.453125 22.683594 12.765625 22.683594 C 12.949219 22.691406 13.125 22.691406 13.285156 22.773438 C 13.558594 22.898438 13.640625 23.292969 13.496094 23.535156 C 13.359375 23.746094 13.121094 23.8125 12.882812 23.8125 C 12.527344 23.820312 12.167969 23.808594 11.808594 23.804688 C 11.8125 23.429688 11.8125 23.050781 11.820312 22.675781 Z M 25.179688 23.332031 C 25.464844 23.757812 25.460938 24.410156 25.195312 24.84375 L 24.835938 24.511719 C 24.722656 24.621094 24.613281 24.734375 24.507812 24.851562 C 24.617188 24.945312 24.726562 25.035156 24.792969 25.164062 C 24.550781 25.171875 24.324219 25.183594 24.105469 25.054688 C 23.839844 24.898438 23.707031 24.589844 23.679688 24.292969 C 23.648438 23.957031 23.695312 23.585938 23.90625 23.308594 C 24.199219 22.917969 24.894531 22.925781 25.179688 23.332031 Z M 11.808594 24.066406 L 12.816406 24.074219 C 13.050781 24.082031 13.320312 24.105469 13.503906 24.265625 C 13.703125 24.433594 13.699219 24.746094 13.625 24.972656 C 13.507812 25.222656 13.257812 25.3125 12.996094 25.332031 C 12.597656 25.34375 12.195312 25.324219 11.800781 25.328125 C 11.804688 24.90625 11.800781 24.484375 11.808594 24.066406 Z M 11.808594 24.066406 "/>
<path fill-rule="nonzero" fill="rgb(100%, 100%, 100%)" fill-opacity="1" d="M 0 0 L 36.921875 0 L 36.921875 32 L 0 32 Z M 0.992188 16.050781 C 3.929688 21.105469 6.847656 26.179688 9.785156 31.234375 C 11.035156 31.230469 12.289062 31.210938 13.539062 31.203125 C 18.117188 31.203125 22.679688 31.191406 27.257812 31.175781 C 27.335938 31.179688 27.371094 31.097656 27.414062 31.042969 C 30.332031 26.042969 33.25 21.042969 36.175781 16.046875 C 34.082031 12.445312 31.976562 8.851562 29.882812 5.253906 C 29.023438 3.792969 28.179688 2.316406 27.3125 0.859375 C 21.695312 0.863281 16.078125 0.859375 10.460938 0.863281 C 10.257812 0.863281 10.050781 0.847656 9.847656 0.867188 C 9.742188 0.953125 9.679688 1.121094 9.605469 1.234375 C 6.738281 6.171875 3.863281 11.113281 0.992188 16.050781 M 0.992188 16.050781 "/>
<path fill-rule="nonzero" fill="rgb(63.529412%, 70.980392%, 83.529412%)" fill-opacity="1" d="M 9.847656 0.867188 C 10.050781 0.847656 10.257812 0.863281 10.460938 0.863281 C 16.078125 0.859375 21.695312 0.863281 27.3125 0.859375 C 28.179688 2.316406 29.023438 3.792969 29.882812 5.253906 C 31.976562 8.851562 34.082031 12.445312 36.175781 16.046875 C 33.25 21.042969 30.332031 26.042969 27.414062 31.042969 C 27.371094 31.097656 27.335938 31.179688 27.257812 31.175781 C 22.679688 31.191406 18.117188 31.203125 13.539062 31.203125 C 12.289062 31.210938 11.035156 31.230469 9.785156 31.234375 C 6.847656 26.179688 3.929688 21.105469 0.992188 16.050781 C 3.863281 11.113281 6.738281 6.171875 9.605469 1.234375 C 9.679688 1.121094 9.742188 0.953125 9.847656 0.867188 M 10.492188 2.421875 C 7.8125 7.03125 5.117188 11.636719 2.429688 16.246094 C 5.101562 20.871094 7.777344 25.496094 10.445312 30.121094 C 15.785156 30.121094 21.148438 30.085938 26.488281 30.066406 C 29.175781 25.460938 31.863281 20.847656 34.554688 16.242188 C 31.957031 11.777344 29.351562 7.3125 26.753906 2.847656 C 26.65625 2.679688 26.558594 2.515625 26.457031 2.351562 C 21.136719 2.382812 15.824219 2.386719 10.492188 2.421875 M 10.492188 2.421875 "/>
<path fill-rule="nonzero" fill="rgb(100%, 100%, 100%)" fill-opacity="1" d="M 26.457031 2.351562 C 26.558594 2.515625 26.65625 2.679688 26.753906 2.847656 C 29.351562 7.3125 31.957031 11.777344 34.554688 16.242188 C 31.863281 20.847656 29.175781 25.460938 26.488281 30.066406 C 21.148438 30.085938 15.785156 30.121094 10.445312 30.121094 C 7.777344 25.496094 5.101562 20.871094 2.429688 16.246094 C 5.117188 11.636719 7.8125 7.03125 10.492188 2.421875 C 15.824219 2.386719 21.136719 2.382812 26.457031 2.351562 M 2.984375 16.242188 C 5.570312 20.707031 8.144531 25.179688 10.726562 29.644531 C 15.886719 29.625 21.070312 29.617188 26.207031 29.585938 C 28.808594 25.140625 31.398438 20.6875 34 16.242188 C 31.398438 11.773438 28.792969 7.308594 26.195312 2.839844 C 21.199219 2.851562 16.199219 2.878906 11.199219 2.882812 C 11.0625 2.886719 10.914062 2.867188 10.78125 2.90625 C 10.675781 3.046875 10.59375 3.210938 10.503906 3.363281 C 7.996094 7.65625 5.492188 11.953125 2.984375 16.242188 M 2.984375 16.242188 "/>
<path fill-rule="nonzero" fill="rgb(35.686275%, 48.235294%, 70.980392%)" fill-opacity="1" d="M 26.195312 2.839844 C 28.792969 7.308594 31.398438 11.773438 34 16.242188 C 31.398438 20.6875 28.808594 25.140625 26.207031 29.585938 C 21.070312 29.617188 15.886719 29.625 10.726562 29.644531 C 8.144531 25.179688 5.570312 20.707031 2.984375 16.242188 C 5.492188 11.953125 7.996094 7.65625 10.503906 3.363281 C 10.59375 3.210938 10.675781 3.046875 10.78125 2.90625 C 10.914062 2.867188 11.0625 2.886719 11.199219 2.882812 C 16.199219 2.878906 21.199219 2.851562 26.195312 2.839844 M 23.746094 8.675781 C 23.738281 11.832031 23.75 14.984375 23.742188 18.140625 C 20.207031 18.140625 16.667969 18.144531 13.128906 18.140625 C 13.132812 15.007812 13.121094 11.859375 13.136719 8.730469 C 12.421875 8.722656 11.707031 8.722656 10.992188 8.703125 C 10.964844 8.9375 10.96875 9.175781 10.96875 9.414062 C 11.453125 9.429688 11.933594 9.425781 12.417969 9.4375 C 12.425781 12.574219 12.414062 15.710938 12.421875 18.847656 C 16.433594 18.851562 20.445312 18.851562 24.457031 18.847656 C 24.453125 15.695312 24.453125 12.539062 24.457031 9.386719 C 24.941406 9.378906 25.425781 9.398438 25.910156 9.378906 C 25.914062 9.144531 25.914062 8.910156 25.90625 8.675781 C 25.1875 8.667969 24.46875 8.675781 23.746094 8.675781 M 13.832031 12.261719 L 13.828125 12.675781 C 15.375 13.542969 16.921875 14.414062 18.46875 15.277344 C 19.984375 14.390625 21.496094 13.5 23.007812 12.613281 L 23.007812 12.265625 C 19.949219 12.261719 16.890625 12.265625 13.832031 12.261719 M 13.832031 13.101562 C 13.828125 14.523438 13.832031 15.945312 13.828125 17.367188 C 16.890625 17.367188 19.949219 17.371094 23.007812 17.367188 C 23.003906 15.925781 23.007812 14.484375 23.003906 13.042969 C 21.636719 13.84375 20.269531 14.652344 18.902344 15.457031 C 18.761719 15.535156 18.621094 15.640625 18.464844 15.683594 C 18.324219 15.632812 18.195312 15.546875 18.0625 15.472656 C 16.652344 14.683594 15.242188 13.894531 13.832031 13.101562 M 25.46875 25.398438 C 25.617188 25.53125 25.765625 25.664062 25.914062 25.800781 C 26.023438 25.6875 26.132812 25.574219 26.238281 25.460938 C 26.109375 25.34375 25.976562 25.222656 25.84375 25.105469 C 26.371094 24.46875 26.398438 23.441406 25.878906 22.796875 C 25.410156 22.199219 24.476562 22.101562 23.847656 22.496094 C 23.382812 22.796875 23.152344 23.332031 23.148438 23.878906 C 23.125 24.414062 23.324219 24.953125 23.761719 25.285156 C 24.242188 25.648438 24.941406 25.664062 25.46875 25.398438 M 10.722656 22.332031 C 10.714844 23.390625 10.726562 24.445312 10.71875 25.5 C 10.820312 25.503906 10.921875 25.503906 11.023438 25.503906 C 11.019531 24.449219 11.03125 23.390625 11.019531 22.335938 C 10.921875 22.335938 10.820312 22.335938 10.722656 22.332031 M 11.671875 22.332031 C 11.664062 23.386719 11.671875 24.445312 11.667969 25.503906 L 12.984375 25.503906 C 13.257812 25.503906 13.523438 25.476562 13.765625 25.335938 C 14.230469 25.078125 14.285156 24.300781 13.859375 23.984375 C 13.75 23.902344 13.613281 23.867188 13.484375 23.824219 C 13.613281 23.769531 13.734375 23.726562 13.832031 23.617188 C 14.109375 23.332031 14.097656 22.777344 13.765625 22.539062 C 13.527344 22.359375 13.210938 22.34375 12.921875 22.332031 C 12.503906 22.328125 12.089844 22.332031 11.671875 22.332031 M 14.621094 22.332031 C 14.617188 23.386719 14.621094 24.445312 14.617188 25.503906 L 14.925781 25.503906 C 14.925781 24.589844 14.921875 23.675781 14.929688 22.761719 C 15.304688 23.675781 15.648438 24.605469 16.035156 25.511719 L 16.308594 25.5 C 16.671875 24.597656 17.019531 23.6875 17.390625 22.785156 C 17.402344 23.691406 17.390625 24.59375 17.394531 25.5 C 17.492188 25.503906 17.59375 25.507812 17.695312 25.507812 C 17.707031 24.453125 17.695312 23.394531 17.699219 22.339844 C 17.566406 22.335938 17.425781 22.316406 17.296875 22.339844 C 17.226562 22.359375 17.210938 22.472656 17.179688 22.53125 C 16.847656 23.390625 16.503906 24.246094 16.171875 25.105469 C 15.785156 24.199219 15.449219 23.257812 15.0625 22.351562 C 14.921875 22.3125 14.765625 22.332031 14.621094 22.332031 M 19.335938 25.496094 C 19.554688 25.507812 19.773438 25.503906 19.992188 25.5 C 19.996094 24.777344 19.980469 24.050781 20 23.324219 C 20.292969 24.035156 20.515625 24.78125 20.785156 25.503906 L 21.316406 25.503906 C 21.589844 24.777344 21.808594 24.023438 22.101562 23.304688 C 22.117188 24.035156 22.105469 24.769531 22.105469 25.5 C 22.324219 25.503906 22.539062 25.503906 22.757812 25.5 C 22.75 24.445312 22.757812 23.390625 22.753906 22.335938 C 22.425781 22.332031 22.089844 22.3125 21.765625 22.351562 C 21.621094 22.84375 21.453125 23.328125 21.300781 23.816406 C 21.21875 24.050781 21.171875 24.28125 21.0625 24.5 C 20.820312 23.78125 20.570312 23.066406 20.332031 22.347656 C 20.003906 22.324219 19.675781 22.320312 19.347656 22.34375 C 19.328125 23.390625 19.355469 24.445312 19.335938 25.496094 M 19.335938 25.496094 "/>
<path fill-rule="nonzero" fill="rgb(63.529412%, 70.980392%, 83.529412%)" fill-opacity="1" d="M 23.746094 8.675781 C 24.46875 8.675781 25.1875 8.667969 25.90625 8.675781 C 25.914062 8.910156 25.914062 9.144531 25.910156 9.378906 C 25.425781 9.398438 24.941406 9.378906 24.457031 9.386719 C 24.453125 12.539062 24.453125 15.695312 24.457031 18.847656 C 20.445312 18.851562 16.433594 18.851562 12.421875 18.847656 C 12.414062 15.710938 12.425781 12.574219 12.417969 9.4375 C 11.933594 9.425781 11.453125 9.429688 10.96875 9.414062 C 10.96875 9.175781 10.964844 8.9375 10.992188 8.703125 C 11.707031 8.722656 12.421875 8.722656 13.136719 8.730469 C 13.121094 11.859375 13.132812 15.007812 13.128906 18.140625 C 16.667969 18.144531 20.207031 18.140625 23.742188 18.140625 C 23.75 14.984375 23.738281 11.832031 23.746094 8.675781 M 23.746094 8.675781 "/>
<path fill-rule="nonzero" fill="rgb(100%, 100%, 100%)" fill-opacity="1" d="M 13.832031 12.261719 C 16.890625 12.265625 19.949219 12.261719 23.007812 12.265625 L 23.007812 12.613281 C 21.496094 13.5 19.984375 14.390625 18.46875 15.277344 C 16.921875 14.414062 15.375 13.542969 13.828125 12.675781 C 13.828125 12.539062 13.832031 12.402344 13.832031 12.261719 M 23.003906 13.042969 C 23.007812 14.484375 23.003906 15.925781 23.007812 17.367188 C 19.949219 17.371094 16.890625 17.367188 13.828125 17.367188 C 13.832031 15.945312 13.828125 14.523438 13.832031 13.101562 C 15.242188 13.894531 16.652344 14.683594 18.0625 15.472656 C 18.195312 15.546875 18.324219 15.632812 18.464844 15.683594 C 18.621094 15.640625 18.761719 15.535156 18.902344 15.457031 C 20.269531 14.652344 21.636719 13.84375 23.003906 13.042969 M 25.878906 22.796875 C 26.398438 23.441406 26.371094 24.46875 25.84375 25.105469 C 25.976562 25.222656 26.109375 25.34375 26.238281 25.460938 C 26.132812 25.574219 26.023438 25.6875 25.914062 25.800781 C 25.765625 25.664062 25.617188 25.53125 25.46875 25.398438 C 24.941406 25.664062 24.242188 25.648438 23.761719 25.285156 C 23.324219 24.953125 23.125 24.414062 23.148438 23.878906 C 23.152344 23.332031 23.382812 22.796875 23.847656 22.496094 C 24.476562 22.101562 25.410156 22.199219 25.878906 22.796875 M 24.96875 24.988281 C 24.898438 24.859375 24.789062 24.773438 24.679688 24.679688 L 25.003906 24.335938 C 25.125 24.449219 25.246094 24.558594 25.367188 24.667969 C 25.628906 24.230469 25.628906 23.578125 25.339844 23.15625 C 25.054688 22.75 24.359375 22.746094 24.066406 23.140625 C 23.859375 23.417969 23.816406 23.789062 23.847656 24.125 C 23.878906 24.421875 24.011719 24.730469 24.277344 24.886719 C 24.5 25.011719 24.726562 25 24.96875 24.988281 M 10.722656 22.332031 C 10.820312 22.335938 10.921875 22.335938 11.019531 22.335938 C 11.03125 23.390625 11.019531 24.449219 11.023438 25.503906 C 10.921875 25.503906 10.820312 25.503906 10.71875 25.5 C 10.726562 24.445312 10.714844 23.390625 10.722656 22.332031 M 11.671875 22.332031 C 12.089844 22.332031 12.503906 22.328125 12.921875 22.332031 C 13.210938 22.34375 13.527344 22.359375 13.765625 22.539062 C 14.097656 22.777344 14.109375 23.332031 13.832031 23.617188 C 13.734375 23.726562 13.613281 23.769531 13.484375 23.824219 C 13.613281 23.867188 13.75 23.902344 13.859375 23.984375 C 14.285156 24.300781 14.230469 25.078125 13.765625 25.335938 C 13.523438 25.476562 13.257812 25.503906 12.984375 25.503906 L 11.667969 25.503906 C 11.671875 24.445312 11.664062 23.386719 11.671875 22.332031 M 11.976562 22.59375 C 11.972656 22.96875 11.976562 23.347656 11.972656 23.722656 C 12.332031 23.722656 12.691406 23.730469 13.046875 23.722656 C 13.285156 23.71875 13.523438 23.652344 13.660156 23.441406 C 13.800781 23.195312 13.71875 22.800781 13.445312 22.679688 C 13.28125 22.597656 13.105469 22.601562 12.921875 22.59375 C 12.605469 22.59375 12.292969 22.597656 11.976562 22.59375 M 11.976562 23.984375 C 11.972656 24.402344 11.976562 24.824219 11.976562 25.246094 C 12.371094 25.238281 12.773438 25.253906 13.171875 25.238281 C 13.433594 25.21875 13.683594 25.128906 13.796875 24.875 C 13.871094 24.648438 13.871094 24.335938 13.671875 24.171875 C 13.488281 24.011719 13.21875 23.988281 12.984375 23.984375 C 12.648438 23.980469 12.3125 23.984375 11.976562 23.984375 M 14.621094 22.332031 C 14.765625 22.332031 14.921875 22.3125 15.0625 22.351562 C 15.449219 23.257812 15.785156 24.199219 16.171875 25.105469 C 16.503906 24.246094 16.847656 23.390625 17.179688 22.53125 C 17.210938 22.472656 17.226562 22.359375 17.296875 22.339844 C 17.425781 22.316406 17.566406 22.335938 17.699219 22.339844 C 17.695312 23.394531 17.707031 24.453125 17.695312 25.507812 C 17.59375 25.507812 17.492188 25.503906 17.394531 25.5 C 17.390625 24.59375 17.402344 23.691406 17.390625 22.785156 C 17.019531 23.6875 16.671875 24.597656 16.308594 25.5 L 16.035156 25.511719 C 15.648438 24.605469 15.304688 23.675781 14.929688 22.761719 C 14.921875 23.675781 14.925781 24.589844 14.925781 25.503906 L 14.617188 25.503906 C 14.621094 24.445312 14.617188 23.386719 14.621094 22.332031 M 19.347656 22.34375 C 19.675781 22.320312 20.007812 22.324219 20.332031 22.347656 C 20.570312 23.066406 20.820312 23.78125 21.0625 24.5 C 21.171875 24.28125 21.21875 24.050781 21.300781 23.816406 C 21.453125 23.328125 21.621094 22.84375 21.765625 22.351562 C 22.089844 22.3125 22.425781 22.332031 22.753906 22.335938 C 22.757812 23.390625 22.75 24.445312 22.757812 25.5 C 22.539062 25.503906 22.324219 25.503906 22.105469 25.5 C 22.105469 24.769531 22.117188 24.035156 22.101562 23.304688 C 21.808594 24.023438 21.589844 24.777344 21.316406 25.503906 L 20.785156 25.503906 C 20.515625 24.78125 20.292969 24.035156 20 23.324219 C 19.980469 24.050781 19.996094 24.777344 19.992188 25.5 C 19.773438 25.503906 19.554688 25.507812 19.335938 25.496094 C 19.355469 24.445312 19.328125 23.390625 19.347656 22.34375 M 19.347656 22.34375 "/>
<path fill-rule="nonzero" fill="rgb(35.686275%, 48.235294%, 70.980392%)" fill-opacity="1" d="M 11.976562 22.59375 C 12.292969 22.597656 12.605469 22.59375 12.921875 22.59375 C 13.105469 22.601562 13.28125 22.597656 13.445312 22.679688 C 13.71875 22.800781 13.800781 23.195312 13.660156 23.441406 C 13.523438 23.652344 13.285156 23.71875 13.046875 23.722656 C 12.691406 23.730469 12.332031 23.722656 11.972656 23.722656 C 11.976562 23.347656 11.972656 22.96875 11.976562 22.59375 M 25.339844 23.15625 C 25.628906 23.578125 25.628906 24.230469 25.367188 24.667969 C 25.246094 24.558594 25.125 24.445312 25.003906 24.335938 C 24.894531 24.449219 24.789062 24.5625 24.679688 24.679688 C 24.789062 24.773438 24.898438 24.859375 24.96875 24.988281 C 24.726562 25 24.5 25.011719 24.277344 24.886719 C 24.011719 24.730469 23.878906 24.421875 23.847656 24.125 C 23.816406 23.789062 23.859375 23.417969 24.066406 23.140625 C 24.359375 22.746094 25.054688 22.75 25.339844 23.15625 M 11.976562 23.984375 C 12.3125 23.984375 12.648438 23.980469 12.984375 23.984375 C 13.21875 23.988281 13.488281 24.011719 13.671875 24.171875 C 13.871094 24.335938 13.871094 24.648438 13.796875 24.875 C 13.683594 25.128906 13.433594 25.21875 13.171875 25.238281 C 12.773438 25.253906 12.371094 25.238281 11.976562 25.246094 C 11.976562 24.824219 11.972656 24.402344 11.976562 23.984375 M 11.976562 23.984375 "/>
</svg>
