<?xml version="1.0" encoding="UTF-8"?>
<svg xmlns="http://www.w3.org/2000/svg" xmlns:xlink="http://www.w3.org/1999/xlink" width="36.923" height="32" viewBox="0 0 36.923 32">
<path fill-rule="nonzero" fill="rgb(0%, 0%, 0%)" fill-opacity="1" stroke-width="6.568" stroke-linecap="butt" stroke-linejoin="miter" stroke="rgb(100%, 100%, 100%)" stroke-opacity="1" stroke-miterlimit="4" d="M 0 0 L 295.375 2.0625 L 293.59375 258.0625 L -1.78125 256 Z M 7.03125 128.46875 C 30.25 169.0625 53.3125 209.8125 76.53125 250.40625 C 86.53125 250.46875 96.5625 250.375 106.5625 250.375 C 143.1875 250.625 179.6875 250.8125 216.3125 250.9375 C 216.9375 250.96875 217.21875 250.3125 217.59375 249.875 C 241.1875 210.03125 264.84375 170.21875 288.5 130.40625 C 271.96875 101.46875 255.3125 72.59375 238.78125 43.6875 C 231.96875 31.96875 225.3125 20.0625 218.4375 8.40625 C 173.5 8.125 128.5625 7.78125 83.625 7.5 C 82 7.46875 80.34375 7.34375 78.71875 7.5 C 77.875 8.15625 77.375 9.5 76.78125 10.40625 C 53.5625 49.75 30.28125 89.125 7.03125 128.46875 Z M 7.03125 128.46875 " transform="matrix(0.125, 0, 0, 0.125, 0, 0)"/>
<path fill-rule="nonzero" fill="rgb(0%, 0%, 0%)" fill-opacity="1" stroke-width="6.568" stroke-linecap="butt" stroke-linejoin="miter" stroke="rgb(63.529414%, 70.980394%, 83.529413%)" stroke-opacity="1" stroke-miterlimit="4" d="M 78.71875 7.5 C 80.34375 7.34375 82 7.46875 83.625 7.5 C 128.5625 7.78125 173.5 8.125 218.4375 8.40625 C 225.3125 20.09375 231.96875 31.96875 238.78125 43.6875 C 255.3125 72.59375 271.96875 101.46875 288.5 130.40625 C 264.8125 170.1875 241.1875 210.03125 217.59375 249.875 C 217.21875 250.3125 216.9375 250.96875 216.3125 250.9375 C 179.6875 250.8125 143.1875 250.625 106.5625 250.375 C 96.5625 250.375 86.53125 250.46875 76.53125 250.40625 C 53.3125 209.8125 30.25 169.0625 7.03125 128.46875 C 30.28125 89.125 53.5625 49.75 76.78125 10.40625 C 77.375 9.5 77.875 8.15625 78.71875 7.5 Z M 83.8125 19.96875 C 62.09375 56.6875 40.28125 93.375 18.53125 130.09375 C 39.65625 167.25 60.78125 204.40625 81.875 241.5625 C 124.59375 241.84375 167.5 241.875 210.21875 242 C 231.96875 205.3125 253.75 168.5625 275.53125 131.875 C 255 96 234.40625 60.125 213.875 24.28125 C 213.09375 22.9375 212.3125 21.59375 211.53125 20.28125 C 168.96875 20.25 126.46875 19.96875 83.8125 19.96875 Z M 83.8125 19.96875 " transform="matrix(0.125, 0, 0, 0.125, 0, 0)"/>
<path fill-rule="nonzero" fill="rgb(0%, 0%, 0%)" fill-opacity="1" stroke-width="6.568" stroke-linecap="butt" stroke-linejoin="miter" stroke="rgb(100%, 100%, 100%)" stroke-opacity="1" stroke-miterlimit="4" d="M 211.53125 20.28125 C 212.3125 21.59375 213.09375 22.9375 213.875 24.28125 C 234.40625 60.125 255 96 275.53125 131.875 C 253.75 168.5625 231.96875 205.3125 210.21875 242 C 167.5 241.875 124.59375 241.84375 81.875 241.5625 C 60.78125 204.40625 39.65625 167.25 18.53125 130.09375 C 40.28125 93.375 62.09375 56.6875 83.8125 19.96875 C 126.46875 19.96875 168.96875 20.25 211.53125 20.28125 Z M 22.96875 130.09375 C 43.40625 165.96875 63.75 201.90625 84.15625 237.75 C 125.4375 237.875 166.90625 238.125 208 238.15625 C 229.0625 202.71875 250.03125 167.25 271.09375 131.84375 C 250.53125 95.9375 229.9375 60.0625 209.40625 24.1875 C 169.4375 24 129.4375 23.9375 89.4375 23.6875 C 88.34375 23.71875 87.15625 23.5625 86.09375 23.84375 C 85.25 24.96875 84.5625 26.28125 83.84375 27.5 C 63.53125 61.6875 43.28125 95.9375 22.96875 130.09375 Z M 22.96875 130.09375 " transform="matrix(0.125, 0, 0, 0.125, 0, 0)"/>
<path fill-rule="nonzero" fill="rgb(0%, 0%, 0%)" fill-opacity="1" stroke-width="6.568" stroke-linecap="butt" stroke-linejoin="miter" stroke="rgb(35.686275%, 48.235294%, 70.980394%)" stroke-opacity="1" stroke-miterlimit="4" d="M 209.40625 24.1875 C 229.9375 60.0625 250.53125 95.9375 271.09375 131.84375 C 250.03125 167.25 229.0625 202.75 208 238.15625 C 166.90625 238.125 125.4375 237.875 84.15625 237.75 C 63.75 201.90625 43.40625 165.96875 22.96875 130.09375 C 43.28125 95.9375 63.53125 61.6875 83.84375 27.5 C 84.5625 26.28125 85.25 24.96875 86.09375 23.84375 C 87.15625 23.5625 88.34375 23.71875 89.4375 23.6875 C 129.4375 23.9375 169.4375 24 209.40625 24.1875 Z M 189.46875 70.71875 C 189.25 95.96875 189.15625 121.1875 188.9375 146.4375 C 160.65625 146.25 132.34375 146.09375 104.03125 145.84375 C 104.21875 120.78125 104.3125 95.59375 104.59375 70.5625 C 98.875 70.46875 93.15625 70.4375 87.4375 70.25 C 87.21875 72.125 87.25 74.03125 87.21875 75.9375 C 91.09375 76.0625 94.9375 76.0625 98.8125 76.1875 C 98.71875 101.28125 98.4375 126.375 98.3125 151.46875 C 130.40625 151.71875 162.5 151.96875 194.59375 152.15625 C 194.75 127.125 194.9375 101.5 195.125 76.46875 C 199 76.4375 202.875 76.59375 206.75 76.46875 C 206.8125 74.59375 206.8125 72.71875 206.78125 70.84375 C 201.03125 70.75 195.25 70.78125 189.46875 70.71875 Z M 109.96875 98.875 C 109.96875 100 109.9375 101.09375 109.90625 102.1875 C 122.25 109.1875 134.5625 116.25 146.90625 123.25 C 159.0625 116.25 171.21875 109.1875 183.34375 102.1875 L 183.375 99.40625 C 158.90625 99.21875 134.4375 99.0625 109.96875 98.875 Z M 109.9375 105.59375 C 109.8125 116.96875 109.78125 128.34375 109.65625 139.71875 C 134.15625 139.875 158.625 140.09375 183.09375 140.21875 C 183.15625 128.6875 183.25 117.15625 183.3125 105.625 C 172.3125 111.96875 161.34375 118.34375 150.34375 124.71875 C 149.21875 125.34375 148.09375 126.15625 146.84375 126.5 C 145.71875 126.09375 144.6875 125.40625 143.625 124.78125 C 132.40625 118.40625 121.15625 112 109.9375 105.59375 Z M 202.34375 204.625 C 203.53125 205.6875 204.6875 206.75 205.875 207.84375 C 206.75 206.96875 207.625 206.0625 208.46875 205.15625 C 207.4375 204.1875 206.40625 203.21875 205.34375 202.28125 C 209.59375 197.21875 209.875 189 205.75 183.8125 C 202.03125 179 194.59375 178.1875 189.53125 181.3125 C 185.78125 183.6875 183.90625 187.9375 183.84375 192.3125 C 183.625 196.59375 185.1875 200.9375 188.6875 203.59375 C 192.5 206.53125 198.09375 206.71875 202.34375 204.625 Z M 84.53125 179.25 C 84.40625 187.71875 84.4375 196.15625 84.3125 204.59375 C 85.125 204.625 85.9375 204.65625 86.75 204.65625 C 86.78125 196.21875 86.9375 187.75 86.90625 179.3125 C 86.125 179.3125 85.3125 179.28125 84.53125 179.25 Z M 92.125 179.3125 C 92 187.75 92 196.21875 91.90625 204.6875 L 102.4375 204.75 C 104.625 204.78125 106.75 204.5625 108.71875 203.46875 C 112.4375 201.40625 112.9375 195.21875 109.53125 192.65625 C 108.65625 192 107.5625 191.6875 106.53125 191.34375 C 107.59375 190.90625 108.5625 190.59375 109.34375 189.71875 C 111.5625 187.4375 111.5 183 108.875 181.09375 C 106.96875 179.625 104.4375 179.5 102.125 179.375 C 98.78125 179.3125 95.46875 179.34375 92.125 179.3125 Z M 115.71875 179.46875 C 115.625 187.90625 115.59375 196.375 115.5 204.84375 L 117.96875 204.875 C 118.03125 197.5625 118.0625 190.25 118.15625 182.9375 C 121.125 190.25 123.8125 197.71875 126.84375 205 L 129.03125 204.90625 C 132 197.71875 134.84375 190.4375 137.84375 183.25 C 137.90625 190.5 137.75 197.71875 137.71875 204.96875 L 140.125 205.0625 C 140.28125 196.625 140.25 188.15625 140.34375 179.71875 C 139.28125 179.65625 138.15625 179.5 137.125 179.6875 C 136.5625 179.84375 136.4375 180.75 136.1875 181.21875 C 133.46875 188.0625 130.6875 194.90625 127.96875 201.75 C 124.9375 194.46875 122.28125 186.9375 119.25 179.65625 C 118.125 179.34375 116.875 179.46875 115.71875 179.46875 Z M 153.25 205.0625 C 155 205.15625 156.75 205.125 158.5 205.125 C 158.59375 199.34375 158.5 193.53125 158.6875 187.71875 C 161 193.40625 162.75 199.40625 164.84375 205.1875 L 169.09375 205.21875 C 171.34375 199.4375 173.125 193.40625 175.5 187.6875 C 175.59375 193.53125 175.46875 199.40625 175.40625 205.25 C 177.15625 205.28125 178.875 205.28125 180.625 205.28125 C 180.625 196.84375 180.75 188.40625 180.78125 179.96875 C 178.15625 179.90625 175.46875 179.71875 172.875 180.03125 C 171.6875 183.96875 170.3125 187.8125 169.0625 191.71875 C 168.40625 193.59375 168.03125 195.4375 167.125 197.1875 C 165.21875 191.40625 163.28125 185.6875 161.40625 179.90625 C 158.78125 179.6875 156.15625 179.6875 153.53125 179.84375 C 153.3125 188.21875 153.46875 196.65625 153.25 205.0625 Z M 153.25 205.0625 " transform="matrix(0.125, 0, 0, 0.125, 0, 0)"/>
<path fill-rule="nonzero" fill="rgb(0%, 0%, 0%)" fill-opacity="1" stroke-width="6.568" stroke-linecap="butt" stroke-linejoin="miter" stroke="rgb(63.529414%, 70.980394%, 83.529413%)" stroke-opacity="1" stroke-miterlimit="4" d="M 189.46875 70.71875 C 195.25 70.78125 201.03125 70.75 206.78125 70.84375 C 206.8125 72.71875 206.8125 74.59375 206.75 76.46875 C 202.875 76.59375 199 76.4375 195.125 76.46875 C 194.9375 101.6875 194.75 126.9375 194.59375 152.15625 C 162.5 151.96875 130.40625 151.71875 98.3125 151.46875 C 98.4375 126.375 98.71875 101.28125 98.8125 76.1875 C 94.9375 76.0625 91.09375 76.0625 87.21875 75.9375 C 87.25 74.03125 87.21875 72.125 87.4375 70.25 C 93.15625 70.4375 98.875 70.46875 104.59375 70.5625 C 104.3125 95.59375 104.21875 120.78125 104.03125 145.84375 C 132.34375 146.09375 160.65625 146.25 188.9375 146.4375 C 189.15625 121.1875 189.25 95.96875 189.46875 70.71875 Z M 189.46875 70.71875 " transform="matrix(0.125, 0, 0, 0.125, 0, 0)"/>
<path fill-rule="nonzero" fill="rgb(0%, 0%, 0%)" fill-opacity="1" stroke-width="6.568" stroke-linecap="butt" stroke-linejoin="miter" stroke="rgb(100%, 100%, 100%)" stroke-opacity="1" stroke-miterlimit="4" d="M 109.96875 98.875 C 134.4375 99.0625 158.90625 99.21875 183.375 99.40625 L 183.34375 102.1875 C 171.21875 109.1875 159.0625 116.25 146.90625 123.25 C 134.5625 116.25 122.25 109.1875 109.90625 102.1875 C 109.9375 101.09375 109.96875 100 109.96875 98.875 Z M 183.3125 105.625 C 183.25 117.15625 183.15625 128.6875 183.09375 140.21875 C 158.625 140.09375 134.15625 139.875 109.65625 139.71875 C 109.78125 128.34375 109.8125 116.96875 109.9375 105.59375 C 121.15625 112 132.375 118.40625 143.625 124.78125 C 144.6875 125.40625 145.71875 126.09375 146.84375 126.5 C 148.09375 126.15625 149.21875 125.34375 150.34375 124.71875 C 161.34375 118.34375 172.3125 111.96875 183.3125 105.625 Z M 205.75 183.8125 C 209.875 189 209.59375 197.21875 205.34375 202.28125 C 206.40625 203.21875 207.4375 204.1875 208.46875 205.15625 C 207.625 206.0625 206.75 206.96875 205.875 207.84375 C 204.6875 206.75 203.53125 205.6875 202.34375 204.625 C 198.09375 206.71875 192.5 206.53125 188.6875 203.59375 C 185.1875 200.9375 183.625 196.59375 183.84375 192.3125 C 183.90625 187.9375 185.78125 183.6875 189.53125 181.3125 C 194.59375 178.1875 202.03125 179 205.75 183.8125 Z M 198.34375 201.3125 C 197.8125 200.28125 196.9375 199.5625 196.0625 198.8125 C 196.9375 197.875 197.78125 196.96875 198.6875 196.09375 C 199.625 196.96875 200.59375 197.875 201.5625 198.75 C 203.6875 195.28125 203.71875 190.0625 201.4375 186.65625 C 199.15625 183.40625 193.59375 183.34375 191.25 186.46875 C 189.5625 188.6875 189.1875 191.65625 189.4375 194.34375 C 189.65625 196.71875 190.71875 199.1875 192.84375 200.4375 C 194.59375 201.46875 196.40625 201.375 198.34375 201.3125 Z M 84.53125 179.25 C 85.3125 179.28125 86.125 179.3125 86.90625 179.3125 C 86.9375 187.75 86.78125 196.21875 86.75 204.65625 C 85.9375 204.65625 85.125 204.625 84.3125 204.59375 C 84.4375 196.15625 84.40625 187.71875 84.53125 179.25 Z M 92.125 179.3125 C 95.46875 179.34375 98.78125 179.3125 102.125 179.375 C 104.4375 179.5 106.96875 179.625 108.875 181.09375 C 111.5 183 111.5625 187.4375 109.34375 189.71875 C 108.5625 190.59375 107.59375 190.90625 106.53125 191.34375 C 107.5625 191.6875 108.65625 192 109.53125 192.65625 C 112.9375 195.21875 112.4375 201.40625 108.71875 203.46875 C 106.75 204.5625 104.625 204.78125 102.4375 204.75 L 91.90625 204.6875 C 92 196.21875 92 187.75 92.125 179.3125 Z M 94.5625 181.40625 C 94.5 184.40625 94.5 187.4375 94.46875 190.4375 C 97.34375 190.46875 100.21875 190.5625 103.0625 190.5 C 104.96875 190.5 106.875 189.96875 107.96875 188.28125 C 109.125 186.34375 108.46875 183.1875 106.28125 182.1875 C 105 181.53125 103.59375 181.53125 102.125 181.46875 C 99.59375 181.46875 97.09375 181.46875 94.5625 181.40625 Z M 94.46875 192.53125 C 94.40625 195.875 94.4375 199.25 94.40625 202.625 C 97.5625 202.59375 100.78125 202.75 103.96875 202.65625 C 106.0625 202.5 108.0625 201.78125 109 199.78125 C 109.59375 197.96875 109.625 195.46875 108.03125 194.125 C 106.5625 192.84375 104.40625 192.65625 102.53125 192.59375 C 99.84375 192.5625 97.15625 192.5625 94.46875 192.53125 Z M 115.71875 179.46875 C 116.875 179.46875 118.125 179.34375 119.25 179.65625 C 122.28125 186.9375 124.9375 194.46875 127.96875 201.75 C 130.6875 194.90625 133.46875 188.0625 136.1875 181.21875 C 136.4375 180.75 136.5625 179.84375 137.125 179.6875 C 138.15625 179.5 139.28125 179.65625 140.34375 179.71875 C 140.25 188.15625 140.28125 196.625 140.125 205.0625 L 137.71875 204.96875 C 137.75 197.71875 137.90625 190.5 137.84375 183.25 C 134.84375 190.4375 132 197.71875 129.03125 204.90625 L 126.84375 205 C 123.8125 197.71875 121.125 190.25 118.15625 182.9375 C 118.0625 190.25 118.03125 197.5625 117.96875 204.875 L 115.5 204.84375 C 115.59375 196.375 115.625 187.90625 115.71875 179.46875 Z M 153.53125 179.84375 C 156.15625 179.65625 158.8125 179.71875 161.40625 179.90625 C 163.28125 185.6875 165.21875 191.40625 167.125 197.1875 C 168.03125 195.4375 168.40625 193.59375 169.0625 191.71875 C 170.3125 187.8125 171.6875 183.96875 172.875 180.03125 C 175.46875 179.71875 178.15625 179.90625 180.78125 179.96875 C 180.75 188.40625 180.625 196.84375 180.625 205.28125 C 178.875 205.28125 177.15625 205.28125 175.40625 205.25 C 175.46875 199.40625 175.59375 193.53125 175.5 187.6875 C 173.125 193.40625 171.34375 199.4375 169.09375 205.21875 L 164.84375 205.1875 C 162.75 199.40625 161 193.40625 158.6875 187.71875 C 158.5 193.53125 158.59375 199.34375 158.5 205.125 C 156.75 205.125 155 205.15625 153.25 205.0625 C 153.46875 196.65625 153.3125 188.21875 153.53125 179.84375 Z M 153.53125 179.84375 " transform="matrix(0.125, 0, 0, 0.125, 0, 0)"/>
<path fill-rule="nonzero" fill="rgb(0%, 0%, 0%)" fill-opacity="1" stroke-width="6.568" stroke-linecap="butt" stroke-linejoin="miter" stroke="rgb(35.686275%, 48.235294%, 70.980394%)" stroke-opacity="1" stroke-miterlimit="4" d="M 94.5625 181.40625 C 97.09375 181.46875 99.59375 181.46875 102.125 181.46875 C 103.59375 181.53125 105 181.53125 106.28125 182.1875 C 108.46875 183.1875 109.125 186.34375 107.96875 188.28125 C 106.875 189.96875 104.96875 190.5 103.0625 190.5 C 100.21875 190.5625 97.34375 190.46875 94.46875 190.4375 C 94.5 187.4375 94.5 184.40625 94.5625 181.40625 Z M 201.4375 186.65625 C 203.71875 190.0625 203.6875 195.28125 201.5625 198.75 L 198.6875 196.09375 C 197.78125 196.96875 196.90625 197.875 196.0625 198.8125 C 196.9375 199.5625 197.8125 200.28125 198.34375 201.3125 C 196.40625 201.375 194.59375 201.46875 192.84375 200.4375 C 190.71875 199.1875 189.65625 196.71875 189.4375 194.34375 C 189.1875 191.65625 189.5625 188.6875 191.25 186.46875 C 193.59375 183.34375 199.15625 183.40625 201.4375 186.65625 Z M 94.46875 192.53125 C 97.15625 192.5625 99.84375 192.5625 102.53125 192.59375 C 104.40625 192.65625 106.5625 192.84375 108.03125 194.125 C 109.625 195.46875 109.59375 197.96875 109 199.78125 C 108.0625 201.78125 106.0625 202.5 103.96875 202.65625 C 100.78125 202.75 97.5625 202.59375 94.40625 202.625 C 94.4375 199.25 94.40625 195.875 94.46875 192.53125 Z M 94.46875 192.53125 " transform="matrix(0.125, 0, 0, 0.125, 0, 0)"/>
<path fill-rule="nonzero" fill="rgb(100%, 100%, 100%)" fill-opacity="1" d="M 0 0 L 36.921875 0 L 36.921875 32 L 0 32 Z M 0.992188 16.050781 C 3.929688 21.105469 6.847656 26.179688 9.785156 31.234375 C 11.035156 31.230469 12.289062 31.210938 13.539062 31.203125 C 18.117188 31.203125 22.679688 31.191406 27.257812 31.175781 C 27.335938 31.179688 27.371094 31.097656 27.414062 31.042969 C 30.332031 26.042969 33.25 21.042969 36.175781 16.046875 C 34.082031 12.445312 31.976562 8.851562 29.882812 5.253906 C 29.023438 3.792969 28.179688 2.316406 27.3125 0.859375 C 21.695312 0.863281 16.078125 0.859375 10.460938 0.863281 C 10.257812 0.863281 10.050781 0.847656 9.847656 0.867188 C 9.742188 0.953125 9.679688 1.121094 9.605469 1.234375 C 6.738281 6.171875 3.863281 11.113281 0.992188 16.050781 M 0.992188 16.050781 "/>
<path fill-rule="nonzero" fill="rgb(63.529414%, 70.980394%, 83.529413%)" fill-opacity="1" d="M 9.847656 0.867188 C 10.050781 0.847656 10.257812 0.863281 10.460938 0.863281 C 16.078125 0.859375 21.695312 0.863281 27.3125 0.859375 C 28.179688 2.316406 29.023438 3.792969 29.882812 5.253906 C 31.976562 8.851562 34.082031 12.445312 36.175781 16.046875 C 33.25 21.042969 30.332031 26.042969 27.414062 31.042969 C 27.371094 31.097656 27.335938 31.179688 27.257812 31.175781 C 22.679688 31.191406 18.117188 31.203125 13.539062 31.203125 C 12.289062 31.210938 11.035156 31.230469 9.785156 31.234375 C 6.847656 26.179688 3.929688 21.105469 0.992188 16.050781 C 3.863281 11.113281 6.738281 6.171875 9.605469 1.234375 C 9.679688 1.121094 9.742188 0.953125 9.847656 0.867188 M 10.492188 2.421875 C 7.8125 7.03125 5.117188 11.636719 2.429688 16.246094 C 5.101562 20.871094 7.777344 25.496094 10.445312 30.121094 C 15.785156 30.121094 21.148438 30.085938 26.488281 30.066406 C 29.175781 25.460938 31.863281 20.847656 34.554688 16.242188 C 31.957031 11.777344 29.351562 7.3125 26.753906 2.847656 C 26.65625 2.679688 26.558594 2.515625 26.457031 2.351562 C 21.136719 2.382812 15.824219 2.386719 10.492188 2.421875 M 10.492188 2.421875 "/>
<path fill-rule="nonzero" fill="rgb(100%, 100%, 100%)" fill-opacity="1" d="M 26.457031 2.351562 C 26.558594 2.515625 26.65625 2.679688 26.753906 2.847656 C 29.351562 7.3125 31.957031 11.777344 34.554688 16.242188 C 31.863281 20.847656 29.175781 25.460938 26.488281 30.066406 C 21.148438 30.085938 15.785156 30.121094 10.445312 30.121094 C 7.777344 25.496094 5.101562 20.871094 2.429688 16.246094 C 5.117188 11.636719 7.8125 7.03125 10.492188 2.421875 C 15.824219 2.386719 21.136719 2.382812 26.457031 2.351562 M 2.984375 16.242188 C 5.570312 20.707031 8.144531 25.179688 10.726562 29.644531 C 15.886719 29.625 21.070312 29.617188 26.207031 29.585938 C 28.808594 25.140625 31.398438 20.6875 34 16.242188 C 31.398438 11.773438 28.792969 7.308594 26.195312 2.839844 C 21.199219 2.851562 16.199219 2.878906 11.199219 2.882812 C 11.0625 2.886719 10.914062 2.867188 10.78125 2.90625 C 10.675781 3.046875 10.59375 3.210938 10.503906 3.363281 C 7.996094 7.65625 5.492188 11.953125 2.984375 16.242188 M 2.984375 16.242188 "/>
<path fill-rule="nonzero" fill="rgb(35.686275%, 48.235294%, 70.980394%)" fill-opacity="1" d="M 26.195312 2.839844 C 28.792969 7.308594 31.398438 11.773438 34 16.242188 C 31.398438 20.6875 28.808594 25.140625 26.207031 29.585938 C 21.070312 29.617188 15.886719 29.625 10.726562 29.644531 C 8.144531 25.179688 5.570312 20.707031 2.984375 16.242188 C 5.492188 11.953125 7.996094 7.65625 10.503906 3.363281 C 10.59375 3.210938 10.675781 3.046875 10.78125 2.90625 C 10.914062 2.867188 11.0625 2.886719 11.199219 2.882812 C 16.199219 2.878906 21.199219 2.851562 26.195312 2.839844 M 23.746094 8.675781 C 23.738281 11.832031 23.75 14.984375 23.742188 18.140625 C 20.207031 18.140625 16.667969 18.144531 13.128906 18.140625 C 13.132812 15.007812 13.121094 11.859375 13.136719 8.730469 C 12.421875 8.722656 11.707031 8.722656 10.992188 8.703125 C 10.964844 8.9375 10.96875 9.175781 10.96875 9.414062 C 11.453125 9.429688 11.933594 9.425781 12.417969 9.4375 C 12.425781 12.574219 12.414062 15.710938 12.421875 18.847656 C 16.433594 18.851562 20.445312 18.851562 24.457031 18.847656 C 24.453125 15.695312 24.453125 12.539062 24.457031 9.386719 C 24.941406 9.378906 25.425781 9.398438 25.910156 9.378906 C 25.914062 9.144531 25.914062 8.910156 25.90625 8.675781 C 25.1875 8.667969 24.46875 8.675781 23.746094 8.675781 M 13.832031 12.261719 C 13.832031 12.402344 13.828125 12.539062 13.828125 12.675781 C 15.375 13.542969 16.921875 14.414062 18.46875 15.277344 C 19.984375 14.390625 21.496094 13.5 23.007812 12.613281 L 23.007812 12.265625 C 19.949219 12.261719 16.890625 12.265625 13.832031 12.261719 M 13.832031 13.101562 C 13.828125 14.523438 13.832031 15.945312 13.828125 17.367188 C 16.890625 17.367188 19.949219 17.371094 23.007812 17.367188 C 23.003906 15.925781 23.007812 14.484375 23.003906 13.042969 C 21.636719 13.84375 20.269531 14.652344 18.902344 15.457031 C 18.761719 15.535156 18.621094 15.640625 18.464844 15.683594 C 18.324219 15.632812 18.195312 15.546875 18.0625 15.472656 C 16.652344 14.683594 15.242188 13.894531 13.832031 13.101562 M 25.46875 25.398438 C 25.617188 25.53125 25.765625 25.664062 25.914062 25.800781 C 26.023438 25.6875 26.132812 25.574219 26.238281 25.460938 C 26.109375 25.34375 25.976562 25.222656 25.84375 25.105469 C 26.371094 24.46875 26.398438 23.441406 25.878906 22.796875 C 25.410156 22.199219 24.476562 22.101562 23.847656 22.496094 C 23.382812 22.796875 23.152344 23.332031 23.148438 23.878906 C 23.125 24.414062 23.324219 24.953125 23.761719 25.285156 C 24.242188 25.648438 24.941406 25.664062 25.46875 25.398438 M 10.722656 22.332031 C 10.714844 23.390625 10.726562 24.445312 10.71875 25.5 C 10.820312 25.503906 10.921875 25.503906 11.023438 25.503906 C 11.019531 24.449219 11.03125 23.390625 11.019531 22.335938 C 10.921875 22.335938 10.820312 22.335938 10.722656 22.332031 M 11.671875 22.332031 C 11.664062 23.386719 11.671875 24.445312 11.667969 25.503906 L 12.984375 25.503906 C 13.257812 25.503906 13.523438 25.476562 13.765625 25.335938 C 14.230469 25.078125 14.285156 24.300781 13.859375 23.984375 C 13.75 23.902344 13.613281 23.867188 13.484375 23.824219 C 13.613281 23.769531 13.734375 23.726562 13.832031 23.617188 C 14.109375 23.332031 14.097656 22.777344 13.765625 22.539062 C 13.527344 22.359375 13.210938 22.34375 12.921875 22.332031 C 12.503906 22.328125 12.089844 22.332031 11.671875 22.332031 M 14.621094 22.332031 C 14.617188 23.386719 14.621094 24.445312 14.617188 25.503906 L 14.925781 25.503906 C 14.925781 24.589844 14.921875 23.675781 14.929688 22.761719 C 15.304688 23.675781 15.648438 24.605469 16.035156 25.511719 L 16.308594 25.5 C 16.671875 24.597656 17.019531 23.6875 17.390625 22.785156 C 17.402344 23.691406 17.390625 24.59375 17.394531 25.5 C 17.492188 25.503906 17.59375 25.507812 17.695312 25.507812 C 17.707031 24.453125 17.695312 23.394531 17.699219 22.339844 C 17.566406 22.335938 17.425781 22.316406 17.296875 22.339844 C 17.226562 22.359375 17.210938 22.472656 17.179688 22.53125 C 16.847656 23.390625 16.503906 24.246094 16.171875 25.105469 C 15.785156 24.199219 15.449219 23.257812 15.0625 22.351562 C 14.921875 22.3125 14.765625 22.332031 14.621094 22.332031 M 19.335938 25.496094 C 19.554688 25.507812 19.773438 25.503906 19.992188 25.5 C 19.996094 24.777344 19.980469 24.050781 20 23.324219 C 20.292969 24.035156 20.515625 24.78125 20.785156 25.503906 L 21.316406 25.503906 C 21.589844 24.777344 21.808594 24.023438 22.101562 23.304688 C 22.117188 24.035156 22.105469 24.769531 22.105469 25.5 C 22.324219 25.503906 22.539062 25.503906 22.757812 25.5 C 22.75 24.445312 22.757812 23.390625 22.753906 22.335938 C 22.425781 22.332031 22.089844 22.3125 21.765625 22.351562 C 21.621094 22.84375 21.453125 23.328125 21.300781 23.816406 C 21.21875 24.050781 21.171875 24.28125 21.0625 24.5 C 20.820312 23.78125 20.570312 23.066406 20.332031 22.347656 C 20.003906 22.324219 19.675781 22.320312 19.347656 22.34375 C 19.328125 23.390625 19.355469 24.445312 19.335938 25.496094 M 19.335938 25.496094 "/>
<path fill-rule="nonzero" fill="rgb(63.529414%, 70.980394%, 83.529413%)" fill-opacity="1" d="M 23.746094 8.675781 C 24.46875 8.675781 25.1875 8.667969 25.90625 8.675781 C 25.914062 8.910156 25.914062 9.144531 25.910156 9.378906 C 25.425781 9.398438 24.941406 9.378906 24.457031 9.386719 C 24.453125 12.539062 24.453125 15.695312 24.457031 18.847656 C 20.445312 18.851562 16.433594 18.851562 12.421875 18.847656 C 12.414062 15.710938 12.425781 12.574219 12.417969 9.4375 C 11.933594 9.425781 11.453125 9.429688 10.96875 9.414062 C 10.96875 9.175781 10.964844 8.9375 10.992188 8.703125 C 11.707031 8.722656 12.421875 8.722656 13.136719 8.730469 C 13.121094 11.859375 13.132812 15.007812 13.128906 18.140625 C 16.667969 18.144531 20.207031 18.140625 23.742188 18.140625 C 23.75 14.984375 23.738281 11.832031 23.746094 8.675781 M 23.746094 8.675781 "/>
<path fill-rule="nonzero" fill="rgb(100%, 100%, 100%)" fill-opacity="1" d="M 13.832031 12.261719 C 16.890625 12.265625 19.949219 12.261719 23.007812 12.265625 L 23.007812 12.613281 C 21.496094 13.5 19.984375 14.390625 18.46875 15.277344 C 16.921875 14.414062 15.375 13.542969 13.828125 12.675781 C 13.828125 12.539062 13.832031 12.402344 13.832031 12.261719 M 23.003906 13.042969 C 23.007812 14.484375 23.003906 15.925781 23.007812 17.367188 C 19.949219 17.371094 16.890625 17.367188 13.828125 17.367188 C 13.832031 15.945312 13.828125 14.523438 13.832031 13.101562 C 15.242188 13.894531 16.652344 14.683594 18.0625 15.472656 C 18.195312 15.546875 18.324219 15.632812 18.464844 15.683594 C 18.621094 15.640625 18.761719 15.535156 18.902344 15.457031 C 20.269531 14.652344 21.636719 13.84375 23.003906 13.042969 M 25.878906 22.796875 C 26.398438 23.441406 26.371094 24.46875 25.84375 25.105469 C 25.976562 25.222656 26.109375 25.34375 26.238281 25.460938 C 26.132812 25.574219 26.023438 25.6875 25.914062 25.800781 C 25.765625 25.664062 25.617188 25.53125 25.46875 25.398438 C 24.941406 25.664062 24.242188 25.648438 23.761719 25.285156 C 23.324219 24.953125 23.125 24.414062 23.148438 23.878906 C 23.152344 23.332031 23.382812 22.796875 23.847656 22.496094 C 24.476562 22.101562 25.410156 22.199219 25.878906 22.796875 M 24.96875 24.988281 C 24.898438 24.859375 24.789062 24.773438 24.679688 24.679688 L 25.003906 24.335938 C 25.125 24.445312 25.246094 24.558594 25.367188 24.667969 C 25.628906 24.230469 25.628906 23.578125 25.339844 23.15625 C 25.054688 22.75 24.359375 22.746094 24.066406 23.140625 C 23.859375 23.417969 23.816406 23.789062 23.847656 24.125 C 23.878906 24.421875 24.011719 24.730469 24.277344 24.886719 C 24.5 25.011719 24.726562 25 24.96875 24.988281 M 10.722656 22.332031 C 10.820312 22.335938 10.921875 22.335938 11.019531 22.335938 C 11.03125 23.390625 11.019531 24.449219 11.023438 25.503906 C 10.921875 25.503906 10.820312 25.503906 10.71875 25.5 C 10.726562 24.445312 10.714844 23.390625 10.722656 22.332031 M 11.671875 22.332031 C 12.089844 22.332031 12.503906 22.328125 12.921875 22.332031 C 13.210938 22.34375 13.527344 22.359375 13.765625 22.539062 C 14.097656 22.777344 14.109375 23.332031 13.832031 23.617188 C 13.734375 23.726562 13.613281 23.769531 13.484375 23.824219 C 13.613281 23.867188 13.75 23.902344 13.859375 23.984375 C 14.285156 24.300781 14.230469 25.078125 13.765625 25.335938 C 13.523438 25.476562 13.257812 25.503906 12.984375 25.503906 L 11.667969 25.503906 C 11.671875 24.445312 11.664062 23.386719 11.671875 22.332031 M 11.976562 22.59375 C 11.972656 22.96875 11.976562 23.347656 11.972656 23.722656 C 12.332031 23.722656 12.691406 23.730469 13.046875 23.722656 C 13.285156 23.71875 13.523438 23.652344 13.660156 23.441406 C 13.800781 23.195312 13.71875 22.800781 13.445312 22.679688 C 13.28125 22.597656 13.105469 22.601562 12.921875 22.59375 C 12.605469 22.59375 12.292969 22.597656 11.976562 22.59375 M 11.976562 23.984375 C 11.972656 24.402344 11.976562 24.824219 11.976562 25.246094 C 12.371094 25.238281 12.773438 25.253906 13.171875 25.238281 C 13.433594 25.21875 13.683594 25.128906 13.796875 24.875 C 13.871094 24.648438 13.871094 24.335938 13.671875 24.171875 C 13.488281 24.011719 13.21875 23.988281 12.984375 23.984375 C 12.648438 23.980469 12.3125 23.984375 11.976562 23.984375 M 14.621094 22.332031 C 14.765625 22.332031 14.921875 22.3125 15.0625 22.351562 C 15.449219 23.257812 15.785156 24.199219 16.171875 25.105469 C 16.503906 24.246094 16.847656 23.390625 17.179688 22.53125 C 17.210938 22.472656 17.226562 22.359375 17.296875 22.339844 C 17.425781 22.316406 17.566406 22.335938 17.699219 22.339844 C 17.695312 23.394531 17.707031 24.453125 17.695312 25.507812 C 17.59375 25.507812 17.492188 25.503906 17.394531 25.5 C 17.390625 24.59375 17.402344 23.691406 17.390625 22.785156 C 17.019531 23.6875 16.671875 24.597656 16.308594 25.5 L 16.035156 25.511719 C 15.648438 24.605469 15.304688 23.675781 14.929688 22.761719 C 14.921875 23.675781 14.925781 24.589844 14.925781 25.503906 L 14.617188 25.503906 C 14.621094 24.445312 14.617188 23.386719 14.621094 22.332031 M 19.347656 22.34375 C 19.675781 22.320312 20.007812 22.324219 20.332031 22.347656 C 20.570312 23.066406 20.820312 23.78125 21.0625 24.5 C 21.171875 24.28125 21.21875 24.050781 21.300781 23.816406 C 21.453125 23.328125 21.621094 22.84375 21.765625 22.351562 C 22.089844 22.3125 22.425781 22.332031 22.753906 22.335938 C 22.757812 23.390625 22.75 24.445312 22.757812 25.5 C 22.539062 25.503906 22.324219 25.503906 22.105469 25.5 C 22.105469 24.769531 22.117188 24.035156 22.101562 23.304688 C 21.808594 24.023438 21.589844 24.777344 21.316406 25.503906 L 20.785156 25.503906 C 20.515625 24.78125 20.292969 24.035156 20 23.324219 C 19.980469 24.050781 19.996094 24.777344 19.992188 25.5 C 19.773438 25.503906 19.554688 25.507812 19.335938 25.496094 C 19.355469 24.445312 19.328125 23.390625 19.347656 22.34375 M 19.347656 22.34375 "/>
<path fill-rule="nonzero" fill="rgb(35.686275%, 48.235294%, 70.980394%)" fill-opacity="1" d="M 11.976562 22.59375 C 12.292969 22.597656 12.605469 22.59375 12.921875 22.59375 C 13.105469 22.601562 13.28125 22.597656 13.445312 22.679688 C 13.71875 22.800781 13.800781 23.195312 13.660156 23.441406 C 13.523438 23.652344 13.285156 23.71875 13.046875 23.722656 C 12.691406 23.730469 12.332031 23.722656 11.972656 23.722656 C 11.976562 23.347656 11.972656 22.96875 11.976562 22.59375 M 25.339844 23.15625 C 25.628906 23.578125 25.628906 24.230469 25.367188 24.667969 C 25.246094 24.558594 25.125 24.445312 25.003906 24.335938 C 24.894531 24.449219 24.789062 24.5625 24.679688 24.679688 C 24.789062 24.773438 24.898438 24.859375 24.96875 24.988281 C 24.726562 25 24.5 25.011719 24.277344 24.886719 C 24.011719 24.730469 23.878906 24.421875 23.847656 24.125 C 23.816406 23.789062 23.859375 23.417969 24.066406 23.140625 C 24.359375 22.746094 25.054688 22.75 25.339844 23.15625 M 11.976562 23.984375 C 12.3125 23.984375 12.648438 23.980469 12.984375 23.984375 C 13.21875 23.988281 13.488281 24.011719 13.671875 24.171875 C 13.871094 24.335938 13.871094 24.648438 13.796875 24.875 C 13.683594 25.128906 13.433594 25.21875 13.171875 25.238281 C 12.773438 25.253906 12.371094 25.238281 11.976562 25.246094 C 11.976562 24.824219 11.972656 24.402344 11.976562 23.984375 M 11.976562 23.984375 "/>
</svg>
