<svg role="img" viewBox="0 0 32 32" xmlns="http://www.w3.org/2000/svg"><path d="M16 1.281c-1.059 0-1.922.86-1.922 1.918v2.563h3.844V3.199A1.925 1.925 0 0 0 16 1.281M16 3.2a.64.64 0 0 1 .57.313.63.63 0 0 1 0 .652.63.63 0 0 1-.57.316.64.64 0 0 1-.621-.64c0-.344.277-.63.621-.64m-7.68.64a1.926 1.926 0 0 0-1.922 1.922v20.476c0 1.059.864 1.922 1.922 1.922h11.418c.992 2.254 3.246 3.84 5.864 3.84A6.407 6.407 0 0 0 32 25.602c0-3.528-2.871-6.403-6.398-6.403V5.762A1.93 1.93 0 0 0 23.68 3.84H19.2v2.558a.64.64 0 0 1-.641.641H13.44a.64.64 0 0 1-.64-.64v-2.56Zm7.66 6.398c.625 0 1.11.168 1.301.5 1.832.258 1.266 2.723 1 3.524.098.058.258.242.219.578-.074.629-.316.789-.48.8-.063.587-.434 1.27-.641 1.38 0 .418-.02.742.02 1.199.417 1.12 3.156 1.015 3.64 2.922a7 7 0 0 0-.539.62h-9.621c0-.097.012-.19.02-.28l-.02-.02c.25-2.242 3.262-2.063 3.7-3.242a.2.2 0 0 1 .042-.078c.031-.418.02-.727.02-1.121-.207-.11-.598-.793-.66-1.38-.165-.015-.426-.171-.5-.8-.04-.34.12-.52.218-.582-.55-2.117-.23-3.973 2.281-4.02m9.622 10.242a5.11 5.11 0 0 1 5.117 5.122 5.1 5.1 0 0 1-1.496 3.62 5.1 5.1 0 0 1-3.621 1.497 5.13 5.13 0 0 1-3.625-1.492 5.1 5.1 0 0 1-1.497-3.625 5.107 5.107 0 0 1 5.122-5.122m-1.98 2.54q-.042.009-.083.02a.64.64 0 0 0-.5.452.64.64 0 0 0 .18.649l1.46 1.46-1.46 1.458a.66.66 0 0 0-.192.46c0 .262.16.5.403.602a.67.67 0 0 0 .71-.14l1.462-1.461 1.457 1.46a.652.652 0 1 0 .922-.922l-1.461-1.456 1.46-1.461a.64.64 0 0 0 .137-.75.634.634 0 0 0-.676-.352.65.65 0 0 0-.382.18l-1.457 1.46-1.461-1.46a.65.65 0 0 0-.52-.2"/></svg>