<svg role="img" viewBox="0 0 32 32" height="32" width="32" xmlns="http://www.w3.org/2000/svg"><path d="M16 1.922c-5.293 0-9.602 4.305-9.602 9.598 0 3.949 1.786 5.851 3.082 7.242.817.875 1.399 1.504 1.399 2.36v3.198h4.48v-9.34l-2.379-2.359a.66.66 0 0 1 0-.922c.25-.25.668-.25.918 0L16 13.82l2.102-2.12c.25-.25.668-.25.918 0a.66.66 0 0 1 0 .921l-2.38 2.36v9.34h4.481v-3.2c0-1.226.707-1.969 1.598-2.902 1.285-1.34 2.883-3.004 2.883-6.7 0-5.292-4.309-9.597-9.602-9.597m-5.121 23.68v1.918c0 1.058.863 1.921 1.922 1.921h.738A2.543 2.543 0 0 0 16 31.36a2.543 2.543 0 0 0 2.46-1.918h.74a1.926 1.926 0 0 0 1.921-1.921v-1.918Zm0 0"/></svg>