<svg role="img" viewBox="0 0 32 32" height="32" width="32" xmlns="http://www.w3.org/2000/svg"><path d="M1.281-.02a.659.659 0 0 0-.468.192A.675.675 0 0 0 .62.64v30.718c0 .364.293.66.66.66h19.2c.175 0 .343-.07.468-.19a.675.675 0 0 0 .192-.47V16.641h-9.36l4.598 4.601a.667.667 0 0 1 .187.45.667.667 0 0 1-.187.449.656.656 0 0 1-.457.199.586.586 0 0 1-.442-.2L9.34 16l6.14-6.14a.626.626 0 0 1 .45-.188c.168 0 .332.066.449.187a.626.626 0 0 1 .187.45.626.626 0 0 1-.187.449l-4.598 4.601h9.36V.641a.659.659 0 0 0-.192-.47.675.675 0 0 0-.469-.19Zm19.86 15.38v1.28h9.578a.64.64 0 0 0 .59-.64.64.64 0 0 0-.59-.64Zm0 0"/></svg>