<svg role="img" viewBox="0 0 32 32" xmlns="http://www.w3.org/2000/svg"><path d="M1.281-.02a.66.66 0 0 0-.468.192A.68.68 0 0 0 .62.64v30.718a.66.66 0 0 0 .66.66h19.2a.66.66 0 0 0 .468-.19.66.66 0 0 0 .192-.47V16.641h-9.36l4.598 4.601a.633.633 0 0 1 0 .898.66.66 0 0 1-.457.2.6.6 0 0 1-.442-.2L9.34 16l6.14-6.14a.63.63 0 0 1 .45-.188c.168 0 .332.066.449.187a.63.63 0 0 1 .187.45.63.63 0 0 1-.187.449l-4.598 4.601h9.36V.641a.66.66 0 0 0-.192-.47.68.68 0 0 0-.469-.19Zm19.86 15.38v1.28h9.578a.642.642 0 0 0 0-1.28Zm0 0"/></svg>