<svg role="img" viewBox="0 0 32 32" height="32" width="32" xmlns="http://www.w3.org/2000/svg"><path d="M16 1.281c-.566 0-1.113.035-1.648.098l.289 2.543c.453-.05.906-.082 1.359-.082 6.73 0 12.16 5.43 12.16 12.16S22.73 28.16 16 28.16c-.45 0-.898-.031-1.355-.082l-.282 2.547c.528.059 1.075.094 1.637.094 8.113 0 14.719-6.606 14.719-14.719S24.113 1.281 16 1.281m-4.86.836c-1.05.367-2.042.848-2.968 1.43l1.363 2.168a12.31 12.31 0 0 1 2.45-1.184ZM5.59 5.594a14.702 14.702 0 0 0-2.043 2.582L5.71 9.539a12.248 12.248 0 0 1 1.687-2.137ZM21.336 8.89l-6.863 10.297-4.664-4.145-1.7 1.914 6.86 6.098 8.496-12.746ZM2.113 11.145a14.707 14.707 0 0 0-.738 3.214l2.547.282c.101-.914.312-1.797.61-2.649Zm1.809 6.222-2.543.285c.125 1.121.383 2.192.738 3.211l2.418-.847c-.3-.852-.512-1.735-.613-2.649m1.793 5.098L3.55 23.832a14.725 14.725 0 0 0 2.047 2.582l1.808-1.812a12.124 12.124 0 0 1-1.691-2.137m3.828 3.824L8.18 28.457a14.752 14.752 0 0 0 2.968 1.43l.848-2.418c-.867-.301-1.687-.7-2.453-1.18m0 0"/></svg>