<svg role="img" viewBox="0 0 32 32" height="32" width="32" xmlns="http://www.w3.org/2000/svg"><path d="M19.168 25.824A4.179 4.179 0 0 1 16 27.266c-1.281 0-2.398-.578-3.168-1.442-1.184.48-2.047 1.664-2.047 3.008v2.145c0 .543.445.992.992.992h8.414a.999.999 0 0 0 .993-.992v-2.145a3.17 3.17 0 0 0-2.016-3.008m-5.246-.222c.574.445 1.277.734 2.078.734.8 0 1.504-.29 2.078-.734a3.27 3.27 0 0 0 1.121-3.266c-.254-1.281-1.312-2.273-2.59-2.496a3.283 3.283 0 0 0-2.71.7 3.272 3.272 0 0 0-1.196 2.53c0 .992.48 1.922 1.219 2.532m-4.45 2.847C4.833 25.984 1.954 21.215 1.954 16c0-.93.094-1.887.285-2.785l1.57.32c-.16.8-.257 1.633-.257 2.465 0 4.64 2.562 8.863 6.656 11.008Zm13.184-.066-.77-1.406A12.444 12.444 0 0 0 28.45 16c0-.93-.097-1.824-.289-2.719l1.567-.351c.226.992.32 2.015.32 3.07 0 5.184-2.848 9.922-7.387 12.383m-.262-23.07A12.424 12.424 0 0 0 16 3.55c-2.238 0-4.414.61-6.336 1.73l-.8-1.379A13.943 13.943 0 0 1 16 1.953c2.527 0 5.023.672 7.2 1.985Zm-14.015.734a4.14 4.14 0 0 1-3.168 1.441 4.266 4.266 0 0 1-3.168-1.441A3.235 3.235 0 0 0 0 9.055v2.082c0 .574.48 1.054 1.055 1.054h8.289c.578 0 1.054-.48 1.054-1.054V9.055c.036-1.344-.832-2.528-2.015-3.008m-5.246-.223c.574.45 1.277.735 2.078.735.8 0 1.504-.286 2.082-.735A3.278 3.278 0 0 0 8.414 2.56C8.16 1.28 7.105.289 5.824.063a3.286 3.286 0 0 0-2.719.69 3.283 3.283 0 0 0-1.183 2.544c0 .992.476 1.918 1.215 2.527m26.816.223a4.179 4.179 0 0 1-3.168 1.441 4.226 4.226 0 0 1-3.168-1.441c-1.183.48-2.05 1.664-2.05 3.008v2.175c0 .547.449.961.96.961h8.512a.965.965 0 0 0 .961-.96V9.054c0-1.328-.812-2.52-2.047-3.008m-5.25-.223c.578.45 1.281.735 2.082.735.8 0 1.504-.286 2.078-.735a3.29 3.29 0 0 0 1.121-3.265C29.727 1.28 28.672.289 27.391.063 25.313-.32 23.52 1.246 23.52 3.297c0 .992.449 1.918 1.183 2.527m0 0" fill="rgb(25.098039%, 25.098039%, 25.490196%)"/></svg>