<svg role="img" viewBox="0 0 32 32" height="32" width="32" xmlns="http://www.w3.org/2000/svg"><path d="m16 1.234-3.543 3.543a.635.635 0 0 0-.176.621.644.644 0 0 0 1.082.286l1.996-2v5.918a.642.642 0 1 0 1.281 0V3.684l1.997 2a.64.64 0 0 0 1.082-.282.64.64 0 0 0-.176-.625Zm9.602 5.121-3.543 3.543a.635.635 0 0 0-.176.622c.058.226.23.402.457.457a.635.635 0 0 0 .62-.176l2-1.996v5.914c0 .23.122.441.317.558.2.114.442.118.645.004a.64.64 0 0 0 .316-.562V8.805l2 1.996c.16.168.399.234.621.18a.63.63 0 0 0 .461-.458.641.641 0 0 0-.18-.625ZM6.398 10.832 2.86 14.379a.633.633 0 0 0 0 .902c.25.25.653.25.903 0l2-1.996V19.2c0 .23.117.446.316.563a.64.64 0 0 0 .96-.562l.001-5.915 2 1.996c.16.168.399.235.621.176a.618.618 0 0 0 .457-.457.635.635 0 0 0-.176-.621Zm6.403.688a.654.654 0 0 0-.64.64v17.281c0 .168.07.332.187.454a.655.655 0 0 0 .453.183h6.398a.655.655 0 0 0 .453-.183.659.659 0 0 0 .188-.454v-17.28a.649.649 0 0 0-.64-.641Zm9.597 5.12a.635.635 0 0 0-.636.641v12.16c0 .352.285.637.636.637h6.403a.645.645 0 0 0 .64-.637v-12.16a.635.635 0 0 0-.187-.453.635.635 0 0 0-.453-.187ZM3.2 21.122a.665.665 0 0 0-.64.64v7.68a.642.642 0 0 0 .64.637h6.403a.637.637 0 0 0 .636-.637v-7.68a.643.643 0 0 0-.636-.64Zm0 0"/></svg>