<?xml version="1.0" encoding="UTF-8"?>
<svg xmlns="http://www.w3.org/2000/svg" xmlns:xlink="http://www.w3.org/1999/xlink" width="32" height="32" viewBox="0 0 32 32">
<path fill-rule="nonzero" fill="rgb(29.019608%, 67.058824%, 95.686275%)" fill-opacity="1" d="M 31.699219 19.257812 L 28.644531 6 C 28.476562 5.289062 27.820312 4.542969 27.074219 4.34375 L 13.15625 0.0546875 C 12.980469 0 12.78125 0 12.554688 0 C 11.957031 0 11.355469 0.226562 10.925781 0.601562 L 0.957031 9.886719 C 0.414062 10.375 0.125 11.34375 0.300781 12.023438 L 3.554688 26.226562 C 3.726562 26.9375 4.382812 27.679688 5.125 27.882812 L 18.15625 31.9375 C 18.324219 31.992188 18.523438 31.992188 18.757812 31.992188 C 19.355469 31.992188 19.957031 31.769531 20.382812 31.394531 L 31.039062 21.480469 C 31.585938 20.914062 31.875 20 31.699219 19.257812 M 14.613281 3.199219 L 24.1875 6.144531 C 24.5625 6.257812 24.5625 6.429688 24.1875 6.519531 L 19.164062 7.664062 C 18.789062 7.773438 18.25 7.605469 17.988281 7.320312 L 14.5 3.542969 C 14.1875 3.226562 14.242188 3.085938 14.613281 3.199219 M 20.585938 20.34375 C 20.699219 20.71875 20.445312 20.945312 20.074219 20.832031 L 9.761719 17.632812 C 9.386719 17.519531 9.304688 17.207031 9.585938 16.945312 L 17.476562 9.601562 C 17.761719 9.3125 18.074219 9.425781 18.164062 9.800781 Z M 3.585938 11 L 11.957031 3.199219 C 12.242188 2.914062 12.667969 2.976562 12.957031 3.226562 L 17.15625 7.769531 C 17.445312 8.054688 17.382812 8.480469 17.125 8.769531 L 8.757812 16.574219 C 8.46875 16.863281 8.042969 16.800781 7.757812 16.542969 L 3.554688 12 C 3.273438 11.6875 3.300781 11.226562 3.585938 11 M 5.617188 23.34375 L 3.417969 13.625 C 3.304688 13.257812 3.476562 13.167969 3.730469 13.457031 L 7.21875 17.226562 C 7.507812 17.511719 7.585938 18.054688 7.507812 18.425781 L 5.992188 23.335938 C 5.875 23.742188 5.699219 23.742188 5.617188 23.34375 M 17.875 29.054688 L 6.929688 25.65625 C 6.550781 25.53125 6.332031 25.125 6.445312 24.742188 L 8.273438 18.855469 C 8.398438 18.476562 8.800781 18.257812 9.1875 18.367188 L 20.132812 21.738281 C 20.507812 21.851562 20.730469 22.25 20.617188 22.648438 L 18.789062 28.539062 C 18.65625 28.917969 18.261719 29.136719 17.875 29.054688 M 27.585938 21.085938 L 20.273438 27.886719 C 19.988281 28.175781 19.84375 28.0625 19.960938 27.6875 L 21.476562 22.773438 C 21.585938 22.398438 21.988281 22 22.386719 21.945312 L 27.417969 20.800781 C 27.789062 20.65625 27.84375 20.824219 27.585938 21.085938 M 28.386719 19.601562 L 22.363281 20.976562 C 21.988281 21.085938 21.585938 20.832031 21.507812 20.460938 L 18.929688 9.3125 C 18.820312 8.9375 19.074219 8.539062 19.445312 8.457031 L 25.476562 7.082031 C 25.84375 6.96875 26.242188 7.226562 26.332031 7.59375 L 28.90625 18.738281 C 28.988281 19.175781 28.757812 19.542969 28.386719 19.601562 "/>
</svg>
