<?xml version="1.0" encoding="UTF-8"?>
<svg xmlns="http://www.w3.org/2000/svg" xmlns:xlink="http://www.w3.org/1999/xlink" width="48.941176" height="32" viewBox="0 0 48.941176 32">
<path fill="none" stroke-width="2.5" stroke-linecap="butt" stroke-linejoin="round" stroke="rgb(0%, 74.117647%, 30.196078%)" stroke-opacity="1" stroke-miterlimit="4" d="M 460.59625 532.296917 C 460.59625 539.300732 455.002328 544.896974 447.998913 544.896974 L 359.696432 544.896974 C 352.70403 544.999136 346.999991 539.402895 346.999991 532.399079 C 346.999991 525.395264 352.494808 519.69686 359.498223 519.69686 C 359.597328 519.69686 359.597328 519.69686 359.696432 519.69686 L 447.998913 519.69686 C 454.903223 519.69686 460.59625 525.304453 460.59625 532.296917 Z M 460.59625 532.296917 " transform="matrix(0.354738, 0, 0, 0.34412, -121.000228, -158.740674)"/>
<path fill="none" stroke-width="2.5" stroke-linecap="butt" stroke-linejoin="round" stroke="rgb(0%, 74.117647%, 30.196078%)" stroke-opacity="1" stroke-miterlimit="4" d="M 468.998144 492.396737 C 468.998144 507.584914 456.687111 519.901185 441.502036 519.901185 C 426.31696 519.901185 413.994915 507.584914 413.994915 492.396737 C 413.994915 477.208561 426.31696 464.90364 441.502036 464.90364 C 456.687111 464.90364 468.998144 477.208561 468.998144 492.396737 Z M 468.998144 492.396737 " transform="matrix(0.354738, 0, 0, 0.34412, -121.000228, -158.740674)"/>
<path fill="none" stroke-width="2.5" stroke-linecap="butt" stroke-linejoin="round" stroke="rgb(0%, 74.117647%, 30.196078%)" stroke-opacity="1" stroke-miterlimit="4" d="M 414.402347 494.394584 L 359.597328 494.394584 C 352.604925 494.496747 346.999991 500.195151 347.099096 507.096803 C 347.198201 513.998456 352.70403 519.503886 359.597328 519.594697 L 441.60114 519.594697 " transform="matrix(0.354738, 0, 0, 0.34412, -121.000228, -158.740674)"/>
<path fill="none" stroke-width="2.5" stroke-linecap="butt" stroke-linejoin="round" stroke="rgb(0%, 74.117647%, 30.196078%)" stroke-opacity="1" stroke-miterlimit="4" d="M 427.098788 469.194471 L 359.597328 469.194471 C 352.604925 469.103659 346.900887 474.699901 346.900887 481.703716 C 346.801782 488.69618 352.395704 494.394584 359.399118 494.394584 C 359.498223 494.394584 359.498223 494.394584 359.597328 494.394584 L 414.402347 494.394584 " transform="matrix(0.354738, 0, 0, 0.34412, -121.000228, -158.740674)"/>
<path fill="none" stroke-width="2.5" stroke-linecap="round" stroke-linejoin="round" stroke="rgb(0%, 74.117647%, 30.196078%)" stroke-opacity="1" stroke-miterlimit="4" d="M 367.999222 481.89669 C 367.999222 484.110213 366.204322 485.903735 364.001991 485.903735 C 361.788647 485.903735 360.004759 484.110213 360.004759 481.89669 C 360.004759 479.694518 361.788647 477.900996 364.001991 477.900996 C 366.204322 477.900996 367.999222 479.694518 367.999222 481.89669 Z M 367.999222 481.89669 " transform="matrix(0.354738, 0, 0, 0.34412, -121.000228, -158.740674)"/>
<path fill="none" stroke-width="2.5" stroke-linecap="round" stroke-linejoin="round" stroke="rgb(0%, 74.117647%, 30.196078%)" stroke-opacity="1" stroke-miterlimit="4" d="M 367.999222 506.90383 C 367.999222 509.106002 366.204322 510.899523 364.001991 510.899523 C 361.788647 510.899523 360.004759 509.106002 360.004759 506.90383 C 360.004759 504.690306 361.788647 502.896784 364.001991 502.896784 C 366.204322 502.896784 367.999222 504.690306 367.999222 506.90383 Z M 367.999222 506.90383 " transform="matrix(0.354738, 0, 0, 0.34412, -121.000228, -158.740674)"/>
<path fill="none" stroke-width="2.5" stroke-linecap="round" stroke-linejoin="round" stroke="rgb(0%, 74.117647%, 30.196078%)" stroke-opacity="1" stroke-miterlimit="4" d="M 367.999222 532.399079 C 367.999222 534.885037 366.204322 536.905586 364.001991 536.905586 C 361.788647 536.905586 360.004759 534.885037 360.004759 532.399079 C 360.004759 529.913122 361.788647 527.903924 364.001991 527.903924 C 366.204322 527.903924 367.999222 529.913122 367.999222 532.399079 Z M 367.999222 532.399079 " transform="matrix(0.354738, 0, 0, 0.34412, -121.000228, -158.740674)"/>
<path fill-rule="nonzero" fill="rgb(14.901961%, 19.215686%, 21.568627%)" fill-opacity="1" d="M 38.523438 6.953125 L 36.148438 9.257812 C 36.007812 9.398438 35.792969 9.398438 35.652344 9.257812 L 33.273438 6.953125 C 33.132812 6.816406 33.132812 6.609375 33.273438 6.472656 L 35.652344 4.167969 C 35.792969 4.027344 36.007812 4.027344 36.148438 4.167969 L 38.523438 6.472656 C 38.667969 6.609375 38.667969 6.816406 38.523438 6.953125 Z M 38.523438 6.953125 "/>
<path fill-rule="nonzero" fill="rgb(14.901961%, 19.215686%, 21.568627%)" fill-opacity="1" d="M 41.964844 10.257812 L 39.589844 12.5625 C 39.445312 12.699219 39.234375 12.699219 39.09375 12.5625 L 36.714844 10.257812 C 36.574219 10.121094 36.574219 9.914062 36.714844 9.777344 L 39.09375 7.46875 C 39.234375 7.332031 39.445312 7.332031 39.589844 7.46875 L 41.964844 9.777344 C 42.109375 9.914062 42.109375 10.121094 41.964844 10.257812 Z M 41.964844 10.257812 "/>
<path fill-rule="nonzero" fill="rgb(14.901961%, 19.215686%, 21.568627%)" fill-opacity="1" d="M 35.082031 10.292969 L 32.707031 12.597656 C 32.566406 12.734375 32.351562 12.734375 32.210938 12.597656 L 29.832031 10.292969 C 29.691406 10.152344 29.691406 9.949219 29.832031 9.808594 L 32.210938 7.503906 C 32.351562 7.367188 32.566406 7.367188 32.707031 7.503906 L 35.082031 9.808594 C 35.226562 9.949219 35.226562 10.152344 35.082031 10.292969 Z M 35.082031 10.292969 "/>
<path fill-rule="nonzero" fill="rgb(14.901961%, 19.215686%, 21.568627%)" fill-opacity="1" d="M 38.523438 13.59375 L 36.113281 15.933594 C 35.972656 16.074219 35.757812 16.074219 35.617188 15.933594 L 33.238281 13.628906 C 33.097656 13.492188 33.097656 13.285156 33.238281 13.148438 L 35.617188 10.84375 C 35.757812 10.703125 35.972656 10.703125 36.113281 10.84375 L 38.488281 13.148438 C 38.667969 13.25 38.667969 13.457031 38.523438 13.59375 Z M 38.523438 13.59375 "/>
</svg>
