<svg role="img" viewBox="0 0 32 32" height="32" width="32" xmlns="http://www.w3.org/2000/svg"><path d="M16 1.281C7.883 1.281 1.281 7.883 1.281 16c0 8.117 6.602 14.719 14.719 14.719 8.117 0 14.719-6.602 14.719-14.719 0-8.117-6.602-14.719-14.719-14.719m-1.023 8.125c0-.125.062-.254.253-.254h1.473c.129 0 .258.063.258.254v8.64c0 .13-.066.259-.258.259H15.23c-.125 0-.253-.067-.253-.258Zm2.046 13.188c0 .125-.062.254-.253.254h-1.54c-.125 0-.253-.063-.253-.254V20.93c0-.13.062-.258.253-.258h1.54c.125 0 .253.062.253.258Zm0 0"/></svg>