<?xml version="1.0" encoding="UTF-8"?>
<svg xmlns="http://www.w3.org/2000/svg" xmlns:xlink="http://www.w3.org/1999/xlink" width="32" height="32" viewBox="0 0 32 32">
<path fill-rule="nonzero" fill="rgb(0%, 0%, 0%)" fill-opacity="1" d="M 16 1.28125 C 7.871094 1.28125 1.28125 7.871094 1.28125 16 C 1.28125 24.128906 7.871094 30.71875 16 30.71875 C 24.128906 30.71875 30.71875 24.128906 30.71875 16 C 30.71875 7.871094 24.128906 1.28125 16 1.28125 M 16 7.039062 C 17.058594 7.039062 17.921875 7.898438 17.921875 8.960938 C 17.921875 10.023438 17.0625 10.882812 16 10.882812 C 14.9375 10.882812 14.078125 10.023438 14.078125 8.960938 C 14.078125 7.898438 14.941406 7.039062 16 7.039062 M 18.558594 24.320312 L 13.441406 24.320312 L 13.441406 23.039062 L 14.71875 23.039062 L 14.71875 14.71875 L 13.441406 14.71875 L 13.441406 13.441406 L 17.28125 13.441406 L 17.28125 23.039062 L 18.558594 23.039062 Z M 18.558594 24.320312 "/>
</svg>
