<?xml version="1.0" encoding="UTF-8"?>
<svg xmlns="http://www.w3.org/2000/svg" xmlns:xlink="http://www.w3.org/1999/xlink" width="32" height="32" viewBox="0 0 32 32">
<path  d="M 15 6 C 16.238281 6 17.40625 6.234375 18.5 6.703125 C 19.59375 7.171875 20.546875 7.816406 21.359375 8.640625 C 22.171875 9.464844 22.8125 10.417969 23.28125 11.5 C 23.75 12.582031 23.988281 13.75 24 15 C 24 15.65625 23.957031 16.269531 23.875 16.84375 C 23.792969 17.417969 23.660156 17.964844 23.484375 18.484375 C 23.308594 19.003906 23.078125 19.519531 22.796875 20.03125 C 22.515625 20.542969 22.183594 21.0625 21.796875 21.59375 C 21.496094 22.011719 21.230469 22.386719 21 22.71875 C 20.769531 23.050781 20.582031 23.386719 20.4375 23.71875 C 20.292969 24.050781 20.183594 24.417969 20.109375 24.8125 C 20.035156 25.207031 20 25.671875 20 26.203125 L 20 29 C 20 29.417969 19.921875 29.808594 19.765625 30.171875 C 19.609375 30.535156 19.394531 30.855469 19.125 31.125 C 18.855469 31.394531 18.535156 31.609375 18.171875 31.765625 C 17.808594 31.921875 17.417969 32 17 32 L 13 32 C 12.582031 32 12.191406 31.921875 11.828125 31.765625 C 11.464844 31.609375 11.144531 31.394531 10.875 31.125 C 10.605469 30.855469 10.390625 30.535156 10.234375 30.171875 C 10.078125 29.808594 10 29.417969 10 29 L 10 26.1875 C 10 25.65625 9.964844 25.199219 9.890625 24.8125 C 9.816406 24.425781 9.707031 24.066406 9.5625 23.734375 C 9.417969 23.402344 9.230469 23.0625 9 22.71875 C 8.769531 22.375 8.503906 22 8.203125 21.59375 C 7.816406 21.0625 7.488281 20.546875 7.21875 20.046875 C 6.949219 19.546875 6.71875 19.03125 6.53125 18.5 C 6.34375 17.96875 6.207031 17.417969 6.125 16.84375 C 6.042969 16.269531 6 15.65625 6 15 C 6 13.761719 6.234375 12.59375 6.703125 11.5 C 7.171875 10.40625 7.816406 9.453125 8.640625 8.640625 C 9.464844 7.828125 10.417969 7.1875 11.5 6.71875 C 12.582031 6.25 13.75 6.011719 15 6 M 18 29 L 18 28 L 12 28 L 12 29 C 12 29.269531 12.097656 29.503906 12.296875 29.703125 C 12.496094 29.902344 12.730469 30 13 30 L 17 30 C 17.269531 30 17.503906 29.902344 17.703125 29.703125 C 17.902344 29.503906 18 29.269531 18 29 M 22 15 C 22 14.03125 21.816406 13.125 21.453125 12.28125 C 21.089844 11.4375 20.589844 10.691406 19.953125 10.046875 C 19.316406 9.402344 18.578125 8.902344 17.734375 8.546875 C 16.890625 8.191406 15.980469 8.011719 15 8 C 14.03125 8 13.125 8.183594 12.28125 8.546875 C 11.4375 8.910156 10.691406 9.410156 10.046875 10.046875 C 9.402344 10.683594 8.902344 11.421875 8.546875 12.265625 C 8.191406 13.109375 8.011719 14.019531 8 15 C 8 15.925781 8.09375 16.722656 8.28125 17.390625 C 8.46875 18.058594 8.714844 18.652344 9.015625 19.171875 C 9.316406 19.691406 9.636719 20.183594 9.96875 20.640625 C 10.300781 21.097656 10.621094 21.578125 10.921875 22.078125 C 11.222656 22.578125 11.472656 23.140625 11.671875 23.765625 C 11.871094 24.390625 11.980469 25.136719 12 26 L 18 26 C 18.011719 25.136719 18.113281 24.394531 18.3125 23.78125 C 18.511719 23.167969 18.761719 22.605469 19.0625 22.09375 C 19.363281 21.582031 19.683594 21.105469 20.015625 20.65625 C 20.347656 20.207031 20.667969 19.71875 20.96875 19.1875 C 21.269531 18.65625 21.515625 18.058594 21.703125 17.390625 C 21.890625 16.722656 21.988281 15.925781 22 15 M 15 4 C 14.730469 4 14.496094 3.902344 14.296875 3.703125 C 14.097656 3.503906 14 3.269531 14 3 L 14 1 C 14 0.730469 14.097656 0.496094 14.296875 0.296875 C 14.496094 0.0976562 14.730469 0 15 0 C 15.269531 0 15.503906 0.0976562 15.703125 0.296875 C 15.902344 0.496094 16 0.730469 16 1 L 16 3 C 16 3.269531 15.902344 3.503906 15.703125 3.703125 C 15.503906 3.902344 15.269531 4 15 4 M 3 14.5 L 1 14.5 C 0.730469 14.5 0.496094 14.402344 0.296875 14.203125 C 0.0976562 14.003906 0 13.769531 0 13.5 C 0 13.230469 0.0976562 12.996094 0.296875 12.796875 C 0.496094 12.597656 0.730469 12.5 1 12.5 L 3 12.5 C 3.269531 12.5 3.503906 12.597656 3.703125 12.796875 C 3.902344 12.996094 4 13.230469 4 13.5 C 4 13.769531 3.902344 14.003906 3.703125 14.203125 C 3.503906 14.402344 3.269531 14.5 3 14.5 M 3.828125 18.578125 C 4.097656 18.578125 4.332031 18.675781 4.53125 18.875 C 4.730469 19.074219 4.828125 19.3125 4.828125 19.59375 C 4.828125 19.800781 4.769531 19.984375 4.65625 20.140625 C 4.542969 20.296875 4.386719 20.421875 4.1875 20.515625 C 4.074219 20.566406 3.917969 20.636719 3.71875 20.71875 C 3.519531 20.800781 3.308594 20.890625 3.078125 20.984375 C 2.847656 21.078125 2.640625 21.15625 2.453125 21.21875 C 2.265625 21.28125 2.097656 21.316406 1.953125 21.328125 C 1.683594 21.328125 1.449219 21.230469 1.25 21.03125 C 1.050781 20.832031 0.953125 20.59375 0.953125 20.3125 C 0.953125 20.105469 1.011719 19.921875 1.125 19.765625 C 1.238281 19.609375 1.394531 19.484375 1.59375 19.390625 C 1.707031 19.347656 1.863281 19.28125 2.0625 19.1875 C 2.261719 19.09375 2.472656 19.003906 2.703125 18.921875 C 2.933594 18.839844 3.140625 18.761719 3.328125 18.6875 C 3.515625 18.613281 3.683594 18.578125 3.828125 18.578125 M 6.203125 8.5 C 6.203125 8.769531 6.105469 9.003906 5.90625 9.203125 C 5.707031 9.402344 5.472656 9.5 5.203125 9.5 C 5.015625 9.5 4.84375 9.453125 4.6875 9.359375 L 2.984375 8.3125 C 2.839844 8.21875 2.722656 8.097656 2.640625 7.953125 C 2.558594 7.808594 2.511719 7.640625 2.5 7.453125 C 2.5 7.183594 2.597656 6.949219 2.796875 6.75 C 2.996094 6.550781 3.230469 6.453125 3.5 6.453125 C 3.667969 6.453125 3.839844 6.503906 4.015625 6.609375 L 5.734375 7.640625 C 5.878906 7.722656 5.996094 7.84375 6.078125 8 C 6.160156 8.15625 6.203125 8.324219 6.203125 8.5 M 7.5 2.75 C 7.5 2.480469 7.597656 2.246094 7.796875 2.046875 C 7.996094 1.847656 8.230469 1.75 8.5 1.75 C 8.675781 1.75 8.84375 1.796875 9 1.890625 C 9.15625 1.984375 9.28125 2.109375 9.375 2.265625 L 10.34375 4.015625 C 10.425781 4.160156 10.46875 4.316406 10.46875 4.484375 C 10.46875 4.765625 10.371094 5.003906 10.171875 5.203125 C 9.972656 5.402344 9.738281 5.5 9.46875 5.5 C 9.292969 5.5 9.125 5.453125 8.96875 5.359375 C 8.8125 5.265625 8.6875 5.140625 8.59375 4.984375 L 7.625 3.234375 C 7.542969 3.089844 7.5 2.925781 7.5 2.75 M 29 12.5 C 29.269531 12.5 29.503906 12.597656 29.703125 12.796875 C 29.902344 12.996094 30 13.230469 30 13.5 C 30 13.769531 29.902344 14.003906 29.703125 14.203125 C 29.503906 14.402344 29.269531 14.5 29 14.5 L 27 14.5 C 26.730469 14.5 26.496094 14.402344 26.296875 14.203125 C 26.097656 14.003906 26 13.769531 26 13.5 C 26 13.230469 26.097656 12.996094 26.296875 12.796875 C 26.496094 12.597656 26.730469 12.5 27 12.5 Z M 29.03125 20.328125 C 29.03125 20.597656 28.933594 20.832031 28.734375 21.03125 C 28.535156 21.230469 28.300781 21.328125 28.03125 21.328125 C 27.917969 21.328125 27.761719 21.296875 27.5625 21.234375 C 27.363281 21.171875 27.152344 21.089844 26.921875 20.984375 C 26.691406 20.878906 26.484375 20.792969 26.296875 20.71875 C 26.109375 20.644531 25.949219 20.574219 25.8125 20.5 C 25.625 20.417969 25.472656 20.292969 25.359375 20.125 C 25.246094 19.957031 25.183594 19.769531 25.171875 19.5625 C 25.171875 19.28125 25.269531 19.046875 25.46875 18.859375 C 25.667969 18.671875 25.90625 18.574219 26.1875 18.5625 C 26.3125 18.5625 26.472656 18.597656 26.671875 18.671875 C 26.871094 18.746094 27.078125 18.828125 27.296875 18.921875 C 27.515625 19.015625 27.722656 19.109375 27.921875 19.203125 C 28.121094 19.296875 28.28125 19.363281 28.40625 19.40625 C 28.59375 19.488281 28.746094 19.609375 28.859375 19.765625 C 28.972656 19.921875 29.03125 20.109375 29.03125 20.328125 M 24.796875 9.5 C 24.527344 9.5 24.292969 9.402344 24.09375 9.203125 C 23.894531 9.003906 23.796875 8.769531 23.796875 8.5 C 23.796875 8.324219 23.839844 8.15625 23.921875 8 C 24.003906 7.84375 24.121094 7.722656 24.265625 7.640625 L 25.984375 6.609375 C 26.160156 6.503906 26.332031 6.453125 26.5 6.453125 C 26.769531 6.453125 27.003906 6.550781 27.203125 6.75 C 27.402344 6.949219 27.5 7.183594 27.5 7.453125 C 27.5 7.628906 27.457031 7.792969 27.375 7.9375 C 27.292969 8.082031 27.171875 8.207031 27.015625 8.3125 L 25.3125 9.359375 C 25.15625 9.453125 24.984375 9.5 24.796875 9.5 M 19.53125 4.484375 C 19.53125 4.316406 19.574219 4.160156 19.65625 4.015625 L 20.625 2.265625 C 20.707031 2.109375 20.828125 1.984375 20.984375 1.890625 C 21.140625 1.796875 21.3125 1.75 21.5 1.75 C 21.769531 1.75 22.003906 1.847656 22.203125 2.046875 C 22.402344 2.246094 22.5 2.480469 22.5 2.75 C 22.5 2.925781 22.457031 3.089844 22.375 3.234375 L 21.40625 4.984375 C 21.324219 5.140625 21.203125 5.265625 21.046875 5.359375 C 20.890625 5.453125 20.71875 5.5 20.53125 5.5 C 20.261719 5.5 20.027344 5.402344 19.828125 5.203125 C 19.628906 5.003906 19.53125 4.765625 19.53125 4.484375 "/>
</svg>
