<svg role="img" viewBox="0 0 32 32" xmlns="http://www.w3.org/2000/svg"><path d="M22.414 9.027s2.012.813 3.305 11.305c0 0-1.867.719-.719 1.965 1.148 1.242 1.297 3.59 1.297 3.59s-6.805 1.008-18.637.144c0 0-4.742-9.676-2.875-13.027l3.113.094s4.504 2.25 4.313-.145c0 0 .828-.082.953-.156.129-.078 1.098 1.785 3.7-1.32 0 0 4.05-1.547 5.484-2.43ZM6.973 10.801S5.746 7.277 4.199 8.008c-1.55.738.114 3.37.547 3.933 0 0 1.34-.875 2.227-1.14m0 0" fill="rgb(37.64706%, 81.568629%, 89.411765%)"/><path d="M17.227 28.742c-.153-.25-.508-.242-.856-.293-.23-.035-.75-.09-.762-.379-.02-.312.442-.425.75-.492.746-.156 1.489-.129 2.387-.129.387 0 .899.024.942.281.035.215-.149.372-.293.47-.133.09-.395.171-.403.366-.012.34.617.278.473.75-.055.176-.36.274-.59.344-.73.211-1.59.281-2.434.352-.761.066-1.734.21-2.632.082-.254-.035-.594-.133-.61-.317-.027-.293.457-.382.715-.422.719-.105 1.395-.058 2.176-.093.547-.028 1.094-.02 1.14-.52Zm-7.696.106c.528-.024 1.27.007 1.797.14.137.035.399.09.399.235 0 .156-.344.218-.54.27-1.117.292-2.261.382-3.503.53-.223.028-.457.043-.704.106-.144.035-.496.14-.484.316.016.22.578.16.813.176.3.024.683.063.703.285.043.375-.707.395-1.078.422-1.032.078-1.914.04-2.868-.082a2.7 2.7 0 0 1-.613-.14c-.172-.067-.406-.169-.41-.333-.008-.242.375-.335.586-.386.789-.188 1.648-.258 2.469-.434.52-.113 1.035-.312 1.457-.484.46-.184.898-.426 1.375-.563.191-.054.343-.047.601-.058m9.754.824c.121-.012.457 0 .457.164.004.238-.75.238-.762.012-.007-.141.168-.164.305-.176m-.965.2c.16-.017.43-.009.438.163.008.258-.766.246-.754 0 .004-.11.148-.148.316-.164m-1.152.198c.07-.004.242-.015.367.012.043.008.227.078.235.14.007.122-.247.169-.364.176-.234.02-.656-.007-.672-.152-.015-.14.297-.168.434-.176m-1.527.117c.187-.023.605-.015.613.188.008.29-.934.293-.942.012-.003-.153.188-.18.329-.2m-1.786.024c.157-.012.313-.012.48.023.083.016.337.075.345.188.011.215-.598.254-.895.234-.18-.011-.515-.082-.52-.222 0-.122.184-.16.239-.176.125-.04.2-.04.351-.047m-10.988.469c-.058.172-.613.265-.824.14.11-.191.578-.238.824-.14m.13.308c-.145.211-.696.29-.966.153.145-.211.696-.293.965-.153m.223.282c-.153.19-.696.289-.965.14.11-.195.754-.297.965-.14m.988.14c-.102.238-.773.344-1 .152.121-.25.742-.328 1-.152m.797.047c.152-.012.453-.023.613.023.297.09.063.247-.164.305a2.4 2.4 0 0 1-.789.07c-.14-.007-.379-.046-.387-.14-.015-.11.215-.164.293-.188q.21-.058.434-.07m2.351.129c-.011.148-.214.234-.386.293q-.289.093-.59.117c-.129.008-.387 0-.41-.094-.035-.136.277-.246.375-.28.187-.067.383-.11.578-.13.172-.012.367-.008.433.094M17.18 8.902c.015.004.008.012 0 .012-.785.883-1.52 1.828-2.442 2.621-.11.094-.304.281-.449.27-.082-.004-.184-.117-.27-.153-.496-.187-1.019.196-1 .743q-.286.076-.585.093c-.2.02-.426.067-.625.047-.145-.015-.239-.09-.434-.07-.09.008-.16.066-.27.082-.171.023-.398-.035-.601-.082-1.246-.285-2.313-.938-3.535-1.2.148-.09.34-.144.515-.21.032-.055-.058-.145-.035-.2 2.895.305 5.418-.386 7.582-1.105.75-.246 1.48-.559 2.153-.844Zm0 0" fill="rgb(0%, 0%, 0%)" fill-rule="evenodd"/><path d="M15.031 9.75c-2.164.715-4.687 1.406-7.582 1.105-.023.051.067.141.035.2-.175.066-.367.12-.515.21 1.222.262 2.289.91 3.535 1.2.2.047.43.105.601.082.11-.016.18-.074.27-.082.195-.02.29.055.434.07.199.02.425-.031.625-.047.207-.02.406-.039.586-.093-.02-.547.503-.93 1-.743.085.032.187.149.27.153.144.011.339-.176.444-.27.926-.793 1.66-1.738 2.446-2.62.008 0 .015-.009 0-.013-.668.286-1.399.598-2.149.848m0 0" fill="rgb(38.82353%, 54.509807%, 9.411765%)" fill-rule="evenodd"/><path d="M16.09 29.258c-.785.035-1.457-.008-2.176.094-.262.039-.742.132-.719.425.02.184.356.282.614.317.894.129 1.87-.02 2.632-.082.84-.07 1.7-.14 2.434-.352.227-.066.531-.168.586-.344.148-.472-.484-.41-.469-.753.008-.192.27-.274.399-.364.144-.097.328-.254.293-.469-.043-.257-.555-.285-.938-.285-.898 0-1.644-.027-2.387.133-.312.063-.77.18-.754.492.016.285.536.344.762.375.352.051.707.047.86.293-.047.5-.594.496-1.141.52Zm-7.16-.352c-.473.137-.91.38-1.375.567-.422.168-.938.367-1.457.48-.82.176-1.68.246-2.47.434-.21.05-.593.144-.585.39.004.16.238.262.41.328.192.075.426.118.613.141.954.121 1.836.16 2.868.082.37-.027 1.12-.043 1.082-.422-.024-.222-.407-.261-.707-.285-.235-.016-.793.043-.813-.176-.012-.175.34-.277.484-.316.247-.063.48-.078.704-.106 1.242-.148 2.386-.238 3.504-.527.195-.05.539-.117.539-.273 0-.141-.262-.2-.399-.235-.527-.133-1.27-.164-1.797-.14-.258.011-.41.004-.601.058m10.05.942c.012.226.766.226.762-.012-.004-.164-.336-.18-.46-.164-.137.012-.313.031-.305.176Zm-.976.187c-.012.25.762.262.754 0-.008-.168-.278-.176-.438-.164-.168.016-.312.055-.316.168Zm-1.27.211c.016.145.438.172.668.152.121-.007.375-.054.368-.175-.008-.063-.192-.133-.235-.141a1.5 1.5 0 0 0-.367-.012c-.137.008-.45.035-.434.176m-1.422.14c.008.282.95.278.942-.011-.008-.203-.43-.21-.613-.187-.141.019-.332.046-.328.199m-1.808-.128c-.055.015-.238.058-.238.176.004.14.34.21.52.222.292.02.905-.02.894-.234-.008-.113-.258-.172-.344-.188a1.7 1.7 0 0 0-.48-.023c-.153.012-.223.012-.352.047m-11.461.562c.21.13.766.035.824-.14-.246-.098-.715-.047-.824.14m-.012.32c.27.137.82.06.965-.152-.27-.136-.82-.058-.965.153m.223.27c.27.144.812.05.965-.141-.211-.153-.856-.055-.965.14m.953.152c.227.192.898.086 1-.152-.258-.176-.879-.094-1 .152m1.363-.035c-.078.024-.304.075-.293.188.012.094.246.133.387.14q.4.03.79-.07c.226-.058.46-.219.163-.305-.16-.046-.46-.035-.613-.023a2 2 0 0 0-.434.07m2.352-.035c-.2.016-.39.059-.578.13-.094.034-.41.144-.375.28.023.098.281.102.41.094q.301-.024.59-.117c.176-.055.375-.145.386-.293-.062-.102-.261-.106-.433-.094m0 0" fill="rgb(0%, 0%, 0%)" fill-rule="evenodd"/><path d="M17.023 7.04C9.961 10.104 6.414 8.761 6.414 8.761l.84 1.68c5.05.574 10.246-2.145 10.246-2.145l.262-.715s-.434.094-.68-.562Zm0 0" fill="rgb(88.235295%, 79.215688%, 63.529414%)"/><path d="m17.54 4.984-.09-.304s-5.696-2.227-6.99-1.547c-1.292.683-2.96 1.87-4.183 3.703l-.02 1.453S9.77 9.746 17 6.605c0 0-.094-.87.54-1.62m0 0" fill="rgb(38.82353%, 54.509807%, 9.411765%)"/><path d="M17.977 7.059c-.086.074-.165.128-.25.113-.258-.05-.375-.55-.266-1.117.113-.563.41-.98.668-.934.246.05.363.512.277 1.05 0 0-.273.505-.406.856Zm0 0" fill="rgb(0%, 0%, 0%)"/><path d="M21.48 4.441s-1.293-.851-2.671 1.04c0 0-.18-1.126-1.102-.645 0 0 .18-1.617.059-1.844 0 0 .363.106.468.344 0 0 .946-.922.887-2.203 0 0 .25.039.25.36 0 0 .352-.778.7-1.2l.03-.047c1.391-1.207.11 2.399.11 2.399s-.074.175-.152.273c-.075.098.66-.246.648-.523-.008-.278.094.394 0 .515 0 0 1.215-.96 1.254-1.465 0 0 .191.383.14.696 0 0 1.079-.817 1.102-1.2 0 0 .133 2.075-1.914 2.864 0 0 .332 0 .754-.086Zm0 0" fill="rgb(88.235295%, 79.215688%, 63.529414%)"/><path d="M22.164 6.918s4.32-.957 2.023.586c-2.3 1.547-2.636 1.473-2.636 1.473s.469-.692.613-2.059m-.684 2.121-3.976 1.734s1.234-1.05.816-1.628c0 0 2.082-.31 3.16-.106m0 0" fill="rgb(38.82353%, 54.509807%, 9.411765%)"/><path d="M17.793 8.738c1.102-3.054 1.652-3.398 1.652-3.398.524-.559 1.18-.809 1.7-.57.449.207.69.726.695 1.359v.039s-.086 1.543-.516 2.414c0 0-1.605-.227-3.328.23Zm0 0" fill="rgb(37.64706%, 81.568629%, 89.411765%)"/><path d="M19.363 7.375s.864-1.715 1.39-1.32c0 0 .13.156-.206 1.285 0 0 1.39-1.7-.05-1.742 0 0-.97-.035-1.134 1.777M5.965 10.742S4.828 9.023 4.727 9.367c-.106.344.066.945.093 1.113.028.165-.867-1.054-.27-1.503.602-.446 1.345.937 1.41 1.765Zm0 0" fill="rgb(0%, 0%, 0%)"/><path d="M4.64 12.48h.044s.66-.48.851-.554c.195-.074-.238.719.914.719s-2.988.148-3.933-.676c0 0-.082-.352 1.18-.938 0 0 .765 1.36.945 1.446Zm0 0" fill="rgb(38.82353%, 54.509807%, 9.411765%)"/><path d="M8.691 12.941c-1.3-.574-2.277-.742-2.277-.742h-.027c-.203 0-.371-.133-.371-.293 0-.164.168-.297.37-.297h.051s.958.16 2.446.782l.16.07c1.383.512 1.941.523 1.941.523.188.016.235.016.258-.004.028-.015.184-.078.184-.078.195.008.351.145.351.309s-.273.34-.46.351c0 0-1.024.083-2.57-.601Zm9.258-3.449a.27.27 0 0 0-.058-.222.3.3 0 0 0-.211-.094.3.3 0 0 0-.11.023l-1.129 1.235c-.464.523-1.601 1.765-2.074 1.82l-.27.027a1.3 1.3 0 0 0-.144-.152c-.074-.066-.18-.094-.277-.066-.153.05-.239.23-.188.402a.37.37 0 0 0 .11.164s.785.797 2.136-.617l1.477-1.559s.687-.75.73-.93Zm0 0" fill="rgb(0%, 0%, 0%)"/><path d="M20.316 15.059a2.726 2.726 0 0 1-5.45 0 2.72 2.72 0 0 1 2.724-2.723 2.73 2.73 0 0 1 2.726 2.723m-8.457 1.988a2.73 2.73 0 0 1-2.726 2.723 2.72 2.72 0 0 1-2.719-2.723 2.722 2.722 0 1 1 5.445 0m2.27 4.363c.07.406.238 1.27.812 1.195.575-.07.36-1.218.36-1.218s-.98-.051-1.078 0Zm-.336.113s-.527.223-.95.5c0 0 .212 1.07.91.75 0 0 .458-.101.067-1.18Zm-1.34-2.382s-3.351 1.011-1.707 2.707c1.078 1.109 2.57-.782 3.367-.762 0 0 .18-.086.563-.035.379.05 2.867.25 3.101-.746.23-.996-.066-1.16-.25-1.278-.183-.117-1.492-.894-3.449-.347Zm0 0" fill="rgb(100%, 100%, 100%)"/><path d="M8.895 17.129a.854.854 0 1 0 .005 1.709.854.854 0 0 0-.005-1.71m8.335-2.034a.85.85 0 0 0-.601.25.852.852 0 0 0 .602 1.457.84.84 0 0 0 .761-.418.85.85 0 0 0 0-.871.84.84 0 0 0-.762-.418m-3.714 3c-.54.097-1.016.355-1.239.664-.222.308-.156.62.168.82.325.2.864.25 1.399.129.543-.098 1.015-.352 1.238-.664.223-.309.16-.621-.168-.82-.324-.2-.86-.246-1.398-.13" fill="rgb(0%, 0%, 0%)"/><path d="M12.113 19.684s-2.105.984-1.12 1.796c.984.817 1.46-.503 2.898-.742 1.433-.238 3.09.145 3.422-.48.335-.621.46-1.121-1.891-1.34 0 0-.215 1.031-1.461 1.148-1.246.122-1.461-.093-1.844-.382Zm0 0" fill="rgb(88.235295%, 79.215688%, 63.529414%)"/><path d="M28.797 24.316s3.48.739-1.55 1.477c0 0 1.19-.492 1.55-1.477" fill="rgb(13.725491%, 12.156863%, 12.54902%)"/><path d="M26.414 24.656s-.113-1.777-1.176-2.742c-1.058-.965.89-1.266 1.496-1 .606.262 3.121 2.004.907 4.234 0 0-.946.68-1.207-.394Zm0 0" fill="rgb(88.235295%, 79.215688%, 63.529414%)"/><path d="M4.176 24.262s-.18.894-.035 1.273c0 0-3.04-.52-.145-1.238Zm0 0" fill="rgb(0%, 0%, 0%)"/><path d="M5.629 22.23s-1.863 2.204-.899 4.004c.793 1.473 2.391-.195 2.426-.25Zm0 0" fill="rgb(88.235295%, 79.215688%, 63.529414%)"/></svg>