<svg role="img" viewBox="0 0 32 32" height="32" width="32" xmlns="http://www.w3.org/2000/svg"><path d="M-3.2-3.2h38.4v38.4H-3.2z" fill="rgb(100%, 100%, 100%)"/><path d="M32 32H0V0h32ZM3.105 28.8H28.93V3.2H3.105" fill="rgb(40%, 40%, 40%)"/><path d="M16.734 15.07c.93 1.059-.254 2.02-.254 2.02s2.336-1.219 1.278-2.723c-.988-1.406-1.79-2.11 2.402-4.543 0 0-6.558 1.664-3.426 5.246m1.024-9.152s1.984 1.984-1.887 5.059c-3.101 2.464-.703 3.87 0 5.472-1.824-1.633-3.137-3.074-2.238-4.418 1.281-1.984 4.926-2.945 4.125-6.113m2.18 14.723c3.582-1.856 1.917-3.68.765-3.426-.289.066-.414.098-.414.098s.094-.16.32-.227c2.305-.797 4.063 2.371-.738 3.648-.031 0 .031-.062.067-.093m-6.625.77s-.739.413.511.573c1.504.16 2.305.16 3.969-.16 0 0 .45.29 1.055.512-3.743 1.602-8.48-.094-5.535-.926m-.45-2.082s-.832.61.45.735c1.632.16 2.91.195 5.12-.254 0 0 .32.32.797.48-4.542 1.344-9.597.094-6.367-.96m8.832 3.648s.547.449-.61.8c-2.17.672-9.022.864-10.91.032-.671-.29.61-.704.993-.801.418-.094.672-.063.672-.063-.77-.547-4.926 1.055-2.113 1.504 7.648 1.215 13.953-.578 11.968-1.472m-8.03-5.825s-3.49.832-1.25 1.121c.96.125 2.85.094 4.608-.066 1.442-.125 2.88-.383 2.88-.383s-.512.223-.864.48c-3.55.926-10.367.512-8.414-.449 1.695-.8 3.04-.703 3.04-.703m.35 8.543c3.458.223 8.739-.129 8.864-1.758 0 0-.254.606-2.848 1.118-2.945.547-6.59.48-8.734.129.031 0 .48.382 2.719.511"/></svg>