<?xml version="1.0" encoding="UTF-8"?>
<svg xmlns="http://www.w3.org/2000/svg" xmlns:xlink="http://www.w3.org/1999/xlink" width="32" height="32" viewBox="0 0 32 32">
<path fill-rule="evenodd" fill="rgb(82.745098%, 21.960784%, 20%)" fill-opacity="1" d="M 27.296875 15.421875 C 27.296875 21.761719 22.269531 26.898438 16.070312 26.898438 C 9.875 26.898438 4.851562 21.761719 4.851562 15.421875 C 4.851562 9.078125 9.875 3.941406 16.070312 3.941406 C 22.269531 3.941406 27.296875 9.078125 27.296875 15.421875 "/>
<path fill-rule="nonzero" fill="rgb(93.72549%, 23.921569%, 22.745098%)" fill-opacity="1" d="M 5.304688 18.261719 C 5.304688 18.261719 4.492188 6.292969 15.523438 5.949219 L 14.753906 4.667969 L 8.769531 6.667969 L 7.066406 8.632812 L 5.570312 11.5 L 4.71875 14.835938 L 4.972656 17.058594 "/>
<path fill-rule="nonzero" fill="rgb(13.72549%, 12.156863%, 12.54902%)" fill-opacity="1" d="M 8.386719 7.589844 C 6.332031 9.695312 5.183594 12.523438 5.195312 15.464844 C 5.1875 18.40625 6.332031 21.230469 8.386719 23.335938 C 10.351562 25.351562 13.070312 26.59375 16.070312 26.59375 C 19.074219 26.59375 21.789062 25.351562 23.757812 23.335938 C 25.8125 21.230469 26.957031 18.40625 26.945312 15.464844 C 26.953125 12.523438 25.8125 9.695312 23.757812 7.589844 C 21.789062 5.574219 19.074219 4.332031 16.070312 4.332031 C 13.070312 4.332031 10.355469 5.574219 8.386719 7.589844 M 7.886719 23.824219 C 5.707031 21.589844 4.492188 18.585938 4.5 15.464844 C 4.492188 12.34375 5.707031 9.339844 7.886719 7.105469 C 9.980469 4.964844 12.875 3.636719 16.070312 3.636719 C 19.269531 3.640625 22.164062 4.964844 24.257812 7.105469 C 26.4375 9.339844 27.652344 12.34375 27.644531 15.464844 C 27.65625 18.585938 26.4375 21.589844 24.257812 23.824219 C 22.164062 25.964844 19.269531 27.292969 16.070312 27.292969 C 12.875 27.292969 9.980469 25.964844 7.886719 23.824219 "/>
<path fill-rule="evenodd" fill="rgb(94.117647%, 83.921569%, 71.764706%)" fill-opacity="1" d="M 20.796875 15.484375 L 19.097656 15.742188 L 16.785156 15.996094 L 15.289062 16.039062 L 13.835938 15.996094 L 12.722656 15.65625 L 11.742188 14.585938 L 10.972656 12.40625 L 10.800781 11.9375 L 9.773438 11.59375 L 9.175781 10.609375 L 8.738281 9.199219 L 9.210938 7.960938 L 10.320312 7.574219 L 11.21875 8.003906 L 11.648438 8.941406 L 12.160156 8.855469 L 12.332031 8.644531 L 12.160156 7.660156 L 12.117188 6.421875 L 12.375 4.71875 L 12.363281 3.742188 L 13.144531 2.496094 L 14.511719 1.515625 L 16.90625 0.476562 L 19.554688 0.863281 L 21.863281 2.527344 L 22.933594 4.230469 L 23.617188 5.46875 L 23.789062 8.546875 L 23.277344 11.195312 L 22.335938 13.546875 L 21.4375 14.785156 "/>
<path fill-rule="evenodd" fill="rgb(20%, 31.372549%, 38.039216%)" fill-opacity="1" d="M 19.34375 22.878906 L 13.226562 23.136719 L 13.226562 24.164062 L 13.742188 27.753906 L 13.484375 28.054688 L 9.210938 26.601562 L 8.910156 26.085938 L 8.480469 21.257812 L 7.5 18.351562 L 7.285156 17.664062 L 10.703125 15.316406 L 11.773438 14.886719 L 12.714844 16.042969 L 13.527344 16.769531 L 14.46875 17.070312 L 14.894531 17.195312 L 15.40625 19.421875 L 15.792969 19.890625 L 16.773438 19.546875 L 16.089844 20.871094 L 19.8125 22.625 L 19.339844 22.882812 "/>
<path fill-rule="evenodd" fill="rgb(42.745098%, 41.960784%, 42.745098%)" fill-opacity="1" d="M 9.210938 7.960938 L 10.320312 7.574219 L 11.21875 8.003906 L 11.648438 8.941406 L 12.160156 8.855469 L 12.289062 8.34375 L 12.03125 7.359375 L 12.289062 5.007812 L 12.074219 3.726562 L 12.84375 2.828125 L 14.511719 1.503906 L 14.042969 0.863281 L 11.691406 2.015625 L 10.707031 2.785156 L 10.152344 3.984375 L 9.296875 5.136719 L 9.039062 6.507812 Z M 9.210938 7.960938 "/>
<path fill-rule="evenodd" fill="rgb(86.27451%, 85.098039%, 84.705882%)" fill-opacity="1" d="M 10.960938 3.941406 C 10.960938 3.941406 11.601562 2.359375 14.167969 1.589844 C 16.734375 0.820312 14.296875 1.035156 14.296875 1.035156 L 11.515625 2.105469 L 10.445312 3.175781 L 9.976562 4.027344 Z M 9.679688 7.660156 C 9.679688 7.660156 8.78125 4.667969 12.203125 4.238281 L 12.074219 3.726562 L 9.726562 4.28125 L 9.039062 6.507812 L 9.210938 7.960938 Z M 9.679688 7.660156 "/>
<path fill-rule="evenodd" fill="rgb(96.862745%, 89.411765%, 80.392157%)" fill-opacity="1" d="M 11.046875 11.636719 L 11.609375 11.09375 C 11.621094 11.257812 11.742188 11.394531 11.902344 11.421875 C 11.945312 11.722656 12.074219 14.414062 13.902344 15.871094 C 14.070312 16.003906 12.535156 15.65625 12.535156 15.65625 L 11.167969 13.519531 M 18.90625 10.824219 C 18.90625 10.824219 19.003906 9.527344 19.355469 9.628906 C 19.703125 9.726562 19.703125 10.078125 19.703125 10.078125 C 19.703125 10.078125 18.855469 10.625 18.90625 10.824219 "/>
<path fill-rule="nonzero" fill="rgb(96.862745%, 89.411765%, 80.392157%)" fill-opacity="1" d="M 22.464844 6.078125 C 22.464844 6.078125 21.757812 6.226562 21.695312 6.847656 C 21.628906 7.46875 22.464844 6.976562 22.59375 6.933594 M 17.300781 6.121094 C 17.300781 6.121094 16.359375 6.246094 16.359375 6.847656 C 16.359375 7.445312 17.429688 7.402344 17.726562 7.148438 "/>
<path fill-rule="evenodd" fill="rgb(96.862745%, 89.411765%, 80.392157%)" fill-opacity="1" d="M 11.476562 8.898438 C 11.476562 8.898438 9.851562 7.914062 9.679688 8.855469 C 9.511719 9.796875 9.125 10.480469 9.9375 11.464844 L 9.382812 11.296875 L 8.867188 9.96875 L 8.699219 8.6875 L 9.679688 7.660156 L 10.792969 7.746094 L 11.433594 8.261719 Z M 12.246094 6.207031 C 12.246094 6.207031 12.972656 2.445312 16.648438 1.707031 C 19.675781 1.109375 21.265625 1.835938 21.867188 2.519531 C 21.867188 2.519531 19.171875 -0.6875 16.605469 0.296875 C 14.039062 1.277344 12.160156 3.09375 12.199219 4.238281 L 12.242188 6.203125 M 22.164062 2.953125 C 22.164062 2.953125 20.921875 2.910156 20.878906 4.023438 C 20.882812 4.140625 20.914062 4.257812 20.964844 4.367188 C 20.964844 4.367188 21.949219 3.253906 22.546875 3.855469 M 16.734375 4.480469 C 16.734375 4.480469 16.519531 2.777344 15.066406 3.769531 C 14.125 4.40625 14.210938 5.308594 14.382812 5.46875 C 14.554688 5.628906 14.507812 5.984375 14.636719 5.746094 C 14.765625 5.511719 14.722656 4.742188 15.195312 4.527344 C 15.664062 4.3125 16.433594 4.074219 16.734375 4.472656 "/>
<path fill-rule="evenodd" fill="rgb(28.627451%, 44.705882%, 54.509804%)" fill-opacity="1" d="M 12.714844 16.039062 L 8.695312 17.835938 C 8.695312 17.835938 10.363281 24.464844 9.507812 26.515625 L 8.90625 26.300781 L 8.863281 23.777344 L 7.757812 19 L 7.285156 17.675781 L 11.484375 14.851562 L 12.726562 16.050781 M 13.128906 19.703125 L 13.699219 20.402344 L 13.699219 22.964844 L 13.015625 22.964844 L 12.929688 20.964844 C 12.929688 20.753906 13.015625 19.984375 13.015625 19.984375 M 13.144531 23.351562 L 11.21875 23.433594 L 11.773438 23.820312 L 13.144531 24.035156 "/>
<path fill-rule="evenodd" fill="rgb(20%, 31.372549%, 38.039216%)" fill-opacity="1" d="M 19.726562 22.921875 L 21.308594 22.878906 L 21.695312 26.8125 L 20.070312 27.027344 L 19.726562 22.925781 M 20.15625 22.921875 L 22.550781 22.796875 L 23.53125 20.1875 C 23.53125 20.058594 24.386719 16.597656 24.386719 16.597656 L 22.464844 14.585938 L 22.078125 14.246094 L 21.050781 15.269531 L 21.050781 19.246094 L 20.152344 22.925781 "/>
<path fill-rule="evenodd" fill="rgb(28.627451%, 44.705882%, 54.509804%)" fill-opacity="1" d="M 21.222656 22.625 L 19.726562 22.925781 L 19.941406 24.121094 C 20.496094 24.378906 21.4375 23.691406 21.4375 23.691406 M 21.265625 15.144531 L 24.257812 17.367188 L 24.34375 16.339844 L 22.078125 14.246094 Z M 21.265625 15.144531 "/>
<path fill-rule="evenodd" fill="rgb(100%, 100%, 100%)" fill-opacity="1" d="M 14.628906 31.347656 L 13.742188 27.753906 L 13.300781 25.105469 L 13.230469 23.136719 L 17.234375 22.925781 L 19.726562 22.925781 L 19.5 27.425781 L 19.886719 30.886719 L 19.84375 31.527344 L 16.59375 31.785156 L 14.625 31.355469 "/>
<path fill-rule="evenodd" fill="rgb(86.27451%, 85.098039%, 84.705882%)" fill-opacity="1" d="M 19.171875 22.878906 C 19.171875 22.878906 18.957031 27.328125 19.597656 30.480469 C 19.597656 30.480469 18.316406 31.292969 16.433594 31.507812 L 20.023438 31.378906 L 20.453125 31.121094 L 19.9375 24.109375 L 19.8125 22.613281 "/>
<path fill-rule="evenodd" fill="rgb(100%, 100%, 100%)" fill-opacity="1" d="M 21.765625 26.472656 L 23.433594 26.003906 L 26.597656 25.832031 L 27.066406 24.378906 L 26.214844 21.855469 L 25.230469 21.726562 L 23.863281 22.15625 L 22.550781 22.796875 L 21.851562 22.667969 L 21.308594 22.878906 "/>
<path fill-rule="evenodd" fill="rgb(86.27451%, 85.098039%, 84.705882%)" fill-opacity="1" d="M 21.738281 25.617188 C 21.738281 25.617188 22.847656 25.101562 23.019531 25.144531 L 22.550781 22.792969 L 23.105469 22.578125 L 23.492188 25.058594 L 26.097656 25.1875 C 26.097656 25.1875 26.613281 24.203125 26.484375 23.1875 L 26.953125 24.554688 L 26.996094 25.324219 L 26.3125 26.351562 L 25.542969 26.523438 L 24.261719 26.480469 L 23.832031 25.921875 L 22.335938 26.136719 L 21.867188 26.308594 "/>
<path fill-rule="nonzero" fill="rgb(100%, 100%, 100%)" fill-opacity="1" d="M 20.054688 22.578125 L 19.117188 20.1875 L 18.132812 18.777344 C 18.132812 18.777344 18.347656 18.175781 18.644531 18.175781 L 19.628906 18.175781 L 20.570312 18.519531 L 20.484375 20.101562 Z M 20.054688 22.578125 "/>
<path fill-rule="evenodd" fill="rgb(86.27451%, 85.098039%, 84.705882%)" fill-opacity="1" d="M 20.238281 21.769531 C 20.238281 21.769531 19.042969 19.460938 19.042969 19.121094 C 19.042969 19.121094 19.257812 18.605469 19.554688 18.734375 C 19.855469 18.863281 20.496094 19.203125 20.496094 19.203125 L 20.496094 18.394531 L 19.042969 18.09375 L 18.058594 18.222656 L 19.726562 22.15625 L 20.066406 22.199219 "/>
<path fill-rule="nonzero" fill="rgb(100%, 100%, 100%)" fill-opacity="1" d="M 15.011719 16.125 L 13.824219 15.996094 L 12.714844 15.652344 L 12.714844 16.039062 L 13.257812 16.636719 L 14.957031 17.40625 "/>
<path fill-rule="evenodd" fill="rgb(86.27451%, 85.098039%, 84.705882%)" fill-opacity="1" d="M 13.101562 16.253906 C 13.101562 16.253906 14.425781 16.808594 14.851562 16.683594 L 14.894531 17.195312 L 13.699219 16.9375 L 12.972656 16.425781 L 13.101562 16.257812 "/>
<path fill-rule="evenodd" fill="rgb(82.745098%, 21.960784%, 20%)" fill-opacity="1" d="M 21.761719 18.324219 C 21.101562 18.316406 20.445312 18.222656 19.808594 18.054688 C 19.847656 17.816406 19.773438 17.585938 19.832031 17.417969 C 19.992188 17.300781 20.261719 17.304688 20.503906 17.277344 C 20.269531 17.171875 20.007812 17.140625 19.757812 17.191406 C 19.753906 17.03125 19.679688 16.929688 19.636719 16.800781 C 20.042969 16.65625 21.003906 15.699219 21.546875 16.015625 C 21.804688 16.167969 21.914062 17.027344 21.933594 17.441406 C 21.953125 17.789062 21.90625 18.140625 21.761719 18.324219 "/>
<path fill="none" stroke-width="0.257" stroke-linecap="butt" stroke-linejoin="miter" stroke="rgb(82.745098%, 21.960784%, 20%)" stroke-opacity="1" stroke-miterlimit="4" d="M 21.761719 18.324219 C 21.101562 18.316406 20.445312 18.222656 19.808594 18.054688 C 19.847656 17.816406 19.773438 17.585938 19.832031 17.417969 C 19.992188 17.300781 20.261719 17.304688 20.503906 17.277344 C 20.269531 17.171875 20.007812 17.140625 19.757812 17.191406 C 19.753906 17.03125 19.679688 16.929688 19.636719 16.800781 C 20.042969 16.65625 21.003906 15.699219 21.546875 16.015625 C 21.804688 16.167969 21.914062 17.027344 21.933594 17.441406 C 21.953125 17.789062 21.90625 18.140625 21.761719 18.324219 Z M 21.761719 18.324219 "/>
<path fill-rule="evenodd" fill="rgb(82.745098%, 21.960784%, 20%)" fill-opacity="1" d="M 18.292969 17.136719 L 18.285156 17.304688 C 18.058594 17.453125 17.695312 17.449219 17.445312 17.574219 C 17.8125 17.589844 18.101562 17.679688 18.351562 17.804688 L 18.335938 18.21875 C 17.921875 18.503906 17.542969 18.929688 17.054688 19.195312 C 16.824219 19.320312 16.011719 19.644531 15.765625 19.585938 C 15.625 19.554688 15.613281 19.382812 15.558594 19.21875 C 15.441406 18.867188 15.167969 18.316406 15.144531 17.789062 C 15.113281 17.128906 15.046875 16.019531 15.761719 16.152344 C 16.351562 16.277344 16.921875 16.488281 17.453125 16.773438 C 17.726562 16.921875 17.882812 17.105469 18.296875 17.136719 "/>
<path fill="none" stroke-width="0.257" stroke-linecap="butt" stroke-linejoin="miter" stroke="rgb(82.745098%, 21.960784%, 20%)" stroke-opacity="1" stroke-miterlimit="4" d="M 18.292969 17.136719 L 18.285156 17.304688 C 18.058594 17.453125 17.695312 17.449219 17.445312 17.574219 C 17.8125 17.589844 18.101562 17.679688 18.351562 17.804688 L 18.335938 18.21875 C 17.921875 18.503906 17.542969 18.929688 17.054688 19.195312 C 16.824219 19.320312 16.011719 19.644531 15.765625 19.585938 C 15.625 19.554688 15.613281 19.382812 15.558594 19.21875 C 15.441406 18.867188 15.167969 18.316406 15.144531 17.789062 C 15.113281 17.128906 15.046875 16.019531 15.761719 16.152344 C 16.351562 16.277344 16.921875 16.488281 17.453125 16.773438 C 17.726562 16.921875 17.882812 17.105469 18.296875 17.136719 Z M 18.292969 17.136719 "/>
<path fill-rule="evenodd" fill="rgb(82.745098%, 21.960784%, 20%)" fill-opacity="1" d="M 18.703125 17.929688 C 18.640625 17.566406 18.566406 17.464844 18.597656 17.148438 C 19.558594 16.507812 19.738281 18.25 18.703125 17.929688 "/>
<path fill="none" stroke-width="0.257" stroke-linecap="butt" stroke-linejoin="miter" stroke="rgb(82.745098%, 21.960784%, 20%)" stroke-opacity="1" stroke-miterlimit="4" d="M 18.703125 17.929688 C 18.640625 17.566406 18.566406 17.464844 18.597656 17.148438 C 19.558594 16.507812 19.738281 18.25 18.703125 17.929688 Z M 18.703125 17.929688 "/>
<path fill-rule="evenodd" fill="rgb(93.72549%, 23.921569%, 22.745098%)" fill-opacity="1" d="M 20.101562 18.21875 C 20.101562 18.21875 19.800781 17.792969 20.015625 17.664062 C 20.226562 17.535156 20.441406 17.664062 20.570312 17.449219 C 20.699219 17.234375 20.570312 17.109375 20.613281 16.851562 C 20.65625 16.59375 20.871094 16.550781 21.082031 16.507812 C 21.296875 16.464844 21.894531 16.378906 21.980469 16.59375 L 21.722656 15.824219 L 21.210938 15.652344 L 19.585938 16.59375 L 19.5 17.0625 L 19.5 18.003906 M 15.601562 19.628906 L 15.433594 17.628906 C 15.335938 16.636719 15.675781 16.808594 16.535156 16.808594 C 16.667969 16.808594 17.335938 16.964844 17.394531 17.066406 C 17.628906 17.539062 16.996094 17.433594 17.664062 17.796875 C 18.222656 18.097656 19.203125 17.609375 18.980469 16.9375 C 18.851562 16.785156 18.324219 16.890625 18.132812 16.792969 L 17.132812 16.273438 C 16.707031 16.050781 15.726562 15.730469 15.273438 16.039062 C 14.125 16.816406 15.34375 18.769531 15.753906 19.585938 "/>
<path fill-rule="evenodd" fill="rgb(13.72549%, 12.156863%, 12.54902%)" fill-opacity="1" d="M 16.734375 4.484375 C 15.570312 4.214844 14.992188 4.972656 14.636719 5.757812 C 14.320312 5.683594 14.4375 5.253906 14.535156 5.035156 C 14.738281 4.460938 15.585938 3.695312 16.273438 3.800781 C 16.570312 3.84375 16.96875 4.113281 16.746094 4.484375 M 22.414062 5.800781 L 22.46875 5.800781 C 22.730469 6.347656 22.96875 6.929688 23.289062 7.402344 C 23.066406 7.921875 21.605469 8.378906 21.628906 7.449219 C 21.945312 7.308594 22.488281 7.421875 22.769531 7.242188 C 22.609375 6.796875 22.375 6.417969 22.410156 5.789062 M 17.332031 5.824219 C 17.582031 6.28125 17.660156 6.765625 18.015625 7.109375 C 18.175781 7.265625 18.488281 7.453125 18.335938 7.890625 C 18.226562 8.054688 18.066406 8.1875 17.882812 8.265625 C 17.328125 8.429688 16.035156 8.296875 16.484375 7.605469 C 16.945312 7.625 17.558594 7.902344 17.902344 7.570312 C 17.640625 7.152344 17.171875 6.316406 17.34375 5.824219 M 22.214844 10.480469 C 21.378906 11.015625 20.445312 11.601562 19.074219 11.464844 C 18.78125 11.210938 18.671875 10.644531 18.957031 10.269531 C 19.105469 10.523438 19.011719 10.992188 19.425781 11.0625 C 20.199219 11.195312 21.105469 10.589844 21.664062 10.375 C 22.011719 9.789062 21.632812 9.574219 21.320312 9.199219 C 20.683594 8.429688 19.824219 7.472656 19.855469 6.320312 C 20.113281 6.132812 20.136719 6.605469 20.175781 6.691406 C 20.507812 7.472656 21.347656 8.472656 21.960938 9.140625 C 22.109375 9.308594 22.359375 9.464844 22.386719 9.574219 C 22.46875 9.890625 22.179688 10.269531 22.214844 10.480469 M 11.183594 9.914062 C 10.921875 9.765625 10.859375 9.105469 10.550781 9.085938 C 10.109375 9.058594 10.191406 9.941406 10.191406 10.457031 C 9.890625 10.183594 9.835938 9.335938 10.058594 8.902344 C 9.804688 8.777344 9.691406 9.039062 9.550781 9.132812 C 9.730469 7.820312 11.472656 8.53125 11.183594 9.914062 M 22.738281 11.015625 C 22.335938 11.753906 21.796875 12.570312 20.65625 12.59375 C 20.632812 12.355469 20.613281 11.992188 20.65625 11.847656 C 21.527344 11.765625 22.066406 11.320312 22.734375 11.015625 M 17.265625 11.496094 C 17.992188 11.878906 19.332031 11.917969 20.324219 11.890625 C 20.375 12.105469 20.375 12.375 20.378906 12.640625 C 19.105469 12.703125 17.601562 12.390625 17.277344 11.496094 M 17.136719 12.210938 C 17.640625 13.472656 19.371094 13.328125 20.832031 13.292969 C 20.769531 13.457031 20.628906 13.652344 20.453125 13.722656 C 19.988281 13.921875 18.695312 14.054688 18.046875 13.710938 C 17.636719 13.492188 17.371094 12.996094 17.144531 12.707031 C 17.046875 12.566406 16.492188 12.210938 17.136719 12.207031 "/>
<path fill-rule="evenodd" fill="rgb(50.588235%, 69.019608%, 76.862745%)" fill-opacity="1" d="M 22.144531 19.195312 L 20.285156 22.140625 C 20.578125 21.277344 20.707031 19.832031 20.75 18.726562 C 21.363281 18.4375 21.890625 18.792969 22.144531 19.195312 "/>
<path fill-rule="evenodd" fill="rgb(13.72549%, 12.156863%, 12.54902%)" fill-opacity="1" d="M 25.324219 22.835938 C 24.660156 22.964844 24.195312 23.609375 23.550781 23.566406 C 23.90625 23.066406 24.527344 22.867188 25.324219 22.835938 M 25.617188 23.871094 C 25.074219 23.925781 24.441406 24.015625 23.894531 23.96875 C 24.15625 23.574219 25.152344 23.710938 25.617188 23.871094 M 25.804688 24.761719 C 25.195312 24.773438 24.441406 24.761719 23.867188 24.714844 C 24.207031 24.347656 25.410156 24.578125 25.804688 24.761719 "/>
<path fill-rule="evenodd" fill="rgb(86.27451%, 85.098039%, 84.705882%)" fill-opacity="1" d="M 21.003906 27.207031 C 21.089844 27.964844 21.394531 28.738281 21.351562 29.570312 C 21.019531 29.683594 20.824219 29.785156 20.375 29.78125 L 20.277344 27.316406 C 20.496094 27.328125 20.824219 27.15625 21.003906 27.214844 "/>
<path fill-rule="evenodd" fill="rgb(94.117647%, 83.921569%, 71.764706%)" fill-opacity="1" d="M 20.027344 15.984375 C 19.722656 16.1875 19.460938 16.433594 19.171875 16.644531 C 18.523438 16.679688 18.167969 16.601562 17.691406 16.230469 C 17.699219 16.199219 17.746094 16.210938 17.75 16.175781 C 18.441406 16.484375 19.324219 16.050781 20.027344 15.984375 "/>
<path fill-rule="evenodd" fill="rgb(50.588235%, 69.019608%, 76.862745%)" fill-opacity="1" d="M 16.382812 20.714844 C 16.574219 19.890625 17.320312 19.460938 18 19.007812 C 18.699219 19.894531 19.125 21.035156 19.59375 22.140625 C 18.484375 21.804688 17.355469 21.265625 16.382812 20.714844 "/>
<path fill-rule="evenodd" fill="rgb(13.72549%, 12.156863%, 12.54902%)" fill-opacity="1" d="M 20.28125 27.316406 C 20.253906 27.992188 20.347656 29.074219 20.378906 29.78125 C 20.828125 29.785156 21.019531 29.683594 21.355469 29.574219 C 21.394531 28.738281 21.089844 27.96875 21.003906 27.207031 C 20.828125 27.160156 20.503906 27.332031 20.28125 27.308594 Z M 13.289062 23.476562 C 13.585938 26.199219 14.011719 28.476562 14.800781 30.894531 C 16.546875 31.425781 18.648438 31.472656 20.195312 30.992188 C 19.910156 29.632812 20.035156 27.976562 19.867188 26.523438 L 19.636719 23.222656 C 17.765625 22.832031 15.125 23.132812 13.289062 23.472656 Z M 20.089844 23.242188 C 20.070312 24.410156 20.140625 25.5625 20.230469 26.734375 L 21.398438 26.53125 C 21.265625 25.402344 21.28125 24.136719 21.003906 23.136719 C 20.683594 23.140625 20.40625 23.132812 20.085938 23.242188 Z M 22.363281 23.054688 C 22.152344 23.003906 21.90625 23.050781 21.699219 23.054688 L 22.101562 26.058594 C 22.421875 26.070312 22.589844 25.921875 22.855469 25.867188 C 22.867188 24.988281 22.777344 23.78125 22.355469 23.054688 Z M 25.8125 26.203125 C 26.480469 26.039062 26.898438 25.222656 26.714844 24.382812 C 26.589844 23.820312 26.363281 22.757812 26.125 22.394531 C 25.949219 22.128906 25.472656 21.777344 25.089844 22.023438 C 24.46875 22.421875 23.371094 22.535156 22.917969 23.019531 C 23.144531 23.773438 23.21875 24.8125 23.3125 25.773438 C 24.089844 25.820312 25.042969 25.558594 25.6875 25.835938 C 25.238281 25.984375 24.652344 25.984375 24.265625 26.195312 C 24.582031 26.351562 25.328125 26.320312 25.8125 26.203125 M 19.605469 22.144531 C 19.136719 21.039062 18.710938 19.898438 18.011719 19.007812 C 17.332031 19.464844 16.585938 19.890625 16.394531 20.71875 C 17.363281 21.269531 18.496094 21.808594 19.605469 22.144531 M 20.761719 18.726562 C 20.71875 19.832031 20.589844 21.277344 20.296875 22.140625 C 20.996094 21.25 21.5625 20.210938 22.15625 19.195312 C 21.902344 18.792969 21.375 18.441406 20.761719 18.726562 M 19.460938 18.261719 C 19.195312 18.230469 18.972656 18.566406 18.625 18.421875 L 18.390625 18.691406 C 19.15625 19.609375 19.492188 20.914062 20.09375 21.992188 C 20.40625 20.957031 20.371094 19.820312 20.441406 18.6875 C 20.007812 18.714844 19.765625 18.292969 19.460938 18.261719 M 18.617188 17.148438 C 18.589844 17.464844 18.664062 17.566406 18.726562 17.929688 C 19.761719 18.253906 19.578125 16.511719 18.617188 17.148438 M 17.46875 16.773438 C 16.9375 16.488281 16.367188 16.277344 15.777344 16.152344 C 15.0625 16.015625 15.132812 17.128906 15.160156 17.789062 C 15.183594 18.316406 15.457031 18.871094 15.574219 19.21875 C 15.632812 19.382812 15.644531 19.554688 15.78125 19.585938 C 16.027344 19.644531 16.839844 19.320312 17.070312 19.195312 C 17.5625 18.925781 17.9375 18.492188 18.355469 18.21875 L 18.371094 17.804688 C 18.089844 17.664062 17.78125 17.585938 17.464844 17.574219 C 17.714844 17.449219 18.078125 17.453125 18.304688 17.304688 L 18.3125 17.136719 C 17.898438 17.105469 17.742188 16.921875 17.46875 16.773438 M 13.210938 16 C 12.839844 16.375 14.246094 16.886719 14.695312 16.914062 C 14.695312 16.675781 14.832031 16.453125 14.804688 16.28125 C 14.273438 16.1875 13.570312 16.25 13.210938 16 M 17.769531 16.175781 C 17.769531 16.210938 17.71875 16.199219 17.714844 16.226562 C 18.1875 16.601562 18.542969 16.679688 19.191406 16.644531 L 20.046875 15.984375 C 19.347656 16.046875 18.464844 16.484375 17.769531 16.175781 M 21.957031 17.445312 C 21.9375 17.027344 21.824219 16.167969 21.566406 16.019531 C 21.027344 15.703125 20.0625 16.65625 19.65625 16.804688 C 19.699219 16.929688 19.773438 17.03125 19.777344 17.195312 C 20.019531 17.136719 20.3125 17.175781 20.523438 17.277344 C 20.28125 17.304688 20.023438 17.304688 19.851562 17.417969 C 19.792969 17.589844 19.867188 17.820312 19.828125 18.054688 C 20.402344 18.21875 21.058594 18.304688 21.78125 18.324219 C 21.921875 18.140625 21.972656 17.792969 21.957031 17.445312 M 12.585938 16.359375 C 12.46875 16.277344 11.683594 15.257812 11.585938 15.300781 C 10.164062 15.855469 8.832031 16.824219 7.644531 17.746094 C 8.777344 20.179688 9.234375 23.15625 9.316406 26.03125 C 10.617188 26.640625 11.757812 27.511719 13.515625 27.605469 L 13.011719 23.515625 C 12.566406 23.328125 11.933594 23.523438 11.519531 23.460938 C 11.515625 22.960938 12.152344 23.238281 12.203125 22.902344 C 12.242188 22.648438 11.855469 22.632812 11.980469 22.230469 C 12.304688 22.351562 12.476562 22.613281 12.820312 22.710938 C 13.136719 22.019531 12.816406 20.796875 12.859375 20.210938 C 12.871094 20.097656 12.914062 19.605469 13.15625 19.691406 C 13.371094 19.769531 13.144531 21.007812 13.167969 21.550781 C 13.1875 22.054688 13.109375 22.550781 13.3125 22.851562 C 15.0625 22.613281 16.820312 22.472656 18.585938 22.421875 C 18.179688 22.246094 17.699219 22.082031 17.171875 21.785156 C 16.886719 21.628906 15.984375 21.289062 15.902344 21.015625 C 15.769531 20.585938 16.246094 20.351562 16.328125 19.980469 C 15.46875 20.453125 15.300781 19.53125 15.097656 18.882812 C 14.914062 18.289062 14.808594 17.851562 14.765625 17.515625 C 14.023438 17.15625 13.230469 16.8125 12.59375 16.351562 Z M 21.203125 15.421875 C 22.390625 14.847656 22.601562 17.570312 22.136719 18.445312 C 22.210938 18.710938 22.457031 18.808594 22.558594 19.046875 L 20.488281 22.503906 C 20.988281 22.191406 21.707031 22.449219 22.289062 22.210938 C 22.503906 22.121094 22.660156 21.628906 22.824219 21.230469 C 23.273438 20.140625 23.746094 18.773438 23.957031 17.730469 C 24.003906 17.492188 24.132812 16.976562 24.105469 16.769531 C 24.050781 16.394531 23.539062 16.109375 23.28125 15.867188 L 22 14.660156 C 21.796875 14.960938 21.363281 15.160156 21.195312 15.402344 Z M 9.855469 4.90625 C 9.289062 5.53125 9.40625 6.695312 9.476562 7.523438 C 10.496094 6.882812 11.851562 7.574219 11.839844 8.664062 C 12.328125 8.652344 12.023438 8.054688 11.933594 7.671875 C 11.648438 6.417969 12.421875 5.058594 11.96875 3.910156 C 11.09375 3.976562 10.378906 4.335938 9.855469 4.90625 M 13.898438 1.300781 C 12.617188 1.660156 10.980469 2.59375 10.453125 3.738281 C 10.859375 3.679688 11.144531 3.476562 11.542969 3.441406 C 11.695312 3.429688 11.894531 3.503906 12.070312 3.460938 C 12.414062 3.375 12.710938 2.59375 12.972656 2.304688 C 13.226562 2.023438 13.535156 1.902344 13.746094 1.644531 C 13.878906 1.578125 14.078125 1.582031 14.085938 1.378906 C 14.027344 1.316406 13.96875 1.28125 13.886719 1.28125 Z M 20.554688 1.640625 C 19.226562 0.894531 16.980469 0.328125 15.566406 1.03125 C 14.429688 1.601562 12.886719 2.539062 12.363281 3.734375 C 12.851562 4.882812 12.21875 5.9375 12.175781 7.101562 C 12.15625 7.722656 12.46875 8.265625 12.492188 8.941406 C 12.324219 9.21875 11.8125 9.253906 11.457031 9.234375 C 11.335938 8.636719 11.128906 7.964844 10.511719 7.898438 C 9.644531 7.800781 9.003906 8.523438 8.964844 9.277344 C 8.917969 10.164062 9.644531 11.632812 10.675781 11.53125 C 11.074219 11.488281 11.171875 11.089844 11.605469 11.09375 C 11.84375 11.566406 11.242188 11.710938 11.183594 12.046875 C 11.167969 12.132812 11.234375 12.472656 11.269531 12.632812 C 11.457031 13.40625 11.875 14.40625 12.285156 14.996094 C 12.808594 15.742188 13.832031 15.855469 14.9375 15.929688 C 15.132812 15.503906 15.859375 15.539062 16.332031 15.652344 C 15.765625 15.425781 15.238281 14.882812 14.800781 14.402344 C 14.300781 13.847656 13.792969 13.257812 13.765625 12.535156 C 14.714844 13.847656 15.496094 14.996094 17.21875 15.574219 C 18.523438 16.011719 20.046875 15.375 21.046875 14.671875 C 21.460938 14.378906 21.710938 13.914062 22.007812 13.488281 C 23.109375 11.890625 23.625 9.628906 23.515625 7.429688 C 23.46875 6.523438 23.46875 5.621094 23.164062 5.011719 C 22.847656 4.371094 21.769531 3.800781 21.140625 4.378906 C 21.023438 3.757812 21.664062 3.375 22.414062 3.597656 C 21.878906 2.90625 21.316406 2.074219 20.554688 1.644531 Z M 23.027344 22.105469 C 24.0625 21.589844 26.003906 20.71875 26.652344 22.109375 C 26.894531 22.621094 27.175781 23.488281 27.300781 24.015625 C 27.476562 24.761719 27.097656 26.328125 26.34375 26.582031 C 25.664062 26.800781 24.875 26.789062 24.058594 26.625 C 23.945312 26.523438 23.847656 26.398438 23.78125 26.261719 C 23.195312 26.238281 22.652344 26.289062 22.191406 26.53125 C 22.234375 26.960938 21.945312 27.03125 21.671875 27.121094 C 21.46875 27.925781 22.078125 28.972656 21.933594 29.703125 C 21.828125 30.226562 21.1875 30.308594 20.714844 30.40625 C 20.699219 30.703125 20.734375 30.9375 20.769531 31.183594 C 20.660156 31.578125 20.175781 31.804688 19.71875 31.863281 C 18.210938 32.042969 15.921875 32.125 14.46875 31.601562 C 14.0625 30.609375 13.742188 29.402344 13.40625 28.265625 C 11.992188 28.417969 10.847656 27.65625 9.769531 27.15625 C 9.394531 26.984375 8.871094 26.886719 8.738281 26.589844 C 8.605469 26.304688 8.660156 25.75 8.628906 25.230469 C 8.542969 23.902344 8.46875 22.617188 8.128906 21.253906 C 7.96875 20.640625 7.695312 20.101562 7.503906 19.511719 C 7.324219 18.96875 7.015625 18.292969 6.933594 17.746094 C 6.8125 16.941406 7.574219 16.894531 8.058594 16.546875 C 8.808594 16.003906 9.398438 15.703125 10.214844 15.21875 C 10.453125 15.070312 11.183594 14.71875 11.265625 14.535156 C 11.429688 14.203125 10.984375 13.730469 10.863281 13.46875 C 10.683594 13.101562 10.578125 12.703125 10.550781 12.296875 C 9.933594 12.195312 9.386719 11.84375 9.039062 11.324219 C 8.519531 10.566406 8.160156 9.164062 8.609375 8.097656 C 8.644531 8.011719 8.808594 7.847656 8.847656 7.71875 C 8.894531 7.464844 8.75 7.125 8.742188 6.855469 C 8.695312 5.46875 8.976562 4.277344 9.910156 3.855469 C 10.289062 2.355469 11.644531 1.847656 12.921875 1.09375 C 13.398438 0.8125 13.925781 0.632812 14.46875 0.433594 C 16.421875 -0.285156 19.414062 -0.148438 21.03125 1.074219 C 21.71875 1.597656 22.816406 2.691406 23.210938 3.484375 C 24.246094 5.582031 24.171875 9.082031 23.445312 11.632812 C 23.351562 11.972656 23.207031 12.476562 23.011719 12.886719 C 22.871094 13.175781 22.445312 13.746094 22.496094 14.003906 C 22.550781 14.265625 23.472656 14.964844 23.671875 15.15625 C 24.027344 15.5 24.703125 15.957031 24.757812 16.386719 C 24.816406 16.847656 24.554688 17.480469 24.421875 17.925781 L 23.042969 22.105469 "/>
<path fill-rule="evenodd" fill="rgb(96.862745%, 89.411765%, 80.392157%)" fill-opacity="1" d="M 16.105469 11.828125 C 16.164062 11.753906 16.472656 11.640625 16.90625 11.851562 C 16.90625 11.851562 16.394531 11.9375 16.4375 12.789062 L 16.222656 12.746094 C 16.222656 12.746094 16.003906 11.972656 16.109375 11.828125 "/>
<path fill-rule="evenodd" fill="rgb(11.372549%, 9.803922%, 9.803922%)" fill-opacity="1" d="M 19.855469 19.183594 C 19.855469 19.3125 19.75 19.417969 19.621094 19.417969 C 19.492188 19.417969 19.382812 19.3125 19.382812 19.179688 C 19.382812 19.050781 19.492188 18.945312 19.621094 18.945312 C 19.75 18.945312 19.855469 19.050781 19.855469 19.183594 M 20.089844 20.28125 C 20.089844 20.410156 19.984375 20.515625 19.855469 20.515625 C 19.726562 20.515625 19.621094 20.410156 19.621094 20.28125 C 19.628906 20.15625 19.730469 20.0625 19.855469 20.0625 C 19.980469 20.0625 20.082031 20.15625 20.089844 20.28125 "/>
</svg>
