<svg role="img" viewBox="0 0 32 32" height="32" width="32" xmlns="http://www.w3.org/2000/svg"><path d="M27.297 15.422c0 6.34-5.027 11.476-11.227 11.476-6.195 0-11.218-5.136-11.218-11.476 0-6.344 5.023-11.48 11.218-11.48 6.2 0 11.227 5.136 11.227 11.48" fill="rgb(82.745098%, 21.960784%, 20%)" fill-rule="evenodd"/><path d="M5.305 18.262S4.492 6.293 15.523 5.949l-.77-1.281-5.983 2-1.704 1.965L5.57 11.5l-.851 3.336.254 2.223" fill="rgb(93.72549%, 23.921569%, 22.745098%)"/><path d="M8.387 7.59a11.215 11.215 0 0 0-3.192 7.875 11.222 11.222 0 0 0 3.192 7.87c1.965 2.017 4.683 3.259 7.683 3.259 3.004 0 5.72-1.242 7.688-3.258a11.202 11.202 0 0 0 3.187-7.871 11.228 11.228 0 0 0-3.187-7.875c-1.969-2.016-4.684-3.258-7.688-3.258-3 0-5.715 1.242-7.683 3.258m-.5 16.234a11.93 11.93 0 0 1-3.387-8.36 11.93 11.93 0 0 1 3.387-8.359c2.093-2.14 4.988-3.468 8.183-3.468 3.2.004 6.094 1.328 8.188 3.468a11.93 11.93 0 0 1 3.387 8.36 11.914 11.914 0 0 1-3.387 8.36c-2.094 2.14-4.988 3.468-8.188 3.468-3.195 0-6.09-1.328-8.183-3.469" fill="rgb(13.72549%, 12.156863%, 12.54902%)"/><path d="m20.797 15.484-1.7.258-2.312.254-1.496.043-1.453-.043-1.113-.34-.98-1.07-.77-2.18-.172-.469-1.028-.343-.597-.985-.438-1.41.473-1.238 1.11-.387.898.43.43.937.511-.086.172-.21-.172-.985-.043-1.238.258-1.703-.012-.977.782-1.246 1.367-.98 2.394-1.04 2.649.387 2.308 1.664 1.07 1.703.684 1.239.172 3.078-.512 2.648-.941 2.352-.898 1.238" fill="rgb(94.117647%, 83.921569%, 71.764706%)" fill-rule="evenodd"/><path d="m19.344 22.879-6.117.258v1.027l.515 3.59-.258.3-4.273-1.452-.3-.516-.43-4.828-.981-2.906-.215-.688 3.418-2.348 1.07-.43.942 1.157.812.727.942.3.426.125.511 2.227.387.469.98-.344-.683 1.324 3.723 1.754-.473.258" fill="rgb(20%, 31.372549%, 38.039216%)" fill-rule="evenodd"/><path d="m9.21 7.96 1.11-.386.899.43.43.937.511-.086.13-.511-.259-.985.258-2.351-.215-1.281.77-.899 1.668-1.324-.469-.64-2.352 1.152-.984.77-.555 1.198-.855 1.153-.258 1.37Zm0 0" fill="rgb(42.745098%, 41.960784%, 42.745098%)" fill-rule="evenodd"/><path d="M10.96 3.941s.642-1.582 3.208-2.351c2.566-.77.129-.555.129-.555l-2.781 1.07-1.07 1.07-.47.852Zm-1.28 3.72s-.899-2.993 2.523-3.423l-.129-.511-2.347.554-.688 2.227.172 1.453Zm0 0" fill="rgb(86.27451%, 85.098039%, 84.705882%)" fill-rule="evenodd"/><path d="m11.047 11.637.562-.543c.012.164.133.3.293.328.043.3.172 2.992 2 4.45.168.132-1.367-.216-1.367-.216l-1.367-2.136m7.738-2.696s.098-1.297.45-1.195c.347.098.347.45.347.45s-.848.546-.797.745" fill="rgb(96.862745%, 89.411765%, 80.392157%)" fill-rule="evenodd"/><path d="M22.465 6.078s-.707.149-.77.77c-.066.62.77.129.899.086M17.3 6.12s-.942.125-.942.727c0 .597 1.07.554 1.368.3" fill="rgb(96.862745%, 89.411765%, 80.392157%)"/><path d="M11.477 8.898s-1.625-.984-1.797-.043c-.168.942-.555 1.625.258 2.61l-.555-.168-.516-1.328L8.7 8.688l.98-1.028 1.114.086.64.516Zm.77-2.691s.726-3.762 4.401-4.5c3.028-.598 4.618.129 5.22.813 0 0-2.696-3.207-5.263-2.223-2.566.98-4.445 2.797-4.406 3.941l.043 1.965m9.922-3.25s-1.242-.043-1.285 1.07a.892.892 0 0 0 .086.344s.984-1.113 1.582-.512m-5.813.625s-.214-1.703-1.668-.71c-.941.636-.855 1.539-.683 1.699.172.16.125.515.254.277.129-.234.086-1.004.558-1.219.47-.215 1.239-.453 1.54-.054" fill="rgb(96.862745%, 89.411765%, 80.392157%)" fill-rule="evenodd"/><path d="m12.715 16.04-4.02 1.796s1.668 6.629.813 8.68l-.602-.215-.043-2.524L7.758 19l-.473-1.324 4.2-2.824 1.242 1.199m.402 3.652.57.7v2.562h-.683l-.086-2c0-.211.086-.98.086-.98m.129 3.367-1.926.082.554.386 1.372.215" fill="rgb(28.627451%, 44.705882%, 54.509804%)" fill-rule="evenodd"/><path d="m19.727 22.922 1.582-.043.386 3.933-1.625.215-.343-4.101m.43-.004 2.394-.125.98-2.61c0-.128.856-3.59.856-3.59l-1.922-2.011-.387-.34-1.027 1.024v3.976l-.899 3.68" fill="rgb(20%, 31.372549%, 38.039216%)" fill-rule="evenodd"/><path d="m21.223 22.625-1.496.3.214 1.196c.555.258 1.497-.43 1.497-.43m-.172-8.546 2.992 2.222.086-1.027-2.266-2.094Zm0 0" fill="rgb(28.627451%, 44.705882%, 54.509804%)" fill-rule="evenodd"/><path d="m14.629 31.348-.887-3.594-.441-2.649-.07-1.968 4.003-.211h2.493l-.227 4.5.387 3.46-.043.641-3.25.258-1.969-.43" fill="rgb(100%, 100%, 100%)" fill-rule="evenodd"/><path d="M19.172 22.879s-.215 4.45.426 7.601c0 0-1.282.813-3.164 1.028l3.59-.13.43-.257-.517-7.012-.125-1.496" fill="rgb(86.27451%, 85.098039%, 84.705882%)" fill-rule="evenodd"/><path d="m21.766 26.473 1.668-.47 3.164-.171.468-1.453-.851-2.524-.985-.128-1.367.43-1.312.64-.7-.129-.542.21" fill="rgb(100%, 100%, 100%)" fill-rule="evenodd"/><path d="M21.738 25.617s1.11-.515 1.282-.472l-.47-2.352.555-.215.387 2.48 2.606.13s.515-.985.386-2l.47 1.367.042.77-.683 1.027-.77.171-1.281-.043-.43-.558-1.496.215-.469.172" fill="rgb(86.27451%, 85.098039%, 84.705882%)" fill-rule="evenodd"/><path d="m20.055 22.578-.938-2.39-.984-1.41s.215-.602.512-.602h.984l.941.344-.086 1.582Zm0 0" fill="rgb(100%, 100%, 100%)"/><path d="M20.238 21.77s-1.195-2.31-1.195-2.649c0 0 .215-.516.512-.387.3.13.941.47.941.47v-.81l-1.453-.3-.984.129 1.668 3.933.34.043" fill="rgb(86.27451%, 85.098039%, 84.705882%)" fill-rule="evenodd"/><path d="m15.012 16.125-1.188-.129-1.11-.344v.387l.544.598 1.699.77" fill="rgb(100%, 100%, 100%)"/><path d="M13.102 16.254s1.324.555 1.75.43l.043.511-1.196-.258-.726-.511.129-.168" fill="rgb(86.27451%, 85.098039%, 84.705882%)" fill-rule="evenodd"/><path d="M21.762 18.324a8.036 8.036 0 0 1-1.953-.27c.039-.238-.036-.468.023-.636.16-.117.43-.113.672-.14a1.227 1.227 0 0 0-.746-.087c-.004-.16-.078-.261-.121-.39.406-.145 1.367-1.102 1.91-.785.258.152.367 1.011.387 1.425.02.348-.028.7-.172.883" fill="rgb(82.745098%, 21.960784%, 20%)" fill-rule="evenodd"/><path d="M21.762 18.324a8.036 8.036 0 0 1-1.953-.27c.039-.238-.036-.468.023-.636.16-.117.43-.113.672-.14a1.227 1.227 0 0 0-.746-.087c-.004-.16-.078-.261-.121-.39.406-.145 1.367-1.102 1.91-.785.258.152.367 1.011.387 1.425.02.348-.028.7-.172.883Zm0 0" fill="none" stroke="rgb(82.745098%, 21.960784%, 20%)" stroke-width=".257"/><path d="m18.293 17.137-.008.168c-.226.148-.59.144-.84.27.367.015.657.105.907.23l-.016.414c-.414.285-.793.71-1.281.976-.23.125-1.043.45-1.29.39-.14-.03-.152-.202-.206-.366-.118-.352-.391-.903-.414-1.43-.032-.66-.098-1.77.617-1.637.59.125 1.16.336 1.691.621.274.149.43.332.844.364" fill="rgb(82.745098%, 21.960784%, 20%)" fill-rule="evenodd"/><path d="m18.293 17.137-.008.168c-.226.148-.59.144-.84.27.367.015.657.105.907.23l-.016.414c-.414.285-.793.71-1.281.976-.23.125-1.043.45-1.29.39-.14-.03-.152-.202-.206-.366-.118-.352-.391-.903-.414-1.43-.032-.66-.098-1.77.617-1.637.59.125 1.16.336 1.691.621.274.149.43.332.844.364Zm0 0" fill="none" stroke="rgb(82.745098%, 21.960784%, 20%)" stroke-width=".257"/><path d="M18.703 17.93c-.062-.364-.137-.465-.105-.782.96-.64 1.14 1.102.105.782" fill="rgb(82.745098%, 21.960784%, 20%)" fill-rule="evenodd"/><path d="M18.703 17.93c-.062-.364-.137-.465-.105-.782.96-.64 1.14 1.102.105.782Zm0 0" fill="none" stroke="rgb(82.745098%, 21.960784%, 20%)" stroke-width=".257"/><path d="M20.102 18.219s-.301-.426-.086-.555c.21-.129.425 0 .554-.215.13-.215 0-.34.043-.597.043-.258.258-.301.469-.344.215-.043.813-.13.898.086l-.257-.77-.512-.172-1.625.942-.086.468v.942m-3.898 1.625-.168-2c-.098-.992.242-.82 1.101-.82.133 0 .8.156.86.257.234.473-.399.368.27.73.558.302 1.538-.187 1.315-.858-.128-.153-.656-.047-.847-.145l-1-.52c-.426-.222-1.406-.543-1.86-.234-1.148.777.07 2.73.48 3.547" fill="rgb(93.72549%, 23.921569%, 22.745098%)" fill-rule="evenodd"/><path d="M16.734 4.484c-1.164-.27-1.742.489-2.097 1.274-.317-.074-.2-.504-.102-.723.203-.574 1.05-1.34 1.738-1.234.297.043.696.312.473.683m5.668 1.317h.055c.261.547.5 1.129.82 1.601-.223.52-1.684.977-1.66.047.316-.14.86-.027 1.14-.207-.16-.445-.394-.824-.359-1.453m-5.078.035c.25.457.328.942.684 1.285.16.157.472.344.32.782-.11.164-.27.297-.453.375-.555.164-1.848.03-1.399-.66.461.019 1.075.296 1.418-.036-.261-.418-.73-1.254-.558-1.746m4.87 4.656c-.835.536-1.769 1.122-3.14.985-.293-.254-.402-.82-.117-1.195.148.253.055.722.469.793.773.132 1.68-.473 2.238-.688.348-.586-.031-.8-.344-1.176-.636-.77-1.496-1.726-1.465-2.879.258-.187.282.285.32.371.333.782 1.173 1.782 1.786 2.45.148.168.398.324.426.433.082.317-.207.696-.172.906m-11.031-.566c-.262-.148-.325-.809-.633-.828-.442-.027-.36.855-.36 1.371-.3-.273-.355-1.121-.132-1.555-.254-.125-.368.137-.508.23.18-1.312 1.922-.6 1.633.782m11.554 1.102c-.402.738-.941 1.554-2.082 1.578-.023-.239-.043-.602 0-.746.871-.082 1.41-.528 2.078-.832m-5.468.48c.726.383 2.066.422 3.058.395.051.214.051.484.055.75-1.274.062-2.777-.25-3.102-1.145m-.14.715c.504 1.262 2.234 1.117 3.695 1.082-.062.164-.203.36-.379.43-.465.199-1.758.332-2.406-.012-.41-.219-.676-.715-.902-1.004-.098-.14-.653-.496-.008-.5" fill="rgb(13.72549%, 12.156863%, 12.54902%)" fill-rule="evenodd"/><path d="m22.145 19.195-1.86 2.946c.293-.864.422-2.309.465-3.414.613-.29 1.14.066 1.395.468" fill="rgb(50.588235%, 69.019608%, 76.862745%)" fill-rule="evenodd"/><path d="M25.324 22.836c-.664.129-1.129.773-1.773.73.355-.5.976-.699 1.773-.73m.293 1.035c-.543.055-1.176.145-1.722.098.261-.395 1.257-.258 1.722-.098m.188.89c-.61.012-1.364 0-1.938-.046.34-.367 1.543-.137 1.938.047" fill="rgb(13.72549%, 12.156863%, 12.54902%)" fill-rule="evenodd"/><path d="M21.004 27.207c.086.758.39 1.531.348 2.363-.332.114-.528.215-.977.211l-.098-2.465c.22.012.547-.16.727-.101" fill="rgb(86.27451%, 85.098039%, 84.705882%)" fill-rule="evenodd"/><path d="M20.027 15.984c-.304.204-.566.45-.855.66-.649.036-1.004-.042-1.48-.414.007-.03.054-.02.058-.054.691.308 1.574-.125 2.277-.192" fill="rgb(94.117647%, 83.921569%, 71.764706%)" fill-rule="evenodd"/><path d="M16.383 20.715c.191-.824.937-1.254 1.617-1.707.7.887 1.125 2.027 1.594 3.133-1.11-.336-2.239-.875-3.211-1.426" fill="rgb(50.588235%, 69.019608%, 76.862745%)" fill-rule="evenodd"/><path d="M20.281 27.316c-.027.676.067 1.758.098 2.465.45.004.64-.097.976-.207.04-.836-.265-1.605-.351-2.367-.176-.047-.5.125-.723.102Zm-6.992-3.84c.297 2.723.723 5 1.512 7.419 1.746.53 3.847.578 5.394.097-.285-1.36-.16-3.015-.328-4.469l-.23-3.3c-1.871-.391-4.512-.09-6.348.25Zm6.8-.234c-.019 1.168.052 2.32.141 3.492l1.168-.203c-.132-1.129-.117-2.394-.394-3.394-.32.004-.598-.004-.918.105Zm2.274-.187c-.21-.051-.457-.004-.664 0l.403 3.004c.32.011.488-.137.753-.192.012-.879-.078-2.086-.5-2.812Zm3.45 3.148c.667-.164 1.085-.98.902-1.82-.125-.563-.352-1.625-.59-1.988-.176-.266-.652-.618-1.035-.372-.621.399-1.719.512-2.172.997.227.753.3 1.793.395 2.753.777.047 1.73-.214 2.375.063-.45.148-1.036.148-1.422.36.316.156 1.062.124 1.547.007m-6.208-4.058c-.468-1.106-.894-2.247-1.593-3.137-.68.457-1.426.883-1.617 1.71.968.552 2.101 1.09 3.21 1.427m1.157-3.418c-.043 1.105-.172 2.55-.465 3.414.7-.891 1.265-1.93 1.86-2.946-.255-.402-.782-.754-1.395-.468m-1.301-.465c-.266-.032-.488.304-.836.16l-.234.27c.765.917 1.101 2.222 1.703 3.3.312-1.035.277-2.172.347-3.305-.433.028-.675-.394-.98-.425m-.844-1.114c-.027.317.047.418.11.782 1.035.324.851-1.418-.11-.782m-1.148-.375a6.378 6.378 0 0 0-1.692-.62c-.714-.137-.644.976-.617 1.636.024.527.297 1.082.414 1.43.059.164.07.336.207.367.246.059 1.059-.266 1.29-.39.491-.27.866-.704 1.284-.977l.016-.414a2.207 2.207 0 0 0-.906-.23c.25-.126.613-.122.84-.27l.008-.168c-.415-.032-.57-.215-.844-.364M13.21 16c-.371.375 1.035.887 1.484.914 0-.238.137-.46.11-.633-.532-.093-1.235-.031-1.594-.281m4.559.176c0 .035-.051.023-.055.05.473.376.828.454 1.476.419l.856-.66c-.7.062-1.582.5-2.277.19m4.187 1.27c-.02-.418-.133-1.277-.39-1.425-.54-.317-1.505.636-1.91.785.042.125.116.226.12.39.243-.058.535-.02.746.082-.242.028-.5.028-.671.141-.059.172.015.402-.024.637.574.164 1.23.25 1.953.27.14-.184.192-.532.176-.88m-9.371-1.086c-.117-.082-.902-1.101-1-1.058-1.422.554-2.754 1.523-3.941 2.445 1.132 2.434 1.59 5.41 1.671 8.285 1.301.61 2.442 1.48 4.2 1.574l-.504-4.09c-.446-.187-1.078.008-1.492-.054-.004-.5.632-.223.683-.559.04-.254-.348-.27-.223-.672.325.122.497.383.84.48.317-.69-.004-1.913.04-2.5.011-.112.054-.605.296-.519.215.079-.011 1.317.012 1.86.02.504-.059 1 .145 1.3a49.63 49.63 0 0 1 5.273-.43c-.406-.175-.887-.339-1.414-.636-.285-.156-1.188-.496-1.27-.77-.132-.43.344-.663.426-1.035-.86.473-1.027-.449-1.23-1.097-.184-.594-.29-1.031-.332-1.367-.743-.36-1.536-.703-2.172-1.164Zm8.617-.937c1.188-.574 1.399 2.148.934 3.023.074.266.32.364.422.602l-2.07 3.457c.5-.313 1.218-.055 1.8-.293.215-.09.371-.582.535-.98.45-1.09.922-2.458 1.133-3.5.047-.239.176-.754.148-.961-.054-.375-.566-.66-.824-.903L22 14.66c-.203.3-.637.5-.805.742ZM9.855 4.906c-.566.625-.449 1.79-.378 2.617 1.02-.64 2.375.051 2.363 1.141.488-.012.183-.61.094-.992-.286-1.254.488-2.613.035-3.762-.875.067-1.59.426-2.114.996m4.043-3.605c-1.28.36-2.918 1.293-3.445 2.437.406-.058.692-.261 1.09-.297.152-.011.352.063.527.02.344-.086.64-.867.903-1.156.254-.282.562-.403.773-.66.133-.067.332-.063.34-.266-.059-.063-.117-.098-.2-.098Zm6.657.34C19.227.895 16.98.328 15.566 1.03c-1.136.57-2.68 1.508-3.203 2.703.489 1.149-.144 2.204-.187 3.368-.02.62.293 1.164.316 1.84-.168.277-.68.312-1.035.292-.121-.597-.328-1.27-.945-1.336-.867-.097-1.508.625-1.547 1.38-.047.886.68 2.355 1.71 2.253.4-.043.497-.441.93-.437.239.472-.363.617-.421.953-.016.086.05.426.086.586.187.773.605 1.773 1.015 2.363.524.746 1.547.86 2.653.934.195-.426.921-.39 1.394-.278-.566-.226-1.094-.77-1.531-1.25-.5-.554-1.008-1.144-1.035-1.867.949 1.313 1.73 2.461 3.453 3.04 1.304.437 2.828-.2 3.828-.903.414-.293.664-.758.96-1.184 1.102-1.597 1.618-3.86 1.509-6.058-.047-.907-.047-1.809-.352-2.418-.316-.64-1.394-1.211-2.023-.633-.118-.621.523-1.004 1.273-.781-.535-.692-1.098-1.524-1.86-1.953Zm2.472 20.464c1.035-.515 2.977-1.386 3.625.004.243.512.524 1.38.649 1.907.176.746-.203 2.312-.957 2.566-.68.219-1.469.207-2.285.043a1.2 1.2 0 0 1-.278-.363c-.586-.024-1.129.027-1.59.27.043.429-.246.5-.52.59-.202.804.407 1.85.263 2.581-.106.524-.747.606-1.22.703-.015.297.02.532.056.778-.11.394-.594.62-1.051.68-1.508.179-3.797.261-5.25-.262-.406-.993-.727-2.2-1.063-3.336-1.414.152-2.558-.61-3.636-1.11-.375-.172-.899-.27-1.032-.566-.133-.285-.078-.84-.11-1.36-.085-1.328-.16-2.613-.5-3.976-.16-.613-.433-1.152-.624-1.742-.18-.543-.488-1.219-.57-1.766-.122-.805.64-.851 1.125-1.2.75-.542 1.34-.843 2.156-1.327.238-.149.969-.5 1.05-.684.165-.332-.28-.805-.402-1.066a3.147 3.147 0 0 1-.312-1.172 2.259 2.259 0 0 1-1.512-.973c-.52-.758-.879-2.16-.43-3.226.036-.086.2-.25.239-.38.047-.253-.098-.593-.106-.863-.047-1.386.235-2.578 1.168-3 .38-1.5 1.735-2.007 3.012-2.761.476-.282 1.004-.461 1.547-.66 1.953-.72 4.945-.582 6.562.64.688.524 1.785 1.617 2.18 2.41 1.035 2.098.96 5.598.234 8.149-.093.34-.238.844-.433 1.254-.14.289-.567.86-.516 1.117.055.262.977.96 1.176 1.152.355.344 1.031.801 1.086 1.23.058.462-.203 1.094-.336 1.54l-1.379 4.18" fill="rgb(13.72549%, 12.156863%, 12.54902%)" fill-rule="evenodd"/><path d="M16.105 11.828c.06-.074.368-.187.801.024 0 0-.511.085-.468.937l-.215-.043s-.22-.773-.114-.918" fill="rgb(96.862745%, 89.411765%, 80.392157%)" fill-rule="evenodd"/><path d="M19.855 19.184a.235.235 0 0 1-.234.234.24.24 0 0 1-.238-.238.236.236 0 1 1 .473.004m.234 1.097a.235.235 0 0 1-.235.235.235.235 0 0 1-.234-.235.232.232 0 0 1 .234-.218c.125 0 .227.093.235.218" fill="rgb(11.372549%, 9.803922%, 9.803922%)" fill-rule="evenodd"/></svg>