<svg role="img" viewBox="0 0 31.179 32" height="32" width="31.179" xmlns="http://www.w3.org/2000/svg"><defs><linearGradient gradientTransform="matrix(10.38281 0 0 15.95703 15.383 15.918)" gradientUnits="userSpaceOnUse" id="182__180__85__83__jira-lp-1" x1=".087" x2=".721" y1="-.327" y2=".086"><stop offset=".18" stop-color="rgb(0%, 32.156863%, 80%)"/><stop offset="1" stop-color="rgb(14.901961%, 51.764706%, 100%)"/></linearGradient></defs><path d="M30.48 15.055 15.426 0 .37 15.055a1.285 1.285 0 0 0 0 1.808l15.055 15.055L30.48 16.863a1.292 1.292 0 0 0 0-1.808m-15.097 5.62-4.715-4.718 4.715-4.715 4.719 4.715Zm0 0" fill="rgb(14.901961%, 51.764706%, 100%)"/><path d="M15.383 11.242c-3.074-3.078-3.117-8.082-.04-11.199L5.004 10.379 10.626 16Zm0 0" fill="url(#183__181__84__82__linear-pattern-0)"/><path d="m20.102 15.918-4.72 4.719a7.965 7.965 0 0 1 2.34 5.62 7.9 7.9 0 0 1-2.34 5.618l10.384-10.379Zm0 0" fill="url(#182__180__85__83__linear-pattern-1)"/></svg>