<?xml version="1.0" encoding="UTF-8"?>
<svg xmlns="http://www.w3.org/2000/svg" xmlns:xlink="http://www.w3.org/1999/xlink" width="32" height="32" viewBox="0 0 32 32">
<path fill-rule="nonzero" fill="rgb(14.901961%, 51.764706%, 100%)" fill-opacity="1" d="M 16 21.226562 L 10.773438 16 L 16 10.773438 L 16 0 L 1.078125 14.921875 C 0.484375 15.519531 0.484375 16.480469 1.078125 17.078125 L 16 32 C 16 32 18.285156 30.476562 18.285156 26.667969 C 18.167969 24.644531 17.359375 22.726562 16 21.226562 Z M 16 21.226562 "/>
<path fill-rule="nonzero" fill="rgb(11.372549%, 47.058824%, 94.901961%)" fill-opacity="1" d="M 11.589844 14.984375 L 11.691406 15.085938 L 16 10.773438 L 16 0 L 7.921875 8.078125 C 8.53125 10.65625 9.792969 13.035156 11.589844 14.984375 Z M 11.589844 14.984375 "/>
<path fill-rule="nonzero" fill="rgb(7.058824%, 41.568627%, 89.803922%)" fill-opacity="1" d="M 12.695312 13.929688 L 12.769531 14.007812 L 16 10.777344 L 16 0 L 9.246094 6.753906 C 9.667969 9.433594 10.867188 11.925781 12.695312 13.929688 Z M 12.695312 13.929688 "/>
<path fill-rule="nonzero" fill="rgb(4.313725%, 37.647059%, 85.490196%)" fill-opacity="1" d="M 16 10.773438 L 16 0 L 10.667969 5.332031 C 10.785156 8.164062 11.910156 10.859375 13.84375 12.929688 Z M 16 10.773438 "/>
<path fill-rule="nonzero" fill="rgb(0.392157%, 32.941176%, 80.784314%)" fill-opacity="1" d="M 12.191406 5.332031 C 12.191406 8.949219 14.785156 11.710938 14.921875 11.851562 L 16 10.773438 L 16 0 L 12.328125 3.675781 C 12.234375 4.222656 12.191406 4.777344 12.191406 5.332031 Z M 12.191406 5.332031 "/>
<path fill-rule="nonzero" fill="rgb(14.117647%, 50.980392%, 99.215686%)" fill-opacity="1" d="M 16 10.773438 L 21.226562 16 L 16 21.226562 L 16 32 L 30.921875 17.078125 C 31.515625 16.480469 31.515625 15.519531 30.921875 14.921875 L 16 0 C 16 0 13.714844 1.523438 13.714844 5.332031 C 13.832031 7.355469 14.640625 9.273438 16 10.773438 Z M 16 10.773438 "/>
<path fill-rule="nonzero" fill="rgb(11.372549%, 47.058824%, 94.901961%)" fill-opacity="1" d="M 20.410156 17.015625 L 20.308594 16.914062 L 16 21.226562 L 16 32 L 24.078125 23.921875 C 23.46875 21.34375 22.207031 18.964844 20.410156 17.015625 Z M 20.410156 17.015625 "/>
<path fill-rule="nonzero" fill="rgb(7.058824%, 41.568627%, 89.803922%)" fill-opacity="1" d="M 19.304688 18.070312 L 19.230469 17.992188 L 16 21.222656 L 16 32 L 22.753906 25.246094 C 22.332031 22.566406 21.132812 20.074219 19.304688 18.070312 Z M 19.304688 18.070312 "/>
<path fill-rule="nonzero" fill="rgb(4.313725%, 37.647059%, 85.490196%)" fill-opacity="1" d="M 16 21.226562 L 16 32 L 21.332031 26.667969 C 21.21875 23.835938 20.089844 21.140625 18.15625 19.070312 Z M 16 21.226562 "/>
<path fill-rule="nonzero" fill="rgb(0.392157%, 32.941176%, 80.784314%)" fill-opacity="1" d="M 19.808594 26.667969 C 19.808594 23.050781 17.214844 20.289062 17.078125 20.148438 L 16 21.226562 L 16 32 L 19.675781 28.324219 C 19.765625 27.777344 19.808594 27.222656 19.808594 26.667969 Z M 19.808594 26.667969 "/>
<path fill-rule="nonzero" fill="rgb(14.901961%, 51.764706%, 100%)" fill-opacity="1" d="M 16 21.226562 L 10.773438 16 L 2.285156 16 L 2.285156 18.285156 L 16 32 C 16 32 18.285156 30.476562 18.285156 26.667969 C 18.167969 24.644531 17.359375 22.726562 16 21.226562 Z M 16 21.226562 "/>
</svg>
