<?xml version="1.0" encoding="UTF-8"?>
<svg xmlns="http://www.w3.org/2000/svg" xmlns:xlink="http://www.w3.org/1999/xlink" width="32" height="32" viewBox="0 0 32 32">
<path fill-rule="nonzero" fill="rgb(100%, 83.921569%, 0%)" fill-opacity="1" d="M 4 28 L 4 4 L 28 4 L 28 28 Z M 4 28 "/>
<path fill-rule="nonzero" fill="rgb(0%, 0%, 0.392157%)" fill-opacity="1" d="M 19.691406 21.964844 C 20.152344 22.714844 20.65625 23.433594 21.714844 23.433594 C 22.609375 23.433594 23.078125 22.988281 23.078125 22.375 C 23.078125 21.640625 22.59375 21.378906 21.613281 20.953125 L 21.074219 20.722656 C 19.519531 20.066406 18.488281 19.238281 18.488281 17.496094 C 18.488281 15.890625 19.71875 14.667969 21.640625 14.667969 C 23.007812 14.667969 23.992188 15.140625 24.703125 16.382812 L 23.023438 17.453125 C 22.65625 16.796875 22.257812 16.535156 21.640625 16.535156 C 21.007812 16.535156 20.609375 16.933594 20.609375 17.453125 C 20.609375 18.097656 21.011719 18.355469 21.933594 18.753906 L 22.472656 18.984375 C 24.300781 19.761719 25.332031 20.558594 25.332031 22.347656 C 25.332031 24.277344 23.8125 25.332031 21.765625 25.332031 C 19.765625 25.332031 18.632812 24.328125 18 23.089844 Z M 11.96875 22.019531 C 12.304688 22.625 12.816406 23.089844 13.554688 23.089844 C 14.261719 23.089844 14.667969 22.808594 14.667969 21.726562 L 14.667969 14.667969 L 16.886719 14.667969 L 16.886719 22.066406 C 16.886719 24.3125 15.585938 25.332031 13.683594 25.332031 C 11.96875 25.332031 10.726562 24.167969 10.222656 23.089844 Z M 11.96875 22.019531 "/>
</svg>
