<svg role="img" viewBox="0 0 32 32" height="32" width="32" xmlns="http://www.w3.org/2000/svg"><path d="M.52 2.559a.642.642 0 0 0-.52.64v25.602c0 .351.29.64.64.64h30.72c.35 0 .64-.289.64-.64V3.199c0-.351-.29-.64-.64-.64Zm.761 1.28H30.72V28.16H1.28Zm24.957 3.962a.62.62 0 0 0-.457.277l-1.422 2-1.12-.86a.641.641 0 0 0-.778 1.02l1.66 1.282a.636.636 0 0 0 .918-.14l1.781-2.56a.641.641 0 0 0-.582-1.02M5.762 8.96v1.278h12.797V8.961Zm20.476 5.24a.613.613 0 0 0-.457.28l-1.422 2-1.12-.859a.641.641 0 0 0-.778 1.02l1.66 1.28c.14.106.313.153.488.126a.617.617 0 0 0 .43-.266l1.781-2.562a.626.626 0 0 0 .043-.7.637.637 0 0 0-.625-.32M5.762 15.36v1.282h12.797V15.36Zm20.476 5.243a.62.62 0 0 0-.457.277l-1.422 2-1.12-.86a.641.641 0 0 0-.778 1.02l1.66 1.281c.137.11.317.157.488.13a.61.61 0 0 0 .43-.27l1.781-2.559a.626.626 0 0 0 .043-.7.637.637 0 0 0-.625-.32m-20.476 1.16v1.278h12.797v-1.277Zm0 0"/></svg>