<?xml version="1.0" encoding="UTF-8"?>
<svg xmlns="http://www.w3.org/2000/svg" xmlns:xlink="http://www.w3.org/1999/xlink" width="32" height="32" viewBox="0 0 32 32">
<path fill-rule="nonzero" fill="rgb(32.941176%, 43.137255%, 47.843137%)" fill-opacity="1" d="M 14.605469 21.179688 L 16.339844 19.367188 L 18.070312 21.179688 L 18.070312 28.667969 L 14.605469 28.667969 Z M 14.605469 21.179688 "/>
<path fill-rule="nonzero" fill="rgb(96.078431%, 0%, 34.117647%)" fill-opacity="1" d="M 11.824219 19.371094 L 14.292969 18.921875 L 14.628906 21.410156 L 10.230469 27.464844 L 7.425781 25.425781 Z M 11.824219 19.371094 "/>
<path fill-rule="nonzero" fill="rgb(83.529412%, 0%, 97.647059%)" fill-opacity="1" d="M 10.640625 16.273438 L 12.902344 17.359375 L 11.710938 19.570312 L 4.59375 21.882812 L 3.523438 18.585938 Z M 10.640625 16.273438 "/>
<path fill-rule="nonzero" fill="rgb(16.078431%, 71.372549%, 96.470588%)" fill-opacity="1" d="M 11.503906 13.070312 L 12.695312 15.28125 L 10.433594 16.371094 L 3.3125 14.054688 L 4.382812 10.757812 Z M 11.503906 13.070312 "/>
<path fill-rule="nonzero" fill="rgb(0%, 89.803922%, 100%)" fill-opacity="1" d="M 14.085938 10.988281 L 13.75 13.476562 L 11.277344 13.027344 L 6.878906 6.96875 L 9.683594 4.933594 Z M 14.085938 10.988281 "/>
<path fill-rule="nonzero" fill="rgb(32.941176%, 43.137255%, 47.843137%)" fill-opacity="1" d="M 17.394531 10.820312 L 15.660156 12.632812 L 13.929688 10.820312 L 13.929688 3.332031 L 17.394531 3.332031 Z M 17.394531 10.820312 "/>
<path fill-rule="nonzero" fill="rgb(96.078431%, 0%, 34.117647%)" fill-opacity="1" d="M 20.175781 12.628906 L 17.707031 13.078125 L 17.371094 10.589844 L 21.769531 4.535156 L 24.574219 6.574219 Z M 20.175781 12.628906 "/>
<path fill-rule="nonzero" fill="rgb(83.529412%, 0%, 97.647059%)" fill-opacity="1" d="M 21.359375 15.726562 L 19.097656 14.636719 L 20.289062 12.429688 L 27.40625 10.117188 L 28.476562 13.414062 Z M 21.359375 15.726562 "/>
<path fill-rule="nonzero" fill="rgb(16.078431%, 71.372549%, 96.470588%)" fill-opacity="1" d="M 20.496094 18.929688 L 19.304688 16.71875 L 21.566406 15.632812 L 28.6875 17.945312 L 27.617188 21.242188 Z M 20.496094 18.929688 "/>
<path fill-rule="nonzero" fill="rgb(0%, 89.803922%, 100%)" fill-opacity="1" d="M 17.914062 21.011719 L 18.253906 18.523438 L 20.722656 18.972656 L 25.121094 25.03125 L 22.316406 27.066406 Z M 17.914062 21.011719 "/>
</svg>
