<svg role="img" viewBox="0 0 39.074 32" height="32" width="39.074" xmlns="http://www.w3.org/2000/svg"><path d="M34.938 0H4.137A4.151 4.151 0 0 0 0 4.137v23.726A4.151 4.151 0 0 0 4.137 32h30.8a4.151 4.151 0 0 0 4.137-4.137V4.137A4.151 4.151 0 0 0 34.938 0M16.512 23.27l-7.52 4.367a2.009 2.009 0 0 1-2.055.054 2.007 2.007 0 0 1-1.03-1.777 2.025 2.025 0 0 1 1.066-1.754l7.515-4.367a2.019 2.019 0 0 1 2.016-.012 2.019 2.019 0 0 1 1.016 1.742c0 .72-.383 1.387-1.008 1.747m2.957-6.657h-.012a2.013 2.013 0 0 1-2-2.02l.035-8.66a2.02 2.02 0 0 1 2.012-2.003h.012a2.014 2.014 0 0 1 2 2.023l-.036 8.66a2.014 2.014 0 0 1-2.011 2m13.3 10.293a2.016 2.016 0 0 1-2.75.735l-7.527-4.348a2.007 2.007 0 0 1-.722-2.738 2.01 2.01 0 0 1 2.734-.746l7.527 4.347c.461.266.801.707.938 1.223.14.516.07 1.062-.2 1.527" fill="rgb(100%, 77.647059%, 10.980392%)"/></svg>