<?xml version="1.0" encoding="UTF-8"?>
<svg xmlns="http://www.w3.org/2000/svg" xmlns:xlink="http://www.w3.org/1999/xlink" width="39.074001" height="32" viewBox="0 0 39.074001 32">
<path fill-rule="nonzero" fill="rgb(100%, 77.647059%, 10.980392%)" fill-opacity="1" d="M 34.9375 0 L 4.136719 0 C 1.855469 0.0078125 0.0078125 1.855469 0 4.136719 L 0 27.863281 C 0.0078125 30.144531 1.855469 31.992188 4.136719 32 L 34.9375 32 C 37.21875 31.992188 39.066406 30.144531 39.074219 27.863281 L 39.074219 4.136719 C 39.066406 1.855469 37.21875 0.0078125 34.9375 0 M 16.511719 23.269531 L 8.992188 27.636719 C 8.367188 28.03125 7.578125 28.050781 6.9375 27.691406 C 6.292969 27.332031 5.898438 26.652344 5.90625 25.914062 C 5.917969 25.179688 6.324219 24.507812 6.972656 24.160156 L 14.488281 19.792969 C 15.109375 19.429688 15.878906 19.425781 16.503906 19.78125 C 17.128906 20.140625 17.515625 20.800781 17.519531 21.523438 C 17.519531 22.242188 17.136719 22.910156 16.511719 23.269531 M 19.46875 16.613281 L 19.457031 16.613281 C 18.347656 16.605469 17.453125 15.703125 17.457031 14.59375 L 17.492188 5.933594 C 17.5 4.828125 18.398438 3.933594 19.503906 3.929688 L 19.515625 3.929688 C 20.625 3.9375 21.519531 4.84375 21.515625 5.953125 L 21.480469 14.613281 C 21.472656 15.71875 20.574219 16.613281 19.46875 16.613281 M 32.769531 26.90625 C 32.210938 27.867188 30.980469 28.195312 30.019531 27.640625 L 22.492188 23.292969 C 21.539062 22.734375 21.214844 21.511719 21.769531 20.554688 C 22.320312 19.597656 23.542969 19.261719 24.503906 19.808594 L 32.03125 24.15625 C 32.492188 24.421875 32.832031 24.863281 32.96875 25.378906 C 33.109375 25.894531 33.039062 26.441406 32.769531 26.90625 "/>
</svg>
