<svg role="img" viewBox="0 0 32 32" xmlns="http://www.w3.org/2000/svg"><path d="M31.578 30.668H.668L10.957 8.715l6.2 4.558L25.241.668Zm-11.332-4.742h.067c.765 0 1.5-.293 2.05-.824.57-.52.89-1.258.883-2.032a2.47 2.47 0 0 0-.851-1.945 2.6 2.6 0 0 0-1.766-.762h-.05a1 1 0 0 0-.255.035l1.633-2.421-1.3-.91-.618.91-1.57 2.398q-.336.487-.637.992-.218.388-.375.805a2.5 2.5 0 0 0-.176.926 2.68 2.68 0 0 0 .867 2.007 2.9 2.9 0 0 0 2.036.825Zm-6.91-2.61 1.8 2.547h1.927l-2.122-2.957 1.883-2.613-1.25-.863-.55.726-1.692 2.387v-4.797l-1.687-1.375v9.492h1.687v-2.55Zm6.91 1.02a1.24 1.24 0 0 1-1.191-1.242 1.24 1.24 0 0 1 1.191-1.242h.012c.332.003.648.136.875.375.238.222.375.53.375.859a1.26 1.26 0 0 1-1.262 1.246Zm0 0" fill="rgb(49.019608%, 39.215687%, 100%)"/></svg>