<svg role="img" viewBox="0 0 32.978 32" height="32" width="32.978" xmlns="http://www.w3.org/2000/svg"><path d="M16.379.848a2.238 2.238 0 0 0-.793.199L4.723 6.238a2.06 2.06 0 0 0-1.121 1.399L.922 19.293c-.14.61.004 1.254.398 1.742l7.52 9.348c.394.488.992.773 1.62.773l12.056-.004c.632 0 1.23-.28 1.625-.773l7.515-9.348a2.042 2.042 0 0 0 .403-1.742L29.375 7.633a2.055 2.055 0 0 0-1.125-1.399L17.387 1.047a2.082 2.082 0 0 0-1.008-.2m0 0" fill="rgb(19.607843%, 42.352941%, 89.803922%)"/><path d="M16.375.004a2.22 2.22 0 0 0-.84.21L4.07 5.696a2.171 2.171 0 0 0-1.187 1.473L.055 19.473a2.164 2.164 0 0 0 .297 1.668c.039.062.082.117.125.172l7.937 9.87a2.21 2.21 0 0 0 1.715.817l12.723-.004c.668 0 1.3-.3 1.714-.816l7.934-9.867c.414-.516.57-1.196.422-1.84L30.09 7.164a2.187 2.187 0 0 0-1.184-1.473L17.438.215a2.216 2.216 0 0 0-1.063-.211m.004.844c.348-.02.695.05 1.008.199L28.25 6.234c.566.274.98.786 1.125 1.399l2.684 11.656a2.042 2.042 0 0 1-.403 1.742l-7.515 9.348a2.065 2.065 0 0 1-1.625.773l-12.055.004c-.633 0-1.23-.285-1.621-.773l-7.52-9.348a2.043 2.043 0 0 1-.398-1.742l2.68-11.656a2.06 2.06 0 0 1 1.12-1.399l10.864-5.191c.246-.117.52-.188.793-.2m0 0" fill="rgb(100%, 100%, 100%)"/><path d="M14.473 6.832 7.547 8.84l6.926 2.012 2.058-.598a5.24 5.24 0 0 1 3.567-1.414c.332 0 .656.035.972.094l.332-.094ZM7.547 9.609v7.371l5.766 3.196V17.91c0-.683.277-1.25.703-1.707l.015-4.664Zm8.098 1.711-.73.22.007 1.651c.121-.664.363-1.3.723-1.87m4.453 1.952a.8.8 0 0 0-.594.235.79.79 0 0 0-.238.594v.832h1.66v-.832a.8.8 0 0 0-.828-.828m0 0" fill="rgb(100%, 100%, 100%)" fill-rule="evenodd"/><path d="M20.102 9.945a3.811 3.811 0 0 0-3.809 3.809v2.285c-.836 0-1.523.684-1.523 1.52v6.093c0 .84.687 1.516 1.523 1.516h7.617c.836 0 1.524-.676 1.524-1.516V17.56c0-.836-.688-1.52-1.524-1.52v-2.285a3.816 3.816 0 0 0-3.808-3.809m0 1.524a2.286 2.286 0 0 1 2.285 2.285v2.285h-4.57v-2.285a2.3 2.3 0 0 1 2.285-2.285m0 0" fill="rgb(100%, 100%, 100%)"/></svg>