<svg role="img" viewBox="0 0 32.978 32" xmlns="http://www.w3.org/2000/svg"><path d="M16.379.848a2.1 2.1 0 0 0-.793.199L4.723 6.238a2.06 2.06 0 0 0-1.121 1.399L.922 19.293c-.14.61.004 1.254.398 1.742l7.52 9.348c.394.488.992.773 1.62.773l12.056-.004c.632 0 1.23-.28 1.625-.773l7.515-9.348a2.04 2.04 0 0 0 .403-1.742L29.375 7.633a2.06 2.06 0 0 0-1.125-1.399L17.387 1.047a2.1 2.1 0 0 0-1.008-.2m0 0" fill="rgb(19.607843%, 42.352942%, 89.803922%)"/><path d="M16.375.004a2.2 2.2 0 0 0-.84.21L4.07 5.696a2.17 2.17 0 0 0-1.187 1.473L.055 19.473a2.16 2.16 0 0 0 .297 1.668q.06.091.125.172l7.937 9.87a2.21 2.21 0 0 0 1.715.817l12.723-.004c.668 0 1.3-.3 1.714-.816l7.934-9.867c.414-.516.57-1.196.422-1.84L30.09 7.164a2.19 2.19 0 0 0-1.184-1.473L17.438.215a2.2 2.2 0 0 0-1.063-.211m.004.844c.348-.02.695.05 1.008.199L28.25 6.234c.566.274.98.786 1.125 1.399l2.684 11.656a2.04 2.04 0 0 1-.403 1.742l-7.515 9.348a2.07 2.07 0 0 1-1.625.773l-12.055.004c-.633 0-1.23-.285-1.621-.773l-7.52-9.348a2.04 2.04 0 0 1-.398-1.742l2.68-11.656a2.06 2.06 0 0 1 1.12-1.399l10.864-5.191c.246-.117.52-.188.793-.2m.887 15.712a.9.9 0 0 1-.274.652.9.9 0 0 1-.652.266.92.92 0 0 1-.832-.446.93.93 0 0 1 0-.945.92.92 0 0 1 .832-.445c.512 0 .926.41.926.918m-.774-7.446-5.683 2.512v3.75c0 3.477 2.421 6.723 5.683 7.512 3.254-.79 5.68-4.035 5.68-7.512v-3.75Zm3.008 10.09h-6.02v-5.055h.864v-.55c0-1.192.972-2.157 2.176-2.157 1.199 0 2.171.965 2.171 2.157v.55h.809Zm-3.05-6.96a1.3 1.3 0 0 0-1.305 1.296v.54h2.609v-.552a1.303 1.303 0 0 0-1.305-1.285m0 0" fill="rgb(100%, 100%, 100%)"/></svg>