<svg role="img" viewBox="0 0 32.978 32" xmlns="http://www.w3.org/2000/svg"><path d="M16.379.848a2.1 2.1 0 0 0-.793.199L4.723 6.238a2.06 2.06 0 0 0-1.121 1.399L.922 19.293c-.14.61.004 1.254.398 1.742l7.52 9.348c.394.488.992.773 1.62.773l12.056-.004c.632 0 1.23-.28 1.625-.773l7.515-9.348a2.04 2.04 0 0 0 .403-1.742L29.375 7.633a2.06 2.06 0 0 0-1.125-1.399L17.387 1.047a2.1 2.1 0 0 0-1.008-.2m0 0" fill="rgb(19.607843%, 42.352942%, 89.803922%)"/><path d="M16.375.004a2.2 2.2 0 0 0-.84.21L4.07 5.696a2.17 2.17 0 0 0-1.187 1.473L.055 19.473a2.16 2.16 0 0 0 .297 1.668q.06.091.125.172l7.937 9.87a2.21 2.21 0 0 0 1.715.817l12.723-.004c.668 0 1.3-.3 1.714-.816l7.934-9.867c.414-.516.57-1.196.422-1.84L30.09 7.164a2.19 2.19 0 0 0-1.184-1.473L17.438.215a2.2 2.2 0 0 0-1.063-.211m.004.844c.348-.02.695.05 1.008.199L28.25 6.234c.566.274.98.786 1.125 1.399l2.684 11.656a2.04 2.04 0 0 1-.403 1.742l-7.515 9.348a2.07 2.07 0 0 1-1.625.773l-12.055.004c-.633 0-1.23-.285-1.621-.773l-7.52-9.348a2.04 2.04 0 0 1-.398-1.742l2.68-11.656a2.06 2.06 0 0 1 1.12-1.399l10.864-5.191c.246-.117.52-.188.793-.2m0 0" fill="rgb(100%, 100%, 100%)"/><path d="M17.332 14.066h6.781" fill="none" stroke="rgb(100%, 100%, 100%)" stroke-linejoin="round" stroke-miterlimit="10" stroke-width="1.451"/><path d="M13.46 10.195h10.653" fill="none" stroke="rgb(100%, 100%, 100%)" stroke-linejoin="round" stroke-miterlimit="10" stroke-width="1.452"/><path d="M8.863 10.195h2.668" fill="none" stroke="rgb(100%, 100%, 100%)" stroke-linejoin="round" stroke-miterlimit="10" stroke-width="1.451"/><path d="M12.402 14.688c0-2.133 1.848-3.864 4.13-3.864 2.28 0 4.128 1.73 4.128 3.864h-1.926c0-1.067-.984-1.93-2.199-1.93s-2.195.863-2.195 1.93Zm-.004 0h0m0 0h.004m-.004 0h.004m0 0h0m0 0h0m0 0h0m0 0h0m0 0h0m0 0h0m-.004 0h.004m0 0h0m0 0h0m0 0h0m0 0h0m0 0h0m0 0h0m-.004 0h.004m0 0h0m0 0h0m0 0h0m0 0h0m0 0h0m0 0h0m-.004 0h0m0 0h.004m-.004 0h.004m0 0h0m0 0h0m0 0h0m0 0h0m0 0h0m0 0h0m-.004 0h.004m0 0h0m0 0h0m0 0h0m0 0h0m0 0h0m0 0h0m0 0h.004m-.008 0h0m0 0h.004m-.004 0h.004m0 0h0m0 0h0m0 0h0m0 0h0m0 0h0m0 0h0m-.004 0h.004m0 0h0m0 0h0m0 0h0m0 0h0m0 0h0m0 0h0m-.004 0h.004m0 0h0m0 0h0m0 0h0m0 0h0m0 0h0m0 0h0m-.004 0h0m0 0h.004m-.004 0h.004m0 0h0m0 0h0m0 0h0m0 0h0m0 0h0m0 0h0m-.004 0h.004m0 0h0m0 0h0m0 0h0m0 0h0m0 0h0m0 0h0m-.004 0h.004m0 0h0m0 0h0m0 0h0m0 0h0m0 0h0m0 0" fill="rgb(100%, 100%, 100%)" fill-rule="evenodd" stroke="rgb(19.607843%, 42.352942%, 89.803922%)" stroke-linecap="square" stroke-miterlimit="10" stroke-width=".484"/><path d="M17.332 17.934h6.781m-10.652 3.87h10.652m-15.25 0h2.668" fill="none" stroke="rgb(100%, 100%, 100%)" stroke-linejoin="round" stroke-miterlimit="10" stroke-width="1.451"/><path d="M11.387 14.574h10.27v6.688h-10.27Zm-.004 0h.004m-.004 0h.008m-.004 0h0m0 0h0m0 0h0m0 0h0m0 0h0m0 0h0m0 0h0m0 0h0m0 0h0m0 0h0m0 0h0m0 0h0m0 0h0m0 0h0m-.004 0h.004m-.004 0h.008m-.004 0h0m0 0h0m0 0h0m0 0h0m0 0h0m0 0h0m0 0h0m0 0h0m0 0h.004m-.008 0h.004m-.004 0h.008m-.004 0h0m0 0h0m0 0h0m0 0h0m0 0h0m0 0h0m0 0h0m0 0h0m0 0h0m0 0h0m0 0h0m0 0h0m0 0h0m0 0h0m-.004 0h.004m-.004 0h.008m-.004 0h0m0 0h0m0 0h0m0 0h0m0 0h0m0 0h0m0 0h0m0 0h0m0 0h0m0 0h0m0 0h0m0 0h0m0 0h0m0 0" fill="rgb(100%, 100%, 100%)" fill-rule="evenodd" stroke="rgb(19.607843%, 42.352942%, 89.803922%)" stroke-linecap="square" stroke-miterlimit="10" stroke-width=".484"/><path d="M17.535 17.918a1.016 1.016 0 1 1-2.032-.001 1.016 1.016 0 0 1 2.032.001m0 0" fill="rgb(19.607843%, 42.352942%, 89.803922%)"/></svg>