<svg role="img" viewBox="0 0 32.978 32" height="32" width="32.978" xmlns="http://www.w3.org/2000/svg"><path d="M16.379.848a2.238 2.238 0 0 0-.793.199L4.723 6.238a2.06 2.06 0 0 0-1.121 1.399L.922 19.293c-.14.61.004 1.254.398 1.742l7.52 9.348c.394.488.992.773 1.62.773l12.056-.004c.632 0 1.23-.28 1.625-.773l7.515-9.348a2.042 2.042 0 0 0 .403-1.742L29.375 7.633a2.055 2.055 0 0 0-1.125-1.399L17.387 1.047a2.082 2.082 0 0 0-1.008-.2m0 0" fill="rgb(19.607843%, 42.352941%, 89.803922%)"/><path d="M16.375.004a2.22 2.22 0 0 0-.84.21L4.07 5.696a2.171 2.171 0 0 0-1.187 1.473L.055 19.473a2.164 2.164 0 0 0 .297 1.668c.039.062.082.117.125.172l7.937 9.87a2.21 2.21 0 0 0 1.715.817l12.723-.004c.668 0 1.3-.3 1.714-.816l7.934-9.867c.414-.516.57-1.196.422-1.84L30.09 7.164a2.187 2.187 0 0 0-1.184-1.473L17.438.215a2.216 2.216 0 0 0-1.063-.211m.004.844c.348-.02.695.05 1.008.199L28.25 6.234c.566.274.98.786 1.125 1.399l2.684 11.656a2.042 2.042 0 0 1-.403 1.742l-7.515 9.348a2.065 2.065 0 0 1-1.625.773l-12.055.004c-.633 0-1.23-.285-1.621-.773l-7.52-9.348a2.043 2.043 0 0 1-.398-1.742l2.68-11.656a2.06 2.06 0 0 1 1.12-1.399l10.864-5.191c.246-.117.52-.188.793-.2m.113 6.122-7.39 3.281v4.93c0 4.554 3.152 8.816 7.39 9.851 4.235-1.035 7.387-5.297 7.387-9.851v-4.93Zm0 3.476c.957 0 1.817.578 2.18 1.461a2.365 2.365 0 0 1-.512 2.578 2.359 2.359 0 0 1-2.574.512 2.367 2.367 0 0 1 .906-4.55m4.43 9.78c0 .06-.02.114-.05.165-.056.082-.106.164-.165.238a8.226 8.226 0 0 1-4.215 3.027 8.205 8.205 0 0 1-4.387-3.265.301.301 0 0 1-.05-.164v-1.313c0-1.812 2.957-2.727 4.437-2.727 1.477 0 4.43.915 4.43 2.727Zm0 0" fill="rgb(100%, 100%, 100%)"/></svg>