<svg role="img" viewBox="0 0 32.978 32" height="32" width="32.978" xmlns="http://www.w3.org/2000/svg"><path d="M16.445.848a2.085 2.085 0 0 0-.797.199L4.79 6.238c-.57.27-.984.785-1.125 1.399L.984 19.293a2.043 2.043 0 0 0 .282 1.578c.039.055.078.11.12.164l7.516 9.348c.395.488.993.773 1.625.773l12.055-.004c.633 0 1.23-.28 1.625-.773l7.512-9.348a2.042 2.042 0 0 0 .402-1.742L29.437 7.633a2.055 2.055 0 0 0-1.125-1.399L17.454 1.047a2.082 2.082 0 0 0-1.008-.2m0 0" fill="rgb(19.607843%, 42.352941%, 89.803922%)"/><path d="M16.438.004c-.29.016-.575.086-.836.21L4.132 5.696A2.176 2.176 0 0 0 2.95 7.168L.121 19.473a2.14 2.14 0 0 0 .422 1.84l7.934 9.87A2.206 2.206 0 0 0 10.19 32l12.727-.004c.668 0 1.297-.3 1.715-.816l7.93-9.867a2.168 2.168 0 0 0 .425-1.84L30.156 7.164a2.192 2.192 0 0 0-1.187-1.473L17.504.215c-.332-.156-.7-.23-1.067-.211m.008.844c.348-.02.692.05 1.008.199l10.86 5.187c.57.274.984.79 1.125 1.399l2.683 11.656a2.042 2.042 0 0 1-.402 1.742l-7.512 9.348a2.07 2.07 0 0 1-1.625.773l-12.055.004c-.632 0-1.23-.285-1.625-.773l-7.515-9.348a2.042 2.042 0 0 1-.403-1.742l2.68-11.656A2.055 2.055 0 0 1 4.79 6.238l10.86-5.191c.25-.117.519-.188.796-.2m0 0" fill="rgb(100%, 100%, 100%)"/><path d="M13.402 9.23h11.93v8.38h-11.93Zm0 0h0m0 0h0m0 0h0m0 0h0m0 0h0m0 0h0m0 0h0m0 0h0m0 0h0m0 0h0m0 0h0m0 0h0m0 0h0m0 0h0m0 0h0m0 0" fill="none" stroke="rgb(100%, 100%, 100%)" stroke-dasharray="2.903 2.903" stroke-dashoffset=".9" stroke-linecap="square" stroke-linejoin="round" stroke-miterlimit="10" stroke-width=".968"/><path d="M10.59 11.809h11.93v8.382H10.59Zm0 0h0m0 0h0m0 0h0m0 0h0m0 0h0m0 0h0m0 0h0m0 0h0m0 0h0m0 0h0m0 0h0m0 0h0m0 0h0m0 0h0m0 0h0m0 0" fill="rgb(19.607843%, 42.352941%, 89.803922%)" fill-rule="evenodd" stroke="rgb(100%, 100%, 100%)" stroke-dasharray="2.903 2.903" stroke-dashoffset="1.287" stroke-linecap="square" stroke-linejoin="round" stroke-miterlimit="10" stroke-width=".968"/><path d="M7.773 14.39h11.934v8.38H7.773Zm0 0" fill="rgb(100%, 100%, 100%)" fill-rule="evenodd" stroke="rgb(100%, 100%, 100%)" stroke-linejoin="round" stroke-miterlimit="10" stroke-width=".968"/><path d="M8.75 16.719c0-.785 2.234-1.422 4.988-1.422 2.758 0 4.992.637 4.992 1.422 0 .785-2.234 1.422-4.992 1.422-2.754 0-4.988-.637-4.988-1.422m0 0" fill="rgb(100%, 100%, 100%)" fill-rule="evenodd"/><path d="M18.73 16.719c0 .785-2.234 1.422-4.992 1.422-2.754 0-4.988-.637-4.988-1.422 0-.785 2.234-1.422 4.988-1.422 2.758 0 4.992.637 4.992 1.422v3.847c0 .786-2.234 1.422-4.992 1.422-2.754 0-4.988-.636-4.988-1.422V16.72" fill="none" stroke="rgb(19.607843%, 42.352941%, 89.803922%)" stroke-linejoin="round" stroke-miterlimit="10" stroke-width=".968"/></svg>