<?xml version="1.0" encoding="UTF-8"?>
<svg xmlns="http://www.w3.org/2000/svg" xmlns:xlink="http://www.w3.org/1999/xlink" width="32.978001" height="32" viewBox="0 0 32.978001 32">
<path fill-rule="nonzero" fill="rgb(19.607843%, 42.352942%, 89.803922%)" fill-opacity="1" d="M 16.445312 0.847656 C 16.167969 0.859375 15.898438 0.929688 15.648438 1.046875 L 4.789062 6.238281 C 4.21875 6.507812 3.804688 7.023438 3.664062 7.636719 L 0.984375 19.292969 C 0.859375 19.835938 0.960938 20.40625 1.265625 20.871094 C 1.304688 20.925781 1.34375 20.980469 1.386719 21.035156 L 8.902344 30.382812 C 9.300781 30.871094 9.894531 31.15625 10.527344 31.15625 L 22.582031 31.152344 C 23.214844 31.152344 23.8125 30.871094 24.207031 30.378906 L 31.71875 21.03125 C 32.113281 20.542969 32.261719 19.902344 32.121094 19.289062 L 29.4375 7.632812 C 29.296875 7.019531 28.882812 6.503906 28.3125 6.234375 L 17.453125 1.046875 C 17.140625 0.898438 16.792969 0.828125 16.445312 0.847656 M 16.445312 0.847656 "/>
<path fill-rule="nonzero" fill="rgb(100%, 100%, 100%)" fill-opacity="1" d="M 16.4375 0.00390625 C 16.148438 0.0195312 15.863281 0.0898438 15.601562 0.214844 L 4.132812 5.695312 C 3.535156 5.980469 3.101562 6.523438 2.949219 7.167969 L 0.121094 19.472656 C -0.03125 20.117188 0.125 20.796875 0.542969 21.3125 L 8.476562 31.183594 C 8.894531 31.699219 9.523438 32 10.191406 32 L 22.917969 31.996094 C 23.582031 31.996094 24.210938 31.695312 24.632812 31.179688 L 32.5625 21.3125 C 32.976562 20.796875 33.132812 20.117188 32.988281 19.472656 L 30.15625 7.164062 C 30.003906 6.519531 29.566406 5.976562 28.96875 5.691406 L 17.503906 0.214844 C 17.171875 0.0585938 16.804688 -0.015625 16.4375 0.00390625 M 16.445312 0.847656 C 16.792969 0.828125 17.136719 0.898438 17.453125 1.046875 L 28.3125 6.234375 C 28.882812 6.507812 29.296875 7.023438 29.4375 7.632812 L 32.121094 19.289062 C 32.261719 19.898438 32.113281 20.542969 31.71875 21.03125 L 24.207031 30.378906 C 23.8125 30.871094 23.214844 31.15625 22.582031 31.152344 L 10.527344 31.15625 C 9.894531 31.15625 9.296875 30.871094 8.902344 30.382812 L 1.386719 21.035156 C 0.992188 20.546875 0.84375 19.90625 0.984375 19.292969 L 3.664062 7.636719 C 3.804688 7.023438 4.21875 6.507812 4.789062 6.238281 L 15.648438 1.046875 C 15.898438 0.929688 16.167969 0.859375 16.445312 0.847656 M 16.445312 0.847656 "/>
<path fill="none" stroke-width="7.744" stroke-linecap="square" stroke-linejoin="round" stroke="rgb(100%, 100%, 100%)" stroke-opacity="1" stroke-dasharray="23.224001 23.224001" stroke-dashoffset="7.2" stroke-miterlimit="10" d="M 107.21875 73.84375 L 202.65625 73.84375 L 202.65625 140.875 L 107.21875 140.875 Z M 107.15625 73.84375 L 107.15625 73.84375 M 107.15625 73.84375 L 107.15625 73.84375 M 107.15625 73.84375 L 107.15625 73.84375 M 107.15625 73.84375 L 107.1875 73.84375 M 107.15625 73.84375 L 107.21875 73.84375 M 107.15625 73.84375 L 107.1875 73.84375 M 107.1875 73.84375 L 107.1875 73.84375 M 107.1875 73.84375 L 107.1875 73.84375 M 107.1875 73.84375 L 107.1875 73.84375 M 107.1875 73.84375 L 107.1875 73.84375 M 107.1875 73.84375 L 107.1875 73.84375 M 107.1875 73.84375 L 107.1875 73.84375 M 107.15625 73.84375 L 107.1875 73.84375 M 107.1875 73.84375 L 107.1875 73.84375 M 107.1875 73.84375 L 107.1875 73.84375 M 107.1875 73.84375 L 107.1875 73.84375 M 107.1875 73.84375 L 107.1875 73.84375 M 107.1875 73.84375 L 107.1875 73.84375 M 107.1875 73.84375 L 107.1875 73.84375 M 107.15625 73.84375 L 107.15625 73.84375 M 107.15625 73.84375 L 107.15625 73.84375 M 107.15625 73.84375 L 107.15625 73.84375 M 107.15625 73.84375 L 107.1875 73.84375 M 107.15625 73.84375 L 107.21875 73.84375 M 107.15625 73.84375 L 107.1875 73.84375 M 107.1875 73.84375 L 107.1875 73.84375 M 107.1875 73.84375 L 107.1875 73.84375 M 107.1875 73.84375 L 107.1875 73.84375 M 107.1875 73.84375 L 107.1875 73.84375 M 107.1875 73.84375 L 107.1875 73.84375 M 107.1875 73.84375 L 107.1875 73.84375 M 107.1875 73.84375 L 107.1875 73.84375 M 107.1875 73.84375 L 107.21875 73.84375 M 107.1875 73.84375 L 107.1875 73.84375 M 107.1875 73.84375 L 107.21875 73.84375 M 107.1875 73.84375 L 107.21875 73.84375 M 107.21875 73.84375 L 107.21875 73.84375 M 107.21875 73.84375 L 107.21875 73.84375 M 107.21875 73.84375 L 107.21875 73.84375 M 107.21875 73.84375 L 107.21875 73.84375 M 107.21875 73.84375 L 107.21875 73.84375 M 107.21875 73.84375 L 107.21875 73.84375 M 107.1875 73.84375 L 107.21875 73.84375 M 107.21875 73.84375 L 107.21875 73.84375 M 107.21875 73.84375 L 107.21875 73.84375 M 107.21875 73.84375 L 107.21875 73.84375 M 107.21875 73.84375 L 107.21875 73.84375 M 107.21875 73.84375 L 107.21875 73.84375 M 107.21875 73.84375 L 107.21875 73.84375 M 107.1875 73.84375 L 107.21875 73.84375 M 107.21875 73.84375 L 107.21875 73.84375 M 107.21875 73.84375 L 107.21875 73.84375 M 107.21875 73.84375 L 107.21875 73.84375 M 107.21875 73.84375 L 107.21875 73.84375 M 107.21875 73.84375 L 107.21875 73.84375 M 107.21875 73.84375 L 107.21875 73.84375 M 107.1875 73.84375 L 107.1875 73.84375 M 107.1875 73.84375 L 107.21875 73.84375 M 107.1875 73.84375 L 107.21875 73.84375 M 107.21875 73.84375 L 107.21875 73.84375 M 107.21875 73.84375 L 107.21875 73.84375 M 107.21875 73.84375 L 107.21875 73.84375 M 107.21875 73.84375 L 107.21875 73.84375 M 107.21875 73.84375 L 107.21875 73.84375 M 107.21875 73.84375 L 107.21875 73.84375 M 107.1875 73.84375 L 107.21875 73.84375 M 107.21875 73.84375 L 107.21875 73.84375 M 107.21875 73.84375 L 107.21875 73.84375 M 107.21875 73.84375 L 107.21875 73.84375 M 107.21875 73.84375 L 107.21875 73.84375 M 107.21875 73.84375 L 107.21875 73.84375 M 107.21875 73.84375 L 107.21875 73.84375 M 107.1875 73.84375 L 107.21875 73.84375 M 107.21875 73.84375 L 107.21875 73.84375 M 107.21875 73.84375 L 107.21875 73.84375 M 107.21875 73.84375 L 107.21875 73.84375 M 107.21875 73.84375 L 107.21875 73.84375 M 107.21875 73.84375 L 107.21875 73.84375 M 107.21875 73.84375 " transform="matrix(0.125, 0, 0, 0.125, 0, 0)"/>
<path fill-rule="evenodd" fill="rgb(19.607843%, 42.352942%, 89.803922%)" fill-opacity="1" stroke-width="7.744" stroke-linecap="square" stroke-linejoin="round" stroke="rgb(100%, 100%, 100%)" stroke-opacity="1" stroke-dasharray="23.224001 23.224001" stroke-dashoffset="10.296" stroke-miterlimit="10" d="M 84.71875 94.46875 L 180.15625 94.46875 L 180.15625 161.53125 L 84.71875 161.53125 Z M 84.65625 94.46875 L 84.6875 94.46875 M 84.6875 94.46875 L 84.6875 94.46875 M 84.6875 94.46875 L 84.71875 94.46875 M 84.6875 94.46875 L 84.6875 94.46875 M 84.6875 94.46875 L 84.6875 94.46875 M 84.6875 94.46875 L 84.6875 94.46875 M 84.6875 94.46875 L 84.6875 94.46875 M 84.6875 94.46875 L 84.6875 94.46875 M 84.6875 94.46875 L 84.6875 94.46875 M 84.6875 94.46875 L 84.6875 94.46875 M 84.6875 94.46875 L 84.6875 94.46875 M 84.6875 94.46875 L 84.6875 94.46875 M 84.6875 94.46875 L 84.6875 94.46875 M 84.6875 94.46875 L 84.6875 94.46875 M 84.6875 94.46875 L 84.6875 94.46875 M 84.6875 94.46875 L 84.6875 94.46875 M 84.6875 94.46875 L 84.6875 94.46875 M 84.65625 94.46875 L 84.6875 94.46875 M 84.6875 94.46875 L 84.6875 94.46875 M 84.6875 94.46875 L 84.71875 94.46875 M 84.6875 94.46875 L 84.6875 94.46875 M 84.6875 94.46875 L 84.6875 94.46875 M 84.6875 94.46875 L 84.6875 94.46875 M 84.6875 94.46875 L 84.6875 94.46875 M 84.6875 94.46875 L 84.6875 94.46875 M 84.6875 94.46875 L 84.6875 94.46875 M 84.6875 94.46875 L 84.6875 94.46875 M 84.6875 94.46875 L 84.6875 94.46875 M 84.6875 94.46875 L 84.71875 94.46875 M 84.6875 94.46875 L 84.6875 94.46875 M 84.6875 94.46875 L 84.71875 94.46875 M 84.6875 94.46875 L 84.71875 94.46875 M 84.71875 94.46875 L 84.71875 94.46875 M 84.71875 94.46875 L 84.71875 94.46875 M 84.71875 94.46875 L 84.71875 94.46875 M 84.71875 94.46875 L 84.71875 94.46875 M 84.71875 94.46875 L 84.71875 94.46875 M 84.71875 94.46875 L 84.71875 94.46875 M 84.6875 94.46875 L 84.71875 94.46875 M 84.71875 94.46875 L 84.71875 94.46875 M 84.71875 94.46875 L 84.71875 94.46875 M 84.71875 94.46875 L 84.71875 94.46875 M 84.71875 94.46875 L 84.71875 94.46875 M 84.71875 94.46875 L 84.71875 94.46875 M 84.71875 94.46875 L 84.71875 94.46875 M 84.6875 94.46875 L 84.71875 94.46875 M 84.71875 94.46875 L 84.71875 94.46875 M 84.71875 94.46875 L 84.71875 94.46875 M 84.71875 94.46875 L 84.71875 94.46875 M 84.71875 94.46875 L 84.71875 94.46875 M 84.71875 94.46875 L 84.71875 94.46875 M 84.71875 94.46875 L 84.71875 94.46875 M 84.6875 94.46875 L 84.6875 94.46875 M 84.6875 94.46875 L 84.71875 94.46875 M 84.6875 94.46875 L 84.71875 94.46875 M 84.71875 94.46875 L 84.71875 94.46875 M 84.71875 94.46875 L 84.71875 94.46875 M 84.71875 94.46875 L 84.71875 94.46875 M 84.71875 94.46875 L 84.71875 94.46875 M 84.71875 94.46875 L 84.71875 94.46875 M 84.71875 94.46875 L 84.71875 94.46875 M 84.6875 94.46875 L 84.71875 94.46875 M 84.71875 94.46875 L 84.71875 94.46875 M 84.71875 94.46875 L 84.71875 94.46875 M 84.71875 94.46875 L 84.71875 94.46875 M 84.71875 94.46875 L 84.71875 94.46875 M 84.71875 94.46875 L 84.71875 94.46875 M 84.71875 94.46875 L 84.71875 94.46875 M 84.6875 94.46875 L 84.71875 94.46875 M 84.71875 94.46875 L 84.71875 94.46875 M 84.71875 94.46875 L 84.71875 94.46875 M 84.71875 94.46875 L 84.71875 94.46875 M 84.71875 94.46875 L 84.71875 94.46875 M 84.71875 94.46875 L 84.71875 94.46875 M 84.71875 94.46875 " transform="matrix(0.125, 0, 0, 0.125, 0, 0)"/>
<path fill-rule="evenodd" fill="rgb(100%, 100%, 100%)" fill-opacity="1" stroke-width="7.744" stroke-linecap="butt" stroke-linejoin="round" stroke="rgb(100%, 100%, 100%)" stroke-opacity="1" stroke-miterlimit="10" d="M 62.1875 115.125 L 157.65625 115.125 L 157.65625 182.15625 L 62.1875 182.15625 Z M 62.1875 115.125 " transform="matrix(0.125, 0, 0, 0.125, 0, 0)"/>
<path fill-rule="evenodd" fill="rgb(100%, 100%, 100%)" fill-opacity="1" d="M 8.75 16.71875 C 8.75 15.933594 10.984375 15.296875 13.738281 15.296875 C 16.496094 15.296875 18.730469 15.933594 18.730469 16.71875 C 18.730469 17.503906 16.496094 18.140625 13.738281 18.140625 C 10.984375 18.140625 8.75 17.503906 8.75 16.71875 M 8.75 16.71875 "/>
<path fill="none" stroke-width="7.744" stroke-linecap="butt" stroke-linejoin="round" stroke="rgb(19.607843%, 42.352942%, 89.803922%)" stroke-opacity="1" stroke-miterlimit="10" d="M 149.84375 133.75 C 149.84375 140.03125 131.96875 145.125 109.90625 145.125 C 87.875 145.125 70 140.03125 70 133.75 C 70 127.46875 87.875 122.375 109.90625 122.375 C 131.96875 122.375 149.84375 127.46875 149.84375 133.75 L 149.84375 164.53125 C 149.84375 170.8125 131.96875 175.90625 109.90625 175.90625 C 87.875 175.90625 70 170.8125 70 164.53125 L 70 133.75 " transform="matrix(0.125, 0, 0, 0.125, 0, 0)"/>
</svg>
