<svg role="img" viewBox="0 0 32.978 32" height="32" width="32.978" xmlns="http://www.w3.org/2000/svg"><path d="M16.379.848a2.238 2.238 0 0 0-.793.199L4.723 6.238c-.57.27-.98.785-1.125 1.395l-2.68 11.66a2.068 2.068 0 0 0 .402 1.742l7.516 9.348c.394.488.992.773 1.625.773h12.055c.632 0 1.23-.285 1.625-.773l7.515-9.352a2.04 2.04 0 0 0 .399-1.742L29.37 7.633a2.053 2.053 0 0 0-1.121-1.395L17.387 1.047a2.131 2.131 0 0 0-1.008-.203" fill="rgb(19.607843%, 42.352941%, 89.803922%)"/><path d="M16.375.004c-.293.016-.578.09-.84.215L4.066 5.69a2.175 2.175 0 0 0-1.183 1.477L.055 19.473a2.175 2.175 0 0 0 .422 1.843l7.933 9.868c.418.515 1.05.816 1.715.816h12.727c.664 0 1.296-.3 1.714-.816l7.934-9.872c.414-.515.57-1.195.422-1.84L30.094 7.165a2.171 2.171 0 0 0-1.188-1.473L17.441.215A2.291 2.291 0 0 0 16.375 0m.008.848c.347-.02.691.05 1.004.199L28.25 6.234c.566.27.98.782 1.125 1.395l2.684 11.656a2.05 2.05 0 0 1-.403 1.746l-7.515 9.348a2.1 2.1 0 0 1-1.625.773l-12.055.004a2.105 2.105 0 0 1-1.621-.773l-7.516-9.348a2.05 2.05 0 0 1-.402-1.746l2.68-11.656a2.06 2.06 0 0 1 1.12-1.395l10.864-5.191c.25-.121.52-.188.797-.2" fill="rgb(100%, 100%, 100%)"/><path d="M6.57 19.668h5.32v3.734H6.57Zm7.258 0h5.32v3.734h-5.32Zm7.258 0h5.32v3.734h-5.32ZM12.273 8.602h8.43v3.73h-8.43Zm0 0" fill="rgb(100%, 100%, 100%)" fill-rule="evenodd"/><path d="m13.316 13.2.84.84-3.761 3.76-.844-.843Zm5.547 0-.843.843 3.761 3.758.844-.844Zm-1.933.316-1.192-.004-.035 4.113 1.195.004Zm0 0" fill="rgb(100%, 100%, 100%)"/></svg>