<svg role="img" viewBox="0 0 32.978 32" height="32" width="32.978" xmlns="http://www.w3.org/2000/svg"><path d="M16.379.848a2.083 2.083 0 0 0-.793.199L4.723 6.238a2.06 2.06 0 0 0-1.121 1.399L.922 19.293c-.14.61.004 1.254.398 1.742l7.52 9.348c.394.488.992.773 1.62.773l12.056-.004c.632 0 1.23-.28 1.625-.773l7.515-9.348a2.042 2.042 0 0 0 .403-1.742L29.375 7.633a2.055 2.055 0 0 0-1.125-1.399L17.387 1.047a2.082 2.082 0 0 0-1.008-.2m0 0" fill="rgb(19.607843%, 42.352941%, 89.803922%)"/><path d="M16.375.004a2.22 2.22 0 0 0-.84.21L4.07 5.696a2.171 2.171 0 0 0-1.187 1.473L.055 19.473a2.164 2.164 0 0 0 .297 1.668c.039.062.082.117.125.172l7.937 9.87a2.21 2.21 0 0 0 1.715.817l12.723-.004c.668 0 1.3-.3 1.714-.816l7.934-9.867c.414-.516.57-1.196.422-1.84L30.09 7.164a2.187 2.187 0 0 0-1.184-1.473L17.438.215a2.216 2.216 0 0 0-1.063-.211m.004.844c.348-.02.695.05 1.008.199L28.25 6.234c.57.274.98.79 1.125 1.399l2.684 11.656a2.042 2.042 0 0 1-.403 1.742l-7.515 9.348a2.065 2.065 0 0 1-1.625.773l-12.055.004c-.633 0-1.23-.285-1.621-.773l-7.52-9.348a2.043 2.043 0 0 1-.398-1.742l2.68-11.656a2.068 2.068 0 0 1 1.12-1.399l10.864-5.191c.246-.117.52-.188.793-.2m0 0" fill="rgb(100%, 100%, 100%)"/><path d="M8.094 17.102c0 .687 3.847 1.246 8.594 1.246 4.742 0 8.59-.559 8.59-1.246v3.375c0 .687-3.848 1.246-8.59 1.246-4.747 0-8.594-.559-8.594-1.246Zm0 0c0-.688 3.847-1.247 8.594-1.247 4.742 0 8.59.56 8.59 1.247s-3.848 1.246-8.59 1.246c-4.747 0-8.594-.559-8.594-1.246m0 0" fill="rgb(19.607843%, 42.352941%, 89.803922%)" fill-rule="evenodd"/><path d="M8.094 13.594c0 .691 3.847 1.25 8.594 1.25 4.742 0 8.59-.559 8.59-1.25v3.375c0 .687-3.848 1.246-8.59 1.246-4.747 0-8.594-.559-8.594-1.246Zm0 0h0m0 0h0m0 0h0m0 0h0m0 0h0m0 0h0m0 0h0m0 0" fill="rgb(100%, 100%, 100%)" fill-rule="evenodd" stroke="rgb(93.333333%, 93.333333%, 93.333333%)" stroke-linecap="square" stroke-miterlimit="10" stroke-width=".38"/><path d="M8.094 12.879c0-.691 3.847-1.246 8.594-1.246 4.742 0 8.59.555 8.59 1.246 0 .687-3.848 1.246-8.59 1.246-4.747 0-8.594-.559-8.594-1.246m0-4.672c0-.691 3.847-1.25 8.594-1.25 4.742 0 8.59.559 8.59 1.25 0 .688-3.848 1.246-8.59 1.246-4.747 0-8.594-.558-8.594-1.246m-.196 1.336c0 .687 3.848 1.246 8.59 1.246 4.746 0 8.59-.559 8.59-1.246v3.371c0 .691-3.844 1.246-8.59 1.246-4.742 0-8.59-.555-8.59-1.246Zm0 0" fill="rgb(19.607843%, 42.352941%, 89.803922%)" fill-rule="evenodd"/><path d="M25.078 19.086c0 .687-3.844 1.246-8.59 1.246-4.742 0-8.59-.559-8.59-1.246 0-.691 3.848-1.246 8.59-1.246 4.746 0 8.59.555 8.59 1.246v3.371c0 .691-3.844 1.25-8.59 1.25-4.742 0-8.59-.559-8.59-1.25v-3.371" fill="none" stroke="rgb(100%, 100%, 100%)" stroke-dasharray="3.035 .759" stroke-linejoin="round" stroke-miterlimit="10" stroke-width=".759"/><path d="M25.078 13.566c0 .692-3.844 1.25-8.59 1.25-4.742 0-8.59-.558-8.59-1.25 0-.687 3.848-1.246 8.59-1.246 4.746 0 8.59.559 8.59 1.246v3.375c0 .688-3.844 1.247-8.59 1.247-4.742 0-8.59-.56-8.59-1.247v-3.375" fill="none" stroke="rgb(100%, 100%, 100%)" stroke-linejoin="round" stroke-miterlimit="10" stroke-width=".759"/><path d="M25.078 9.543c0 .687-3.844 1.246-8.59 1.246-4.742 0-8.59-.559-8.59-1.246 0-.691 3.848-1.25 8.59-1.25 4.746 0 8.59.559 8.59 1.25v3.371c0 .691-3.844 1.246-8.59 1.246-4.742 0-8.59-.555-8.59-1.246V9.543" fill="none" stroke="rgb(100%, 100%, 100%)" stroke-dasharray="3.036 .759" stroke-linejoin="round" stroke-miterlimit="10" stroke-width=".759"/></svg>