<?xml version="1.0" encoding="UTF-8"?>
<svg xmlns="http://www.w3.org/2000/svg" xmlns:xlink="http://www.w3.org/1999/xlink" width="32.978001" height="32" viewBox="0 0 32.978001 32">
<path fill-rule="nonzero" fill="rgb(19.607843%, 42.352941%, 89.803922%)" fill-opacity="1" d="M 16.378906 0.847656 C 16.105469 0.863281 15.835938 0.933594 15.585938 1.046875 L 4.722656 6.238281 C 4.15625 6.507812 3.742188 7.023438 3.601562 7.636719 L 0.921875 19.292969 C 0.78125 19.902344 0.925781 20.546875 1.320312 21.035156 L 8.839844 30.382812 C 9.234375 30.871094 9.832031 31.15625 10.460938 31.15625 L 22.515625 31.152344 C 23.148438 31.152344 23.746094 30.871094 24.140625 30.378906 L 31.65625 21.03125 C 32.050781 20.542969 32.199219 19.902344 32.058594 19.289062 L 29.375 7.632812 C 29.234375 7.019531 28.820312 6.503906 28.25 6.234375 L 17.386719 1.046875 C 17.074219 0.898438 16.726562 0.828125 16.378906 0.847656 M 16.378906 0.847656 "/>
<path fill-rule="nonzero" fill="rgb(100%, 100%, 100%)" fill-opacity="1" d="M 16.375 0.00390625 C 16.082031 0.0195312 15.796875 0.0898438 15.535156 0.214844 L 4.070312 5.695312 C 3.46875 5.980469 3.03125 6.523438 2.882812 7.167969 L 0.0546875 19.472656 C -0.078125 20.046875 0.03125 20.648438 0.351562 21.140625 C 0.390625 21.203125 0.433594 21.257812 0.476562 21.3125 L 8.414062 31.183594 C 8.832031 31.699219 9.464844 32 10.128906 32 L 22.851562 31.996094 C 23.519531 31.996094 24.152344 31.695312 24.566406 31.179688 L 32.5 21.3125 C 32.914062 20.796875 33.070312 20.117188 32.921875 19.472656 L 30.089844 7.164062 C 29.9375 6.519531 29.503906 5.976562 28.90625 5.691406 L 17.4375 0.214844 C 17.105469 0.0585938 16.742188 -0.015625 16.375 0.00390625 M 16.378906 0.847656 C 16.726562 0.828125 17.074219 0.898438 17.386719 1.046875 L 28.25 6.234375 C 28.816406 6.507812 29.230469 7.019531 29.375 7.632812 L 32.058594 19.289062 C 32.199219 19.902344 32.050781 20.542969 31.65625 21.03125 L 24.140625 30.378906 C 23.746094 30.871094 23.148438 31.15625 22.515625 31.152344 L 10.460938 31.15625 C 9.828125 31.15625 9.230469 30.871094 8.839844 30.382812 L 1.320312 21.035156 C 0.925781 20.546875 0.78125 19.902344 0.921875 19.292969 L 3.601562 7.636719 C 3.742188 7.023438 4.15625 6.507812 4.722656 6.238281 L 15.585938 1.046875 C 15.832031 0.929688 16.105469 0.859375 16.378906 0.847656 M 16.378906 0.847656 "/>
<path fill-rule="evenodd" fill="rgb(19.607843%, 42.352941%, 89.803922%)" fill-opacity="1" d="M 8.09375 17.101562 C 8.09375 17.789062 11.941406 18.347656 16.6875 18.347656 C 21.429688 18.347656 25.277344 17.789062 25.277344 17.101562 L 25.277344 20.476562 C 25.277344 21.164062 21.429688 21.722656 16.6875 21.722656 C 11.941406 21.722656 8.09375 21.164062 8.09375 20.476562 Z M 8.09375 17.101562 C 8.09375 16.414062 11.941406 15.855469 16.6875 15.855469 C 21.429688 15.855469 25.277344 16.414062 25.277344 17.101562 C 25.277344 17.789062 21.429688 18.347656 16.6875 18.347656 C 11.941406 18.347656 8.09375 17.789062 8.09375 17.101562 M 8.09375 17.101562 "/>
<path fill-rule="evenodd" fill="rgb(100%, 100%, 100%)" fill-opacity="1" stroke-width="0.38" stroke-linecap="square" stroke-linejoin="miter" stroke="rgb(93.333333%, 93.333333%, 93.333333%)" stroke-opacity="1" stroke-miterlimit="10" d="M 8.09375 13.59375 C 8.09375 14.285156 11.941406 14.84375 16.6875 14.84375 C 21.429688 14.84375 25.277344 14.285156 25.277344 13.59375 L 25.277344 16.96875 C 25.277344 17.65625 21.429688 18.214844 16.6875 18.214844 C 11.941406 18.214844 8.09375 17.65625 8.09375 16.96875 Z M 8.089844 13.59375 L 8.09375 13.59375 M 8.089844 13.59375 L 8.097656 13.59375 M 8.09375 13.59375 L 8.09375 13.59375 M 8.09375 13.59375 L 8.09375 13.59375 M 8.09375 13.59375 L 8.09375 13.59375 M 8.09375 13.59375 L 8.09375 13.59375 M 8.09375 13.59375 L 8.09375 13.59375 M 8.09375 13.59375 L 8.09375 13.59375 M 8.09375 13.59375 L 8.09375 13.59375 M 8.09375 13.59375 L 8.09375 13.59375 M 8.09375 13.59375 L 8.09375 13.59375 M 8.09375 13.59375 L 8.09375 13.59375 M 8.09375 13.59375 L 8.09375 13.59375 M 8.09375 13.59375 L 8.09375 13.59375 M 8.09375 13.59375 L 8.09375 13.59375 M 8.09375 13.59375 L 8.09375 13.59375 M 8.09375 13.59375 L 8.09375 13.59375 M 8.09375 13.59375 L 8.09375 13.59375 M 8.09375 13.59375 L 8.09375 13.59375 M 8.09375 13.59375 L 8.09375 13.59375 M 8.09375 13.59375 L 8.09375 13.59375 M 8.09375 13.59375 L 8.09375 13.59375 M 8.09375 13.59375 L 8.09375 13.59375 M 8.09375 13.59375 L 8.09375 13.59375 M 8.09375 13.59375 L 8.09375 13.59375 M 8.09375 13.59375 L 8.09375 13.59375 M 8.09375 13.59375 L 8.09375 13.59375 M 8.09375 13.59375 L 8.09375 13.59375 M 8.09375 13.59375 L 8.09375 13.59375 M 8.09375 13.59375 L 8.09375 13.59375 M 8.089844 13.59375 L 8.09375 13.59375 M 8.09375 13.59375 L 8.09375 13.59375 M 8.09375 13.59375 L 8.09375 13.59375 M 8.09375 13.59375 L 8.09375 13.59375 M 8.09375 13.59375 L 8.09375 13.59375 M 8.09375 13.59375 L 8.09375 13.59375 M 8.09375 13.59375 L 8.09375 13.59375 M 8.09375 13.59375 L 8.09375 13.59375 M 8.09375 13.59375 L 8.09375 13.59375 M 8.09375 13.59375 L 8.09375 13.59375 M 8.09375 13.59375 L 8.09375 13.59375 M 8.09375 13.59375 L 8.09375 13.59375 M 8.09375 13.59375 L 8.09375 13.59375 M 8.09375 13.59375 L 8.09375 13.59375 M 8.09375 13.59375 L 8.09375 13.59375 M 8.09375 13.59375 L 8.09375 13.59375 M 8.09375 13.59375 L 8.09375 13.59375 M 8.09375 13.59375 L 8.09375 13.59375 M 8.09375 13.59375 L 8.09375 13.59375 M 8.09375 13.59375 L 8.09375 13.59375 M 8.09375 13.59375 L 8.09375 13.59375 M 8.09375 13.59375 L 8.09375 13.59375 M 8.09375 13.59375 L 8.09375 13.59375 M 8.09375 13.59375 L 8.09375 13.59375 M 8.09375 13.59375 L 8.09375 13.59375 M 8.089844 13.59375 L 8.09375 13.59375 M 8.089844 13.59375 L 8.097656 13.59375 M 8.09375 13.59375 L 8.09375 13.59375 M 8.09375 13.59375 L 8.09375 13.59375 M 8.09375 13.59375 L 8.09375 13.59375 M 8.09375 13.59375 L 8.09375 13.59375 M 8.09375 13.59375 L 8.09375 13.59375 M 8.09375 13.59375 L 8.09375 13.59375 M 8.09375 13.59375 L 8.09375 13.59375 M 8.09375 13.59375 L 8.09375 13.59375 M 8.09375 13.59375 L 8.09375 13.59375 M 8.09375 13.59375 L 8.09375 13.59375 M 8.09375 13.59375 L 8.09375 13.59375 M 8.09375 13.59375 L 8.09375 13.59375 M 8.09375 13.59375 L 8.09375 13.59375 M 8.09375 13.59375 L 8.09375 13.59375 M 8.09375 13.59375 L 8.09375 13.59375 M 8.09375 13.59375 L 8.09375 13.59375 M 8.09375 13.59375 L 8.09375 13.59375 M 8.09375 13.59375 L 8.09375 13.59375 M 8.09375 13.59375 L 8.09375 13.59375 M 8.09375 13.59375 L 8.09375 13.59375 M 8.09375 13.59375 L 8.09375 13.59375 M 8.09375 13.59375 L 8.09375 13.59375 M 8.09375 13.59375 L 8.09375 13.59375 M 8.09375 13.59375 L 8.09375 13.59375 M 8.09375 13.59375 L 8.09375 13.59375 M 8.09375 13.59375 L 8.09375 13.59375 M 8.09375 13.59375 L 8.09375 13.59375 M 8.09375 13.59375 L 8.09375 13.59375 M 8.089844 13.59375 L 8.09375 13.59375 M 8.09375 13.59375 L 8.09375 13.59375 M 8.09375 13.59375 L 8.09375 13.59375 M 8.09375 13.59375 L 8.09375 13.59375 M 8.09375 13.59375 L 8.09375 13.59375 M 8.09375 13.59375 L 8.09375 13.59375 M 8.09375 13.59375 L 8.09375 13.59375 M 8.09375 13.59375 L 8.09375 13.59375 M 8.09375 13.59375 L 8.09375 13.59375 M 8.09375 13.59375 L 8.09375 13.59375 M 8.09375 13.59375 L 8.09375 13.59375 M 8.09375 13.59375 L 8.09375 13.59375 M 8.09375 13.59375 L 8.09375 13.59375 M 8.09375 13.59375 L 8.09375 13.59375 M 8.09375 13.59375 L 8.09375 13.59375 M 8.09375 13.59375 L 8.09375 13.59375 M 8.09375 13.59375 L 8.09375 13.59375 M 8.09375 13.59375 L 8.09375 13.59375 M 8.09375 13.59375 L 8.09375 13.59375 M 8.09375 13.59375 L 8.09375 13.59375 M 8.09375 13.59375 L 8.09375 13.59375 M 8.09375 13.59375 L 8.09375 13.59375 M 8.09375 13.59375 L 8.09375 13.59375 M 8.09375 13.59375 L 8.09375 13.59375 M 8.09375 13.59375 L 8.09375 13.59375 M 8.089844 13.59375 L 8.09375 13.59375 M 8.089844 13.59375 L 8.097656 13.59375 M 8.09375 13.59375 L 8.09375 13.59375 M 8.09375 13.59375 L 8.09375 13.59375 M 8.09375 13.59375 L 8.09375 13.59375 M 8.09375 13.59375 L 8.09375 13.59375 M 8.09375 13.59375 L 8.09375 13.59375 M 8.09375 13.59375 L 8.09375 13.59375 M 8.09375 13.59375 L 8.09375 13.59375 M 8.09375 13.59375 L 8.09375 13.59375 M 8.09375 13.59375 L 8.09375 13.59375 M 8.09375 13.59375 L 8.09375 13.59375 M 8.09375 13.59375 L 8.09375 13.59375 M 8.09375 13.59375 L 8.09375 13.59375 M 8.09375 13.59375 L 8.09375 13.59375 M 8.09375 13.59375 L 8.09375 13.59375 M 8.09375 13.59375 L 8.09375 13.59375 M 8.09375 13.59375 L 8.09375 13.59375 M 8.09375 13.59375 L 8.09375 13.59375 M 8.09375 13.59375 L 8.09375 13.59375 M 8.09375 13.59375 L 8.09375 13.59375 M 8.09375 13.59375 L 8.09375 13.59375 M 8.09375 13.59375 L 8.09375 13.59375 M 8.09375 13.59375 L 8.09375 13.59375 M 8.09375 13.59375 L 8.09375 13.59375 M 8.09375 13.59375 L 8.09375 13.59375 M 8.09375 13.59375 L 8.09375 13.59375 M 8.09375 13.59375 L 8.09375 13.59375 M 8.09375 13.59375 L 8.09375 13.59375 M 8.09375 13.59375 L 8.09375 13.59375 M 8.089844 13.59375 L 8.09375 13.59375 M 8.09375 13.59375 L 8.09375 13.59375 M 8.09375 13.59375 L 8.09375 13.59375 M 8.09375 13.59375 L 8.09375 13.59375 M 8.09375 13.59375 L 8.09375 13.59375 M 8.09375 13.59375 L 8.09375 13.59375 M 8.09375 13.59375 L 8.09375 13.59375 M 8.09375 13.59375 L 8.09375 13.59375 M 8.09375 13.59375 L 8.09375 13.59375 M 8.09375 13.59375 L 8.09375 13.59375 M 8.09375 13.59375 L 8.09375 13.59375 M 8.09375 13.59375 L 8.09375 13.59375 M 8.09375 13.59375 L 8.09375 13.59375 M 8.09375 13.59375 L 8.09375 13.59375 M 8.09375 13.59375 L 8.09375 13.59375 M 8.09375 13.59375 L 8.09375 13.59375 M 8.09375 13.59375 L 8.09375 13.59375 M 8.09375 13.59375 L 8.09375 13.59375 M 8.09375 13.59375 L 8.09375 13.59375 M 8.09375 13.59375 L 8.09375 13.59375 M 8.09375 13.59375 L 8.09375 13.59375 M 8.09375 13.59375 L 8.09375 13.59375 M 8.09375 13.59375 L 8.09375 13.59375 M 8.09375 13.59375 L 8.09375 13.59375 M 8.09375 13.59375 L 8.09375 13.59375 M 8.089844 13.59375 L 8.09375 13.59375 M 8.089844 13.59375 L 8.097656 13.59375 M 8.09375 13.59375 L 8.09375 13.59375 M 8.09375 13.59375 L 8.09375 13.59375 M 8.09375 13.59375 L 8.09375 13.59375 M 8.09375 13.59375 L 8.09375 13.59375 M 8.09375 13.59375 L 8.09375 13.59375 M 8.09375 13.59375 L 8.09375 13.59375 M 8.09375 13.59375 L 8.09375 13.59375 M 8.09375 13.59375 L 8.09375 13.59375 M 8.09375 13.59375 L 8.09375 13.59375 M 8.09375 13.59375 L 8.09375 13.59375 M 8.09375 13.59375 L 8.09375 13.59375 M 8.09375 13.59375 L 8.09375 13.59375 M 8.09375 13.59375 L 8.09375 13.59375 M 8.09375 13.59375 L 8.09375 13.59375 M 8.09375 13.59375 L 8.09375 13.59375 M 8.09375 13.59375 L 8.09375 13.59375 M 8.09375 13.59375 L 8.09375 13.59375 M 8.09375 13.59375 L 8.09375 13.59375 M 8.09375 13.59375 L 8.09375 13.59375 M 8.09375 13.59375 L 8.09375 13.59375 M 8.09375 13.59375 L 8.09375 13.59375 M 8.09375 13.59375 L 8.09375 13.59375 M 8.09375 13.59375 L 8.09375 13.59375 M 8.09375 13.59375 L 8.09375 13.59375 M 8.09375 13.59375 L 8.09375 13.59375 M 8.09375 13.59375 L 8.09375 13.59375 M 8.09375 13.59375 L 8.09375 13.59375 M 8.09375 13.59375 L 8.09375 13.59375 M 8.089844 13.59375 L 8.09375 13.59375 M 8.09375 13.59375 L 8.09375 13.59375 M 8.09375 13.59375 L 8.09375 13.59375 M 8.09375 13.59375 L 8.09375 13.59375 M 8.09375 13.59375 L 8.09375 13.59375 M 8.09375 13.59375 L 8.09375 13.59375 M 8.09375 13.59375 L 8.09375 13.59375 M 8.09375 13.59375 L 8.09375 13.59375 M 8.09375 13.59375 L 8.09375 13.59375 M 8.09375 13.59375 L 8.09375 13.59375 M 8.09375 13.59375 L 8.09375 13.59375 M 8.09375 13.59375 L 8.09375 13.59375 M 8.09375 13.59375 L 8.09375 13.59375 M 8.09375 13.59375 L 8.09375 13.59375 M 8.09375 13.59375 L 8.09375 13.59375 M 8.09375 13.59375 L 8.09375 13.59375 M 8.09375 13.59375 L 8.09375 13.59375 M 8.09375 13.59375 L 8.09375 13.59375 M 8.09375 13.59375 L 8.09375 13.59375 M 8.09375 13.59375 L 8.09375 13.59375 M 8.09375 13.59375 L 8.09375 13.59375 M 8.09375 13.59375 L 8.09375 13.59375 M 8.09375 13.59375 L 8.09375 13.59375 M 8.09375 13.59375 L 8.09375 13.59375 M 8.09375 13.59375 "/>
<path fill-rule="evenodd" fill="rgb(19.607843%, 42.352941%, 89.803922%)" fill-opacity="1" d="M 8.09375 12.878906 C 8.09375 12.1875 11.941406 11.632812 16.6875 11.632812 C 21.429688 11.632812 25.277344 12.1875 25.277344 12.878906 C 25.277344 13.566406 21.429688 14.125 16.6875 14.125 C 11.941406 14.125 8.09375 13.566406 8.09375 12.878906 M 8.09375 8.207031 C 8.09375 7.515625 11.941406 6.957031 16.6875 6.957031 C 21.429688 6.957031 25.277344 7.515625 25.277344 8.207031 C 25.277344 8.894531 21.429688 9.453125 16.6875 9.453125 C 11.941406 9.453125 8.09375 8.894531 8.09375 8.207031 M 7.898438 9.542969 C 7.898438 10.230469 11.746094 10.789062 16.488281 10.789062 C 21.234375 10.789062 25.078125 10.230469 25.078125 9.542969 L 25.078125 12.914062 C 25.078125 13.605469 21.234375 14.160156 16.488281 14.160156 C 11.746094 14.160156 7.898438 13.605469 7.898438 12.914062 Z M 7.898438 9.542969 "/>
<path fill="none" stroke-width="0.759" stroke-linecap="butt" stroke-linejoin="round" stroke="rgb(100%, 100%, 100%)" stroke-opacity="1" stroke-dasharray="3.035 0.759" stroke-miterlimit="10" d="M 25.078125 19.085938 C 25.078125 19.773438 21.234375 20.332031 16.488281 20.332031 C 11.746094 20.332031 7.898438 19.773438 7.898438 19.085938 C 7.898438 18.394531 11.746094 17.839844 16.488281 17.839844 C 21.234375 17.839844 25.078125 18.394531 25.078125 19.085938 L 25.078125 22.457031 C 25.078125 23.148438 21.234375 23.707031 16.488281 23.707031 C 11.746094 23.707031 7.898438 23.148438 7.898438 22.457031 L 7.898438 19.085938 "/>
<path fill="none" stroke-width="0.759" stroke-linecap="butt" stroke-linejoin="round" stroke="rgb(100%, 100%, 100%)" stroke-opacity="1" stroke-miterlimit="10" d="M 25.078125 13.566406 C 25.078125 14.257812 21.234375 14.816406 16.488281 14.816406 C 11.746094 14.816406 7.898438 14.257812 7.898438 13.566406 C 7.898438 12.878906 11.746094 12.320312 16.488281 12.320312 C 21.234375 12.320312 25.078125 12.878906 25.078125 13.566406 L 25.078125 16.941406 C 25.078125 17.628906 21.234375 18.1875 16.488281 18.1875 C 11.746094 18.1875 7.898438 17.628906 7.898438 16.941406 L 7.898438 13.566406 "/>
<path fill="none" stroke-width="0.759" stroke-linecap="butt" stroke-linejoin="round" stroke="rgb(100%, 100%, 100%)" stroke-opacity="1" stroke-dasharray="3.036 0.759" stroke-miterlimit="10" d="M 25.078125 9.542969 C 25.078125 10.230469 21.234375 10.789062 16.488281 10.789062 C 11.746094 10.789062 7.898438 10.230469 7.898438 9.542969 C 7.898438 8.851562 11.746094 8.292969 16.488281 8.292969 C 21.234375 8.292969 25.078125 8.851562 25.078125 9.542969 L 25.078125 12.914062 C 25.078125 13.605469 21.234375 14.160156 16.488281 14.160156 C 11.746094 14.160156 7.898438 13.605469 7.898438 12.914062 L 7.898438 9.542969 "/>
</svg>
