<svg role="img" viewBox="0 0 32.978 32" xmlns="http://www.w3.org/2000/svg"><path d="M16.379.848a2.1 2.1 0 0 0-.793.199L4.723 6.238c-.57.27-.98.785-1.125 1.395l-2.68 11.66a2.07 2.07 0 0 0 .402 1.742l7.516 9.348c.394.488.992.773 1.625.773h12.055c.632 0 1.23-.285 1.625-.773l7.515-9.352a2.04 2.04 0 0 0 .399-1.742L29.37 7.633a2.05 2.05 0 0 0-1.121-1.395L17.387 1.047a2.1 2.1 0 0 0-1.008-.203" fill="rgb(19.607843%, 42.352942%, 89.803922%)"/><path d="M16.375.004a2.2 2.2 0 0 0-.84.215L4.066 5.69a2.19 2.19 0 0 0-1.183 1.477L.055 19.473a2.17 2.17 0 0 0 .422 1.843l7.933 9.868c.418.515 1.05.816 1.715.816h12.727c.664 0 1.296-.3 1.714-.816l7.934-9.872c.414-.515.57-1.195.422-1.84L30.094 7.165a2.17 2.17 0 0 0-1.188-1.473L17.441.215A2.3 2.3 0 0 0 16.375 0m.008.848c.347-.02.691.05 1.004.199L28.25 6.234c.566.27.98.782 1.125 1.395l2.684 11.656a2.05 2.05 0 0 1-.403 1.746l-7.515 9.348a2.1 2.1 0 0 1-1.625.773l-12.055.004a2.09 2.09 0 0 1-1.621-.773l-7.516-9.348a2.05 2.05 0 0 1-.402-1.746l2.68-11.656a2.06 2.06 0 0 1 1.12-1.395l10.864-5.191c.25-.121.52-.188.797-.2m-.844 6.794c-4.23-.004-7.664 3.425-7.668 7.66a7.67 7.67 0 0 0 7.664 7.668 7.8 7.8 0 0 0 2.695-.496v-1.809c0-.613.5-1.644 1.114-1.644v-1.676c0-.84 1.254-2.262 2.793-2.262.379 0 .734.078 1.062.211a7.666 7.666 0 0 0-7.66-7.652m1.527 2.68 2.684 2.683h-1.914v3.066H16.3v-3.066h-1.914Zm-3.828 4.214h1.532v3.067h1.918L14 20.285l-2.68-2.683h1.918Zm9.094 1.902a1.98 1.98 0 0 0-1.98 1.981v1.191a.786.786 0 0 0-.793.79v3.171c0 .438.355.793.793.793h3.96a.8.8 0 0 0 .793-.793v-3.172a.795.795 0 0 0-.793-.789v-1.191a1.98 1.98 0 0 0-1.98-1.98m0 .792a1.185 1.185 0 0 1 1.188 1.188v1.187h-2.375v-1.187c0-.656.53-1.188 1.187-1.188" fill="rgb(100%, 100%, 100%)"/></svg>