<svg role="img" viewBox="0 0 32.978 32" height="32" width="32.978" xmlns="http://www.w3.org/2000/svg"><path d="M16.379.848a2.083 2.083 0 0 0-.793.199L4.723 6.238a2.06 2.06 0 0 0-1.121 1.399L.922 19.293c-.14.61.004 1.254.398 1.742l7.52 9.348c.394.488.992.773 1.62.773l12.056-.004c.632 0 1.23-.28 1.625-.773l7.515-9.348a2.042 2.042 0 0 0 .403-1.742L29.375 7.633a2.055 2.055 0 0 0-1.125-1.399L17.387 1.047a2.082 2.082 0 0 0-1.008-.2m0 0" fill="rgb(19.607843%, 42.352941%, 89.803922%)"/><path d="M16.375.004a2.22 2.22 0 0 0-.84.21L4.07 5.696a2.171 2.171 0 0 0-1.187 1.473L.055 19.473a2.164 2.164 0 0 0 .297 1.668c.039.062.082.117.125.172l7.937 9.87a2.21 2.21 0 0 0 1.715.817l12.723-.004c.668 0 1.3-.3 1.714-.816l7.934-9.867c.414-.516.57-1.196.422-1.84L30.09 7.164a2.187 2.187 0 0 0-1.184-1.473L17.438.215a2.216 2.216 0 0 0-1.063-.211m.004.844c.348-.02.695.05 1.008.199L28.25 6.234c.57.274.98.79 1.125 1.399l2.684 11.656a2.042 2.042 0 0 1-.403 1.742l-7.515 9.348a2.065 2.065 0 0 1-1.625.773l-12.055.004c-.633 0-1.23-.285-1.621-.773l-7.52-9.348a2.043 2.043 0 0 1-.398-1.742l2.68-11.656a2.068 2.068 0 0 1 1.12-1.399l10.864-5.191c.246-.117.52-.188.793-.2m0 0" fill="rgb(100%, 100%, 100%)"/><path d="M13.352 8.348h11.93v8.382h-11.93Zm0 0h0m0 0h0m0 0h0m0 0h0m0 0h0m0 0h0m0 0h0m0 0" fill="none" stroke="rgb(100%, 100%, 100%)" stroke-dasharray="2.903 2.903" stroke-dashoffset=".9" stroke-linecap="square" stroke-linejoin="round" stroke-miterlimit="10" stroke-width=".968"/><path d="M7.21 23.57h12.938" fill="none" stroke="rgb(100%, 100%, 100%)" stroke-width="1.131"/><path d="M10.54 10.93h11.929v8.379h-11.93Zm0 0h0m0 0h0m0 0h0m0 0h0m0 0h0m0 0h0m0 0h0m0 0" fill="rgb(19.607843%, 42.352941%, 89.803922%)" fill-rule="evenodd" stroke="rgb(100%, 100%, 100%)" stroke-dasharray="2.903 2.903" stroke-dashoffset="1.287" stroke-linecap="square" stroke-linejoin="round" stroke-miterlimit="10" stroke-width=".968"/><path d="M7.723 13.512h11.933v8.379H7.723Zm0 0" fill="none" stroke="rgb(100%, 100%, 100%)" stroke-linejoin="round" stroke-miterlimit="10" stroke-width=".968"/><path d="M7.645 13.543h11.93v8.379H7.644Zm0 0" fill="rgb(100%, 100%, 100%)" fill-rule="evenodd"/></svg>