<svg role="img" viewBox="0 0 33 32" xmlns="http://www.w3.org/2000/svg"><path d="M15.898 0c-.285.02-.566.094-.824.219L3.934 5.523A2.11 2.11 0 0 0 2.78 6.957L.055 18.895a2.05 2.05 0 0 0 .3 1.628c.04.055.079.114.118.168l7.699 9.57c.406.5 1.02.786 1.664.786h12.348c.644 0 1.257-.3 1.664-.793l7.691-9.574c.406-.5.555-1.16.402-1.785L29.195 6.953a2.13 2.13 0 0 0-1.148-1.43L16.922.22A2.2 2.2 0 0 0 15.887 0Zm0 0" fill="rgb(19.607843%, 42.352942%, 89.803922%)"/><path d="M16 4.066a.71.71 0 0 0-.656.743v.187q.029.316.094.633c.058.398.082.805.066 1.207a.8.8 0 0 1-.219.348l-.015.28a8.6 8.6 0 0 0-5.555 2.669l-.242-.168a.53.53 0 0 1-.395-.04 6 6 0 0 1-.894-.812 7 7 0 0 0-.438-.465l-.148-.117a.8.8 0 0 0-.465-.176.65.65 0 0 0-.531.239.71.71 0 0 0 .164.98l.14.102q.264.176.551.324c.356.195.691.43.996.7a.7.7 0 0 1 .137.382l.215.2a8.62 8.62 0 0 0-1.356 6.007l-.281.078a.84.84 0 0 1-.285.29c-.39.1-.793.167-1.195.195a6 6 0 0 0-.641.05l-.176.04h-.02a.67.67 0 0 0-.386 1.132.67.67 0 0 0 .683.164h.012l.18-.02a5 5 0 0 0 .6-.218 6.6 6.6 0 0 1 1.16-.34c.137.008.27.055.383.137l.297-.05a8.65 8.65 0 0 0 3.84 4.8l-.121.258a.7.7 0 0 1 .059.375 6.4 6.4 0 0 1-.602 1.09c-.133.171-.25.351-.36.535l-.081.18a.67.67 0 0 0 .015.699.67.67 0 0 0 1.188-.133l.082-.168q.11-.299.191-.602c.176-.437.274-.906.516-1.195a.55.55 0 0 1 .285-.14l.148-.274a8.6 8.6 0 0 0 6.145.015l.137.258c.132.02.257.094.34.203q.282.54.453 1.122.077.31.195.609l.082.172c.09.234.305.398.555.43.25.027.492-.09.632-.301a.66.66 0 0 0 .016-.7l-.086-.18q-.165-.274-.36-.53a7 7 0 0 1-.597-1.06.5.5 0 0 1 .067-.398 1.4 1.4 0 0 1-.11-.269 8.66 8.66 0 0 0 3.82-4.82l.286.05a.52.52 0 0 1 .367-.136q.598.123 1.168.34c.195.097.394.164.597.23.047.012.118.023.172.035h.012a.67.67 0 0 0 .684-.164.672.672 0 0 0-.387-1.133l-.195-.047a6 6 0 0 0-.637-.046 6 6 0 0 1-1.195-.2.74.74 0 0 1-.29-.289l-.269-.078a8.64 8.64 0 0 0-1.387-5.992l.239-.219a.5.5 0 0 1 .125-.375c.304-.265.636-.5.988-.699q.287-.143.55-.32l.149-.117a.68.68 0 0 0 .313-.645.68.68 0 0 0-.45-.559.66.66 0 0 0-.695.16l-.145.118c-.156.148-.3.3-.437.465-.266.3-.559.578-.875.824a.75.75 0 0 1-.402.043l-.254.18a8.72 8.72 0 0 0-5.535-2.669c0-.101-.012-.25-.012-.296a.53.53 0 0 1-.219-.332c-.02-.403.008-.809.074-1.207.043-.2.075-.418.094-.633v-.2a.71.71 0 0 0-.656-.742Zm-.836 5.164-.2 3.493h-.015a.59.59 0 0 1-.332.504.55.55 0 0 1-.597-.051l-2.864-2.031a6.82 6.82 0 0 1 4.008-1.915m1.668 0a6.95 6.95 0 0 1 4 1.926l-2.836 2.016a.58.58 0 0 1-.617.07.59.59 0 0 1-.336-.523Zm-6.719 3.227 2.621 2.34v.015a.591.591 0 0 1-.23 1.008v.008l-3.363.969a6.85 6.85 0 0 1 .976-4.34Zm11.75 0a7 7 0 0 1 1.004 4.328l-3.367-.969v-.015a.58.58 0 0 1-.418-.434.59.59 0 0 1 .188-.574l2.601-2.328Zm-6.402 2.52h1.074l.652.832-.234 1.039-.965.465-.965-.465-.226-1.04Zm3.434 2.84a.4.4 0 0 1 .136 0l3.465.581a6.8 6.8 0 0 1-2.773 3.493l-1.34-3.243a.59.59 0 0 1 .043-.539.57.57 0 0 1 .465-.277Zm-5.82.015a.587.587 0 0 1 .531.816v.012l-1.333 3.219a6.9 6.9 0 0 1-2.757-3.457l3.437-.582a.6.6 0 0 1 .113 0Zm2.902 1.398a.59.59 0 0 1 .539.31h.011l1.696 3.054-.68.199a6.9 6.9 0 0 1-3.758-.191l1.703-3.059a.59.59 0 0 1 .5-.293Zm0 0" fill="rgb(100%, 100%, 100%)" stroke="rgb(100%, 100%, 100%)" stroke-linecap="round" stroke-linejoin="round" stroke-width=".11"/></svg>