<svg role="img" viewBox="0 0 33 32" height="32" width="33" xmlns="http://www.w3.org/2000/svg"><path d="M15.898 0c-.285.02-.566.094-.824.219L3.934 5.523A2.114 2.114 0 0 0 2.78 6.957L.055 18.895a2.054 2.054 0 0 0 .3 1.628c.04.055.079.114.118.168l7.699 9.57c.406.5 1.02.786 1.664.786h12.348c.644 0 1.257-.3 1.664-.793l7.691-9.574c.406-.5.555-1.16.402-1.785L29.195 6.953a2.132 2.132 0 0 0-1.148-1.43L16.922.22A2.196 2.196 0 0 0 15.887 0Zm0 0" fill="rgb(19.607843%, 42.352941%, 89.803922%)"/><path d="M16 4.066a.71.71 0 0 0-.656.743v.187c.02.211.05.422.094.633.058.398.082.805.066 1.207a.812.812 0 0 1-.219.348l-.015.28a8.585 8.585 0 0 0-5.555 2.669l-.242-.168a.532.532 0 0 1-.395-.04 6.089 6.089 0 0 1-.894-.812 7.001 7.001 0 0 0-.438-.465l-.148-.117a.813.813 0 0 0-.465-.176.65.65 0 0 0-.531.239.712.712 0 0 0 .164.98l.14.102c.176.117.36.226.551.324.356.195.691.43.996.7a.723.723 0 0 1 .137.382l.215.2a8.618 8.618 0 0 0-1.356 6.007l-.281.078a.841.841 0 0 1-.285.29c-.39.1-.793.167-1.195.195a5.82 5.82 0 0 0-.641.05l-.176.04h-.02a.67.67 0 0 0-.386 1.132.67.67 0 0 0 .683.164h.012l.18-.02c.203-.062.406-.132.601-.218a6.591 6.591 0 0 1 1.16-.34c.137.008.27.055.383.137l.297-.05a8.646 8.646 0 0 0 3.84 4.8l-.121.258a.687.687 0 0 1 .059.375 6.437 6.437 0 0 1-.602 1.09c-.133.171-.25.351-.36.535l-.081.18a.663.663 0 0 0 .015.699.67.67 0 0 0 .633.3.68.68 0 0 0 .555-.433l.082-.168c.074-.2.136-.399.191-.602.176-.437.274-.906.516-1.195a.563.563 0 0 1 .285-.14l.148-.274a8.608 8.608 0 0 0 6.145.015l.137.258c.132.02.257.094.34.203.187.36.34.735.453 1.122.05.207.117.41.195.609l.082.172c.09.234.305.398.555.43.25.027.492-.09.632-.301a.663.663 0 0 0 .016-.7l-.086-.18a5.88 5.88 0 0 0-.36-.53 7.072 7.072 0 0 1-.597-1.06.495.495 0 0 1 .067-.398 1.345 1.345 0 0 1-.11-.269 8.664 8.664 0 0 0 3.82-4.82l.286.05a.49.49 0 0 1 .367-.136c.398.082.789.195 1.168.34.195.097.394.164.597.23.047.012.118.023.172.035h.012a.67.67 0 0 0 .684-.164.668.668 0 0 0 .152-.683.666.666 0 0 0-.54-.45l-.194-.047a5.747 5.747 0 0 0-.637-.046 6.212 6.212 0 0 1-1.195-.2.735.735 0 0 1-.29-.289l-.269-.078a8.642 8.642 0 0 0-1.387-5.992l.239-.219a.505.505 0 0 1 .125-.375c.304-.265.636-.5.988-.699.191-.094.375-.203.55-.32l.149-.117a.675.675 0 0 0 .313-.645.68.68 0 0 0-.45-.559.665.665 0 0 0-.695.16l-.145.118c-.156.148-.3.3-.437.465-.266.3-.559.578-.875.824a.745.745 0 0 1-.402.043l-.254.18a8.715 8.715 0 0 0-5.535-2.669c0-.101-.012-.25-.012-.296a.526.526 0 0 1-.219-.332c-.02-.403.008-.809.074-1.207.043-.2.075-.418.094-.633v-.2a.715.715 0 0 0-.656-.742Zm-.836 5.164-.2 3.493h-.015a.593.593 0 0 1-.332.504.554.554 0 0 1-.597-.051l-2.864-2.031a6.823 6.823 0 0 1 4.008-1.915m1.668 0a6.945 6.945 0 0 1 4 1.926l-2.836 2.016a.581.581 0 0 1-.617.07.592.592 0 0 1-.336-.523Zm-6.719 3.227 2.621 2.34v.015c.16.145.23.364.18.57a.577.577 0 0 1-.41.438v.008l-3.363.969a6.828 6.828 0 0 1 .976-4.34Zm11.75 0a6.996 6.996 0 0 1 1.004 4.328l-3.367-.969v-.015a.576.576 0 0 1-.418-.434.589.589 0 0 1 .188-.574l2.601-2.328Zm-6.402 2.52h1.074l.652.832-.234 1.039-.965.465-.965-.465-.226-1.04Zm3.434 2.84a.402.402 0 0 1 .136 0l3.465.581a6.79 6.79 0 0 1-2.773 3.493l-1.34-3.243a.585.585 0 0 1 .043-.539.57.57 0 0 1 .465-.277Zm-5.82.015a.604.604 0 0 1 .484.266.587.587 0 0 1 .046.55v.012l-1.332 3.219a6.919 6.919 0 0 1-2.757-3.457l3.437-.582a.549.549 0 0 1 .113 0Zm2.902 1.398a.592.592 0 0 1 .539.31h.011l1.696 3.054-.68.199a6.91 6.91 0 0 1-3.758-.191l1.703-3.059a.59.59 0 0 1 .5-.293Zm0 0" fill="rgb(100%, 100%, 100%)" stroke="rgb(100%, 100%, 100%)" stroke-linecap="round" stroke-linejoin="round" stroke-width=".11"/></svg>