<?xml version="1.0" encoding="UTF-8"?>
<svg xmlns="http://www.w3.org/2000/svg" xmlns:xlink="http://www.w3.org/1999/xlink" width="33" height="32" viewBox="0 0 33 32">
<path fill-rule="nonzero" fill="rgb(19.607843%, 42.352942%, 89.803922%)" fill-opacity="1" d="M 15.898438 0 C 15.613281 0.0195312 15.332031 0.09375 15.074219 0.21875 L 3.933594 5.523438 C 3.351562 5.800781 2.925781 6.328125 2.78125 6.957031 L 0.0546875 18.894531 C -0.078125 19.457031 0.03125 20.046875 0.355469 20.523438 C 0.394531 20.578125 0.433594 20.636719 0.472656 20.691406 L 8.171875 30.261719 C 8.578125 30.761719 9.191406 31.046875 9.835938 31.046875 L 22.183594 31.046875 C 22.828125 31.046875 23.441406 30.746094 23.847656 30.253906 L 31.539062 20.679688 C 31.945312 20.179688 32.09375 19.519531 31.941406 18.894531 L 29.195312 6.953125 C 29.046875 6.328125 28.625 5.800781 28.046875 5.523438 L 16.921875 0.21875 C 16.601562 0.0625 16.246094 -0.0117188 15.886719 0 Z M 15.898438 0 "/>
<path fill-rule="nonzero" fill="rgb(100%, 100%, 100%)" fill-opacity="1" stroke-width="0.88" stroke-linecap="round" stroke-linejoin="round" stroke="rgb(100%, 100%, 100%)" stroke-opacity="1" stroke-miterlimit="4" d="M 128 32.53125 C 124.9375 32.75 122.59375 35.40625 122.75 38.46875 L 122.75 39.96875 C 122.90625 41.65625 123.15625 43.34375 123.5 45.03125 C 123.96875 48.21875 124.15625 51.46875 124.03125 54.6875 C 123.71875 55.75 123.09375 56.71875 122.28125 57.46875 L 122.15625 59.71875 C 105.21875 61.09375 89.375 68.6875 77.71875 81.0625 L 75.78125 79.71875 C 74.71875 80.03125 73.59375 79.90625 72.625 79.40625 C 70.03125 77.46875 67.625 75.3125 65.46875 72.90625 C 64.375 71.625 63.1875 70.375 61.96875 69.1875 L 60.78125 68.25 C 59.71875 67.40625 58.40625 66.90625 57.0625 66.84375 C 55.4375 66.78125 53.84375 67.46875 52.8125 68.75 C 51.03125 71.28125 51.625 74.78125 54.125 76.59375 L 55.25 77.40625 C 56.65625 78.34375 58.125 79.21875 59.65625 80 C 62.5 81.5625 65.1875 83.4375 67.625 85.59375 C 68.28125 86.5 68.65625 87.5625 68.71875 88.65625 L 70.4375 90.25 C 61.03125 104.40625 57.15625 121.5 59.59375 138.3125 L 57.34375 138.9375 C 56.78125 139.875 56 140.6875 55.0625 141.25 C 51.9375 142.0625 48.71875 142.59375 45.5 142.8125 C 43.78125 142.84375 42.0625 143 40.375 143.21875 L 38.96875 143.53125 L 38.8125 143.53125 C 36.8125 143.8125 35.125 145.1875 34.46875 147.125 C 33.8125 149.03125 34.3125 151.15625 35.71875 152.59375 C 37.15625 154.03125 39.25 154.53125 41.1875 153.90625 L 41.28125 153.90625 L 42.71875 153.75 C 44.34375 153.28125 45.96875 152.6875 47.53125 152 C 50.53125 150.8125 53.625 149.90625 56.8125 149.28125 C 57.90625 149.34375 58.96875 149.71875 59.875 150.375 L 62.25 149.96875 C 67.4375 166.09375 78.375 179.78125 92.96875 188.375 L 92 190.4375 C 92.4375 191.375 92.59375 192.40625 92.46875 193.4375 C 91.15625 196.5 89.53125 199.40625 87.65625 202.15625 C 86.59375 203.53125 85.65625 204.96875 84.78125 206.4375 L 84.125 207.875 C 83.125 209.625 83.15625 211.78125 84.25 213.46875 C 85.34375 215.15625 87.3125 216.09375 89.3125 215.875 C 91.3125 215.65625 93.03125 214.3125 93.75 212.40625 L 94.40625 211.0625 C 95 209.46875 95.5 207.875 95.9375 206.25 C 97.34375 202.75 98.125 199 100.0625 196.6875 C 100.6875 196.09375 101.46875 195.71875 102.34375 195.5625 L 103.53125 193.375 C 119.34375 199.46875 136.84375 199.5 152.6875 193.5 L 153.78125 195.5625 C 154.84375 195.71875 155.84375 196.3125 156.5 197.1875 C 158 200.0625 159.21875 203.0625 160.125 206.15625 C 160.53125 207.8125 161.0625 209.4375 161.6875 211.03125 L 162.34375 212.40625 C 163.0625 214.28125 164.78125 215.59375 166.78125 215.84375 C 168.78125 216.0625 170.71875 215.125 171.84375 213.4375 C 172.9375 211.75 173 209.59375 171.96875 207.84375 L 171.28125 206.40625 C 170.40625 204.9375 169.4375 203.53125 168.40625 202.15625 C 166.5625 199.46875 164.96875 196.65625 163.625 193.6875 C 163.34375 192.59375 163.53125 191.4375 164.15625 190.5 C 163.78125 189.8125 163.5 189.09375 163.28125 188.34375 C 177.84375 179.65625 188.71875 165.9375 193.84375 149.78125 L 196.125 150.1875 C 196.9375 149.4375 198 149.0625 199.0625 149.09375 C 202.25 149.75 205.375 150.65625 208.40625 151.8125 C 209.96875 152.59375 211.5625 153.125 213.1875 153.65625 C 213.5625 153.75 214.125 153.84375 214.5625 153.9375 L 214.65625 153.9375 C 216.5625 154.5625 218.6875 154.0625 220.125 152.625 C 221.53125 151.1875 222 149.0625 221.34375 147.15625 C 220.6875 145.25 219.03125 143.84375 217.03125 143.5625 L 215.46875 143.1875 C 213.78125 142.96875 212.0625 142.84375 210.375 142.8125 C 207.125 142.59375 203.9375 142.0625 200.8125 141.21875 C 199.84375 140.6875 199.03125 139.875 198.5 138.90625 L 196.34375 138.28125 C 198.65625 121.46875 194.6875 104.40625 185.25 90.34375 L 187.15625 88.59375 C 187.0625 87.5 187.4375 86.40625 188.15625 85.59375 C 190.59375 83.46875 193.25 81.59375 196.0625 80 C 197.59375 79.25 199.0625 78.375 200.46875 77.4375 L 201.65625 76.5 C 203.40625 75.40625 204.375 73.40625 204.15625 71.34375 C 203.90625 69.28125 202.5 67.5625 200.5625 66.875 C 198.59375 66.1875 196.4375 66.6875 195 68.15625 L 193.84375 69.09375 C 192.59375 70.28125 191.4375 71.5 190.34375 72.8125 C 188.21875 75.21875 185.875 77.4375 183.34375 79.40625 C 182.3125 79.8125 181.21875 79.9375 180.125 79.75 L 178.09375 81.1875 C 166.40625 68.9375 150.65625 61.34375 133.8125 59.84375 C 133.8125 59.03125 133.71875 57.84375 133.71875 57.46875 C 132.8125 56.84375 132.1875 55.90625 131.96875 54.8125 C 131.8125 51.59375 132.03125 48.34375 132.5625 45.15625 C 132.90625 43.5625 133.15625 41.8125 133.3125 40.09375 L 133.3125 38.5 C 133.46875 35.40625 131.125 32.78125 128.0625 32.5625 Z M 121.3125 73.84375 L 119.71875 101.78125 L 119.59375 101.78125 C 119.5 103.5 118.5 105.0625 116.9375 105.8125 C 115.40625 106.625 113.53125 106.46875 112.15625 105.40625 L 89.25 89.15625 C 97.9375 80.625 109.21875 75.21875 121.3125 73.84375 M 134.65625 73.84375 C 146.71875 75.34375 157.96875 80.75 166.65625 89.25 L 143.96875 105.375 C 142.5625 106.5 140.65625 106.71875 139.03125 105.9375 C 137.40625 105.15625 136.375 103.53125 136.34375 101.75 Z M 80.90625 99.65625 L 101.875 118.375 L 101.875 118.5 C 103.15625 119.625 103.71875 121.40625 103.34375 123.0625 C 102.96875 124.75 101.6875 126.09375 100.03125 126.5625 L 100.03125 126.625 L 73.125 134.375 C 71.8125 122.25 74.53125 110.03125 80.9375 99.65625 Z M 174.90625 99.65625 C 181.28125 110.03125 184.09375 122.1875 182.9375 134.28125 L 156 126.53125 L 156 126.40625 C 154.3125 125.96875 153.03125 124.625 152.65625 122.9375 C 152.28125 121.25 152.84375 119.46875 154.15625 118.34375 L 174.96875 99.71875 Z M 123.6875 119.8125 L 132.28125 119.8125 L 137.5 126.46875 L 135.625 134.78125 L 127.90625 138.5 L 120.1875 134.78125 L 118.375 126.46875 Z M 151.15625 142.53125 C 151.53125 142.46875 151.875 142.46875 152.25 142.53125 L 179.96875 147.1875 C 175.9375 158.71875 168.125 168.5625 157.78125 175.125 L 147.0625 149.1875 C 146.46875 147.78125 146.59375 146.15625 147.40625 144.875 C 148.1875 143.5625 149.59375 142.71875 151.125 142.65625 Z M 104.59375 142.65625 C 106.15625 142.6875 107.625 143.46875 108.46875 144.78125 C 109.3125 146.09375 109.46875 147.75 108.84375 149.1875 L 108.84375 149.28125 L 98.1875 175.03125 C 88 168.5 80.25 158.78125 76.125 147.375 L 103.625 142.71875 C 103.9375 142.6875 104.21875 142.6875 104.53125 142.71875 Z M 127.8125 153.84375 C 129.59375 153.78125 131.28125 154.75 132.125 156.3125 L 132.21875 156.3125 L 145.78125 180.75 L 140.34375 182.34375 C 130.375 184.625 119.96875 184.09375 110.28125 180.8125 L 123.90625 156.34375 C 124.71875 154.90625 126.25 154.03125 127.90625 154 Z M 127.8125 153.84375 " transform="matrix(0.125, 0, 0, 0.125, 0, 0)"/>
</svg>
