<?xml version="1.0" encoding="UTF-8"?>
<svg xmlns="http://www.w3.org/2000/svg" xmlns:xlink="http://www.w3.org/1999/xlink" width="36.117382" height="32" viewBox="0 0 36.117382 32">
<path fill-rule="evenodd" fill="rgb(30.196078%, 35.294118%, 61.960784%)" fill-opacity="1" stroke-width="1" stroke-linecap="butt" stroke-linejoin="miter" stroke="rgb(30.196078%, 35.294118%, 61.960784%)" stroke-opacity="1" stroke-miterlimit="4" d="M 237.723016 0 C 314.674757 0 377.025676 62.404996 377.025676 139.356736 L 377.025676 336.359682 L 442.621221 336.359682 C 474.310413 336.359682 499.997045 362.046313 499.997045 393.735505 L 499.997045 442.999761 L 492.480325 442.999761 C 474.202259 442.999761 459.385128 428.398939 459.006588 410.17495 L 459.006588 401.576688 C 458.79028 388.165562 447.866702 377.350138 434.401499 377.350138 L 106.531925 377.350138 C 47.696019 377.350138 0 329.654119 0 270.818213 L 0 139.356736 C 0 62.404996 62.404996 0 139.356736 0 Z M 229.503294 41.044534 L 145.791914 41.044534 C 87.767165 41.963845 40.990456 89.335401 40.990456 147.576458 L 40.990456 271.845679 C 41.585305 307.590654 70.678795 336.359682 106.531925 336.359682 L 270.493751 336.359682 C 306.72542 336.359682 336.089296 306.995806 336.089296 270.764136 L 336.089296 147.576458 L 336.035219 145.791914 C 335.115908 87.767165 287.744352 41.044534 229.503294 41.044534 Z M 147.846844 106.640079 C 157.202186 106.640079 164.610751 114.264953 164.610751 123.89068 L 164.610751 173.857938 L 221.391726 115.238341 C 228.746214 108.370547 238.858636 107.883853 245.996816 114.535339 L 245.996816 114.751647 C 252.86461 121.186824 252.377916 131.731863 244.753042 138.653734 L 202.681043 181.969506 L 251.620836 251.837144 C 257.515242 260.489483 255.838851 271.304907 247.943592 276.442234 C 239.34533 281.363252 229.503294 278.659396 223.608888 270.061134 L 179.590113 205.601207 L 164.610751 221.337649 L 164.610751 261.67918 C 164.610751 271.521216 157.202186 278.929781 147.846844 278.929781 C 138.54558 278.929781 131.137014 271.521216 131.137014 261.67918 L 131.137014 123.89068 C 131.137014 114.264953 138.54558 106.640079 147.846844 106.640079 Z M 147.846844 106.640079 " transform="matrix(0.0722348, 0, 0, 0.0722348, 0, 0)"/>
</svg>
