<?xml version="1.0" encoding="UTF-8"?>
<svg xmlns="http://www.w3.org/2000/svg" xmlns:xlink="http://www.w3.org/1999/xlink" width="36.117381" height="32" viewBox="0 0 36.117381 32">
<path fill-rule="evenodd" fill="rgb(30.196078%, 35.294118%, 61.960784%)" fill-opacity="1" stroke-width="1" stroke-linecap="butt" stroke-linejoin="miter" stroke="rgb(30.196078%, 35.294118%, 61.960784%)" stroke-opacity="1" stroke-miterlimit="4" d="M 237.723145 0 C 314.674927 0 377.025879 62.405029 377.025879 139.356812 L 377.025879 336.359863 L 442.62146 336.359863 C 474.310669 336.359863 499.997314 362.046509 499.997314 393.735718 L 499.997314 443 L 492.480591 443 C 474.202515 443 459.385376 428.39917 459.006836 410.175171 L 459.006836 401.576904 C 458.790527 388.165771 447.866943 377.350342 434.401733 377.350342 L 106.531982 377.350342 C 47.696045 377.350342 0 329.654297 0 270.818359 L 0 139.356812 C 0 62.405029 62.405029 0 139.356812 0 Z M 229.503418 41.044556 L 145.791992 41.044556 C 87.767212 41.963867 40.990479 89.335449 40.990479 147.576538 L 40.990479 271.845825 C 41.585327 307.59082 70.678833 336.359863 106.531982 336.359863 L 270.493896 336.359863 C 306.725586 336.359863 336.089478 306.995972 336.089478 270.764282 L 336.089478 147.576538 L 336.0354 145.791992 C 335.116089 87.767212 287.744507 41.044556 229.503418 41.044556 Z M 147.846924 106.640137 C 157.202271 106.640137 164.61084 114.265015 164.61084 123.890747 L 164.61084 173.858032 L 221.391846 115.238403 C 228.746338 108.370605 238.858765 107.883911 245.996948 114.5354 L 245.996948 114.751709 C 252.864746 121.18689 252.378052 131.731934 244.753174 138.653809 L 202.681152 181.969604 L 251.620972 251.83728 C 257.515381 260.489624 255.838989 271.305054 247.943726 276.442383 C 239.345459 281.363403 229.503418 278.659546 223.609009 270.061279 L 179.59021 205.601318 L 164.61084 221.337769 L 164.61084 261.679321 C 164.61084 271.521362 157.202271 278.929932 147.846924 278.929932 C 138.545654 278.929932 131.137085 271.521362 131.137085 261.679321 L 131.137085 123.890747 C 131.137085 114.265015 138.545654 106.640137 147.846924 106.640137 Z M 147.846924 106.640137 " transform="matrix(0.0722348, 0, 0, 0.0722348, 0, 0)"/>
</svg>
