<?xml version="1.0" encoding="UTF-8"?>
<svg xmlns="http://www.w3.org/2000/svg" xmlns:xlink="http://www.w3.org/1999/xlink" width="32" height="32" viewBox="0 0 32 32">
<path fill-rule="nonzero" fill="rgb(14.901961%, 0%, 100%)" fill-opacity="1" d="M 30.0625 31.980469 L 1.9375 31.980469 C 0.867188 31.976562 0 31.109375 0 30.039062 L 0 1.941406 C 0 0.867188 0.867188 0 1.941406 0 L 30.0625 0 C 31.132812 0 32 0.871094 32 1.941406 L 32 30.039062 C 32.003906 30.554688 31.800781 31.050781 31.433594 31.414062 C 31.070312 31.777344 30.574219 31.984375 30.0625 31.980469 "/>
<path fill-rule="nonzero" fill="rgb(100%, 100%, 100%)" fill-opacity="1" d="M 8.332031 5.144531 C 7.164062 5.144531 6.214844 6.09375 6.214844 7.261719 L 6.214844 24.636719 C 6.214844 25.808594 7.164062 26.753906 8.332031 26.753906 C 9.5 26.753906 10.449219 25.808594 10.449219 24.636719 L 10.449219 7.261719 C 10.46875 6.09375 9.519531 5.144531 8.332031 5.144531 M 23.765625 5.144531 C 23.273438 5.144531 22.816406 5.324219 22.441406 5.660156 L 18.523438 9.222656 L 18.464844 9.28125 L 11.914062 15.21875 C 11.675781 15.417969 11.417969 15.652344 11.417969 15.988281 C 11.417969 16.425781 11.714844 16.683594 11.992188 16.902344 C 12.050781 16.960938 12.132812 17.019531 12.191406 17.058594 L 16.820312 21.054688 L 22.441406 26.28125 C 22.855469 26.636719 23.371094 26.816406 23.90625 26.753906 C 24.441406 26.695312 24.933594 26.4375 25.273438 26.003906 C 25.984375 25.113281 25.863281 23.789062 25.015625 23.054688 L 17.21875 15.949219 L 21.015625 12.507812 C 21.066406 12.472656 21.113281 12.433594 21.15625 12.386719 L 25.09375 8.804688 C 25.925781 8.054688 26.023438 6.726562 25.292969 5.859375 C 24.933594 5.441406 24.441406 5.183594 23.90625 5.144531 Z M 23.765625 5.144531 "/>
</svg>
