<?xml version="1.0" encoding="UTF-8"?>
<svg xmlns="http://www.w3.org/2000/svg" xmlns:xlink="http://www.w3.org/1999/xlink" width="32" height="32" viewBox="0 0 32 32">
<defs>
<linearGradient id="linear-pattern-0" gradientUnits="userSpaceOnUse" x1="-43.553902" y1="251.817001" x2="-43.553902" y2="252.817001" gradientTransform="matrix(518.533997, 0, 0, 494.873199, 22858.648438, -124602.390625)">
<stop offset="0" stop-color="rgb(44.313725%, 60.784314%, 91.764706%)" stop-opacity="1"/>
<stop offset="1" stop-color="rgb(32.941176%, 47.058824%, 87.843137%)" stop-opacity="1"/>
</linearGradient>
</defs>
<path fill="none" stroke-width="30" stroke-linecap="butt" stroke-linejoin="miter" stroke="url(#linear-pattern-0)" stroke-miterlimit="4" d="M 486.232056 120.88208 C 484.324707 115.46521 479.899658 110.582397 473.796143 107.301758 L 282.832397 16.664551 L 282.67981 16.588257 C 280.619873 15.596436 277.568115 15.062378 273.677124 15.062378 C 270.091309 15.062378 268.56543 15.062378 266.734375 15.214966 C 265.208496 15.29126 263.911499 15.367554 262.919678 15.596436 L 73.100342 106.233643 L 72.87146 106.309937 C 67.530884 108.827637 63.79248 113.176392 62.419189 119.127319 L 15.498413 322.832153 C 14.506592 329.011963 15.879883 335.191772 19.618286 340.532349 L 151.072754 501.512573 C 156.03186 506.09021 162.898315 509.218262 169.383301 509.676025 L 380.488647 509.676025 L 381.327881 509.828613 C 387.126221 510.362671 392.619385 507.921265 396.510376 502.733276 L 396.662964 502.428101 L 529.032959 340.379761 C 532.618774 335.191772 534.297241 328.783081 533.610596 322.221802 C 533.610596 322.37439 486.232056 120.88208 486.232056 120.88208 Z M 486.232056 120.88208 " transform="matrix(0.0512, 0, 0, 0.0512, 1.8432, 2.6624)"/>
<path fill-rule="nonzero" fill="rgb(19.607843%, 42.745098%, 90.196078%)" fill-opacity="1" d="M 24.421875 28.3125 C 24.421875 29.417969 23.527344 30.308594 22.425781 30.308594 C 21.324219 30.308594 20.429688 29.417969 20.429688 28.3125 C 20.429688 27.210938 21.324219 26.316406 22.425781 26.316406 C 23.527344 26.316406 24.421875 27.210938 24.421875 28.3125 Z M 24.421875 28.3125 "/>
<path fill-rule="nonzero" fill="rgb(19.607843%, 42.745098%, 90.196078%)" fill-opacity="1" d="M 12.03125 28.3125 C 12.03125 29.417969 11.136719 30.308594 10.035156 30.308594 C 8.933594 30.308594 8.039062 29.417969 8.039062 28.3125 C 8.039062 27.210938 8.933594 26.316406 10.035156 26.316406 C 11.136719 26.316406 12.03125 27.210938 12.03125 28.3125 Z M 12.03125 28.3125 "/>
<path fill-rule="nonzero" fill="rgb(19.607843%, 42.745098%, 90.196078%)" fill-opacity="1" d="M 17.714844 3.738281 C 17.714844 4.839844 16.820312 5.734375 15.71875 5.734375 C 14.617188 5.734375 13.722656 4.839844 13.722656 3.738281 C 13.722656 2.636719 14.617188 1.742188 15.71875 1.742188 C 16.820312 1.742188 17.714844 2.636719 17.714844 3.738281 Z M 17.714844 3.738281 "/>
<path fill-rule="nonzero" fill="rgb(19.607843%, 42.745098%, 90.196078%)" fill-opacity="1" d="M 28.519531 8.449219 C 28.519531 9.550781 27.625 10.445312 26.523438 10.445312 C 25.417969 10.445312 24.523438 9.550781 24.523438 8.449219 C 24.523438 7.34375 25.417969 6.453125 26.523438 6.453125 C 27.625 6.453125 28.519531 7.34375 28.519531 8.449219 Z M 28.519531 8.449219 "/>
<path fill-rule="nonzero" fill="rgb(19.607843%, 42.745098%, 90.196078%)" fill-opacity="1" d="M 7.117188 8.449219 C 7.117188 9.550781 6.222656 10.445312 5.121094 10.445312 C 4.015625 10.445312 3.125 9.550781 3.125 8.449219 C 3.125 7.34375 4.015625 6.453125 5.121094 6.453125 C 6.222656 6.453125 7.117188 7.34375 7.117188 8.449219 Z M 7.117188 8.449219 "/>
<path fill-rule="nonzero" fill="rgb(19.607843%, 42.745098%, 90.196078%)" fill-opacity="1" d="M 31.027344 19.660156 C 31.027344 20.761719 30.132812 21.65625 29.03125 21.65625 C 27.925781 21.65625 27.035156 20.761719 27.035156 19.660156 C 27.035156 18.558594 27.925781 17.664062 29.03125 17.664062 C 30.132812 17.664062 31.027344 18.558594 31.027344 19.660156 Z M 31.027344 19.660156 "/>
<path fill-rule="nonzero" fill="rgb(19.607843%, 42.745098%, 90.196078%)" fill-opacity="1" d="M 5.019531 19.660156 C 5.019531 20.761719 4.125 21.65625 3.019531 21.65625 C 1.917969 21.65625 1.023438 20.761719 1.023438 19.660156 C 1.023438 18.558594 1.917969 17.664062 3.019531 17.664062 C 4.125 17.664062 5.019531 18.558594 5.019531 19.660156 Z M 5.019531 19.660156 "/>
<path fill-rule="nonzero" fill="rgb(19.607843%, 42.745098%, 90.196078%)" fill-opacity="1" d="M 10.023438 18.789062 L 8.847656 16.6875 L 8.492188 17.050781 L 8.492188 18.789062 L 7.574219 18.789062 L 7.574219 14.1875 L 8.492188 14.1875 L 8.492188 15.671875 L 9.839844 14.1875 L 11.085938 14.1875 L 9.472656 15.988281 L 11.121094 18.789062 Z M 15.140625 14.1875 L 15.140625 15.109375 L 12.066406 15.109375 L 12.066406 14.1875 Z M 12.066406 16.878906 L 12.066406 15.960938 L 14.613281 15.960938 L 14.613281 16.878906 Z M 12.066406 18.796875 L 12.066406 17.875 L 15.121094 17.875 L 15.121094 18.796875 Z M 16.082031 14.1875 L 17.382812 14.1875 C 17.992188 14.183594 18.574219 14.421875 19.003906 14.859375 C 19.21875 15.066406 19.382812 15.320312 19.496094 15.59375 C 19.742188 16.167969 19.742188 16.820312 19.496094 17.386719 C 19.382812 17.664062 19.21875 17.910156 19.003906 18.113281 C 18.574219 18.542969 17.992188 18.789062 17.382812 18.789062 L 16.082031 18.789062 Z M 17.003906 17.875 L 17.386719 17.875 C 18.152344 17.863281 18.765625 17.234375 18.753906 16.472656 C 18.746094 15.722656 18.140625 15.113281 17.386719 15.105469 L 17.003906 15.105469 Z M 22.257812 14.1875 L 22.527344 14.1875 L 24.703125 18.796875 L 23.683594 18.796875 L 22.371094 15.996094 L 20.941406 18.796875 L 19.90625 18.796875 Z M 22.257812 14.1875 "/>
<path fill-rule="nonzero" fill="rgb(100%, 100%, 100%)" fill-opacity="1" stroke-width="1" stroke-linecap="butt" stroke-linejoin="miter" stroke="rgb(19.607843%, 42.745098%, 90.196078%)" stroke-opacity="1" stroke-miterlimit="10" d="M 426.70105 329.311768 L 431.583862 320.614258 L 412.815552 320.614258 L 418.38501 281.628052 L 418.079834 281.0177 L 388.325195 335.033813 L 387.409668 336.635986 L 406.483154 336.407104 L 401.524048 374.935547 L 401.600342 375.393311 L 424.717407 333.126465 Z M 426.70105 329.311768 " transform="matrix(0.0512, 0, 0, 0.0512, 1.024, 1.7408)"/>
<path fill-rule="nonzero" fill="rgb(19.607843%, 42.745098%, 90.196078%)" fill-opacity="1" d="M 22.769531 18.796875 L 23.121094 18.15625 L 22.160156 18.15625 L 22.460938 16.082031 L 20.960938 18.796875 L 20.632812 18.796875 L 22.375 15.535156 L 24.109375 18.796875 Z M 22.769531 18.796875 "/>
</svg>
