<?xml version="1.0" encoding="UTF-8"?>
<svg xmlns="http://www.w3.org/2000/svg" xmlns:xlink="http://www.w3.org/1999/xlink" width="80.929994" height="32" viewBox="0 0 80.929994 32">
<path fill-rule="nonzero" fill="rgb(19.607843%, 42.745098%, 90.196078%)" fill-opacity="1" d="M 11.585938 21.746094 L 6.023438 11.804688 L 4.355469 13.519531 L 4.355469 21.746094 L 0 21.746094 L 0 0 L 4.355469 0 L 4.355469 7.015625 L 10.714844 0 L 16.59375 0 L 8.972656 8.515625 L 16.761719 21.746094 Z M 35.75 0 L 35.75 4.355469 L 21.234375 4.355469 L 21.234375 0 Z M 21.234375 12.722656 L 21.234375 8.371094 L 33.257812 8.371094 L 33.257812 12.722656 Z M 21.234375 21.769531 L 21.234375 17.414062 L 35.652344 17.414062 L 35.652344 21.769531 Z M 40.199219 0 L 46.34375 0 C 49.222656 -0.0234375 51.976562 1.113281 54.011719 3.167969 C 55.027344 4.160156 55.800781 5.347656 56.332031 6.652344 C 57.492188 9.359375 57.492188 12.433594 56.332031 15.117188 C 55.800781 16.421875 55.027344 17.585938 54.011719 18.550781 C 51.976562 20.582031 49.222656 21.746094 46.34375 21.746094 L 40.199219 21.746094 Z M 44.550781 17.414062 L 46.367188 17.414062 C 49.96875 17.367188 52.871094 14.390625 52.824219 10.789062 C 52.777344 7.257812 49.921875 4.378906 46.367188 4.328125 L 44.550781 4.328125 Z M 69.367188 0 L 70.652344 0 L 80.929688 21.769531 L 76.117188 21.769531 L 69.902344 8.539062 L 63.152344 21.769531 L 58.265625 21.769531 Z M 69.367188 0 "/>
<path fill-rule="nonzero" fill="rgb(100%, 100%, 100%)" fill-opacity="1" stroke-width="1" stroke-linecap="butt" stroke-linejoin="miter" stroke="rgb(19.607843%, 42.745098%, 90.196078%)" stroke-opacity="1" stroke-miterlimit="10" d="M 426.693858 329.307544 L 431.603503 320.602648 L 412.804732 320.602648 L 418.392683 281.600192 L 418.10198 281.002639 L 388.30496 334.992374 L 387.400551 336.607382 L 406.506175 336.397431 L 401.49963 374.899234 L 401.59653 375.399887 L 424.70739 333.102814 Z M 426.693858 329.307544 " transform="matrix(0.241871, 0, 0, 0.241872, -30.935282, -58.798642)"/>
<path fill-rule="nonzero" fill="rgb(19.607843%, 42.745098%, 90.196078%)" fill-opacity="1" d="M 71.789062 21.769531 L 73.457031 18.746094 L 68.910156 18.746094 L 70.335938 8.949219 L 63.25 21.769531 L 61.703125 21.769531 L 69.925781 6.363281 L 78.125 21.769531 Z M 71.789062 21.769531 "/>
</svg>
