<?xml version="1.0" encoding="UTF-8"?>
<svg xmlns="http://www.w3.org/2000/svg" xmlns:xlink="http://www.w3.org/1999/xlink" width="32" height="32" viewBox="0 0 32 32">
<path fill-rule="nonzero" fill="rgb(30.196078%, 30.196078%, 30.196078%)" fill-opacity="1" d="M 27.101562 9.328125 C 27.011719 9.328125 26.933594 9.285156 26.886719 9.203125 L 23.175781 2.761719 C 23.132812 2.6875 23.050781 2.636719 22.957031 2.636719 L 7.808594 2.636719 C 7.71875 2.636719 7.636719 2.679688 7.59375 2.761719 L 3.726562 9.4375 L 5.21875 11.617188 C 5.175781 11.691406 4.832031 13.117188 4.875 13.191406 L 3.726562 22.5625 L 7.59375 29.242188 C 7.636719 29.316406 7.71875 29.367188 7.808594 29.367188 L 22.957031 29.367188 C 23.042969 29.367188 23.125 29.324219 23.175781 29.242188 L 26.886719 22.792969 C 26.933594 22.71875 27.011719 22.667969 27.101562 22.667969 L 31.714844 22.667969 C 31.863281 22.667969 31.988281 22.542969 31.988281 22.390625 L 31.988281 9.605469 C 31.988281 9.453125 31.863281 9.328125 31.714844 9.328125 Z M 27.101562 9.328125 "/>
<path fill-rule="nonzero" fill="rgb(88.235294%, 88.235294%, 88.235294%)" fill-opacity="1" d="M 4.589844 15.335938 L 0.445312 16.84375 L 0.03125 16.136719 C -0.0117188 16.0625 -0.0117188 15.96875 0.03125 15.890625 L 1.90625 12.640625 Z M 4.589844 15.335938 "/>
<path fill-rule="nonzero" fill="rgb(78.431373%, 78.431373%, 78.431373%)" fill-opacity="1" d="M 32 16.148438 L 32 19.316406 L 29.269531 16.535156 Z M 32 16.148438 "/>
<path fill-rule="nonzero" fill="rgb(76.078431%, 76.078431%, 76.078431%)" fill-opacity="1" d="M 29.261719 16.535156 L 31.996094 19.316406 L 31.996094 22.417969 C 31.996094 22.566406 31.871094 22.691406 31.71875 22.691406 L 28.542969 22.691406 Z M 29.261719 16.535156 "/>
<path fill-rule="nonzero" fill="rgb(78.039216%, 78.039216%, 78.039216%)" fill-opacity="1" d="M 29.261719 16.535156 L 28.542969 22.6875 L 24.71875 22.6875 L 23.5625 19.890625 Z M 29.261719 16.535156 "/>
<path fill-rule="nonzero" fill="rgb(80.784314%, 80.784314%, 80.784314%)" fill-opacity="1" d="M 32 13.203125 L 32 16.140625 L 29.269531 16.53125 Z M 32 13.203125 "/>
<path fill-rule="nonzero" fill="rgb(82.745098%, 82.745098%, 82.745098%)" fill-opacity="1" d="M 32 9.605469 L 32 13.203125 L 29.269531 16.53125 L 27.199219 9.324219 L 31.714844 9.324219 C 31.863281 9.316406 31.996094 9.4375 32 9.59375 Z M 32 9.605469 "/>
<path fill-rule="nonzero" fill="rgb(77.647059%, 77.647059%, 77.647059%)" fill-opacity="1" d="M 24.71875 22.6875 L 22.699219 22.6875 L 22.175781 21.9375 L 23.558594 19.890625 Z M 24.71875 22.6875 "/>
<path fill-rule="nonzero" fill="rgb(83.529412%, 83.529412%, 83.529412%)" fill-opacity="1" d="M 29.261719 16.535156 L 21.695312 13.335938 L 25.675781 9.328125 L 27.199219 9.328125 Z M 29.261719 16.535156 "/>
<path fill-rule="nonzero" fill="rgb(81.568627%, 81.568627%, 81.568627%)" fill-opacity="1" d="M 21.699219 13.335938 L 23.5625 19.898438 L 29.261719 16.535156 Z M 21.699219 13.335938 "/>
<path fill-rule="nonzero" fill="rgb(74.901961%, 74.901961%, 74.901961%)" fill-opacity="1" d="M 22.15625 22.6875 L 22.183594 21.9375 L 22.707031 22.6875 Z M 22.15625 22.6875 "/>
<path fill-rule="nonzero" fill="rgb(85.098039%, 85.098039%, 85.098039%)" fill-opacity="1" d="M 25.675781 9.328125 L 21.695312 13.335938 L 20.980469 9.75 L 22.519531 9.324219 L 25.675781 9.324219 Z M 25.675781 9.328125 "/>
<path fill-rule="nonzero" fill="rgb(83.137255%, 83.137255%, 83.137255%)" fill-opacity="1" d="M 21.699219 13.335938 L 12.511719 15.453125 L 22.183594 21.9375 Z M 21.699219 13.335938 "/>
<path fill-rule="nonzero" fill="rgb(81.568627%, 81.568627%, 81.568627%)" fill-opacity="1" d="M 21.699219 13.335938 L 22.183594 21.9375 L 23.5625 19.890625 Z M 21.699219 13.335938 "/>
<path fill-rule="nonzero" fill="rgb(85.098039%, 85.098039%, 85.098039%)" fill-opacity="1" d="M 20.980469 9.75 L 12.511719 15.449219 L 21.699219 13.328125 Z M 20.980469 9.75 "/>
<path fill-rule="nonzero" fill="rgb(84.705882%, 84.705882%, 84.705882%)" fill-opacity="1" d="M 12.511719 15.453125 L 8.53125 22.6875 L 6.269531 22.6875 L 4.589844 15.335938 Z M 12.511719 15.453125 "/>
<path fill-rule="nonzero" fill="rgb(88.627451%, 88.627451%, 88.627451%)" fill-opacity="1" d="M 8.4375 9.328125 L 4.59375 15.335938 L 3.625 9.691406 L 3.761719 9.453125 C 3.808594 9.378906 3.886719 9.335938 3.976562 9.335938 Z M 8.4375 9.328125 "/>
<path fill-rule="nonzero" fill="rgb(84.705882%, 84.705882%, 84.705882%)" fill-opacity="1" d="M 6.269531 22.6875 L 3.964844 22.6875 C 3.875 22.6875 3.789062 22.636719 3.746094 22.5625 L 0.445312 16.84375 L 4.59375 15.335938 Z M 6.269531 22.6875 "/>
<path fill-rule="nonzero" fill="rgb(89.411765%, 89.411765%, 89.411765%)" fill-opacity="1" d="M 1.914062 12.636719 L 3.613281 9.691406 L 4.59375 15.335938 Z M 1.914062 12.636719 "/>
<path fill-rule="nonzero" fill="rgb(87.058824%, 87.058824%, 87.058824%)" fill-opacity="1" d="M 20.980469 9.75 L 18.433594 9.324219 L 10.007812 9.324219 L 12.511719 15.449219 Z M 20.980469 9.75 "/>
<path fill-rule="nonzero" fill="rgb(87.058824%, 87.058824%, 87.058824%)" fill-opacity="1" d="M 12.511719 15.453125 L 10.007812 9.328125 L 8.4375 9.328125 L 4.59375 15.335938 Z M 12.511719 15.453125 "/>
<path fill-rule="nonzero" fill="rgb(77.254902%, 77.254902%, 77.254902%)" fill-opacity="1" d="M 20.339844 22.6875 L 22.15625 22.6875 L 22.183594 21.9375 Z M 20.339844 22.6875 "/>
<path fill-rule="nonzero" fill="rgb(81.568627%, 81.568627%, 81.568627%)" fill-opacity="1" d="M 16.714844 22.6875 L 20.339844 22.6875 L 22.183594 21.9375 L 12.511719 15.453125 L 14.257812 22.6875 Z M 16.714844 22.6875 "/>
<path fill-rule="nonzero" fill="rgb(81.960784%, 81.960784%, 81.960784%)" fill-opacity="1" d="M 14.257812 22.6875 L 12.511719 15.453125 L 8.53125 22.6875 Z M 14.257812 22.6875 "/>
<path fill-rule="nonzero" fill="rgb(86.666667%, 86.666667%, 86.666667%)" fill-opacity="1" d="M 21.007812 9.328125 L 20.980469 9.753906 L 22.519531 9.328125 Z M 21.007812 9.328125 "/>
<path fill-rule="nonzero" fill="rgb(89.019608%, 89.019608%, 89.019608%)" fill-opacity="1" d="M 20.980469 9.75 L 20.746094 9.324219 L 18.433594 9.324219 Z M 20.980469 9.75 "/>
<path fill-rule="nonzero" fill="rgb(88.627451%, 88.627451%, 88.627451%)" fill-opacity="1" d="M 20.980469 9.75 L 21.007812 9.324219 L 20.746094 9.324219 Z M 20.980469 9.75 "/>
<path fill-rule="nonzero" fill="rgb(0%, 72.156863%, 89.019608%)" fill-opacity="1" d="M 14.039062 9.441406 L 10.308594 15.90625 C 10.289062 15.9375 10.28125 15.972656 10.28125 16.011719 L 7.675781 16.011719 L 12.800781 7.136719 C 12.832031 7.15625 12.855469 7.179688 12.875 7.210938 L 14.039062 9.230469 C 14.070312 9.296875 14.070312 9.378906 14.039062 9.441406 "/>
<path fill-rule="nonzero" fill="rgb(20%, 77.647059%, 91.372549%)" fill-opacity="1" d="M 14.03125 22.8125 L 12.875 24.816406 C 12.855469 24.847656 12.832031 24.875 12.800781 24.890625 L 7.675781 16.003906 L 10.28125 16.003906 C 10.28125 16.042969 10.289062 16.074219 10.308594 16.105469 L 14.03125 22.554688 C 14.082031 22.628906 14.089844 22.734375 14.03125 22.8125 "/>
<path fill-rule="nonzero" fill="rgb(0%, 54.117647%, 66.666667%)" fill-opacity="1" d="M 12.792969 7.140625 L 7.667969 16.011719 L 6.382812 18.234375 L 5.15625 16.109375 C 5.136719 16.078125 5.132812 16.046875 5.132812 16.011719 C 5.132812 15.972656 5.136719 15.9375 5.15625 15.90625 L 6.402344 13.753906 L 10.175781 7.222656 C 10.214844 7.15625 10.289062 7.109375 10.363281 7.109375 L 12.6875 7.109375 C 12.726562 7.109375 12.761719 7.125 12.792969 7.140625 "/>
<path fill-rule="nonzero" fill="rgb(0%, 72.156863%, 89.019608%)" fill-opacity="1" d="M 12.792969 24.890625 C 12.761719 24.910156 12.726562 24.921875 12.683594 24.921875 L 10.363281 24.921875 C 10.28125 24.921875 10.214844 24.878906 10.175781 24.8125 L 6.726562 18.835938 L 6.382812 18.242188 L 7.667969 16.015625 Z M 12.792969 24.890625 "/>
<path fill-rule="nonzero" fill="rgb(0%, 54.117647%, 66.666667%)" fill-opacity="1" d="M 23.101562 16.011719 L 17.976562 24.886719 C 17.945312 24.867188 17.917969 24.84375 17.902344 24.8125 L 16.730469 22.796875 C 16.699219 22.734375 16.699219 22.65625 16.730469 22.59375 L 20.464844 16.128906 C 20.480469 16.097656 20.496094 16.054688 20.496094 16.015625 Z M 23.101562 16.011719 "/>
<path fill-rule="nonzero" fill="rgb(0%, 72.156863%, 89.019608%)" fill-opacity="1" d="M 25.632812 16.011719 C 25.632812 16.046875 25.621094 16.09375 25.601562 16.125 L 20.582031 24.828125 C 20.542969 24.890625 20.46875 24.9375 20.394531 24.929688 L 18.082031 24.929688 C 18.042969 24.929688 18.007812 24.917969 17.96875 24.898438 L 23.101562 16.003906 L 24.386719 13.78125 L 25.605469 15.890625 C 25.625 15.9375 25.632812 15.972656 25.632812 16.011719 "/>
<path fill-rule="nonzero" fill="rgb(0%, 72.156863%, 89.019608%)" fill-opacity="1" d="M 23.101562 16.011719 L 20.496094 16.011719 C 20.496094 15.972656 20.480469 15.9375 20.464844 15.898438 L 16.730469 9.453125 C 16.695312 9.386719 16.695312 9.296875 16.730469 9.230469 L 17.894531 7.21875 C 17.914062 7.1875 17.9375 7.160156 17.96875 7.140625 Z M 23.101562 16.011719 "/>
<path fill-rule="nonzero" fill="rgb(20%, 77.647059%, 91.372549%)" fill-opacity="1" d="M 24.382812 13.785156 L 23.09375 16.011719 L 17.96875 7.136719 C 18.007812 7.117188 18.042969 7.105469 18.082031 7.105469 L 20.402344 7.105469 C 20.476562 7.105469 20.542969 7.140625 20.589844 7.203125 Z M 24.382812 13.785156 "/>
</svg>
