<?xml version="1.0" encoding="UTF-8"?>
<svg xmlns="http://www.w3.org/2000/svg" xmlns:xlink="http://www.w3.org/1999/xlink" width="39.629318" height="32" viewBox="0 0 39.629318 32">
<path fill-rule="nonzero" fill="rgb(3.137255%, 39.607843%, 67.843137%)" fill-opacity="1" d="M 16.039062 0.0820312 L 3.546875 6.097656 C 3.324219 6.203125 3.160156 6.40625 3.105469 6.648438 L 0.0195312 20.167969 C -0.0351562 20.410156 0.0234375 20.660156 0.175781 20.855469 L 8.824219 31.695312 C 8.976562 31.890625 9.210938 32.003906 9.457031 32.003906 L 23.328125 32.003906 C 23.574219 32.003906 23.804688 31.890625 23.960938 31.695312 L 32.605469 20.855469 C 32.761719 20.660156 32.816406 20.410156 32.761719 20.167969 L 29.675781 6.648438 C 29.621094 6.40625 29.460938 6.203125 29.238281 6.097656 L 16.742188 0.0820312 C 16.519531 -0.0273438 16.261719 -0.0273438 16.039062 0.0820312 "/>
<path fill-rule="nonzero" fill="rgb(100%, 100%, 100%)" fill-opacity="1" d="M 11.960938 11.351562 L 14.714844 11.351562 L 14.714844 16.785156 L 14.769531 16.785156 C 15.042969 16.308594 15.332031 15.871094 15.605469 15.433594 L 18.398438 11.351562 L 21.804688 11.351562 L 17.742188 16.582031 L 22.023438 23.640625 L 18.78125 23.640625 L 15.773438 18.332031 L 14.714844 19.628906 L 14.714844 23.640625 L 11.960938 23.640625 Z M 11.960938 11.351562 "/>
<path fill-rule="nonzero" fill="rgb(40%, 58.431373%, 79.215686%)" fill-opacity="1" d="M 31.558594 0.0703125 L 26.648438 1.859375 C 26.558594 1.890625 26.480469 1.953125 26.433594 2.035156 L 23.820312 6.5625 C 23.773438 6.644531 23.757812 6.742188 23.773438 6.835938 L 24.679688 11.984375 C 24.695312 12.078125 24.746094 12.164062 24.820312 12.226562 L 28.824219 15.585938 C 28.898438 15.648438 28.988281 15.679688 29.085938 15.679688 L 34.3125 15.679688 C 34.40625 15.679688 34.5 15.648438 34.570312 15.585938 L 38.578125 12.226562 C 38.648438 12.164062 38.699219 12.078125 38.714844 11.984375 L 39.625 6.835938 C 39.640625 6.742188 39.621094 6.644531 39.574219 6.5625 L 36.960938 2.035156 C 36.914062 1.953125 36.839844 1.890625 36.75 1.859375 L 31.835938 0.0703125 C 31.746094 0.0390625 31.648438 0.0390625 31.558594 0.0703125 "/>
<path fill-rule="nonzero" fill="rgb(100%, 100%, 100%)" fill-opacity="1" d="M 30.746094 6.03125 C 30.839844 5.9375 30.941406 5.851562 31.050781 5.773438 C 31.15625 5.691406 31.269531 5.625 31.386719 5.566406 C 31.503906 5.511719 31.632812 5.46875 31.769531 5.4375 C 31.90625 5.40625 32.054688 5.386719 32.214844 5.386719 C 32.480469 5.386719 32.714844 5.433594 32.917969 5.527344 C 33.125 5.617188 33.296875 5.746094 33.4375 5.910156 C 33.578125 6.074219 33.683594 6.269531 33.753906 6.496094 C 33.824219 6.722656 33.859375 6.96875 33.859375 7.242188 L 33.859375 10.335938 L 32.558594 10.335938 L 32.558594 7.242188 C 32.558594 6.96875 32.496094 6.761719 32.371094 6.609375 C 32.246094 6.460938 32.058594 6.386719 31.8125 6.386719 C 31.632812 6.386719 31.460938 6.425781 31.296875 6.503906 C 31.136719 6.582031 30.984375 6.691406 30.839844 6.835938 L 30.839844 10.335938 L 29.535156 10.335938 L 29.535156 5.464844 L 30.339844 5.464844 C 30.503906 5.464844 30.613281 5.539062 30.664062 5.691406 Z M 30.746094 6.03125 "/>
</svg>
