<?xml version="1.0" encoding="UTF-8"?>
<svg xmlns="http://www.w3.org/2000/svg" xmlns:xlink="http://www.w3.org/1999/xlink" width="96.5" height="32" viewBox="0 0 96.5 32">
<path fill-rule="evenodd" fill="rgb(1.568627%, 20.784314%, 34.509804%)" fill-opacity="1" d="M 88.523438 21.101562 L 93.050781 21.101562 L 93.050781 14.101562 L 88.523438 14.101562 Z M 93.023438 11.351562 L 96.5 11.351562 L 96.5 24.351562 C 96.5 26.5 96.273438 26.875 95.699219 27.449219 C 95.25 27.925781 94.523438 28.148438 93.273438 28.148438 L 88.199219 28.148438 L 86.625 26.398438 L 86.625 25.675781 L 93.023438 25.675781 L 93.023438 23.898438 L 88.648438 23.898438 C 87.324219 23.898438 86.648438 23.648438 86.101562 23.101562 C 85.375 22.351562 85.074219 20.726562 85.074219 17.648438 C 85.074219 14.574219 85.425781 12.875 86.175781 12.101562 C 86.75 11.550781 87.449219 11.324219 88.699219 11.324219 L 91.300781 11.351562 L 93.023438 12.925781 Z M 52.023438 7.898438 L 56.125 7.898438 L 50.226562 15.398438 L 56.375 23.875 L 52.023438 23.875 L 47.351562 17.226562 L 46.25 17.226562 L 46.25 23.875 L 42.550781 23.875 L 42.550781 7.898438 L 46.25 7.898438 L 46.25 14.101562 L 47.351562 14.101562 Z M 79.023438 15.300781 L 79.023438 14.148438 L 77.773438 14.148438 C 77.75 14.148438 77.75 14.148438 77.726562 14.148438 L 76.75 14.148438 C 76.726562 14.148438 76.726562 14.148438 76.699219 14.148438 L 74.773438 14.148438 L 74.773438 23.824219 L 71.324219 23.824219 L 71.324219 11.351562 L 74.773438 11.351562 L 74.773438 12.925781 L 76.5 11.351562 L 77.5 11.351562 C 77.648438 11.324219 77.824219 11.324219 78 11.324219 L 79.5 11.324219 C 80.550781 11.324219 81.226562 11.550781 81.699219 12.023438 C 82.226562 12.523438 82.425781 13.175781 82.425781 15.023438 L 82.425781 23.824219 L 78.976562 23.824219 L 78.976562 15.449219 C 79.023438 15.398438 79.023438 15.351562 79.023438 15.300781 Z M 60.851562 21.074219 L 65.375 21.074219 L 65.375 14.074219 L 60.851562 14.074219 Z M 61 23.824219 C 59.75 23.824219 59.074219 23.625 58.550781 23.050781 C 57.75 22.226562 57.425781 21.101562 57.425781 17.574219 C 57.425781 14.023438 57.75 12.925781 58.550781 12.074219 C 59.074219 11.523438 59.75 11.324219 61 11.324219 L 65.199219 11.324219 C 66.449219 11.324219 67.125 11.523438 67.648438 12.074219 C 68.449219 12.925781 68.773438 14.023438 68.773438 17.574219 C 68.773438 21.125 68.449219 22.226562 67.648438 23.050781 C 67.101562 23.625 66.449219 23.824219 65.199219 23.824219 Z M 61 23.824219 "/>
<path fill-rule="evenodd" fill="rgb(8.627451%, 62.352941%, 80%)" fill-opacity="1" d="M 10.726562 27.5 L 11.601562 26.398438 L 18.074219 26.398438 L 21.449219 30.601562 L 20.851562 32.023438 L 12.5 32.023438 L 12.699219 30.601562 Z M 10.726562 27.5 "/>
<path fill-rule="evenodd" fill="rgb(7.843137%, 70.980392%, 60.392157%)" fill-opacity="1" d="M 13.148438 12.949219 L 16.175781 7.625 L 19.699219 7.625 L 35.5 26.324219 L 34.273438 32.023438 L 27.5 32.023438 L 27.925781 30.425781 Z M 13.148438 12.949219 "/>
<path fill-rule="evenodd" fill="rgb(10.588235%, 76.078431%, 38.823529%)" fill-opacity="1" d="M 16.75 6.300781 L 18.175781 3.648438 L 22.449219 0.175781 L 29.773438 5.949219 L 28.824219 6.925781 L 30.101562 8.699219 L 30.101562 10.601562 L 26.449219 13.601562 L 20.324219 6.300781 Z M 16.75 6.300781 "/>
<path fill-rule="evenodd" fill="rgb(8.627451%, 74.117647%, 80%)" fill-opacity="1" d="M 5.199219 18.425781 L 7.175781 18.425781 L 12.324219 14.023438 L 19.148438 22.125 L 17.226562 25.074219 L 10.925781 25.074219 L 6.574219 30.726562 L 5.574219 32.023438 L -0.0742188 32.023438 L -0.0742188 25.101562 Z M 5.199219 18.425781 "/>
</svg>
