<?xml version="1.0" encoding="utf-8"?>
<svg viewBox="5.883 531.491 23.33 26.474" width="23.33px" height="26.474px" xmlns="http://www.w3.org/2000/svg">
  <defs>
    <clipPath id="clip0">
      <rect width="158.005" height="859.996" fill="white" x="-8.468" y="-2.034"/>
    </clipPath>
  </defs>
  <path d="M 7.683 531.491 L 27.413 531.491 C 28.407 531.491 29.213 532.297 29.213 533.291 L 29.213 556.165 C 29.213 557.16 28.407 557.965 27.413 557.965 L 7.683 557.965 C 6.689 557.965 5.883 557.16 5.883 556.165 L 5.883 533.291 C 5.883 532.297 6.689 531.491 7.683 531.491 Z" fill="#3E5FA8" clip-path="url(#clip0)"/>
  <path d="M 12.223 537.211 L 12.223 551.491 L 14.123 551.491 L 14.123 546.491 L 16.503 544.271 L 21.663 551.491 L 24.063 551.491 L 17.803 542.971 L 23.823 537.211 L 21.363 537.211 L 14.123 544.331 L 14.123 537.211 L 12.223 537.211 Z" fill="white" clip-path="url(#clip0)"/>
</svg>
