<?xml version="1.0" encoding="UTF-8"?>
<svg xmlns="http://www.w3.org/2000/svg" xmlns:xlink="http://www.w3.org/1999/xlink" width="28.199742" height="32" viewBox="0 0 28.199742 32">
<path fill-rule="nonzero" fill="rgb(24.313725%, 37.254902%, 65.882353%)" fill-opacity="1" d="M 2.175781 0 L 26.023438 0 C 27.226562 0 28.199219 0.972656 28.199219 2.175781 L 28.199219 29.824219 C 28.199219 31.027344 27.226562 32 26.023438 32 L 2.175781 32 C 0.972656 32 0 31.027344 0 29.824219 L 0 2.175781 C 0 0.972656 0.972656 0 2.175781 0 Z M 2.175781 0 "/>
<path fill-rule="nonzero" fill="rgb(100%, 100%, 100%)" fill-opacity="1" d="M 7.664062 6.914062 L 7.664062 24.175781 L 9.960938 24.175781 L 9.960938 18.132812 L 12.835938 15.449219 L 19.074219 24.175781 L 21.976562 24.175781 L 14.40625 13.875 L 21.683594 6.914062 L 18.710938 6.914062 L 9.960938 15.519531 L 9.960938 6.914062 Z M 7.664062 6.914062 "/>
</svg>
