<?xml version="1.0" encoding="UTF-8"?>
<svg xmlns="http://www.w3.org/2000/svg" xmlns:xlink="http://www.w3.org/1999/xlink" width="32" height="32" viewBox="0 0 32 32">
<path fill-rule="evenodd" fill="rgb(90.980392%, 49.411765%, 35.686275%)" fill-opacity="1" d="M 5.503906 10.183594 L 4.019531 16.683594 L 5.546875 16.683594 L 6.789062 11.230469 C 6.554688 10.992188 6.3125 10.761719 6.0625 10.550781 C 5.996094 10.492188 5.941406 10.421875 5.898438 10.34375 C 5.769531 10.292969 5.636719 10.238281 5.503906 10.183594 M 14.8125 4.308594 L 7.175781 7.988281 C 7.273438 8.125 7.367188 8.257812 7.453125 8.386719 C 7.539062 8.410156 7.621094 8.449219 7.695312 8.503906 C 7.9375 8.683594 8.195312 8.855469 8.460938 9.019531 L 14.820312 5.957031 C 14.855469 5.648438 14.882812 5.34375 14.894531 5.042969 C 14.894531 4.953125 14.917969 4.867188 14.953125 4.785156 C 14.90625 4.632812 14.859375 4.472656 14.8125 4.308594 Z M 25.132812 7.941406 L 17.59375 4.308594 C 17.546875 4.472656 17.496094 4.632812 17.449219 4.785156 C 17.488281 4.867188 17.507812 4.953125 17.511719 5.042969 C 17.519531 5.34375 17.546875 5.648438 17.582031 5.957031 L 23.855469 8.976562 C 24.121094 8.808594 24.378906 8.632812 24.625 8.449219 C 24.699219 8.394531 24.777344 8.355469 24.863281 8.332031 C 24.949219 8.207031 25.039062 8.074219 25.132812 7.941406 Z M 28.386719 16.683594 L 26.882812 10.09375 C 26.730469 10.15625 26.578125 10.21875 26.4375 10.273438 C 26.394531 10.355469 26.339844 10.425781 26.273438 10.484375 C 26.039062 10.6875 25.8125 10.90625 25.589844 11.132812 L 26.859375 16.683594 Z M 28.386719 16.683594 "/>
<path fill-rule="evenodd" fill="rgb(21.568627%, 51.764706%, 77.254902%)" fill-opacity="1" d="M 19.890625 12.671875 L 20.074219 12.894531 C 20.15625 12.179688 20.75 11.492188 21.875 10.878906 C 23.046875 10.238281 24.144531 9.667969 25.039062 8.996094 L 25.15625 9.144531 C 25.855469 8.050781 26.394531 7.367188 26.78125 7.082031 C 27.300781 6.769531 27.78125 6.859375 28.15625 7.277344 C 28.484375 7.726562 28.476562 8.214844 28.058594 8.65625 C 27.699219 8.976562 26.917969 9.363281 25.707031 9.820312 L 25.824219 9.96875 C 24.980469 10.699219 24.195312 11.65625 23.324219 12.667969 C 22.488281 13.640625 21.695312 14.078125 20.976562 14.011719 L 21.160156 14.238281 L 20.457031 14.808594 L 19.832031 13.304688 L 19.355469 13.105469 Z M 11.210938 14.257812 L 11.390625 14.035156 C 10.671875 14.105469 9.875 13.675781 9.03125 12.710938 C 8.152344 11.703125 7.359375 10.757812 6.507812 10.03125 L 6.625 9.882812 C 5.410156 9.4375 4.625 9.054688 4.265625 8.742188 C 3.84375 8.300781 3.828125 7.8125 4.15625 7.359375 C 4.523438 6.941406 5.003906 6.84375 5.523438 7.15625 C 5.914062 7.433594 6.460938 8.117188 7.167969 9.199219 L 7.285156 9.050781 C 8.1875 9.71875 9.285156 10.277344 10.464844 10.90625 C 11.597656 11.511719 12.195312 12.191406 12.285156 12.90625 L 12.464844 12.683594 L 13.007812 13.113281 L 12.542969 13.304688 L 11.914062 14.820312 Z M 15.195312 11.378906 L 15.480469 11.378906 C 14.980469 10.863281 14.820312 9.96875 15.050781 8.707031 C 15.289062 7.394531 15.539062 6.183594 15.578125 5.066406 L 15.765625 5.066406 C 15.359375 3.839844 15.164062 2.984375 15.1875 2.507812 C 15.269531 1.90625 15.644531 1.589844 16.203125 1.5625 C 16.761719 1.589844 17.132812 1.90625 17.214844 2.507812 C 17.238281 2.984375 17.046875 3.839844 16.636719 5.066406 L 16.828125 5.066406 C 16.867188 6.183594 17.113281 7.394531 17.355469 8.707031 C 17.585938 9.96875 17.425781 10.863281 16.921875 11.378906 L 17.210938 11.378906 L 17.210938 12.21875 L 16.1875 11.792969 L 15.195312 12.207031 Z M 15.195312 11.378906 "/>
<path fill-rule="evenodd" fill="rgb(90.980392%, 49.411765%, 35.686275%)" fill-opacity="1" d="M 16.1875 12.410156 L 19.398438 13.738281 L 20.0625 15.34375 L 20.617188 16.683594 L 17.710938 16.683594 L 17.582031 16.371094 L 17.34375 15.792969 L 16.1875 15.316406 L 15.609375 15.554688 L 15.035156 15.792969 L 14.796875 16.371094 L 14.664062 16.683594 L 11.757812 16.683594 L 12.3125 15.34375 L 12.976562 13.738281 Z M 16.1875 12.410156 "/>
<path fill-rule="evenodd" fill="rgb(21.568627%, 51.764706%, 77.254902%)" fill-opacity="1" d="M 4.367188 22.375 C 4.367188 22.691406 4.109375 22.945312 3.796875 22.945312 C 3.480469 22.945312 3.226562 22.691406 3.226562 22.375 L 3.226562 18.339844 C 3.226562 18.027344 3.480469 17.769531 3.796875 17.769531 L 28.386719 17.769531 C 28.699219 17.769531 28.957031 18.027344 28.957031 18.339844 L 28.957031 22.375 C 28.957031 22.691406 28.699219 22.945312 28.386719 22.945312 C 28.070312 22.945312 27.816406 22.691406 27.816406 22.375 L 27.816406 18.914062 L 16.660156 18.914062 L 16.660156 22.375 C 16.660156 22.691406 16.40625 22.945312 16.089844 22.945312 C 15.773438 22.945312 15.519531 22.691406 15.519531 22.375 L 15.519531 18.914062 L 4.367188 18.914062 Z M 4.367188 22.375 "/>
<path fill-rule="evenodd" fill="rgb(90.980392%, 49.411765%, 35.686275%)" fill-opacity="1" d="M 15.484375 28.367188 C 15.496094 28.386719 15.519531 28.398438 15.542969 28.398438 L 16.636719 28.398438 C 16.660156 28.398438 16.679688 28.386719 16.695312 28.367188 L 17.375 27.515625 C 17.390625 27.496094 17.394531 27.472656 17.390625 27.449219 L 17.148438 26.386719 C 17.144531 26.363281 17.128906 26.34375 17.105469 26.332031 L 16.121094 25.859375 C 16.101562 25.847656 16.078125 25.847656 16.058594 25.859375 L 15.074219 26.332031 C 15.050781 26.34375 15.039062 26.363281 15.03125 26.386719 L 14.789062 27.449219 C 14.785156 27.46875 14.789062 27.496094 14.804688 27.515625 Z M 14.710938 29.941406 C 14.742188 29.988281 14.792969 30.015625 14.847656 30.015625 L 16.089844 30.015625 L 17.332031 30.011719 C 17.382812 30.011719 17.433594 29.988281 17.464844 29.949219 L 18.238281 28.980469 L 19.011719 28.007812 C 19.042969 27.96875 19.054688 27.914062 19.046875 27.863281 L 18.492188 25.445312 C 18.484375 25.394531 18.449219 25.351562 18.398438 25.328125 L 16.164062 24.25 C 16.117188 24.230469 16.0625 24.230469 16.015625 24.25 L 13.78125 25.328125 C 13.734375 25.351562 13.699219 25.394531 13.6875 25.445312 L 13.136719 27.859375 C 13.121094 27.910156 13.132812 27.964844 13.167969 28.007812 Z M 14.710938 29.941406 "/>
<path fill-rule="evenodd" fill="rgb(90.980392%, 49.411765%, 35.686275%)" fill-opacity="1" d="M 3.113281 28.367188 C 3.128906 28.386719 3.148438 28.398438 3.175781 28.398438 L 4.265625 28.398438 C 4.289062 28.398438 4.3125 28.386719 4.324219 28.367188 L 4.667969 27.941406 L 5.007812 27.515625 C 5.019531 27.496094 5.027344 27.472656 5.023438 27.449219 L 4.777344 26.386719 C 4.773438 26.363281 4.757812 26.34375 4.738281 26.332031 L 3.753906 25.859375 C 3.734375 25.847656 3.707031 25.847656 3.6875 25.859375 L 2.703125 26.332031 C 2.683594 26.34375 2.667969 26.363281 2.664062 26.386719 L 2.421875 27.449219 C 2.414062 27.46875 2.417969 27.496094 2.433594 27.515625 Z M 2.339844 29.941406 C 2.375 29.988281 2.425781 30.015625 2.480469 30.015625 L 3.71875 30.015625 L 4.960938 30.011719 C 5.011719 30.011719 5.0625 29.988281 5.09375 29.949219 L 5.867188 28.980469 L 6.640625 28.007812 C 6.675781 27.96875 6.6875 27.914062 6.675781 27.863281 L 6.125 25.445312 C 6.113281 25.394531 6.078125 25.351562 6.03125 25.328125 L 3.796875 24.25 C 3.75 24.230469 3.691406 24.230469 3.644531 24.25 L 1.410156 25.328125 C 1.363281 25.351562 1.328125 25.394531 1.316406 25.445312 L 0.765625 27.859375 C 0.753906 27.910156 0.765625 27.964844 0.796875 28.007812 Z M 2.339844 29.941406 "/>
<path fill-rule="evenodd" fill="rgb(90.980392%, 49.411765%, 35.686275%)" fill-opacity="1" d="M 27.703125 28.367188 C 27.71875 28.386719 27.738281 28.398438 27.765625 28.398438 L 28.855469 28.398438 C 28.878906 28.398438 28.902344 28.386719 28.914062 28.367188 L 29.257812 27.941406 L 29.597656 27.515625 C 29.613281 27.496094 29.617188 27.472656 29.613281 27.449219 L 29.367188 26.386719 C 29.363281 26.363281 29.347656 26.34375 29.328125 26.332031 L 28.34375 25.859375 C 28.324219 25.847656 28.296875 25.847656 28.277344 25.859375 L 27.292969 26.332031 C 27.273438 26.34375 27.257812 26.363281 27.253906 26.386719 L 27.011719 27.449219 C 27.003906 27.46875 27.007812 27.496094 27.023438 27.515625 Z M 26.929688 29.941406 C 26.964844 29.988281 27.015625 30.015625 27.070312 30.015625 L 28.308594 30.015625 L 29.550781 30.011719 C 29.605469 30.011719 29.652344 29.988281 29.6875 29.949219 L 30.460938 28.980469 L 31.234375 28.007812 C 31.265625 27.96875 31.277344 27.914062 31.265625 27.863281 L 30.714844 25.445312 C 30.703125 25.394531 30.667969 25.351562 30.621094 25.328125 L 28.386719 24.25 C 28.339844 24.230469 28.28125 24.230469 28.234375 24.25 L 26 25.328125 C 25.953125 25.351562 25.917969 25.394531 25.90625 25.445312 L 25.355469 27.859375 C 25.34375 27.910156 25.355469 27.964844 25.386719 28.007812 Z M 26.929688 29.941406 "/>
</svg>
