<svg role="img" viewBox="0 0 32 32" height="32" width="32" xmlns="http://www.w3.org/2000/svg"><path d="M12.16 3.84a.64.64 0 0 0-.398 1.14c.5.399.84.895 1.039 1.516v10.586l-6.246 9.082a1.274 1.274 0 0 0 1.05 1.996h16.79a1.275 1.275 0 0 0 1.05-1.996L19.2 17.082V6.438c.086-.665.375-1.098.938-1.391a.638.638 0 0 0 .324-.719.635.635 0 0 0-.621-.488Zm1.41 1.281h4.715a3.33 3.33 0 0 0-.36 1.207c-.003.024-.003.047-.003.07v10.883c0 .13.039.254.11.36l1.511 2.199h-7.086l1.512-2.2a.65.65 0 0 0 .11-.359V6.398a.71.71 0 0 0-.024-.18 4.639 4.639 0 0 0-.485-1.097m-9.73 3.84a.639.639 0 0 0-.64.64v3.41c-1.942.9-3.184 2.778-3.2 4.903a5.7 5.7 0 0 0 1.672 4.102 5.684 5.684 0 0 0 4.055 1.664h.671c.036 0 .086.004.137.004l4.914-7.028c-.304-1.734-1.699-3.093-3.129-3.672V9.602a.639.639 0 0 0-.64-.641Zm17.922 0a.639.639 0 0 0-.64.64v5.012a.614.614 0 0 0 0 .207v2.875l4.187 5.985h4.77c.355 0 .64-.285.64-.64v-8.212a.637.637 0 0 0 0-.21v-3.079c.015-.539.402-1.113.922-1.363a.645.645 0 0 0 .343-.719.636.636 0 0 0-.625-.496ZM4.48 10.238h2.56v3.203a.64.64 0 0 0 .464.614c.707.203 1.422.675 1.945 1.304H2.195a4.32 4.32 0 0 1 1.868-1.32.641.641 0 0 0 .417-.598Zm17.918 0h7.407a2.815 2.815 0 0 0-.364 1.282v2.558h-7.043Zm0 0"/></svg>