<?xml version="1.0" encoding="UTF-8"?>
<svg xmlns="http://www.w3.org/2000/svg" xmlns:xlink="http://www.w3.org/1999/xlink" width="32" height="32" viewBox="0 0 32 32">
<path fill-rule="nonzero" fill="rgb(0%, 0%, 0%)" fill-opacity="1" d="M 12.160156 3.839844 C 11.886719 3.839844 11.648438 4.011719 11.558594 4.269531 C 11.46875 4.527344 11.550781 4.808594 11.761719 4.980469 C 12.261719 5.378906 12.601562 5.875 12.800781 6.496094 L 12.800781 17.082031 L 6.554688 26.164062 C 6.285156 26.554688 6.257812 27.058594 6.476562 27.480469 C 6.699219 27.898438 7.132812 28.160156 7.605469 28.160156 L 24.394531 28.160156 C 24.867188 28.160156 25.300781 27.898438 25.523438 27.480469 C 25.742188 27.058594 25.710938 26.554688 25.445312 26.164062 L 19.199219 17.082031 L 19.199219 6.4375 C 19.285156 5.773438 19.574219 5.339844 20.136719 5.046875 C 20.398438 4.910156 20.53125 4.613281 20.460938 4.328125 C 20.394531 4.039062 20.136719 3.839844 19.839844 3.839844 Z M 13.570312 5.121094 L 18.285156 5.121094 C 18.089844 5.496094 17.96875 5.90625 17.925781 6.328125 C 17.921875 6.351562 17.921875 6.375 17.921875 6.398438 L 17.921875 17.28125 C 17.921875 17.410156 17.960938 17.535156 18.03125 17.640625 L 19.542969 19.839844 L 12.457031 19.839844 L 13.96875 17.640625 C 14.039062 17.535156 14.078125 17.410156 14.078125 17.28125 L 14.078125 6.398438 C 14.078125 6.335938 14.070312 6.277344 14.054688 6.21875 C 13.941406 5.832031 13.777344 5.464844 13.570312 5.121094 M 3.839844 8.960938 C 3.671875 8.960938 3.507812 9.027344 3.386719 9.148438 C 3.265625 9.269531 3.199219 9.429688 3.199219 9.601562 L 3.199219 13.011719 C 1.257812 13.910156 0.015625 15.789062 0 17.914062 C -0.0195312 19.449219 0.585938 20.929688 1.671875 22.015625 C 2.746094 23.089844 4.207031 23.691406 5.726562 23.679688 L 6.398438 23.679688 C 6.433594 23.679688 6.484375 23.683594 6.535156 23.683594 L 11.449219 16.65625 C 11.144531 14.921875 9.75 13.5625 8.320312 12.984375 L 8.320312 9.601562 C 8.320312 9.433594 8.253906 9.269531 8.132812 9.148438 C 8.011719 9.027344 7.851562 8.960938 7.679688 8.960938 Z M 21.761719 8.960938 C 21.59375 8.960938 21.429688 9.027344 21.308594 9.148438 C 21.1875 9.269531 21.121094 9.429688 21.121094 9.601562 L 21.121094 14.613281 C 21.109375 14.679688 21.109375 14.75 21.121094 14.820312 L 21.121094 17.695312 L 25.308594 23.679688 L 30.078125 23.679688 C 30.433594 23.679688 30.71875 23.394531 30.71875 23.039062 L 30.71875 14.828125 C 30.730469 14.757812 30.730469 14.6875 30.71875 14.617188 L 30.71875 11.539062 C 30.734375 11 31.121094 10.425781 31.640625 10.175781 C 31.90625 10.042969 32.050781 9.746094 31.984375 9.457031 C 31.917969 9.164062 31.65625 8.957031 31.359375 8.960938 Z M 4.480469 10.238281 L 7.039062 10.238281 L 7.039062 13.441406 C 7.039062 13.726562 7.230469 13.976562 7.503906 14.054688 C 8.210938 14.257812 8.925781 14.730469 9.449219 15.359375 L 2.195312 15.359375 C 2.6875 14.757812 3.332031 14.304688 4.0625 14.039062 C 4.3125 13.945312 4.480469 13.707031 4.480469 13.441406 Z M 22.398438 10.238281 L 29.804688 10.238281 C 29.582031 10.628906 29.457031 11.070312 29.441406 11.519531 L 29.441406 14.078125 L 22.398438 14.078125 Z M 22.398438 10.238281 "/>
</svg>
