<svg role="img" viewBox="0 0 32 32" height="32" width="32" xmlns="http://www.w3.org/2000/svg"><path d="M16 2.05A13.946 13.946 0 0 0 3.938 9.024h2.777a11.759 11.759 0 0 1 4.707-3.707 15.925 15.925 0 0 0-1.508 3.707h2.45C13.28 6.168 14.69 4.38 16 4.38c1.313 0 2.715 1.789 3.637 4.644h2.449a15.592 15.592 0 0 0-1.508-3.707 11.77 11.77 0 0 1 4.711 3.707h2.777A13.966 13.966 0 0 0 16 2.051M3.938 22.98a13.928 13.928 0 0 0 24.128 0H25.29a11.702 11.702 0 0 1-4.71 3.703 15.498 15.498 0 0 0 1.507-3.704h-2.45c-.917 2.856-2.32 4.645-3.636 4.645-1.316 0-2.719-1.79-3.633-4.648H9.914c.34 1.296.848 2.543 1.508 3.707a11.666 11.666 0 0 1-4.707-3.707ZM2.273 10.046h2.274v9.574H2.273Zm10.758 9.574h-2.164v-.808h-.027a2.208 2.208 0 0 1-1.914 1.007c-2.18 0-3.106-1.863-3.106-3.824 0-1.809.965-3.523 2.934-3.523.777-.036 1.52.32 1.976.949h.032v-3.375h2.273Zm-4.937-3.555c0 .954.363 2.012 1.39 2.012 1.11 0 1.352-1.058 1.352-1.941 0-1.008-.36-1.93-1.352-1.93-1.027-.004-1.39.977-1.39 1.86m6.394-1.258a2.108 2.108 0 0 1 1.086-1.864c.633-.363 1.41-.484 2.215-.484 1.645 0 3.238.363 3.238 2.332v3.043c0 .59 0 1.234.266 1.785h-2.297a2.72 2.72 0 0 1-.133-.656c-.59.629-1.445.855-2.289.855-1.336 0-2.367-.668-2.367-2.11 0-2.253 2.461-2.093 4.04-2.417.39-.09.605-.211.605-.64 0-.524-.63-.723-1.098-.723-.656 0-1.031.293-1.137.87Zm2.946 3.605c1.082 0 1.441-.605 1.39-2.05-.32.202-.91.226-1.41.374-.5.145-.937.336-.937.883 0 .547.433.793.957.793m5.082-5.75h2.168v.805h.027a2.188 2.188 0 0 1 1.91-1.008c2.184 0 3.106 1.863 3.106 3.824 0 1.813-.961 3.528-2.93 3.528a2.362 2.362 0 0 1-1.98-.954h-.024v3.082h-2.277Zm2.195 3.402c0 1.22.348 2.012 1.375 2.012 1.031 0 1.367-1.058 1.367-2.012 0-.882-.336-1.863-1.351-1.863-.602 0-1.391.418-1.391 1.863m0 0" fill="rgb(20.392157%, 59.607843%, 85.882353%)"/></svg>