<?xml version="1.0" encoding="UTF-8"?>
<svg xmlns="http://www.w3.org/2000/svg" xmlns:xlink="http://www.w3.org/1999/xlink" width="32" height="32" viewBox="0 0 32 32">
<path fill-rule="evenodd" fill="rgb(0%, 0%, 0%)" fill-opacity="1" d="M 6.671875 15.441406 L 8.644531 16.132812 L 8.082031 20.644531 C 8.003906 21.246094 8.25 21.871094 8.773438 22.238281 C 10.316406 23.328125 12.832031 24.667969 16 24.667969 C 18.636719 24.675781 21.199219 23.816406 23.296875 22.222656 C 23.785156 21.847656 23.996094 21.253906 23.925781 20.683594 L 23.355469 16.132812 L 28.117188 14.464844 C 29.1875 14.09375 29.1875 12.574219 28.117188 12.203125 L 17.984375 8.65625 C 16.699219 8.207031 15.300781 8.207031 14.019531 8.65625 L 3.886719 12.203125 C 2.8125 12.574219 2.8125 14.089844 3.886719 14.464844 L 5.285156 14.957031 C 5.101562 15.195312 4.972656 15.441406 4.882812 15.667969 C 4.820312 15.824219 4.769531 15.980469 4.730469 16.144531 C 4.316406 16.351562 4.039062 16.765625 4.003906 17.230469 C 3.96875 17.699219 4.179688 18.148438 4.558594 18.417969 L 4.550781 18.441406 L 3.386719 23.691406 C 3.332031 23.929688 3.390625 24.179688 3.542969 24.367188 C 3.695312 24.558594 3.925781 24.667969 4.167969 24.667969 L 6.5 24.667969 C 6.742188 24.667969 6.972656 24.558594 7.125 24.367188 C 7.277344 24.179688 7.332031 23.929688 7.28125 23.691406 L 6.113281 18.441406 L 6.109375 18.417969 C 6.460938 18.164062 6.671875 17.757812 6.667969 17.320312 C 6.664062 16.886719 6.449219 16.484375 6.09375 16.234375 C 6.203125 15.921875 6.40625 15.644531 6.671875 15.441406 M 17.542969 9.910156 C 16.542969 9.5625 15.457031 9.5625 14.457031 9.910156 L 5.046875 13.207031 C 4.992188 13.226562 4.957031 13.277344 4.957031 13.332031 C 4.957031 13.390625 4.992188 13.441406 5.046875 13.457031 L 6.554688 13.988281 C 7.007812 13.800781 7.738281 13.609375 8.535156 13.425781 C 9.589844 13.183594 10.648438 12.964844 11.707031 12.761719 C 13.097656 12.496094 14.492188 12.246094 15.890625 12.007812 C 16.246094 11.960938 16.578125 12.207031 16.636719 12.5625 C 16.695312 12.917969 16.460938 13.253906 16.109375 13.324219 C 15.6875 13.394531 15.265625 13.46875 14.84375 13.542969 C 14.074219 13.675781 13.039062 13.863281 11.960938 14.070312 C 10.882812 14.277344 9.765625 14.507812 8.839844 14.722656 L 8.726562 14.75 L 14.457031 16.753906 C 15.457031 17.105469 16.542969 17.105469 17.542969 16.753906 L 26.957031 13.457031 C 27.007812 13.441406 27.042969 13.390625 27.042969 13.332031 C 27.042969 13.277344 27.007812 13.226562 26.957031 13.207031 Z M 17.980469 18.011719 L 22.066406 16.582031 L 22.601562 20.851562 C 22.621094 20.96875 22.578125 21.089844 22.484375 21.164062 C 20.621094 22.582031 18.339844 23.34375 16 23.332031 C 13.210938 23.332031 10.964844 22.152344 9.542969 21.148438 C 9.4375 21.070312 9.386719 20.941406 9.402344 20.8125 L 9.933594 16.582031 L 14.019531 18.011719 C 15.300781 18.460938 16.699219 18.460938 17.984375 18.011719 M 4.832031 23.332031 L 5.332031 21.074219 L 5.835938 23.332031 Z M 4.832031 23.332031 "/>
</svg>
