<?xml version="1.0" encoding="UTF-8"?>
<svg xmlns="http://www.w3.org/2000/svg" xmlns:xlink="http://www.w3.org/1999/xlink" width="32" height="32" viewBox="0 0 32 32">
<path  d="M 2 6.5 C 2 5.121094 3.121094 4 4.496094 4 L 5.496094 4 C 6.878906 4 7.992188 5.121094 7.992188 6.5 L 7.992188 25.488281 C 7.992188 26.871094 6.875 27.988281 5.496094 27.988281 L 4.496094 27.988281 C 3.117188 27.988281 2 26.867188 2 25.488281 Z M 4.496094 6 C 4.222656 6 3.996094 6.222656 3.996094 6.5 L 3.996094 25.488281 C 3.996094 25.765625 4.222656 25.988281 4.496094 25.988281 L 5.496094 25.988281 C 5.773438 25.988281 5.996094 25.765625 5.996094 25.488281 L 5.996094 6.496094 C 5.996094 6.222656 5.773438 5.996094 5.496094 5.996094 Z M 9.992188 6.5 C 9.992188 5.121094 11.113281 4 12.492188 4 L 13.492188 4 C 14.871094 4 15.988281 5.121094 15.988281 6.5 L 15.988281 25.488281 C 15.988281 26.871094 14.867188 27.988281 13.488281 27.988281 L 12.488281 27.988281 C 11.109375 27.988281 9.992188 26.871094 9.992188 25.488281 Z M 12.492188 6 C 12.214844 6 11.992188 6.222656 11.992188 6.5 L 11.992188 25.488281 C 11.992188 25.765625 12.214844 25.988281 12.492188 25.988281 L 13.492188 25.988281 C 13.765625 25.988281 13.988281 25.765625 13.988281 25.488281 L 13.988281 6.496094 C 13.988281 6.222656 13.765625 5.996094 13.488281 5.996094 Z M 23.945312 9.554688 C 23.445312 8.316406 22.0625 7.691406 20.804688 8.128906 L 19.636719 8.535156 C 18.996094 8.761719 18.472656 9.242188 18.1875 9.863281 C 17.90625 10.484375 17.890625 11.191406 18.144531 11.824219 L 24.019531 26.433594 C 24.519531 27.675781 25.898438 28.300781 27.160156 27.859375 L 28.324219 27.453125 C 28.96875 27.226562 29.492188 26.746094 29.777344 26.125 C 30.058594 25.503906 30.074219 24.792969 29.816406 24.160156 Z M 21.464844 10.015625 C 21.714844 9.925781 21.992188 10.054688 22.089844 10.300781 L 27.964844 24.90625 C 28.015625 25.03125 28.011719 25.175781 27.957031 25.300781 C 27.898438 25.425781 27.796875 25.519531 27.664062 25.566406 L 26.503906 25.972656 C 26.25 26.058594 25.972656 25.933594 25.875 25.6875 L 20 11.078125 C 19.949219 10.953125 19.953125 10.8125 20.007812 10.6875 C 20.066406 10.5625 20.167969 10.46875 20.296875 10.421875 Z M 21.464844 10.015625 "/>
</svg>
