<svg role="img" viewBox="0 0 32 32" height="32" width="32" xmlns="http://www.w3.org/2000/svg"><path d="M16 .64c-.75 0-3.2.094-3.2 1.282V8.96a1.28 1.28 0 0 0 1.278 1.277.732.732 0 0 0 .242-.039c.004 0 .57-.219 1.68-.219 1.094 0 1.66.211 1.68.22.078.027.16.038.242.038a1.285 1.285 0 0 0 1.277-1.277V1.92C19.2.735 16.75.642 16 .642m-7.781.68c-1.516.042-3.285.507-4.84 2.062-3.11 3.11-1.895 7.094-1.5 8.137H8.96c.488 0 .93.144 1.32.382a7 7 0 0 1 1.617-1.62 2.492 2.492 0 0 1-.378-1.317V1.879a9.07 9.07 0 0 0-3.301-.559m15 0a8.974 8.974 0 0 0-2.739.559V8.96c0 .488-.144.93-.378 1.32a6.984 6.984 0 0 1 1.617 1.617c.394-.25.851-.382 1.32-.378h7.082c.395-1.047 1.61-5.032-1.5-8.141-1.75-1.75-3.777-2.125-5.402-2.059M8.3 2.578c.52-.012 1 .047 1.418.121a14.725 14.725 0 0 0-7.02 7.02c-.258-1.422-.23-3.59 1.602-5.418 1.289-1.293 2.75-1.692 4-1.723m14.879 0c1.351-.07 3.047.246 4.52 1.723 1.831 1.828 1.859 3.996 1.6 5.418a14.725 14.725 0 0 0-7.019-7.02c.297-.058.598-.097.899-.12M1.922 12.8C.734 12.8.64 15.25.64 16s.093 3.2 1.277 3.2H8.96a1.28 1.28 0 0 0 1.277-1.278.732.732 0 0 0-.039-.242c0-.004-.219-.57-.219-1.68 0-1.11.22-1.68.22-1.68a.643.643 0 0 0 .038-.242 1.285 1.285 0 0 0-1.277-1.277Zm21.117 0c-.703 0-1.277.57-1.277 1.277 0 .082.008.168.039.242 0 .004.219.57.219 1.68 0 1.11-.22 1.68-.22 1.68a.574.574 0 0 0-.038.242c0 .703.574 1.273 1.277 1.277h7.04c1.187 0 1.28-2.449 1.28-3.199s-.093-3.2-1.28-3.2Zm-12.758 7.3a2.667 2.667 0 0 1-1.32.38H1.879c-.395 1.046-1.61 5.027 1.5 8.14 1.629 1.625 3.5 2.059 5.062 2.059a9.09 9.09 0 0 0 3.079-.559v-7.08c0-.488.144-.93.378-1.32a6.909 6.909 0 0 1-1.617-1.617m11.438 0a7 7 0 0 1-1.617 1.62c.234.387.378.833.378 1.317v7.082a8.907 8.907 0 0 0 3.079.563c1.562 0 3.437-.438 5.062-2.063 3.11-3.11 1.895-7.094 1.5-8.137H23.04a2.556 2.556 0 0 1-1.32-.382m-7.637 1.66a1.294 1.294 0 0 0-1.281 1.277v7.04c0 1.187 2.449 1.28 3.199 1.28s3.2-.093 3.2-1.277V23.04c0-.703-.575-1.273-1.278-1.277a.732.732 0 0 0-.242.039c-.004 0-.57.219-1.68.219-1.11 0-1.68-.22-1.68-.22a.643.643 0 0 0-.242-.038m-11.383.523a14.75 14.75 0 0 0 7.024 7.02c-1.422.258-3.59.226-5.418-1.606-1.832-1.828-1.864-3.996-1.606-5.418m26.606 0c.258 1.422.226 3.59-1.606 5.418-1.828 1.832-3.996 1.863-5.418 1.606a14.675 14.675 0 0 0 7.024-7.024m0 0"/></svg>