<?xml version="1.0" encoding="UTF-8"?>
<svg xmlns="http://www.w3.org/2000/svg" xmlns:xlink="http://www.w3.org/1999/xlink" width="34.420008" height="32" viewBox="0 0 34.420008 32">
<defs>
<linearGradient id="linear-pattern-0" gradientUnits="userSpaceOnUse" x1="477.221008" y1="106.514999" x2="477.221008" y2="308.799988" gradientTransform="matrix(0.0681692, 0, 0, 0.0681692, 0.0824848, -0.8378)">
<stop offset="0" stop-color="rgb(16.862745%, 92.941176%, 65.490196%)" stop-opacity="1"/>
<stop offset="1" stop-color="rgb(0.392157%, 54.117647%, 99.215686%)" stop-opacity="1"/>
</linearGradient>
<linearGradient id="linear-pattern-1" gradientUnits="userSpaceOnUse" x1="25.459" y1="106.519997" x2="25.459" y2="308.812012" gradientTransform="matrix(0.0681692, 0, 0, 0.0681692, 0.0824848, -0.8378)">
<stop offset="0" stop-color="rgb(16.862745%, 92.941176%, 65.490196%)" stop-opacity="1"/>
<stop offset="1" stop-color="rgb(0.392157%, 54.117647%, 99.215686%)" stop-opacity="1"/>
</linearGradient>
<linearGradient id="linear-pattern-2" gradientUnits="userSpaceOnUse" x1="477.221008" y1="196.061996" x2="477.221008" y2="382.937988" gradientTransform="matrix(0.0681692, 0, 0, 0.0681692, 0.0824848, -0.8378)">
<stop offset="0" stop-color="rgb(16.862745%, 92.941176%, 65.490196%)" stop-opacity="1"/>
<stop offset="1" stop-color="rgb(0.392157%, 54.117647%, 99.215686%)" stop-opacity="1"/>
</linearGradient>
<linearGradient id="linear-pattern-3" gradientUnits="userSpaceOnUse" x1="403.048004" y1="238.884003" x2="403.048004" y2="425.76001" gradientTransform="matrix(0.0681692, 0, 0, 0.0681692, 0.0824848, -0.8378)">
<stop offset="0" stop-color="rgb(16.862745%, 92.941176%, 65.490196%)" stop-opacity="1"/>
<stop offset="1" stop-color="rgb(0.392157%, 54.117647%, 99.215686%)" stop-opacity="1"/>
</linearGradient>
<linearGradient id="linear-pattern-4" gradientUnits="userSpaceOnUse" x1="328.877014" y1="281.70401" x2="328.877014" y2="472.468994" gradientTransform="matrix(0.0681692, 0, 0, 0.0681692, 0.0824848, -0.8378)">
<stop offset="0" stop-color="rgb(16.862745%, 92.941176%, 65.490196%)" stop-opacity="1"/>
<stop offset="1" stop-color="rgb(0.392157%, 54.117647%, 99.215686%)" stop-opacity="1"/>
</linearGradient>
<linearGradient id="linear-pattern-5" gradientUnits="userSpaceOnUse" x1="173.820007" y1="281.70401" x2="173.820007" y2="472.466003" gradientTransform="matrix(0.0681692, 0, 0, 0.0681692, 0.0824848, -0.8378)">
<stop offset="0" stop-color="rgb(16.862745%, 92.941176%, 65.490196%)" stop-opacity="1"/>
<stop offset="1" stop-color="rgb(0.392157%, 54.117647%, 99.215686%)" stop-opacity="1"/>
</linearGradient>
<linearGradient id="linear-pattern-6" gradientUnits="userSpaceOnUse" x1="99.649002" y1="238.882996" x2="99.649002" y2="425.76001" gradientTransform="matrix(0.0681692, 0, 0, 0.0681692, 0.0824848, -0.8378)">
<stop offset="0" stop-color="rgb(16.862745%, 92.941176%, 65.490196%)" stop-opacity="1"/>
<stop offset="1" stop-color="rgb(0.392157%, 54.117647%, 99.215686%)" stop-opacity="1"/>
</linearGradient>
<linearGradient id="linear-pattern-7" gradientUnits="userSpaceOnUse" x1="25.478001" y1="196.059006" x2="25.478001" y2="382.936005" gradientTransform="matrix(0.0681692, 0, 0, 0.0681692, 0.0824848, -0.8378)">
<stop offset="0" stop-color="rgb(16.862745%, 92.941176%, 65.490196%)" stop-opacity="1"/>
<stop offset="1" stop-color="rgb(0.392157%, 54.117647%, 99.215686%)" stop-opacity="1"/>
</linearGradient>
</defs>
<path fill-rule="nonzero" fill="url(#linear-pattern-0)" d="M 31.46875 6.421875 L 31.46875 18.882812 L 33.765625 20.210938 L 33.765625 7.75 Z M 31.46875 6.421875 "/>
<path fill-rule="nonzero" fill="url(#linear-pattern-1)" d="M 0.667969 20.210938 L 2.964844 18.882812 L 2.964844 6.421875 L 0.667969 7.75 Z M 0.667969 20.210938 "/>
<path fill-rule="nonzero" fill="rgb(16.862745%, 92.941176%, 65.490196%)" fill-opacity="1" d="M 11.929688 20.089844 L 22.503906 26.191406 L 22.503906 23.539062 L 12.605469 17.828125 L 11.929688 18.214844 Z M 23.109375 29.730469 L 11.929688 23.273438 L 11.929688 25.925781 L 14.917969 27.648438 L 11.324219 29.722656 C 11.085938 29.859375 11.085938 30.214844 11.324219 30.351562 L 13.074219 31.367188 L 17.214844 28.980469 L 21.351562 31.367188 L 23.101562 30.351562 C 23.347656 30.21875 23.347656 29.867188 23.109375 29.730469 Z M 23.109375 29.730469 "/>
<path fill-rule="nonzero" fill="url(#linear-pattern-2)" d="M 31.46875 13.851562 L 31.46875 24.902344 C 31.46875 25.183594 31.765625 25.359375 32.011719 25.214844 L 33.585938 24.308594 C 33.695312 24.25 33.773438 24.125 33.773438 23.996094 L 33.773438 12.53125 Z M 31.46875 13.851562 "/>
<path fill-rule="nonzero" fill="url(#linear-pattern-3)" d="M 26.953125 28.132812 L 28.433594 27.273438 C 28.605469 27.179688 28.707031 26.996094 28.707031 26.804688 L 28.707031 15.449219 L 26.410156 16.777344 L 26.410156 27.828125 C 26.410156 28.101562 26.710938 28.277344 26.953125 28.132812 Z M 26.953125 28.132812 "/>
<path fill-rule="nonzero" fill="url(#linear-pattern-4)" d="M 21.351562 31.371094 L 23.472656 30.152344 C 23.582031 30.089844 23.65625 29.96875 23.65625 29.839844 L 23.65625 18.367188 L 21.351562 19.695312 Z M 21.351562 31.371094 "/>
<path fill-rule="nonzero" fill="url(#linear-pattern-5)" d="M 10.960938 30.144531 L 13.082031 31.367188 L 13.082031 19.695312 L 10.785156 18.367188 L 10.785156 29.832031 C 10.785156 29.960938 10.851562 30.082031 10.960938 30.144531 Z M 10.960938 30.144531 "/>
<path fill-rule="nonzero" fill="url(#linear-pattern-6)" d="M 6 27.28125 L 7.480469 28.140625 C 7.71875 28.277344 8.023438 28.105469 8.023438 27.828125 L 8.023438 16.769531 L 5.726562 15.441406 L 5.726562 26.804688 C 5.726562 27.003906 5.828125 27.1875 6 27.28125 Z M 6 27.28125 "/>
<path fill-rule="nonzero" fill="url(#linear-pattern-7)" d="M 0.941406 24.363281 L 2.421875 25.222656 C 2.660156 25.359375 2.964844 25.1875 2.964844 24.910156 L 2.964844 13.851562 L 0.667969 12.53125 L 0.667969 23.894531 C 0.667969 24.085938 0.769531 24.261719 0.941406 24.363281 Z M 0.941406 24.363281 "/>
<path fill-rule="nonzero" fill="rgb(16.862745%, 92.941176%, 65.490196%)" fill-opacity="1" d="M 33.765625 7.75 L 31.46875 6.421875 L 27.328125 8.808594 L 24.574219 7.21875 L 28.167969 5.148438 C 28.40625 5.011719 28.40625 4.65625 28.167969 4.519531 L 26.683594 3.660156 C 26.511719 3.566406 26.308594 3.566406 26.136719 3.660156 L 22.273438 5.890625 L 19.515625 4.300781 L 23.109375 2.230469 C 23.347656 2.09375 23.347656 1.738281 23.109375 1.601562 L 21.625 0.742188 C 21.453125 0.648438 21.25 0.648438 21.078125 0.742188 L 17.214844 2.972656 L 13.347656 0.742188 C 13.179688 0.648438 12.972656 0.648438 12.804688 0.742188 L 11.316406 1.601562 C 11.078125 1.738281 11.078125 2.09375 11.316406 2.230469 L 31.453125 13.859375 L 33.75 12.53125 L 29.613281 10.144531 Z M 7.75 3.660156 L 6.273438 4.519531 C 6.035156 4.65625 6.035156 5.011719 6.273438 5.148438 L 26.410156 16.777344 L 28.707031 15.449219 L 8.296875 3.660156 C 8.125 3.566406 7.921875 3.566406 7.75 3.660156 Z M 0.667969 7.75 L 4.804688 10.136719 L 0.667969 12.53125 L 2.972656 13.851562 L 7.105469 11.464844 L 9.863281 13.0625 L 5.726562 15.449219 L 8.023438 16.777344 L 12.160156 14.382812 L 14.917969 15.980469 L 10.777344 18.367188 L 13.082031 19.695312 L 17.214844 17.300781 L 21.351562 19.695312 L 23.648438 18.367188 L 2.964844 6.421875 Z M 0.667969 7.75 "/>
</svg>
