<svg role="img" viewBox="0 0 32 32" xmlns="http://www.w3.org/2000/svg"><path d="M16.516 15.066a4.47 4.47 0 0 1 4.363-3.53h4.656A4.465 4.465 0 0 1 30 16a4.47 4.47 0 0 1-1.309 3.148 4.46 4.46 0 0 1-3.156 1.317H20.88a4.4 4.4 0 0 1-1.926-.442l-.012-.003a4.5 4.5 0 0 1-1.515-1.2.934.934 0 0 1 .816-1.515.96.96 0 0 1 .633.34c.23.289.527.523.86.69l.035.017a2.6 2.6 0 0 0 1.109.25h4.656a2.6 2.6 0 0 0 1.836-.766A2.6 2.6 0 0 0 28.133 16c0-.691-.278-1.344-.762-1.836a2.62 2.62 0 0 0-1.836-.766H20.88a2.6 2.6 0 0 0-1.836.766 2.6 2.6 0 0 0-.59.902h4.063a.93.93 0 0 1 .93.934.92.92 0 0 1-.27.66.94.94 0 0 1-.66.27h-7.032a4.44 4.44 0 0 1-1.21 2.218 4.44 4.44 0 0 1-3.153 1.317H6.465C4 20.465 2 18.465 2 16a4.47 4.47 0 0 1 4.465-4.465h4.656c.715 0 1.414.168 2.047.5a4.6 4.6 0 0 1 1.602 1.395c.293.422.195 1-.22 1.3a.92.92 0 0 1-.695.16.96.96 0 0 1-.605-.378 2.62 2.62 0 0 0-2.129-1.114H6.465a2.62 2.62 0 0 0-1.836.766 2.593 2.593 0 0 0 0 3.672 2.6 2.6 0 0 0 1.836.766h4.656a2.6 2.6 0 0 0 1.832-.766c.258-.258.461-.566.594-.906H9.73a.95.95 0 0 1-.66-.27.947.947 0 0 1 0-1.32.94.94 0 0 1 .66-.274Zm0 0" fill-rule="evenodd"/></svg>