<svg role="img" viewBox="0 0 32 32" xmlns="http://www.w3.org/2000/svg"><path d="m13.398 10.8.067 1.532-1.067 2-1.664 3.27-.336 2.73 1.204 3.867 2.73 1.535h4.133l3.867-2.933 1.734-4.602-4-4.867-1.132-2.73Zm0 0" fill="rgb(92.54902%, 93.725491%, 94.509804%)"/><path d="M22.867 14.602c-1.066-1.536-1.933-2.47-2.402-4.403-.465-1.933.137-1.398-.266-3.066a5.2 5.2 0 0 0-.867-1.934c-.398-.465-.867-.734-1.133-.8-.597-.333-2-.864-3.734.066-1.797.933-1.598 2.933-1.266 7 0 .27-.066.601-.199.867-.266.602-.734 1.133-1.133 1.602-.469.668-.933 1.332-1.265 2.066-.801 1.535-1.536 3.465-1.336 4.2.336-.067 4.535 6.335 4.535 6.468.265-.066 1.398-.066 2.398-.066 1.403-.067 2.2-.137 3.336.132 0-.199-.07-.402-.07-.601 0-.399.07-.735.137-1.2.066-.331.132-.667.199-1.066-.668.598-1.867 1.266-3 1.465-1 .203-2.668-.133-3.469-1.133.066 0 .203 0 .27-.066.199-.067.398-.133.464-.266.2-.332.067-.668-.066-.867-.133-.2-1.133-.934-1.602-1.332-.464-.402-.73-.602-1-.867l-.53-.535c-.134-.133-.2-.266-.266-.332-.137-.332-.204-.735-.137-1.266.07-.734.336-1.336.668-2 .133-.27.469-.8.469-.8s-1.137 2.8-.536 3.667c0 0 .067-.867.332-1.734.204-.602.536-1.469.934-1.934.402-.469 1.402-2.199 1.469-3.265 0-.47.066-.934.066-1.27-.265-.266 4.399-.934 4.668-.2.067.266 1 2.669 1.531 3.934.266.602.602 1.133.801 1.801.2.735.332 1.735.332 2.735 0 .199 0 .53-.066.863.133 0 2.734-2.797-.332-5.133 0 0 1.867.867 1.933 2.602.067 1.398-.535 2.53-.668 2.734.067 0 1.399.598 1.47.598.265 0 .796-.2.796-.2.066-.199.27-.734.27-.933.464-1.531-.668-4-1.735-5.531" fill="rgb(14.901961%, 19.607843%, 21.960784%)"/><path d="M14.398 7.535c-.476 0-.863.594-.863 1.332 0 .735.387 1.332.863 1.332.48 0 .868-.597.868-1.332 0-.738-.387-1.332-.868-1.332m3-.27c-.625 0-1.132.688-1.132 1.536 0 .847.507 1.531 1.132 1.531.63 0 1.137-.684 1.137-1.531 0-.848-.508-1.535-1.137-1.535" fill="rgb(92.54902%, 93.725491%, 94.509804%)"/><path d="M13.957 9.074c.035.285.156.54.32.664.16.121.34.102.465-.058.125-.164.18-.438.14-.723-.03-.285-.155-.535-.316-.66-.16-.125-.34-.102-.464.058-.125.16-.18.434-.145.72m3.375-.876c-.367 0-.664.39-.664.867 0 .48.297.868.664.868.371 0 .668-.387.668-.868 0-.476-.297-.867-.668-.867" fill="rgb(12.941177%, 12.941177%, 12.941177%)"/><path d="M26.2 23.734c-.266-.132-.735-.336-1.134-.933-.199-.336-.132-1.266-.464-1.668-.204-.266-.47-.133-.536-.133-.601.133-2 1.066-2.933 0-.133-.133-.332-.332-.668-.332-.332 0-.465.133-.598.398-.133.266-.133.47-.133 1.133 0 .535 0 1.133-.066 1.602-.133 1.133-.336 1.8-.336 2.465 0 .734.203 1.199.469 1.402.199.2.531.332 1.265.332.735 0 1.2-.266 1.668-.734.332-.332.598-.465 1.532-1.133.734-.465 1.867-1.067 2.066-1.266.133-.133.336-.199.336-.601 0-.332-.27-.465-.469-.532m-13.398.2c-.668-1.067-.735-1.266-1.2-1.934-.402-.668-1.269-1.934-1.8-1.934-.403 0-.602.2-.867.47-.266.265-.536.862-1 1.198-.399.332-1.536.266-1.801.664-.266.403.265 1 .265 2 0 .403-.332.668-.398.934-.066.336-.133.535 0 .8.266.403.602.536 2.867 1 1.2.266 2.332.934 3.067 1 .734.067 2 0 2-1.8C14 25.266 13.398 25 12.8 23.934m1.265-12.067c-.398-.265-.734-.535-.734-.933 0-.399.27-.536.668-.868.066-.066.8-.734 1.535-.734.73 0 1.598.469 1.93.602.601.132 1.203.265 1.137.734-.067.664-.137.797-.801 1.133-.469.133-1.336.867-1.934.867-.265 0-.668 0-.933-.066-.2-.067-.536-.403-.868-.735" fill="rgb(100%, 75.686276%, 2.745098%)"/><path d="M13.934 11.332c.132.133.332.27.53.336.138.066.337.133.337.133h.597c.336 0 .801-.133 1.27-.403.465-.199.531-.332.867-.464.332-.2.664-.399.531-.47-.132-.066-.265 0-.734.27-.398.266-.73.399-1.133.598-.199.066-.465.203-.664.203h-.601c-.2 0-.332-.07-.536-.137-.132-.066-.199-.132-.265-.132-.133-.067-.399-.332-.531-.399 0 0-.137 0-.067.067Zm2-1.465c.066.133.199.133.265.2q.055.058.133.066c.066-.067 0-.2-.066-.2 0-.132-.332-.132-.332-.066M14.867 10c0 .066.133.133.133.066.066-.066.133-.132.2-.132.132-.067.066-.133-.134-.133-.132.066-.132.133-.199.199" fill="rgb(38.82353%, 27.843139%, 1.176471%)"/><path d="M21.332 21.8v.2c.133.266.469.332.734.332.399 0 .801-.266 1-.531 0-.067.067-.133.133-.2.133-.203.2-.335.266-.402 0 0-.067-.066-.067-.133-.066-.132-.265-.265-.53-.332a3 3 0 0 0-.669-.132c-.597-.067-.933.132-1.133.332 0 0 .067 0 .067.066.133.117.203.29.199.465.066.137 0 .203 0 .336" fill="rgb(27.058825%, 35.294119%, 39.215687%)"/></svg>