<svg role="img" viewBox="0 0 32 32" xmlns="http://www.w3.org/2000/svg"><path d="M.363 16C.363 7.395 7.403.363 16 .363 24.648.363 31.637 7.395 31.637 16c0 8.64-6.989 15.637-15.637 15.637C7.402 31.637.363 24.64.363 16m2.524-.75v1.535h4.508v1.485l2.054-2.262-2.054-2.278v1.52Zm13.12 6.555a5.5 5.5 0 0 0 3.923-1.625 5.5 5.5 0 0 0 1.613-3.926c0-3.055-2.473-5.547-5.535-5.547s-5.559 2.492-5.559 5.547c0 3.09 2.496 5.55 5.559 5.55m0-9.863c-2.406 0-4.352 1.942-4.352 4.313a4.353 4.353 0 0 0 4.352 4.351 4.357 4.357 0 0 0 4.347-4.351c0-2.371-1.957-4.313-4.347-4.313m8.64-2.75.72 1.204-3.817 2.136c.355.348.566.793.797 1.2l3.77-2.086.702 1.199.782-2.895Zm4.465 6.852-2.05-2.313v1.52H23.07c.063.25.063.496.063.758 0 .281 0 .531-.063.777h3.992v1.485Zm-1.511 6.008-.782-2.867-.703 1.21-3.77-2.124c-.23.437-.44.843-.796 1.234l3.816 2.101-.719 1.204Zm0 0" fill="rgb(0%, 0%, 0%)"/><path d="M16 .676C7.535.676.676 7.536.676 16c0 8.465 6.86 15.324 15.324 15.324 8.465 0 15.324-6.86 15.324-15.324C31.324 7.535 24.464.676 16 .676" fill="rgb(100%, 100%, 100%)"/><path d="M.363 16C.363 7.395 7.403.363 16 .363 24.648.363 31.637 7.395 31.637 16c0 8.64-6.989 15.637-15.637 15.637C7.402 31.637.363 24.64.363 16m2.524-.75v1.535h4.508v1.485l2.054-2.262-2.054-2.278v1.52Zm13.12 6.555a5.5 5.5 0 0 0 3.923-1.625 5.5 5.5 0 0 0 1.613-3.926c0-3.055-2.473-5.547-5.535-5.547s-5.559 2.492-5.559 5.547c0 3.09 2.496 5.55 5.559 5.55m0-9.863c-2.406 0-4.352 1.942-4.352 4.313a4.353 4.353 0 0 0 4.352 4.351 4.357 4.357 0 0 0 4.347-4.351c0-2.371-1.957-4.313-4.347-4.313m8.64-2.75.72 1.204-3.817 2.136c.355.348.566.793.797 1.2l3.77-2.086.702 1.199.782-2.895Zm4.465 6.852-2.05-2.313v1.52H23.07c.063.25.063.496.063.758 0 .281 0 .531-.063.777h3.992v1.485Zm-1.511 6.008-.782-2.867-.703 1.21-3.77-2.124c-.23.437-.44.843-.796 1.234l3.816 2.101-.719 1.204Zm0 0" fill="rgb(0%, 0%, 0%)"/></svg>