<?xml version="1.0" encoding="UTF-8"?>
<svg xmlns="http://www.w3.org/2000/svg" xmlns:xlink="http://www.w3.org/1999/xlink" width="32" height="32" viewBox="0 0 32 32">
<path fill-rule="nonzero" fill="rgb(0%, 0%, 0%)" fill-opacity="1" d="M 16 1.921875 C 11.753906 1.921875 8.320312 5.351562 8.320312 9.601562 L 8.320312 12.800781 L 5.761719 12.800781 C 4.671875 12.800781 3.839844 13.632812 3.839844 14.71875 L 3.839844 30.078125 C 3.839844 31.167969 4.671875 32 5.761719 32 L 26.238281 32 C 27.328125 32 28.160156 31.167969 28.160156 30.078125 L 28.160156 14.71875 C 28.160156 13.632812 27.328125 12.800781 26.238281 12.800781 L 23.679688 12.800781 L 23.679688 9.601562 C 23.679688 5.351562 20.246094 1.921875 16 1.921875 Z M 16 3.199219 C 19.5625 3.199219 22.398438 6.039062 22.398438 9.601562 L 22.398438 12.800781 L 9.601562 12.800781 L 9.601562 9.601562 C 9.601562 6.039062 12.4375 3.199219 16 3.199219 Z M 16 19.199219 C 17.085938 19.199219 17.921875 20.03125 17.921875 21.121094 C 17.921875 21.695312 17.664062 22.199219 17.28125 22.519531 L 17.28125 24.320312 C 17.28125 25.023438 16.703125 25.601562 16 25.601562 C 15.296875 25.601562 14.71875 25.023438 14.71875 24.320312 L 14.71875 22.519531 C 14.335938 22.199219 14.078125 21.695312 14.078125 21.121094 C 14.078125 20.03125 14.914062 19.199219 16 19.199219 Z M 16 19.199219 "/>
</svg>
