<svg role="img" viewBox="0 0 32 32" height="32" width="32" xmlns="http://www.w3.org/2000/svg"><path d="M16.012 1.27c-6.133 0-11.395 3.765-13.602 9.113a1.29 1.29 0 0 0 .152 1.285c.282.367.739.555 1.196.492.46-.062.847-.367 1.015-.8 1.825-4.419 6.153-7.532 11.239-7.532 6.73 0 12.16 5.43 12.16 12.16s-5.43 12.16-12.16 12.16c-5.086 0-9.414-3.113-11.239-7.527a1.298 1.298 0 0 0-1.015-.805 1.281 1.281 0 0 0-1.348 1.782c2.207 5.347 7.469 9.109 13.602 9.109 8.113 0 14.718-6.602 14.718-14.719 0-8.113-6.605-14.718-14.718-14.718m1.246 8.945a1.28 1.28 0 0 0-1.188.8 1.274 1.274 0 0 0 .293 1.4l2.297 2.292H2.547c-.707 0-1.277.574-1.277 1.281s.57 1.282 1.277 1.282H18.66l-2.297 2.293c-.332.32-.465.8-.343 1.246a1.277 1.277 0 0 0 2.152.566l4.48-4.48c.5-.5.5-1.313 0-1.813l-4.48-4.477c-.238-.25-.57-.39-.914-.39"/></svg>