<svg role="img" viewBox="0 0 32 32" xmlns="http://www.w3.org/2000/svg"><path d="M1.922 0A1.93 1.93 0 0 0 0 1.922v28.156C0 31.137.863 32 1.922 32H23.68a1.923 1.923 0 0 0 1.922-1.922v-5.66c-.348.3-.778.48-1.243.48A1.92 1.92 0 0 1 23 24.32a1.903 1.903 0 0 1 0-2.7L25.602 19v-1.078H10.879A1.925 1.925 0 0 1 8.96 16c0-1.059.863-1.922 1.918-1.922h14.723V13L23 10.379a1.86 1.86 0 0 1-.559-1.34 1.91 1.91 0 0 1 1.918-1.918c.465 0 .895.16 1.243.461v-5.66A1.93 1.93 0 0 0 23.68 0Zm22.437 8.398a.67.67 0 0 0-.46.18.65.65 0 0 0-.188.453c0 .168.07.328.187.45l5.883 5.878H10.88a.64.64 0 0 0 0 1.282h18.9l-5.883 5.879a.633.633 0 0 0 0 .902.66.66 0 0 0 .461.2.6.6 0 0 0 .442-.2L32.219 16 24.8 8.578a.62.62 0 0 0-.442-.18" fill="rgb(0%, 0%, 0%)"/></svg>