<?xml version="1.0" encoding="UTF-8"?>
<svg xmlns="http://www.w3.org/2000/svg" xmlns:xlink="http://www.w3.org/1999/xlink" width="38.791632" height="32" viewBox="0 0 38.791632 32">
<path fill-rule="nonzero" fill="rgb(100%, 100%, 100%)" fill-opacity="1" d="M 33.148438 6.546875 C 32.101562 6.394531 31.125 7.121094 30.972656 8.167969 L 30.6875 10.09375 L 19.410156 12.34375 L 8.132812 10.09375 L 7.847656 8.167969 C 7.691406 7.121094 6.71875 6.398438 5.671875 6.550781 C 4.621094 6.707031 3.898438 7.679688 4.050781 8.726562 L 4.53125 11.992188 C 4.648438 12.792969 5.257812 13.433594 6.054688 13.59375 L 14 15.179688 L 15.082031 21.84375 C 15.183594 23.886719 16.867188 25.496094 18.917969 25.5 L 19.902344 25.5 C 21.941406 25.496094 23.625 23.902344 23.734375 21.863281 L 24.957031 15.175781 C 24.957031 15.167969 24.957031 15.160156 24.960938 15.152344 L 32.765625 13.59375 C 33.5625 13.433594 34.171875 12.792969 34.289062 11.992188 L 34.769531 8.726562 L 34.769531 8.722656 C 34.921875 7.675781 34.199219 6.699219 33.148438 6.546875 Z M 19.933594 21.316406 C 19.914062 21.429688 19.902344 21.546875 19.902344 21.660156 L 18.917969 21.660156 C 18.917969 21.558594 18.910156 21.457031 18.894531 21.351562 L 18.019531 15.980469 L 19.035156 16.183594 C 19.28125 16.234375 19.539062 16.234375 19.785156 16.183594 L 20.910156 15.960938 Z M 19.933594 21.316406 "/>
<path fill-rule="nonzero" fill="rgb(37.254902%, 13.333333%, 29.019608%)" fill-opacity="1" d="M 19.410156 16.222656 C 19.285156 16.222656 19.15625 16.210938 19.035156 16.183594 L 18.019531 15.980469 L 18.894531 21.351562 C 18.910156 21.457031 18.917969 21.558594 18.917969 21.660156 L 19.902344 21.660156 C 19.902344 21.546875 19.914062 21.429688 19.933594 21.316406 L 20.910156 15.960938 L 19.785156 16.183594 C 19.660156 16.210938 19.535156 16.222656 19.410156 16.222656 Z M 19.410156 16.222656 "/>
<path fill-rule="nonzero" fill="rgb(37.254902%, 13.333333%, 29.019608%)" fill-opacity="1" d="M 34.105469 0.746094 L 4.714844 0.746094 C 2.535156 0.753906 0.773438 2.515625 0.765625 4.691406 L 0.765625 27.335938 C 0.773438 29.511719 2.535156 31.273438 4.714844 31.28125 L 34.105469 31.28125 C 36.28125 31.273438 38.046875 29.511719 38.050781 27.335938 L 38.050781 4.691406 C 38.046875 2.515625 36.28125 0.753906 34.105469 0.746094 Z M 34.769531 8.722656 L 34.769531 8.726562 L 34.289062 11.992188 C 34.171875 12.792969 33.5625 13.433594 32.765625 13.59375 L 24.960938 15.152344 C 24.957031 15.160156 24.957031 15.167969 24.957031 15.175781 L 23.734375 21.863281 C 23.625 23.902344 21.941406 25.496094 19.902344 25.5 L 18.917969 25.5 C 16.867188 25.496094 15.183594 23.886719 15.082031 21.84375 L 14 15.179688 L 6.054688 13.59375 C 5.257812 13.433594 4.648438 12.792969 4.53125 11.992188 L 4.050781 8.726562 C 3.894531 7.679688 4.621094 6.703125 5.671875 6.550781 C 6.71875 6.394531 7.695312 7.121094 7.847656 8.167969 L 8.132812 10.09375 L 19.410156 12.34375 L 30.6875 10.09375 L 30.972656 8.167969 C 31.070312 7.488281 31.523438 6.914062 32.160156 6.660156 C 32.800781 6.40625 33.523438 6.511719 34.0625 6.9375 C 34.601562 7.363281 34.871094 8.046875 34.769531 8.722656 Z M 34.769531 8.722656 "/>
</svg>
