<?xml version="1.0" encoding="UTF-8"?>
<svg xmlns="http://www.w3.org/2000/svg" xmlns:xlink="http://www.w3.org/1999/xlink" width="32" height="32" viewBox="0 0 32 32">
<path fill="none" stroke-width="0.712" stroke-linecap="round" stroke-linejoin="round" stroke="rgb(50.196078%, 50.196078%, 50.196078%)" stroke-opacity="1" stroke-miterlimit="4" d="M 29.695312 8.828125 C 33.226562 15.765625 31.074219 24.246094 24.65625 28.65625 C 18.242188 33.066406 9.550781 32.039062 4.339844 26.253906 C -0.867188 20.464844 -0.984375 11.714844 4.074219 5.796875 C 9.128906 -0.125 17.789062 -1.382812 24.320312 2.859375 "/>
<path fill-rule="nonzero" fill="rgb(0%, 0%, 50.196078%)" fill-opacity="1" d="M 3.871094 15.871094 C 3.871094 9.222656 9.222656 3.871094 15.871094 3.871094 C 22.519531 3.871094 27.871094 9.222656 27.871094 15.871094 C 27.871094 22.519531 22.519531 27.871094 15.871094 27.871094 C 9.222656 27.871094 3.871094 22.519531 3.871094 15.871094 M 3.871094 15.871094 "/>
<path fill-rule="nonzero" fill="rgb(100%, 100%, 100%)" fill-opacity="1" d="M 17.324219 10.898438 C 17.324219 9.964844 17.695312 9.074219 18.351562 8.414062 C 19.011719 7.753906 19.90625 7.386719 20.839844 7.386719 C 21.773438 7.382812 22.667969 7.753906 23.328125 8.414062 C 23.988281 9.070312 24.359375 9.964844 24.355469 10.898438 C 24.359375 11.832031 23.988281 12.726562 23.328125 13.386719 C 22.667969 14.046875 21.773438 14.417969 20.839844 14.414062 C 19.90625 14.417969 19.011719 14.046875 18.351562 13.386719 C 17.691406 12.726562 17.320312 11.832031 17.324219 10.898438 M 17.324219 10.898438 "/>
<path fill-rule="nonzero" fill="rgb(0%, 0%, 50.196078%)" fill-opacity="1" d="M 24.355469 3.871094 C 24.355469 1.929688 25.925781 0.359375 27.867188 0.359375 C 29.140625 0.332031 30.332031 0.992188 30.980469 2.089844 C 31.625 3.191406 31.625 4.554688 30.980469 5.652344 C 30.332031 6.75 29.140625 7.414062 27.867188 7.382812 C 25.925781 7.382812 24.355469 5.8125 24.355469 3.871094 M 24.355469 3.871094 "/>
<path fill-rule="nonzero" fill="rgb(100%, 100%, 100%)" fill-opacity="1" d="M 12.621094 21.871094 L 12.621094 20.984375 L 8.730469 20.984375 L 8.730469 13.996094 L 7.726562 13.996094 L 7.726562 21.871094 Z M 18.015625 21.871094 L 18.015625 16.210938 L 17.121094 16.210938 L 17.121094 19.332031 C 17.121094 20.488281 16.515625 21.242188 15.578125 21.242188 C 14.863281 21.242188 14.410156 20.8125 14.410156 20.132812 L 14.410156 16.210938 L 13.511719 16.210938 L 13.511719 20.488281 C 13.511719 21.429688 14.214844 22.03125 15.316406 22.03125 C 16.148438 22.03125 16.679688 21.742188 17.207031 20.996094 L 17.207031 21.871094 Z M 24.601562 21.847656 L 24.601562 21.167969 C 24.503906 21.191406 24.460938 21.191406 24.40625 21.191406 C 24.09375 21.191406 23.921875 21.027344 23.921875 20.746094 L 23.921875 17.59375 C 23.921875 16.589844 23.1875 16.050781 21.792969 16.050781 C 20.421875 16.050781 19.578125 16.578125 19.527344 17.886719 L 20.433594 17.886719 C 20.507812 17.195312 20.917969 16.882812 21.761719 16.882812 C 22.570312 16.882812 23.023438 17.183594 23.023438 17.722656 L 23.023438 17.960938 C 23.023438 18.339844 22.796875 18.5 22.085938 18.585938 C 20.8125 18.75 20.617188 18.792969 20.269531 18.933594 C 19.613281 19.203125 19.277344 19.710938 19.277344 20.402344 C 19.277344 21.425781 19.988281 22.03125 21.132812 22.03125 C 21.859375 22.03125 22.558594 21.730469 23.058594 21.199219 C 23.15625 21.632812 23.539062 21.941406 23.984375 21.945312 C 24.167969 21.945312 24.308594 21.925781 24.601562 21.847656 M 23.023438 19.914062 C 23.023438 20.726562 22.203125 21.242188 21.328125 21.242188 C 20.628906 21.242188 20.21875 20.996094 20.21875 20.378906 C 20.21875 19.785156 20.617188 19.527344 21.578125 19.386719 C 22.527344 19.257812 22.722656 19.214844 23.023438 19.074219 Z M 23.023438 19.914062 "/>
</svg>
