<svg role="img" viewBox="0 0 32 32" height="32" width="32" xmlns="http://www.w3.org/2000/svg"><path d="M29.695 8.828c3.532 6.938 1.38 15.418-5.039 19.828-6.414 4.41-15.105 3.383-20.316-2.402-5.207-5.79-5.324-14.54-.266-20.457A15.51 15.51 0 0 1 24.32 2.859" fill="none" stroke="rgb(50.196078%, 50.196078%, 50.196078%)" stroke-linecap="round" stroke-linejoin="round" stroke-width=".712"/><path d="M3.871 15.871c0-6.648 5.352-12 12-12 6.649 0 12 5.352 12 12 0 6.649-5.351 12-12 12-6.648 0-12-5.351-12-12m0 0" fill="rgb(0%, 0%, 50.196078%)"/><path d="M17.324 10.898a3.52 3.52 0 0 1 1.028-2.484 3.515 3.515 0 0 1 2.488-1.027 3.498 3.498 0 0 1 2.488 1.027 3.483 3.483 0 0 1 1.027 2.484 3.498 3.498 0 0 1-1.027 2.489 3.498 3.498 0 0 1-2.488 1.027 3.498 3.498 0 0 1-2.488-1.027 3.498 3.498 0 0 1-1.028-2.489m0 0" fill="rgb(100%, 100%, 100%)"/><path d="M24.355 3.871A3.51 3.51 0 0 1 27.867.36a3.527 3.527 0 0 1 3.113 1.73 3.524 3.524 0 0 1 0 3.563 3.52 3.52 0 0 1-3.113 1.73 3.51 3.51 0 0 1-3.512-3.51m0 0" fill="rgb(0%, 0%, 50.196078%)"/><path d="M12.621 21.871v-.887h-3.89v-6.988H7.726v7.875Zm5.395 0v-5.66h-.895v3.121c0 1.156-.605 1.91-1.543 1.91-.715 0-1.168-.43-1.168-1.11v-3.921h-.898v4.277c0 .942.703 1.543 1.804 1.543.832 0 1.364-.289 1.891-1.035v.875Zm6.586-.023v-.68c-.098.023-.141.023-.196.023-.312 0-.484-.164-.484-.445v-3.152c0-1.004-.735-1.543-2.129-1.543-1.371 0-2.215.527-2.266 1.836h.907c.074-.692.484-1.004 1.328-1.004.808 0 1.261.3 1.261.84v.238c0 .379-.226.539-.937.625-1.273.164-1.469.207-1.816.348-.657.27-.993.777-.993 1.468 0 1.024.711 1.63 1.856 1.63.726 0 1.426-.302 1.926-.833.097.434.48.742.925.746.184 0 .325-.02.618-.097m-1.579-1.934c0 .813-.82 1.328-1.695 1.328-.7 0-1.11-.246-1.11-.863 0-.594.4-.852 1.36-.992.95-.13 1.145-.172 1.445-.313Zm0 0" fill="rgb(100%, 100%, 100%)"/></svg>