<?xml version="1.0" encoding="UTF-8"?>
<svg xmlns="http://www.w3.org/2000/svg" xmlns:xlink="http://www.w3.org/1999/xlink" width="48.148109" height="32" viewBox="0 0 48.148109 32">
<path fill-rule="evenodd" fill="rgb(0%, 16.862745%, 39.215686%)" fill-opacity="1" d="M 47.085938 0.0664062 C 46.339844 0.09375 46.578125 0.300781 44.96875 0.695312 C 43.34375 1.089844 41.359375 0.96875 39.609375 1.703125 C 34.390625 3.894531 33.34375 11.371094 28.597656 14.050781 C 25.0625 16.054688 21.46875 16.214844 18.261719 17.210938 C 16.144531 17.878906 13.84375 19.230469 11.914062 20.878906 C 10.429688 22.15625 10.390625 23.285156 8.832031 24.894531 C 7.175781 26.621094 2.21875 24.941406 0 27.574219 C 0.722656 28.296875 1.042969 28.503906 2.464844 28.316406 C 2.171875 28.871094 0.433594 29.339844 0.769531 30.167969 C 1.128906 31.035156 5.324219 31.617188 9.132812 29.3125 C 10.910156 28.242188 12.320312 26.6875 15.074219 26.3125 C 18.667969 25.832031 22.785156 26.613281 26.914062 27.214844 C 26.292969 29.050781 25.0625 30.273438 24.074219 31.710938 C 23.773438 32.039062 24.695312 32.078125 25.738281 31.878906 C 27.628906 31.410156 28.980469 31.035156 30.421875 30.207031 C 32.171875 29.179688 32.433594 26.566406 34.597656 26.003906 C 35.789062 27.84375 39.042969 28.277344 41.074219 26.800781 C 39.296875 26.292969 38.808594 22.511719 39.410156 20.859375 C 39.976562 19.289062 40.539062 16.757812 41.113281 14.671875 C 41.722656 12.433594 41.949219 9.613281 42.691406 8.484375 C 43.8125 6.773438 45.042969 6.179688 46.125 5.21875 C 47.199219 4.25 48.175781 3.3125 48.148438 1.089844 C 48.136719 0.378906 47.769531 -0.0195312 47.09375 0 Z M 47.085938 0.0664062 "/>
<path fill-rule="nonzero" fill="rgb(76.862745%, 60.392157%, 42.352941%)" fill-opacity="1" d="M 1.550781 30.066406 C 4.261719 30.449219 5.914062 30.066406 8.117188 29.113281 C 9.96875 28.304688 11.753906 26.652344 13.957031 25.957031 C 17.171875 24.921875 20.707031 25.957031 24.160156 26.164062 C 24.996094 26.210938 25.832031 26.210938 26.648438 26.125 C 27.929688 25.335938 27.910156 22.402344 29.152344 22.109375 C 29.113281 26.238281 27.421875 28.71875 25.644531 31.109375 C 29.394531 30.449219 31.617188 28.296875 33.121094 25.402344 C 33.582031 24.527344 33.964844 23.585938 34.3125 22.589844 C 34.851562 23.003906 34.550781 24.253906 34.8125 24.921875 C 37.390625 23.492188 38.855469 20.210938 39.84375 16.910156 C 40.972656 13.082031 41.433594 9.199219 42.167969 8.070312 C 42.871094 6.960938 43.980469 6.28125 45.007812 5.578125 C 46.152344 4.769531 47.179688 3.933594 47.347656 2.390625 C 46.136719 2.277344 45.863281 1.996094 45.683594 1.382812 C 45.082031 1.722656 44.515625 1.796875 43.886719 1.816406 C 43.34375 1.835938 42.738281 1.804688 42.007812 1.882812 C 35.949219 2.503906 35.179688 9.199219 31.296875 12.96875 C 31.011719 13.242188 30.703125 13.503906 30.382812 13.738281 C 29.019531 14.753906 27.355469 15.480469 25.832031 16.0625 C 23.347656 17.011719 20.988281 17.078125 18.65625 17.894531 C 16.945312 18.5 15.207031 19.371094 13.8125 20.332031 C 13.464844 20.578125 13.128906 20.820312 12.828125 21.066406 C 12 21.742188 11.464844 22.484375 10.9375 23.257812 C 10.390625 24.046875 9.875 24.863281 9.085938 25.644531 C 7.796875 26.90625 2.980469 26.011719 1.289062 27.1875 C 1.101562 27.320312 0.949219 27.46875 0.847656 27.65625 C 1.769531 28.082031 2.386719 27.816406 3.453125 27.941406 C 3.59375 28.945312 1.261719 29.546875 1.597656 30.007812 Z M 1.550781 30.066406 "/>
<path fill-rule="evenodd" fill="rgb(76.862745%, 60.392157%, 42.352941%)" fill-opacity="1" d="M 38.246094 22.570312 C 38.320312 23.726562 38.988281 26.019531 39.582031 26.585938 C 38.414062 26.867188 36.421875 26.398438 35.914062 25.578125 C 36.175781 24.394531 37.550781 23.3125 38.253906 22.578125 Z M 38.246094 22.570312 "/>
<path fill-rule="evenodd" fill="rgb(0%, 16.862745%, 39.215686%)" fill-opacity="1" d="M 39.851562 4.355469 C 40.707031 5.097656 42.515625 4.503906 42.183594 3.019531 C 40.859375 2.90625 40.089844 3.367188 39.851562 4.355469 "/>
<path fill-rule="nonzero" fill="rgb(0%, 16.862745%, 39.215686%)" fill-opacity="1" d="M 45.75 2.484375 C 45.523438 2.964844 45.082031 3.574219 45.082031 4.796875 C 45.082031 5.003906 44.921875 5.152344 44.921875 4.824219 C 44.929688 3.628906 45.25 3.121094 45.578125 2.445312 C 45.738281 2.164062 45.832031 2.277344 45.75 2.484375 "/>
<path fill-rule="nonzero" fill="rgb(0%, 16.862745%, 39.215686%)" fill-opacity="1" d="M 45.75 2.484375 C 45.484375 2.933594 44.835938 3.773438 44.722656 4.984375 C 44.707031 5.191406 44.535156 5.324219 44.5625 5.003906 C 44.675781 3.820312 45.195312 3.074219 45.589844 2.4375 C 45.769531 2.164062 45.851562 2.285156 45.75 2.484375 M 45.476562 2.210938 C 45.175781 2.644531 44.167969 3.640625 43.960938 4.84375 C 43.925781 5.050781 43.746094 5.164062 43.800781 4.84375 C 44.019531 3.679688 44.875 2.757812 45.324219 2.136719 C 45.523438 1.890625 45.597656 2.023438 45.476562 2.210938 M 45.214844 1.949219 C 44.847656 2.332031 43.660156 3.613281 43.285156 4.757812 C 43.21875 4.957031 43.023438 5.042969 43.125 4.742188 C 43.5 3.613281 44.546875 2.398438 45.070312 1.84375 C 45.308594 1.628906 45.355469 1.769531 45.214844 1.929688 Z M 45.214844 1.949219 "/>
</svg>
