<svg role="img" viewBox="0 0 27.9 32" xmlns="http://www.w3.org/2000/svg"><path d="M27.004 31.203V.703h-2.188v-.73h3.04v32h-3.04v-.73ZM8.137 10.406v1.54h.043a4.55 4.55 0 0 1 1.488-1.372c.582-.32 1.25-.484 1.992-.484.719 0 1.38.14 1.969.422.594.277 1.05.77 1.36 1.476.34-.5.796-.937 1.378-1.316.582-.387 1.274-.574 2.063-.574.601 0 1.16.074 1.668.218q.774.222 1.32.707.55.486.86 1.27c.206.523.308 1.148.308 1.89v7.63h-3.129v-6.461q0-.54-.047-1.079a2.3 2.3 0 0 0-.238-.882 1.45 1.45 0 0 0-.586-.594q-.386-.223-1.05-.223c-.438 0-.798.086-1.071.254-.266.164-.485.39-.637.66q-.242.436-.308.93-.078.523-.079 1.05v6.348h-3.129v-6.398c0-.34-.007-.676-.023-1a2.9 2.9 0 0 0-.187-.918 1.4 1.4 0 0 0-.551-.672q-.386-.253-1.14-.254-.3.013-.583.102a2 2 0 0 0-.707.375q-.34.273-.582.793-.241.516-.242 1.36v6.62H5.168V10.422ZM.84.738v30.5h2.19v.73H-.008v-32H3.02V.7Zm0 0" fill="rgb(1.568628%, 1.568628%, 1.568628%)"/></svg>