<svg role="img" viewBox="0 0 27.9 32" height="32" width="27.9" xmlns="http://www.w3.org/2000/svg"><path d="M27.004 31.203V.703h-2.188v-.73h3.04v32h-3.04v-.73ZM8.137 10.406v1.54h.043a4.547 4.547 0 0 1 1.488-1.372c.582-.32 1.25-.484 1.992-.484.719 0 1.38.14 1.969.422.594.277 1.05.77 1.36 1.476.34-.5.796-.937 1.378-1.316.582-.387 1.274-.574 2.063-.574.601 0 1.16.074 1.668.218.515.149.957.383 1.32.707.367.325.652.747.86 1.27.206.523.308 1.148.308 1.89v7.63h-3.129v-6.461c0-.36-.016-.72-.047-1.079a2.32 2.32 0 0 0-.238-.882 1.454 1.454 0 0 0-.586-.594c-.258-.149-.606-.223-1.05-.223-.438 0-.798.086-1.071.254-.266.164-.485.39-.637.66-.16.29-.265.602-.308.93-.051.348-.079.7-.079 1.05v6.348h-3.129v-6.398c0-.34-.007-.676-.023-1a2.849 2.849 0 0 0-.187-.918 1.387 1.387 0 0 0-.551-.672c-.258-.168-.637-.254-1.14-.254-.2.008-.395.043-.583.102-.258.078-.5.203-.707.375-.226.183-.422.445-.582.793-.16.344-.242.797-.242 1.36v6.62H5.168V10.422ZM.84.738v30.5h2.19v.73H-.008v-32H3.02V.7Zm0 0" fill="rgb(1.568627%, 1.568627%, 1.568627%)"/></svg>