<svg role="img" viewBox="0 0 32 32" xmlns="http://www.w3.org/2000/svg"><path d="M15.074.043C8.797.48 3.45 4.355 1.164 10.125A15.96 15.96 0 0 0 3.27 25.613c2.543 3.383 6.21 5.555 10.496 6.196 1.054.171 3.066.203 4.054.078 3.11-.403 5.89-1.575 8.239-3.465.832-.668 2.109-1.992 2.695-2.79 1.687-2.269 2.734-4.843 3.133-7.683.101-.785.101-3.113 0-3.898a16.8 16.8 0 0 0-1.547-5.078c-.817-1.66-1.692-2.891-2.988-4.203-.665-.684-1.79-1.641-1.907-1.641-.035 0-.023.672.02 1.66l.086 1.66.445.559c1.215 1.512 2.094 3.418 2.442 5.3.156.895.19 2.747.062 3.563a11.85 11.85 0 0 1-1.98 4.887c-.551.781-1.79 2.02-2.567 2.566-1.535 1.086-3.195 1.766-5.11 2.11-.64.117-3.132.117-3.769 0-2.746-.493-5.035-1.66-6.847-3.5-1.872-1.899-2.97-4.086-3.348-6.668-.125-.895-.094-2.684.066-3.512.805-4 3.485-7.156 7.317-8.578.511-.192 1.175-.371 1.886-.524.11-.027 2.196-2.43 2.254-2.593.02-.067-.652-.067-1.328-.028Zm5.504 1.527c-.082.051-.535.594-1.02 1.196q-1.049 1.324-2.12 2.632c-3.258 3.973-4.215 5.211-4.508 5.813-.387.766-.54 1.34-.578 2.105-.075 1.266.32 2.301 1.214 3.196.614.605 1.125.925 1.954 1.195.578.191.664.203 1.535.203.879 0 .957 0 1.441-.191 1.484-.574 2.492-1.817 2.875-3.559.129-.523.129-1.832.027-5.09l-.128-4.597c-.063-2.352-.09-2.672-.192-2.813-.129-.191-.308-.23-.5-.09" fill="rgb(0%, 0%, 0%)"/></svg>