<svg role="img" viewBox="0 0 32 32" xmlns="http://www.w3.org/2000/svg"><path d="M12.5 2h-9C2.668 2 2 2.668 2 3.5v9c0 .605.363 1.156.926 1.387.562.23 1.207.105 1.636-.325l2.5-2.5L12 16l-4.937 4.938-2.5-2.5a1.5 1.5 0 0 0-1.637-.325c-.563.23-.926.782-.926 1.387v9c0 .832.668 1.5 1.5 1.5h9c.605 0 1.156-.363 1.387-.926a1.5 1.5 0 0 0-.325-1.637l-2.5-2.5L16 20l4.938 4.938-2.5 2.5a1.5 1.5 0 0 0-.325 1.636c.23.563.782.926 1.387.926h9c.832 0 1.5-.668 1.5-1.5v-9c0-.605-.363-1.156-.926-1.387a1.5 1.5 0 0 0-1.637.325l-2.5 2.5L20 16l4.938-4.937 2.5 2.5c.43.43 1.074.554 1.636.324.563-.23.926-.782.926-1.387v-9c0-.832-.668-1.5-1.5-1.5h-9c-.605 0-1.156.363-1.387.926a1.5 1.5 0 0 0 .325 1.636l2.5 2.5L16 12l-4.937-4.937 2.5-2.5c.43-.43.554-1.075.324-1.637A1.5 1.5 0 0 0 12.5 2" fill="rgb(0%, 0%, 0%)"/></svg>