<?xml version="1.0" encoding="UTF-8"?>
<svg xmlns="http://www.w3.org/2000/svg" xmlns:xlink="http://www.w3.org/1999/xlink" width="32" height="32" viewBox="0 0 32 32">
<path fill-rule="evenodd" fill="rgb(0%, 0%, 0%)" fill-opacity="1" d="M 20.917969 3.125 C 19.578125 1.820312 17.445312 1.820312 16.105469 3.125 L 3.269531 15.710938 C 2.824219 16.144531 2.113281 16.144531 1.664062 15.710938 C 1.453125 15.503906 1.332031 15.21875 1.332031 14.925781 C 1.332031 14.628906 1.453125 14.34375 1.664062 14.136719 L 14.5 1.550781 C 16.734375 -0.621094 20.289062 -0.621094 22.519531 1.550781 C 23.78125 2.777344 24.378906 4.53125 24.125 6.269531 C 25.886719 6.019531 27.664062 6.601562 28.9375 7.84375 L 29.003906 7.910156 C 30.066406 8.945312 30.667969 10.363281 30.667969 11.84375 C 30.667969 13.324219 30.066406 14.746094 29.003906 15.777344 L 17.398438 27.160156 C 17.328125 27.230469 17.285156 27.324219 17.285156 27.421875 C 17.285156 27.519531 17.328125 27.613281 17.398438 27.683594 L 19.78125 30.023438 C 19.992188 30.230469 20.113281 30.511719 20.113281 30.808594 C 20.113281 31.105469 19.992188 31.390625 19.78125 31.597656 C 19.335938 32.03125 18.625 32.03125 18.175781 31.597656 L 15.792969 29.257812 C 15.296875 28.777344 15.015625 28.113281 15.015625 27.421875 C 15.015625 26.730469 15.296875 26.070312 15.792969 25.585938 L 27.402344 14.203125 C 28.039062 13.582031 28.398438 12.730469 28.398438 11.84375 C 28.398438 10.953125 28.039062 10.101562 27.402344 9.484375 L 27.335938 9.417969 C 25.996094 8.113281 23.867188 8.113281 22.523438 9.414062 L 12.960938 18.792969 L 12.828125 18.925781 C 12.382812 19.359375 11.671875 19.359375 11.222656 18.925781 C 11.011719 18.71875 10.890625 18.433594 10.890625 18.136719 C 10.890625 17.839844 11.011719 17.558594 11.222656 17.351562 L 20.921875 7.839844 C 21.554688 7.21875 21.914062 6.367188 21.914062 5.480469 C 21.914062 4.59375 21.554688 3.742188 20.917969 3.125 Z M 20.917969 3.125 "/>
<path fill-rule="evenodd" fill="rgb(0%, 0%, 0%)" fill-opacity="1" d="M 19.3125 6.269531 C 19.527344 6.0625 19.644531 5.78125 19.644531 5.484375 C 19.644531 5.1875 19.527344 4.902344 19.3125 4.699219 C 18.867188 4.261719 18.15625 4.261719 17.707031 4.699219 L 8.214844 14.007812 C 7.152344 15.039062 6.554688 16.457031 6.554688 17.941406 C 6.554688 19.421875 7.152344 20.839844 8.214844 21.875 C 10.449219 24.046875 14.003906 24.046875 16.238281 21.875 L 25.730469 12.5625 C 25.941406 12.355469 26.0625 12.074219 26.0625 11.777344 C 26.0625 11.480469 25.941406 11.199219 25.730469 10.992188 C 25.285156 10.554688 24.570312 10.554688 24.125 10.992188 L 14.632812 20.300781 C 13.292969 21.605469 11.160156 21.605469 9.820312 20.300781 C 9.183594 19.679688 8.824219 18.828125 8.824219 17.941406 C 8.824219 17.050781 9.183594 16.199219 9.820312 15.578125 Z M 19.3125 6.269531 "/>
</svg>
