<svg role="img" viewBox="0 0 32 32" height="32" width="32" xmlns="http://www.w3.org/2000/svg"><path d="M5.762 0C5.055 0 4.48.574 4.48 1.281V30.72c0 .707.575 1.281 1.282 1.281h16.636a.655.655 0 0 0 .454-.184.644.644 0 0 0 .187-.457V.641A.641.641 0 0 0 22.4 0ZM23.68 1.281V3.84h1.28v1.28h-1.28v1.277h1.28V7.68h-1.28v1.28h1.28v1.278h-1.28v1.282h1.28v1.28h-1.28v6.4h1.28v1.28h-1.28v1.282h1.28v1.277h-1.28v1.281h1.28v1.282h-1.28v1.277h1.28v1.281h-1.28v2.559h2.558c.711 0 1.282-.57 1.282-1.278v-12.16a.635.635 0 0 0-.188-.453.635.635 0 0 0-.453-.187h-1.277a.644.644 0 0 1-.457-.188.645.645 0 0 1-.137-.695.64.64 0 0 1 .59-.399h1.28a.64.64 0 0 0 .638-.64V2.559c0-.704-.57-1.278-1.278-1.278ZM9.602 3.2h8.32v4.48h-8.32Zm0 7.043h8.32v4.477h-8.32Zm0 7.04h8.32v4.48h-8.32Zm0 7.038h8.32v4.48h-8.32Zm0 0"/></svg>