<?xml version="1.0" encoding="UTF-8"?>
<svg xmlns="http://www.w3.org/2000/svg" xmlns:xlink="http://www.w3.org/1999/xlink" width="32" height="32" viewBox="0 0 32 32">
<defs>
<clipPath id="memory-error-clip-0">
<path clip-rule="nonzero" d="M 4 0 L 28 0 L 28 32 L 4 32 Z M 4 0 "/>
</clipPath>
<clipPath id="memory-error-clip-1">
<path clip-rule="nonzero" d="M 0 32 L 0 0 L 32 0 L 32 27.429688 L 27.519531 19.375 C 27.097656 18.535156 26.414062 18.007812 25.574219 18.007812 C 24.625 18.007812 23.941406 18.742188 23.628906 19.375 L 18.945312 27.792969 C 18.839844 28.054688 18.789062 28.316406 18.789062 28.582031 C 18.789062 29.738281 19.734375 30.632812 20.839844 30.632812 L 30.359375 30.632812 C 31.039062 30.632812 31.628906 30.324219 32 29.835938 L 32 32 Z M 0 32 "/>
</clipPath>
</defs>
<g clip-path="url(#memory-error-clip-0)">
<g clip-path="url(#memory-error-clip-1)">
<path fill-rule="nonzero"  fill-opacity="1" d="M 5.761719 0 C 5.054688 0 4.480469 0.574219 4.480469 1.28125 L 4.480469 30.71875 C 4.480469 31.425781 5.054688 32 5.761719 32 L 22.398438 32 C 22.753906 32 23.039062 31.714844 23.039062 31.359375 L 23.039062 0.640625 C 23.039062 0.289062 22.753906 0 22.398438 0 Z M 23.679688 1.28125 L 23.679688 3.839844 L 24.960938 3.839844 L 24.960938 5.121094 L 23.679688 5.121094 L 23.679688 6.398438 L 24.960938 6.398438 L 24.960938 7.679688 L 23.679688 7.679688 L 23.679688 8.960938 L 24.960938 8.960938 L 24.960938 10.238281 L 23.679688 10.238281 L 23.679688 11.519531 L 24.960938 11.519531 L 24.960938 12.800781 L 23.679688 12.800781 L 23.679688 19.199219 L 24.960938 19.199219 L 24.960938 20.480469 L 23.679688 20.480469 L 23.679688 21.761719 L 24.960938 21.761719 L 24.960938 23.039062 L 23.679688 23.039062 L 23.679688 24.320312 L 24.960938 24.320312 L 24.960938 25.601562 L 23.679688 25.601562 L 23.679688 26.878906 L 24.960938 26.878906 L 24.960938 28.160156 L 23.679688 28.160156 L 23.679688 30.71875 L 26.238281 30.71875 C 26.949219 30.71875 27.519531 30.148438 27.519531 29.441406 L 27.519531 17.28125 C 27.519531 16.925781 27.234375 16.640625 26.878906 16.640625 L 25.601562 16.640625 C 25.246094 16.640625 24.960938 16.351562 24.960938 16 C 24.960938 15.648438 25.246094 15.359375 25.601562 15.359375 L 26.878906 15.359375 C 27.234375 15.359375 27.519531 15.074219 27.519531 14.71875 L 27.519531 2.558594 C 27.519531 1.855469 26.949219 1.28125 26.238281 1.28125 Z M 9.601562 3.199219 L 17.921875 3.199219 L 17.921875 7.679688 L 9.601562 7.679688 Z M 9.601562 10.238281 L 17.921875 10.238281 L 17.921875 14.71875 L 9.601562 14.71875 Z M 9.601562 17.28125 L 17.921875 17.28125 L 17.921875 21.761719 L 9.601562 21.761719 Z M 9.601562 24.320312 L 17.921875 24.320312 L 17.921875 28.800781 L 9.601562 28.800781 Z M 9.601562 24.320312 "/>
</g>
</g>
<path fill-rule="nonzero" fill="rgb(98.039216%, 32.156863%, 32.156863%)" fill-opacity="1" d="M 31.308594 28.316406 L 26.574219 19.902344 C 26.519531 19.691406 26.152344 19.058594 25.574219 19.058594 C 24.996094 19.058594 24.679688 19.691406 24.574219 19.847656 L 19.894531 28.316406 C 19.839844 28.371094 19.839844 28.476562 19.839844 28.582031 C 19.839844 29.105469 20.3125 29.582031 20.839844 29.582031 L 30.359375 29.582031 C 30.9375 29.582031 31.359375 29.160156 31.359375 28.582031 C 31.359375 28.476562 31.359375 28.421875 31.308594 28.316406 Z M 26.152344 27.898438 C 26.152344 27.949219 26.101562 28.003906 26.046875 28.003906 L 25.207031 28.003906 C 25.152344 28.003906 25.101562 27.949219 25.101562 27.898438 L 25.101562 27.054688 C 25.101562 27.003906 25.152344 26.949219 25.207031 26.949219 L 26.046875 26.949219 C 26.101562 26.949219 26.152344 27.003906 26.152344 27.054688 C 26.152344 27.054688 26.152344 27.898438 26.152344 27.898438 Z M 26.152344 25.792969 C 26.152344 25.84375 26.101562 25.898438 26.046875 25.898438 L 25.207031 25.898438 C 25.152344 25.898438 25.101562 25.84375 25.101562 25.792969 L 25.101562 22.847656 C 25.101562 22.792969 25.152344 22.742188 25.207031 22.742188 L 26.046875 22.742188 C 26.101562 22.742188 26.152344 22.792969 26.152344 22.847656 Z M 26.152344 25.792969 "/>
</svg>
