<?xml version="1.0" encoding="UTF-8"?>
<svg xmlns="http://www.w3.org/2000/svg" xmlns:xlink="http://www.w3.org/1999/xlink" width="32" height="32" viewBox="0 0 32 32">
<path fill-rule="nonzero" fill="rgb(24.705882%, 31.764706%, 70.588235%)" fill-opacity="1" d="M 24.707031 24.3125 C 21.507812 22.464844 18.445312 20.695312 15.382812 18.929688 C 13.96875 18.113281 12.566406 17.28125 11.140625 16.484375 C 10.738281 16.261719 10.683594 16.074219 10.875 15.644531 C 12.191406 12.660156 13.476562 9.660156 14.773438 6.664062 C 15 6.144531 15.175781 5.59375 15.914062 5.585938 C 16.652344 5.578125 16.832031 6.105469 17.0625 6.636719 C 19.523438 12.3125 21.984375 17.984375 24.449219 23.65625 C 24.519531 23.820312 24.578125 23.988281 24.707031 24.3125 Z M 10.257812 17.066406 C 10.445312 16.621094 10.597656 16.554688 11.027344 16.816406 C 12.492188 17.707031 13.988281 18.542969 15.566406 19.457031 L 7.28125 24.246094 "/>
<path fill-rule="nonzero" fill="rgb(24.705882%, 31.764706%, 70.588235%)" fill-opacity="1" d="M 15.984375 31.351562 C 7.503906 31.351562 0.632812 24.476562 0.632812 15.996094 C 0.632812 7.515625 7.503906 0.640625 15.984375 0.640625 C 24.464844 0.640625 31.339844 7.515625 31.339844 15.996094 C 31.339844 24.476562 24.464844 31.351562 15.984375 31.351562 Z M 15.984375 2.277344 C 8.410156 2.277344 2.265625 8.417969 2.265625 15.996094 C 2.265625 23.570312 8.410156 29.714844 15.984375 29.714844 C 23.5625 29.714844 29.703125 23.570312 29.703125 15.996094 C 29.703125 8.417969 23.5625 2.277344 15.984375 2.277344 Z M 15.984375 2.277344 "/>
</svg>
