<svg role="img" viewBox="0 0 32 32" height="32" width="32" xmlns="http://www.w3.org/2000/svg"><path d="M1.922 7.04A1.93 1.93 0 0 0 0 8.96v13.438c0 1.059.863 1.922 1.922 1.922h20.476a1.93 1.93 0 0 0 1.922-1.922v-1.277H32V10.238h-7.68V8.961a1.93 1.93 0 0 0-1.922-1.922Zm11.84 4.48a4.16 4.16 0 0 1 4.16 4.164 4.147 4.147 0 0 1-1.219 2.941 4.142 4.142 0 0 1-2.945 1.215 4.155 4.155 0 0 1-4.067-4.16 4.163 4.163 0 0 1 4.07-4.16m10.56 0h6.398v8.32H24.32v-.64h5.121v-1.278h-5.12v-.64h3.84V16h-3.84v-.64h3.84v-1.282h-3.84v-.637h5.12v-1.28h-5.12ZM4.16 14.719c.433 0 .816.293.925.71a.952.952 0 0 1-.445 1.079.957.957 0 0 1-1.157-.149A.962.962 0 0 1 3.48 15a.964.964 0 0 1 .68-.281m9.602 0a.96.96 0 1 0 0 1.922c.531 0 .957-.43.957-.961a.96.96 0 0 0-.957-.961"/></svg>