<svg role="img" viewBox="0 0 32 32" xmlns="http://www.w3.org/2000/svg"><path d="M1.922 7.04A1.93 1.93 0 0 0 0 8.96v13.438c0 1.059.863 1.922 1.922 1.922h20.476a1.93 1.93 0 0 0 1.922-1.922v-1.277H32V10.238h-7.68V8.961a1.926 1.926 0 0 0-1.922-1.922Zm11.84 4.48a4.16 4.16 0 0 1 4.16 4.164 4.156 4.156 0 0 1-4.164 4.156 4.161 4.161 0 0 1 .004-8.32m10.558 0h6.399v8.32H24.32v-.64h5.121v-1.278h-5.12v-.64h3.84V16h-3.84v-.64h3.84v-1.282h-3.84v-.637h5.12v-1.28h-5.12ZM4.16 14.719a.96.96 0 0 1 .004 1.922.96.96 0 0 1-.96-.961.954.954 0 0 1 .956-.961m9.602 0a.96.96 0 1 0 0 1.922c.531 0 .957-.43.957-.961a.96.96 0 0 0-.957-.961" fill="rgb(0%, 0%, 0%)"/></svg>