<?xml version="1.0" encoding="UTF-8"?>
<svg xmlns="http://www.w3.org/2000/svg" xmlns:xlink="http://www.w3.org/1999/xlink" width="32" height="32" viewBox="0 0 32 32">
<path fill-rule="nonzero" fill="rgb(0%, 0%, 0%)" fill-opacity="1" d="M 1.921875 7.039062 C 0.863281 7.042969 0.00390625 7.902344 0 8.960938 L 0 22.398438 C 0 23.457031 0.863281 24.320312 1.921875 24.320312 L 22.398438 24.320312 C 23.457031 24.316406 24.316406 23.457031 24.320312 22.398438 L 24.320312 21.121094 L 32 21.121094 L 32 10.238281 L 24.320312 10.238281 L 24.320312 8.960938 C 24.316406 7.902344 23.457031 7.042969 22.398438 7.039062 Z M 13.761719 11.519531 C 16.0625 11.519531 17.925781 13.386719 17.921875 15.683594 C 17.921875 16.789062 17.484375 17.847656 16.703125 18.625 C 15.921875 19.40625 14.863281 19.84375 13.757812 19.839844 C 11.496094 19.792969 9.6875 17.941406 9.691406 15.679688 C 9.691406 13.417969 11.5 11.570312 13.761719 11.519531 M 24.320312 11.519531 L 30.71875 11.519531 L 30.71875 19.839844 L 24.320312 19.839844 L 24.320312 19.199219 L 29.441406 19.199219 L 29.441406 17.921875 L 24.320312 17.921875 L 24.320312 17.28125 L 28.160156 17.28125 L 28.160156 16 L 24.320312 16 L 24.320312 15.359375 L 28.160156 15.359375 L 28.160156 14.078125 L 24.320312 14.078125 L 24.320312 13.441406 L 29.441406 13.441406 L 29.441406 12.160156 L 24.320312 12.160156 Z M 4.160156 14.71875 C 4.59375 14.71875 4.976562 15.011719 5.085938 15.429688 C 5.199219 15.847656 5.015625 16.292969 4.640625 16.507812 C 4.265625 16.726562 3.789062 16.664062 3.484375 16.359375 C 3.109375 15.984375 3.105469 15.375 3.480469 15 C 3.660156 14.820312 3.90625 14.71875 4.160156 14.71875 M 13.761719 14.71875 C 13.230469 14.71875 12.800781 15.148438 12.800781 15.679688 C 12.800781 16.210938 13.230469 16.640625 13.761719 16.640625 C 14.292969 16.640625 14.71875 16.210938 14.71875 15.679688 C 14.71875 15.152344 14.292969 14.71875 13.761719 14.71875 "/>
</svg>
