<?xml version="1.0" encoding="UTF-8"?>
<svg xmlns="http://www.w3.org/2000/svg" xmlns:xlink="http://www.w3.org/1999/xlink" width="16.661394" height="32" viewBox="0 0 16.661394 32">
<path fill-rule="nonzero" fill="rgb(94.117647%, 35.294118%, 15.686275%)" fill-opacity="1" d="M 12.457031 1.5625 C 12.457031 1.5625 15.59375 6.621094 16.648438 8.417969 C 16.664062 8.445312 16.664062 8.480469 16.648438 8.507812 C 16.621094 8.539062 16.566406 8.539062 16.539062 8.507812 L 11.128906 2.847656 Z M 12.457031 1.5625 "/>
<path fill-rule="nonzero" fill="rgb(0.392157%, 0%, 0%)" fill-opacity="1" d="M 3.199219 20 C 4.117188 18.046875 5.363281 16.277344 6.890625 14.75 C 7.460938 14.171875 8.074219 13.628906 8.71875 13.128906 L 8.71875 17.128906 Z M 0 23.703125 L 8.730469 19.253906 L 8.730469 29.417969 L 10.699219 32 L 10.699219 18.238281 L 11.917969 17.625 C 14.839844 16.152344 16.011719 12.589844 14.546875 9.675781 C 14.285156 9.15625 13.945312 8.675781 13.546875 8.261719 L 9.039062 3.558594 C 8.667969 3.15625 8.691406 2.53125 9.082031 2.15625 C 9.488281 1.78125 10.117188 1.804688 10.5 2.203125 L 11.109375 2.859375 L 12.457031 1.566406 C 10.867188 -0.5 8.917969 -0.261719 7.785156 0.792969 C 6.636719 1.878906 6.578125 3.6875 7.664062 4.839844 L 12.195312 9.566406 C 13.726562 11.199219 13.644531 13.761719 12.011719 15.292969 C 11.796875 15.488281 11.566406 15.667969 11.320312 15.820312 L 10.707031 16.136719 L 10.707031 9.714844 C 5.21875 12.539062 1.292969 17.667969 0.0078125 23.703125 "/>
</svg>
