<svg role="img" viewBox="0 0 32 32" xmlns="http://www.w3.org/2000/svg"><path d="M28.5 14h-9c-.832 0-1.5-.668-1.5-1.5v-9c0-.605.363-1.156.926-1.387a1.5 1.5 0 0 1 1.637.325l2.5 2.5L27.645.354a1.2 1.2 0 0 1 1.71 0l2.293 2.293c.227.227.356.532.352.852 0 .32-.129.629-.355.855l-4.582 4.583 2.5 2.5c.43.43.554 1.074.324 1.636-.23.563-.782.926-1.387.926m0 4c.605 0 1.156.363 1.387.926.23.562.105 1.207-.325 1.637l-2.5 2.5 4.586 4.585c.227.227.36.532.36.86 0 .324-.125.625-.36.855l-2.293 2.293c-.23.219-.535.344-.855.344s-.625-.125-.855-.355l-4.582-4.582-2.5 2.5A1.502 1.502 0 0 1 18 28.5l-.001-9.001c0-.832.668-1.5 1.5-1.5Zm-16 0c.832 0 1.5.668 1.5 1.5v9c0 .605-.363 1.156-.926 1.387a1.51 1.51 0 0 1-1.636-.325l-2.5-2.5-4.583 4.583A1.2 1.2 0 0 1 3.5 32c-.32 0-.629-.129-.855-.355l-2.29-2.29a1.22 1.22 0 0 1-.359-.855c.004-.32.129-.629.36-.855l4.582-4.582-2.5-2.5a1.5 1.5 0 0 1-.325-1.637c.23-.563.782-.926 1.387-.926Zm-9-4a1.504 1.504 0 0 1-1.062-2.562l2.5-2.5L.354 4.355a1.2 1.2 0 0 1 0-1.71l2.29-2.29a1.2 1.2 0 0 1 1.71 0l4.583 4.583 2.5-2.5a1.5 1.5 0 0 1 1.636-.325c.563.23.926.782.926 1.387v9c0 .832-.668 1.5-1.5 1.5Zm0 0"/></svg>