<svg role="img" viewBox="0 0 148.129 32" xmlns="http://www.w3.org/2000/svg"><path d="m21.895 23.16 2.261 2.211a.34.34 0 0 1 .09.328.34.34 0 0 1-.234.25L3.59 32 .75 29.223Zm-7.782-7.058 2.27 2.246a.34.34 0 0 1 .101.246c0 .09-.035.18-.101.242a.35.35 0 0 1-.156.09L2.863 22.633.07 19.867ZM6.984 9.32l2.059 2.075c.09.09.121.218.09.34a.36.36 0 0 1-.254.245l-6.344 1.65L0 11.066Zm.73.871L3.388 5.863a.35.35 0 0 1-.086-.34.35.35 0 0 1 .254-.242L24.71 0l4.61 4.61Zm7.657 7.258-3.707-3.758a.34.34 0 0 1-.09-.34.34.34 0 0 1 .246-.246l13.961-3.707 4.04 4.04Zm8.067 7.32-3.993-4.027a.34.34 0 0 1-.093-.332.34.34 0 0 1 .242-.246l6.695-1.95 4.414 4.403ZM43.84 9.509l.062.605a2.2 2.2 0 0 1-.476.067c-.903 0-1.348-.547-1.348-1.637v-5.5a5 5 0 0 0-1.031-.117 1.33 1.33 0 0 0-.969.281 1.12 1.12 0 0 0-.281.832v.66h1.398v.625h-1.398v4.746h-.758V5.324h-.8V4.7h.808v-.648q-.002-1.775 1.894-1.774a6.8 6.8 0 0 1 1.871.29V8.55c-.019.261.036.527.157.761a.62.62 0 0 0 .55.247q.16-.017.32-.051m2.93.672a2.26 2.26 0 0 1-1.484-.434 1.4 1.4 0 0 1-.52-1.137c-.035-.476.18-.937.57-1.214a2.6 2.6 0 0 1 1.49-.407c.433 0 .862.051 1.284.145v-.617q0-1.296-1.39-1.297a3.5 3.5 0 0 0-1.434.277l-.172-.617a4.15 4.15 0 0 1 1.657-.309 2.15 2.15 0 0 1 1.55.504c.375.395.57.93.535 1.473V9.69a4.05 4.05 0 0 1-2.085.489m1.328-.895V7.672a6 6 0 0 0-1.211-.149q-1.396.001-1.39 1.063a.87.87 0 0 0 .343.758c.293.187.637.277.984.254.446.02.887-.09 1.274-.313m2.558.785V5.14a4.86 4.86 0 0 1 2.254-.542 2.2 2.2 0 0 1 1.586.515 1.9 1.9 0 0 1 .54 1.438v3.52h-.759v-3.5a1.24 1.24 0 0 0-.363-1.012 1.24 1.24 0 0 0-1.02-.34c-.527 0-1.05.129-1.515.379v4.472Zm9.719 0-1.637-2.379a13 13 0 0 1-1.101.704v1.675h-.758V2.418l.758-.043v5.266a7 7 0 0 0 1.722-1.336 3.23 3.23 0 0 0 .727-1.606h.734a4 4 0 0 1-1.539 2.559l1.942 2.812Zm4.895-4.61a4.6 4.6 0 0 0-1.364-.241q-1.137.001-1.136.851a.8.8 0 0 0 .082.38c.062.116.156.21.273.269.258.14.531.254.813.332.488.129.945.34 1.359.629.289.238.445.601.426.976.027.446-.18.875-.543 1.137-.422.27-.922.402-1.422.379a5 5 0 0 1-.996-.102 4 4 0 0 1-.778-.218l.125-.637a4.7 4.7 0 0 0 1.637.308c.316.016.629-.062.902-.222a.72.72 0 0 0 .329-.637.67.67 0 0 0-.317-.59 4.4 4.4 0 0 0-1.094-.441 3.2 3.2 0 0 1-1.136-.567 1.24 1.24 0 0 1-.403-.992 1.37 1.37 0 0 1 .48-1.14c.4-.278.884-.41 1.368-.38a4.1 4.1 0 0 1 1.516.266Zm3.84 4.72a2.19 2.19 0 0 1-1.766-.758 3.06 3.06 0 0 1-.64-2.043 3.04 3.04 0 0 1 .64-2.035 2.447 2.447 0 0 1 3.554 0c.45.582.676 1.3.637 2.035a3.1 3.1 0 0 1-.637 2.043 2.21 2.21 0 0 1-1.789.758m0-.649c.489.031.954-.183 1.246-.574a2.66 2.66 0 0 0 .415-1.582 2.66 2.66 0 0 0-.415-1.582 1.44 1.44 0 0 0-1.246-.574 1.4 1.4 0 0 0-1.222.582 3.15 3.15 0 0 0 0 3.148c.281.39.742.61 1.222.582m5.914.649q-2.008-.001-2.007-1.895V4.7h.761v3.559c0 .847.422 1.273 1.274 1.273a3.16 3.16 0 0 0 1.515-.379V4.7h.758v4.93c-.71.367-1.5.555-2.3.55m6.445-5.609q.3.001.594.055l-.106.648a1.6 1.6 0 0 0-.445-.054 3.1 3.1 0 0 0-1.516.379v4.472h-.758V5.14a4.45 4.45 0 0 1 2.23-.57m5.356.32-.156.606a3.6 3.6 0 0 0-1.328-.277 1.65 1.65 0 0 0-1.367.586 2.47 2.47 0 0 0-.473 1.61c-.043.573.137 1.14.5 1.581.387.379.914.578 1.457.543a2.9 2.9 0 0 0 1.273-.309l.149.618c-.45.23-.95.347-1.457.34a2.63 2.63 0 0 1-1.984-.727 2.78 2.78 0 0 1-.7-2.047 3.02 3.02 0 0 1 .676-2.07 2.35 2.35 0 0 1 1.895-.758 3.54 3.54 0 0 1 1.515.305m5.567 2.004q0 .316-.036.628h-3.824a2.12 2.12 0 0 0 .582 1.52c.403.344.926.52 1.457.488a4.1 4.1 0 0 0 1.606-.351l.136.629a4.2 4.2 0 0 1-1.792.379 2.75 2.75 0 0 1-2.016-.735 2.83 2.83 0 0 1-.734-2.078 2.98 2.98 0 0 1 .664-2.02 2.23 2.23 0 0 1 1.789-.757 2 2 0 0 1 1.593.66c.383.457.586 1.039.575 1.637m-.762.097a1 1 0 0 0 0-.203 1.7 1.7 0 0 0-.379-1.137 1.28 1.28 0 0 0-1.07-.46 1.5 1.5 0 0 0-1.125.5 2.2 2.2 0 0 0-.512 1.3Zm-40.457 7.18v11.492H49.02v-5.48q-.006-1.055.117-2.102a48 48 0 0 1-3.102 5.594h-1.851a47 47 0 0 1-3.121-5.637c.085.711.132 1.422.128 2.137v5.488h-2.164V14.172h2.414a47 47 0 0 0 3.672 7.156 46 46 0 0 0 3.645-7.156Zm2.445 1.64a1.25 1.25 0 0 1-.344-.917c-.015-.34.11-.672.344-.922.266-.239.613-.36.973-.34.347-.02.691.105.95.34.233.25.358.582.343.922.015.34-.11.671-.344.918a1.28 1.28 0 0 1-.95.347 1.3 1.3 0 0 1-.972-.348m2.102 9.864H53.44V17.28h2.278Zm7.304-6.281a8.4 8.4 0 0 0-2.277-.446c-.758 0-1.137.227-1.137.672a.57.57 0 0 0 .278.52c.343.175.707.308 1.082.402a5.4 5.4 0 0 1 2.144.992c.45.442.688 1.055.645 1.68a2.28 2.28 0 0 1-.942 1.96 4.17 4.17 0 0 1-2.5.684 7.5 7.5 0 0 1-2.976-.543l.312-1.851a7.3 7.3 0 0 0 2.614.523c.32.016.636-.05.925-.187a.59.59 0 0 0 .352-.535.62.62 0 0 0-.336-.567 8.3 8.3 0 0 0-1.418-.5 3.96 3.96 0 0 1-1.809-.902 2.17 2.17 0 0 1-.605-1.625 2.31 2.31 0 0 1 .848-1.922 3.7 3.7 0 0 1 2.351-.672 7.2 7.2 0 0 1 2.711.477Zm7.22 0a8.4 8.4 0 0 0-2.274-.446c-.758 0-1.14.227-1.14.672a.58.58 0 0 0 .276.52 5.2 5.2 0 0 0 1.086.402 5.4 5.4 0 0 1 2.141.992c.453.438.691 1.05.652 1.68a2.29 2.29 0 0 1-.945 1.96 4.2 4.2 0 0 1-2.504.684 7.4 7.4 0 0 1-2.969-.543l.309-1.851a7.3 7.3 0 0 0 2.61.523c.32.016.636-.05.925-.187a.59.59 0 0 0 .356-.535.62.62 0 0 0-.336-.567 8.7 8.7 0 0 0-1.422-.5 4 4 0 0 1-1.805-.902 2.17 2.17 0 0 1-.605-1.625 2.3 2.3 0 0 1 .843-1.922 3.7 3.7 0 0 1 2.356-.672 7.2 7.2 0 0 1 2.707.477Zm2.284-3.582a1.23 1.23 0 0 1-.347-.918c-.016-.34.11-.672.347-.922.262-.239.61-.364.965-.34.352-.02.695.101.953.34.239.246.36.582.344.922.02.34-.105.675-.344.918a1.3 1.3 0 0 1-.953.347 1.28 1.28 0 0 1-.965-.348m2.098 9.864h-2.273V17.28h2.273Zm8.816-1.016a4.32 4.32 0 0 1-5.984 0 5.15 5.15 0 0 1 0-6.379 4.335 4.335 0 0 1 5.984 0 4.57 4.57 0 0 1 1.098 3.188 4.54 4.54 0 0 1-1.098 3.191m-4.308-1.344a1.51 1.51 0 0 0 1.32.672 1.51 1.51 0 0 0 1.313-.672 3.26 3.26 0 0 0 .46-1.855 3.23 3.23 0 0 0-.46-1.848 1.5 1.5 0 0 0-1.313-.664 1.52 1.52 0 0 0-1.32.672 3.86 3.86 0 0 0 0 3.695m7.113 2.348v-7.863a9.3 9.3 0 0 1 3.711-.723c1.203 0 2.137.29 2.79.871a3.16 3.16 0 0 1 .987 2.496v5.22h-2.277v-5.06q.001-1.65-1.516-1.656a3.4 3.4 0 0 0-1.445.297v6.418Zm9.473-5.613q.002-2.724 1.304-4.399c.872-1.117 2.145-1.68 3.817-1.68.965.005 1.918.2 2.805.579l-.301 1.015a7.6 7.6 0 0 0-2.496-.523q-1.989.001-2.946 1.39a6.2 6.2 0 0 0-.96 3.618q-.002 2.203 1 3.469 1.001 1.267 2.984 1.273a6.3 6.3 0 0 0 2.547-.59l.246 1.016a6.1 6.1 0 0 1-2.82.64q-2.497 0-3.844-1.566-1.348-1.564-1.336-4.242m13 5.808a3.38 3.38 0 0 1-2.723-1.183 4.75 4.75 0 0 1-.992-3.153 4.77 4.77 0 0 1 .992-3.148 3.794 3.794 0 0 1 5.492 0 4.77 4.77 0 0 1 .989 3.148 4.75 4.75 0 0 1-.989 3.153 3.4 3.4 0 0 1-2.77 1.183m0-1a2.22 2.22 0 0 0 1.923-.886c.464-.73.691-1.586.64-2.45a4.12 4.12 0 0 0-.64-2.445 2.21 2.21 0 0 0-1.922-.883 2.19 2.19 0 0 0-1.895.895 4.06 4.06 0 0 0-.648 2.433c-.047.864.18 1.715.648 2.442a2.2 2.2 0 0 0 1.895.902Zm6.106.805V18.04a7.5 7.5 0 0 1 3.48-.836q1.626 0 2.454.797a2.93 2.93 0 0 1 .832 2.219v5.445h-1.14v-5.387a2.08 2.08 0 0 0-.536-1.515 2.1 2.1 0 0 0-1.598-.551 4.8 4.8 0 0 0-2.328.559v6.894Zm13.278-.937.085.968q-.605.165-1.234.164-2.409 0-2.41-2.625V18.36h-1.25v-.968h1.25v-1.953l1.137-.083v2.036h2.23v.968h-2.23v4.875c-.04.446.086.887.351 1.246.285.27.668.41 1.059.38.344.007.683-.04 1.012-.133m5.402-7.532c.316 0 .629.032.937.086l-.164 1a2.4 2.4 0 0 0-.691-.078 4.7 4.7 0 0 0-2.363.559v6.902h-1.137V18.04a6.8 6.8 0 0 1 3.418-.844m5.715 8.664a3.38 3.38 0 0 1-2.735-1.183 4.73 4.73 0 0 1-.992-3.153 4.72 4.72 0 0 1 .992-3.148 3.78 3.78 0 0 1 2.746-1.176c1.04 0 2.032.422 2.747 1.176a4.76 4.76 0 0 1 .984 3.148 4.75 4.75 0 0 1-.984 3.153 3.4 3.4 0 0 1-2.758 1.183m0-1a2.2 2.2 0 0 0 1.918-.886 4.08 4.08 0 0 0 .64-2.45 4.07 4.07 0 0 0-.64-2.445 2.22 2.22 0 0 0-1.918-.883 2.19 2.19 0 0 0-1.895.895 4.06 4.06 0 0 0-.648 2.433c-.051.864.18 1.72.648 2.442a2.2 2.2 0 0 0 1.895.902Zm7.234-1.543c-.027.41.059.817.246 1.184.2.266.524.41.856.379q.241-.012.476-.05l.098.937q-.37.092-.758.097-2.08 0-2.086-2.527v-9.469l1.14-.078Zm0 0" fill="rgb(100%, 100%, 100%)"/></svg>