<svg role="img" viewBox="0 0 148.129 32" height="32" width="148.129" xmlns="http://www.w3.org/2000/svg"><defs><linearGradient gradientTransform="rotate(-29.887 57.504 32.348)scale(.07089)" gradientUnits="userSpaceOnUse" id="1389__1383__415__409__363__357__mission-control-logo-lp-2" x1="286.93" x2="320.28" y1="-392.73" y2="-392.73"><stop offset="0" stop-color="rgb(16.078431%, 50.196078%, 95.294118%)"/><stop offset="1" stop-color="rgb(14.901961%, 32.156863%, 85.098039%)"/></linearGradient><linearGradient gradientTransform="rotate(150.11 1032.706 -3.34)scale(.2304)" gradientUnits="userSpaceOnUse" id="1390__1384__416__410__364__358__linear-pattern-3" x1="8366.58" x2="8266.31" y1="2144.55" y2="2144.55"><stop offset="0" stop-color="rgb(16.078431%, 50.196078%, 95.294118%)"/><stop offset="1" stop-color="rgb(14.901961%, 32.156863%, 85.098039%)"/></linearGradient><linearGradient gradientTransform="rotate(150.11 1032.706 -3.34)scale(.2304)" gradientUnits="userSpaceOnUse" id="1391__1385__417__411__365__359__linear-pattern-4" x1="8352.46" x2="8283.62" y1="2103.86" y2="2103.86"><stop offset="0" stop-color="rgb(16.078431%, 50.196078%, 95.294118%)"/><stop offset="1" stop-color="rgb(14.901961%, 32.156863%, 85.098039%)"/></linearGradient><linearGradient gradientTransform="rotate(150.11 1032.706 -3.34)scale(.2304)" gradientUnits="userSpaceOnUse" id="1392__1386__418__412__366__360__linear-pattern-5" x1="8338.52" x2="8300.28" y1="2064.09" y2="2064.09"><stop offset="0" stop-color="rgb(16.078431%, 50.196078%, 95.294118%)"/><stop offset="1" stop-color="rgb(14.901961%, 32.156863%, 85.098039%)"/></linearGradient></defs><path d="m21.895 23.16 2.261 2.211a.34.34 0 0 1 .09.328.338.338 0 0 1-.234.25L3.59 32 .75 29.223Zm0 0" fill="url(#1393__1387__419__413__361__355__linear-pattern-0)"/><path d="m14.113 16.102 2.27 2.246a.342.342 0 0 1 .101.246c0 .09-.035.18-.101.242a.35.35 0 0 1-.156.09L2.863 22.633.07 19.867Zm0 0" fill="url(#1394__1388__414__408__362__356__linear-pattern-1)"/><path d="m6.984 9.32 2.059 2.075a.342.342 0 0 1 .102.246c0 .093-.036.18-.102.246a.429.429 0 0 1-.164.093l-6.344 1.65L0 11.066Zm0 0" fill="url(#1389__1383__415__409__363__357__linear-pattern-2)"/><path d="M7.715 10.191 3.387 5.863a.347.347 0 0 1 .168-.582L24.71 0l4.61 4.61Zm0 0" fill="url(#1390__1384__416__410__364__358__linear-pattern-3)"/><path d="m15.371 17.45-3.707-3.759a.362.362 0 0 1-.09-.34.342.342 0 0 1 .246-.246l13.961-3.707 4.04 4.04Zm0 0" fill="url(#1391__1385__417__411__365__359__linear-pattern-4)"/><path d="m23.438 24.77-3.993-4.028a.348.348 0 0 1 .149-.578l6.695-1.95 4.414 4.403Zm0 0" fill="url(#1392__1386__418__412__366__360__linear-pattern-5)"/><path d="m43.84 9.508.062.61a2.25 2.25 0 0 1-.476.062c-.903 0-1.348-.547-1.348-1.637v-5.5a5.089 5.089 0 0 0-1.031-.117 1.35 1.35 0 0 0-.969.281 1.118 1.118 0 0 0-.281.832v.66h1.398v.625h-1.398v4.746h-.758V5.324h-.8V4.7h.808v-.648c0-1.184.629-1.774 1.894-1.774a6.772 6.772 0 0 1 1.871.29v5.988c-.019.265.036.527.157.758a.618.618 0 0 0 .55.246c.106-.012.215-.028.32-.051m2.93.672a2.199 2.199 0 0 1-1.484-.434 1.376 1.376 0 0 1-.52-1.137c-.035-.476.18-.937.57-1.214a2.642 2.642 0 0 1 1.49-.407c.429 0 .862.051 1.284.145v-.617c0-.864-.464-1.297-1.39-1.297a3.539 3.539 0 0 0-1.434.277l-.172-.617a4.146 4.146 0 0 1 1.657-.309c.562-.039 1.12.14 1.55.504.375.395.57.93.535 1.473V9.69a4.046 4.046 0 0 1-2.085.489m1.328-.895V7.672a6.335 6.335 0 0 0-1.211-.149c-.93 0-1.395.356-1.39 1.063a.854.854 0 0 0 .343.758c.293.187.637.277.984.258a2.35 2.35 0 0 0 1.274-.317m2.558.785V5.14a4.858 4.858 0 0 1 2.254-.542 2.196 2.196 0 0 1 1.586.515c.371.383.57.903.54 1.438v3.52h-.763v-3.5a1.223 1.223 0 0 0-1.378-1.352c-.528 0-1.051.129-1.516.379v4.472Zm9.719 0-1.637-2.379a12.51 12.51 0 0 1-1.101.704v1.675h-.762V2.418l.762-.043v5.266a6.985 6.985 0 0 0 1.722-1.336 3.228 3.228 0 0 0 .727-1.606h.734a4.017 4.017 0 0 1-1.539 2.563l1.942 2.808Zm4.895-4.61a4.633 4.633 0 0 0-1.364-.241c-.758 0-1.136.285-1.136.851a.846.846 0 0 0 .078.38c.062.116.16.21.277.269.258.14.531.254.813.332.488.129.945.34 1.359.629.289.238.445.601.422.976.027.446-.176.875-.54 1.137a2.44 2.44 0 0 1-1.421.379 5.01 5.01 0 0 1-.996-.102 4.092 4.092 0 0 1-.778-.215l.125-.64a4.66 4.66 0 0 0 1.637.308c.316.016.629-.062.902-.222a.718.718 0 0 0 .329-.637.669.669 0 0 0-.317-.59 4.429 4.429 0 0 0-1.094-.441c-.414-.11-.8-.305-1.136-.567a1.24 1.24 0 0 1-.403-.992c-.03-.433.145-.86.48-1.14.4-.278.88-.41 1.368-.38a4.092 4.092 0 0 1 1.516.266Zm3.84 4.72a2.185 2.185 0 0 1-1.766-.758 3.052 3.052 0 0 1-.64-2.04 3.052 3.052 0 0 1 .64-2.038 2.447 2.447 0 0 1 3.554 0c.446.582.672 1.304.637 2.039a3.112 3.112 0 0 1-.637 2.039 2.209 2.209 0 0 1-1.789.758m0-.649a1.43 1.43 0 0 0 1.243-.574c.3-.469.449-1.023.418-1.582a2.66 2.66 0 0 0-.418-1.582c-.29-.39-.762-.61-1.247-.574a1.4 1.4 0 0 0-1.218.582 3.155 3.155 0 0 0 0 3.152 1.41 1.41 0 0 0 1.218.578m5.915.649c-1.34 0-2.008-.633-2.008-1.895V4.7h.758v3.559c0 .847.425 1.273 1.277 1.273a3.106 3.106 0 0 0 1.516-.379V4.7h.757v4.93c-.71.367-1.5.555-2.3.55m6.449-5.609c.199 0 .394.02.594.055l-.11.648a1.537 1.537 0 0 0-.441-.054 3.12 3.12 0 0 0-1.52.379v4.472h-.762V5.14a4.492 4.492 0 0 1 2.239-.57m5.351.32-.16.606a3.568 3.568 0 0 0-1.32-.277 1.65 1.65 0 0 0-1.367.586 2.5 2.5 0 0 0-.477 1.61 2.233 2.233 0 0 0 .5 1.581 1.91 1.91 0 0 0 1.457.543c.445-.004.879-.11 1.274-.309l.152.618c-.453.23-.953.347-1.457.34a2.627 2.627 0 0 1-1.984-.723c-.5-.563-.754-1.3-.704-2.05-.039-.75.204-1.49.672-2.071a2.38 2.38 0 0 1 1.903-.758 3.538 3.538 0 0 1 1.511.305m5.567 2.004c0 .21-.012.421-.035.628h-3.825a2.12 2.12 0 0 0 .582 1.52c.407.344.926.52 1.457.488a4.085 4.085 0 0 0 1.61-.351l.133.629a4.162 4.162 0 0 1-1.79.379 2.739 2.739 0 0 1-2.015-.735 2.788 2.788 0 0 1-.734-2.078c-.036-.73.199-1.45.664-2.02a2.242 2.242 0 0 1 1.789-.757 1.997 1.997 0 0 1 1.59.66c.382.46.585 1.043.57 1.637m-.758.101a1.83 1.83 0 0 0 0-.207 1.738 1.738 0 0 0-.379-1.137 1.28 1.28 0 0 0-1.07-.46c-.43 0-.84.18-1.125.503a2.19 2.19 0 0 0-.512 1.301Zm0 0" fill="rgb(16.078431%, 50.196078%, 95.294118%)"/><path d="M51.172 14.172v11.492H49.02v-5.48c-.004-.704.035-1.403.117-2.102a47.596 47.596 0 0 1-3.102 5.594H44.18a48.618 48.618 0 0 1-3.121-5.637c.09.707.136 1.422.132 2.137v5.488h-2.164V14.172h2.41a47.402 47.402 0 0 0 3.676 7.156 45.834 45.834 0 0 0 3.645-7.156Zm2.445 1.64a1.269 1.269 0 0 1-.347-.917c-.012-.34.113-.672.347-.922.262-.239.613-.364.969-.34.352-.02.695.105.953.34.234.25.356.582.34.922.02.34-.106.671-.34.918a1.286 1.286 0 0 1-.953.347 1.322 1.322 0 0 1-.969-.348m2.102 9.86H53.44v-8.39h2.278Zm7.304-6.277a8.378 8.378 0 0 0-2.277-.446c-.758 0-1.137.223-1.137.672a.569.569 0 0 0 .278.52c.343.175.707.308 1.082.402a5.39 5.39 0 0 1 2.144.992c.45.442.684 1.05.645 1.68a2.28 2.28 0 0 1-.942 1.96 4.21 4.21 0 0 1-2.504.684 7.436 7.436 0 0 1-2.972-.543l.312-1.855a7.237 7.237 0 0 0 2.614.527c.316.016.636-.05.925-.187a.59.59 0 0 0 .352-.535.61.61 0 0 0-.34-.567 7.94 7.94 0 0 0-1.418-.5 4.008 4.008 0 0 1-1.805-.902 2.18 2.18 0 0 1-.605-1.625 2.318 2.318 0 0 1 .844-1.922 3.699 3.699 0 0 1 2.355-.672 7.196 7.196 0 0 1 2.707.477Zm7.22 0a8.378 8.378 0 0 0-2.278-.446c-.758 0-1.137.223-1.137.672a.584.584 0 0 0 .277.52 5.17 5.17 0 0 0 1.086.402 5.4 5.4 0 0 1 2.141.992c.453.438.691 1.055.648 1.68.04.77-.316 1.508-.94 1.96a4.21 4.21 0 0 1-2.505.684 7.43 7.43 0 0 1-2.969-.543l.309-1.855a7.2 7.2 0 0 0 2.61.527c.32.016.636-.05.925-.187a.577.577 0 0 0 .352-.535.614.614 0 0 0-.332-.567 7.978 7.978 0 0 0-1.422-.5 4.008 4.008 0 0 1-1.805-.902 2.168 2.168 0 0 1-.61-1.625 2.321 2.321 0 0 1 .848-1.922 3.699 3.699 0 0 1 2.356-.672 7.196 7.196 0 0 1 2.707.477Zm2.28-3.582a1.234 1.234 0 0 1-.343-.918c-.016-.34.11-.672.343-.922a1.32 1.32 0 0 1 .97-.34c.35-.02.695.101.952.34.235.25.36.582.344.922.016.34-.11.671-.344.918a1.286 1.286 0 0 1-.953.347 1.322 1.322 0 0 1-.969-.348m2.102 9.86h-2.273v-8.39h2.273Zm8.816-1.012a4.32 4.32 0 0 1-5.984 0 5.147 5.147 0 0 1 0-6.379 4.335 4.335 0 0 1 5.984 0 4.567 4.567 0 0 1 1.098 3.188 4.54 4.54 0 0 1-1.098 3.191m-4.308-1.344c.293.438.789.696 1.316.672a1.507 1.507 0 0 0 1.313-.672c.34-.558.5-1.203.465-1.855a3.203 3.203 0 0 0-.465-1.848 1.462 1.462 0 0 0-1.313-.664 1.492 1.492 0 0 0-1.316.672 3.855 3.855 0 0 0 0 3.695m7.113 2.348v-7.863a9.279 9.279 0 0 1 3.707-.723c1.207 0 2.137.29 2.793.871a3.157 3.157 0 0 1 .984 2.496v5.22h-2.273v-5.06c0-1.101-.508-1.652-1.516-1.656a3.411 3.411 0 0 0-1.445.297v6.418Zm9.473-5.613c0-1.817.433-3.281 1.304-4.399.872-1.12 2.141-1.68 3.817-1.68.965.005 1.918.2 2.805.579l-.305 1.015a7.46 7.46 0 0 0-2.492-.523c-1.325 0-2.309.465-2.95 1.39a6.188 6.188 0 0 0-.957 3.618c0 1.469.332 2.625 1 3.469.668.843 1.664 1.27 2.985 1.273a6.36 6.36 0 0 0 2.543-.59l.25 1.016a6.096 6.096 0 0 1-2.824.64c-1.665 0-2.942-.523-3.84-1.566-.899-1.043-1.344-2.457-1.336-4.242m13 5.808a3.377 3.377 0 0 1-2.723-1.183 4.732 4.732 0 0 1-.992-3.153 4.77 4.77 0 0 1 .992-3.148 3.801 3.801 0 0 1 2.746-1.184c1.04 0 2.031.43 2.746 1.184a4.763 4.763 0 0 1 .985 3.148 4.753 4.753 0 0 1-.985 3.153 3.4 3.4 0 0 1-2.77 1.183m0-1c.75.051 1.473-.28 1.919-.886.468-.73.691-1.586.64-2.45a4.093 4.093 0 0 0-.64-2.445 2.199 2.199 0 0 0-1.918-.883 2.186 2.186 0 0 0-1.895.895 4.063 4.063 0 0 0-.648 2.433c-.047.864.18 1.715.648 2.442a2.202 2.202 0 0 0 1.895.902Zm6.106.805V18.04a7.519 7.519 0 0 1 3.477-.836c1.086 0 1.902.266 2.457.797.574.59.879 1.395.828 2.219v5.445h-1.137v-5.387a2.123 2.123 0 0 0-.535-1.515 2.12 2.12 0 0 0-1.602-.551 4.922 4.922 0 0 0-2.328.559v6.894Zm13.278-.937.082.968c-.399.11-.813.164-1.23.164-1.61 0-2.415-.875-2.415-2.625V18.36h-1.246v-.968h1.246v-1.953l1.14-.083v2.036h2.231v.968h-2.23v4.875a1.78 1.78 0 0 0 .351 1.246c.281.274.668.41 1.059.38.344.007.683-.04 1.012-.133m5.402-7.532c.312 0 .625.032.934.086l-.16 1a2.426 2.426 0 0 0-.692-.078 4.7 4.7 0 0 0-2.363.559v6.902h-1.137V18.04a6.824 6.824 0 0 1 3.418-.844m5.715 8.664a3.348 3.348 0 0 1-2.735-1.183 4.728 4.728 0 0 1-.996-3.153 4.731 4.731 0 0 1 .996-3.148 3.78 3.78 0 0 1 5.489 0 4.795 4.795 0 0 1 .988 3.148 4.75 4.75 0 0 1-.988 3.153 3.392 3.392 0 0 1-2.754 1.183m0-1a2.216 2.216 0 0 0 1.918-.886 4.105 4.105 0 0 0 .64-2.45 4.135 4.135 0 0 0-.64-2.445 2.227 2.227 0 0 0-1.918-.883 2.217 2.217 0 0 0-1.899.895 4.063 4.063 0 0 0-.648 2.433c-.047.864.18 1.715.648 2.442a2.186 2.186 0 0 0 1.899.902Zm7.234-1.543c-.027.41.059.817.246 1.184.2.266.524.41.856.379.16-.008.32-.024.476-.05l.098.937c-.25.062-.504.093-.758.097-1.387 0-2.082-.843-2.086-2.531v-9.465l1.137-.078Zm0 0" fill="rgb(16.862745%, 16.862745%, 16.862745%)"/></svg>