<svg role="img" viewBox="0 0 148.129 32" height="32" width="148.129" xmlns="http://www.w3.org/2000/svg"><path d="m21.895 23.16 2.261 2.211a.34.34 0 0 1 .09.328.338.338 0 0 1-.234.25L3.59 32 .75 29.223Zm-7.782-7.058 2.27 2.246a.342.342 0 0 1 .101.246c0 .09-.035.18-.101.242a.35.35 0 0 1-.156.09L2.863 22.633.07 19.867ZM6.984 9.32l2.059 2.075c.09.09.121.218.09.34a.359.359 0 0 1-.254.245l-6.344 1.65L0 11.066Zm.73.871L3.388 5.863a.347.347 0 0 1 .168-.582L24.71 0l4.61 4.61Zm7.657 7.258-3.707-3.758a.344.344 0 0 1-.09-.34.342.342 0 0 1 .246-.246l13.961-3.707 4.04 4.04Zm8.067 7.32-3.993-4.027a.338.338 0 0 1-.093-.332.337.337 0 0 1 .242-.246l6.695-1.95 4.414 4.403ZM43.84 9.509l.062.605a2.19 2.19 0 0 1-.476.067c-.903 0-1.348-.547-1.348-1.637v-5.5a5.089 5.089 0 0 0-1.031-.117 1.35 1.35 0 0 0-.969.281 1.118 1.118 0 0 0-.281.832v.66h1.398v.625h-1.398v4.746h-.758V5.324h-.8V4.7h.808v-.648c0-1.184.629-1.774 1.894-1.774a6.772 6.772 0 0 1 1.871.29V8.55c-.019.261.036.527.157.761a.618.618 0 0 0 .55.247c.106-.012.215-.028.32-.051m2.93.672a2.291 2.291 0 0 1-1.484-.434 1.397 1.397 0 0 1-.52-1.137c-.035-.476.18-.937.57-1.214a2.51 2.51 0 0 1 1.49-.407c.433 0 .862.051 1.284.145v-.617c0-.864-.464-1.297-1.39-1.297a3.413 3.413 0 0 0-1.434.277l-.172-.617a4.146 4.146 0 0 1 1.657-.309 2.137 2.137 0 0 1 1.55.504c.375.395.57.93.535 1.473V9.69a4.046 4.046 0 0 1-2.085.489m1.328-.895V7.672a6.038 6.038 0 0 0-1.211-.149c-.93 0-1.395.356-1.39 1.063a.88.88 0 0 0 .343.758c.293.187.637.277.984.254.446.02.887-.09 1.274-.313m2.558.785V5.14a4.858 4.858 0 0 1 2.254-.542 2.196 2.196 0 0 1 1.586.515 1.9 1.9 0 0 1 .54 1.438v3.52h-.759v-3.5a1.238 1.238 0 0 0-.363-1.012 1.242 1.242 0 0 0-1.02-.34c-.527 0-1.05.129-1.515.379v4.472Zm9.719 0-1.637-2.379a12.51 12.51 0 0 1-1.101.704v1.675h-.758V2.418l.758-.043v5.266a6.985 6.985 0 0 0 1.722-1.336 3.228 3.228 0 0 0 .727-1.606h.734a3.999 3.999 0 0 1-1.539 2.559l1.942 2.812Zm4.895-4.61a4.633 4.633 0 0 0-1.364-.241c-.758 0-1.136.285-1.136.851a.79.79 0 0 0 .082.38c.062.116.156.21.273.269.258.14.531.254.813.332.488.129.945.34 1.359.629.289.238.445.601.426.976.027.446-.18.875-.543 1.137-.422.27-.922.402-1.422.379a5.01 5.01 0 0 1-.996-.102 4.102 4.102 0 0 1-.778-.218l.125-.637a4.66 4.66 0 0 0 1.637.308c.316.016.629-.062.902-.222a.718.718 0 0 0 .329-.637.669.669 0 0 0-.317-.59 4.429 4.429 0 0 0-1.094-.441c-.414-.11-.8-.305-1.136-.567a1.24 1.24 0 0 1-.403-.992 1.37 1.37 0 0 1 .48-1.14c.4-.278.884-.41 1.368-.38a4.092 4.092 0 0 1 1.516.266Zm3.84 4.72a2.185 2.185 0 0 1-1.766-.758 3.062 3.062 0 0 1-.64-2.043 3.035 3.035 0 0 1 .64-2.035 2.447 2.447 0 0 1 3.554 0c.45.582.676 1.3.637 2.035a3.101 3.101 0 0 1-.637 2.043 2.209 2.209 0 0 1-1.789.758m0-.649c.489.031.954-.183 1.246-.574a2.657 2.657 0 0 0 .415-1.582 2.656 2.656 0 0 0-.415-1.582 1.441 1.441 0 0 0-1.246-.574 1.407 1.407 0 0 0-1.222.582 3.148 3.148 0 0 0 0 3.148c.281.39.742.61 1.222.582m5.914.649c-1.34 0-2.007-.633-2.007-1.895V4.7h.761v3.559c0 .847.422 1.273 1.274 1.273a3.16 3.16 0 0 0 1.515-.379V4.7h.758v4.93c-.71.367-1.5.555-2.3.55m6.445-5.609c.199 0 .398.02.594.055l-.106.648a1.904 1.904 0 0 0-.445-.054 3.16 3.16 0 0 0-1.516.379v4.472h-.758V5.14a4.453 4.453 0 0 1 2.23-.57m5.356.32-.156.606a3.608 3.608 0 0 0-1.328-.277 1.65 1.65 0 0 0-1.367.586 2.474 2.474 0 0 0-.473 1.61c-.043.573.137 1.14.5 1.581.387.379.914.578 1.457.543a2.89 2.89 0 0 0 1.273-.309l.149.618c-.45.23-.95.347-1.457.34a2.63 2.63 0 0 1-1.984-.727 2.768 2.768 0 0 1-.7-2.047 3.02 3.02 0 0 1 .676-2.07 2.347 2.347 0 0 1 1.895-.758 3.544 3.544 0 0 1 1.515.305m5.567 2.004c0 .21-.012.421-.036.628h-3.824a2.12 2.12 0 0 0 .582 1.52c.403.344.926.52 1.457.488a4.136 4.136 0 0 0 1.606-.351l.136.629a4.179 4.179 0 0 1-1.792.379 2.745 2.745 0 0 1-2.016-.735 2.831 2.831 0 0 1-.734-2.078 2.981 2.981 0 0 1 .664-2.02 2.232 2.232 0 0 1 1.789-.757 2.005 2.005 0 0 1 1.593.66c.383.457.586 1.039.575 1.637m-.762.097a.883.883 0 0 0 0-.203 1.69 1.69 0 0 0-.379-1.137 1.28 1.28 0 0 0-1.07-.46c-.43 0-.84.18-1.125.5a2.19 2.19 0 0 0-.512 1.3Zm-40.457 7.18v11.492H49.02v-5.48c-.004-.704.035-1.403.117-2.102a47.596 47.596 0 0 1-3.102 5.594h-1.851a46.875 46.875 0 0 1-3.121-5.637c.085.711.132 1.422.128 2.137v5.488h-2.164V14.172h2.414a47.024 47.024 0 0 0 3.672 7.156 45.834 45.834 0 0 0 3.645-7.156Zm2.445 1.64a1.25 1.25 0 0 1-.344-.917c-.015-.34.11-.672.344-.922.266-.239.613-.36.973-.34.347-.02.691.105.95.34.233.25.358.582.343.922.015.34-.11.671-.344.918a1.272 1.272 0 0 1-.95.347 1.288 1.288 0 0 1-.972-.348m2.102 9.864H53.44V17.28h2.278Zm7.304-6.281a8.378 8.378 0 0 0-2.277-.446c-.758 0-1.137.227-1.137.672a.569.569 0 0 0 .278.52c.343.175.707.308 1.082.402a5.39 5.39 0 0 1 2.144.992c.45.442.688 1.055.645 1.68a2.28 2.28 0 0 1-.942 1.96 4.17 4.17 0 0 1-2.5.684 7.535 7.535 0 0 1-2.976-.543l.312-1.851a7.316 7.316 0 0 0 2.614.523c.32.016.636-.05.925-.187a.59.59 0 0 0 .352-.535.617.617 0 0 0-.336-.567 7.94 7.94 0 0 0-1.418-.5 3.963 3.963 0 0 1-1.809-.902 2.18 2.18 0 0 1-.605-1.625 2.31 2.31 0 0 1 .848-1.922 3.688 3.688 0 0 1 2.351-.672 7.216 7.216 0 0 1 2.711.477Zm7.22 0a8.38 8.38 0 0 0-2.274-.446c-.758 0-1.14.227-1.14.672a.581.581 0 0 0 .276.52 5.17 5.17 0 0 0 1.086.402 5.4 5.4 0 0 1 2.141.992c.453.438.691 1.05.652 1.68a2.29 2.29 0 0 1-.945 1.96 4.21 4.21 0 0 1-2.504.684 7.43 7.43 0 0 1-2.969-.543l.309-1.851a7.296 7.296 0 0 0 2.61.523c.32.016.636-.05.925-.187a.59.59 0 0 0 .356-.535.617.617 0 0 0-.336-.567 8.646 8.646 0 0 0-1.422-.5 4.008 4.008 0 0 1-1.805-.902 2.18 2.18 0 0 1-.605-1.625 2.307 2.307 0 0 1 .843-1.922 3.699 3.699 0 0 1 2.356-.672 7.196 7.196 0 0 1 2.707.477Zm2.284-3.582a1.237 1.237 0 0 1-.347-.918c-.016-.34.11-.672.347-.922.262-.239.61-.364.965-.34.352-.02.695.101.953.34.239.246.36.582.344.922.02.34-.105.675-.344.918a1.286 1.286 0 0 1-.953.347 1.277 1.277 0 0 1-.965-.348m2.098 9.864h-2.273V17.28h2.273Zm8.816-1.016a4.32 4.32 0 0 1-5.984 0 5.147 5.147 0 0 1 0-6.379 4.335 4.335 0 0 1 5.984 0 4.567 4.567 0 0 1 1.098 3.188 4.54 4.54 0 0 1-1.098 3.191m-4.308-1.344a1.51 1.51 0 0 0 1.32.672 1.507 1.507 0 0 0 1.313-.672 3.255 3.255 0 0 0 .46-1.855 3.23 3.23 0 0 0-.46-1.848 1.492 1.492 0 0 0-1.313-.664 1.52 1.52 0 0 0-1.32.672 3.855 3.855 0 0 0 0 3.695m7.113 2.348v-7.863a9.31 9.31 0 0 1 3.711-.723c1.203 0 2.137.29 2.79.871a3.16 3.16 0 0 1 .987 2.496v5.22h-2.277v-5.06c0-1.101-.504-1.652-1.516-1.656a3.411 3.411 0 0 0-1.445.297v6.418Zm9.473-5.613c0-1.817.437-3.281 1.304-4.399.872-1.117 2.145-1.68 3.817-1.68.965.005 1.918.2 2.805.579l-.301 1.015a7.6 7.6 0 0 0-2.496-.523c-1.325 0-2.309.465-2.946 1.39a6.22 6.22 0 0 0-.96 3.618c0 1.469.331 2.625 1 3.469.667.843 1.663 1.27 2.984 1.273a6.298 6.298 0 0 0 2.547-.59l.246 1.016a6.091 6.091 0 0 1-2.82.64c-1.665 0-2.946-.523-3.844-1.566-.899-1.043-1.344-2.457-1.336-4.242m13 5.808a3.377 3.377 0 0 1-2.723-1.183 4.732 4.732 0 0 1-.992-3.153 4.77 4.77 0 0 1 .992-3.148 3.794 3.794 0 0 1 5.492 0 4.767 4.767 0 0 1 .989 3.148 4.75 4.75 0 0 1-.989 3.153 3.4 3.4 0 0 1-2.77 1.183m0-1a2.223 2.223 0 0 0 1.923-.886c.464-.73.691-1.586.64-2.45a4.12 4.12 0 0 0-.64-2.445 2.21 2.21 0 0 0-1.922-.883 2.186 2.186 0 0 0-1.895.895 4.063 4.063 0 0 0-.648 2.433c-.047.864.18 1.715.648 2.442a2.202 2.202 0 0 0 1.895.902Zm6.106.805V18.04a7.534 7.534 0 0 1 3.48-.836c1.083 0 1.903.266 2.454.797a2.93 2.93 0 0 1 .832 2.219v5.445h-1.14v-5.387a2.084 2.084 0 0 0-.536-1.515 2.11 2.11 0 0 0-1.598-.551 4.821 4.821 0 0 0-2.328.559v6.894Zm13.278-.937.085.968c-.402.11-.816.164-1.234.164-1.605 0-2.41-.875-2.41-2.625V18.36h-1.25v-.968h1.25v-1.953l1.137-.083v2.036h2.23v.968h-2.23v4.875c-.04.446.086.887.351 1.246.285.27.668.41 1.059.38.344.007.683-.04 1.012-.133m5.402-7.532c.316 0 .629.032.937.086l-.164 1a2.426 2.426 0 0 0-.691-.078 4.7 4.7 0 0 0-2.363.559v6.902h-1.137V18.04a6.824 6.824 0 0 1 3.418-.844m5.715 8.664a3.377 3.377 0 0 1-2.735-1.183 4.725 4.725 0 0 1-.992-3.153 4.728 4.728 0 0 1 .992-3.148 3.794 3.794 0 0 1 5.493 0 4.763 4.763 0 0 1 .984 3.148 4.746 4.746 0 0 1-.984 3.153 3.4 3.4 0 0 1-2.758 1.183m0-1c.75.051 1.472-.28 1.918-.886a4.077 4.077 0 0 0 .64-2.45 4.066 4.066 0 0 0-.64-2.445 2.227 2.227 0 0 0-1.918-.883 2.186 2.186 0 0 0-1.895.895 4.063 4.063 0 0 0-.648 2.433c-.051.864.18 1.72.648 2.442a2.202 2.202 0 0 0 1.895.902Zm7.234-1.543c-.027.41.059.817.246 1.184.2.266.524.41.856.379.16-.008.32-.024.476-.05l.098.937c-.246.062-.5.093-.758.097-1.387.004-2.082-.84-2.086-2.527v-9.469l1.14-.078Zm0 0" fill="rgb(100%, 100%, 100%)"/></svg>