<svg role="img" viewBox="0 0 148.129 32" xmlns="http://www.w3.org/2000/svg"><defs><linearGradient gradientTransform="rotate(-29.89 228.042 79.99)scale(.2304)" gradientUnits="userSpaceOnUse" id="mission-control-logo_svg__a" x1="250.41" x2="346.76" y1="-315.39" y2="-315.39"><stop offset="0" stop-color="rgb(16.078432%, 50.196081%, 95.294118%)"/><stop offset="1" stop-color="rgb(14.901961%, 32.156864%, 85.09804%)"/></linearGradient><linearGradient gradientTransform="rotate(-29.887 57.504 32.348)scale(.07089)" gradientUnits="userSpaceOnUse" id="mission-control-logo_svg__b" x1="268.19" x2="332.81" y1="-355.21" y2="-355.21"><stop offset="0" stop-color="rgb(16.078432%, 50.196081%, 95.294118%)"/><stop offset="1" stop-color="rgb(14.901961%, 32.156864%, 85.09804%)"/></linearGradient><linearGradient gradientTransform="rotate(-29.887 57.504 32.348)scale(.07089)" gradientUnits="userSpaceOnUse" id="mission-control-logo_svg__c" x1="286.93" x2="320.28" y1="-392.73" y2="-392.73"><stop offset="0" stop-color="rgb(16.078432%, 50.196081%, 95.294118%)"/><stop offset="1" stop-color="rgb(14.901961%, 32.156864%, 85.09804%)"/></linearGradient><linearGradient gradientTransform="rotate(150.11 1032.706 -3.341)scale(.2304)" gradientUnits="userSpaceOnUse" id="mission-control-logo_svg__d" x1="8366.58" x2="8266.31" y1="2144.55" y2="2144.55"><stop offset="0" stop-color="rgb(16.078432%, 50.196081%, 95.294118%)"/><stop offset="1" stop-color="rgb(14.901961%, 32.156864%, 85.09804%)"/></linearGradient><linearGradient gradientTransform="rotate(150.11 1032.706 -3.341)scale(.2304)" gradientUnits="userSpaceOnUse" id="mission-control-logo_svg__e" x1="8352.46" x2="8283.62" y1="2103.86" y2="2103.86"><stop offset="0" stop-color="rgb(16.078432%, 50.196081%, 95.294118%)"/><stop offset="1" stop-color="rgb(14.901961%, 32.156864%, 85.09804%)"/></linearGradient><linearGradient gradientTransform="rotate(150.11 1032.706 -3.341)scale(.2304)" gradientUnits="userSpaceOnUse" id="mission-control-logo_svg__f" x1="8338.52" x2="8300.28" y1="2064.09" y2="2064.09"><stop offset="0" stop-color="rgb(16.078432%, 50.196081%, 95.294118%)"/><stop offset="1" stop-color="rgb(14.901961%, 32.156864%, 85.09804%)"/></linearGradient></defs><path d="m21.895 23.16 2.261 2.211a.34.34 0 0 1 .09.328.34.34 0 0 1-.234.25L3.59 32 .75 29.223Zm0 0" fill="url(#mission-control-logo_svg__a)"/><path d="m14.113 16.102 2.27 2.246a.34.34 0 0 1 .101.246c0 .09-.035.18-.101.242a.35.35 0 0 1-.156.09L2.863 22.633.07 19.867Zm0 0" fill="url(#mission-control-logo_svg__b)"/><path d="m6.984 9.32 2.059 2.075a.34.34 0 0 1 .102.246c0 .093-.036.18-.102.246a.4.4 0 0 1-.164.093l-6.344 1.65L0 11.066Zm0 0" fill="url(#mission-control-logo_svg__c)"/><path d="M7.715 10.191 3.387 5.863a.35.35 0 0 1-.086-.34.35.35 0 0 1 .254-.242L24.71 0l4.61 4.61Zm0 0" fill="url(#mission-control-logo_svg__d)"/><path d="m15.371 17.45-3.707-3.759a.36.36 0 0 1-.09-.34.35.35 0 0 1 .246-.246l13.961-3.707 4.04 4.04Zm0 0" fill="url(#mission-control-logo_svg__e)"/><path d="m23.438 24.77-3.993-4.028a.35.35 0 0 1-.09-.332.35.35 0 0 1 .239-.246l6.695-1.95 4.414 4.403Zm0 0" fill="url(#mission-control-logo_svg__f)"/><path d="m43.84 9.508.062.61q-.235.057-.476.062c-.903 0-1.348-.547-1.348-1.637v-5.5a5 5 0 0 0-1.031-.117 1.35 1.35 0 0 0-.969.281 1.12 1.12 0 0 0-.281.832v.66h1.398v.625h-1.398v4.746h-.758V5.324h-.8V4.7h.808v-.648q-.002-1.775 1.894-1.774a6.8 6.8 0 0 1 1.871.29v5.988c-.019.265.036.527.157.758a.62.62 0 0 0 .55.246q.16-.017.32-.051m2.93.672a2.25 2.25 0 0 1-1.485-.434 1.39 1.39 0 0 1-.52-1.137c-.035-.476.18-.937.57-1.214a2.64 2.64 0 0 1 1.49-.407c.429 0 .862.051 1.284.145v-.617q0-1.296-1.39-1.297a3.5 3.5 0 0 0-1.434.277l-.172-.617a4.15 4.15 0 0 1 1.657-.309c.562-.039 1.12.14 1.55.504.375.395.57.93.535 1.473V9.69a4.04 4.04 0 0 1-2.085.489m1.328-.895V7.672a6.3 6.3 0 0 0-1.211-.149q-1.396.001-1.39 1.063a.87.87 0 0 0 .343.758c.293.187.637.277.984.258a2.35 2.35 0 0 0 1.274-.317m2.558.785V5.14a4.86 4.86 0 0 1 2.254-.542 2.2 2.2 0 0 1 1.586.515c.371.383.57.903.54 1.438v3.52h-.763v-3.5a1.22 1.22 0 0 0-.359-1.012 1.22 1.22 0 0 0-1.02-.34c-.527 0-1.05.129-1.515.379v4.472Zm9.719 0-1.637-2.379a13 13 0 0 1-1.101.704v1.675h-.762V2.418l.762-.043v5.266a7 7 0 0 0 1.722-1.336 3.23 3.23 0 0 0 .727-1.606h.734a4.02 4.02 0 0 1-1.539 2.563l1.942 2.808Zm4.895-4.61a4.6 4.6 0 0 0-1.364-.241q-1.137.001-1.136.851a.85.85 0 0 0 .078.38c.062.116.16.21.277.269.258.14.531.254.813.332.488.129.945.34 1.359.629.289.238.445.601.422.976.027.446-.176.875-.54 1.137a2.44 2.44 0 0 1-1.421.379 5 5 0 0 1-.996-.102 4 4 0 0 1-.778-.215l.125-.64a4.7 4.7 0 0 0 1.637.308c.316.016.629-.062.902-.222a.72.72 0 0 0 .329-.637.67.67 0 0 0-.317-.59 4.4 4.4 0 0 0-1.094-.441c-.414-.11-.8-.305-1.136-.567a1.24 1.24 0 0 1-.403-.992 1.37 1.37 0 0 1 .48-1.14c.4-.278.88-.41 1.368-.38a4.1 4.1 0 0 1 1.516.266Zm3.84 4.72a2.19 2.19 0 0 1-1.766-.758 3.05 3.05 0 0 1-.64-2.04 3.05 3.05 0 0 1 .64-2.038 2.447 2.447 0 0 1 3.554 0 3.1 3.1 0 0 1 .637 2.039 3.1 3.1 0 0 1-.637 2.039 2.2 2.2 0 0 1-1.789.758m0-.649c.484.031.953-.183 1.245-.574a2.66 2.66 0 0 0 .415-1.582 2.66 2.66 0 0 0-.415-1.582 1.44 1.44 0 0 0-1.246-.574 1.4 1.4 0 0 0-1.222.582 3.16 3.16 0 0 0 0 3.152 1.41 1.41 0 0 0 1.222.578m5.913.649q-2.008-.001-2.007-1.895V4.7h.757v3.559q0 1.272 1.278 1.273a3.16 3.16 0 0 0 1.515-.379V4.7h.758v4.93c-.71.367-1.5.555-2.3.55m6.446-5.61q.3.001.594.055l-.106.648a1.6 1.6 0 0 0-.445-.054 3.1 3.1 0 0 0-1.516.379v4.472h-.762V5.14a4.5 4.5 0 0 1 2.235-.57m5.355.32-.16.606a3.6 3.6 0 0 0-1.324-.277 1.65 1.65 0 0 0-1.367.586 2.47 2.47 0 0 0-.473 1.61c-.043.573.137 1.14.5 1.581a1.9 1.9 0 0 0 1.457.543 2.9 2.9 0 0 0 1.273-.309l.149.618c-.45.23-.95.347-1.457.34a2.63 2.63 0 0 1-1.984-.723c-.5-.563-.754-1.3-.7-2.05-.039-.75.2-1.49.672-2.071a2.37 2.37 0 0 1 1.899-.758 3.54 3.54 0 0 1 1.515.305m5.563 2.005a5 5 0 0 1-.032.628h-3.824a2.12 2.12 0 0 0 .582 1.52c.403.344.926.52 1.457.488a4.1 4.1 0 0 0 1.606-.351l.136.629a4.2 4.2 0 0 1-1.792.379 2.75 2.75 0 0 1-2.016-.735 2.8 2.8 0 0 1-.734-2.078 2.98 2.98 0 0 1 .664-2.02 2.23 2.23 0 0 1 1.789-.757 2 2 0 0 1 1.593.66 2.45 2.45 0 0 1 .57 1.637m-.758.101a2 2 0 0 0 0-.207 1.74 1.74 0 0 0-.379-1.137 1.28 1.28 0 0 0-1.07-.46c-.43 0-.84.18-1.125.503a2.18 2.18 0 0 0-.512 1.301Zm0 0" fill="rgb(16.078432%, 50.196081%, 95.294118%)"/><path d="M51.172 14.172v11.492H49.02v-5.48q-.006-1.055.117-2.102a48 48 0 0 1-3.102 5.594H44.18a49 49 0 0 1-3.121-5.637c.09.707.136 1.422.132 2.137v5.488h-2.164V14.172h2.41a47.4 47.4 0 0 0 3.676 7.156 46 46 0 0 0 3.645-7.156Zm2.445 1.64a1.27 1.27 0 0 1-.347-.917c-.012-.34.113-.672.347-.922.262-.239.613-.364.969-.34.352-.02.695.105.953.34.234.25.356.582.34.922.02.34-.106.671-.34.918a1.3 1.3 0 0 1-.953.347 1.32 1.32 0 0 1-.969-.348m2.102 9.86H53.44v-8.39h2.278Zm7.304-6.277a8.4 8.4 0 0 0-2.277-.446q-1.137 0-1.137.672a.57.57 0 0 0 .278.52c.343.175.707.308 1.082.402a5.4 5.4 0 0 1 2.144.992c.45.442.684 1.05.645 1.68a2.28 2.28 0 0 1-.942 1.96 4.2 4.2 0 0 1-2.504.684 7.4 7.4 0 0 1-2.972-.543l.312-1.855a7.2 7.2 0 0 0 2.614.527c.316.016.636-.05.925-.187a.59.59 0 0 0 .352-.535.61.61 0 0 0-.34-.567 8 8 0 0 0-1.418-.5 4 4 0 0 1-1.805-.902 2.17 2.17 0 0 1-.605-1.625 2.32 2.32 0 0 1 .844-1.922 3.7 3.7 0 0 1 2.355-.672 7.2 7.2 0 0 1 2.707.477Zm7.22 0a8.4 8.4 0 0 0-2.278-.446q-1.137 0-1.137.672a.58.58 0 0 0 .277.52 5.2 5.2 0 0 0 1.086.402 5.4 5.4 0 0 1 2.141.992c.453.438.691 1.055.648 1.68.04.77-.316 1.508-.94 1.96a4.2 4.2 0 0 1-2.505.684 7.4 7.4 0 0 1-2.969-.543l.309-1.855a7.2 7.2 0 0 0 2.61.527c.32.016.636-.05.925-.187a.58.58 0 0 0 .352-.535.61.61 0 0 0-.332-.567 8.3 8.3 0 0 0-1.422-.5 4 4 0 0 1-1.805-.902 2.17 2.17 0 0 1-.61-1.625 2.32 2.32 0 0 1 .848-1.922 3.7 3.7 0 0 1 2.356-.672 7.2 7.2 0 0 1 2.707.477Zm2.28-3.582a1.23 1.23 0 0 1-.343-.918c-.016-.34.11-.672.343-.922a1.32 1.32 0 0 1 .97-.34c.35-.02.695.101.952.34.235.25.36.582.344.922.016.34-.11.671-.344.918a1.3 1.3 0 0 1-.953.347 1.3 1.3 0 0 1-.969-.348m2.102 9.859h-2.273v-8.39h2.273Zm8.816-1.012a4.32 4.32 0 0 1-5.984 0 5.15 5.15 0 0 1 0-6.379 4.335 4.335 0 0 1 5.984 0 4.57 4.57 0 0 1 1.098 3.188 4.54 4.54 0 0 1-1.098 3.191m-4.308-1.344c.293.438.789.696 1.316.672a1.49 1.49 0 0 0 1.313-.672c.34-.558.5-1.203.465-1.855a3.2 3.2 0 0 0-.465-1.848 1.48 1.48 0 0 0-1.313-.664 1.51 1.51 0 0 0-1.316.672 3.86 3.86 0 0 0 0 3.695m7.113 2.348V17.8a9.3 9.3 0 0 1 3.707-.723q1.81 0 2.793.871a3.16 3.16 0 0 1 .984 2.496v5.22h-2.273v-5.06q-.002-1.65-1.516-1.656a3.4 3.4 0 0 0-1.445.297v6.418Zm9.473-5.613q-.001-2.724 1.304-4.399c.872-1.12 2.141-1.68 3.817-1.68.965.005 1.918.2 2.805.579l-.305 1.015a7.6 7.6 0 0 0-2.492-.523q-1.988.001-2.95 1.39a6.2 6.2 0 0 0-.957 3.618q-.001 2.203 1 3.469c.668.843 1.664 1.27 2.985 1.273a6.3 6.3 0 0 0 2.543-.59l.25 1.016a6.1 6.1 0 0 1-2.824.64c-1.665 0-2.942-.523-3.84-1.566q-1.348-1.564-1.336-4.242m13 5.808a3.38 3.38 0 0 1-2.723-1.183 4.73 4.73 0 0 1-.992-3.153 4.75 4.75 0 0 1 .992-3.148 3.78 3.78 0 0 1 5.492 0 4.76 4.76 0 0 1 .985 3.148 4.75 4.75 0 0 1-.985 3.153 3.4 3.4 0 0 1-2.77 1.183m0-1a2.2 2.2 0 0 0 1.918-.886 4.08 4.08 0 0 0 .64-2.45 4.07 4.07 0 0 0-.64-2.445 2.2 2.2 0 0 0-1.918-.883 2.19 2.19 0 0 0-1.895.895 4.06 4.06 0 0 0-.648 2.433c-.047.864.18 1.715.648 2.442a2.2 2.2 0 0 0 1.895.902Zm6.105.805V18.04a7.5 7.5 0 0 1 3.477-.836c1.086 0 1.902.266 2.457.797.574.59.879 1.395.828 2.219v5.445h-1.137v-5.387a2.1 2.1 0 0 0-.535-1.515 2.12 2.12 0 0 0-1.602-.551 4.9 4.9 0 0 0-2.328.559v6.894Zm13.278-.937.082.968c-.399.11-.813.164-1.23.164q-2.415 0-2.415-2.625V18.36h-1.246v-.968h1.246v-1.953l1.14-.083v2.036h2.231v.968h-2.23v4.875a1.78 1.78 0 0 0 .351 1.246c.281.274.668.41 1.059.38.344.007.683-.04 1.012-.133m5.402-7.532q.47 0 .934.086l-.16 1a2.4 2.4 0 0 0-.692-.078 4.7 4.7 0 0 0-2.363.559v6.902h-1.137V18.04a6.8 6.8 0 0 1 3.418-.844m5.715 8.664a3.37 3.37 0 0 1-2.735-1.183 4.76 4.76 0 0 1-.996-3.153 4.74 4.74 0 0 1 .996-3.148 3.78 3.78 0 0 1 5.489 0 4.77 4.77 0 0 1 .988 3.148 4.75 4.75 0 0 1-.988 3.153 3.4 3.4 0 0 1-2.754 1.183m0-1a2.22 2.22 0 0 0 1.918-.886 4.1 4.1 0 0 0 .64-2.45 4.1 4.1 0 0 0-.64-2.445 2.22 2.22 0 0 0-1.918-.883 2.2 2.2 0 0 0-1.899.895 4.06 4.06 0 0 0-.648 2.433c-.047.864.18 1.715.648 2.442a2.2 2.2 0 0 0 1.899.902Zm7.234-1.543c-.027.41.059.817.246 1.184.2.266.524.41.856.379q.241-.012.476-.05l.098.937q-.376.089-.758.097-2.08 0-2.086-2.531v-9.465l1.137-.078Zm0 0" fill="rgb(16.862746%, 16.862746%, 16.862746%)"/></svg>