<svg role="img" viewBox="0 0 32.297 32" xmlns="http://www.w3.org/2000/svg"><path d="m6.633 7.46 8.293-3.991a2.208 2.208 0 0 1-.906-2.403L4.953 5.434a2.206 2.206 0 0 1 1.68 2.027M1.637 17.953c.465 0 .902.14 1.258.39l1.964-8.609a2.199 2.199 0 0 1-1.8-.441 2.147 2.147 0 0 1-.567-.676L.25 18.441c.262-.214.57-.363.898-.433.16-.04.325-.055.489-.055m27.605-8.66a2.2 2.2 0 0 1-1.375.48c-.144 0-.289-.011-.43-.039l1.965 8.61c.36-.25.793-.39 1.258-.39.164 0 .328.015.488.054.332.074.641.222.903.437l-2.246-9.832a2.058 2.058 0 0 1-.563.68m-11.87-5.824 8.292 3.992c.047-.973.73-1.8 1.68-2.027l-9.067-4.368a2.208 2.208 0 0 1-.906 2.403m12.8 18.836a2.207 2.207 0 0 1-1.421-1.063l-5.531 6.934c.597.172 1.11.59 1.386 1.16.149.3.215.621.22.934l6.359-7.973a2.34 2.34 0 0 1-.52.062c-.164 0-.328-.02-.492-.054m-9.535 8.949a2.206 2.206 0 0 1-.043-1.813h-8.89A2.191 2.191 0 0 1 11.07 32h10.16a2.205 2.205 0 0 1-.593-.746M9.078 28.176l-5.531-6.934a2.199 2.199 0 0 1-2.43 1.055l6.356 7.973a2.22 2.22 0 0 1 .218-.934c.278-.57.79-.988 1.387-1.16m21.945-9.613a1.422 1.422 0 0 0-.363-.043c-.55 0-1.066.28-1.367.742l-6.55-1.489.007-.007c1.29-.746 1.29-2.606 0-3.352l-1.477-.851 5.747-4.59c.257.148.55.23.847.234.356 0 .715-.117 1.02-.355.543-.434.75-1.165.52-1.82A1.642 1.642 0 0 0 28.316 6a1.638 1.638 0 0 0-1.473.297c-.532.426-.746 1.137-.532 1.785l-6.097 4.871-3.496-2.02V3.169s.011-.004.015-.008a1.64 1.64 0 0 0 1.032-1.824 1.641 1.641 0 0 0-3.254.3c0 .696.437 1.29 1.05 1.524.008.004.012.008.016.008v7.11l-1.82-1.055c-1.29-.743-2.903.187-2.903 1.675v1.075l-4.87-3.887a1.616 1.616 0 0 0-.532-1.79 1.622 1.622 0 0 0-1.2-.35 1.638 1.638 0 0 0-1.25.835 1.628 1.628 0 0 0-.046 1.5 1.634 1.634 0 0 0 2.047.82c.094-.035.187-.078.273-.128l5.578 4.453v4.05l-7.851 1.786a1.64 1.64 0 0 0-.25-.301 1.65 1.65 0 0 0-1.117-.441 1.4 1.4 0 0 0-.364.043 1.625 1.625 0 0 0-1.23 1.953 1.634 1.634 0 0 0 3.215-.145l7.597-1.726v2.636c0 1.012.743 1.766 1.625 1.91l-2.648 5.477a1.546 1.546 0 0 0-.355.004 1.64 1.64 0 0 0-1.454 1.726 1.635 1.635 0 0 0 1.653 1.532 1.635 1.635 0 0 0 1.18-2.766l3.035-6.285 3.53-2.035 4.02 8.32a1.638 1.638 0 0 0-.144 2.094 1.636 1.636 0 0 0 2.031.504 1.63 1.63 0 0 0-.86-3.094l-4.058-8.395 2.883-1.664 7.75 1.762c.11.813.8 1.418 1.621 1.418a1.624 1.624 0 0 0 1.629-1.45 1.636 1.636 0 0 0-1.266-1.776ZM27.422 7.015a.723.723 0 0 1 .523-.153.72.72 0 0 1 .63.79.719.719 0 0 1-.266.476.717.717 0 0 1-1-.113.723.723 0 0 1-.153-.524.719.719 0 0 1 .266-.476M15.438 1.633c0-.39.32-.711.71-.711.391 0 .711.32.711.71a.726.726 0 0 1-.343.65.709.709 0 0 1-.735 0 .702.702 0 0 1-.344-.65M3.989 8.13a.717.717 0 0 1-.113-1 .717.717 0 0 1 1-.113.723.723 0 0 1 .266.476.72.72 0 0 1-.364.703.71.71 0 0 1-.789-.066M1.793 20.848a.714.714 0 0 1-.758-1.078.715.715 0 0 1 1.203.765.702.702 0 0 1-.445.313m8.523 9.757a.728.728 0 0 1-.406.364.726.726 0 0 1-.543-.035.707.707 0 0 1-.32-.942.7.7 0 0 1 .672-.402.708.708 0 0 1 .597 1.015m12.946-.62a.718.718 0 0 1 .031.546.696.696 0 0 1-.363.403.708.708 0 0 1-.95-.332.715.715 0 0 1 .332-.95.715.715 0 0 1 .95.332m-4.856-13.261-3.383 1.953a.72.72 0 0 1-.73 0 .721.721 0 0 1-.36-.633v-3.906c0-.559.606-.91 1.09-.63l3.383 1.954a.734.734 0 0 1 0 1.262m12.95 3.59a.711.711 0 1 1-1.387-.316.712.712 0 0 1 .836-.474c.36.082.597.426.55.79m0 0" fill="rgb(19.607843%, 42.352941%, 89.803922%)"/></svg>