<svg role="img" viewBox="0 0 30.703 32" height="32" width="30.703" xmlns="http://www.w3.org/2000/svg"><defs><linearGradient gradientTransform="rotate(-29.891 304.558 34.776)scale(.22822)" gradientUnits="userSpaceOnUse" id="28__22__506__500__mission-control-lp-1" x1="268.19" x2="332.81" y1="-355.21" y2="-355.21"><stop offset="0" stop-color="rgb(16.078431%, 50.196078%, 95.294118%)"/><stop offset="1" stop-color="rgb(14.901961%, 32.156863%, 85.098039%)"/></linearGradient><linearGradient gradientTransform="rotate(-29.891 304.558 34.776)scale(.22822)" gradientUnits="userSpaceOnUse" id="29__23__507__501__linear-pattern-2" x1="286.93" x2="320.28" y1="-392.73" y2="-392.73"><stop offset="0" stop-color="rgb(16.078431%, 50.196078%, 95.294118%)"/><stop offset="1" stop-color="rgb(14.901961%, 32.156863%, 85.098039%)"/></linearGradient><linearGradient gradientTransform="rotate(150.109 1032.7 -3.343)scale(.2304)" gradientUnits="userSpaceOnUse" id="30__24__508__502__linear-pattern-3" x1="8366.58" x2="8266.31" y1="2144.55" y2="2144.55"><stop offset="0" stop-color="rgb(16.078431%, 50.196078%, 95.294118%)"/><stop offset="1" stop-color="rgb(14.901961%, 32.156863%, 85.098039%)"/></linearGradient><linearGradient gradientTransform="rotate(150.109 1032.7 -3.343)scale(.2304)" gradientUnits="userSpaceOnUse" id="31__25__509__503__linear-pattern-4" x1="8352.46" x2="8283.62" y1="2103.86" y2="2103.86"><stop offset="0" stop-color="rgb(16.078431%, 50.196078%, 95.294118%)"/><stop offset="1" stop-color="rgb(14.901961%, 32.156863%, 85.098039%)"/></linearGradient><linearGradient gradientTransform="rotate(150.109 1032.7 -3.343)scale(.2304)" gradientUnits="userSpaceOnUse" id="32__26__510__504__linear-pattern-5" x1="8338.52" x2="8300.28" y1="2064.09" y2="2064.09"><stop offset="0" stop-color="rgb(16.078431%, 50.196078%, 95.294118%)"/><stop offset="1" stop-color="rgb(14.901961%, 32.156863%, 85.098039%)"/></linearGradient></defs><path d="m21.895 23.16 2.261 2.207c.133.14.133.36 0 .496a.34.34 0 0 1-.144.086L3.59 32 .75 29.223Zm0 0" fill="url(#33__27__505__499__linear-pattern-0)"/><path d="m14.113 16.102 2.27 2.246a.342.342 0 0 1 .101.246c0 .09-.035.18-.101.242a.35.35 0 0 1-.156.09L2.863 22.633.07 19.867Zm0 0" fill="url(#28__22__506__500__linear-pattern-1)"/><path d="m6.984 9.32 2.059 2.075a.342.342 0 0 1 .102.246c0 .093-.036.18-.102.246a.384.384 0 0 1-.164.093l-6.344 1.65L0 11.066Zm0 0" fill="url(#29__23__507__501__linear-pattern-2)"/><path d="M7.715 10.191 3.387 5.863a.351.351 0 0 1-.086-.34.353.353 0 0 1 .254-.242L24.715 0l4.605 4.61Zm0 0" fill="url(#30__24__508__502__linear-pattern-3)"/><path d="m15.371 17.45-3.71-3.759a.359.359 0 0 1 0-.496.385.385 0 0 1 .16-.09l13.956-3.707 4.043 4.04Zm0 0" fill="url(#31__25__509__503__linear-pattern-4)"/><path d="m23.438 24.77-3.993-4.028a.34.34 0 0 1 0-.492c.04-.043.09-.07.149-.09l6.695-1.945 4.414 4.402Zm0 0" fill="url(#32__26__510__504__linear-pattern-5)"/></svg>