<svg role="img" viewBox="0 0 32 32" xmlns="http://www.w3.org/2000/svg"><path d="m22.543 23.16 2.262 2.207a.35.35 0 0 1 .09.332.34.34 0 0 1-.235.25L4.238 32l-2.84-2.777Zm-7.781-7.058 2.27 2.246c.09.086.124.215.09.336a.33.33 0 0 1-.247.242L3.512 22.633.719 19.867ZM7.632 9.32l2.06 2.075a.34.34 0 0 1 .101.246.34.34 0 0 1-.102.246.5.5 0 0 1-.164.093l-6.343 1.65-2.536-2.564Zm.731.871L4.035 5.863a.34.34 0 0 1-.086-.34.33.33 0 0 1 .254-.242L25.363 0l4.606 4.61Zm7.657 7.258-3.711-3.758a.36.36 0 0 1 0-.496.4.4 0 0 1 .16-.09l13.957-3.707 4.043 4.04Zm8.066 7.32-3.992-4.027A.35.35 0 0 1 20 20.41a.36.36 0 0 1 .242-.25l6.695-1.945 4.415 4.402Zm0 0" fill="rgb(100%, 100%, 100%)"/></svg>