<svg role="img" viewBox="0 0 32 32" height="32" width="32" xmlns="http://www.w3.org/2000/svg"><path d="M14.21 31.992H1.61A1.617 1.617 0 0 1 0 30.382V18.146h.094c7.715 0 14.008 6.199 14.117 13.847m10.14 0h-5.394C18.847 21.66 10.395 13.301 0 13.258V8.05h.094c13.312 0 24.164 10.726 24.258 23.941m6.039 0h-1.293C29.004 16.094 15.992 3.211 0 3.164V1.617C0 .734.727.007 1.61.007h10.187C20.977 3.32 28.344 10.388 32 19.345v11.054c0 .883-.727 1.594-1.61 1.594M22.286.008h8.121c.426 0 .832.168 1.133.465.297.3.461.707.461 1.129v7.882c-1.215-1.656-2.727-3.53-4.207-5.015-1.676-1.657-3.629-3.153-5.508-4.461m0 0"/></svg>