<?xml version="1.0" encoding="UTF-8"?>
<svg xmlns="http://www.w3.org/2000/svg" xmlns:xlink="http://www.w3.org/1999/xlink" width="32" height="32" viewBox="0 0 32 32">
<path fill-rule="nonzero" fill="rgb(40%, 73.333333%, 41.568627%)" fill-opacity="1" d="M 26.667969 5.160156 L 26.667969 18.171875 C 26.667969 18.8125 26.148438 19.332031 25.507812 19.332031 L 19.332031 19.332031 L 17.332031 11.332031 L 19.332031 4 L 25.507812 4 C 26.148438 4 26.667969 4.519531 26.667969 5.160156 Z M 26.667969 5.160156 "/>
<path fill-rule="nonzero" fill="rgb(18.039216%, 49.019608%, 19.607843%)" fill-opacity="1" d="M 12 11.332031 L 15.667969 10 L 19.332031 11.332031 L 19.332031 22.171875 C 19.332031 22.8125 18.8125 23.332031 18.171875 23.332031 L 12 23.332031 L 10.667969 17.332031 Z M 12 11.332031 "/>
<path fill-rule="nonzero" fill="rgb(10.588235%, 36.862745%, 12.54902%)" fill-opacity="1" d="M 10.839844 28 L 5.828125 28 C 5.1875 28 4.667969 27.480469 4.667969 26.839844 L 4.667969 16 L 8.332031 14.667969 L 12 16 L 12 26.839844 C 12 27.480469 11.480469 28 10.839844 28 Z M 10.839844 28 "/>
<path fill-rule="nonzero" fill="rgb(18.039216%, 49.019608%, 19.607843%)" fill-opacity="1" d="M 12 16 L 4.667969 16 L 4.667969 5.160156 C 4.667969 4.519531 5.1875 4 5.828125 4 L 12 4 L 13.332031 10 Z M 12 16 "/>
<path fill-rule="nonzero" fill="rgb(26.27451%, 62.745098%, 27.843137%)" fill-opacity="1" d="M 12 4 L 19.332031 4 L 19.332031 11.332031 L 12 11.332031 Z M 12 4 "/>
</svg>
