<svg role="img" viewBox="0 0 32 32" height="32" width="32" xmlns="http://www.w3.org/2000/svg"><path d="M15.96 2.883a.999.999 0 0 0-.382.09L1.82 9.69a.956.956 0 0 0-.539.864c0 .367.207.703.54.863l3.597 1.766-3.637 1.968a.956.956 0 0 0-.5.864c.012.359.219.68.54.843l3.597 1.762-3.637 1.973a.96.96 0 0 0 .04 1.707l13.757 6.722a.969.969 0 0 0 .844 0L30.18 22.3a.958.958 0 0 0 .039-1.707l-3.637-1.973 3.598-1.758a.964.964 0 0 0 .039-1.71l-3.637-1.97 3.598-1.761a.96.96 0 0 0 0-1.73l-13.758-6.72a.984.984 0 0 0-.461-.09M16 4.915l11.57 5.649L16 16.203l-11.57-5.64Zm-8.46 9.297 8.038 3.93a.92.92 0 0 0 .844 0l8.039-3.93 3.2 1.742L16 21.641 4.34 15.953Zm0 5.441 8.038 3.93a.969.969 0 0 0 .844 0l8.039-3.93 3.2 1.739L16 27.082 4.34 21.391Zm0 0"/></svg>