<?xml version="1.0" encoding="UTF-8"?>
<svg xmlns="http://www.w3.org/2000/svg" xmlns:xlink="http://www.w3.org/1999/xlink" width="30.951363" height="32" viewBox="0 0 30.951363 32">
<path fill-rule="nonzero" fill="rgb(20.392157%, 64.705882%, 45.490196%)" fill-opacity="1" d="M 15.496094 0.621094 L 30.363281 0.621094 L 30.363281 12.675781 L 15.496094 12.675781 Z M 15.496094 0.621094 "/>
<path fill-rule="nonzero" fill="rgb(15.294118%, 66.666667%, 88.235294%)" fill-opacity="1" d="M 0.628906 0.621094 L 15.496094 0.621094 L 15.496094 12.675781 L 0.628906 12.675781 Z M 0.628906 0.621094 "/>
<path fill-rule="nonzero" fill="rgb(55.294118%, 77.647059%, 24.705882%)" fill-opacity="1" d="M 15.496094 12.6875 L 30.363281 12.6875 L 30.363281 24.738281 L 15.496094 24.738281 Z M 15.496094 12.6875 "/>
<path fill-rule="nonzero" fill="rgb(21.568627%, 36.078431%, 57.647059%)" fill-opacity="1" d="M 0.628906 12.6875 L 15.496094 12.6875 L 15.496094 24.738281 L 0.628906 24.738281 Z M 0.628906 12.6875 "/>
<path fill-rule="nonzero" fill="rgb(55.294118%, 77.647059%, 24.705882%)" fill-opacity="1" d="M 13.308594 24.675781 L 20.585938 31.40625 L 20.585938 24.675781 Z M 13.308594 24.675781 "/>
<path fill-rule="nonzero" fill="rgb(21.568627%, 36.078431%, 57.647059%)" fill-opacity="1" d="M 15.496094 24.675781 L 15.574219 26.792969 L 13.242188 24.617188 Z M 15.496094 24.675781 "/>
<path fill-rule="nonzero" fill="rgb(100%, 100%, 100%)" fill-opacity="1" d="M 21.65625 16.207031 L 21.65625 6.230469 L 25.210938 6.230469 L 25.210938 19.132812 L 19.824219 19.132812 L 8.949219 8.976562 L 8.949219 19.144531 L 5.382812 19.144531 L 5.382812 6.230469 L 10.957031 6.230469 Z M 21.65625 16.207031 "/>
</svg>
