<svg role="img" viewBox="0 0 32 32" height="32" width="32" xmlns="http://www.w3.org/2000/svg"><path d="M1.281 3.84v1.28H3.84c.363 0 .64.277.64.637V27.52h1.282v-3.2H8.32v-1.922a.643.643 0 0 1 .64-.636h6.4c.35 0 .636.285.64.636v1.922h14.078V9.602H5.762v-3.84A1.93 1.93 0 0 0 3.84 3.84Zm18.559 7.68h1.281v1.921H19.84v1.278h-1.918V13.44h1.918Zm2.558 0h1.282v1.921h-1.282Zm2.563 0h1.277v1.921h1.922v1.278h-1.922V13.44h-1.277ZM13.44 12.8a1.279 1.279 0 1 1-.004 2.56 1.279 1.279 0 1 1 .004-2.559m-7.68.64h2.56v5.118H5.76ZM17.922 16h1.919v1.281h-1.918Zm8.317 0h1.922v1.281h-1.922Zm-8.316 2.559h1.918v1.28h1.281v1.923H19.84V19.84h-1.918Zm8.316 0h1.922v1.28h-1.922v1.923h-1.277V19.84h1.277Zm-3.84 1.28h1.282v1.923h-1.282Zm0 0"/></svg>