<?xml version="1.0" encoding="UTF-8"?>
<svg xmlns="http://www.w3.org/2000/svg" xmlns:xlink="http://www.w3.org/1999/xlink" width="40.615002" height="32" viewBox="0 0 40.615002 32">
<path fill-rule="nonzero" fill="rgb(0%, 54.901961%, 60%)" fill-opacity="1" d="M 39.09375 11.730469 C 37.246094 3.238281 27.0625 -1.757812 16.347656 0.570312 C 5.628906 2.898438 -1.558594 11.675781 0.289062 20.164062 C 2.136719 28.652344 12.320312 33.652344 23.035156 31.320312 C 33.75 28.992188 40.941406 20.226562 39.097656 11.726562 Z M 19.691406 23.773438 C 17.613281 23.773438 15.621094 22.949219 14.15625 21.480469 C 12.6875 20.011719 11.863281 18.019531 11.867188 15.945312 C 11.863281 13.867188 12.691406 11.878906 14.15625 10.410156 C 15.625 8.941406 17.617188 8.117188 19.695312 8.121094 C 24.015625 8.121094 27.519531 11.628906 27.519531 15.949219 C 27.515625 20.269531 24.011719 23.773438 19.691406 23.773438 M 19.691406 23.773438 "/>
<path fill-rule="nonzero" fill="rgb(43.921569%, 80%, 82.745098%)" fill-opacity="1" d="M 21.421875 4.988281 C 15.214844 4.988281 10.1875 10.023438 10.1875 16.230469 C 10.1875 22.4375 15.21875 27.464844 21.425781 27.464844 C 27.632812 27.464844 32.664062 22.433594 32.664062 16.226562 C 32.664062 13.246094 31.480469 10.386719 29.371094 8.28125 C 27.261719 6.175781 24.402344 4.992188 21.421875 4.988281 M 19.691406 22.777344 C 17.875 22.78125 16.136719 22.0625 14.855469 20.777344 C 13.570312 19.496094 12.847656 17.753906 12.855469 15.941406 C 12.851562 12.84375 14.929688 10.136719 17.921875 9.335938 C 20.910156 8.535156 24.066406 9.839844 25.613281 12.519531 C 27.160156 15.199219 26.710938 18.585938 24.523438 20.773438 C 23.242188 22.054688 21.503906 22.773438 19.691406 22.773438 Z M 19.691406 22.777344 "/>
</svg>
