<svg role="img" viewBox="0 0 40.615 32" height="32" width="40.615" xmlns="http://www.w3.org/2000/svg"><path d="M39.094 11.73C37.246 3.238 27.062-1.758 16.348.57 5.628 2.898-1.56 11.676.289 20.164 2.137 28.652 12.32 33.652 23.035 31.32c10.715-2.328 17.906-11.093 16.063-19.593ZM19.69 23.773a7.816 7.816 0 0 1-5.535-2.293 7.81 7.81 0 0 1-2.289-5.535 7.812 7.812 0 0 1 7.828-7.824c4.32 0 7.825 3.508 7.825 7.828a7.831 7.831 0 0 1-7.829 7.824m0 0" fill="rgb(0%, 54.901961%, 60%)"/><path d="M21.422 4.988c-6.207 0-11.234 5.035-11.234 11.242 0 6.208 5.03 11.235 11.238 11.235 6.207 0 11.238-5.031 11.238-11.238 0-2.98-1.184-5.84-3.293-7.946a11.274 11.274 0 0 0-7.95-3.293m-1.73 17.79a6.802 6.802 0 0 1-4.836-2 6.793 6.793 0 0 1-2-4.837 6.823 6.823 0 0 1 5.067-6.605 6.838 6.838 0 0 1 7.691 3.184 6.84 6.84 0 0 1-1.09 8.253 6.833 6.833 0 0 1-4.832 2Zm0 0" fill="rgb(43.921569%, 80%, 82.745098%)"/></svg>