<?xml version="1.0" encoding="UTF-8"?>
<svg xmlns="http://www.w3.org/2000/svg" xmlns:xlink="http://www.w3.org/1999/xlink" width="32" height="32" viewBox="0 0 32 32">
<path fill-rule="nonzero" fill="rgb(12.941176%, 12.941176%, 12.941176%)" fill-opacity="1" d="M 12.648438 21 C 12.648438 21.550781 12.203125 22 11.648438 22 C 11.097656 22 10.648438 21.550781 10.648438 21 L 10.648438 11.667969 C 10.648438 11.230469 10.929688 10.847656 11.347656 10.714844 C 11.761719 10.582031 12.214844 10.734375 12.464844 11.089844 L 23.648438 26.890625 C 27.078125 24.472656 29.332031 20.488281 29.332031 16 C 29.332031 8.667969 23.332031 2.667969 16 2.667969 C 8.667969 2.667969 2.667969 8.667969 2.667969 16 C 2.667969 23.332031 8.667969 29.332031 16 29.332031 C 18.128906 29.332031 20.136719 28.816406 21.925781 27.917969 L 12.648438 14.8125 Z M 19.316406 11 C 19.316406 10.449219 19.761719 10 20.316406 10 C 20.867188 10 21.316406 10.449219 21.316406 11 L 21.316406 20.226562 L 19.316406 17.410156 Z M 19.316406 11 "/>
</svg>
