<?xml version="1.0" encoding="UTF-8"?>
<svg xmlns="http://www.w3.org/2000/svg" xmlns:xlink="http://www.w3.org/1999/xlink" width="32" height="32" viewBox="0 0 32 32">
<path  d="M 13.441406 1.921875 C 7.441406 1.921875 2.558594 6.800781 2.558594 12.800781 C 2.558594 18.800781 7.441406 23.679688 13.441406 23.679688 C 15.816406 23.679688 18.007812 22.90625 19.796875 21.609375 L 28.214844 30.023438 L 30.023438 28.214844 L 21.6875 19.875 C 23.324219 17.972656 24.320312 15.503906 24.320312 12.800781 C 24.320312 6.800781 19.4375 1.921875 13.441406 1.921875 Z M 9.601562 8.960938 C 10.308594 8.960938 10.878906 9.53125 10.878906 10.238281 C 10.878906 10.945312 10.308594 11.519531 9.601562 11.519531 C 8.894531 11.519531 8.320312 10.945312 8.320312 10.238281 C 8.320312 9.53125 8.894531 8.960938 9.601562 8.960938 Z M 17.28125 8.960938 C 17.988281 8.960938 18.558594 9.53125 18.558594 10.238281 C 18.558594 10.945312 17.988281 11.519531 17.28125 11.519531 C 16.574219 11.519531 16 10.945312 16 10.238281 C 16 9.53125 16.574219 8.960938 17.28125 8.960938 Z M 13.441406 14.71875 C 15.726562 14.71875 17.058594 16.148438 17.113281 16.207031 C 17.351562 16.46875 17.332031 16.875 17.070312 17.113281 C 16.949219 17.226562 16.792969 17.28125 16.640625 17.28125 C 16.464844 17.28125 16.292969 17.210938 16.167969 17.070312 C 16.128906 17.03125 15.144531 16 13.441406 16 C 11.710938 16 10.722656 17.058594 10.710938 17.070312 C 10.476562 17.332031 10.070312 17.351562 9.808594 17.113281 C 9.546875 16.875 9.527344 16.46875 9.765625 16.207031 C 9.824219 16.148438 11.152344 14.71875 13.441406 14.71875 Z M 13.441406 14.71875 "/>
</svg>
