<svg role="img" viewBox="0 0 145.455 32" xmlns="http://www.w3.org/2000/svg"><path d="M56.313 16.102q0 2.737-.997 4.8-1.002 2.064-2.87 3.172-1.87 1.113-4.31 1.113-2.359.001-4.19-1.082-1.84-1.076-2.84-3.074-1.004-1.986-1.004-4.511.001-2.714 1.015-4.782t2.918-3.175c1.266-.735 2.735-1.106 4.399-1.106q2.282 0 4.097 1.09c1.203.723 2.137 1.746 2.793 3.058.66 1.317.989 2.813.989 4.497m-2.106.261q0-3.346-1.562-5.222c-1.047-1.25-2.5-1.88-4.368-1.88-1.172 0-2.222.302-3.148.891q-1.394.891-2.16 2.532-.764 1.64-.766 3.656 0 2.056.738 3.668.733 1.605 2.098 2.484 1.364.88 3.098.88c1.894 0 3.383-.622 4.457-1.864q1.615-1.869 1.613-5.145m10.727-7.879a2.6 2.6 0 0 0-1.305-.32q-2.058-.001-2.059 2.594v1.89h2.871v1.66h-2.87v10.583h-1.962V14.309h-2.078v-1.66h2.078v-1.985q0-1.868 1.102-3.016T63.508 6.5q.894 0 1.426.219v1.77Zm6.754 0a2.6 2.6 0 0 0-1.301-.32q-2.058-.001-2.059 2.594v1.89H71.2v1.66h-2.87v10.583h-1.962V14.309H64.29v-1.66h2.078v-1.985q0-1.868 1.102-3.016Q68.57 6.5 70.267 6.5q.895 0 1.421.219Zm3.617-.226q-.002.55-.383.914a1.24 1.24 0 0 1-.906.363c-.36 0-.664-.113-.91-.351q-.371-.352-.372-.926 0-.516.364-.89.368-.375.914-.376.551-.002.922.371.37.368.37.895m-.335 16.629h-1.961V12.645h1.96Zm11.191-.559q-1.425.86-3.36.86-1.672-.001-3.007-.77a5.37 5.37 0 0 1-2.074-2.184q-.739-1.41-.739-3.168 0-3.034 1.739-4.878 1.739-1.84 4.633-1.84 1.6 0 2.832.62v2.009q-1.371-.956-2.918-.957-1.9 0-3.09 1.359-1.189 1.352-1.188 3.508c0 1.43.375 2.554 1.13 3.383.753.828 1.76 1.242 3.03 1.242q1.6.002 3.012-1.051Zm12.047-5.07h-8.644q.05 2.068 1.097 3.164 1.042 1.09 2.895 1.09 2.08 0 3.793-1.336v1.828q-1.605 1.183-4.258 1.183c-1.746 0-3.106-.562-4.09-1.69q-1.47-1.694-1.469-4.68 0-1.817.735-3.317c.492-1.004 1.168-1.777 2.027-2.328a5.25 5.25 0 0 1 2.867-.824q2.379 0 3.715 1.547 1.331 1.546 1.332 4.335Zm-2.008-1.66q-.023-1.699-.82-2.641c-.527-.625-1.277-.937-2.238-.937q-1.366.001-2.332.98c-.649.652-1.055 1.52-1.22 2.594Zm16.926 2.437q-.001 2.321-1.66 3.735-1.664 1.418-4.363 1.418-2.453-.001-3.899-.934v-2.102q1.733 1.36 3.969 1.36 1.804 0 2.875-.89c.715-.59 1.07-1.395 1.07-2.407q0-3.361-4.781-3.36h-1.422v-1.664h1.348q4.235.001 4.234-3.156-.001-2.918-3.23-2.918-1.814-.001-3.407 1.223V8.438q1.639-.98 3.899-.981 2.126-.001 3.437 1.129 1.308 1.132 1.309 2.96 0 3.384-3.418 4.352v.047c1.207.137 2.187.575 2.93 1.317q1.108 1.111 1.109 2.773m12.898-.586c0 1.086-.23 2.067-.699 2.953-.465.883-1.105 1.57-1.93 2.055q-1.231.731-2.761.73-2.572.001-4.035-2.066-1.465-2.069-1.465-5.777 0-2.942.867-5.192.868-2.255 2.457-3.472 1.588-1.224 3.668-1.223c1.184 0 2.129.164 2.848.492v1.852a6.06 6.06 0 0 0-2.797-.68q-2.272 0-3.64 2.04c-.915 1.359-1.372 3.167-1.372 5.433h.05q1.183-2.43 3.907-2.43 2.225 0 3.567 1.453 1.335 1.453 1.335 3.832m-2.007.25q0-1.793-.88-2.832-.876-1.04-2.456-1.039-1.43 0-2.414 1.008-.98 1.009-.98 2.445-.002 1.805.976 3.02.973 1.211 2.457 1.21 1.469.001 2.383-1.054.914-1.06.914-2.758m13.546-.047c0 1.668-.55 3.004-1.656 4.02-1.101 1.008-2.578 1.515-4.418 1.515q-2.39.001-3.55-.718V22.39q1.746 1.125 3.574 1.125 1.815 0 2.93-1.02 1.113-1.016 1.113-2.723 0-1.675-1.125-2.625-1.124-.949-3.262-.949-1.711.001-2.906.137l.586-8.59h7.925v1.766h-6.23l-.344 5.035 1.578-.063q2.679.002 4.23 1.356c1.036.898 1.555 2.172 1.555 3.812M31.45 28.215V4.457L22.937 2 7.634 7.746l-.04.008.005 17.18 5.222-2.047V8.91l10.118-2.418-.004 20.551-15.329-2.11 15.329 5.66v.005l8.515-2.356Zm0 0" fill="rgb(92.156863%, 23.529412%, 0%)"/></svg>