<svg role="img" viewBox="0 0 32 32" height="32" width="32" xmlns="http://www.w3.org/2000/svg"><path d="M-3.2-3.2h38.4v38.4H-3.2z" fill="rgb(100%, 100%, 100%)"/><path d="M32 32H0V0h32ZM3.105 28.8H28.93V3.2H3.105m16.864 7.679h4.511v3.008h-4.51Zm0 4.64h4.511v3.008h-4.51Zm0 4.579h4.511v3.007h-4.51Zm-6.114 0h4.512v3.007h-4.512Zm-6.113 0h4.516v3.007H7.742Zm7.875-11.203h.64c.84.054 1.665.261 2.43.609 1.41-.64 3.395-.16 4.672.32-1.597-.16-3.488 0-4.574.64-1.12-.898-3.2-1.152-5.152-.898.543-.382 1.215-.605 1.984-.671m-.418 2.402c-1.152.062-2.078.445-2.687.96-1.887-.866-5.153-.48-6.367.673-.098.062-.227.156-.192.254 1.086-.32 2.367-.61 3.711-.48 1.344.097 2.336.542 3.07 1.151 1.38-1.214 3.395-1.918 5.954-1.886a7.709 7.709 0 0 0-3.489-.672m-1.312 4.254h4.511v3.008h-4.511Zm-6.11 0h4.512v3.008H7.777Zm0 0"/></svg>