<?xml version="1.0" encoding="UTF-8"?>
<svg xmlns="http://www.w3.org/2000/svg" xmlns:xlink="http://www.w3.org/1999/xlink" width="31.982222" height="32" viewBox="0 0 31.982222 32">
<path fill-rule="evenodd" fill="rgb(0%, 0%, 0%)" fill-opacity="1" d="M 17.589844 0.222656 L 16.933594 8.328125 C 16.621094 8.292969 16.3125 8.277344 15.992188 8.277344 C 15.589844 8.277344 15.199219 8.300781 14.816406 8.363281 L 14.445312 4.4375 C 14.4375 4.3125 14.535156 4.203125 14.65625 4.203125 L 15.324219 4.203125 L 15.003906 0.230469 C 14.996094 0.105469 15.09375 0 15.207031 0 L 17.386719 0 C 17.511719 0 17.609375 0.105469 17.589844 0.230469 Z M 12.097656 0.621094 C 12.0625 0.507812 11.9375 0.4375 11.820312 0.480469 L 9.777344 1.226562 C 9.664062 1.269531 9.609375 1.40625 9.664062 1.511719 L 11.324219 5.136719 L 10.691406 5.367188 C 10.578125 5.414062 10.523438 5.546875 10.578125 5.652344 L 12.277344 9.21875 C 12.890625 8.878906 13.554688 8.621094 14.257812 8.460938 L 12.105469 0.621094 Z M 7.085938 2.878906 L 11.785156 9.511719 C 11.191406 9.902344 10.648438 10.363281 10.1875 10.898438 L 7.367188 8.125 C 7.28125 8.035156 7.289062 7.894531 7.378906 7.8125 L 7.894531 7.386719 L 5.09375 4.550781 C 5.003906 4.460938 5.011719 4.320312 5.109375 4.238281 L 6.773438 2.84375 C 6.871094 2.765625 7.003906 2.78125 7.074219 2.878906 Z M 3.136719 6.71875 C 3.039062 6.648438 2.898438 6.683594 2.835938 6.792969 L 1.75 8.675781 C 1.6875 8.78125 1.734375 8.914062 1.839844 8.96875 L 5.449219 10.675781 L 5.109375 11.253906 C 5.082031 11.304688 5.074219 11.367188 5.09375 11.421875 C 5.113281 11.480469 5.152344 11.523438 5.207031 11.546875 L 8.800781 13.191406 C 9.058594 12.523438 9.40625 11.902344 9.832031 11.34375 Z M 0.480469 11.839844 C 0.496094 11.714844 0.621094 11.644531 0.738281 11.671875 L 8.605469 13.722656 C 8.398438 14.390625 8.285156 15.09375 8.265625 15.820312 L 4.328125 15.503906 C 4.269531 15.5 4.214844 15.46875 4.179688 15.421875 C 4.140625 15.371094 4.128906 15.3125 4.140625 15.253906 L 4.257812 14.59375 L 0.285156 14.222656 C 0.160156 14.214844 0.078125 14.097656 0.0976562 13.972656 L 0.472656 11.832031 Z M 0.1875 17.15625 C 0.0625 17.164062 -0.0195312 17.28125 0 17.40625 L 0.382812 19.546875 C 0.398438 19.671875 0.523438 19.742188 0.640625 19.714844 L 4.496094 18.710938 L 4.613281 19.367188 C 4.632812 19.492188 4.753906 19.5625 4.871094 19.539062 L 8.675781 18.488281 C 8.453125 17.832031 8.3125 17.128906 8.277344 16.410156 L 0.179688 17.15625 Z M 1.449219 22.792969 C 1.417969 22.742188 1.414062 22.679688 1.429688 22.625 C 1.445312 22.570312 1.484375 22.523438 1.539062 22.496094 L 8.878906 19.011719 C 9.15625 19.671875 9.527344 20.285156 9.972656 20.835938 L 6.753906 23.128906 C 6.65625 23.199219 6.515625 23.171875 6.453125 23.066406 L 6.117188 22.480469 L 2.835938 24.746094 C 2.738281 24.816406 2.59375 24.78125 2.535156 24.675781 L 1.441406 22.792969 Z M 10.347656 21.261719 L 4.632812 27.050781 C 4.542969 27.136719 4.550781 27.28125 4.648438 27.359375 L 6.320312 28.753906 C 6.417969 28.835938 6.550781 28.816406 6.621094 28.71875 L 8.933594 25.464844 L 9.449219 25.902344 C 9.546875 25.980469 9.6875 25.964844 9.761719 25.859375 L 12 22.605469 C 11.394531 22.230469 10.835938 21.777344 10.355469 21.261719 Z M 9.21875 30.550781 C 9.164062 30.53125 9.121094 30.488281 9.097656 30.433594 C 9.074219 30.378906 9.078125 30.320312 9.101562 30.265625 L 12.488281 22.871094 C 13.109375 23.191406 13.785156 23.429688 14.488281 23.5625 L 13.492188 27.386719 C 13.464844 27.503906 13.332031 27.574219 13.21875 27.527344 L 12.585938 27.296875 L 11.527344 31.148438 C 11.492188 31.261719 11.367188 31.332031 11.253906 31.289062 L 9.207031 30.542969 Z M 15.050781 23.664062 L 14.390625 31.769531 C 14.382812 31.894531 14.480469 32 14.59375 32 L 16.773438 32 C 16.898438 32 16.996094 31.894531 16.976562 31.769531 L 16.65625 27.796875 L 17.324219 27.796875 C 17.449219 27.796875 17.546875 27.6875 17.539062 27.5625 L 17.164062 23.636719 C 16.78125 23.699219 16.390625 23.722656 15.992188 23.722656 C 15.671875 23.722656 15.359375 23.707031 15.050781 23.664062 M 22.890625 1.714844 C 22.941406 1.601562 22.890625 1.476562 22.773438 1.429688 L 20.730469 0.683594 C 20.613281 0.640625 20.488281 0.710938 20.453125 0.828125 L 19.394531 4.675781 L 18.765625 4.445312 C 18.648438 4.398438 18.523438 4.472656 18.488281 4.585938 L 17.492188 8.410156 C 18.203125 8.550781 18.871094 8.792969 19.492188 9.101562 Z M 27.351562 4.941406 L 21.636719 10.730469 C 21.152344 10.207031 20.597656 9.757812 19.992188 9.386719 L 22.230469 6.132812 C 22.300781 6.035156 22.445312 6.007812 22.542969 6.089844 L 23.058594 6.523438 L 25.367188 3.269531 C 25.441406 3.171875 25.582031 3.15625 25.671875 3.234375 L 27.34375 4.632812 C 27.441406 4.710938 27.441406 4.851562 27.359375 4.941406 Z M 30.445312 9.492188 C 30.558594 9.441406 30.59375 9.308594 30.535156 9.199219 L 29.441406 7.316406 C 29.410156 7.265625 29.359375 7.230469 29.304688 7.21875 C 29.246094 7.203125 29.1875 7.214844 29.136719 7.246094 L 25.859375 9.511719 L 25.519531 8.933594 C 25.457031 8.828125 25.316406 8.792969 25.21875 8.871094 L 22 11.164062 C 22.445312 11.714844 22.808594 12.328125 23.09375 12.988281 L 30.4375 9.503906 Z M 31.601562 12.445312 L 31.972656 14.585938 C 31.992188 14.710938 31.910156 14.816406 31.785156 14.835938 L 23.6875 15.589844 C 23.652344 14.863281 23.511719 14.167969 23.289062 13.511719 L 27.09375 12.460938 C 27.207031 12.425781 27.332031 12.507812 27.351562 12.632812 L 27.464844 13.289062 L 31.324219 12.285156 C 31.441406 12.257812 31.5625 12.328125 31.582031 12.453125 Z M 31.234375 20.3125 C 31.351562 20.335938 31.476562 20.265625 31.492188 20.140625 L 31.867188 18 C 31.875 17.941406 31.863281 17.882812 31.828125 17.835938 C 31.792969 17.789062 31.738281 17.757812 31.679688 17.75 L 27.707031 17.378906 L 27.820312 16.71875 C 27.832031 16.660156 27.816406 16.601562 27.78125 16.554688 C 27.746094 16.507812 27.695312 16.476562 27.636719 16.472656 L 23.699219 16.152344 C 23.679688 16.878906 23.5625 17.582031 23.359375 18.25 L 31.226562 20.300781 Z M 29.136719 25.199219 C 29.074219 25.308594 28.933594 25.332031 28.835938 25.269531 L 22.140625 20.648438 C 22.570312 20.089844 22.914062 19.464844 23.171875 18.800781 L 26.765625 20.445312 C 26.878906 20.496094 26.925781 20.632812 26.863281 20.738281 L 26.523438 21.316406 L 30.132812 23.023438 C 30.238281 23.074219 30.285156 23.207031 30.222656 23.316406 Z M 20.1875 22.472656 L 24.890625 29.101562 C 24.960938 29.199219 25.101562 29.21875 25.191406 29.136719 L 26.851562 27.742188 C 26.949219 27.664062 26.949219 27.519531 26.871094 27.429688 L 24.070312 24.59375 L 24.585938 24.167969 C 24.683594 24.089844 24.683594 23.945312 24.59375 23.859375 L 21.777344 21.085938 C 21.308594 21.617188 20.773438 22.089844 20.179688 22.472656 Z M 20.140625 31.503906 C 20.027344 31.546875 19.902344 31.476562 19.867188 31.359375 L 17.714844 23.519531 C 18.417969 23.359375 19.085938 23.101562 19.699219 22.765625 L 21.394531 26.328125 C 21.449219 26.445312 21.394531 26.578125 21.28125 26.613281 L 20.648438 26.84375 L 22.3125 30.472656 C 22.363281 30.585938 22.3125 30.710938 22.195312 30.753906 L 20.152344 31.503906 Z M 20.140625 31.503906 "/>
</svg>
