<?xml version="1.0" encoding="UTF-8"?>
<svg xmlns="http://www.w3.org/2000/svg" xmlns:xlink="http://www.w3.org/1999/xlink" width="24.206089" height="32" viewBox="0 0 24.206089 32">
<path fill-rule="nonzero" fill="rgb(0%, 0%, 0%)" fill-opacity="1" d="M 5.269531 0.0078125 C 4.972656 0.0585938 4.613281 0.214844 4.359375 0.40625 C 3.59375 0.988281 3.003906 2.222656 2.753906 3.757812 C 2.65625 4.339844 2.59375 5.144531 2.59375 5.761719 C 2.59375 6.488281 2.679688 7.414062 2.800781 8.054688 C 2.828125 8.199219 2.839844 8.324219 2.832031 8.332031 C 2.820312 8.34375 2.707031 8.433594 2.582031 8.535156 C 2.148438 8.878906 1.65625 9.410156 1.316406 9.894531 C 0.664062 10.820312 0.242188 11.871094 0.0664062 13.011719 C -0.00390625 13.460938 -0.0234375 14.371094 0.03125 14.824219 C 0.152344 15.859375 0.464844 16.738281 1 17.542969 L 1.175781 17.800781 L 1.125 17.886719 C 0.765625 18.488281 0.460938 19.359375 0.320312 20.195312 C 0.207031 20.855469 0.191406 21.035156 0.191406 21.921875 C 0.191406 22.8125 0.203125 22.992188 0.308594 23.609375 C 0.4375 24.347656 0.695312 25.132812 0.980469 25.652344 C 1.074219 25.824219 1.304688 26.175781 1.332031 26.195312 C 1.339844 26.199219 1.3125 26.285156 1.269531 26.382812 C 0.941406 27.105469 0.65625 28.070312 0.539062 28.878906 C 0.457031 29.4375 0.445312 29.613281 0.445312 30.199219 C 0.445312 30.945312 0.488281 31.308594 0.644531 31.90625 L 0.667969 31.992188 L 2.636719 31.992188 L 2.570312 31.871094 C 2.171875 31.136719 2.136719 29.769531 2.480469 28.410156 C 2.636719 27.78125 2.8125 27.316406 3.140625 26.683594 L 3.339844 26.296875 L 3.339844 26.058594 C 3.339844 25.839844 3.335938 25.8125 3.265625 25.667969 C 3.210938 25.558594 3.136719 25.464844 3.003906 25.335938 C 2.78125 25.121094 2.621094 24.890625 2.492188 24.613281 C 1.925781 23.386719 1.816406 21.5625 2.214844 20.011719 C 2.378906 19.363281 2.652344 18.785156 2.941406 18.472656 C 3.136719 18.257812 3.238281 18.015625 3.238281 17.765625 C 3.238281 17.503906 3.144531 17.292969 2.9375 17.070312 C 2.34375 16.433594 1.980469 15.664062 1.847656 14.765625 C 1.664062 13.484375 2 12.089844 2.769531 10.988281 C 3.519531 9.902344 4.574219 9.207031 5.75 9.019531 C 6.015625 8.976562 6.511719 8.984375 6.785156 9.035156 C 7.085938 9.085938 7.273438 9.070312 7.46875 8.980469 C 7.707031 8.867188 7.824219 8.726562 7.964844 8.40625 C 8.089844 8.117188 8.1875 7.960938 8.445312 7.636719 C 8.757812 7.25 9.058594 6.984375 9.542969 6.664062 C 10.09375 6.304688 10.71875 6.042969 11.34375 5.917969 C 11.574219 5.871094 11.679688 5.863281 12.101562 5.863281 C 12.527344 5.863281 12.632812 5.871094 12.859375 5.917969 C 13.777344 6.101562 14.6875 6.574219 15.414062 7.246094 C 15.570312 7.390625 15.945312 7.855469 16.0625 8.046875 C 16.109375 8.125 16.1875 8.285156 16.238281 8.40625 C 16.378906 8.726562 16.5 8.867188 16.738281 8.980469 C 16.925781 9.066406 17.121094 9.085938 17.410156 9.039062 C 17.867188 8.960938 18.21875 8.96875 18.664062 9.058594 C 20.191406 9.367188 21.519531 10.625 22.105469 12.308594 C 22.617188 13.785156 22.472656 15.328125 21.710938 16.511719 C 21.582031 16.710938 21.453125 16.871094 21.269531 17.070312 C 20.867188 17.5 20.867188 18.03125 21.265625 18.472656 C 21.921875 19.191406 22.332031 20.960938 22.210938 22.519531 C 22.128906 23.546875 21.863281 24.46875 21.5 24.992188 C 21.4375 25.082031 21.300781 25.238281 21.203125 25.335938 C 21.070312 25.464844 20.996094 25.558594 20.941406 25.667969 C 20.871094 25.8125 20.867188 25.839844 20.867188 26.058594 L 20.867188 26.296875 L 21.0625 26.683594 C 21.394531 27.316406 21.570312 27.78125 21.726562 28.410156 C 22.066406 29.753906 22.035156 31.089844 21.648438 31.851562 C 21.617188 31.914062 21.589844 31.972656 21.589844 31.980469 C 21.589844 31.988281 22.027344 31.992188 22.566406 31.992188 L 23.539062 31.992188 L 23.566406 31.894531 C 23.578125 31.839844 23.601562 31.761719 23.613281 31.714844 C 23.636719 31.613281 23.6875 31.316406 23.730469 31.027344 C 23.769531 30.738281 23.769531 29.671875 23.730469 29.351562 C 23.582031 28.183594 23.335938 27.257812 22.9375 26.382812 C 22.890625 26.285156 22.863281 26.199219 22.875 26.195312 C 22.886719 26.1875 22.949219 26.097656 23.019531 25.992188 C 23.519531 25.234375 23.828125 24.28125 23.984375 23.023438 C 24.023438 22.675781 24.023438 21.183594 23.984375 20.851562 C 23.871094 19.992188 23.738281 19.410156 23.519531 18.820312 C 23.425781 18.574219 23.183594 18.054688 23.082031 17.886719 L 23.03125 17.800781 L 23.203125 17.542969 C 23.738281 16.738281 24.050781 15.859375 24.171875 14.824219 C 24.230469 14.371094 24.210938 13.460938 24.140625 13.011719 C 23.960938 11.871094 23.542969 10.824219 22.890625 9.894531 C 22.550781 9.410156 22.054688 8.878906 21.625 8.535156 C 21.496094 8.433594 21.386719 8.34375 21.375 8.332031 C 21.363281 8.324219 21.378906 8.199219 21.40625 8.054688 C 21.683594 6.605469 21.675781 4.796875 21.382812 3.386719 C 21.128906 2.15625 20.671875 1.175781 20.078125 0.609375 C 19.605469 0.160156 19.121094 -0.03125 18.542969 0.00390625 C 17.214844 0.0820312 16.144531 1.609375 15.722656 4.015625 C 15.652344 4.40625 15.59375 4.859375 15.59375 4.984375 C 15.59375 5.03125 15.585938 5.070312 15.574219 5.070312 C 15.5625 5.070312 15.472656 5.027344 15.375 4.96875 C 14.351562 4.363281 13.210938 4.039062 12.101562 4.039062 C 10.992188 4.039062 9.855469 4.363281 8.828125 4.96875 C 8.734375 5.027344 8.644531 5.070312 8.632812 5.070312 C 8.621094 5.070312 8.613281 5.03125 8.613281 4.984375 C 8.613281 4.855469 8.550781 4.386719 8.484375 4.015625 C 8.097656 1.855469 7.21875 0.425781 6.050781 0.0625 C 5.890625 0.015625 5.433594 -0.015625 5.269531 0.0078125 Z M 5.660156 1.878906 C 5.992188 2.140625 6.359375 2.890625 6.570312 3.726562 C 6.609375 3.878906 6.648438 4.054688 6.660156 4.117188 C 6.671875 4.179688 6.695312 4.320312 6.714844 4.429688 C 6.804688 4.914062 6.847656 5.441406 6.851562 6.082031 L 6.855469 6.714844 L 6.695312 6.949219 L 6.539062 7.183594 L 6.167969 7.183594 C 5.734375 7.183594 5.304688 7.238281 4.894531 7.351562 C 4.75 7.386719 4.605469 7.421875 4.578125 7.429688 C 4.535156 7.441406 4.527344 7.425781 4.503906 7.238281 C 4.367188 6.214844 4.375 5.082031 4.523438 4.140625 C 4.6875 3.089844 5.074219 2.140625 5.449219 1.859375 C 5.539062 1.792969 5.554688 1.796875 5.660156 1.878906 Z M 18.757812 1.863281 C 18.984375 2.03125 19.234375 2.476562 19.421875 3.046875 C 19.796875 4.183594 19.902344 5.75 19.703125 7.238281 C 19.679688 7.425781 19.671875 7.441406 19.628906 7.429688 C 19.601562 7.421875 19.457031 7.386719 19.3125 7.351562 C 18.898438 7.238281 18.46875 7.183594 18.039062 7.183594 L 17.667969 7.183594 L 17.511719 6.949219 L 17.351562 6.714844 L 17.355469 6.082031 C 17.359375 5.191406 17.441406 4.496094 17.640625 3.722656 C 17.847656 2.890625 18.21875 2.140625 18.546875 1.878906 C 18.648438 1.796875 18.664062 1.792969 18.757812 1.863281 Z M 18.757812 1.863281 "/>
<path fill-rule="nonzero" fill="rgb(0%, 0%, 0%)" fill-opacity="1" d="M 11.746094 13.421875 C 11.25 13.472656 11.113281 13.488281 10.875 13.539062 C 10.484375 13.617188 9.96875 13.796875 9.605469 13.976562 C 8.351562 14.589844 7.488281 15.609375 7.222656 16.792969 C 7.171875 17.027344 7.164062 17.105469 7.164062 17.5 C 7.164062 17.890625 7.171875 17.976562 7.222656 18.199219 C 7.574219 19.746094 8.996094 20.886719 10.839844 21.09375 C 11.238281 21.140625 12.964844 21.140625 13.367188 21.09375 C 14.84375 20.925781 16.117188 20.125 16.691406 19 C 16.839844 18.699219 16.914062 18.503906 16.984375 18.199219 C 17.035156 17.976562 17.042969 17.890625 17.042969 17.5 C 17.042969 17.105469 17.035156 17.027344 16.980469 16.792969 C 16.597656 15.074219 14.929688 13.722656 12.886719 13.464844 C 12.621094 13.433594 11.921875 13.40625 11.746094 13.421875 Z M 12.605469 14.671875 C 13.289062 14.746094 13.976562 14.988281 14.527344 15.359375 C 14.824219 15.554688 15.242188 15.96875 15.417969 16.238281 C 15.640625 16.574219 15.765625 16.917969 15.824219 17.332031 C 15.847656 17.523438 15.835938 17.667969 15.765625 17.976562 C 15.660156 18.433594 15.324219 18.914062 14.871094 19.25 C 14.660156 19.40625 14.222656 19.628906 13.953125 19.714844 C 13.441406 19.878906 13.109375 19.90625 11.917969 19.898438 C 11.144531 19.890625 11.003906 19.886719 10.78125 19.84375 C 10.023438 19.699219 9.421875 19.398438 8.984375 18.9375 C 8.628906 18.5625 8.46875 18.222656 8.382812 17.675781 C 8.34375 17.421875 8.417969 16.996094 8.566406 16.640625 C 8.746094 16.207031 9.214844 15.667969 9.679688 15.359375 C 10.21875 15 10.925781 14.746094 11.574219 14.675781 C 11.824219 14.648438 12.355469 14.648438 12.605469 14.671875 Z M 12.605469 14.671875 "/>
<path fill-rule="nonzero" fill="rgb(0%, 0%, 0%)" fill-opacity="1" d="M 11.226562 16.351562 C 11.050781 16.445312 10.929688 16.683594 10.964844 16.859375 C 11.007812 17.050781 11.175781 17.242188 11.4375 17.402344 C 11.578125 17.488281 11.585938 17.5 11.59375 17.582031 C 11.597656 17.632812 11.578125 17.777344 11.554688 17.90625 C 11.527344 18.035156 11.503906 18.167969 11.503906 18.203125 C 11.507812 18.300781 11.601562 18.464844 11.695312 18.542969 C 11.78125 18.609375 11.796875 18.613281 12.035156 18.621094 C 12.253906 18.625 12.300781 18.621094 12.386719 18.582031 C 12.613281 18.46875 12.671875 18.269531 12.585938 17.878906 C 12.519531 17.554688 12.53125 17.503906 12.703125 17.40625 C 12.886719 17.300781 13.078125 17.113281 13.136719 16.988281 C 13.246094 16.746094 13.144531 16.472656 12.902344 16.347656 C 12.84375 16.316406 12.769531 16.304688 12.660156 16.304688 C 12.492188 16.304688 12.386719 16.34375 12.1875 16.46875 L 12.074219 16.539062 L 12.003906 16.496094 C 11.710938 16.324219 11.660156 16.304688 11.484375 16.304688 C 11.355469 16.304688 11.289062 16.316406 11.226562 16.351562 Z M 11.226562 16.351562 "/>
<path fill-rule="nonzero" fill="rgb(0%, 0%, 0%)" fill-opacity="1" d="M 5.648438 13.683594 C 5.242188 13.8125 4.9375 14.109375 4.78125 14.535156 C 4.707031 14.738281 4.671875 15.054688 4.703125 15.230469 C 4.777344 15.640625 5.117188 16.015625 5.5 16.117188 C 5.980469 16.246094 6.34375 16.160156 6.660156 15.84375 C 6.847656 15.664062 6.949219 15.503906 7.050781 15.246094 C 7.125 15.066406 7.128906 15.035156 7.128906 14.777344 L 7.128906 14.5 L 7.035156 14.304688 C 6.878906 13.992188 6.601562 13.757812 6.28125 13.671875 C 6.097656 13.628906 5.808594 13.628906 5.648438 13.683594 Z M 5.648438 13.683594 "/>
<path fill-rule="nonzero" fill="rgb(0%, 0%, 0%)" fill-opacity="1" d="M 17.917969 13.675781 C 17.601562 13.761719 17.320312 13.996094 17.171875 14.304688 L 17.074219 14.5 L 17.078125 14.777344 C 17.078125 15.035156 17.082031 15.066406 17.15625 15.246094 C 17.257812 15.503906 17.359375 15.664062 17.542969 15.84375 C 17.863281 16.160156 18.222656 16.246094 18.707031 16.117188 C 18.984375 16.042969 19.261719 15.808594 19.394531 15.535156 C 19.511719 15.304688 19.539062 15.136719 19.5 14.871094 C 19.417969 14.269531 19.0625 13.828125 18.535156 13.675781 C 18.382812 13.628906 18.085938 13.628906 17.917969 13.675781 Z M 17.917969 13.675781 "/>
</svg>
