<?xml version="1.0" encoding="UTF-8"?>
<svg xmlns="http://www.w3.org/2000/svg" xmlns:xlink="http://www.w3.org/1999/xlink" width="32" height="32" viewBox="0 0 32 32">
<path fill-rule="nonzero" fill="rgb(0%, 0%, 0%)" fill-opacity="1" d="M 29.710938 13.09375 C 30.433594 10.914062 30.183594 8.527344 29.023438 6.546875 C 27.277344 3.507812 23.769531 1.945312 20.34375 2.679688 C 18.410156 0.53125 15.480469 -0.421875 12.65625 0.175781 C 9.832031 0.773438 7.539062 2.832031 6.640625 5.574219 C 4.390625 6.039062 2.449219 7.445312 1.3125 9.441406 C -0.453125 12.476562 -0.0546875 16.300781 2.300781 18.90625 C 1.574219 21.082031 1.824219 23.46875 2.980469 25.453125 C 4.730469 28.492188 8.242188 30.054688 11.667969 29.320312 C 13.191406 31.035156 15.382812 32.011719 17.679688 32 C 21.191406 32.003906 24.304688 29.734375 25.375 26.390625 C 27.625 25.929688 29.566406 24.519531 30.707031 22.527344 C 32.449219 19.496094 32.046875 15.691406 29.710938 13.09375 Z M 17.679688 29.90625 C 16.277344 29.90625 14.921875 29.417969 13.84375 28.519531 L 14.035156 28.410156 L 20.40625 24.734375 C 20.726562 24.542969 20.925781 24.199219 20.929688 23.824219 L 20.929688 14.84375 L 23.621094 16.398438 C 23.648438 16.414062 23.667969 16.441406 23.671875 16.46875 L 23.671875 23.914062 C 23.664062 27.21875 20.988281 29.898438 17.679688 29.90625 Z M 4.800781 24.40625 C 4.097656 23.191406 3.84375 21.769531 4.085938 20.386719 L 4.277344 20.5 L 10.652344 24.179688 C 10.972656 24.367188 11.371094 24.367188 11.695312 24.179688 L 19.484375 19.6875 L 19.484375 22.796875 C 19.484375 22.828125 19.464844 22.859375 19.441406 22.878906 L 12.988281 26.601562 C 10.117188 28.253906 6.457031 27.269531 4.800781 24.40625 Z M 3.121094 10.527344 C 3.828125 9.304688 4.945312 8.375 6.273438 7.898438 L 6.273438 15.464844 C 6.269531 15.839844 6.46875 16.183594 6.792969 16.367188 L 14.542969 20.839844 L 11.851562 22.398438 C 11.820312 22.414062 11.785156 22.414062 11.757812 22.398438 L 5.316406 18.683594 C 2.453125 17.023438 1.472656 13.363281 3.121094 10.496094 Z M 25.25 15.667969 L 17.472656 11.152344 L 20.160156 9.601562 C 20.1875 9.585938 20.222656 9.585938 20.253906 9.601562 L 26.695312 13.320312 C 28.703125 14.480469 29.863281 16.699219 29.671875 19.011719 C 29.476562 21.324219 27.964844 23.316406 25.792969 24.128906 L 25.792969 16.558594 C 25.78125 16.1875 25.574219 15.847656 25.25 15.667969 Z M 27.929688 11.636719 L 27.742188 11.523438 L 21.375 7.816406 C 21.054688 7.625 20.652344 7.625 20.328125 7.816406 L 12.546875 12.304688 L 12.546875 9.195312 C 12.542969 9.164062 12.554688 9.132812 12.582031 9.113281 L 19.023438 5.398438 C 21.039062 4.238281 23.542969 4.347656 25.449219 5.675781 C 27.359375 7.007812 28.324219 9.320312 27.929688 11.613281 Z M 11.074219 17.152344 L 8.382812 15.597656 C 8.355469 15.582031 8.335938 15.554688 8.332031 15.523438 L 8.332031 8.097656 C 8.335938 5.773438 9.679688 3.660156 11.785156 2.675781 C 13.890625 1.6875 16.378906 2.007812 18.164062 3.492188 L 17.976562 3.601562 L 11.605469 7.277344 C 11.28125 7.46875 11.082031 7.8125 11.082031 8.1875 Z M 12.539062 13.996094 L 16.007812 11.996094 L 19.484375 13.996094 L 19.484375 17.996094 L 16.019531 19.996094 L 12.546875 17.996094 Z M 12.539062 13.996094 "/>
</svg>
