<svg role="img" viewBox="0 0 34.133 32" height="32" width="34.133" xmlns="http://www.w3.org/2000/svg"><path d="M9.914 14.059 4.438 16.05c.07.879.226 1.746.433 2.597l5.207-1.894a10.222 10.222 0 0 1-.16-2.695m24.215-6.063a15.367 15.367 0 0 0-1.336-2.27l-5.48 1.997a10.177 10.177 0 0 1 1.609 2.168Zm-12.059-1.55c1.106.519 2.11 1.23 2.961 2.109l5.48-1.996a15.46 15.46 0 0 0-6.12-5.09c-7.832-3.653-17.18-.254-20.832 7.578a15.6 15.6 0 0 0-1.415 7.836l5.48-1.992c.09-1.188.38-2.383.911-3.52 2.375-5.09 8.445-7.3 13.54-4.926" fill="rgb(85.882353%, 12.941176%, 18.431373%)"/><path d="M5.207 18.52 0 20.422a15.863 15.863 0 0 0 2.45 5.305l5.468-1.989a10.247 10.247 0 0 1-2.711-5.215" fill="rgb(91.764706%, 13.333333%, 15.294118%)"/><path d="M27.918 16.46A10.114 10.114 0 0 1 27 19.98c-2.375 5.09-8.445 7.297-13.543 4.922a9.978 9.978 0 0 1-2.965-2.105l-5.469 1.992a15.538 15.538 0 0 0 6.114 5.094c7.836 3.652 17.18.25 20.832-7.582a15.498 15.498 0 0 0 1.41-7.832Zm0 0" fill="rgb(85.882353%, 12.941176%, 18.431373%)"/><path d="m29.266 9.77-5.207 1.894a10.164 10.164 0 0 1 1.273 5.734l5.469-1.988a15.768 15.768 0 0 0-1.535-5.64" fill="rgb(91.764706%, 13.333333%, 15.294118%)"/></svg>