<?xml version="1.0" encoding="UTF-8"?>
<svg xmlns="http://www.w3.org/2000/svg" xmlns:xlink="http://www.w3.org/1999/xlink" width="32" height="32" viewBox="0 0 32 32">
<path fill-rule="nonzero" fill="rgb(96.078432%, 65.882355%, 0%)" fill-opacity="1" d="M 16.914062 17.449219 C 15.601562 18.761719 15.601562 20.886719 16.914062 22.199219 C 18.226562 23.511719 20.351562 23.511719 21.664062 22.199219 C 22.976562 20.886719 22.976562 18.761719 21.664062 17.449219 C 21.035156 16.820312 20.179688 16.464844 19.289062 16.464844 C 18.398438 16.464844 17.542969 16.820312 16.914062 17.449219 M 20.464844 21.003906 C 19.816406 21.652344 18.761719 21.652344 18.113281 21.003906 C 17.800781 20.691406 17.625 20.269531 17.625 19.828125 C 17.625 19.386719 17.800781 18.964844 18.113281 18.652344 C 18.761719 18.003906 19.816406 18.003906 20.464844 18.652344 C 21.113281 19.300781 21.113281 20.355469 20.464844 21.003906 M 21.605469 0.917969 L 19.546875 2.976562 C 19.144531 3.382812 19.144531 4.039062 19.546875 4.445312 L 27.585938 12.484375 C 27.992188 12.886719 28.648438 12.886719 29.054688 12.484375 L 31.113281 10.425781 C 31.515625 10.019531 31.515625 9.363281 31.113281 8.957031 L 23.070312 0.917969 C 22.664062 0.515625 22.011719 0.515625 21.605469 0.917969 M 7.183594 27.222656 C 7.359375 27.046875 7.460938 26.808594 7.460938 26.558594 C 7.460938 26.308594 7.359375 26.070312 7.183594 25.894531 L 6.136719 24.851562 C 5.960938 24.675781 5.722656 24.578125 5.476562 24.578125 C 5.226562 24.578125 4.988281 24.675781 4.8125 24.851562 L 2.648438 27.011719 L 2.644531 27.015625 L 2.050781 26.421875 C 1.71875 26.125 1.210938 26.140625 0.898438 26.457031 C 0.582031 26.773438 0.570312 27.277344 0.867188 27.609375 L 4.425781 31.167969 C 4.636719 31.390625 4.949219 31.480469 5.246094 31.402344 C 5.542969 31.328125 5.773438 31.09375 5.847656 30.800781 C 5.925781 30.503906 5.835938 30.191406 5.613281 29.980469 L 5.019531 29.386719 L 5.023438 29.386719 Z M 7.183594 27.222656 "/>
<path fill-rule="nonzero" fill="rgb(25.882354%, 36.078432%, 78.039217%)" fill-opacity="1" d="M 18.074219 6.828125 L 13.5 11.402344 C 13.09375 11.8125 13.09375 12.472656 13.5 12.882812 L 16.324219 15.707031 C 18.355469 14.25 21.148438 14.476562 22.917969 16.242188 L 25.203125 13.957031 C 25.609375 13.546875 25.609375 12.886719 25.203125 12.476562 L 19.554688 6.828125 C 19.359375 6.632812 19.09375 6.519531 18.816406 6.519531 C 18.539062 6.519531 18.269531 6.632812 18.074219 6.828125 M 15.136719 16.898438 L 13.46875 15.226562 C 13.074219 14.839844 12.441406 14.839844 12.046875 15.226562 L 6.167969 21.113281 C 5.777344 21.507812 5.777344 22.140625 6.167969 22.535156 L 9.5 25.867188 C 9.890625 26.257812 10.53125 26.257812 10.921875 25.867188 L 14.703125 22.078125 C 13.894531 20.402344 14.058594 18.417969 15.136719 16.898438 "/>
</svg>
