<svg role="img" viewBox="0 0 34.133 32" xmlns="http://www.w3.org/2000/svg"><path d="M9.914 14.059 4.438 16.05c.07.879.226 1.746.433 2.597l5.207-1.894a10.2 10.2 0 0 1-.16-2.695m24.215-6.063a15.4 15.4 0 0 0-1.336-2.27l-5.48 1.997a10.2 10.2 0 0 1 1.609 2.168Zm-12.059-1.55a10.1 10.1 0 0 1 2.961 2.109l5.48-1.996a15.5 15.5 0 0 0-6.12-5.09c-7.832-3.653-17.18-.254-20.832 7.578a15.6 15.6 0 0 0-1.415 7.836l5.48-1.992c.09-1.188.38-2.383.911-3.52 2.375-5.09 8.445-7.3 13.54-4.926" fill="rgb(85.882354%, 12.941177%, 18.431373%)"/><path d="M5.207 18.52 0 20.422a15.9 15.9 0 0 0 2.45 5.305l5.468-1.989a10.25 10.25 0 0 1-2.711-5.215" fill="rgb(91.764706%, 13.333334%, 15.294118%)"/><path d="M27.918 16.46A10.1 10.1 0 0 1 27 19.98c-2.375 5.09-8.445 7.297-13.543 4.922a10 10 0 0 1-2.965-2.105l-5.469 1.992a15.54 15.54 0 0 0 6.114 5.094c7.836 3.652 17.18.25 20.832-7.582a15.5 15.5 0 0 0 1.41-7.832Zm0 0" fill="rgb(85.882354%, 12.941177%, 18.431373%)"/><path d="m29.266 9.77-5.207 1.894a10.16 10.16 0 0 1 1.273 5.734l5.469-1.988a15.8 15.8 0 0 0-1.535-5.64" fill="rgb(91.764706%, 13.333334%, 15.294118%)"/></svg>