<?xml version="1.0" encoding="UTF-8"?>
<svg xmlns="http://www.w3.org/2000/svg" xmlns:xlink="http://www.w3.org/1999/xlink" width="32" height="32" viewBox="0 0 32 32">
<path fill-rule="nonzero" fill="rgb(100%, 56.862745%, 0%)" fill-opacity="1" d="M 16 2.667969 C 8.636719 2.667969 2.667969 8.636719 2.667969 16 C 2.667969 20.929688 5.347656 25.222656 9.324219 27.53125 L 12.328125 22.339844 C 10.140625 21.070312 8.667969 18.710938 8.667969 16 C 8.667969 11.949219 11.949219 8.667969 16 8.667969 C 20.050781 8.667969 23.332031 11.949219 23.332031 16 C 23.332031 18.710938 21.859375 21.070312 19.671875 22.339844 L 22.675781 27.53125 C 26.652344 25.222656 29.332031 20.929688 29.332031 16 C 29.332031 8.636719 23.363281 2.667969 16 2.667969 Z M 16 2.667969 "/>
<path fill-rule="nonzero" fill="rgb(10.196078%, 13.72549%, 49.411765%)" fill-opacity="1" d="M 20 16 C 20 13.789062 18.207031 12 16 12 C 13.792969 12 12 13.789062 12 16 C 12 17.703125 13.066406 19.15625 14.566406 19.730469 L 12.863281 28.945312 C 13.871094 29.191406 14.917969 29.332031 16 29.332031 C 17.082031 29.332031 18.128906 29.191406 19.136719 28.945312 L 17.429688 19.730469 C 18.933594 19.15625 20 17.703125 20 16 Z M 20 16 "/>
</svg>
