<svg role="img" viewBox="0 0 85.333 32" xmlns="http://www.w3.org/2000/svg"><path d="M25.441 11.973c-2.332-1.453-5.59-2.356-9.156-2.356-7.176 0-12.988 3.586-12.988 8.012 0 4.05 4.844 7.375 11.117 7.945v-2.332c-4.226-.527-7.394-2.84-7.394-5.613 0-3.149 4.136-5.723 9.265-5.723 2.555 0 4.867.637 6.54 1.672l-2.38 1.477h7.418v-4.578Zm0 0" fill="rgb(80.000001%, 80.000001%, 80.000001%)"/><path d="M14.414 5.656v19.918l3.723-2.332V3.254Zm16.074 10.715a6.1 6.1 0 0 1 1.117-2.144c.532-.618 1.149-1.118 1.91-1.47.766-.382 1.645-.558 2.645-.558 1.031 0 1.91.176 2.676.559a5.4 5.4 0 0 1 1.879 1.469c.5.617.883 1.324 1.117 2.144.266.793.383 1.649.383 2.527 0 .883-.117 1.735-.383 2.559a6.1 6.1 0 0 1-1.117 2.117 5.5 5.5 0 0 1-1.88 1.469c-.765.379-1.644.559-2.675.559-1 0-1.879-.18-2.644-.559a5.7 5.7 0 0 1-1.91-1.469 6.1 6.1 0 0 1-1.118-2.117 8.4 8.4 0 0 1-.379-2.559c0-.878.118-1.734.38-2.527m1.116 4.613c.172.66.473 1.282.883 1.825.383.527.883.941 1.5 1.293.617.324 1.32.468 2.172.468s1.59-.144 2.207-.468a4.9 4.9 0 0 0 1.496-1.293c.39-.551.68-1.172.852-1.825.18-.675.297-1.379.297-2.086 0-.703-.117-1.378-.297-2.054a5.5 5.5 0 0 0-.852-1.824c-.41-.528-.879-.97-1.496-1.293-.617-.32-1.355-.47-2.207-.47s-1.555.15-2.172.47a4.35 4.35 0 0 0-1.5 1.293 5.1 5.1 0 0 0-.883 1.824 8 8 0 0 0-.265 2.054c0 .707.09 1.41.265 2.086m12.43-4.933v1.762h.031a3.07 3.07 0 0 1 1.293-1.5c.586-.352 1.266-.528 2.028-.528.707 0 1.324.117 1.851.383.528.262.969.617 1.325 1.086.32.441.585.969.761 1.558.176.586.266 1.235.266 1.88a6.5 6.5 0 0 1-.266 1.882 5.1 5.1 0 0 1-.761 1.555c-.352.46-.805.836-1.325 1.09a4.5 4.5 0 0 1-1.851.383c-.352 0-.676-.059-1.028-.118a4.5 4.5 0 0 1-.91-.382 3.3 3.3 0 0 1-.797-.649 2.6 2.6 0 0 1-.496-.879h-.031v5.172H42.98V16.051Zm6.23 3.23a4.3 4.3 0 0 0-.527-1.293 3.7 3.7 0 0 0-.968-.91c-.383-.234-.825-.324-1.383-.324-.617 0-1.145.09-1.559.324a2.75 2.75 0 0 0-1.027.852c-.235.351-.41.793-.528 1.265-.09.47-.148.97-.148 1.496 0 .5.059.973.176 1.442s.293.91.558 1.262c.266.382.59.675 1 .914.41.234.942.351 1.528.351.558 0 1-.117 1.383-.351.378-.239.703-.532.968-.914.235-.352.41-.793.528-1.262a5.7 5.7 0 0 0 0-2.852m3.234 3c.117.438.293.82.559 1.172.234.356.558.649.941.856.379.234.852.351 1.379.351.824 0 1.469-.207 1.941-.648.47-.438.793-.996.97-1.73h1.144c-.235 1.054-.676 1.878-1.32 2.437q-.974.881-2.735.883a4.6 4.6 0 0 1-1.879-.383 3.45 3.45 0 0 1-1.324-1.09 4.4 4.4 0 0 1-.735-1.555c-.175-.59-.234-1.207-.234-1.883 0-.617.059-1.203.234-1.793a5 5 0 0 1 .735-1.585 3.85 3.85 0 0 1 1.324-1.118c.527-.261 1.145-.41 1.879-.41s1.383.149 1.91.442c.516.285.961.687 1.293 1.175q.486.751.707 1.672a7 7 0 0 1 .176 1.91h-7.14c0 .414.058.856.175 1.297m5.613-3.468a3.5 3.5 0 0 0-.59-1.06c-.261-.292-.558-.558-.91-.733a2.9 2.9 0 0 0-1.234-.266q-.706.001-1.234.266c-.352.18-.66.43-.91.734a3.1 3.1 0 0 0-.618 1.058 5.6 5.6 0 0 0-.293 1.235h5.992a4.2 4.2 0 0 0-.203-1.235m3.055-2.761v1.586h.031c.235-.559.617-1 1.176-1.352a3.4 3.4 0 0 1 1.82-.5c.649 0 1.176.086 1.618.235.44.175.792.41 1.058.734.262.293.442.676.559 1.117.117.442.144.942.144 1.5v5.965h-1.117v-5.79a4.5 4.5 0 0 0-.117-1.116 2.4 2.4 0 0 0-.38-.883c-.179-.262-.413-.442-.737-.586-.293-.148-.676-.207-1.114-.207-.472 0-.882.058-1.234.234-.34.145-.64.367-.883.649-.265.293-.441.617-.59 1.027-.144.383-.203.793-.234 1.266v5.406h-1.117V16.05Zm8.582-3.559v12.844h-1.203V12.492Zm5.379 0c1.969.031 3.437.59 4.437 1.649.97 1.054 1.47 2.644 1.47 4.757 0 2.149-.5 3.735-1.47 4.793-1 1.055-2.468 1.586-4.437 1.645H71.69V12.492Zm-.59 11.785c.91 0 1.707-.086 2.383-.293.644-.207 1.203-.5 1.644-.941.41-.441.735-1 .942-1.676.203-.676.293-1.496.293-2.469 0-.937-.09-1.761-.293-2.437-.207-.707-.531-1.266-.942-1.676-.441-.441-1-.762-1.644-.941-.676-.203-1.473-.32-2.383-.32h-2.613v10.753Zm0 0" fill="rgb(100%, 38.431373%, 0%)"/></svg>