<?xml version="1.0" encoding="UTF-8"?>
<svg xmlns="http://www.w3.org/2000/svg" xmlns:xlink="http://www.w3.org/1999/xlink" width="32" height="32" viewBox="0 0 32 32">
<path fill-rule="nonzero" fill="rgb(61.960784%, 61.960784%, 61.960784%)" fill-opacity="1" d="M 29.332031 18 L 28.667969 12 L 26.734375 13.265625 C 24.933594 12.132812 22.667969 11.332031 20.132812 10.933594 C 20.132812 10.933594 18.867188 10.667969 17.199219 10.667969 C 15.535156 10.667969 14 10.867188 14 10.867188 C 7.535156 11.667969 2.667969 15.332031 2.667969 19.734375 C 2.667969 24.265625 7.667969 28 15.332031 28.667969 L 15.332031 26.066406 C 10.066406 25.332031 6.734375 22.867188 6.734375 19.734375 C 6.734375 16.800781 9.800781 14.332031 14 13.535156 C 14 13.535156 17.265625 12.800781 20.132812 13.667969 C 21.535156 14 22.800781 14.464844 23.867188 15.132812 L 21.332031 16.667969 Z M 29.332031 18 "/>
<path fill-rule="nonzero" fill="rgb(0%, 0%, 0%)" fill-opacity="1" d="M 15.332031 5.332031 L 15.332031 28.667969 L 19.332031 26.667969 L 19.332031 3.332031 Z M 15.332031 5.332031 "/>
<path fill-rule="nonzero" fill="rgb(100%, 59.607843%, 0%)" fill-opacity="1" d="M 15.332031 5.332031 L 15.332031 28.667969 L 19.332031 26.667969 L 19.332031 3.332031 Z M 15.332031 5.332031 "/>
</svg>
