<svg role="img" viewBox="0 0 32 32" height="32" width="32" xmlns="http://www.w3.org/2000/svg"><path d="M16.914 17.45a3.36 3.36 0 1 0 4.75 4.75 3.36 3.36 0 0 0-4.75-4.75m3.55 3.554a1.664 1.664 0 1 1-2.352-2.356 1.664 1.664 0 0 1 2.353 2.356M21.605.918l-2.058 2.059a1.044 1.044 0 0 0 0 1.468l8.039 8.04a1.044 1.044 0 0 0 1.469 0l2.058-2.06a1.044 1.044 0 0 0 0-1.468L23.07.918a1.04 1.04 0 0 0-1.465 0M7.184 27.223a.94.94 0 0 0 .277-.664.94.94 0 0 0-.277-.664l-1.047-1.043a.935.935 0 0 0-1.324 0l-2.165 2.16-.003.004-.594-.594a.837.837 0 0 0-1.153.035.837.837 0 0 0-.03 1.152l3.558 3.559c.21.223.523.312.82.234a.825.825 0 0 0 .602-.601.834.834 0 0 0-.235-.82l-.593-.594h.003Zm0 0" fill="rgb(96.078431%, 65.882353%, 0%)"/><path d="M18.074 6.828 13.5 11.402a1.052 1.052 0 0 0 0 1.48l2.824 2.825a5.118 5.118 0 0 1 6.594.535l2.285-2.285c.406-.41.406-1.07 0-1.48l-5.648-5.649a1.047 1.047 0 0 0-.739-.308c-.277 0-.546.113-.742.308m-2.937 10.07-1.668-1.671a1.016 1.016 0 0 0-1.422 0l-5.879 5.886a1.01 1.01 0 0 0 0 1.422L9.5 25.867c.39.39 1.031.39 1.422 0l3.781-3.789a5.112 5.112 0 0 1 .434-5.18" fill="rgb(25.882353%, 36.078431%, 78.039216%)"/></svg>