<svg role="img" viewBox="0 0 47.793 32" xmlns="http://www.w3.org/2000/svg"><path d="M6.418 19.336c0-.406.328-.738.738-.738H2.367c.41 0 .738.332.738.742a.74.74 0 0 1-.738.738h4.79a.74.74 0 0 1-.739-.742m0 0" fill="rgb(68.235296%, 79.215688%, 99.215686%)"/><path d="M6.418 12.355c0-.406.328-.738.738-.738H.598q-.104.368-.192.742l-.023.114c-.02.09-.04.175-.059.265q-.017.077-.027.149c-.016.07-.027.14-.043.207h6.902a.75.75 0 0 1-.523-.215.75.75 0 0 1-.215-.524m0 0" fill="rgb(55.29412%, 70.980394%, 99.215686%)"/><path d="M7.309 11.617h-.153a.74.74 0 0 0-.738.738.74.74 0 0 0 .738.739h3.336c.106-.496.238-.992.403-1.477Zm0 0" fill="rgb(36.470589%, 58.823532%, 98.823529%)"/><path d="M9.805 9.223c.265 0 .508.14.64.37a.73.73 0 0 1 0 .739.74.74 0 0 1-.64.367h1.43c.206-.504.449-1 .714-1.476Zm0 0" fill="rgb(49.019608%, 67.058825%, 99.215686%)"/><path d="M10.543 9.96a.74.74 0 0 0-.738-.737H1.492c-.226.484-.43.976-.601 1.476h8.914c.41 0 .738-.328.738-.738m0 0" fill="rgb(36.470589%, 58.823532%, 98.823529%)"/><path d="M8.914 7.668a.74.74 0 0 1 .738-.738h-5.96a.738.738 0 1 1 0 1.476h5.96a.74.74 0 0 1-.738-.738m0 0" fill="rgb(61.960787%, 75.294119%, 99.215686%)"/><path d="M4.43 7.668a.74.74 0 0 0-.739-.738h-.886c-.328.476-.633.968-.907 1.476h1.793a.74.74 0 0 0 .739-.738m7.465-.738H9.652a.738.738 0 1 0 0 1.476h2.79q.51-.773 1.113-1.476Zm0 0" fill="rgb(36.470589%, 58.823532%, 98.823529%)"/><path d="M10.543 2.98a.74.74 0 0 1 .738-.738H7.81l-.043.024q-.235.14-.47.293-.04.03-.089.058-.234.152-.46.317-.01.003-.017.007-.233.17-.46.34c-.172.133-.344.274-.516.414q-.017.012-.027.024h5.554a.74.74 0 0 1-.738-.739m0 0" fill="rgb(55.29412%, 70.980394%, 99.215686%)"/><path d="M11.336 2.242a.74.74 0 0 1 .738.738.74.74 0 0 1-.738.739h6.254a13.6 13.6 0 0 1 4.73-1.477Zm0 0" fill="rgb(61.960787%, 75.294119%, 99.215686%)"/><path d="M12.074 2.98a.74.74 0 0 0-.738-.738h-.055a.74.74 0 0 0-.738.738.74.74 0 0 0 .738.739h.055a.74.74 0 0 0 .738-.739m0 0" fill="rgb(43.921569%, 63.529414%, 98.823529%)"/><path d="M15.973 0a15.9 15.9 0 0 0-6.38 1.324h12.755A15.9 15.9 0 0 0 15.973 0m0 0" fill="rgb(36.470589%, 58.823532%, 98.823529%)"/><path d="M2.57 13.91h.2a.738.738 0 1 1 0 1.477h-.2 7.633q.03-.738.14-1.477Zm0 0" fill="rgb(49.019608%, 67.058825%, 99.215686%)"/><path d="M0 16.254q.012.749.094 1.48h10.199a14 14 0 0 1-.102-1.48Zm0 0" fill="rgb(36.470589%, 58.823532%, 98.823529%)"/><path d="M7.156 18.598a.74.74 0 0 0 0 1.48h3.64c-.148-.488-.273-.98-.366-1.48Zm0 0" fill="rgb(45.882353%, 65.098041%, 98.823529%)"/><path d="M1.574 19.336c0-.41.332-.738.742-.738H.211c.008.035.012.074.02.109q.012.088.03.176c.012.07.028.137.04.207l.035.176.047.203q.017.087.039.176l.047.203.047.172.011.058h1.79a.75.75 0 0 1-.524-.215.75.75 0 0 1-.219-.527m0 0" fill="rgb(49.019608%, 67.058825%, 99.215686%)"/><path d="M3.105 19.336a.74.74 0 0 0-.738-.738h-.05a.74.74 0 1 0 0 1.48h.05c.41 0 .738-.332.738-.742m0 0" fill="rgb(42.745098%, 62.7451%, 98.823529%)"/><path d="M10.008 20.941a.73.73 0 0 1 .64.372.73.73 0 0 1 0 .738.74.74 0 0 1-.64.37h1.75q-.376-.719-.664-1.48Zm0 0" fill="rgb(61.960787%, 75.294119%, 99.215686%)"/><path d="M9.27 21.68a.74.74 0 0 1 .738-.739H.785l.024.079.066.19.063.18c.023.063.046.13.07.192l.07.176q.035.098.074.191l.07.176.083.184q.022.057.047.113h8.656a.74.74 0 0 1-.738-.742m0 0" fill="rgb(43.921569%, 63.529414%, 98.823529%)"/><path d="M1.844 23.441c.015.02.023.043.039.067.035.07.078.144.117.215.027.047.05.097.078.144l.133.223c.023.043.05.09.078.133q.075.125.156.25c.02.03.04.066.059.097q.11.17.226.34v.008h10.696c-.39-.469-.754-.961-1.082-1.477Zm0 0" fill="rgb(42.745098%, 62.7451%, 98.823529%)"/><path d="M9.652 27.262a.738.738 0 1 1 0-1.477h4.563H3.363l.297.371q.031.031.055.063.116.14.238.277l.094.106c.07.082.144.16.219.242l.093.097q.141.153.282.293c.007.012.02.02.027.028h11.277Zm0 0" fill="rgb(49.019608%, 67.058825%, 99.215686%)"/><path d="M8.914 26.523a.74.74 0 0 0 .738.739h6.293a14 14 0 0 1-1.73-1.477H9.652a.74.74 0 0 0-.738.738m0 0" fill="rgb(36.470589%, 58.823532%, 98.823529%)"/><path d="M13.957 28.867c0-.41.332-.738.738-.738h2.614H5.605l.047.039q.205.175.414.34l.028.023q.222.172.445.336.047.037.094.067.221.163.449.316l.074.047.438.281c.011.008.027.02.043.027h3.289a.74.74 0 0 1-.739-.738.738.738 0 1 1 .738.738h3.77a.74.74 0 0 1-.738-.738m4.512.738h2.883A14 14 0 0 1 19.195 29a.75.75 0 0 1-.726.605m0 0" fill="rgb(55.29412%, 70.980394%, 99.215686%)"/><path d="M11.664 28.867a.738.738 0 1 0-1.475-.001.738.738 0 0 0 1.475.001m7.531.133a14 14 0 0 1-1.886-.871h-2.614a.74.74 0 0 0-.738.738.74.74 0 0 0 .738.738h3.774c.355 0 .66-.257.726-.605m-9.484 1.676c4 1.699 8.52 1.699 12.52 0ZM3.508 14.648a.74.74 0 0 0-.738-.738H.129q-.093.732-.121 1.477H2.77a.74.74 0 0 0 .738-.739m6.972 7.602a.74.74 0 0 0 .266-.64.74.74 0 0 0-.383-.579.74.74 0 1 0 .117 1.219m0 0" fill="rgb(36.470589%, 58.823532%, 98.823529%)"/><path d="M4.824 4.535c-.02.02-.039.035-.058.055l-.235.234-.086.094a8 8 0 0 0-.308.328l-.043.047-.258.293q-.045.051-.09.11-.106.12-.207.25c-.02.023-.039.042-.055.066h10.938a14 14 0 0 1 1.812-1.477Zm0 0" fill="rgb(38.82353%, 60.392159%, 98.823529%)"/><path d="M31.816.05a15.9 15.9 0 0 0-7.902 2.09h.082c6.734 0 12.344 4.84 13.563 11.247h-5.977a8.04 8.04 0 0 0-7.984-5.485 8.043 8.043 0 0 0-3.594 15.043 8.034 8.034 0 0 0 9.598-1.28h-3.47v-3.833h11.204v11.242h-3.793v-3.062a13.72 13.72 0 0 1-9.547 3.847h-.172a15.98 15.98 0 0 0 18.258-1.59 15.98 15.98 0 0 0 4.75-17.703A15.98 15.98 0 0 0 31.816.051m0 0" fill="rgb(36.470589%, 58.823532%, 98.823529%)"/></svg>