<svg role="img" viewBox="0 0 32 32" height="32" width="32" xmlns="http://www.w3.org/2000/svg"><path d="M30.25 11.617c-.602 0-1.086.485-1.086 1.082 0 8.922-7.23 16.153-16.152 16.153-.598 0-1.086.488-1.086 1.085 0 .598.488 1.086 1.086 1.086 10.117 0 18.32-8.203 18.32-18.324 0-.597-.484-1.082-1.082-1.082" fill="rgb(0%, 36.862745%, 72.156863%)"/><path d="M23.707 18.563c1.04-1.7 2.05-3.97 1.852-7.145C25.149 4.844 19.19-.145 13.566.395c-2.203.21-4.464 2.007-4.261 5.222.086 1.395.77 2.223 1.883 2.856 1.054.601 2.414.984 3.957 1.418 1.859.523 4.015 1.113 5.675 2.332 1.989 1.464 3.348 3.164 2.887 6.34" fill="rgb(0%, 23.137255%, 36.078431%)"/><path d="M2.543 7.063C1.5 8.766.493 11.03.691 14.207c.41 6.574 6.368 11.566 11.993 11.023 2.203-.21 4.46-2.003 4.261-5.222-.086-1.395-.77-2.219-1.883-2.856-1.058-.601-2.414-.984-3.957-1.418-1.859-.523-4.02-1.109-5.68-2.332-1.984-1.464-3.347-3.164-2.882-6.34" fill="rgb(0%, 36.862745%, 72.156863%)"/></svg>