<svg role="img" viewBox="0 0 26.859 32" height="32" width="26.859" xmlns="http://www.w3.org/2000/svg"><defs><linearGradient gradientTransform="matrix(20.6836 0 0 17.69922 0 14.281)" gradientUnits="userSpaceOnUse" id="424__422__270__268__opsgenie-lp-1" x1=".412" x2=".677" y1=".312" y2=".787"><stop offset="0" stop-color="rgb(14.901961%, 51.764706%, 100%)"/><stop offset=".62" stop-color="rgb(0%, 32.156863%, 80%)"/></linearGradient></defs><path d="M13.43 0C9.023 0 5.453 3.574 5.45 7.98c0 4.407 3.573 7.977 7.98 7.98 4.406-.003 7.98-3.573 7.98-7.98A7.982 7.982 0 0 0 13.43 0" fill="url(#425__423__269__267__linear-pattern-0)"/><path d="M12.75 31.785A38.507 38.507 0 0 1 .113 18.578a.901.901 0 0 1 .39-1.242l6.044-2.965a.887.887 0 0 1 1.164.36 29.873 29.873 0 0 0 12.973 11.742 38.918 38.918 0 0 1-6.575 5.312 1.275 1.275 0 0 1-1.359 0" fill="url(#424__422__270__268__linear-pattern-1)"/><path d="M14.11 31.785a38.507 38.507 0 0 0 12.636-13.207.92.92 0 0 0 .074-.703.9.9 0 0 0-.46-.54l-6.047-2.964a.893.893 0 0 0-1.168.36 29.863 29.863 0 0 1-12.97 11.742 38.237 38.237 0 0 0 6.575 5.312c.414.262.941.262 1.36 0" fill="rgb(14.901961%, 51.764706%, 100%)"/></svg>