<?xml version="1.0" encoding="UTF-8"?>
<svg xmlns="http://www.w3.org/2000/svg" xmlns:xlink="http://www.w3.org/1999/xlink" width="26.879999" height="32" viewBox="0 0 26.879999 32">
<defs>
<linearGradient id="linear-pattern-0" gradientUnits="userSpaceOnUse" x1="0.5" y1="0.1662" x2="0.5" y2="1.19283" gradientTransform="matrix(15.959836, 0, 0, 15.959836, 5.459672, -0.000000000000002368)">
<stop offset="0" stop-color="rgb(14.901961%, 51.764706%, 100%)" stop-opacity="1"/>
<stop offset="0.82" stop-color="rgb(0%, 32.156863%, 80%)" stop-opacity="1"/>
</linearGradient>
<linearGradient id="linear-pattern-1" gradientUnits="userSpaceOnUse" x1="0.4118" y1="0.3116" x2="0.67714" y2="0.78678" gradientTransform="matrix(20.684425, 0, 0, 17.699181, 0.0104914, 14.281148)">
<stop offset="0" stop-color="rgb(14.901961%, 51.764706%, 100%)" stop-opacity="1"/>
<stop offset="0.62" stop-color="rgb(0%, 32.156863%, 80%)" stop-opacity="1"/>
</linearGradient>
</defs>
<path fill-rule="nonzero" fill="url(#linear-pattern-0)" d="M 21.417969 7.980469 C 21.417969 12.386719 17.847656 15.960938 13.441406 15.960938 C 9.03125 15.960938 5.460938 12.386719 5.460938 7.980469 C 5.460938 3.574219 9.03125 0 13.441406 0 C 17.847656 0 21.417969 3.574219 21.417969 7.980469 Z M 21.417969 7.980469 "/>
<path fill-rule="nonzero" fill="url(#linear-pattern-1)" d="M 12.757812 31.785156 C 7.546875 28.460938 3.214844 23.929688 0.125 18.578125 C 0.00390625 18.363281 -0.0234375 18.109375 0.0507812 17.875 C 0.125 17.640625 0.292969 17.445312 0.511719 17.335938 L 6.554688 14.371094 C 6.976562 14.164062 7.488281 14.320312 7.722656 14.730469 C 10.777344 19.851562 15.296875 23.941406 20.695312 26.472656 C 18.703125 28.476562 16.5 30.257812 14.121094 31.785156 C 13.703125 32.042969 13.175781 32.042969 12.757812 31.785156 "/>
<path fill-rule="nonzero" fill="rgb(14.901961%, 51.764706%, 100%)" fill-opacity="1" d="M 14.121094 31.785156 C 19.332031 28.460938 23.667969 23.929688 26.753906 18.578125 C 26.875 18.363281 26.902344 18.109375 26.828125 17.875 C 26.757812 17.640625 26.589844 17.445312 26.371094 17.335938 L 20.324219 14.371094 C 19.902344 14.164062 19.390625 14.320312 19.15625 14.730469 C 16.101562 19.851562 11.582031 23.941406 6.183594 26.472656 C 8.175781 28.480469 10.378906 30.261719 12.757812 31.785156 C 13.175781 32.046875 13.703125 32.046875 14.121094 31.785156 "/>
</svg>
