<svg role="img" viewBox="0 0 26.859 32" xmlns="http://www.w3.org/2000/svg"><defs><linearGradient gradientTransform="translate(5.45)scale(15.96094)" gradientUnits="userSpaceOnUse" id="opsgenie_svg__a" x1=".5" x2=".5" y1=".166" y2="1.193"><stop offset="0" stop-color="rgb(14.901961%, 51.764709%, 100%)"/><stop offset=".82" stop-color="rgb(0%, 32.156864%, 80.000001%)"/></linearGradient><linearGradient gradientTransform="matrix(20.6836 0 0 17.69922 0 14.281)" gradientUnits="userSpaceOnUse" id="opsgenie_svg__b" x1=".412" x2=".677" y1=".312" y2=".787"><stop offset="0" stop-color="rgb(14.901961%, 51.764709%, 100%)"/><stop offset=".62" stop-color="rgb(0%, 32.156864%, 80.000001%)"/></linearGradient></defs><path d="M13.43 0C9.023 0 5.453 3.574 5.45 7.98a7.98 7.98 0 0 0 7.98 7.98 7.98 7.98 0 0 0 7.98-7.98A7.98 7.98 0 0 0 13.43 0" fill="url(#opsgenie_svg__a)"/><path d="M12.75 31.785A38.5 38.5 0 0 1 .113 18.578a.9.9 0 0 1-.07-.703.9.9 0 0 1 .46-.54l6.044-2.964a.887.887 0 0 1 1.164.36 29.9 29.9 0 0 0 12.973 11.742 39 39 0 0 1-6.575 5.312 1.27 1.27 0 0 1-1.359 0" fill="url(#opsgenie_svg__b)"/><path d="M14.11 31.785a38.5 38.5 0 0 0 12.636-13.207.92.92 0 0 0 .074-.703.9.9 0 0 0-.46-.54l-6.047-2.964a.893.893 0 0 0-1.168.36 29.86 29.86 0 0 1-12.97 11.742 38.2 38.2 0 0 0 6.575 5.312c.414.262.941.262 1.36 0" fill="rgb(14.901961%, 51.764709%, 100%)"/></svg>