<svg role="img" viewBox="0 0 156.098 32" xmlns="http://www.w3.org/2000/svg"><path d="M8.117 31.922a.24.24 0 0 1-.312 0L6.32 31.14.39 28.098c-.234-.078-.39-.391-.39-.703v-2.34c0-.313.313-.47.547-.313l7.414 3.824 7.414-3.824c.234-.156.547.078.547.313v2.34a.82.82 0 0 1-.39.703l-4.137 2.183-1.715.86ZM7.805.078a.24.24 0 0 1 .312 0L9.602.86l5.851 3.043a.84.84 0 0 1 .39.703v2.34c0 .313-.312.47-.546.313L7.883 3.434.547 7.258C.312 7.414 0 7.18 0 6.945v-2.34c0-.285.145-.554.39-.703L4.528 1.72 6.243.86Zm.156 20.996c-2.73 0-4.918-2.265-4.918-5.074s2.187-5.074 4.918-5.074c2.73 0 4.918 2.265 4.918 5.074s-2.188 5.074-4.918 5.074m0-13.27C3.59 7.805 0 11.474 0 16s3.59 8.195 7.96 8.195c4.372 0 7.962-3.668 7.962-8.195s-3.59-8.195-7.961-8.195m23.648 13.27c-2.73 0-4.918-2.266-4.918-5.075s2.188-5.074 4.918-5.074S36.527 13.19 36.527 16s-2.187 5.074-4.918 5.074m0-13.27c-4.37 0-7.96 3.669-7.96 8.196s3.59 8.195 7.96 8.195c4.371 0 7.961-3.668 7.961-8.195s-3.511-8.195-7.96-8.195m18.265 7.023h-.469l-.078-.078-2.344-3.824h2.813c1.012 0 1.871.86 1.871 1.953 0 1.094-.703 1.95-1.793 1.95m1.324 2.968c2.11-.625 3.59-2.5 3.59-4.84v-.156c0-2.809-2.184-4.996-4.914-4.996h-6.09c-.234 0-.39.156-.39.39v2.496c0 .079 0 .157.078.235l2.343 3.98h-2.03c-.235 0-.391.156-.391.39v8.587c0 .234.156.39.39.39h2.262c.234 0 .39-.156.39-.39v-5.93h1.25l3.512 5.852c.156.234.39.39.625.39h2.496c.313 0 .47-.312.313-.625Zm18.188-9.445-7.414 15.375c-.078.312-.313.468-.625.468h-2.266c-.312 0-.469-.312-.312-.547L62.437 16 58.77 8.352c-.157-.235.078-.547.312-.547h2.266q.47 0 .699.468l2.031 4.293 2.027-4.293c.157-.234.391-.468.704-.468h2.265c.313 0 .469.312.313.547" fill="rgb(38.431373%, 45.490196%, 95.294118%)"/><path d="M77.973 25.914c-.078-.078-.157-.156-.157-.312 0-.079 0-.157.079-.235l7.492-17.953c.156-.234.312-.39.547-.39h.777c.078 0 .234.078.312.156.079.078.157.156.157.312 0 .078 0 .156-.078.235L79.609 25.68c0 .078-.078.156-.156.234a.63.63 0 0 1-.39.152h-.782c-.156 0-.234-.074-.308-.152M95.14 24.04a.6.6 0 0 1-.157-.39V9.444c0-.156.079-.312.157-.39s.234-.157.312-.157h1.016c.156 0 .312.079.39.157a.6.6 0 0 1 .157.39v6.086h7.57V9.445c0-.156.078-.312.156-.39a.6.6 0 0 1 .387-.157h1.016c.156 0 .312.079.39.157a.6.6 0 0 1 .156.39v14.282c0 .156-.078.234-.156.39s-.234.156-.39.156h-1.012c-.156 0-.235-.078-.39-.156a.6.6 0 0 1-.157-.39v-6.32h-7.57v6.32c0 .156-.079.234-.157.39s-.234.156-.39.156h-1.016c-.078-.078-.234-.156-.312-.234M112 28.254c-.078-.078-.156-.156-.156-.313 0-.078 0-.156.078-.39l1.719-3.98-4.137-9.833c-.078-.156-.156-.312-.156-.39 0-.157.078-.235.156-.313s.156-.156.312-.156h1.012c.234 0 .39.078.547.312l3.355 8.04 3.434-8.04c.078-.234.313-.312.547-.312h1.016c.156 0 .234.078.312.156s.156.156.156.313c0 .078 0 .234-.078.39l-6.164 14.36c-.078.078-.156.234-.234.234-.078.078-.156.078-.313.078h-.937c-.313-.078-.39-.078-.469-.156m10.613-5.309c-.777-1.011-1.168-2.261-1.246-3.746v-1.246c.078-1.484.469-2.734 1.246-3.75.782-1.012 1.953-1.48 3.434-1.48 1.484 0 2.734.547 3.516 1.636V9.29c0-.156.078-.234.156-.39a.63.63 0 0 1 .386-.157h1.016c.156 0 .234.078.39.156.098.11.153.247.157.391v14.516c0 .156-.078.234-.156.39-.078.157-.313 0-.39 0h-.938c-.157 0-.23-.078-.309-.156a.6.6 0 0 1-.156-.39v-.938c-.86 1.094-2.031 1.64-3.594 1.64-1.559.079-2.73-.468-3.512-1.406m6.168-1.246c.547-.703.781-1.484.86-2.422v-1.715c0-.859-.313-1.64-.86-2.343-.547-.625-1.328-.938-2.265-.938-1.012 0-1.793.313-2.262 1.016-.469.625-.781 1.484-.781 2.578v.621c0 2.813 1.015 4.215 3.12 4.215.938 0 1.641-.313 2.188-1.012m6.242 2.34a.6.6 0 0 1-.156-.39V13.347c0-.157.078-.235.156-.391a.58.58 0 0 1 .391-.156h.938c.156 0 .312.078.39.156a.6.6 0 0 1 .156.39v.934c.625-1.011 1.637-1.48 3.043-1.48h.86c.156 0 .312.078.39.156a.6.6 0 0 1 .157.39v.778c0 .156-.078.234-.157.39a.6.6 0 0 1-.39.157h-1.25q-1.172 0-1.871.703-.704.703-.703 1.875v6.477c0 .156-.079.234-.157.39s-.234.156-.39.156h-1.016c-.156-.078-.312-.156-.39-.234m9.054-.078q-.938-.469-1.406-1.172c-.39-.469-.547-1.09-.547-1.637q0-1.405 1.172-2.343c.781-.625 1.875-1.012 3.2-1.247l3.28-.468v-.625c0-1.485-.859-2.266-2.578-2.266-.703 0-1.246.156-1.637.387a2.46 2.46 0 0 0-.859.941c-.078.156-.156.235-.156.313s-.156.078-.234.078h-.86c-.156 0-.234-.078-.312-.156-.078-.079-.157-.235-.157-.313q0-.468.47-1.172c.312-.465.78-.855 1.483-1.168s1.481-.468 2.418-.468q2.46 0 3.512 1.171c.703.778 1.094 1.715 1.094 2.809v7.102c0 .156-.078.234-.156.39s-.39.078-.547.078h-.938c-.156 0-.234-.078-.312-.156a.63.63 0 0 1-.153-.39v-.938q-.468.704-1.406 1.172-.937.469-2.344.469c-.699.078-1.402-.079-2.027-.391m4.84-2.106c.625-.625.937-1.562.937-2.734v-.625l-2.578.387c-1.015.16-1.87.394-2.418.785-.547.312-.78.781-.78 1.328q0 .936.702 1.402c.469.313 1.094.47 1.715.47 1.016-.079 1.797-.391 2.422-1.013m0 0" fill="rgb(43.921569%, 43.529412%, 55.686277%)"/></svg>