<svg role="img" viewBox="0 0 35.183 32" xmlns="http://www.w3.org/2000/svg"><path d="M22.336 27.59h-6.438l-1.359 2.808h-1.851V32h12.855v-1.602h-1.848ZM33.543 5.527H10.469V7.2h23.043v17.543H4.722v-6.879h-1.67v6.907a1.64 1.64 0 0 0 1.64 1.636h28.852c.906 0 1.64-.73 1.64-1.636V7.164c0-.906-.734-1.637-1.64-1.637M3.984 15.97l3.989-3.977H5.645q-.007-.116-.008-.226c0-.453.062-.91.183-1.352A5.02 5.02 0 0 1 8.645 7.2c.015-.008.027-.011.043-.02.347-.144.734-.195.992-.503.113-.133.172-.324.097-.485-.129-.289-.535-.277-.8-.308a6.2 6.2 0 0 0-3.157.55 6.18 6.18 0 0 0-3.25 3.688 6.2 6.2 0 0 0-.289 1.867H0l2.57 2.567Zm8.704 3.176 6.011 3.46v-5.867l-6.012-3.465Zm12.855 0v-5.872l-6.008 3.465v5.867ZM13.105 12.55l6.012 3.465 6.012-3.465-6.012-3.465Zm0 0" fill="rgb(25.098041%, 25.098041%, 25.490198%)"/></svg>