<svg role="img" viewBox="0 0 33.508 32" height="32" width="33.508" xmlns="http://www.w3.org/2000/svg"><path d="M20.11 27.395h-6.712l-1.418 2.933h-1.93V32h13.407v-1.672h-1.93ZM31.796 4.352h-1.504v1.675h1.504c.008 0 .015.004.023.012.008.004.012.016.012.024v18.382c0 .02-.016.035-.035.035H1.71a.035.035 0 0 1-.027-.011.057.057 0 0 1-.008-.024V6.063c0-.008.004-.02.008-.024a.035.035 0 0 1 .027-.012h16.754V4.352H1.71A1.71 1.71 0 0 0 0 6.062v18.383a1.71 1.71 0 0 0 1.71 1.711h30.087a1.71 1.71 0 0 0 1.71-1.71V6.062a1.71 1.71 0 0 0-1.71-1.711M20.824 6.027l3.13 3.13V6.823c.073-.008.148-.011.226-.008a5 5 0 0 1 4.605 3.059c.149.348.2.734.504.996.133.113.328.172.488.098.29-.133.282-.54.309-.805a6.58 6.58 0 0 0 .023-.559 6.14 6.14 0 0 0-.574-2.597l-.004-.004a6.154 6.154 0 0 0-5.578-3.55V1.171l-3.992 3.992ZM10.31 18.441l6.027 3.477v-5.89l-6.027-3.477Zm12.89-5.89-6.027 3.476v5.891l6.027-3.477Zm-.422-.723-6.023-3.476-6.024 3.476 6.024 3.477Zm0 0" fill="rgb(25.098039%, 25.098039%, 25.490196%)"/></svg>