<svg role="img" viewBox="0 0 33.508 32" xmlns="http://www.w3.org/2000/svg"><path d="M20.11 27.395h-6.712l-1.418 2.933h-1.93V32h13.407v-1.672h-1.93ZM31.796 4.352h-1.504v1.675h1.504q.012 0 .023.012c.008.004.012.016.012.024v18.382c0 .02-.016.035-.035.035H1.71a.04.04 0 0 1-.027-.011.04.04 0 0 1-.008-.024V6.063c0-.008.004-.02.008-.024a.04.04 0 0 1 .027-.012h16.754V4.352H1.71A1.71 1.71 0 0 0 0 6.062v18.383a1.71 1.71 0 0 0 1.71 1.711h30.087a1.71 1.71 0 0 0 1.71-1.71V6.062a1.71 1.71 0 0 0-1.71-1.711M20.824 6.027l3.13 3.13V6.823q.111-.01.226-.008a5.01 5.01 0 0 1 4.605 3.059c.149.348.2.734.504.996.133.113.328.172.488.098.29-.133.282-.54.309-.805q.024-.277.023-.559a6.1 6.1 0 0 0-.574-2.597l-.004-.004a6.15 6.15 0 0 0-5.578-3.55V1.171l-3.992 3.992ZM10.31 18.441l6.027 3.477v-5.89l-6.027-3.477Zm12.89-5.89-6.027 3.476v5.891l6.027-3.477Zm-.422-.723-6.023-3.476-6.024 3.476 6.024 3.477Zm0 0" fill="rgb(25.098041%, 25.098041%, 25.490198%)"/></svg>