<svg role="img" viewBox="0 0 33.508 32" xmlns="http://www.w3.org/2000/svg"><path d="m20.121 27.41-.008-.015h-6.715l-.007.015-1.41 2.914h-1.93V32h13.406v-1.676h-1.93Zm11.68-23.074H6.988v1.676h24.813c.015 0 .031.015.031.035V24.44c0 .02-.016.036-.031.036H10.027l-.144.418-.434 1.257h22.352a1.715 1.715 0 0 0 1.707-1.71V6.046a1.71 1.71 0 0 0-1.708-1.71M5.359 26.152l.438-1.257.14-.418H1.712q-.012 0-.024-.012c-.007-.004-.011-.016-.011-.024V6.047c0-.02.015-.035.035-.035H2.72V4.336H1.71A1.71 1.71 0 0 0 0 6.046v18.395a1.71 1.71 0 0 0 1.71 1.711Zm4.954-7.718 6.023 3.48V16.02l-6.023-3.48Zm6.863 3.48 6.023-3.48v-5.895l-6.023 3.477ZM10.73 11.816l6.024 3.477 6.023-3.477-6.023-3.48Zm-2.66 7.586-3.992 3.996h2.578c0 .47-.05.942-.156 1.399l-.023.098a6 6 0 0 1-.461 1.257 5 5 0 0 1-.262.457c-.117.192-.25.371-.395.547-.046.063-.101.121-.152.18q-.036.034-.066.074c-.348.371-.782.727-1.286.82-.222.04-.484.024-.648-.132-.144-.141-.195-.364-.168-.555q.032-.17.11-.328c.019-.04.14-.297.18-.297l-1.696-.043s-.125.34-.172.523v.008c-.086.36-.106.754.039 1.106.129.316.387.562.684.722.492.258 1.07.36 1.62.375 1.66.051 3.266-.797 4.274-2.101.024-.031.047-.067.07-.098.067-.098.137-.195.2-.293q.153-.248.289-.508.111-.228.21-.457a6.7 6.7 0 0 0 .403-1.257q.053-.207.082-.418.011-.037.016-.075.012-.073.02-.148.063-.427.073-.856h2.625ZM3.422 6.012l.047.422c.039.312.086.625.16.93q.052.223.129.44c.152.466.39.91.715 1.278.25.29.77.824 1.191.586a.56.56 0 0 0 .25-.36c.04-.148.04-.3.035-.449-.004-.504-.023-1-.023-1.496 0-.457.015-.906.066-1.351q.022-.207.063-.418.105-.653.363-1.258.07-.165.156-.328c.055-.11.121-.235.2-.356.148-.222.328-.445.539-.57a.64.64 0 0 1 .71 0c.016.012.036.023.051.035q.117.078.211.18c.027.027.149.203.18.203l2.566-.004c-.031 0-.187-.316-.215-.355l-.039-.059a5 5 0 0 0-.199-.297 7 7 0 0 0-.527-.633A4.7 4.7 0 0 0 8.336.942c-.402-.16-.832-.27-1.266-.27-.746-.008-1.508.281-2.09.742-.007.004-.011.012-.02.016-.542.437-.929 1.011-1.183 1.652a6 6 0 0 0-.191.57q-.04.159-.074.317a6 6 0 0 0-.063.367 6 6 0 0 0-.066.824q-.005.218.008.434c.007.14.02.281.03.418m0 0" fill="rgb(25.098041%, 25.098041%, 25.490198%)"/></svg>