<svg role="img" viewBox="0 0 33.508 32" xmlns="http://www.w3.org/2000/svg"><path d="M20.11 27.395h-6.715l-1.415 2.93h-1.93V32h13.403v-1.676h-1.926Zm11.687-23.06h-1.504v1.673h1.504c.02 0 .035.015.035.035v18.398c0 .02-.016.036-.035.036H1.707c-.016 0-.031-.016-.031-.036V6.043c0-.02.015-.035.031-.035h20.535V4.336H1.707A1.71 1.71 0 0 0 0 6.043v18.398c0 .942.762 1.707 1.707 1.711h30.09a1.71 1.71 0 0 0 1.71-1.71v-18.4a1.71 1.71 0 0 0-1.71-1.707M10.309 18.434l6.027 3.48v-5.898l-6.027-3.477Zm6.863 3.48 6.023-3.48v-5.895l-6.023 3.477ZM10.73 11.812l6.024 3.481 6.023-3.48-6.023-3.477Zm12.645-7.476.184 1.672.105.98.133 1.227a.504.504 0 0 0 .5.453h4.254a.51.51 0 0 0 .504-.453l.129-1.227.105-.98.184-1.672.09-.832.062-.574h-6.398l.062.574Zm1.684 3.363-.028.004a.31.31 0 0 1-.304-.281l-.043-.43-.094-.98-.16-1.676-.032-.344a.31.31 0 0 1 .613-.059l.04.403.16 1.676.094.98.035.371a.3.3 0 0 1-.07.227.3.3 0 0 1-.211.11m1.668-.31a.31.31 0 0 1-.528.223.32.32 0 0 1-.09-.222V3.965c0-.082.032-.16.09-.219a.304.304 0 0 1 .438 0c.058.059.09.137.09.219Zm1.535-1.382-.094.98-.043.434a.31.31 0 0 1-.309.277h-.027a.31.31 0 0 1-.277-.34l.035-.37.094-.981.16-1.672.039-.402a.32.32 0 0 1 .11-.211.32.32 0 0 1 .226-.07.31.31 0 0 1 .277.34l-.035.343Zm1.363-4.434h-1.41A1.81 1.81 0 0 0 26.425 0c-.917 0-1.675.688-1.788 1.574h-1.41v.754h6.398Zm-4.152 0c.109-.437.5-.75.953-.75s.847.313.953.75Zm0 0" fill="rgb(25.098041%, 25.098041%, 25.490198%)"/></svg>