<svg role="img" viewBox="0 0 32 32" height="32" width="32" xmlns="http://www.w3.org/2000/svg"><path d="M-3.2-3.2h38.4v38.4H-3.2z" fill="rgb(100%, 100%, 100%)"/><path d="M32 32H0V0h32ZM3.105 28.8H28.93V3.2H3.105" fill="rgb(10.196078%, 45.882353%, 80.784314%)"/><path d="m25.246 23.04-.031.257-.031.351-18.079-.03-.226-.032-.094-.129-.066-.191.035-.13.156-.128h18.305v.031Zm0 0-.031.257-.031.351-18.079-.03-.226-.032-.094-.129-.066-.191.035-.13.156-.128h18.305v.031ZM8.063 21.022l.671.704-.863.609-.445.254h-.16l-.098-.156.32-.45Zm0 0 .671.704-.863.609-.445.254h-.16l-.098-.156.32-.45Zm5.824-6.656 1.441 1.504-1.281 1.281-1.406 1.282-1.41 1.214-1.086.961-1.184.801-.703-.707.672-.96.925-1.087.704-.832.93-.96 1.152-1.216c-.032-.03 1.246-1.28 1.246-1.28m0 0 1.441 1.503-1.281 1.281-1.406 1.282-1.41 1.214-1.086.961-1.184.801-.703-.707.672-.96.925-1.087.704-.832.93-.96 1.152-1.216c-.032-.03 1.246-1.28 1.246-1.28m6.656-6.016.352.03.226.161.16.32v.418l-.129.352-.16.254v.32l.13.16.03.227-.03.32-2.946 3.168-.832.863-.32.383-.032.16.031.223-.16.226-.32-.128-.094-.32.031-.321.16-.254 2.047-2.18 1.762-1.918.031-.226-.16-.031-1.215 1.343-2.02 2.114-1.437 1.504-1.503-1.344 1.664-1.762 1.886-1.824 1.762-1.63.445-.32.32-.16h.352Zm0 0 .352.03.226.161.16.32v.418l-.129.352-.16.254v.32l.13.16.03.227-.03.32-2.946 3.168-.832.863-.32.383-.032.16.031.223-.16.226-.32-.128-.094-.32.031-.321.16-.254 2.047-2.18 1.762-1.918.031-.226-.16-.031-1.215 1.343-2.02 2.114-1.437 1.504-1.503-1.344 1.664-1.762 1.886-1.824 1.762-1.63.445-.32.32-.16h.352Zm0 0"/></svg>