<?xml version="1.0" encoding="UTF-8"?>
<svg xmlns="http://www.w3.org/2000/svg" xmlns:xlink="http://www.w3.org/1999/xlink" width="32" height="32" viewBox="0 0 32 32">
<rect x="-3.2" y="-3.2" width="38.4" height="38.4" fill="rgb(100%, 100%, 100%)" fill-opacity="1"/>
<path fill-rule="nonzero" fill="rgb(10.196079%, 45.882353%, 80.784315%)" fill-opacity="1" d="M 32 32 L 0 32 L 0 0 L 32 0 Z M 3.105469 28.800781 L 28.929688 28.800781 L 28.929688 3.199219 L 3.105469 3.199219 "/>
<path fill-rule="nonzero" fill="rgb(0%, 0%, 0%)" fill-opacity="1" d="M 25.246094 23.039062 L 25.214844 23.296875 L 25.183594 23.648438 L 7.105469 23.617188 L 6.878906 23.585938 L 6.785156 23.457031 L 6.71875 23.265625 L 6.753906 23.136719 L 6.910156 23.007812 L 25.214844 23.007812 L 25.214844 23.039062 Z M 25.246094 23.039062 L 25.214844 23.296875 L 25.183594 23.648438 L 7.105469 23.617188 L 6.878906 23.585938 L 6.785156 23.457031 L 6.71875 23.265625 L 6.753906 23.136719 L 6.910156 23.007812 L 25.214844 23.007812 L 25.214844 23.039062 Z M 8.0625 21.023438 L 8.734375 21.726562 L 7.871094 22.335938 L 7.425781 22.589844 L 7.265625 22.589844 L 7.167969 22.433594 L 7.488281 21.984375 Z M 8.0625 21.023438 L 8.734375 21.726562 L 7.871094 22.335938 L 7.425781 22.589844 L 7.265625 22.589844 L 7.167969 22.433594 L 7.488281 21.984375 Z M 13.886719 14.367188 L 15.328125 15.871094 L 14.046875 17.152344 L 12.640625 18.433594 L 11.230469 19.648438 L 10.144531 20.609375 L 8.960938 21.410156 L 8.257812 20.703125 L 8.929688 19.742188 L 9.855469 18.65625 L 10.558594 17.824219 L 11.488281 16.863281 L 12.640625 15.648438 C 12.609375 15.617188 13.886719 14.367188 13.886719 14.367188 Z M 13.886719 14.367188 L 15.328125 15.871094 L 14.046875 17.152344 L 12.640625 18.433594 L 11.230469 19.648438 L 10.144531 20.609375 L 8.960938 21.410156 L 8.257812 20.703125 L 8.929688 19.742188 L 9.855469 18.65625 L 10.558594 17.824219 L 11.488281 16.863281 L 12.640625 15.648438 C 12.609375 15.617188 13.886719 14.367188 13.886719 14.367188 Z M 20.542969 8.351562 L 20.894531 8.382812 L 21.121094 8.542969 L 21.28125 8.863281 L 21.28125 9.28125 L 21.152344 9.632812 L 20.992188 9.886719 L 20.992188 10.207031 L 21.121094 10.367188 L 21.152344 10.59375 L 21.121094 10.914062 L 18.175781 14.082031 L 17.34375 14.945312 L 17.023438 15.328125 L 16.992188 15.488281 L 17.023438 15.710938 L 16.863281 15.9375 L 16.542969 15.808594 L 16.449219 15.488281 L 16.480469 15.167969 L 16.640625 14.914062 L 18.6875 12.734375 L 20.449219 10.816406 L 20.480469 10.589844 L 20.320312 10.558594 L 19.105469 11.902344 L 17.085938 14.015625 L 15.648438 15.519531 L 14.144531 14.175781 L 15.808594 12.414062 L 17.695312 10.589844 L 19.457031 8.960938 L 19.902344 8.640625 L 20.222656 8.480469 L 20.574219 8.480469 Z M 20.542969 8.351562 L 20.894531 8.382812 L 21.121094 8.542969 L 21.28125 8.863281 L 21.28125 9.28125 L 21.152344 9.632812 L 20.992188 9.886719 L 20.992188 10.207031 L 21.121094 10.367188 L 21.152344 10.59375 L 21.121094 10.914062 L 18.175781 14.082031 L 17.34375 14.945312 L 17.023438 15.328125 L 16.992188 15.488281 L 17.023438 15.710938 L 16.863281 15.9375 L 16.542969 15.808594 L 16.449219 15.488281 L 16.480469 15.167969 L 16.640625 14.914062 L 18.6875 12.734375 L 20.449219 10.816406 L 20.480469 10.589844 L 20.320312 10.558594 L 19.105469 11.902344 L 17.085938 14.015625 L 15.648438 15.519531 L 14.144531 14.175781 L 15.808594 12.414062 L 17.695312 10.589844 L 19.457031 8.960938 L 19.902344 8.640625 L 20.222656 8.480469 L 20.574219 8.480469 Z M 20.542969 8.351562 "/>
</svg>
