<svg role="img" viewBox="0 0 32 32" height="32" width="32" xmlns="http://www.w3.org/2000/svg"><path d="M16 0c-1.18 0-2.137.828-2.43 1.922H5.762A1.925 1.925 0 0 0 3.84 3.84V28.8c0 1.055.863 1.919 1.922 1.919h20.476A1.925 1.925 0 0 0 28.16 28.8V3.84a1.925 1.925 0 0 0-1.922-1.918H18.43C18.137.828 17.18 0 16 0m0 1.281c.715 0 1.281.563 1.281 1.278 0 .355.285.64.64.64h2.56v1.922H11.52V3.2h2.558c.356 0 .64-.285.64-.64A1.27 1.27 0 0 1 16 1.282m5.703 11.52a.67.67 0 0 1 .473.152c.27.227.3.629.07.902l-7.039 8.32a.622.622 0 0 1-.437.223h-.051a.612.612 0 0 1-.414-.152l-4.48-3.84a.638.638 0 0 1-.071-.902c.23-.27.633-.3.902-.07l3.992 3.425 6.625-7.836a.629.629 0 0 1 .43-.222m0 0"/></svg>