<?xml version="1.0" encoding="UTF-8"?>
<svg xmlns="http://www.w3.org/2000/svg" xmlns:xlink="http://www.w3.org/1999/xlink" width="32" height="32" viewBox="0 0 32 32">
<path fill-rule="nonzero" fill="rgb(0%, 0%, 0%)" fill-opacity="1" d="M 12.539062 21.738281 L 13.960938 21.738281 L 23.078125 12.621094 L 21.660156 11.199219 L 13.261719 19.621094 L 9.421875 15.78125 L 8 17.199219 Z M 12.539062 21.738281 "/>
<path fill-rule="evenodd" fill="rgb(0%, 0%, 0%)" fill-opacity="1" d="M 17.199219 2 C 20.398438 2.199219 23.398438 3.800781 25.601562 6 C 28.199219 8.800781 29.601562 12.199219 29.601562 16.199219 C 29.601562 19.398438 28.398438 22.398438 26.398438 25 C 24.398438 27.398438 21.601562 29.199219 18.398438 29.800781 C 15.199219 30.398438 12 30 9.199219 28.398438 C 6.398438 26.800781 4.199219 24.398438 3 21.398438 C 1.800781 18.398438 1.601562 15 2.601562 12 C 3.601562 8.800781 5.398438 6.199219 8.199219 4.398438 C 10.800781 2.601562 14 1.800781 17.199219 2 M 18.199219 27.800781 C 20.800781 27.199219 23.199219 25.800781 25 23.601562 C 26.601562 21.398438 27.601562 18.800781 27.398438 16 C 27.398438 12.800781 26.199219 9.601562 24 7.398438 C 22 5.398438 19.601562 4.199219 16.800781 4 C 14.199219 3.800781 11.398438 4.398438 9.199219 6 C 7 7.601562 5.398438 9.800781 4.601562 12.601562 C 3.800781 15.199219 3.800781 18 5 20.601562 C 6.199219 23.199219 8 25.199219 10.398438 26.601562 C 12.800781 28 15.601562 28.398438 18.199219 27.800781 "/>
</svg>
