<?xml version="1.0" encoding="UTF-8"?>
<svg xmlns="http://www.w3.org/2000/svg" xmlns:xlink="http://www.w3.org/1999/xlink" width="32" height="32" viewBox="0 0 32 32">
<rect x="-3.2" y="-3.2" width="38.4" height="38.4" fill="rgb(100%, 100%, 100%)" fill-opacity="1"/>
<path fill-rule="nonzero" fill="rgb(0%, 0%, 0%)" fill-opacity="1" d="M 32 32 L 0 32 L 0 0 L 32 0 Z M 3.105469 28.800781 L 28.929688 28.800781 L 28.929688 3.199219 L 3.105469 3.199219 M 21.664062 14.753906 L 20.542969 14.753906 L 20.542969 12.511719 C 20.511719 10.015625 18.496094 8 16 8 C 13.503906 8 11.488281 10.015625 11.488281 12.511719 L 11.488281 14.753906 L 10.367188 14.753906 C 9.917969 14.753906 9.566406 15.105469 9.566406 15.550781 L 9.566406 23.230469 C 9.566406 23.679688 9.917969 24.03125 10.367188 24.03125 L 21.664062 24.03125 C 22.113281 24.03125 22.464844 23.679688 22.464844 23.230469 L 22.464844 15.550781 C 22.433594 15.105469 22.082031 14.75 21.664062 14.75 Z M 16.992188 21.121094 C 17.054688 21.375 16.863281 21.632812 16.609375 21.632812 L 15.425781 21.632812 C 15.167969 21.632812 14.976562 21.375 15.039062 21.121094 L 15.425781 19.679688 C 14.976562 19.457031 14.6875 19.007812 14.6875 18.464844 C 14.6875 17.695312 15.296875 17.085938 16.0625 17.085938 C 16.832031 17.085938 17.441406 17.695312 17.441406 18.464844 C 17.441406 19.007812 17.152344 19.457031 16.703125 19.679688 Z M 18.273438 14.753906 L 13.726562 14.753906 L 13.726562 12.511719 C 13.726562 11.265625 14.753906 10.242188 16 10.242188 C 17.246094 10.242188 18.273438 11.265625 18.273438 12.511719 Z M 18.273438 14.753906 "/>
</svg>
