<svg role="img" viewBox="0 0 32 32" height="32" width="32" xmlns="http://www.w3.org/2000/svg"><path d="M-3.2-3.2h38.4v38.4H-3.2z" fill="rgb(100%, 100%, 100%)"/><path d="M32 32H0V0h32ZM3.105 28.8H28.93V3.2H3.105m18.56 11.554h-1.122v-2.242C20.512 10.016 18.496 8 16 8a4.505 4.505 0 0 0-4.512 4.512v2.242h-1.12a.772.772 0 0 0-.567.23.77.77 0 0 0-.235.567v7.68c0 .449.352.8.801.8h11.297c.45 0 .8-.351.8-.8v-7.68c-.03-.446-.382-.801-.8-.801Zm-4.673 6.367c.063.254-.129.512-.383.512h-1.183c-.258 0-.45-.258-.387-.512l.387-1.441a1.33 1.33 0 0 1-.739-1.215c0-.77.61-1.38 1.376-1.38.769 0 1.378.61 1.378 1.38 0 .543-.289.992-.738 1.215Zm1.281-6.367h-4.546v-2.242A2.28 2.28 0 0 1 16 10.242a2.28 2.28 0 0 1 2.273 2.27Zm0 0"/></svg>