<svg role="img" viewBox="0 0 60.235 32" xmlns="http://www.w3.org/2000/svg"><defs><radialGradient cx=".3" cy=".18" fx=".3" fy=".18" gradientTransform="scale(60.23438 31.2539)" gradientUnits="userSpaceOnUse" id="php_svg__a" r=".86"><stop offset="0" stop-color="rgb(68.235296%, 69.803923%, 83.529413%)"/><stop offset=".003" stop-color="rgb(68.235296%, 69.803923%, 83.529413%)"/><stop offset=".007" stop-color="rgb(28.235295%, 29.803923%, 53.725493%)"/></radialGradient></defs><path d="M0 15.625c0 8.633 13.484 15.629 30.117 15.629s30.117-6.996 30.117-15.629C60.234 6.996 46.75 0 30.117 0S0 6.996 0 15.625" fill="url(#php_svg__a)"/><path d="M30.117 30.094c15.985 0 28.942-6.477 28.942-14.469 0-7.988-12.957-14.465-28.942-14.465S1.176 7.637 1.176 15.625c0 7.992 12.957 14.469 28.941 14.469" fill="rgb(46.666667%, 48.235294%, 70.19608%)"/><path d="M16.363 17.422c1.313 0 2.297-.242 2.914-.711.621-.469 1.04-1.273 1.262-2.402.207-1.051.129-1.79-.234-2.184-.364-.398-1.172-.613-2.383-.613H15.82l-1.164 5.91Zm-6.87 7.277a.328.328 0 0 1-.32-.383l3.085-15.66a.326.326 0 0 1 .32-.261h6.652c2.09 0 3.645.558 4.625 1.664.977 1.105 1.286 2.664.903 4.613a7.3 7.3 0 0 1-.801 2.191 7.3 7.3 0 0 1-1.473 1.817 6.4 6.4 0 0 1-2.422 1.433c-.87.282-1.988.422-3.328.422h-2.691l-.77 3.903a.326.326 0 0 1-.32.261Zm0 0"/><path d="M16.09 11.832h1.832c1.46 0 1.969.316 2.14.508.286.312.34.973.157 1.906-.207 1.047-.59 1.793-1.137 2.207-.562.43-1.477.645-2.719.645h-1.312Zm3.14-3.758h-6.652a.65.65 0 0 0-.64.52l-3.086 15.66a.66.66 0 0 0 .136.535.66.66 0 0 0 .504.234h3.461a.656.656 0 0 0 .64-.523l.72-3.64h2.421c1.371 0 2.524-.15 3.43-.438a6.8 6.8 0 0 0 2.543-1.504 7.7 7.7 0 0 0 1.535-1.898 7.6 7.6 0 0 0 .836-2.29c.402-2.05.074-3.695-.976-4.882-1.043-1.18-2.684-1.774-4.872-1.774m-4.972 9.668h2.105q2.093 0 3.117-.777 1.02-.779 1.38-2.594.344-1.745-.313-2.465t-2.625-.719H15.55ZM19.23 8.72q3-.001 4.38 1.55c.917 1.04 1.19 2.485.828 4.34a6.9 6.9 0 0 1-.766 2.098 7 7 0 0 1-1.406 1.738 6.2 6.2 0 0 1-2.305 1.364q-1.265.406-3.227.406h-2.96l-.82 4.164H9.491l3.086-15.66Zm0 0" fill="rgb(100%, 100%, 100%)"/><path d="M32.688 20.535a.33.33 0 0 1-.254-.117.31.31 0 0 1-.067-.266l1.363-6.93c.13-.66.098-1.132-.09-1.331-.113-.121-.46-.328-1.48-.328h-2.476l-1.715 8.71a.326.326 0 0 1-.32.262h-3.43a.33.33 0 0 1-.254-.117.33.33 0 0 1-.07-.266l3.085-15.66a.33.33 0 0 1 .325-.262h3.43a.33.33 0 0 1 .253.118.33.33 0 0 1 .067.265l-.746 3.782h2.664c2.023 0 3.398.351 4.199 1.078.816.738 1.07 1.922.758 3.515l-1.438 7.285a.326.326 0 0 1-.32.262Zm0 0"/><path d="M30.734 3.91h-3.43a.65.65 0 0 0-.644.52l-3.086 15.66a.66.66 0 0 0 .137.535.67.67 0 0 0 .508.234h3.43a.65.65 0 0 0 .64-.523l1.664-8.45h2.207c1.02 0 1.23.216 1.242.223.059.067.141.371.008 1.051l-1.363 6.934a.62.62 0 0 0 .137.531.66.66 0 0 0 .504.234h3.484a.656.656 0 0 0 .64-.52l1.438-7.288c.336-1.711.047-2.992-.855-3.813-.864-.785-2.313-1.164-4.422-1.164h-2.266l.668-3.394a.63.63 0 0 0-.137-.535.66.66 0 0 0-.504-.235m0 .645-.82 4.164h3.055q2.887.001 3.98.992 1.096.992.656 3.215l-1.433 7.289h-3.484l1.363-6.93q.233-1.181-.172-1.613-.405-.429-1.723-.43h-2.738l-1.77 8.973h-3.43l3.087-15.66Zm0 0" fill="rgb(100%, 100%, 100%)"/><path d="M43.36 17.422c1.312 0 2.292-.242 2.913-.711.622-.469 1.04-1.273 1.262-2.402.207-1.051.13-1.79-.234-2.184-.364-.398-1.172-.613-2.387-.613h-2.098l-1.168 5.91Zm-6.872 7.277a.325.325 0 0 1-.32-.383l3.086-15.66a.326.326 0 0 1 .32-.261h6.653c2.09 0 3.644.558 4.62 1.664.981 1.105 1.29 2.66.903 4.613a7.4 7.4 0 0 1-.797 2.191 7.3 7.3 0 0 1-1.473 1.817 6.4 6.4 0 0 1-2.421 1.433c-.871.282-1.993.422-3.329.422h-2.695l-.765 3.903a.326.326 0 0 1-.32.261Zm0 0"/><path d="M43.086 11.832h1.828c1.465 0 1.973.316 2.145.508.285.312.34.973.156 1.906-.207 1.047-.59 1.793-1.14 2.207-.563.43-1.477.645-2.716.645h-1.312Zm3.14-3.758h-6.652a.65.65 0 0 0-.64.52l-3.086 15.66a.63.63 0 0 0 .136.535.66.66 0 0 0 .504.234h3.461a.656.656 0 0 0 .64-.523l.72-3.64h2.421c1.372 0 2.524-.15 3.43-.438a6.8 6.8 0 0 0 2.543-1.504 7.7 7.7 0 0 0 1.535-1.898c.399-.715.68-1.489.836-2.29.403-2.05.074-3.695-.98-4.882-1.04-1.18-2.68-1.774-4.867-1.774m-4.973 9.668h2.105q2.093 0 3.114-.777 1.025-.779 1.382-2.594.344-1.745-.312-2.465-.657-.72-2.625-.719h-2.371Zm4.973-9.023q3.001-.001 4.375 1.55 1.378 1.559.828 4.34a6.8 6.8 0 0 1-.762 2.098 7 7 0 0 1-1.41 1.738 6.15 6.15 0 0 1-2.301 1.364q-1.265.406-3.227.406h-2.96l-.82 4.164h-3.462l3.086-15.66Zm0 0" fill="rgb(100%, 100%, 100%)"/></svg>