<?xml version="1.0" encoding="UTF-8"?>
<svg xmlns="http://www.w3.org/2000/svg" xmlns:xlink="http://www.w3.org/1999/xlink" width="32" height="32" viewBox="0 0 32 32">
<path fill-rule="nonzero" fill="rgb(0%, 0%, 0%)" fill-opacity="1" d="M 16.035156 0.625 C 15.378906 0.625 14.847656 1.15625 14.847656 1.808594 L 14.847656 2.015625 C 14.847656 2.582031 14.449219 3.085938 13.890625 3.179688 C 13.621094 3.222656 13.351562 3.273438 13.082031 3.332031 C 12.535156 3.457031 11.980469 3.148438 11.761719 2.625 L 11.683594 2.441406 C 11.433594 1.835938 10.738281 1.550781 10.132812 1.796875 C 9.53125 2.050781 9.246094 2.742188 9.492188 3.347656 L 9.574219 3.539062 C 9.800781 4.058594 9.613281 4.671875 9.132812 4.972656 C 8.902344 5.121094 8.675781 5.273438 8.453125 5.429688 C 7.996094 5.761719 7.355469 5.683594 6.957031 5.28125 L 6.8125 5.140625 C 6.351562 4.679688 5.601562 4.679688 5.140625 5.140625 C 4.679688 5.601562 4.679688 6.351562 5.140625 6.8125 L 5.285156 6.957031 C 5.683594 7.359375 5.753906 7.996094 5.429688 8.457031 C 5.269531 8.679688 5.117188 8.90625 4.972656 9.136719 C 4.675781 9.617188 4.058594 9.792969 3.539062 9.574219 L 3.347656 9.496094 C 2.90625 9.3125 2.398438 9.414062 2.058594 9.753906 C 1.71875 10.089844 1.617188 10.601562 1.796875 11.042969 C 1.917969 11.332031 2.148438 11.5625 2.441406 11.683594 L 2.625 11.761719 C 3.140625 11.980469 3.457031 12.535156 3.332031 13.085938 C 3.273438 13.351562 3.214844 13.617188 3.171875 13.890625 C 3.085938 14.449219 2.582031 14.847656 2.015625 14.847656 L 1.808594 14.847656 C 1.171875 14.875 0.671875 15.398438 0.671875 16.03125 C 0.671875 16.667969 1.171875 17.191406 1.808594 17.21875 L 2.015625 17.21875 C 2.582031 17.21875 3.085938 17.617188 3.179688 18.179688 C 3.222656 18.449219 3.273438 18.714844 3.332031 18.984375 C 3.457031 19.53125 3.148438 20.085938 2.625 20.304688 L 2.441406 20.382812 C 1.835938 20.636719 1.550781 21.328125 1.796875 21.933594 C 2.050781 22.535156 2.742188 22.824219 3.347656 22.574219 L 3.539062 22.492188 C 4.058594 22.28125 4.679688 22.453125 4.980469 22.933594 C 5.121094 23.164062 5.273438 23.390625 5.429688 23.617188 C 5.761719 24.070312 5.6875 24.710938 5.285156 25.109375 L 5.140625 25.253906 C 4.679688 25.71875 4.679688 26.464844 5.140625 26.929688 C 5.363281 27.152344 5.664062 27.277344 5.976562 27.277344 C 6.292969 27.277344 6.59375 27.152344 6.8125 26.929688 L 6.960938 26.789062 C 7.363281 26.382812 7.996094 26.308594 8.457031 26.636719 C 8.675781 26.796875 8.90625 26.949219 9.136719 27.09375 C 9.617188 27.390625 9.796875 28.011719 9.574219 28.535156 L 9.496094 28.71875 C 9.3125 29.117188 9.355469 29.582031 9.617188 29.933594 C 9.875 30.285156 10.308594 30.46875 10.742188 30.402344 C 11.175781 30.339844 11.539062 30.046875 11.6875 29.632812 L 11.761719 29.445312 C 11.980469 28.925781 12.535156 28.609375 13.085938 28.738281 C 13.351562 28.796875 13.621094 28.851562 13.894531 28.894531 C 14.449219 28.980469 14.847656 29.484375 14.847656 30.050781 L 14.847656 30.257812 C 14.875 30.894531 15.398438 31.394531 16.03125 31.394531 C 16.667969 31.394531 17.191406 30.894531 17.21875 30.257812 L 17.21875 30.050781 C 17.21875 29.484375 17.617188 28.980469 18.179688 28.890625 C 18.449219 28.84375 18.714844 28.792969 18.984375 28.734375 C 19.53125 28.609375 20.085938 28.921875 20.304688 29.441406 L 20.382812 29.625 C 20.632812 30.230469 21.328125 30.515625 21.933594 30.269531 C 22.535156 30.015625 22.824219 29.324219 22.574219 28.71875 L 22.492188 28.527344 C 22.28125 28.007812 22.453125 27.386719 22.933594 27.085938 C 23.164062 26.945312 23.390625 26.792969 23.617188 26.636719 C 24.070312 26.308594 24.710938 26.382812 25.109375 26.78125 L 25.253906 26.929688 C 25.714844 27.386719 26.464844 27.386719 26.929688 26.929688 C 27.394531 26.46875 27.394531 25.714844 26.929688 25.253906 L 26.789062 25.105469 C 26.382812 24.703125 26.308594 24.070312 26.636719 23.609375 C 26.796875 23.390625 26.949219 23.160156 27.09375 22.929688 C 27.390625 22.449219 28.011719 22.269531 28.535156 22.492188 L 28.71875 22.570312 C 29.117188 22.761719 29.585938 22.71875 29.941406 22.457031 C 30.296875 22.195312 30.480469 21.761719 30.414062 21.324219 C 30.347656 20.886719 30.046875 20.523438 29.632812 20.375 L 29.445312 20.304688 C 28.925781 20.085938 28.609375 19.53125 28.738281 18.980469 C 28.796875 18.714844 28.851562 18.445312 28.894531 18.171875 C 28.980469 17.617188 29.484375 17.21875 30.050781 17.21875 L 30.257812 17.21875 C 30.914062 17.21875 31.445312 16.6875 31.445312 16.035156 C 31.445312 15.378906 30.914062 14.847656 30.257812 14.847656 L 30.050781 14.847656 C 29.484375 14.847656 28.980469 14.449219 28.890625 13.890625 C 28.84375 13.621094 28.792969 13.351562 28.734375 13.082031 C 28.609375 12.535156 28.921875 11.980469 29.441406 11.761719 L 29.625 11.683594 C 30.230469 11.433594 30.515625 10.738281 30.269531 10.132812 C 30.015625 9.53125 29.324219 9.246094 28.71875 9.492188 L 28.527344 9.574219 C 28.007812 9.785156 27.386719 9.613281 27.085938 9.132812 C 26.941406 8.902344 26.792969 8.671875 26.636719 8.449219 C 26.308594 7.996094 26.382812 7.355469 26.78125 6.957031 L 26.929688 6.8125 C 27.265625 6.472656 27.363281 5.964844 27.179688 5.523438 C 26.996094 5.082031 26.566406 4.792969 26.089844 4.789062 C 25.777344 4.789062 25.476562 4.917969 25.253906 5.140625 L 25.109375 5.285156 C 24.707031 5.683594 24.070312 5.761719 23.609375 5.429688 C 23.386719 5.273438 23.160156 5.121094 22.929688 4.972656 C 22.449219 4.675781 22.273438 4.058594 22.492188 3.539062 L 22.570312 3.347656 C 22.75 2.90625 22.648438 2.398438 22.3125 2.058594 C 21.972656 1.71875 21.464844 1.617188 21.023438 1.796875 C 20.734375 1.917969 20.503906 2.148438 20.382812 2.441406 L 20.304688 2.625 C 20.085938 3.140625 19.53125 3.457031 18.980469 3.332031 C 18.710938 3.273438 18.445312 3.21875 18.171875 3.171875 C 17.617188 3.085938 17.21875 2.582031 17.21875 2.015625 L 17.21875 1.808594 C 17.21875 1.15625 16.6875 0.625 16.035156 0.625 M 16.035156 6.550781 C 21.265625 6.550781 25.515625 10.800781 25.515625 16.035156 C 25.515625 21.265625 21.269531 25.515625 16.035156 25.515625 C 10.800781 25.515625 6.550781 21.269531 6.550781 16.035156 C 6.550781 10.800781 10.800781 6.550781 16.035156 6.550781 M 13.664062 11.292969 C 13.007812 11.292969 12.480469 11.824219 12.480469 12.480469 L 12.480469 19.585938 C 12.476562 20.019531 12.710938 20.421875 13.09375 20.628906 C 13.472656 20.839844 13.9375 20.820312 14.304688 20.585938 L 21.257812 17.113281 C 21.667969 16.929688 21.941406 16.527344 21.957031 16.078125 C 21.972656 15.625 21.726562 15.203125 21.328125 14.992188 L 21.234375 14.941406 L 21.222656 14.941406 L 14.261719 11.457031 C 14.082031 11.351562 13.875 11.292969 13.664062 11.292969 "/>
</svg>
