<svg role="img" viewBox="0 0 32 32" height="32" width="32" xmlns="http://www.w3.org/2000/svg"><path d="M10.887 17.457c-1.117.316-1.852.875-2.336 1.43.46-.403 1.082-.778 1.922-1.012.855-.246 1.586-.242 2.191-.125v-.473a4.793 4.793 0 0 0-1.777.18m-2.39-3.969L4.34 14.582s.074.105.215.25l3.527-.93s-.05.645-.484 1.223c.82-.621.898-1.637.898-1.637m3.484 9.774c-5.855 1.578-8.949-5.207-9.886-8.727-.434-1.625-.625-2.855-.672-3.652-.008-.07-.004-.14 0-.215-.3.02-.45.176-.418.633.05.793.238 2.023.672 3.648.937 3.52 4.035 10.305 9.887 8.73 1.273-.343 2.23-.968 2.949-1.769-.66.598-1.489 1.07-2.532 1.352m1.098-13.926v.418h2.297c-.047-.149-.094-.281-.14-.418Zm2.809 3.43c1.035.293 1.578 1.02 1.867 1.66l1.152.324s-.156-2.242-2.183-2.816c-1.899-.54-3.067 1.054-3.207 1.257.55-.39 1.359-.714 2.37-.425m9.165 1.668c-1.899-.54-3.063 1.054-3.203 1.257.55-.39 1.355-.714 2.37-.425 1.032.297 1.579 1.02 1.868 1.66l1.152.328s-.16-2.242-2.187-2.82m-1.14 5.914-9.579-2.68s.102.527.504 1.207l8.062 2.254c.66-.383 1.012-.781 1.012-.781m-6.64 5.761c-7.582-2.035-6.668-11.695-5.438-16.273.504-1.887 1.023-3.29 1.453-4.23-.258-.051-.469.082-.68.511-.457.926-1.043 2.438-1.609 4.551-1.226 4.578-2.14 14.238 5.442 16.273 3.574.957 6.355-.5 8.433-2.785-1.973 1.785-4.488 2.785-7.601 1.953" fill="rgb(17.647059%, 27.058824%, 32.156863%)"/><path d="M13.078 20.996v-1.95l-5.414 1.54s.399-2.328 3.223-3.129c.86-.242 1.59-.242 2.191-.125V9.336h2.715c-.297-.914-.582-1.617-.82-2.106-.399-.804-.805-.27-1.73.504-.65.543-2.294 1.704-4.766 2.368-2.477.668-4.477.492-5.313.347-1.184-.207-1.8-.465-1.742.434.05.797.238 2.027.672 3.652.937 3.52 4.035 10.305 9.886 8.727 1.528-.414 2.61-1.227 3.356-2.266ZM4.34 14.582l4.156-1.094s-.121 1.598-1.68 2.012c-1.558.41-2.476-.918-2.476-.918" fill="rgb(88.627451%, 34.117647%, 29.803922%)"/><path d="M28.734 9.43c-1.082.187-3.675.425-6.882-.434-3.204-.86-5.332-2.363-6.176-3.066-1.196-1.004-1.719-1.7-2.238-.645-.458.926-1.04 2.438-1.606 4.55-1.23 4.58-2.145 14.24 5.438 16.274 7.582 2.032 11.617-6.797 12.843-11.375.567-2.113.813-3.714.883-4.746.078-1.168-.726-.828-2.262-.558M13.5 13.215s1.195-1.86 3.223-1.281c2.027.574 2.183 2.816 2.183 2.816Zm4.95 8.34c-3.567-1.043-4.118-3.887-4.118-3.887l9.578 2.68c0-.004-1.933 2.238-5.46 1.207m3.382-5.84s1.195-1.86 3.219-1.281c2.027.578 2.187 2.82 2.187 2.82Zm0 0" fill="rgb(18.039216%, 67.843137%, 20%)"/><path d="m11.188 19.586-3.524.996s.383-2.18 2.977-3.043l-1.996-7.488-.172.05C6 10.77 4 10.595 3.164 10.45c-1.184-.207-1.8-.465-1.742.434.047.797.238 2.027.672 3.652.937 3.52 4.031 10.305 9.886 8.727l.172-.055ZM4.34 14.582l4.156-1.094s-.121 1.598-1.68 2.012c-1.558.41-2.476-.918-2.476-.918" fill="rgb(83.921569%, 32.54902%, 28.235294%)"/><path d="m18.61 21.594-.165-.04c-3.562-1.042-4.113-3.886-4.113-3.886l4.938 1.379 2.613-10.043-.031-.008c-3.207-.86-5.332-2.363-6.176-3.066-1.196-1.004-1.719-1.7-2.238-.645-.458.926-1.04 2.438-1.606 4.55-1.23 4.58-2.145 14.24 5.438 16.274l.156.036Zm-5.11-8.38s1.195-1.859 3.223-1.28c2.027.574 2.183 2.816 2.183 2.816Zm0 0" fill="rgb(11.372549%, 55.294118%, 13.333333%)"/><path d="m11.367 19.535-.945.266c.223 1.262.617 2.469 1.234 3.535.106-.023.215-.043.324-.074a6.58 6.58 0 0 0 .81-.278c-.692-1.023-1.15-2.203-1.423-3.449m-.37-8.867c-.485 1.812-.919 4.422-.802 7.039.223-.098.457-.184.692-.25l.175-.039c-.21-2.797.25-5.645.77-7.582.121-.461.254-.918.395-1.371-.23.144-.465.285-.704.414a34.84 34.84 0 0 0-.527 1.789" fill="rgb(75.294118%, 29.411765%, 25.490196%)"/></svg>