<?xml version="1.0" encoding="UTF-8"?>
<svg id="Layer_2" data-name="Layer 2" xmlns="http://www.w3.org/2000/svg" viewBox="0 0 227.18 225.09">
  <defs>
    <style>
      .cls-1 {
        fill: #326ce5;
      }
    </style>
  </defs>
  <g id="Layer_1-2" data-name="Layer 1">
    <g>
      <path class="cls-1" d="M46.65,52.49l58.35-28.09c-4.16-2.79-6.91-7.53-6.91-12.9,0-1.39,.18-2.73,.53-4.01l-63.78,30.72c2.18,.53,4.24,1.53,6.01,2.94,3.61,2.88,5.59,7.06,5.8,11.34Z"/>
      <path class="cls-1" d="M11.52,126.27c3.27,0,6.33,1,8.85,2.75l13.82-60.56c-.98,.2-2,.3-3.02,.3-3.49,0-6.92-1.2-9.66-3.38-1.66-1.33-3.01-2.94-3.98-4.76L1.75,129.72c1.82-1.48,3.97-2.53,6.32-3.06,1.13-.26,2.29-.39,3.45-.39Z"/>
      <path class="cls-1" d="M205.68,65.38c-2.74,2.18-6.17,3.38-9.67,3.38-1.02,0-2.03-.1-3.01-.3l13.81,60.57c2.53-1.76,5.58-2.76,8.86-2.76,1.15,0,2.31,.13,3.44,.39,2.4,.54,4.54,1.62,6.33,3.08l-15.78-69.14c-.97,1.82-2.32,3.45-3.98,4.78Z"/>
      <path class="cls-1" d="M122.18,24.4l58.35,28.09c.22-4.29,2.2-8.46,5.8-11.34,1.77-1.41,3.83-2.41,6.02-2.94L128.56,7.49c.35,1.28,.53,2.62,.53,4.01,0,5.37-2.75,10.11-6.91,12.9Z"/>
      <path class="cls-1" d="M212.24,156.89c-4.41-1.01-7.95-3.81-10.02-7.46l-38.89,48.77c4.2,1.19,7.8,4.14,9.75,8.15,1.03,2.12,1.52,4.36,1.54,6.57l44.72-56.08c-1.17,.28-2.4,.43-3.65,.43-1.15,0-2.31-.13-3.45-.38Z"/>
      <path class="cls-1" d="M145.17,219.85c-2.01-4.17-1.99-8.8-.32-12.76h-62.52c1.68,3.96,1.7,8.59-.31,12.76-.99,2.06-2.43,3.84-4.16,5.24h71.47c-1.73-1.4-3.16-3.18-4.16-5.24Z"/>
      <path class="cls-1" d="M63.86,198.19l-38.9-48.76c-2.07,3.65-5.61,6.45-10.02,7.46-1.13,.25-2.29,.38-3.44,.38-1.25,0-2.48-.15-3.65-.43l44.72,56.08c.02-2.21,.51-4.45,1.54-6.57,1.94-4.01,5.55-6.96,9.75-8.16Z"/>
      <path class="cls-1" d="M218.23,130.56c-.86-.2-1.72-.29-2.56-.29-2.96,0-5.76,1.15-7.86,3.12-.67,.62-1.26,1.32-1.76,2.09l-46.09-10.47,.06-.04c9.07-5.24,9.07-18.34,0-23.57l-10.39-6,40.44-32.28c.61,.36,1.25,.67,1.91,.91,1.29,.49,2.66,.73,4.03,.73,2.52,0,5.05-.82,7.17-2.51,4.96-3.96,5.77-11.2,1.81-16.16-2.27-2.85-5.61-4.33-8.99-4.33-2.52,0-5.05,.83-7.17,2.52-3.17,2.53-4.65,6.4-4.26,10.16,.08,.82,.25,1.63,.51,2.42l-42.89,34.24-24.6-14.2V22.28s.08-.03,.11-.04c4.32-1.65,7.39-5.84,7.39-10.74,0-2.52-.81-4.85-2.19-6.74-2.08-2.89-5.48-4.76-9.31-4.76s-7.23,1.88-9.32,4.77c-1.37,1.89-2.18,4.21-2.18,6.73,0,4.9,3.07,9.09,7.39,10.74,.03,.01,.07,.03,.11,.04v50l-12.81-7.4c-9.08-5.24-20.42,1.31-20.42,11.79v7.54l-34.26-27.34h0c.27-.81,.44-1.62,.52-2.44,.38-3.76-1.1-7.62-4.27-10.15-2.11-1.69-4.65-2.52-7.16-2.52-3.38,0-6.73,1.48-9,4.33-3.96,4.96-3.15,12.2,1.81,16.16,2.12,1.69,4.66,2.51,7.17,2.51,1.37,0,2.74-.24,4.04-.73,.65-.24,1.29-.55,1.9-.91l39.25,31.33v28.48l-55.22,12.55c-.5-.77-1.1-1.48-1.77-2.1-2.1-1.96-4.89-3.11-7.85-3.11-.85,0-1.7,.09-2.56,.29-6.2,1.4-10.08,7.56-8.67,13.76,1.21,5.33,5.96,8.95,11.21,8.95,.84,0,1.7-.09,2.55-.29,3.86-.87,6.82-3.58,8.16-7,.34-.86,.58-1.77,.7-2.7l53.45-12.14v18.56c0,7.11,5.22,12.4,11.42,13.43l-18.63,38.53c-.36-.04-.72-.06-1.08-.06-.48,0-.95,.03-1.42,.09-3.74,.46-7.18,2.76-8.94,6.41-2.76,5.71-.37,12.59,5.35,15.35,1.61,.78,3.32,1.15,5,1.15,4.27,0,8.37-2.39,10.36-6.49,1.77-3.66,1.42-7.79-.55-11.02-.43-.7-.93-1.36-1.51-1.96l21.36-44.19h0s24.82-14.33,24.82-14.33l28.29,58.53c-.58,.59-1.08,1.25-1.51,1.95-1.98,3.23-2.32,7.36-.55,11.02,1.98,4.1,6.09,6.49,10.36,6.49,1.68,0,3.38-.37,5-1.15,5.71-2.76,8.11-9.64,5.34-15.35-1.76-3.65-5.19-5.94-8.93-6.41-.47-.06-.95-.09-1.43-.09-.36,0-.71,.02-1.07,.06h0l-28.55-59.06,20.28-11.71,54.51,12.39c.12,.93,.36,1.83,.7,2.69,1.34,3.42,4.3,6.14,8.16,7.01,.86,.2,1.71,.29,2.56,.29,5.25,0,9.99-3.62,11.2-8.95,1.41-6.2-2.47-12.36-8.66-13.76Zm-25.34-81.2c2.15-1.73,5.3-1.37,7.02,.78,1.73,2.16,1.37,5.31-.79,7.03-2.15,1.72-5.3,1.37-7.02-.79-1.73-2.15-1.37-5.3,.79-7.02ZM108.59,11.5c0-2.77,2.24-5,5-5s5,2.23,5,5-2.24,5-5,5-5-2.24-5-5ZM28.06,57.17c-2.16-1.72-2.51-4.87-.79-7.03,1.72-2.15,4.87-2.51,7.03-.78,2.16,1.72,2.51,4.87,.79,7.02-1.73,2.16-4.87,2.51-7.03,.79Zm-15.45,89.48c-2.69,.61-5.37-1.08-5.98-3.77-.61-2.69,1.08-5.37,3.77-5.99,2.69-.61,5.37,1.08,5.98,3.77,.61,2.7-1.07,5.37-3.77,5.99Zm59.96,68.63c-1.21,2.48-4.2,3.52-6.68,2.32-2.49-1.2-3.53-4.19-2.33-6.68,1.2-2.48,4.19-3.52,6.68-2.32s3.53,4.19,2.33,6.68Zm91.05-4.36c1.2,2.49,.16,5.48-2.32,6.68-2.49,1.2-5.48,.16-6.68-2.32-1.2-2.49-.16-5.48,2.32-6.68,2.49-1.2,5.48-.16,6.68,2.32Zm-34.14-93.3l-23.8,13.74c-3.42,1.97-7.68-.49-7.68-4.44v-27.48c0-3.94,4.26-6.41,7.68-4.43l23.8,13.74c3.41,1.97,3.41,6.9,0,8.87Zm91.07,25.26c-.61,2.69-3.29,4.38-5.98,3.77-2.69-.62-4.38-3.29-3.77-5.99,.61-2.69,3.29-4.38,5.99-3.77,2.69,.62,4.38,3.3,3.76,5.99Z"/>
    </g>
  </g>
</svg>