<svg role="img" viewBox="0 0 32 32" height="32" width="32" xmlns="http://www.w3.org/2000/svg"><path d="M16.035.625c-.656 0-1.187.531-1.187 1.184v.207c0 .566-.399 1.07-.957 1.164a14.7 14.7 0 0 0-.809.152c-.547.125-1.102-.184-1.32-.707l-.078-.184a1.192 1.192 0 0 0-1.551-.644 1.195 1.195 0 0 0-.64 1.55l.081.192c.227.52.04 1.133-.441 1.434-.23.148-.457.3-.68.457-.457.332-1.098.254-1.496-.149l-.144-.14a1.184 1.184 0 0 0-1.672 0 1.184 1.184 0 0 0 0 1.672l.144.144c.399.402.469 1.04.145 1.5a13.65 13.65 0 0 0-.457.68c-.297.48-.914.656-1.434.437l-.191-.078a1.187 1.187 0 0 0-1.55 1.547c.12.289.35.52.643.64l.184.079c.516.218.832.773.707 1.324-.059.266-.117.531-.16.805-.086.558-.59.957-1.156.957h-.207a1.186 1.186 0 0 0 0 2.37h.207c.566 0 1.07.4 1.164.962.043.27.093.535.152.804.125.547-.184 1.102-.707 1.32l-.184.079c-.605.254-.89.945-.644 1.55a1.19 1.19 0 0 0 1.55.641l.192-.082c.52-.21 1.14-.039 1.441.442.141.23.293.457.45.683.332.453.258 1.094-.145 1.492l-.144.145a1.188 1.188 0 0 0 0 1.676 1.176 1.176 0 0 0 1.672 0l.148-.14c.402-.407 1.035-.481 1.496-.153.219.16.45.312.68.457.48.297.66.918.437 1.441l-.078.184c-.184.398-.14.863.121 1.215a1.186 1.186 0 0 0 2.07-.3l.075-.189c.218-.52.773-.836 1.324-.707.266.059.535.114.809.157.554.085.953.59.953 1.156v.207a1.186 1.186 0 0 0 2.37 0v-.207c0-.567.4-1.07.962-1.16.27-.047.535-.098.804-.157.547-.125 1.102.188 1.32.707l.079.184c.25.605.945.89 1.55.645a1.19 1.19 0 0 0 .641-1.551l-.082-.192c-.21-.52-.039-1.14.442-1.441.23-.14.457-.293.683-.45.453-.327 1.094-.253 1.492.145l.145.149c.46.457 1.21.457 1.676 0a1.185 1.185 0 0 0 0-1.676l-.14-.149c-.407-.402-.481-1.035-.153-1.496.16-.218.312-.449.457-.68.297-.48.918-.66 1.441-.437l.184.078a1.19 1.19 0 0 0 1.695-1.246 1.199 1.199 0 0 0-.781-.949l-.188-.07c-.52-.22-.836-.774-.707-1.325.059-.265.114-.535.157-.808.085-.555.59-.953 1.156-.953h.207a1.185 1.185 0 0 0 0-2.371h-.207c-.567 0-1.07-.399-1.16-.957a17.408 17.408 0 0 0-.157-.809c-.125-.547.188-1.102.707-1.32l.184-.078c.605-.25.89-.946.645-1.551a1.195 1.195 0 0 0-1.551-.64l-.192.081c-.52.211-1.14.04-1.441-.441a14.1 14.1 0 0 0-.45-.684c-.327-.453-.253-1.094.145-1.492l.149-.144a1.189 1.189 0 0 0-.84-2.023 1.18 1.18 0 0 0-.836.35l-.145.145c-.402.399-1.039.477-1.5.145a17.917 17.917 0 0 0-.68-.457c-.48-.297-.656-.914-.437-1.434l.078-.191c.18-.442.078-.95-.258-1.29a1.186 1.186 0 0 0-1.289-.261 1.19 1.19 0 0 0-.64.644l-.078.184c-.22.516-.774.832-1.325.707-.27-.059-.535-.113-.808-.16-.555-.086-.953-.59-.953-1.156v-.207c0-.653-.532-1.184-1.184-1.184m0 5.926c5.23 0 9.48 4.25 9.48 9.484 0 5.23-4.245 9.48-9.48 9.48-5.234 0-9.484-4.245-9.484-9.48 0-5.234 4.25-9.484 9.484-9.484m-2.37 4.742c-.657 0-1.185.531-1.185 1.187v7.106a1.182 1.182 0 0 0 1.824 1l6.954-3.473c.41-.183.683-.586.699-1.035a1.184 1.184 0 0 0-.629-1.086l-.094-.05h-.011l-6.961-3.485a1.185 1.185 0 0 0-.598-.164"/></svg>