<svg role="img" viewBox="0 0 32.297 32" fill="rgb(19.607843%, 42.352942%, 89.803922%)" xmlns="http://www.w3.org/2000/svg"><path d="m6.633 7.46 8.293-3.991a2.21 2.21 0 0 1-.906-2.403L4.953 5.434a2.2 2.2 0 0 1 1.68 2.027M1.637 17.954c.465 0 .902.14 1.258.39l1.964-8.609a2.2 2.2 0 0 1-1.8-.441 2.15 2.15 0 0 1-.567-.676L.25 18.441c.262-.214.57-.363.898-.433.16-.04.325-.055.489-.055m27.605-8.66a2.2 2.2 0 0 1-1.375.48q-.217.002-.43-.039l1.965 8.61c.36-.25.793-.39 1.258-.39.164 0 .328.015.488.054.332.074.641.222.903.437l-2.246-9.832a2.1 2.1 0 0 1-.563.68m-11.87-5.824 8.292 3.992c.047-.973.73-1.8 1.68-2.027l-9.067-4.368a2.21 2.21 0 0 1-.906 2.403m12.8 18.836a2.2 2.2 0 0 1-1.422-1.063l-5.531 6.934c.597.172 1.11.59 1.386 1.16.149.3.215.621.22.934l6.359-7.973q-.257.06-.52.062-.246-.002-.492-.054m-9.535 8.949a2.2 2.2 0 0 1-.043-1.813h-8.89A2.19 2.19 0 0 1 11.07 32h10.16a2.2 2.2 0 0 1-.593-.746M9.078 28.176l-5.531-6.934a2.2 2.2 0 0 1-2.43 1.055l6.356 7.973a2.2 2.2 0 0 1 .218-.934c.278-.57.79-.988 1.387-1.16m21.945-9.613a1.4 1.4 0 0 0-.363-.043c-.55 0-1.066.28-1.367.742l-6.55-1.489.007-.007c1.29-.746 1.29-2.606 0-3.352l-1.477-.851 5.747-4.59c.257.148.55.23.847.234.356 0 .715-.117 1.02-.355.543-.434.75-1.165.52-1.82a1.633 1.633 0 0 0-2.563-.735c-.532.426-.746 1.137-.532 1.785l-6.097 4.871-3.496-2.02V3.169s.011-.004.015-.008a1.64 1.64 0 0 0 1.032-1.824A1.64 1.64 0 0 0 16.148 0c-.527 0-1.02.254-1.324.68a1.62 1.62 0 0 0-.312.957c0 .695.437 1.289 1.05 1.523q.011.007.016.008v7.11l-1.82-1.055c-1.29-.743-2.903.187-2.903 1.675v1.075l-4.87-3.887a1.62 1.62 0 0 0-.532-1.79 1.62 1.62 0 0 0-1.2-.35 1.62 1.62 0 0 0-1.097.605A1.634 1.634 0 0 0 4.43 9.207c.195 0 .39-.035.574-.105q.143-.054.273-.13l5.578 4.454v4.05l-7.851 1.786a1.6 1.6 0 0 0-.25-.301 1.65 1.65 0 0 0-1.117-.441 1.4 1.4 0 0 0-.364.043 1.62 1.62 0 0 0-1.23 1.953 1.634 1.634 0 0 0 3.215-.145l7.597-1.726v2.636c0 1.012.743 1.766 1.625 1.91l-2.648 5.477a1.6 1.6 0 0 0-.355.004 1.64 1.64 0 0 0-1.454 1.726 1.635 1.635 0 0 0 1.653 1.532 1.635 1.635 0 0 0 1.18-2.766l3.035-6.285 3.53-2.035 4.02 8.32a1.635 1.635 0 1 0 1.027-.496l-4.058-8.395 2.883-1.664 7.75 1.762c.11.813.8 1.418 1.621 1.418a1.627 1.627 0 0 0 1.629-1.45 1.63 1.63 0 0 0-1.266-1.776ZM27.422 7.015a.71.71 0 0 1 1 .113.71.71 0 0 1-.113 1 .717.717 0 0 1-1-.113.72.72 0 0 1-.153-.524.72.72 0 0 1 .266-.476M15.438 1.633a.711.711 0 0 1 1.421 0 .712.712 0 1 1-1.422 0M3.988 8.129a.717.717 0 0 1-.113-1 .717.717 0 0 1 1-.113.72.72 0 0 1 .266.476.72.72 0 0 1-.364.703.71.71 0 0 1-.789-.066M1.793 20.848A.712.712 0 1 1 2.332 20a.71.71 0 0 1-.539.848m8.523 9.757a.73.73 0 0 1-.406.364.73.73 0 0 1-.543-.035.707.707 0 0 1-.32-.942.707.707 0 0 1 .937-.336.707.707 0 0 1 .332.95m12.946-.62a.71.71 0 0 1-.332.949.711.711 0 1 1 .332-.95m-4.856-13.262-3.383 1.953a.73.73 0 0 1-.726 0 .73.73 0 0 1-.363-.633v-3.906c0-.559.605-.91 1.09-.63l3.382 1.954a.732.732 0 0 1 0 1.262m12.95 3.59a.713.713 0 0 1-1.18.367.71.71 0 0 1-.207-.684.713.713 0 0 1 1.386.317m0 0"/></svg>