<svg xmlns="http://www.w3.org/2000/svg" role="img" viewBox="1.57 1.57 28.80 28.80"><path d="M16 2.133c-.59 0-1.066.476-1.066 1.066v.184c0 .512-.36.965-.864 1.047-.242.039-.484.086-.726.14-.492.11-.992-.168-1.188-.636l-.07-.168a1.072 1.072 0 0 0-1.395-.578c-.543.226-.8.851-.578 1.394l.075.172a1.04 1.04 0 0 1-.399 1.293c-.207.133-.41.27-.61.41-.413.297-.988.227-1.347-.133l-.129-.129a1.07 1.07 0 0 0-1.508 0 1.07 1.07 0 0 0 0 1.508l.13.129c.359.36.425.934.132 1.348-.14.199-.277.402-.41.613-.27.434-.824.59-1.293.395l-.172-.07a1.081 1.081 0 0 0-1.16.23 1.074 1.074 0 0 0-.235 1.16c.11.262.317.469.579.578l.168.07c.464.196.746.696.636 1.192-.054.238-.105.476-.144.722-.078.504-.531.864-1.043.864h-.184a1.065 1.065 0 1 0 0 2.132h.184c.512 0 .965.36 1.047.864.039.246.086.484.14.726.11.492-.168.992-.636 1.188l-.168.07a1.073 1.073 0 0 0-.578 1.395c.226.543.851.804 1.394.578l.172-.075c.469-.19 1.027-.035 1.297.399.129.207.265.41.406.613.297.41.23.985-.129 1.344l-.133.129a1.07 1.07 0 0 0 0 1.508 1.064 1.064 0 0 0 1.508 0l.133-.125c.36-.364.93-.434 1.344-.137.199.145.406.281.613.41.434.27.594.828.395 1.297l-.07.168a1.069 1.069 0 1 0 1.972.82l.066-.168c.196-.468.696-.75 1.192-.636.238.054.48.101.726.14.5.078.86.531.86 1.043v.184a1.065 1.065 0 1 0 2.132 0v-.184c0-.512.36-.965.864-1.047.246-.039.484-.086.726-.14.492-.11.992.168 1.188.636l.07.168c.227.543.852.801 1.395.578.543-.226.804-.851.578-1.394l-.075-.172c-.19-.469-.035-1.027.399-1.297.207-.129.41-.265.613-.406.41-.297.985-.23 1.344.129l.129.133a1.07 1.07 0 0 0 1.508 0 1.064 1.064 0 0 0 0-1.508l-.125-.133c-.364-.36-.434-.93-.137-1.344.145-.199.281-.406.41-.613.27-.434.828-.594 1.297-.395l.168.07a1.07 1.07 0 1 0 .82-1.973l-.168-.065c-.468-.196-.75-.696-.636-1.192.054-.238.101-.48.14-.726.078-.5.531-.86 1.043-.86h.184a1.065 1.065 0 1 0 0-2.132h-.184c-.512 0-.965-.36-1.047-.864a12.375 12.375 0 0 0-.14-.726c-.11-.492.168-.992.636-1.188l.168-.07c.543-.227.801-.852.578-1.395a1.072 1.072 0 0 0-1.394-.578l-.172.075c-.469.19-1.027.035-1.297-.399-.129-.207-.265-.41-.406-.613-.297-.41-.23-.985.129-1.344l.133-.129a1.07 1.07 0 0 0 0-1.508 1.064 1.064 0 0 0-1.508 0l-.129.13c-.36.359-.934.429-1.348.132a20.94 20.94 0 0 0-.613-.41c-.434-.27-.59-.824-.395-1.293l.07-.172a1.07 1.07 0 0 0-.23-1.16 1.074 1.074 0 0 0-1.16-.235c-.262.11-.469.317-.578.579l-.07.168c-.196.464-.696.746-1.192.636a11.94 11.94 0 0 0-.726-.144c-.5-.078-.86-.531-.86-1.043v-.184c0-.59-.476-1.066-1.066-1.066m0 5.332c4.71 0 8.535 3.824 8.535 8.535 0 4.71-3.824 8.535-8.535 8.535-4.71 0-8.535-3.824-8.535-8.535 0-4.71 3.824-8.535 8.535-8.535m-2.133 4.27c-.59 0-1.066.476-1.066 1.066v6.398a1.065 1.065 0 0 0 1.644.899l6.258-3.125a1.07 1.07 0 0 0 .629-.934 1.071 1.071 0 0 0-.566-.977l-.086-.046h-.008l-6.266-3.133a1.047 1.047 0 0 0-.539-.149"/></svg>