<?xml version="1.0" encoding="UTF-8"?>
<svg xmlns="http://www.w3.org/2000/svg" xmlns:xlink="http://www.w3.org/1999/xlink" width="32" height="32" viewBox="0 0 32 32">
<path fill-rule="nonzero" fill="rgb(0%, 0%, 0%)" fill-opacity="1" d="M 5.761719 3.839844 C 5.40625 3.839844 5.121094 4.125 5.121094 4.480469 L 5.121094 6.398438 L 11.519531 6.398438 L 11.519531 4.480469 C 11.519531 4.125 11.234375 3.839844 10.878906 3.839844 Z M 21.121094 3.839844 C 20.765625 3.839844 20.480469 4.125 20.480469 4.480469 L 20.480469 6.398438 L 26.878906 6.398438 L 26.878906 4.480469 C 26.878906 4.125 26.59375 3.839844 26.238281 3.839844 Z M 0.640625 7.039062 C 0.289062 7.039062 0 7.324219 0 7.679688 L 0 28.160156 C 0 28.515625 0.289062 28.800781 0.640625 28.800781 L 31.359375 28.800781 C 31.710938 28.800781 32 28.515625 32 28.160156 L 32 7.679688 C 32 7.324219 31.710938 7.039062 31.359375 7.039062 Z M 0.640625 7.039062 "/>
</svg>
