<?xml version="1.0" encoding="UTF-8"?>
<svg xmlns="http://www.w3.org/2000/svg" xmlns:xlink="http://www.w3.org/1999/xlink" width="32" height="32" viewBox="0 0 32 32">
<path fill-rule="nonzero" fill="rgb(0%, 0%, 0%)" fill-opacity="1" d="M 5.640625 3.839844 C 5.335938 3.898438 5.113281 4.167969 5.121094 4.480469 L 5.121094 7.039062 L 0.640625 7.039062 C 0.621094 7.039062 0.601562 7.039062 0.578125 7.039062 C 0.25 7.070312 -0.00390625 7.347656 0 7.679688 L 0 28.160156 C 0 28.511719 0.289062 28.800781 0.640625 28.800781 L 31.359375 28.800781 C 31.710938 28.800781 32 28.511719 32 28.160156 L 32 7.679688 C 32 7.328125 31.710938 7.039062 31.359375 7.039062 L 26.878906 7.039062 L 26.878906 4.480469 C 26.878906 4.128906 26.59375 3.839844 26.238281 3.839844 L 21.121094 3.839844 C 21.101562 3.839844 21.078125 3.839844 21.058594 3.839844 C 20.730469 3.871094 20.476562 4.148438 20.480469 4.480469 L 20.480469 7.039062 L 11.519531 7.039062 L 11.519531 4.480469 C 11.519531 4.128906 11.234375 3.839844 10.878906 3.839844 L 5.761719 3.839844 C 5.738281 3.839844 5.71875 3.839844 5.699219 3.839844 C 5.679688 3.839844 5.660156 3.839844 5.640625 3.839844 Z M 6.398438 5.121094 L 10.238281 5.121094 L 10.238281 7.039062 L 6.398438 7.039062 Z M 21.761719 5.121094 L 25.601562 5.121094 L 25.601562 7.039062 L 21.761719 7.039062 Z M 1.28125 8.320312 L 30.71875 8.320312 L 30.71875 27.519531 L 1.28125 27.519531 Z M 1.28125 8.320312 "/>
</svg>
