<?xml version="1.0" encoding="UTF-8"?>
<svg xmlns="http://www.w3.org/2000/svg" xmlns:xlink="http://www.w3.org/1999/xlink" width="24.61696" height="32" viewBox="0 0 24.61696 32">
<defs>
<clipPath id="clip-0">
<path clip-rule="nonzero" d="M 17 24 L 24.652344 24 L 24.652344 32 L 17 32 Z M 17 24 "/>
</clipPath>
</defs>
<path fill-rule="nonzero" fill="rgb(0%, 0%, 0%)" fill-opacity="1" d="M 0 0 L 11.738281 0 C 19.839844 0 24.617188 2.53125 24.617188 10.789062 L 24.617188 11.070312 C 24.617188 19.351562 19.851562 21.855469 11.75 21.855469 L 9.1875 21.855469 L 9.1875 31.917969 L 0 31.917969 Z M 11.203125 14.804688 C 13.710938 14.804688 15.03125 13.875 15.03125 11.089844 L 15.03125 10.769531 C 15.03125 8 13.710938 7.050781 11.203125 7.050781 L 9.191406 7.050781 L 9.191406 14.800781 L 11.203125 14.800781 Z M 11.203125 14.804688 "/>
<g clip-path="url(#clip-0)">
<path fill-rule="nonzero" fill="rgb(100%, 50.196078%, 94.901961%)" fill-opacity="1" d="M 17.050781 24.492188 L 24.578125 24.492188 L 24.578125 32 L 17.050781 32 Z M 17.050781 24.492188 "/>
</g>
</svg>
