<svg role="img" viewBox="0 0 32 32" height="32" width="32" xmlns="http://www.w3.org/2000/svg"><path d="M30.879 17.906C31.926 9.688 26.12 2.172 17.918 1.121 9.715.074 2.172 5.875 1.121 14.078c-1.047 8.207 4.754 15.735 12.957 16.8 8.219 1.048 15.735-4.757 16.8-12.976" fill="rgb(100%, 42.352941%, 21.568627%)"/><path d="m21.414 10.629-6.328 6.332-1.785-1.785c6.222-6.223 6.84-5.684 8.113-4.547" fill="rgb(100%, 100%, 100%)"/><path d="M15.086 17.11a.15.15 0 0 1-.106-.044l-1.8-1.785a.149.149 0 0 1 0-.21c6.328-6.329 6.988-5.731 8.324-4.532a.124.124 0 0 1 .043.106.124.124 0 0 1-.043.105l-6.328 6.316c-.016.028-.059.043-.09.043m-1.574-1.933 1.574 1.574 6.102-6.105c-1.11-.989-1.86-1.29-7.676 4.53" fill="rgb(100%, 42.352941%, 21.568627%)"/><path d="m16.898 18.773-1.722-1.722 6.328-6.332c1.695 1.71-.84 4.488-4.606 8.054" fill="rgb(100%, 100%, 100%)"/><path d="M16.898 18.926a.14.14 0 0 1-.105-.047l-1.723-1.723c-.03-.031-.03-.062-.03-.105 0-.047.015-.074.046-.106l6.328-6.328a.14.14 0 0 1 .106-.047.14.14 0 0 1 .105.047c.387.356.598.867.582 1.395-.027 1.664-1.918 3.777-5.187 6.867a.232.232 0 0 1-.122.047m-1.511-1.875c.957.972 1.363 1.363 1.511 1.515 2.52-2.402 4.965-4.859 4.98-6.554a1.639 1.639 0 0 0-.39-1.082Zm0 0" fill="rgb(100%, 42.352941%, 21.568627%)"/><path d="m13.332 15.219 1.273 1.277c.032.027.032.059 0 .09-.015.016-.015.016-.03.016l-2.641.566a.255.255 0 0 1-.282-.207.213.213 0 0 1 .059-.195l1.531-1.532c.028-.027.074-.043.09-.015" fill="rgb(100%, 100%, 100%)"/><path d="M11.89 17.32c-.226 0-.39-.18-.39-.406 0-.105.047-.21.121-.285l1.531-1.527a.217.217 0 0 1 .297 0l1.278 1.273c.09.074.09.21 0 .3a.281.281 0 0 1-.106.06l-2.64.57c-.032 0-.06.015-.09.015m1.394-1.933-1.469 1.468c-.039.028-.043.082-.015.122.015.043.058.058.105.043l2.473-.54Zm0 0" fill="rgb(100%, 42.352941%, 21.568627%)"/><path d="M24.758 7.121a2.42 2.42 0 0 0-2.66-.473 2.418 2.418 0 0 0-1.45 2.282c.012.644.282 1.258.75 1.699.793.766 2 .902 2.942.332L22.629 9.25Zm0 0" fill="rgb(100%, 100%, 100%)"/><path d="M23.078 11.457c-1.16 0-2.18-.777-2.488-1.895a2.577 2.577 0 0 1 1.168-2.902 2.578 2.578 0 0 1 3.105.356.124.124 0 0 1 .043.105.12.12 0 0 1-.043.106L22.84 9.25l1.59 1.59a.149.149 0 0 1 0 .21l-.032.032a2.585 2.585 0 0 1-1.32.375m0-4.844a2.257 2.257 0 0 0-2.265 2.278 2.26 2.26 0 0 0 2.28 2.265c.345 0 .692-.074 1.005-.242l-1.575-1.559a.124.124 0 0 1-.043-.105c0-.043.012-.074.043-.105l2.012-2.008a2.211 2.211 0 0 0-1.457-.524" fill="rgb(100%, 42.352941%, 21.568627%)"/><path d="m24.805 7.168-.032-.031L22.63 9.25l1.695 1.695c.164-.105.328-.226.465-.36a2.395 2.395 0 0 0 .016-3.422" fill="rgb(100%, 100%, 100%)"/><path d="M24.34 11.11a.12.12 0 0 1-.106-.044l-1.71-1.71a.12.12 0 0 1-.044-.106c0-.043.012-.074.043-.105l2.13-2.13a.149.149 0 0 1 .21 0l.043.032a2.588 2.588 0 0 1-.476 4.035c-.047.016-.078.027-.09.027m-1.5-1.859 1.512 1.516c.12-.079.23-.168.332-.27.855-.855.898-2.25.074-3.148Zm0 0" fill="rgb(100%, 42.352941%, 21.568627%)"/><path d="M21.668 10.902a.91.91 0 0 0-.652-.273.91.91 0 0 0-.653.273l-5.652 5.653.945.945 5.98-5.25c.391-.328.423-.914.094-1.305-.03-.015-.046-.03-.062-.043" fill="rgb(100%, 100%, 100%)"/><path d="M15.64 17.648a.15.15 0 0 1-.105-.043l-.945-.945a.185.185 0 0 1-.047-.105c0-.04.02-.078.047-.106l5.652-5.652a1.064 1.064 0 0 1 1.516 0c.203.2.316.473.316.758 0 .28-.113.554-.316.758l-.043.042-5.985 5.25c-.015.028-.046.043-.09.043m-.718-1.093.734.734 5.88-5.16c.327-.27.359-.762.089-1.094-.27-.328-.766-.36-1.094-.09a.238.238 0 0 1-.062.047Zm0 0" fill="rgb(100%, 42.352941%, 21.568627%)"/><path d="M10.375 22.988c-.059.032-.09.09-.074.149l.254 1.082a.28.28 0 0 1-.016.23.279.279 0 0 1-.18.145.298.298 0 0 1-.328-.09l-1.648-1.637 5.383-5.383 1.859.032 1.262 1.257c-.301.258-2.117 2.012-6.512 4.215" fill="rgb(100%, 100%, 100%)"/><path d="M10.258 24.742a.419.419 0 0 1-.317-.133L8.31 22.973a.175.175 0 0 1-.047-.106c0-.039.015-.078.047-.101l5.382-5.387a.15.15 0 0 1 .106-.043l1.863.027c.04 0 .078.016.102.047l1.258 1.258a.182.182 0 0 1 .046.121c0 .047-.015.074-.062.106l-.106.09c-1.585 1.394-3.746 2.788-6.433 4.124l.258 1.063a.467.467 0 0 1-.465.57m-1.653-1.875 1.547 1.531c.043.075.133.106.211.059a.162.162 0 0 0 .075-.094.126.126 0 0 0-.016-.117l-.254-1.078a.274.274 0 0 1 .148-.313c2.657-1.335 4.801-2.714 6.375-4.082l-1.109-1.109-1.727-.031Zm0 0" fill="rgb(100%, 42.352941%, 21.568627%)"/><path d="m7.105 24.156 1.29-1.289 1.921 1.922-3.058-.21a.225.225 0 0 1-.164-.09.247.247 0 0 1-.047-.18c0-.063.016-.122.058-.153" fill="rgb(100%, 100%, 100%)"/><path d="m10.316 24.922-3.074-.207c-.226-.016-.375-.211-.36-.438.016-.09.044-.18.118-.238l1.293-1.289a.126.126 0 0 1 .102-.047c.043 0 .078.016.105.047l1.922 1.918c.043.047.058.105.027.164a.135.135 0 0 1-.133.09m-1.921-1.844L7.21 24.262c-.043.031-.043.105 0 .136.016.016.031.032.059.032l2.656.18Zm4.847-4.902a.168.168 0 0 1-.11-.043.168.168 0 0 1-.042-.11.14.14 0 0 1 .047-.105l1.453-1.453a.185.185 0 0 1 .105-.047c.04 0 .078.02.106.047l.945.945c.043.043.059.09.043.149a.16.16 0 0 1-.117.105l-2.402.512Zm1.453-1.395-.988.989 1.617-.344Zm0 0" fill="rgb(100%, 42.352941%, 21.568627%)"/><path d="m15.625 17.516-1.648.359a.225.225 0 0 1-.25-.11.225.225 0 0 1 .039-.265l.914-.914Zm0 0" fill="rgb(100%, 100%, 100%)"/><path d="M13.945 18.023a.337.337 0 0 1-.265-.109.379.379 0 0 1-.11-.266c0-.101.04-.195.106-.27l.914-.913a.185.185 0 0 1 .105-.047c.04 0 .078.02.106.047l.945.945c.043.043.059.09.043.149a.16.16 0 0 1-.117.105l-1.652.36Zm.75-1.242-.808.809c-.032.031-.032.058-.016.09.016.03.043.047.09.047l1.379-.301Zm10.121-8.176c-.027-.09-.132-.132-.222-.105a.182.182 0 0 0-.106.227c0 .015.016.03.016.043a.557.557 0 0 1-.063.57.19.19 0 0 0 .016.242c.078.059.18.043.242-.031.223-.285.27-.645.117-.946" fill="rgb(100%, 42.352941%, 21.568627%)"/></svg>