<svg role="img" viewBox="0 0 32 32" height="32" width="32" xmlns="http://www.w3.org/2000/svg"><path d="M13.23 27.969c-3.75 0-7.503.02-11.257-.008-1.903-.012-2.25-.465-1.82-2.348 1.452-6.386 2.949-12.761 4.37-19.156.38-1.715 1.204-2.473 3.02-2.457 7.504.07 15.008.023 22.516.031 1.882 0 2.199.41 1.777 2.34a3941.603 3941.603 0 0 1-4.16 18.8c-.524 2.345-1.13 2.794-3.567 2.798-3.625.008-7.254.004-10.879 0" fill="rgb(0.784314%, 46.666667%, 74.117647%)"/><path d="M16.703 15.95a93.808 93.808 0 0 0-1.02-1.157c-1.62-1.816-3.105-3.512-4.706-5.246-.735-.793-.97-1.563-.09-2.344.875-.773 1.73-.707 2.527.184 2.23 2.476 4.453 4.957 6.715 7.402.848.914.648 1.535-.281 2.211a1592.352 1592.352 0 0 0-10.672 7.852c-.801.59-1.559.738-2.203-.133-.711-.965-.055-1.54.683-2.078 2.637-1.93 5.27-3.864 7.887-5.817.367-.27.855-.644 1.16-.875M14.5 24.668c-.75 0-1.168-.668-1.168-1.336 0-.664.418-1.332 1.168-1.332h6.332c.75 0 1.168.668 1.168 1.332 0 .668-.418 1.336-1.168 1.336Zm0 0" fill="rgb(98.039216%, 98.039216%, 98.039216%)"/></svg>