<svg role="img" viewBox="0 0 32 32" height="32" width="32" xmlns="http://www.w3.org/2000/svg"><path d="M16 3C8.82 3 3 8.82 3 16s5.82 13 13 13 13-5.82 13-13S23.18 3 16 3m0 4c.816 0 1.25.176 1.25.176L17 14.5h-2l-.25-7.324S15.184 7 16 7m5.719 14.57A8.17 8.17 0 0 1 16 23.977a8.17 8.17 0 0 1-5.719-2.407A8.015 8.015 0 0 1 8 15.852a8.02 8.02 0 0 1 2.406-5.598A7.785 7.785 0 0 1 12 9.039l.586 2.066a5.338 5.338 0 0 0-.715.614 5.794 5.794 0 0 0-1.621 4.133 5.749 5.749 0 0 0 1.746 4.003A5.682 5.682 0 0 0 16 21.477a5.682 5.682 0 0 0 4.004-1.622 5.749 5.749 0 0 0 1.746-4.003 5.794 5.794 0 0 0-1.621-4.133 5.338 5.338 0 0 0-.715-.614L20 9.04a7.785 7.785 0 0 1 1.594 1.215A8.02 8.02 0 0 1 24 15.852a8.015 8.015 0 0 1-2.281 5.718m0 0"/></svg>