<?xml version="1.0" encoding="UTF-8"?>
<svg xmlns="http://www.w3.org/2000/svg" xmlns:xlink="http://www.w3.org/1999/xlink" width="32" height="32" viewBox="0 0 32 32">
<path fill-rule="nonzero" fill="rgb(100%, 54.117647%, 39.607843%)" fill-opacity="1" d="M 30.273438 4.222656 L 16.832031 4.222656 L 16.832031 27.742188 L 30.273438 27.742188 C 30.753906 27.742188 31.105469 27.359375 31.105469 26.914062 L 31.105469 5.085938 C 31.105469 4.609375 30.753906 4.222656 30.273438 4.222656 M 30.273438 4.222656 "/>
<path fill-rule="nonzero" fill="rgb(0%, 0%, 0%)" fill-opacity="1" d="M 16 20.191406 L 27.777344 20.191406 L 27.777344 21.855469 L 16 21.855469 Z M 16 23.550781 L 27.777344 23.550781 L 27.777344 25.25 L 16 25.25 Z M 21.054688 8.449219 C 18.265625 8.453125 16.007812 10.714844 16 13.503906 C 16.007812 16.292969 18.265625 18.554688 21.054688 18.558594 C 23.84375 18.550781 26.105469 16.292969 26.113281 13.503906 L 21.054688 13.503906 Z M 22.71875 6.75 L 22.71875 11.808594 L 27.777344 11.808594 C 27.769531 9.019531 25.511719 6.757812 22.71875 6.75 M 22.71875 6.75 "/>
<path fill-rule="nonzero" fill="rgb(90.196078%, 29.019608%, 9.803922%)" fill-opacity="1" d="M 18.527344 31.136719 L 0.894531 27.777344 L 0.894531 4.222656 L 18.527344 0.863281 Z M 18.527344 31.136719 "/>
<path fill-rule="nonzero" fill="rgb(100%, 100%, 100%)" fill-opacity="1" d="M 9.984375 10.242188 L 6.015625 10.242188 L 6.015625 21.757812 L 8.480469 21.757812 L 8.480469 17.792969 L 9.761719 17.792969 C 11.136719 17.792969 12.222656 17.441406 13.023438 16.703125 C 13.824219 16 14.242188 15.039062 14.242188 13.886719 C 14.242188 11.457031 12.800781 10.242188 9.984375 10.242188 M 9.535156 15.808594 L 8.480469 15.808594 L 8.480469 12.222656 L 9.535156 12.222656 C 10.878906 12.222656 11.550781 12.800781 11.550781 13.984375 C 11.550781 15.230469 10.878906 15.808594 9.535156 15.808594 M 9.535156 15.808594 "/>
</svg>
