<svg role="img" viewBox="0 0 32 32" xmlns="http://www.w3.org/2000/svg"><path d="M30.273 4.223H16.832v23.52h13.441c.48 0 .832-.384.832-.829V5.086c0-.477-.351-.863-.832-.863m0 0" fill="rgb(100%, 54.11765%, 39.607844%)"/><path d="M16 20.191h11.777v1.664H16Zm0 3.36h11.777v1.699H16Zm5.055-15.102A5.066 5.066 0 0 0 16 13.504a5.066 5.066 0 0 0 5.055 5.055 5.066 5.066 0 0 0 5.058-5.055h-5.058Zm1.664-1.699v5.059h5.058A5.07 5.07 0 0 0 22.72 6.75m0 0" fill="rgb(0%, 0%, 0%)"/><path d="M18.527 31.137.895 27.777V4.223L18.527.863Zm0 0" fill="rgb(90.196079%, 29.019609%, 9.803922%)"/><path d="M9.984 10.242H6.016v11.516H8.48v-3.965h1.282c1.375 0 2.46-.352 3.261-1.09.801-.703 1.22-1.664 1.22-2.816 0-2.43-1.442-3.645-4.259-3.645m-.449 5.567H8.48v-3.586h1.055c1.344 0 2.016.578 2.016 1.761 0 1.246-.672 1.825-2.016 1.825m0 0" fill="rgb(100%, 100%, 100%)"/></svg>