<?xml version="1.0" encoding="UTF-8"?>
<svg xmlns="http://www.w3.org/2000/svg" xmlns:xlink="http://www.w3.org/1999/xlink" width="32" height="32" viewBox="0 0 32 32">
<rect x="-3.2" y="-3.2" width="38.4" height="38.4" fill="rgb(100%, 100%, 100%)" fill-opacity="1"/>
<path fill-rule="nonzero" fill="rgb(0%, 0%, 0%)" fill-opacity="1" d="M 32 32 L 0 32 L 0 0 L 32 0 Z M 3.105469 28.800781 L 28.929688 28.800781 L 28.929688 3.199219 L 3.105469 3.199219 M 14.464844 23.679688 L 10.464844 23.679688 L 10.464844 8.320312 L 16.832031 8.320312 C 18.558594 8.320312 19.871094 8.769531 20.800781 9.664062 C 21.726562 10.558594 22.175781 11.808594 22.175781 13.441406 C 22.175781 15.070312 21.726562 16.320312 20.800781 17.214844 C 19.871094 18.113281 18.558594 18.558594 16.832031 18.558594 L 14.464844 18.558594 Z M 14.464844 15.359375 L 15.777344 15.359375 C 17.246094 15.359375 17.984375 14.71875 17.984375 13.441406 C 17.984375 12.160156 17.246094 11.519531 15.777344 11.519531 L 14.464844 11.519531 Z M 14.464844 15.359375 "/>
</svg>
