<?xml version="1.0" encoding="UTF-8"?>
<svg xmlns="http://www.w3.org/2000/svg" xmlns:xlink="http://www.w3.org/1999/xlink" width="32" height="32" viewBox="0 0 32 32">
<path fill-rule="nonzero" fill="rgb(0%, 0%, 0%)" fill-opacity="1" d="M 31.238281 14.140625 L 17.859375 0.761719 C 16.882812 -0.214844 15.164062 -0.238281 14.074219 0.765625 L 0.761719 14.140625 C -0.253906 15.15625 -0.261719 16.8125 0.761719 17.925781 L 14.074219 31.238281 C 14.570312 31.730469 15.246094 32.003906 15.945312 32 C 16.648438 32 17.324219 31.734375 17.859375 31.238281 L 31.171875 17.925781 C 32.234375 16.863281 32.261719 15.164062 31.238281 14.140625 M 20.933594 19.011719 L 16 23.945312 L 11.066406 19.011719 C 10.945312 18.890625 10.878906 18.730469 10.878906 18.558594 C 10.878906 18.390625 10.945312 18.230469 11.066406 18.109375 C 11.316406 17.859375 11.722656 17.859375 11.972656 18.109375 L 15.359375 21.496094 L 15.359375 8.960938 C 15.359375 8.609375 15.648438 8.320312 16 8.320312 C 16.351562 8.320312 16.640625 8.609375 16.640625 8.960938 L 16.640625 21.496094 L 20.027344 18.109375 C 20.277344 17.859375 20.683594 17.859375 20.933594 18.109375 C 21.183594 18.359375 21.183594 18.761719 20.933594 19.011719 M 20.933594 19.011719 "/>
</svg>
