<svg role="img" viewBox="0 0 32 32" height="32" width="32" xmlns="http://www.w3.org/2000/svg"><path d="M31.238 14.14 17.86.763c-.976-.977-2.695-1-3.785.004L.762 14.14c-1.016 1.015-1.024 2.672 0 3.785l13.312 13.312a2.64 2.64 0 0 0 1.871.762c.703 0 1.38-.266 1.914-.762l13.313-13.312c1.062-1.063 1.09-2.762.066-3.785m-10.304 4.872L16 23.945l-4.934-4.933a.637.637 0 0 1 0-.903c.25-.25.657-.25.907 0l3.386 3.387V8.961c0-.352.29-.64.641-.64.352 0 .64.288.64.64v12.535l3.387-3.387c.25-.25.657-.25.907 0s.25.653 0 .903m0 0"/></svg>