<?xml version="1.0" encoding="UTF-8"?>
<svg xmlns="http://www.w3.org/2000/svg" xmlns:xlink="http://www.w3.org/1999/xlink" width="32" height="32" viewBox="0 0 32 32">
<path fill-rule="nonzero" fill="rgb(17.647059%, 21.568627%, 28.235294%)" fill-opacity="1" d="M 29.074219 24.378906 L 18.070312 1.007812 C 17.792969 0.425781 17.21875 0.0390625 16.566406 0.00390625 C 15.894531 -0.0351562 15.296875 0.289062 14.957031 0.835938 L 3.019531 20.167969 C 2.652344 20.773438 2.660156 21.515625 3.042969 22.109375 L 8.875 31.148438 C 9.226562 31.6875 9.828125 32 10.453125 32 C 10.632812 32 10.808594 31.976562 10.984375 31.921875 L 27.921875 26.914062 C 28.441406 26.761719 28.863281 26.394531 29.085938 25.90625 C 29.308594 25.421875 29.304688 24.863281 29.074219 24.378906 Z M 26.613281 25.382812 L 12.242188 29.632812 C 11.804688 29.761719 11.382812 29.382812 11.472656 28.941406 L 16.609375 4.355469 C 16.703125 3.894531 17.339844 3.820312 17.539062 4.246094 L 27.046875 24.433594 C 27.222656 24.8125 27.019531 25.261719 26.613281 25.382812 Z M 26.613281 25.382812 "/>
</svg>
