<svg role="img" viewBox="0 0 32 32" height="32" width="32" xmlns="http://www.w3.org/2000/svg"><path d="M1.793 0C.832 0 0 .832 0 1.793V4.48h28.16V1.793C28.16.832 27.328 0 26.367 0ZM0 5.762v19.84c0 .382.254.636.64.636h21.122v.64a2.563 2.563 0 0 0-1.812 4.375c.48.477 1.132.747 1.812.747H28.8c.023 0 .043-.004.062-.004A3.21 3.21 0 0 0 32 28.801V19.84c0-.352-.29-.64-.64-.64h-3.2V5.761Zm4.48 3.84h2.56v1.277H4.48Zm4.48 0h14.72v1.277H8.96ZM4.48 12.8h2.56v1.277H4.48Zm4.48 0h14.72v1.277H8.96ZM4.48 16h2.56v1.281H4.48Zm4.48 0h14.72v1.281H8.96Zm-4.48 3.2h2.56v1.28H4.48Zm4.48 0h11.52v1.28H8.96Zm14.08 1.28h7.679v8.32a1.92 1.92 0 0 1-1.918 1.919c-.762 0-1.281-.516-1.281-1.278 0-.765.52-1.28 1.28-1.28.024 0 .044-.005.063-.005a.646.646 0 0 0 .395-.195l.039-.05c.012-.016.027-.032.039-.052a.403.403 0 0 0 .055-.117.6.6 0 0 0 .039-.25c0-.023-.004-.043-.004-.062a.62.62 0 0 0-.055-.184c-.012-.02-.02-.039-.031-.055a.59.59 0 0 0-.227-.222c-.02-.012-.039-.02-.054-.032-.02-.011-.043-.015-.063-.023a.557.557 0 0 0-.195-.035h-5.762Zm-1.278 7.68h4.87c-.226.383-.394.8-.394 1.281 0 .477.168.895.395 1.278h-4.871c-.766 0-1.282-.516-1.282-1.278 0-.765.516-1.28 1.282-1.28m0 0"/></svg>