<svg role="img" viewBox="0 0 32 32" xmlns="http://www.w3.org/2000/svg"><path d="M27.617 26.61c5.899-6.454 5.445-16.47-1.008-22.368C20.152-1.656 10.141-1.203 4.242 5.25c-5.898 6.457-5.449 16.469 1.008 22.367 6.453 5.899 16.469 5.45 22.367-1.008m0 0" fill="rgb(14.117648%, 61.56863%, 94.509804%)" fill-rule="evenodd"/><path d="m14.984 9.2 3.973-.52-3.867 8.726q1.019-.076 1.996-.691a8.3 8.3 0 0 0 1.805-1.543 10.4 10.4 0 0 0 1.425-2.063 9.6 9.6 0 0 0 .86-2.234c.105-.453.156-.89.144-1.309 0-.39-.113-.77-.324-1.097q-.314-.47-.957-.758-.639-.288-1.734-.29-1.283 0-2.524.423a8 8 0 0 0-2.3 1.215 7.9 7.9 0 0 0-1.84 1.984 8.1 8.1 0 0 0-1.125 2.703 5 5 0 0 0-.157.797q-.028.25-.015.5.015.194.054.3.037.101.063.208-1.33-.001-1.945-.535-.613-.538-.301-1.868.313-1.387 1.426-2.64A11.8 11.8 0 0 1 12.277 8.3a14 14 0 0 1 3.348-1.516q1.815-.562 3.54-.562c1.01 0 1.858.14 2.55.43q1.031.432 1.605 1.136.573.708.72 1.649a5.1 5.1 0 0 1-.09 1.957q-.288 1.23-1.087 2.472a10.1 10.1 0 0 1-4.758 3.88 8.8 8.8 0 0 1-3.304.628h-.13l-3.32 7.445H7.59Zm0 0" fill="rgb(100%, 100%, 100%)"/></svg>