<?xml version="1.0" encoding="UTF-8"?>
<svg xmlns="http://www.w3.org/2000/svg" xmlns:xlink="http://www.w3.org/1999/xlink" width="32" height="32" viewBox="0 0 32 32">
<path fill-rule="evenodd" fill="rgb(14.117647%, 61.568627%, 94.509804%)" fill-opacity="1" d="M 27.617188 26.609375 C 33.515625 20.15625 33.0625 10.140625 26.609375 4.242188 C 20.152344 -1.65625 10.140625 -1.203125 4.242188 5.25 C -1.65625 11.707031 -1.207031 21.71875 5.25 27.617188 C 11.703125 33.515625 21.71875 33.066406 27.617188 26.609375 M 27.617188 26.609375 "/>
<path fill-rule="nonzero" fill="rgb(100%, 100%, 100%)" fill-opacity="1" d="M 14.984375 9.199219 L 18.957031 8.679688 L 15.089844 17.40625 C 15.769531 17.355469 16.433594 17.125 17.085938 16.714844 C 17.757812 16.289062 18.367188 15.769531 18.890625 15.171875 C 19.449219 14.542969 19.925781 13.851562 20.316406 13.109375 C 20.695312 12.402344 20.984375 11.652344 21.175781 10.875 C 21.28125 10.421875 21.332031 9.984375 21.320312 9.566406 C 21.320312 9.175781 21.207031 8.796875 20.996094 8.46875 C 20.785156 8.15625 20.46875 7.902344 20.039062 7.710938 C 19.613281 7.519531 19.035156 7.421875 18.304688 7.421875 C 17.449219 7.421875 16.609375 7.5625 15.78125 7.84375 C 14.953125 8.121094 14.175781 8.53125 13.480469 9.058594 C 12.757812 9.609375 12.136719 10.28125 11.640625 11.042969 C 11.105469 11.867188 10.722656 12.785156 10.515625 13.746094 C 10.441406 14.007812 10.390625 14.273438 10.359375 14.542969 C 10.339844 14.710938 10.335938 14.875 10.34375 15.042969 C 10.355469 15.171875 10.371094 15.273438 10.398438 15.34375 C 10.421875 15.410156 10.445312 15.480469 10.460938 15.550781 C 9.574219 15.550781 8.925781 15.371094 8.515625 15.015625 C 8.105469 14.65625 8.007812 14.035156 8.214844 13.148438 C 8.421875 12.222656 8.898438 11.34375 9.640625 10.507812 C 10.40625 9.648438 11.296875 8.902344 12.277344 8.300781 C 13.320312 7.648438 14.445312 7.136719 15.625 6.785156 C 16.835938 6.410156 18.015625 6.222656 19.164062 6.222656 C 20.175781 6.222656 21.023438 6.363281 21.714844 6.652344 C 22.402344 6.941406 22.9375 7.320312 23.320312 7.789062 C 23.703125 8.261719 23.941406 8.808594 24.039062 9.4375 C 24.136719 10.089844 24.105469 10.753906 23.949219 11.394531 C 23.757812 12.214844 23.394531 13.039062 22.863281 13.867188 C 21.71875 15.621094 20.054688 16.976562 18.105469 17.746094 C 17.054688 18.164062 15.933594 18.375 14.800781 18.375 L 14.671875 18.375 L 11.351562 25.820312 L 7.589844 25.820312 Z M 14.984375 9.199219 "/>
</svg>
