<svg role="img" viewBox="0 0 32 32" height="32" width="32" xmlns="http://www.w3.org/2000/svg"><path d="M27.617 26.61c5.899-6.454 5.445-16.47-1.008-22.368C20.152-1.656 10.141-1.203 4.242 5.25c-5.898 6.457-5.449 16.469 1.008 22.367 6.453 5.899 16.469 5.45 22.367-1.008m0 0" fill="rgb(14.117647%, 61.568627%, 94.509804%)" fill-rule="evenodd"/><path d="m14.984 9.2 3.973-.52-3.867 8.726c.68-.05 1.344-.281 1.996-.691a8.318 8.318 0 0 0 1.805-1.543 10.382 10.382 0 0 0 1.425-2.063 9.578 9.578 0 0 0 .86-2.234c.105-.453.156-.89.144-1.309 0-.39-.113-.77-.324-1.097-.21-.313-.527-.567-.957-.758-.426-.191-1.004-.29-1.734-.29-.856 0-1.696.141-2.524.423a8.024 8.024 0 0 0-2.3 1.215 7.943 7.943 0 0 0-1.84 1.984 8.105 8.105 0 0 0-1.125 2.703 5.042 5.042 0 0 0-.157.797c-.02.168-.023.332-.015.5.011.129.027.23.054.3.024.067.047.137.063.208-.887 0-1.535-.18-1.945-.535-.41-.36-.508-.98-.301-1.868.207-.925.683-1.804 1.426-2.64A11.807 11.807 0 0 1 12.277 8.3a13.686 13.686 0 0 1 3.348-1.516c1.21-.375 2.39-.562 3.54-.562 1.01 0 1.858.14 2.55.43.687.288 1.223.667 1.605 1.136.383.473.621 1.02.72 1.649a5.08 5.08 0 0 1-.09 1.957c-.192.82-.555 1.644-1.087 2.472a10.118 10.118 0 0 1-4.758 3.88 8.936 8.936 0 0 1-3.304.628h-.13l-3.32 7.445H7.59Zm0 0" fill="rgb(100%, 100%, 100%)"/></svg>