<svg role="img" viewBox="0 0 32 32" xmlns="http://www.w3.org/2000/svg"><path d="M-3.2-3.2h38.4v38.4H-3.2z" fill="rgb(100%, 100%, 100%)"/><path d="M32 32H0V0h32ZM3.105 28.8H28.93V3.2H3.105" fill="rgb(40.000001%, 40.000001%, 40.000001%)"/><path d="M15.648 24.29c-2.015-.067-3.265-.673-3.585-1.731l-.032-.125v-2.051c0-2.367 0-2.399.13-2.781.222-.672.769-1.122 1.597-1.313l.195-.031h2.336c1.664 0 2.367 0 2.43-.035.48-.094.77-.192 1.058-.414.352-.258.637-.704.735-1.184.097-.352.097-.32.097-1.57v-1.153h1.664l.16.036c.864.253 1.505 1.054 1.758 2.304.098.477.098.512.098 1.727 0 1.183 0 1.183-.098 1.597-.093.387-.191.707-.351 1.024-.32.64-.8 1.09-1.406 1.281-.352.129-.067.098-3.426.129h-3.04v.578H20v2.078c-.031.13-.062.29-.16.45s-.352.414-.512.542c-.543.352-1.375.575-2.465.641Zm2.786-1.282c.382-.063.671-.45.605-.832a.75.75 0 0 0-.605-.61.743.743 0 0 0-.832.832c.062.356.351.579.703.61Zm-8.641-2.945a2.1 2.1 0 0 1-1.219-.766c-.605-.738-.894-1.985-.863-3.555.031-.957.16-1.695.48-2.3.383-.801.961-1.25 1.727-1.41.164-.032.195-.032 3.137-.032h3.008c.035 0 .035-.031.035-.29v-.284h-4.035v-1.059c0-1.152 0-1.117.097-1.344.352-.734 1.344-1.183 2.945-1.312.125 0 .415-.031.704-.031 1.793-.032 3.07.289 3.777.93.062.062.156.19.223.222.093.129.222.383.289.578l.03.125v2.176c0 2.016 0 2.176-.03 2.305a2.4 2.4 0 0 1-.196.574c-.254.48-.703.836-1.312.996-.383.094-.223.094-2.781.125-2.563 0-2.399 0-2.754.098-.703.191-1.215.734-1.407 1.504-.097.351-.097.32-.097 1.566v1.183h-.766c-.703.036-.93.036-.992 0m4.254-9.727c.289-.129.48-.48.418-.77-.067-.285-.258-.511-.512-.574a.716.716 0 0 0-.93.574c-.062.352.13.707.48.801.063.031.13.031.255.031.16 0 .195 0 .289-.062m0 0" fill="rgb(99.607843%, 81.960785%, 25.882354%)"/><path d="M9.793 20.063a2.1 2.1 0 0 1-1.219-.766c-.605-.738-.894-1.985-.863-3.555.031-.957.16-1.695.48-2.3.383-.801.961-1.25 1.727-1.41.164-.032.195-.032 3.137-.032h3.008c.035 0 .035-.031.035-.29v-.284h-4.035v-1.059c0-1.152 0-1.117.097-1.344.352-.734 1.344-1.183 2.945-1.312.125 0 .415-.031.704-.031 1.793-.032 3.07.289 3.777.93.062.062.156.19.223.222.093.129.222.383.289.578l.03.125v2.176c0 2.016 0 2.176-.03 2.305a2.4 2.4 0 0 1-.196.574c-.254.48-.703.836-1.312.996-.383.094-.223.094-2.781.125-2.563 0-2.399 0-2.754.098-.703.191-1.215.734-1.407 1.504-.097.351-.097.32-.097 1.566v1.183h-.766c-.703.036-.93.036-.992 0m4.254-9.727c.289-.129.48-.48.418-.77-.067-.285-.258-.511-.512-.574a.716.716 0 0 0-.93.574c-.062.352.13.707.48.801.063.031.13.031.255.031.16 0 .195 0 .289-.062m0 0" fill="rgb(20.784314%, 44.313726%, 63.921571%)"/></svg>