<?xml version="1.0" encoding="UTF-8"?>
<svg xmlns="http://www.w3.org/2000/svg" xmlns:xlink="http://www.w3.org/1999/xlink" width="32" height="32" viewBox="0 0 32 32">
<rect x="-3.2" y="-3.2" width="38.4" height="38.4" fill="rgb(100%, 100%, 100%)" fill-opacity="1"/>
<path fill-rule="nonzero" fill="rgb(40.000001%, 40.000001%, 40.000001%)" fill-opacity="1" d="M 32 32 L 0 32 L 0 0 L 32 0 Z M 3.105469 28.800781 L 28.929688 28.800781 L 28.929688 3.199219 L 3.105469 3.199219 "/>
<path fill-rule="nonzero" fill="rgb(99.607843%, 81.960785%, 25.882354%)" fill-opacity="1" d="M 15.648438 24.289062 C 13.632812 24.222656 12.382812 23.617188 12.0625 22.558594 L 12.03125 22.433594 L 12.03125 20.382812 C 12.03125 18.015625 12.03125 17.984375 12.160156 17.601562 C 12.382812 16.929688 12.929688 16.480469 13.757812 16.289062 L 13.953125 16.257812 L 16.289062 16.257812 C 17.953125 16.257812 18.65625 16.257812 18.71875 16.222656 C 19.199219 16.128906 19.488281 16.03125 19.777344 15.808594 C 20.128906 15.550781 20.414062 15.105469 20.511719 14.625 C 20.609375 14.273438 20.609375 14.304688 20.609375 13.054688 L 20.609375 11.902344 L 22.273438 11.902344 L 22.433594 11.9375 C 23.296875 12.191406 23.9375 12.992188 24.191406 14.242188 C 24.289062 14.71875 24.289062 14.753906 24.289062 15.96875 C 24.289062 17.152344 24.289062 17.152344 24.191406 17.566406 C 24.097656 17.953125 24 18.273438 23.839844 18.589844 C 23.519531 19.230469 23.039062 19.679688 22.433594 19.871094 C 22.082031 20 22.367188 19.96875 19.007812 20 L 15.96875 20 L 15.96875 20.578125 L 20 20.578125 L 20 22.65625 C 19.96875 22.785156 19.9375 22.945312 19.839844 23.105469 C 19.742188 23.265625 19.488281 23.519531 19.328125 23.648438 C 18.785156 24 17.953125 24.222656 16.863281 24.289062 Z M 18.433594 23.007812 C 18.816406 22.945312 19.105469 22.558594 19.039062 22.175781 C 18.976562 21.855469 18.753906 21.632812 18.433594 21.566406 C 17.953125 21.503906 17.535156 21.917969 17.601562 22.398438 C 17.664062 22.753906 17.953125 22.976562 18.304688 23.007812 Z M 9.792969 20.0625 C 9.308594 19.960938 8.878906 19.6875 8.574219 19.296875 C 7.96875 18.558594 7.679688 17.3125 7.710938 15.742188 C 7.742188 14.785156 7.871094 14.046875 8.191406 13.441406 C 8.574219 12.640625 9.152344 12.191406 9.917969 12.03125 C 10.082031 12 10.113281 12 13.054688 12 L 16.0625 12 C 16.097656 12 16.097656 11.96875 16.097656 11.710938 L 16.097656 11.425781 L 12.0625 11.425781 L 12.0625 10.367188 C 12.0625 9.214844 12.0625 9.25 12.160156 9.023438 C 12.511719 8.289062 13.503906 7.839844 15.105469 7.710938 C 15.230469 7.710938 15.519531 7.679688 15.808594 7.679688 C 17.601562 7.648438 18.878906 7.96875 19.585938 8.609375 C 19.648438 8.671875 19.742188 8.800781 19.808594 8.832031 C 19.902344 8.960938 20.03125 9.214844 20.097656 9.410156 L 20.128906 9.535156 L 20.128906 11.710938 C 20.128906 13.726562 20.128906 13.886719 20.097656 14.015625 C 20.0625 14.207031 19.96875 14.464844 19.902344 14.589844 C 19.648438 15.070312 19.199219 15.425781 18.589844 15.585938 C 18.207031 15.679688 18.367188 15.679688 15.808594 15.710938 C 13.246094 15.710938 13.410156 15.710938 13.054688 15.808594 C 12.351562 16 11.839844 16.542969 11.648438 17.3125 C 11.550781 17.664062 11.550781 17.632812 11.550781 18.878906 L 11.550781 20.0625 L 10.785156 20.0625 C 10.082031 20.097656 9.855469 20.097656 9.792969 20.0625 Z M 14.046875 10.335938 C 14.335938 10.207031 14.527344 9.855469 14.464844 9.566406 C 14.398438 9.28125 14.207031 9.054688 13.953125 8.992188 C 13.535156 8.863281 13.085938 9.121094 13.023438 9.566406 C 12.960938 9.917969 13.152344 10.273438 13.503906 10.367188 C 13.566406 10.398438 13.632812 10.398438 13.757812 10.398438 C 13.917969 10.398438 13.953125 10.398438 14.046875 10.335938 Z M 14.046875 10.335938 "/>
<path fill-rule="nonzero" fill="rgb(20.784314%, 44.313726%, 63.921571%)" fill-opacity="1" d="M 9.792969 20.0625 C 9.308594 19.960938 8.878906 19.6875 8.574219 19.296875 C 7.96875 18.558594 7.679688 17.3125 7.710938 15.742188 C 7.742188 14.785156 7.871094 14.046875 8.191406 13.441406 C 8.574219 12.640625 9.152344 12.191406 9.917969 12.03125 C 10.082031 12 10.113281 12 13.054688 12 L 16.0625 12 C 16.097656 12 16.097656 11.96875 16.097656 11.710938 L 16.097656 11.425781 L 12.0625 11.425781 L 12.0625 10.367188 C 12.0625 9.214844 12.0625 9.25 12.160156 9.023438 C 12.511719 8.289062 13.503906 7.839844 15.105469 7.710938 C 15.230469 7.710938 15.519531 7.679688 15.808594 7.679688 C 17.601562 7.648438 18.878906 7.96875 19.585938 8.609375 C 19.648438 8.671875 19.742188 8.800781 19.808594 8.832031 C 19.902344 8.960938 20.03125 9.214844 20.097656 9.410156 L 20.128906 9.535156 L 20.128906 11.710938 C 20.128906 13.726562 20.128906 13.886719 20.097656 14.015625 C 20.0625 14.207031 19.96875 14.464844 19.902344 14.589844 C 19.648438 15.070312 19.199219 15.425781 18.589844 15.585938 C 18.207031 15.679688 18.367188 15.679688 15.808594 15.710938 C 13.246094 15.710938 13.410156 15.710938 13.054688 15.808594 C 12.351562 16 11.839844 16.542969 11.648438 17.3125 C 11.550781 17.664062 11.550781 17.632812 11.550781 18.878906 L 11.550781 20.0625 L 10.785156 20.0625 C 10.082031 20.097656 9.855469 20.097656 9.792969 20.0625 Z M 14.046875 10.335938 C 14.335938 10.207031 14.527344 9.855469 14.464844 9.566406 C 14.398438 9.28125 14.207031 9.054688 13.953125 8.992188 C 13.535156 8.863281 13.085938 9.121094 13.023438 9.566406 C 12.960938 9.917969 13.152344 10.273438 13.503906 10.367188 C 13.566406 10.398438 13.632812 10.398438 13.757812 10.398438 C 13.917969 10.398438 13.953125 10.398438 14.046875 10.335938 Z M 14.046875 10.335938 "/>
</svg>
