<svg role="img" viewBox="0 0 32.168 32" xmlns="http://www.w3.org/2000/svg"><defs><linearGradient gradientTransform="translate(-13.091 -19.655)scale(.29132)" gradientUnits="userSpaceOnUse" id="python_svg__a" x1="55.549" x2="110.149" y1="77.07" y2="131.853"><stop offset="0" stop-color="rgb(21.960784%, 49.411765%, 72.156864%)"/><stop offset="1" stop-color="rgb(21.176471%, 41.176471%, 58.039218%)"/></linearGradient><linearGradient gradientTransform="translate(-13.091 -19.655)scale(.29132)" gradientUnits="userSpaceOnUse" id="python_svg__b" x1="89.137" x2="147.777" y1="111.921" y2="168.101"><stop offset="0" stop-color="rgb(100%, 87.843138%, 32.156864%)"/><stop offset="1" stop-color="rgb(100%, 76.47059%, 19.215687%)"/></linearGradient></defs><path d="M15.969 0C7.8 0 8.313 3.543 8.313 3.543l.007 3.668h7.793v1.101H5.227S0 7.72 0 15.958c0 8.242 4.563 7.95 4.563 7.95H7.28v-3.825s-.144-4.559 4.489-4.559h7.73s4.344.07 4.344-4.199V4.27S24.5 0 15.969 0m-4.297 2.469a1.4 1.4 0 1 1-.004 2.8 1.4 1.4 0 0 1 .004-2.8m0 0" fill="url(#python_svg__a)"/><path d="M16.2 32c8.167 0 7.655-3.543 7.655-3.543l-.007-3.668h-7.793v-1.102H26.94s5.227.594 5.227-7.644c0-8.242-4.563-7.95-4.563-7.95h-2.722v3.825s.148 4.559-4.488 4.559h-7.727s-4.344-.07-4.344 4.199v7.054S7.664 32 16.2 32m4.297-2.469a1.38 1.38 0 0 1-.988-.41 1.4 1.4 0 0 1-.414-.988c0-.371.148-.73.41-.992a1.404 1.404 0 0 1 2.395.992c0 .77-.63 1.398-1.403 1.398m0 0" fill="url(#python_svg__b)"/></svg>