<svg role="img" viewBox="0 0 32 32" height="32" width="32" xmlns="http://www.w3.org/2000/svg"><path d="M3.84 0c-.352 0-.64.29-.64.64V28.8a.64.64 0 0 0 .64.641h21.762a.638.638 0 0 0 .636-.64V.64a.64.64 0 0 0-.636-.64Zm23.68 2.559V28.8a1.921 1.921 0 0 1-1.918 1.918H5.762v.64c0 .356.285.641.636.641H28.16c.356 0 .64-.285.64-.64V3.2a.641.641 0 0 0-.64-.641Zm-12.68 4.16c2.496 0 4.16 1.597 4.16 3.902 0 1.086-.371 1.93-1.14 3.02l-1.54 2.097c-.449.64-.582.973-.582 1.742v.7c0 .129-.066.261-.258.261h-1.52c-.065 0-.198-.132-.198-.261v-.961c0-.895.187-1.418.699-2.059L16 13.06c.832-1.086 1.078-1.606 1.078-2.438 0-1.281-.894-2.101-2.238-2.101-1.281 0-2.106.753-2.36 2.16 0 .129-.132.199-.261.199l-1.457-.258c-.13 0-.203-.133-.203-.262.32-2.175 1.914-3.64 4.28-3.64m-.88 13.441h1.72c.129 0 .261.067.261.262v1.976c0 .13-.07.262-.261.262h-1.72c-.128 0-.26-.066-.26-.262v-1.976c0-.129.066-.262.26-.262m0 0"/></svg>