<?xml version="1.0" encoding="UTF-8"?>
<svg xmlns="http://www.w3.org/2000/svg" xmlns:xlink="http://www.w3.org/1999/xlink" width="32" height="32" viewBox="0 0 32 32">
<path fill-rule="nonzero" fill="rgb(0%, 0%, 0%)" fill-opacity="1" d="M 16 3.199219 C 8.929688 3.199219 3.199219 8.929688 3.199219 16 C 3.199219 23.070312 8.929688 28.800781 16 28.800781 C 23.070312 28.800781 28.800781 23.070312 28.800781 16 C 28.800781 12.847656 27.65625 9.96875 25.769531 7.738281 L 24.253906 9.253906 C 25.816406 11.15625 26.667969 13.539062 26.667969 16 C 26.667969 21.882812 21.882812 26.667969 16 26.667969 C 14.226562 26.667969 12.484375 26.226562 10.925781 25.382812 C 10.691406 25.515625 10.425781 25.601562 10.132812 25.601562 C 9.644531 25.601562 9.1875 25.378906 8.882812 25 C 8.578125 24.617188 8.464844 24.121094 8.574219 23.644531 C 6.503906 21.640625 5.332031 18.882812 5.332031 16 C 5.332031 10.835938 9.019531 6.523438 13.898438 5.542969 C 14.042969 4.832031 14.652344 4.304688 15.378906 4.269531 C 16.105469 4.230469 16.765625 4.6875 16.984375 5.382812 C 19.160156 5.582031 21.144531 6.433594 22.746094 7.746094 L 24.261719 6.230469 C 21.953125 4.269531 19.027344 3.195312 16 3.199219 M 16.953125 6.449219 C 16.726562 7.035156 16.175781 7.429688 15.550781 7.464844 C 14.925781 7.496094 14.339844 7.160156 14.050781 6.601562 C 9.6875 7.503906 6.398438 11.375 6.398438 16 C 6.398438 18.621094 7.457031 21 9.167969 22.734375 C 9.441406 22.515625 9.78125 22.398438 10.132812 22.398438 C 11.015625 22.398438 11.734375 23.117188 11.734375 24 C 11.734375 24.191406 11.695312 24.371094 11.632812 24.539062 C 12.984375 25.238281 14.480469 25.601562 16 25.601562 C 21.292969 25.601562 25.601562 21.292969 25.601562 16 C 25.601562 13.820312 24.859375 11.710938 23.492188 10.015625 L 21.210938 12.296875 C 21.984375 13.375 22.398438 14.671875 22.398438 16 C 22.398438 17.890625 21.570312 19.589844 20.261719 20.761719 C 20.261719 20.773438 20.265625 20.785156 20.265625 20.800781 C 20.265625 21.386719 19.945312 21.925781 19.429688 22.207031 C 18.914062 22.488281 18.289062 22.460938 17.796875 22.140625 C 15.863281 22.703125 13.777344 22.324219 12.164062 21.117188 C 10.554688 19.910156 9.605469 18.015625 9.601562 16 C 9.601562 12.464844 12.464844 9.601562 16 9.601562 C 17.328125 9.601562 18.621094 10.015625 19.703125 10.789062 L 21.984375 8.507812 C 20.542969 7.347656 18.796875 6.632812 16.953125 6.449219 M 16 10.667969 C 13.054688 10.667969 10.667969 13.054688 10.667969 16 C 10.671875 18.945312 13.054688 21.328125 16 21.332031 C 16.378906 21.332031 16.753906 21.289062 17.125 21.207031 C 17.085938 21.074219 17.066406 20.9375 17.066406 20.800781 C 17.066406 19.917969 17.785156 19.199219 18.667969 19.199219 C 19.125 19.199219 19.535156 19.394531 19.824219 19.703125 C 21.570312 17.914062 21.832031 15.144531 20.445312 13.0625 L 18.054688 15.453125 C 18.105469 15.632812 18.132812 15.816406 18.132812 16 C 18.132812 16.566406 17.910156 17.109375 17.507812 17.507812 C 17.109375 17.910156 16.566406 18.132812 16 18.132812 C 15.433594 18.132812 14.890625 17.910156 14.492188 17.507812 C 14.089844 17.109375 13.867188 16.566406 13.867188 16 C 13.867188 15.433594 14.089844 14.890625 14.492188 14.492188 C 14.890625 14.089844 15.433594 13.867188 16 13.867188 C 16.183594 13.867188 16.367188 13.894531 16.546875 13.945312 L 18.9375 11.554688 C 18.066406 10.976562 17.046875 10.667969 16 10.667969 M 16 10.667969 "/>
</svg>
