<svg role="img" viewBox="0 0 32 32" height="32" width="32" xmlns="http://www.w3.org/2000/svg"><path d="M16 3.2C8.93 3.2 3.2 8.93 3.2 16S8.93 28.8 16 28.8 28.8 23.07 28.8 16c0-3.152-1.144-6.031-3.03-8.262l-1.516 1.516A10.628 10.628 0 0 1 26.668 16c0 5.883-4.785 10.668-10.668 10.668a10.65 10.65 0 0 1-5.074-1.285c-.235.133-.5.219-.793.219a1.6 1.6 0 0 1-1.559-1.957A10.636 10.636 0 0 1 5.332 16c0-5.164 3.688-9.477 8.566-10.457a1.596 1.596 0 0 1 3.086-.16c2.176.199 4.16 1.05 5.762 2.363l1.516-1.516A12.746 12.746 0 0 0 16 3.2m.953 3.25a1.594 1.594 0 0 1-2.902.152C9.688 7.504 6.398 11.375 6.398 16c0 2.621 1.059 5 2.77 6.734a1.57 1.57 0 0 1 .965-.336c.883 0 1.601.72 1.601 1.602 0 .191-.039.371-.101.54A9.504 9.504 0 0 0 16 25.601c5.293 0 9.602-4.309 9.602-9.602a9.537 9.537 0 0 0-2.11-5.984l-2.281 2.28A6.36 6.36 0 0 1 22.398 16c0 1.89-.828 3.59-2.136 4.762 0 .011.004.023.004.039a1.597 1.597 0 0 1-2.47 1.34A6.402 6.402 0 0 1 9.602 16 6.402 6.402 0 0 1 16 9.6a6.36 6.36 0 0 1 3.703 1.188l2.281-2.281a9.523 9.523 0 0 0-5.03-2.059M16 10.667A5.336 5.336 0 0 0 10.668 16 5.336 5.336 0 0 0 16 21.332a5.09 5.09 0 0 0 1.125-.125 1.546 1.546 0 0 1-.059-.406c0-.883.72-1.602 1.602-1.602.457 0 .867.196 1.156.504a5.301 5.301 0 0 0 .621-6.64l-2.39 2.39a2.1 2.1 0 0 1 .078.547A2.13 2.13 0 0 1 16 18.133 2.13 2.13 0 0 1 13.867 16 2.13 2.13 0 0 1 16 13.867a2.1 2.1 0 0 1 .547.078l2.39-2.39A5.301 5.301 0 0 0 16 10.668m0 0"/></svg>