<svg role="img" viewBox="0 0 32 32" height="32" width="32" xmlns="http://www.w3.org/2000/svg"><path d="M5.762 2.559a3.202 3.202 0 0 0-3.203 3.203v20.476a3.202 3.202 0 0 0 3.203 3.203h20.476a3.202 3.202 0 0 0 3.203-3.203V5.762a3.202 3.202 0 0 0-3.203-3.203Zm4.797 4.418c1.152 0 1.984.445 2.625 1.406.64.96.894 2.305.894 4.035 0 1.789-.32 3.133-.894 4.031-.575.895-1.473 1.344-2.625 1.344-1.086 0-1.918-.45-2.559-1.41-.574-.961-.895-2.238-.895-4.031 0-1.793.32-3.137.895-4.032.574-.894 1.473-1.343 2.559-1.343m9.472.062h1.73L11.97 24.961h-1.73ZM10.56 8.512c-.637 0-1.086.32-1.407.96-.254.575-.449 1.598-.449 2.946 0 1.344.129 2.3.45 3.004.32.64.769 1.027 1.406 1.027 1.28 0 1.921-1.344 1.921-3.969s-.64-3.968-1.921-3.968m10.882 5.695c1.086 0 1.985.45 2.559 1.344.64.96.96 2.304.96 4.031 0 1.793-.32 3.137-.898 4.035-.574.895-1.468 1.344-2.62 1.344-1.09 0-1.985-.45-2.563-1.41-.574-.895-.895-2.238-.895-3.969 0-1.789.32-3.133.895-4.031.578-.895 1.473-1.344 2.562-1.344m0 1.473c-.707 0-1.152.32-1.41.96-.32.641-.449 1.598-.449 2.942 0 1.348.129 2.305.45 3.012.32.64.769.957 1.41.957.636 0 1.152-.317 1.472-.957.32-.64.445-1.664.445-3.012 0-1.344-.125-2.3-.445-2.941s-.77-.961-1.473-.961m0 0"/></svg>