<svg role="img" viewBox="0 0 32 32" xmlns="http://www.w3.org/2000/svg"><path d="m.734 19.79 7.907 3.136-.418-11.555-.192.031Zm8.48-9.763v.192l11.49-1.184-4.192-7.422ZM.513 20.844l3.074 9.633 5.437-6.274ZM17.535 1.262l4.512 7.965 5.441-6.27Zm-7.55 9.918 5.886 5.12 5.473-6.304Zm-.672.8.414 11.422 5.472-6.3ZM4.8 30.668l24.926.098-19.743-6.082Zm5.953-6.879 18.812 5.793L16 17.805Zm5.918-6.785 13.57 11.808-8.355-17.792Zm5.984-6.879 8.832 18.848L27.84 4.14Zm0 0" fill="rgb(82.745099%, 20%, 18.039216%)"/></svg>