<?xml version="1.0" encoding="UTF-8"?>
<svg xmlns="http://www.w3.org/2000/svg" xmlns:xlink="http://www.w3.org/1999/xlink" width="32" height="32" viewBox="0 0 32 32">
<path fill-rule="nonzero" fill="rgb(82.745099%, 20%, 18.039216%)" fill-opacity="1" d="M 0.734375 19.789062 L 8.640625 22.925781 L 8.222656 11.371094 L 8.03125 11.402344 Z M 9.214844 10.027344 L 9.214844 10.21875 L 20.703125 9.035156 L 16.511719 1.613281 Z M 0.511719 20.84375 L 3.585938 30.476562 L 9.023438 24.203125 Z M 17.535156 1.261719 L 22.046875 9.226562 L 27.488281 2.957031 Z M 9.984375 11.179688 L 15.871094 16.300781 L 21.34375 9.996094 Z M 9.3125 11.980469 L 9.726562 23.402344 L 15.199219 17.101562 Z M 4.800781 30.667969 L 29.726562 30.765625 L 9.984375 24.683594 Z M 10.753906 23.789062 L 29.566406 29.582031 L 16 17.804688 Z M 16.671875 17.003906 L 30.242188 28.8125 L 21.886719 11.019531 Z M 22.65625 10.125 L 31.488281 28.972656 L 27.839844 4.140625 Z M 22.65625 10.125 "/>
</svg>
