<svg role="img" viewBox="0 0 32 32" height="32" width="32" xmlns="http://www.w3.org/2000/svg"><path d="M28.8 16.64a.639.639 0 0 1-.64-.64c0-.355.285-.64.64-.64h1.895a14.596 14.596 0 0 0-2.414-7.458l1.934-2.125a1.925 1.925 0 0 0-.117-2.714c-.782-.715-2-.66-2.715.12l-1.637 1.805a14.643 14.643 0 0 0-9.105-3.68V3.2a.641.641 0 0 1-1.282 0V1.297C7.75 1.625 1.625 7.75 1.297 15.359h1.902c.356 0 .64.286.64.641 0 .355-.284.64-.64.64H1.297c.328 7.61 6.453 13.735 14.062 14.063v-1.902a.641.641 0 0 1 1.282 0v1.902c7.609-.328 13.734-6.453 14.062-14.062Zm-12.78 2.844-6.23-6.23a.641.641 0 0 1 .448-1.094c.172 0 .332.067.453.188l5.29 5.289 12.347-13.59a.64.64 0 0 1 .942.867Zm0 0"/></svg>