<?xml version="1.0" encoding="UTF-8"?>
<svg xmlns="http://www.w3.org/2000/svg" xmlns:xlink="http://www.w3.org/1999/xlink" width="32" height="32" viewBox="0 0 32 32">
<path fill-rule="nonzero" fill="rgb(0%, 0%, 0%)" fill-opacity="1" d="M 28.800781 16.640625 C 28.628906 16.640625 28.46875 16.574219 28.347656 16.453125 C 28.226562 16.332031 28.160156 16.167969 28.160156 16 C 28.160156 15.644531 28.445312 15.359375 28.800781 15.359375 L 30.695312 15.359375 C 30.585938 12.699219 29.75 10.121094 28.28125 7.902344 L 30.214844 5.777344 C 30.929688 4.996094 30.878906 3.78125 30.097656 3.0625 C 29.316406 2.347656 28.097656 2.402344 27.382812 3.183594 L 25.746094 4.988281 C 23.226562 2.75 20.007812 1.449219 16.640625 1.308594 L 16.640625 3.199219 C 16.640625 3.554688 16.355469 3.839844 16 3.839844 C 15.644531 3.839844 15.359375 3.554688 15.359375 3.199219 L 15.359375 1.296875 C 7.75 1.625 1.625 7.75 1.296875 15.359375 L 3.199219 15.359375 C 3.554688 15.359375 3.839844 15.644531 3.839844 16 C 3.839844 16.355469 3.554688 16.640625 3.199219 16.640625 L 1.296875 16.640625 C 1.625 24.25 7.75 30.375 15.359375 30.703125 L 15.359375 28.800781 C 15.359375 28.445312 15.644531 28.160156 16 28.160156 C 16.355469 28.160156 16.640625 28.445312 16.640625 28.800781 L 16.640625 30.703125 C 24.25 30.375 30.375 24.25 30.703125 16.640625 Z M 16.019531 19.484375 L 9.789062 13.253906 C 9.609375 13.070312 9.550781 12.796875 9.648438 12.558594 C 9.75 12.320312 9.980469 12.164062 10.238281 12.160156 C 10.410156 12.160156 10.570312 12.226562 10.691406 12.347656 L 15.980469 17.636719 L 28.328125 4.046875 C 28.566406 3.785156 28.972656 3.769531 29.234375 4.007812 C 29.492188 4.25 29.507812 4.652344 29.269531 4.914062 Z M 16.019531 19.484375 "/>
</svg>
