<svg role="img" viewBox="0 0 32 32" xmlns="http://www.w3.org/2000/svg"><path d="M16 0c-1.355 0-2.594.848-3.5 2.379L9.3 7.78a.64.64 0 0 0-.023.664.646.646 0 0 0 1.14-.027l3.185-5.398C14.266 1.89 15.113 1.28 16 1.28s1.734.61 2.398 1.739l3.68 6.218-2.598 1.582a.6.6 0 0 0-.3.54c0 .226.11.425.3.538l6.399 3.84c.2.125.453.137.66.024.2-.114.32-.332.32-.563V7.52c0-.23-.12-.449-.32-.558a.66.66 0 0 0-.66 0l-2.7 1.617-3.679-6.2C18.594.849 17.355 0 16 0M8.219 10.2a.65.65 0 0 0-.32.081L1.5 14.141a.63.63 0 0 0-.32.539c.004.222.125.43.32.539l2.52 1.5-3.239 5.48c-.902 1.524-1.02 2.988-.363 4.14.672 1.173 2.035 1.821 3.863 1.821h7.239a.64.64 0 0 0 0-1.281H4.28c-1.347 0-2.328-.426-2.761-1.18-.418-.734-.293-1.75.359-2.86l3.219-5.46 2.8 1.68a.62.62 0 0 0 .641.023.65.65 0 0 0 .32-.562v-7.68a.64.64 0 0 0-.64-.64M27.8 17.28a.7.7 0 0 0-.242.078.646.646 0 0 0-.223.88l2.785 4.6c.652 1.11.781 2.126.36 2.86-.434.758-1.415 1.18-2.762 1.18h-5.957v-3.2a.64.64 0 0 0-.32-.558.64.64 0 0 0-.641.02l-6.403 3.84a.63.63 0 0 0-.32.539c0 .226.129.425.32.539l6.403 3.84c.14.093.316.124.48.081.051-.015.11-.03.16-.058a.64.64 0 0 0 .317-.563V28.16h5.96c1.829 0 3.212-.648 3.884-1.82.656-1.152.52-2.633-.383-4.16l-2.778-4.598a.63.63 0 0 0-.64-.3"/></svg>