<?xml version="1.0" encoding="UTF-8"?>
<svg xmlns="http://www.w3.org/2000/svg" xmlns:xlink="http://www.w3.org/1999/xlink" width="32" height="32" viewBox="0 0 32 32">
<path fill-rule="nonzero" fill="rgb(0%, 0%, 0%)" fill-opacity="1" d="M 16 0 C 14.644531 0 13.40625 0.847656 12.5 2.378906 L 9.300781 7.78125 C 9.171875 7.980469 9.160156 8.234375 9.277344 8.445312 C 9.394531 8.652344 9.617188 8.78125 9.855469 8.773438 C 10.09375 8.769531 10.3125 8.628906 10.417969 8.417969 L 13.601562 3.019531 C 14.265625 1.890625 15.113281 1.28125 16 1.28125 C 16.886719 1.28125 17.734375 1.890625 18.398438 3.019531 L 22.078125 9.238281 L 19.480469 10.820312 C 19.289062 10.929688 19.175781 11.136719 19.179688 11.359375 C 19.179688 11.585938 19.289062 11.785156 19.480469 11.898438 L 25.878906 15.738281 C 26.078125 15.863281 26.332031 15.875 26.539062 15.761719 C 26.738281 15.648438 26.859375 15.429688 26.859375 15.199219 L 26.859375 7.519531 C 26.859375 7.289062 26.738281 7.070312 26.539062 6.960938 C 26.335938 6.84375 26.082031 6.84375 25.878906 6.960938 L 23.179688 8.578125 L 19.5 2.378906 C 18.59375 0.847656 17.355469 0 16 0 M 8.21875 10.199219 C 8.105469 10.199219 7.996094 10.226562 7.898438 10.28125 L 1.5 14.140625 C 1.304688 14.25 1.183594 14.457031 1.179688 14.679688 C 1.183594 14.902344 1.304688 15.109375 1.5 15.21875 L 4.019531 16.71875 L 0.78125 22.199219 C -0.121094 23.722656 -0.238281 25.1875 0.417969 26.339844 C 1.089844 27.511719 2.453125 28.160156 4.28125 28.160156 L 11.519531 28.160156 C 11.863281 28.144531 12.132812 27.863281 12.132812 27.519531 C 12.132812 27.175781 11.863281 26.894531 11.519531 26.878906 L 4.28125 26.878906 C 2.933594 26.878906 1.953125 26.453125 1.519531 25.699219 C 1.101562 24.964844 1.226562 23.949219 1.878906 22.839844 L 5.097656 17.378906 L 7.898438 19.058594 C 8.089844 19.183594 8.335938 19.195312 8.539062 19.082031 C 8.738281 18.964844 8.859375 18.75 8.859375 18.519531 L 8.859375 10.839844 C 8.859375 10.671875 8.792969 10.507812 8.671875 10.386719 C 8.550781 10.265625 8.386719 10.199219 8.21875 10.199219 M 27.800781 17.28125 C 27.714844 17.292969 27.632812 17.316406 27.558594 17.359375 C 27.257812 17.542969 27.15625 17.933594 27.335938 18.238281 L 30.121094 22.839844 C 30.773438 23.949219 30.902344 24.964844 30.480469 25.699219 C 30.046875 26.457031 29.066406 26.878906 27.71875 26.878906 L 21.761719 26.878906 L 21.761719 23.679688 C 21.761719 23.449219 21.640625 23.234375 21.441406 23.121094 C 21.238281 23.011719 20.996094 23.019531 20.800781 23.140625 L 14.398438 26.980469 C 14.203125 27.089844 14.082031 27.296875 14.078125 27.519531 C 14.078125 27.746094 14.207031 27.945312 14.398438 28.058594 L 20.800781 31.898438 C 20.941406 31.992188 21.117188 32.023438 21.28125 31.980469 C 21.332031 31.964844 21.390625 31.949219 21.441406 31.921875 C 21.640625 31.804688 21.761719 31.589844 21.757812 31.359375 L 21.757812 28.160156 L 27.71875 28.160156 C 29.546875 28.160156 30.929688 27.511719 31.601562 26.339844 C 32.257812 25.1875 32.121094 23.707031 31.21875 22.179688 L 28.441406 17.582031 C 28.308594 17.359375 28.054688 17.242188 27.800781 17.28125 "/>
</svg>
