<svg role="img" viewBox="0 0 32 32" height="32" width="32" xmlns="http://www.w3.org/2000/svg"><path d="M16 0c-1.355 0-2.594.848-3.5 2.379L9.3 7.78a.635.635 0 0 0-.023.664c.118.207.34.332.578.328a.659.659 0 0 0 .563-.355l3.184-5.398C14.266 1.89 15.113 1.28 16 1.28c.887 0 1.734.61 2.398 1.739l3.68 6.218-2.598 1.582a.597.597 0 0 0-.3.54c0 .226.11.425.3.538l6.399 3.84c.2.125.453.137.66.024.2-.114.32-.332.32-.563V7.52c0-.23-.12-.449-.32-.558a.664.664 0 0 0-.66 0l-2.7 1.617-3.679-6.2C18.594.849 17.355 0 16 0M8.219 10.2a.652.652 0 0 0-.32.081L1.5 14.141a.631.631 0 0 0-.32.539c.004.222.125.43.32.539l2.52 1.5-3.239 5.48c-.902 1.524-1.02 2.988-.363 4.14.672 1.173 2.035 1.821 3.863 1.821h7.239a.639.639 0 0 0 .453-1.094.635.635 0 0 0-.453-.187H4.28c-1.347 0-2.328-.426-2.761-1.18-.418-.734-.293-1.75.359-2.86l3.219-5.46 2.8 1.68a.619.619 0 0 0 .641.023.65.65 0 0 0 .32-.562v-7.68a.649.649 0 0 0-.64-.64M27.8 17.28a.59.59 0 0 0-.242.078.636.636 0 0 0-.297.391.645.645 0 0 0 .074.488l2.785 4.602c.652 1.11.781 2.125.36 2.86-.434.757-1.415 1.179-2.762 1.179h-5.957v-3.2a.641.641 0 0 0-.32-.558.637.637 0 0 0-.641.02l-6.403 3.84a.631.631 0 0 0-.32.539c0 .226.129.425.32.539l6.403 3.84c.14.093.316.124.48.081.051-.015.11-.03.16-.058a.64.64 0 0 0 .317-.563V28.16h5.96c1.829 0 3.212-.648 3.884-1.82.656-1.152.52-2.633-.383-4.16l-2.778-4.598a.633.633 0 0 0-.64-.3"/></svg>