<?xml version="1.0" encoding="UTF-8"?>
<svg xmlns="http://www.w3.org/2000/svg" xmlns:xlink="http://www.w3.org/1999/xlink" width="32" height="32" viewBox="0 0 32 32">
<path fill-rule="nonzero" fill="rgb(0%, 0%, 0%)" fill-opacity="1" d="M 16 1.921875 C 10 1.921875 5.121094 6.800781 5.121094 12.800781 C 5.121094 18.984375 15.097656 30.21875 15.523438 30.695312 C 15.640625 30.828125 15.816406 30.90625 16 30.90625 C 16.183594 30.90625 16.355469 30.828125 16.476562 30.695312 C 16.898438 30.222656 26.878906 19.023438 26.878906 12.800781 C 26.878906 6.800781 22 1.921875 16 1.921875 Z M 10.835938 16.570312 L 9.804688 17.328125 C 8.832031 16 8.320312 14.433594 8.320312 12.800781 C 8.320312 11.164062 8.832031 9.601562 9.804688 8.273438 L 10.835938 9.03125 C 10.027344 10.136719 9.601562 11.441406 9.601562 12.800781 C 9.601562 14.160156 10.027344 15.464844 10.835938 16.570312 Z M 16 14.71875 C 14.941406 14.71875 14.078125 13.859375 14.078125 12.800781 C 14.078125 11.738281 14.941406 10.878906 16 10.878906 C 17.058594 10.878906 17.921875 11.738281 17.921875 12.800781 C 17.921875 13.859375 17.058594 14.71875 16 14.71875 Z M 22.195312 17.328125 L 21.164062 16.570312 C 21.972656 15.464844 22.398438 14.160156 22.398438 12.800781 C 22.398438 11.441406 21.972656 10.136719 21.164062 9.03125 L 22.195312 8.273438 C 23.164062 9.601562 23.679688 11.164062 23.679688 12.800781 C 23.679688 14.433594 23.164062 16 22.195312 17.328125 Z M 22.195312 17.328125 "/>
</svg>
