<?xml version="1.0" encoding="UTF-8"?>
<svg xmlns="http://www.w3.org/2000/svg" xmlns:xlink="http://www.w3.org/1999/xlink" width="32" height="32" viewBox="0 0 32 32">
<path fill="none" stroke-width="1.5" stroke-linecap="round" stroke-linejoin="round" stroke="rgb(0%, 0%, 0%)" stroke-opacity="1" stroke-miterlimit="4" d="M 11.000977 5.000977 L 18 5.000977 M 9.999023 9.999023 L 14.499023 14.499023 M 5.000977 11.000977 L 5.000977 18 " transform="matrix(1.333333, 0, 0, 1.333333, 0, 0)"/>
<path fill="none" stroke-width="1.5" stroke-linecap="round" stroke-linejoin="round" stroke="rgb(0%, 0%, 0%)" stroke-opacity="1" stroke-miterlimit="4" d="M 10.886719 6.445312 C 10.886719 8.897461 8.897461 10.886719 6.445312 10.886719 C 3.990234 10.886719 2.000977 8.897461 2.000977 6.445312 C 2.000977 3.990234 3.990234 2.000977 6.445312 2.000977 C 8.897461 2.000977 10.886719 3.990234 10.886719 6.445312 Z M 10.886719 6.445312 " transform="matrix(1.333333, 0, 0, 1.333333, 0, 0)"/>
<path fill="none" stroke-width="1.5" stroke-linecap="round" stroke-linejoin="round" stroke="rgb(0%, 0%, 0%)" stroke-opacity="1" stroke-miterlimit="4" d="M 6.999023 20.000977 C 6.999023 21.105469 6.105469 21.999023 5.000977 21.999023 C 3.896484 21.999023 3 21.105469 3 20.000977 C 3 18.896484 3.896484 18 5.000977 18 C 6.105469 18 6.999023 18.896484 6.999023 20.000977 Z M 6.999023 20.000977 " transform="matrix(1.333333, 0, 0, 1.333333, 0, 0)"/>
<path fill="none" stroke-width="1.5" stroke-linecap="round" stroke-linejoin="round" stroke="rgb(0%, 0%, 0%)" stroke-opacity="1" stroke-miterlimit="4" d="M 18 15.999023 C 18 17.103516 17.103516 18 15.999023 18 C 14.894531 18 14.000977 17.103516 14.000977 15.999023 C 14.000977 14.894531 14.894531 14.000977 15.999023 14.000977 C 17.103516 14.000977 18 14.894531 18 15.999023 Z M 18 15.999023 " transform="matrix(1.333333, 0, 0, 1.333333, 0, 0)"/>
<path fill="none" stroke-width="1.5" stroke-linecap="round" stroke-linejoin="round" stroke="rgb(0%, 0%, 0%)" stroke-opacity="1" stroke-miterlimit="4" d="M 21.999023 5.000977 C 21.999023 6.105469 21.105469 6.999023 20.000977 6.999023 C 18.896484 6.999023 18 6.105469 18 5.000977 C 18 3.896484 18.896484 3 20.000977 3 C 21.105469 3 21.999023 3.896484 21.999023 5.000977 Z M 21.999023 5.000977 " transform="matrix(1.333333, 0, 0, 1.333333, 0, 0)"/>
</svg>
