<?xml version="1.0" encoding="UTF-8"?>
<svg xmlns="http://www.w3.org/2000/svg" xmlns:xlink="http://www.w3.org/1999/xlink" width="32" height="32" viewBox="0 0 32 32">
<path fill="none" stroke-width="1.5" stroke-linecap="round" stroke-linejoin="round" stroke="rgb(0%, 0%, 0%)" stroke-opacity="1" stroke-miterlimit="4" d="M 11.000979 5.000978 L 18.000004 5.000978 M 9.999026 9.999026 L 14.499027 14.499027 M 5.000978 11.000979 L 5.000978 18.000004 " transform="matrix(1.333333, 0, 0, 1.333333, 0, 0)"/>
<path fill="none" stroke-width="1.5" stroke-linecap="round" stroke-linejoin="round" stroke="rgb(0%, 0%, 0%)" stroke-opacity="1" stroke-miterlimit="4" d="M 10.886721 6.445314 C 10.886721 8.897463 8.897463 10.886721 6.445314 10.886721 C 3.990235 10.886721 2.000977 8.897463 2.000977 6.445314 C 2.000977 3.990235 3.990235 2.000977 6.445314 2.000977 C 8.897463 2.000977 10.886721 3.990235 10.886721 6.445314 Z M 10.886721 6.445314 " transform="matrix(1.333333, 0, 0, 1.333333, 0, 0)"/>
<path fill="none" stroke-width="1.5" stroke-linecap="round" stroke-linejoin="round" stroke="rgb(0%, 0%, 0%)" stroke-opacity="1" stroke-miterlimit="4" d="M 6.999025 20.000981 C 6.999025 21.105474 6.10547 21.999029 5.000978 21.999029 C 3.896485 21.999029 3.000001 21.105474 3.000001 20.000981 C 3.000001 18.896489 3.896485 18.000004 5.000978 18.000004 C 6.10547 18.000004 6.999025 18.896489 6.999025 20.000981 Z M 6.999025 20.000981 " transform="matrix(1.333333, 0, 0, 1.333333, 0, 0)"/>
<path fill="none" stroke-width="1.5" stroke-linecap="round" stroke-linejoin="round" stroke="rgb(0%, 0%, 0%)" stroke-opacity="1" stroke-miterlimit="4" d="M 18.000004 15.999027 C 18.000004 17.10352 17.10352 18.000004 15.999027 18.000004 C 14.894535 18.000004 14.00098 17.10352 14.00098 15.999027 C 14.00098 14.894535 14.894535 14.00098 15.999027 14.00098 C 17.10352 14.00098 18.000004 14.894535 18.000004 15.999027 Z M 18.000004 15.999027 " transform="matrix(1.333333, 0, 0, 1.333333, 0, 0)"/>
<path fill="none" stroke-width="1.5" stroke-linecap="round" stroke-linejoin="round" stroke="rgb(0%, 0%, 0%)" stroke-opacity="1" stroke-miterlimit="4" d="M 21.999029 5.000978 C 21.999029 6.10547 21.105474 6.999025 20.000981 6.999025 C 18.896489 6.999025 18.000004 6.10547 18.000004 5.000978 C 18.000004 3.896485 18.896489 3.000001 20.000981 3.000001 C 21.105474 3.000001 21.999029 3.896485 21.999029 5.000978 Z M 21.999029 5.000978 " transform="matrix(1.333333, 0, 0, 1.333333, 0, 0)"/>
</svg>
