<svg role="img" viewBox="0 0 32 32" height="32" width="32" xmlns="http://www.w3.org/2000/svg"><path d="M23.68 2.563c-1.477 0-2.95.562-4.075 1.683L16.406 7.45a5.75 5.75 0 0 0-1.379 5.903l2.297-2.297c.098-.66.387-1.293.89-1.797l3.204-3.2a3.213 3.213 0 0 1 2.262-.937c.82 0 1.64.313 2.261.938a3.197 3.197 0 0 1 0 4.523l-3.199 3.203a3.123 3.123 0 0 1-1.797.887l-2.3 2.3a5.738 5.738 0 0 0 5.906-1.378l3.203-3.203a5.764 5.764 0 0 0 0-8.145 5.772 5.772 0 0 0-4.074-1.684m-3.864 8.305a1.337 1.337 0 0 0-.882.387l-7.68 7.68c-.332.324-.469.8-.352 1.246.118.449.47.8.918.918.446.117.922-.02 1.246-.352l7.68-7.68c.383-.367.496-.93.29-1.418a1.282 1.282 0 0 0-1.22-.78m-8.007 3.866a5.745 5.745 0 0 0-4.36 1.672l-3.203 3.2a5.77 5.77 0 0 0 0 8.148 5.772 5.772 0 0 0 4.074 1.683c1.473 0 2.95-.562 4.07-1.687l3.204-3.2a5.757 5.757 0 0 0 1.379-5.905l-2.301 2.3a3.093 3.093 0 0 1-.89 1.797l-3.2 3.2a3.174 3.174 0 0 1-3.488.695A3.175 3.175 0 0 1 5.12 23.68c0-.848.336-1.66.938-2.262l3.199-3.2a3.133 3.133 0 0 1 1.797-.894l2.297-2.297a5.795 5.795 0 0 0-1.543-.293M25.602 19.2c-3.29 0-6.02 2.512-6.364 5.711a6.96 6.96 0 0 0-.039.692c0 3.52 2.88 6.398 6.403 6.398C29.122 32 32 29.121 32 25.602c0-3.524-2.879-6.403-6.398-6.403m-2.243 3.52c.192 0 .32.066.45.195l1.793 1.79 1.789-1.79a.612.612 0 0 1 .898 0 .621.621 0 0 1 0 .895l-1.793 1.793 1.793 1.789a.63.63 0 0 1 .191.449.63.63 0 0 1-.19.45.69.69 0 0 1-.45.19.69.69 0 0 1-.45-.19l-1.788-1.794-1.793 1.793a.69.69 0 0 1-.45.191.68.68 0 0 1-.445-.19.61.61 0 0 1 0-.9l1.79-1.788-1.79-1.793a.612.612 0 0 1 0-.895.57.57 0 0 1 .445-.195m0 0"/></svg>