<?xml version="1.0" encoding="UTF-8"?>
<svg xmlns="http://www.w3.org/2000/svg" xmlns:xlink="http://www.w3.org/1999/xlink" width="32" height="32" viewBox="0 0 32 32">
<defs>
<clipPath id="clip-0">
<path clip-rule="nonzero" d="M 2 0 L 30 0 L 30 32 L 2 32 Z M 2 0 "/>
</clipPath>
<clipPath id="clip-1">
<path clip-rule="nonzero" d="M 0 32 L 0 0 L 32 0 L 32 32 Z M 16 9.855469 C 12.621094 9.855469 9.855469 12.621094 9.855469 16 C 9.855469 19.378906 12.621094 22.144531 16 22.144531 C 19.378906 22.144531 22.144531 19.378906 22.144531 16 C 22.144531 12.621094 19.378906 9.855469 16 9.855469 M 16 9.855469 "/>
</clipPath>
</defs>
<g clip-path="url(#clip-0)">
<g clip-path="url(#clip-1)">
<path fill-rule="nonzero" fill="rgb(0%, 0%, 0%)" fill-opacity="1" d="M 16 0 C 14.585938 0 13.441406 1.148438 13.441406 2.5625 C 13.441406 3.976562 14.589844 5.121094 16.003906 5.121094 C 17.417969 5.121094 18.5625 3.972656 18.5625 2.558594 C 18.5625 1.144531 17.414062 0 16 0 M 12.398438 3.898438 C 9.476562 5.152344 7.679688 7.972656 7.679688 11.519531 C 7.679688 18.558594 5.246094 20.328125 3.800781 21.378906 C 3.15625 21.84375 2.558594 22.277344 2.558594 23.039062 C 2.558594 25.734375 6.578125 26.878906 16 26.878906 C 25.421875 26.878906 29.441406 25.734375 29.441406 23.039062 C 29.441406 22.277344 28.84375 21.84375 28.199219 21.378906 C 26.753906 20.328125 24.320312 18.558594 24.320312 11.519531 C 24.320312 7.960938 22.527344 5.148438 19.601562 3.898438 C 19.035156 5.398438 17.601562 6.394531 16 6.398438 C 14.359375 6.398438 12.949219 5.351562 12.398438 3.898438 M 12.160156 28.078125 L 12.160156 28.160156 C 12.164062 30.28125 13.878906 31.996094 16 32 C 18.121094 31.996094 19.835938 30.28125 19.839844 28.160156 L 19.839844 28.078125 C 17.28125 28.1875 14.71875 28.1875 12.160156 28.078125 M 12.160156 28.078125 "/>
</g>
</g>
<path fill-rule="nonzero" fill="rgb(0%, 0%, 0%)" fill-opacity="1" d="M 16 10.878906 C 13.183594 10.878906 10.878906 13.183594 10.878906 16 C 10.878906 18.816406 13.183594 21.121094 16 21.121094 C 18.816406 21.121094 21.121094 18.816406 21.121094 16 C 21.121094 13.183594 18.816406 10.878906 16 10.878906 M 18.152344 17.433594 C 18.25 17.527344 18.304688 17.65625 18.304688 17.792969 C 18.304688 17.929688 18.25 18.058594 18.152344 18.152344 C 18.054688 18.242188 17.925781 18.296875 17.792969 18.304688 C 17.65625 18.300781 17.53125 18.246094 17.433594 18.152344 L 16 16.71875 L 14.566406 18.152344 C 14.46875 18.246094 14.339844 18.300781 14.207031 18.304688 C 14.070312 18.300781 13.945312 18.246094 13.847656 18.152344 C 13.75 18.058594 13.691406 17.929688 13.691406 17.792969 C 13.691406 17.660156 13.75 17.527344 13.847656 17.433594 L 15.28125 16 L 13.847656 14.566406 C 13.746094 14.472656 13.691406 14.34375 13.691406 14.207031 C 13.691406 14.070312 13.746094 13.941406 13.847656 13.847656 C 13.941406 13.75 14.070312 13.699219 14.207031 13.699219 C 14.339844 13.699219 14.46875 13.75 14.566406 13.847656 L 16 15.28125 L 17.433594 13.847656 C 17.527344 13.75 17.65625 13.691406 17.792969 13.691406 C 17.929688 13.691406 18.058594 13.746094 18.152344 13.847656 C 18.25 13.941406 18.308594 14.070312 18.308594 14.207031 C 18.308594 14.34375 18.25 14.472656 18.152344 14.566406 L 16.71875 16 Z M 18.152344 17.433594 "/>
</svg>
