<svg role="img" viewBox="0 0 32 32" height="32" width="32" xmlns="http://www.w3.org/2000/svg"><path d="M13.441 1.281A1.93 1.93 0 0 0 11.52 3.2v1.28h-6.4a.642.642 0 0 0 0 1.282h.637V28.8a1.927 1.927 0 0 0 1.922 1.918h14.105A6.316 6.316 0 0 0 25.602 32C29.122 32 32 29.121 32 25.602c0-3.305-2.54-6.047-5.762-6.368V5.762h.64a.641.641 0 0 0 0-1.282H20.48V3.2a1.927 1.927 0 0 0-1.92-1.92Zm0 1.278h5.118a.635.635 0 0 1 .64.64V4.48h-6.398V3.2a.642.642 0 0 1 .64-.641m-1.28 6.402a.635.635 0 0 1 .64.64v16a.644.644 0 0 1-.64.598.644.644 0 0 1-.641-.597v-16c0-.356.285-.641.64-.641m3.84 0a.64.64 0 0 1 .64.64v16a.652.652 0 0 1-.288.528.65.65 0 0 1-.598.058.65.65 0 0 1-.395-.585v-16A.642.642 0 0 1 16 8.96m3.84 0c.355 0 .64.285.64.64v12.17a6.31 6.31 0 0 0-1.242 3.14c-.011.02-.027.031-.039.05V9.603a.642.642 0 0 1 .64-.641m5.763 11.52c2.808 0 5.117 2.304 5.117 5.12 0 2.813-2.309 5.118-5.117 5.118-2.82 0-5.125-2.305-5.125-5.117 0-2.817 2.304-5.122 5.125-5.122m-2.247 2.239a.641.641 0 0 0-.445.195.621.621 0 0 0 0 .895l1.793 1.793-1.793 1.789a.623.623 0 0 0 0 .898.63.63 0 0 0 .45.191.594.594 0 0 0 .449-.19l1.793-1.794 1.789 1.793a.621.621 0 0 0 .895 0 .69.69 0 0 0 .19-.45.715.715 0 0 0-.187-.448l-1.797-1.79 1.793-1.792a.69.69 0 0 0 .192-.45.705.705 0 0 0-.188-.445.618.618 0 0 0-.902 0l-1.785 1.79-1.793-1.79a.66.66 0 0 0-.454-.195m0 0"/></svg>