<?xml version="1.0" encoding="UTF-8"?>
<svg xmlns="http://www.w3.org/2000/svg" xmlns:xlink="http://www.w3.org/1999/xlink" width="32" height="32" viewBox="0 0 32 32">
<path fill-rule="nonzero" fill="rgb(0%, 0%, 0%)" fill-opacity="1" d="M 16 2.558594 C 7.890625 2.558594 1.28125 8.242188 1.28125 15.355469 C 1.28125 19.484375 3.539062 23.078125 7.015625 25.425781 C 7.011719 25.566406 7.019531 25.789062 6.835938 26.460938 C 6.613281 27.292969 6.160156 28.460938 5.238281 29.78125 L 4.585938 30.71875 L 5.726562 30.71875 C 9.691406 30.71875 11.984375 28.136719 12.335938 27.722656 C 13.515625 28 14.734375 28.152344 16 28.152344 C 24.109375 28.152344 30.71875 22.46875 30.71875 15.355469 C 30.71875 8.242188 24.109375 2.558594 16 2.558594 M 20.933594 19.386719 C 21.183594 19.640625 21.179688 20.042969 20.929688 20.292969 C 20.683594 20.542969 20.277344 20.542969 20.027344 20.292969 L 16 16.265625 L 11.972656 20.292969 C 11.824219 20.445312 11.605469 20.511719 11.394531 20.46875 C 11.183594 20.429688 11.007812 20.285156 10.929688 20.085938 C 10.828125 19.847656 10.882812 19.570312 11.066406 19.386719 L 15.09375 15.359375 L 11.066406 11.332031 C 10.816406 11.082031 10.820312 10.675781 11.070312 10.425781 C 11.316406 10.179688 11.722656 10.175781 11.972656 10.425781 L 16 14.453125 L 20.027344 10.425781 C 20.277344 10.175781 20.683594 10.179688 20.929688 10.425781 C 21.179688 10.675781 21.183594 11.082031 20.933594 11.332031 L 16.90625 15.359375 Z M 20.933594 19.386719 "/>
</svg>
