<svg role="img" viewBox="0 0 32 32" height="32" width="32" xmlns="http://www.w3.org/2000/svg"><path d="M.64 0C.29 0 0 .29 0 .64v1.92c0 .164.066.32.18.441l9.218 9.8h9.364L27.98 3c.024-.023.043-.055.06-.078.026-.043.062-.078.081-.121.016-.047.012-.11.02-.16.004-.032.02-.047.02-.082V.64a.635.635 0 0 0-.188-.453A.635.635 0 0 0 27.52 0Zm9.598 14.078v10.883c0 .223.13.426.32.539l6.403 3.84a.621.621 0 0 0 .32.101.652.652 0 0 0 .32-.082c.2-.113.32-.328.32-.558V14.078Zm10.82 6.383-.078.02a.634.634 0 0 0-.5.449.646.646 0 0 0 .18.648l4.66 4.66-4.66 4.66a.643.643 0 0 0-.14.707.641.641 0 0 0 .472.391.64.64 0 0 0 .586-.176l4.66-4.66 4.66 4.66a.65.65 0 0 0 .895-.027.65.65 0 0 0 .027-.895l-4.66-4.66 4.66-4.66a.637.637 0 0 0 .137-.75.626.626 0 0 0-.676-.348.639.639 0 0 0-.383.18l-4.66 4.66-4.66-4.66a.62.62 0 0 0-.52-.2m0 0"/></svg>