<?xml version="1.0" encoding="UTF-8"?>
<svg xmlns="http://www.w3.org/2000/svg" xmlns:xlink="http://www.w3.org/1999/xlink" width="32" height="32" viewBox="0 0 32 32">
<defs>
<clipPath id="clip-0">
<path clip-rule="nonzero" d="M 1 0 L 31 0 L 31 32 L 1 32 Z M 1 0 "/>
</clipPath>
<clipPath id="clip-1">
<path clip-rule="nonzero" d="M 0 32 L 0 0 L 32 0 L 32 32 Z M 16.125 9.980469 C 12.746094 9.980469 9.980469 12.746094 9.980469 16.125 C 9.980469 19.503906 12.746094 22.269531 16.125 22.269531 C 19.503906 22.269531 22.269531 19.503906 22.269531 16.125 C 22.269531 12.746094 19.503906 9.980469 16.125 9.980469 M 16.125 9.980469 "/>
</clipPath>
</defs>
<g clip-path="url(#clip-0)">
<g clip-path="url(#clip-1)">
<path fill-rule="nonzero" fill="rgb(0%, 0%, 0%)" fill-opacity="1" d="M 16.011719 31.875 L 15.734375 31.746094 C 15.59375 31.683594 1.921875 25.140625 1.921875 5.648438 L 1.921875 5.132812 L 2.421875 5.023438 C 7.160156 3.984375 9.957031 2.511719 12 1.433594 C 13.585938 0.601562 14.734375 0 16 0 C 17.265625 0 18.414062 0.601562 20 1.433594 C 22.042969 2.511719 24.839844 3.984375 29.578125 5.023438 L 30.078125 5.132812 L 30.078125 5.648438 C 30.078125 24.496094 16.425781 31.664062 16.289062 31.734375 Z M 16.011719 31.875 "/>
</g>
</g>
<path fill-rule="nonzero" fill="rgb(0%, 0%, 0%)" fill-opacity="1" d="M 16.125 11.003906 C 13.308594 11.003906 11.003906 13.308594 11.003906 16.125 C 11.003906 18.941406 13.308594 21.246094 16.125 21.246094 C 18.941406 21.246094 21.246094 18.941406 21.246094 16.125 C 21.246094 13.308594 18.941406 11.003906 16.125 11.003906 M 18.632812 16.636719 L 16.636719 16.636719 L 16.636719 18.632812 C 16.636719 18.941406 16.433594 19.144531 16.125 19.144531 C 15.816406 19.144531 15.613281 18.941406 15.613281 18.632812 L 15.613281 16.636719 L 13.617188 16.636719 C 13.308594 16.636719 13.105469 16.433594 13.105469 16.125 C 13.105469 15.816406 13.308594 15.613281 13.617188 15.613281 L 15.613281 15.613281 L 15.613281 13.566406 C 15.613281 13.257812 15.816406 13.054688 16.125 13.054688 C 16.433594 13.054688 16.636719 13.257812 16.636719 13.566406 L 16.636719 15.613281 L 18.632812 15.613281 C 18.941406 15.613281 19.144531 15.816406 19.144531 16.125 C 19.144531 16.433594 18.941406 16.636719 18.632812 16.636719 M 18.632812 16.636719 "/>
</svg>
