<svg role="img" viewBox="0 0 32 32" xmlns="http://www.w3.org/2000/svg"><path d="M25.602 0a6.4 6.4 0 0 0-4.532 1.867 6.3 6.3 0 0 0-1.574 2.613H0v1.782l13.867 12.07c.899.785 1.793.867 2.133.867s1.234-.082 2.133-.867c.426-.371 3.476-3.027 6.457-5.617.64.101 1.289.105 1.933.012-1.57 1.367-2.816 2.449-4.195 3.652L32 23.992V7.957q-.122.112-.25.219a6.42 6.42 0 0 0-1.617-6.309A6.4 6.4 0 0 0 25.602 0m0 1.281a5.12 5.12 0 0 1 3.625 1.492c1.992 1.997 1.992 5.258 0 7.25-1.997 1.993-5.258 1.993-7.25 0-1.993-1.992-1.993-5.253 0-7.25a5.1 5.1 0 0 1 3.625-1.492m-3.204 4.48a.6.6 0 0 0-.453.184.6.6 0 0 0-.183.453c0 .368.273.641.636.641h6.403a.7.7 0 0 0 .457-.18.72.72 0 0 0 .183-.46.625.625 0 0 0-.64-.637ZM0 7.958v16.059l9.672-7.637C6.539 13.649 2.066 9.758 0 7.957m10.656 9.277L0 25.648v1.872h32v-1.9l-10.656-8.387q-1.184 1.026-2.367 2.063C17.75 20.363 16.484 20.48 16 20.48s-1.75-.117-2.977-1.183c-.222-.2-1.125-.985-2.367-2.063m0 0" fill="rgb(0%, 0%, 0%)"/></svg>