<svg role="img" viewBox="0 0 32 32" height="32" width="32" xmlns="http://www.w3.org/2000/svg"><defs><clipPath id="remove-alarm_svg__clip-0"><path d="M2 0h28v32H2Zm0 0"/></clipPath><clipPath id="remove-alarm_svg__clip-1"><path d="M0 32V0h32v32ZM16 9.855c-3.379 0-6.145 2.766-6.145 6.145 0 3.379 2.766 6.145 6.145 6.145 3.379 0 6.145-2.766 6.145-6.145 0-3.379-2.766-6.145-6.145-6.145m0 0"/></clipPath></defs><g clip-path="url(#remove-alarm_svg__clip-0)"><g clip-path="url(#remove-alarm_svg__clip-1)"><path d="M16 0a2.56 2.56 0 1 0 .004 5.121A2.56 2.56 0 0 0 16 0m-3.602 3.898C9.477 5.152 7.68 7.973 7.68 11.52c0 7.039-2.434 8.808-3.88 9.859-.644.465-1.241.898-1.241 1.66 0 2.695 4.02 3.84 13.441 3.84 9.422 0 13.441-1.145 13.441-3.84 0-.762-.597-1.195-1.242-1.66-1.445-1.05-3.879-2.82-3.879-9.86 0-3.558-1.793-6.37-4.718-7.62-.567 1.5-2 2.496-3.602 2.5-1.64 0-3.05-1.047-3.602-2.5m-.238 24.18v.081A3.844 3.844 0 0 0 16 32a3.844 3.844 0 0 0 3.84-3.84v-.082c-2.559.11-5.121.11-7.68 0m0 0"/></g></g><path d="M16 10.879c-2.816 0-5.121 2.305-5.121 5.121 0 2.816 2.305 5.121 5.121 5.121 2.816 0 5.121-2.305 5.121-5.121 0-2.816-2.305-5.121-5.121-5.121m2.152 6.555a.496.496 0 0 1 0 .718.586.586 0 0 1-.359.153.537.537 0 0 1-.36-.153L16 16.72l-1.434 1.433a.545.545 0 0 1-.359.153.537.537 0 0 1-.36-.153.5.5 0 0 1-.156-.359c0-.133.059-.266.157-.36L15.28 16l-1.433-1.434a.5.5 0 0 1-.157-.359.5.5 0 0 1 .157-.36.508.508 0 0 1 .718 0L16 15.282l1.434-1.433a.485.485 0 0 1 .359-.157c.137 0 .266.055.36.157a.5.5 0 0 1 .156.359.507.507 0 0 1-.157.36L16.72 16Zm0 0"/></svg>