<?xml version="1.0" encoding="UTF-8"?>
<svg xmlns="http://www.w3.org/2000/svg" xmlns:xlink="http://www.w3.org/1999/xlink" width="32" height="32" viewBox="0 0 32 32">
<path fill="none" stroke-width="2" stroke-linecap="round" stroke-linejoin="round" stroke="rgb(0%, 0%, 0%)" stroke-opacity="1" stroke-miterlimit="4" d="M 3 3 L 21 3 C 21.553711 3 21.999023 3.448242 21.999023 3.999023 L 21.999023 6.999023 C 21.999023 7.552734 21.553711 8.000977 21 8.000977 L 3 8.000977 C 2.446289 8.000977 2.000977 7.552734 2.000977 6.999023 L 2.000977 3.999023 C 2.000977 3.448242 2.446289 3 3 3 Z M 3 3 " transform="matrix(1.333333, 0, 0, 1.333333, 0, 0)"/>
<path fill="none" stroke-width="2" stroke-linecap="round" stroke-linejoin="round" stroke="rgb(0%, 0%, 0%)" stroke-opacity="1" stroke-miterlimit="4" d="M 3.999023 8.000977 L 3.999023 18.999023 C 3.999023 20.103516 4.895508 21 6 21 L 18 21 C 19.104492 21 20.000977 20.103516 20.000977 18.999023 L 20.000977 8.000977 M 9.500977 17.000977 L 14.499023 12 M 9.500977 12 L 14.499023 17.000977 " transform="matrix(1.333333, 0, 0, 1.333333, 0, 0)"/>
</svg>
