<svg role="img" viewBox="0 0 32 32" height="32" width="32" xmlns="http://www.w3.org/2000/svg"><path d="M16 2.559c-8.11 0-14.719 5.683-14.719 12.796 0 4.13 2.258 7.723 5.735 10.07-.004.141.004.364-.18 1.036-.223.832-.676 2-1.598 3.32l-.652.938h1.14c3.965 0 6.258-2.582 6.61-2.996 1.18.277 2.398.43 3.664.43 8.11 0 14.719-5.684 14.719-12.798C30.719 8.242 24.109 2.56 16 2.56m4.934 16.828a.641.641 0 0 1-.907.906L16 16.266l-4.027 4.027a.632.632 0 0 1-.578.176.627.627 0 0 1-.465-.383.637.637 0 0 1 .136-.7l4.028-4.027-4.028-4.027a.641.641 0 0 1 .907-.906L16 14.453l4.027-4.027a.641.641 0 0 1 .907.906l-4.028 4.027Zm0 0"/></svg>