<svg role="img" viewBox="0 0 32 32" height="32" width="32" xmlns="http://www.w3.org/2000/svg"><path d="M3.2 1.922A1.92 1.92 0 0 0 1.281 3.84v3.84H30.72V6.398a1.92 1.92 0 0 0-1.918-1.918l-17.254.004c-.176-.066-.547-.652-.746-.968-.489-.786-.996-1.594-1.84-1.594ZM1.921 8.96a.585.585 0 0 0-.453.187.585.585 0 0 0-.188.454v17.277c0 1.058.86 1.922 1.918 1.922H20.07c1.11 1.907 3.176 3.2 5.532 3.2C29.122 32 32 29.121 32 25.602c0-1.43-.48-2.75-1.281-3.817V9.602a.642.642 0 0 0-.64-.641Zm23.68 11.52c2.812 0 5.117 2.304 5.117 5.12 0 2.813-2.305 5.118-5.117 5.118-2.817 0-5.122-2.305-5.122-5.117 0-2.817 2.305-5.122 5.122-5.122m-2.243 2.239a.58.58 0 0 0-.445.191.582.582 0 0 0-.2.45c0 .171.071.331.2.449l1.79 1.793-1.79 1.789a.591.591 0 0 0-.195.449c0 .168.07.332.195.445a.672.672 0 0 0 .445.192c.13 0 .32-.067.45-.188l1.793-1.797 1.789 1.793c.129.125.32.192.449.192s.32-.067.45-.188a.63.63 0 0 0 0-.902l-1.794-1.785 1.793-1.793a.69.69 0 0 0 .191-.45.64.64 0 0 0-.19-.449.6.6 0 0 0-.45-.191.588.588 0 0 0-.45.191l-1.788 1.793-1.793-1.793a.63.63 0 0 0-.45-.191m0 0"/></svg>