<svg role="img" viewBox="0 0 32 32" height="32" width="32" xmlns="http://www.w3.org/2000/svg"><defs><clipPath id="236__234__399__397__128__126__414__412__398__396__132__130__312__310__208__206__286__284__128__126__remove-shield_svg__svg/remove-shield.svg573__svg/remove-shield.svg569__clip-0"><path d="M1 0h30v32H1Zm0 0"/></clipPath><clipPath id="237__235__400__398__129__127__415__413__399__397__133__131__313__311__209__207__287__285__129__127__remove-shield_svg__svg/remove-shield.svg575__svg/remove-shield.svg571__clip-1"><path d="M0 32V0h32v32ZM16.125 9.98c-3.379 0-6.145 2.766-6.145 6.145 0 3.379 2.766 6.145 6.145 6.145 3.379 0 6.145-2.766 6.145-6.145 0-3.379-2.766-6.145-6.145-6.145m0 0"/></clipPath></defs><g clip-path="url(#236__234__399__397__128__126__414__412__398__396__132__130__312__310__208__206__286__284__128__126__remove-shield_svg__svg/remove-shield.svg573__svg/remove-shield.svg569__clip-0)"><g clip-path="url(#237__235__400__398__129__127__415__413__399__397__133__131__313__311__209__207__287__285__129__127__remove-shield_svg__svg/remove-shield.svg575__svg/remove-shield.svg571__clip-1)"><path d="m16.012 31.875-.278-.129c-.14-.062-13.812-6.605-13.812-26.098v-.515l.5-.11C7.16 3.984 9.957 2.512 12 1.433 13.586.603 14.734 0 16 0s2.414.602 4 1.434c2.043 1.078 4.84 2.55 9.578 3.59l.5.109v.515c0 18.848-13.652 26.016-13.789 26.086Zm0 0"/></g></g><path d="M16.125 11.004c-2.816 0-5.121 2.305-5.121 5.121 0 2.816 2.305 5.121 5.121 5.121 2.816 0 5.121-2.305 5.121-5.121 0-2.816-2.305-5.121-5.121-5.121m2.508 5.633h-1.996v1.996c0 .308-.203.512-.512.512s-.512-.204-.512-.512v-1.996h-1.996c-.308 0-.512-.203-.512-.512s.204-.512.512-.512h1.996v-2.047c0-.308.203-.511.512-.511s.512.203.512.511v2.047h1.996c.308 0 .512.203.512.512s-.204.512-.512.512m0 0"/></svg>