<svg role="img" viewBox="0 0 32 32" xmlns="http://www.w3.org/2000/svg"><path d="M12.16 0a5.77 5.77 0 0 0-5.762 5.762c0 2.957 2.247 5.402 5.122 5.722v17.317h8.32v1.918h5.12v-5.117h-5.12v1.918H12.8v-5.758h7.04v1.918h5.12v-5.121h-5.12v1.921H12.8v-5.76h7.04v1.922h5.12V11.52h-5.12v1.921H12.8v-1.957c2.876-.32 5.122-2.765 5.122-5.722A5.77 5.77 0 0 0 12.16 0m-1.922 3.2c.164 0 .328.062.453.187l1.47 1.468 1.468-1.468c.25-.25.652-.25.902 0s.25.656 0 .906l-1.465 1.469 1.465 1.465a.643.643 0 0 1-.328 1.082.64.64 0 0 1-.574-.176L12.16 6.664l-1.469 1.469a.64.64 0 0 1-.453.187.643.643 0 0 1-.449-1.093l1.465-1.465-1.465-1.469a.64.64 0 0 1 .45-1.094m10.882 9.602h2.559v2.558h-2.56Zm0 7.039h2.559v2.558h-2.56Zm0 7.039h2.559v2.562h-2.56Zm0 0"/></svg>