<?xml version="1.0" encoding="UTF-8"?>
<svg xmlns="http://www.w3.org/2000/svg" xmlns:xlink="http://www.w3.org/1999/xlink" width="32" height="32" viewBox="0 0 32 32">
<path fill="none" stroke-width="2" stroke-linecap="round" stroke-linejoin="round" stroke="rgb(0%, 0%, 0%)" stroke-opacity="1" stroke-miterlimit="4" d="M 3.000001 3.000001 L 21.000005 3.000001 C 21.553716 3.000001 21.999029 3.448243 21.999029 3.999024 L 21.999029 6.999025 C 21.999029 7.552736 21.553716 8.000978 21.000005 8.000978 L 3.000001 8.000978 C 2.44629 8.000978 2.000977 7.552736 2.000977 6.999025 L 2.000977 3.999024 C 2.000977 3.448243 2.44629 3.000001 3.000001 3.000001 Z M 3.000001 3.000001 " transform="matrix(1.333333, 0, 0, 1.333333, 0, 0)"/>
<path fill="none" stroke-width="2" stroke-linecap="round" stroke-linejoin="round" stroke="rgb(0%, 0%, 0%)" stroke-opacity="1" stroke-miterlimit="4" d="M 3.999024 8.000978 L 3.999024 18.999028 C 3.999024 20.10352 4.895509 21.000005 6.000001 21.000005 L 18.000004 21.000005 C 19.104497 21.000005 20.000981 20.10352 20.000981 18.999028 L 20.000981 8.000978 M 9.500979 17.000981 L 14.499027 12.000003 M 9.500979 12.000003 L 14.499027 17.000981 " transform="matrix(1.333333, 0, 0, 1.333333, 0, 0)"/>
</svg>
