<svg role="img" viewBox="0 0 32 32" height="32" width="32" xmlns="http://www.w3.org/2000/svg"><defs><clipPath id="322__320__204__202__453__451__93__91__94__92__459__457__88__86__62__60__14__12__450__448__remove-certificate_svg__svg/remove-certificate.svg185__svg/remove-certificate.svg181__clip-0"><path d="M5 .625h22v30.75H5Zm0 0"/></clipPath><clipPath id="323__321__205__203__454__452__94__92__95__93__460__458__89__87__63__61__15__13__451__449__remove-certificate_svg__svg/remove-certificate.svg187__svg/remove-certificate.svg183__clip-1"><path d="M0 32V0h32v32Zm7.55-20.48c0 4.648 3.805 8.449 8.45 8.449s8.45-3.801 8.45-8.45c0-4.644-3.805-8.449-8.45-8.449s-8.45 3.805-8.45 8.45"/></clipPath></defs><g clip-path="url(#322__320__204__202__453__451__93__91__94__92__459__457__88__86__62__60__14__12__450__448__remove-certificate_svg__svg/remove-certificate.svg185__svg/remove-certificate.svg181__clip-0)"><g clip-path="url(#323__321__205__203__454__452__94__92__95__93__460__458__89__87__63__61__15__13__451__449__remove-certificate_svg__svg/remove-certificate.svg187__svg/remove-certificate.svg183__clip-1)"><path d="M13.762.64a2.62 2.62 0 0 0-2.223 1.27l-.172.281a1.34 1.34 0 0 1-1.129.653l-.328.008A2.625 2.625 0 0 0 7.332 5.43l-.008.328c-.008.465-.254.89-.652 1.133l-.281.168a2.628 2.628 0 0 0-.942 3.523l.156.285c.227.406.227.899 0 1.305l-.156.285a2.633 2.633 0 0 0 .942 3.527l.28.168c.4.239.645.664.653 1.13l.008.327a2.622 2.622 0 0 0 2.578 2.578l.328.008c.465.008.89.254 1.13.653l.171.28a2.625 2.625 0 0 0 3.52.946l.289-.16a1.337 1.337 0 0 1 1.304 0l.29.156a2.624 2.624 0 0 0 3.519-.941l.172-.281a1.34 1.34 0 0 1 1.129-.653l.328-.004a2.63 2.63 0 0 0 2.578-2.582l.008-.328a1.34 1.34 0 0 1 .652-1.129l.281-.168a2.628 2.628 0 0 0 .942-3.523l-.156-.29a1.337 1.337 0 0 1 0-1.304l.156-.285a2.628 2.628 0 0 0-.942-3.523l-.28-.168a1.346 1.346 0 0 1-.653-1.133l-.008-.328a2.627 2.627 0 0 0-2.578-2.578l-.328-.008a1.34 1.34 0 0 1-1.13-.653l-.171-.277A2.625 2.625 0 0 0 16.94.97l-.289.156a1.337 1.337 0 0 1-1.304 0l-.29-.156a2.645 2.645 0 0 0-1.294-.33m9.672 20.57c-.422.16-.868.25-1.317.258l-.328.008c-.023 0-.047.015-.062.035l-.172.281a3.883 3.883 0 0 1-2.93 1.863l-.184.418-1.722 3.942 1.293 2.96c.09.204.281.348.504.376a.637.637 0 0 0 .582-.23l2.37-2.962h4.173a.648.648 0 0 0 .543-.297.635.635 0 0 0 .039-.613Zm-14.832.012L5.82 27.25a.641.641 0 0 0 .578.91h4.176l2.367 2.961c.137.176.36.266.582.234a.643.643 0 0 0 .504-.378l3.243-7.414a4.09 4.09 0 0 1-.946-.368l-.289-.156a.063.063 0 0 0-.035-.012.063.063 0 0 0-.035.012l-.29.156a3.98 3.98 0 0 1-1.886.489 3.882 3.882 0 0 1-3.344-1.891l-.172-.281c-.011-.024-.035-.035-.062-.035l-.328-.008a3.885 3.885 0 0 1-1.281-.246"/></g></g><path d="M16 4.48c-3.871 0-7.04 3.168-7.04 7.04 0 3.87 3.169 7.039 7.04 7.039s7.04-3.168 7.04-7.04c0-3.87-3.169-7.039-7.04-7.039m3.45 7.743h-6.9c-.421 0-.702-.282-.702-.703 0-.422.28-.704.703-.704h6.969c.421 0 .703.282.703.704 0 .421-.352.703-.774.703"/></svg>