<svg role="img" viewBox="0 0 32 32" xmlns="http://www.w3.org/2000/svg"><path d="M21.762 0C16.113 0 11.52 4.594 11.52 10.238c0 5.649 4.593 10.242 10.242 10.242a6.4 6.4 0 0 0-2.563 5.122c0 3.52 2.88 6.398 6.403 6.398C29.122 32 32 29.121 32 25.602c0-3.204-2.383-5.864-5.46-6.32C29.78 17.558 32 14.16 32 10.237 32 4.594 27.406 0 21.762 0m0 3.84c1.636 0 3.27.629 4.52 1.879a6.39 6.39 0 0 1 0 9.043l-9.044-9.043a6.38 6.38 0 0 1 4.524-1.88M11.18 14.802 0 25.98v3.84l10.8-10.8a.63.63 0 0 1 .45-.188c.168 0 .332.066.45.188a.63.63 0 0 1 0 .902L.64 30.98 1.66 32h4.36l2.3-2.3v-1.54h1.54l2.3-2.3v-.9h.899l1.66-1.66v-.902h.902L17.2 20.82a11.56 11.56 0 0 1-6.02-6.02m14.423 5.68c2.812 0 5.117 2.305 5.117 5.122 0 2.812-2.305 5.117-5.117 5.117-2.817 0-5.122-2.305-5.122-5.117 0-2.817 2.305-5.122 5.122-5.122m-3.141 4.48c-.387 0-.64.255-.64.642 0 .382.253.636.64.636h6.277c.387 0 .64-.254.64-.636 0-.387-.253-.641-.64-.641Zm0 0"/></svg>