<svg role="img" viewBox="0 0 32 32" xmlns="http://www.w3.org/2000/svg"><path d="M.64 0C.29 0 0 .29 0 .64v1.92c0 .164.066.32.18.441l9.218 9.8h9.364L27.98 3c.024-.023.043-.055.06-.078.026-.043.062-.078.081-.121.016-.047.012-.11.02-.16.004-.032.02-.047.02-.082V.64a.64.64 0 0 0-.188-.453A.64.64 0 0 0 27.52 0Zm9.598 14.078v10.883c0 .223.13.426.32.539l6.403 3.84a.6.6 0 0 0 .32.101.65.65 0 0 0 .32-.082c.2-.113.32-.328.32-.558V14.078Zm10.82 6.383-.078.02a.63.63 0 0 0-.5.449.65.65 0 0 0 .18.648l4.66 4.66-4.66 4.66a.64.64 0 0 0-.14.707.644.644 0 0 0 1.058.215l4.66-4.66 4.66 4.66a.65.65 0 0 0 .895-.027.65.65 0 0 0 .027-.895l-4.66-4.66 4.66-4.66a.64.64 0 0 0 .137-.75.63.63 0 0 0-.676-.348.64.64 0 0 0-.383.18l-4.66 4.66-4.66-4.66a.62.62 0 0 0-.52-.2m0 0"/></svg>