<?xml version="1.0" encoding="UTF-8"?>
<svg xmlns="http://www.w3.org/2000/svg" xmlns:xlink="http://www.w3.org/1999/xlink" width="32" height="32" viewBox="0 0 32 32">
<path fill-rule="nonzero" fill="rgb(0%, 0%, 0%)" fill-opacity="1" d="M 16 0 C 14.585938 0 13.441406 1.148438 13.441406 2.5625 C 13.441406 3.976562 14.589844 5.121094 16.003906 5.121094 C 17.417969 5.121094 18.5625 3.972656 18.5625 2.558594 C 18.5625 1.144531 17.414062 0 16 0 M 12.398438 3.898438 C 9.476562 5.152344 7.679688 7.972656 7.679688 11.519531 C 7.679688 18.558594 5.246094 20.328125 3.800781 21.378906 C 3.15625 21.84375 2.558594 22.277344 2.558594 23.039062 C 2.558594 25.734375 6.578125 26.878906 16 26.878906 C 25.421875 26.878906 29.441406 25.734375 29.441406 23.039062 C 29.441406 22.277344 28.84375 21.84375 28.199219 21.378906 C 26.753906 20.328125 24.320312 18.558594 24.320312 11.519531 C 24.320312 7.960938 22.527344 5.148438 19.601562 3.898438 C 19.035156 5.398438 17.601562 6.394531 16 6.398438 C 14.398438 6.390625 12.964844 5.398438 12.398438 3.898438 M 12.160156 28.078125 L 12.160156 28.160156 C 12.164062 30.28125 13.878906 31.996094 16 32 C 18.121094 31.996094 19.835938 30.28125 19.839844 28.160156 L 19.839844 28.078125 C 17.28125 28.1875 14.71875 28.1875 12.160156 28.078125 "/>
</svg>
