<svg role="img" viewBox="0 0 32 32" xmlns="http://www.w3.org/2000/svg"><path d="M25.504 1.273c-.953 0-1.535.872-2.34 2.079-1.52 2.265-4.043 6.003-11.012 6.226v9.637c3.914.105 6.387 1.351 8.098 2.887a6.34 6.34 0 0 0-1.05 3.5c0 3.527 2.874 6.398 6.402 6.398A6.407 6.407 0 0 0 32 25.602c0-2.883-1.918-5.325-4.54-6.125.036-1.372.056-2.918.056-4.758 0-13.446-1.262-13.446-2.012-13.446M4.477 9.602a3.194 3.194 0 0 0-3.196 3.195v3.2a3.194 3.194 0 0 0 3.196 3.194h6.402v-9.59ZM28.78 12.34c.008.754.016 1.543.016 2.379q-.001 1.616-.02 3.027a2.79 2.79 0 0 0 1.91-2.656c0-1.227-.761-2.32-1.906-2.75M4.246 20.46c.723 1.974 1.402 5.536 1.899 8.13.101.523.406 2.129 2.457 2.129h2.136c1.7 0 2.059-1.047 2.059-1.922 0-1.14-.64-1.871-1.383-2.606-.176-.277-.453-1.8-.523-5.718H4.477c-.079 0-.157-.008-.23-.012m21.355.02c1.359 0 2.664.539 3.625 1.5a5.12 5.12 0 0 1 1.492 3.62 5.1 5.1 0 0 1-1.496 3.622 5.1 5.1 0 0 1-3.621 1.496 5.12 5.12 0 0 1-3.622-1.492 5.13 5.13 0 0 1-1.5-3.625 5.107 5.107 0 0 1 5.122-5.122m-2.243 2.239a.64.64 0 0 0-.445.195.61.61 0 0 0 0 .895l1.79 1.793-1.79 1.789a.63.63 0 0 0-.191.449c0 .168.07.332.191.45a.68.68 0 0 0 .445.19c.13 0 .32-.066.45-.19l1.793-1.794 1.789 1.793c.129.125.32.191.449.191s.32-.066.45-.19a.6.6 0 0 0 .19-.45.6.6 0 0 0-.19-.45l-1.794-1.788 1.793-1.793a.62.62 0 0 0 0-.895.63.63 0 0 0-.45-.191.63.63 0 0 0-.448.191l-1.79 1.79-1.792-1.79a.65.65 0 0 0-.45-.195m0 0"/></svg>