<?xml version="1.0" encoding="UTF-8"?>
<svg xmlns="http://www.w3.org/2000/svg" xmlns:xlink="http://www.w3.org/1999/xlink" width="32" height="32" viewBox="0 0 32 32">
<path fill-rule="nonzero" fill="rgb(0%, 0%, 0%)" fill-opacity="1" d="M 13.441406 1.28125 C 12.382812 1.285156 11.527344 2.140625 11.519531 3.199219 L 11.519531 4.480469 L 5.121094 4.480469 C 4.78125 4.5 4.515625 4.78125 4.515625 5.121094 C 4.515625 5.460938 4.78125 5.742188 5.121094 5.761719 L 5.757812 5.761719 L 5.757812 28.800781 C 5.761719 29.859375 6.621094 30.714844 7.679688 30.71875 L 21.785156 30.71875 C 22.882812 31.550781 24.222656 32 25.601562 32 C 29.121094 32 32 29.121094 32 25.601562 C 32 22.296875 29.460938 19.554688 26.238281 19.234375 L 26.238281 5.761719 L 26.878906 5.761719 C 27.230469 5.761719 27.519531 5.476562 27.519531 5.121094 C 27.519531 4.765625 27.230469 4.480469 26.878906 4.480469 L 20.480469 4.480469 L 20.480469 3.199219 C 20.476562 2.140625 19.617188 1.285156 18.558594 1.28125 Z M 13.441406 2.558594 L 18.558594 2.558594 C 18.730469 2.558594 18.894531 2.625 19.011719 2.746094 C 19.132812 2.867188 19.199219 3.027344 19.199219 3.199219 L 19.199219 4.480469 L 12.800781 4.480469 L 12.800781 3.199219 C 12.800781 2.847656 13.085938 2.558594 13.441406 2.558594 M 12.160156 8.960938 C 12.332031 8.960938 12.496094 9.027344 12.613281 9.148438 C 12.734375 9.265625 12.800781 9.429688 12.800781 9.601562 L 12.800781 25.601562 C 12.777344 25.9375 12.496094 26.199219 12.160156 26.199219 C 11.824219 26.199219 11.542969 25.9375 11.519531 25.601562 L 11.519531 9.601562 C 11.519531 9.246094 11.804688 8.960938 12.160156 8.960938 M 16 8.960938 C 16.351562 8.960938 16.640625 9.246094 16.640625 9.601562 L 16.640625 25.601562 C 16.636719 25.8125 16.527344 26.011719 16.351562 26.128906 C 16.175781 26.246094 15.949219 26.265625 15.753906 26.1875 C 15.519531 26.085938 15.363281 25.859375 15.359375 25.601562 L 15.359375 9.601562 C 15.359375 9.246094 15.644531 8.960938 16 8.960938 M 19.839844 8.960938 C 20.195312 8.960938 20.480469 9.246094 20.480469 9.601562 L 20.480469 21.769531 C 19.789062 22.683594 19.359375 23.769531 19.238281 24.910156 C 19.226562 24.929688 19.210938 24.941406 19.199219 24.960938 L 19.199219 9.601562 C 19.199219 9.25 19.484375 8.964844 19.839844 8.960938 M 25.601562 20.480469 C 28.410156 20.480469 30.71875 22.785156 30.71875 25.601562 C 30.71875 28.414062 28.410156 30.71875 25.601562 30.71875 C 22.78125 30.71875 20.476562 28.414062 20.476562 25.601562 C 20.476562 22.785156 22.78125 20.480469 25.601562 20.480469 M 23.355469 22.71875 C 23.1875 22.722656 23.027344 22.792969 22.910156 22.914062 C 22.789062 23.03125 22.71875 23.195312 22.71875 23.363281 C 22.71875 23.53125 22.789062 23.691406 22.910156 23.808594 L 24.703125 25.601562 L 22.910156 27.390625 C 22.789062 27.507812 22.71875 27.671875 22.71875 27.839844 C 22.71875 28.011719 22.789062 28.171875 22.910156 28.289062 C 23.027344 28.410156 23.191406 28.480469 23.359375 28.480469 C 23.53125 28.484375 23.695312 28.414062 23.808594 28.289062 L 25.601562 26.496094 L 27.390625 28.289062 C 27.507812 28.410156 27.667969 28.480469 27.839844 28.480469 C 28.007812 28.480469 28.167969 28.410156 28.285156 28.289062 C 28.402344 28.167969 28.46875 28.007812 28.476562 27.839844 C 28.46875 27.671875 28.402344 27.515625 28.289062 27.390625 L 26.492188 25.601562 L 28.285156 23.808594 C 28.402344 23.6875 28.46875 23.527344 28.476562 23.359375 C 28.46875 23.195312 28.402344 23.035156 28.289062 22.914062 C 28.171875 22.789062 28.007812 22.71875 27.839844 22.71875 C 27.667969 22.71875 27.503906 22.789062 27.386719 22.914062 L 25.601562 24.703125 L 23.808594 22.914062 C 23.6875 22.792969 23.527344 22.722656 23.355469 22.71875 M 23.355469 22.71875 "/>
</svg>
