<svg role="img" viewBox="0 0 32 32" xmlns="http://www.w3.org/2000/svg"><defs><clipPath id="remove-firewall_svg__a"><path d="M1.25 5h29.5v22H1.25Zm0 0"/></clipPath><clipPath id="remove-firewall_svg__b"><path d="M0 32V0h32v32Zm7.3-15.5c0 4.645 3.805 8.45 8.45 8.45s8.45-3.805 8.45-8.45-3.805-8.45-8.45-8.45S7.3 11.856 7.3 16.5"/></clipPath></defs><g clip-path="url(#remove-firewall_svg__a)"><g clip-path="url(#remove-firewall_svg__b)"><path d="M1.281 5.121v6.399h8.957v-6.4Zm10.239 0v6.399h8.96v-6.4Zm10.242 0v6.399h8.957v-6.4Zm-20.48 7.68v6.398h3.84v-6.398Zm5.116 0v6.398h8.961v-6.398Zm10.243 0v6.398h8.96v-6.398Zm10.238 0v6.398h3.84v-6.398ZM1.28 20.48v6.398h8.957V20.48Zm10.239 0v6.398h8.96V20.48Zm10.242 0v6.398h8.957V20.48Zm0 0" fill="rgb(41.568628%, 41.568628%, 41.568628%)"/></g></g><path d="M15.75 9.46c-3.871 0-7.04 3.169-7.04 7.04s3.169 7.04 7.04 7.04 7.04-3.169 7.04-7.04-3.169-7.04-7.04-7.04m3.45 7.743h-6.9c-.421 0-.702-.281-.702-.703s.28-.703.703-.703h6.969c.421 0 .703.281.703.703s-.352.703-.774.703"/></svg>