<svg role="img" viewBox="0 0 32 32" xmlns="http://www.w3.org/2000/svg"><path d="M26.96 14.246c.009-.125.013-.242.013-.36 0-4.64-3.778-8.417-8.418-8.417-3.203 0-6.133 1.855-7.54 4.695a4.483 4.483 0 0 0-6.941 3.438A6.21 6.21 0 0 0 0 19.414a6.19 6.19 0 0 0 6.191 6.188h20.11a5.71 5.71 0 0 0 5.699-5.7 5.7 5.7 0 0 0-5.04-5.656m-6.667 6.422a.641.641 0 0 1-.906.906l-2.746-2.75-2.75 2.75a.63.63 0 0 1-.45.188.65.65 0 0 1-.593-.395.65.65 0 0 1 .14-.699l2.746-2.746-2.746-2.75a.64.64 0 0 1 0-.906c.25-.25.653-.25.903 0l2.75 2.75 2.746-2.75a.642.642 0 0 1 .906.906l-2.746 2.75Zm0 0" fill="rgb(0%, 0%, 0%)"/></svg>