<svg role="img" viewBox="0 0 32 32" height="32" width="32" xmlns="http://www.w3.org/2000/svg"><path d="M21.121.059c-.48 0-.937.183-1.281.52L16.398 3.98l.883.88c.25.25.25.652 0 .902a.599.599 0 0 1-.441.199.665.665 0 0 1-.461-.2L15.5 4.88l-15 14.9c-.336.336-.52.785-.52 1.278 0 .492.184.945.52 1.277l2 1.984c.23.227.586.266.84.059.61-.488 1.32-.758 1.98-.758 1.66 0 3 1.34 3 3 0 .727-.27 1.414-.742 1.938-.226.253-.2.64.043.882l1.98 1.977c.336.34.79.543 1.278.543.492 0 .945-.203 1.281-.543l5.8-5.797c.337 3.57 3.34 6.379 7 6.379 3.88 0 7.04-3.16 7.04-7.043 0-3.66-2.809-6.66-6.379-7l1.48-1.477-.863-.859a.635.635 0 0 1 0-.902c.25-.25.653-.25.903 0l.859.86 3.398-3.38c.356-.281.57-.719.602-1.18.04-.507-.14-1-.5-1.359l-2-1.98a.613.613 0 0 0-.84-.059c-.574.457-1.21.7-1.898.7-1.66 0-3.024-1.34-3.024-3 0-.692.242-1.348.703-1.923a.633.633 0 0 0-.062-.84l-1.98-1.98a1.804 1.804 0 0 0-1.278-.52m-2.5 6.403c.16 0 .332.07.457.2l.902.898c.25.25.25.652 0 .902a.67.67 0 0 1-.46.18.624.624 0 0 1-.442-.18l-.898-.902a.635.635 0 0 1 0-.903.599.599 0 0 1 .441-.199m2.7 2.7c.163 0 .335.054.46.179l.899.898a.66.66 0 0 1 0 .922.653.653 0 0 1-.461.18.637.637 0 0 1-.457-.18l-.903-.898a.66.66 0 0 1 0-.922.63.63 0 0 1 .461-.18m2.7 2.7a.607.607 0 0 1 .44.18l.9.902c.25.25.25.648 0 .898a.598.598 0 0 1-.438.2.658.658 0 0 1-.461-.2l-.902-.899a.642.642 0 0 1-.188-.453c0-.171.067-.336.192-.453a.589.589 0 0 1 .457-.176m.937 7.34a5.748 5.748 0 0 1 4.078 1.684 5.774 5.774 0 0 1 0 8.152 5.772 5.772 0 0 1-4.074 1.684 5.753 5.753 0 0 1-5.766-5.758c0-1.531.606-2.996 1.688-4.078a5.748 5.748 0 0 1 4.078-1.684m-2.3 2.86a.906.906 0 0 1-.083.02.638.638 0 0 0-.316 1.1l1.777 1.782-1.777 1.777a.638.638 0 0 0 0 .922c.12.121.289.188.46.192a.683.683 0 0 0 .458-.192l1.78-1.781 1.778 1.781a.66.66 0 0 0 .887-.035.652.652 0 0 0 .035-.887l-1.781-1.777 1.781-1.781a.637.637 0 0 0 .137-.75.637.637 0 0 0-.676-.352.602.602 0 0 0-.383.184l-1.777 1.777-1.781-1.777a.636.636 0 0 0-.52-.203m0 0"/></svg>