<svg role="img" viewBox="0 0 32 32" xmlns="http://www.w3.org/2000/svg"><path d="M29.578 5.023C24.84 3.984 22.043 2.512 20 1.433 18.414.603 17.266 0 16 0s-2.414.602-4 1.434c-2.043 1.078-4.84 2.55-9.578 3.59l-.5.109v.515c0 19.493 13.672 26.036 13.812 26.098l.278.129.277-.14c.137-.07 13.79-7.239 13.79-26.087v-.515ZM20.934 18.11a.64.64 0 1 1-.907.903l-3.707-3.707-3.707 3.707a.64.64 0 0 1-.453.191.64.64 0 0 1-.453-.191.63.63 0 0 1-.187-.45c0-.167.066-.332.187-.453l3.707-3.71-3.707-3.708a.635.635 0 0 1 0-.902c.25-.25.656-.25.906 0l3.707 3.707 3.707-3.707c.25-.25.657-.25.907 0s.25.652 0 .902l-3.707 3.707Zm0 0"/></svg>