<svg role="img" viewBox="0 0 32 32" height="32" width="32" xmlns="http://www.w3.org/2000/svg"><path d="M26.96 14.246c.009-.125.013-.242.013-.36 0-4.64-3.778-8.417-8.418-8.417-3.203 0-6.133 1.855-7.54 4.695a4.471 4.471 0 0 0-4.456-.273 4.483 4.483 0 0 0-2.485 3.71A6.211 6.211 0 0 0 0 19.415a6.187 6.187 0 0 0 6.191 6.188h20.11a5.708 5.708 0 0 0 5.699-5.7 5.701 5.701 0 0 0-5.04-5.656m-6.667 6.422a.64.64 0 0 1-.016.89.637.637 0 0 1-.89.016l-2.746-2.75-2.75 2.75a.61.61 0 0 1-.45.188.648.648 0 0 1-.593-.395.646.646 0 0 1 .14-.699l2.746-2.746-2.746-2.75a.641.641 0 0 1 0-.906c.25-.25.653-.25.903 0l2.75 2.75 2.746-2.75a.645.645 0 0 1 .879.027c.238.242.25.625.027.879l-2.746 2.75Zm0 0"/></svg>