<?xml version="1.0" encoding="UTF-8"?>
<svg xmlns="http://www.w3.org/2000/svg" xmlns:xlink="http://www.w3.org/1999/xlink" width="32" height="32" viewBox="0 0 32 32">
<path fill-rule="nonzero" fill="rgb(0%, 0%, 0%)" fill-opacity="1" d="M 16 1.921875 C 8.234375 1.921875 1.921875 8.234375 1.921875 16 C 1.921875 18.5625 2.613281 20.953125 3.796875 23.019531 L 2.292969 22.5625 C 1.851562 22.414062 1.363281 22.515625 1.019531 22.828125 C 0.675781 23.144531 0.53125 23.621094 0.640625 24.074219 C 0.75 24.527344 1.097656 24.886719 1.546875 25.007812 L 7.769531 26.910156 L 8.632812 20.503906 C 8.6875 20.140625 8.582031 19.769531 8.34375 19.488281 C 8.105469 19.203125 7.757812 19.039062 7.390625 19.035156 C 6.734375 19.019531 6.175781 19.507812 6.097656 20.160156 L 5.90625 21.566406 C 4.96875 19.859375 4.476562 17.945312 4.480469 16 C 4.480469 9.617188 9.617188 4.480469 16 4.480469 L 17.28125 4.480469 L 17.28125 1.921875 Z M 20.300781 2.527344 L 19.300781 4.890625 L 20.484375 5.390625 L 20.484375 5.382812 C 21.664062 5.882812 20.488281 5.382812 21.664062 5.882812 L 22.664062 3.527344 Z M 24.230469 5.089844 L 23.367188 11.496094 C 23.292969 11.957031 23.472656 12.421875 23.835938 12.710938 C 24.203125 12.996094 24.695312 13.0625 25.125 12.882812 C 25.554688 12.703125 25.851562 12.304688 25.902344 11.839844 L 26.09375 10.433594 C 27.03125 12.140625 27.523438 14.054688 27.519531 16 C 27.519531 22.382812 22.382812 27.519531 16 27.519531 L 14.71875 27.519531 L 14.71875 30.078125 L 16 30.078125 C 23.765625 30.078125 30.078125 23.765625 30.078125 16 C 30.078125 13.4375 29.386719 11.046875 28.203125 8.980469 L 29.707031 9.4375 C 30.148438 9.585938 30.636719 9.484375 30.980469 9.171875 C 31.324219 8.855469 31.46875 8.378906 31.359375 7.925781 C 31.25 7.472656 30.902344 7.113281 30.453125 6.992188 Z M 10.335938 26.117188 L 9.335938 28.472656 L 10.515625 28.972656 L 11.699219 29.472656 L 12.691406 27.109375 L 11.515625 26.609375 L 11.515625 26.617188 Z M 10.335938 26.117188 "/>
</svg>
