<svg role="img" viewBox="0 0 32 32" height="32" width="32" xmlns="http://www.w3.org/2000/svg"><path d="M16 1.922C8.234 1.922 1.922 8.234 1.922 16c0 2.563.691 4.953 1.875 7.02l-1.504-.457a1.277 1.277 0 0 0-1.652 1.511c.109.453.457.813.906.934L7.77 26.91l.863-6.406a1.275 1.275 0 0 0-.29-1.016 1.259 1.259 0 0 0-.952-.453 1.274 1.274 0 0 0-1.293 1.125l-.192 1.406A11.512 11.512 0 0 1 4.48 16C4.48 9.617 9.617 4.48 16 4.48h1.281V1.922Zm4.3.605-1 2.364 1.184.5v-.008c1.18.5.004 0 1.18.5l1-2.356Zm3.93 2.563-.863 6.406c-.074.461.106.926.469 1.215a1.283 1.283 0 0 0 2.066-.871l.192-1.406A11.512 11.512 0 0 1 27.52 16c0 6.383-5.137 11.52-11.52 11.52h-1.281v2.558H16c7.766 0 14.078-6.312 14.078-14.078 0-2.562-.691-4.953-1.875-7.02l1.504.457a1.277 1.277 0 0 0 1.652-1.511 1.277 1.277 0 0 0-.906-.934ZM10.336 26.117l-1 2.356 1.18.5 1.183.5.992-2.364-1.175-.5v.008Zm0 0"/></svg>