<?xml version="1.0" encoding="UTF-8"?>
<svg xmlns="http://www.w3.org/2000/svg" xmlns:xlink="http://www.w3.org/1999/xlink" width="32" height="32" viewBox="0 0 32 32">
<path fill-rule="nonzero" fill="rgb(0%, 0%, 0%)" fill-opacity="1" d="M 29 16 C 29 23.179688 23.179688 29 16 29 C 8.820312 29 3 23.179688 3 16 C 3 8.820312 8.820312 3 16 3 C 23.179688 3 29 8.820312 29 16 M 22.789062 11.890625 C 21.859375 10.402344 20.464844 9.265625 18.820312 8.652344 L 18.117188 10.527344 C 19.332031 11 20.355469 11.855469 21.035156 12.96875 C 21.710938 14.070312 21.972656 15.394531 21.820312 16.667969 C 21.660156 17.945312 21.074219 19.132812 20.160156 20.039062 C 19.25 20.945312 18.0625 21.519531 16.789062 21.671875 C 15.519531 21.828125 14.238281 21.554688 13.140625 20.898438 C 12.054688 20.242188 11.214844 19.246094 10.757812 18.0625 C 10.304688 16.886719 10.261719 15.589844 10.632812 14.386719 C 10.875 13.605469 11.292969 12.886719 11.839844 12.28125 L 13.414062 14.027344 L 14.789062 8.003906 L 8.648438 8.734375 L 10.175781 10.433594 C 9.304688 11.355469 8.664062 12.472656 8.300781 13.6875 C 7.792969 15.414062 7.882812 17.261719 8.550781 18.929688 C 9.21875 20.589844 10.421875 21.980469 11.972656 22.878906 C 13.511719 23.773438 15.304688 24.128906 17.070312 23.890625 C 20.6875 23.414062 23.515625 20.535156 23.925781 16.910156 C 24.113281 15.175781 23.722656 13.371094 22.789062 11.890625 M 22.789062 11.890625 "/>
</svg>
