<svg role="img" viewBox="0 0 32 32" xmlns="http://www.w3.org/2000/svg"><path d="M16 1.281A14.68 14.68 0 0 0 5.121 6.098V3.199a1.283 1.283 0 1 0-2.563 0v7.04h7.044c.46.007.89-.235 1.12-.634a1.27 1.27 0 0 0 0-1.289 1.266 1.266 0 0 0-1.12-.636h-2.47A12.108 12.108 0 0 1 16 3.84c6.73 0 12.16 5.43 12.16 12.16S22.73 28.16 16 28.16 3.84 22.73 3.84 16c.008-.46-.235-.89-.633-1.125a1.295 1.295 0 0 0-1.293 0c-.398.234-.64.664-.633 1.125 0 8.113 6.606 14.719 14.719 14.719S30.719 24.113 30.719 16 24.113 1.281 16 1.281m0 10.239c-2.46 0-4.48 2.02-4.48 4.48 0 2.46 2.02 4.48 4.48 4.48 2.46 0 4.48-2.02 4.48-4.48 0-2.46-2.02-4.48-4.48-4.48m0 2.558c1.074 0 1.922.848 1.922 1.922A1.906 1.906 0 0 1 16 17.922 1.906 1.906 0 0 1 14.078 16c0-1.074.848-1.922 1.922-1.922m0 0"/></svg>