<svg role="img" viewBox="0 0 32 32" xmlns="http://www.w3.org/2000/svg"><path d="M29 16c0 7.18-5.82 13-13 13S3 23.18 3 16 8.82 3 16 3s13 5.82 13 13m-6.21-4.11a7.969 7.969 0 0 0-3.97-3.238l-.703 1.875a5.94 5.94 0 0 1 2.918 2.442c.676 1.101.938 2.426.785 3.699a5.725 5.725 0 0 1-1.66 3.371 5.745 5.745 0 0 1-3.37 1.633 5.742 5.742 0 0 1-3.65-.774 5.717 5.717 0 0 1-2.382-2.835 5.624 5.624 0 0 1-.125-3.676c.242-.782.66-1.5 1.207-2.106l1.574 1.746 1.375-6.023-6.14.73 1.527 1.7A8.129 8.129 0 0 0 8.3 13.688a8.042 8.042 0 0 0 .25 5.242 8.049 8.049 0 0 0 3.422 3.949 8 8 0 0 0 5.097 1.012 7.972 7.972 0 0 0 4.637-2.317 7.905 7.905 0 0 0 2.219-4.664c.187-1.734-.203-3.539-1.137-5.02m0 0"/></svg>