<svg role="img" viewBox="0 0 32 32" xmlns="http://www.w3.org/2000/svg"><path d="M16 1.281c-.46-.008-.89.235-1.125.633-.23.399-.23.89 0 1.293.234.398.664.64 1.125.633 6.73 0 12.16 5.43 12.16 12.16S22.73 28.16 16 28.16 3.84 22.73 3.84 16c0-3.504 1.476-6.652 3.84-8.867v2.469c-.008.46.234.89.636 1.12.399.235.891.235 1.29 0 .398-.23.64-.66.632-1.12V2.559H3.2a1.282 1.282 0 1 0 0 2.562h2.899A14.68 14.68 0 0 0 1.28 16c0 8.113 6.606 14.719 14.719 14.719S30.719 24.113 30.719 16 24.113 1.281 16 1.281m0 0"/></svg>