<svg role="img" viewBox="0 0 32 32" height="32" width="32" xmlns="http://www.w3.org/2000/svg"><path d="M16 1.281A14.681 14.681 0 0 0 5.121 6.098V3.199A1.286 1.286 0 0 0 4.5 2.035a1.29 1.29 0 0 0-1.32 0A1.286 1.286 0 0 0 2.559 3.2v7.04h7.043c.46.007.89-.235 1.12-.634a1.27 1.27 0 0 0 0-1.289 1.266 1.266 0 0 0-1.12-.636h-2.47A12.107 12.107 0 0 1 16 3.84c6.73 0 12.16 5.43 12.16 12.16S22.73 28.16 16 28.16 3.84 22.73 3.84 16c.008-.46-.235-.89-.633-1.125a1.295 1.295 0 0 0-1.293 0c-.398.234-.64.664-.633 1.125 0 8.113 6.606 14.719 14.719 14.719S30.719 24.113 30.719 16 24.113 1.281 16 1.281m0 10.239c-2.46 0-4.48 2.02-4.48 4.48 0 2.46 2.02 4.48 4.48 4.48 2.46 0 4.48-2.02 4.48-4.48 0-2.46-2.02-4.48-4.48-4.48m0 2.558c1.074 0 1.922.848 1.922 1.922a1.895 1.895 0 0 1-.559 1.363c-.36.364-.851.563-1.363.559a1.895 1.895 0 0 1-1.363-.559A1.895 1.895 0 0 1 14.078 16c0-1.074.848-1.922 1.922-1.922m0 0"/></svg>