<?xml version="1.0" encoding="UTF-8"?>
<svg xmlns="http://www.w3.org/2000/svg" xmlns:xlink="http://www.w3.org/1999/xlink" width="32" height="32" viewBox="0 0 32 32">
<path fill-rule="nonzero" fill="rgb(0%, 0%, 0%)" fill-opacity="1" d="M 16 1.28125 C 15.539062 1.273438 15.109375 1.515625 14.875 1.914062 C 14.644531 2.3125 14.644531 2.804688 14.875 3.207031 C 15.109375 3.605469 15.539062 3.847656 16 3.839844 C 22.730469 3.839844 28.160156 9.269531 28.160156 16 C 28.160156 22.730469 22.730469 28.160156 16 28.160156 C 9.269531 28.160156 3.839844 22.730469 3.839844 16 C 3.839844 12.496094 5.316406 9.347656 7.679688 7.132812 L 7.679688 9.601562 C 7.671875 10.0625 7.914062 10.492188 8.316406 10.722656 C 8.714844 10.957031 9.207031 10.957031 9.605469 10.722656 C 10.003906 10.492188 10.246094 10.0625 10.238281 9.601562 L 10.238281 2.558594 L 3.199219 2.558594 C 2.730469 2.539062 2.289062 2.78125 2.046875 3.183594 C 1.808594 3.589844 1.808594 4.089844 2.046875 4.496094 C 2.289062 4.898438 2.730469 5.140625 3.199219 5.121094 L 6.097656 5.121094 C 3.027344 7.902344 1.277344 11.855469 1.28125 16 C 1.28125 24.113281 7.886719 30.71875 16 30.71875 C 24.113281 30.71875 30.71875 24.113281 30.71875 16 C 30.71875 7.886719 24.113281 1.28125 16 1.28125 M 16 1.28125 "/>
</svg>
