<svg role="img" viewBox="0 0 32 32" height="32" width="32" xmlns="http://www.w3.org/2000/svg"><path d="M29 16c0 7.18-5.82 13-13 13S3 23.18 3 16 8.82 3 16 3s13 5.82 13 13m-6.21-4.11a7.952 7.952 0 0 0-3.97-3.238l-.703 1.875a5.937 5.937 0 0 1 2.918 2.442c.676 1.101.938 2.426.785 3.699a5.736 5.736 0 0 1-1.66 3.371 5.745 5.745 0 0 1-3.37 1.633 5.739 5.739 0 0 1-3.65-.774 5.726 5.726 0 0 1-2.382-2.835 5.622 5.622 0 0 1-.125-3.676c.242-.782.66-1.5 1.207-2.106l1.574 1.746 1.375-6.023-6.14.73 1.527 1.7A8.129 8.129 0 0 0 8.3 13.688a8.02 8.02 0 0 0 .25 5.242 8.044 8.044 0 0 0 3.422 3.949 8.01 8.01 0 0 0 5.097 1.012 7.939 7.939 0 0 0 6.855-6.98c.188-1.735-.202-3.54-1.136-5.02m0 0"/></svg>