<?xml version="1.0" encoding="UTF-8"?>
<svg xmlns="http://www.w3.org/2000/svg" xmlns:xlink="http://www.w3.org/1999/xlink" width="35.84" height="32" viewBox="0 0 35.84 32">
<path fill-rule="nonzero" fill="rgb(96.078431%, 27.058824%, 36.078431%)" fill-opacity="1" d="M 0.707031 0.710938 C 2.554688 0.046875 6.214844 -0.730469 10.363281 1.347656 C 11.484375 1.96875 12.519531 2.734375 13.441406 3.625 C 14.898438 3.363281 16.398438 3.230469 17.921875 3.230469 C 22.476562 3.230469 26.800781 4.421875 30.085938 6.589844 C 31.789062 7.714844 33.144531 9.046875 34.109375 10.550781 C 35.183594 12.230469 35.730469 14.03125 35.730469 15.964844 C 35.730469 17.847656 35.183594 19.652344 34.109375 21.328125 C 33.140625 22.835938 31.789062 24.164062 30.085938 25.289062 C 26.800781 27.457031 22.476562 28.652344 17.921875 28.652344 C 16.398438 28.652344 14.898438 28.515625 13.441406 28.253906 C 12.519531 29.144531 11.484375 29.910156 10.363281 30.53125 C 6.210938 32.609375 2.554688 31.835938 0.707031 31.167969 C 0.0976562 30.949219 -0.0898438 30.179688 0.359375 29.714844 C 1.664062 28.363281 3.820312 25.695312 3.289062 23.269531 C 1.230469 21.160156 0.109375 18.613281 0.109375 15.914062 C 0.109375 13.265625 1.230469 10.71875 3.289062 8.609375 C 3.820312 6.183594 1.664062 3.515625 0.359375 2.164062 C -0.0898438 1.703125 0.0976562 0.929688 0.707031 0.710938 M 17.734375 6.78125 C 9.738281 6.78125 3.257812 10.976562 3.257812 16.148438 C 3.257812 18.402344 4.488281 20.472656 6.539062 22.089844 C 7.117188 23.933594 6.777344 26.007812 5.523438 28.320312 C 5.464844 28.433594 5.410156 28.542969 5.347656 28.65625 C 6.421875 28.566406 7.511719 28.269531 8.613281 27.730469 C 9.453125 27.253906 10.226562 26.679688 10.921875 26.011719 L 12.171875 24.804688 C 13.886719 25.265625 15.765625 25.519531 17.734375 25.519531 C 25.730469 25.519531 32.214844 21.328125 32.214844 16.148438 C 32.214844 10.976562 25.730469 6.78125 17.734375 6.78125 M 10.808594 13.996094 C 11.988281 13.996094 12.941406 14.949219 12.941406 16.121094 C 12.941406 17.292969 11.988281 18.246094 10.808594 18.246094 C 9.628906 18.246094 8.675781 17.292969 8.675781 16.121094 C 8.675781 14.949219 9.628906 13.996094 10.808594 13.996094 M 17.675781 13.996094 C 18.855469 13.996094 19.8125 14.949219 19.8125 16.121094 C 19.8125 17.292969 18.855469 18.246094 17.675781 18.246094 C 16.5 18.246094 15.542969 17.292969 15.542969 16.121094 C 15.542969 14.949219 16.5 13.996094 17.675781 13.996094 M 24.546875 13.996094 C 25.722656 13.996094 26.679688 14.949219 26.679688 16.121094 C 26.679688 17.292969 25.722656 18.246094 24.546875 18.246094 C 23.367188 18.246094 22.410156 17.292969 22.410156 16.121094 C 22.410156 14.949219 23.367188 13.996094 24.546875 13.996094 "/>
</svg>
