<svg role="img" viewBox="0 0 32 32" height="32" width="32" xmlns="http://www.w3.org/2000/svg"><path d="M16 1.281C7.883 1.281 1.281 7.883 1.281 16c0 8.117 6.602 14.719 14.719 14.719 2.387 0 4.645-.574 6.64-1.586a1.96 1.96 0 0 1-.316-.254l-5.199-5.2 5.2-5.195a1.912 1.912 0 0 1 2.714 0 1.92 1.92 0 0 1 0 2.715l-.562.563h2.992c.676 0 1.32.12 1.926.332A14.653 14.653 0 0 0 30.719 16c0-8.117-6.602-14.719-14.719-14.719m0 3.2a.64.64 0 0 1 .64.64V14.2a1.912 1.912 0 0 1 1.283 1.8A1.926 1.926 0 0 1 16 17.922c-.297 0-.57-.074-.824-.195l-3.844 3.847a.639.639 0 0 1-.906 0 .641.641 0 0 1 0-.906l3.847-3.844a1.896 1.896 0 0 1-.195-.824c0-.836.54-1.54 1.281-1.8V5.12c0-.355.29-.64.641-.64m7.668 14.714a.645.645 0 0 0-.441.192l-4.293 4.293 4.293 4.293a.64.64 0 0 0 1.082-.282.64.64 0 0 0-.176-.625l-2.746-2.746h6.082c1.808 0 3.25 1.43 3.25 3.2 0 1.77-1.442 3.199-3.25 3.199a.644.644 0 0 0-.563.965.64.64 0 0 0 .563.316C29.957 32 32 29.992 32 27.52c0-2.473-2.043-4.48-4.531-4.48h-6.082l2.746-2.747a.644.644 0 0 0 .144-.707.642.642 0 0 0-.609-.39m0 0"/></svg>