<?xml version="1.0" encoding="UTF-8"?>
<svg xmlns="http://www.w3.org/2000/svg" xmlns:xlink="http://www.w3.org/1999/xlink" width="26.764059" height="32" viewBox="0 0 26.764059 32">
<path fill-rule="nonzero" fill="rgb(0%, 56.862745%, 74.117647%)" fill-opacity="1" d="M 26.160156 10.285156 L 19.472656 10.285156 L 19.472656 8.0625 L 23.921875 8.0625 L 23.921875 2.855469 L 20.523438 2.855469 L 20.523438 5.804688 L 15.027344 5.804688 L 15.027344 2.855469 L 11.699219 2.855469 L 11.699219 5.804688 L 6.046875 5.804688 L 6.046875 2.855469 L 2.855469 2.855469 L 2.855469 8.0625 L 7.15625 8.0625 L 7.15625 10.285156 L 0.617188 10.285156 L 0.617188 0.617188 L 8.269531 0.617188 L 8.269531 3.570312 L 9.457031 3.570312 L 9.457031 0.617188 L 17.265625 0.617188 L 17.265625 3.570312 L 18.285156 3.570312 L 18.285156 0.617188 L 26.160156 0.617188 Z M 23.867188 14.472656 L 23.867188 26.773438 C 23.867188 28.082031 22.800781 29.152344 21.488281 29.152344 L 5.277344 29.152344 C 3.960938 29.152344 2.898438 28.082031 2.898438 26.773438 L 2.898438 14.472656 Z M 26.109375 12.242188 L 0.667969 12.242188 L 0.667969 26.78125 C 0.667969 29.324219 2.734375 31.394531 5.277344 31.394531 L 21.5 31.394531 C 24.042969 31.394531 26.109375 29.324219 26.109375 26.78125 Z M 26.109375 12.242188 "/>
<path fill-rule="nonzero" fill="rgb(0%, 56.862745%, 74.117647%)" fill-opacity="1" d="M 13.386719 18.972656 C 14.714844 18.972656 15.808594 20.058594 15.808594 21.394531 L 15.808594 23.929688 L 10.976562 23.929688 L 10.976562 21.394531 C 10.964844 20.058594 12.050781 18.972656 13.386719 18.972656 M 13.386719 16.734375 C 10.828125 16.734375 8.734375 18.816406 8.734375 21.386719 L 8.734375 26.160156 L 18.050781 26.160156 L 18.050781 21.386719 C 18.042969 18.828125 15.949219 16.734375 13.386719 16.734375 "/>
</svg>
