<?xml version="1.0" encoding="UTF-8"?>
<svg xmlns="http://www.w3.org/2000/svg" xmlns:xlink="http://www.w3.org/1999/xlink" width="32" height="32" viewBox="0 0 32 32">
<rect x="-3.2" y="-3.2" width="38.4" height="38.4" fill="rgb(100%, 100%, 100%)" fill-opacity="1"/>
<path fill-rule="nonzero" fill="rgb(40.000001%, 40.000001%, 40.000001%)" fill-opacity="1" d="M 32 32 L 0 32 L 0 0 L 32 0 Z M 3.105469 28.800781 L 28.929688 28.800781 L 28.929688 3.199219 L 3.105469 3.199219 "/>
<path fill-rule="nonzero" fill="rgb(60.000002%, 13.725491%, 8.235294%)" fill-opacity="1" stroke-width="2.56" stroke-linecap="butt" stroke-linejoin="miter" stroke="rgb(100%, 100%, 100%)" stroke-opacity="1" stroke-miterlimit="4" d="M 190.71875 65.28125 L 190.71875 190.71875 L 159.21875 96.78125 Z M 65.28125 190.71875 L 190.71875 190.71875 L 96.78125 159.21875 Z M 96.78125 159.21875 L 190.96875 190.46875 L 128 128 Z M 128 128 L 190.71875 190.71875 L 159.21875 96.78125 Z M 65.28125 159.21875 L 65.28125 190.46875 L 96.5 159.21875 Z M 128 128 L 96.78125 128 L 96.78125 159.21875 Z M 159.21875 96.78125 L 128 96.78125 L 128 128 Z M 190.71875 65.28125 L 159.21875 65.28125 L 159.21875 96.5 Z M 96.78125 128 L 65.28125 159.21875 L 96.5 159.21875 L 96.5 128 Z M 128 96.78125 L 96.78125 128 L 128 128 Z M 159.21875 65.28125 L 128 96.78125 L 159.21875 96.78125 Z M 159.21875 65.28125 " transform="matrix(0.125, 0, 0, 0.125, 0, 0)"/>
</svg>
