<svg role="img" viewBox="0 0 32 32" height="32" width="32" xmlns="http://www.w3.org/2000/svg"><path d="M-3.2-3.2h38.4v38.4H-3.2z" fill="rgb(100%, 100%, 100%)"/><path d="M32 32H0V0h32ZM3.105 28.8H28.93V3.2H3.105" fill="rgb(40%, 40%, 40%)"/><path d="M23.84 8.16v15.68l-3.938-11.742ZM8.16 23.84h15.68l-11.742-3.938Zm3.938-3.938L23.87 23.81 16 16ZM16 16l7.84 7.84-3.938-11.742Zm-7.84 3.902v3.907l3.903-3.907ZM16 16h-3.902v3.902Zm3.902-3.902H16V16ZM23.84 8.16h-3.938v3.903ZM12.098 16 8.16 19.902h3.903V16ZM16 12.098 12.098 16H16Zm3.902-3.938L16 12.098h3.902Zm0 0" fill="rgb(60%, 13.72549%, 8.235294%)" stroke="rgb(100%, 100%, 100%)" stroke-width=".32"/></svg>