<?xml version="1.0" encoding="UTF-8"?>
<svg xmlns="http://www.w3.org/2000/svg" xmlns:xlink="http://www.w3.org/1999/xlink" width="32" height="32" viewBox="0 0 32 32">
<rect x="-3.2" y="-3.2" width="38.4" height="38.4" fill="rgb(100%, 100%, 100%)" fill-opacity="1"/>
<path fill-rule="nonzero" fill="rgb(40%, 40%, 40%)" fill-opacity="1" d="M 32 32 L 0 32 L 0 0 L 32 0 Z M 3.105469 28.800781 L 28.929688 28.800781 L 28.929688 3.199219 L 3.105469 3.199219 "/>
<path fill-rule="nonzero" fill="rgb(60%, 13.72549%, 8.235294%)" fill-opacity="1" stroke-width="0.32" stroke-linecap="butt" stroke-linejoin="miter" stroke="rgb(100%, 100%, 100%)" stroke-opacity="1" stroke-miterlimit="4" d="M 23.839844 8.160156 L 23.839844 23.839844 L 19.902344 12.097656 Z M 8.160156 23.839844 L 23.839844 23.839844 L 12.097656 19.902344 Z M 12.097656 19.902344 L 23.871094 23.808594 L 16 16 Z M 16 16 L 23.839844 23.839844 L 19.902344 12.097656 Z M 8.160156 19.902344 L 8.160156 23.808594 L 12.0625 19.902344 Z M 16 16 L 12.097656 16 L 12.097656 19.902344 Z M 19.902344 12.097656 L 16 12.097656 L 16 16 Z M 23.839844 8.160156 L 19.902344 8.160156 L 19.902344 12.0625 Z M 12.097656 16 L 8.160156 19.902344 L 12.0625 19.902344 L 12.0625 16 Z M 16 12.097656 L 12.097656 16 L 16 16 Z M 19.902344 8.160156 L 16 12.097656 L 19.902344 12.097656 Z M 19.902344 8.160156 "/>
</svg>
