<?xml version="1.0" encoding="UTF-8"?>
<svg xmlns="http://www.w3.org/2000/svg" xmlns:xlink="http://www.w3.org/1999/xlink" width="32" height="32" viewBox="0 0 32 32">
<path fill-rule="nonzero" fill="rgb(0%, 0%, 0%)" fill-opacity="1" d="M 4.1875 19.585938 L 9.132812 2.574219 L 10.078125 2.332031 C 11.203125 2.128906 12.339844 2.03125 13.480469 2.039062 C 15.699219 2.101562 17.832031 2.898438 19.546875 4.308594 C 20.117188 4.929688 20.757812 5.488281 21.453125 5.972656 C 22.46875 6.707031 23.5625 7.320312 24.71875 7.800781 C 25.621094 8.007812 26.546875 8.074219 27.464844 8 C 28.078125 8 28.691406 7.878906 29.574219 7.785156 L 24.785156 24.226562 C 22.8125 25.226562 20.867188 25.148438 17.785156 23.945312 L 17.707031 25.027344 L 19.359375 26.761719 L 30.253906 26.761719 C 30.597656 26.804688 30.855469 27.09375 30.867188 27.441406 C 30.871094 27.789062 30.625 28.09375 30.28125 28.160156 C 26.519531 28.160156 22.921875 28.226562 19.1875 28.226562 C 17.386719 29.851562 16.746094 29.828125 14.546875 28.039062 L 2.960938 28.039062 C 2.59375 28.039062 2.292969 27.742188 2.292969 27.375 C 2.292969 27.003906 2.59375 26.707031 2.960938 26.707031 L 13.972656 26.707031 L 16 24.972656 L 16 22.761719 C 15.179688 22.054688 14.285156 21.4375 13.332031 20.921875 C 12.253906 20.34375 11.105469 19.894531 9.921875 19.585938 C 9.28125 19.515625 8.585938 19.476562 7.839844 19.464844 C 7 19.46875 6.15625 19.511719 5.320312 19.601562 Z M 14.398438 19.585938 L 16.28125 13.199219 C 14.308594 11 11.257812 10.113281 8.414062 10.90625 L 6.359375 18.054688 C 9.113281 17.761719 11.890625 18.304688 14.332031 19.613281 Z M 15.546875 20.332031 C 17.988281 21.972656 20.078125 24.171875 23.441406 23.132812 L 25.265625 16.785156 C 22.441406 16.839844 19.691406 15.894531 17.492188 14.121094 Z M 25.640625 15.558594 L 27.375 9.332031 C 24.214844 9.691406 22.039062 8.105469 19.773438 6.464844 L 17.828125 12.761719 C 19.894531 14.75 22.707031 15.777344 25.574219 15.585938 Z M 8.785156 9.640625 C 11.640625 9.066406 14.601562 9.863281 16.785156 11.785156 L 18.667969 5.613281 C 16.40625 3.691406 13.339844 3.011719 10.480469 3.800781 Z M 8.785156 9.640625 "/>
</svg>
