<svg role="img" viewBox="0 0 32 32" height="32" width="32" xmlns="http://www.w3.org/2000/svg"><path d="M5.121 2.559c-1.09 0-1.922.832-1.922 1.921v23.04c0 1.09.832 1.921 1.922 1.921h23.04c1.085 0 1.917-.832 1.917-1.921V8.45a.562.562 0 0 0-.191-.45L24.64 2.754a.578.578 0 0 0-.45-.195Zm3.2 1.28H23.68v7.68c0 .704-.575 1.282-1.282 1.282H9.602a1.27 1.27 0 0 1-.907-.375 1.27 1.27 0 0 1-.375-.906Zm10.238 1.923v5.117h2.562V5.762Zm-8.957 11.52H23.68c.703 0 1.28.573 1.28 1.277v9.601H8.32v-9.6c0-.704.575-1.278 1.282-1.278m-4.48 8.957h1.276v1.282H5.121Zm21.757 0h1.281v1.282h-1.28Zm0 0"/></svg>