<svg role="img" viewBox="0 0 32 32" height="1em" width="1em" xmlns="http://www.w3.org/2000/svg"><defs><linearGradient gradientTransform="matrix(1538 0 0 -961.25 207495 196661)" gradientUnits="userSpaceOnUse" id="3__svg/scala.svg0__SVGxuZ1Vd8S" x1="-134.907" x2="-134.896" y1="204.572" y2="204.572"><stop offset="0" stop-color="#e62d2a"/><stop offset=".6" stop-color="#df3f3d"/><stop offset=".8" stop-color="#df3f3d"/><stop offset="1" stop-color="#e62d2a"/></linearGradient><linearGradient gradientTransform="matrix(1538 0 0 -961.25 207495 195892)" href="#3__svg/scala.svg0__SVGxuZ1Vd8S" id="4__svg/scala.svg1__SVGSywV0BWL" x1="-134.907" x2="-134.896" y1="203.781" y2="203.781"/><linearGradient gradientTransform="matrix(1538 0 0 -961.25 207495 197430)" href="#3__svg/scala.svg0__SVGxuZ1Vd8S" id="5__svg/scala.svg2__SVGpRg1QdBw" x1="-134.907" x2="-134.896" y1="205.363" y2="205.363"/></defs><path d="M7.384 19.231v2.154c0 .363 7.833.971 12.937 2.154c2.465-.571 4.295-1.277 4.295-2.154v-2.154c0-.877-1.83-1.582-4.295-2.154c-5.1 1.183-12.937 1.791-12.937 2.154m0-8.616v2.154c0 .363 7.833.971 12.937 2.154c2.465-.571 4.295-1.277 4.295-2.154v-2.154c0-.877-1.83-1.582-4.295-2.154c-5.1 1.183-12.937 1.791-12.937 2.154" fill="#7f0c1d"/><path d="M7.384 14.923v6.462c0-.538 17.232-1.615 17.232-4.308v-6.462c0 2.692-17.232 3.769-17.232 4.308" fill="url(#3__svg/scala.svg0__SVGxuZ1Vd8S)"/><path d="M7.384 6.308v6.462c0-.538 17.232-1.615 17.232-4.308V2c0 2.692-17.232 3.769-17.232 4.308" fill="url(#4__svg/scala.svg1__SVGSywV0BWL)"/><path d="M7.384 23.538V30c0-.538 17.232-1.615 17.232-4.308v-6.461c0 2.692-17.232 3.769-17.232 4.308" fill="url(#5__svg/scala.svg2__SVGpRg1QdBw)"/></svg>