<?xml version="1.0" encoding="UTF-8"?>
<svg xmlns="http://www.w3.org/2000/svg" xmlns:xlink="http://www.w3.org/1999/xlink" width="32" height="32" viewBox="0 0 32 32">
<path fill-rule="nonzero" fill="rgb(25.098039%, 25.098039%, 25.490196%)" fill-opacity="1" d="M 26.722656 0 L 5.757812 0 C 2.84375 0 0.480469 2.359375 0.480469 5.273438 L 0.480469 13.621094 C 1.148438 13.1875 1.925781 12.960938 2.722656 12.964844 L 14.859375 12.964844 C 17.164062 12.964844 19.03125 14.832031 19.03125 17.136719 L 19.03125 29.277344 C 19.03125 30.070312 18.804688 30.851562 18.375 31.519531 L 26.722656 31.519531 C 29.636719 31.519531 32 29.160156 32 26.246094 L 32 5.273438 C 31.996094 2.359375 29.636719 0 26.722656 0 M 18.890625 13.074219 L 18.890625 7.675781 L 21.035156 9.820312 L 27.027344 3.828125 L 28.136719 4.9375 L 22.144531 10.933594 L 24.289062 13.078125 Z M 14.863281 14.414062 L 2.722656 14.414062 C 2.335938 14.414062 1.96875 14.496094 1.636719 14.644531 C 0.640625 15.074219 -0.00390625 16.054688 0 17.136719 L 0 29.277344 C 0 30 0.285156 30.691406 0.796875 31.203125 C 1.308594 31.714844 2 32 2.722656 32 L 14.863281 32 C 15.414062 32 15.949219 31.832031 16.402344 31.519531 C 16.636719 31.363281 16.839844 31.167969 17.011719 30.945312 C 17.152344 30.769531 17.265625 30.574219 17.355469 30.367188 C 17.507812 30.023438 17.585938 29.652344 17.585938 29.277344 L 17.585938 17.136719 C 17.585938 16.414062 17.300781 15.722656 16.789062 15.210938 C 16.277344 14.699219 15.585938 14.414062 14.863281 14.414062 M 14.863281 14.414062 "/>
</svg>
