<svg role="img" viewBox="0 0 32 32" xmlns="http://www.w3.org/2000/svg"><path d="M26.723 0H5.758A5.28 5.28 0 0 0 .48 5.273v8.348a4.1 4.1 0 0 1 2.243-.656h12.136a4.17 4.17 0 0 1 4.172 4.172v12.14a4.15 4.15 0 0 1-.656 2.243h8.348A5.28 5.28 0 0 0 32 26.246V5.273A5.28 5.28 0 0 0 26.723 0M18.89 13.074V7.676l2.144 2.144 5.992-5.992 1.11 1.11-5.992 5.996 2.144 2.144Zm-4.028 1.34H2.723c-.387 0-.754.082-1.086.23A2.71 2.71 0 0 0 0 17.138v12.14A2.72 2.72 0 0 0 2.723 32h12.14c.551 0 1.086-.168 1.54-.48a2.6 2.6 0 0 0 .609-.575 2.5 2.5 0 0 0 .343-.578 2.7 2.7 0 0 0 .23-1.09v-12.14a2.72 2.72 0 0 0-2.722-2.723m0 0" fill="rgb(25.098041%, 25.098041%, 25.490198%)"/></svg>