<svg role="img" viewBox="0 0 32 32" height="32" width="32" xmlns="http://www.w3.org/2000/svg"><path d="M26.723 0H5.753A5.292 5.292 0 0 0 .478 5.273v8.348a4.112 4.112 0 0 1 2.242-.656h12.144a4.15 4.15 0 0 1 2.32.707l6.36-6.363-2.14-2.141H26.8v5.398l-2.145-2.144-6.355 6.355c.476.696.734 1.516.734 2.36V29.28c-.004.367-.05.735-.144 1.09-.11.406-.286.797-.512 1.152h8.348a5.308 5.308 0 0 0 5.277-5.277V5.273A5.296 5.296 0 0 0 26.723 0m-11.86 14.414H2.723c-.375 0-.746.078-1.09.23A2.719 2.719 0 0 0 0 17.138v12.14A2.72 2.72 0 0 0 2.723 32h12.14c.551 0 1.09-.168 1.543-.48a2.64 2.64 0 0 0 .95-1.153c.152-.344.23-.715.23-1.09v-12.14a2.72 2.72 0 0 0-2.723-2.723m0 0"/></svg>