<?xml version="1.0" encoding="UTF-8"?>
<svg xmlns="http://www.w3.org/2000/svg" xmlns:xlink="http://www.w3.org/1999/xlink" width="32" height="32" viewBox="0 0 32 32">
<path fill-rule="nonzero" fill="rgb(25.098041%, 25.098041%, 25.490198%)" fill-opacity="1" d="M 26.722656 0 L 5.753906 0 C 2.84375 0.0078125 0.484375 2.363281 0.476562 5.273438 L 0.476562 13.621094 C 1.144531 13.191406 1.925781 12.960938 2.71875 12.964844 L 14.863281 12.964844 C 15.691406 12.964844 16.5 13.210938 17.183594 13.671875 L 23.542969 7.308594 L 21.402344 5.167969 L 26.800781 5.167969 L 26.800781 10.566406 L 24.65625 8.421875 L 18.300781 14.777344 C 18.777344 15.472656 19.035156 16.292969 19.035156 17.136719 L 19.035156 29.28125 C 19.03125 29.648438 18.984375 30.015625 18.890625 30.371094 C 18.835938 30.566406 18.769531 30.757812 18.6875 30.945312 C 18.601562 31.144531 18.496094 31.339844 18.378906 31.523438 L 26.726562 31.523438 C 29.636719 31.511719 31.992188 29.15625 32.003906 26.246094 L 32.003906 5.273438 C 31.992188 2.363281 29.632812 0.00390625 26.722656 0 M 14.863281 14.414062 L 2.722656 14.414062 C 2.347656 14.414062 1.976562 14.492188 1.632812 14.644531 C 1.167969 14.84375 0.765625 15.175781 0.480469 15.59375 C 0.167969 16.046875 0 16.585938 0 17.136719 L 0 29.277344 C 0 30.78125 1.21875 32 2.722656 32 L 14.863281 32 C 15.414062 32 15.953125 31.832031 16.40625 31.519531 C 16.828125 31.234375 17.15625 30.835938 17.355469 30.367188 C 17.507812 30.023438 17.585938 29.652344 17.585938 29.277344 L 17.585938 17.136719 C 17.585938 15.632812 16.367188 14.414062 14.863281 14.414062 M 14.863281 14.414062 "/>
</svg>
