<svg role="img" viewBox="0 0 32 32" xmlns="http://www.w3.org/2000/svg"><path d="M8.96 0C7.739 0 6.556.203 5.442.695a.64.64 0 0 0-.394.516.636.636 0 0 0 .906.652c.934-.406 1.926-.582 3.008-.582 2.039-.008 4 .797 5.441 2.239a7.66 7.66 0 0 1 2.239 5.44 7.66 7.66 0 0 1-2.239 5.442 7.66 7.66 0 0 1-5.441 2.239 7.63 7.63 0 0 1-5.438-2.243 7.65 7.65 0 0 1-2.242-5.437c0-1.945.742-3.688 1.918-5.066v1.671a.644.644 0 0 0 .977.594.65.65 0 0 0 .304-.594V1.922H.832a.64.64 0 0 0-.562.316.65.65 0 0 0 0 .645.64.64 0 0 0 .562.316h1.277C.824 4.77 0 6.754 0 8.961a8.94 8.94 0 0 0 2.559 6.27v14.21c0 .707.574 1.278 1.28 1.278h25.602c.34 0 .664-.133.903-.375.242-.239.375-.563.375-.903V9.601H17.89c.015-.214.027-.425.027-.64s-.016-.43-.031-.64h12.832V3.84c0-.742-.535-1.281-1.278-1.281h-3.203V1.28A1.286 1.286 0 0 0 24.961 0H23.68c-.7 0-1.282.578-1.282 1.281V2.56H15.23A8.94 8.94 0 0 0 8.96 0m14.72 1.281h1.28v3.84h-1.28ZM8.95 3.191a.643.643 0 0 0-.63.649v5.02a.68.68 0 0 0 .332.672l2.485 1.863a.65.65 0 0 0 .476.12.65.65 0 0 0 .418-.253.62.62 0 0 0 .125-.473.66.66 0 0 0-.254-.422l-2.3-1.726V3.84a.64.64 0 0 0-.192-.461.62.62 0 0 0-.46-.188m8.331 10.25h3.2v3.2h-3.2Zm4.48 0h3.2v3.2h-3.2ZM16 14.492v.047l-.09.074c.031-.039.059-.082.09-.12m-7.68 3.429h3.2v3.2h-3.2Zm4.48 0H16v3.2h-3.2Zm4.481 0h3.2v3.2h-3.2Zm4.48 0h3.2v3.2h-3.2Zm-13.44 4.476h3.199v3.204h-3.2Zm4.48 0H16v3.204h-3.2Zm4.48 0h3.2v3.204h-3.2Zm4.48 0h3.2v3.204h-3.2Zm0 0"/></svg>