<?xml version="1.0" encoding="UTF-8"?>
<svg xmlns="http://www.w3.org/2000/svg" xmlns:xlink="http://www.w3.org/1999/xlink" width="32" height="32" viewBox="0 0 32 32">
<path fill-rule="nonzero" fill="rgb(0%, 0%, 0%)" fill-opacity="1" d="M 8.960938 0 C 7.738281 0 6.554688 0.203125 5.441406 0.695312 C 5.226562 0.78125 5.074219 0.980469 5.046875 1.210938 C 5.015625 1.441406 5.117188 1.667969 5.304688 1.804688 C 5.496094 1.941406 5.742188 1.964844 5.953125 1.863281 C 6.886719 1.457031 7.878906 1.28125 8.960938 1.28125 C 11 1.273438 12.960938 2.078125 14.402344 3.519531 C 15.84375 4.964844 16.648438 6.921875 16.640625 8.960938 C 16.648438 11 15.84375 12.957031 14.402344 14.402344 C 12.960938 15.84375 11 16.648438 8.960938 16.640625 C 6.921875 16.648438 4.964844 15.84375 3.523438 14.398438 C 2.082031 12.957031 1.273438 11 1.28125 8.960938 C 1.28125 7.015625 2.023438 5.273438 3.199219 3.894531 L 3.199219 5.566406 C 3.183594 5.804688 3.300781 6.035156 3.507812 6.160156 C 3.714844 6.285156 3.972656 6.285156 4.175781 6.160156 C 4.378906 6.03125 4.496094 5.804688 4.480469 5.566406 L 4.480469 1.921875 L 0.832031 1.921875 C 0.601562 1.917969 0.386719 2.039062 0.269531 2.238281 C 0.15625 2.4375 0.15625 2.683594 0.269531 2.882812 C 0.386719 3.082031 0.601562 3.203125 0.832031 3.199219 L 2.109375 3.199219 C 0.824219 4.769531 0 6.753906 0 8.960938 C -0.00390625 11.304688 0.917969 13.558594 2.558594 15.230469 L 2.558594 29.441406 C 2.558594 30.148438 3.132812 30.71875 3.839844 30.71875 L 29.441406 30.71875 C 29.78125 30.71875 30.105469 30.585938 30.34375 30.34375 C 30.585938 30.105469 30.71875 29.78125 30.71875 29.441406 L 30.71875 9.601562 L 17.890625 9.601562 C 17.90625 9.386719 17.917969 9.175781 17.917969 8.960938 C 17.917969 8.746094 17.902344 8.53125 17.886719 8.320312 L 30.71875 8.320312 L 30.71875 3.839844 C 30.71875 3.097656 30.183594 2.558594 29.441406 2.558594 L 26.238281 2.558594 L 26.238281 1.28125 C 26.234375 0.574219 25.664062 0.00390625 24.960938 0 L 23.679688 0 C 22.980469 0 22.398438 0.578125 22.398438 1.28125 L 22.398438 2.558594 L 15.230469 2.558594 C 13.554688 0.917969 11.304688 -0.00390625 8.960938 0 M 23.679688 1.28125 L 24.960938 1.28125 L 24.960938 5.121094 L 23.679688 5.121094 Z M 8.949219 3.191406 C 8.597656 3.199219 8.316406 3.488281 8.320312 3.839844 L 8.320312 8.859375 C 8.285156 9.128906 8.417969 9.394531 8.652344 9.53125 L 11.136719 11.394531 C 11.273438 11.496094 11.445312 11.539062 11.613281 11.515625 C 11.78125 11.488281 11.929688 11.398438 12.03125 11.261719 C 12.136719 11.128906 12.179688 10.957031 12.15625 10.789062 C 12.128906 10.621094 12.039062 10.46875 11.902344 10.367188 L 9.601562 8.640625 L 9.601562 3.839844 C 9.601562 3.667969 9.535156 3.5 9.410156 3.378906 C 9.289062 3.253906 9.121094 3.1875 8.949219 3.191406 M 17.28125 13.441406 L 20.480469 13.441406 L 20.480469 16.640625 L 17.28125 16.640625 Z M 21.761719 13.441406 L 24.960938 13.441406 L 24.960938 16.640625 L 21.761719 16.640625 Z M 16 14.492188 L 16 14.539062 L 15.910156 14.613281 C 15.941406 14.574219 15.96875 14.53125 16 14.492188 M 8.320312 17.921875 L 11.519531 17.921875 L 11.519531 21.121094 L 8.320312 21.121094 Z M 12.800781 17.921875 L 16 17.921875 L 16 21.121094 L 12.800781 21.121094 Z M 17.28125 17.921875 L 20.480469 17.921875 L 20.480469 21.121094 L 17.28125 21.121094 Z M 21.761719 17.921875 L 24.960938 17.921875 L 24.960938 21.121094 L 21.761719 21.121094 Z M 8.320312 22.398438 L 11.519531 22.398438 L 11.519531 25.601562 L 8.320312 25.601562 Z M 12.800781 22.398438 L 16 22.398438 L 16 25.601562 L 12.800781 25.601562 Z M 17.28125 22.398438 L 20.480469 22.398438 L 20.480469 25.601562 L 17.28125 25.601562 Z M 21.761719 22.398438 L 24.960938 22.398438 L 24.960938 25.601562 L 21.761719 25.601562 Z M 21.761719 22.398438 "/>
</svg>
