<?xml version="1.0" encoding="UTF-8"?>
<svg xmlns="http://www.w3.org/2000/svg" xmlns:xlink="http://www.w3.org/1999/xlink" width="32" height="32" viewBox="0 0 32 32">
<path fill-rule="nonzero"  fill-opacity="1" d="M 16 0 C 14.816406 0 13.851562 0.824219 13.558594 1.921875 L 5.761719 1.921875 C 4.703125 1.921875 3.839844 2.78125 3.839844 3.839844 L 3.839844 28.800781 C 3.839844 29.859375 4.703125 30.71875 5.761719 30.71875 L 26.238281 30.71875 C 27.296875 30.71875 28.160156 29.859375 28.160156 28.800781 L 28.160156 3.839844 C 28.160156 2.78125 27.296875 1.921875 26.238281 1.921875 L 21.160156 1.921875 C 21.148438 1.921875 21.132812 1.921875 21.121094 1.921875 L 18.441406 1.921875 C 18.148438 0.824219 17.183594 0 16 0 Z M 16 1.28125 C 16.714844 1.28125 17.28125 1.84375 17.28125 2.558594 C 17.28125 2.914062 17.566406 3.199219 17.921875 3.199219 L 20.480469 3.199219 L 20.480469 5.121094 L 11.519531 5.121094 L 11.519531 3.199219 L 14.078125 3.199219 C 14.433594 3.199219 14.71875 2.914062 14.71875 2.558594 C 14.71875 1.84375 15.285156 1.28125 16 1.28125 Z M 18.558594 10.878906 C 18.722656 10.878906 18.894531 10.933594 19.019531 11.058594 L 20.480469 12.539062 L 21.941406 11.058594 C 22.191406 10.808594 22.609375 10.808594 22.859375 11.058594 C 23.109375 11.308594 23.109375 11.730469 22.859375 11.980469 L 21.378906 13.441406 L 22.859375 14.898438 C 23.109375 15.148438 23.109375 15.570312 22.859375 15.820312 C 22.734375 15.945312 22.566406 16 22.398438 16 C 22.234375 16 22.066406 15.945312 21.941406 15.820312 L 20.480469 14.339844 L 19.019531 15.820312 C 18.894531 15.945312 18.726562 16 18.558594 16 C 18.394531 16 18.226562 15.945312 18.101562 15.820312 C 17.851562 15.570312 17.851562 15.148438 18.101562 14.898438 L 19.578125 13.441406 L 18.101562 11.980469 C 17.851562 11.730469 17.851562 11.308594 18.101562 11.058594 C 18.226562 10.933594 18.398438 10.878906 18.558594 10.878906 Z M 8.960938 12.800781 L 15.359375 12.800781 C 15.714844 12.800781 16 13.085938 16 13.441406 C 16 13.792969 15.714844 14.078125 15.359375 14.078125 L 8.960938 14.078125 C 8.605469 14.078125 8.320312 13.792969 8.320312 13.441406 C 8.320312 13.085938 8.605469 12.800781 8.960938 12.800781 Z M 18.558594 19.199219 C 18.722656 19.199219 18.894531 19.253906 19.019531 19.378906 L 20.480469 20.859375 L 21.941406 19.378906 C 22.191406 19.128906 22.609375 19.128906 22.859375 19.378906 C 23.109375 19.628906 23.109375 20.050781 22.859375 20.300781 L 21.378906 21.761719 L 22.859375 23.21875 C 23.109375 23.46875 23.109375 23.890625 22.859375 24.140625 C 22.734375 24.265625 22.566406 24.320312 22.398438 24.320312 C 22.234375 24.320312 22.066406 24.265625 21.941406 24.140625 L 20.480469 22.660156 L 19.019531 24.140625 C 18.894531 24.265625 18.726562 24.320312 18.558594 24.320312 C 18.394531 24.320312 18.226562 24.265625 18.101562 24.140625 C 17.851562 23.890625 17.851562 23.46875 18.101562 23.21875 L 19.578125 21.761719 L 18.101562 20.300781 C 17.851562 20.050781 17.851562 19.628906 18.101562 19.378906 C 18.226562 19.253906 18.398438 19.199219 18.558594 19.199219 Z M 8.960938 21.121094 L 15.359375 21.121094 C 15.714844 21.121094 16 21.40625 16 21.761719 C 16 22.113281 15.714844 22.398438 15.359375 22.398438 L 8.960938 22.398438 C 8.605469 22.398438 8.320312 22.113281 8.320312 21.761719 C 8.320312 21.40625 8.605469 21.121094 8.960938 21.121094 Z M 8.960938 21.121094 "/>
</svg>
