<?xml version="1.0" encoding="UTF-8"?>
<svg xmlns="http://www.w3.org/2000/svg" xmlns:xlink="http://www.w3.org/1999/xlink" width="32" height="32" viewBox="0 0 32 32">
<path fill-rule="nonzero" fill="rgb(42.352941%, 83.529412%, 90.588235%)" fill-opacity="1" d="M 25.324219 3.246094 C 22.972656 1.15625 19.667969 0 16.003906 0 C 12.34375 0 9.039062 1.15625 6.6875 3.246094 C 4.328125 5.347656 3.03125 8.324219 3.03125 11.609375 C 3.03125 14.773438 6.207031 29.699219 6.335938 30.335938 C 6.558594 31.316406 7.421875 31.988281 8.390625 31.988281 C 8.507812 31.988281 8.613281 31.976562 8.730469 31.964844 C 8.933594 31.929688 9.121094 31.871094 9.3125 31.777344 C 9.710938 31.953125 10.160156 32.023438 10.597656 31.941406 C 10.929688 31.882812 11.234375 31.738281 11.496094 31.527344 C 12.113281 32.019531 12.949219 32.121094 13.667969 31.796875 C 13.976562 31.65625 14.234375 31.445312 14.4375 31.199219 C 14.835938 31.699219 15.4375 31.992188 16.078125 32 C 16.464844 31.996094 16.84375 31.886719 17.175781 31.679688 C 17.378906 31.554688 17.5625 31.394531 17.71875 31.210938 C 18.050781 31.609375 18.535156 31.894531 19.050781 31.964844 C 19.570312 32.046875 20.113281 31.917969 20.539062 31.621094 C 20.589844 31.597656 20.621094 31.5625 20.660156 31.527344 C 20.90625 31.726562 21.203125 31.871094 21.507812 31.929688 C 21.734375 31.976562 21.957031 31.988281 22.179688 31.964844 C 22.382812 31.941406 22.570312 31.894531 22.761719 31.8125 C 22.925781 31.882812 23.089844 31.929688 23.269531 31.964844 C 24.375 32.144531 25.425781 31.429688 25.664062 30.335938 C 25.792969 29.699219 28.96875 14.785156 28.96875 11.609375 C 28.984375 8.324219 27.683594 5.363281 25.324219 3.246094 Z M 25.074219 30.207031 C 24.910156 30.949219 24.203125 31.445312 23.445312 31.363281 C 23.75 31.0625 23.957031 30.671875 24.035156 30.253906 L 24.128906 29.683594 L 24.496094 27.429688 C 24.613281 26.675781 24.730469 25.917969 24.828125 25.164062 C 24.839844 25.058594 24.773438 24.964844 24.671875 24.9375 C 24.5625 24.917969 24.453125 24.984375 24.425781 25.09375 C 24.261719 25.835938 24.105469 26.59375 23.953125 27.335938 L 23.515625 29.578125 L 23.410156 30.132812 C 23.375 30.289062 23.316406 30.441406 23.242188 30.570312 C 23.167969 30.710938 23.070312 30.835938 22.949219 30.9375 C 22.835938 31.046875 22.703125 31.132812 22.558594 31.199219 C 22.414062 31.257812 22.265625 31.300781 22.109375 31.328125 C 21.75 31.367188 21.382812 31.273438 21.085938 31.066406 C 21.226562 30.855469 21.34375 30.617188 21.402344 30.359375 C 21.425781 30.300781 21.425781 30.230469 21.4375 30.167969 C 21.4375 30.132812 21.449219 30.097656 21.449219 30.074219 L 21.460938 29.992188 L 21.566406 29 L 21.699219 27.679688 C 21.78125 26.792969 21.863281 25.90625 21.921875 25.019531 C 21.929688 24.914062 21.851562 24.820312 21.742188 24.808594 C 21.632812 24.796875 21.53125 24.875 21.507812 24.984375 C 21.378906 25.859375 21.261719 26.746094 21.144531 27.617188 L 20.894531 29.601562 C 20.871094 29.816406 20.847656 30.0625 20.800781 30.21875 C 20.710938 30.578125 20.484375 30.890625 20.175781 31.089844 C 19.867188 31.292969 19.496094 31.371094 19.132812 31.316406 C 18.675781 31.25 18.273438 30.96875 18.050781 30.558594 C 18.085938 30.464844 18.109375 30.371094 18.128906 30.289062 C 18.179688 30.097656 18.179688 29.898438 18.179688 29.742188 L 18.191406 28.765625 C 18.203125 28.113281 18.214844 27.453125 18.214844 26.804688 C 18.226562 26.152344 18.226562 25.496094 18.214844 24.84375 C 18.214844 24.738281 18.128906 24.644531 18.023438 24.644531 C 17.972656 24.636719 17.917969 24.65625 17.878906 24.691406 C 17.835938 24.726562 17.8125 24.777344 17.8125 24.832031 C 17.777344 25.480469 17.730469 26.144531 17.707031 26.792969 C 17.671875 27.441406 17.648438 28.101562 17.613281 28.753906 L 17.5625 29.734375 C 17.5625 29.816406 17.5625 29.898438 17.554688 29.96875 C 17.554688 30.039062 17.542969 30.097656 17.53125 30.167969 C 17.492188 30.300781 17.457031 30.429688 17.386719 30.546875 C 17.128906 31.039062 16.621094 31.34375 16.066406 31.339844 C 15.929688 31.34375 15.792969 31.324219 15.664062 31.28125 C 15.535156 31.242188 15.414062 31.183594 15.296875 31.125 C 15.066406 30.984375 14.875 30.785156 14.742188 30.546875 C 14.679688 30.429688 14.628906 30.300781 14.601562 30.167969 C 14.566406 30.039062 14.566406 29.910156 14.554688 29.734375 L 14.507812 28.753906 C 14.484375 28.101562 14.445312 27.441406 14.410156 26.792969 L 14.304688 24.832031 C 14.296875 24.726562 14.210938 24.644531 14.105469 24.644531 C 14.050781 24.644531 14 24.664062 13.964844 24.703125 C 13.925781 24.738281 13.902344 24.789062 13.902344 24.84375 L 13.902344 26.804688 C 13.902344 27.453125 13.914062 28.113281 13.929688 28.765625 L 13.941406 29.742188 C 13.941406 29.898438 13.949219 30.097656 13.988281 30.289062 C 14.011719 30.382812 14.035156 30.476562 14.070312 30.570312 C 13.90625 30.847656 13.664062 31.066406 13.371094 31.199219 C 12.742188 31.476562 12.003906 31.285156 11.589844 30.734375 C 11.484375 30.605469 11.402344 30.457031 11.351562 30.300781 C 11.328125 30.21875 11.308594 30.136719 11.292969 30.050781 C 11.28125 30.015625 11.28125 29.957031 11.269531 29.910156 L 11.246094 29.757812 L 10.941406 27.359375 C 10.832031 26.554688 10.726562 25.753906 10.597656 24.960938 C 10.585938 24.855469 10.492188 24.785156 10.386719 24.785156 C 10.265625 24.796875 10.183594 24.890625 10.195312 25.007812 C 10.253906 25.8125 10.328125 26.617188 10.398438 27.417969 L 10.632812 29.828125 L 10.644531 29.980469 C 10.644531 30.027344 10.65625 30.074219 10.667969 30.148438 C 10.679688 30.265625 10.714844 30.382812 10.75 30.488281 C 10.8125 30.6875 10.914062 30.878906 11.035156 31.054688 C 10.59375 31.363281 10.023438 31.414062 9.535156 31.183594 C 9.101562 30.976562 8.792969 30.578125 8.695312 30.109375 L 8.589844 29.554688 L 8.152344 27.324219 C 8 26.578125 7.847656 25.835938 7.679688 25.09375 C 7.65625 24.984375 7.5625 24.914062 7.457031 24.9375 C 7.351562 24.949219 7.269531 25.058594 7.28125 25.175781 C 7.386719 25.929688 7.492188 26.675781 7.609375 27.429688 L 7.976562 29.671875 L 8.070312 30.238281 C 8.105469 30.464844 8.1875 30.675781 8.285156 30.867188 C 8.378906 31.042969 8.496094 31.210938 8.648438 31.351562 C 8.625 31.351562 8.613281 31.363281 8.589844 31.363281 C 7.808594 31.488281 7.066406 30.988281 6.890625 30.21875 C 6.855469 30.0625 3.597656 14.726562 3.597656 11.617188 C 3.597656 8.5 4.824219 5.703125 7.042969 3.707031 C 9.273438 1.710938 12.441406 0.613281 15.945312 0.613281 C 19.453125 0.613281 22.617188 1.710938 24.851562 3.707031 C 27.082031 5.691406 28.296875 8.5 28.296875 11.617188 C 28.371094 14.726562 25.109375 30.0625 25.074219 30.207031 Z M 19.050781 14.9375 C 18.796875 14.65625 18.457031 14.464844 18.085938 14.394531 L 18.039062 14.394531 C 17.867188 14.382812 17.722656 14.507812 17.707031 14.675781 C 17.695312 14.84375 17.820312 14.992188 17.988281 15.007812 C 18.15625 15.019531 18.316406 15.066406 18.460938 15.148438 C 16.960938 16.164062 15.289062 16.898438 13.527344 17.3125 C 11.695312 17.746094 9.792969 17.832031 7.929688 17.558594 C 7.789062 17.535156 7.65625 17.632812 7.632812 17.769531 C 7.609375 17.910156 7.707031 18.042969 7.847656 18.066406 C 8.128906 18.113281 8.425781 18.148438 8.707031 18.171875 C 8.707031 18.183594 8.707031 18.195312 8.71875 18.207031 C 8.96875 18.953125 9.605469 19.945312 10.433594 19.945312 C 10.519531 19.941406 10.605469 19.929688 10.691406 19.90625 C 11 19.835938 11.507812 19.519531 11.507812 18.242188 C 11.507812 18.21875 11.496094 18.207031 11.496094 18.183594 C 12.21875 18.121094 12.9375 18.011719 13.644531 17.851562 C 13.714844 17.84375 13.785156 17.820312 13.84375 17.808594 C 14.011719 18.46875 14.257812 19.292969 15.085938 19.292969 C 15.425781 19.292969 15.792969 19.105469 16.078125 18.785156 C 16.3125 18.515625 16.691406 17.902344 16.570312 16.875 C 17.382812 16.507812 18.164062 16.074219 18.898438 15.574219 C 18.972656 15.695312 19.027344 15.824219 19.050781 15.964844 C 19.074219 16.070312 19.171875 16.140625 19.277344 16.128906 C 19.332031 16.125 19.382812 16.101562 19.421875 16.058594 C 19.457031 16.015625 19.472656 15.960938 19.464844 15.90625 C 19.441406 15.542969 19.296875 15.203125 19.050781 14.9375 Z M 10.90625 18.257812 C 10.90625 18.84375 10.761719 19.269531 10.550781 19.320312 C 10.089844 19.4375 9.617188 18.75 9.394531 18.230469 C 9.902344 18.257812 10.398438 18.257812 10.90625 18.230469 C 10.914062 18.242188 10.90625 18.257812 10.90625 18.257812 Z M 15.640625 18.398438 C 15.488281 18.574219 15.285156 18.691406 15.121094 18.691406 C 14.835938 18.691406 14.671875 18.445312 14.46875 17.664062 C 14.992188 17.511719 15.507812 17.335938 16.003906 17.132812 C 16.03125 17.640625 15.898438 18.089844 15.640625 18.398438 Z M 11.800781 16.378906 C 8.511719 16.375 5.84375 13.707031 5.84375 10.414062 C 5.84375 7.125 8.511719 4.453125 11.804688 4.453125 C 15.09375 4.453125 17.765625 7.121094 17.765625 10.414062 C 17.761719 13.707031 15.09375 16.375 11.800781 16.378906 Z M 11.800781 5.078125 C 8.847656 5.078125 6.453125 7.472656 6.453125 10.425781 C 6.453125 13.378906 8.847656 15.773438 11.800781 15.777344 C 14.757812 15.773438 17.148438 13.378906 17.152344 10.425781 C 17.144531 7.476562 14.753906 5.082031 11.800781 5.078125 Z M 12.96875 6.71875 C 11.992188 6.921875 11.800781 9.058594 12.382812 9.648438 C 12.769531 10.039062 13.550781 10.15625 13.550781 10.425781 C 13.550781 10.699219 12.769531 10.816406 12.382812 11.207031 C 11.789062 11.796875 11.992188 13.933594 12.96875 14.132812 C 14.128906 14.371094 15.898438 12.964844 15.898438 10.425781 C 15.898438 7.886719 14.128906 6.484375 12.96875 6.71875 Z M 12.96875 6.71875 "/>
</svg>
