<svg role="img" viewBox="0 0 32 32" xmlns="http://www.w3.org/2000/svg"><path d="M13.762.64a2.62 2.62 0 0 0-2.223 1.27l-.172.281a1.34 1.34 0 0 1-1.129.653l-.328.008A2.62 2.62 0 0 0 7.332 5.43l-.008.328c-.008.465-.254.89-.652 1.133l-.281.168a2.63 2.63 0 0 0-.942 3.523l.156.285c.227.406.227.899 0 1.305l-.156.285a2.633 2.633 0 0 0 .942 3.527l.28.168c.4.243.645.664.653 1.13l.008.327a2.627 2.627 0 0 0 2.578 2.578l.328.008c.465.012.89.258 1.13.653l.171.28a2.63 2.63 0 0 0 2.25 1.27c.43 0 .867-.105 1.27-.324l.289-.16a1.36 1.36 0 0 1 1.304 0l.29.156a2.624 2.624 0 0 0 3.519-.941l.172-.281a1.34 1.34 0 0 1 1.129-.653l.328-.004a2.63 2.63 0 0 0 2.578-2.582l.008-.328c.008-.465.254-.886.652-1.129l.281-.168a2.63 2.63 0 0 0 .942-3.523l-.156-.29a1.34 1.34 0 0 1 0-1.304l.156-.285a2.63 2.63 0 0 0-.942-3.523l-.28-.168a1.35 1.35 0 0 1-.653-1.133l-.008-.328a2.625 2.625 0 0 0-2.578-2.578l-.328-.008a1.34 1.34 0 0 1-1.13-.653l-.171-.277A2.62 2.62 0 0 0 16.94.97l-.289.156a1.34 1.34 0 0 1-1.304 0l-.29-.156a2.65 2.65 0 0 0-1.294-.33m9.672 20.57c-.41.156-.852.25-1.317.258l-.328.008a.08.08 0 0 0-.062.035l-.172.281a3.9 3.9 0 0 1-2.93 1.863l-.184.422-1.722 3.938 1.293 2.96a.65.65 0 0 0 .504.38.65.65 0 0 0 .586-.235l2.367-2.96h4.172c.222 0 .425-.11.543-.298a.64.64 0 0 0 .039-.613Zm-14.832.012L5.82 27.25c-.093.2-.078.43.04.613a.65.65 0 0 0 .538.297h4.176l2.367 2.961a.64.64 0 0 0 .5.238q.042.001.082-.004a.64.64 0 0 0 .504-.378l3.243-7.414a4 4 0 0 1-.946-.368l-.289-.156a.06.06 0 0 0-.035-.012.06.06 0 0 0-.035.012l-.29.156a4 4 0 0 1-1.886.489 3.88 3.88 0 0 1-3.344-1.891l-.172-.281c-.011-.024-.035-.035-.062-.035l-.328-.008a3.9 3.9 0 0 1-1.281-.246m0 0" fill="rgb(0%, 0%, 0%)"/></svg>