<?xml version="1.0" encoding="UTF-8"?>
<svg xmlns="http://www.w3.org/2000/svg" xmlns:xlink="http://www.w3.org/1999/xlink" width="32" height="32" viewBox="0 0 32 32">
<path  d="M 25.085938 11.550781 C 25.304688 11.222656 25.746094 11.136719 26.074219 11.355469 C 26.988281 11.964844 27.644531 12.890625 27.929688 13.953125 C 28.019531 14.328125 27.792969 14.703125 27.417969 14.804688 C 27.046875 14.90625 26.664062 14.691406 26.550781 14.320312 C 26.359375 13.59375 25.90625 12.957031 25.277344 12.539062 C 24.953125 12.320312 24.863281 11.875 25.085938 11.550781 "/>
<path  d="M 28.578125 10.089844 C 25.792969 7.304688 21.277344 7.308594 18.496094 10.09375 C 15.714844 12.882812 15.714844 17.394531 18.503906 20.179688 L 15.75 23.621094 C 15.578125 23.820312 15.53125 24.09375 15.621094 24.339844 C 15.714844 24.582031 15.933594 24.757812 16.191406 24.792969 C 16.449219 24.828125 16.707031 24.722656 16.863281 24.511719 L 19.609375 21.082031 C 22.664062 23.089844 26.742188 22.464844 29.054688 19.632812 C 31.363281 16.800781 31.160156 12.675781 28.578125 10.089844 M 19.503906 11.097656 C 20.945312 9.652344 23.046875 9.085938 25.015625 9.613281 C 26.988281 10.140625 28.527344 11.679688 29.054688 13.648438 C 29.582031 15.621094 29.015625 17.722656 27.570312 19.164062 C 25.34375 21.386719 21.734375 21.382812 19.507812 19.15625 C 17.285156 16.933594 17.28125 13.324219 19.503906 11.097656 M 1.332031 15.511719 C 1.332031 12.753906 3.566406 10.519531 6.324219 10.519531 L 14.878906 10.519531 C 15.261719 10.535156 15.5625 10.851562 15.5625 11.234375 C 15.5625 11.613281 15.261719 11.929688 14.878906 11.945312 L 6.324219 11.945312 C 5.035156 11.921875 3.832031 12.59375 3.179688 13.707031 C 2.527344 14.820312 2.527344 16.199219 3.179688 17.3125 C 3.832031 18.425781 5.035156 19.101562 6.324219 19.074219 L 12.027344 19.074219 C 12.421875 19.074219 12.742188 19.394531 12.742188 19.789062 C 12.742188 20.183594 12.421875 20.5 12.027344 20.5 L 6.324219 20.5 C 3.566406 20.5 1.335938 18.269531 1.332031 15.511719 "/>
<path  d="M 5.609375 15.511719 C 5.609375 15.117188 5.929688 14.796875 6.324219 14.796875 L 12.742188 14.796875 C 13.136719 14.796875 13.453125 15.117188 13.453125 15.511719 C 13.453125 15.90625 13.136719 16.226562 12.742188 16.226562 L 6.324219 16.226562 C 5.929688 16.226562 5.609375 15.90625 5.609375 15.511719 "/>
</svg>
