<?xml version="1.0" encoding="UTF-8"?>
<svg xmlns="http://www.w3.org/2000/svg" xmlns:xlink="http://www.w3.org/1999/xlink" width="32" height="32" viewBox="0 0 32 32">
<path fill-rule="nonzero" fill="rgb(0%, 0%, 0%)" fill-opacity="1" d="M 1.921875 7.039062 C 0.867188 7.039062 0 7.90625 0 8.960938 L 0 23.039062 C 0 24.09375 0.867188 24.960938 1.921875 24.960938 L 30.078125 24.960938 C 31.132812 24.960938 32 24.09375 32 23.039062 L 32 8.960938 C 32 7.90625 31.132812 7.039062 30.078125 7.039062 Z M 1.921875 8.320312 L 30.078125 8.320312 C 30.441406 8.320312 30.71875 8.597656 30.71875 8.960938 L 30.71875 23.039062 C 30.71875 23.402344 30.441406 23.679688 30.078125 23.679688 L 1.921875 23.679688 C 1.558594 23.679688 1.28125 23.402344 1.28125 23.039062 L 1.28125 8.960938 C 1.28125 8.597656 1.558594 8.320312 1.921875 8.320312 Z M 22.078125 11.519531 C 20.144531 11.519531 18.558594 13.105469 18.558594 15.039062 C 18.558594 16.976562 20.144531 18.558594 22.078125 18.558594 C 22.816406 18.558594 23.503906 18.328125 24.070312 17.9375 L 26.585938 20.453125 L 27.492188 19.546875 L 24.976562 17.03125 C 25.367188 16.464844 25.601562 15.777344 25.601562 15.039062 C 25.601562 13.105469 24.015625 11.519531 22.078125 11.519531 Z M 22.078125 12.800781 C 23.324219 12.800781 24.320312 13.796875 24.320312 15.039062 C 24.320312 16.285156 23.324219 17.28125 22.078125 17.28125 C 20.835938 17.28125 19.839844 16.285156 19.839844 15.039062 C 19.839844 13.796875 20.835938 12.800781 22.078125 12.800781 Z M 22.078125 12.800781 "/>
</svg>
