<svg role="img" viewBox="0 0 32 32" height="32" width="32" xmlns="http://www.w3.org/2000/svg"><path d="M6 5a1.999 1.999 0 1 0 0 4 1.999 1.999 0 1 0 0-4m5 1v2h17V6Zm-5 8a1.999 1.999 0 1 0 0 4 1.999 1.999 0 1 0 0-4m5 1v2h17v-2Zm13.5 4c-2.832 0-5.215 2.227-5.473 5H11v2h8.219c.664 2.29 2.8 4 5.281 4 1.2 0 2.2-.398 3.098-1l3 3L32 30.598l-3-3c.602-.899 1-1.996 1-3.098 0-3-2.5-5.5-5.5-5.5m0 2c1.898 0 3.5 1.602 3.5 3.5S26.398 28 24.5 28 21 26.398 21 24.5s1.602-3.5 3.5-3.5M6 23a1.999 1.999 0 1 0 0 4 1.999 1.999 0 1 0 0-4m0 0"/></svg>