<svg role="img" viewBox="0 0 32 32" height="32" width="32" xmlns="http://www.w3.org/2000/svg"><path d="M14.078.64a.64.64 0 0 0-.637.641v4.48H3.168c-.684 0-1.246.594-1.246 1.325v20.39c0 .727.562 1.325 1.246 1.325h25.664c.684 0 1.246-.598 1.246-1.324V7.086c0-.73-.562-1.324-1.246-1.324H18.559v-4.48a.64.64 0 0 0-.637-.641ZM16 2.56c.352 0 .64.289.64.64 0 .352-.288.64-.64.64a.644.644 0 0 1-.64-.64c0-.351.288-.64.64-.64m-3.2 4.48h.641v.64a.64.64 0 0 0 .637.641h3.844a.64.64 0 0 0 .637-.64v-.64h.64c.703 0 1.281.577 1.281 1.28v.64c0 .704-.578 1.278-1.28 1.278h-6.4a1.284 1.284 0 0 1-1.28-1.277v-.64c0-.704.578-1.282 1.28-1.282m-1.964 5.121c.703 0 1.234.32 1.445.672 1.965 0 1.461 2.574 1.16 3.41.106.106.25.39.25.774 0 .55-.558.886-.558.886-.11.696-.633 1.278-.953 1.426 0 .434-.051.774 0 1.254.554 1.414 4.289 1.02 4.46 3.738H5.122c.172-2.718 3.902-2.324 4.461-3.738.05-.48 0-.82 0-1.262-.23-.113-.883-.734-.988-1.425 0 0-.524-.23-.555-.98-.012-.392.281-.673.281-.673-.55-1.976-.312-4.031 2.516-4.082m7.723 2.559h7.68a.641.641 0 0 1 0 1.281h-7.68a.64.64 0 0 1 0-1.281m0 3.203h7.68a.638.638 0 1 1 0 1.277h-7.68a.64.64 0 0 1-.637-.64c0-.352.285-.637.637-.637m0 3.2h7.68a.639.639 0 1 1 0 1.276h-7.68a.638.638 0 0 1 0-1.277m0 0"/></svg>