<?xml version="1.0" encoding="UTF-8"?>
<svg xmlns="http://www.w3.org/2000/svg" xmlns:xlink="http://www.w3.org/1999/xlink" width="32" height="32" viewBox="0 0 32 32">
<path fill-rule="nonzero" fill="rgb(0%, 0%, 0%)" fill-opacity="1" d="M 14.078125 0.640625 C 13.726562 0.640625 13.441406 0.929688 13.441406 1.28125 L 13.441406 5.761719 L 3.167969 5.761719 C 2.484375 5.761719 1.921875 6.355469 1.921875 7.085938 L 1.921875 27.476562 C 1.921875 28.203125 2.484375 28.800781 3.167969 28.800781 L 28.832031 28.800781 C 29.515625 28.800781 30.078125 28.203125 30.078125 27.476562 L 30.078125 7.085938 C 30.078125 6.355469 29.515625 5.761719 28.832031 5.761719 L 18.558594 5.761719 L 18.558594 1.28125 C 18.558594 0.929688 18.273438 0.644531 17.921875 0.640625 Z M 16 2.558594 C 16.351562 2.558594 16.640625 2.847656 16.640625 3.199219 C 16.640625 3.550781 16.351562 3.839844 16 3.839844 C 15.648438 3.835938 15.363281 3.550781 15.359375 3.199219 C 15.359375 2.847656 15.648438 2.558594 16 2.558594 M 12.800781 7.039062 L 13.441406 7.039062 L 13.441406 7.679688 C 13.441406 8.03125 13.726562 8.320312 14.078125 8.320312 L 17.921875 8.320312 C 18.273438 8.320312 18.558594 8.035156 18.558594 7.679688 L 18.558594 7.039062 L 19.199219 7.039062 C 19.902344 7.039062 20.480469 7.617188 20.480469 8.320312 L 20.480469 8.960938 C 20.480469 9.664062 19.902344 10.238281 19.199219 10.238281 L 12.800781 10.238281 C 12.09375 10.238281 11.523438 9.667969 11.519531 8.960938 L 11.519531 8.320312 C 11.519531 7.617188 12.097656 7.039062 12.800781 7.039062 M 10.835938 12.160156 C 11.539062 12.160156 12.070312 12.480469 12.28125 12.832031 C 14.246094 12.832031 13.742188 15.40625 13.441406 16.242188 C 13.546875 16.347656 13.691406 16.632812 13.691406 17.015625 C 13.691406 17.566406 13.132812 17.902344 13.132812 17.902344 C 13.023438 18.597656 12.5 19.179688 12.179688 19.328125 C 12.179688 19.761719 12.128906 20.101562 12.179688 20.582031 C 12.734375 21.996094 16.46875 21.601562 16.640625 24.320312 L 5.121094 24.320312 C 5.292969 21.601562 9.023438 21.996094 9.582031 20.582031 C 9.632812 20.101562 9.582031 19.761719 9.582031 19.320312 C 9.351562 19.207031 8.699219 18.585938 8.59375 17.894531 C 8.59375 17.894531 8.070312 17.664062 8.039062 16.914062 C 8.027344 16.523438 8.320312 16.242188 8.320312 16.242188 C 7.769531 14.265625 8.007812 12.210938 10.835938 12.160156 M 18.558594 14.71875 L 26.238281 14.71875 C 26.582031 14.734375 26.855469 15.015625 26.855469 15.359375 C 26.855469 15.703125 26.582031 15.988281 26.238281 16 L 18.558594 16 C 18.207031 16 17.917969 15.714844 17.917969 15.359375 C 17.917969 15.007812 18.207031 14.71875 18.558594 14.71875 M 18.558594 17.921875 L 26.238281 17.921875 C 26.59375 17.921875 26.878906 18.207031 26.878906 18.5625 C 26.878906 18.914062 26.59375 19.199219 26.238281 19.199219 L 18.558594 19.199219 C 18.207031 19.199219 17.921875 18.914062 17.921875 18.558594 C 17.921875 18.207031 18.207031 17.921875 18.558594 17.921875 M 18.558594 21.121094 L 26.238281 21.121094 C 26.476562 21.109375 26.699219 21.226562 26.824219 21.429688 C 26.945312 21.632812 26.945312 21.886719 26.824219 22.089844 C 26.699219 22.292969 26.476562 22.414062 26.238281 22.398438 L 18.558594 22.398438 C 18.207031 22.398438 17.921875 22.113281 17.921875 21.761719 C 17.921875 21.40625 18.207031 21.121094 18.558594 21.121094 M 18.558594 21.121094 "/>
</svg>
