<?xml version="1.0" encoding="UTF-8"?>
<svg xmlns="http://www.w3.org/2000/svg" xmlns:xlink="http://www.w3.org/1999/xlink" width="35.932544" height="32" viewBox="0 0 35.932544 32">
<path fill-rule="nonzero" fill="rgb(0%, 0%, 0%)" fill-opacity="1" d="M 35.46875 30.34375 C 36.085938 29.304688 36.085938 28.015625 35.46875 26.976562 L 20.832031 1.613281 C 20.242188 0.589844 19.140625 -0.0273438 17.960938 0 C 16.78125 -0.0117188 15.6875 0.597656 15.089844 1.613281 L 10.375 9.832031 L 11.539062 10.546875 C 15.070312 12.574219 17.996094 15.503906 20.023438 19.03125 C 21.835938 22.140625 22.878906 25.628906 23.078125 29.222656 L 19.757812 29.222656 C 19.546875 26.21875 18.65625 23.296875 17.152344 20.695312 C 15.425781 17.648438 12.914062 15.125 9.882812 13.375 L 8.671875 12.703125 L 4.269531 20.332031 L 5.433594 21.054688 C 8.410156 22.792969 10.410156 25.8125 10.867188 29.222656 L 3.238281 29.222656 C 3.050781 29.214844 2.878906 29.117188 2.789062 28.953125 C 2.675781 28.777344 2.675781 28.546875 2.789062 28.371094 L 4.945312 24.777344 C 4.226562 24.160156 3.40625 23.671875 2.523438 23.339844 L 0.453125 27.019531 C -0.152344 28.042969 -0.152344 29.3125 0.453125 30.335938 C 1.035156 31.367188 2.136719 32.007812 3.324219 32 L 13.738281 32 L 13.738281 30.5625 C 13.738281 28.15625 13.117188 25.789062 11.941406 23.691406 C 10.949219 22 9.625 20.535156 8.039062 19.382812 L 9.703125 16.511719 C 11.777344 17.953125 13.511719 19.839844 14.773438 22.035156 C 16.269531 24.632812 17.0625 27.570312 17.0625 30.5625 L 17.0625 31.910156 L 25.90625 31.910156 L 25.90625 30.5625 C 25.898438 26.019531 24.691406 21.558594 22.402344 17.636719 C 20.390625 14.078125 17.5625 11.046875 14.144531 8.792969 L 17.511719 2.953125 C 17.601562 2.792969 17.773438 2.6875 17.960938 2.6875 C 18.152344 2.695312 18.320312 2.792969 18.410156 2.953125 L 33.089844 28.316406 C 33.1875 28.484375 33.1875 28.6875 33.089844 28.855469 C 33.007812 29.027344 32.832031 29.128906 32.640625 29.121094 L 29.183594 29.121094 L 29.183594 31.910156 L 32.640625 31.910156 C 33.820312 31.921875 34.90625 31.285156 35.46875 30.246094 Z M 35.46875 30.34375 "/>
</svg>
