<svg role="img" viewBox="0 0 32 32" xmlns="http://www.w3.org/2000/svg"><path d="M7.43 3a1.99 1.99 0 0 0-1.79 1.105L3.267 8.852c-.172.347-.262.73-.266 1.117V15c0 .602.273 1.133.691 1.5A2 2 0 0 0 3 18v3c0 .602.273 1.133.691 1.5A2 2 0 0 0 3 24v3c0 1.102.898 2 2 2h22c1.102 0 2-.898 2-2v-3c0-.602-.273-1.133-.691-1.5.418-.367.691-.898.691-1.5v-3c0-.602-.273-1.133-.691-1.5.418-.367.691-.898.691-1.5V9.969c0-.383-.094-.77-.266-1.117L26.36 4.105A1.97 1.97 0 0 0 24.57 3Zm0 1h17.14c.383 0 .727.21.899.555L27.844 9.3c.101.207.156.433.156.668V10H4v-.031c0-.227.055-.461.156-.668l2.375-4.746A1 1 0 0 1 7.43 4m.07 1a.499.499 0 1 0 0 1h13a.499.499 0 1 0 0-1Zm15 0a.499.499 0 1 0 0 1h2a.499.499 0 1 0 0-1ZM4 11h24v4c0 .55-.45 1-1 1H5c-.55 0-1-.45-1-1Zm20.5 1a1.5 1.5 0 1 0 0 3 1.5 1.5 0 0 0 0-3m-18 .5c-.277 0-.5.223-.5.5v1a.499.499 0 1 0 1 0v-1c0-.277-.223-.5-.5-.5m2.5 0c-.277 0-.5.223-.5.5v1a.499.499 0 1 0 1 0v-1c0-.277-.223-.5-.5-.5m2.5 0c-.277 0-.5.223-.5.5v1a.499.499 0 1 0 1 0v-1c0-.277-.223-.5-.5-.5m2.5 0c-.277 0-.5.223-.5.5v1a.499.499 0 1 0 1 0v-1c0-.277-.223-.5-.5-.5m2.5 0c-.277 0-.5.223-.5.5v1a.499.499 0 1 0 1 0v-1c0-.277-.223-.5-.5-.5m8 .398a.59.59 0 0 1 .559.372.6.6 0 0 1-.133.656.58.58 0 0 1-.426.176.6.6 0 0 1-.426-1.027.6.6 0 0 1 .426-.177m-6 .102a.499.499 0 1 0 0 1h3a.499.499 0 1 0 0-1ZM5 17h22c.55 0 1 .45 1 1v3c0 .55-.45 1-1 1H5c-.55 0-1-.45-1-1v-3c0-.55.45-1 1-1m19.5 1a1.5 1.5 0 1 0 0 3 1.5 1.5 0 0 0 0-3m-18 .5c-.277 0-.5.223-.5.5v1a.499.499 0 1 0 1 0v-1c0-.277-.223-.5-.5-.5m2.5 0c-.277 0-.5.223-.5.5v1a.499.499 0 1 0 1 0v-1c0-.277-.223-.5-.5-.5m2.5 0c-.277 0-.5.223-.5.5v1a.499.499 0 1 0 1 0v-1c0-.277-.223-.5-.5-.5m2.5 0c-.277 0-.5.223-.5.5v1a.499.499 0 1 0 1 0v-1c0-.277-.223-.5-.5-.5m2.5 0c-.277 0-.5.223-.5.5v1a.499.499 0 1 0 1 0v-1c0-.277-.223-.5-.5-.5m8 .398a.602.602 0 1 1 0 1.204.602.602 0 0 1 0-1.204m-6 .102a.499.499 0 1 0 0 1h3a.499.499 0 1 0 0-1ZM5 23h22c.55 0 1 .45 1 1v3c0 .55-.45 1-1 1H5c-.55 0-1-.45-1-1v-3c0-.55.45-1 1-1m19.5 1a1.5 1.5 0 1 0 0 3 1.5 1.5 0 0 0 0-3m-18 .5c-.277 0-.5.223-.5.5v1a.499.499 0 1 0 1 0v-1c0-.277-.223-.5-.5-.5m2.5 0c-.277 0-.5.223-.5.5v1a.499.499 0 1 0 1 0v-1c0-.277-.223-.5-.5-.5m2.5 0c-.277 0-.5.223-.5.5v1a.499.499 0 1 0 1 0v-1c0-.277-.223-.5-.5-.5m2.5 0c-.277 0-.5.223-.5.5v1a.499.499 0 1 0 1 0v-1c0-.277-.223-.5-.5-.5m2.5 0c-.277 0-.5.223-.5.5v1a.499.499 0 1 0 1 0v-1c0-.277-.223-.5-.5-.5m8 .375c.344 0 .625.281.625.625a.627.627 0 0 1-.625.625.627.627 0 0 1-.625-.625c0-.344.281-.625.625-.625m-6 .125a.499.499 0 1 0 0 1h3a.499.499 0 1 0 0-1Zm0 0" fill="rgb(0%, 0%, 0%)"/></svg>