<svg role="img" viewBox="0 0 211.2 32" height="32" width="211.2" xmlns="http://www.w3.org/2000/svg"><path d="M51.234 10.227a8.981 8.981 0 0 0-5.773 2.078v-1.867h-5.27V30.96h5.48V17.84a6.498 6.498 0 0 1 4.974-2.54 5.484 5.484 0 0 1 2.199.329v-5.262a9.265 9.265 0 0 0-1.61-.14M3.457 24.699a8.56 8.56 0 0 0 5.598 2.028c1.476 0 2.613-.72 2.613-1.735 0-3.09-9.906-1.988-9.906-8.59 0-3.933 3.797-6.386 7.84-6.386 2.457.004 4.863.726 6.914 2.078l-2.563 3.969a6.925 6.925 0 0 0-3.922-1.395c-1.515 0-2.781.594-2.781 1.652 0 2.664 9.906 1.606 9.906 8.715 0 3.938-3.84 6.348-8.136 6.348A14.084 14.084 0 0 1 .8 28.64Zm34.395-4.191c0-5.711-4-10.492-9.657-10.492-6.07 0-9.949 4.992-9.949 10.703a10.253 10.253 0 0 0 3.008 7.691 10.26 10.26 0 0 0 7.707 2.973 11.069 11.069 0 0 0 8.387-3.68L34.23 24.57a7.235 7.235 0 0 1-5.144 2.371 5.387 5.387 0 0 1-5.527-4.863h14.168a8.81 8.81 0 0 0 .125-1.57m-14.04-2.453a4.44 4.44 0 0 1 4.383-3.598 4.085 4.085 0 0 1 4.051 3.598Zm42.09 4.906 5.61-12.523h5.691L67.801 30.96h-3.793l-9.403-20.523h5.692ZM81.805.8a3.516 3.516 0 0 1 3.457 3.562 3.514 3.514 0 0 1-2.215 3.227 3.54 3.54 0 0 1-3.832-.817A3.523 3.523 0 0 1 81.805.8m-2.743 9.637h5.481V30.96h-5.48ZM107.2 26.77a10.812 10.812 0 0 1-9.277 4.613 10.703 10.703 0 0 1-9.492-5.274 10.712 10.712 0 0 1 .02-10.859 10.697 10.697 0 0 1 9.51-5.234 10.886 10.886 0 0 1 8.603 4.101l-3.88 3.43a5.93 5.93 0 0 0-4.722-2.457 5.51 5.51 0 0 0-3.945 1.652 5.47 5.47 0 0 0-1.567 3.977 5.41 5.41 0 0 0 5.649 5.586 5.982 5.982 0 0 0 4.89-2.707Zm19.906.93a11.054 11.054 0 0 1-8.386 3.679 10.237 10.237 0 0 1-7.7-2.973 10.23 10.23 0 0 1-3.007-7.687c0-5.715 3.879-10.707 9.949-10.707 5.648 0 9.652 4.781 9.652 10.492a9.175 9.175 0 0 1-.125 1.566H113.32a5.38 5.38 0 0 0 5.524 4.868 7.235 7.235 0 0 0 5.144-2.372Zm-5.097-9.645a4.075 4.075 0 0 0-4.047-3.598 4.444 4.444 0 0 0-4.387 3.598Zm7.785 12.906V10.438h5.27v1.648a9.01 9.01 0 0 1 5.773-2.07 9.197 9.197 0 0 1 7.082 3.3 10.35 10.35 0 0 1 2.11 7.2V30.96h-5.481V20.078a4.979 4.979 0 0 0-1.223-3.848 4.312 4.312 0 0 0-3.078-1.144 6.517 6.517 0 0 0-4.973 2.539v13.336Zm0 0"/><path d="M164.137 10.016a11.99 11.99 0 0 0-11.168 7.55 11.993 11.993 0 0 0 2.902 13.168 2.372 2.372 0 0 0 3.082.16 8.573 8.573 0 0 1 10.23 0 2.37 2.37 0 0 0 3.098-.18 12.002 12.002 0 0 0 2.906-13.097 11.995 11.995 0 0 0-11.05-7.605M164.067 28a5.802 5.802 0 0 1-4.27-1.703 5.802 5.802 0 0 1-1.703-4.27c0-3.3 2.676-5.972 5.972-5.972a5.99 5.99 0 0 1 4.227 1.746 5.975 5.975 0 0 1 1.75 4.226 5.817 5.817 0 0 1-1.703 4.27A5.795 5.795 0 0 1 164.066 28" fill="rgb(38.431373%, 84.705882%, 30.588235%)" fill-rule="evenodd"/><path d="M186.86 30.96h-4.083l-8.136-20.522h5.472l4.461 11.726 4.375-11.727h4.574l4.336 11.727 4.5-11.727h5.473l-8.137 20.524h-4.082l-4.375-11.688Zm21.035-2.32h-.461v.868h-.395v-2.375H208a.75.75 0 0 1 .543.222c.14.145.223.336.223.54a.761.761 0 0 1-.473.69l.539.927h-.426Zm-.461-.35H208a.401.401 0 1 0 0-.802h-.562Zm.406-2.134a2.21 2.21 0 0 1 2.21 2.203 2.211 2.211 0 0 1-1.773 2.168 2.21 2.21 0 0 1-2.468-1.324 2.187 2.187 0 0 1 .199-2.066 2.194 2.194 0 0 1 1.832-.98m0-.348a2.56 2.56 0 1 0 .004 5.12 2.56 2.56 0 0 0-.004-5.12m0 0"/></svg>