<svg role="img" viewBox="0 0 32 32" height="32" width="32" xmlns="http://www.w3.org/2000/svg"><path d="M17.676 2.559c-.488 0-.93.273-1.145.707L15.47 5.39c.484.246.89.636 1.144 1.148l1.094 2.18c.14.27.211.57.215.875v16.008H28.8c.351 0 .64-.29.64-.641V5.758a.792.792 0 0 0-.074-.297L28.27 3.27a1.281 1.281 0 0 0-1.145-.711Zm0 1.28h9.449l.64 1.282h-10.73ZM4.875 6.4c-.488 0-.926.273-1.145.71L2.633 9.301a.724.724 0 0 0-.074.297V28.8c0 .351.289.64.64.64H16c.352 0 .64-.289.64-.64V9.598a.724.724 0 0 0-.074-.297L15.47 7.109a1.259 1.259 0 0 0-1.145-.71Zm0 1.28h9.45l.64 1.282H4.235Zm14.324.641h7.68v2.559h-7.68ZM5.762 12.16h7.68v2.559h-7.68Zm13.437 0h7.68v2.559h-7.68ZM5.762 16h7.68v2.559h-7.68Zm17.277 1.922a.636.636 0 0 1 .242 1.226.653.653 0 0 1-.695-.136.64.64 0 0 1-.14-.696.648.648 0 0 1 .593-.394m0 2.558a.628.628 0 0 1 .586.31.628.628 0 0 1-.004.66.64.64 0 0 1-.582.312.642.642 0 0 1 0-1.282M9.602 21.762a.64.64 0 0 1 .21 1.242.64.64 0 1 1-.21-1.242m0 2.558a.639.639 0 0 1 .453 1.094.635.635 0 0 1-.453.188.643.643 0 0 1 0-1.282m0 0"/></svg>