<?xml version="1.0" encoding="UTF-8"?>
<svg xmlns="http://www.w3.org/2000/svg" xmlns:xlink="http://www.w3.org/1999/xlink" width="32" height="32" viewBox="0 0 32 32">
<path fill-rule="nonzero"fill-opacity="1" d="M 4.921875 0 C 4.359375 0 3.84375 0.414062 3.71875 0.960938 L 0 12.839844 C 0.148438 12.816406 0.304688 12.800781 0.460938 12.800781 L 31.558594 12.820312 C 31.710938 12.820312 31.859375 12.835938 32 12.859375 L 28.28125 0.960938 C 28.15625 0.414062 27.640625 0 27.078125 0 Z M 1.28125 14.078125 C 0.574219 14.078125 0 14.65625 0 15.359375 L 0 17.921875 C 0 18.625 0.574219 19.199219 1.28125 19.199219 L 30.71875 19.199219 C 31.425781 19.199219 32 18.625 32 17.921875 L 32 15.359375 C 32 14.65625 31.425781 14.078125 30.71875 14.078125 Z M 27.519531 15.359375 C 28.226562 15.359375 28.800781 15.933594 28.800781 16.640625 C 28.800781 17.347656 28.226562 17.921875 27.519531 17.921875 C 26.8125 17.921875 26.238281 17.347656 26.238281 16.640625 C 26.238281 15.933594 26.8125 15.359375 27.519531 15.359375 Z M 1.28125 20.480469 C 0.574219 20.480469 0 21.050781 0 21.761719 L 0 24.320312 C 0 25.023438 0.574219 25.601562 1.28125 25.601562 L 30.71875 25.601562 C 31.425781 25.601562 32 25.023438 32 24.320312 L 32 21.761719 C 32 21.050781 31.425781 20.480469 30.71875 20.480469 Z M 27.519531 21.761719 C 28.226562 21.761719 28.800781 22.332031 28.800781 23.039062 C 28.800781 23.746094 28.226562 24.320312 27.519531 24.320312 C 26.8125 24.320312 26.238281 23.746094 26.238281 23.039062 C 26.238281 22.332031 26.8125 21.761719 27.519531 21.761719 Z M 1.28125 26.878906 C 0.574219 26.878906 0 27.453125 0 28.160156 L 0 30.71875 C 0 31.425781 0.574219 32 1.28125 32 L 30.71875 32 C 31.425781 32 32 31.425781 32 30.71875 L 32 28.160156 C 32 27.453125 31.425781 26.878906 30.71875 26.878906 Z M 27.519531 28.160156 C 28.226562 28.160156 28.800781 28.734375 28.800781 29.441406 C 28.800781 30.148438 28.226562 30.71875 27.519531 30.71875 C 26.8125 30.71875 26.238281 30.148438 26.238281 29.441406 C 26.238281 28.734375 26.8125 28.160156 27.519531 28.160156 Z M 27.519531 28.160156 "/>
</svg>
