<svg role="img" viewBox="0 0 37.827 32" height="32" width="37.827" xmlns="http://www.w3.org/2000/svg"><path d="m6.637 14.55 1.91-.12c.02.254.11.5.254.707.215.265.547.414.886.394a.975.975 0 0 0 .66-.199.612.612 0 0 0 .235-.469.61.61 0 0 0-.219-.457 2.631 2.631 0 0 0-1.027-.375 4.313 4.313 0 0 1-1.883-.793 1.58 1.58 0 0 1-.57-1.254c0-.336.101-.668.293-.945.215-.316.52-.562.875-.703a4.059 4.059 0 0 1 1.597-.254 3.25 3.25 0 0 1 1.903.465c.46.355.746.894.777 1.476l-1.89.114a1.041 1.041 0 0 0-.305-.645 1.002 1.002 0 0 0-.668-.199.808.808 0 0 0-.531.145.459.459 0 0 0-.18.363.37.37 0 0 0 .144.277c.204.129.434.211.672.242a8.42 8.42 0 0 1 1.887.575c.34.156.629.41.832.722.172.293.262.625.258.965.004.41-.117.813-.344 1.156a2.203 2.203 0 0 1-.969.801c-.5.195-1.03.29-1.566.273-1.105 0-1.875-.218-2.297-.64a2.546 2.546 0 0 1-.726-1.625ZM2.793 4.814h.95v-2.29c0-.312.253-.57.566-.574h1.023V.574c0-.152.063-.3.172-.41A.61.61 0 0 1 5.918 0h9.34c.32 0 .578.258.578.574V1.95h18.316c.317 0 .575.258.575.574v2.29h1.05c.317 0 .575.257.575.574a.336.336 0 0 1 0 .125l-2.024 14.804a2.199 2.199 0 0 1-.617 1.254c-.324.332-.766.52-1.23.52H21.315v1.715h.055a.823.823 0 0 1 .817.824v1.48h4.003c.356 0 .672.235.782.575h8.57a2.152 2.152 0 0 1 2.11 1.378c.117.293.175.606.175.922a2.5 2.5 0 0 1-.176.926 2.157 2.157 0 0 1-2.109 1.375h-8.535a.82.82 0 0 1-.817.73h-13.9a.82.82 0 0 1-.816-.73H2.285a2.15 2.15 0 0 1-2.11-1.39 2.477 2.477 0 0 1 0-1.848 2.166 2.166 0 0 1 2.11-1.379h9.235a.825.825 0 0 1 .78-.574h3.302V24.63a.82.82 0 0 1 .82-.82h.305v-1.723H5.543a1.718 1.718 0 0 1-1.266-.54 2.084 2.084 0 0 1-.582-1.253L2.13 5.445a.583.583 0 0 1 .125-.422.586.586 0 0 1 .387-.207h.152ZM17.813 23.8h2.417v-1.692h-2.418Zm9.199 3.965v2.418h8.531a1.12 1.12 0 0 0 1.09-.692c.062-.164.097-.34.094-.52 0-.175-.032-.35-.094-.511a1.118 1.118 0 0 0-1.102-.695Zm-15.543 2.418v-2.418H2.285c-.48-.028-.922.25-1.101.695-.13.332-.13.7 0 1.031.18.442.62.719 1.101.692ZM3.339 5.96l1.49 14.215a.97.97 0 0 0 .257.574.657.657 0 0 0 .457.184h26.945a.643.643 0 0 0 .434-.184c.156-.164.25-.371.273-.594L35.13 5.961ZM4.896 3.1v1.71l28.68-.243V3.102H15.257a.573.573 0 0 1-.578-.579v-1.37H6.496v1.37a.587.587 0 0 1-.578.579Zm8.71 7.079h4.973v1.398h-2.953v1.137h2.54v1.32h-2.54v2.653h-2.02Zm5.649 0h6.117v1.61h-2.05v4.913H21.31V11.8h-2.055Zm7.058 0h3.348c.594-.047 1.18.14 1.637.52.383.394.582.929.547 1.48a1.99 1.99 0 0 1-.594 1.539c-.398.375-1.004.562-1.812.558H28.32v2.407h-2.008Zm2.02 2.77h.496c.29.03.582-.044.824-.204a.628.628 0 0 0 .235-.516.68.68 0 0 0-.203-.52 1.022 1.022 0 0 0-.774-.214h-.59v1.453Zm0 0"/></svg>