<svg role="img" viewBox="0 0 32 32" height="32" width="32" xmlns="http://www.w3.org/2000/svg"><path d="M16 0c-1.262 0-2.39.594-3.96 1.422C9.995 2.5 7.194 3.98 2.421 5l-.5.121v.52c0 19.511 13.68 26.035 13.816 26.097l.282.14.28-.14c.137-.066 13.778-7.234 13.778-26.097v-.52l-.5-.121c-4.773-1.02-7.574-2.5-9.617-3.578C18.39.594 17.26 0 16 0m.121 8c2.492 0 4.16 1.594 4.16 3.898 0 1.09-.375 1.934-1.14 3.024L17.6 17.02c-.449.64-.581.972-.581 1.742v.699c0 .125-.067.258-.258.258h-1.524c-.062 0-.199-.133-.199-.258V18.5c0-.895.188-1.422.7-2.059l1.542-2.101c.832-1.086 1.078-1.606 1.078-2.442 0-1.277-.894-2.097-2.238-2.097-1.281 0-2.105.75-2.36 2.16 0 .125-.132.2-.261.2l-1.46-.263c-.126 0-.2-.132-.2-.257C12.16 9.465 13.754 8 16.12 8m-.883 13.441h1.723c.125 0 .258.067.258.258v1.98c0 .13-.067.262-.258.262h-1.723c-.125 0-.258-.07-.258-.261V21.7c0-.126.067-.259.258-.259m0 0"/></svg>