<svg role="img" viewBox="0 0 32 32" height="32" width="32" xmlns="http://www.w3.org/2000/svg"><path d="M16 .063c-1.27 0-2.414.601-4 1.437-2.04 1.074-4.84 2.543-9.578 3.582l-.5.113v.512c0 19.5 13.672 26.035 13.808 26.102l.286.128.273-.14c.137-.07 13.79-7.238 13.79-26.09v-.512l-.5-.113C24.838 4.043 22.038 2.574 20 1.5 18.414.664 17.27.063 16 .063m0 8.898c3.168 0 5.762 2.59 5.762 5.758S19.168 20.48 16 20.48c-3.168 0-5.762-2.593-5.762-5.761S12.832 8.96 16 8.96m-.64 1.918v3.52l-2.305 1.73.77 1.023 2.816-2.113v-4.16Zm0 0"/></svg>