<svg role="img" viewBox="0 0 32 32" height="32" width="32" xmlns="http://www.w3.org/2000/svg"><path d="M16 9.676c5.613 0 10.66 2.445 14.129 6.324A18.906 18.906 0 0 1 16 22.324 18.906 18.906 0 0 1 1.871 16 18.906 18.906 0 0 1 16 9.676m0 1.418c1.3 0 2.547.515 3.465 1.437A4.899 4.899 0 0 1 20.906 16a4.87 4.87 0 0 1-1.437 3.465A4.899 4.899 0 0 1 16 20.906a4.87 4.87 0 0 1-3.465-1.437A4.899 4.899 0 0 1 11.094 16c0-1.352.547-2.582 1.437-3.465A4.899 4.899 0 0 1 16 11.094m2.766 2.14a3.914 3.914 0 0 0-5.528 0A3.905 3.905 0 0 0 12.094 16a3.908 3.908 0 0 0 6.672 2.762 3.915 3.915 0 0 0 0-5.528"/></svg>