<svg role="img" viewBox="0 0 32 32" height="32" width="32" xmlns="http://www.w3.org/2000/svg"><path d="M16 1.281C7.883 1.281 1.281 7.883 1.281 16c0 8.117 6.602 14.719 14.719 14.719 8.117 0 14.719-6.602 14.719-14.719 0-8.117-6.602-14.719-14.719-14.719M15.36 3.2c0-.355.285-.64.64-.64.355 0 .64.285.64.64v14.082c0 .356-.285.64-.64.64a.639.639 0 0 1-.64-.64ZM16 29.473c-7.41 0-13.441-6.028-13.441-13.442a13.429 13.429 0 0 1 9.164-12.738.64.64 0 0 1 .812.402.635.635 0 0 1-.406.809 12.152 12.152 0 0 0-8.29 11.527c0 6.707 5.458 12.16 12.161 12.16 6.703 0 12.16-5.453 12.16-12.16 0-5.23-3.332-9.86-8.289-11.527a.638.638 0 1 1 .406-1.211 13.429 13.429 0 0 1 9.164 12.738c0 7.414-6.03 13.442-13.441 13.442m0 0"/></svg>