<?xml version="1.0" encoding="UTF-8"?>
<svg xmlns="http://www.w3.org/2000/svg" xmlns:xlink="http://www.w3.org/1999/xlink" width="32" height="32" viewBox="0 0 32 32">
<path fill-rule="nonzero" fill="rgb(0%, 0%, 0%)" fill-opacity="1" d="M 16 1.28125 C 7.882812 1.28125 1.28125 7.882812 1.28125 16 C 1.28125 24.117188 7.882812 30.71875 16 30.71875 C 24.117188 30.71875 30.71875 24.117188 30.71875 16 C 30.71875 7.882812 24.117188 1.28125 16 1.28125 M 15.359375 3.199219 C 15.359375 2.84375 15.644531 2.558594 16 2.558594 C 16.355469 2.558594 16.640625 2.84375 16.640625 3.199219 L 16.640625 17.28125 C 16.640625 17.636719 16.355469 17.921875 16 17.921875 C 15.832031 17.921875 15.667969 17.855469 15.546875 17.734375 C 15.425781 17.613281 15.359375 17.453125 15.359375 17.28125 Z M 16 29.472656 C 8.589844 29.472656 2.558594 23.445312 2.558594 16.03125 C 2.558594 10.257812 6.246094 5.128906 11.722656 3.292969 C 11.882812 3.238281 12.058594 3.25 12.210938 3.324219 C 12.363281 3.402344 12.480469 3.535156 12.535156 3.695312 C 12.589844 3.855469 12.578125 4.03125 12.5 4.183594 C 12.425781 4.335938 12.289062 4.453125 12.128906 4.503906 C 7.175781 6.164062 3.835938 10.804688 3.839844 16.03125 C 3.839844 22.738281 9.296875 28.191406 16 28.191406 C 22.703125 28.191406 28.160156 22.738281 28.160156 16.03125 C 28.160156 10.800781 24.828125 6.171875 19.871094 4.503906 C 19.535156 4.390625 19.355469 4.03125 19.46875 3.695312 C 19.582031 3.359375 19.941406 3.179688 20.277344 3.292969 C 25.753906 5.128906 29.441406 10.257812 29.441406 16.03125 C 29.441406 23.445312 23.410156 29.472656 16 29.472656 M 16 29.472656 "/>
</svg>
