<?xml version="1.0" encoding="UTF-8"?>
<svg xmlns="http://www.w3.org/2000/svg" xmlns:xlink="http://www.w3.org/1999/xlink" width="32" height="32" viewBox="0 0 32 32">
<path fill="none" stroke-width="1.5" stroke-linecap="round" stroke-linejoin="round" stroke="rgb(0%, 0%, 0%)" stroke-opacity="1" stroke-miterlimit="4" d="M 5.443359 17.367188 C 4.289062 17.074219 4.394531 15.858398 4.573242 15.272461 C 4.918945 14.162109 6.260742 13.03125 6.260742 11.803711 C 6.260742 9.079102 6.260742 8.323242 7.611328 6.708984 C 8.050781 6.193359 8.589844 5.774414 9.196289 5.472656 L 9.94043 5.106445 C 10.204102 4.957031 10.391602 4.702148 10.453125 4.40332 C 10.599609 3.383789 11.522461 2.660156 12.547852 2.759766 C 13.552734 2.692383 14.44043 3.407227 14.592773 4.40332 C 14.663086 4.708008 14.865234 4.96582 15.146484 5.106445 L 15.890625 5.472656 C 16.209961 5.633789 16.511719 5.821289 16.792969 6.038086 M 17.926758 8.296875 C 18.597656 9.342773 18.597656 10.306641 18.597656 12.489258 C 18.597656 13.713867 19.992188 14.917969 20.337891 16.019531 C 20.648438 16.754883 20.332031 17.604492 19.617188 17.958984 C 19.388672 18.073242 19.136719 18.128906 18.881836 18.117188 L 8.138672 18.117188 " transform="matrix(1.333333, 0, 0, 1.333333, 0, 0)"/>
<path fill="none" stroke-width="1.5" stroke-linecap="round" stroke-linejoin="round" stroke="rgb(0%, 0%, 0%)" stroke-opacity="1" stroke-miterlimit="4" d="M 15.474609 18.105469 C 15.492188 18.943359 15.166992 19.754883 14.572266 20.34668 C 13.980469 20.941406 13.168945 21.266602 12.331055 21.249023 C 11.493164 21.266602 10.681641 20.938477 10.089844 20.34668 C 9.498047 19.751953 9.169922 18.943359 9.1875 18.105469 " transform="matrix(1.333333, 0, 0, 1.333333, 0, 0)"/>
<path fill="none" stroke-width="1.5" stroke-linecap="round" stroke-linejoin="miter" stroke="rgb(0%, 0%, 0%)" stroke-opacity="1" stroke-miterlimit="10" d="M 3.541992 20.115234 L 19.494141 3.331055 " transform="matrix(1.333333, 0, 0, 1.333333, 0, 0)"/>
</svg>
