<?xml version="1.0" encoding="UTF-8"?>
<svg xmlns="http://www.w3.org/2000/svg" xmlns:xlink="http://www.w3.org/1999/xlink" width="32" height="32" viewBox="0 0 32 32">
<path fill="none" stroke-width="1.5" stroke-linecap="round" stroke-linejoin="round" stroke="rgb(0%, 0%, 0%)" stroke-opacity="1" stroke-miterlimit="4" d="M 5.443361 17.367192 C 4.289064 17.074223 4.394532 15.858402 4.573243 15.272465 C 4.918946 14.162113 6.260744 13.031253 6.260744 11.803714 C 6.260744 9.079104 6.260744 8.323244 7.61133 6.708986 C 8.050783 6.193361 8.589846 5.774415 9.196291 5.472658 L 9.940432 5.106447 C 10.204104 4.957032 10.391604 4.70215 10.453127 4.403321 C 10.599612 3.38379 11.522464 2.660157 12.547855 2.759766 C 13.552738 2.692383 14.440433 3.407227 14.592777 4.403321 C 14.663089 4.708009 14.865238 4.965821 15.146488 5.106447 L 15.890629 5.472658 C 16.209965 5.63379 16.511723 5.82129 16.792973 6.038087 M 17.926762 8.296877 C 18.597661 9.342776 18.597661 10.306643 18.597661 12.489261 C 18.597661 13.71387 19.992192 14.917972 20.337895 16.019535 C 20.648442 16.754887 20.332036 17.604496 19.617192 17.958989 C 19.388676 18.073246 19.136723 18.128911 18.88184 18.117192 L 8.138674 18.117192 " transform="matrix(1.333333, 0, 0, 1.333333, 0, 0)"/>
<path fill="none" stroke-width="1.5" stroke-linecap="round" stroke-linejoin="round" stroke="rgb(0%, 0%, 0%)" stroke-opacity="1" stroke-miterlimit="4" d="M 15.474613 18.105473 C 15.492191 18.943364 15.166996 19.754888 14.572269 20.346685 C 13.980472 20.941411 13.168948 21.266607 12.331058 21.249029 C 11.493167 21.266607 10.681643 20.938482 10.089846 20.346685 C 9.498049 19.751958 9.169924 18.943364 9.187502 18.105473 " transform="matrix(1.333333, 0, 0, 1.333333, 0, 0)"/>
<path fill="none" stroke-width="1.5" stroke-linecap="round" stroke-linejoin="miter" stroke="rgb(0%, 0%, 0%)" stroke-opacity="1" stroke-miterlimit="10" d="M 3.541993 20.115239 L 19.494145 3.331055 " transform="matrix(1.333333, 0, 0, 1.333333, 0, 0)"/>
</svg>
