<?xml version="1.0" encoding="UTF-8"?>
<svg xmlns="http://www.w3.org/2000/svg" xmlns:xlink="http://www.w3.org/1999/xlink" width="32" height="32" viewBox="0 0 32 32">
<path fill-rule="evenodd" fill="rgb(87.843138%, 11.764706%, 35.294119%)" fill-opacity="1" stroke-width="13.944" stroke-linecap="round" stroke-linejoin="round" stroke="rgb(87.843138%, 11.764706%, 35.294119%)" stroke-opacity="1" stroke-miterlimit="4" d="M 73.21875 159.125 C 73.21875 144.90625 83.96875 133.46875 97.3125 133.46875 C 110.6875 133.46875 121.40625 144.90625 121.40625 159.125 L 121.40625 222.25 C 121.40625 236.46875 110.6875 247.90625 97.3125 247.90625 C 83.96875 247.90625 73.21875 236.46875 73.21875 222.25 Z M 73.21875 159.125 " transform="matrix(0.125, 0, 0, 0.125, 0, 0)"/>
<path fill-rule="evenodd" fill="rgb(92.54902%, 69.803923%, 17.647059%)" fill-opacity="1" stroke-width="13.944" stroke-linecap="round" stroke-linejoin="round" stroke="rgb(92.54902%, 69.803923%, 17.647059%)" stroke-opacity="1" stroke-miterlimit="4" d="M 159.125 181.65625 C 144.90625 181.65625 133.46875 170.90625 133.46875 157.5625 C 133.46875 144.21875 144.90625 133.46875 159.125 133.46875 L 222.25 133.46875 C 236.46875 133.46875 247.90625 144.21875 247.90625 157.5625 C 247.90625 170.90625 236.46875 181.65625 222.25 181.65625 Z M 159.125 181.65625 " transform="matrix(0.125, 0, 0, 0.125, 0, 0)"/>
<path fill-rule="evenodd" fill="rgb(18.431373%, 71.372551%, 48.627451%)" fill-opacity="1" stroke-width="13.944" stroke-linecap="round" stroke-linejoin="round" stroke="rgb(18.431373%, 71.372551%, 48.627451%)" stroke-opacity="1" stroke-miterlimit="4" d="M 133.46875 32.625 C 133.46875 18.40625 144.21875 6.96875 157.5625 6.96875 C 170.90625 6.96875 181.65625 18.40625 181.65625 32.625 L 181.65625 95.78125 C 181.65625 109.96875 170.90625 121.40625 157.5625 121.40625 C 144.21875 121.40625 133.46875 109.96875 133.46875 95.78125 Z M 133.46875 32.625 " transform="matrix(0.125, 0, 0, 0.125, 0, 0)"/>
<path fill-rule="evenodd" fill="rgb(21.176471%, 77.254903%, 94.509804%)" fill-opacity="1" stroke-width="13.944" stroke-linecap="round" stroke-linejoin="round" stroke="rgb(21.176471%, 77.254903%, 94.509804%)" stroke-opacity="1" stroke-miterlimit="4" d="M 32.625 121.40625 C 18.40625 121.40625 6.96875 110.6875 6.96875 97.3125 C 6.96875 83.96875 18.40625 73.21875 32.625 73.21875 L 95.78125 73.21875 C 109.96875 73.21875 121.40625 83.96875 121.40625 97.3125 C 121.40625 110.6875 109.96875 121.40625 95.78125 121.40625 Z M 32.625 121.40625 " transform="matrix(0.125, 0, 0, 0.125, 0, 0)"/>
<path fill-rule="evenodd" fill="rgb(92.54902%, 69.803923%, 17.647059%)" fill-opacity="1" stroke-width="13.944" stroke-linecap="round" stroke-linejoin="miter" stroke="rgb(92.54902%, 69.803923%, 17.647059%)" stroke-opacity="1" stroke-miterlimit="4" d="M 133.46875 223.8125 C 133.46875 237.125 144.25 247.90625 157.5625 247.90625 C 170.875 247.90625 181.65625 237.125 181.65625 223.8125 C 181.65625 217.40625 179.125 211.28125 174.625 206.75 C 170.09375 202.25 163.96875 199.71875 157.5625 199.71875 L 133.46875 199.71875 Z M 133.46875 223.8125 " transform="matrix(0.125, 0, 0, 0.125, 0, 0)"/>
<path fill-rule="evenodd" fill="rgb(18.431373%, 71.372551%, 48.627451%)" fill-opacity="1" stroke-width="13.944" stroke-linecap="round" stroke-linejoin="miter" stroke="rgb(18.431373%, 71.372551%, 48.627451%)" stroke-opacity="1" stroke-miterlimit="4" d="M 223.8125 121.40625 L 199.71875 121.40625 L 199.71875 97.3125 C 199.71875 90.90625 202.25 84.78125 206.75 80.25 C 211.28125 75.75 217.4375 73.21875 223.8125 73.21875 C 230.21875 73.21875 236.34375 75.75 240.875 80.25 C 245.375 84.78125 247.90625 90.90625 247.90625 97.3125 C 247.9375 103.71875 245.40625 109.84375 240.875 114.375 C 236.34375 118.90625 230.21875 121.4375 223.8125 121.40625 Z M 223.8125 121.40625 " transform="matrix(0.125, 0, 0, 0.125, 0, 0)"/>
<path fill-rule="evenodd" fill="rgb(87.843138%, 11.764706%, 35.294119%)" fill-opacity="1" stroke-width="13.944" stroke-linecap="round" stroke-linejoin="miter" stroke="rgb(87.843138%, 11.764706%, 35.294119%)" stroke-opacity="1" stroke-miterlimit="4" d="M 31.0625 133.46875 L 55.15625 133.46875 L 55.15625 157.5625 C 55.15625 163.96875 52.625 170.09375 48.125 174.625 C 43.59375 179.125 37.46875 181.65625 31.0625 181.65625 C 24.65625 181.65625 18.53125 179.125 14 174.625 C 9.46875 170.09375 6.9375 163.96875 6.96875 157.5625 C 6.96875 151.15625 9.5 145.03125 14 140.5 C 18.53125 136 24.65625 133.46875 31.0625 133.46875 Z M 31.0625 133.46875 " transform="matrix(0.125, 0, 0, 0.125, 0, 0)"/>
<path fill-rule="evenodd" fill="rgb(21.176471%, 77.254903%, 94.509804%)" fill-opacity="1" stroke-width="13.944" stroke-linecap="round" stroke-linejoin="miter" stroke="rgb(21.176471%, 77.254903%, 94.509804%)" stroke-opacity="1" stroke-miterlimit="4" d="M 121.40625 31.0625 L 121.40625 55.15625 L 97.3125 55.15625 C 90.90625 55.15625 84.78125 52.625 80.25 48.125 C 75.75 43.59375 73.21875 37.4375 73.21875 31.0625 C 73.1875 24.65625 75.75 18.53125 80.25 14 C 84.78125 9.46875 90.90625 6.9375 97.3125 6.96875 C 103.71875 6.9375 109.84375 9.46875 114.375 14 C 118.90625 18.5 121.4375 24.65625 121.40625 31.0625 Z M 121.40625 31.0625 " transform="matrix(0.125, 0, 0, 0.125, 0, 0)"/>
</svg>
