<svg role="img" viewBox="0 0 32 32" xmlns="http://www.w3.org/2000/svg"><path d="M9.152 19.89c0-1.777 1.344-3.206 3.012-3.206 1.672 0 3.012 1.43 3.012 3.207v7.89c0 1.778-1.34 3.207-3.012 3.207-1.668 0-3.012-1.43-3.012-3.207Zm0 0" fill="rgb(87.843138%, 11.764706%, 35.294119%)" fill-rule="evenodd" stroke="rgb(87.843138%, 11.764706%, 35.294119%)" stroke-linecap="round" stroke-linejoin="round" stroke-width="1.743"/><path d="M19.89 22.707c-1.777 0-3.206-1.344-3.206-3.012s1.43-3.011 3.207-3.011h7.89c1.778 0 3.207 1.343 3.207 3.011s-1.43 3.012-3.207 3.012Zm0 0" fill="rgb(92.54902%, 69.803923%, 17.647059%)" fill-rule="evenodd" stroke="rgb(92.54902%, 69.803923%, 17.647059%)" stroke-linecap="round" stroke-linejoin="round" stroke-width="1.743"/><path d="M16.684 4.078c0-1.777 1.343-3.207 3.011-3.207s3.012 1.43 3.012 3.207v7.895c0 1.773-1.344 3.203-3.012 3.203s-3.011-1.43-3.011-3.203Zm0 0" fill="rgb(18.431373%, 71.372551%, 48.627451%)" fill-rule="evenodd" stroke="rgb(18.431373%, 71.372551%, 48.627451%)" stroke-linecap="round" stroke-linejoin="round" stroke-width="1.743"/><path d="M4.078 15.176c-1.777 0-3.207-1.34-3.207-3.012 0-1.668 1.43-3.012 3.207-3.012h7.895c1.773 0 3.203 1.344 3.203 3.012 0 1.672-1.43 3.012-3.203 3.012Zm0 0" fill="rgb(21.176471%, 77.254903%, 94.509804%)" fill-rule="evenodd" stroke="rgb(21.176471%, 77.254903%, 94.509804%)" stroke-linecap="round" stroke-linejoin="round" stroke-width="1.743"/><path d="M16.684 27.977a3.01 3.01 0 1 0 6.023 0c0-.801-.316-1.567-.879-2.133a3.03 3.03 0 0 0-2.133-.88h-3.011Zm0 0" fill="rgb(92.54902%, 69.803923%, 17.647059%)" fill-rule="evenodd" stroke="rgb(92.54902%, 69.803923%, 17.647059%)" stroke-linecap="round" stroke-width="1.743"/><path d="M27.977 15.176h-3.012v-3.012c0-.8.316-1.566.879-2.133a3.025 3.025 0 0 1 4.266 0c.562.567.878 1.332.878 2.133.004.8-.312 1.566-.879 2.133a3 3 0 0 1-2.132.879Zm0 0" fill="rgb(18.431373%, 71.372551%, 48.627451%)" fill-rule="evenodd" stroke="rgb(18.431373%, 71.372551%, 48.627451%)" stroke-linecap="round" stroke-width="1.743"/><path d="M3.883 16.684h3.012v3.011c0 .801-.317 1.567-.88 2.133a3.025 3.025 0 0 1-4.265 0 3 3 0 0 1-.879-2.133c0-.8.317-1.566.879-2.133a3.03 3.03 0 0 1 2.133-.878Zm0 0" fill="rgb(87.843138%, 11.764706%, 35.294119%)" fill-rule="evenodd" stroke="rgb(87.843138%, 11.764706%, 35.294119%)" stroke-linecap="round" stroke-width="1.743"/><path d="M15.176 3.883v3.012h-3.012c-.8 0-1.566-.317-2.133-.88a3.03 3.03 0 0 1-.879-2.132 3 3 0 0 1 .88-2.133 3 3 0 0 1 2.132-.879c.8-.004 1.566.313 2.133.879.566.563.883 1.332.879 2.133Zm0 0" fill="rgb(21.176471%, 77.254903%, 94.509804%)" fill-rule="evenodd" stroke="rgb(21.176471%, 77.254903%, 94.509804%)" stroke-linecap="round" stroke-width="1.743"/></svg>