<svg role="img" viewBox="0 0 32 32" xmlns="http://www.w3.org/2000/svg"><path d="M16 28c8.836 0 16-5.82 16-13S24.836 2 16 2 0 7.82 0 15c0 2.82 1.105 5.426 2.98 7.555-.117 1.53-.71 2.894-1.335 3.933q-.429.71-.95 1.348-.151.182-.308.36c-.035.034-.063.066-.082.085l-.016.02a.98.98 0 0 0-.215 1.086c.156.375.52.62.926.62 1.793 0 3.602-.558 5.102-1.206 1.43-.625 2.648-1.371 3.39-1.914A19 19 0 0 0 16 28.007Zm-3.32-16.95c.41-.136.86.005 1.12.348l2.2 2.934 2.2-2.934c.26-.343.71-.484 1.12-.347.41.136.68.52.68.949v6c0 .55-.45 1-1 1s-1-.45-1-1v-3l-1.2 1.602a1.008 1.008 0 0 1-1.6 0L14 15v3c0 .55-.45 1-1 1s-1-.45-1-1v-6c0-.43.273-.812.68-.95m10.82 2.376v.023c.008.008.04.051.137.106.246.144.601.258 1.144.425l.04.012c.46.14 1.077.328 1.574.64.566.356 1.085.95 1.097 1.868.016.938-.472 1.625-1.11 2.02-.593.367-1.308.492-1.921.472-.762-.023-1.48-.273-2.035-.46-.09-.032-.168-.055-.25-.087a1 1 0 0 1-.633-1.265c.176-.52.738-.801 1.262-.63.11.036.207.067.308.098.567.196.973.332 1.41.344.332.016.625-.062.801-.172a.5.5 0 0 0 .133-.125c.012-.027.035-.078.035-.172v-.011c0-.043 0-.086-.168-.192-.238-.152-.597-.27-1.125-.433l-.074-.024c-.45-.136-1.043-.312-1.52-.601-.562-.336-1.105-.918-1.105-1.836-.008-.95.54-1.606 1.156-1.977.586-.344 1.282-.469 1.856-.46.625.011 1.23.144 1.746.273a1 1 0 0 1 .703 1.226.99.99 0 0 1-1.223.707c-.457-.12-.883-.207-1.258-.215-.304-.003-.613.07-.804.184a.4.4 0 0 0-.153.125c-.011.016-.023.047-.023.117Zm-17 0v.023c.008.008.04.051.137.106.246.144.601.258 1.144.425l.04.012c.46.14 1.077.328 1.574.64.566.356 1.085.95 1.097 1.868.016.938-.472 1.625-1.11 2.02-.593.367-1.308.492-1.921.472-.766-.023-1.512-.281-2.074-.472q-.123-.04-.223-.075a1 1 0 0 1-.633-1.265c.176-.52.739-.801 1.262-.63.09.032.176.055.258.087.594.199 1.031.351 1.48.363.332.012.625-.062.801-.176a.4.4 0 0 0 .129-.125.3.3 0 0 0 .039-.168v-.011c0-.043 0-.09-.168-.196-.238-.148-.602-.27-1.125-.43l-.074-.027c-.453-.137-1.047-.312-1.52-.597-.562-.332-1.105-.915-1.113-1.832-.008-.95.54-1.606 1.156-1.977.586-.344 1.282-.469 1.856-.461.593.008 1.386.133 1.945.273a1.005 1.005 0 0 1 .242 1.836 1 1 0 0 1-.761.098 7 7 0 0 0-1.458-.215c-.304-.004-.613.07-.804.184a.5.5 0 0 0-.153.125.2.2 0 0 0-.023.117Zm0 0"/></svg>