<svg role="img" viewBox="0 0 32 32" xmlns="http://www.w3.org/2000/svg"><path d="M25.54 1.281c-1.5 0-2.231 2.278-1.56 6.059q.424-.121.86-.18c-.598-4.543 1.695-2.586 2.039-4.539.129-.77-.508-1.34-1.34-1.34m4.902 1.297c-1.18.113-2.441 1.723-3.382 4.684q.462.099.902.258c1.543-4.22 2.637-1.375 3.84-2.98.445-.575.144-1.395-.563-1.782a1.45 1.45 0 0 0-.797-.176m-4.84 5.797c-3.078 0-4.48 2.684-4.48 5.18 0 .418-.016.902-.039 1.402a9.5 9.5 0 0 1 .68 3.898v.16c-.223 2.266-1.59 3.97-2.703 5-.153.145-.332.274-.5.399q-.106.087-.22.16c-.003.008.005.016 0 .024-.089.062-.187.12-.28.18a8 8 0 0 1-.297.179c-.356.2-.73.363-1.121.5l-.063.02a7.6 7.6 0 0 1-1.496.34c-.086.007-.18.011-.262.019-.05.004-.09.015-.14.02l-1.32.1v-.081c-.41.332-.782.558-1.04.68a3 3 0 0 1-.398.16c-.074.027-.129.054-.203.082-.711.254-1.309.312-1.34.32-.016 0-.024.016-.04.02h-.019a24 24 0 0 1-.52.078l-.081.023a39 39 0 0 1-2.68.258h-.117c-.05 0-.133.004-.223 0-.035 0-.078-.02-.12-.02a12 12 0 0 1-.38-.02c-.011-.003-.047 0-.058 0-.301-.019-.668-.042-1.082-.1l-.04-.02c-.242-.035-.488-.07-.757-.121l-.364-.059v-.02a13 13 0 0 1-2.02-.6C.603 26.706 0 27.02 0 27.718c0 2.926 13.32 3 14.84 3 12.879 0 13.305-9.528 13.32-13.617 1.524-.86 2.559-2.489 2.559-4.102 0-2.543-2.297-4.621-5.117-4.621M10.879 9.602c-2.684 0-5.277 1.07-7.098 2.937a8.72 8.72 0 0 0-2.5 6.36c.106 2.769 1.297 5.312 3.219 7.062q1.21.234 2.441.258c1.688-.106 3.793-.297 4.797-.801.785-.363 2.98-2.047 2.98-4.879 0-3.594-2.679-4.539-4.097-4.539-1.594 0-2.3.965-2.3 1.922 0 .82.484 2.039 1.8 2.039a.64.64 0 0 1 0 1.281c-1.996 0-3.082-1.71-3.082-3.32 0-1.59 1.227-3.203 3.582-3.203 2.16 0 5.379 1.547 5.379 5.82 0 2.965-.66 3.32-1.422 4v.04c1.43-.11 2.64-.61 3.602-1.497 1.156-1.074 2.14-2.531 2.3-4.203.239-5.059-4.218-9.277-9.601-9.277" fill="rgb(0%, 0%, 0%)"/></svg>