<?xml version="1.0" encoding="UTF-8"?>
<svg xmlns="http://www.w3.org/2000/svg" xmlns:xlink="http://www.w3.org/1999/xlink" width="32" height="32" viewBox="0 0 32 32">
<path fill-rule="nonzero" fill="rgb(16.078431%, 70.980392%, 90.980392%)" fill-opacity="1" d="M 32 4.613281 C 32 5.472656 31.441406 6.183594 30.480469 6.183594 C 29.515625 6.183594 28.957031 5.472656 28.957031 4.613281 C 28.957031 3.75 29.515625 3.039062 30.480469 3.039062 C 31.441406 3.039062 32 3.75 32 4.613281 Z M 31.695312 4.613281 C 31.695312 3.902344 31.1875 3.34375 30.480469 3.34375 C 29.769531 3.34375 29.261719 3.851562 29.261719 4.609375 C 29.261719 5.320312 29.769531 5.878906 30.480469 5.878906 C 31.238281 5.878906 31.695312 5.320312 31.695312 4.613281 Z M 29.871094 3.902344 L 30.53125 3.902344 C 30.882812 3.902344 31.136719 4.105469 31.136719 4.40625 C 31.136719 4.613281 31.035156 4.714844 30.882812 4.816406 L 31.136719 5.167969 L 31.136719 5.21875 L 30.78125 5.21875 L 30.53125 4.867188 L 30.222656 4.867188 L 30.222656 5.21875 L 29.871094 5.21875 Z M 30.53125 4.207031 L 30.222656 4.207031 L 30.222656 4.5625 L 30.53125 4.5625 C 30.679688 4.5625 30.730469 4.511719 30.730469 4.410156 C 30.78125 4.308594 30.679688 4.207031 30.53125 4.207031 Z M 10.136719 16.535156 C 10.1875 16.332031 10.238281 16.128906 10.238281 15.925781 C 10.238281 15.773438 10.1875 15.621094 10.1875 15.46875 C 10.035156 15.011719 9.78125 14.605469 9.324219 14.351562 L 2.832031 10.648438 C 1.917969 10.144531 0.753906 10.445312 0.246094 11.359375 C -0.261719 12.273438 0.0429688 13.441406 0.953125 13.945312 L 4.554688 16.027344 L 0.953125 18.105469 C 0.0429688 18.613281 -0.261719 19.78125 0.242188 20.691406 C 0.75 21.605469 1.917969 21.910156 2.832031 21.402344 L 9.273438 17.703125 C 9.730469 17.34375 10.035156 16.992188 10.136719 16.535156 Z M 11.910156 20.035156 C 11.558594 19.984375 11.152344 20.085938 10.796875 20.289062 L 4.351562 23.992188 C 3.441406 24.496094 3.136719 25.664062 3.644531 26.578125 C 4.152344 27.492188 5.316406 27.796875 6.230469 27.289062 L 9.832031 25.207031 L 9.832031 29.367188 C 9.832031 30.433594 10.695312 31.246094 11.761719 31.246094 C 12.824219 31.246094 13.636719 30.382812 13.636719 29.367188 L 13.636719 21.910156 C 13.636719 20.898438 12.875 20.085938 11.910156 20.035156 Z M 18.507812 11.917969 C 18.863281 11.96875 19.265625 11.867188 19.621094 11.664062 L 26.066406 7.960938 C 26.980469 7.453125 27.28125 6.285156 26.773438 5.375 C 26.269531 4.460938 25.101562 4.15625 24.1875 4.664062 L 20.585938 6.742188 L 20.585938 2.632812 C 20.585938 1.566406 19.722656 0.757812 18.660156 0.757812 C 17.59375 0.757812 16.730469 1.566406 16.730469 2.632812 L 16.730469 10.039062 C 16.730469 11.054688 17.542969 11.867188 18.507812 11.914062 Z M 4.351562 7.960938 L 10.796875 11.664062 C 11.152344 11.867188 11.507812 11.914062 11.910156 11.914062 C 12.875 11.867188 13.6875 11.003906 13.6875 10.039062 L 13.6875 2.632812 C 13.6875 1.566406 12.824219 0.757812 11.8125 0.757812 C 10.746094 0.757812 9.882812 1.617188 9.882812 2.632812 L 9.882812 6.792969 L 6.28125 4.714844 C 5.367188 4.207031 4.203125 4.511719 3.695312 5.425781 C 3.136719 6.285156 3.441406 7.453125 4.351562 7.960938 Z M 16.476562 15.976562 C 16.472656 15.84375 16.417969 15.714844 16.324219 15.621094 L 15.566406 14.859375 C 15.476562 14.757812 15.34375 14.703125 15.210938 14.707031 C 15.078125 14.710938 14.949219 14.765625 14.855469 14.859375 L 14.09375 15.617188 C 14 15.714844 13.945312 15.839844 13.941406 15.976562 C 13.941406 16.074219 13.992188 16.226562 14.09375 16.332031 L 14.851562 17.089844 C 14.945312 17.191406 15.074219 17.246094 15.210938 17.242188 C 15.3125 17.242188 15.460938 17.191406 15.5625 17.089844 L 16.324219 16.332031 C 16.417969 16.234375 16.472656 16.109375 16.476562 15.976562 Z M 18.609375 16.683594 L 15.921875 19.375 C 15.867188 19.425781 15.714844 19.523438 15.613281 19.523438 L 14.804688 19.523438 C 14.671875 19.519531 14.542969 19.464844 14.449219 19.375 L 11.761719 16.683594 C 11.695312 16.597656 11.660156 16.488281 11.660156 16.378906 L 11.660156 15.570312 C 11.660156 15.46875 11.710938 15.316406 11.8125 15.214844 L 14.5 12.523438 C 14.59375 12.433594 14.722656 12.378906 14.855469 12.375 L 15.664062 12.375 C 15.796875 12.378906 15.925781 12.433594 16.019531 12.523438 L 18.710938 15.214844 C 18.808594 15.304688 18.863281 15.433594 18.863281 15.570312 L 18.863281 16.378906 C 18.761719 16.484375 18.710938 16.632812 18.609375 16.683594 Z M 26.066406 23.9375 L 19.621094 20.234375 C 19.269531 20.035156 18.863281 19.984375 18.507812 20.035156 C 17.542969 20.085938 16.730469 20.945312 16.730469 21.910156 L 16.730469 29.316406 C 16.730469 30.382812 17.59375 31.191406 18.609375 31.191406 C 19.671875 31.191406 20.535156 30.332031 20.535156 29.316406 L 20.535156 25.15625 L 24.136719 27.234375 C 25.050781 27.742188 26.21875 27.4375 26.722656 26.523438 C 27.28125 25.664062 26.976562 24.496094 26.066406 23.9375 Z M 29.464844 13.894531 L 25.863281 15.976562 L 29.460938 18.054688 C 30.378906 18.5625 30.679688 19.730469 30.171875 20.640625 C 29.667969 21.554688 28.5 21.859375 27.585938 21.351562 L 21.144531 17.648438 C 20.75 17.394531 20.449219 17.023438 20.28125 16.585938 C 20.230469 16.378906 20.179688 16.175781 20.179688 15.976562 C 20.179688 15.824219 20.230469 15.671875 20.230469 15.519531 C 20.382812 15.0625 20.6875 14.65625 21.09375 14.402344 L 27.535156 10.699219 C 28.449219 10.191406 29.617188 10.496094 30.121094 11.410156 C 30.730469 12.222656 30.375 13.386719 29.464844 13.894531 "/>
</svg>
