<?xml version="1.0" encoding="UTF-8"?>
<svg xmlns="http://www.w3.org/2000/svg" xmlns:xlink="http://www.w3.org/1999/xlink" width="32" height="32" viewBox="0 0 32 32">
<path fill-rule="nonzero" fill="rgb(29.803922%, 29.019608%, 45.098039%)" fill-opacity="1" d="M 22.796875 17.792969 C 22.988281 17.296875 22.875 14.96875 22.5 11.558594 L 22.496094 11.503906 L 23.699219 8.265625 L 23.699219 8.199219 C 23.699219 6.785156 21.867188 2.996094 20.785156 0.984375 L 20.257812 0 L 19.136719 7.804688 L 18.464844 8.910156 L 18.296875 8.855469 C 17.832031 8.699219 16.910156 8.433594 15.996094 8.433594 C 15.128906 8.433594 14.269531 8.660156 13.703125 8.851562 L 13.535156 8.910156 L 12.863281 7.808594 L 11.742188 0 L 11.214844 0.984375 C 10.132812 2.996094 8.300781 6.78125 8.300781 8.199219 L 8.300781 8.265625 L 9.503906 11.507812 L 9.5 11.558594 C 9.121094 14.96875 9.011719 17.296875 9.203125 17.789062 C 9.378906 18.234375 10.058594 19.179688 10.632812 19.929688 L 9.808594 27.5625 L 10.628906 28.152344 L 11.398438 21.046875 C 11.414062 21.597656 11.484375 22.75 11.765625 23.804688 L 11.246094 28.59375 L 16 32 L 21.707031 27.910156 L 22.207031 27.554688 L 21.378906 19.914062 C 21.949219 19.164062 22.625 18.230469 22.796875 17.792969 Z M 20.785156 3.0625 C 21.710938 4.941406 22.679688 7.171875 22.746094 8.101562 L 22.230469 9.496094 C 20.984375 7.75 20.59375 4.90625 20.558594 4.648438 Z M 19.289062 13.464844 C 20.40625 13.464844 19.570312 14.414062 19.472656 14.519531 L 17.355469 14.519531 C 17.546875 14.28125 18.277344 13.464844 19.289062 13.464844 Z M 18.683594 15.421875 C 18.667969 15.539062 18.570312 15.625 18.453125 15.625 C 18.488281 15.796875 18.640625 15.921875 18.816406 15.929688 C 18.992188 15.9375 19.152344 15.824219 19.203125 15.65625 C 19.257812 15.488281 19.1875 15.304688 19.039062 15.210938 L 19.710938 15.210938 L 19.710938 15.242188 C 19.710938 15.730469 19.316406 16.128906 18.828125 16.128906 C 18.339844 16.128906 17.945312 15.730469 17.945312 15.242188 L 17.945312 15.210938 L 18.625 15.210938 L 18.617188 15.21875 C 18.667969 15.269531 18.695312 15.34375 18.683594 15.421875 Z M 16.519531 25.71875 C 16.648438 25.804688 16.785156 25.875 16.929688 25.929688 C 16.703125 26.179688 16.394531 26.3125 16 26.3125 C 15.601562 26.3125 15.292969 26.179688 15.070312 25.925781 C 15.210938 25.875 15.347656 25.804688 15.476562 25.71875 C 15.625 25.832031 15.8125 25.886719 16 25.871094 C 16.136719 25.871094 16.339844 25.871094 16.519531 25.71875 Z M 13.027344 15.421875 C 13.011719 15.539062 12.910156 15.625 12.792969 15.625 C 12.832031 15.796875 12.980469 15.921875 13.160156 15.929688 C 13.335938 15.9375 13.492188 15.824219 13.546875 15.65625 C 13.597656 15.488281 13.53125 15.304688 13.382812 15.210938 L 14.054688 15.210938 L 14.054688 15.242188 C 14.054688 15.730469 13.660156 16.128906 13.171875 16.128906 C 12.683594 16.128906 12.285156 15.730469 12.285156 15.242188 L 12.285156 15.210938 L 12.96875 15.210938 L 12.957031 15.21875 C 13.007812 15.269531 13.039062 15.34375 13.027344 15.421875 Z M 12.527344 14.519531 C 12.429688 14.414062 11.59375 13.464844 12.710938 13.464844 C 13.722656 13.464844 14.453125 14.28125 14.644531 14.519531 Z M 9.265625 8.101562 C 9.332031 7.171875 10.300781 4.941406 11.226562 3.0625 L 11.472656 4.78125 C 11.378906 5.421875 10.949219 7.941406 9.796875 9.53125 Z M 12.628906 24.121094 C 12.132812 22.761719 12.128906 20.859375 12.128906 20.777344 L 12.128906 20.648438 L 12.046875 20.546875 C 11.3125 19.636719 10.078125 18.011719 9.894531 17.539062 L 9.886719 17.519531 C 9.722656 16.945312 10.019531 13.523438 10.242188 11.5 L 10.253906 11.414062 L 10.003906 10.742188 L 10.097656 10.644531 C 10.734375 9.980469 11.273438 9.027344 11.703125 7.808594 L 12 6.964844 L 12.15625 8.058594 L 13.234375 9.824219 L 13.527344 9.699219 C 13.539062 9.695312 14.773438 9.167969 15.996094 9.167969 L 16 9.167969 L 16 9.753906 L 15.996094 9.753906 C 14.910156 9.753906 13.769531 10.234375 13.757812 10.238281 L 12.996094 10.566406 L 11.933594 8.820312 C 11.574219 9.648438 11.15625 10.335938 10.679688 10.878906 L 10.851562 11.339844 L 10.828125 11.566406 C 10.507812 14.441406 10.363281 16.957031 10.449219 17.34375 C 10.5625 17.609375 11.144531 18.425781 11.78125 19.257812 L 12.777344 18.96875 L 14.339844 17.1875 L 14.585938 21.800781 C 14.570312 21.820312 14.210938 22.324219 14.210938 22.613281 C 14.210938 22.925781 14.667969 23.332031 15.125 23.660156 C 15.128906 23.648438 15.132812 23.632812 15.140625 23.621094 C 15.300781 23.335938 15.507812 23.285156 15.601562 23.503906 C 15.65625 23.625 15.640625 23.996094 15.640625 23.996094 L 15.648438 24 L 15.648438 24.4375 C 15.628906 24.472656 15.242188 25.335938 14.292969 25.335938 C 13.929688 25.335938 13.03125 25.214844 12.628906 24.121094 Z M 16.011719 27.332031 C 15.308594 27.332031 14.28125 26.988281 14.179688 26.0625 C 14.21875 26.0625 14.257812 26.066406 14.292969 26.066406 C 14.375 26.066406 14.453125 26.0625 14.53125 26.054688 C 14.84375 26.660156 15.417969 26.851562 16 26.851562 C 16.582031 26.851562 17.152344 26.660156 17.464844 26.054688 C 17.546875 26.0625 17.625 26.066406 17.707031 26.066406 C 17.746094 26.066406 17.78125 26.0625 17.820312 26.0625 C 17.71875 26.988281 16.707031 27.332031 16.011719 27.332031 Z M 19.953125 20.546875 L 19.871094 20.648438 L 19.871094 20.777344 C 19.871094 20.855469 19.867188 22.761719 19.371094 24.121094 C 18.96875 25.214844 18.070312 25.332031 17.707031 25.332031 C 16.757812 25.332031 16.371094 24.457031 16.351562 24.417969 L 16.351562 24 L 16.359375 23.996094 C 16.359375 23.996094 16.34375 23.625 16.398438 23.503906 C 16.492188 23.285156 16.699219 23.335938 16.859375 23.621094 C 16.867188 23.632812 16.871094 23.648438 16.875 23.660156 C 17.328125 23.332031 17.789062 22.925781 17.789062 22.613281 C 17.789062 22.324219 17.433594 21.820312 17.417969 21.796875 L 17.660156 17.1875 L 19.222656 18.96875 L 20.820312 19.433594 C 20.515625 19.839844 20.203125 20.234375 19.953125 20.546875 Z M 8.65625 18.003906 C 8.363281 17.253906 8.628906 14.113281 8.90625 11.578125 L 7.714844 8.367188 L 7.714844 8.199219 C 7.714844 7.78125 7.839844 7.21875 8.042969 6.589844 C 6.472656 6.925781 5.628906 7.242188 5.628906 7.242188 L 5.628906 24.570312 L 9.191406 27.121094 L 9.960938 20.011719 C 9.242188 19.054688 8.800781 18.378906 8.65625 18.003906 Z M 13.792969 8.207031 C 14.390625 8.027344 15.183594 7.847656 15.996094 7.847656 C 16.808594 7.847656 17.609375 8.027344 18.207031 8.207031 L 18.574219 7.605469 L 18.820312 5.886719 C 18.820312 5.886719 17.101562 5.796875 16.015625 5.796875 C 15.003906 5.796875 14.058594 5.832031 13.179688 5.890625 L 13.425781 7.605469 Z M 23.957031 6.585938 C 24.160156 7.21875 24.289062 7.78125 24.289062 8.199219 L 24.289062 8.367188 L 23.09375 11.578125 C 23.371094 14.113281 23.636719 17.25 23.34375 18.003906 C 23.199219 18.375 22.761719 19.046875 22.050781 19.996094 L 22.824219 27.109375 L 26.371094 24.570312 L 26.371094 7.242188 C 26.371094 7.242188 25.527344 6.921875 23.957031 6.585938 Z M 23.957031 6.585938 "/>
</svg>
