<svg role="img" viewBox="0 0 32 32" xmlns="http://www.w3.org/2000/svg"><path d="M.031 26.336a2.04 2.04 0 0 1 .13-1.121q.222-.543.702-.863.479-.322 1.153-.352H4v-4q-.001-2.466 1.762-4.223 1.758-1.762 4.254-1.761H12q.832 0 1.406-.575.58-.58.61-1.441V2.016q.001-.738.382-1.246a1.5 1.5 0 0 1 1.028-.61 3.5 3.5 0 0 1 1.148 0q.514.094 1.028.61.508.508.414 1.246V12q-.001.832.578 1.441c.36.395.875.606 1.406.575h2.016q2.465 0 4.222 1.761Q28.001 17.534 28 20v4h2.016c.425 0 .812.129 1.152.383q.51.388.703.863.192.481.098 1.121a1.78 1.78 0 0 1-.543 1.059l-4 4q-.645.604-1.442.605-.802-.001-1.375-.605l-4-4a1.82 1.82 0 0 1-.578-1.059c-.062-.39-.02-.789.13-1.152q.222-.543.702-.863.479-.322 1.153-.352H24v-4a1.9 1.9 0 0 0-.574-1.406 1.9 1.9 0 0 0-1.41-.578H20q-2.273-.001-4-1.567-1.727 1.566-4 1.567h-1.984q-.833-.001-1.442.578c-.394.36-.601.875-.574 1.406v4h2.016c.425 0 .812.129 1.152.383q.51.388.703.863.192.481.098 1.121a1.78 1.78 0 0 1-.543 1.059l-4 4q-.645.604-1.442.605-.802-.001-1.41-.605l-4-4c-.316-.32-.5-.684-.543-1.09" fill="rgb(0%, 0%, 0%)"/></svg>