<?xml version="1.0" encoding="UTF-8"?>
<svg xmlns="http://www.w3.org/2000/svg" xmlns:xlink="http://www.w3.org/1999/xlink" width="32" height="32" viewBox="0 0 32 32">
<defs>
<clipPath id="clip-0">
<path clip-rule="nonzero" d="M 0 0 L 31.738281 0 L 31.738281 31.738281 L 0 31.738281 Z M 0 0 "/>
</clipPath>
<linearGradient id="linear-pattern-0" gradientUnits="userSpaceOnUse" x1="117.960999" y1="111.504997" x2="-4.396" y2="1.606" gradientTransform="matrix(0.290909, 0, 0, 0.290909, 0, 0)">
<stop offset="0" stop-color="rgb(47.058824%, 70.588235%, 22.745098%)" stop-opacity="1"/>
<stop offset="0.952" stop-color="rgb(63.529412%, 80.784314%, 41.568627%)" stop-opacity="1"/>
</linearGradient>
</defs>
<g clip-path="url(#clip-0)">
<path fill-rule="nonzero" fill="url(#linear-pattern-0)" d="M 26.355469 31.738281 L 5.410156 31.738281 C 2.414062 31.738281 0 29.324219 0 26.355469 L 0 5.410156 C 0 2.414062 2.414062 0 5.382812 0 L 26.328125 0 C 29.292969 0 31.710938 2.414062 31.710938 5.382812 L 31.710938 26.328125 C 31.738281 29.324219 29.324219 31.738281 26.355469 31.738281 "/>
</g>
<path fill-rule="nonzero" fill="rgb(94.901961%, 94.901961%, 94.901961%)" fill-opacity="1" d="M 21.238281 15.972656 C 21.238281 16 21.265625 16.027344 21.265625 16.058594 C 21.121094 16.144531 20.945312 16.203125 20.769531 16.261719 C 17.078125 17.863281 13.410156 19.460938 9.714844 21.03125 C 9.570312 21.121094 9.484375 21.179688 9.484375 21.351562 C 9.511719 22.109375 9.511719 22.867188 9.484375 23.652344 C 9.453125 23.882812 9.570312 23.882812 9.746094 23.796875 C 14.195312 21.875 18.648438 19.984375 23.097656 18.066406 C 23.300781 17.976562 23.332031 17.890625 23.332031 17.6875 C 23.300781 16.550781 23.300781 15.417969 23.332031 14.285156 C 23.332031 14.078125 23.273438 13.992188 23.097656 13.933594 L 20.65625 13.0625 C 17.046875 11.78125 13.441406 10.5 9.832031 9.191406 C 9.511719 9.078125 9.484375 9.078125 9.484375 9.425781 C 9.484375 10.183594 9.511719 10.96875 9.453125 11.722656 C 9.425781 11.957031 9.542969 12.074219 9.746094 12.132812 L 18.648438 15.097656 C 19.550781 15.417969 20.394531 15.679688 21.238281 15.972656 "/>
<path fill-rule="nonzero" fill="rgb(94.901961%, 94.901961%, 94.901961%)" fill-opacity="1" d="M 21.238281 15.972656 C 20.394531 15.679688 19.550781 15.390625 18.707031 15.128906 C 15.710938 14.136719 12.742188 13.148438 9.773438 12.160156 C 9.542969 12.074219 9.484375 11.984375 9.484375 11.753906 C 9.511719 10.996094 9.511719 10.210938 9.511719 9.425781 C 9.511719 9.078125 9.511719 9.078125 9.863281 9.191406 C 13.46875 10.472656 17.078125 11.753906 20.65625 13.0625 L 23.097656 13.933594 C 23.300781 13.992188 23.359375 14.109375 23.332031 14.285156 C 23.300781 15.417969 23.300781 16.550781 23.332031 17.6875 C 23.332031 17.890625 23.273438 17.976562 23.097656 18.066406 C 18.617188 19.984375 14.195312 21.933594 9.714844 23.824219 C 9.542969 23.914062 9.453125 23.914062 9.453125 23.679688 C 9.484375 22.921875 9.484375 22.167969 9.453125 21.382812 C 9.453125 21.207031 9.511719 21.121094 9.6875 21.0625 C 13.382812 19.460938 17.046875 17.863281 20.742188 16.289062 C 20.886719 16.203125 21.0625 16.144531 21.238281 16.085938 Z M 21.238281 15.972656 "/>
</svg>
