<?xml version="1.0" encoding="UTF-8"?>
<svg xmlns="http://www.w3.org/2000/svg" xmlns:xlink="http://www.w3.org/1999/xlink" width="32" height="32" viewBox="0 0 32 32">
<path fill-rule="nonzero" fill="rgb(81.176471%, 84.705882%, 86.27451%)" fill-opacity="1" d="M 15.390625 7.519531 C 14.300781 5.886719 14.066406 3.703125 14.015625 2.808594 C 11.25 3.40625 8.5 4.476562 8.660156 5.265625 C 8.679688 5.367188 8.804688 5.484375 9.011719 5.601562 L 8.6875 6.183594 C 8.289062 5.960938 8.066406 5.703125 8.007812 5.398438 C 7.828125 4.503906 8.839844 3.695312 11.101562 2.925781 C 12.644531 2.398438 14.203125 2.085938 14.269531 2.074219 L 14.667969 1.992188 L 14.667969 2.398438 C 14.667969 2.429688 14.683594 5.257812 15.945312 7.148438 Z M 15.390625 7.519531 "/>
<path fill-rule="nonzero" fill="rgb(81.176471%, 84.705882%, 86.27451%)" fill-opacity="1" d="M 16.5 28.667969 L 16.332031 28.667969 C 10.871094 28.667969 4.792969 26.953125 4.074219 24.082031 C 3.636719 22.328125 5.070312 20.390625 8.21875 18.480469 L 8.566406 19.050781 C 5.734375 20.769531 4.367188 22.496094 4.722656 23.917969 C 5.347656 26.410156 11.105469 27.964844 16.160156 28 C 16.757812 27.101562 19.988281 21.824219 18.144531 14.75 L 18.789062 14.582031 C 20.886719 22.644531 16.644531 28.472656 16.601562 28.53125 Z M 16.5 28.667969 "/>
<path fill-rule="nonzero" fill="rgb(81.176471%, 84.705882%, 86.27451%)" fill-opacity="1" d="M 6.621094 26.203125 C 6.261719 26.203125 6.082031 26.164062 6.054688 26.15625 C 5.9375 26.128906 5.84375 26.039062 5.8125 25.921875 C 5.78125 25.808594 5.8125 25.683594 5.898438 25.597656 C 5.945312 25.550781 10.695312 20.792969 11.339844 16.945312 L 11.996094 17.054688 C 11.445312 20.363281 8.183594 24.136719 6.890625 25.527344 C 8.183594 25.453125 11.449219 24.847656 17.714844 21.339844 C 12.824219 20.804688 12.050781 16.886719 12.042969 16.847656 L 12.699219 16.726562 C 12.730469 16.890625 13.515625 20.734375 18.859375 20.734375 C 18.863281 20.734375 18.863281 20.734375 18.867188 20.734375 C 19.015625 20.734375 19.148438 20.835938 19.1875 20.980469 C 19.226562 21.125 19.164062 21.28125 19.035156 21.355469 C 11.542969 25.695312 7.910156 26.203125 6.621094 26.203125 Z M 6.621094 26.203125 "/>
<path fill-rule="nonzero" fill="rgb(81.176471%, 84.705882%, 86.27451%)" fill-opacity="1" d="M 9.683594 27.800781 C 9.542969 27.800781 9.417969 27.714844 9.371094 27.582031 C 9.316406 27.441406 9.367188 27.285156 9.488281 27.195312 C 9.511719 27.179688 10.699219 26.304688 11.960938 24.375 C 11.472656 24.160156 10.984375 23.910156 10.496094 23.617188 C 9.902344 23.261719 9.457031 22.882812 9.121094 22.492188 C 7.410156 22.941406 5.828125 23.121094 4.4375 23.003906 L 4.496094 22.339844 C 5.746094 22.445312 7.167969 22.296875 8.707031 21.914062 C 7.660156 20.121094 8.621094 18.34375 8.636719 18.320312 L 9.21875 18.644531 C 9.175781 18.726562 8.375 20.222656 9.382812 21.730469 C 10.851562 21.3125 12.417969 20.6875 14.039062 19.878906 C 14.410156 18.652344 14.703125 17.261719 14.855469 15.691406 C 14.863281 15.585938 14.925781 15.492188 15.019531 15.4375 C 15.113281 15.382812 15.226562 15.378906 15.324219 15.421875 C 15.347656 15.433594 17.5 16.417969 19.0625 17.058594 C 19.175781 17.105469 19.253906 17.210938 19.265625 17.332031 C 19.277344 17.453125 19.222656 17.574219 19.121094 17.644531 C 17.59375 18.683594 16.078125 19.585938 14.601562 20.335938 C 14.132812 21.820312 13.554688 23.054688 12.964844 24.066406 C 15.429688 24.988281 17.574219 25 17.601562 25 C 17.753906 25 17.886719 25.101562 17.921875 25.25 C 17.960938 25.398438 17.894531 25.550781 17.761719 25.625 C 14.734375 27.308594 9.917969 27.78125 9.714844 27.800781 C 9.703125 27.800781 9.691406 27.800781 9.683594 27.800781 Z M 12.605469 24.644531 C 11.914062 25.71875 11.230469 26.492188 10.722656 26.996094 C 12.054688 26.800781 14.390625 26.371094 16.328125 25.570312 C 15.398438 25.457031 14.054688 25.203125 12.605469 24.644531 Z M 9.84375 22.289062 C 10.105469 22.546875 10.433594 22.804688 10.839844 23.046875 C 11.328125 23.34375 11.828125 23.59375 12.316406 23.804688 C 12.820312 22.960938 13.320312 21.949219 13.746094 20.757812 C 12.398438 21.398438 11.089844 21.910156 9.84375 22.289062 Z M 15.46875 16.21875 C 15.332031 17.398438 15.121094 18.472656 14.859375 19.453125 C 15.964844 18.863281 17.09375 18.1875 18.234375 17.433594 C 17.203125 16.996094 16.066406 16.488281 15.46875 16.21875 Z M 15.46875 16.21875 "/>
<path fill-rule="nonzero" fill="rgb(81.176471%, 84.705882%, 86.27451%)" fill-opacity="1" d="M 11.949219 7.066406 C 11.871094 7.066406 11.792969 7.039062 11.734375 6.988281 C 10.660156 6.066406 9.394531 4.199219 9.34375 4.121094 C 9.257812 3.992188 9.269531 3.820312 9.375 3.707031 C 9.476562 3.59375 9.644531 3.566406 9.777344 3.640625 C 9.785156 3.644531 10.402344 3.898438 14.589844 4.59375 C 14.710938 4.613281 14.808594 4.699219 14.851562 4.8125 C 14.890625 4.929688 14.863281 5.054688 14.785156 5.148438 C 13.613281 6.449219 12.128906 7.023438 12.066406 7.046875 C 12.03125 7.058594 11.988281 7.066406 11.949219 7.066406 Z M 10.429688 4.496094 C 10.851562 5.0625 11.457031 5.828125 12.011719 6.34375 C 12.351562 6.1875 13.117188 5.796875 13.84375 5.144531 C 12.121094 4.851562 11.070312 4.640625 10.429688 4.496094 Z M 10.429688 4.496094 "/>
<path fill-rule="nonzero" fill="rgb(71.764706%, 10.980392%, 10.980392%)" fill-opacity="1" d="M 14.5625 16.265625 C 14.515625 16.265625 14.46875 16.257812 14.429688 16.238281 C 14.296875 16.179688 14.214844 16.042969 14.230469 15.898438 C 14.425781 14.066406 11.613281 13.332031 11.585938 13.324219 C 11.46875 13.292969 11.375 13.203125 11.34375 13.089844 C 11.3125 12.972656 11.347656 12.851562 11.429688 12.765625 C 11.570312 12.628906 14.855469 9.367188 18.984375 7.574219 C 19.097656 7.527344 19.230469 7.542969 19.324219 7.621094 C 19.421875 7.703125 19.46875 7.828125 19.441406 7.949219 C 18.652344 11.777344 14.96875 15.976562 14.8125 16.15625 C 14.746094 16.226562 14.65625 16.265625 14.5625 16.265625 Z M 12.304688 12.855469 C 13.09375 13.152344 14.476562 13.839844 14.824219 15.09375 C 15.792969 13.886719 17.851562 11.113281 18.625 8.472656 C 15.699219 9.878906 13.234375 12 12.304688 12.855469 Z M 12.304688 12.855469 "/>
<path fill-rule="nonzero" fill="rgb(71.764706%, 10.980392%, 10.980392%)" fill-opacity="1" d="M 8.71875 18.90625 L 8.402344 18.320312 C 9.65625 17.644531 11.097656 16.398438 12.273438 14.949219 C 11.269531 15.636719 10.699219 16.105469 10.679688 16.121094 L 10.253906 15.609375 C 10.28125 15.589844 11.429688 14.644531 13.339844 13.460938 C 13.867188 12.617188 14.269531 11.75 14.476562 10.917969 C 14.511719 10.777344 14.542969 10.640625 14.566406 10.507812 C 13.285156 10.050781 12.097656 9.78125 11.285156 9.664062 C 11.164062 9.644531 11.058594 9.5625 11.019531 9.445312 C 10.976562 9.328125 11.003906 9.195312 11.089844 9.105469 C 11.144531 9.042969 12.5 7.59375 14.191406 6.796875 C 14.320312 6.734375 14.480469 6.765625 14.578125 6.875 C 14.621094 6.921875 15.539062 7.949219 15.304688 10.078125 C 16.074219 10.375 16.867188 10.742188 17.632812 11.175781 C 19.472656 10.347656 21.5625 9.605469 23.785156 9.15625 C 23.898438 9.132812 24.027344 9.175781 24.105469 9.265625 C 24.183594 9.359375 24.207031 9.488281 24.160156 9.601562 C 23.292969 11.824219 20.96875 14.195312 20.871094 14.296875 C 20.804688 14.363281 20.710938 14.398438 20.617188 14.394531 C 20.519531 14.390625 20.433594 14.34375 20.375 14.269531 C 19.625 13.332031 18.652344 12.554688 17.597656 11.921875 C 16.148438 12.589844 14.863281 13.308594 13.808594 13.953125 C 12.460938 16.054688 10.429688 17.984375 8.71875 18.90625 Z M 18.328125 11.597656 C 19.1875 12.152344 19.988281 12.804688 20.652344 13.5625 C 21.203125 12.964844 22.527344 11.449219 23.277344 9.949219 C 21.511719 10.355469 19.839844 10.941406 18.328125 11.597656 Z M 15.199219 10.746094 C 15.175781 10.855469 15.152344 10.96875 15.125 11.082031 C 14.984375 11.640625 14.761719 12.214844 14.476562 12.789062 C 15.207031 12.371094 16.015625 11.941406 16.886719 11.523438 C 16.328125 11.226562 15.757812 10.96875 15.199219 10.746094 Z M 12.03125 9.113281 C 12.773438 9.261719 13.683594 9.496094 14.660156 9.839844 C 14.761719 8.609375 14.429688 7.855469 14.226562 7.523438 C 13.3125 8.003906 12.507812 8.675781 12.03125 9.113281 Z M 12.03125 9.113281 "/>
<path fill-rule="nonzero" fill="rgb(71.764706%, 10.980392%, 10.980392%)" fill-opacity="1" d="M 12.035156 12.332031 C 12.035156 15.253906 9.601562 17.574219 7.847656 19.265625 C 7.554688 19.554688 6.558594 19.601562 6.558594 19.601562 C 6.808594 19.347656 7.085938 19.078125 7.386719 18.792969 C 9.054688 17.179688 11.367188 14.972656 11.367188 12.332031 C 11.367188 9.207031 10.105469 7.972656 9.113281 6.988281 C 8.671875 6.539062 8.300781 6.113281 8.074219 5.59375 L 8.28125 5.507812 C 8.507812 5.605469 8.765625 5.71875 8.964844 5.808594 C 9.125 6.039062 9.339844 6.265625 9.585938 6.511719 C 10.605469 7.535156 12.035156 8.933594 12.035156 12.332031 Z M 12.035156 12.332031 "/>
<path fill-rule="nonzero" fill="rgb(71.764706%, 10.980392%, 10.980392%)" fill-opacity="1" d="M 28.625 13.195312 C 28.625 13.195312 28.21875 13.253906 28.105469 13.265625 C 22.265625 13.914062 16.238281 15.59375 12.792969 16.972656 C 11.546875 17.472656 10.253906 18.078125 9.074219 18.761719 C 9.066406 18.765625 9.058594 18.765625 9.046875 18.773438 C 8.351562 19.171875 6.667969 20 5.300781 20.726562 C 7.300781 18.601562 11.046875 16.960938 12.539062 16.359375 C 15.921875 15.007812 21.726562 13.375 27.441406 12.671875 C 26.765625 11.886719 25.121094 10.21875 21.878906 8.980469 C 19.988281 8.246094 17.105469 7.832031 14.566406 7.464844 C 10.527344 6.886719 8.226562 6.5 8.007812 5.398438 C 7.960938 5.179688 7.992188 4.960938 8.09375 4.746094 C 8.3125 5.105469 8.625 5.359375 8.832031 5.507812 C 8.933594 5.574219 9.007812 5.613281 9.035156 5.625 L 9.039062 5.632812 C 9.988281 6.132812 12.539062 6.5 14.667969 6.808594 C 17.238281 7.179688 20.152344 7.601562 22.121094 8.351562 C 26.699219 10.121094 28.28125 12.648438 28.347656 12.753906 C 28.40625 12.851562 28.625 13.195312 28.625 13.195312 Z M 28.625 13.195312 "/>
</svg>
