<svg role="img" viewBox="0 0 32 32" height="32" width="32" xmlns="http://www.w3.org/2000/svg"><path d="M14.441 21.121h3.106v3.52H14.44Zm0 0" fill="rgb(40%, 61.568627%, 96.470588%)"/><path d="M24.64 18.492a.744.744 0 0 1-.535-.226l-5.437-5.641-3.656 3.855a.76.76 0 0 1-1.012.067l-2.773-2.238-2.934 3.89a.74.74 0 0 1-.602.293H2.668v2.281c0 .547.437.993.984 1h24.696a.999.999 0 0 0 .984-1v-2.28Zm0 0" fill="rgb(25.882353%, 52.156863%, 95.686275%)"/><path d="m7.332 17.012 3.176-4.211a.739.739 0 0 1 .492-.293c.2-.016.398.039.559.16l2.828 2.293 3.734-3.922a.744.744 0 0 1 1.067 0l5.773 5.973h4.371V8a.991.991 0 0 0-.984-.988H3.652A.991.991 0 0 0 2.668 8v9.078Zm0 0" fill="rgb(40%, 61.568627%, 96.470588%)"/><path d="M11.96 24.238h8.095c.218 0 .398.18.398.403v.011c0 .223-.18.403-.398.403H11.96a.402.402 0 0 1-.402-.403v-.011a.402.402 0 0 1 .402-.402m0 0" fill="rgb(25.882353%, 52.156863%, 95.686275%)"/></svg>