<?xml version="1.0" encoding="UTF-8"?>
<svg xmlns="http://www.w3.org/2000/svg" xmlns:xlink="http://www.w3.org/1999/xlink" width="32" height="32" viewBox="0 0 32 32">
<path  d="M 8 0 L 8 12 L 11.398438 12 L 11.800781 13.398438 L 12.199219 14.601562 L 12.398438 14.601562 L 14.800781 13.398438 L 18.398438 17 L 17.199219 19.398438 L 17.199219 19.601562 L 18.398438 20 L 19.800781 20.398438 L 19.800781 20.800781 L 32 14 Z M 9 21 C 8.601562 21 8.199219 21.199219 8 21.398438 C 7.398438 21.800781 7 22.398438 7 23 C 7 23.601562 7.398438 24.398438 8 24.601562 C 8.199219 24.800781 8.601562 25 9 25 C 10.199219 25 11 24.199219 11 23 C 11 21.800781 10.199219 21 9 21 "/>
<path  d="M 18 24 L 18 22 L 15.800781 21.199219 C 15.601562 20.601562 15.398438 20 15 19.398438 L 16 17.398438 L 14.601562 16 L 12.601562 17 C 12 16.601562 11.398438 16.398438 10.800781 16.199219 L 10 14 L 8 14 L 7.199219 16.199219 C 6.601562 16.398438 6 16.601562 5.398438 17 L 3.398438 16 L 2 17.398438 L 3 19.601562 C 2.601562 20.199219 2.398438 20.800781 2.199219 21.398438 L 0 22 L 0 24 L 2.199219 24.800781 C 2.398438 25.398438 2.601562 26 3 26.601562 L 2 28.601562 L 3.398438 30 L 5.601562 29 C 6.199219 29.398438 6.800781 29.601562 7.398438 29.800781 L 8 32 L 10 32 L 10.800781 29.800781 C 11.398438 29.601562 12 29.398438 12.601562 29 L 14.601562 30 L 16 28.601562 L 15 26.398438 C 15.398438 25.800781 15.601562 25.199219 15.800781 24.601562 Z M 9 27 C 6.800781 27 5 25.199219 5 23 C 5 20.800781 6.800781 19 9 19 C 11.199219 19 13 20.800781 13 23 C 13 25.199219 11.199219 27 9 27 "/>
</svg>
