<?xml version="1.0" encoding="UTF-8"?>
<svg xmlns="http://www.w3.org/2000/svg" xmlns:xlink="http://www.w3.org/1999/xlink" width="32" height="32" viewBox="0 0 32 32">
<path fill-rule="nonzero" fill="rgb(0%, 0%, 0%)" fill-opacity="1" d="M 13.441406 1.28125 L 13.441406 3.199219 L 14.71875 3.199219 L 14.71875 3.902344 C 7.90625 4.550781 2.558594 10.300781 2.558594 17.28125 C 2.558594 24.691406 8.589844 30.71875 16 30.71875 C 23.410156 30.71875 29.441406 24.691406 29.441406 17.28125 C 29.441406 10.300781 24.09375 4.550781 17.28125 3.902344 L 17.28125 3.199219 L 18.558594 3.199219 L 18.558594 1.28125 Z M 25.75 3.292969 L 24.46875 4.578125 L 27.421875 7.53125 L 28.703125 6.246094 Z M 9.601562 10.238281 C 9.769531 10.238281 9.933594 10.304688 10.050781 10.425781 L 15.671875 16.046875 C 15.777344 16.019531 15.886719 16 16 16 C 16.707031 16 17.28125 16.574219 17.28125 17.28125 C 17.28125 17.394531 17.261719 17.5 17.234375 17.609375 L 18.371094 18.746094 C 18.554688 18.929688 18.609375 19.203125 18.511719 19.441406 C 18.410156 19.683594 18.179688 19.839844 17.921875 19.839844 C 17.75 19.839844 17.589844 19.773438 17.46875 19.652344 L 16.328125 18.511719 C 16.222656 18.542969 16.109375 18.558594 16 18.558594 C 15.292969 18.558594 14.71875 17.988281 14.71875 17.28125 C 14.71875 17.167969 14.738281 17.058594 14.765625 16.953125 L 9.148438 11.332031 C 8.964844 11.148438 8.910156 10.871094 9.007812 10.632812 C 9.109375 10.394531 9.34375 10.238281 9.601562 10.238281 M 9.601562 10.238281 "/>
</svg>
