<svg role="img" viewBox="0 0 32 32" height="32" width="32" xmlns="http://www.w3.org/2000/svg"><path d="M13.441 1.281V3.2h1.278v.703c-6.813.649-12.16 6.399-12.16 13.38 0 7.41 6.03 13.437 13.441 13.437 7.41 0 13.441-6.028 13.441-13.438 0-6.98-5.347-12.73-12.16-13.379V3.2h1.278V1.281ZM25.75 3.293l-1.281 1.285 2.953 2.953 1.281-1.285ZM9.602 10.238a.63.63 0 0 1 .449.188l5.62 5.62c.106-.026.216-.046.329-.046.707 0 1.281.574 1.281 1.281 0 .114-.02.219-.047.328l1.137 1.137a.641.641 0 0 1-.45 1.094.639.639 0 0 1-.452-.188l-1.14-1.14a1.305 1.305 0 0 1-.329.047c-.707 0-1.281-.57-1.281-1.278 0-.113.02-.222.047-.328l-5.618-5.621a.641.641 0 0 1 .454-1.094m0 0"/></svg>