<svg role="img" viewBox="0 0 32 32" height="32" width="32" xmlns="http://www.w3.org/2000/svg"><path d="M22.398 3.84a1.93 1.93 0 0 0-1.918 1.922V8l-8.96 6.719V13.44a1.927 1.927 0 0 0-1.918-1.921h-7.68A1.928 1.928 0 0 0 0 13.44v5.118a1.93 1.93 0 0 0 1.922 1.921h7.68a1.93 1.93 0 0 0 1.918-1.921V17.28L20.48 24v2.238a1.93 1.93 0 0 0 1.918 1.922h7.68A1.93 1.93 0 0 0 32 26.238v-5.117a1.93 1.93 0 0 0-1.922-1.922h-7.68a1.93 1.93 0 0 0-1.918 1.922v1.277L11.96 16l8.52-6.398v1.277a1.93 1.93 0 0 0 1.918 1.922h7.68A1.93 1.93 0 0 0 32 10.879V5.762a1.93 1.93 0 0 0-1.922-1.922Zm0 1.281h7.68a.64.64 0 0 1 .64.64v5.118c0 .355-.284.64-.64.64h-7.68a.643.643 0 0 1-.636-.64V5.762c0-.356.285-.64.636-.64M1.922 12.8h7.68c.351 0 .636.285.636.64v5.118c0 .355-.285.64-.636.64h-7.68a.654.654 0 0 1-.64-.64V13.44a.64.64 0 0 1 .64-.64m20.476 7.68h7.68a.64.64 0 0 1 .64.64v5.117a.642.642 0 0 1-.187.453.673.673 0 0 1-.453.184h-7.68a.642.642 0 0 1-.636-.637V21.12c0-.355.285-.64.636-.64m0 0"/></svg>