<svg role="img" viewBox="0 0 32 32" xmlns="http://www.w3.org/2000/svg"><path d="M29.871 15.527 15.152 2.086a.65.65 0 0 0-.691-.11.65.65 0 0 0-.383.583v5.12H2.558a.635.635 0 0 0-.636.641v15.36c0 .168.066.332.183.453a.64.64 0 0 0 .454.187h11.52v5.121a.645.645 0 0 0 1.073.473l14.72-13.441a.64.64 0 0 0 .21-.473.64.64 0 0 0-.21-.473m-10.829-2.949-6.078 7.04a.64.64 0 0 1-.445.222h-.04a.63.63 0 0 1-.43-.168l-3.523-3.2a.645.645 0 0 1-.015-.878.643.643 0 0 1 .879-.067l3.035 2.758 5.648-6.543a.64.64 0 0 1 .903-.066c.27.23.296.633.066.902" fill="rgb(0%, 0%, 0%)"/></svg>