<?xml version="1.0" encoding="UTF-8"?>
<svg xmlns="http://www.w3.org/2000/svg" xmlns:xlink="http://www.w3.org/1999/xlink" width="32" height="32" viewBox="0 0 32 32">
<path fill="none" stroke-width="4" stroke-linecap="butt" stroke-linejoin="round" stroke="rgb(0%, 0%, 0%)" stroke-opacity="1" stroke-miterlimit="4" d="M 17.999991 5.999997 L 7.998043 5.999997 C 6.896481 5.999997 5.999997 6.896481 5.999997 7.998043 L 5.999997 17.999991 C 5.999997 19.107413 6.896481 19.998037 7.998043 19.998037 L 17.999991 19.998037 C 19.107413 19.998037 19.998037 19.107413 19.998037 17.999991 L 19.998037 7.998043 C 19.998037 6.896481 19.107413 5.999997 17.999991 5.999997 Z M 17.999991 28.00194 L 7.998043 28.00194 C 6.896481 28.00194 5.999997 28.892564 5.999997 29.999986 L 5.999997 40.001934 C 5.999997 41.103496 6.896481 41.99998 7.998043 41.99998 L 17.999991 41.99998 C 19.107413 41.99998 19.998037 41.103496 19.998037 40.001934 L 19.998037 29.999986 C 19.998037 28.892564 19.107413 28.00194 17.999991 28.00194 Z M 34.99803 19.998037 C 38.865216 19.998037 41.99998 16.863273 41.99998 13.001947 C 41.99998 9.134761 38.865216 5.999997 34.99803 5.999997 C 31.136704 5.999997 28.00194 9.134761 28.00194 13.001947 C 28.00194 16.863273 31.136704 19.998037 34.99803 19.998037 Z M 40.001934 28.00194 L 29.999986 28.00194 C 28.892564 28.00194 28.00194 28.892564 28.00194 29.999986 L 28.00194 40.001934 C 28.00194 41.103496 28.892564 41.99998 29.999986 41.99998 L 40.001934 41.99998 C 41.103496 41.99998 41.99998 41.103496 41.99998 40.001934 L 41.99998 29.999986 C 41.99998 28.892564 41.103496 28.00194 40.001934 28.00194 Z M 40.001934 28.00194 " transform="matrix(0.666667, 0, 0, 0.666667, 0, 0)"/>
</svg>
