<?xml version="1.0" encoding="UTF-8"?>
<svg xmlns="http://www.w3.org/2000/svg" xmlns:xlink="http://www.w3.org/1999/xlink" width="32" height="32" viewBox="0 0 32 32">
<path fill-rule="nonzero" fill="rgb(0%, 0%, 0%)" fill-opacity="1" d="M 1.28125 1.28125 C 0.574219 1.28125 0 1.855469 0 2.558594 L 0 25.601562 C 0 26.308594 0.574219 26.878906 1.28125 26.878906 L 30.71875 26.878906 C 31.425781 26.878906 32 26.308594 32 25.601562 L 32 2.558594 C 32 1.855469 31.425781 1.28125 30.71875 1.28125 Z M 3.839844 4.480469 L 28.160156 4.480469 C 28.511719 4.480469 28.800781 4.765625 28.800781 5.121094 L 28.800781 20.480469 C 28.800781 20.832031 28.511719 21.121094 28.160156 21.121094 L 3.839844 21.121094 C 3.488281 21.121094 3.199219 20.832031 3.199219 20.480469 L 3.199219 5.121094 C 3.199219 4.765625 3.488281 4.480469 3.839844 4.480469 Z M 15.480469 7.679688 C 15.382812 7.679688 15.320312 7.742188 15.320312 7.839844 L 15.320312 14.679688 C 15.320312 14.777344 15.382812 14.839844 15.480469 14.839844 L 16.519531 14.839844 C 16.617188 14.839844 16.679688 14.777344 16.679688 14.679688 L 16.679688 7.839844 C 16.679688 7.742188 16.617188 7.679688 16.519531 7.679688 Z M 15.441406 16.519531 C 15.34375 16.519531 15.28125 16.582031 15.28125 16.679688 L 15.28125 17.878906 C 15.28125 17.976562 15.34375 18.039062 15.441406 18.039062 L 16.558594 18.039062 C 16.65625 18.039062 16.71875 17.976562 16.71875 17.878906 L 16.71875 16.679688 C 16.71875 16.582031 16.65625 16.519531 16.558594 16.519531 Z M 27.519531 22.398438 C 28.226562 22.398438 28.800781 22.972656 28.800781 23.679688 C 28.800781 24.386719 28.226562 24.960938 27.519531 24.960938 C 26.8125 24.960938 26.238281 24.386719 26.238281 23.679688 C 26.238281 22.972656 26.8125 22.398438 27.519531 22.398438 Z M 12.160156 27.519531 L 12.160156 28.160156 L 9.519531 28.160156 C 8.5 28.160156 7.679688 29.023438 7.679688 30.078125 L 7.679688 32 L 24.320312 32 L 24.320312 30.078125 C 24.320312 29.023438 23.5 28.160156 22.480469 28.160156 L 19.839844 28.160156 L 19.839844 27.519531 Z M 12.160156 27.519531 "/>
</svg>
