<?xml version="1.0" encoding="UTF-8"?>
<svg xmlns="http://www.w3.org/2000/svg" xmlns:xlink="http://www.w3.org/1999/xlink" width="32" height="32" viewBox="0 0 32 32">
<path fill="none" stroke-width="4" stroke-linecap="butt" stroke-linejoin="round" stroke="rgb(0%, 0%, 0%)" stroke-opacity="1" stroke-miterlimit="4" d="M 18 6 L 7.998047 6 C 6.896484 6 6 6.896484 6 7.998047 L 6 18 C 6 19.107422 6.896484 19.998047 7.998047 19.998047 L 18 19.998047 C 19.107422 19.998047 19.998047 19.107422 19.998047 18 L 19.998047 7.998047 C 19.998047 6.896484 19.107422 6 18 6 Z M 18 28.001953 L 7.998047 28.001953 C 6.896484 28.001953 6 28.892578 6 30 L 6 40.001953 C 6 41.103516 6.896484 42 7.998047 42 L 18 42 C 19.107422 42 19.998047 41.103516 19.998047 40.001953 L 19.998047 30 C 19.998047 28.892578 19.107422 28.001953 18 28.001953 Z M 34.998047 19.998047 C 38.865234 19.998047 42 16.863281 42 13.001953 C 42 9.134766 38.865234 6 34.998047 6 C 31.136719 6 28.001953 9.134766 28.001953 13.001953 C 28.001953 16.863281 31.136719 19.998047 34.998047 19.998047 Z M 40.001953 28.001953 L 30 28.001953 C 28.892578 28.001953 28.001953 28.892578 28.001953 30 L 28.001953 40.001953 C 28.001953 41.103516 28.892578 42 30 42 L 40.001953 42 C 41.103516 42 42 41.103516 42 40.001953 L 42 30 C 42 28.892578 41.103516 28.001953 40.001953 28.001953 Z M 40.001953 28.001953 " transform="matrix(0.666667, 0, 0, 0.666667, 0, 0)"/>
</svg>
