<?xml version="1.0" encoding="UTF-8"?>
<svg xmlns="http://www.w3.org/2000/svg" xmlns:xlink="http://www.w3.org/1999/xlink" width="32" height="32" viewBox="0 0 32 32">
<path fill-rule="nonzero" fill="rgb(0%, 0%, 0%)" fill-opacity="1" d="M 30.171875 14.65625 L 24.28125 7.933594 L 24.230469 7.886719 C 23.640625 7.339844 22.867188 7.039062 22.066406 7.039062 L 3.199219 7.039062 C 2.140625 7.042969 1.285156 7.902344 1.28125 8.960938 L 1.28125 23.039062 C 1.28125 24.097656 2.144531 24.960938 3.199219 24.960938 L 22.066406 24.960938 C 22.867188 24.960938 23.640625 24.660156 24.230469 24.113281 L 30.15625 17.359375 C 30.519531 17 30.722656 16.511719 30.71875 16 C 30.726562 15.496094 30.53125 15.011719 30.171875 14.65625 M 23.679688 17.921875 C 22.617188 17.921875 21.757812 17.058594 21.757812 15.996094 C 21.761719 14.933594 22.621094 14.074219 23.683594 14.074219 C 24.746094 14.074219 25.609375 14.9375 25.605469 16 C 25.605469 17.0625 24.742188 17.921875 23.679688 17.921875 "/>
</svg>
