<?xml version="1.0" encoding="UTF-8"?>
<svg xmlns="http://www.w3.org/2000/svg" xmlns:xlink="http://www.w3.org/1999/xlink" width="32" height="32" viewBox="0 0 32 32">
<path fill-rule="nonzero" fill="rgb(0%, 0%, 0%)" fill-opacity="1" d="M 2 15.550781 L 2 5.5 C 2 3.566406 3.566406 2 5.5 2 L 15.550781 2 C 16.476562 2 17.371094 2.367188 18.027344 3.027344 L 30.527344 15.527344 C 31.890625 16.894531 31.890625 19.105469 30.527344 20.472656 L 20.472656 30.527344 C 19.105469 31.890625 16.894531 31.890625 15.527344 30.527344 L 3.027344 18.027344 C 2.367188 17.371094 2 16.480469 2 15.550781 M 5 15.550781 C 5 15.683594 5.050781 15.808594 5.144531 15.902344 L 17.644531 28.402344 C 17.738281 28.496094 17.867188 28.550781 18 28.550781 C 18.132812 28.550781 18.261719 28.496094 18.355469 28.402344 L 28.402344 18.355469 C 28.496094 18.261719 28.550781 18.132812 28.550781 18 C 28.550781 17.867188 28.496094 17.738281 28.402344 17.644531 L 15.902344 5.144531 C 15.808594 5.050781 15.683594 5 15.550781 5 L 5.5 5 C 5.222656 5 5 5.222656 5 5.5 Z M 12 10 C 13.105469 10 14 10.894531 14 12 C 14 13.105469 13.105469 14 12 14 C 10.894531 14 10 13.105469 10 12 C 10 10.894531 10.894531 10 12 10 "/>
</svg>
