<svg role="img" viewBox="0 0 32 32" height="32" width="32" xmlns="http://www.w3.org/2000/svg"><defs><clipPath id="8__4__0__clip-0"><path d="M0 0h32v32H0z"/></clipPath><filter height="100%" id="9__5__1__filter-remove-color" width="100%" x="0%" y="0%"><feColorMatrix color-interpolation-filters="sRGB" values="0 0 0 0 1 0 0 0 0 1 0 0 0 0 1 0 0 0 1 0"/></filter><mask id="10__6__2__mask-0"><g filter="url(#9__5__1__filter-remove-color)"><path d="M-3.2-3.2h38.4v38.4H-3.2z" fill-opacity=".2"/></g></mask><g clip-path="url(#8__4__0__clip-0)" id="11__7__3__source-11"><path d="M10 7a3 3 0 1 1-6.002-.002A3 3 0 0 1 10 7m9 0a3 3 0 1 1-6.002-.002A3 3 0 0 1 19 7m9 0a3 3 0 1 1-6.002-.002A3 3 0 0 1 28 7M10 25a3 3 0 1 1-6.002-.002A3 3 0 0 1 10 25m18 0a3 3 0 1 1-6.002-.002A3 3 0 0 1 28 25m0 0" fill="rgb(100%, 100%, 100%)"/></g></defs><path d="M6 0h20c3.313 0 6 2.688 6 6v20a6 6 0 0 1-6 6H6c-3.312 0-6-2.687-6-6V6c0-3.312 2.688-6 6-6m0 0" fill="rgb(14.117647%, 14.117647%, 14.117647%)"/><g mask="url(#10__6__2__mask-0)"><use href="#11__7__3__source-11"/></g><path d="M10 16a3 3 0 1 1-6.002-.002A3 3 0 0 1 10 16m9 0a3 3 0 1 1-6.002-.002A3 3 0 0 1 19 16m9 0a3 3 0 1 1-6.002-.002A3 3 0 0 1 28 16m-9 9a3 3 0 1 1-6.002-.002A3 3 0 0 1 19 25m0 0" fill="rgb(100%, 100%, 100%)"/></svg>