<?xml version="1.0" encoding="UTF-8"?>
<svg xmlns="http://www.w3.org/2000/svg" xmlns:xlink="http://www.w3.org/1999/xlink" width="32" height="32" viewBox="0 0 32 32">
<defs>
<filter id="filter-remove-color" x="0%" y="0%" width="100%" height="100%">
<feColorMatrix color-interpolation-filters="sRGB" values="0 0 0 0 1 0 0 0 0 1 0 0 0 0 1 0 0 0 1 0" />
</filter>
<mask id="mask-0">
<g filter="url(#filter-remove-color)">
<rect x="-3.2" y="-3.2" width="38.4" height="38.4" fill="rgb(0%, 0%, 0%)" fill-opacity="0.2"/>
</g>
</mask>
<clipPath id="clip-0">
<rect x="0" y="0" width="32" height="32"/>
</clipPath>
<g id="source-6" clip-path="url(#clip-0)">
<path fill-rule="nonzero" fill="rgb(0%, 0%, 0%)" fill-opacity="1" d="M 4.101562 7.980469 C 6.304688 7.980469 8.09375 6.195312 8.09375 3.988281 C 8.09375 1.78125 6.304688 0 4.101562 0 C 1.894531 0 0.113281 1.789062 0.113281 3.992188 C 0.113281 6.199219 1.898438 7.980469 4.101562 7.980469 "/>
</g>
<mask id="mask-1">
<g filter="url(#filter-remove-color)">
<rect x="-3.2" y="-3.2" width="38.4" height="38.4" fill="rgb(0%, 0%, 0%)" fill-opacity="0.2"/>
</g>
</mask>
<clipPath id="clip-1">
<rect x="0" y="0" width="32" height="32"/>
</clipPath>
<g id="source-11" clip-path="url(#clip-1)">
<path fill-rule="nonzero" fill="rgb(0%, 0%, 0%)" fill-opacity="1" d="M 4.101562 32 C 6.304688 32 8.09375 30.210938 8.09375 28.007812 C 8.09375 25.800781 6.304688 24.011719 4.101562 24.011719 C 1.894531 24.011719 0.113281 25.804688 0.113281 28.007812 C 0.113281 30.207031 1.898438 32 4.101562 32 "/>
</g>
<mask id="mask-2">
<g filter="url(#filter-remove-color)">
<rect x="-3.2" y="-3.2" width="38.4" height="38.4" fill="rgb(0%, 0%, 0%)" fill-opacity="0.2"/>
</g>
</mask>
<clipPath id="clip-2">
<rect x="0" y="0" width="32" height="32"/>
</clipPath>
<g id="source-16" clip-path="url(#clip-2)">
<path fill-rule="nonzero" fill="rgb(0%, 0%, 0%)" fill-opacity="1" d="M 16.074219 7.980469 C 18.28125 7.980469 20.070312 6.195312 20.070312 3.988281 C 20.070312 1.78125 18.28125 0 16.074219 0 C 13.867188 0 12.082031 1.789062 12.082031 3.992188 C 12.082031 6.199219 13.867188 7.980469 16.074219 7.980469 M 27.898438 7.980469 C 30.105469 7.980469 31.894531 6.195312 31.894531 3.988281 C 31.894531 1.78125 30.101562 0 27.898438 0 C 25.695312 0 23.90625 1.789062 23.90625 3.992188 C 23.90625 6.199219 25.695312 7.980469 27.898438 7.980469 "/>
</g>
<mask id="mask-3">
<g filter="url(#filter-remove-color)">
<rect x="-3.2" y="-3.2" width="38.4" height="38.4" fill="rgb(0%, 0%, 0%)" fill-opacity="0.2"/>
</g>
</mask>
<clipPath id="clip-3">
<rect x="0" y="0" width="32" height="32"/>
</clipPath>
<g id="source-21" clip-path="url(#clip-3)">
<path fill-rule="nonzero" fill="rgb(0%, 0%, 0%)" fill-opacity="1" d="M 27.898438 32 C 30.105469 32 31.894531 30.210938 31.894531 28.007812 C 31.894531 25.800781 30.105469 24.011719 27.898438 24.011719 C 25.695312 24.011719 23.90625 25.800781 23.90625 28.007812 C 23.90625 30.210938 25.695312 32 27.898438 32 "/>
</g>
</defs>
<g mask="url(#mask-0)">
<use xlink:href="#source-6"/>
</g>
<path fill-rule="nonzero" fill="rgb(0%, 0%, 0%)" fill-opacity="1" d="M 4.101562 19.882812 C 6.304688 19.882812 8.09375 18.09375 8.09375 15.886719 C 8.09375 13.679688 6.304688 11.894531 4.101562 11.894531 C 1.894531 11.894531 0.113281 13.6875 0.113281 15.886719 C 0.113281 18.085938 1.898438 19.882812 4.101562 19.882812 "/>
<g mask="url(#mask-1)">
<use xlink:href="#source-11"/>
</g>
<path fill-rule="nonzero" fill="rgb(0%, 0%, 0%)" fill-opacity="1" d="M 16.074219 19.882812 C 18.28125 19.882812 20.070312 18.09375 20.070312 15.886719 C 20.070312 13.679688 18.28125 11.894531 16.074219 11.894531 C 13.867188 11.894531 12.082031 13.679688 12.082031 15.886719 C 12.082031 18.09375 13.867188 19.882812 16.074219 19.882812 M 16.074219 32 C 18.28125 32 20.070312 30.210938 20.070312 28.007812 C 20.070312 25.800781 18.28125 24.011719 16.074219 24.011719 C 13.867188 24.011719 12.082031 25.800781 12.082031 28.007812 C 12.082031 30.210938 13.867188 32 16.074219 32 "/>
<g mask="url(#mask-2)">
<use xlink:href="#source-16"/>
</g>
<path fill-rule="nonzero" fill="rgb(0%, 0%, 0%)" fill-opacity="1" d="M 27.898438 19.882812 C 30.105469 19.882812 31.894531 18.09375 31.894531 15.886719 C 31.894531 13.679688 30.105469 11.894531 27.898438 11.894531 C 25.695312 11.894531 23.90625 13.679688 23.90625 15.886719 C 23.90625 18.09375 25.695312 19.882812 27.898438 19.882812 "/>
<g mask="url(#mask-3)">
<use xlink:href="#source-21"/>
</g>
</svg>
