<?xml version="1.0" encoding="UTF-8"?>
<svg xmlns="http://www.w3.org/2000/svg" xmlns:xlink="http://www.w3.org/1999/xlink" width="32" height="32" viewBox="0 0 32 32">
<path fill="none" stroke-width="1" stroke-linecap="butt" stroke-linejoin="miter" stroke="rgb(0%, 0%, 0%)" stroke-opacity="1" stroke-miterlimit="4" d="M 18.999023 12 C 18.999023 15.867188 15.867188 18.999023 12 18.999023 C 8.132812 18.999023 5.000977 15.867188 5.000977 12 C 5.000977 8.132812 8.132812 5.000977 12 5.000977 C 15.867188 5.000977 18.999023 8.132812 18.999023 12 Z M 18.999023 12 " transform="matrix(1.333333, 0, 0, 1.333333, 0, 0)"/>
<path  stroke-width="1" stroke-linecap="butt" stroke-linejoin="miter" stroke="rgb(0%, 0%, 0%)" stroke-opacity="1" stroke-miterlimit="4" d="M 14.000977 12 C 14.000977 13.104492 13.104492 14.000977 12 14.000977 C 10.895508 14.000977 9.999023 13.104492 9.999023 12 C 9.999023 10.895508 10.895508 9.999023 12 9.999023 C 13.104492 9.999023 14.000977 10.895508 14.000977 12 Z M 14.000977 12 " transform="matrix(1.333333, 0, 0, 1.333333, 0, 0)"/>
<path fill="none" stroke-width="1" stroke-linecap="round" stroke-linejoin="miter" stroke="rgb(0%, 0%, 0%)" stroke-opacity="1" stroke-miterlimit="4" d="M 7.048828 7.048828 L 3.999023 3.999023 M 16.951172 7.048828 L 20.000977 3.999023 M 20.000977 20.000977 L 16.951172 16.951172 M 3.999023 20.000977 L 7.048828 16.951172 " transform="matrix(1.333333, 0, 0, 1.333333, 0, 0)"/>
</svg>
