<?xml version="1.0" encoding="UTF-8"?>
<svg xmlns="http://www.w3.org/2000/svg" xmlns:xlink="http://www.w3.org/1999/xlink" width="32" height="32" viewBox="0 0 32 32">
<path fill="none" stroke-width="1" stroke-linecap="butt" stroke-linejoin="miter" stroke="rgb(0%, 0%, 0%)" stroke-opacity="1" stroke-miterlimit="4" d="M 18.999028 12.000003 C 18.999028 15.867191 15.867191 18.999028 12.000003 18.999028 C 8.132814 18.999028 5.000978 15.867191 5.000978 12.000003 C 5.000978 8.132814 8.132814 5.000978 12.000003 5.000978 C 15.867191 5.000978 18.999028 8.132814 18.999028 12.000003 Z M 18.999028 12.000003 " transform="matrix(1.333333, 0, 0, 1.333333, 0, 0)"/>
<path fill-rule="nonzero" fill="rgb(0%, 0%, 0%)" fill-opacity="1" stroke-width="1" stroke-linecap="butt" stroke-linejoin="miter" stroke="rgb(0%, 0%, 0%)" stroke-opacity="1" stroke-miterlimit="4" d="M 14.00098 12.000003 C 14.00098 13.104495 13.104495 14.00098 12.000003 14.00098 C 10.89551 14.00098 9.999026 13.104495 9.999026 12.000003 C 9.999026 10.89551 10.89551 9.999026 12.000003 9.999026 C 13.104495 9.999026 14.00098 10.89551 14.00098 12.000003 Z M 14.00098 12.000003 " transform="matrix(1.333333, 0, 0, 1.333333, 0, 0)"/>
<path fill="none" stroke-width="1" stroke-linecap="round" stroke-linejoin="miter" stroke="rgb(0%, 0%, 0%)" stroke-opacity="1" stroke-miterlimit="4" d="M 7.04883 7.04883 L 3.999024 3.999024 M 16.951176 7.04883 L 20.000981 3.999024 M 20.000981 20.000981 L 16.951176 16.951176 M 3.999024 20.000981 L 7.04883 16.951176 " transform="matrix(1.333333, 0, 0, 1.333333, 0, 0)"/>
</svg>
