<?xml version="1.0" encoding="UTF-8"?>
<svg xmlns="http://www.w3.org/2000/svg" xmlns:xlink="http://www.w3.org/1999/xlink" width="32" height="32" viewBox="0 0 32 32">
<defs>
<clipPath id="clip-0">
<path clip-rule="nonzero" d="M 0 32 L 0 0 L 32 0 L 32 32 Z M 19.367188 16.097656 C 20.621094 14.84375 21.585938 13.878906 21.757812 13.707031 C 22.667969 12.796875 22.667969 11.375 21.757812 10.464844 C 20.847656 9.554688 19.425781 9.554688 18.515625 10.464844 C 18.34375 10.636719 17.375 11.601562 16.125 12.855469 C 14.875 11.660156 13.90625 10.636719 13.734375 10.519531 C 12.824219 9.609375 11.402344 9.609375 10.492188 10.519531 C 9.582031 11.433594 9.582031 12.855469 10.492188 13.765625 C 10.664062 13.933594 11.628906 14.902344 12.882812 16.152344 C 11.628906 17.40625 10.664062 18.371094 10.492188 18.542969 C 9.582031 19.453125 9.582031 20.875 10.492188 21.785156 C 11.402344 22.695312 12.824219 22.695312 13.734375 21.785156 C 13.90625 21.613281 14.875 20.648438 16.125 19.394531 C 17.375 20.648438 18.34375 21.613281 18.515625 21.785156 C 19.425781 22.695312 20.847656 22.695312 21.757812 21.785156 C 22.667969 20.875 22.667969 19.453125 21.757812 18.542969 C 21.585938 18.316406 20.5625 17.347656 19.367188 16.097656 Z M 19.367188 16.097656 "/>
</clipPath>
</defs>
<g clip-path="url(#clip-0)">
<path  d="M 14.71875 0 L 14.71875 2.621094 C 8.332031 3.230469 3.230469 8.332031 2.621094 14.71875 L 0 14.71875 L 0 17.28125 L 2.621094 17.28125 C 3.230469 23.667969 8.332031 28.769531 14.71875 29.378906 L 14.71875 32 L 17.28125 32 L 17.28125 29.378906 C 23.667969 28.769531 28.769531 23.667969 29.378906 17.28125 L 32 17.28125 L 32 14.71875 L 29.378906 14.71875 C 28.769531 8.332031 23.667969 3.230469 17.28125 2.621094 L 17.28125 0 Z M 14.71875 5.203125 L 14.71875 7.039062 L 17.28125 7.039062 L 17.28125 5.203125 C 22.277344 5.785156 26.214844 9.722656 26.796875 14.71875 L 24.960938 14.71875 L 24.960938 17.28125 L 26.796875 17.28125 C 26.214844 22.277344 22.277344 26.214844 17.28125 26.796875 L 17.28125 24.960938 L 14.71875 24.960938 L 14.71875 26.796875 C 9.722656 26.214844 5.785156 22.277344 5.203125 17.28125 L 7.039062 17.28125 L 7.039062 14.71875 L 5.203125 14.71875 C 5.785156 9.722656 9.722656 5.785156 14.71875 5.203125 Z M 14.71875 5.203125 "/>
</g>
<path  d="M 17.71875 16.125 C 19.367188 14.476562 20.789062 13.054688 20.902344 12.9375 C 21.359375 12.484375 21.359375 11.800781 20.902344 11.347656 C 20.449219 10.890625 19.765625 10.890625 19.3125 11.347656 C 19.195312 11.460938 17.773438 12.882812 16.125 14.53125 C 14.476562 12.882812 13.054688 11.460938 12.9375 11.347656 C 12.484375 10.890625 11.800781 10.890625 11.347656 11.347656 C 10.890625 11.800781 10.890625 12.484375 11.347656 12.9375 C 11.460938 13.054688 12.882812 14.476562 14.53125 16.125 C 12.882812 17.773438 11.460938 19.195312 11.347656 19.3125 C 10.890625 19.765625 10.890625 20.449219 11.347656 20.902344 C 11.800781 21.359375 12.484375 21.359375 12.9375 20.902344 C 13.054688 20.789062 14.476562 19.367188 16.125 17.71875 C 17.773438 19.367188 19.195312 20.789062 19.3125 20.902344 C 19.765625 21.359375 20.449219 21.359375 20.902344 20.902344 C 21.359375 20.449219 21.359375 19.765625 20.902344 19.3125 C 20.789062 19.195312 19.367188 17.773438 17.71875 16.125 Z M 17.71875 16.125 "/>
</svg>
