<svg role="img" viewBox="0 0 32 32" height="32" width="32" xmlns="http://www.w3.org/2000/svg"><path d="M17.5 6.11V3.085A13.022 13.022 0 0 1 28.914 14.5h-3.023A10.038 10.038 0 0 0 17.5 6.11M6.11 17.5H3.085A13.022 13.022 0 0 0 14.5 28.914v-3.023A10.038 10.038 0 0 1 6.11 17.5m11.39 8.39v3.024A13.022 13.022 0 0 0 28.914 17.5h-3.023a10.038 10.038 0 0 1-8.391 8.39m-3-19.78V3.085A13.022 13.022 0 0 0 3.086 14.5h3.023A10.038 10.038 0 0 1 14.5 6.11M12 16c0 2.21 1.79 4 4 4s4-1.79 4-4-1.79-4-4-4a4.008 4.008 0 0 0-4 4m-3 0c0-.277-.223-.5-.5-.5h-7a.499.499 0 1 0 0 1h7c.277 0 .5-.223.5-.5m21.5-.5h-7a.499.499 0 1 0 0 1h7a.499.499 0 1 0 0-1M16 9c.277 0 .5-.223.5-.5v-7a.499.499 0 1 0-1 0v7c0 .277.223.5.5.5m0 14c-.277 0-.5.223-.5.5v7a.499.499 0 1 0 1 0v-7c0-.277-.223-.5-.5-.5m0 0"/></svg>