<svg role="img" viewBox="0 0 32 32" xmlns="http://www.w3.org/2000/svg"><defs><linearGradient gradientTransform="scale(.13333)" gradientUnits="userSpaceOnUse" id="telegram_svg__a" x1="120" x2="120" y1="240" y2="0"><stop offset="0" stop-color="rgb(11.372549%, 57.647061%, 82.352942%)"/><stop offset="1" stop-color="rgb(21.960784%, 69.01961%, 89.019608%)"/></linearGradient></defs><path d="M16 0C7.164 0 0 7.164 0 16s7.164 16 16 16 16-7.164 16-16S24.836 0 16 0" fill="url(#telegram_svg__a)"/><path d="m10.832 17.168 1.898 5.254s.235.492.489.492 4.035-3.93 4.035-3.93l4.203-8.12-10.559 4.948Zm0 0" fill="rgb(78.431374%, 85.490197%, 91.764706%)"/><path d="m13.348 18.516-.364 3.875s-.152 1.187 1.032 0c1.187-1.188 2.324-2.102 2.324-2.102" fill="rgb(66.274512%, 77.64706%, 84.705883%)"/><path d="m10.863 17.355-3.902-1.27s-.469-.19-.316-.62c.03-.086.093-.164.277-.293.867-.602 16.016-6.047 16.016-6.047s.43-.145.68-.047a.36.36 0 0 1 .25.274q.04.168.034.343c0 .102-.011.192-.023.34-.09 1.488-2.852 12.598-2.852 12.598s-.164.652-.757.672a1.08 1.08 0 0 1-.79-.305c-1.16-1-5.175-3.695-6.062-4.29a.2.2 0 0 1-.074-.12c-.012-.063.054-.14.054-.14s6.993-6.212 7.176-6.864c.016-.05-.039-.078-.11-.055-.464.172-8.515 5.254-9.401 5.813a.4.4 0 0 1-.2.011" fill="rgb(100%, 100%, 100%)"/></svg>