<?xml version="1.0" encoding="UTF-8"?>
<svg xmlns="http://www.w3.org/2000/svg" xmlns:xlink="http://www.w3.org/1999/xlink" width="32" height="32" viewBox="0 0 32 32">
<path fill-rule="nonzero" fill="rgb(0%, 0%, 0%)" fill-opacity="1" d="M 21.609375 10.390625 C 20.851562 4.726562 18.9375 0 16 0 C 13.0625 0 11.148438 4.726562 10.390625 10.390625 C 4.726562 11.148438 0 13.0625 0 16 C 0 18.9375 4.726562 20.851562 10.390625 21.609375 C 11.148438 27.269531 13.0625 32 16 32 C 18.9375 32 20.851562 27.273438 21.609375 21.609375 C 27.273438 20.851562 32 18.9375 32 16 C 32 13.0625 27.269531 11.148438 21.609375 10.390625 Z M 10.207031 19.957031 C 4.78125 19.175781 1.621094 17.382812 1.621094 16 C 1.621094 14.617188 4.785156 12.824219 10.207031 12.039062 C 10.089844 13.347656 10.023438 14.679688 10.023438 16 C 10.023438 17.320312 10.089844 18.652344 10.207031 19.957031 Z M 16 1.621094 C 17.382812 1.621094 19.175781 4.78125 19.957031 10.207031 C 17.324219 9.964844 14.675781 9.964844 12.042969 10.207031 C 12.824219 4.78125 14.617188 1.621094 16 1.621094 Z M 21.792969 19.957031 C 21.523438 19.996094 20.429688 20.125 20.152344 20.152344 C 20.125 20.429688 19.996094 21.523438 19.957031 21.792969 C 19.175781 27.214844 17.382812 30.378906 16 30.378906 C 14.617188 30.378906 12.824219 27.214844 12.042969 21.792969 C 12 21.523438 11.875 20.429688 11.84375 20.152344 C 11.574219 17.390625 11.574219 14.609375 11.84375 11.84375 C 15.15625 11.519531 18.496094 11.585938 21.792969 12.039062 C 27.214844 12.824219 30.382812 14.617188 30.382812 16 C 30.378906 17.378906 27.214844 19.175781 21.792969 19.957031 Z M 21.792969 19.957031 "/>
</svg>
