<?xml version="1.0" encoding="UTF-8"?>
<svg xmlns="http://www.w3.org/2000/svg" xmlns:xlink="http://www.w3.org/1999/xlink" width="32.022524" height="32" viewBox="0 0 32.022524 32">
<path fill-rule="nonzero" fill="rgb(42.745098%, 25.490196%, 100%)" fill-opacity="1" d="M 0.636719 0.628906 L 0.636719 31.40625 L 22.4375 31.40625 C 27.394531 31.40625 31.414062 27.386719 31.414062 22.425781 L 31.414062 0.628906 Z M 24.628906 20.03125 L 25.777344 20.03125 L 25.777344 21.179688 L 24.628906 21.179688 Z M 24.265625 15.085938 L 26.132812 15.085938 L 26.132812 16.953125 L 24.265625 16.953125 Z M 23.980469 10.210938 L 26.421875 10.210938 L 26.421875 12.652344 L 23.980469 12.652344 Z M 20.039062 24.617188 L 21.1875 24.617188 L 21.1875 25.765625 L 20.039062 25.765625 Z M 19.679688 19.613281 L 21.546875 19.613281 L 21.546875 21.480469 L 19.679688 21.480469 Z M 19.394531 14.796875 L 21.835938 14.796875 L 21.835938 17.238281 L 19.394531 17.238281 Z M 19.679688 12.363281 L 19.679688 10.5 L 21.546875 10.5 L 21.546875 12.363281 Z M 10.867188 24.617188 L 12.015625 24.617188 L 12.015625 25.765625 L 10.867188 25.765625 Z M 10.507812 19.671875 L 12.375 19.671875 L 12.375 21.535156 L 10.507812 21.535156 Z M 10.867188 16.59375 L 10.867188 15.445312 L 12.015625 15.445312 L 12.015625 16.59375 Z M 10.507812 10.5 L 12.375 10.5 L 12.375 12.363281 L 10.507812 12.363281 Z M 6.277344 24.617188 L 7.429688 24.617188 L 7.429688 25.765625 L 6.277344 25.765625 Z M 6.277344 20.03125 L 7.429688 20.03125 L 7.429688 21.179688 L 6.277344 21.179688 Z M 5.921875 15.085938 L 7.785156 15.085938 L 7.785156 16.953125 L 5.921875 16.953125 Z M 5.632812 10.210938 L 8.074219 10.210938 L 8.074219 12.652344 L 5.632812 12.652344 Z M 4.558594 4.550781 L 27.492188 4.550781 L 27.492188 9.136719 L 18.320312 9.136719 L 18.320312 27.484375 L 13.734375 27.484375 L 13.734375 9.136719 L 4.558594 9.136719 Z M 4.558594 4.550781 "/>
</svg>
