<svg role="img" viewBox="0 0 56.949 32" height="32" width="56.949" xmlns="http://www.w3.org/2000/svg"><path d="M30.754 23.703c3.2-1.793 7.05-4.176 10.195-8.137-3.09-3.851-7.43-6.129-10.629-7.863 7.7-1.683 14.426 5.91 14.426 5.91l1.79 2.008-1.79 2.008c-6.996 7.539-13.992 6.074-13.992 6.074" fill="rgb(94.509804%, 36.862745%, 13.333333%)"/><path d="M31.348 15.676c0 .965-.383 1.886-1.063 2.57a3.645 3.645 0 0 1-5.14 0 3.643 3.643 0 0 1-1.063-2.57 3.634 3.634 0 0 1 3.633-3.637c2.008.055 3.633 1.684 3.633 3.637" fill="rgb(10.980392%, 18.823529%, 23.137255%)"/><path d="M15.188 15.566c2.386 3.145 9.054 10.848 17.57 10.848 5.86 0 11.664-3.633 17.304-10.848-5.64-6.996-11.5-10.578-17.304-10.578-8.516 0-15.184 7.485-17.57 10.578m17.519 15.782c-13.398 0-22.293-13.883-22.672-14.48l-.867-1.356.867-1.356C10.415 13.56 19.363 0 32.707 0 40.57 0 48.109 4.719 55.16 13.992l1.082 1.465-1.082 1.465c-6.996 9.601-14.535 14.426-22.453 14.426m-10.2 0C9.493 30.968 1.087 17.355.704 16.758L0 15.402l.813-1.3C1.19 13.559 9.438.543 22.398.055c-10.085 4.61-17.082 15.62-17.082 15.62s5.91 9.817 17.192 15.673" fill="rgb(94.509804%, 36.862745%, 13.333333%)"/></svg>