<svg role="img" viewBox="0 0 32 32" height="32" width="32" xmlns="http://www.w3.org/2000/svg"><path d="M16.035 1.281C7.898 1.261 1.281 7.867 1.281 16v.016A.639.639 0 1 0 2.56 16c0-7.668 6.402-13.824 14.16-13.422 6.789.352 12.351 5.914 12.703 12.703.39 7.547-5.422 13.809-12.797 14.145a.642.642 0 0 0-.625.637c0 .359.297.66.656.64 8.367-.367 14.93-7.738 13.969-16.383-.75-6.757-6.187-12.195-12.945-12.945a14.662 14.662 0 0 0-1.645-.094M16 3.84C9.285 3.84 3.84 9.285 3.84 16S9.285 28.16 16 28.16 28.16 22.715 28.16 16 22.715 3.84 16 3.84m-.012 1.91h.02a.644.644 0 0 1 .633.648v7.793c.547.192.976.621 1.168 1.168h5.25a.638.638 0 0 1 .628.649.639.639 0 0 1-.648.633h-5.23A1.926 1.926 0 0 1 16 17.92a1.927 1.927 0 0 1-1.8-1.273 1.926 1.926 0 0 1 1.16-2.457V6.398a.643.643 0 0 1 .628-.648M2.16 17.84a.641.641 0 1 0 0 1.28.641.641 0 0 0 0-1.28m.719 2.48a.641.641 0 1 0 0 1.282.641.641 0 0 0 0-1.282m1.043 2.239a.641.641 0 0 0 0 1.28.64.64 0 0 0 0-1.281m1.52 2.082a.641.641 0 0 0 0 1.281.64.64 0 0 0 0-1.281m1.84 1.757a.641.641 0 1 0 0 1.282.641.641 0 0 0 0-1.282m2.077 1.364a.64.64 0 0 0-.64.636.641.641 0 0 0 1.281 0 .638.638 0 0 0-.64-.636m2.32 1.039a.641.641 0 0 0-.64.64.64.64 0 0 0 1.281 0 .639.639 0 0 0-.64-.64m2.481.558a.641.641 0 1 0 0 1.282.641.641 0 0 0 0-1.282m0 0"/></svg>