<svg role="img" viewBox="0 0 32 32" height="32" width="32" xmlns="http://www.w3.org/2000/svg"><path d="M16 1.281C7.871 1.281 1.281 7.871 1.281 16S7.871 30.719 16 30.719 30.719 24.129 30.719 16 24.129 1.281 16 1.281m0 28.16c-7.41 0-13.441-6.03-13.441-13.441A13.34 13.34 0 0 1 6.41 6.594a.641.641 0 0 1 .906-.012c.25.25.254.652.008.906A12.09 12.09 0 0 0 3.84 16c0 6.707 5.453 12.16 12.16 12.16S28.16 22.707 28.16 16c0-6.488-5.113-11.793-11.52-12.129V7.68c0 .355-.285.64-.64.64a.639.639 0 0 1-.64-.64V3.2a.64.64 0 0 1 .64-.641c7.41 0 13.441 6.03 13.441 13.441 0 7.41-6.03 13.441-13.441 13.441M9.602 9.601s7.003 4.29 7.757 5.04a1.923 1.923 0 0 1-2.718 2.718c-.75-.75-5.04-7.757-5.04-7.757m0 0"/></svg>