<?xml version="1.0" encoding="UTF-8"?>
<svg xmlns="http://www.w3.org/2000/svg" xmlns:xlink="http://www.w3.org/1999/xlink" width="32" height="32" viewBox="0 0 32 32">
<path fill-rule="nonzero" fill="rgb(0%, 0%, 0%)" fill-opacity="1" d="M 16 1.28125 C 7.871094 1.28125 1.28125 7.871094 1.28125 16 C 1.28125 24.128906 7.871094 30.71875 16 30.71875 C 24.128906 30.71875 30.71875 24.128906 30.71875 16 C 30.71875 7.871094 24.128906 1.28125 16 1.28125 M 16 29.441406 C 8.589844 29.441406 2.558594 23.410156 2.558594 16 C 2.550781 12.480469 3.933594 9.097656 6.410156 6.59375 C 6.65625 6.339844 7.0625 6.335938 7.316406 6.582031 C 7.566406 6.832031 7.570312 7.234375 7.324219 7.488281 C 5.085938 9.753906 3.835938 12.816406 3.839844 16 C 3.839844 22.707031 9.292969 28.160156 16 28.160156 C 22.707031 28.160156 28.160156 22.707031 28.160156 16 C 28.160156 9.511719 23.046875 4.207031 16.640625 3.871094 L 16.640625 7.679688 C 16.640625 8.035156 16.355469 8.320312 16 8.320312 C 15.832031 8.320312 15.667969 8.253906 15.546875 8.132812 C 15.425781 8.011719 15.359375 7.851562 15.359375 7.679688 L 15.359375 3.199219 C 15.359375 3.03125 15.425781 2.867188 15.546875 2.746094 C 15.667969 2.625 15.832031 2.558594 16 2.558594 C 23.410156 2.558594 29.441406 8.589844 29.441406 16 C 29.441406 23.410156 23.410156 29.441406 16 29.441406 M 9.601562 9.601562 C 9.601562 9.601562 16.605469 13.890625 17.359375 14.640625 C 18.066406 15.398438 18.046875 16.582031 17.3125 17.3125 C 16.582031 18.046875 15.398438 18.066406 14.640625 17.359375 C 13.890625 16.609375 9.601562 9.601562 9.601562 9.601562 M 9.601562 9.601562 "/>
</svg>
