<?xml version="1.0" encoding="UTF-8"?>
<svg xmlns="http://www.w3.org/2000/svg" xmlns:xlink="http://www.w3.org/1999/xlink" width="32" height="32" viewBox="0 0 32 32">
<path fill-rule="nonzero" fill="rgb(99.215686%, 70.980392%, 8.235294%)" fill-opacity="1" d="M 7.382812 1.015625 C 5.828125 1.949219 4.4375 3.125 3.277344 4.496094 L 5.054688 6.449219 C 6.355469 4.820312 8.007812 3.507812 9.890625 2.605469 Z M 24.753906 1.128906 L 22.097656 2.625 C 24.070312 3.574219 25.789062 4.976562 27.113281 6.71875 L 28.6875 4.511719 C 27.5625 3.183594 26.234375 2.042969 24.753906 1.128906 Z M 16 2.132812 C 14.097656 2.132812 12.21875 2.546875 10.492188 3.347656 L 11.28125 4.695312 C 12.761719 4.023438 14.371094 3.675781 16 3.679688 C 17.683594 3.679688 19.277344 4.042969 20.714844 4.691406 L 21.5 3.34375 C 19.777344 2.546875 17.898438 2.132812 16 2.132812 Z M 15.199219 4.714844 L 14.464844 13.546875 L 14.46875 13.546875 L 14.46875 13.601562 C 14.472656 13.75 14.484375 13.890625 14.511719 14.023438 C 14.523438 14.175781 14.570312 14.328125 14.640625 14.480469 C 14.792969 14.867188 15.039062 15.15625 15.328125 15.289062 C 15.394531 15.34375 15.46875 15.390625 15.539062 15.4375 C 15.554688 15.449219 15.570312 15.457031 15.585938 15.464844 L 15.585938 15.46875 L 24.492188 20.265625 L 24.953125 19.628906 L 16.878906 13.496094 C 16.867188 13.496094 16.863281 13.492188 16.859375 13.488281 L 16 4.714844 Z M 17.097656 4.78125 C 17.351562 5.09375 17.578125 5.480469 17.765625 5.921875 C 21.972656 6.726562 25.152344 10.355469 25.152344 14.71875 C 25.152344 15.886719 24.917969 17 24.507812 18.023438 C 24.78125 18.332031 25.011719 18.671875 25.203125 19.039062 C 25.863281 17.695312 26.207031 16.214844 26.207031 14.71875 C 26.207031 9.558594 22.21875 5.316406 17.097656 4.785156 Z M 14.050781 4.910156 C 9.347656 5.796875 5.796875 9.851562 5.796875 14.71875 C 5.796875 18.164062 7.578125 21.203125 10.289062 22.996094 C 10.40625 22.660156 10.535156 22.332031 10.679688 22.007812 C 8.363281 20.382812 6.847656 17.722656 6.847656 14.71875 C 6.847656 10.644531 9.625 7.207031 13.425781 6.117188 C 13.597656 5.648438 13.8125 5.242188 14.050781 4.910156 Z M 26.253906 7.144531 L 25.183594 8.332031 C 26.53125 10.183594 27.253906 12.414062 27.253906 14.703125 C 27.253906 18.589844 25.195312 22.011719 22.089844 23.972656 C 22.226562 24.488281 22.339844 25.027344 22.425781 25.585938 C 26.25 23.40625 28.828125 19.347656 28.828125 14.703125 C 28.832031 11.96875 27.929688 9.308594 26.253906 7.144531 Z M 5.746094 7.152344 C 4.074219 9.316406 3.167969 11.972656 3.171875 14.707031 C 3.171875 19.382812 5.777344 23.460938 9.648438 25.625 C 9.734375 25.066406 9.839844 24.53125 9.980469 24.015625 C 6.832031 22.058594 4.75 18.625 4.75 14.707031 C 4.75 12.335938 5.511719 10.144531 6.816406 8.34375 Z M 18.164062 7.210938 C 18.222656 7.480469 18.269531 7.765625 18.308594 8.0625 C 20.21875 8.691406 21.777344 10.101562 22.589844 11.945312 L 23.359375 11.746094 C 22.414062 9.519531 20.5 7.847656 18.164062 7.210938 Z M 13.074219 7.457031 C 11.085938 8.226562 9.492188 9.761719 8.652344 11.722656 L 9.425781 11.921875 C 10.128906 10.332031 11.390625 9.0625 12.972656 8.34375 C 12.996094 8.039062 13.027344 7.742188 13.074219 7.457031 Z M 8.976562 12.894531 L 8.152344 13.734375 L 8.570312 14.554688 L 10.875 15.378906 L 12.128906 14.554688 L 11.714844 13.324219 Z M 23.128906 12.894531 L 20.398438 13.324219 L 19.980469 14.554688 L 21.234375 15.378906 L 23.542969 14.554688 L 23.960938 13.734375 Z M 8.132812 15.824219 C 8.441406 17.871094 9.554688 19.710938 11.226562 20.933594 C 11.359375 20.707031 11.5 20.488281 11.648438 20.277344 C 10.199219 19.195312 9.226562 17.601562 8.929688 15.824219 Z M 23.074219 15.824219 C 23.035156 16.066406 22.980469 16.296875 22.917969 16.53125 C 23.148438 16.714844 23.367188 16.894531 23.574219 17.078125 C 23.703125 16.675781 23.808594 16.253906 23.867188 15.824219 Z M 2.167969 16.113281 L 0 18.878906 C 1.289062 23.757812 4.851562 27.742188 9.507812 29.691406 C 9.460938 29.234375 9.441406 28.777344 9.441406 28.316406 C 9.441406 27.816406 9.464844 27.320312 9.507812 26.835938 C 5.476562 24.753906 2.621094 20.777344 2.167969 16.113281 Z M 29.777344 16.1875 C 29.308594 20.789062 26.492188 24.714844 22.523438 26.796875 C 22.566406 27.296875 22.589844 27.804688 22.59375 28.3125 C 22.59375 28.816406 22.570312 29.257812 22.527344 29.652344 C 27.203125 27.667969 30.761719 23.621094 32 18.6875 Z M 21.054688 19.675781 C 20.847656 19.875 20.632812 20.0625 20.40625 20.238281 C 20.550781 20.449219 20.695312 20.667969 20.828125 20.894531 C 21.183594 20.628906 21.511719 20.335938 21.816406 20.015625 C 21.558594 19.910156 21.304688 19.796875 21.054688 19.675781 Z M 23.054688 20.421875 C 22.566406 21.003906 22.007812 21.519531 21.390625 21.964844 C 21.53125 22.277344 21.664062 22.609375 21.78125 22.953125 C 22.734375 22.308594 23.570312 21.511719 24.257812 20.589844 C 23.851562 20.585938 23.449219 20.53125 23.058594 20.421875 Z M 19.070312 21.261719 L 16 22.480469 L 12.925781 21.265625 L 12.144531 23.179688 L 15.40625 24.441406 C 15.226562 25.054688 14.648438 25.503906 13.964844 25.503906 C 13.921875 25.503906 13.875 25.5 13.828125 25.496094 L 13.160156 26.410156 C 13.410156 26.496094 13.679688 26.539062 13.960938 26.539062 C 14.789062 26.539062 15.519531 26.152344 15.988281 25.554688 C 16.675781 26.433594 17.851562 26.769531 18.898438 26.382812 L 18.246094 25.488281 C 17.492188 25.609375 16.769531 25.148438 16.566406 24.414062 L 19.859375 23.179688 Z M 20.613281 27.628906 C 19.160156 28.132812 17.605469 28.402344 15.980469 28.402344 C 14.417969 28.402344 12.925781 28.15625 11.523438 27.691406 C 11.832031 28.863281 12.3125 29.894531 12.925781 30.707031 C 13.914062 30.886719 14.9375 30.984375 15.984375 30.984375 C 17.097656 30.984375 18.183594 30.875 19.234375 30.667969 C 19.835938 29.855469 20.308594 28.816406 20.613281 27.628906 Z M 20.613281 27.628906 "/>
</svg>
