<?xml version="1.0" encoding="UTF-8"?>
<svg xmlns="http://www.w3.org/2000/svg" xmlns:xlink="http://www.w3.org/1999/xlink" width="37.333" height="32" viewBox="0 0 37.333 32">
<path fill="none" stroke-width="28.448" stroke-linecap="round" stroke-linejoin="round" stroke="rgb(64.313728%, 64.313728%, 64.313728%)" stroke-opacity="1" stroke-miterlimit="4" d="M 106.65625 241.78125 L 29.1875 203.03125 C 24.375 200.625 21.3125 195.6875 21.34375 190.3125 L 21.34375 37.21875 C 21.34375 26.65625 32.46875 19.78125 41.90625 24.5 L 106.65625 56.875 M 106.65625 241.78125 L 192 199.125 M 106.65625 241.78125 L 106.65625 56.84375 M 192 199.09375 L 256.75 231.5 C 261.1875 233.6875 266.40625 233.4375 270.59375 230.8125 C 274.78125 228.21875 277.34375 223.65625 277.34375 218.71875 L 277.34375 65.6875 C 277.34375 60.3125 274.28125 55.375 269.46875 52.96875 L 192 14.21875 M 192 199.125 L 192 14.21875 M 192 14.21875 L 106.65625 56.875 " transform="matrix(0.125, 0, 0, 0.125, 0, 0)"/>
</svg>
