<svg role="img" viewBox="0 0 32 32" height="32" width="32" xmlns="http://www.w3.org/2000/svg"><path d="M7.68 0c-.7 0-1.282.578-1.282 1.281V2.56h-3.84c-.742 0-1.277.539-1.277 1.28v4.48H30.72V3.84c0-.742-.535-1.281-1.278-1.281h-3.84V1.28A1.29 1.29 0 0 0 24.322 0H23.04c-.7 0-1.277.578-1.277 1.281V2.56H10.238V1.28C10.238.578 9.66 0 8.961 0Zm0 1.281h1.28v3.84H7.68Zm15.36 0h1.28v3.84h-1.28ZM1.28 9.601v19.84c0 .707.57 1.278 1.278 1.278H29.44c.707 0 1.278-.57 1.278-1.278V9.601Zm19.649 3.711 1.074.692-6.375 9.894-5.012-4.535.86-.949 3.894 3.523Zm0 0"/></svg>