<?xml version="1.0" encoding="UTF-8"?>
<svg xmlns="http://www.w3.org/2000/svg" xmlns:xlink="http://www.w3.org/1999/xlink" width="32" height="32" viewBox="0 0 32 32">
<path fill-rule="nonzero" fill="rgb(0%, 0%, 0%)" fill-opacity="1" d="M 8.800781 11.601562 C 6.371094 11.605469 4.402344 13.570312 4.398438 16 C 4.402344 18.429688 6.371094 20.398438 8.800781 20.398438 C 11.230469 20.394531 13.195312 18.425781 13.199219 16 C 13.195312 13.570312 11.230469 11.605469 8.800781 11.601562 M 8.800781 19.601562 C 6.8125 19.597656 5.203125 17.988281 5.199219 16 C 5.203125 14.011719 6.8125 12.402344 8.800781 12.398438 C 10.789062 12.402344 12.398438 14.011719 12.398438 16 C 12.398438 17.988281 10.789062 19.597656 8.800781 19.601562 M 22.683594 13.316406 C 22.609375 13.242188 22.507812 13.199219 22.402344 13.199219 C 22.292969 13.199219 22.191406 13.242188 22.117188 13.316406 L 20 15.433594 L 17.882812 13.316406 C 17.726562 13.164062 17.476562 13.167969 17.324219 13.324219 C 17.167969 13.476562 17.164062 13.726562 17.316406 13.882812 L 19.433594 16 L 17.316406 18.117188 C 17.160156 18.273438 17.160156 18.527344 17.316406 18.683594 C 17.472656 18.839844 17.726562 18.839844 17.882812 18.683594 L 20 16.566406 L 22.117188 18.683594 C 22.191406 18.757812 22.292969 18.800781 22.398438 18.800781 C 22.507812 18.800781 22.609375 18.757812 22.683594 18.683594 C 22.757812 18.609375 22.800781 18.507812 22.800781 18.402344 C 22.800781 18.292969 22.757812 18.191406 22.683594 18.117188 L 20.566406 16 L 22.683594 13.882812 C 22.761719 13.808594 22.800781 13.707031 22.800781 13.597656 C 22.800781 13.492188 22.761719 13.390625 22.683594 13.316406 M 23.199219 8.800781 L 8.800781 8.800781 C 4.832031 8.800781 1.601562 12.03125 1.601562 16 C 1.601562 19.96875 4.832031 23.199219 8.800781 23.199219 L 23.199219 23.199219 C 27.167969 23.199219 30.398438 19.96875 30.398438 16 C 30.398438 12.03125 27.167969 8.800781 23.199219 8.800781 M 23.199219 21.601562 L 8.800781 21.601562 C 5.707031 21.597656 3.203125 19.09375 3.199219 16 C 3.203125 12.90625 5.707031 10.402344 8.800781 10.398438 L 23.199219 10.398438 C 26.292969 10.402344 28.796875 12.90625 28.800781 16 C 28.796875 19.09375 26.292969 21.597656 23.199219 21.601562 "/>
</svg>
