<?xml version="1.0" encoding="UTF-8"?>
<svg xmlns="http://www.w3.org/2000/svg" xmlns:xlink="http://www.w3.org/1999/xlink" width="32" height="32" viewBox="0 0 32 32">
<path fill-rule="nonzero" fill="rgb(0%, 0%, 0%)" fill-opacity="1" d="M 23.199219 11.601562 C 20.769531 11.605469 18.804688 13.570312 18.800781 16 C 18.804688 18.429688 20.769531 20.394531 23.199219 20.398438 C 25.628906 20.394531 27.597656 18.429688 27.601562 16 C 27.597656 13.570312 25.628906 11.601562 23.199219 11.601562 M 23.199219 19.601562 C 21.210938 19.601562 19.597656 17.988281 19.597656 16 C 19.597656 14.011719 21.210938 12.398438 23.199219 12.398438 C 25.1875 12.402344 26.796875 14.011719 26.800781 16 C 26.796875 17.988281 25.1875 19.597656 23.199219 19.601562 M 14.917969 13.316406 L 10.398438 17.832031 L 8.28125 15.714844 C 8.125 15.566406 7.875 15.570312 7.722656 15.722656 C 7.570312 15.875 7.566406 16.125 7.714844 16.28125 L 10.117188 18.683594 C 10.191406 18.757812 10.292969 18.800781 10.398438 18.800781 C 10.503906 18.800781 10.605469 18.757812 10.679688 18.683594 L 15.480469 13.882812 C 15.621094 13.726562 15.613281 13.484375 15.464844 13.335938 C 15.316406 13.1875 15.078125 13.175781 14.917969 13.316406 M 23.199219 8.800781 L 8.800781 8.800781 C 4.832031 8.800781 1.601562 12.03125 1.601562 16 C 1.601562 19.96875 4.832031 23.199219 8.800781 23.199219 L 23.199219 23.199219 C 27.167969 23.199219 30.398438 19.96875 30.398438 16 C 30.398438 12.03125 27.167969 8.800781 23.199219 8.800781 M 23.199219 21.601562 L 8.800781 21.601562 C 5.707031 21.601562 3.199219 19.09375 3.199219 16 C 3.199219 12.90625 5.707031 10.398438 8.800781 10.398438 L 23.199219 10.398438 C 26.292969 10.398438 28.800781 12.90625 28.800781 16 C 28.800781 19.09375 26.292969 21.601562 23.199219 21.601562 "/>
</svg>
