<svg role="img" viewBox="0 0 32 32" xmlns="http://www.w3.org/2000/svg"><path d="M23.2 11.602A4.403 4.403 0 0 0 18.8 16a4.403 4.403 0 0 0 4.4 4.398A4.406 4.406 0 0 0 27.601 16a4.404 4.404 0 0 0-4.403-4.398m0 8a3.602 3.602 0 0 1 0-7.204A3.61 3.61 0 0 1 26.801 16a3.61 3.61 0 0 1-3.602 3.602m-8.281-6.286-4.52 4.516-2.117-2.117a.4.4 0 0 0-.558.008.4.4 0 0 0-.008.558l2.402 2.403a.4.4 0 0 0 .563 0l4.8-4.801a.4.4 0 0 0-.562-.567m8.281-4.515H8.801C4.832 8.8 1.6 12.03 1.6 16s3.231 7.2 7.2 7.2h14.398c3.969 0 7.2-3.231 7.2-7.2s-3.231-7.2-7.2-7.2m0 12.802H8.801A5.606 5.606 0 0 1 3.199 16a5.606 5.606 0 0 1 5.602-5.602h14.398A5.606 5.606 0 0 1 28.801 16a5.606 5.606 0 0 1-5.602 5.602" fill="rgb(0%, 0%, 0%)"/></svg>