<svg role="img" viewBox="0 0 32 32" xmlns="http://www.w3.org/2000/svg"><path d="M8.8 11.602A4.406 4.406 0 0 0 4.399 16a4.404 4.404 0 0 0 4.403 4.398A4.405 4.405 0 0 0 13.199 16a4.403 4.403 0 0 0-4.398-4.398m0 8A3.61 3.61 0 0 1 5.199 16a3.61 3.61 0 0 1 3.602-3.602 3.602 3.602 0 0 1 0 7.204m13.883-6.286a.4.4 0 0 0-.567 0L20 15.434l-2.117-2.118a.395.395 0 0 0-.559.008.395.395 0 0 0-.008.559L19.434 16l-2.118 2.117a.4.4 0 0 0 .567.567L20 16.566l2.117 2.118a.4.4 0 0 0 .684-.282.4.4 0 0 0-.117-.285L20.566 16l2.118-2.117a.4.4 0 0 0 .117-.285.38.38 0 0 0-.117-.282m.515-4.515H8.801C4.832 8.8 1.6 12.03 1.6 16s3.231 7.2 7.2 7.2h14.398c3.969 0 7.2-3.231 7.2-7.2s-3.231-7.2-7.2-7.2m0 12.802H8.801A5.606 5.606 0 0 1 3.199 16a5.606 5.606 0 0 1 5.602-5.602h14.398A5.606 5.606 0 0 1 28.801 16a5.606 5.606 0 0 1-5.602 5.602"/></svg>