<svg role="img" viewBox="0 0 32 32" height="32" width="32" xmlns="http://www.w3.org/2000/svg"><path d="M8.8 11.602A4.406 4.406 0 0 0 4.399 16a4.404 4.404 0 0 0 4.403 4.398A4.405 4.405 0 0 0 13.199 16a4.403 4.403 0 0 0-4.398-4.398m0 8A3.608 3.608 0 0 1 5.199 16a3.608 3.608 0 0 1 3.602-3.602 3.604 3.604 0 0 1 0 7.204m13.883-6.286a.4.4 0 0 0-.567 0L20 15.434l-2.117-2.118a.396.396 0 0 0-.281-.113.405.405 0 0 0-.399.399c0 .105.04.207.113.28L19.434 16l-2.118 2.117a.4.4 0 0 0 .567.567L20 16.566l2.117 2.118a.398.398 0 0 0 .676-.204.401.401 0 0 0-.11-.363L20.567 16l2.118-2.117a.409.409 0 0 0 .117-.285.37.37 0 0 0-.117-.282m.515-4.515H8.801C4.832 8.8 1.6 12.03 1.6 16s3.231 7.2 7.2 7.2h14.398c3.969 0 7.2-3.231 7.2-7.2 0-3.969-3.231-7.2-7.2-7.2m0 12.802H8.801a5.601 5.601 0 1 1 0-11.204h14.398a5.601 5.601 0 1 1 0 11.204"/></svg>