<?xml version="1.0" encoding="UTF-8"?>
<svg xmlns="http://www.w3.org/2000/svg" xmlns:xlink="http://www.w3.org/1999/xlink" width="32" height="32" viewBox="0 0 32 32">
<path fill-rule="nonzero" fill="rgb(100%, 79.215686%, 15.686275%)" fill-opacity="1" d="M 0.332031 25.667969 C 0.332031 25.667969 6 14 18 12 C 22.667969 18 28.667969 24.667969 28.667969 24.667969 C 28.667969 24.667969 31.667969 24.332031 31.667969 26.332031 C 29.667969 26.332031 28.332031 26.332031 28.332031 26.332031 C 10.332031 17 3.597656 20.214844 3.667969 25.667969 Z M 0.332031 25.667969 "/>
<path fill-rule="nonzero" fill="rgb(12.941176%, 12.941176%, 12.941176%)" fill-opacity="1" d="M 32 26.667969 L 28.253906 26.667969 L 28.179688 26.628906 C 13.957031 19.253906 8.203125 20.390625 6.039062 21.726562 C 4.683594 22.5625 3.976562 23.921875 4 25.660156 L 4.003906 26 L -0.199219 26 L 0.0351562 25.519531 C 0.0898438 25.402344 5.914062 13.675781 17.945312 11.671875 L 18.140625 11.636719 L 18.261719 11.796875 C 22.523438 17.273438 27.96875 23.386719 28.804688 24.320312 C 29.289062 24.292969 30.644531 24.285156 31.425781 24.984375 C 31.804688 25.324219 32 25.78125 32 26.332031 Z M 28.414062 26 L 31.292969 26 C 31.242188 25.792969 31.136719 25.625 30.980469 25.480469 C 30.261719 24.835938 28.71875 24.996094 28.703125 24.996094 L 28.535156 25.015625 L 28.417969 24.890625 C 28.359375 24.824219 22.460938 18.261719 17.859375 12.363281 C 7.675781 14.160156 2.105469 23.148438 0.886719 25.332031 L 3.335938 25.332031 C 3.402344 23.507812 4.210938 22.066406 5.6875 21.15625 C 9.621094 18.734375 17.691406 20.453125 28.414062 26 Z M 28.414062 26 "/>
<path fill-rule="nonzero" fill="rgb(12.941176%, 12.941176%, 12.941176%)" fill-opacity="1" d="M 14.667969 24.667969 L 11.558594 24.667969 L 11.46875 24.601562 C 11.050781 24.296875 1.273438 17.039062 4.035156 11.515625 C 5.265625 9.058594 7.601562 9.207031 9 9.300781 C 9.246094 9.320312 9.472656 9.332031 9.667969 9.332031 L 9.667969 10 C 9.457031 10 9.21875 9.984375 8.957031 9.96875 C 7.570312 9.875 5.664062 9.75 4.632812 11.816406 C 2.25 16.582031 10.816406 23.269531 11.777344 24 L 13.953125 24 C 13.898438 23.835938 13.800781 23.707031 13.660156 23.605469 C 13.28125 23.34375 12.632812 23.351562 12.230469 23.507812 L 11.988281 23.597656 L 11.839844 23.386719 C 9.867188 20.605469 11.296875 17.023438 11.359375 16.875 L 11.976562 17.125 C 11.960938 17.160156 10.695312 20.34375 12.25 22.804688 C 12.804688 22.671875 13.53125 22.710938 14.035156 23.058594 C 14.324219 23.253906 14.667969 23.636719 14.667969 24.332031 Z M 14.667969 24.667969 "/>
<path fill-rule="nonzero" fill="rgb(100%, 87.843137%, 50.980392%)" fill-opacity="1" d="M 29 4.332031 C 27.527344 5.386719 26.332031 6.332031 26.332031 7.667969 C 25.25 7.25 24.4375 7.105469 23.0625 7.09375 C 21.5625 7.082031 20.75 7.25 19.667969 7.667969 C 19.667969 6.332031 18.582031 5.417969 17 4.332031 C 15 16.332031 23 19.667969 23 19.667969 C 23 19.667969 31 16.332031 29 4.332031 Z M 29 4.332031 "/>
<path fill-rule="nonzero" fill="rgb(12.941176%, 12.941176%, 12.941176%)" fill-opacity="1" d="M 23 20.027344 L 22.871094 19.976562 C 22.789062 19.941406 14.652344 16.398438 16.671875 4.277344 L 16.757812 3.761719 L 17.1875 4.058594 C 18.519531 4.96875 19.726562 5.898438 19.960938 7.207031 C 20.957031 6.863281 21.761719 6.742188 23.066406 6.761719 C 24.292969 6.769531 25.101562 6.886719 26.039062 7.207031 C 26.265625 5.976562 27.386719 5.078125 28.804688 4.0625 L 29.238281 3.75 L 29.328125 4.277344 C 31.347656 16.398438 23.210938 19.941406 23.128906 19.976562 Z M 17.246094 4.910156 C 15.722656 15.390625 21.980469 18.816406 23 19.300781 C 24.019531 18.816406 30.273438 15.394531 28.753906 4.925781 C 27.542969 5.820312 26.667969 6.628906 26.667969 7.667969 L 26.667969 8.152344 L 26.214844 7.976562 C 25.15625 7.570312 24.390625 7.4375 23.058594 7.425781 C 21.550781 7.40625 20.757812 7.605469 19.785156 7.976562 L 19.332031 8.152344 L 19.332031 7.667969 C 19.332031 6.648438 18.601562 5.882812 17.246094 4.910156 Z M 17.246094 4.910156 "/>
<path fill-rule="nonzero" fill="rgb(12.941176%, 12.941176%, 12.941176%)" fill-opacity="1" d="M 14 10.667969 C 11.332031 12 8.875 11.679688 9.363281 9.75 C 9.832031 7.832031 12.667969 9.332031 14 10.667969 Z M 14 10.667969 "/>
<path fill-rule="nonzero" fill="rgb(12.941176%, 12.941176%, 12.941176%)" fill-opacity="1" d="M 10 17.332031 L 9.332031 15.332031 L 8.457031 16.269531 Z M 10 17.332031 "/>
<path fill-rule="nonzero" fill="rgb(12.941176%, 12.941176%, 12.941176%)" fill-opacity="1" d="M 10.25 14.917969 L 12.667969 16 L 11.667969 14.230469 Z M 10.25 14.917969 "/>
<path fill-rule="nonzero" fill="rgb(12.941176%, 12.941176%, 12.941176%)" fill-opacity="1" d="M 12 14 L 15.332031 16 L 14.230469 13.019531 Z M 12 14 "/>
<path fill-rule="nonzero" fill="rgb(12.941176%, 12.941176%, 12.941176%)" fill-opacity="1" d="M 24.480469 19.917969 L 23.332031 21.332031 L 25.332031 20.667969 Z M 24.480469 19.917969 "/>
<path fill-rule="nonzero" fill="rgb(12.941176%, 12.941176%, 12.941176%)" fill-opacity="1" d="M 25.332031 21.332031 L 24 22.667969 L 26 22 Z M 25.332031 21.332031 "/>
<path fill-rule="nonzero" fill="rgb(12.941176%, 12.941176%, 12.941176%)" fill-opacity="1" d="M 16.917969 10.5625 L 18.667969 11.332031 L 17.082031 11.582031 Z M 16.917969 10.5625 "/>
<path fill-rule="nonzero" fill="rgb(12.941176%, 12.941176%, 12.941176%)" fill-opacity="1" d="M 17.292969 12.394531 L 18.605469 12.730469 L 17.457031 13.125 Z M 17.292969 12.394531 "/>
<path fill-rule="nonzero" fill="rgb(12.941176%, 12.941176%, 12.941176%)" fill-opacity="1" d="M 29.332031 10.5625 L 27.332031 11.332031 L 29.167969 11.582031 Z M 29.332031 10.5625 "/>
<path fill-rule="nonzero" fill="rgb(12.941176%, 12.941176%, 12.941176%)" fill-opacity="1" d="M 28.957031 12.394531 L 27.332031 12.667969 L 28.792969 13.125 Z M 28.957031 12.394531 "/>
<path fill-rule="nonzero" fill="rgb(12.941176%, 12.941176%, 12.941176%)" fill-opacity="1" d="M 18.917969 8.332031 C 18.917969 8.332031 17.480469 7.832031 17.125 4.5 C 17.75 4.980469 19.925781 6.800781 19.90625 7.925781 C 19.15625 8.21875 18.917969 8.332031 18.917969 8.332031 Z M 18.917969 8.332031 "/>
<path fill-rule="nonzero" fill="rgb(12.941176%, 12.941176%, 12.941176%)" fill-opacity="1" d="M 27.089844 8.332031 C 27.089844 8.332031 28.527344 7.832031 28.882812 4.5 C 28.257812 4.980469 26.082031 6.800781 26.101562 7.925781 C 26.851562 8.21875 27.089844 8.332031 27.089844 8.332031 Z M 27.089844 8.332031 "/>
<path fill-rule="nonzero" fill="rgb(12.941176%, 12.941176%, 12.941176%)" fill-opacity="1" d="M 7.625 20.644531 C 7.625 20.644531 9.585938 20.082031 11.125 20.394531 C 11.292969 21.4375 11.375 22.5625 12.269531 23.25 C 12.980469 23.105469 14.1875 22.917969 14.417969 24.3125 C 13.542969 24.292969 11.8125 24.355469 11.8125 24.355469 C 11.8125 24.355469 8.667969 22.230469 7.625 20.644531 Z M 7.625 20.644531 "/>
<path fill-rule="nonzero" fill="rgb(12.941176%, 12.941176%, 12.941176%)" fill-opacity="1" d="M 21.207031 13.902344 L 20.914062 13.742188 C 21.523438 12.628906 21.832031 11.621094 21.832031 10.75 C 21.832031 10.085938 21.644531 9.679688 21.28125 9.546875 C 20.703125 9.339844 19.832031 9.832031 19.460938 10.277344 L 19.203125 10.066406 C 19.640625 9.542969 20.644531 8.960938 21.394531 9.234375 C 21.746094 9.363281 22.164062 9.730469 22.164062 10.75 C 22.164062 11.675781 21.84375 12.738281 21.207031 13.902344 Z M 21.207031 13.902344 "/>
<path fill-rule="nonzero" fill="rgb(12.941176%, 12.941176%, 12.941176%)" fill-opacity="1" d="M 20.332031 11.5 L 26.332031 11.5 L 26.332031 11.832031 L 20.332031 11.832031 Z M 20.332031 11.5 "/>
<path fill-rule="nonzero" fill="rgb(12.941176%, 12.941176%, 12.941176%)" fill-opacity="1" d="M 16.667969 14.167969 L 20 14.167969 L 20 14.5 L 16.667969 14.5 Z M 16.667969 14.167969 "/>
<path fill-rule="nonzero" fill="rgb(12.941176%, 12.941176%, 12.941176%)" fill-opacity="1" d="M 16.667969 15.5 L 20 15.5 L 20 15.832031 L 16.667969 15.832031 Z M 16.667969 15.5 "/>
<path fill-rule="nonzero" fill="rgb(12.941176%, 12.941176%, 12.941176%)" fill-opacity="1" d="M 26 14.167969 L 29.332031 14.167969 L 29.332031 14.5 L 26 14.5 Z M 26 14.167969 "/>
<path fill-rule="nonzero" fill="rgb(12.941176%, 12.941176%, 12.941176%)" fill-opacity="1" d="M 26 15.5 L 29.332031 15.5 L 29.332031 15.832031 L 26 15.832031 Z M 26 15.5 "/>
<path fill-rule="nonzero" fill="rgb(12.941176%, 12.941176%, 12.941176%)" fill-opacity="1" d="M 21.070312 13.875 L 21.066406 13.542969 L 24.996094 13.5 L 25.003906 13.832031 Z M 21.070312 13.875 "/>
<path fill-rule="nonzero" fill="rgb(12.941176%, 12.941176%, 12.941176%)" fill-opacity="1" d="M 24.761719 13.847656 C 24.734375 13.777344 24.148438 12.117188 24.90625 11.035156 C 25.3125 10.460938 26.015625 10.164062 27 10.164062 L 27 10.5 C 26.128906 10.5 25.519531 10.742188 25.179688 11.226562 C 24.519531 12.167969 25.070312 13.71875 25.074219 13.734375 Z M 24.761719 13.847656 "/>
<path fill-rule="nonzero" fill="rgb(12.941176%, 12.941176%, 12.941176%)" fill-opacity="1" d="M 20.894531 13.796875 L 21.101562 13.535156 L 24.4375 16.203125 L 24.226562 16.460938 Z M 20.894531 13.796875 "/>
<path fill-rule="nonzero" fill="rgb(12.941176%, 12.941176%, 12.941176%)" fill-opacity="1" d="M 21.5625 16.203125 L 24.894531 13.535156 L 25.105469 13.796875 L 21.769531 16.464844 Z M 21.5625 16.203125 "/>
<path fill-rule="nonzero" fill="rgb(12.941176%, 12.941176%, 12.941176%)" fill-opacity="1" d="M 22 7.332031 L 23.332031 10 L 24 7.332031 Z M 22 7.332031 "/>
</svg>
