<svg role="img" viewBox="0 0 32 32" height="32" width="32" xmlns="http://www.w3.org/2000/svg"><path d="M18.8 11.223a4.684 4.684 0 0 0-2.796-.926 4.622 4.622 0 0 0-3.168 1.238 4.624 4.624 0 0 0-1.516 3.438c0 .699.157 1.363.43 1.953a4.677 4.677 0 0 0 8.898-1.395 4.697 4.697 0 0 0-1.847-4.308m-2.328 14.73v-5.379c-.16.02-.317.024-.47.024-.16 0-.316-.004-.472-.024v5.38a2.582 2.582 0 0 0-2.11 2.53 2.583 2.583 0 0 0 2.583 2.575 2.574 2.574 0 0 0 .469-5.106m11.011-11.797a2.594 2.594 0 0 0-2.523 2.031l-3.387-.515a4.997 4.997 0 0 1-.191.926l3.562.543a2.57 2.57 0 0 0 2.817 2.148 2.569 2.569 0 0 0 2.293-2.695 2.567 2.567 0 0 0-2.57-2.438M7.687 7.914c.417 0 .828-.101 1.18-.285l2.753 3.824a5.75 5.75 0 0 1 .582-.617l.082-.07L9.602 7.05c.675-.758.847-1.84.433-2.766a2.575 2.575 0 0 0-2.351-1.523A2.572 2.572 0 0 0 5.18 5.336a2.58 2.58 0 0 0 2.504 2.578m11.652 2.531 3.082-4.515c.281.105.578.16.875.16a2.575 2.575 0 0 0 2.578-2.574 2.578 2.578 0 0 0-5.152 0c0 .77.344 1.464.883 1.933l-3.079 4.504c.274.137.551.3.813.492m-8.445 6.88-4.305 1.984a2.552 2.552 0 0 0-2.07-1.055 2.587 2.587 0 0 0-2.575 2.574 2.575 2.575 0 0 0 2.575 2.504 2.576 2.576 0 0 0 2.578-2.504c0-.234-.032-.457-.094-.672l4.36-2.015a5.816 5.816 0 0 1-.47-.817m0 0"/></svg>