<svg role="img" viewBox="0 0 32 32" xmlns="http://www.w3.org/2000/svg"><path d="M18.8 11.223a4.7 4.7 0 0 0-2.796-.926 4.62 4.62 0 0 0-3.168 1.238 4.64 4.64 0 0 0-1.516 3.438c0 .699.157 1.363.43 1.953a4.677 4.677 0 0 0 8.898-1.395 4.69 4.69 0 0 0-1.847-4.308m-2.327 14.73v-5.379c-.16.02-.317.024-.47.024-.16 0-.316-.004-.472-.024v5.38a2.575 2.575 0 0 0-2.11 2.53 2.583 2.583 0 0 0 2.583 2.575 2.58 2.58 0 0 0 2.574-2.575c0-1.261-.91-2.308-2.105-2.53m11.011-11.797a2.59 2.59 0 0 0-2.523 2.031l-3.387-.515a5 5 0 0 1-.191.926l3.562.543a2.57 2.57 0 0 0 2.817 2.148 2.57 2.57 0 0 0 2.293-2.695 2.573 2.573 0 0 0-2.57-2.438m-19.8-6.242c.421 0 .828-.101 1.18-.285l2.757 3.824q.265-.332.582-.617c.031-.024.055-.047.082-.07L9.602 7.05c.41-.453.656-1.055.656-1.715a2.576 2.576 0 0 0-2.574-2.574A2.575 2.575 0 0 0 5.18 5.336a2.58 2.58 0 0 0 2.504 2.578m11.652 2.531 3.082-4.515c.281.105.578.16.875.16a2.577 2.577 0 0 0 2.578-2.574 2.576 2.576 0 0 0-2.578-2.504 2.575 2.575 0 0 0-2.574 2.504c0 .77.343 1.464.883 1.933l-3.079 4.504c.274.137.551.3.813.492m-8.445 6.88-4.305 1.984a2.55 2.55 0 0 0-2.07-1.055 2.584 2.584 0 0 0-2.575 2.574 2.577 2.577 0 0 0 5.152 0q0-.35-.093-.672l4.36-2.015a6 6 0 0 1-.47-.817m0 0" fill="rgb(0%, 0%, 0%)"/></svg>