<?xml version="1.0" encoding="UTF-8"?>
<svg xmlns="http://www.w3.org/2000/svg" xmlns:xlink="http://www.w3.org/1999/xlink" width="32" height="32" viewBox="0 0 32 32">
<path fill-rule="nonzero" fill="rgb(100%, 100%, 100%)" fill-opacity="1" d="M 18.800781 11.222656 C 17.992188 10.621094 17.011719 10.296875 16.003906 10.296875 C 14.828125 10.292969 13.695312 10.734375 12.835938 11.535156 C 11.867188 12.417969 11.320312 13.664062 11.320312 14.972656 C 11.320312 15.671875 11.476562 16.335938 11.75 16.925781 C 12.550781 18.671875 14.335938 19.75 16.257812 19.648438 C 18.175781 19.542969 19.835938 18.277344 20.441406 16.453125 C 20.539062 16.152344 20.609375 15.84375 20.648438 15.53125 C 20.847656 13.867188 20.140625 12.226562 18.800781 11.222656 Z M 16.472656 25.953125 L 16.472656 20.574219 C 16.3125 20.59375 16.15625 20.597656 16.003906 20.597656 C 15.84375 20.597656 15.6875 20.59375 15.53125 20.574219 L 15.53125 25.953125 C 14.308594 26.179688 13.421875 27.242188 13.421875 28.484375 C 13.425781 29.90625 14.582031 31.058594 16.003906 31.058594 C 17.425781 31.054688 18.574219 29.902344 18.578125 28.484375 C 18.578125 27.222656 17.667969 26.175781 16.472656 25.953125 Z M 27.484375 14.15625 C 26.269531 14.15625 25.222656 15.003906 24.960938 16.1875 L 21.574219 15.671875 C 21.539062 15.984375 21.476562 16.296875 21.382812 16.597656 L 24.945312 17.140625 C 25.164062 18.492188 26.398438 19.4375 27.761719 19.289062 C 29.121094 19.144531 30.128906 17.960938 30.054688 16.59375 C 29.984375 15.226562 28.851562 14.15625 27.484375 14.15625 Z M 7.683594 7.914062 C 8.105469 7.914062 8.511719 7.8125 8.863281 7.628906 L 11.621094 11.453125 C 11.796875 11.230469 11.992188 11.027344 12.203125 10.835938 C 12.234375 10.8125 12.257812 10.789062 12.285156 10.765625 L 9.601562 7.050781 C 10.011719 6.597656 10.257812 5.996094 10.257812 5.335938 C 10.253906 3.914062 9.105469 2.761719 7.683594 2.761719 C 6.289062 2.800781 5.179688 3.941406 5.179688 5.335938 C 5.179688 6.730469 6.289062 7.875 7.683594 7.914062 Z M 19.335938 10.445312 L 22.417969 5.929688 C 22.699219 6.035156 22.996094 6.089844 23.292969 6.089844 C 24.714844 6.089844 25.871094 4.9375 25.871094 3.515625 C 25.832031 2.121094 24.691406 1.011719 23.292969 1.011719 C 21.898438 1.011719 20.757812 2.121094 20.71875 3.515625 C 20.71875 4.285156 21.0625 4.980469 21.601562 5.449219 L 18.523438 9.953125 C 18.796875 10.089844 19.074219 10.253906 19.335938 10.445312 Z M 10.890625 17.324219 L 6.585938 19.308594 C 6.105469 18.644531 5.335938 18.253906 4.515625 18.253906 C 3.097656 18.257812 1.945312 19.410156 1.941406 20.828125 C 1.96875 22.230469 3.117188 23.355469 4.519531 23.355469 C 5.921875 23.355469 7.066406 22.230469 7.09375 20.828125 C 7.09375 20.59375 7.0625 20.371094 7 20.15625 L 11.359375 18.140625 C 11.183594 17.882812 11.027344 17.609375 10.890625 17.324219 Z M 10.890625 17.324219 "/>
</svg>
