<svg role="img" viewBox="0 0 32 32" height="32" width="32" xmlns="http://www.w3.org/2000/svg"><path d="M29.504 26.945c-.129 0-.258 0-.383.032l-2.402-4.832a2.546 2.546 0 0 0 .738-1.793 2.55 2.55 0 0 0-.61-1.665L28.93 15.2c.191.031.383.067.574.067 1.375 0 2.496-1.121 2.496-2.532 0-1.406-1.121-2.527-2.496-2.527-.77 0-1.473.352-1.918.93l-3.328-1.313v-.16c0-1.375-1.121-2.527-2.496-2.527-.32 0-.64.062-.899.191l-2.785-3.457c.274-.406.418-.883.418-1.375A2.496 2.496 0 0 0 16 0c-1.375 0-2.496 1.121-2.496 2.527 0 .383.098.739.223 1.059l-2.528 2.367c-.351-.226-.765-.32-1.215-.32-1.375 0-2.496 1.12-2.496 2.527 0 .703.29 1.344.735 1.793l-2.399 4.832c-.129-.031-.258-.031-.383-.031-.668 0-1.304.27-1.773.746a2.488 2.488 0 0 0-.723 1.781c0 .895.48 1.696 1.184 2.145l-1.793 7.52A2.551 2.551 0 0 0 0 29.472C0 30.848 1.121 32 2.496 32s2.496-1.121 2.496-2.527v-.032l4.512-1.539a2.427 2.427 0 0 0 2.016 1.028c.992 0 1.824-.578 2.242-1.41l4.285.64a2.485 2.485 0 0 0 4.64.77l4.352.832c.16 1.246 1.219 2.207 2.465 2.207 1.375 0 2.496-1.121 2.496-2.528 0-1.343-1.121-2.496-2.496-2.496m0 3.52c-.29 0-.543-.13-.734-.32a.897.897 0 0 1-.258-.641c0-.063 0-.129.031-.192.066-.289.25-.535.512-.671a1.04 1.04 0 0 1 .418-.098c.16 0 .289.031.414.098.32.16.547.48.547.863 0 .062 0 .129-.036.191a.995.995 0 0 1-.511.672c-.063.067-.223.098-.383.098m-8.574-1.856c-.14.063-.293.098-.45.094-.257 0-.511-.129-.703-.289-.16-.191-.289-.414-.289-.672v-.125a.927.927 0 0 1 .48-.707c.13-.094.321-.125.481-.125.285 0 .543.125.735.32a.882.882 0 0 1 .257.637c0 .067 0 .13-.035.195 0 .286-.191.512-.476.672m-8.961-1.343c-.13.093-.32.125-.48.125-.13 0-.223-.032-.321-.063a1.161 1.161 0 0 1-.383-.258.741.741 0 0 1-.226-.383.993.993 0 0 1-.063-.32c0-.16.031-.32.129-.445 0-.035.031-.067.063-.098a1.01 1.01 0 0 1 .257-.258c.16-.093.32-.16.543-.16.063 0 .16 0 .223.035.031 0 .066 0 .066.032.254.093.48.289.575.543 0 .03.03.03.03.062.032.098.067.227.067.32v.13a.898.898 0 0 1-.48.738m-9.473 3.199a1.035 1.035 0 0 1-.894-.61.82.82 0 0 1-.098-.382.918.918 0 0 1 .383-.77.99.99 0 0 1 .61-.223c.062 0 .16 0 .222.032.32.062.578.32.672.64a.826.826 0 0 1 .066.32 1.072 1.072 0 0 1-.16.544c-.192.257-.48.449-.8.449m1.312-3.137 1.855-7.52A2.549 2.549 0 0 0 8 17.282c0-.668-.266-1.312-.734-1.793l2.398-4.832c.125.028.254.035.383.031.129 0 .258 0 .387-.027l2.367 4.797a2.546 2.546 0 0 0-.739 1.793c0 .828.418 1.566 1.028 2.047l-1.57 4.605h-.032c-1.375 0-2.496 1.121-2.496 2.532v.03L4.48 27.97c-.16-.258-.418-.477-.671-.637m.703-10.05c0-.384.222-.735.543-.868a.97.97 0 0 1 .832 0c.261.14.449.39.511.68 0 .058.036.125.036.187a.977.977 0 0 1-.961.992c-.067 0-.16 0-.227-.035a.886.886 0 0 1-.637-.543.841.841 0 0 1-.097-.414m4.511-9.117c0-.387.223-.734.543-.894a.617.617 0 0 1 .32-.098h.098c.16 0 .29.027.414.098.098.058.227.125.29.218a.978.978 0 0 1 .257.672v.195c-.066.286-.25.532-.511.668a.89.89 0 0 1-.45.098.786.786 0 0 1-.418-.098.988.988 0 0 1-.511-.668c-.032-.066-.032-.132-.032-.195m6.88-6.625H16c.063 0 .16 0 .223.031.418.098.738.48.738.93v.031a.983.983 0 0 1-.352.77.99.99 0 0 1-.609.223.905.905 0 0 1-.703-.32 1.044 1.044 0 0 1-.258-.673v-.16c.098-.445.45-.765.863-.832m6.082 7.2c.254.066.48.226.61.449.093.16.125.32.125.511 0 .13-.032.258-.063.352a.865.865 0 0 1-.61.578c-.062 0-.093.031-.16.031h-.124c-.258 0-.516-.097-.672-.289-.195-.16-.29-.414-.29-.672v-.129a.977.977 0 0 1 .962-.863c.093 0 .16 0 .222.031m7.262 3.043c.098-.035.195-.035.29-.035.35 0 .671.195.831.48.067.13.13.258.13.387v.125c0 .418-.259.77-.61.899-.114.039-.23.058-.352.062a.965.965 0 0 1-.96-.96c0-.126.034-.255.066-.352.062-.285.32-.512.605-.606m-1.598 2.621-2.082 3.489a3.585 3.585 0 0 0-.574-.063c-.863 0-1.601.45-2.047 1.121l-5.953-1.761c0-.383-.129-.77-.289-1.122l3.969-4.125c.32.16.703.254 1.121.254.766 0 1.473-.351 1.918-.925l3.328 1.308v.16c-.031.61.227 1.223.61 1.664m-1.665 5.954c0 .062 0 .128-.03.191a.995.995 0 0 1-.513.672.943.943 0 0 1-.449.098.88.88 0 0 1-.77-.418l-.093-.192a.82.82 0 0 1-.098-.383c0-.097 0-.191.032-.258.035-.062.035-.125.066-.19.094-.192.285-.352.48-.446a.985.985 0 0 1 .352-.067c.062 0 .16 0 .223.032.062 0 .128.035.191.066.031 0 .066.031.066.031.258.16.422.43.446.735.097.035.097.066.097.129m-12.418-3.297c.067-.29.25-.535.512-.672a.552.552 0 0 1 .29-.094h.128c.16 0 .29.031.414.094a.507.507 0 0 1 .258.191.943.943 0 0 1 .289.707c0 .094 0 .192-.031.285a.95.95 0 0 1-.387.547c-.062.032-.129.063-.191.094-.114.043-.23.063-.352.066a1.074 1.074 0 0 1-.8-.418c-.063-.062-.094-.16-.13-.253a1.229 1.229 0 0 1-.062-.317v-.133c.031-.03.031-.062.062-.097m-.605 7.328 1.504-4.606h.031c.863 0 1.602-.449 2.047-1.117l5.953 1.754v.195l-9.152 4.125c-.098-.125-.223-.222-.383-.351M16 5.055c.32 0 .64-.063.895-.192L19.68 8.32c-.192.32-.32.672-.383 1.055 0 .098-.031.227-.031.32 0 .418.093.832.285 1.184l-3.934 4.129a2.468 2.468 0 0 0-1.12-.254c-.13 0-.259 0-.384.031l-2.37-4.8c.394-.403.652-.919.737-1.473 0-.098.032-.223.032-.32 0-.383-.098-.735-.223-1.055l2.527-2.367c.32.16.735.285 1.184.285m4.512 20.16c-.992 0-1.825.578-2.239 1.41l-4.035-.578 8.93-4.031a2.457 2.457 0 0 0 1.855.832c.13 0 .258 0 .383-.032l2.403 4.832c-.192.16-.32.383-.45.575l-4.351-.832c-.192-1.215-1.246-2.176-2.496-2.176m0 0"/></svg>