<?xml version="1.0" encoding="UTF-8"?>
<svg xmlns="http://www.w3.org/2000/svg" xmlns:xlink="http://www.w3.org/1999/xlink" width="47.468918" height="32" viewBox="0 0 47.468918 32">
<path fill-rule="nonzero" fill="rgb(14.117647%, 63.137255%, 75.686275%)" fill-opacity="1" d="M 10.832031 31.984375 C 7.28125 31.679688 4.574219 30.605469 2.601562 28.722656 C 0.597656 26.8125 -0.261719 24.320312 0.0703125 21.402344 C 0.460938 18.046875 2.042969 15.683594 4.835938 14.300781 C 6.976562 13.234375 9.117188 12.828125 12.601562 12.828125 C 15.074219 12.828125 17.152344 13.03125 20.3125 13.578125 C 21.089844 13.71875 21.777344 13.828125 21.8125 13.828125 C 21.878906 13.828125 21.933594 13.578125 22.074219 12.578125 C 22.332031 10.769531 22.378906 10.148438 22.304688 9.417969 C 22.222656 8.574219 22.121094 8.175781 21.796875 7.515625 C 20.96875 5.828125 19.023438 4.800781 15.890625 4.394531 C 14.992188 4.28125 12.933594 4.261719 12.035156 4.367188 C 10.535156 4.53125 9.691406 4.753906 7.828125 5.460938 C 6.734375 5.867188 6.726562 5.875 6.289062 5.847656 C 5.539062 5.800781 5.027344 5.460938 4.695312 4.792969 C 4.554688 4.515625 4.539062 4.402344 4.539062 4.023438 C 4.539062 3.457031 4.6875 3.160156 5.1875 2.6875 C 6.355469 1.632812 8.273438 0.722656 10.199219 0.332031 C 11.433594 0.0820312 12.046875 0.0273438 13.675781 0.0351562 C 15.363281 0.0351562 16.4375 0.140625 17.941406 0.417969 C 20.433594 0.878906 22.324219 1.707031 23.75 2.9375 C 24.175781 3.300781 24.816406 4.023438 25.085938 4.441406 C 25.167969 4.570312 25.253906 4.671875 25.28125 4.671875 C 25.300781 4.671875 25.4375 4.515625 25.585938 4.328125 C 27.746094 1.566406 31.386719 0 35.652344 0 C 38.664062 0 41.472656 0.769531 43.558594 2.160156 C 45.214844 3.261719 46.5625 4.96875 47.109375 6.644531 C 47.421875 7.609375 47.46875 7.960938 47.46875 9.359375 C 47.46875 10.230469 47.449219 10.816406 47.394531 11.09375 C 46.902344 13.847656 45.746094 15.746094 43.722656 17.109375 C 42.101562 18.203125 40.054688 18.84375 37.386719 19.09375 C 36.039062 19.222656 33.585938 19.203125 31.992188 19.066406 C 30.636719 18.945312 28.976562 18.730469 28.273438 18.59375 C 27.679688 18.472656 25.652344 18.128906 25.632812 18.148438 C 25.625 18.15625 25.53125 18.769531 25.417969 19.5 C 25.242188 20.679688 25.214844 20.972656 25.214844 21.910156 C 25.214844 22.863281 25.226562 23.03125 25.335938 23.476562 C 25.707031 24.894531 26.523438 25.847656 27.996094 26.582031 C 29.453125 27.304688 30.972656 27.621094 33.277344 27.667969 C 34.296875 27.683594 34.816406 27.675781 35.457031 27.601562 C 37.003906 27.433594 37.710938 27.257812 39.757812 26.5 C 40.265625 26.3125 40.796875 26.136719 40.917969 26.117188 C 41.183594 26.070312 41.695312 26.164062 41.992188 26.3125 C 42.519531 26.582031 42.972656 27.304688 42.964844 27.886719 C 42.964844 28.574219 42.734375 28.980469 42.054688 29.527344 C 40.445312 30.816406 38.386719 31.605469 35.929688 31.882812 C 35.050781 31.984375 33.054688 31.996094 32.082031 31.910156 C 29.359375 31.671875 27.476562 31.207031 25.742188 30.34375 C 24.398438 29.667969 23.371094 28.832031 22.601562 27.796875 C 22.417969 27.535156 22.25 27.324219 22.25 27.3125 C 22.242188 27.304688 22.121094 27.453125 21.972656 27.648438 C 21.324219 28.480469 20.339844 29.378906 19.375 30.011719 C 17.984375 30.917969 15.984375 31.613281 13.964844 31.890625 C 13.34375 31.957031 11.339844 32.03125 10.832031 31.984375 M 14.308594 28.074219 C 15.957031 27.703125 17.429688 26.878906 18.496094 25.710938 C 19.46875 24.652344 20.265625 23.058594 20.710938 21.308594 C 20.960938 20.316406 21.371094 17.574219 21.277344 17.515625 C 21.238281 17.5 21.027344 17.460938 20.792969 17.441406 C 20.5625 17.425781 19.90625 17.339844 19.339844 17.265625 C 15.945312 16.820312 13.863281 16.65625 12.695312 16.71875 C 10.46875 16.839844 9.570312 17.035156 8.234375 17.675781 C 7.550781 18 7.078125 18.359375 6.707031 18.824219 C 6.167969 19.5 5.84375 20.167969 5.621094 21.066406 C 5.457031 21.726562 5.445312 23.441406 5.59375 23.988281 C 5.855469 24.914062 6.152344 25.441406 6.835938 26.144531 C 7.773438 27.101562 9.003906 27.742188 10.535156 28.054688 C 11.3125 28.222656 11.292969 28.214844 12.601562 28.195312 C 13.554688 28.183594 13.917969 28.15625 14.308594 28.074219 M 35.949219 15.179688 C 37.328125 15.0625 38.183594 14.847656 39.21875 14.347656 C 40.089844 13.941406 40.589844 13.523438 41.074219 12.808594 C 41.777344 11.769531 42.046875 10.789062 42.046875 9.324219 C 42.039062 8.285156 41.953125 7.851562 41.59375 7.097656 C 40.796875 5.429688 38.914062 4.226562 36.441406 3.820312 C 35.828125 3.714844 34.167969 3.734375 33.539062 3.847656 C 32.324219 4.070312 31.296875 4.476562 30.398438 5.089844 C 28.726562 6.226562 27.570312 7.933594 26.929688 10.230469 C 26.679688 11.132812 26.605469 11.484375 26.382812 13.039062 L 26.179688 14.476562 L 26.457031 14.503906 C 27.300781 14.597656 29.191406 14.828125 30.292969 14.96875 C 30.988281 15.0625 31.832031 15.152344 32.183594 15.179688 C 33.167969 15.273438 34.964844 15.273438 35.949219 15.179688 "/>
</svg>
