<svg role="img" viewBox="0 0 32 32" xmlns="http://www.w3.org/2000/svg"><path d="M16 1c-4.102 0-7.5 3.398-7.5 7.5v15c0 4.148 3.398 7.5 7.5 7.5s7.5-3.352 7.5-7.5v-15C23.5 4.398 20.102 1 16 1" fill="rgb(58.039218%, 59.607846%, 60.784316%)"/><path d="M16 1.95c-3.602 0-6.55 2.948-6.55 6.55v15c0 3.602 2.948 6.55 6.55 6.55s6.55-2.948 6.55-6.55v-15c0-3.602-2.948-6.55-6.55-6.55" fill="rgb(24.313726%, 26.274511%, 27.843139%)"/><path d="M19.75 16A3.75 3.75 0 0 1 16 19.664 3.75 3.75 0 0 1 12.25 16 3.75 3.75 0 0 1 16 12.336 3.75 3.75 0 0 1 19.75 16m0 0" fill="rgb(100%, 90.196079%, 18.039216%)"/><path d="M19.75 6.602a3.753 3.753 0 1 1-7.505.002 3.753 3.753 0 0 1 7.505-.002m0 0" fill="rgb(92.941177%, 29.803923%, 36.078432%)"/><path d="M19.75 25.398c0 2.075-1.68 3.75-3.75 3.75s-3.75-1.68-3.754-3.75a3.753 3.753 0 1 1 7.504 0m0 0" fill="rgb(51.372552%, 74.901962%, 30.980393%)"/></svg>