<svg role="img" viewBox="0 0 32 32" height="32" width="32" xmlns="http://www.w3.org/2000/svg"><path d="M16 1c-4.102 0-7.5 3.398-7.5 7.5v15c0 4.148 3.398 7.5 7.5 7.5s7.5-3.352 7.5-7.5v-15C23.5 4.398 20.102 1 16 1" fill="rgb(58.039216%, 59.607843%, 60.784314%)"/><path d="M16 1.95c-3.602 0-6.55 2.948-6.55 6.55v15c0 3.602 2.948 6.55 6.55 6.55s6.55-2.948 6.55-6.55v-15c0-3.602-2.948-6.55-6.55-6.55" fill="rgb(24.313725%, 26.27451%, 27.843137%)"/><path d="M19.75 16A3.749 3.749 0 0 1 16 19.664 3.749 3.749 0 0 1 12.25 16 3.749 3.749 0 0 1 16 12.336 3.749 3.749 0 0 1 19.75 16m0 0" fill="rgb(100%, 90.196078%, 18.039216%)"/><path d="M19.75 6.602a3.746 3.746 0 0 1-1.86 3.3 3.74 3.74 0 0 1-3.785.004 3.746 3.746 0 0 1-1.859-3.3 3.752 3.752 0 1 1 7.504-.004m0 0" fill="rgb(92.941176%, 29.803922%, 36.078431%)"/><path d="M19.75 25.398c0 2.075-1.68 3.75-3.75 3.75-2.07 0-3.75-1.68-3.754-3.75a3.753 3.753 0 1 1 7.504 0m0 0" fill="rgb(51.372549%, 74.901961%, 30.980392%)"/></svg>