<?xml version="1.0" encoding="UTF-8"?>
<svg xmlns="http://www.w3.org/2000/svg" xmlns:xlink="http://www.w3.org/1999/xlink" width="32" height="32" viewBox="0 0 32 32">
<path fill-rule="nonzero" fill="rgb(0%, 0%, 0%)" fill-opacity="1" d="M 14.71875 1.28125 C 5.761719 1.28125 1.921875 7.359375 1.921875 14.078125 C 1.921875 16.765625 2.753906 19.265625 4.160156 21.3125 C 5.566406 23.359375 6.398438 25.792969 6.398438 28.289062 L 6.398438 31.359375 L 20.480469 31.359375 L 20.480469 28.609375 L 22.460938 28.738281 C 25.214844 28.992188 27.519531 26.816406 27.519531 24.0625 L 27.519531 20.609375 L 30.078125 19.328125 C 30.65625 19.007812 30.847656 18.300781 30.527344 17.726562 L 27.519531 12.542969 C 26.816406 6.59375 23.679688 1.28125 14.71875 1.28125 Z M 17.28125 5.121094 L 18.558594 5.121094 L 18.558594 6.464844 C 18.96875 6.546875 19.347656 6.710938 19.683594 6.933594 L 20.636719 5.980469 L 21.539062 6.886719 L 20.585938 7.835938 C 20.808594 8.171875 20.972656 8.550781 21.054688 8.960938 L 22.398438 8.960938 L 22.398438 10.238281 L 21.054688 10.238281 C 20.972656 10.648438 20.808594 11.027344 20.585938 11.363281 L 21.539062 12.316406 L 20.636719 13.21875 L 19.683594 12.265625 C 19.347656 12.488281 18.96875 12.652344 18.558594 12.734375 L 18.558594 14.078125 L 17.28125 14.078125 L 17.28125 12.734375 C 16.871094 12.652344 16.492188 12.488281 16.15625 12.265625 L 15.203125 13.21875 L 14.300781 12.316406 L 15.253906 11.363281 C 15.03125 11.027344 14.867188 10.648438 14.785156 10.238281 L 13.441406 10.238281 L 13.441406 8.960938 L 14.785156 8.960938 C 14.867188 8.550781 15.03125 8.171875 15.253906 7.835938 L 14.300781 6.886719 L 15.203125 5.980469 L 16.15625 6.933594 C 16.492188 6.710938 16.871094 6.546875 17.28125 6.464844 Z M 17.921875 7.679688 C 16.859375 7.679688 16 8.539062 16 9.601562 C 16 10.660156 16.859375 11.519531 17.921875 11.519531 C 18.980469 11.519531 19.839844 10.660156 19.839844 9.601562 C 19.839844 8.539062 18.980469 7.679688 17.921875 7.679688 Z M 9.601562 10.238281 L 10.878906 10.238281 L 10.878906 11.585938 C 11.289062 11.667969 11.667969 11.828125 12.003906 12.050781 L 12.953125 11.101562 L 13.859375 12.003906 L 12.90625 12.957031 C 13.128906 13.292969 13.292969 13.671875 13.375 14.078125 L 14.71875 14.078125 L 14.71875 15.359375 L 13.375 15.359375 C 13.292969 15.765625 13.128906 16.148438 12.90625 16.484375 L 13.859375 17.433594 L 12.953125 18.339844 L 12.003906 17.386719 C 11.667969 17.609375 11.289062 17.773438 10.878906 17.855469 L 10.878906 19.199219 L 9.601562 19.199219 L 9.601562 17.855469 C 9.191406 17.773438 8.8125 17.609375 8.476562 17.386719 L 7.523438 18.339844 L 6.621094 17.433594 L 7.574219 16.484375 C 7.351562 16.148438 7.1875 15.765625 7.105469 15.359375 L 5.761719 15.359375 L 5.761719 14.078125 L 7.105469 14.078125 C 7.1875 13.671875 7.351562 13.292969 7.574219 12.957031 L 6.621094 12.003906 L 7.523438 11.101562 L 8.476562 12.050781 C 8.8125 11.828125 9.191406 11.667969 9.601562 11.585938 Z M 10.238281 12.800781 C 9.179688 12.800781 8.320312 13.660156 8.320312 14.71875 C 8.320312 15.78125 9.179688 16.640625 10.238281 16.640625 C 11.300781 16.640625 12.160156 15.78125 12.160156 14.71875 C 12.160156 13.660156 11.300781 12.800781 10.238281 12.800781 Z M 10.238281 12.800781 "/>
</svg>
