<?xml version="1.0" encoding="UTF-8"?>
<svg xmlns="http://www.w3.org/2000/svg" xmlns:xlink="http://www.w3.org/1999/xlink" width="32" height="32" viewBox="0 0 32 32">
<path  d="M 7.679688 1.28125 C 5.914062 1.28125 4.480469 2.714844 4.480469 4.480469 C 4.480469 6.246094 5.914062 7.679688 7.679688 7.679688 C 9.445312 7.679688 10.878906 6.246094 10.878906 4.480469 C 10.878906 2.714844 9.445312 1.28125 7.679688 1.28125 Z M 18.558594 1.28125 L 18.558594 2.558594 L 11.71875 2.558594 C 11.996094 3.140625 12.160156 3.792969 12.160156 4.480469 C 12.160156 5.433594 11.867188 6.3125 11.359375 7.039062 L 18.238281 7.039062 C 19.828125 7.039062 21.121094 8.332031 21.121094 9.921875 C 21.121094 11.507812 19.828125 12.800781 18.238281 12.800781 L 12.800781 12.800781 L 12.800781 21.761719 L 30.078125 21.761719 C 30.433594 21.761719 30.71875 21.476562 30.71875 21.121094 L 30.71875 3.199219 C 30.71875 2.847656 30.433594 2.558594 30.078125 2.558594 L 19.839844 2.558594 L 19.839844 1.28125 Z M 4.800781 8.320312 C 2.859375 8.320312 1.28125 9.898438 1.28125 11.839844 L 1.28125 20.480469 C 1.28125 21.1875 1.855469 21.761719 2.558594 21.761719 C 3.265625 21.761719 3.839844 21.1875 3.839844 20.480469 L 3.839844 13.160156 C 3.839844 12.988281 3.988281 12.839844 4.160156 12.839844 C 4.332031 12.839844 4.480469 12.988281 4.480469 13.160156 L 4.480469 29 C 4.480469 30 5.015625 30.71875 6.019531 30.71875 C 6.96875 30.71875 7.679688 29.984375 7.679688 29 L 7.679688 21.558594 C 7.679688 21.382812 7.824219 21.238281 8 21.238281 C 8.175781 21.238281 8.320312 21.382812 8.320312 21.558594 L 8.320312 29.179688 C 8.324219 29.183594 8.335938 29.175781 8.339844 29.179688 C 8.425781 30.066406 9.09375 30.71875 9.980469 30.71875 C 10.980469 30.71875 11.519531 30 11.519531 29 L 11.519531 11.519531 L 18.238281 11.519531 C 19.125 11.519531 19.839844 10.804688 19.839844 9.921875 C 19.839844 9.035156 19.125 8.320312 18.238281 8.320312 L 9.941406 8.320312 L 7.679688 12.800781 L 5.460938 8.320312 Z M 17.601562 23.039062 L 14.71875 28.800781 L 16 28.800781 L 18.878906 23.039062 Z M 19.519531 23.039062 L 22.398438 28.800781 L 23.679688 28.800781 L 20.800781 23.039062 Z M 19.519531 23.039062 "/>
</svg>
