<svg role="img" viewBox="0 0 32 32" height="32" width="32" xmlns="http://www.w3.org/2000/svg"><path d="M23.738.059c-.496.05-.922.382-1.082.855-.168.477-.039 1 .324 1.348l4.141 4.136H1.161a1.28 1.28 0 0 0-1.22 1.34 1.28 1.28 0 0 0 1.34 1.223h25.84l-4.14 4.14a1.28 1.28 0 1 0 1.8 1.82L32.02 7.68 24.78.44a1.29 1.29 0 0 0-1.042-.38M8 16.699c-.29.04-.559.172-.762.38L0 24.32l7.238 7.239c.324.332.801.464 1.25.347.446-.12.793-.472.91-.922a1.287 1.287 0 0 0-.359-1.246L4.9 25.602h25.82a1.28 1.28 0 0 0 1.125-1.926 1.272 1.272 0 0 0-1.125-.637H4.899l4.14-4.14c.402-.38.516-.977.277-1.477A1.278 1.278 0 0 0 8 16.699m0 0"/></svg>