<?xml version="1.0" encoding="UTF-8"?>
<svg xmlns="http://www.w3.org/2000/svg" xmlns:xlink="http://www.w3.org/1999/xlink" width="32" height="32" viewBox="0 0 32 32">
<path fill-rule="nonzero" fill="rgb(0%, 0%, 0%)" fill-opacity="1" d="M 23.738281 0.0585938 C 23.242188 0.109375 22.816406 0.441406 22.65625 0.914062 C 22.488281 1.390625 22.617188 1.914062 22.980469 2.261719 L 27.121094 6.398438 L 1.160156 6.398438 C 0.820312 6.414062 0.5 6.5625 0.273438 6.816406 C 0.0429688 7.066406 -0.0742188 7.398438 -0.0585938 7.738281 C -0.0429688 8.078125 0.105469 8.398438 0.355469 8.628906 C 0.609375 8.855469 0.941406 8.976562 1.28125 8.960938 L 27.121094 8.960938 L 22.980469 13.101562 C 22.648438 13.421875 22.515625 13.894531 22.628906 14.34375 C 22.742188 14.789062 23.089844 15.140625 23.535156 15.257812 C 23.980469 15.378906 24.457031 15.25 24.78125 14.921875 L 32.019531 7.679688 L 24.78125 0.441406 C 24.507812 0.164062 24.125 0.0234375 23.738281 0.0585938 M 8 16.699219 C 7.710938 16.738281 7.441406 16.871094 7.238281 17.078125 L 0 24.320312 L 7.238281 31.558594 C 7.5625 31.890625 8.039062 32.023438 8.488281 31.90625 C 8.933594 31.785156 9.28125 31.433594 9.398438 30.984375 C 9.511719 30.535156 9.375 30.058594 9.039062 29.738281 L 4.898438 25.601562 L 30.71875 25.601562 C 31.183594 25.609375 31.613281 25.367188 31.84375 24.96875 C 32.078125 24.570312 32.078125 24.074219 31.84375 23.675781 C 31.613281 23.273438 31.183594 23.03125 30.71875 23.039062 L 4.898438 23.039062 L 9.039062 18.898438 C 9.441406 18.519531 9.554688 17.921875 9.316406 17.421875 C 9.082031 16.921875 8.550781 16.628906 8 16.699219 M 8 16.699219 "/>
</svg>
