<svg role="img" viewBox="0 0 32 32" xmlns="http://www.w3.org/2000/svg"><path d="M3.2 1.922A1.924 1.924 0 0 0 1.28 3.84v7.68a1.93 1.93 0 0 0 1.92 1.92h7.68a1.94 1.94 0 0 0 1.92-1.92V3.84a1.93 1.93 0 0 0-1.922-1.918Zm0 1.277h7.679c.363 0 .64.278.64.64v7.68a.625.625 0 0 1-.64.641h-7.68a.625.625 0 0 1-.64-.64V3.84c0-.363.28-.64.64-.64m3.84 11.519a.64.64 0 0 0-.594.394.644.644 0 0 0 .84.84.644.644 0 0 0-.246-1.234m0 2.562a.642.642 0 1 0 0 1.284.642.642 0 0 0 0-1.284m14.082 1.278A1.936 1.936 0 0 0 19.2 20.48v7.68a1.93 1.93 0 0 0 1.922 1.918h7.68a1.926 1.926 0 0 0 1.918-1.918v-7.68a1.93 1.93 0 0 0-1.92-1.92ZM7.04 19.839a.642.642 0 1 0 0 1.284.642.642 0 0 0 0-1.283m14.082 0h7.68c.363 0 .64.277.64.64v7.68a.625.625 0 0 1-.64.64h-7.68a.62.62 0 0 1-.453-.183.64.64 0 0 1-.188-.457v-7.68c0-.363.278-.64.641-.64M7.04 22.398a.64.64 0 0 0-.582.313.64.64 0 0 0 .09.77c.2.21.512.257.766.12a.634.634 0 0 0 .32-.703.636.636 0 0 0-.594-.5m0 2.563a.65.65 0 0 0-.64.64c0 .258.156.493.398.594a.64.64 0 0 0 .695-.14.64.64 0 0 0-.453-1.094m2.563 0a.64.64 0 0 0-.575.312.64.64 0 0 0-.004.653.65.65 0 0 0 .575.312.64.64 0 0 0 .453-.187.63.63 0 0 0 .187-.45.635.635 0 0 0-.636-.64m2.558 0a.65.65 0 0 0-.574.312.63.63 0 0 0 0 .653c.121.203.34.324.574.312a.643.643 0 0 0 .64-.636.64.64 0 0 0-.64-.641m2.559 0a.643.643 0 0 0-.637.64c0 .258.152.493.395.59a.637.637 0 0 0 .835-.836.64.64 0 0 0-.593-.394m2.562 0a.65.65 0 0 0-.574.312.63.63 0 0 0 0 .653c.121.203.34.324.574.312a.645.645 0 0 0 .64-.636.64.64 0 0 0-.64-.641m0 0" fill="rgb(0%, 0%, 0%)"/></svg>