<svg role="img" viewBox="0 0 31.36 32" xmlns="http://www.w3.org/2000/svg"><path d="M.121 8.035v15.863l13.586 7.95 13.633-7.946V8.035L13.73.168Zm0 0" fill="rgb(100%, 100%, 100%)"/><path d="m23.383 10.719-2.942 1.715a8.85 8.85 0 0 1-1.039 6.109c-1.062 1.789-2.902 3.195-5.328 4.07v4.004c6.88-2.637 10.934-9.562 9.309-15.898m-4.54 7.492a8.2 8.2 0 0 0 .997-5.426l-3.184 1.836c-.02 1.574-.953 2.98-2.582 3.883v3.43c2.164-.825 3.809-2.11 4.77-3.723m5.125-7.832c1.851 6.809-2.473 14.21-9.895 16.934v4.324l13.266-7.735V8.414Zm0 0" fill="rgb(3.137255%, 69.411767%, 83.529413%)"/><path d="m10.844 14.602-3.188-1.844a8.58 8.58 0 0 0 1.184 5.32 9.12 9.12 0 0 0 4.504 3.852v-3.418a4.29 4.29 0 0 1-2.5-3.91M8.28 18.41a9.2 9.2 0 0 1-1.238-6.004l-2.961-1.71c-1.7 6.554 2.25 13.347 9.262 15.925v-3.973A9.76 9.76 0 0 1 8.28 18.41M3.5 10.36.121 8.41v15.488l13.223 7.739v-4.324C5.906 24.695 1.602 17.28 3.5 10.359" fill="rgb(9.803922%, 1.568628%, 85.490197%)"/><path d="M18.633 5.95c-5.031-2.454-11.274-.626-14.281 4.152l2.875 1.66c2.152-3.344 6.453-4.668 9.847-3.016a7.27 7.27 0 0 1 3.168 3.008l2.863-1.652c-.02-.028-.039-.051-.054-.079a10.65 10.65 0 0 0-4.422-4.074m-1.84 3.383c-3.094-1.508-7.016-.297-8.996 2.754l3.203 1.851a3.43 3.43 0 0 1 2.813-1.554c.46 0 .914.105 1.324.308.558.27 1.02.707 1.324 1.25l3.223-1.859a6.64 6.64 0 0 0-2.89-2.75M13.73.172.445 7.848l3.344 1.93c3.176-5.075 9.797-7.016 15.125-4.415a11.3 11.3 0 0 1 4.691 4.317q.03.046.067.093l3.344-1.93Zm0 0" fill="rgb(100%, 78.823531%, 0%)"/><path d="M15.98 14.395a2.56 2.56 0 0 0-1.125-1.122 2.33 2.33 0 0 0-1.882-.09c-.641.22-1.18.66-1.516 1.247q-.011.15-.004.3a3.81 3.81 0 0 0 2.027 3.149l.207.101.176-.097c1.297-.727 2.07-1.875 2.117-3.153a5 5 0 0 0 0-.335" fill="rgb(100%, 26.666668%, 37.254903%)"/></svg>