<?xml version="1.0" encoding="UTF-8"?>
<svg xmlns="http://www.w3.org/2000/svg" xmlns:xlink="http://www.w3.org/1999/xlink" width="32" height="32" viewBox="0 0 32 32">
<path  d="M 28.105469 27.871094 L 21.097656 20.863281 C 20.117188 21.65625 19.109375 22.269531 18.066406 22.695312 C 17.027344 23.121094 15.851562 23.332031 14.539062 23.332031 C 12.742188 23.332031 11.105469 22.910156 9.621094 22.058594 C 8.136719 21.207031 6.957031 20.078125 6.074219 18.667969 L 7.726562 18.667969 C 8.53125 19.675781 9.523438 20.484375 10.695312 21.089844 C 11.871094 21.695312 13.148438 22 14.539062 22 C 16.929688 22 18.972656 21.152344 20.667969 19.460938 C 22.359375 17.769531 23.207031 15.726562 23.207031 13.332031 C 23.207031 10.941406 22.359375 8.898438 20.667969 7.207031 C 18.972656 5.511719 16.929688 4.667969 14.539062 4.667969 C 12.261719 4.667969 10.296875 5.441406 8.648438 6.988281 C 7 8.535156 6.085938 10.429688 5.90625 12.667969 L 4.570312 12.667969 C 4.75 10.03125 5.789062 7.816406 7.683594 6.023438 C 9.582031 4.230469 11.867188 3.332031 14.539062 3.332031 C 17.328125 3.332031 19.691406 4.300781 21.628906 6.238281 C 23.570312 8.179688 24.539062 10.542969 24.539062 13.332031 C 24.539062 14.644531 24.324219 15.828125 23.898438 16.875 C 23.476562 17.925781 22.863281 18.9375 22.066406 19.917969 L 29.050781 26.902344 Z M 13.386719 18.257812 L 11.03125 10.425781 L 8.992188 16.257812 L 2.949219 16.257812 L 2.949219 15.078125 L 8.152344 15.078125 L 10.351562 8.746094 L 11.761719 8.746094 L 14.078125 16.519531 L 15.871094 11.078125 L 17.28125 11.078125 L 19.28125 15.078125 L 20.382812 15.078125 L 20.382812 16.257812 L 18.558594 16.257812 L 16.660156 12.457031 L 14.761719 18.257812 Z M 13.386719 18.257812 "/>
</svg>
