<?xml version="1.0" encoding="UTF-8"?>
<svg xmlns="http://www.w3.org/2000/svg" xmlns:xlink="http://www.w3.org/1999/xlink" width="32" height="32" viewBox="0 0 32 32">
<path fill-rule="nonzero" fill="rgb(0%, 56.470591%, 87.843138%)" fill-opacity="1" stroke-width="4.48" stroke-linecap="butt" stroke-linejoin="miter" stroke="rgb(0%, 56.470591%, 87.843138%)" stroke-opacity="1" stroke-miterlimit="10" d="M 55.5625 77.3125 L 7.15625 77.3125 L 7.15625 54.28125 L 130.8125 54.28125 L 130.8125 77.3125 L 82.1875 77.3125 L 82.1875 201.71875 L 55.5625 201.71875 Z M 163.84375 163.84375 C 163.84375 163.84375 179.96875 179.46875 200.6875 179.46875 C 211.96875 179.46875 222.21875 173.5625 222.21875 161.53125 C 222.21875 135.15625 152.5625 139.78125 152.5625 94.46875 C 152.5625 69.875 173.8125 51.71875 201.96875 51.71875 C 231.15625 51.71875 246.03125 67.59375 246.03125 67.59375 L 234.5 89.34375 C 234.5 89.34375 220.40625 76.53125 201.96875 76.53125 C 189.4375 76.53125 179.71875 83.71875 179.71875 94.21875 C 179.71875 120.3125 249.09375 113.9375 249.09375 161.03125 C 249.09375 184.5625 231.15625 204.28125 200.4375 204.28125 C 167.6875 204.28125 149.5 184.0625 149.5 184.0625 Z M 163.84375 163.84375 " transform="matrix(0.125, 0, 0, 0.125, 0, 0)"/>
</svg>
