<svg role="img" viewBox="0 0 32 32" xmlns="http://www.w3.org/2000/svg"><path d="M6.945 9.664H.895V6.785h15.457v2.88h-6.079v15.55H6.945ZM20.48 20.48s2.016 1.954 4.606 1.954c1.41 0 2.691-.739 2.691-2.243 0-3.296-8.707-2.718-8.707-8.382 0-3.075 2.657-5.344 6.176-5.344 3.649 0 5.508 1.984 5.508 1.984l-1.442 2.719s-1.761-1.602-4.066-1.602c-1.566 0-2.781.899-2.781 2.211 0 3.262 8.672 2.465 8.672 8.352 0 2.941-2.242 5.406-6.082 5.406-4.094 0-6.367-2.527-6.367-2.527Zm0 0" fill="rgb(0%, 56.470591%, 87.843138%)" stroke="rgb(0%, 56.470591%, 87.843138%)" stroke-miterlimit="10" stroke-width=".56"/></svg>