<svg role="img" viewBox="0 0 23.04 32" height="32" width="23.04" xmlns="http://www.w3.org/2000/svg"><defs><linearGradient gradientTransform="matrix(.32 0 0 -.32 0 32.64)" gradientUnits="userSpaceOnUse" id="400__394__258__252__txt-lp-1" x1="11.84" x2="60.452" y1="66.245" y2="66.245"><stop offset="0" stop-color="rgb(44.705882%, 56.862745%, 63.137255%)"/><stop offset="1" stop-color="rgb(79.215686%, 83.529412%, 85.882353%)"/></linearGradient><linearGradient gradientTransform="matrix(.32 0 0 -.32 0 32.64)" gradientUnits="userSpaceOnUse" id="401__395__259__253__linear-pattern-2" x1="11.84" x2="60.452" y1="42.191" y2="42.191"><stop offset="0" stop-color="rgb(44.705882%, 56.862745%, 63.137255%)"/><stop offset="1" stop-color="rgb(79.215686%, 83.529412%, 85.882353%)"/></linearGradient><linearGradient gradientTransform="matrix(.32 0 0 -.32 0 32.64)" gradientUnits="userSpaceOnUse" id="402__396__260__254__linear-pattern-3" x1="11.84" x2="60.452" y1="53.931" y2="53.931"><stop offset="0" stop-color="rgb(44.705882%, 56.862745%, 63.137255%)"/><stop offset="1" stop-color="rgb(79.215686%, 83.529412%, 85.882353%)"/></linearGradient><linearGradient gradientTransform="matrix(.32 0 0 -.32 0 32.64)" gradientUnits="userSpaceOnUse" id="403__397__261__255__linear-pattern-4" x1="11.84" x2="60.452" y1="78.42" y2="78.42"><stop offset="0" stop-color="rgb(44.705882%, 56.862745%, 63.137255%)"/><stop offset="1" stop-color="rgb(79.215686%, 83.529412%, 85.882353%)"/></linearGradient><linearGradient gradientTransform="matrix(1 0 0 -1 0 102)" gradientUnits="userSpaceOnUse" id="404__398__262__256__linear-pattern-5" x1="45.068" x2="58.568" y1="74.155" y2="87.655"><stop offset="0" stop-color="rgb(100%, 100%, 100%)"/><stop offset=".35" stop-color="rgb(98.039216%, 98.431373%, 98.431373%)"/><stop offset=".532" stop-color="rgb(92.941176%, 94.509804%, 95.686275%)"/><stop offset=".675" stop-color="rgb(86.666667%, 89.803922%, 91.372549%)"/><stop offset=".799" stop-color="rgb(78.039216%, 82.745098%, 85.490196%)"/><stop offset=".908" stop-color="rgb(67.843137%, 74.117647%, 78.039216%)"/><stop offset="1" stop-color="rgb(57.254902%, 64.705882%, 69.019608%)"/></linearGradient></defs><path d="m44.995 1.001 27.002 26.697v71.301H0V1.001Zm0 0" fill="url(#405__399__257__251__linear-pattern-0)" stroke="rgb(44.313725%, 56.862745%, 63.137255%)" stroke-width="2" transform="scale(.32)"/><path d="M5.152 29.152v-5.28H3.266v-1.087h5.086v1.086H6.465v5.281Zm3.36 0 2.175-3.328-1.984-3.039h1.535l1.282 2.047 1.25-2.047h1.503l-1.984 3.07 2.176 3.266h-1.57l-1.407-2.21-1.441 2.21H8.512Zm8.097 0v-5.28h-1.89v-1.087h5.09v1.086h-1.887v5.281Zm0 0" fill="rgb(29.803922%, 42.352941%, 48.235294%)"/><path d="M3.777 10.785h15.551v1.313H3.778Zm0 0" fill="url(#400__394__258__252__linear-pattern-1)"/><path d="M3.777 18.496h15.551v1.313H3.778Zm0 0" fill="url(#401__395__259__253__linear-pattern-2)"/><path d="M3.777 14.719h15.551v1.312H3.778Zm0 0" fill="url(#402__396__260__254__linear-pattern-3)"/><path d="M3.777 6.91h15.551v1.313H3.778Zm0 0" fill="url(#403__397__261__255__linear-pattern-4)"/><path d="m44.995 1.001 27.002 26.697H44.995Zm0 0" fill="url(#404__398__262__256__linear-pattern-5)" stroke="rgb(44.313725%, 56.862745%, 63.137255%)" stroke-linejoin="bevel" stroke-width="2" transform="scale(.32)"/></svg>