<svg role="img" viewBox="0 0 32 32" height="32" width="32" xmlns="http://www.w3.org/2000/svg"><path d="M32 16c0 8.836-7.164 16-16 16S0 24.836 0 16 7.164 0 16 0s16 7.164 16 16m0 0" fill="rgb(86.666667%, 28.235294%, 7.843137%)"/><path d="M5.121 13.863a2.137 2.137 0 1 0 .001 4.275 2.137 2.137 0 0 0 0-4.275m15.25 9.7a2.149 2.149 0 0 0-.782 2.917 2.134 2.134 0 0 0 2.875.711 2.131 2.131 0 0 0 .824-2.843 2.138 2.138 0 0 0-2.918-.785M9.761 16a6.227 6.227 0 0 1 2.653-5.105L10.852 8.28a9.282 9.282 0 0 0-3.836 5.395A2.968 2.968 0 0 1 8.12 16c0 .902-.406 1.754-1.105 2.324a9.257 9.257 0 0 0 3.836 5.399l1.562-2.618A6.237 6.237 0 0 1 9.762 16M16 9.762c3.23 0 5.93 2.465 6.215 5.683l3.043-.043a9.253 9.253 0 0 0-2.754-6.02 2.99 2.99 0 0 1-4.023-2.324 9.264 9.264 0 0 0-6.594.622l1.484 2.66A6.302 6.302 0 0 1 16 9.762m0 12.476a6.242 6.242 0 0 1-2.629-.578l-1.484 2.66a9.264 9.264 0 0 0 6.593.621c.145-.89.68-1.668 1.461-2.117a2.976 2.976 0 0 1 2.559-.207 9.257 9.257 0 0 0 2.758-6.02l-3.047-.042A6.233 6.233 0 0 1 16 22.238m4.371-13.812a2.105 2.105 0 0 0 1.621.219 2.137 2.137 0 0 0 1.567-1.786 2.149 2.149 0 0 0-1.051-2.129 2.103 2.103 0 0 0-1.621-.218 2.14 2.14 0 0 0-.516 3.918Zm0 0" fill="rgb(100%, 100%, 100%)"/></svg>