<svg role="img" viewBox="0 0 32 32" height="32" width="32" xmlns="http://www.w3.org/2000/svg"><path d="M15.563 2C8.324 2 2.457 7.969 2.457 15.332s5.867 13.336 13.106 13.336c7.238 0 13.105-5.973 13.105-13.336S22.801 2 15.563 2" fill="rgb(100%, 100%, 100%)"/><path d="M15.547 3.02c-6.735 0-12.215 5.476-12.215 12.214 0 6.739 5.48 12.22 12.215 12.22 6.738 0 12.219-5.481 12.219-12.22 0-6.734-5.48-12.214-12.22-12.214m5.563 9.863a.51.51 0 0 1-.472.316h-1.524a.492.492 0 0 1-.36-.148l-2.187-2.188v12.008a.508.508 0 0 1-.508.508H15.04a.507.507 0 0 1-.508-.508V10.863l-2.187 2.188a.499.499 0 0 1-.36.148h-1.527a.511.511 0 0 1-.36-.871l5.09-5.09a.503.503 0 0 1 .723 0l5.09 5.09a.497.497 0 0 1 .11.555"/></svg>