<?xml version="1.0" encoding="UTF-8"?>
<svg xmlns="http://www.w3.org/2000/svg" xmlns:xlink="http://www.w3.org/1999/xlink" width="32" height="32" viewBox="0 0 32 32">
<path fill-rule="nonzero" fill="rgb(0%, 0%, 0%)" fill-opacity="1" d="M 25 32 C 28.867188 32 32 28.867188 32 25 C 32 21.132812 28.867188 18 25 18 C 21.132812 18 18 21.132812 18 25 C 18 28.867188 21.132812 32 25 32 M 25.707031 20.292969 L 28.707031 23.292969 C 28.96875 23.542969 29.074219 23.917969 28.980469 24.265625 C 28.886719 24.617188 28.613281 24.886719 28.265625 24.980469 C 27.914062 25.070312 27.542969 24.964844 27.292969 24.707031 L 26 23.414062 L 26 29 C 26 29.550781 25.550781 30 25 30 C 24.449219 30 24 29.550781 24 29 L 24 23.414062 L 22.707031 24.707031 C 22.457031 24.96875 22.082031 25.074219 21.734375 24.980469 C 21.382812 24.886719 21.113281 24.613281 21.019531 24.265625 C 20.929688 23.914062 21.035156 23.542969 21.292969 23.292969 L 24.292969 20.292969 C 24.683594 19.902344 25.316406 19.902344 25.707031 20.292969 M 16 2 C 12.855469 2 9.957031 2.578125 7.808594 3.554688 C 5.75 4.488281 4 5.984375 4 8 C 4 10.015625 5.75 11.511719 7.808594 12.445312 C 9.957031 13.421875 12.855469 14 16 14 C 19.144531 14 22.042969 13.421875 24.191406 12.445312 C 26.25 11.511719 28 10.015625 28 8 C 28 5.984375 26.25 4.488281 24.191406 3.554688 C 22.042969 2.578125 19.144531 2 16 2 M 4 14 L 4 12.320312 C 4.914062 13.1875 6.007812 13.824219 6.980469 14.265625 C 9.445312 15.386719 12.636719 16 16 16 C 19.363281 16 22.554688 15.386719 25.019531 14.265625 C 25.992188 13.824219 27.085938 13.1875 28 12.320312 L 28 14 C 28 14.847656 27.691406 15.605469 27.179688 16.265625 C 23.515625 15.359375 19.671875 16.832031 17.546875 19.953125 C 17.03125 19.984375 16.515625 20 16 20 C 12.855469 20 9.957031 19.421875 7.808594 18.445312 C 5.75 17.511719 4 16.015625 4 14 M 16.515625 21.996094 L 16 22 C 12.636719 22 9.445312 21.386719 6.980469 20.265625 C 6.007812 19.824219 4.914062 19.1875 4 18.320312 L 4 20 C 4 22.015625 5.75 23.511719 7.808594 24.445312 C 9.957031 25.421875 12.855469 26 16 26 L 16.054688 26 C 15.90625 24.648438 16.0625 23.277344 16.515625 21.996094 M 16.511719 27.996094 L 16 28 C 12.636719 28 9.445312 27.386719 6.980469 26.265625 C 6.007812 25.824219 4.914062 25.1875 4 24.320312 L 4 26 C 4 28.015625 5.75 29.511719 7.808594 30.445312 C 9.957031 31.421875 12.855469 32 16 32 C 17.070312 32 18.117188 31.933594 19.109375 31.804688 C 17.929688 30.78125 17.03125 29.46875 16.511719 27.996094 "/>
</svg>
