<svg role="img" viewBox="0 0 32 32" height="32" width="32" xmlns="http://www.w3.org/2000/svg"><path d="m16.012 30.852-.266-.125c-.133-.059-13.078-6.25-13.078-24.711v-.489l.477-.105c4.484-.984 7.132-2.379 9.066-3.399C13.715 1.238 14.8.668 16 .668c1.2 0 2.285.57 3.79 1.355 1.933 1.02 4.581 2.415 9.065 3.399l.477.105v.489c0 17.847-12.926 24.632-13.059 24.703Zm0 0"/><path d="M16.422 5.348c-4.524 0-8.188 3.73-8.188 8.336 0 4.601 3.664 8.332 8.188 8.332 4.523 0 8.191-3.73 8.191-8.332 0-4.606-3.668-8.336-8.191-8.336" fill="rgb(100%, 100%, 100%)"/><path d="M16.414 5.984c-4.21 0-7.633 3.426-7.633 7.637 0 4.211 3.422 7.637 7.633 7.637s7.637-3.426 7.637-7.637c0-4.21-3.426-7.637-7.637-7.637m3.477 6.168a.32.32 0 0 1-.293.196h-.957a.304.304 0 0 1-.223-.094l-1.367-1.363v7.504a.326.326 0 0 1-.09.226.326.326 0 0 1-.227.09h-.636a.32.32 0 0 1-.32-.316V10.89l-1.364 1.363a.322.322 0 0 1-.226.094h-.954a.32.32 0 0 1-.227-.543l3.184-3.18a.257.257 0 0 1 .223-.094c.086 0 .168.031.227.094l3.18 3.18c.093.09.12.226.07.347"/></svg>