<svg role="img" viewBox="0 0 32 32" height="32" width="32" xmlns="http://www.w3.org/2000/svg"><path d="M1.82 1.922C.816 1.922 0 2.734 0 3.738v2.66h32v-2.66a1.819 1.819 0 0 0-1.82-1.816ZM0 7.68v21.76c0 .356.29.637.64.637h30.72c.355 0 .64-.281.64-.637V7.68Zm13.121 3.761c.05-.007.082.02.117.059a.17.17 0 0 1 .043.14l-.101.5a.15.15 0 0 1-.121.122c-.5.09-.993.36-1.438.797-.457.449-.855 1.07-1.2 1.84-.308.68-.55 1.48-.722 2.363a13.205 13.205 0 0 0-.258 2.539c0 .793.133 1.437.38 1.937.238.485.605.762 1.14.864.047.007.09.039.117.078.024.035.035.078.024.12l-.122.462c-.02.07-.066.117-.14.117h-.02c-.906-.113-1.62-.516-2.12-1.219-.493-.691-.74-1.62-.74-2.781 0-2.098.481-3.922 1.462-5.399.984-1.492 2.242-2.343 3.7-2.539m8.82 0c.902.11 1.617.536 2.117 1.239.492.691.742 1.62.742 2.78 0 2.099-.485 3.903-1.461 5.38-.988 1.488-2.242 2.344-3.7 2.539h-.019c-.043 0-.09-.008-.121-.04a.156.156 0 0 1-.04-.14l.099-.52c.015-.066.078-.109.14-.12.504-.09.973-.36 1.422-.797.457-.45.875-1.051 1.219-1.82.3-.68.547-1.477.719-2.364.175-.883.261-1.734.261-2.539 0-.793-.129-1.46-.379-1.96-.238-.481-.625-.759-1.16-.86-.043-.008-.078-.02-.101-.059a.197.197 0 0 1-.02-.14l.102-.461c.015-.079.097-.125.18-.118m-2.903 3.32c.227 0 .426.067.582.22.164.148.25.359.238.578-.004.296-.117.515-.34.66-.316.21-.656.27-1.117.14-.117-.03-.222-.074-.297-.097a5.372 5.372 0 0 0-.566.66c-.227.3-.45.637-.656 1 .094.367.183.691.262.957.078.281.144.562.238.84.066.23.191.41.34.543.136.125.328.18.558.18.09 0 .215-.016.383-.044a1.95 1.95 0 0 0 .375-.078c.063-.02.121-.023.16.02a.161.161 0 0 1 .043.16l-.12.422a.124.124 0 0 1-.083.098c-.3.136-.613.25-.934.34a2.863 2.863 0 0 1-.68.081c-.323 0-.609-.07-.82-.222-.222-.153-.394-.461-.527-.918-.082-.309-.14-.555-.2-.762-.019-.086-.03-.172-.058-.258-.097.157-.203.293-.277.418-.129.207-.348.48-.645.84-.257.32-.507.563-.738.7a1.363 1.363 0 0 1-.734.222.824.824 0 0 1-.582-.223c-.164-.144-.239-.347-.239-.597 0-.243.094-.45.278-.621.18-.168.418-.239.722-.239.153 0 .293.024.434.078.102.036.203.067.3.102.192-.2.372-.406.544-.621.238-.293.472-.63.68-1l-.243-.918c-.09-.356-.18-.656-.258-.922-.12-.371-.222-.512-.296-.559-.18-.12-.461-.144-.801-.062-.137.035-.27.047-.387.082a.156.156 0 0 1-.152-.04c-.043-.042-.063-.085-.043-.14l.12-.422c.013-.046.056-.082.102-.097.32-.137.618-.254.875-.34.372-.125.493-.14.563-.14.32 0 .598.077.82.238.223.164.375.46.5.902.125.465.215.754.242.86l.04.218c.101-.172.203-.328.277-.46.129-.22.351-.505.64-.86.278-.348.512-.586.758-.72.223-.128.47-.194.723-.198m0 0"/></svg>