<svg role="img" viewBox="0 0 32 32" xmlns="http://www.w3.org/2000/svg"><path d="M1.82 1.922C.816 1.922 0 2.734 0 3.738v2.66h32v-2.66a1.819 1.819 0 0 0-1.82-1.816ZM0 7.68v21.76c0 .356.29.637.64.637h30.72c.355 0 .64-.281.64-.637V7.68Zm13.121 3.761c.05-.007.082.02.117.059a.17.17 0 0 1 .043.14l-.101.5a.151.151 0 0 1-.121.122c-.5.09-.993.36-1.438.797-.457.449-.855 1.07-1.2 1.84-.308.68-.55 1.48-.722 2.363a13.331 13.331 0 0 0-.258 2.539c0 .793.133 1.437.38 1.937.238.485.605.762 1.14.864a.182.182 0 0 1 .117.078.15.15 0 0 1 .024.12l-.122.462c-.02.07-.066.117-.14.117h-.02c-.906-.113-1.62-.516-2.12-1.219-.493-.691-.74-1.62-.74-2.781 0-2.098.481-3.922 1.462-5.399.984-1.492 2.242-2.343 3.7-2.539m8.82 0c.903.11 1.618.536 2.118 1.239.492.691.742 1.62.742 2.78 0 2.099-.485 3.903-1.461 5.38-.988 1.488-2.242 2.344-3.7 2.539h-.019c-.043 0-.09-.008-.121-.04a.156.156 0 0 1-.04-.14l.099-.52c.015-.066.078-.109.14-.12.504-.09.973-.36 1.422-.797.457-.45.875-1.051 1.219-1.82.3-.68.547-1.477.719-2.364.175-.883.261-1.734.261-2.539 0-.793-.129-1.46-.379-1.96-.238-.481-.625-.759-1.16-.86-.043-.008-.078-.02-.101-.059a.194.194 0 0 1-.02-.14l.102-.461c.015-.079.097-.125.18-.118m-2.902 3.32c.223 0 .422.067.582.22a.74.74 0 0 1 .238.578c-.004.296-.12.515-.34.66-.316.21-.656.27-1.12.14-.114-.03-.22-.074-.297-.097a5.135 5.135 0 0 0-.563.66c-.23.3-.453.637-.66 1 .094.367.187.691.262.957.078.281.148.562.238.84.07.23.195.41.34.543.14.125.328.18.562.18.09 0 .215-.016.38-.044a2.09 2.09 0 0 0 .378-.078c.059-.02.121-.023.16.02.043.039.055.101.04.16l-.118.422a.13.13 0 0 1-.082.098 6.64 6.64 0 0 1-.937.34 2.7 2.7 0 0 1-.68.081c-.324 0-.606-.07-.82-.222-.223-.153-.395-.461-.524-.918-.082-.309-.144-.555-.2-.762-.019-.086-.034-.172-.058-.258-.101.157-.203.293-.28.418-.126.207-.345.48-.642.84-.261.32-.511.563-.738.7a1.388 1.388 0 0 1-.738.222.818.818 0 0 1-.582-.223c-.164-.144-.238-.347-.238-.597 0-.243.097-.45.277-.621.18-.168.418-.239.723-.239.152 0 .293.024.437.078.098.036.2.067.3.102a8.7 8.7 0 0 0 .54-.621c.242-.293.473-.63.68-1l-.239-.918c-.093-.356-.18-.656-.261-.922-.118-.371-.223-.512-.297-.559-.18-.12-.461-.144-.801-.062-.133.035-.266.047-.383.082a.163.163 0 0 1-.156-.04c-.043-.042-.059-.085-.043-.14l.121-.422c.012-.046.055-.082.102-.097.32-.137.62-.254.878-.34.368-.125.489-.14.56-.14.32 0 .6.077.82.238.222.164.378.46.5.902.128.465.218.754.242.86l.039.218c.105-.172.203-.328.28-.46.126-.22.352-.505.638-.86.277-.348.515-.586.761-.72a1.49 1.49 0 0 1 .72-.198m0 0"/></svg>