<?xml version="1.0" encoding="UTF-8"?>
<svg xmlns="http://www.w3.org/2000/svg" xmlns:xlink="http://www.w3.org/1999/xlink" width="32" height="32" viewBox="0 0 32 32">
<path  d="M 26 28 L 22 28 L 22 26 L 26 26 L 26 6 L 22 6 L 22 4 L 26 4 C 27.105469 4 28 4.894531 28 6 L 28 26 C 28 27.105469 27.105469 28 26 28 M 20 11 L 18 11 L 16 14.898438 L 14 11 L 12 11 L 14.90625 16 L 12 21 L 14 21 L 16 17.199219 L 18 21 L 20 21 L 17.097656 16 Z M 10 28 L 6 28 C 4.894531 28 4 27.105469 4 26 L 4 6 C 4 4.894531 4.894531 4 6 4 L 10 4 L 10 6 L 6 6 L 6 26 L 10 26 Z M 10 28 "/>
</svg>
