<?xml version="1.0" encoding="UTF-8"?>
<svg xmlns="http://www.w3.org/2000/svg" xmlns:xlink="http://www.w3.org/1999/xlink" width="32" height="32" viewBox="0 0 32 32">
<path  d="M 1.820312 1.921875 C 0.824219 1.921875 0 2.742188 0 3.738281 L 0 6.921875 C -0.00390625 6.949219 -0.00390625 6.972656 0 7 L 0 29.441406 C 0 29.792969 0.289062 30.078125 0.640625 30.078125 L 31.359375 30.078125 C 31.710938 30.078125 32 29.792969 32 29.441406 L 32 7.039062 C 32 7.019531 32 7 32 6.980469 L 32 3.738281 C 32 2.742188 31.175781 1.921875 30.179688 1.921875 Z M 1.820312 3.199219 L 30.179688 3.199219 C 30.488281 3.199219 30.71875 3.433594 30.71875 3.738281 L 30.71875 6.398438 L 1.28125 6.398438 L 1.28125 3.738281 C 1.28125 3.433594 1.511719 3.199219 1.820312 3.199219 Z M 1.28125 7.679688 L 30.71875 7.679688 L 30.71875 28.800781 L 1.28125 28.800781 Z M 13.121094 11.441406 C 11.664062 11.636719 10.40625 12.488281 9.421875 13.980469 C 8.441406 15.453125 7.960938 17.28125 7.960938 19.378906 C 7.960938 20.539062 8.207031 21.46875 8.699219 22.160156 C 9.199219 22.863281 9.914062 23.265625 10.820312 23.378906 C 10.828125 23.378906 10.832031 23.378906 10.839844 23.378906 C 10.914062 23.378906 10.960938 23.332031 10.980469 23.261719 L 11.101562 22.800781 C 11.109375 22.757812 11.105469 22.714844 11.078125 22.679688 C 11.054688 22.640625 11.003906 22.609375 10.960938 22.601562 C 10.425781 22.5 10.058594 22.222656 9.820312 21.738281 C 9.574219 21.238281 9.441406 20.59375 9.441406 19.800781 C 9.441406 18.996094 9.527344 18.144531 9.699219 17.261719 C 9.871094 16.378906 10.113281 15.578125 10.421875 14.898438 C 10.765625 14.128906 11.164062 13.507812 11.621094 13.058594 C 12.066406 12.621094 12.558594 12.351562 13.058594 12.261719 C 13.125 12.246094 13.167969 12.203125 13.179688 12.140625 L 13.28125 11.640625 C 13.289062 11.589844 13.273438 11.539062 13.238281 11.5 C 13.203125 11.460938 13.171875 11.433594 13.121094 11.441406 Z M 21.941406 11.441406 C 21.859375 11.433594 21.777344 11.480469 21.761719 11.558594 L 21.660156 12.019531 C 21.648438 12.0625 21.65625 12.125 21.679688 12.160156 C 21.703125 12.199219 21.757812 12.210938 21.800781 12.21875 C 22.335938 12.320312 22.703125 12.597656 22.941406 13.078125 C 23.1875 13.578125 23.320312 14.246094 23.320312 15.039062 C 23.320312 15.84375 23.234375 16.695312 23.058594 17.578125 C 22.886719 18.464844 22.640625 19.261719 22.339844 19.941406 C 21.996094 20.710938 21.578125 21.3125 21.121094 21.761719 C 20.671875 22.199219 20.203125 22.46875 19.699219 22.558594 C 19.636719 22.574219 19.574219 22.613281 19.558594 22.679688 L 19.460938 23.199219 C 19.449219 23.25 19.464844 23.300781 19.5 23.339844 C 19.53125 23.371094 19.578125 23.378906 19.621094 23.378906 C 19.628906 23.378906 19.632812 23.378906 19.640625 23.378906 C 21.097656 23.183594 22.351562 22.328125 23.339844 20.839844 C 24.316406 19.363281 24.800781 17.558594 24.800781 15.460938 C 24.800781 14.300781 24.550781 13.371094 24.058594 12.679688 C 23.558594 11.976562 22.84375 11.550781 21.941406 11.441406 Z M 19.039062 14.761719 C 18.816406 14.761719 18.5625 14.824219 18.320312 14.960938 C 18.074219 15.09375 17.835938 15.332031 17.558594 15.679688 C 17.273438 16.035156 17.046875 16.320312 16.921875 16.539062 C 16.84375 16.671875 16.746094 16.828125 16.640625 17 L 16.601562 16.78125 C 16.578125 16.675781 16.488281 16.386719 16.359375 15.921875 C 16.238281 15.480469 16.082031 15.183594 15.859375 15.019531 C 15.640625 14.859375 15.359375 14.78125 15.039062 14.78125 C 14.96875 14.78125 14.847656 14.796875 14.480469 14.921875 C 14.222656 15.007812 13.921875 15.125 13.601562 15.261719 C 13.554688 15.277344 13.511719 15.3125 13.5 15.359375 L 13.378906 15.78125 C 13.363281 15.835938 13.378906 15.878906 13.421875 15.921875 C 13.460938 15.960938 13.523438 15.976562 13.578125 15.960938 C 13.695312 15.925781 13.828125 15.914062 13.960938 15.878906 C 14.300781 15.796875 14.582031 15.820312 14.761719 15.941406 C 14.835938 15.988281 14.941406 16.128906 15.058594 16.5 C 15.140625 16.765625 15.226562 17.066406 15.320312 17.421875 L 15.558594 18.339844 C 15.351562 18.710938 15.121094 19.046875 14.878906 19.339844 C 14.660156 19.609375 14.484375 19.816406 14.339844 19.960938 C 14.238281 19.925781 14.136719 19.894531 14.039062 19.859375 C 13.894531 19.804688 13.753906 19.78125 13.601562 19.78125 C 13.296875 19.78125 13.058594 19.851562 12.878906 20.019531 C 12.699219 20.191406 12.601562 20.398438 12.601562 20.640625 C 12.601562 20.890625 12.675781 21.09375 12.839844 21.238281 C 12.996094 21.382812 13.183594 21.460938 13.421875 21.460938 C 13.671875 21.460938 13.921875 21.386719 14.160156 21.238281 C 14.386719 21.101562 14.636719 20.859375 14.898438 20.539062 C 15.195312 20.183594 15.414062 19.90625 15.539062 19.699219 C 15.617188 19.574219 15.71875 19.4375 15.820312 19.28125 C 15.84375 19.367188 15.859375 19.453125 15.878906 19.539062 C 15.933594 19.746094 15.996094 19.996094 16.078125 20.300781 C 16.207031 20.757812 16.378906 21.0625 16.601562 21.21875 C 16.816406 21.371094 17.097656 21.441406 17.421875 21.441406 C 17.664062 21.441406 17.886719 21.414062 18.101562 21.359375 C 18.3125 21.308594 18.636719 21.191406 19.039062 21.019531 C 19.085938 21 19.109375 20.96875 19.121094 20.921875 L 19.238281 20.5 C 19.253906 20.441406 19.246094 20.378906 19.199219 20.339844 C 19.160156 20.296875 19.097656 20.300781 19.039062 20.320312 C 18.953125 20.351562 18.824219 20.375 18.660156 20.398438 C 18.492188 20.425781 18.351562 20.441406 18.261719 20.441406 C 18.023438 20.441406 17.859375 20.386719 17.71875 20.261719 C 17.574219 20.128906 17.449219 19.949219 17.378906 19.71875 C 17.289062 19.441406 17.199219 19.160156 17.121094 18.878906 C 17.046875 18.613281 16.972656 18.289062 16.878906 17.921875 C 17.085938 17.558594 17.308594 17.222656 17.539062 16.921875 C 17.75 16.640625 17.933594 16.4375 18.101562 16.28125 C 18.179688 16.304688 18.285156 16.328125 18.398438 16.359375 C 18.863281 16.488281 19.203125 16.429688 19.519531 16.21875 C 19.738281 16.074219 19.855469 15.855469 19.859375 15.558594 C 19.863281 15.324219 19.78125 15.128906 19.621094 14.980469 C 19.460938 14.828125 19.261719 14.761719 19.039062 14.761719 Z M 19.039062 14.761719 "/>
</svg>
