<?xml version="1.0" encoding="UTF-8"?>
<svg xmlns="http://www.w3.org/2000/svg" xmlns:xlink="http://www.w3.org/1999/xlink" width="32" height="32" viewBox="0 0 32 32">
<path fill-rule="nonzero" fill="rgb(0%, 0%, 0%)" fill-opacity="1" d="M 18.667969 18 C 19.769531 18 20.667969 17.105469 20.667969 16 C 20.667969 14.894531 19.769531 14 18.667969 14 C 17.5625 14 16.667969 14.894531 16.667969 16 C 16.667969 17.105469 17.5625 18 18.667969 18 M 2.667969 10.332031 C 2.667969 7.570312 4.90625 5.332031 7.667969 5.332031 L 24.332031 5.332031 C 27.09375 5.332031 29.332031 7.570312 29.332031 10.332031 L 29.332031 21.667969 C 29.332031 24.429688 27.09375 26.667969 24.332031 26.667969 L 7.667969 26.667969 C 4.90625 26.667969 2.667969 24.429688 2.667969 21.667969 Z M 7.667969 9.332031 C 7.113281 9.332031 6.667969 9.78125 6.667969 10.332031 L 6.667969 21.667969 C 6.667969 22.21875 7.113281 22.667969 7.667969 22.667969 C 8.21875 22.667969 8.667969 22.21875 8.667969 21.667969 L 8.667969 10.332031 C 8.667969 9.78125 8.21875 9.332031 7.667969 9.332031 M 15.039062 10.960938 C 14.789062 10.691406 14.414062 10.582031 14.0625 10.671875 C 13.707031 10.761719 13.429688 11.039062 13.339844 11.394531 C 13.25 11.75 13.359375 12.125 13.625 12.375 L 15.21875 13.96875 C 14.855469 14.582031 14.667969 15.285156 14.667969 16 C 14.667969 16.742188 14.867188 17.4375 15.21875 18.03125 L 13.625 19.625 C 13.359375 19.875 13.25 20.25 13.339844 20.605469 C 13.429688 20.960938 13.707031 21.238281 14.0625 21.328125 C 14.414062 21.417969 14.789062 21.308594 15.039062 21.039062 L 16.632812 19.445312 C 17.230469 19.796875 17.925781 20 18.667969 20 C 19.40625 20 20.101562 19.796875 20.699219 19.445312 L 22.292969 21.039062 C 22.542969 21.308594 22.917969 21.417969 23.273438 21.328125 C 23.625 21.238281 23.902344 20.960938 23.992188 20.605469 C 24.085938 20.25 23.972656 19.875 23.707031 19.625 L 22.113281 18.03125 C 22.464844 17.4375 22.667969 16.742188 22.667969 16 C 22.667969 15.257812 22.464844 14.5625 22.113281 13.96875 L 23.707031 12.375 C 24.074219 11.980469 24.0625 11.367188 23.683594 10.984375 C 23.300781 10.605469 22.6875 10.59375 22.292969 10.960938 L 20.699219 12.554688 C 20.082031 12.191406 19.382812 12 18.667969 12 C 17.925781 12 17.230469 12.203125 16.632812 12.554688 Z M 15.039062 10.960938 "/>
</svg>
