<?xml version="1.0" encoding="UTF-8"?>
<svg xmlns="http://www.w3.org/2000/svg" xmlns:xlink="http://www.w3.org/1999/xlink" width="85.33333" height="32" viewBox="0 0 85.33333 32">
<defs>
<clipPath id="clip-0">
<rect x="0" y="0" width="86" height="32"/>
</clipPath>
<g id="source-18" clip-path="url(#clip-0)">
<path fill-rule="nonzero" fill="rgb(41.176471%, 39.607843%, 40%)" fill-opacity="1" d="M 39.941406 11.777344 L 36.066406 20.574219 L 34.976562 20.574219 L 31.097656 11.777344 L 32.1875 11.777344 L 35.527344 19.34375 L 38.855469 11.777344 Z M 39.941406 11.777344 "/>
</g>
<clipPath id="clip-1">
<rect x="0" y="0" width="86" height="32"/>
</clipPath>
<g id="source-22" clip-path="url(#clip-1)">
<path fill-rule="nonzero" fill="rgb(41.176471%, 39.607843%, 40%)" fill-opacity="1" d="M 41.992188 12.726562 L 41.992188 15.617188 L 46.765625 15.617188 L 46.765625 16.566406 L 41.992188 16.566406 L 41.992188 19.625 L 47.289062 19.625 L 47.289062 20.574219 L 40.980469 20.574219 L 40.980469 11.777344 L 47.289062 11.777344 L 47.289062 12.726562 Z M 41.992188 12.726562 "/>
</g>
<clipPath id="clip-2">
<rect x="0" y="0" width="86" height="32"/>
</clipPath>
<g id="source-26" clip-path="url(#clip-2)">
<path fill-rule="nonzero" fill="rgb(41.176471%, 39.607843%, 40%)" fill-opacity="1" d="M 54.277344 19.625 L 54.277344 20.574219 L 48.480469 20.574219 L 48.480469 11.777344 L 49.480469 11.777344 L 49.480469 19.625 Z M 54.277344 19.625 "/>
</g>
<clipPath id="clip-3">
<rect x="0" y="0" width="86" height="32"/>
</clipPath>
<g id="source-30" clip-path="url(#clip-3)">
<path fill-rule="nonzero" fill="rgb(41.176471%, 39.607843%, 40%)" fill-opacity="1" d="M 56.351562 12.726562 L 56.351562 15.617188 L 61.128906 15.617188 L 61.128906 16.566406 L 56.351562 16.566406 L 56.351562 19.625 L 61.652344 19.625 L 61.652344 20.574219 L 55.339844 20.574219 L 55.339844 11.777344 L 61.652344 11.777344 L 61.652344 12.726562 Z M 56.351562 12.726562 "/>
</g>
<clipPath id="clip-4">
<rect x="0" y="0" width="86" height="32"/>
</clipPath>
<g id="source-34" clip-path="url(#clip-4)">
<path fill-rule="nonzero" fill="rgb(41.176471%, 39.607843%, 40%)" fill-opacity="1" d="M 67.398438 17.320312 L 69.675781 20.574219 L 68.539062 20.574219 L 66.3125 17.410156 L 63.980469 17.410156 L 63.980469 20.574219 L 62.984375 20.574219 L 62.984375 11.777344 L 66.554688 11.777344 C 68.371094 11.777344 69.792969 12.945312 69.792969 14.59375 C 69.792969 15.976562 68.792969 17.027344 67.398438 17.320312 Z M 63.980469 16.464844 L 66.375 16.464844 C 67.808594 16.464844 68.78125 15.773438 68.78125 14.59375 C 68.78125 13.417969 67.808594 12.726562 66.375 12.726562 L 63.980469 12.726562 Z M 63.980469 16.464844 "/>
</g>
<clipPath id="clip-5">
<rect x="0" y="0" width="86" height="32"/>
</clipPath>
<g id="source-38" clip-path="url(#clip-5)">
<path fill-rule="nonzero" fill="rgb(41.176471%, 39.607843%, 40%)" fill-opacity="1" d="M 70.574219 16.167969 C 70.574219 13.699219 72.648438 11.625 75.078125 11.625 C 77.523438 11.625 79.570312 13.699219 79.570312 16.167969 C 79.570312 18.640625 77.523438 20.726562 75.078125 20.726562 C 72.648438 20.726562 70.574219 18.640625 70.574219 16.167969 Z M 78.5625 16.167969 C 78.5625 14.210938 76.972656 12.546875 75.078125 12.546875 C 73.183594 12.546875 71.585938 14.210938 71.585938 16.167969 C 71.585938 18.140625 73.183594 19.804688 75.078125 19.804688 C 76.972656 19.804688 78.5625 18.140625 78.5625 16.167969 Z M 78.5625 16.167969 "/>
</g>
<clipPath id="clip-6">
<rect x="0" y="0" width="86" height="32"/>
</clipPath>
<g id="source-40" clip-path="url(#clip-6)">
<use xlink:href="#source-18"/>
<use xlink:href="#source-22"/>
<use xlink:href="#source-26"/>
<use xlink:href="#source-30"/>
<use xlink:href="#source-34"/>
<use xlink:href="#source-38"/>
</g>
</defs>
<path fill-rule="nonzero" fill="rgb(13.72549%, 61.568627%, 87.843137%)" fill-opacity="1" d="M 24.519531 23.246094 C 23.824219 23.246094 23.492188 23.507812 23.105469 23.816406 C 22.6875 24.148438 22.210938 24.527344 21.292969 24.527344 C 20.375 24.527344 19.898438 24.148438 19.480469 23.816406 C 19.09375 23.507812 18.761719 23.246094 18.066406 23.246094 C 17.371094 23.246094 17.039062 23.507812 16.652344 23.816406 C 16.234375 24.148438 15.757812 24.527344 14.839844 24.527344 C 13.921875 24.527344 13.445312 24.148438 13.027344 23.816406 C 12.640625 23.507812 12.308594 23.246094 11.613281 23.246094 C 10.917969 23.246094 10.585938 23.507812 10.199219 23.816406 C 9.898438 24.078125 9.554688 24.28125 9.175781 24.410156 C 10.976562 25.996094 13.242188 26.960938 15.632812 27.160156 C 15.699219 27.164062 15.765625 27.167969 15.832031 27.171875 C 16.074219 27.1875 16.316406 27.199219 16.5625 27.199219 C 16.804688 27.199219 17.046875 27.1875 17.289062 27.171875 C 17.355469 27.167969 17.425781 27.164062 17.492188 27.160156 C 20.414062 26.914062 23.125 25.53125 25.039062 23.308594 C 24.867188 23.265625 24.695312 23.242188 24.519531 23.246094 "/>
<path fill-rule="nonzero" fill="rgb(13.72549%, 61.568627%, 87.843137%)" fill-opacity="1" d="M 8.386719 14.890625 C 9.140625 14.890625 9.515625 14.59375 9.910156 14.28125 C 10.324219 13.953125 10.753906 13.609375 11.613281 13.609375 C 12.46875 13.609375 12.898438 13.953125 13.316406 14.28125 C 13.710938 14.59375 14.082031 14.890625 14.839844 14.890625 C 15.59375 14.890625 15.96875 14.59375 16.363281 14.28125 C 16.777344 13.953125 17.207031 13.609375 18.066406 13.609375 C 18.921875 13.609375 19.355469 13.953125 19.769531 14.28125 C 20.164062 14.59375 20.535156 14.890625 21.292969 14.890625 C 22.050781 14.890625 22.421875 14.59375 22.816406 14.28125 C 23.230469 13.953125 23.664062 13.609375 24.519531 13.609375 C 25.378906 13.609375 25.808594 13.953125 26.222656 14.28125 C 26.609375 14.589844 26.980469 14.878906 27.707031 14.890625 C 27.605469 13.882812 27.371094 12.898438 27.003906 11.957031 C 26.664062 11.835938 26.351562 11.648438 26.078125 11.410156 C 25.675781 11.089844 25.296875 10.789062 24.519531 10.789062 C 23.742188 10.789062 23.363281 11.089844 22.960938 11.410156 C 22.550781 11.734375 22.128906 12.066406 21.292969 12.066406 C 20.457031 12.066406 20.035156 11.734375 19.625 11.410156 C 19.222656 11.089844 18.84375 10.789062 18.066406 10.789062 C 17.289062 10.789062 16.910156 11.089844 16.507812 11.410156 C 16.097656 11.734375 15.675781 12.066406 14.839844 12.066406 C 14.003906 12.066406 13.578125 11.734375 13.171875 11.410156 C 12.769531 11.089844 12.390625 10.789062 11.613281 10.789062 C 10.835938 10.789062 10.457031 11.089844 10.054688 11.410156 C 9.644531 11.734375 9.222656 12.066406 8.386719 12.066406 C 7.546875 12.066406 7.125 11.734375 6.71875 11.410156 C 6.628906 11.335938 6.539062 11.265625 6.445312 11.199219 C 6.074219 11.980469 5.792969 12.804688 5.613281 13.648438 C 6.179688 13.746094 6.527344 14.015625 6.863281 14.28125 C 7.257812 14.59375 7.628906 14.890625 8.386719 14.890625 "/>
<path fill-rule="nonzero" fill="rgb(13.72549%, 61.568627%, 87.843137%)" fill-opacity="1" d="M 8.386719 11.894531 C 9.160156 11.894531 9.542969 11.589844 9.945312 11.273438 C 10.351562 10.949219 10.777344 10.613281 11.613281 10.613281 C 12.449219 10.613281 12.871094 10.949219 13.28125 11.273438 C 13.683594 11.589844 14.0625 11.894531 14.839844 11.894531 C 15.617188 11.894531 15.996094 11.589844 16.398438 11.273438 C 16.808594 10.949219 17.230469 10.613281 18.066406 10.613281 C 18.902344 10.613281 19.324219 10.949219 19.734375 11.273438 C 20.136719 11.589844 20.515625 11.894531 21.292969 11.894531 C 22.070312 11.894531 22.449219 11.589844 22.851562 11.273438 C 23.261719 10.949219 23.683594 10.613281 24.519531 10.613281 C 25.355469 10.613281 25.78125 10.949219 26.1875 11.273438 C 26.40625 11.460938 26.652344 11.621094 26.917969 11.738281 C 25.246094 7.667969 21.34375 4.957031 16.945312 4.804688 C 12.546875 4.65625 8.46875 7.09375 6.523438 11.039062 C 6.628906 11.113281 6.726562 11.195312 6.828125 11.273438 C 7.230469 11.589844 7.609375 11.894531 8.386719 11.894531 "/>
<path fill-rule="nonzero" fill="rgb(13.72549%, 61.568627%, 87.843137%)" fill-opacity="1" d="M 24.519531 20.128906 C 23.804688 20.128906 23.464844 20.402344 23.070312 20.714844 C 22.65625 21.042969 22.191406 21.410156 21.292969 21.410156 C 20.394531 21.410156 19.929688 21.042969 19.515625 20.714844 C 19.121094 20.402344 18.78125 20.128906 18.066406 20.128906 C 17.351562 20.128906 17.011719 20.402344 16.617188 20.714844 C 16.203125 21.042969 15.738281 21.410156 14.839844 21.410156 C 13.941406 21.410156 13.472656 21.042969 13.0625 20.714844 C 12.667969 20.402344 12.328125 20.128906 11.613281 20.128906 C 10.898438 20.128906 10.554688 20.402344 10.160156 20.714844 C 9.75 21.042969 9.285156 21.410156 8.386719 21.410156 C 7.488281 21.410156 7.019531 21.042969 6.609375 20.714844 C 6.503906 20.632812 6.402344 20.550781 6.300781 20.480469 C 6.855469 21.742188 7.636719 22.894531 8.605469 23.875 C 9.15625 23.824219 9.457031 23.585938 9.800781 23.316406 C 10.21875 22.980469 10.695312 22.605469 11.613281 22.605469 C 12.53125 22.605469 13.003906 22.980469 13.425781 23.316406 C 13.8125 23.621094 14.144531 23.886719 14.839844 23.886719 C 15.535156 23.886719 15.867188 23.621094 16.253906 23.316406 C 16.671875 22.980469 17.148438 22.605469 18.066406 22.605469 C 18.984375 22.605469 19.460938 22.980469 19.878906 23.316406 C 20.265625 23.621094 20.597656 23.886719 21.292969 23.886719 C 21.988281 23.886719 22.320312 23.621094 22.707031 23.316406 C 23.125 22.980469 23.601562 22.605469 24.519531 22.605469 C 24.84375 22.601562 25.167969 22.660156 25.472656 22.777344 C 25.871094 22.25 26.222656 21.691406 26.527344 21.105469 C 26.332031 20.988281 26.144531 20.859375 25.96875 20.714844 C 25.574219 20.402344 25.234375 20.128906 24.519531 20.128906 "/>
<path fill-rule="nonzero" fill="rgb(13.72549%, 61.568627%, 87.843137%)" fill-opacity="1" d="M 27.726562 15.179688 C 26.886719 15.175781 26.457031 14.839844 26.042969 14.511719 C 25.648438 14.199219 25.277344 13.902344 24.519531 13.902344 C 23.765625 13.902344 23.390625 14.199219 22.996094 14.511719 C 22.582031 14.839844 22.148438 15.183594 21.292969 15.183594 C 20.433594 15.183594 20.003906 14.839844 19.589844 14.511719 C 19.195312 14.199219 18.820312 13.902344 18.066406 13.902344 C 17.308594 13.902344 16.9375 14.199219 16.542969 14.511719 C 16.125 14.839844 15.695312 15.183594 14.839844 15.183594 C 13.980469 15.183594 13.550781 14.839844 13.136719 14.511719 C 12.742188 14.199219 12.367188 13.902344 11.613281 13.902344 C 10.855469 13.902344 10.484375 14.199219 10.089844 14.511719 C 9.671875 14.839844 9.242188 15.183594 8.386719 15.183594 C 7.527344 15.183594 7.097656 14.839844 6.683594 14.511719 C 6.363281 14.257812 6.058594 14.019531 5.554688 13.9375 C 5.453125 14.476562 5.394531 15.019531 5.371094 15.566406 C 5.367188 15.710938 5.363281 15.855469 5.363281 16 C 5.363281 16.144531 5.367188 16.289062 5.371094 16.433594 C 5.375 16.496094 5.375 16.558594 5.378906 16.621094 C 6.113281 16.675781 6.53125 17 6.898438 17.292969 C 7.285156 17.601562 7.648438 17.890625 8.386719 17.890625 C 9.121094 17.890625 9.488281 17.601562 9.871094 17.292969 C 10.277344 16.972656 10.734375 16.609375 11.613281 16.609375 C 12.492188 16.609375 12.949219 16.972656 13.351562 17.292969 C 13.738281 17.601562 14.105469 17.890625 14.839844 17.890625 C 15.574219 17.890625 15.941406 17.601562 16.324219 17.292969 C 16.730469 16.972656 17.1875 16.609375 18.066406 16.609375 C 18.945312 16.609375 19.402344 16.972656 19.804688 17.292969 C 20.191406 17.601562 20.558594 17.890625 21.292969 17.890625 C 22.027344 17.890625 22.394531 17.601562 22.78125 17.292969 C 23.183594 16.972656 23.640625 16.609375 24.519531 16.609375 C 25.398438 16.609375 25.855469 16.972656 26.261719 17.292969 C 26.617188 17.578125 26.964844 17.84375 27.601562 17.882812 C 27.660156 17.542969 27.699219 17.195312 27.726562 16.84375 C 27.738281 16.707031 27.746094 16.570312 27.75 16.433594 L 27.75 15.566406 C 27.746094 15.429688 27.726562 15.179688 27.726562 15.179688 "/>
<path fill-rule="nonzero" fill="rgb(13.72549%, 61.568627%, 87.843137%)" fill-opacity="1" d="M 24.519531 17.015625 C 23.785156 17.015625 23.417969 17.304688 23.03125 17.613281 C 22.628906 17.933594 22.171875 18.296875 21.292969 18.296875 C 20.414062 18.296875 19.957031 17.933594 19.550781 17.613281 C 19.167969 17.304688 18.800781 17.015625 18.066406 17.015625 C 17.332031 17.015625 16.964844 17.304688 16.578125 17.613281 C 16.175781 17.933594 15.71875 18.296875 14.839844 18.296875 C 13.960938 18.296875 13.503906 17.933594 13.097656 17.613281 C 12.714844 17.304688 12.347656 17.015625 11.613281 17.015625 C 10.875 17.015625 10.511719 17.304688 10.125 17.613281 C 9.722656 17.933594 9.261719 18.296875 8.386719 18.296875 C 7.507812 18.296875 7.050781 17.933594 6.644531 17.613281 C 6.304688 17.34375 5.984375 17.085938 5.410156 17.027344 C 5.496094 17.953125 5.695312 18.867188 6.007812 19.742188 C 6.347656 19.871094 6.660156 20.0625 6.933594 20.304688 C 7.328125 20.617188 7.671875 20.886719 8.386719 20.886719 C 9.101562 20.886719 9.441406 20.617188 9.835938 20.304688 C 10.246094 19.976562 10.714844 19.605469 11.613281 19.605469 C 12.511719 19.605469 12.976562 19.976562 13.390625 20.304688 C 13.78125 20.617188 14.125 20.886719 14.839844 20.886719 C 15.554688 20.886719 15.894531 20.617188 16.289062 20.304688 C 16.703125 19.976562 17.167969 19.605469 18.066406 19.605469 C 18.964844 19.605469 19.429688 19.976562 19.84375 20.304688 C 20.238281 20.617188 20.578125 20.886719 21.292969 20.886719 C 22.007812 20.886719 22.347656 20.617188 22.742188 20.304688 C 23.15625 19.976562 23.621094 19.605469 24.519531 19.605469 C 25.417969 19.605469 25.882812 19.976562 26.296875 20.304688 C 26.441406 20.425781 26.59375 20.535156 26.753906 20.632812 C 27.097656 19.882812 27.355469 19.09375 27.527344 18.285156 C 26.792969 18.230469 26.375 17.90625 26.007812 17.613281 C 25.621094 17.304688 25.253906 17.015625 24.519531 17.015625 "/>
<path fill-rule="nonzero" fill="rgb(100%, 100%, 100%)" fill-opacity="1" d="M 22.707031 23.316406 C 22.320312 23.621094 21.988281 23.886719 21.292969 23.886719 C 20.597656 23.886719 20.265625 23.621094 19.878906 23.316406 C 19.460938 22.980469 18.984375 22.605469 18.066406 22.605469 C 17.148438 22.605469 16.671875 22.980469 16.253906 23.316406 C 15.867188 23.621094 15.535156 23.886719 14.839844 23.886719 C 14.144531 23.886719 13.8125 23.621094 13.425781 23.316406 C 13.003906 22.980469 12.53125 22.605469 11.613281 22.605469 C 10.695312 22.605469 10.21875 22.980469 9.800781 23.316406 C 9.457031 23.585938 9.15625 23.824219 8.605469 23.875 C 8.789062 24.058594 8.980469 24.238281 9.175781 24.410156 C 9.554688 24.28125 9.898438 24.078125 10.199219 23.816406 C 10.585938 23.507812 10.917969 23.246094 11.613281 23.246094 C 12.308594 23.246094 12.640625 23.507812 13.027344 23.816406 C 13.445312 24.148438 13.921875 24.527344 14.839844 24.527344 C 15.757812 24.527344 16.234375 24.148438 16.652344 23.816406 C 17.039062 23.507812 17.371094 23.246094 18.066406 23.246094 C 18.761719 23.246094 19.09375 23.507812 19.480469 23.816406 C 19.898438 24.148438 20.375 24.527344 21.292969 24.527344 C 22.210938 24.527344 22.6875 24.148438 23.105469 23.816406 C 23.492188 23.507812 23.824219 23.246094 24.519531 23.246094 C 24.695312 23.242188 24.867188 23.265625 25.039062 23.308594 C 25.1875 23.136719 25.332031 22.957031 25.472656 22.777344 C 25.167969 22.660156 24.84375 22.601562 24.519531 22.605469 C 23.601562 22.605469 23.125 22.980469 22.707031 23.316406 "/>
<path fill-rule="nonzero" fill="rgb(100%, 100%, 100%)" fill-opacity="1" d="M 24.519531 19.605469 C 23.621094 19.605469 23.15625 19.976562 22.742188 20.304688 C 22.347656 20.617188 22.007812 20.886719 21.292969 20.886719 C 20.578125 20.886719 20.238281 20.617188 19.84375 20.304688 C 19.429688 19.976562 18.964844 19.605469 18.066406 19.605469 C 17.167969 19.605469 16.703125 19.976562 16.289062 20.304688 C 15.894531 20.617188 15.554688 20.886719 14.839844 20.886719 C 14.125 20.886719 13.78125 20.617188 13.390625 20.304688 C 12.976562 19.976562 12.511719 19.605469 11.613281 19.605469 C 10.714844 19.605469 10.246094 19.976562 9.835938 20.304688 C 9.441406 20.617188 9.101562 20.886719 8.386719 20.886719 C 7.671875 20.886719 7.328125 20.617188 6.933594 20.304688 C 6.660156 20.0625 6.347656 19.871094 6.007812 19.742188 C 6.09375 19.992188 6.191406 20.238281 6.300781 20.480469 C 6.402344 20.550781 6.503906 20.632812 6.609375 20.714844 C 7.019531 21.042969 7.488281 21.410156 8.386719 21.410156 C 9.285156 21.410156 9.75 21.042969 10.160156 20.714844 C 10.554688 20.402344 10.898438 20.128906 11.613281 20.128906 C 12.328125 20.128906 12.667969 20.402344 13.0625 20.714844 C 13.472656 21.042969 13.941406 21.410156 14.839844 21.410156 C 15.738281 21.410156 16.203125 21.042969 16.617188 20.714844 C 17.011719 20.402344 17.351562 20.128906 18.066406 20.128906 C 18.78125 20.128906 19.121094 20.402344 19.515625 20.714844 C 19.929688 21.042969 20.394531 21.410156 21.292969 21.410156 C 22.191406 21.410156 22.65625 21.042969 23.070312 20.714844 C 23.464844 20.402344 23.804688 20.128906 24.519531 20.128906 C 25.234375 20.128906 25.574219 20.402344 25.96875 20.714844 C 26.144531 20.859375 26.332031 20.988281 26.527344 21.105469 C 26.605469 20.949219 26.679688 20.792969 26.753906 20.632812 C 26.59375 20.535156 26.441406 20.425781 26.296875 20.304688 C 25.882812 19.976562 25.417969 19.605469 24.519531 19.605469 "/>
<path fill-rule="nonzero" fill="rgb(100%, 100%, 100%)" fill-opacity="1" d="M 24.519531 16.609375 C 23.640625 16.609375 23.183594 16.972656 22.78125 17.292969 C 22.394531 17.601562 22.027344 17.890625 21.292969 17.890625 C 20.558594 17.890625 20.191406 17.601562 19.804688 17.292969 C 19.402344 16.972656 18.945312 16.609375 18.066406 16.609375 C 17.1875 16.609375 16.730469 16.972656 16.324219 17.292969 C 15.941406 17.601562 15.574219 17.890625 14.839844 17.890625 C 14.105469 17.890625 13.738281 17.601562 13.351562 17.292969 C 12.949219 16.972656 12.492188 16.609375 11.613281 16.609375 C 10.734375 16.609375 10.277344 16.972656 9.871094 17.292969 C 9.484375 17.601562 9.121094 17.890625 8.386719 17.890625 C 7.648438 17.890625 7.285156 17.601562 6.898438 17.292969 C 6.53125 17 6.113281 16.675781 5.378906 16.621094 C 5.386719 16.757812 5.398438 16.894531 5.410156 17.027344 C 5.984375 17.085938 6.304688 17.34375 6.644531 17.613281 C 7.050781 17.933594 7.507812 18.296875 8.386719 18.296875 C 9.261719 18.296875 9.722656 17.933594 10.125 17.613281 C 10.511719 17.304688 10.875 17.015625 11.613281 17.015625 C 12.347656 17.015625 12.714844 17.304688 13.097656 17.613281 C 13.503906 17.933594 13.960938 18.296875 14.839844 18.296875 C 15.71875 18.296875 16.175781 17.933594 16.578125 17.613281 C 16.964844 17.304688 17.332031 17.015625 18.066406 17.015625 C 18.800781 17.015625 19.167969 17.304688 19.550781 17.613281 C 19.957031 17.933594 20.414062 18.296875 21.292969 18.296875 C 22.171875 18.296875 22.628906 17.933594 23.03125 17.613281 C 23.417969 17.304688 23.785156 17.015625 24.519531 17.015625 C 25.253906 17.015625 25.621094 17.304688 26.007812 17.613281 C 26.375 17.90625 26.792969 18.230469 27.527344 18.285156 C 27.554688 18.152344 27.578125 18.015625 27.601562 17.882812 C 26.964844 17.84375 26.617188 17.578125 26.261719 17.292969 C 25.855469 16.972656 25.398438 16.609375 24.519531 16.609375 "/>
<path fill-rule="nonzero" fill="rgb(100%, 100%, 100%)" fill-opacity="1" d="M 8.386719 15.183594 C 9.242188 15.183594 9.671875 14.839844 10.089844 14.511719 C 10.484375 14.199219 10.855469 13.902344 11.613281 13.902344 C 12.367188 13.902344 12.742188 14.199219 13.136719 14.511719 C 13.550781 14.839844 13.980469 15.183594 14.839844 15.183594 C 15.695312 15.183594 16.125 14.839844 16.542969 14.511719 C 16.9375 14.199219 17.308594 13.902344 18.066406 13.902344 C 18.820312 13.902344 19.195312 14.199219 19.589844 14.511719 C 20.003906 14.839844 20.433594 15.183594 21.292969 15.183594 C 22.148438 15.183594 22.582031 14.839844 22.996094 14.511719 C 23.390625 14.199219 23.765625 13.902344 24.519531 13.902344 C 25.277344 13.902344 25.648438 14.199219 26.042969 14.511719 C 26.457031 14.839844 26.886719 15.175781 27.726562 15.179688 L 27.726562 15.15625 C 27.71875 15.066406 27.714844 14.976562 27.707031 14.890625 C 26.980469 14.878906 26.609375 14.589844 26.222656 14.28125 C 25.808594 13.953125 25.378906 13.609375 24.519531 13.609375 C 23.664062 13.609375 23.230469 13.953125 22.816406 14.28125 C 22.421875 14.59375 22.050781 14.890625 21.292969 14.890625 C 20.535156 14.890625 20.164062 14.59375 19.769531 14.28125 C 19.355469 13.953125 18.921875 13.609375 18.066406 13.609375 C 17.207031 13.609375 16.777344 13.953125 16.363281 14.28125 C 15.96875 14.59375 15.59375 14.890625 14.839844 14.890625 C 14.082031 14.890625 13.710938 14.59375 13.316406 14.28125 C 12.898438 13.953125 12.46875 13.609375 11.613281 13.609375 C 10.753906 13.609375 10.324219 13.953125 9.910156 14.28125 C 9.515625 14.59375 9.140625 14.890625 8.386719 14.890625 C 7.628906 14.890625 7.257812 14.59375 6.863281 14.28125 C 6.527344 14.015625 6.179688 13.746094 5.613281 13.648438 C 5.589844 13.746094 5.574219 13.839844 5.554688 13.9375 C 6.058594 14.019531 6.363281 14.257812 6.683594 14.511719 C 7.097656 14.839844 7.527344 15.183594 8.386719 15.183594 "/>
<path fill-rule="nonzero" fill="rgb(100%, 100%, 100%)" fill-opacity="1" d="M 8.386719 12.066406 C 9.222656 12.066406 9.644531 11.734375 10.054688 11.410156 C 10.457031 11.089844 10.835938 10.789062 11.613281 10.789062 C 12.390625 10.789062 12.769531 11.089844 13.171875 11.410156 C 13.578125 11.734375 14.003906 12.066406 14.839844 12.066406 C 15.675781 12.066406 16.097656 11.734375 16.507812 11.410156 C 16.910156 11.089844 17.289062 10.789062 18.066406 10.789062 C 18.84375 10.789062 19.222656 11.089844 19.625 11.410156 C 20.035156 11.734375 20.457031 12.066406 21.292969 12.066406 C 22.128906 12.066406 22.550781 11.734375 22.960938 11.410156 C 23.363281 11.089844 23.742188 10.789062 24.519531 10.789062 C 25.296875 10.789062 25.675781 11.089844 26.078125 11.410156 C 26.351562 11.648438 26.664062 11.835938 27.003906 11.957031 C 26.976562 11.882812 26.945312 11.8125 26.917969 11.738281 C 26.652344 11.621094 26.40625 11.460938 26.1875 11.273438 C 25.78125 10.949219 25.355469 10.613281 24.519531 10.613281 C 23.683594 10.613281 23.261719 10.949219 22.851562 11.273438 C 22.449219 11.589844 22.070312 11.894531 21.292969 11.894531 C 20.515625 11.894531 20.136719 11.589844 19.734375 11.273438 C 19.324219 10.949219 18.902344 10.613281 18.066406 10.613281 C 17.230469 10.613281 16.808594 10.949219 16.398438 11.273438 C 15.996094 11.589844 15.617188 11.894531 14.839844 11.894531 C 14.0625 11.894531 13.683594 11.589844 13.28125 11.273438 C 12.871094 10.949219 12.449219 10.613281 11.613281 10.613281 C 10.777344 10.613281 10.351562 10.949219 9.945312 11.273438 C 9.542969 11.589844 9.160156 11.894531 8.386719 11.894531 C 7.609375 11.894531 7.230469 11.589844 6.828125 11.273438 C 6.726562 11.195312 6.628906 11.113281 6.523438 11.039062 C 6.496094 11.09375 6.46875 11.144531 6.445312 11.199219 C 6.539062 11.265625 6.628906 11.335938 6.71875 11.410156 C 7.125 11.734375 7.546875 12.066406 8.386719 12.066406 "/>
<use xlink:href="#source-40"/>
</svg>
