<?xml version="1.0" encoding="UTF-8"?>
<svg xmlns="http://www.w3.org/2000/svg" xmlns:xlink="http://www.w3.org/1999/xlink" width="32" height="32" viewBox="0 0 32 32">
<path fill-rule="nonzero" fill="rgb(38.431373%, 9.019608%, 45.098039%)" fill-opacity="1" d="M 2.523438 4.105469 C 0.320312 2.050781 6.460938 0.0117188 15.949219 0 L 16.050781 0 C 25.539062 0.0117188 31.683594 2.050781 29.476562 4.105469 C 29.476562 4.105469 21.25 11.644531 18.40625 14.066406 C 17.867188 14.53125 16.960938 14.878906 16.050781 14.890625 L 15.949219 14.890625 C 15.042969 14.878906 14.132812 14.527344 13.59375 14.066406 C 10.753906 11.644531 2.527344 4.105469 2.523438 4.105469 Z M 29.921875 7.796875 L 29.921875 11.441406 C 29.921875 11.839844 29.769531 12.371094 29.496094 12.621094 C 27.722656 14.25 20.871094 20.519531 18.40625 22.621094 C 17.867188 23.082031 16.957031 23.429688 16.050781 23.441406 L 15.953125 23.441406 C 15.042969 23.429688 14.136719 23.082031 13.597656 22.621094 C 11.132812 20.519531 4.28125 14.25 2.503906 12.621094 C 2.230469 12.371094 2.078125 11.839844 2.078125 11.441406 L 2.078125 7.796875 C 4.691406 10.183594 11.628906 16.472656 13.597656 18.152344 C 14.136719 18.613281 15.042969 18.960938 15.953125 18.972656 L 16.050781 18.972656 C 16.957031 18.960938 17.867188 18.609375 18.40625 18.152344 C 20.371094 16.472656 27.308594 10.1875 29.921875 7.796875 Z M 29.921875 16.355469 L 29.921875 19.996094 C 29.921875 20.398438 29.769531 20.925781 29.496094 21.175781 C 27.722656 22.804688 20.871094 29.078125 18.40625 31.179688 C 17.867188 31.640625 16.957031 31.988281 16.050781 32 L 15.953125 32 C 15.042969 31.988281 14.136719 31.636719 13.597656 31.179688 C 11.132812 29.078125 4.28125 22.804688 2.503906 21.175781 C 2.230469 20.925781 2.078125 20.394531 2.078125 19.996094 L 2.078125 16.355469 C 4.691406 18.738281 11.628906 25.03125 13.597656 26.707031 C 14.136719 27.167969 15.042969 27.515625 15.953125 27.527344 L 16.050781 27.527344 C 16.957031 27.515625 17.867188 27.167969 18.40625 26.707031 C 20.371094 25.03125 27.308594 18.738281 29.921875 16.355469 Z M 29.921875 16.355469 "/>
</svg>
