<svg role="img" viewBox="0 0 32 32" height="32" width="32" xmlns="http://www.w3.org/2000/svg"><path d="M3.2 4.48A3.2 3.2 0 0 0 0 7.68v16.64a3.2 3.2 0 0 0 3.2 3.2h25.6a3.2 3.2 0 0 0 3.2-3.2V7.68a3.2 3.2 0 0 0-3.2-3.2Zm1.921 7.04h1.277l2.762 8.378 3-8.378h1.281l-3.581 9.6H8.441Zm10.238 0h1.282v9.601h-1.282Zm4.48 0h4.04c.894 0 1.59.253 2.101.699.446.449.84 1.308.84 2.14 0 .832-.332 1.774-.78 2.22-.446.448-1.142.702-2.099.702h-2.82v3.84H19.84Zm1.282 1.28V16h2.36s2.14.18 2.14-1.578c0-1.762-2.14-1.621-2.14-1.621Zm0 0"/></svg>