<svg role="img" viewBox="0 0 32 32" xmlns="http://www.w3.org/2000/svg"><path d="M2.559 4.48A1.92 1.92 0 0 0 .64 6.398v19.204c0 1.058.859 1.918 1.918 1.918H29.44c1.059 0 1.918-.86 1.918-1.918V6.398A1.92 1.92 0 0 0 29.44 4.48Zm1.921 7.68h1.497l2.093 6.078h.094l2.074-6.078h1.442l-2.762 7.68H7.273Zm8.641 0h3.3c1.556 0 2.618 1.008 2.618 2.555 0 1.523-1.102 2.566-2.676 2.566h-1.965v2.559h-1.277Zm7.36 0h1.195l3.785 5.223h.14V12.16h1.278v7.68h-1.192l-3.785-5.227h-.14v5.227H20.48Zm-6.083 1.149v2.832h1.649c.996 0 1.578-.512 1.578-1.426 0-.942-.566-1.406-2.242-1.406Zm0 0"/></svg>