<?xml version="1.0" encoding="UTF-8"?>
<svg xmlns="http://www.w3.org/2000/svg" xmlns:xlink="http://www.w3.org/1999/xlink" width="32" height="32" viewBox="0 0 32 32">
<defs>
<linearGradient id="linear-pattern-0" gradientUnits="userSpaceOnUse" x1="25.000999" y1="2.972" x2="25.000999" y2="47.028" gradientTransform="matrix(0.64, 0, 0, 0.64, 0, 0)">
<stop offset="0" stop-color="rgb(21.568627%, 75.686275%, 99.215686%)" stop-opacity="1"/>
<stop offset="1" stop-color="rgb(3.921569%, 45.882353%, 83.921569%)" stop-opacity="1"/>
</linearGradient>
</defs>
<path fill-rule="nonzero" fill="url(#linear-pattern-0)" d="M 23.722656 1.921875 C 23.257812 1.882812 22.789062 2.015625 22.414062 2.296875 L 11.234375 10.816406 L 6.457031 7.191406 C 5.96875 6.828125 5.296875 6.855469 4.84375 7.257812 L 2.902344 9.023438 C 2.632812 9.261719 2.476562 9.601562 2.46875 9.960938 C 2.460938 10.320312 2.605469 10.664062 2.863281 10.910156 L 7.28125 16 L 2.863281 21.089844 C 2.605469 21.335938 2.460938 21.679688 2.46875 22.039062 C 2.476562 22.398438 2.632812 22.738281 2.902344 22.976562 L 4.84375 24.742188 C 5.296875 25.144531 5.96875 25.171875 6.457031 24.8125 L 11.234375 21.183594 L 22.414062 29.703125 C 23.015625 30.1875 23.851562 30.265625 24.53125 29.898438 L 28.101562 28.113281 C 28.921875 27.855469 29.46875 27.082031 29.441406 26.226562 L 29.441406 5.777344 C 29.582031 5.066406 29.3125 4.335938 28.742188 3.886719 L 25.171875 2.105469 C 24.734375 1.855469 24.210938 1.789062 23.722656 1.921875 Z M 23.039062 6.933594 L 23.039062 25.066406 L 11.433594 16 Z M 6.300781 9.109375 L 10.390625 12.214844 C 10.707031 12.457031 10.894531 12.835938 10.894531 13.234375 C 10.894531 13.632812 10.707031 14.011719 10.390625 14.253906 L 6.300781 17.359375 L 5.117188 16.277344 L 9.445312 16 L 5.117188 11.882812 Z M 6.300781 9.109375 "/>
</svg>
