<svg role="img" viewBox="0 0 32 32" xmlns="http://www.w3.org/2000/svg"><path d="M-3.2-3.2h38.4v38.4H-3.2z" fill="rgb(100%, 100%, 100%)"/><path d="M32 32H0V0h32ZM3.105 28.8H28.93V3.2H3.105m4.254 6.816 9.762-1.856v16.383L7.36 22.719Zm16.543 12.93h-8.254a.744.744 0 0 1-.734-.739V10.559c0-.414.352-.735.734-.735h8.29c.414 0 .734.352.734.735v11.683a.77.77 0 0 1-.77.703m-8.254-12.481c-.062 0-.062.031-.062.062v11.68c0 .066.031.066.062.066h8.29c.062 0 .062-.035.062-.066V10.559c0-.063-.031-.063-.062-.063h-8.29Zm0 0"/><path d="M16 17.664h2.754v2.75H16Zm3.23-4.234 1.653-1.653 1.652 1.653-1.652 1.648Zm-.03.074h-2.27m4.093 1.441v4.094m-2.27 0h2.72" stroke="rgb(21.568628%, 32.549021%, 61.56863%)" stroke-miterlimit="10" stroke-width=".64"/><path d="M10.047 14.113h.96l1.056 3.168c.097.285.195.703.195.703s.094-.449.191-.703l1.086-3.168h.961l-1.793 4.864h-.863Zm0 0" fill="rgb(100%, 100%, 100%)" stroke="rgb(100%, 100%, 100%)" stroke-miterlimit="10" stroke-width=".24"/></svg>