<?xml version="1.0" encoding="UTF-8"?>
<svg xmlns="http://www.w3.org/2000/svg" xmlns:xlink="http://www.w3.org/1999/xlink" width="32" height="32" viewBox="0 0 32 32">
<rect x="-3.2" y="-3.2" width="38.4" height="38.4" fill="rgb(100%, 100%, 100%)" fill-opacity="1"/>
<path fill-rule="nonzero" fill="rgb(0%, 0%, 0%)" fill-opacity="1" d="M 32 32 L 0 32 L 0 0 L 32 0 Z M 3.105469 28.800781 L 28.929688 28.800781 L 28.929688 3.199219 L 3.105469 3.199219 M 7.359375 10.015625 L 17.121094 8.160156 L 17.121094 24.542969 L 7.359375 22.71875 Z M 23.902344 22.945312 L 15.648438 22.945312 C 15.242188 22.941406 14.914062 22.613281 14.914062 22.207031 L 14.914062 10.558594 C 14.914062 10.144531 15.265625 9.824219 15.648438 9.824219 L 23.9375 9.824219 C 24.351562 9.824219 24.671875 10.175781 24.671875 10.558594 L 24.671875 22.242188 C 24.636719 22.640625 24.300781 22.945312 23.902344 22.945312 M 15.648438 10.464844 C 15.585938 10.464844 15.585938 10.496094 15.585938 10.527344 L 15.585938 22.207031 C 15.585938 22.273438 15.617188 22.273438 15.648438 22.273438 L 23.9375 22.273438 C 24 22.273438 24 22.238281 24 22.207031 L 24 10.558594 C 24 10.496094 23.96875 10.496094 23.9375 10.496094 L 15.648438 10.496094 Z M 15.648438 10.464844 "/>
<path fill="none" stroke-width="0.64" stroke-linecap="butt" stroke-linejoin="miter" stroke="rgb(21.568627%, 32.54902%, 61.568627%)" stroke-opacity="1" stroke-miterlimit="10" d="M 16 17.664062 L 18.753906 17.664062 L 18.753906 20.414062 L 16 20.414062 Z M 19.230469 13.429688 L 20.882812 11.777344 L 22.535156 13.429688 L 20.882812 15.078125 Z M 19.199219 13.503906 L 16.929688 13.503906 M 21.023438 14.945312 L 21.023438 19.039062 M 18.753906 19.039062 L 21.472656 19.039062 "/>
<path fill-rule="nonzero" fill="rgb(100%, 100%, 100%)" fill-opacity="1" stroke-width="0.24" stroke-linecap="butt" stroke-linejoin="miter" stroke="rgb(100%, 100%, 100%)" stroke-opacity="1" stroke-miterlimit="10" d="M 10.046875 14.113281 L 11.007812 14.113281 L 12.0625 17.28125 C 12.160156 17.566406 12.257812 17.984375 12.257812 17.984375 C 12.257812 17.984375 12.351562 17.535156 12.449219 17.28125 L 13.535156 14.113281 L 14.496094 14.113281 L 12.703125 18.976562 L 11.839844 18.976562 Z M 10.046875 14.113281 "/>
</svg>
