<svg role="img" viewBox="0 0 30.745 32" height="32" width="30.745" xmlns="http://www.w3.org/2000/svg"><path d="M13.145.313c-2.57 0-4.66 2.101-4.66 4.687v3.469H4.917c-2.54 0-4.605 2.078-4.605 4.64v13.942c0 2.558 2.066 4.637 4.605 4.637h12.746c2.547 0 4.61-2.079 4.61-4.637v-3.664h3.496c2.574 0 4.66-2.098 4.66-4.688V5c0-2.586-2.086-4.687-4.66-4.687Zm0 1.144H25.77a3.496 3.496 0 0 1 2.503 1.035A3.5 3.5 0 0 1 29.297 5v13.7c0 1.976-1.563 3.55-3.527 3.55h-4.055c-.344 0-.574.27-.574.61v4.19a3.462 3.462 0 0 1-3.477 3.492l-12.746.001c-1.93 0-3.469-1.547-3.469-3.492V13.109c0-1.945 1.54-3.496 3.469-3.496h4.098c.422 0 .601-.3.601-.664V5a3.5 3.5 0 0 1 1.024-2.508 3.51 3.51 0 0 1 2.504-1.035m2.816 5.996a.76.76 0 0 0-.547.23.752.752 0 0 0-.223.547v7.266c0 .047.004.09.012.129a.844.844 0 0 0-.277-.047H8.23a.83.83 0 0 0-.832.848v7.183c0 .473.372.848.832.848h6.696a.845.845 0 0 0 .601-.246.848.848 0 0 0 .243-.602v-7.183a.937.937 0 0 0-.02-.18c.07.02.14.027.21.031h6.79c.43 0 .773-.347.773-.78V8.23a.784.784 0 0 0-.222-.55.787.787 0 0 0-.551-.227Zm0 0" fill="rgb(26.27451%, 26.666667%, 27.058824%)"/></svg>