<svg role="img" viewBox="0 0 32 32" xmlns="http://www.w3.org/2000/svg"><defs><clipPath id="wait-for-approval_svg__a"><path d="M5 2.5h22.625v26.375H5Zm0 0"/></clipPath><clipPath id="wait-for-approval_svg__b"><path d="M0 32V0h32v32Zm15.36-17.922c-3.169 0-5.758 2.594-5.758 5.762s2.59 5.762 5.757 5.762c3.168 0 5.762-2.594 5.762-5.762s-2.594-5.762-5.762-5.762"/></clipPath></defs><g clip-path="url(#wait-for-approval_svg__a)"><g clip-path="url(#wait-for-approval_svg__b)"><path d="M23.04 28.8H10.878a5.77 5.77 0 0 1-5.758-5.76v-6.017a5.67 5.67 0 0 1 1.08-3.378l7.172-9.864c.445-.746 1.203-1.222 1.988-1.222 1.063 0 2.563.914 2.563 2.945 0 .582-.16.973-.313 1.348l-.113.28c-.242.677-1.508 3.54-2.176 5.028 1.973.004 6.336.016 7.996.067 1.825 0 2.922 1.234 2.922 2.43 0 .41-.066.968-.12 1.363.562.335 1.402 1.054 1.402 2.347 0 .903-.434 1.567-.848 2 .422.39.848 1.004.848 1.906 0 1.286-.883 2.063-1.516 2.457.156.422.234.868.234 1.317 0 1.152-1.215 2.754-3.199 2.754" fill="rgb(0%, 0%, 0%)"/></g></g><path d="M15.36 15.04a4.815 4.815 0 0 0-4.801 4.8c0 2.64 2.16 4.8 4.8 4.8a4.815 4.815 0 0 0 4.801-4.8c0-2.64-2.16-4.8-4.8-4.8m.48 5.038-2.113 1.586-.575-.77 1.727-1.292V16.96h.96Zm0 0" fill="rgb(0%, 0%, 0%)"/></svg>