<svg role="img" viewBox="0 0 32 32" height="32" width="32" xmlns="http://www.w3.org/2000/svg"><defs><clipPath id="2__0__479__477__208__206__424__422__478__476__138__136__392__390__288__286__366__364__206__204__wait-for-approval_svg__svg/wait-for-approval.svg733__svg/wait-for-approval.svg729__clip-0"><path d="M5 0h22v32H5Zm0 0"/></clipPath><clipPath id="3__1__480__478__209__207__425__423__479__477__139__137__393__391__289__287__367__365__207__205__wait-for-approval_svg__svg/wait-for-approval.svg735__svg/wait-for-approval.svg731__clip-1"><path d="M0 32V0h32v32ZM16 5.375c-3.379 0-6.145 2.766-6.145 6.145 0 3.378 2.766 6.144 6.145 6.144 3.379 0 6.145-2.766 6.145-6.144 0-3.38-2.766-6.145-6.145-6.145m0 0"/></clipPath></defs><g clip-path="url(#2__0__479__477__208__206__424__422__478__476__138__136__392__390__288__286__366__364__206__204__wait-for-approval_svg__svg/wait-for-approval.svg733__svg/wait-for-approval.svg729__clip-0)"><g clip-path="url(#3__1__480__478__209__207__425__423__479__477__139__137__393__391__289__287__367__365__207__205__wait-for-approval_svg__svg/wait-for-approval.svg735__svg/wait-for-approval.svg731__clip-1)"><path d="M13.762.64a2.618 2.618 0 0 0-2.223 1.27l-.172.281a1.336 1.336 0 0 1-1.129.653l-.328.008A2.622 2.622 0 0 0 7.332 5.43l-.008.328c-.008.465-.254.89-.652 1.133l-.281.168a2.627 2.627 0 0 0-.942 3.523l.156.285c.227.41.227.895 0 1.305l-.156.285a2.633 2.633 0 0 0 .942 3.527l.28.168c.4.243.645.664.653 1.13l.008.327a2.627 2.627 0 0 0 2.578 2.578l.328.008c.465.012.887.254 1.13.653l.171.28a2.623 2.623 0 0 0 2.25 1.27c.43 0 .867-.105 1.27-.324l.289-.16a1.347 1.347 0 0 1 1.304 0l.29.156a2.624 2.624 0 0 0 3.519-.941l.172-.281a1.353 1.353 0 0 1 1.129-.653l.328-.004a2.628 2.628 0 0 0 2.578-2.582l.008-.328c.008-.465.254-.886.652-1.129l.281-.168a2.628 2.628 0 0 0 .942-3.523l-.156-.29a1.337 1.337 0 0 1 0-1.304l.156-.285a2.627 2.627 0 0 0-.942-3.523l-.28-.168a1.351 1.351 0 0 1-.653-1.133l-.008-.328a2.622 2.622 0 0 0-2.578-2.578l-.328-.008a1.345 1.345 0 0 1-1.13-.653l-.171-.277A2.621 2.621 0 0 0 16.94.97l-.289.156a1.337 1.337 0 0 1-1.304 0l-.29-.156a2.634 2.634 0 0 0-1.294-.33m9.672 20.57c-.41.157-.852.25-1.317.259l-.328.008a.07.07 0 0 0-.062.035l-.172.281a3.879 3.879 0 0 1-2.93 1.863l-.184.422-1.722 3.938 1.293 2.96a.643.643 0 0 0 1.09.145l2.367-2.96h4.172a.641.641 0 0 0 .582-.911Zm-14.832.013L5.82 27.25c-.093.2-.078.43.04.613a.646.646 0 0 0 .538.297h4.176l2.367 2.961a.635.635 0 0 0 .5.238c.028 0 .055 0 .082-.004a.643.643 0 0 0 .504-.378l3.243-7.414a3.922 3.922 0 0 1-.946-.368l-.289-.156a.063.063 0 0 0-.035-.012.063.063 0 0 0-.035.012l-.29.156a3.946 3.946 0 0 1-1.886.489 3.879 3.879 0 0 1-3.344-1.891l-.172-.281a.07.07 0 0 0-.062-.035l-.328-.008a3.869 3.869 0 0 1-1.281-.246m0 0"/></g></g><path d="M16 6.398c-2.816 0-5.121 2.305-5.121 5.122 0 2.816 2.305 5.12 5.121 5.12 2.816 0 5.121-2.304 5.121-5.12 0-2.817-2.305-5.122-5.121-5.122m.512 5.38-2.254 1.687-.613-.82 1.843-1.38V8.45h1.024Zm0 0"/></svg>