<?xml version="1.0" encoding="UTF-8"?>
<svg xmlns="http://www.w3.org/2000/svg" xmlns:xlink="http://www.w3.org/1999/xlink" width="32" height="32" viewBox="0 0 32 32">
<path fill-rule="nonzero" fill-opacity="1" d="M 16 3.199219 C 8.941406 3.199219 3.199219 8.941406 3.199219 16 C 3.199219 23.058594 8.941406 28.800781 16 28.800781 C 23.058594 28.800781 28.800781 23.058594 28.800781 16 C 28.800781 8.941406 23.058594 3.199219 16 3.199219 Z M 27.03125 4.667969 C 26.773438 4.664062 26.535156 4.816406 26.433594 5.058594 C 26.332031 5.296875 26.386719 5.574219 26.570312 5.761719 C 29.136719 8.410156 30.71875 12.015625 30.71875 16 C 30.71875 19.375 29.585938 22.476562 27.675781 24.960938 C 27.527344 25.140625 27.484375 25.386719 27.574219 25.605469 C 27.660156 25.824219 27.859375 25.976562 28.089844 26.007812 C 28.324219 26.035156 28.554688 25.933594 28.691406 25.738281 C 30.761719 23.042969 32 19.664062 32 16 C 32 11.675781 30.277344 7.746094 27.488281 4.867188 C 27.371094 4.742188 27.207031 4.671875 27.03125 4.667969 Z M 4.949219 4.667969 C 4.78125 4.675781 4.625 4.746094 4.511719 4.867188 C 1.722656 7.746094 0 11.675781 0 16 C 0 19.664062 1.238281 23.042969 3.308594 25.738281 C 3.445312 25.933594 3.675781 26.035156 3.910156 26.007812 C 4.140625 25.976562 4.339844 25.824219 4.425781 25.605469 C 4.515625 25.386719 4.472656 25.140625 4.324219 24.960938 C 2.414062 22.476562 1.28125 19.375 1.28125 16 C 1.28125 12.015625 2.863281 8.410156 5.429688 5.761719 C 5.617188 5.574219 5.667969 5.289062 5.5625 5.050781 C 5.457031 4.808594 5.210938 4.65625 4.949219 4.667969 Z M 15.359375 8.320312 L 16.640625 8.320312 C 16.992188 8.320312 17.28125 8.605469 17.28125 8.960938 L 17.28125 17.28125 C 17.28125 17.632812 16.992188 17.921875 16.640625 17.921875 L 15.359375 17.921875 C 15.007812 17.921875 14.71875 17.632812 14.71875 17.28125 L 14.71875 8.960938 C 14.71875 8.605469 15.007812 8.320312 15.359375 8.320312 Z M 15.359375 20.480469 L 16.640625 20.480469 C 16.992188 20.480469 17.28125 20.765625 17.28125 21.121094 L 17.28125 22.398438 C 17.28125 22.753906 16.992188 23.039062 16.640625 23.039062 L 15.359375 23.039062 C 15.007812 23.039062 14.71875 22.753906 14.71875 22.398438 L 14.71875 21.121094 C 14.71875 20.765625 15.007812 20.480469 15.359375 20.480469 Z M 15.359375 20.480469 "/>
</svg>
