<?xml version="1.0" encoding="UTF-8"?>
<svg xmlns="http://www.w3.org/2000/svg" xmlns:xlink="http://www.w3.org/1999/xlink" width="32" height="32" viewBox="0 0 32 32">
<path  d="M 9.332031 27.332031 C 7.675781 27.332031 6.261719 26.746094 5.089844 25.574219 C 3.917969 24.40625 3.332031 22.988281 3.332031 21.332031 C 3.332031 20.019531 3.707031 18.851562 4.453125 17.828125 C 5.199219 16.804688 6.160156 16.09375 7.332031 15.699219 L 7.332031 17.128906 C 6.554688 17.5 5.917969 18.0625 5.417969 18.820312 C 4.917969 19.578125 4.667969 20.414062 4.667969 21.332031 C 4.667969 22.613281 5.125 23.714844 6.039062 24.628906 C 6.953125 25.542969 8.050781 26 9.332031 26 C 10.613281 26 11.714844 25.542969 12.628906 24.628906 C 13.542969 23.714844 14 22.613281 14 21.332031 L 14 20.667969 L 21.191406 20.667969 C 21.316406 20.382812 21.515625 20.148438 21.777344 19.964844 C 22.042969 19.78125 22.339844 19.691406 22.667969 19.691406 C 23.121094 19.691406 23.507812 19.851562 23.828125 20.171875 C 24.148438 20.492188 24.308594 20.882812 24.308594 21.332031 C 24.308594 21.785156 24.148438 22.171875 23.828125 22.492188 C 23.507812 22.8125 23.121094 22.972656 22.667969 22.972656 C 22.320312 22.972656 22.019531 22.886719 21.765625 22.714844 C 21.507812 22.539062 21.316406 22.300781 21.191406 22 L 15.300781 22 C 15.09375 23.636719 14.410156 24.933594 13.25 25.894531 C 12.089844 26.851562 10.785156 27.332031 9.332031 27.332031 M 22.667969 27.332031 C 21.730469 27.332031 20.859375 27.128906 20.054688 26.722656 C 19.246094 26.316406 18.546875 25.75 17.953125 25.023438 L 19.824219 25.023438 C 20.1875 25.316406 20.617188 25.550781 21.113281 25.730469 C 21.613281 25.910156 22.128906 26 22.667969 26 C 23.949219 26 25.046875 25.542969 25.960938 24.628906 C 26.875 23.714844 27.332031 22.613281 27.332031 21.332031 C 27.332031 20.050781 26.875 18.953125 25.960938 18.039062 C 25.046875 17.125 23.949219 16.667969 22.667969 16.667969 C 22.273438 16.667969 21.910156 16.710938 21.574219 16.796875 C 21.238281 16.886719 20.910156 17.011719 20.597656 17.167969 L 16.863281 10.941406 C 16.398438 11.007812 15.972656 10.882812 15.59375 10.570312 C 15.214844 10.257812 15.027344 9.84375 15.027344 9.332031 C 15.027344 8.878906 15.1875 8.492188 15.507812 8.171875 C 15.828125 7.851562 16.214844 7.691406 16.667969 7.691406 C 17.121094 7.691406 17.507812 7.851562 17.828125 8.171875 C 18.148438 8.492188 18.308594 8.878906 18.308594 9.332031 C 18.308594 9.496094 18.28125 9.65625 18.230469 9.808594 C 18.179688 9.964844 18.109375 10.097656 18.011719 10.207031 L 21.167969 15.511719 C 21.398438 15.464844 21.632812 15.425781 21.875 15.386719 C 22.117188 15.351562 22.382812 15.332031 22.667969 15.332031 C 24.324219 15.332031 25.738281 15.917969 26.910156 17.089844 C 28.082031 18.261719 28.667969 19.675781 28.667969 21.332031 C 28.664062 22.988281 28.078125 24.40625 26.910156 25.574219 C 25.738281 26.746094 24.324219 27.332031 22.667969 27.332031 M 9.332031 22.972656 C 8.878906 22.972656 8.492188 22.8125 8.171875 22.492188 C 7.851562 22.171875 7.691406 21.785156 7.691406 21.332031 C 7.691406 20.878906 7.863281 20.480469 8.199219 20.144531 C 8.535156 19.804688 8.976562 19.664062 9.523438 19.726562 L 12.9375 14.039062 C 12.191406 13.457031 11.625 12.757812 11.242188 11.941406 C 10.859375 11.125 10.667969 10.253906 10.667969 9.332031 C 10.667969 7.675781 11.253906 6.261719 12.425781 5.089844 C 13.59375 3.917969 15.011719 3.332031 16.667969 3.332031 C 18.324219 3.332031 19.738281 3.917969 20.910156 5.089844 C 22.082031 6.261719 22.667969 7.675781 22.667969 9.332031 L 21.332031 9.332031 C 21.332031 8.050781 20.875 6.953125 19.960938 6.039062 C 19.046875 5.125 17.949219 4.667969 16.667969 4.667969 C 15.386719 4.667969 14.285156 5.125 13.371094 6.039062 C 12.457031 6.953125 12 8.050781 12 9.332031 C 12 10.273438 12.246094 11.109375 12.738281 11.851562 C 13.230469 12.589844 13.90625 13.171875 14.757812 13.59375 L 10.667969 20.425781 C 10.765625 20.554688 10.839844 20.699219 10.894531 20.855469 C 10.945312 21.011719 10.972656 21.171875 10.972656 21.335938 C 10.972656 21.789062 10.8125 22.175781 10.492188 22.496094 C 10.171875 22.816406 9.785156 22.976562 9.332031 22.976562 "/>
</svg>
