<svg role="img" viewBox="0 0 32 32" height="32" width="32" xmlns="http://www.w3.org/2000/svg"><path d="M16 1.281C7.871 1.281 1.281 7.871 1.281 16S7.871 30.719 16 30.719 30.719 24.129 30.719 16 24.129 1.281 16 1.281m0 1.278c6.074 0 11.215 4.054 12.871 9.601h-1.34a12.168 12.168 0 0 0-2.054-3.75c-.836.39-1.766.73-2.786 1 .278.871.508 1.79.668 2.75h-1.293a18.364 18.364 0 0 0-.613-2.457 27.302 27.302 0 0 1-4.812.524v1.933h-1.282v-1.933a26.929 26.929 0 0 1-4.808-.528 17.985 17.985 0 0 0-.617 2.461H8.64c.164-.96.39-1.879.668-2.75a17.264 17.264 0 0 1-2.79-1 12.285 12.285 0 0 0-2.05 3.75H3.125c1.66-5.547 6.8-9.6 12.875-9.6m-.64 1.347c-.794.153-1.563.594-2.294 1.32-.82.82-1.515 1.946-2.07 3.262 1.367.27 2.848.422 4.363.457Zm1.28 0v5.04a25.804 25.804 0 0 0 4.364-.458c-.559-1.332-1.266-2.465-2.098-3.289-.718-.71-1.48-1.14-2.265-1.293m-4.667.625a12.165 12.165 0 0 0-4.555 2.88c.71.304 1.484.573 2.324.792.59-1.457 1.34-2.719 2.23-3.672m8.05 0c.891.953 1.641 2.215 2.235 3.672.84-.219 1.617-.484 2.324-.793a12.15 12.15 0 0 0-4.559-2.879M2.56 13.441h1.347l.98 3.516 1.184-3.516h1.563l1.137 3.575 1-3.575h1.32L9.512 18.56h-1.39l-1.298-3.825-1.289 3.825H4.113Zm9.175 0h1.344l.98 3.516 1.188-3.516h1.563l1.14 3.575.992-3.575h1.325l-1.578 5.118h-1.391L16 14.734l-1.29 3.825h-1.42Zm9.145 0h1.348l.984 3.516 1.191-3.516h1.567l1.144 3.575 1-3.575h1.328l-1.586 5.118h-1.394l-1.3-3.825-1.298 3.825h-1.43Zm1.187 6.399h1.293c-.164.96-.39 1.879-.668 2.75 1.016.273 1.95.61 2.79 1a12.248 12.248 0 0 0 2.05-3.75h1.34c-1.657 5.543-6.798 9.6-12.872 9.6S4.785 25.386 3.125 19.839h1.344a12.168 12.168 0 0 0 2.054 3.75c.836-.39 1.766-.73 2.786-1a19.783 19.783 0 0 1-.668-2.75h1.293c.152.863.363 1.683.613 2.457a27.302 27.302 0 0 1 4.812-.524V19.84h1.282v1.933a26.96 26.96 0 0 1 4.808.528c.254-.778.465-1.598.617-2.461m-6.707 3.215c-1.511.035-2.98.187-4.34.457 1.055 2.5 2.606 4.234 4.34 4.582Zm1.282 0v5.039c.793-.157 1.562-.598 2.293-1.324.82-.817 1.515-1.942 2.07-3.258a25.846 25.846 0 0 0-4.363-.457m5.617.742c-.59 1.457-1.34 2.719-2.23 3.672a12.165 12.165 0 0 0 4.554-2.88 16.359 16.359 0 0 0-2.324-.792M9.723 23.8a16.14 16.14 0 0 0-2.309.785 12.213 12.213 0 0 0 4.52 2.867c-.875-.941-1.621-2.187-2.211-3.652m0 0"/></svg>