<?xml version="1.0" encoding="UTF-8"?>
<svg xmlns="http://www.w3.org/2000/svg" xmlns:xlink="http://www.w3.org/1999/xlink" width="32.000404" height="32" viewBox="0 0 32.000404 32">
<path fill-rule="nonzero" fill="rgb(53.333333%, 9.019608%, 10.196078%)" fill-opacity="1" d="M 31.972656 15.527344 C 31.972656 15.527344 32.714844 0 15.648438 0 C 0.558594 0 0.0859375 14.894531 0.0859375 14.894531 C 0.0859375 14.894531 -2.132812 32 15.996094 32 C 33.386719 32 31.972656 15.527344 31.972656 15.527344 Z M 31.972656 15.527344 "/>
<path fill-rule="nonzero" fill="rgb(100%, 100%, 100%)" fill-opacity="1" d="M 10.875 10.101562 C 14.074219 8.140625 18.167969 9.339844 19.699219 12.285156 C 19.988281 12.84375 20.027344 13.703125 19.84375 14.289062 C 19.207031 16.308594 17.707031 17.445312 15.648438 17.925781 C 16.257812 17.40625 16.738281 16.816406 16.894531 16.003906 C 17.054688 15.222656 16.878906 14.410156 16.410156 13.769531 C 15.660156 12.738281 14.316406 12.328125 13.121094 12.765625 C 11.855469 13.246094 11.160156 14.40625 11.285156 15.828125 C 11.402344 17.148438 12.402344 18.003906 14.277344 18.328125 C 14 18.476562 13.78125 18.585938 13.570312 18.703125 C 12.710938 19.171875 11.964844 19.824219 11.378906 20.609375 C 11.191406 20.867188 11.058594 20.886719 10.769531 20.710938 C 7 18.402344 6.757812 12.621094 10.875 10.101562 Z M 8.054688 24.34375 C 7.449219 24.496094 6.859375 24.726562 6.242188 24.929688 C 6.542969 22.886719 8.9375 21.003906 10.960938 21.21875 C 10.375 22.027344 10.03125 22.984375 9.972656 23.980469 C 9.300781 24.105469 8.667969 24.1875 8.054688 24.34375 Z M 20.9375 4.398438 C 21.535156 4.421875 22.136719 4.414062 22.734375 4.425781 C 22.882812 4.4375 23.03125 4.457031 23.179688 4.488281 C 23.042969 4.695312 22.894531 4.886719 22.726562 5.066406 C 22.511719 5.269531 22.269531 5.460938 21.960938 5.160156 C 21.886719 5.085938 21.710938 5.101562 21.582031 5.101562 C 20.988281 5.09375 20.390625 5.074219 19.796875 5.097656 C 19.28125 5.113281 18.765625 5.167969 18.257812 5.253906 C 18.164062 5.269531 18.019531 5.589844 18.066406 5.707031 C 18.167969 5.980469 18.320312 6.285156 18.542969 6.460938 C 19.367188 7.113281 20.246094 7.699219 21.074219 8.34375 C 21.882812 8.976562 22.632812 9.664062 23.089844 10.613281 C 23.683594 11.847656 23.703125 13.144531 23.445312 14.449219 C 23.015625 16.621094 21.917969 18.421875 20.136719 19.730469 C 19.417969 20.257812 18.527344 20.554688 17.707031 20.933594 C 16.984375 21.269531 16.238281 21.554688 15.515625 21.882812 C 14.207031 22.476562 13.472656 23.894531 13.691406 25.371094 C 13.886719 26.722656 15.074219 27.851562 16.433594 28.085938 C 18.066406 28.367188 19.75 27.304688 20.148438 25.648438 C 20.597656 23.785156 19.582031 22.117188 17.6875 21.613281 C 17.605469 21.59375 17.519531 21.570312 17.347656 21.527344 C 17.851562 21.300781 18.292969 21.136719 18.695312 20.914062 C 19.402344 20.527344 20.09375 20.117188 20.773438 19.683594 C 20.972656 19.554688 21.082031 19.554688 21.253906 19.703125 C 22.554688 20.828125 23.335938 22.230469 23.550781 23.949219 C 23.914062 26.796875 22.566406 29.414062 20.023438 30.753906 C 16.09375 32.824219 11.28125 30.464844 10.414062 26.105469 C 9.667969 22.375 12.304688 18.988281 15.476562 18.332031 C 16.839844 18.050781 18.085938 17.484375 19.058594 16.433594 C 19.683594 15.753906 19.984375 15.175781 20.089844 14.910156 C 20.28125 14.417969 20.378906 13.894531 20.378906 13.367188 C 20.359375 12.910156 20.25 12.460938 20.0625 12.046875 C 19.730469 11.289062 18.464844 10.089844 18.148438 9.835938 L 15.164062 7.5 C 15.058594 7.414062 14.9375 7.417969 14.683594 7.4375 C 14.375 7.457031 13.597656 7.5 13.261719 7.410156 C 13.53125 7.207031 14.273438 6.90625 14.59375 6.664062 C 13.625 6.011719 12.519531 6.246094 11.507812 6.050781 C 11.742188 5.613281 12.902344 4.941406 13.5625 4.867188 C 13.523438 4.5 13.460938 4.132812 13.382812 3.773438 C 13.339844 3.625 13.175781 3.480469 13.03125 3.394531 C 12.679688 3.1875 12.308594 3.019531 11.90625 2.816406 C 12.265625 2.582031 12.683594 2.453125 13.113281 2.441406 C 13.523438 2.425781 13.929688 2.464844 14.324219 2.558594 C 15.042969 2.722656 15.617188 2.617188 16.191406 2.128906 C 15.742188 1.945312 15.289062 1.78125 14.851562 1.585938 C 14.421875 1.386719 14.003906 1.167969 13.597656 0.925781 C 14.730469 1.085938 15.824219 1.507812 16.984375 1.355469 C 16.996094 1.300781 17.003906 1.25 17.015625 1.195312 C 16.148438 0.996094 15.28125 0.792969 14.324219 0.570312 C 15.925781 0.421875 17.421875 0.398438 18.835938 1.085938 C 19.234375 1.28125 19.648438 1.441406 20.03125 1.664062 C 20.21875 1.773438 20.34375 1.984375 20.496094 2.148438 C 20.617188 2.28125 20.714844 2.457031 20.863281 2.535156 C 21.425781 2.835938 22.050781 2.847656 22.683594 2.835938 C 22.6875 2.761719 22.691406 2.695312 22.699219 2.621094 C 23.335938 2.820312 24.054688 3.558594 24.054688 4.09375 C 23.019531 4.09375 21.988281 4.089844 20.953125 4.101562 C 20.84375 4.101562 20.734375 4.179688 20.625 4.226562 C 20.726562 4.285156 20.832031 4.394531 20.9375 4.398438 Z M 20.9375 4.398438 "/>
<path fill-rule="nonzero" fill="rgb(53.333333%, 9.019608%, 10.196078%)" fill-opacity="1" d="M 19.605469 2.871094 C 19.5625 2.898438 19.535156 2.941406 19.53125 2.992188 C 19.527344 3.039062 19.546875 3.089844 19.582031 3.121094 C 19.613281 3.179688 19.667969 3.21875 19.730469 3.234375 C 19.789062 3.25 19.855469 3.242188 19.910156 3.210938 C 20.011719 3.160156 20.109375 3.105469 20.230469 3.042969 C 20.132812 2.960938 20.054688 2.890625 19.972656 2.828125 C 19.832031 2.710938 19.71875 2.785156 19.605469 2.871094 Z M 19.605469 2.871094 "/>
</svg>
