<?xml version="1.0" encoding="UTF-8"?>
<svg xmlns="http://www.w3.org/2000/svg" xmlns:xlink="http://www.w3.org/1999/xlink" width="32" height="32" viewBox="0 0 32 32">
<path fill-rule="nonzero" fill="rgb(0%, 0%, 0%)" fill-opacity="1" d="M 6.398438 0 C 2.871094 0 0 2.871094 0 6.398438 C 0 9.640625 2.425781 12.308594 5.558594 12.71875 L 3.378906 14.898438 C 3.125 15.15625 3.125 15.566406 3.378906 15.820312 C 3.636719 16.074219 4.046875 16.074219 4.300781 15.820312 L 5.761719 14.359375 L 5.761719 19.199219 L 0.640625 19.199219 C 0.621094 19.199219 0.601562 19.199219 0.578125 19.199219 C 0.25 19.230469 -0.00390625 19.507812 0 19.839844 L 0 31.359375 C 0 31.710938 0.289062 32 0.640625 32 L 12.160156 32 C 12.511719 32 12.800781 31.710938 12.800781 31.359375 L 12.800781 19.839844 C 12.800781 19.488281 12.511719 19.199219 12.160156 19.199219 L 7.039062 19.199219 L 7.039062 14.359375 L 8.5 15.820312 C 8.753906 16.074219 9.164062 16.074219 9.421875 15.820312 C 9.675781 15.566406 9.675781 15.15625 9.421875 14.898438 L 7.238281 12.71875 C 10.164062 12.332031 12.46875 9.992188 12.761719 7.039062 L 17.640625 7.039062 L 16.179688 8.5 C 15.925781 8.753906 15.925781 9.164062 16.179688 9.421875 C 16.433594 9.675781 16.84375 9.675781 17.101562 9.421875 L 19.519531 7 L 24.960938 12.441406 L 24.960938 17.640625 L 23.5 16.179688 C 23.34375 16.019531 23.117188 15.953125 22.898438 16 C 22.660156 16.042969 22.46875 16.21875 22.398438 16.449219 C 22.332031 16.683594 22.402344 16.933594 22.578125 17.101562 L 24.761719 19.28125 C 21.628906 19.691406 19.199219 22.359375 19.199219 25.601562 C 19.199219 29.128906 22.074219 32 25.601562 32 C 29.128906 32 32 29.128906 32 25.601562 C 32 22.359375 29.574219 19.691406 26.441406 19.28125 L 28.621094 17.101562 C 28.875 16.84375 28.875 16.433594 28.621094 16.179688 C 28.363281 15.925781 27.953125 15.925781 27.699219 16.179688 L 26.238281 17.640625 L 26.238281 12.441406 L 31.820312 6.859375 C 31.945312 6.738281 32.015625 6.574219 32.015625 6.398438 C 32.015625 6.226562 31.945312 6.058594 31.820312 5.941406 L 26.058594 0.179688 C 25.917969 0.0390625 25.71875 -0.0273438 25.519531 0 C 25.378906 0.015625 25.242188 0.078125 25.140625 0.179688 L 19.519531 5.800781 L 17.101562 3.378906 C 16.96875 3.238281 16.773438 3.164062 16.578125 3.179688 C 16.550781 3.183594 16.523438 3.191406 16.5 3.199219 C 16.261719 3.242188 16.066406 3.417969 16 3.648438 C 15.933594 3.886719 16.003906 4.136719 16.179688 4.300781 L 17.640625 5.761719 L 12.761719 5.761719 C 12.441406 2.53125 9.710938 0 6.398438 0 Z M 6.398438 1.28125 C 9.148438 1.28125 11.363281 3.425781 11.5 6.140625 C 11.441406 6.300781 11.445312 6.484375 11.519531 6.640625 C 11.519531 6.648438 11.519531 6.652344 11.519531 6.660156 C 11.382812 9.371094 9.148438 11.519531 6.398438 11.519531 C 3.566406 11.519531 1.28125 9.234375 1.28125 6.398438 C 1.28125 3.566406 3.566406 1.28125 6.398438 1.28125 Z M 25.601562 1.558594 L 30.441406 6.398438 L 25.601562 11.238281 L 20.761719 6.398438 Z M 1.28125 20.480469 L 11.519531 20.480469 L 11.519531 30.71875 L 1.28125 30.71875 Z M 25.601562 20.480469 C 28.433594 20.480469 30.71875 22.765625 30.71875 25.601562 C 30.71875 28.433594 28.433594 30.71875 25.601562 30.71875 C 22.765625 30.71875 20.480469 28.433594 20.480469 25.601562 C 20.480469 22.765625 22.765625 20.480469 25.601562 20.480469 Z M 25.601562 20.480469 "/>
</svg>
