<svg role="img" viewBox="0 0 32 32" xmlns="http://www.w3.org/2000/svg"><path d="M6.398 0A6.407 6.407 0 0 0 0 6.398a6.4 6.4 0 0 0 5.559 6.34l-2.18 2.16a.66.66 0 0 0 0 .922c.25.25.672.25.922 0l1.46-1.48v4.86H.642a.64.64 0 0 0-.641.64v11.52a.64.64 0 0 0 .64.64h11.52a.64.64 0 0 0 .453-.187.64.64 0 0 0 .188-.454V19.84a.64.64 0 0 0-.64-.64H7.038v-4.86L8.5 15.82c.125.125.293.18.46.18a.65.65 0 0 0 .462-.18.67.67 0 0 0 0-.922l-2.18-2.16a6.39 6.39 0 0 0 5.52-5.699h4.898L16.18 8.5a.66.66 0 0 0 0 .922c.125.125.297.18.46.18a.65.65 0 0 0 .462-.18L19.52 7l5.44 5.441v5.22L23.5 16.18a.66.66 0 0 0-.922 0 .67.67 0 0 0 0 .922l2.184 2.16a6.4 6.4 0 0 0-5.563 6.34A6.407 6.407 0 0 0 25.602 32 6.407 6.407 0 0 0 32 25.602a6.4 6.4 0 0 0-5.559-6.34l2.18-2.16a.66.66 0 0 0 0-.922.66.66 0 0 0-.922 0l-1.46 1.48v-5.219L31.82 6.86a.656.656 0 0 0 0-.918L26.06.18a.656.656 0 0 0-.918 0L19.52 5.8l-2.418-2.42a.66.66 0 0 0-.922 0 .66.66 0 0 0 0 .922l1.48 1.46h-4.902A6.39 6.39 0 0 0 6.398 0"/></svg>