<?xml version="1.0" encoding="UTF-8"?>
<svg xmlns="http://www.w3.org/2000/svg" xmlns:xlink="http://www.w3.org/1999/xlink" width="32" height="32" viewBox="0 0 32 32">
<path fill="none" stroke-width="24.384001" stroke-linecap="round" stroke-linejoin="round" stroke="rgb(64.313728%, 64.313728%, 64.313728%)" stroke-opacity="1" stroke-miterlimit="4" d="M 237.71875 128 C 237.71875 188.59375 188.59375 237.71875 128 237.71875 M 237.71875 128 C 237.71875 67.40625 188.59375 18.28125 128 18.28125 M 237.71875 128 L 18.28125 128 M 128 237.71875 C 67.40625 237.71875 18.28125 188.59375 18.28125 128 M 128 237.71875 C 148.1875 237.71875 164.5625 188.59375 164.5625 128 C 164.5625 67.40625 148.1875 18.28125 128 18.28125 M 128 237.71875 C 107.8125 237.71875 91.4375 188.59375 91.4375 128 C 91.4375 67.40625 107.8125 18.28125 128 18.28125 M 18.28125 128 C 18.28125 67.40625 67.40625 18.28125 128 18.28125 " transform="matrix(0.125, 0, 0, 0.125, 0, 0)"/>
</svg>
