<svg role="img" viewBox="0 0 32 32" xmlns="http://www.w3.org/2000/svg"><path d="M29.715 16c0 7.574-6.14 13.715-13.715 13.715M29.715 16c0-7.574-6.14-13.715-13.715-13.715M29.715 16H2.285M16 29.715c-7.574 0-13.715-6.14-13.715-13.715M16 29.715c2.523 0 4.57-6.14 4.57-13.715 0-7.574-2.047-13.715-4.57-13.715m0 27.43c-2.523 0-4.57-6.14-4.57-13.715 0-7.574 2.047-13.715 4.57-13.715M2.285 16C2.285 8.426 8.425 2.285 16 2.285" stroke="rgb(64.313728%, 64.313728%, 64.313728%)" stroke-linecap="round" stroke-linejoin="round" stroke-width="3.048"/></svg>