<?xml version="1.0" encoding="UTF-8"?>
<svg xmlns="http://www.w3.org/2000/svg" xmlns:xlink="http://www.w3.org/1999/xlink" width="32" height="32" viewBox="0 0 32 32">
<path fill="none" stroke-width="3.048" stroke-linecap="round" stroke-linejoin="round" stroke="rgb(64.313725%, 64.313725%, 64.313725%)" stroke-opacity="1" stroke-miterlimit="4" d="M 29.714844 16 C 29.714844 23.574219 23.574219 29.714844 16 29.714844 M 29.714844 16 C 29.714844 8.425781 23.574219 2.285156 16 2.285156 M 29.714844 16 L 2.285156 16 M 16 29.714844 C 8.425781 29.714844 2.285156 23.574219 2.285156 16 M 16 29.714844 C 18.523438 29.714844 20.570312 23.574219 20.570312 16 C 20.570312 8.425781 18.523438 2.285156 16 2.285156 M 16 29.714844 C 13.476562 29.714844 11.429688 23.574219 11.429688 16 C 11.429688 8.425781 13.476562 2.285156 16 2.285156 M 2.285156 16 C 2.285156 8.425781 8.425781 2.285156 16 2.285156 "/>
</svg>
