<svg role="img" viewBox="0 0 32 32" xmlns="http://www.w3.org/2000/svg"><path d="M16 2.8c-5.59 0-10.355 3.49-12.277 8.4h-.121c-.66 0-1.204.542-1.204 1.198v7.204c0 .656.543 1.199 1.204 1.199h.12C5.646 25.71 10.41 29.199 16 29.199s10.355-3.488 12.277-8.398h.121c.66 0 1.204-.543 1.204-1.2v-7.203c0-.656-.543-1.199-1.204-1.199h-.12C26.354 6.29 21.59 2.801 16 2.801m0 .8a.403.403 0 0 0-.398.399.4.4 0 0 0 .398.398.4.4 0 0 0 .379-.382.404.404 0 0 0-.348-.414c5.133.011 9.508 3.148 11.383 7.597H4.586C6.46 6.742 10.852 3.602 16 3.602M13.2 4a.4.4 0 0 0-.352.2.398.398 0 0 0 .355.6.396.396 0 0 0 .399-.402.4.4 0 0 0-.403-.398m5.602 0a.41.41 0 0 0-.371.246.402.402 0 0 0 .371.555.403.403 0 0 0 .402-.399.4.4 0 0 0-.402-.402M12 5.2a.401.401 0 0 0 0 .8.4.4 0 0 0 .398-.398.4.4 0 0 0-.113-.286A.42.42 0 0 0 12 5.2m4 0a.403.403 0 0 0-.383.403c.004.21.168.386.383.398a.4.4 0 0 0 .398-.398.4.4 0 0 0-.113-.286A.42.42 0 0 0 16 5.2m4 0a.403.403 0 0 0-.383.403c.004.21.168.386.383.398a.4.4 0 0 0 .398-.398.4.4 0 0 0-.113-.286A.42.42 0 0 0 20 5.2M8 6.801a.402.402 0 1 0 0 .8.4.4 0 0 0 .383-.398A.403.403 0 0 0 8 6.801m1.602 0a.4.4 0 0 0-.403.398c0 .223.176.403.399.406.222 0 .402-.18.402-.402a.4.4 0 0 0-.398-.402m1.597 0a.406.406 0 0 0-.398.402c0 .106.043.207.117.285.074.074.18.114.285.114a.4.4 0 0 0 .399-.399.4.4 0 0 0-.122-.281.4.4 0 0 0-.28-.117m1.6 0a.402.402 0 1 0-.004.8.401.401 0 0 0 .005-.8m1.597 0a.4.4 0 1 0-.054.802.4.4 0 0 0 .054-.802M16 6.8a.394.394 0 0 0-.398.367v.031c0 .211.16.387.37.403H16a.397.397 0 0 0 .383-.399A.403.403 0 0 0 16 6.8m1.602 0a.4.4 0 0 0-.403.398c0 .223.176.403.399.406A.4.4 0 0 0 18 7.207a.4.4 0 0 0-.398-.406m1.597 0a.406.406 0 0 0-.398.402.394.394 0 0 0 .402.399.4.4 0 0 0 .399-.399.406.406 0 0 0-.403-.398m1.602 0a.402.402 0 1 0-.004.8.401.401 0 0 0 .004-.8m1.597 0a.4.4 0 1 0-.054.802.4.4 0 0 0 .054-.802M24 6.8a.402.402 0 1 0 0 .8.4.4 0 0 0 0-.8M10.398 8.398a.4.4 0 0 0-.39.403.4.4 0 0 0 .394.398.4.4 0 0 0 .371-.25.41.41 0 0 0-.09-.437.4.4 0 0 0-.285-.114m5.602 0a.403.403 0 0 0-.383.403c0 .21.168.386.383.398a.4.4 0 0 0 .398-.398.4.4 0 0 0-.113-.285.42.42 0 0 0-.285-.118m5.602 0a.4.4 0 0 0-.383.61.39.39 0 0 0 .379.191.401.401 0 0 0 .004-.8M10 10a.4.4 0 0 0 0 .8.403.403 0 0 0 .383-.402A.405.405 0 0 0 10 10m6 0a.4.4 0 0 0 0 .8.403.403 0 0 0 .383-.402A.405.405 0 0 0 16 10m6 0a.4.4 0 0 0 0 .8.403.403 0 0 0 .383-.402A.405.405 0 0 0 22 10M3.602 12h24.796c.227 0 .403.172.403.398v7.204a.38.38 0 0 1-.117.285.4.4 0 0 1-.286.113H3.602a.4.4 0 0 1-.286-.113.4.4 0 0 1-.117-.285v-7.204c0-.226.176-.398.403-.398M6 14l1.203 4h.754l.906-2.832h.043L9.82 18h.75l1.203-4h-.828l-.765 2.977h-.047L9.243 14H8.53l-.883 2.977h-.046L6.836 14Zm7.113 0 1.2 4h.757l.907-2.832h.046l.91 2.832h.755l1.199-4h-.828l-.766 2.977h-.043L16.355 14h-.71l-.883 2.977h-.047L13.949 14Zm7.114 0 1.203 4h.75l.91-2.832h.047l.91 2.832h.75L26 14h-.828l-.766 2.977h-.043L23.47 14h-.711l-.883 2.977h-.047L21.063 14Zm-7.829 3.2a.4.4 0 0 0-.363.198.4.4 0 0 0 .004.41c.074.126.215.2.363.192.223 0 .403-.18.399-.402a.42.42 0 0 0-.117-.285.4.4 0 0 0-.286-.114m7.204 0a.4.4 0 0 0-.372.188.402.402 0 0 0 .45.597.401.401 0 0 0-.078-.785M4.586 20.801h22.828C25.54 25.258 21.148 28.398 16 28.398a.4.4 0 0 0 .398-.398.405.405 0 0 0-.398-.398.4.4 0 0 0-.031.797C10.836 28.386 6.46 25.25 4.586 20.8m5.414.402a.401.401 0 0 0 0 .8.4.4 0 0 0 .281-.683.4.4 0 0 0-.281-.117m6 0a.401.401 0 0 0 0 .8.4.4 0 0 0 .281-.683.4.4 0 0 0-.281-.117m6 0a.401.401 0 0 0 0 .8.4.4 0 0 0 .281-.683.4.4 0 0 0-.281-.117M10.398 22.8a.403.403 0 0 0-.398.402.401.401 0 0 0 .8-.004.403.403 0 0 0-.402-.394m5.602 0a.402.402 0 1 0 0 .8.403.403 0 0 0 .383-.402.4.4 0 0 0-.383-.398m5.602 0a.4.4 0 0 0-.372.191.397.397 0 0 0 .473.586.4.4 0 0 0-.101-.777M8 24.398a.4.4 0 0 0 0 .801.4.4 0 0 0 .398-.398.4.4 0 0 0-.398-.402m1.602 0a.4.4 0 0 0-.383.61.39.39 0 0 0 .379.19.401.401 0 0 0 .004-.8m1.597 0a.404.404 0 0 0-.398.406.4.4 0 1 0 .8-.008.4.4 0 0 0-.402-.399m1.602 0a.4.4 0 0 0-.383.61.4.4 0 0 0 .379.191.401.401 0 0 0 .004-.8m1.597 0a.404.404 0 0 0-.398.406.4.4 0 0 0 .195.367c.13.078.29.078.418-.004a.4.4 0 0 0 .188-.371.4.4 0 0 0-.403-.399m1.602 0a.404.404 0 0 0-.398.375v.032a.4.4 0 0 0 .37.394H16a.4.4 0 0 0 0-.797m1.602 0a.4.4 0 0 0-.372.188.402.402 0 0 0 .368.61.398.398 0 1 0 .004-.798m1.597 0a.4.4 0 0 0-.355.2.39.39 0 0 0 .004.406.398.398 0 0 0 .742-.207.396.396 0 0 0-.39-.399m1.6 0a.395.395 0 0 0-.371.602.4.4 0 0 0 .368.195.403.403 0 0 0 .402-.394.4.4 0 0 0-.398-.403m1.597 0a.4.4 0 0 0-.285.118.4.4 0 0 0-.113.285c0 .222.18.398.402.398a.42.42 0 0 0 .285-.117.41.41 0 0 0-.004-.57.4.4 0 0 0-.285-.114m1.602 0a.397.397 0 0 0-.383.399c0 .215.168.39.383.402a.4.4 0 0 0 0-.8M12 26a.4.4 0 0 0 0 .8.403.403 0 0 0 .383-.402A.405.405 0 0 0 12 26m4 0a.4.4 0 0 0 0 .8.403.403 0 0 0 .383-.402A.405.405 0 0 0 16 26m4 0a.4.4 0 0 0 0 .8.403.403 0 0 0 .383-.402A.405.405 0 0 0 20 26m-6.8 1.2a.42.42 0 0 0-.364.195.406.406 0 0 0 .367.605.42.42 0 0 0 .285-.117.4.4 0 0 0 .114-.285.42.42 0 0 0-.118-.285.4.4 0 0 0-.285-.114m5.602 0a.401.401 0 1 0-.004.801.4.4 0 0 0 .371-.398.404.404 0 0 0-.367-.403m0 0" fill="rgb(20.392157%, 59.607846%, 85.882354%)"/></svg>