<svg role="img" viewBox="0 0 32 32" height="32" width="32" xmlns="http://www.w3.org/2000/svg"><path d="M16 2.8c-5.59 0-10.355 3.49-12.277 8.4h-.121c-.66 0-1.204.542-1.204 1.198v7.204c0 .656.543 1.199 1.204 1.199h.12C5.646 25.71 10.41 29.199 16 29.199c5.59 0 10.355-3.488 12.277-8.398h.121c.66 0 1.204-.543 1.204-1.2v-7.203c0-.656-.543-1.199-1.204-1.199h-.12C26.354 6.29 21.59 2.801 16 2.801m0 .8a.405.405 0 0 0-.398.399.4.4 0 0 0 .398.398.399.399 0 0 0 .379-.382.404.404 0 0 0-.348-.414c5.133.011 9.508 3.148 11.383 7.597H4.586C6.46 6.742 10.852 3.602 16 3.602M13.2 4a.398.398 0 0 0-.352.2.398.398 0 0 0 .355.6.434.434 0 0 0 .285-.116.389.389 0 0 0 .114-.286.4.4 0 0 0-.403-.398m5.602 0a.41.41 0 0 0-.371.246.4.4 0 0 0 .039.375c.074.113.199.18.332.18.222 0 .398-.18.402-.399a.409.409 0 0 0-.117-.285A.409.409 0 0 0 18.8 4M12 5.2a.401.401 0 0 0 0 .8.4.4 0 0 0 .398-.398.408.408 0 0 0-.113-.286A.434.434 0 0 0 12 5.2m4 0a.403.403 0 0 0-.383.403c.004.21.168.386.383.398a.398.398 0 0 0 .398-.398.412.412 0 0 0-.113-.286A.434.434 0 0 0 16 5.2m4 0a.403.403 0 0 0-.383.403c.004.21.168.386.383.398a.398.398 0 0 0 .398-.398.412.412 0 0 0-.113-.286A.434.434 0 0 0 20 5.2M8 6.801a.407.407 0 0 0-.383.187.416.416 0 0 0 0 .426c.082.129.23.203.383.188a.397.397 0 0 0 .383-.399A.403.403 0 0 0 8 6.801m1.602 0a.399.399 0 0 0-.403.398c0 .223.176.403.399.406.222 0 .402-.18.402-.402a.398.398 0 0 0-.398-.402m1.597 0a.411.411 0 0 0-.398.402c0 .106.043.207.117.285.074.074.18.114.285.114a.4.4 0 0 0 .399-.399.403.403 0 0 0-.122-.281.4.4 0 0 0-.28-.117m1.6 0a.407.407 0 0 0-.386.613c.082.129.23.203.383.187a.401.401 0 0 0 .004-.8m1.597 0a.404.404 0 0 0-.332.668c.07.078.172.125.278.132a.403.403 0 0 0 .43-.371.403.403 0 0 0-.376-.43M16 6.802a.389.389 0 0 0-.398.367V7.2c0 .211.16.387.37.403H16a.397.397 0 0 0 .383-.399.403.403 0 0 0-.383-.402m1.602 0a.389.389 0 0 0-.286.113.396.396 0 0 0-.09.438c.063.152.208.25.372.253.16 0 .308-.097.375-.246a.403.403 0 0 0-.371-.558m1.597 0a.409.409 0 0 0-.398.402.394.394 0 0 0 .402.399.4.4 0 0 0 .399-.399.403.403 0 0 0-.403-.398m1.602 0a.4.4 0 0 0-.383.187.392.392 0 0 0 0 .422.393.393 0 0 0 .379.191.401.401 0 0 0 .004-.8m1.597 0a.405.405 0 0 0-.293.097.396.396 0 0 0-.136.278.404.404 0 0 0 .805.055.403.403 0 0 0-.376-.43M24 6.8a.407.407 0 0 0-.383.187.416.416 0 0 0 0 .426c.082.129.23.203.383.188.223 0 .398-.18.398-.403A.403.403 0 0 0 24 6.801M10.398 8.398a.4.4 0 0 0-.39.403.4.4 0 0 0 .394.398.399.399 0 0 0 .371-.25.412.412 0 0 0-.09-.437.412.412 0 0 0-.285-.114m5.602 0a.403.403 0 0 0-.383.403c0 .21.168.386.383.398a.4.4 0 0 0 .398-.398.412.412 0 0 0-.113-.285.416.416 0 0 0-.285-.118m5.602 0a.4.4 0 0 0-.383.61.393.393 0 0 0 .379.191.401.401 0 0 0 .004-.8M10 10a.4.4 0 0 0 0 .8.403.403 0 0 0 .383-.402A.405.405 0 0 0 10 10m6 0a.4.4 0 0 0 0 .8.403.403 0 0 0 .383-.402A.405.405 0 0 0 16 10m6 0a.4.4 0 0 0 0 .8.403.403 0 0 0 .383-.402A.405.405 0 0 0 22 10M3.602 12h24.796c.227 0 .403.172.403.398v7.204a.377.377 0 0 1-.117.285.405.405 0 0 1-.286.113H3.602a.405.405 0 0 1-.286-.113.409.409 0 0 1-.117-.285v-7.204c0-.226.176-.398.403-.398M6 14l1.203 4h.754l.906-2.832h.043L9.82 18h.75l1.203-4h-.828l-.765 2.977h-.047L9.243 14H8.53l-.883 2.977h-.046L6.836 14Zm7.113 0 1.2 4h.757l.907-2.832h.046l.91 2.832h.755l1.199-4h-.828l-.766 2.977h-.043L16.355 14h-.71l-.883 2.977h-.047L13.949 14Zm7.114 0 1.203 4h.75l.91-2.832h.047l.91 2.832h.75L26 14h-.828l-.766 2.977h-.043L23.47 14h-.711l-.883 2.977h-.047L21.063 14Zm-7.829 3.2a.405.405 0 0 0-.363.198.397.397 0 0 0 .004.41c.074.126.215.2.363.192.223 0 .403-.18.399-.402a.416.416 0 0 0-.117-.285.405.405 0 0 0-.286-.114m7.204 0a.396.396 0 0 0-.372.188c-.09.14-.082.32.02.453.098.133.27.191.43.144a.4.4 0 0 0-.078-.785M4.586 20.801h22.828C25.54 25.258 21.148 28.398 16 28.398a.4.4 0 0 0 .398-.398.405.405 0 0 0-.398-.398.402.402 0 0 0-.379.382.404.404 0 0 0 .348.414c-5.133-.011-9.508-3.148-11.383-7.597m5.414.402a.401.401 0 0 0 0 .8.41.41 0 0 0 .367-.25.4.4 0 0 0-.035-.374.402.402 0 0 0-.332-.176m6 0a.401.401 0 0 0 0 .8.41.41 0 0 0 .367-.25.4.4 0 0 0-.035-.374.402.402 0 0 0-.332-.176m6 0a.401.401 0 0 0 0 .8.41.41 0 0 0 .367-.25.4.4 0 0 0-.035-.374.402.402 0 0 0-.332-.176m-11.602 1.598a.398.398 0 0 0-.398.402.401.401 0 0 0 .8-.004.403.403 0 0 0-.402-.394m5.602 0a.407.407 0 0 0-.383.187.416.416 0 0 0 0 .426c.082.129.23.203.383.187a.403.403 0 0 0 .383-.402.397.397 0 0 0-.383-.398m5.602 0a.4.4 0 0 0-.372.191.387.387 0 0 0 .024.461.403.403 0 0 0 .71-.305.4.4 0 0 0-.362-.347M8 24.398a.401.401 0 1 0-.003.8.401.401 0 0 0 .003-.8m1.602 0a.4.4 0 0 0-.383.61.393.393 0 0 0 .379.191.401.401 0 0 0 .004-.8m1.597 0a.404.404 0 0 0-.398.406.403.403 0 0 0 .402.394.4.4 0 0 0-.004-.8m1.602 0a.4.4 0 0 0-.383.61.393.393 0 0 0 .379.19.401.401 0 0 0 .004-.8m1.597 0a.404.404 0 0 0-.398.406.404.404 0 0 0 .195.367c.13.078.29.078.418-.004a.404.404 0 0 0 .188-.371.4.4 0 0 0-.403-.399m1.602 0a.404.404 0 0 0-.398.375v.032a.403.403 0 0 0 .37.394H16a.403.403 0 0 0 .367-.398.403.403 0 0 0-.367-.399m1.602 0a.396.396 0 0 0-.372.188.402.402 0 0 0 .368.61.403.403 0 0 0 .402-.395.401.401 0 0 0-.398-.403m1.597 0a.404.404 0 0 0-.355.2.39.39 0 0 0 .004.406c.093.156.277.23.449.18a.397.397 0 0 0 .293-.387.396.396 0 0 0-.39-.399m1.6 0a.389.389 0 0 0-.37.188.404.404 0 0 0 .367.61.403.403 0 0 0 .402-.395.399.399 0 0 0-.398-.403m1.597 0a.409.409 0 0 0-.285.118.412.412 0 0 0-.113.285c0 .222.18.398.402.398a.416.416 0 0 0 .285-.117.413.413 0 0 0-.003-.57.389.389 0 0 0-.286-.114m1.602 0a.397.397 0 0 0-.383.399c0 .215.168.39.383.402.223 0 .398-.18.398-.398a.4.4 0 0 0-.398-.402M12 26a.4.4 0 0 0 0 .8.403.403 0 0 0 .383-.402A.405.405 0 0 0 12 26m4 0a.4.4 0 0 0 0 .8.403.403 0 0 0 .383-.402A.405.405 0 0 0 16 26m4 0a.4.4 0 0 0 0 .8.403.403 0 0 0 .383-.402A.405.405 0 0 0 20 26m-6.8 1.2a.418.418 0 0 0-.364.195.406.406 0 0 0 .367.605.416.416 0 0 0 .285-.117.405.405 0 0 0 .114-.285.416.416 0 0 0-.118-.285.412.412 0 0 0-.285-.114m5.602 0a.406.406 0 0 0-.367.605.401.401 0 0 0 .363.196.4.4 0 0 0 .371-.398.406.406 0 0 0-.367-.403m0 0" fill="rgb(20.392157%, 59.607843%, 85.882353%)"/></svg>