<?xml version="1.0" encoding="UTF-8"?>
<svg xmlns="http://www.w3.org/2000/svg" xmlns:xlink="http://www.w3.org/1999/xlink" width="32" height="32" viewBox="0 0 32 32">
<path fill-rule="nonzero" fill="rgb(29.803923%, 68.627453%, 31.37255%)" fill-opacity="1" d="M 30.273438 4.222656 L 16.832031 4.222656 L 16.832031 27.742188 L 30.273438 27.742188 C 30.753906 27.742188 31.105469 27.359375 31.105469 26.914062 L 31.105469 5.085938 C 31.105469 4.609375 30.753906 4.222656 30.273438 4.222656 Z M 30.273438 4.222656 "/>
<path fill-rule="nonzero" fill="rgb(0%, 0%, 0%)" fill-opacity="1" d="M 22.71875 8.449219 L 28.609375 8.449219 L 28.609375 10.976562 L 22.71875 10.976562 Z M 22.71875 16.832031 L 28.609375 16.832031 L 28.609375 19.359375 L 22.71875 19.359375 Z M 22.71875 21.023438 L 28.609375 21.023438 L 28.609375 23.550781 L 22.71875 23.550781 Z M 22.71875 12.640625 L 28.609375 12.640625 L 28.609375 15.167969 L 22.71875 15.167969 Z M 16.832031 8.449219 L 21.023438 8.449219 L 21.023438 10.976562 L 16.832031 10.976562 Z M 16.832031 16.832031 L 21.023438 16.832031 L 21.023438 19.359375 L 16.832031 19.359375 Z M 16.832031 21.023438 L 21.023438 21.023438 L 21.023438 23.550781 L 16.832031 23.550781 Z M 16.832031 12.640625 L 21.023438 12.640625 L 21.023438 15.167969 L 16.832031 15.167969 Z M 16.832031 12.640625 "/>
<path fill-rule="nonzero" fill="rgb(18.039216%, 49.019608%, 19.607843%)" fill-opacity="1" d="M 18.527344 31.136719 L 0.894531 27.777344 L 0.894531 4.222656 L 18.527344 0.863281 Z M 18.527344 31.136719 "/>
<path fill-rule="nonzero" fill="rgb(0%, 0%, 0%)" fill-opacity="1" d="M 11.871094 21.757812 L 9.886719 18.015625 C 9.824219 17.886719 9.726562 17.632812 9.664062 17.246094 L 9.601562 17.246094 C 9.566406 17.441406 9.472656 17.695312 9.34375 18.046875 L 7.359375 21.757812 L 4.257812 21.757812 L 7.9375 16 L 4.578125 10.242188 L 7.746094 10.242188 L 9.410156 13.695312 C 9.535156 13.984375 9.664062 14.304688 9.761719 14.65625 L 9.792969 14.65625 C 9.855469 14.433594 9.984375 14.113281 10.144531 13.664062 L 11.9375 10.242188 L 14.816406 10.242188 L 11.390625 15.9375 L 14.945312 21.757812 Z M 11.871094 21.757812 "/>
</svg>
