<svg role="img" viewBox="0 0 32 32" xmlns="http://www.w3.org/2000/svg"><path d="M30.273 4.223H16.832v23.52h13.441c.48 0 .832-.384.832-.829V5.086c0-.477-.351-.863-.832-.863m0 0" fill="rgb(29.803923%, 68.627453%, 31.37255%)"/><path d="M22.719 8.45h5.89v2.527h-5.89Zm0 8.382h5.89v2.527h-5.89Zm0 4.191h5.89v2.528h-5.89Zm0-8.382h5.89v2.527h-5.89Zm-5.887-4.192h4.191v2.528h-4.191Zm0 8.383h4.191v2.527h-4.191Zm0 4.191h4.191v2.528h-4.191Zm0-8.382h4.191v2.527h-4.191Zm0 0" fill="rgb(0%, 0%, 0%)"/><path d="M18.527 31.137.895 27.777V4.223L18.527.863Zm0 0" fill="rgb(18.039216%, 49.019608%, 19.607843%)"/><path d="m11.871 21.758-1.984-3.742a2.8 2.8 0 0 1-.223-.77h-.062c-.036.195-.13.45-.258.8l-1.985 3.712H4.258L7.938 16l-3.36-5.758h3.168l1.664 3.453c.125.29.254.61.352.961h.031c.062-.222.191-.543.352-.992l1.793-3.422h2.878l-3.425 5.695 3.554 5.82Zm0 0" fill="rgb(0%, 0%, 0%)"/></svg>