<?xml version="1.0" encoding="UTF-8"?>
<svg xmlns="http://www.w3.org/2000/svg" xmlns:xlink="http://www.w3.org/1999/xlink" width="32" height="32" viewBox="0 0 32 32">
<path fill-rule="nonzero" fill="rgb(0%, 0%, 0%)" fill-opacity="1" d="M 28 6.667969 L 4 6.667969 C 2.53125 6.667969 1.332031 7.863281 1.332031 9.332031 L 1.332031 24 C 1.332031 25.46875 2.53125 26.667969 4 26.667969 L 28 26.667969 C 29.46875 26.667969 30.667969 25.46875 30.667969 24 L 30.667969 9.332031 C 30.667969 7.863281 29.46875 6.667969 28 6.667969 Z M 10.320312 20 L 9.332031 17.667969 L 8.347656 20 L 6.667969 20 L 8.394531 16.636719 L 6.699219 13.332031 L 8.363281 13.332031 L 9.332031 15.621094 L 10.296875 13.332031 L 11.960938 13.332031 L 10.273438 16.636719 L 12 20 Z M 20 20 L 18.667969 20 L 18.667969 18.203125 L 18.804688 15.4375 L 17.167969 20 L 16.15625 20 L 14.53125 15.4375 L 14.667969 18.203125 L 14.667969 20 L 13.332031 20 L 13.332031 13.363281 L 15.277344 13.363281 L 16.667969 18.164062 L 18.054688 13.363281 L 20 13.363281 Z M 25.332031 20 L 21.332031 20 L 21.332031 13.332031 L 22.667969 13.332031 L 22.667969 18.667969 L 25.332031 18.667969 Z M 25.332031 20 "/>
</svg>
