<?xml version="1.0" encoding="UTF-8"?>
<svg xmlns="http://www.w3.org/2000/svg" xmlns:xlink="http://www.w3.org/1999/xlink" width="23.040001" height="32" viewBox="0 0 23.040001 32">
<defs>
<linearGradient id="linear-pattern-0" gradientUnits="userSpaceOnUse" x1="36.108002" y1="3.003" x2="36.108002" y2="101.000999" gradientTransform="matrix(1, 0, 0, -1, 0, 102)">
<stop offset="0" stop-color="rgb(78.431373%, 83.137255%, 85.882353%)" stop-opacity="1"/>
<stop offset="0.139" stop-color="rgb(84.705882%, 88.235294%, 90.196078%)" stop-opacity="1"/>
<stop offset="0.359" stop-color="rgb(92.156863%, 94.117647%, 95.294118%)" stop-opacity="1"/>
<stop offset="0.617" stop-color="rgb(97.647059%, 98.039216%, 98.431373%)" stop-opacity="1"/>
<stop offset="1" stop-color="rgb(100%, 100%, 100%)" stop-opacity="1"/>
</linearGradient>
<linearGradient id="linear-pattern-1" gradientUnits="userSpaceOnUse" x1="13.15" y1="22" x2="54.150002" y2="22" gradientTransform="matrix(0.32, 0, 0, 0.32, 0, 0.64)">
<stop offset="0" stop-color="rgb(44.705882%, 56.862745%, 63.137255%)" stop-opacity="1"/>
<stop offset="1" stop-color="rgb(79.215686%, 83.529412%, 85.882353%)" stop-opacity="1"/>
</linearGradient>
<linearGradient id="linear-pattern-2" gradientUnits="userSpaceOnUse" x1="19.15" y1="33.75" x2="60.150002" y2="33.75" gradientTransform="matrix(0.32, 0, 0, 0.32, 0, 0.64)">
<stop offset="0" stop-color="rgb(44.705882%, 56.862745%, 63.137255%)" stop-opacity="1"/>
<stop offset="1" stop-color="rgb(79.215686%, 83.529412%, 85.882353%)" stop-opacity="1"/>
</linearGradient>
<linearGradient id="linear-pattern-3" gradientUnits="userSpaceOnUse" x1="13.15" y1="45.75" x2="54.150002" y2="45.75" gradientTransform="matrix(0.32, 0, 0, 0.32, 0, 0.64)">
<stop offset="0" stop-color="rgb(44.705882%, 56.862745%, 63.137255%)" stop-opacity="1"/>
<stop offset="1" stop-color="rgb(79.215686%, 83.529412%, 85.882353%)" stop-opacity="1"/>
</linearGradient>
<linearGradient id="linear-pattern-4" gradientUnits="userSpaceOnUse" x1="19.15" y1="58" x2="60.150002" y2="58" gradientTransform="matrix(0.32, 0, 0, 0.32, 0, 0.64)">
<stop offset="0" stop-color="rgb(44.705882%, 56.862745%, 63.137255%)" stop-opacity="1"/>
<stop offset="1" stop-color="rgb(79.215686%, 83.529412%, 85.882353%)" stop-opacity="1"/>
</linearGradient>
<linearGradient id="linear-pattern-5" gradientUnits="userSpaceOnUse" x1="45.122002" y1="74.228996" x2="58.575001" y2="87.682999" gradientTransform="matrix(1, 0, 0, -1, 0, 102)">
<stop offset="0" stop-color="rgb(100%, 100%, 100%)" stop-opacity="1"/>
<stop offset="0.35" stop-color="rgb(98.039216%, 98.431373%, 98.431373%)" stop-opacity="1"/>
<stop offset="0.532" stop-color="rgb(92.941176%, 94.509804%, 95.686275%)" stop-opacity="1"/>
<stop offset="0.675" stop-color="rgb(86.666667%, 89.803922%, 91.372549%)" stop-opacity="1"/>
<stop offset="0.799" stop-color="rgb(78.039216%, 82.745098%, 85.490196%)" stop-opacity="1"/>
<stop offset="0.908" stop-color="rgb(67.843137%, 74.117647%, 78.039216%)" stop-opacity="1"/>
<stop offset="1" stop-color="rgb(57.254902%, 64.705882%, 69.019608%)" stop-opacity="1"/>
</linearGradient>
</defs>
<path fill-rule="nonzero" fill="url(#linear-pattern-0)" stroke-width="2" stroke-linecap="butt" stroke-linejoin="miter" stroke="rgb(44.313725%, 56.862745%, 63.137255%)" stroke-opacity="1" stroke-miterlimit="4" d="M 45.104981 1.000977 L 71.997072 27.697755 L 71.997072 98.999026 L 0.195313 98.999026 L 0.195313 1.000977 Z M 45.104981 1.000977 " transform="matrix(0.32, 0, 0, 0.32, 0, 0)"/>
<path fill-rule="nonzero" fill="rgb(29.803922%, 42.352941%, 48.235294%)" fill-opacity="1" d="M 3.871094 29.152344 L 3.871094 27.039062 L 2.015625 24.128906 L 3.230469 24.128906 L 4.414062 26.113281 L 5.601562 24.128906 L 6.785156 24.128906 L 4.929688 27.039062 L 4.929688 29.152344 Z M 11.199219 29.152344 L 10.078125 29.152344 L 9.632812 28 L 7.617188 28 L 7.199219 29.152344 L 6.113281 29.152344 L 8.097656 24.128906 L 9.183594 24.128906 Z M 9.3125 27.136719 L 8.609375 25.28125 L 7.9375 27.136719 Z M 11.742188 29.152344 L 11.742188 24.097656 L 13.28125 24.097656 L 14.207031 27.519531 L 15.105469 24.097656 L 16.640625 24.097656 L 16.640625 29.121094 L 15.679688 29.121094 L 15.679688 25.183594 L 14.6875 29.152344 L 13.695312 29.152344 L 12.703125 25.183594 L 12.703125 29.152344 Z M 17.664062 29.152344 L 17.664062 24.128906 L 18.6875 24.128906 L 18.6875 28.289062 L 21.246094 28.289062 L 21.246094 29.152344 Z M 17.664062 29.152344 "/>
<path fill-rule="nonzero" fill="url(#linear-pattern-1)" d="M 4.191406 7.039062 L 17.3125 7.039062 L 17.3125 8.320312 L 4.191406 8.320312 Z M 4.191406 7.039062 "/>
<path fill-rule="nonzero" fill="url(#linear-pattern-2)" d="M 6.113281 10.785156 L 19.230469 10.785156 L 19.230469 12.097656 L 6.113281 12.097656 Z M 6.113281 10.785156 "/>
<path fill-rule="nonzero" fill="url(#linear-pattern-3)" d="M 4.191406 14.625 L 17.3125 14.625 L 17.3125 15.9375 L 4.191406 15.9375 Z M 4.191406 14.625 "/>
<path fill-rule="nonzero" fill="url(#linear-pattern-4)" d="M 6.113281 18.558594 L 19.230469 18.558594 L 19.230469 19.839844 L 6.113281 19.839844 Z M 6.113281 18.558594 "/>
<path fill-rule="nonzero" fill="url(#linear-pattern-5)" stroke-width="2" stroke-linecap="butt" stroke-linejoin="bevel" stroke="rgb(44.313725%, 56.862745%, 63.137255%)" stroke-opacity="1" stroke-miterlimit="4" d="M 45.104981 1.000977 L 71.997072 27.697755 L 45.104981 27.697755 Z M 45.104981 1.000977 " transform="matrix(0.32, 0, 0, 0.32, 0, 0)"/>
</svg>
