<svg role="img" viewBox="0 0 23.04 32" height="32" width="23.04" xmlns="http://www.w3.org/2000/svg"><defs><linearGradient gradientTransform="matrix(.32 0 0 .32 0 .64)" gradientUnits="userSpaceOnUse" id="362__356__374__368__yaml-lp-1" x1="13.15" x2="54.15" y1="22" y2="22"><stop offset="0" stop-color="rgb(44.705882%, 56.862745%, 63.137255%)"/><stop offset="1" stop-color="rgb(79.215686%, 83.529412%, 85.882353%)"/></linearGradient><linearGradient gradientTransform="matrix(.32 0 0 .32 0 .64)" gradientUnits="userSpaceOnUse" id="363__357__375__369__linear-pattern-2" x1="19.15" x2="60.15" y1="33.75" y2="33.75"><stop offset="0" stop-color="rgb(44.705882%, 56.862745%, 63.137255%)"/><stop offset="1" stop-color="rgb(79.215686%, 83.529412%, 85.882353%)"/></linearGradient><linearGradient gradientTransform="matrix(.32 0 0 .32 0 .64)" gradientUnits="userSpaceOnUse" id="364__358__376__370__linear-pattern-3" x1="13.15" x2="54.15" y1="45.75" y2="45.75"><stop offset="0" stop-color="rgb(44.705882%, 56.862745%, 63.137255%)"/><stop offset="1" stop-color="rgb(79.215686%, 83.529412%, 85.882353%)"/></linearGradient><linearGradient gradientTransform="matrix(.32 0 0 .32 0 .64)" gradientUnits="userSpaceOnUse" id="365__359__377__371__linear-pattern-4" x1="19.15" x2="60.15" y1="58" y2="58"><stop offset="0" stop-color="rgb(44.705882%, 56.862745%, 63.137255%)"/><stop offset="1" stop-color="rgb(79.215686%, 83.529412%, 85.882353%)"/></linearGradient><linearGradient gradientTransform="matrix(1 0 0 -1 0 102)" gradientUnits="userSpaceOnUse" id="366__360__378__372__linear-pattern-5" x1="45.122" x2="58.575" y1="74.229" y2="87.683"><stop offset="0" stop-color="rgb(100%, 100%, 100%)"/><stop offset=".35" stop-color="rgb(98.039216%, 98.431373%, 98.431373%)"/><stop offset=".532" stop-color="rgb(92.941176%, 94.509804%, 95.686275%)"/><stop offset=".675" stop-color="rgb(86.666667%, 89.803922%, 91.372549%)"/><stop offset=".799" stop-color="rgb(78.039216%, 82.745098%, 85.490196%)"/><stop offset=".908" stop-color="rgb(67.843137%, 74.117647%, 78.039216%)"/><stop offset="1" stop-color="rgb(57.254902%, 64.705882%, 69.019608%)"/></linearGradient></defs><path d="m45.105 1.001 26.892 26.697v71.301H.195V1.001Zm0 0" fill="url(#367__361__373__367__linear-pattern-0)" stroke="rgb(44.313725%, 56.862745%, 63.137255%)" stroke-width="2" transform="scale(.32)"/><path d="M3.871 29.152V27.04l-1.855-2.91H3.23l1.184 1.984 1.188-1.984h1.183L4.93 27.04v2.113Zm7.328 0h-1.12L9.632 28H7.617L7.2 29.152H6.113l1.985-5.023h1.086Zm-1.886-2.015-.704-1.856-.671 1.856Zm2.43 2.015v-5.054h1.538l.926 3.422.898-3.422h1.536v5.023h-.961v-3.937l-.992 3.968h-.993l-.992-3.968v3.968Zm5.921 0V24.13h1.023v4.16h2.56v.863Zm0 0" fill="rgb(29.803922%, 42.352941%, 48.235294%)"/><path d="M4.191 7.04h13.122v1.28H4.19Zm0 0" fill="url(#362__356__374__368__linear-pattern-1)"/><path d="M6.113 10.785H19.23v1.313H6.113Zm0 0" fill="url(#363__357__375__369__linear-pattern-2)"/><path d="M4.191 14.625h13.122v1.313H4.19Zm0 0" fill="url(#364__358__376__370__linear-pattern-3)"/><path d="M6.113 18.559H19.23v1.28H6.113Zm0 0" fill="url(#365__359__377__371__linear-pattern-4)"/><path d="m45.105 1.001 26.892 26.697H45.105Zm0 0" fill="url(#366__360__378__372__linear-pattern-5)" stroke="rgb(44.313725%, 56.862745%, 63.137255%)" stroke-linejoin="bevel" stroke-width="2" transform="scale(.32)"/></svg>