<?xml version="1.0" encoding="UTF-8"?>
<svg xmlns="http://www.w3.org/2000/svg" xmlns:xlink="http://www.w3.org/1999/xlink" width="32" height="32" viewBox="0 0 32 32">
<rect x="-3.2" y="-3.2" width="38.4" height="38.4" fill="rgb(100%, 100%, 100%)" fill-opacity="1"/>
<path fill-rule="nonzero" fill="rgb(0%, 0%, 0%)" fill-opacity="1" d="M 32 32 L 0 32 L 0 0 L 32 0 Z M 3.105469 28.800781 L 28.929688 28.800781 L 28.929688 3.199219 L 3.105469 3.199219 M 23.167969 12.320312 L 20.640625 12.320312 L 20.640625 9.792969 Z M 16.351562 9.792969 L 16.351562 19.007812 L 23.199219 19.007812 L 23.199219 12.929688 L 20.03125 12.929688 L 20.03125 9.757812 L 16.351562 9.757812 Z M 17.410156 7.359375 L 9.855469 7.359375 L 9.855469 9.152344 L 12.832031 9.152344 L 10.945312 10.59375 L 10.945312 12.128906 L 13.695312 10.015625 L 13.695312 9.152344 L 23.328125 9.152344 L 23.328125 8.414062 Z M 13.726562 11.230469 L 10.976562 13.34375 L 10.976562 14.878906 L 13.726562 12.769531 Z M 10.945312 17.632812 L 13.695312 15.519531 L 13.695312 13.984375 L 10.945312 16.097656 Z M 13.726562 18.273438 L 13.726562 16.734375 L 10.976562 18.847656 L 10.976562 19.679688 L 9.886719 19.679688 L 9.886719 21.472656 L 11.585938 21.472656 L 11.585938 22.6875 L 10.558594 22.6875 C 10.375 22.367188 10.03125 22.171875 9.664062 22.175781 C 9.390625 22.171875 9.128906 22.277344 8.9375 22.472656 C 8.746094 22.664062 8.636719 22.925781 8.640625 23.199219 C 8.640625 23.777344 9.085938 24.222656 9.664062 24.222656 C 10.046875 24.222656 10.367188 24.03125 10.558594 23.710938 L 11.550781 23.710938 L 11.550781 24.640625 L 13.089844 24.640625 L 13.089844 23.710938 L 14.082031 23.710938 C 14.273438 24.03125 14.589844 24.222656 14.976562 24.222656 C 15.25 24.226562 15.511719 24.121094 15.703125 23.925781 C 15.898438 23.734375 16.003906 23.472656 16 23.199219 C 16 22.625 15.550781 22.175781 14.976562 22.175781 C 14.589844 22.175781 14.273438 22.367188 14.082031 22.6875 L 13.085938 22.6875 L 13.085938 21.472656 L 17.410156 21.472656 L 23.328125 20.414062 L 23.328125 19.679688 L 11.871094 19.679688 Z M 13.726562 18.273438 "/>
</svg>
