<svg role="img" viewBox="0 0 32 32" height="32" width="32" xmlns="http://www.w3.org/2000/svg"><defs><linearGradient gradientTransform="scale(32)" gradientUnits="userSpaceOnUse" id="303__302__193__192__446__445__82__81__71__70__444__443__79__78__75__74__1__0__437__436__zulip_svg__svg/zulip.svg159__svg/zulip.svg157__zulip-lp-0" x1=".5" x2=".5" y1="0" y2="1"><stop offset="0" stop-color="rgb(14.117647%, 67.843137%, 100%)"/><stop offset="1" stop-color="rgb(48.235294%, 44.313725%, 100%)"/></linearGradient></defs><path d="M16 0c8.836 0 16 7.164 16 16s-7.164 16-16 16S0 24.836 0 16 7.164 0 16 0m-.79 14.777-5.737 5.121c-.59.465-.977 1.235-.977 2.098 0 1.41 1.031 2.563 2.297 2.563h10.781c1.262 0 2.297-1.153 2.297-2.563 0-1.41-1.035-2.562-2.297-2.562h-8.16c-.121 0-.2-.145-.14-.266l2.105-4.211c.074-.125-.063-.27-.168-.18m6.363-7.355H10.793c-1.266 0-2.297 1.152-2.297 2.562s1.031 2.563 2.297 2.563h8.16c.121 0 .2.144.14.262l-2.105 4.214c-.078.122.063.27.168.18l5.739-5.125c.59-.465.976-1.23.976-2.094 0-1.41-1.031-2.566-2.297-2.562" fill="url(#303__302__193__192__446__445__82__81__71__70__444__443__79__78__75__74__1__0__437__436__zulip_svg__svg/zulip.svg159__svg/zulip.svg157__zulip-lp-0)"/></svg>