<?xml version="1.0" encoding="UTF-8"?>
<svg xmlns="http://www.w3.org/2000/svg" xmlns:xlink="http://www.w3.org/1999/xlink" width="32" height="32" viewBox="0 0 32 32">
<path fill-rule="nonzero" fill="rgb(0%, 0%, 0%)" fill-opacity="1" d="M 16 2.132812 C 15.410156 2.132812 14.933594 2.609375 14.933594 3.199219 L 14.933594 3.382812 C 14.933594 3.894531 14.574219 4.347656 14.070312 4.429688 C 13.828125 4.46875 13.585938 4.515625 13.34375 4.570312 C 12.851562 4.679688 12.351562 4.402344 12.15625 3.933594 L 12.085938 3.765625 C 11.859375 3.222656 11.234375 2.964844 10.691406 3.1875 C 10.148438 3.414062 9.890625 4.039062 10.113281 4.582031 L 10.1875 4.753906 C 10.390625 5.222656 10.222656 5.773438 9.789062 6.046875 C 9.582031 6.179688 9.378906 6.316406 9.179688 6.457031 C 8.765625 6.753906 8.191406 6.683594 7.832031 6.324219 L 7.703125 6.195312 C 7.285156 5.78125 6.613281 5.78125 6.195312 6.195312 C 5.78125 6.613281 5.78125 7.285156 6.195312 7.703125 L 6.324219 7.832031 C 6.683594 8.191406 6.75 8.765625 6.457031 9.179688 C 6.316406 9.378906 6.179688 9.582031 6.046875 9.792969 C 5.777344 10.226562 5.222656 10.382812 4.753906 10.1875 L 4.582031 10.117188 C 4.039062 9.890625 3.414062 10.148438 3.1875 10.691406 C 3.078125 10.953125 3.078125 11.246094 3.1875 11.507812 C 3.296875 11.769531 3.503906 11.976562 3.765625 12.085938 L 3.933594 12.15625 C 4.398438 12.351562 4.679688 12.851562 4.570312 13.347656 C 4.515625 13.585938 4.464844 13.824219 4.425781 14.070312 C 4.347656 14.574219 3.894531 14.933594 3.382812 14.933594 L 3.199219 14.933594 C 2.609375 14.933594 2.132812 15.410156 2.132812 16 C 2.132812 16.589844 2.609375 17.066406 3.199219 17.066406 L 3.382812 17.066406 C 3.894531 17.066406 4.347656 17.425781 4.429688 17.929688 C 4.46875 18.175781 4.515625 18.414062 4.570312 18.65625 C 4.679688 19.148438 4.402344 19.648438 3.933594 19.84375 L 3.765625 19.914062 C 3.222656 20.140625 2.964844 20.765625 3.1875 21.308594 C 3.414062 21.851562 4.039062 22.113281 4.582031 21.886719 L 4.753906 21.8125 C 5.222656 21.621094 5.78125 21.777344 6.050781 22.210938 C 6.179688 22.417969 6.316406 22.621094 6.457031 22.824219 C 6.753906 23.234375 6.6875 23.808594 6.328125 24.167969 L 6.195312 24.296875 C 5.78125 24.714844 5.78125 25.386719 6.195312 25.804688 C 6.394531 26.003906 6.664062 26.117188 6.949219 26.117188 C 7.230469 26.117188 7.503906 26.003906 7.703125 25.804688 L 7.835938 25.679688 C 8.195312 25.316406 8.765625 25.246094 9.179688 25.542969 C 9.378906 25.6875 9.585938 25.824219 9.792969 25.953125 C 10.226562 26.222656 10.386719 26.78125 10.1875 27.25 L 10.117188 27.417969 C 10.007812 27.679688 10.007812 27.972656 10.117188 28.234375 C 10.222656 28.496094 10.433594 28.707031 10.695312 28.8125 C 11.238281 29.039062 11.863281 28.78125 12.089844 28.238281 L 12.15625 28.070312 C 12.351562 27.601562 12.851562 27.320312 13.347656 27.433594 C 13.585938 27.488281 13.828125 27.535156 14.074219 27.574219 C 14.574219 27.652344 14.933594 28.105469 14.933594 28.617188 L 14.933594 28.800781 C 14.933594 29.390625 15.410156 29.867188 16 29.867188 C 16.589844 29.867188 17.066406 29.390625 17.066406 28.800781 L 17.066406 28.617188 C 17.066406 28.105469 17.425781 27.652344 17.929688 27.570312 C 18.175781 27.53125 18.414062 27.484375 18.65625 27.429688 C 19.148438 27.320312 19.648438 27.597656 19.84375 28.066406 L 19.914062 28.234375 C 20.140625 28.777344 20.765625 29.035156 21.308594 28.8125 C 21.851562 28.585938 22.113281 27.960938 21.886719 27.417969 L 21.8125 27.246094 C 21.621094 26.777344 21.777344 26.21875 22.210938 25.949219 C 22.417969 25.820312 22.621094 25.683594 22.824219 25.542969 C 23.234375 25.246094 23.808594 25.3125 24.167969 25.671875 L 24.296875 25.804688 C 24.714844 26.21875 25.386719 26.21875 25.804688 25.804688 C 26.003906 25.605469 26.117188 25.335938 26.117188 25.050781 C 26.117188 24.769531 26.003906 24.496094 25.804688 24.296875 L 25.679688 24.164062 C 25.316406 23.804688 25.246094 23.234375 25.542969 22.820312 C 25.6875 22.621094 25.824219 22.414062 25.953125 22.207031 C 26.222656 21.773438 26.78125 21.613281 27.25 21.8125 L 27.417969 21.882812 C 27.679688 21.992188 27.972656 21.992188 28.234375 21.882812 C 28.496094 21.777344 28.707031 21.566406 28.8125 21.304688 C 29.039062 20.761719 28.78125 20.136719 28.238281 19.910156 L 28.070312 19.84375 C 27.601562 19.648438 27.320312 19.148438 27.433594 18.652344 C 27.488281 18.414062 27.535156 18.171875 27.574219 17.925781 C 27.652344 17.425781 28.105469 17.066406 28.617188 17.066406 L 28.800781 17.066406 C 29.390625 17.066406 29.867188 16.589844 29.867188 16 C 29.867188 15.410156 29.390625 14.933594 28.800781 14.933594 L 28.617188 14.933594 C 28.105469 14.933594 27.652344 14.574219 27.570312 14.070312 C 27.53125 13.828125 27.484375 13.585938 27.429688 13.34375 C 27.320312 12.851562 27.597656 12.351562 28.066406 12.15625 L 28.234375 12.085938 C 28.777344 11.859375 29.035156 11.234375 28.8125 10.691406 C 28.585938 10.148438 27.960938 9.890625 27.417969 10.113281 L 27.246094 10.1875 C 26.777344 10.378906 26.21875 10.222656 25.949219 9.789062 C 25.820312 9.582031 25.683594 9.378906 25.542969 9.175781 C 25.246094 8.765625 25.3125 8.191406 25.671875 7.832031 L 25.804688 7.703125 C 26.21875 7.285156 26.21875 6.613281 25.804688 6.195312 C 25.605469 5.996094 25.335938 5.882812 25.050781 5.882812 C 24.769531 5.882812 24.496094 5.996094 24.296875 6.195312 L 24.167969 6.324219 C 23.808594 6.683594 23.234375 6.753906 22.820312 6.457031 C 22.617188 6.316406 22.414062 6.179688 22.207031 6.046875 C 21.773438 5.777344 21.617188 5.222656 21.8125 4.753906 L 21.882812 4.582031 C 22.109375 4.039062 21.851562 3.414062 21.308594 3.1875 C 21.046875 3.078125 20.753906 3.078125 20.492188 3.1875 C 20.230469 3.296875 20.023438 3.503906 19.914062 3.765625 L 19.84375 3.933594 C 19.648438 4.398438 19.148438 4.679688 18.652344 4.570312 C 18.410156 4.515625 18.167969 4.464844 17.925781 4.425781 C 17.425781 4.347656 17.066406 3.894531 17.066406 3.382812 L 17.066406 3.199219 C 17.066406 2.609375 16.589844 2.132812 16 2.132812 M 16 7.464844 C 20.710938 7.464844 24.535156 11.289062 24.535156 16 C 24.535156 20.710938 20.710938 24.535156 16 24.535156 C 11.289062 24.535156 7.464844 20.710938 7.464844 16 C 7.464844 11.289062 11.289062 7.464844 16 7.464844 M 13.867188 11.734375 C 13.277344 11.734375 12.800781 12.210938 12.800781 12.800781 L 12.800781 19.199219 C 12.800781 19.589844 13.011719 19.949219 13.355469 20.136719 C 13.699219 20.328125 14.117188 20.3125 14.445312 20.097656 L 20.703125 16.972656 C 21.074219 16.804688 21.316406 16.445312 21.332031 16.039062 C 21.34375 15.632812 21.125 15.253906 20.765625 15.0625 L 20.679688 15.015625 L 20.671875 15.015625 L 14.40625 11.882812 C 14.242188 11.785156 14.058594 11.734375 13.867188 11.734375 "/>
</svg>
